<?xml version="1.0" encoding="UTF-8" standalone="no"?>
<!DOCTYPE svg PUBLIC "-//W3C//DTD SVG 1.1//EN"
 "http://www.w3.org/Graphics/SVG/1.1/DTD/svg11.dtd">
<!-- Generated by graphviz version 2.43.0 (0)
 -->
<!-- Title: global/src/random/Boost165ExponentialDistribution.hpp Pages: 1 -->
<svg width="1696pt" height="170pt"
 viewBox="0.00 0.00 1695.50 170.00" xmlns="http://www.w3.org/2000/svg" xmlns:xlink="http://www.w3.org/1999/xlink">
<g id="graph0" class="graph" transform="scale(1 1) rotate(0) translate(4 166)">
<title>global/src/random/Boost165ExponentialDistribution.hpp</title>
<!-- Node1 -->
<g id="Node000001" class="node">
<title>Node1</title>
<g id="a_Node000001"><a xlink:title=" ">
<polygon fill="#999999" stroke="#666666" points="557.5,-162 404.5,-162 404.5,-132 557.5,-132 557.5,-162"/>
<text text-anchor="start" x="412.5" y="-150" font-family="Helvetica,sans-Serif" font-size="10.00">global/src/random/Boost165</text>
<text text-anchor="middle" x="481" y="-139" font-family="Helvetica,sans-Serif" font-size="10.00">ExponentialDistribution.hpp</text>
</a>
</g>
</g>
<!-- Node2 -->
<g id="Node000002" class="node">
<title>Node2</title>
<g id="a_Node000002"><a xlink:title=" ">
<polygon fill="#e0e0e0" stroke="#999999" points="98,-90.5 0,-90.5 0,-71.5 98,-71.5 98,-90.5"/>
<text text-anchor="middle" x="49" y="-78.5" font-family="Helvetica,sans-Serif" font-size="10.00">boost/assert.hpp</text>
</a>
</g>
</g>
<!-- Node1&#45;&gt;Node2 -->
<g id="edge1_Node000001_Node000002" class="edge">
<title>Node1&#45;&gt;Node2</title>
<g id="a_edge1_Node000001_Node000002"><a xlink:title=" ">
<path fill="none" stroke="#63b8ff" d="M404.34,-138.11C328.48,-129.75 209.22,-115.12 107,-96 101.97,-95.06 96.73,-93.96 91.54,-92.8"/>
<polygon fill="#63b8ff" stroke="#63b8ff" points="92.22,-89.37 81.69,-90.52 90.64,-96.19 92.22,-89.37"/>
</a>
</g>
</g>
<!-- Node3 -->
<g id="Node000003" class="node">
<title>Node3</title>
<g id="a_Node000003"><a xlink:title=" ">
<polygon fill="#e0e0e0" stroke="#999999" points="226,-96 116,-96 116,-66 226,-66 226,-96"/>
<text text-anchor="start" x="124" y="-84" font-family="Helvetica,sans-Serif" font-size="10.00">boost/config/no_tr1</text>
<text text-anchor="middle" x="171" y="-73" font-family="Helvetica,sans-Serif" font-size="10.00">/cmath.hpp</text>
</a>
</g>
</g>
<!-- Node1&#45;&gt;Node3 -->
<g id="edge2_Node000001_Node000003" class="edge">
<title>Node1&#45;&gt;Node3</title>
<g id="a_edge2_Node000001_Node000003"><a xlink:title=" ">
<path fill="none" stroke="#63b8ff" d="M410.69,-132C363.87,-122.61 300.7,-109.81 236.1,-96.22"/>
<polygon fill="#63b8ff" stroke="#63b8ff" points="236.65,-92.76 226.15,-94.12 235.21,-99.61 236.65,-92.76"/>
</a>
</g>
</g>
<!-- Node4 -->
<g id="Node000004" class="node">
<title>Node4</title>
<g id="a_Node000004"><a xlink:title=" ">
<polygon fill="#e0e0e0" stroke="#999999" points="339.5,-90.5 244.5,-90.5 244.5,-71.5 339.5,-71.5 339.5,-90.5"/>
<text text-anchor="middle" x="292" y="-78.5" font-family="Helvetica,sans-Serif" font-size="10.00">boost/limits.hpp</text>
</a>
</g>
</g>
<!-- Node1&#45;&gt;Node4 -->
<g id="edge3_Node000001_Node000004" class="edge">
<title>Node1&#45;&gt;Node4</title>
<g id="a_edge3_Node000001_Node000004"><a xlink:title=" ">
<path fill="none" stroke="#63b8ff" d="M439.52,-131.95C405.79,-120.53 358.74,-104.6 326.91,-93.82"/>
<polygon fill="#63b8ff" stroke="#63b8ff" points="327.75,-90.41 317.15,-90.52 325.5,-97.04 327.75,-90.41"/>
</a>
</g>
</g>
<!-- Node5 -->
<g id="Node000005" class="node">
<title>Node5</title>
<g id="a_Node000005"><a xlink:title=" ">
<polygon fill="#e0e0e0" stroke="#999999" points="472.5,-96 357.5,-96 357.5,-66 472.5,-66 472.5,-96"/>
<text text-anchor="start" x="365.5" y="-84" font-family="Helvetica,sans-Serif" font-size="10.00">boost/random/detail</text>
<text text-anchor="middle" x="415" y="-73" font-family="Helvetica,sans-Serif" font-size="10.00">/config.hpp</text>
</a>
</g>
</g>
<!-- Node1&#45;&gt;Node5 -->
<g id="edge4_Node000001_Node000005" class="edge">
<title>Node1&#45;&gt;Node5</title>
<g id="a_edge4_Node000001_Node000005"><a xlink:title=" ">
<path fill="none" stroke="#63b8ff" d="M466.35,-131.8C457.72,-123.43 446.64,-112.68 436.98,-103.31"/>
<polygon fill="#63b8ff" stroke="#63b8ff" points="439.22,-100.61 429.61,-96.16 434.35,-105.64 439.22,-100.61"/>
</a>
</g>
</g>
<!-- Node6 -->
<g id="Node000006" class="node">
<title>Node6</title>
<g id="a_Node000006"><a xlink:title=" ">
<polygon fill="#e0e0e0" stroke="#999999" points="605.5,-96 490.5,-96 490.5,-66 605.5,-66 605.5,-96"/>
<text text-anchor="start" x="498.5" y="-84" font-family="Helvetica,sans-Serif" font-size="10.00">boost/random/detail</text>
<text text-anchor="middle" x="548" y="-73" font-family="Helvetica,sans-Serif" font-size="10.00">/operators.hpp</text>
</a>
</g>
</g>
<!-- Node1&#45;&gt;Node6 -->
<g id="edge5_Node000001_Node000006" class="edge">
<title>Node1&#45;&gt;Node6</title>
<g id="a_edge5_Node000001_Node000006"><a xlink:title=" ">
<path fill="none" stroke="#63b8ff" d="M495.87,-131.8C504.63,-123.43 515.88,-112.68 525.69,-103.31"/>
<polygon fill="#63b8ff" stroke="#63b8ff" points="528.36,-105.6 533.17,-96.16 523.52,-100.54 528.36,-105.6"/>
</a>
</g>
</g>
<!-- Node7 -->
<g id="Node000007" class="node">
<title>Node7</title>
<g id="a_Node000007"><a xlink:title=" ">
<polygon fill="#e0e0e0" stroke="#999999" points="516.5,-30 391.5,-30 391.5,0 516.5,0 516.5,-30"/>
<text text-anchor="start" x="399.5" y="-18" font-family="Helvetica,sans-Serif" font-size="10.00">boost/random/uniform</text>
<text text-anchor="middle" x="454" y="-7" font-family="Helvetica,sans-Serif" font-size="10.00">_01.hpp</text>
</a>
</g>
</g>
<!-- Node1&#45;&gt;Node7 -->
<g id="edge6_Node000001_Node000007" class="edge">
<title>Node1&#45;&gt;Node7</title>
<g id="a_edge6_Node000001_Node000007"><a xlink:title=" ">
<path fill="none" stroke="#63b8ff" d="M546.47,-131.94C590.77,-119.26 637.3,-97.7 614,-66 608.02,-57.86 561.44,-43.84 520.08,-32.71"/>
<polygon fill="#63b8ff" stroke="#63b8ff" points="520.82,-29.29 510.25,-30.1 519.02,-36.05 520.82,-29.29"/>
</a>
</g>
</g>
<!-- Node8 -->
<g id="Node000008" class="node">
<title>Node8</title>
<g id="a_Node000008"><a xlink:title=" ">
<polygon fill="#e0e0e0" stroke="#999999" points="710,-90.5 662,-90.5 662,-71.5 710,-71.5 710,-90.5"/>
<text text-anchor="middle" x="686" y="-78.5" font-family="Helvetica,sans-Serif" font-size="10.00">iosfwd</text>
</a>
</g>
</g>
<!-- Node1&#45;&gt;Node8 -->
<g id="edge7_Node000001_Node000008" class="edge">
<title>Node1&#45;&gt;Node8</title>
<g id="a_edge7_Node000001_Node000008"><a xlink:title=" ">
<path fill="none" stroke="#63b8ff" d="M530.94,-131.93C564.26,-122.32 608.95,-109.02 648,-96 649.9,-95.37 651.85,-94.7 653.81,-94.02"/>
<polygon fill="#63b8ff" stroke="#63b8ff" points="655.34,-97.19 663.58,-90.52 652.98,-90.6 655.34,-97.19"/>
</a>
</g>
</g>
<!-- Node9 -->
<g id="Node000009" class="node">
<title>Node9</title>
<g id="a_Node000009"><a xlink:href="Boost165IntFloatPair_8hpp.html" target="_top" xlink:title=" ">
<polygon fill="white" stroke="#666666" points="1046,-90.5 908,-90.5 908,-71.5 1046,-71.5 1046,-90.5"/>
<text text-anchor="middle" x="977" y="-78.5" font-family="Helvetica,sans-Serif" font-size="10.00">Boost165IntFloatPair.hpp</text>
</a>
</g>
</g>
<!-- Node1&#45;&gt;Node9 -->
<g id="edge8_Node000001_Node000009" class="edge">
<title>Node1&#45;&gt;Node9</title>
<g id="a_edge8_Node000001_Node000009"><a xlink:title=" ">
<path fill="none" stroke="#63b8ff" d="M557.68,-136.11C650.99,-124.07 807.57,-103.86 900.7,-91.85"/>
<polygon fill="#63b8ff" stroke="#63b8ff" points="901.43,-95.28 910.9,-90.53 900.53,-88.34 901.43,-95.28"/>
</a>
</g>
</g>
<!-- Node9&#45;&gt;Node7 -->
<g id="edge14_Node000009_Node000007" class="edge">
<title>Node9&#45;&gt;Node7</title>
<g id="a_edge14_Node000009_Node000007"><a xlink:title=" ">
<path fill="none" stroke="#63b8ff" d="M907.84,-74.18C821.04,-66.47 667.41,-51.46 526.77,-30.2"/>
<polygon fill="#63b8ff" stroke="#63b8ff" points="527.08,-26.7 516.67,-28.66 526.03,-33.62 527.08,-26.7"/>
</a>
</g>
</g>
<!-- Node10 -->
<g id="Node000010" class="node">
<title>Node10</title>
<g id="a_Node000010"><a xlink:title=" ">
<polygon fill="#e0e0e0" stroke="#999999" points="635.5,-24.5 534.5,-24.5 534.5,-5.5 635.5,-5.5 635.5,-24.5"/>
<text text-anchor="middle" x="585" y="-12.5" font-family="Helvetica,sans-Serif" font-size="10.00">boost/integer.hpp</text>
</a>
</g>
</g>
<!-- Node9&#45;&gt;Node10 -->
<g id="edge9_Node000009_Node000010" class="edge">
<title>Node9&#45;&gt;Node10</title>
<g id="a_edge9_Node000009_Node000010"><a xlink:title=" ">
<path fill="none" stroke="#63b8ff" d="M908.79,-71.46C841.28,-62.61 735.12,-47.62 644,-30 639.02,-29.04 633.83,-27.94 628.68,-26.8"/>
<polygon fill="#63b8ff" stroke="#63b8ff" points="629.43,-23.38 618.9,-24.56 627.87,-30.2 629.43,-23.38"/>
</a>
</g>
</g>
<!-- Node11 -->
<g id="Node000011" class="node">
<title>Node11</title>
<g id="a_Node000011"><a xlink:title=" ">
<polygon fill="#e0e0e0" stroke="#999999" points="772.5,-30 653.5,-30 653.5,0 772.5,0 772.5,-30"/>
<text text-anchor="start" x="661.5" y="-18" font-family="Helvetica,sans-Serif" font-size="10.00">boost/integer/integer</text>
<text text-anchor="middle" x="713" y="-7" font-family="Helvetica,sans-Serif" font-size="10.00">_mask.hpp</text>
</a>
</g>
</g>
<!-- Node9&#45;&gt;Node11 -->
<g id="edge10_Node000009_Node000011" class="edge">
<title>Node9&#45;&gt;Node11</title>
<g id="a_edge10_Node000009_Node000011"><a xlink:title=" ">
<path fill="none" stroke="#63b8ff" d="M941.67,-71.44C900.7,-61.5 832.24,-44.91 780.88,-32.46"/>
<polygon fill="#63b8ff" stroke="#63b8ff" points="781.4,-28.98 770.85,-30.02 779.75,-35.78 781.4,-28.98"/>
</a>
</g>
</g>
<!-- Node12 -->
<g id="Node000012" class="node">
<title>Node12</title>
<g id="a_Node000012"><a xlink:title=" ">
<polygon fill="#e0e0e0" stroke="#999999" points="901,-24.5 791,-24.5 791,-5.5 901,-5.5 901,-24.5"/>
<text text-anchor="middle" x="846" y="-12.5" font-family="Helvetica,sans-Serif" font-size="10.00">boost/mpl/bool.hpp</text>
</a>
</g>
</g>
<!-- Node9&#45;&gt;Node12 -->
<g id="edge11_Node000009_Node000012" class="edge">
<title>Node9&#45;&gt;Node12</title>
<g id="a_edge11_Node000009_Node000012"><a xlink:title=" ">
<path fill="none" stroke="#63b8ff" d="M959.33,-71.37C937.16,-60.54 898.92,-41.85 873.05,-29.22"/>
<polygon fill="#63b8ff" stroke="#63b8ff" points="874.33,-25.94 863.81,-24.7 871.25,-32.23 874.33,-25.94"/>
</a>
</g>
</g>
<!-- Node13 -->
<g id="Node000013" class="node">
<title>Node13</title>
<g id="a_Node000013"><a xlink:title=" ">
<polygon fill="#e0e0e0" stroke="#999999" points="1034.5,-30 919.5,-30 919.5,0 1034.5,0 1034.5,-30"/>
<text text-anchor="start" x="927.5" y="-18" font-family="Helvetica,sans-Serif" font-size="10.00">boost/random/detail</text>
<text text-anchor="middle" x="977" y="-7" font-family="Helvetica,sans-Serif" font-size="10.00">/integer_log2.hpp</text>
</a>
</g>
</g>
<!-- Node9&#45;&gt;Node13 -->
<g id="edge12_Node000009_Node000013" class="edge">
<title>Node9&#45;&gt;Node13</title>
<g id="a_edge12_Node000009_Node000013"><a xlink:title=" ">
<path fill="none" stroke="#63b8ff" d="M977,-71.37C977,-63.49 977,-51.45 977,-40.6"/>
<polygon fill="#63b8ff" stroke="#63b8ff" points="980.5,-40.36 977,-30.36 973.5,-40.36 980.5,-40.36"/>
</a>
</g>
</g>
<!-- Node14 -->
<g id="Node000014" class="node">
<title>Node14</title>
<g id="a_Node000014"><a xlink:title=" ">
<polygon fill="#e0e0e0" stroke="#999999" points="1205,-30 1053,-30 1053,0 1205,0 1205,-30"/>
<text text-anchor="start" x="1061" y="-18" font-family="Helvetica,sans-Serif" font-size="10.00">boost/random/detail</text>
<text text-anchor="middle" x="1129" y="-7" font-family="Helvetica,sans-Serif" font-size="10.00">/signed_unsigned_tools.hpp</text>
</a>
</g>
</g>
<!-- Node9&#45;&gt;Node14 -->
<g id="edge13_Node000009_Node000014" class="edge">
<title>Node9&#45;&gt;Node14</title>
<g id="a_edge13_Node000009_Node000014"><a xlink:title=" ">
<path fill="none" stroke="#63b8ff" d="M997.5,-71.37C1020.07,-61.87 1057,-46.32 1085.98,-34.11"/>
<polygon fill="#63b8ff" stroke="#63b8ff" points="1087.62,-37.22 1095.48,-30.12 1084.9,-30.77 1087.62,-37.22"/>
</a>
</g>
</g>
<!-- Node15 -->
<g id="Node000015" class="node">
<title>Node15</title>
<g id="a_Node000015"><a xlink:title=" ">
<polygon fill="#e0e0e0" stroke="#999999" points="1348.5,-30 1223.5,-30 1223.5,0 1348.5,0 1348.5,-30"/>
<text text-anchor="start" x="1231.5" y="-18" font-family="Helvetica,sans-Serif" font-size="10.00">boost/random/uniform</text>
<text text-anchor="middle" x="1286" y="-7" font-family="Helvetica,sans-Serif" font-size="10.00">_int_distribution.hpp</text>
</a>
</g>
</g>
<!-- Node9&#45;&gt;Node15 -->
<g id="edge15_Node000009_Node000015" class="edge">
<title>Node9&#45;&gt;Node15</title>
<g id="a_edge15_Node000009_Node000015"><a xlink:title=" ">
<path fill="none" stroke="#63b8ff" d="M1018.35,-71.44C1068.12,-61.13 1152.58,-43.63 1213.32,-31.05"/>
<polygon fill="#63b8ff" stroke="#63b8ff" points="1214.15,-34.46 1223.23,-29 1212.73,-27.6 1214.15,-34.46"/>
</a>
</g>
</g>
<!-- Node16 -->
<g id="Node000016" class="node">
<title>Node16</title>
<g id="a_Node000016"><a xlink:title=" ">
<polygon fill="#e0e0e0" stroke="#999999" points="1477,-30 1367,-30 1367,0 1477,0 1477,-30"/>
<text text-anchor="start" x="1375" y="-18" font-family="Helvetica,sans-Serif" font-size="10.00">boost/type_traits/is</text>
<text text-anchor="middle" x="1422" y="-7" font-family="Helvetica,sans-Serif" font-size="10.00">_integral.hpp</text>
</a>
</g>
</g>
<!-- Node9&#45;&gt;Node16 -->
<g id="edge16_Node000009_Node000016" class="edge">
<title>Node9&#45;&gt;Node16</title>
<g id="a_edge16_Node000009_Node000016"><a xlink:title=" ">
<path fill="none" stroke="#63b8ff" d="M1046.1,-72.72C1120.47,-64.48 1242.42,-49.8 1356.91,-30.1"/>
<polygon fill="#63b8ff" stroke="#63b8ff" points="1357.65,-33.52 1366.9,-28.36 1356.45,-26.63 1357.65,-33.52"/>
</a>
</g>
</g>
<!-- Node17 -->
<g id="Node000017" class="node">
<title>Node17</title>
<g id="a_Node000017"><a xlink:title=" ">
<polygon fill="#e0e0e0" stroke="#999999" points="1624.5,-30 1495.5,-30 1495.5,0 1624.5,0 1624.5,-30"/>
<text text-anchor="start" x="1503.5" y="-18" font-family="Helvetica,sans-Serif" font-size="10.00">boost/type_traits/make</text>
<text text-anchor="middle" x="1560" y="-7" font-family="Helvetica,sans-Serif" font-size="10.00">_unsigned.hpp</text>
</a>
</g>
</g>
<!-- Node9&#45;&gt;Node17 -->
<g id="edge17_Node000009_Node000017" class="edge">
<title>Node9&#45;&gt;Node17</title>
<g id="a_edge17_Node000009_Node000017"><a xlink:title=" ">
<path fill="none" stroke="#63b8ff" d="M1046.39,-75.15C1142.57,-68 1322,-53.07 1485.25,-30.01"/>
<polygon fill="#63b8ff" stroke="#63b8ff" points="1486.08,-33.43 1495.48,-28.56 1485.09,-26.5 1486.08,-33.43"/>
</a>
</g>
</g>
<!-- Node18 -->
<g id="Node000018" class="node">
<title>Node18</title>
<g id="a_Node000018"><a xlink:title=" ">
<polygon fill="#e0e0e0" stroke="#999999" points="1687.5,-24.5 1642.5,-24.5 1642.5,-5.5 1687.5,-5.5 1687.5,-24.5"/>
<text text-anchor="middle" x="1665" y="-12.5" font-family="Helvetica,sans-Serif" font-size="10.00">utility</text>
</a>
</g>
</g>
<!-- Node9&#45;&gt;Node18 -->
<g id="edge18_Node000009_Node000018" class="edge">
<title>Node9&#45;&gt;Node18</title>
<g id="a_edge18_Node000009_Node000018"><a xlink:title=" ">
<path fill="none" stroke="#63b8ff" d="M1046.27,-77.77C1191.68,-72.59 1524.34,-58.01 1634,-30 1635.73,-29.56 1637.49,-29.02 1639.23,-28.43"/>
<polygon fill="#63b8ff" stroke="#63b8ff" points="1641,-31.49 1648.98,-24.51 1638.39,-24.99 1641,-31.49"/>
</a>
</g>
</g>
</g>
</svg>
