<?xml version="1.0" encoding="UTF-8" standalone="no"?>
<!DOCTYPE svg PUBLIC "-//W3C//DTD SVG 1.1//EN"
 "http://www.w3.org/Graphics/SVG/1.1/DTD/svg11.dtd">
<!-- Generated by graphviz version 2.43.0 (0)
 -->
<!-- Title: WntConcentration&lt; DIM &gt; Pages: 1 -->
<svg width="263pt" height="778pt"
 viewBox="0.00 0.00 263.00 778.00" xmlns="http://www.w3.org/2000/svg" xmlns:xlink="http://www.w3.org/1999/xlink">
<g id="graph0" class="graph" transform="scale(1 1) rotate(0) translate(4 774)">
<title>WntConcentration&lt; DIM &gt;</title>
<!-- Node1 -->
<g id="Node000001" class="node">
<title>Node1</title>
<g id="a_Node000001"><a xlink:title=" ">
<polygon fill="#999999" stroke="transparent" points="190,-409 0,-409 0,0 190,0 190,-409"/>
<text text-anchor="start" x="30" y="-396.5" font-family="Helvetica,sans-Serif" font-size="10.00">WntConcentration&lt; DIM &gt;</text>
<text text-anchor="start" x="6.5" y="-381.5" font-family="Helvetica,sans-Serif" font-size="10.00">&#45;</text>
<text text-anchor="start" x="17" y="-381.5" font-family="Helvetica,sans-Serif" font-size="10.00">mCryptLength</text>
<text text-anchor="start" x="6.5" y="-366.5" font-family="Helvetica,sans-Serif" font-size="10.00">&#45;</text>
<text text-anchor="start" x="17" y="-366.5" font-family="Helvetica,sans-Serif" font-size="10.00">mLengthSet</text>
<text text-anchor="start" x="6.5" y="-351.5" font-family="Helvetica,sans-Serif" font-size="10.00">&#45;</text>
<text text-anchor="start" x="17" y="-351.5" font-family="Helvetica,sans-Serif" font-size="10.00">mWntType</text>
<text text-anchor="start" x="6.5" y="-336.5" font-family="Helvetica,sans-Serif" font-size="10.00">&#45;</text>
<text text-anchor="start" x="17" y="-336.5" font-family="Helvetica,sans-Serif" font-size="10.00">mpCellPopulation</text>
<text text-anchor="start" x="6.5" y="-321.5" font-family="Helvetica,sans-Serif" font-size="10.00">&#45;</text>
<text text-anchor="start" x="17" y="-321.5" font-family="Helvetica,sans-Serif" font-size="10.00">mTypeSet</text>
<text text-anchor="start" x="6.5" y="-306.5" font-family="Helvetica,sans-Serif" font-size="10.00">&#45;</text>
<text text-anchor="start" x="17" y="-306.5" font-family="Helvetica,sans-Serif" font-size="10.00">mConstantWntValueForTesting</text>
<text text-anchor="start" x="6.5" y="-291.5" font-family="Helvetica,sans-Serif" font-size="10.00">&#45;</text>
<text text-anchor="start" x="17" y="-291.5" font-family="Helvetica,sans-Serif" font-size="10.00">mUseConstantWntValueForTesting</text>
<text text-anchor="start" x="6.5" y="-276.5" font-family="Helvetica,sans-Serif" font-size="10.00">&#45;</text>
<text text-anchor="start" x="17" y="-276.5" font-family="Helvetica,sans-Serif" font-size="10.00">mWntConcentrationParameter</text>
<text text-anchor="start" x="6.5" y="-261.5" font-family="Helvetica,sans-Serif" font-size="10.00">&#45;</text>
<text text-anchor="start" x="17" y="-261.5" font-family="Helvetica,sans-Serif" font-size="10.00">mCryptProjectionParameterA</text>
<text text-anchor="start" x="6.5" y="-246.5" font-family="Helvetica,sans-Serif" font-size="10.00">&#45;</text>
<text text-anchor="start" x="17" y="-246.5" font-family="Helvetica,sans-Serif" font-size="10.00">mCryptProjectionParameterB</text>
<text text-anchor="start" x="6.5" y="-231.5" font-family="Helvetica,sans-Serif" font-size="10.00">&#45;</text>
<text text-anchor="start" x="17" y="-231.5" font-family="Helvetica,sans-Serif" font-size="10.00">mpInstance</text>
<text text-anchor="start" x="4" y="-216.5" font-family="Helvetica,sans-Serif" font-size="10.00">+</text>
<text text-anchor="start" x="17" y="-216.5" font-family="Helvetica,sans-Serif" font-size="10.00">~WntConcentration()</text>
<text text-anchor="start" x="4" y="-201.5" font-family="Helvetica,sans-Serif" font-size="10.00">+</text>
<text text-anchor="start" x="17" y="-201.5" font-family="Helvetica,sans-Serif" font-size="10.00">GetWntLevel()</text>
<text text-anchor="start" x="4" y="-186.5" font-family="Helvetica,sans-Serif" font-size="10.00">+</text>
<text text-anchor="start" x="17" y="-186.5" font-family="Helvetica,sans-Serif" font-size="10.00">GetWntLevel()</text>
<text text-anchor="start" x="4" y="-171.5" font-family="Helvetica,sans-Serif" font-size="10.00">+</text>
<text text-anchor="start" x="17" y="-171.5" font-family="Helvetica,sans-Serif" font-size="10.00">GetWntGradient()</text>
<text text-anchor="start" x="4" y="-156.5" font-family="Helvetica,sans-Serif" font-size="10.00">+</text>
<text text-anchor="start" x="17" y="-156.5" font-family="Helvetica,sans-Serif" font-size="10.00">GetWntGradient()</text>
<text text-anchor="start" x="4" y="-141.5" font-family="Helvetica,sans-Serif" font-size="10.00">+</text>
<text text-anchor="start" x="17" y="-141.5" font-family="Helvetica,sans-Serif" font-size="10.00">SetCellPopulation()</text>
<text text-anchor="start" x="4" y="-126.5" font-family="Helvetica,sans-Serif" font-size="10.00">+</text>
<text text-anchor="start" x="17" y="-126.5" font-family="Helvetica,sans-Serif" font-size="10.00">rGetCellPopulation()</text>
<text text-anchor="start" x="4" y="-111.5" font-family="Helvetica,sans-Serif" font-size="10.00">+</text>
<text text-anchor="start" x="17" y="-111.5" font-family="Helvetica,sans-Serif" font-size="10.00">GetCryptLength()</text>
<text text-anchor="start" x="4" y="-96.5" font-family="Helvetica,sans-Serif" font-size="10.00">+</text>
<text text-anchor="start" x="17" y="-96.5" font-family="Helvetica,sans-Serif" font-size="10.00">SetCryptLength()</text>
<text text-anchor="start" x="4" y="-81.5" font-family="Helvetica,sans-Serif" font-size="10.00">+</text>
<text text-anchor="start" x="17" y="-81.5" font-family="Helvetica,sans-Serif" font-size="10.00">GetType()</text>
<text text-anchor="start" x="17" y="-66.5" font-family="Helvetica,sans-Serif" font-size="10.00">and 9 more...</text>
<text text-anchor="start" x="4" y="-51.5" font-family="Helvetica,sans-Serif" font-size="10.00">+</text>
<text text-anchor="start" x="17" y="-51.5" font-family="Helvetica,sans-Serif" font-size="10.00">Instance()</text>
<text text-anchor="start" x="4" y="-36.5" font-family="Helvetica,sans-Serif" font-size="10.00">+</text>
<text text-anchor="start" x="17" y="-36.5" font-family="Helvetica,sans-Serif" font-size="10.00">Destroy()</text>
<text text-anchor="start" x="4" y="-21.5" font-family="Helvetica,sans-Serif" font-size="10.00">#</text>
<text text-anchor="start" x="17" y="-21.5" font-family="Helvetica,sans-Serif" font-size="10.00">WntConcentration()</text>
<text text-anchor="start" x="6.5" y="-6.5" font-family="Helvetica,sans-Serif" font-size="10.00">&#45;</text>
<text text-anchor="start" x="17" y="-6.5" font-family="Helvetica,sans-Serif" font-size="10.00">serialize()</text>
<polygon fill="#666666" stroke="#666666" points="0,-391.5 0,-391.5 190,-391.5 190,-391.5 0,-391.5"/>
<polygon fill="#666666" stroke="#666666" points="0,-226.5 0,-226.5 15,-226.5 15,-226.5 0,-226.5"/>
<polygon fill="#666666" stroke="#666666" points="15,-226.5 15,-226.5 190,-226.5 190,-226.5 15,-226.5"/>
<polygon fill="none" stroke="#666666" points="0,0 0,-409 190,-409 190,0 0,0"/>
</a>
</g>
</g>
<!-- Node2 -->
<g id="Node000002" class="node">
<title>Node2</title>
<g id="a_Node000002"><a xlink:href="classSerializableSingleton.html" target="_top" xlink:title=" ">
<polygon fill="white" stroke="transparent" points="176.5,-536 13.5,-536 13.5,-446 176.5,-446 176.5,-536"/>
<text text-anchor="start" x="19" y="-524" font-family="Helvetica,sans-Serif" font-size="10.00">SerializableSingleton</text>
<text text-anchor="start" x="19" y="-513" font-family="Helvetica,sans-Serif" font-size="10.00">&lt; WntConcentration&lt; DIM &gt; &gt;</text>
<text text-anchor="start" x="93.5" y="-498" font-family="Helvetica,sans-Serif" font-size="10.00"> </text>
<text text-anchor="start" x="21.5" y="-483" font-family="Helvetica,sans-Serif" font-size="10.00">+</text>
<text text-anchor="start" x="38" y="-483" font-family="Helvetica,sans-Serif" font-size="10.00">GetSerializationWrapper()</text>
<text text-anchor="start" x="24" y="-468" font-family="Helvetica,sans-Serif" font-size="10.00">&#45;</text>
<text text-anchor="start" x="38" y="-468" font-family="Helvetica,sans-Serif" font-size="10.00">save()</text>
<text text-anchor="start" x="24" y="-453" font-family="Helvetica,sans-Serif" font-size="10.00">&#45;</text>
<text text-anchor="start" x="38" y="-453" font-family="Helvetica,sans-Serif" font-size="10.00">load()</text>
<polygon fill="#666666" stroke="#666666" points="14,-508 14,-508 177,-508 177,-508 14,-508"/>
<polygon fill="#666666" stroke="#666666" points="14,-493 14,-493 177,-493 177,-493 14,-493"/>
<polygon fill="none" stroke="#666666" points="13.5,-446 13.5,-536 176.5,-536 176.5,-446 13.5,-446"/>
</a>
</g>
</g>
<!-- Node2&#45;&gt;Node1 -->
<g id="edge1_Node000001_Node000002" class="edge">
<title>Node2&#45;&gt;Node1</title>
<g id="a_edge1_Node000001_Node000002"><a xlink:title=" ">
<path fill="none" stroke="#63b8ff" d="M95,-435.75C95,-427.47 95,-418.55 95,-409.18"/>
<polygon fill="none" stroke="#63b8ff" points="91.5,-435.86 95,-445.86 98.5,-435.86 91.5,-435.86"/>
</a>
</g>
</g>
<!-- Node3 -->
<g id="Node000003" class="node">
<title>Node3</title>
<g id="a_Node000003"><a xlink:title=" ">
<polygon fill="white" stroke="transparent" points="144,-770 38,-770 38,-721 144,-721 144,-770"/>
<text text-anchor="start" x="43" y="-757.5" font-family="Helvetica,sans-Serif" font-size="10.00">boost::noncopyable</text>
<text text-anchor="start" x="89" y="-742.5" font-family="Helvetica,sans-Serif" font-size="10.00"> </text>
<text text-anchor="start" x="89" y="-727.5" font-family="Helvetica,sans-Serif" font-size="10.00"> </text>
<polygon fill="#bfbfbf" stroke="#bfbfbf" points="38,-752.5 38,-752.5 144,-752.5 144,-752.5 38,-752.5"/>
<polygon fill="#bfbfbf" stroke="#bfbfbf" points="38,-737.5 38,-737.5 144,-737.5 144,-737.5 38,-737.5"/>
<polygon fill="none" stroke="#bfbfbf" points="38,-721 38,-770 144,-770 144,-721 38,-721"/>
</a>
</g>
</g>
<!-- Node3&#45;&gt;Node2 -->
<g id="edge2_Node000002_Node000003" class="edge">
<title>Node3&#45;&gt;Node2</title>
<g id="a_edge2_Node000002_Node000003"><a xlink:title=" ">
<path fill="none" stroke="#8b1a1a" d="M91.54,-710.61C92.25,-665.53 93.51,-585.79 94.3,-536.08"/>
<polygon fill="none" stroke="#8b1a1a" points="88.04,-710.69 91.38,-720.75 95.03,-710.8 88.04,-710.69"/>
</a>
</g>
</g>
<!-- Node4 -->
<g id="Node000004" class="node">
<title>Node4</title>
<g id="a_Node000004"><a xlink:href="classSerializableSingleton.html" target="_top" xlink:title=" ">
<polygon fill="white" stroke="transparent" points="255,-684 107,-684 107,-594 255,-594 255,-684"/>
<text text-anchor="start" x="123" y="-672" font-family="Helvetica,sans-Serif" font-size="10.00">SerializableSingleton</text>
<text text-anchor="start" x="123" y="-661" font-family="Helvetica,sans-Serif" font-size="10.00">&lt; SINGLETON_CLASS &gt;</text>
<text text-anchor="start" x="179" y="-646" font-family="Helvetica,sans-Serif" font-size="10.00"> </text>
<text text-anchor="start" x="111" y="-631" font-family="Helvetica,sans-Serif" font-size="10.00">+</text>
<text text-anchor="start" x="124" y="-631" font-family="Helvetica,sans-Serif" font-size="10.00">GetSerializationWrapper()</text>
<text text-anchor="start" x="113.5" y="-616" font-family="Helvetica,sans-Serif" font-size="10.00">&#45;</text>
<text text-anchor="start" x="124" y="-616" font-family="Helvetica,sans-Serif" font-size="10.00">save()</text>
<text text-anchor="start" x="113.5" y="-601" font-family="Helvetica,sans-Serif" font-size="10.00">&#45;</text>
<text text-anchor="start" x="124" y="-601" font-family="Helvetica,sans-Serif" font-size="10.00">load()</text>
<polygon fill="#666666" stroke="#666666" points="107,-656 107,-656 255,-656 255,-656 107,-656"/>
<polygon fill="#666666" stroke="#666666" points="107,-641 107,-641 255,-641 255,-641 107,-641"/>
<polygon fill="none" stroke="#666666" points="107,-594 107,-684 255,-684 255,-594 107,-594"/>
</a>
</g>
</g>
<!-- Node3&#45;&gt;Node4 -->
<g id="edge4_Node000004_Node000003" class="edge">
<title>Node3&#45;&gt;Node4</title>
<g id="a_edge4_Node000004_Node000003"><a xlink:title=" ">
<path fill="none" stroke="#8b1a1a" d="M118.05,-713.09C125.88,-704 134.58,-693.9 142.95,-684.18"/>
<polygon fill="none" stroke="#8b1a1a" points="115.3,-710.93 111.42,-720.79 120.6,-715.49 115.3,-710.93"/>
</a>
</g>
</g>
<!-- Node4&#45;&gt;Node2 -->
<g id="edge3_Node000002_Node000004" class="edge">
<title>Node4&#45;&gt;Node2</title>
<g id="a_edge3_Node000002_Node000004"><a xlink:title=" ">
<path fill="none" stroke="orange" d="M149.8,-585.03C140.33,-568.96 130.03,-551.48 120.95,-536.05"/>
<polygon fill="orange" stroke="orange" points="146.87,-586.96 154.96,-593.8 152.9,-583.41 146.87,-586.96"/>
</a>
</g>
<text text-anchor="start" x="143" y="-568" font-family="Helvetica,sans-Serif" font-size="10.00" fill="grey"> &lt; WntConcentration</text>
<text text-anchor="middle" x="194.5" y="-557" font-family="Helvetica,sans-Serif" font-size="10.00" fill="grey">&lt; DIM &gt; &gt;</text>
</g>
</g>
</svg>
