<?xml version="1.0" encoding="UTF-8" standalone="no"?>
<!DOCTYPE svg PUBLIC "-//W3C//DTD SVG 1.1//EN"
 "http://www.w3.org/Graphics/SVG/1.1/DTD/svg11.dtd">
<!-- Generated by graphviz version 2.43.0 (0)
 -->
<!-- Title: CmguiMeshWriter&lt; ELEMENT_DIM, SPACE_DIM &gt; Pages: 1 -->
<svg width="1715pt" height="1453pt"
 viewBox="0.00 0.00 1715.00 1453.00" xmlns="http://www.w3.org/2000/svg" xmlns:xlink="http://www.w3.org/1999/xlink">
<g id="graph0" class="graph" transform="scale(1 1) rotate(0) translate(4 1449)">
<title>CmguiMeshWriter&lt; ELEMENT_DIM, SPACE_DIM &gt;</title>
<!-- Node1 -->
<g id="Node000001" class="node">
<title>Node1</title>
<g id="a_Node000001"><a xlink:title=" ">
<polygon fill="#999999" stroke="transparent" points="849.5,-240 694.5,-240 694.5,0 849.5,0 849.5,-240"/>
<text text-anchor="start" x="700" y="-228" font-family="Helvetica,sans-Serif" font-size="10.00">CmguiMeshWriter&lt; ELEMENT</text>
<text text-anchor="start" x="723.5" y="-217" font-family="Helvetica,sans-Serif" font-size="10.00">_DIM, SPACE_DIM &gt;</text>
<text text-anchor="start" x="770.5" y="-202" font-family="Helvetica,sans-Serif" font-size="10.00"> </text>
<text text-anchor="start" x="699" y="-187" font-family="Helvetica,sans-Serif" font-size="10.00">+</text>
<text text-anchor="start" x="712" y="-187" font-family="Helvetica,sans-Serif" font-size="10.00">CmguiMeshWriter()</text>
<text text-anchor="start" x="699" y="-172" font-family="Helvetica,sans-Serif" font-size="10.00">+</text>
<text text-anchor="start" x="712" y="-172" font-family="Helvetica,sans-Serif" font-size="10.00">WriteFiles()</text>
<text text-anchor="start" x="699" y="-157" font-family="Helvetica,sans-Serif" font-size="10.00">+</text>
<text text-anchor="start" x="712" y="-157" font-family="Helvetica,sans-Serif" font-size="10.00">SetAdditionalFieldNames()</text>
<text text-anchor="start" x="699" y="-142" font-family="Helvetica,sans-Serif" font-size="10.00">+</text>
<text text-anchor="start" x="712" y="-142" font-family="Helvetica,sans-Serif" font-size="10.00">SetRegionNames()</text>
<text text-anchor="start" x="699" y="-127" font-family="Helvetica,sans-Serif" font-size="10.00">+</text>
<text text-anchor="start" x="712" y="-127" font-family="Helvetica,sans-Serif" font-size="10.00">~CmguiMeshWriter()</text>
<text text-anchor="start" x="699" y="-112" font-family="Helvetica,sans-Serif" font-size="10.00">#</text>
<text text-anchor="start" x="712" y="-112" font-family="Helvetica,sans-Serif" font-size="10.00">GetOpenMode()</text>
<text text-anchor="start" x="699" y="-97" font-family="Helvetica,sans-Serif" font-size="10.00">#</text>
<text text-anchor="start" x="712" y="-97" font-family="Helvetica,sans-Serif" font-size="10.00">OpenNodeFile()</text>
<text text-anchor="start" x="699" y="-82" font-family="Helvetica,sans-Serif" font-size="10.00">#</text>
<text text-anchor="start" x="712" y="-82" font-family="Helvetica,sans-Serif" font-size="10.00">OpenElementFiles()</text>
<text text-anchor="start" x="699" y="-67" font-family="Helvetica,sans-Serif" font-size="10.00">#</text>
<text text-anchor="start" x="712" y="-67" font-family="Helvetica,sans-Serif" font-size="10.00">WriteNodeFileHeader()</text>
<text text-anchor="start" x="699" y="-52" font-family="Helvetica,sans-Serif" font-size="10.00">#</text>
<text text-anchor="start" x="712" y="-52" font-family="Helvetica,sans-Serif" font-size="10.00">WriteElementsFileHeader()</text>
<text text-anchor="start" x="699" y="-37" font-family="Helvetica,sans-Serif" font-size="10.00">#</text>
<text text-anchor="start" x="712" y="-37" font-family="Helvetica,sans-Serif" font-size="10.00">CreateFilesWithHeaders()</text>
<text text-anchor="start" x="699" y="-22" font-family="Helvetica,sans-Serif" font-size="10.00">#</text>
<text text-anchor="start" x="712" y="-22" font-family="Helvetica,sans-Serif" font-size="10.00">AppendLocalDataToFiles()</text>
<text text-anchor="start" x="699" y="-7" font-family="Helvetica,sans-Serif" font-size="10.00">#</text>
<text text-anchor="start" x="712" y="-7" font-family="Helvetica,sans-Serif" font-size="10.00">WriteFilesFooter()</text>
<polygon fill="#666666" stroke="#666666" points="695,-212 695,-212 850,-212 850,-212 695,-212"/>
<polygon fill="#666666" stroke="#666666" points="695,-197 695,-197 850,-197 850,-197 695,-197"/>
<polygon fill="none" stroke="#666666" points="694.5,0 694.5,-240 849.5,-240 849.5,0 694.5,0"/>
</a>
</g>
</g>
<!-- Node2 -->
<g id="Node000002" class="node">
<title>Node2</title>
<g id="a_Node000002"><a xlink:href="classAbstractTetrahedralMeshWriter.html" target="_top" xlink:title=" ">
<polygon fill="white" stroke="transparent" points="862.5,-569 681.5,-569 681.5,-277 862.5,-277 862.5,-569"/>
<text text-anchor="start" x="695" y="-557" font-family="Helvetica,sans-Serif" font-size="10.00">AbstractTetrahedralMeshWriter</text>
<text text-anchor="start" x="695" y="-546" font-family="Helvetica,sans-Serif" font-size="10.00">&lt; ELEMENT_DIM, SPACE_DIM &gt;</text>
<text text-anchor="start" x="770.5" y="-531" font-family="Helvetica,sans-Serif" font-size="10.00"> </text>
<text text-anchor="start" x="686" y="-516" font-family="Helvetica,sans-Serif" font-size="10.00">+</text>
<text text-anchor="start" x="699" y="-516" font-family="Helvetica,sans-Serif" font-size="10.00">AbstractTetrahedralMeshWriter()</text>
<text text-anchor="start" x="686" y="-501" font-family="Helvetica,sans-Serif" font-size="10.00">+</text>
<text text-anchor="start" x="699" y="-501" font-family="Helvetica,sans-Serif" font-size="10.00">~AbstractTetrahedralMesh</text>
<text text-anchor="start" x="699" y="-490" font-family="Helvetica,sans-Serif" font-size="10.00">Writer()</text>
<text text-anchor="start" x="686" y="-475" font-family="Helvetica,sans-Serif" font-size="10.00">+</text>
<text text-anchor="start" x="699" y="-475" font-family="Helvetica,sans-Serif" font-size="10.00">WriteFilesUsingMesh()</text>
<text text-anchor="start" x="686" y="-460" font-family="Helvetica,sans-Serif" font-size="10.00">+</text>
<text text-anchor="start" x="699" y="-460" font-family="Helvetica,sans-Serif" font-size="10.00">WriteFilesUsingMeshReader</text>
<text text-anchor="start" x="699" y="-449" font-family="Helvetica,sans-Serif" font-size="10.00">AndMesh()</text>
<text text-anchor="start" x="686" y="-434" font-family="Helvetica,sans-Serif" font-size="10.00">+</text>
<text text-anchor="start" x="699" y="-434" font-family="Helvetica,sans-Serif" font-size="10.00">GetNextNode()</text>
<text text-anchor="start" x="686" y="-419" font-family="Helvetica,sans-Serif" font-size="10.00">+</text>
<text text-anchor="start" x="699" y="-419" font-family="Helvetica,sans-Serif" font-size="10.00">GetNextElement()</text>
<text text-anchor="start" x="686" y="-404" font-family="Helvetica,sans-Serif" font-size="10.00">+</text>
<text text-anchor="start" x="699" y="-404" font-family="Helvetica,sans-Serif" font-size="10.00">GetNextBoundaryElement()</text>
<text text-anchor="start" x="686" y="-389" font-family="Helvetica,sans-Serif" font-size="10.00">+</text>
<text text-anchor="start" x="699" y="-389" font-family="Helvetica,sans-Serif" font-size="10.00">GetNextCableElement()</text>
<text text-anchor="start" x="688.5" y="-374" font-family="Helvetica,sans-Serif" font-size="10.00">&#45;</text>
<text text-anchor="start" x="699" y="-374" font-family="Helvetica,sans-Serif" font-size="10.00">PostElement()</text>
<text text-anchor="start" x="688.5" y="-359" font-family="Helvetica,sans-Serif" font-size="10.00">&#45;</text>
<text text-anchor="start" x="699" y="-359" font-family="Helvetica,sans-Serif" font-size="10.00">UnpackElement()</text>
<text text-anchor="start" x="688.5" y="-344" font-family="Helvetica,sans-Serif" font-size="10.00">&#45;</text>
<text text-anchor="start" x="699" y="-344" font-family="Helvetica,sans-Serif" font-size="10.00">WriteFilesUsingParallelMesh()</text>
<text text-anchor="start" x="688.5" y="-329" font-family="Helvetica,sans-Serif" font-size="10.00">&#45;</text>
<text text-anchor="start" x="699" y="-329" font-family="Helvetica,sans-Serif" font-size="10.00">WriteNclFile()</text>
<text text-anchor="start" x="688.5" y="-314" font-family="Helvetica,sans-Serif" font-size="10.00">&#45;</text>
<text text-anchor="start" x="699" y="-314" font-family="Helvetica,sans-Serif" font-size="10.00">CreateFilesWithHeaders()</text>
<text text-anchor="start" x="688.5" y="-299" font-family="Helvetica,sans-Serif" font-size="10.00">&#45;</text>
<text text-anchor="start" x="699" y="-299" font-family="Helvetica,sans-Serif" font-size="10.00">AppendLocalDataToFiles()</text>
<text text-anchor="start" x="688.5" y="-284" font-family="Helvetica,sans-Serif" font-size="10.00">&#45;</text>
<text text-anchor="start" x="699" y="-284" font-family="Helvetica,sans-Serif" font-size="10.00">WriteFilesFooter()</text>
<polygon fill="#666666" stroke="#666666" points="682,-541 682,-541 863,-541 863,-541 682,-541"/>
<polygon fill="#666666" stroke="#666666" points="682,-526 682,-526 863,-526 863,-526 682,-526"/>
<polygon fill="none" stroke="#666666" points="681.5,-277 681.5,-569 862.5,-569 862.5,-277 681.5,-277"/>
</a>
</g>
</g>
<!-- Node2&#45;&gt;Node1 -->
<g id="edge1_Node000001_Node000002" class="edge">
<title>Node2&#45;&gt;Node1</title>
<g id="a_edge1_Node000001_Node000002"><a xlink:title=" ">
<path fill="none" stroke="#63b8ff" d="M772,-266.51C772,-257.76 772,-249.03 772,-240.44"/>
<polygon fill="none" stroke="#63b8ff" points="768.5,-266.79 772,-276.79 775.5,-266.79 768.5,-266.79"/>
</a>
</g>
</g>
<!-- Node3 -->
<g id="Node000003" class="node">
<title>Node3</title>
<g id="a_Node000003"><a xlink:href="classAbstractMeshWriter.html" target="_top" xlink:title=" ">
<polygon fill="white" stroke="transparent" points="656,-867 490,-867 490,-627 656,-627 656,-867"/>
<text text-anchor="start" x="495.5" y="-855" font-family="Helvetica,sans-Serif" font-size="10.00">AbstractMeshWriter</text>
<text text-anchor="start" x="495.5" y="-844" font-family="Helvetica,sans-Serif" font-size="10.00">&lt; ELEMENT_DIM, SPACE_DIM &gt;</text>
<text text-anchor="start" x="571" y="-829" font-family="Helvetica,sans-Serif" font-size="10.00"> </text>
<text text-anchor="start" x="494" y="-814" font-family="Helvetica,sans-Serif" font-size="10.00">+</text>
<text text-anchor="start" x="507" y="-814" font-family="Helvetica,sans-Serif" font-size="10.00">AbstractMeshWriter()</text>
<text text-anchor="start" x="494" y="-799" font-family="Helvetica,sans-Serif" font-size="10.00">+</text>
<text text-anchor="start" x="507" y="-799" font-family="Helvetica,sans-Serif" font-size="10.00">~AbstractMeshWriter()</text>
<text text-anchor="start" x="494" y="-784" font-family="Helvetica,sans-Serif" font-size="10.00">+</text>
<text text-anchor="start" x="507" y="-784" font-family="Helvetica,sans-Serif" font-size="10.00">GetOutputDirectory()</text>
<text text-anchor="start" x="494" y="-769" font-family="Helvetica,sans-Serif" font-size="10.00">+</text>
<text text-anchor="start" x="507" y="-769" font-family="Helvetica,sans-Serif" font-size="10.00">GetNumNodes()</text>
<text text-anchor="start" x="494" y="-754" font-family="Helvetica,sans-Serif" font-size="10.00">+</text>
<text text-anchor="start" x="507" y="-754" font-family="Helvetica,sans-Serif" font-size="10.00">GetNumElements()</text>
<text text-anchor="start" x="494" y="-739" font-family="Helvetica,sans-Serif" font-size="10.00">+</text>
<text text-anchor="start" x="507" y="-739" font-family="Helvetica,sans-Serif" font-size="10.00">GetNumBoundaryFaces()</text>
<text text-anchor="start" x="494" y="-724" font-family="Helvetica,sans-Serif" font-size="10.00">+</text>
<text text-anchor="start" x="507" y="-724" font-family="Helvetica,sans-Serif" font-size="10.00">GetNumCableElements()</text>
<text text-anchor="start" x="494" y="-709" font-family="Helvetica,sans-Serif" font-size="10.00">+</text>
<text text-anchor="start" x="507" y="-709" font-family="Helvetica,sans-Serif" font-size="10.00">GetNextNode()</text>
<text text-anchor="start" x="494" y="-694" font-family="Helvetica,sans-Serif" font-size="10.00">+</text>
<text text-anchor="start" x="507" y="-694" font-family="Helvetica,sans-Serif" font-size="10.00">GetNextElement()</text>
<text text-anchor="start" x="494" y="-679" font-family="Helvetica,sans-Serif" font-size="10.00">+</text>
<text text-anchor="start" x="507" y="-679" font-family="Helvetica,sans-Serif" font-size="10.00">GetNextBoundaryElement()</text>
<text text-anchor="start" x="494" y="-664" font-family="Helvetica,sans-Serif" font-size="10.00">+</text>
<text text-anchor="start" x="507" y="-664" font-family="Helvetica,sans-Serif" font-size="10.00">GetNextCableElement()</text>
<text text-anchor="start" x="494" y="-649" font-family="Helvetica,sans-Serif" font-size="10.00">+</text>
<text text-anchor="start" x="507" y="-649" font-family="Helvetica,sans-Serif" font-size="10.00">WriteFiles()</text>
<text text-anchor="start" x="494" y="-634" font-family="Helvetica,sans-Serif" font-size="10.00">+</text>
<text text-anchor="start" x="507" y="-634" font-family="Helvetica,sans-Serif" font-size="10.00">WriteFilesUsingMeshReader()</text>
<polygon fill="#666666" stroke="#666666" points="490,-839 490,-839 656,-839 656,-839 490,-839"/>
<polygon fill="#666666" stroke="#666666" points="490,-824 490,-824 656,-824 656,-824 490,-824"/>
<polygon fill="none" stroke="#666666" points="490,-627 490,-867 656,-867 656,-627 490,-627"/>
</a>
</g>
</g>
<!-- Node3&#45;&gt;Node2 -->
<g id="edge2_Node000002_Node000003" class="edge">
<title>Node3&#45;&gt;Node2</title>
<g id="a_edge2_Node000002_Node000003"><a xlink:title=" ">
<path fill="none" stroke="#63b8ff" d="M652.27,-617.73C662.14,-601.76 672.29,-585.35 682.3,-569.14"/>
<polygon fill="none" stroke="#63b8ff" points="649.1,-616.21 646.82,-626.56 655.05,-619.89 649.1,-616.21"/>
</a>
</g>
</g>
<!-- Node4 -->
<g id="Node000004" class="node">
<title>Node4</title>
<g id="a_Node000004"><a xlink:href="classOutputFileHandler.html" target="_top" xlink:title=" ">
<polygon fill="white" stroke="transparent" points="389,-1231 211,-1231 211,-991 389,-991 389,-1231"/>
<text text-anchor="start" x="255.5" y="-1219" font-family="Helvetica,sans-Serif" font-size="10.00">OutputFileHandler</text>
<text text-anchor="start" x="298" y="-1204" font-family="Helvetica,sans-Serif" font-size="10.00"> </text>
<text text-anchor="start" x="215" y="-1189" font-family="Helvetica,sans-Serif" font-size="10.00">+</text>
<text text-anchor="start" x="228" y="-1189" font-family="Helvetica,sans-Serif" font-size="10.00">OutputFileHandler()</text>
<text text-anchor="start" x="215" y="-1174" font-family="Helvetica,sans-Serif" font-size="10.00">+</text>
<text text-anchor="start" x="228" y="-1174" font-family="Helvetica,sans-Serif" font-size="10.00">OutputFileHandler()</text>
<text text-anchor="start" x="215" y="-1159" font-family="Helvetica,sans-Serif" font-size="10.00">+</text>
<text text-anchor="start" x="228" y="-1159" font-family="Helvetica,sans-Serif" font-size="10.00">GetOutputDirectoryFullPath()</text>
<text text-anchor="start" x="215" y="-1144" font-family="Helvetica,sans-Serif" font-size="10.00">+</text>
<text text-anchor="start" x="228" y="-1144" font-family="Helvetica,sans-Serif" font-size="10.00">GetRelativePath()</text>
<text text-anchor="start" x="215" y="-1129" font-family="Helvetica,sans-Serif" font-size="10.00">+</text>
<text text-anchor="start" x="228" y="-1129" font-family="Helvetica,sans-Serif" font-size="10.00">SetArchiveDirectory()</text>
<text text-anchor="start" x="215" y="-1114" font-family="Helvetica,sans-Serif" font-size="10.00">+</text>
<text text-anchor="start" x="228" y="-1114" font-family="Helvetica,sans-Serif" font-size="10.00">OpenOutputFile()</text>
<text text-anchor="start" x="215" y="-1099" font-family="Helvetica,sans-Serif" font-size="10.00">+</text>
<text text-anchor="start" x="228" y="-1099" font-family="Helvetica,sans-Serif" font-size="10.00">OpenOutputFile()</text>
<text text-anchor="start" x="215" y="-1084" font-family="Helvetica,sans-Serif" font-size="10.00">+</text>
<text text-anchor="start" x="228" y="-1084" font-family="Helvetica,sans-Serif" font-size="10.00">CopyFileTo()</text>
<text text-anchor="start" x="215" y="-1069" font-family="Helvetica,sans-Serif" font-size="10.00">+</text>
<text text-anchor="start" x="228" y="-1069" font-family="Helvetica,sans-Serif" font-size="10.00">FindFile()</text>
<text text-anchor="start" x="215" y="-1054" font-family="Helvetica,sans-Serif" font-size="10.00">+</text>
<text text-anchor="start" x="228" y="-1054" font-family="Helvetica,sans-Serif" font-size="10.00">GetChasteTestOutputDirectory()</text>
<text text-anchor="start" x="217.5" y="-1039" font-family="Helvetica,sans-Serif" font-size="10.00">&#45;</text>
<text text-anchor="start" x="228" y="-1039" font-family="Helvetica,sans-Serif" font-size="10.00">CommonConstructor()</text>
<text text-anchor="start" x="217.5" y="-1024" font-family="Helvetica,sans-Serif" font-size="10.00">&#45;</text>
<text text-anchor="start" x="228" y="-1024" font-family="Helvetica,sans-Serif" font-size="10.00">MakeFoldersAndReturnFull</text>
<text text-anchor="start" x="228" y="-1013" font-family="Helvetica,sans-Serif" font-size="10.00">Path()</text>
<text text-anchor="start" x="217.5" y="-998" font-family="Helvetica,sans-Serif" font-size="10.00">&#45;</text>
<text text-anchor="start" x="228" y="-998" font-family="Helvetica,sans-Serif" font-size="10.00">AddTrailingSlash()</text>
<polygon fill="#666666" stroke="#666666" points="211,-1214 211,-1214 389,-1214 389,-1214 211,-1214"/>
<polygon fill="#666666" stroke="#666666" points="211,-1199 211,-1199 389,-1199 389,-1199 211,-1199"/>
<polygon fill="none" stroke="#666666" points="211,-991 211,-1231 389,-1231 389,-991 211,-991"/>
</a>
</g>
</g>
<!-- Node4&#45;&gt;Node3 -->
<g id="edge3_Node000003_Node000004" class="edge">
<title>Node4&#45;&gt;Node3</title>
<g id="a_edge3_Node000003_Node000004"><a xlink:title=" ">
<path fill="none" stroke="#63b8ff" d="M292.78,-990.87C296.77,-952.18 308.69,-912.24 337,-885 380.85,-842.82 420.26,-892.65 479.16,-866.84"/>
<polygon fill="none" stroke="#63b8ff" points="479.29,-866.78 482.82,-860.49 489.98,-861.34 486.45,-867.62 479.29,-866.78"/>
</a>
</g>
<text text-anchor="middle" x="395" y="-926.5" font-family="Helvetica,sans-Serif" font-size="10.00" fill="grey"> #mpOutputFileHandler</text>
</g>
<!-- Node5 -->
<g id="Node000005" class="node">
<title>Node5</title>
<g id="a_Node000005"><a xlink:title=" ">
<polygon fill="white" stroke="transparent" points="243.5,-1338 184.5,-1338 184.5,-1289 243.5,-1289 243.5,-1338"/>
<text text-anchor="start" x="190" y="-1325.5" font-family="Helvetica,sans-Serif" font-size="10.00">std::string</text>
<text text-anchor="start" x="212.5" y="-1310.5" font-family="Helvetica,sans-Serif" font-size="10.00"> </text>
<text text-anchor="start" x="212.5" y="-1295.5" font-family="Helvetica,sans-Serif" font-size="10.00"> </text>
<polygon fill="#666666" stroke="#666666" points="185,-1320.5 185,-1320.5 244,-1320.5 244,-1320.5 185,-1320.5"/>
<polygon fill="#666666" stroke="#666666" points="185,-1305.5 185,-1305.5 244,-1305.5 244,-1305.5 185,-1305.5"/>
<polygon fill="none" stroke="#666666" points="184.5,-1289 184.5,-1338 243.5,-1338 243.5,-1289 184.5,-1289"/>
</a>
</g>
</g>
<!-- Node5&#45;&gt;Node1 -->
<g id="edge24_Node000001_Node000005" class="edge">
<title>Node5&#45;&gt;Node1</title>
<g id="a_edge24_Node000001_Node000005"><a xlink:title=" ">
<path fill="none" stroke="#63b8ff" d="M184.39,-1304.72C148.24,-1293.82 87.31,-1270.76 50,-1231 10.74,-1189.17 0,-1169.37 0,-1112 0,-1112 0,-1112 0,-422 0,-276.9 479.39,-173.57 682.63,-136.28"/>
<polygon fill="none" stroke="#63b8ff" points="682.64,-136.28 687.82,-131.27 694.44,-134.13 689.26,-139.14 682.64,-136.28"/>
</a>
</g>
<text text-anchor="middle" x="65" y="-761" font-family="Helvetica,sans-Serif" font-size="10.00" fill="grey"> #mAdditionalFieldHeader</text>
<text text-anchor="middle" x="65" y="-750" font-family="Helvetica,sans-Serif" font-size="10.00" fill="grey">#mCoordinatesFileHeader</text>
<text text-anchor="middle" x="65" y="-739" font-family="Helvetica,sans-Serif" font-size="10.00" fill="grey">#mElementFileHeader</text>
<text text-anchor="middle" x="65" y="-728" font-family="Helvetica,sans-Serif" font-size="10.00" fill="grey">#mGroupName</text>
</g>
<!-- Node5&#45;&gt;Node3 -->
<g id="edge6_Node000003_Node000005" class="edge">
<title>Node5&#45;&gt;Node3</title>
<g id="a_edge6_Node000003_Node000005"><a xlink:title=" ">
<path fill="none" stroke="#63b8ff" d="M243.65,-1309.66C317.62,-1301.91 507.14,-1277.8 546,-1231 588.87,-1179.37 588.74,-1003.99 582.59,-879.48"/>
<polygon fill="none" stroke="#63b8ff" points="582.57,-879.2 578.27,-873.41 581.95,-867.21 586.26,-873 582.57,-879.2"/>
</a>
</g>
<text text-anchor="middle" x="622.5" y="-1108.5" font-family="Helvetica,sans-Serif" font-size="10.00" fill="grey"> #mBaseName</text>
</g>
<!-- Node5&#45;&gt;Node4 -->
<g id="edge4_Node000004_Node000005" class="edge">
<title>Node5&#45;&gt;Node4</title>
<g id="a_edge4_Node000004_Node000005"><a xlink:title=" ">
<path fill="none" stroke="#63b8ff" d="M224.2,-1288.71C229.55,-1276.26 236.55,-1259.92 244.15,-1242.22"/>
<polygon fill="none" stroke="#63b8ff" points="244.21,-1242.07 242.9,-1234.97 248.94,-1231.04 250.25,-1238.13 244.21,-1242.07"/>
</a>
</g>
<text text-anchor="middle" x="284" y="-1263" font-family="Helvetica,sans-Serif" font-size="10.00" fill="grey"> +SIG_FILE_NAME</text>
<text text-anchor="middle" x="284" y="-1252" font-family="Helvetica,sans-Serif" font-size="10.00" fill="grey">&#45;mDirectory</text>
</g>
<!-- Node18 -->
<g id="Node000018" class="node">
<title>Node18</title>
<g id="a_Node000018"><a xlink:title=" ">
<polygon fill="white" stroke="transparent" points="193,-1135.5 59,-1135.5 59,-1086.5 193,-1086.5 193,-1135.5"/>
<text text-anchor="start" x="64" y="-1123" font-family="Helvetica,sans-Serif" font-size="10.00">std::vector&lt; std::string &gt;</text>
<text text-anchor="start" x="124" y="-1108" font-family="Helvetica,sans-Serif" font-size="10.00"> </text>
<text text-anchor="start" x="124" y="-1093" font-family="Helvetica,sans-Serif" font-size="10.00"> </text>
<polygon fill="#666666" stroke="#666666" points="59,-1118 59,-1118 193,-1118 193,-1118 59,-1118"/>
<polygon fill="#666666" stroke="#666666" points="59,-1103 59,-1103 193,-1103 193,-1103 59,-1103"/>
<polygon fill="none" stroke="#666666" points="59,-1086.5 59,-1135.5 193,-1135.5 193,-1086.5 59,-1086.5"/>
</a>
</g>
</g>
<!-- Node5&#45;&gt;Node18 -->
<g id="edge22_Node000018_Node000005" class="edge">
<title>Node5&#45;&gt;Node18</title>
<g id="a_edge22_Node000018_Node000005"><a xlink:title=" ">
<path fill="none" stroke="#63b8ff" d="M185.24,-1288.93C179.92,-1283.5 174.84,-1277.41 171,-1271 147.87,-1232.37 136.19,-1181.34 130.61,-1147.64"/>
<polygon fill="none" stroke="#63b8ff" points="130.59,-1147.49 125.72,-1142.17 128.76,-1135.63 133.63,-1140.95 130.59,-1147.49"/>
</a>
</g>
<text text-anchor="middle" x="200" y="-1257.5" font-family="Helvetica,sans-Serif" font-size="10.00" fill="grey"> +elements</text>
</g>
<!-- Node6 -->
<g id="Node000006" class="node">
<title>Node6</title>
<g id="a_Node000006"><a xlink:title=" ">
<polygon fill="white" stroke="transparent" points="263,-1445 165,-1445 165,-1385 263,-1385 263,-1445"/>
<text text-anchor="start" x="170" y="-1433" font-family="Helvetica,sans-Serif" font-size="10.00">std::basic_string&lt;</text>
<text text-anchor="start" x="195.5" y="-1422" font-family="Helvetica,sans-Serif" font-size="10.00"> Char &gt;</text>
<text text-anchor="start" x="212" y="-1407" font-family="Helvetica,sans-Serif" font-size="10.00"> </text>
<text text-anchor="start" x="212" y="-1392" font-family="Helvetica,sans-Serif" font-size="10.00"> </text>
<polygon fill="#666666" stroke="#666666" points="165,-1417 165,-1417 263,-1417 263,-1417 165,-1417"/>
<polygon fill="#666666" stroke="#666666" points="165,-1402 165,-1402 263,-1402 263,-1402 165,-1402"/>
<polygon fill="none" stroke="#666666" points="165,-1385 165,-1445 263,-1445 263,-1385 165,-1385"/>
</a>
</g>
</g>
<!-- Node6&#45;&gt;Node5 -->
<g id="edge5_Node000005_Node000006" class="edge">
<title>Node6&#45;&gt;Node5</title>
<g id="a_edge5_Node000005_Node000006"><a xlink:title=" ">
<path fill="none" stroke="#63b8ff" d="M214,-1374.8C214,-1362.38 214,-1349.03 214,-1338.06"/>
<polygon fill="none" stroke="#63b8ff" points="210.5,-1374.95 214,-1384.95 217.5,-1374.95 210.5,-1374.95"/>
</a>
</g>
</g>
<!-- Node7 -->
<g id="Node000007" class="node">
<title>Node7</title>
<g id="a_Node000007"><a xlink:title=" ">
<polygon fill="white" stroke="transparent" points="536.5,-1146.5 407.5,-1146.5 407.5,-1075.5 536.5,-1075.5 536.5,-1146.5"/>
<text text-anchor="start" x="413" y="-1134" font-family="Helvetica,sans-Serif" font-size="10.00">AbstractMeshReader</text>
<text text-anchor="start" x="413" y="-1123" font-family="Helvetica,sans-Serif" font-size="10.00">&lt; ELEMENT_DIM, SPACE</text>
<text text-anchor="start" x="450" y="-1112" font-family="Helvetica,sans-Serif" font-size="10.00">_DIM &gt; *</text>
<text text-anchor="start" x="470.5" y="-1097" font-family="Helvetica,sans-Serif" font-size="10.00"> </text>
<text text-anchor="start" x="470.5" y="-1082" font-family="Helvetica,sans-Serif" font-size="10.00"> </text>
<polygon fill="#bfbfbf" stroke="#bfbfbf" points="408,-1107 408,-1107 537,-1107 537,-1107 408,-1107"/>
<polygon fill="#bfbfbf" stroke="#bfbfbf" points="408,-1092 408,-1092 537,-1092 537,-1092 408,-1092"/>
<polygon fill="none" stroke="#bfbfbf" points="407.5,-1075.5 407.5,-1146.5 536.5,-1146.5 536.5,-1075.5 407.5,-1075.5"/>
</a>
</g>
</g>
<!-- Node7&#45;&gt;Node3 -->
<g id="edge7_Node000003_Node000007" class="edge">
<title>Node7&#45;&gt;Node3</title>
<g id="a_edge7_Node000003_Node000007"><a xlink:title=" ">
<path fill="none" stroke="#63b8ff" d="M465.18,-1075.39C457.77,-1030.28 449.62,-949.52 471,-885 472.14,-881.57 476.54,-874.48 482.92,-865.24"/>
<polygon fill="none" stroke="#63b8ff" points="482.99,-865.15 483.19,-857.94 489.92,-855.35 489.72,-862.56 482.99,-865.15"/>
</a>
</g>
<text text-anchor="middle" x="515" y="-926.5" font-family="Helvetica,sans-Serif" font-size="10.00" fill="grey"> #mpMeshReader</text>
</g>
<!-- Node8 -->
<g id="Node000008" class="node">
<title>Node8</title>
<g id="a_Node000008"><a xlink:href="classunsigned.html" target="_top" xlink:title=" ">
<polygon fill="white" stroke="transparent" points="1327.5,-1338 1272.5,-1338 1272.5,-1289 1327.5,-1289 1327.5,-1338"/>
<text text-anchor="start" x="1278" y="-1325.5" font-family="Helvetica,sans-Serif" font-size="10.00">unsigned</text>
<text text-anchor="start" x="1298.5" y="-1310.5" font-family="Helvetica,sans-Serif" font-size="10.00"> </text>
<text text-anchor="start" x="1298.5" y="-1295.5" font-family="Helvetica,sans-Serif" font-size="10.00"> </text>
<polygon fill="#bfbfbf" stroke="#bfbfbf" points="1273,-1320.5 1273,-1320.5 1328,-1320.5 1328,-1320.5 1273,-1320.5"/>
<polygon fill="#bfbfbf" stroke="#bfbfbf" points="1273,-1305.5 1273,-1305.5 1328,-1305.5 1328,-1305.5 1273,-1305.5"/>
<polygon fill="none" stroke="#bfbfbf" points="1272.5,-1289 1272.5,-1338 1327.5,-1338 1327.5,-1289 1272.5,-1289"/>
</a>
</g>
</g>
<!-- Node8&#45;&gt;Node1 -->
<g id="edge25_Node000001_Node000008" class="edge">
<title>Node8&#45;&gt;Node1</title>
<g id="a_edge25_Node000001_Node000008"><a xlink:title=" ">
<path fill="none" stroke="#63b8ff" d="M1327.63,-1306.41C1397.36,-1289.24 1575,-1233.57 1575,-1112 1575,-1112 1575,-1112 1575,-422 1575,-271.02 1071,-170.35 861.58,-135.03"/>
<polygon fill="none" stroke="#63b8ff" points="861.56,-135.03 854.98,-137.98 849.72,-133.05 856.3,-130.09 861.56,-135.03"/>
</a>
</g>
<text text-anchor="middle" x="1641" y="-744.5" font-family="Helvetica,sans-Serif" font-size="10.00" fill="grey"> #mNumNodesPerElement</text>
</g>
<!-- Node8&#45;&gt;Node2 -->
<g id="edge15_Node000002_Node000008" class="edge">
<title>Node8&#45;&gt;Node2</title>
<g id="a_edge15_Node000002_Node000008"><a xlink:title=" ">
<path fill="none" stroke="#63b8ff" d="M1315.48,-1288.7C1318.47,-1283.1 1321.22,-1277 1323,-1271 1344.67,-1197.97 1416.24,-647.54 1370,-587 1310.14,-508.63 1029.46,-458.93 874.84,-437.01"/>
<polygon fill="none" stroke="#63b8ff" points="874.45,-436.96 867.95,-440.09 862.56,-435.29 869.06,-432.17 874.45,-436.96"/>
</a>
</g>
<text text-anchor="start" x="1375" y="-965" font-family="Helvetica,sans-Serif" font-size="10.00" fill="grey"> #mBoundaryElementCounter</text>
<text text-anchor="middle" x="1463" y="-954" font-family="Helvetica,sans-Serif" font-size="10.00" fill="grey">ForParallelMesh</text>
<text text-anchor="start" x="1375" y="-943" font-family="Helvetica,sans-Serif" font-size="10.00" fill="grey">#mCableElementCounterForParallel</text>
<text text-anchor="middle" x="1463" y="-932" font-family="Helvetica,sans-Serif" font-size="10.00" fill="grey">Mesh</text>
<text text-anchor="middle" x="1463" y="-921" font-family="Helvetica,sans-Serif" font-size="10.00" fill="grey">#mElementCounterForParallelMesh</text>
<text text-anchor="middle" x="1463" y="-910" font-family="Helvetica,sans-Serif" font-size="10.00" fill="grey">#mNodeCounterForParallelMesh</text>
<text text-anchor="middle" x="1463" y="-899" font-family="Helvetica,sans-Serif" font-size="10.00" fill="grey">#mNodesPerBoundaryElement</text>
<text text-anchor="middle" x="1463" y="-888" font-family="Helvetica,sans-Serif" font-size="10.00" fill="grey">#mNodesPerElement</text>
</g>
<!-- Node8&#45;&gt;Node3 -->
<g id="edge8_Node000003_Node000008" class="edge">
<title>Node8&#45;&gt;Node3</title>
<g id="a_edge8_Node000003_Node000008"><a xlink:title=" ">
<path fill="none" stroke="#63b8ff" d="M1272.32,-1312.7C1167.45,-1312.86 796.25,-1307.9 714,-1231 634.41,-1156.59 694.31,-1095.66 664,-991 653.32,-954.1 639.65,-914.82 626.18,-878.85"/>
<polygon fill="none" stroke="#63b8ff" points="626.06,-878.51 620.19,-874.31 621.82,-867.29 627.68,-871.49 626.06,-878.51"/>
</a>
</g>
<text text-anchor="middle" x="782.5" y="-1125" font-family="Helvetica,sans-Serif" font-size="10.00" fill="grey"> #mNumBoundaryElements</text>
<text text-anchor="middle" x="782.5" y="-1114" font-family="Helvetica,sans-Serif" font-size="10.00" fill="grey">#mNumCableElements</text>
<text text-anchor="middle" x="782.5" y="-1103" font-family="Helvetica,sans-Serif" font-size="10.00" fill="grey">#mNumElements</text>
<text text-anchor="middle" x="782.5" y="-1092" font-family="Helvetica,sans-Serif" font-size="10.00" fill="grey">#mNumNodes</text>
</g>
<!-- Node10 -->
<g id="Node000010" class="node">
<title>Node10</title>
<g id="a_Node000010"><a xlink:title=" ">
<polygon fill="white" stroke="transparent" points="1185.5,-1135.5 1056.5,-1135.5 1056.5,-1086.5 1185.5,-1086.5 1185.5,-1135.5"/>
<text text-anchor="start" x="1062" y="-1123" font-family="Helvetica,sans-Serif" font-size="10.00">std::vector&lt; unsigned &gt;</text>
<text text-anchor="start" x="1119.5" y="-1108" font-family="Helvetica,sans-Serif" font-size="10.00"> </text>
<text text-anchor="start" x="1119.5" y="-1093" font-family="Helvetica,sans-Serif" font-size="10.00"> </text>
<polygon fill="#666666" stroke="#666666" points="1057,-1118 1057,-1118 1186,-1118 1186,-1118 1057,-1118"/>
<polygon fill="#666666" stroke="#666666" points="1057,-1103 1057,-1103 1186,-1103 1186,-1103 1057,-1103"/>
<polygon fill="none" stroke="#666666" points="1056.5,-1086.5 1056.5,-1135.5 1185.5,-1135.5 1185.5,-1086.5 1056.5,-1086.5"/>
</a>
</g>
</g>
<!-- Node8&#45;&gt;Node10 -->
<g id="edge11_Node000010_Node000008" class="edge">
<title>Node8&#45;&gt;Node10</title>
<g id="a_edge11_Node000010_Node000008"><a xlink:title=" ">
<path fill="none" stroke="#63b8ff" d="M1278.76,-1288.71C1246.87,-1252.99 1186.5,-1185.37 1150.4,-1144.93"/>
<polygon fill="none" stroke="#63b8ff" points="1150.2,-1144.71 1143.22,-1142.9 1142.21,-1135.76 1149.19,-1137.57 1150.2,-1144.71"/>
</a>
</g>
<text text-anchor="middle" x="1290" y="-1257.5" font-family="Helvetica,sans-Serif" font-size="10.00" fill="grey"> +elements</text>
</g>
<!-- Node9 -->
<g id="Node000009" class="node">
<title>Node9</title>
<g id="a_Node000009"><a xlink:href="classNodeMap.html" target="_top" xlink:title=" ">
<polygon fill="white" stroke="transparent" points="779.5,-831.5 674.5,-831.5 674.5,-662.5 779.5,-662.5 779.5,-831.5"/>
<text text-anchor="start" x="704" y="-819" font-family="Helvetica,sans-Serif" font-size="10.00">NodeMap</text>
<text text-anchor="start" x="725.5" y="-804" font-family="Helvetica,sans-Serif" font-size="10.00"> </text>
<text text-anchor="start" x="679" y="-789" font-family="Helvetica,sans-Serif" font-size="10.00">+</text>
<text text-anchor="start" x="692" y="-789" font-family="Helvetica,sans-Serif" font-size="10.00">NodeMap()</text>
<text text-anchor="start" x="679" y="-774" font-family="Helvetica,sans-Serif" font-size="10.00">+</text>
<text text-anchor="start" x="692" y="-774" font-family="Helvetica,sans-Serif" font-size="10.00">Resize()</text>
<text text-anchor="start" x="679" y="-759" font-family="Helvetica,sans-Serif" font-size="10.00">+</text>
<text text-anchor="start" x="692" y="-759" font-family="Helvetica,sans-Serif" font-size="10.00">ResetToIdentity()</text>
<text text-anchor="start" x="679" y="-744" font-family="Helvetica,sans-Serif" font-size="10.00">+</text>
<text text-anchor="start" x="692" y="-744" font-family="Helvetica,sans-Serif" font-size="10.00">SetNewIndex()</text>
<text text-anchor="start" x="679" y="-729" font-family="Helvetica,sans-Serif" font-size="10.00">+</text>
<text text-anchor="start" x="692" y="-729" font-family="Helvetica,sans-Serif" font-size="10.00">SetDeleted()</text>
<text text-anchor="start" x="679" y="-714" font-family="Helvetica,sans-Serif" font-size="10.00">+</text>
<text text-anchor="start" x="692" y="-714" font-family="Helvetica,sans-Serif" font-size="10.00">IsDeleted()</text>
<text text-anchor="start" x="679" y="-699" font-family="Helvetica,sans-Serif" font-size="10.00">+</text>
<text text-anchor="start" x="692" y="-699" font-family="Helvetica,sans-Serif" font-size="10.00">GetNewIndex()</text>
<text text-anchor="start" x="679" y="-684" font-family="Helvetica,sans-Serif" font-size="10.00">+</text>
<text text-anchor="start" x="692" y="-684" font-family="Helvetica,sans-Serif" font-size="10.00">IsIdentityMap()</text>
<text text-anchor="start" x="679" y="-669" font-family="Helvetica,sans-Serif" font-size="10.00">+</text>
<text text-anchor="start" x="692" y="-669" font-family="Helvetica,sans-Serif" font-size="10.00">GetSize()</text>
<polygon fill="#666666" stroke="#666666" points="675,-814 675,-814 780,-814 780,-814 675,-814"/>
<polygon fill="#666666" stroke="#666666" points="675,-799 675,-799 780,-799 780,-799 675,-799"/>
<polygon fill="none" stroke="#666666" points="674.5,-662.5 674.5,-831.5 779.5,-831.5 779.5,-662.5 674.5,-662.5"/>
</a>
</g>
</g>
<!-- Node9&#45;&gt;Node2 -->
<g id="edge9_Node000002_Node000009" class="edge">
<title>Node9&#45;&gt;Node2</title>
<g id="a_edge9_Node000002_Node000009"><a xlink:title=" ">
<path fill="none" stroke="#63b8ff" d="M726.35,-662.38C727.05,-637.99 728.67,-611.35 732,-587 732.28,-584.97 732.57,-582.92 732.88,-580.86"/>
<polygon fill="none" stroke="#63b8ff" points="732.88,-580.85 729.88,-574.3 734.79,-569.01 737.78,-575.57 732.88,-580.85"/>
</a>
</g>
<text text-anchor="middle" x="767" y="-595.5" font-family="Helvetica,sans-Serif" font-size="10.00" fill="grey"> &#45;mpNodeMap</text>
</g>
<!-- Node10&#45;&gt;Node1 -->
<g id="edge26_Node000001_Node000010" class="edge">
<title>Node10&#45;&gt;Node1</title>
<g id="a_edge26_Node000001_Node000010"><a xlink:title=" ">
<path fill="none" stroke="#63b8ff" d="M1147.15,-1086.23C1189.24,-1045.99 1270.4,-959.73 1301,-867 1334.43,-765.71 1342.91,-725.09 1301,-627 1211.02,-416.42 985.64,-251.6 860.03,-172.45"/>
<polygon fill="none" stroke="#63b8ff" points="859.86,-172.34 852.65,-172.55 849.68,-165.97 856.89,-165.76 859.86,-172.34"/>
</a>
</g>
<text text-anchor="middle" x="1329.5" y="-595.5" font-family="Helvetica,sans-Serif" font-size="10.00" fill="grey"> #mReordering</text>
</g>
<!-- Node10&#45;&gt;Node9 -->
<g id="edge10_Node000009_Node000010" class="edge">
<title>Node10&#45;&gt;Node9</title>
<g id="a_edge10_Node000009_Node000010"><a xlink:title=" ">
<path fill="none" stroke="#63b8ff" d="M1078.64,-1086.48C1011.68,-1047.69 880.15,-964.78 794,-867 787.17,-859.24 780.72,-850.68 774.72,-841.81"/>
<polygon fill="none" stroke="#63b8ff" points="774.68,-841.75 768.06,-838.89 768.15,-831.68 774.77,-834.54 774.68,-841.75"/>
</a>
</g>
<text text-anchor="middle" x="927" y="-926.5" font-family="Helvetica,sans-Serif" font-size="10.00" fill="grey"> &#45;mMap</text>
</g>
<!-- Node11 -->
<g id="Node000011" class="node">
<title>Node11</title>
<g id="a_Node000011"><a xlink:title=" ">
<polygon fill="white" stroke="transparent" points="658.5,-1338 567.5,-1338 567.5,-1289 658.5,-1289 658.5,-1338"/>
<text text-anchor="start" x="573" y="-1325.5" font-family="Helvetica,sans-Serif" font-size="10.00">std::vector&lt; T &gt;</text>
<text text-anchor="start" x="611.5" y="-1310.5" font-family="Helvetica,sans-Serif" font-size="10.00"> </text>
<text text-anchor="start" x="611.5" y="-1295.5" font-family="Helvetica,sans-Serif" font-size="10.00"> </text>
<polygon fill="#666666" stroke="#666666" points="568,-1320.5 568,-1320.5 659,-1320.5 659,-1320.5 568,-1320.5"/>
<polygon fill="#666666" stroke="#666666" points="568,-1305.5 568,-1305.5 659,-1305.5 659,-1305.5 568,-1305.5"/>
<polygon fill="none" stroke="#666666" points="567.5,-1289 567.5,-1338 658.5,-1338 658.5,-1289 567.5,-1289"/>
</a>
</g>
</g>
<!-- Node11&#45;&gt;Node10 -->
<g id="edge12_Node000010_Node000011" class="edge">
<title>Node11&#45;&gt;Node10</title>
<g id="a_edge12_Node000010_Node000011"><a xlink:title=" ">
<path fill="none" stroke="orange" d="M668.52,-1300.62C727.42,-1287.15 822.61,-1262.84 901,-1231 967.79,-1203.87 1040.46,-1161.89 1083.31,-1135.72"/>
<polygon fill="orange" stroke="orange" points="667.66,-1297.23 658.68,-1302.85 669.2,-1304.06 667.66,-1297.23"/>
</a>
</g>
<text text-anchor="middle" x="882" y="-1257.5" font-family="Helvetica,sans-Serif" font-size="10.00" fill="grey"> &lt; unsigned &gt;</text>
</g>
<!-- Node11&#45;&gt;Node18 -->
<g id="edge23_Node000018_Node000011" class="edge">
<title>Node11&#45;&gt;Node18</title>
<g id="a_edge23_Node000018_Node000011"><a xlink:title=" ">
<path fill="none" stroke="orange" d="M557.7,-1298.55C501.23,-1284.64 410.91,-1263.35 332,-1249 274.61,-1238.56 251.11,-1262.48 202,-1231 166.92,-1208.51 144.91,-1163.41 134.09,-1135.65"/>
<polygon fill="orange" stroke="orange" points="556.94,-1301.97 567.49,-1300.97 558.62,-1295.17 556.94,-1301.97"/>
</a>
</g>
<text text-anchor="middle" x="469.5" y="-1257.5" font-family="Helvetica,sans-Serif" font-size="10.00" fill="grey"> &lt; std::string &gt;</text>
</g>
<!-- Node12 -->
<g id="Node000012" class="node">
<title>Node12</title>
<g id="a_Node000012"><a xlink:title=" ">
<polygon fill="white" stroke="transparent" points="621.5,-1439.5 604.5,-1439.5 604.5,-1390.5 621.5,-1390.5 621.5,-1439.5"/>
<text text-anchor="start" x="610" y="-1427" font-family="Helvetica,sans-Serif" font-size="10.00">T</text>
<text text-anchor="start" x="611.5" y="-1412" font-family="Helvetica,sans-Serif" font-size="10.00"> </text>
<text text-anchor="start" x="611.5" y="-1397" font-family="Helvetica,sans-Serif" font-size="10.00"> </text>
<polygon fill="#bfbfbf" stroke="#bfbfbf" points="605,-1422 605,-1422 622,-1422 622,-1422 605,-1422"/>
<polygon fill="#bfbfbf" stroke="#bfbfbf" points="605,-1407 605,-1407 622,-1407 622,-1407 605,-1407"/>
<polygon fill="none" stroke="#bfbfbf" points="604.5,-1390.5 604.5,-1439.5 621.5,-1439.5 621.5,-1390.5 604.5,-1390.5"/>
</a>
</g>
</g>
<!-- Node12&#45;&gt;Node11 -->
<g id="edge13_Node000011_Node000012" class="edge">
<title>Node12&#45;&gt;Node11</title>
<g id="a_edge13_Node000011_Node000012"><a xlink:title=" ">
<path fill="none" stroke="#63b8ff" d="M613,-1390.42C613,-1378.49 613,-1363.75 613,-1350.44"/>
<polygon fill="none" stroke="#63b8ff" points="613,-1350.26 609,-1344.26 613,-1338.26 617,-1344.26 613,-1350.26"/>
</a>
</g>
<text text-anchor="middle" x="642" y="-1359" font-family="Helvetica,sans-Serif" font-size="10.00" fill="grey"> +elements</text>
</g>
<!-- Node13 -->
<g id="Node000013" class="node">
<title>Node13</title>
<g id="a_Node000013"><a xlink:href="classbool.html" target="_top" xlink:title=" ">
<polygon fill="white" stroke="transparent" points="892,-1135.5 860,-1135.5 860,-1086.5 892,-1086.5 892,-1135.5"/>
<text text-anchor="start" x="865" y="-1123" font-family="Helvetica,sans-Serif" font-size="10.00">bool</text>
<text text-anchor="start" x="874" y="-1108" font-family="Helvetica,sans-Serif" font-size="10.00"> </text>
<text text-anchor="start" x="874" y="-1093" font-family="Helvetica,sans-Serif" font-size="10.00"> </text>
<polygon fill="#bfbfbf" stroke="#bfbfbf" points="860,-1118 860,-1118 892,-1118 892,-1118 860,-1118"/>
<polygon fill="#bfbfbf" stroke="#bfbfbf" points="860,-1103 860,-1103 892,-1103 892,-1103 860,-1103"/>
<polygon fill="none" stroke="#bfbfbf" points="860,-1086.5 860,-1135.5 892,-1135.5 892,-1086.5 860,-1086.5"/>
</a>
</g>
</g>
<!-- Node13&#45;&gt;Node2 -->
<g id="edge20_Node000002_Node000013" class="edge">
<title>Node13&#45;&gt;Node2</title>
<g id="a_edge20_Node000002_Node000013"><a xlink:title=" ">
<path fill="none" stroke="#63b8ff" d="M873.43,-1086.45C869.97,-1061.55 862.25,-1021.69 846,-991 840.99,-981.54 834.16,-982.86 830,-973 763.09,-814.54 823.82,-757.62 802,-587 801.75,-585.08 801.5,-583.15 801.24,-581.21"/>
<polygon fill="none" stroke="#63b8ff" points="801.22,-581.06 796.43,-575.67 799.55,-569.18 804.35,-574.56 801.22,-581.06"/>
</a>
</g>
<text text-anchor="middle" x="853.5" y="-755.5" font-family="Helvetica,sans-Serif" font-size="10.00" fill="grey"> #mFilesAreBinary</text>
<text text-anchor="middle" x="853.5" y="-744.5" font-family="Helvetica,sans-Serif" font-size="10.00" fill="grey">#mIndexFromZero</text>
<text text-anchor="middle" x="853.5" y="-733.5" font-family="Helvetica,sans-Serif" font-size="10.00" fill="grey">#mWriteMetaFile</text>
</g>
<!-- Node13&#45;&gt;Node9 -->
<g id="edge14_Node000009_Node000013" class="edge">
<title>Node13&#45;&gt;Node9</title>
<g id="a_edge14_Node000009_Node000013"><a xlink:title=" ">
<path fill="none" stroke="#63b8ff" d="M877.13,-1086.09C877.01,-1058.94 872.31,-1015.27 846,-991 810.56,-958.3 771.11,-1008.98 739,-973 722.02,-953.98 719.22,-896 720.56,-843.66"/>
<polygon fill="none" stroke="#63b8ff" points="720.57,-843.55 716.76,-837.42 720.95,-831.55 724.76,-837.68 720.57,-843.55"/>
</a>
</g>
<text text-anchor="middle" x="770.5" y="-926.5" font-family="Helvetica,sans-Serif" font-size="10.00" fill="grey"> &#45;mIsIdentity</text>
</g>
<!-- Node14 -->
<g id="Node000014" class="node">
<title>Node14</title>
<g id="a_Node000014"><a xlink:title=" ">
<polygon fill="white" stroke="transparent" points="1100.5,-777 927.5,-777 927.5,-717 1100.5,-717 1100.5,-777"/>
<text text-anchor="start" x="933" y="-765" font-family="Helvetica,sans-Serif" font-size="10.00">AbstractTetrahedralMesh</text>
<text text-anchor="start" x="933" y="-754" font-family="Helvetica,sans-Serif" font-size="10.00">&lt; ELEMENT_DIM, SPACE_DIM &gt; *</text>
<text text-anchor="start" x="1012.5" y="-739" font-family="Helvetica,sans-Serif" font-size="10.00"> </text>
<text text-anchor="start" x="1012.5" y="-724" font-family="Helvetica,sans-Serif" font-size="10.00"> </text>
<polygon fill="#bfbfbf" stroke="#bfbfbf" points="928,-749 928,-749 1101,-749 1101,-749 928,-749"/>
<polygon fill="#bfbfbf" stroke="#bfbfbf" points="928,-734 928,-734 1101,-734 1101,-734 928,-734"/>
<polygon fill="none" stroke="#bfbfbf" points="927.5,-717 927.5,-777 1100.5,-777 1100.5,-717 927.5,-717"/>
</a>
</g>
</g>
<!-- Node14&#45;&gt;Node2 -->
<g id="edge16_Node000002_Node000014" class="edge">
<title>Node14&#45;&gt;Node2</title>
<g id="a_edge16_Node000002_Node000014"><a xlink:title=" ">
<path fill="none" stroke="#63b8ff" d="M992.1,-716.86C964.43,-680.05 915,-614.27 869.98,-554.37"/>
<polygon fill="none" stroke="#63b8ff" points="869.72,-554.02 862.91,-551.62 862.51,-544.43 869.31,-546.82 869.72,-554.02"/>
</a>
</g>
<text text-anchor="middle" x="934" y="-595.5" font-family="Helvetica,sans-Serif" font-size="10.00" fill="grey"> #mpMesh</text>
</g>
<!-- Node15 -->
<g id="Node000015" class="node">
<title>Node15</title>
<g id="a_Node000015"><a xlink:title=" ">
<polygon fill="white" stroke="transparent" points="1291.5,-777 1118.5,-777 1118.5,-717 1291.5,-717 1291.5,-777"/>
<text text-anchor="start" x="1124" y="-765" font-family="Helvetica,sans-Serif" font-size="10.00">DistributedTetrahedralMesh</text>
<text text-anchor="start" x="1124" y="-754" font-family="Helvetica,sans-Serif" font-size="10.00">&lt; ELEMENT_DIM, SPACE_DIM &gt; *</text>
<text text-anchor="start" x="1203.5" y="-739" font-family="Helvetica,sans-Serif" font-size="10.00"> </text>
<text text-anchor="start" x="1203.5" y="-724" font-family="Helvetica,sans-Serif" font-size="10.00"> </text>
<polygon fill="#bfbfbf" stroke="#bfbfbf" points="1119,-749 1119,-749 1292,-749 1292,-749 1119,-749"/>
<polygon fill="#bfbfbf" stroke="#bfbfbf" points="1119,-734 1119,-734 1292,-734 1292,-734 1119,-734"/>
<polygon fill="none" stroke="#bfbfbf" points="1118.5,-717 1118.5,-777 1291.5,-777 1291.5,-717 1118.5,-717"/>
</a>
</g>
</g>
<!-- Node15&#45;&gt;Node2 -->
<g id="edge17_Node000002_Node000015" class="edge">
<title>Node15&#45;&gt;Node2</title>
<g id="a_edge17_Node000002_Node000015"><a xlink:title=" ">
<path fill="none" stroke="#63b8ff" d="M1186.19,-716.9C1168.61,-691.19 1140.53,-653.73 1110,-627 1038.1,-564.07 944.12,-509.42 873.52,-472.72"/>
<polygon fill="none" stroke="#63b8ff" points="873.5,-472.71 866.33,-473.52 862.83,-467.21 870,-466.41 873.5,-472.71"/>
</a>
</g>
<text text-anchor="middle" x="1139" y="-595.5" font-family="Helvetica,sans-Serif" font-size="10.00" fill="grey"> #mpDistributedMesh</text>
</g>
<!-- Node16 -->
<g id="Node000016" class="node">
<title>Node16</title>
<g id="a_Node000016"><a xlink:title=" ">
<polygon fill="white" stroke="transparent" points="324.5,-782.5 195.5,-782.5 195.5,-711.5 324.5,-711.5 324.5,-782.5"/>
<text text-anchor="start" x="201" y="-770" font-family="Helvetica,sans-Serif" font-size="10.00">MixedDimensionMesh</text>
<text text-anchor="start" x="201" y="-759" font-family="Helvetica,sans-Serif" font-size="10.00">&lt; ELEMENT_DIM, SPACE</text>
<text text-anchor="start" x="238" y="-748" font-family="Helvetica,sans-Serif" font-size="10.00">_DIM &gt; *</text>
<text text-anchor="start" x="258.5" y="-733" font-family="Helvetica,sans-Serif" font-size="10.00"> </text>
<text text-anchor="start" x="258.5" y="-718" font-family="Helvetica,sans-Serif" font-size="10.00"> </text>
<polygon fill="#bfbfbf" stroke="#bfbfbf" points="196,-743 196,-743 325,-743 325,-743 196,-743"/>
<polygon fill="#bfbfbf" stroke="#bfbfbf" points="196,-728 196,-728 325,-728 325,-728 196,-728"/>
<polygon fill="none" stroke="#bfbfbf" points="195.5,-711.5 195.5,-782.5 324.5,-782.5 324.5,-711.5 195.5,-711.5"/>
</a>
</g>
</g>
<!-- Node16&#45;&gt;Node2 -->
<g id="edge18_Node000002_Node000016" class="edge">
<title>Node16&#45;&gt;Node2</title>
<g id="a_edge18_Node000002_Node000016"><a xlink:title=" ">
<path fill="none" stroke="#63b8ff" d="M275.1,-711.42C287.79,-685.54 308.02,-650.68 334,-627 431.23,-538.39 573.87,-482.13 669.7,-451.86"/>
<polygon fill="none" stroke="#63b8ff" points="669.98,-451.77 674.52,-446.17 681.44,-448.2 676.9,-453.81 669.98,-451.77"/>
</a>
</g>
<text text-anchor="middle" x="415.5" y="-595.5" font-family="Helvetica,sans-Serif" font-size="10.00" fill="grey"> #mpMixedMesh</text>
</g>
<!-- Node17 -->
<g id="Node000017" class="node">
<title>Node17</title>
<g id="a_Node000017"><a xlink:title=" ">
<polygon fill="white" stroke="transparent" points="471.5,-782.5 342.5,-782.5 342.5,-711.5 471.5,-711.5 471.5,-782.5"/>
<text text-anchor="start" x="348" y="-770" font-family="Helvetica,sans-Serif" font-size="10.00">MeshWriterIterators</text>
<text text-anchor="start" x="348" y="-759" font-family="Helvetica,sans-Serif" font-size="10.00">&lt; ELEMENT_DIM, SPACE</text>
<text text-anchor="start" x="385" y="-748" font-family="Helvetica,sans-Serif" font-size="10.00">_DIM &gt; *</text>
<text text-anchor="start" x="405.5" y="-733" font-family="Helvetica,sans-Serif" font-size="10.00"> </text>
<text text-anchor="start" x="405.5" y="-718" font-family="Helvetica,sans-Serif" font-size="10.00"> </text>
<polygon fill="#bfbfbf" stroke="#bfbfbf" points="343,-743 343,-743 472,-743 472,-743 343,-743"/>
<polygon fill="#bfbfbf" stroke="#bfbfbf" points="343,-728 343,-728 472,-728 472,-728 343,-728"/>
<polygon fill="none" stroke="#bfbfbf" points="342.5,-711.5 342.5,-782.5 471.5,-782.5 471.5,-711.5 342.5,-711.5"/>
</a>
</g>
</g>
<!-- Node17&#45;&gt;Node2 -->
<g id="edge19_Node000002_Node000017" class="edge">
<title>Node17&#45;&gt;Node2</title>
<g id="a_edge19_Node000002_Node000017"><a xlink:title=" ">
<path fill="none" stroke="#63b8ff" d="M423.67,-711.4C436.92,-686.18 457.14,-652.15 481,-627 536.39,-568.61 611.04,-516.94 670.86,-480.35"/>
<polygon fill="none" stroke="#63b8ff" points="671.21,-480.14 674.27,-473.61 681.47,-473.92 678.41,-480.45 671.21,-480.14"/>
</a>
</g>
<text text-anchor="middle" x="546.5" y="-595.5" font-family="Helvetica,sans-Serif" font-size="10.00" fill="grey"> #mpIters</text>
</g>
<!-- Node18&#45;&gt;Node1 -->
<g id="edge21_Node000001_Node000018" class="edge">
<title>Node18&#45;&gt;Node1</title>
<g id="a_edge21_Node000001_Node000018"><a xlink:title=" ">
<path fill="none" stroke="#63b8ff" d="M126.78,-1086.34C129.94,-1000.86 143.66,-708.67 186,-627 299.17,-408.72 549.8,-244.03 683.67,-167.8"/>
<polygon fill="none" stroke="#63b8ff" points="683.84,-167.7 687.09,-161.27 694.28,-161.8 691.03,-168.23 683.84,-167.7"/>
</a>
</g>
<text text-anchor="middle" x="273.5" y="-601" font-family="Helvetica,sans-Serif" font-size="10.00" fill="grey"> #mAdditionalFieldNames</text>
<text text-anchor="middle" x="273.5" y="-590" font-family="Helvetica,sans-Serif" font-size="10.00" fill="grey">#mRegionNames</text>
</g>
</g>
</svg>
