<?xml version="1.0" encoding="UTF-8" standalone="no"?>
<!DOCTYPE svg PUBLIC "-//W3C//DTD SVG 1.1//EN"
 "http://www.w3.org/Graphics/SVG/1.1/DTD/svg11.dtd">
<!-- Generated by graphviz version 2.43.0 (0)
 -->
<!-- Title: CARDIAC_CELL Pages: 1 -->
<svg width="201pt" height="243pt"
 viewBox="0.00 0.00 201.00 243.00" xmlns="http://www.w3.org/2000/svg" xmlns:xlink="http://www.w3.org/1999/xlink">
<g id="graph0" class="graph" transform="scale(1 1) rotate(0) translate(4 239)">
<title>CARDIAC_CELL</title>
<!-- Node1 -->
<g id="Node000001" class="node">
<title>Node1</title>
<g id="a_Node000001"><a xlink:title=" ">
<polygon fill="#999999" stroke="transparent" points="138,-235 55,-235 55,-186 138,-186 138,-235"/>
<text text-anchor="start" x="60.5" y="-222.5" font-family="Helvetica,sans-Serif" font-size="10.00">CARDIAC_CELL</text>
<text text-anchor="start" x="95" y="-207.5" font-family="Helvetica,sans-Serif" font-size="10.00"> </text>
<text text-anchor="start" x="95" y="-192.5" font-family="Helvetica,sans-Serif" font-size="10.00"> </text>
<polygon fill="#666666" stroke="#666666" points="55.5,-217.5 55.5,-217.5 138.5,-217.5 138.5,-217.5 55.5,-217.5"/>
<polygon fill="#666666" stroke="#666666" points="55.5,-202.5 55.5,-202.5 138.5,-202.5 138.5,-202.5 55.5,-202.5"/>
<polygon fill="none" stroke="#666666" points="55,-186 55,-235 138,-235 138,-186 55,-186"/>
</a>
</g>
</g>
<!-- Node2 -->
<g id="Node000002" class="node">
<title>Node2</title>
<g id="a_Node000002"><a xlink:href="classAbstractCardiacCellWithModifiers.html" target="_top" xlink:title=" ">
<polygon fill="white" stroke="transparent" points="193,-150 0,-150 0,0 193,0 193,-150"/>
<text text-anchor="start" x="15" y="-138" font-family="Helvetica,sans-Serif" font-size="10.00">AbstractCardiacCellWithModifiers</text>
<text text-anchor="start" x="49" y="-127" font-family="Helvetica,sans-Serif" font-size="10.00">&lt; CARDIAC_CELL &gt;</text>
<text text-anchor="start" x="7" y="-112" font-family="Helvetica,sans-Serif" font-size="10.00">&#45;</text>
<text text-anchor="start" x="17.5" y="-112" font-family="Helvetica,sans-Serif" font-size="10.00">mModifiersMap</text>
<text text-anchor="start" x="4.5" y="-97" font-family="Helvetica,sans-Serif" font-size="10.00">+</text>
<text text-anchor="start" x="17.5" y="-97" font-family="Helvetica,sans-Serif" font-size="10.00">AbstractCardiacCellWithModifiers()</text>
<text text-anchor="start" x="4.5" y="-82" font-family="Helvetica,sans-Serif" font-size="10.00">+</text>
<text text-anchor="start" x="17.5" y="-82" font-family="Helvetica,sans-Serif" font-size="10.00">GetModifier()</text>
<text text-anchor="start" x="4.5" y="-67" font-family="Helvetica,sans-Serif" font-size="10.00">+</text>
<text text-anchor="start" x="17.5" y="-67" font-family="Helvetica,sans-Serif" font-size="10.00">HasModifier()</text>
<text text-anchor="start" x="4.5" y="-52" font-family="Helvetica,sans-Serif" font-size="10.00">+</text>
<text text-anchor="start" x="17.5" y="-52" font-family="Helvetica,sans-Serif" font-size="10.00">SetModifier()</text>
<text text-anchor="start" x="4.5" y="-37" font-family="Helvetica,sans-Serif" font-size="10.00">#</text>
<text text-anchor="start" x="17.5" y="-37" font-family="Helvetica,sans-Serif" font-size="10.00">AddModifier()</text>
<text text-anchor="start" x="7" y="-22" font-family="Helvetica,sans-Serif" font-size="10.00">&#45;</text>
<text text-anchor="start" x="17.5" y="-22" font-family="Helvetica,sans-Serif" font-size="10.00">save()</text>
<text text-anchor="start" x="7" y="-7" font-family="Helvetica,sans-Serif" font-size="10.00">&#45;</text>
<text text-anchor="start" x="17.5" y="-7" font-family="Helvetica,sans-Serif" font-size="10.00">load()</text>
<polygon fill="#666666" stroke="#666666" points="0.5,-122 0.5,-122 193.5,-122 193.5,-122 0.5,-122"/>
<polygon fill="#666666" stroke="#666666" points="0.5,-107 0.5,-107 15.5,-107 15.5,-107 0.5,-107"/>
<polygon fill="#666666" stroke="#666666" points="15.5,-107 15.5,-107 193.5,-107 193.5,-107 15.5,-107"/>
<polygon fill="none" stroke="#666666" points="0,0 0,-150 193,-150 193,0 0,0"/>
</a>
</g>
</g>
<!-- Node1&#45;&gt;Node2 -->
<g id="edge1_Node000001_Node000002" class="edge">
<title>Node1&#45;&gt;Node2</title>
<g id="a_edge1_Node000001_Node000002"><a xlink:title=" ">
<path fill="none" stroke="#63b8ff" d="M96.5,-175.69C96.5,-167.75 96.5,-158.98 96.5,-150.03"/>
<polygon fill="none" stroke="#63b8ff" points="93,-175.94 96.5,-185.94 100,-175.94 93,-175.94"/>
</a>
</g>
</g>
</g>
</svg>
