<?xml version="1.0" encoding="UTF-8" standalone="no"?>
<!DOCTYPE svg PUBLIC "-//W3C//DTD SVG 1.1//EN"
 "http://www.w3.org/Graphics/SVG/1.1/DTD/svg11.dtd">
<!-- Generated by graphviz version 2.43.0 (0)
 -->
<!-- Title: MonodomainAssembler&lt; ELEMENT_DIM, SPACE_DIM &gt; Pages: 1 -->
<svg width="458pt" height="1338pt"
 viewBox="0.00 0.00 458.00 1338.00" xmlns="http://www.w3.org/2000/svg" xmlns:xlink="http://www.w3.org/1999/xlink">
<g id="graph0" class="graph" transform="scale(1 1) rotate(0) translate(4 1334)">
<title>MonodomainAssembler&lt; ELEMENT_DIM, SPACE_DIM &gt;</title>
<!-- Node1 -->
<g id="Node000001" class="node">
<title>Node1</title>
<g id="a_Node000001"><a xlink:title=" ">
<polygon fill="#999999" stroke="transparent" points="207,-90 42,-90 42,0 207,0 207,-90"/>
<text text-anchor="start" x="47.5" y="-78" font-family="Helvetica,sans-Serif" font-size="10.00">MonodomainAssembler</text>
<text text-anchor="start" x="47.5" y="-67" font-family="Helvetica,sans-Serif" font-size="10.00">&lt; ELEMENT_DIM, SPACE_DIM &gt;</text>
<text text-anchor="start" x="48.5" y="-52" font-family="Helvetica,sans-Serif" font-size="10.00">#</text>
<text text-anchor="start" x="63.5" y="-52" font-family="Helvetica,sans-Serif" font-size="10.00">mMassMatrixAssembler</text>
<text text-anchor="start" x="48.5" y="-37" font-family="Helvetica,sans-Serif" font-size="10.00">#</text>
<text text-anchor="start" x="63.5" y="-37" font-family="Helvetica,sans-Serif" font-size="10.00">mStiffnessMatrixAssembler</text>
<text text-anchor="start" x="48.5" y="-22" font-family="Helvetica,sans-Serif" font-size="10.00">+</text>
<text text-anchor="start" x="63.5" y="-22" font-family="Helvetica,sans-Serif" font-size="10.00">ComputeMatrixTerm()</text>
<text text-anchor="start" x="48.5" y="-7" font-family="Helvetica,sans-Serif" font-size="10.00">+</text>
<text text-anchor="start" x="63.5" y="-7" font-family="Helvetica,sans-Serif" font-size="10.00">MonodomainAssembler()</text>
<polygon fill="#666666" stroke="#666666" points="42.5,-62 42.5,-62 207.5,-62 207.5,-62 42.5,-62"/>
<polygon fill="#666666" stroke="#666666" points="42.5,-32 42.5,-32 61.5,-32 61.5,-32 42.5,-32"/>
<polygon fill="#666666" stroke="#666666" points="61.5,-32 61.5,-32 207.5,-32 207.5,-32 61.5,-32"/>
<polygon fill="none" stroke="#666666" points="42,0 42,-90 207,-90 207,0 42,0"/>
</a>
</g>
</g>
<!-- Node2 -->
<g id="Node000002" class="node">
<title>Node2</title>
<g id="a_Node000002"><a xlink:href="classAbstractCardiacFeVolumeIntegralAssembler.html" target="_top" xlink:title=" ">
<polygon fill="white" stroke="transparent" points="216.5,-224 32.5,-224 32.5,-127 216.5,-127 216.5,-224"/>
<text text-anchor="start" x="39" y="-211.5" font-family="Helvetica,sans-Serif" font-size="10.00">AbstractCardiacFeVolumeIntegral</text>
<text text-anchor="start" x="39" y="-200.5" font-family="Helvetica,sans-Serif" font-size="10.00">Assembler&lt; ELEMENT_DIM, SPACE</text>
<text text-anchor="start" x="47.5" y="-189.5" font-family="Helvetica,sans-Serif" font-size="10.00">_DIM, 1, false, true, CARDIAC &gt;</text>
<text text-anchor="start" x="36.5" y="-174.5" font-family="Helvetica,sans-Serif" font-size="10.00">#</text>
<text text-anchor="start" x="49.5" y="-174.5" font-family="Helvetica,sans-Serif" font-size="10.00">mpCardiacTissue</text>
<text text-anchor="start" x="36.5" y="-159.5" font-family="Helvetica,sans-Serif" font-size="10.00">#</text>
<text text-anchor="start" x="49.5" y="-159.5" font-family="Helvetica,sans-Serif" font-size="10.00">mpConfig</text>
<text text-anchor="start" x="36.5" y="-144.5" font-family="Helvetica,sans-Serif" font-size="10.00">+</text>
<text text-anchor="start" x="49.5" y="-144.5" font-family="Helvetica,sans-Serif" font-size="10.00">AbstractCardiacFeVolumeIntegral</text>
<text text-anchor="start" x="49.5" y="-133.5" font-family="Helvetica,sans-Serif" font-size="10.00">Assembler()</text>
<polygon fill="#666666" stroke="#666666" points="32.5,-184.5 32.5,-184.5 216.5,-184.5 216.5,-184.5 32.5,-184.5"/>
<polygon fill="#666666" stroke="#666666" points="32.5,-154.5 32.5,-154.5 47.5,-154.5 47.5,-154.5 32.5,-154.5"/>
<polygon fill="#666666" stroke="#666666" points="47.5,-154.5 47.5,-154.5 216.5,-154.5 216.5,-154.5 47.5,-154.5"/>
<polygon fill="none" stroke="#666666" points="32.5,-127 32.5,-224 216.5,-224 216.5,-127 32.5,-127"/>
</a>
</g>
</g>
<!-- Node2&#45;&gt;Node1 -->
<g id="edge1_Node000001_Node000002" class="edge">
<title>Node2&#45;&gt;Node1</title>
<g id="a_edge1_Node000001_Node000002"><a xlink:title=" ">
<path fill="none" stroke="#63b8ff" d="M124.5,-116.38C124.5,-107.54 124.5,-98.54 124.5,-90.07"/>
<polygon fill="none" stroke="#63b8ff" points="121,-116.65 124.5,-126.65 128,-116.65 121,-116.65"/>
</a>
</g>
</g>
<!-- Node3 -->
<g id="Node000003" class="node">
<title>Node3</title>
<g id="a_Node000003"><a xlink:href="classAbstractFeVolumeIntegralAssembler.html" target="_top" xlink:title=" ">
<polygon fill="white" stroke="transparent" points="241,-684 0,-684 0,-438 241,-438 241,-684"/>
<text text-anchor="start" x="5.5" y="-672" font-family="Helvetica,sans-Serif" font-size="10.00">AbstractFeVolumeIntegral</text>
<text text-anchor="start" x="5.5" y="-661" font-family="Helvetica,sans-Serif" font-size="10.00">Assembler&lt; ELEMENT_DIM,</text>
<text text-anchor="start" x="5.5" y="-650" font-family="Helvetica,sans-Serif" font-size="10.00"> SPACE_DIM, PROBLEM_DIM,</text>
<text text-anchor="start" x="5.5" y="-639" font-family="Helvetica,sans-Serif" font-size="10.00"> CAN_ASSEMBLE_VECTOR, CAN</text>
<text text-anchor="start" x="5.5" y="-628" font-family="Helvetica,sans-Serif" font-size="10.00">_ASSEMBLE_MATRIX, INTERPOLATION_LEVEL &gt;</text>
<text text-anchor="start" x="16" y="-613" font-family="Helvetica,sans-Serif" font-size="10.00">#</text>
<text text-anchor="start" x="40.5" y="-613" font-family="Helvetica,sans-Serif" font-size="10.00">mpMesh</text>
<text text-anchor="start" x="16" y="-598" font-family="Helvetica,sans-Serif" font-size="10.00">#</text>
<text text-anchor="start" x="40.5" y="-598" font-family="Helvetica,sans-Serif" font-size="10.00">mpQuadRule</text>
<text text-anchor="start" x="16" y="-583" font-family="Helvetica,sans-Serif" font-size="10.00">+</text>
<text text-anchor="start" x="40.5" y="-583" font-family="Helvetica,sans-Serif" font-size="10.00">AbstractFeVolumeIntegral</text>
<text text-anchor="start" x="40.5" y="-572" font-family="Helvetica,sans-Serif" font-size="10.00">Assembler()</text>
<text text-anchor="start" x="16" y="-557" font-family="Helvetica,sans-Serif" font-size="10.00">+</text>
<text text-anchor="start" x="40.5" y="-557" font-family="Helvetica,sans-Serif" font-size="10.00">~AbstractFeVolumeIntegral</text>
<text text-anchor="start" x="40.5" y="-546" font-family="Helvetica,sans-Serif" font-size="10.00">Assembler()</text>
<text text-anchor="start" x="16" y="-531" font-family="Helvetica,sans-Serif" font-size="10.00">#</text>
<text text-anchor="start" x="40.5" y="-531" font-family="Helvetica,sans-Serif" font-size="10.00">ComputeTransformedBasisFunction</text>
<text text-anchor="start" x="40.5" y="-520" font-family="Helvetica,sans-Serif" font-size="10.00">Derivatives()</text>
<text text-anchor="start" x="16" y="-505" font-family="Helvetica,sans-Serif" font-size="10.00">#</text>
<text text-anchor="start" x="40.5" y="-505" font-family="Helvetica,sans-Serif" font-size="10.00">DoAssemble()</text>
<text text-anchor="start" x="16" y="-490" font-family="Helvetica,sans-Serif" font-size="10.00">#</text>
<text text-anchor="start" x="40.5" y="-490" font-family="Helvetica,sans-Serif" font-size="10.00">ComputeMatrixTerm()</text>
<text text-anchor="start" x="16" y="-475" font-family="Helvetica,sans-Serif" font-size="10.00">#</text>
<text text-anchor="start" x="40.5" y="-475" font-family="Helvetica,sans-Serif" font-size="10.00">ComputeVectorTerm()</text>
<text text-anchor="start" x="16" y="-460" font-family="Helvetica,sans-Serif" font-size="10.00">#</text>
<text text-anchor="start" x="40.5" y="-460" font-family="Helvetica,sans-Serif" font-size="10.00">AssembleOnElement()</text>
<text text-anchor="start" x="16" y="-445" font-family="Helvetica,sans-Serif" font-size="10.00">#</text>
<text text-anchor="start" x="40.5" y="-445" font-family="Helvetica,sans-Serif" font-size="10.00">ElementAssemblyCriterion()</text>
<polygon fill="#666666" stroke="#666666" points="0.5,-623 0.5,-623 241.5,-623 241.5,-623 0.5,-623"/>
<polygon fill="#666666" stroke="#666666" points="0.5,-593 0.5,-593 38.5,-593 38.5,-593 0.5,-593"/>
<polygon fill="#666666" stroke="#666666" points="38.5,-593 38.5,-593 241.5,-593 241.5,-593 38.5,-593"/>
<polygon fill="none" stroke="#666666" points="0,-438 0,-684 241,-684 241,-438 0,-438"/>
</a>
</g>
</g>
<!-- Node3&#45;&gt;Node2 -->
<g id="edge2_Node000002_Node000003" class="edge">
<title>Node3&#45;&gt;Node2</title>
<g id="a_edge2_Node000002_Node000003"><a xlink:title=" ">
<path fill="none" stroke="#63b8ff" d="M121.88,-427.57C122.62,-357.12 123.47,-274.83 124,-224.19"/>
<polygon fill="none" stroke="#63b8ff" points="118.38,-427.83 121.77,-437.87 125.38,-427.9 118.38,-427.83"/>
</a>
</g>
</g>
<!-- Node7 -->
<g id="Node000007" class="node">
<title>Node7</title>
<g id="a_Node000007"><a xlink:href="classAbstractCardiacFeVolumeIntegralAssembler.html" target="_top" xlink:title=" ">
<polygon fill="white" stroke="transparent" points="450,-401 137,-401 137,-293 450,-293 450,-401"/>
<text text-anchor="start" x="142.5" y="-389" font-family="Helvetica,sans-Serif" font-size="10.00">AbstractCardiacFeVolumeIntegral</text>
<text text-anchor="start" x="142.5" y="-378" font-family="Helvetica,sans-Serif" font-size="10.00">Assembler&lt; ELEMENT_DIM, SPACE</text>
<text text-anchor="start" x="142.5" y="-367" font-family="Helvetica,sans-Serif" font-size="10.00">_DIM, PROBLEM_DIM, CAN_ASSEMBLE</text>
<text text-anchor="start" x="142.5" y="-356" font-family="Helvetica,sans-Serif" font-size="10.00">_VECTOR, CAN_ASSEMBLE_MATRIX, INTERPOLATION_LEVEL &gt;</text>
<text text-anchor="start" x="173.5" y="-341" font-family="Helvetica,sans-Serif" font-size="10.00">#</text>
<text text-anchor="start" x="218.5" y="-341" font-family="Helvetica,sans-Serif" font-size="10.00">mpCardiacTissue</text>
<text text-anchor="start" x="173.5" y="-326" font-family="Helvetica,sans-Serif" font-size="10.00">#</text>
<text text-anchor="start" x="218.5" y="-326" font-family="Helvetica,sans-Serif" font-size="10.00">mpConfig</text>
<text text-anchor="start" x="173.5" y="-311" font-family="Helvetica,sans-Serif" font-size="10.00">+</text>
<text text-anchor="start" x="218.5" y="-311" font-family="Helvetica,sans-Serif" font-size="10.00">AbstractCardiacFeVolumeIntegral</text>
<text text-anchor="start" x="218.5" y="-300" font-family="Helvetica,sans-Serif" font-size="10.00">Assembler()</text>
<polygon fill="#666666" stroke="#666666" points="137.5,-351 137.5,-351 450.5,-351 450.5,-351 137.5,-351"/>
<polygon fill="#666666" stroke="#666666" points="137.5,-321 137.5,-321 216.5,-321 216.5,-321 137.5,-321"/>
<polygon fill="#666666" stroke="#666666" points="216.5,-321 216.5,-321 450.5,-321 450.5,-321 216.5,-321"/>
<polygon fill="none" stroke="#666666" points="137,-293 137,-401 450,-401 450,-293 137,-293"/>
</a>
</g>
</g>
<!-- Node3&#45;&gt;Node7 -->
<g id="edge7_Node000007_Node000003" class="edge">
<title>Node3&#45;&gt;Node7</title>
<g id="a_edge7_Node000007_Node000003"><a xlink:title=" ">
<path fill="none" stroke="#63b8ff" d="M226.5,-430.1C234.77,-419.96 242.8,-410.13 250.24,-401.01"/>
<polygon fill="none" stroke="#63b8ff" points="223.74,-427.95 220.13,-437.91 229.17,-432.37 223.74,-427.95"/>
</a>
</g>
</g>
<!-- Node4 -->
<g id="Node000004" class="node">
<title>Node4</title>
<g id="a_Node000004"><a xlink:href="classAbstractFeAssemblerCommon.html" target="_top" xlink:title=" ">
<polygon fill="white" stroke="transparent" points="220.5,-926 20.5,-926 20.5,-721 220.5,-721 220.5,-926"/>
<text text-anchor="start" x="33" y="-913.5" font-family="Helvetica,sans-Serif" font-size="10.00">AbstractFeAssemblerCommon</text>
<text text-anchor="start" x="33" y="-902.5" font-family="Helvetica,sans-Serif" font-size="10.00">&lt; ELEMENT_DIM, SPACE_DIM,</text>
<text text-anchor="start" x="33" y="-891.5" font-family="Helvetica,sans-Serif" font-size="10.00"> PROBLEM_DIM, CAN_ASSEMBLE</text>
<text text-anchor="start" x="33" y="-880.5" font-family="Helvetica,sans-Serif" font-size="10.00">_VECTOR, CAN_ASSEMBLE_MATRIX,</text>
<text text-anchor="start" x="56.5" y="-869.5" font-family="Helvetica,sans-Serif" font-size="10.00"> INTERPOLATION_LEVEL &gt;</text>
<text text-anchor="start" x="24.5" y="-854.5" font-family="Helvetica,sans-Serif" font-size="10.00">#</text>
<text text-anchor="start" x="37.5" y="-854.5" font-family="Helvetica,sans-Serif" font-size="10.00">mCurrentSolutionOrGuessReplicated</text>
<text text-anchor="start" x="24.5" y="-839.5" font-family="Helvetica,sans-Serif" font-size="10.00">+</text>
<text text-anchor="start" x="37.5" y="-839.5" font-family="Helvetica,sans-Serif" font-size="10.00">AbstractFeAssemblerCommon()</text>
<text text-anchor="start" x="24.5" y="-824.5" font-family="Helvetica,sans-Serif" font-size="10.00">+</text>
<text text-anchor="start" x="37.5" y="-824.5" font-family="Helvetica,sans-Serif" font-size="10.00">SetCurrentSolution()</text>
<text text-anchor="start" x="24.5" y="-809.5" font-family="Helvetica,sans-Serif" font-size="10.00">+</text>
<text text-anchor="start" x="37.5" y="-809.5" font-family="Helvetica,sans-Serif" font-size="10.00">~AbstractFeAssemblerCommon()</text>
<text text-anchor="start" x="24.5" y="-794.5" font-family="Helvetica,sans-Serif" font-size="10.00">#</text>
<text text-anchor="start" x="37.5" y="-794.5" font-family="Helvetica,sans-Serif" font-size="10.00">GetCurrentSolutionOrGuess</text>
<text text-anchor="start" x="37.5" y="-783.5" font-family="Helvetica,sans-Serif" font-size="10.00">Value()</text>
<text text-anchor="start" x="24.5" y="-768.5" font-family="Helvetica,sans-Serif" font-size="10.00">#</text>
<text text-anchor="start" x="37.5" y="-768.5" font-family="Helvetica,sans-Serif" font-size="10.00">ResetInterpolatedQuantities()</text>
<text text-anchor="start" x="24.5" y="-753.5" font-family="Helvetica,sans-Serif" font-size="10.00">#</text>
<text text-anchor="start" x="37.5" y="-753.5" font-family="Helvetica,sans-Serif" font-size="10.00">IncrementInterpolatedQuantities()</text>
<text text-anchor="start" x="24.5" y="-738.5" font-family="Helvetica,sans-Serif" font-size="10.00">#</text>
<text text-anchor="start" x="37.5" y="-738.5" font-family="Helvetica,sans-Serif" font-size="10.00">IncrementInterpolatedGradient</text>
<text text-anchor="start" x="37.5" y="-727.5" font-family="Helvetica,sans-Serif" font-size="10.00">Quantities()</text>
<polygon fill="#666666" stroke="#666666" points="20.5,-864.5 20.5,-864.5 220.5,-864.5 220.5,-864.5 20.5,-864.5"/>
<polygon fill="#666666" stroke="#666666" points="20.5,-849.5 20.5,-849.5 35.5,-849.5 35.5,-849.5 20.5,-849.5"/>
<polygon fill="#666666" stroke="#666666" points="35.5,-849.5 35.5,-849.5 220.5,-849.5 220.5,-849.5 35.5,-849.5"/>
<polygon fill="none" stroke="#666666" points="20.5,-721 20.5,-926 220.5,-926 220.5,-721 20.5,-721"/>
</a>
</g>
</g>
<!-- Node4&#45;&gt;Node3 -->
<g id="edge3_Node000003_Node000004" class="edge">
<title>Node4&#45;&gt;Node3</title>
<g id="a_edge3_Node000003_Node000004"><a xlink:title=" ">
<path fill="none" stroke="#63b8ff" d="M120.5,-710.48C120.5,-701.75 120.5,-692.91 120.5,-684.12"/>
<polygon fill="none" stroke="#63b8ff" points="117,-710.66 120.5,-720.66 124,-710.66 117,-710.66"/>
</a>
</g>
</g>
<!-- Node5 -->
<g id="Node000005" class="node">
<title>Node5</title>
<g id="a_Node000005"><a xlink:href="classAbstractFeAssemblerInterface.html" target="_top" xlink:title=" ">
<polygon fill="white" stroke="transparent" points="212.5,-1244 28.5,-1244 28.5,-963 212.5,-963 212.5,-1244"/>
<text text-anchor="start" x="39.5" y="-1231.5" font-family="Helvetica,sans-Serif" font-size="10.00">AbstractFeAssemblerInterface</text>
<text text-anchor="start" x="39.5" y="-1220.5" font-family="Helvetica,sans-Serif" font-size="10.00">&lt; CAN_ASSEMBLE_VECTOR, CAN</text>
<text text-anchor="start" x="64.5" y="-1209.5" font-family="Helvetica,sans-Serif" font-size="10.00">_ASSEMBLE_MATRIX &gt;</text>
<text text-anchor="start" x="32.5" y="-1194.5" font-family="Helvetica,sans-Serif" font-size="10.00">#</text>
<text text-anchor="start" x="45.5" y="-1194.5" font-family="Helvetica,sans-Serif" font-size="10.00">mVectorToAssemble</text>
<text text-anchor="start" x="32.5" y="-1179.5" font-family="Helvetica,sans-Serif" font-size="10.00">#</text>
<text text-anchor="start" x="45.5" y="-1179.5" font-family="Helvetica,sans-Serif" font-size="10.00">mMatrixToAssemble</text>
<text text-anchor="start" x="32.5" y="-1164.5" font-family="Helvetica,sans-Serif" font-size="10.00">#</text>
<text text-anchor="start" x="45.5" y="-1164.5" font-family="Helvetica,sans-Serif" font-size="10.00">mAssembleMatrix</text>
<text text-anchor="start" x="32.5" y="-1149.5" font-family="Helvetica,sans-Serif" font-size="10.00">#</text>
<text text-anchor="start" x="45.5" y="-1149.5" font-family="Helvetica,sans-Serif" font-size="10.00">mAssembleVector</text>
<text text-anchor="start" x="32.5" y="-1134.5" font-family="Helvetica,sans-Serif" font-size="10.00">#</text>
<text text-anchor="start" x="45.5" y="-1134.5" font-family="Helvetica,sans-Serif" font-size="10.00">mZeroMatrixBeforeAssembly</text>
<text text-anchor="start" x="32.5" y="-1119.5" font-family="Helvetica,sans-Serif" font-size="10.00">#</text>
<text text-anchor="start" x="45.5" y="-1119.5" font-family="Helvetica,sans-Serif" font-size="10.00">mZeroVectorBeforeAssembly</text>
<text text-anchor="start" x="32.5" y="-1104.5" font-family="Helvetica,sans-Serif" font-size="10.00">#</text>
<text text-anchor="start" x="45.5" y="-1104.5" font-family="Helvetica,sans-Serif" font-size="10.00">mOwnershipRangeLo</text>
<text text-anchor="start" x="32.5" y="-1089.5" font-family="Helvetica,sans-Serif" font-size="10.00">#</text>
<text text-anchor="start" x="45.5" y="-1089.5" font-family="Helvetica,sans-Serif" font-size="10.00">mOwnershipRangeHi</text>
<text text-anchor="start" x="32.5" y="-1074.5" font-family="Helvetica,sans-Serif" font-size="10.00">+</text>
<text text-anchor="start" x="45.5" y="-1074.5" font-family="Helvetica,sans-Serif" font-size="10.00">AbstractFeAssemblerInterface()</text>
<text text-anchor="start" x="32.5" y="-1059.5" font-family="Helvetica,sans-Serif" font-size="10.00">+</text>
<text text-anchor="start" x="45.5" y="-1059.5" font-family="Helvetica,sans-Serif" font-size="10.00">SetMatrixToAssemble()</text>
<text text-anchor="start" x="32.5" y="-1044.5" font-family="Helvetica,sans-Serif" font-size="10.00">+</text>
<text text-anchor="start" x="45.5" y="-1044.5" font-family="Helvetica,sans-Serif" font-size="10.00">SetVectorToAssemble()</text>
<text text-anchor="start" x="32.5" y="-1029.5" font-family="Helvetica,sans-Serif" font-size="10.00">+</text>
<text text-anchor="start" x="45.5" y="-1029.5" font-family="Helvetica,sans-Serif" font-size="10.00">Assemble()</text>
<text text-anchor="start" x="32.5" y="-1014.5" font-family="Helvetica,sans-Serif" font-size="10.00">+</text>
<text text-anchor="start" x="45.5" y="-1014.5" font-family="Helvetica,sans-Serif" font-size="10.00">AssembleMatrix()</text>
<text text-anchor="start" x="32.5" y="-999.5" font-family="Helvetica,sans-Serif" font-size="10.00">+</text>
<text text-anchor="start" x="45.5" y="-999.5" font-family="Helvetica,sans-Serif" font-size="10.00">AssembleVector()</text>
<text text-anchor="start" x="32.5" y="-984.5" font-family="Helvetica,sans-Serif" font-size="10.00">+</text>
<text text-anchor="start" x="45.5" y="-984.5" font-family="Helvetica,sans-Serif" font-size="10.00">~AbstractFeAssemblerInterface()</text>
<text text-anchor="start" x="32.5" y="-969.5" font-family="Helvetica,sans-Serif" font-size="10.00">#</text>
<text text-anchor="start" x="45.5" y="-969.5" font-family="Helvetica,sans-Serif" font-size="10.00">DoAssemble()</text>
<polygon fill="#666666" stroke="#666666" points="28.5,-1204.5 28.5,-1204.5 212.5,-1204.5 212.5,-1204.5 28.5,-1204.5"/>
<polygon fill="#666666" stroke="#666666" points="28.5,-1084.5 28.5,-1084.5 43.5,-1084.5 43.5,-1084.5 28.5,-1084.5"/>
<polygon fill="#666666" stroke="#666666" points="43.5,-1084.5 43.5,-1084.5 212.5,-1084.5 212.5,-1084.5 43.5,-1084.5"/>
<polygon fill="none" stroke="#666666" points="28.5,-963 28.5,-1244 212.5,-1244 212.5,-963 28.5,-963"/>
</a>
</g>
</g>
<!-- Node5&#45;&gt;Node4 -->
<g id="edge4_Node000004_Node000005" class="edge">
<title>Node5&#45;&gt;Node4</title>
<g id="a_edge4_Node000004_Node000005"><a xlink:title=" ">
<path fill="none" stroke="#63b8ff" d="M120.5,-952.6C120.5,-943.69 120.5,-934.83 120.5,-926.18"/>
<polygon fill="none" stroke="#63b8ff" points="117,-952.69 120.5,-962.69 124,-952.69 117,-952.69"/>
</a>
</g>
</g>
<!-- Node6 -->
<g id="Node000006" class="node">
<title>Node6</title>
<g id="a_Node000006"><a xlink:title=" ">
<polygon fill="white" stroke="transparent" points="173.5,-1330 67.5,-1330 67.5,-1281 173.5,-1281 173.5,-1330"/>
<text text-anchor="start" x="72.5" y="-1317.5" font-family="Helvetica,sans-Serif" font-size="10.00">boost::noncopyable</text>
<text text-anchor="start" x="118.5" y="-1302.5" font-family="Helvetica,sans-Serif" font-size="10.00"> </text>
<text text-anchor="start" x="118.5" y="-1287.5" font-family="Helvetica,sans-Serif" font-size="10.00"> </text>
<polygon fill="#bfbfbf" stroke="#bfbfbf" points="67.5,-1312.5 67.5,-1312.5 173.5,-1312.5 173.5,-1312.5 67.5,-1312.5"/>
<polygon fill="#bfbfbf" stroke="#bfbfbf" points="67.5,-1297.5 67.5,-1297.5 173.5,-1297.5 173.5,-1297.5 67.5,-1297.5"/>
<polygon fill="none" stroke="#bfbfbf" points="67.5,-1281 67.5,-1330 173.5,-1330 173.5,-1281 67.5,-1281"/>
</a>
</g>
</g>
<!-- Node6&#45;&gt;Node5 -->
<g id="edge5_Node000005_Node000006" class="edge">
<title>Node6&#45;&gt;Node5</title>
<g id="a_edge5_Node000005_Node000006"><a xlink:title=" ">
<path fill="none" stroke="#8b1a1a" d="M120.5,-1270.66C120.5,-1262.77 120.5,-1253.87 120.5,-1244.41"/>
<polygon fill="none" stroke="#8b1a1a" points="117,-1270.77 120.5,-1280.77 124,-1270.77 117,-1270.77"/>
</a>
</g>
</g>
<!-- Node7&#45;&gt;Node2 -->
<g id="edge6_Node000002_Node000007" class="edge">
<title>Node7&#45;&gt;Node2</title>
<g id="a_edge6_Node000002_Node000007"><a xlink:title=" ">
<path fill="none" stroke="orange" d="M233.17,-285.49C213.03,-265.29 190.89,-243.09 171.88,-224.02"/>
<polygon fill="orange" stroke="orange" points="230.95,-288.22 240.49,-292.83 235.91,-283.28 230.95,-288.22"/>
</a>
</g>
<text text-anchor="start" x="218.5" y="-267" font-family="Helvetica,sans-Serif" font-size="10.00" fill="grey"> &lt; ELEMENT_DIM, SPACE</text>
<text text-anchor="start" x="218.5" y="-256" font-family="Helvetica,sans-Serif" font-size="10.00" fill="grey">_DIM, 1, false, true,</text>
<text text-anchor="middle" x="279.5" y="-245" font-family="Helvetica,sans-Serif" font-size="10.00" fill="grey"> CARDIAC &gt;</text>
</g>
</g>
</svg>
