<?xml version="1.0" encoding="UTF-8" standalone="no"?>
<!DOCTYPE svg PUBLIC "-//W3C//DTD SVG 1.1//EN"
 "http://www.w3.org/Graphics/SVG/1.1/DTD/svg11.dtd">
<!-- Generated by graphviz version 2.43.0 (0)
 -->
<!-- Title: QuadraturePointsGroup&lt; DIM &gt; Pages: 1 -->
<svg width="374pt" height="464pt"
 viewBox="0.00 0.00 373.50 464.00" xmlns="http://www.w3.org/2000/svg" xmlns:xlink="http://www.w3.org/1999/xlink">
<g id="graph0" class="graph" transform="scale(1 1) rotate(0) translate(4 460)">
<title>QuadraturePointsGroup&lt; DIM &gt;</title>
<!-- Node1 -->
<g id="Node000001" class="node">
<title>Node1</title>
<g id="a_Node000001"><a xlink:title=" ">
<polygon fill="#999999" stroke="transparent" points="273,-135 92,-135 92,0 273,0 273,-135"/>
<text text-anchor="start" x="125.5" y="-122.5" font-family="Helvetica,sans-Serif" font-size="10.00">QuadraturePointsGroup</text>
<text text-anchor="start" x="161.5" y="-111.5" font-family="Helvetica,sans-Serif" font-size="10.00">&lt; DIM &gt;</text>
<text text-anchor="start" x="181" y="-96.5" font-family="Helvetica,sans-Serif" font-size="10.00"> </text>
<text text-anchor="start" x="96.5" y="-81.5" font-family="Helvetica,sans-Serif" font-size="10.00">+</text>
<text text-anchor="start" x="109.5" y="-81.5" font-family="Helvetica,sans-Serif" font-size="10.00">QuadraturePointsGroup()</text>
<text text-anchor="start" x="96.5" y="-66.5" font-family="Helvetica,sans-Serif" font-size="10.00">+</text>
<text text-anchor="start" x="109.5" y="-66.5" font-family="Helvetica,sans-Serif" font-size="10.00">rGet()</text>
<text text-anchor="start" x="96.5" y="-51.5" font-family="Helvetica,sans-Serif" font-size="10.00">+</text>
<text text-anchor="start" x="109.5" y="-51.5" font-family="Helvetica,sans-Serif" font-size="10.00">rGet()</text>
<text text-anchor="start" x="96.5" y="-36.5" font-family="Helvetica,sans-Serif" font-size="10.00">+</text>
<text text-anchor="start" x="109.5" y="-36.5" font-family="Helvetica,sans-Serif" font-size="10.00">GetNumElements()</text>
<text text-anchor="start" x="96.5" y="-21.5" font-family="Helvetica,sans-Serif" font-size="10.00">+</text>
<text text-anchor="start" x="109.5" y="-21.5" font-family="Helvetica,sans-Serif" font-size="10.00">GetNumQuadPointsPerElement()</text>
<text text-anchor="start" x="96.5" y="-6.5" font-family="Helvetica,sans-Serif" font-size="10.00">+</text>
<text text-anchor="start" x="109.5" y="-6.5" font-family="Helvetica,sans-Serif" font-size="10.00">Size()</text>
<polygon fill="#666666" stroke="#666666" points="92.5,-106.5 92.5,-106.5 273.5,-106.5 273.5,-106.5 92.5,-106.5"/>
<polygon fill="#666666" stroke="#666666" points="92.5,-91.5 92.5,-91.5 273.5,-91.5 273.5,-91.5 92.5,-91.5"/>
<polygon fill="none" stroke="#666666" points="92,0 92,-135 273,-135 273,0 92,0"/>
</a>
</g>
</g>
<!-- Node2 -->
<g id="Node000002" class="node">
<title>Node2</title>
<g id="a_Node000002"><a xlink:title=" ">
<polygon fill="white" stroke="transparent" points="188,-253 73,-253 73,-193 188,-193 188,-253"/>
<text text-anchor="start" x="78.5" y="-241" font-family="Helvetica,sans-Serif" font-size="10.00">std::vector&lt; c_vector</text>
<text text-anchor="start" x="84.5" y="-230" font-family="Helvetica,sans-Serif" font-size="10.00">&lt; double, DIM &gt; &gt;</text>
<text text-anchor="start" x="129" y="-215" font-family="Helvetica,sans-Serif" font-size="10.00"> </text>
<text text-anchor="start" x="129" y="-200" font-family="Helvetica,sans-Serif" font-size="10.00"> </text>
<polygon fill="#666666" stroke="#666666" points="73.5,-225 73.5,-225 188.5,-225 188.5,-225 73.5,-225"/>
<polygon fill="#666666" stroke="#666666" points="73.5,-210 73.5,-210 188.5,-210 188.5,-210 73.5,-210"/>
<polygon fill="none" stroke="#666666" points="73,-193 73,-253 188,-253 188,-193 73,-193"/>
</a>
</g>
</g>
<!-- Node2&#45;&gt;Node1 -->
<g id="edge1_Node000001_Node000002" class="edge">
<title>Node2&#45;&gt;Node1</title>
<g id="a_edge1_Node000001_Node000002"><a xlink:title=" ">
<path fill="none" stroke="#63b8ff" d="M140.4,-192.77C144.9,-179.48 150.47,-163.06 156.06,-146.56"/>
<polygon fill="none" stroke="#63b8ff" points="156.07,-146.53 154.2,-139.56 159.92,-135.16 161.78,-142.13 156.07,-146.53"/>
</a>
</g>
<text text-anchor="middle" x="168" y="-161.5" font-family="Helvetica,sans-Serif" font-size="10.00" fill="grey"> &#45;data</text>
</g>
<!-- Node3 -->
<g id="Node000003" class="node">
<title>Node3</title>
<g id="a_Node000003"><a xlink:title=" ">
<polygon fill="white" stroke="transparent" points="133,-360 0,-360 0,-311 133,-311 133,-360"/>
<text text-anchor="start" x="5.5" y="-347.5" font-family="Helvetica,sans-Serif" font-size="10.00">c_vector&lt; double, DIM &gt;</text>
<text text-anchor="start" x="65" y="-332.5" font-family="Helvetica,sans-Serif" font-size="10.00"> </text>
<text text-anchor="start" x="65" y="-317.5" font-family="Helvetica,sans-Serif" font-size="10.00"> </text>
<polygon fill="#bfbfbf" stroke="#bfbfbf" points="0.5,-342.5 0.5,-342.5 133.5,-342.5 133.5,-342.5 0.5,-342.5"/>
<polygon fill="#bfbfbf" stroke="#bfbfbf" points="0.5,-327.5 0.5,-327.5 133.5,-327.5 133.5,-327.5 0.5,-327.5"/>
<polygon fill="none" stroke="#bfbfbf" points="0,-311 0,-360 133,-360 133,-311 0,-311"/>
</a>
</g>
</g>
<!-- Node3&#45;&gt;Node2 -->
<g id="edge2_Node000002_Node000003" class="edge">
<title>Node3&#45;&gt;Node2</title>
<g id="a_edge2_Node000002_Node000003"><a xlink:title=" ">
<path fill="none" stroke="#63b8ff" d="M80.23,-310.79C88.17,-297.09 98.36,-279.49 107.49,-263.72"/>
<polygon fill="none" stroke="#63b8ff" points="107.59,-263.56 107.13,-256.36 113.6,-253.17 114.06,-260.37 107.59,-263.56"/>
</a>
</g>
<text text-anchor="middle" x="131.5" y="-279.5" font-family="Helvetica,sans-Serif" font-size="10.00" fill="grey"> +elements</text>
</g>
<!-- Node4 -->
<g id="Node000004" class="node">
<title>Node4</title>
<g id="a_Node000004"><a xlink:title=" ">
<polygon fill="white" stroke="transparent" points="92.5,-456 40.5,-456 40.5,-407 92.5,-407 92.5,-456"/>
<text text-anchor="start" x="45.5" y="-443.5" font-family="Helvetica,sans-Serif" font-size="10.00">c_vector</text>
<text text-anchor="start" x="64.5" y="-428.5" font-family="Helvetica,sans-Serif" font-size="10.00"> </text>
<text text-anchor="start" x="64.5" y="-413.5" font-family="Helvetica,sans-Serif" font-size="10.00"> </text>
<polygon fill="#bfbfbf" stroke="#bfbfbf" points="40.5,-438.5 40.5,-438.5 92.5,-438.5 92.5,-438.5 40.5,-438.5"/>
<polygon fill="#bfbfbf" stroke="#bfbfbf" points="40.5,-423.5 40.5,-423.5 92.5,-423.5 92.5,-423.5 40.5,-423.5"/>
<polygon fill="none" stroke="#bfbfbf" points="40.5,-407 40.5,-456 92.5,-456 92.5,-407 40.5,-407"/>
</a>
</g>
</g>
<!-- Node4&#45;&gt;Node3 -->
<g id="edge3_Node000003_Node000004" class="edge">
<title>Node4&#45;&gt;Node3</title>
<g id="a_edge3_Node000003_Node000004"><a xlink:title=" ">
<path fill="none" stroke="orange" d="M66.5,-396.6C66.5,-384.54 66.5,-371.23 66.5,-360.21"/>
<polygon fill="orange" stroke="orange" points="63,-396.78 66.5,-406.78 70,-396.78 63,-396.78"/>
</a>
</g>
<text text-anchor="middle" x="109" y="-381" font-family="Helvetica,sans-Serif" font-size="10.00" fill="grey"> &lt; double, DIM &gt;</text>
</g>
<!-- Node5 -->
<g id="Node000005" class="node">
<title>Node5</title>
<g id="a_Node000005"><a xlink:title=" ">
<polygon fill="white" stroke="transparent" points="242,-360 151,-360 151,-311 242,-311 242,-360"/>
<text text-anchor="start" x="156.5" y="-347.5" font-family="Helvetica,sans-Serif" font-size="10.00">std::vector&lt; T &gt;</text>
<text text-anchor="start" x="195" y="-332.5" font-family="Helvetica,sans-Serif" font-size="10.00"> </text>
<text text-anchor="start" x="195" y="-317.5" font-family="Helvetica,sans-Serif" font-size="10.00"> </text>
<polygon fill="#666666" stroke="#666666" points="151.5,-342.5 151.5,-342.5 242.5,-342.5 242.5,-342.5 151.5,-342.5"/>
<polygon fill="#666666" stroke="#666666" points="151.5,-327.5 151.5,-327.5 242.5,-327.5 242.5,-327.5 151.5,-327.5"/>
<polygon fill="none" stroke="#666666" points="151,-311 151,-360 242,-360 242,-311 151,-311"/>
</a>
</g>
</g>
<!-- Node5&#45;&gt;Node2 -->
<g id="edge4_Node000002_Node000005" class="edge">
<title>Node5&#45;&gt;Node2</title>
<g id="a_edge4_Node000002_Node000005"><a xlink:title=" ">
<path fill="none" stroke="orange" d="M179.16,-301.87C173.68,-291.87 167.48,-280.9 161.5,-271 157.96,-265.14 154.04,-258.98 150.21,-253.1"/>
<polygon fill="orange" stroke="orange" points="176.12,-303.61 183.97,-310.72 182.27,-300.27 176.12,-303.61"/>
</a>
</g>
<text text-anchor="start" x="174.5" y="-285" font-family="Helvetica,sans-Serif" font-size="10.00" fill="grey"> &lt; c_vector&lt; double,</text>
<text text-anchor="middle" x="226" y="-274" font-family="Helvetica,sans-Serif" font-size="10.00" fill="grey"> DIM &gt; &gt;</text>
</g>
<!-- Node6 -->
<g id="Node000006" class="node">
<title>Node6</title>
<g id="a_Node000006"><a xlink:title=" ">
<polygon fill="white" stroke="transparent" points="205,-456 188,-456 188,-407 205,-407 205,-456"/>
<text text-anchor="start" x="193.5" y="-443.5" font-family="Helvetica,sans-Serif" font-size="10.00">T</text>
<text text-anchor="start" x="195" y="-428.5" font-family="Helvetica,sans-Serif" font-size="10.00"> </text>
<text text-anchor="start" x="195" y="-413.5" font-family="Helvetica,sans-Serif" font-size="10.00"> </text>
<polygon fill="#bfbfbf" stroke="#bfbfbf" points="188.5,-438.5 188.5,-438.5 205.5,-438.5 205.5,-438.5 188.5,-438.5"/>
<polygon fill="#bfbfbf" stroke="#bfbfbf" points="188.5,-423.5 188.5,-423.5 205.5,-423.5 205.5,-423.5 188.5,-423.5"/>
<polygon fill="none" stroke="#bfbfbf" points="188,-407 188,-456 205,-456 205,-407 188,-407"/>
</a>
</g>
</g>
<!-- Node6&#45;&gt;Node5 -->
<g id="edge5_Node000005_Node000006" class="edge">
<title>Node6&#45;&gt;Node5</title>
<g id="a_edge5_Node000005_Node000006"><a xlink:title=" ">
<path fill="none" stroke="#63b8ff" d="M196.5,-406.78C196.5,-396.32 196.5,-383.79 196.5,-372.23"/>
<polygon fill="none" stroke="#63b8ff" points="196.5,-372.21 192.5,-366.21 196.5,-360.21 200.5,-366.21 196.5,-372.21"/>
</a>
</g>
<text text-anchor="middle" x="225.5" y="-381" font-family="Helvetica,sans-Serif" font-size="10.00" fill="grey"> +elements</text>
</g>
<!-- Node7 -->
<g id="Node000007" class="node">
<title>Node7</title>
<g id="a_Node000007"><a xlink:href="classunsigned.html" target="_top" xlink:title=" ">
<polygon fill="white" stroke="transparent" points="261,-247.5 206,-247.5 206,-198.5 261,-198.5 261,-247.5"/>
<text text-anchor="start" x="211.5" y="-235" font-family="Helvetica,sans-Serif" font-size="10.00">unsigned</text>
<text text-anchor="start" x="232" y="-220" font-family="Helvetica,sans-Serif" font-size="10.00"> </text>
<text text-anchor="start" x="232" y="-205" font-family="Helvetica,sans-Serif" font-size="10.00"> </text>
<polygon fill="#bfbfbf" stroke="#bfbfbf" points="206.5,-230 206.5,-230 261.5,-230 261.5,-230 206.5,-230"/>
<polygon fill="#bfbfbf" stroke="#bfbfbf" points="206.5,-215 206.5,-215 261.5,-215 261.5,-215 206.5,-215"/>
<polygon fill="none" stroke="#bfbfbf" points="206,-198.5 206,-247.5 261,-247.5 261,-198.5 206,-198.5"/>
</a>
</g>
</g>
<!-- Node7&#45;&gt;Node1 -->
<g id="edge6_Node000001_Node000007" class="edge">
<title>Node7&#45;&gt;Node1</title>
<g id="a_edge6_Node000001_Node000007"><a xlink:title=" ">
<path fill="none" stroke="#63b8ff" d="M225.64,-198.35C220.97,-184.29 214.75,-165.56 208.48,-146.71"/>
<polygon fill="none" stroke="#63b8ff" points="208.48,-146.71 202.8,-142.27 204.7,-135.32 210.39,-139.75 208.48,-146.71"/>
</a>
</g>
<text text-anchor="middle" x="291" y="-167" font-family="Helvetica,sans-Serif" font-size="10.00" fill="grey"> &#45;mNumElements</text>
<text text-anchor="middle" x="291" y="-156" font-family="Helvetica,sans-Serif" font-size="10.00" fill="grey">&#45;mNumQuadPointsPerElement</text>
</g>
</g>
</svg>
