<?xml version="1.0" encoding="UTF-8" standalone="no"?>
<!DOCTYPE svg PUBLIC "-//W3C//DTD SVG 1.1//EN"
 "http://www.w3.org/Graphics/SVG/1.1/DTD/svg11.dtd">
<!-- Generated by graphviz version 2.43.0 (0)
 -->
<!-- Title: SerializableSingleton&lt; SINGLETON_CLASS &gt; Pages: 1 -->
<svg width="817pt" height="778pt"
 viewBox="0.00 0.00 817.00 778.00" xmlns="http://www.w3.org/2000/svg" xmlns:xlink="http://www.w3.org/1999/xlink">
<g id="graph0" class="graph" transform="scale(1 1) rotate(0) translate(4 774)">
<title>SerializableSingleton&lt; SINGLETON_CLASS &gt;</title>
<!-- Node1 -->
<g id="Node000001" class="node">
<title>Node1</title>
<g id="a_Node000001"><a xlink:title=" ">
<polygon fill="#999999" stroke="transparent" points="477,-684 329,-684 329,-594 477,-594 477,-684"/>
<text text-anchor="start" x="345" y="-672" font-family="Helvetica,sans-Serif" font-size="10.00">SerializableSingleton</text>
<text text-anchor="start" x="345" y="-661" font-family="Helvetica,sans-Serif" font-size="10.00">&lt; SINGLETON_CLASS &gt;</text>
<text text-anchor="start" x="401" y="-646" font-family="Helvetica,sans-Serif" font-size="10.00"> </text>
<text text-anchor="start" x="333" y="-631" font-family="Helvetica,sans-Serif" font-size="10.00">+</text>
<text text-anchor="start" x="346" y="-631" font-family="Helvetica,sans-Serif" font-size="10.00">GetSerializationWrapper()</text>
<text text-anchor="start" x="335.5" y="-616" font-family="Helvetica,sans-Serif" font-size="10.00">&#45;</text>
<text text-anchor="start" x="346" y="-616" font-family="Helvetica,sans-Serif" font-size="10.00">save()</text>
<text text-anchor="start" x="335.5" y="-601" font-family="Helvetica,sans-Serif" font-size="10.00">&#45;</text>
<text text-anchor="start" x="346" y="-601" font-family="Helvetica,sans-Serif" font-size="10.00">load()</text>
<polygon fill="#666666" stroke="#666666" points="329,-656 329,-656 477,-656 477,-656 329,-656"/>
<polygon fill="#666666" stroke="#666666" points="329,-641 329,-641 477,-641 477,-641 329,-641"/>
<polygon fill="none" stroke="#666666" points="329,-594 329,-684 477,-684 477,-594 329,-594"/>
</a>
</g>
</g>
<!-- Node3 -->
<g id="Node000003" class="node">
<title>Node3</title>
<g id="a_Node000003"><a xlink:href="classSerializableSingleton.html" target="_top" xlink:title=" ">
<polygon fill="white" stroke="transparent" points="194,-536 36,-536 36,-446 194,-446 194,-536"/>
<text text-anchor="start" x="41" y="-524" font-family="Helvetica,sans-Serif" font-size="10.00">SerializableSingleton</text>
<text text-anchor="start" x="41" y="-513" font-family="Helvetica,sans-Serif" font-size="10.00">&lt; CellCycleTimesGenerator &gt;</text>
<text text-anchor="start" x="113" y="-498" font-family="Helvetica,sans-Serif" font-size="10.00"> </text>
<text text-anchor="start" x="42.5" y="-483" font-family="Helvetica,sans-Serif" font-size="10.00">+</text>
<text text-anchor="start" x="58" y="-483" font-family="Helvetica,sans-Serif" font-size="10.00">GetSerializationWrapper()</text>
<text text-anchor="start" x="45" y="-468" font-family="Helvetica,sans-Serif" font-size="10.00">&#45;</text>
<text text-anchor="start" x="58" y="-468" font-family="Helvetica,sans-Serif" font-size="10.00">save()</text>
<text text-anchor="start" x="45" y="-453" font-family="Helvetica,sans-Serif" font-size="10.00">&#45;</text>
<text text-anchor="start" x="58" y="-453" font-family="Helvetica,sans-Serif" font-size="10.00">load()</text>
<polygon fill="#666666" stroke="#666666" points="36,-508 36,-508 194,-508 194,-508 36,-508"/>
<polygon fill="#666666" stroke="#666666" points="36,-493 36,-493 194,-493 194,-493 36,-493"/>
<polygon fill="none" stroke="#666666" points="36,-446 36,-536 194,-536 194,-446 36,-446"/>
</a>
</g>
</g>
<!-- Node1&#45;&gt;Node3 -->
<g id="edge2_Node000001_Node000003" class="edge">
<title>Node1&#45;&gt;Node3</title>
<g id="a_edge2_Node000001_Node000003"><a xlink:title=" ">
<path fill="none" stroke="orange" d="M318.6,-634.78C266.42,-628.79 200.89,-613.54 155,-576 142.5,-565.77 133.66,-550.72 127.53,-536.17"/>
<polygon fill="orange" stroke="orange" points="318.53,-638.29 328.85,-635.86 319.27,-631.33 318.53,-638.29"/>
</a>
</g>
<text text-anchor="middle" x="230.5" y="-562.5" font-family="Helvetica,sans-Serif" font-size="10.00" fill="grey"> &lt; CellCycleTimesGenerator &gt;</text>
</g>
<!-- Node5 -->
<g id="Node000005" class="node">
<title>Node5</title>
<g id="a_Node000005"><a xlink:href="classSerializableSingleton.html" target="_top" xlink:title=" ">
<polygon fill="white" stroke="transparent" points="391.5,-536 230.5,-536 230.5,-446 391.5,-446 391.5,-536"/>
<text text-anchor="start" x="236" y="-524" font-family="Helvetica,sans-Serif" font-size="10.00">SerializableSingleton</text>
<text text-anchor="start" x="236" y="-513" font-family="Helvetica,sans-Serif" font-size="10.00">&lt; RandomNumberGenerator &gt;</text>
<text text-anchor="start" x="309.5" y="-498" font-family="Helvetica,sans-Serif" font-size="10.00"> </text>
<text text-anchor="start" x="238" y="-483" font-family="Helvetica,sans-Serif" font-size="10.00">+</text>
<text text-anchor="start" x="254" y="-483" font-family="Helvetica,sans-Serif" font-size="10.00">GetSerializationWrapper()</text>
<text text-anchor="start" x="240.5" y="-468" font-family="Helvetica,sans-Serif" font-size="10.00">&#45;</text>
<text text-anchor="start" x="254" y="-468" font-family="Helvetica,sans-Serif" font-size="10.00">save()</text>
<text text-anchor="start" x="240.5" y="-453" font-family="Helvetica,sans-Serif" font-size="10.00">&#45;</text>
<text text-anchor="start" x="254" y="-453" font-family="Helvetica,sans-Serif" font-size="10.00">load()</text>
<polygon fill="#666666" stroke="#666666" points="231,-508 231,-508 392,-508 392,-508 231,-508"/>
<polygon fill="#666666" stroke="#666666" points="231,-493 231,-493 392,-493 392,-493 231,-493"/>
<polygon fill="none" stroke="#666666" points="230.5,-446 230.5,-536 391.5,-536 391.5,-446 230.5,-446"/>
</a>
</g>
</g>
<!-- Node1&#45;&gt;Node5 -->
<g id="edge4_Node000001_Node000005" class="edge">
<title>Node1&#45;&gt;Node5</title>
<g id="a_edge4_Node000001_Node000005"><a xlink:title=" ">
<path fill="none" stroke="orange" d="M323.7,-586.1C321.22,-582.88 318.96,-579.52 317,-576 310.38,-564.12 307.77,-549.79 307.15,-536.35"/>
<polygon fill="orange" stroke="orange" points="321.13,-588.49 330.3,-593.8 326.45,-583.93 321.13,-588.49"/>
</a>
</g>
<text text-anchor="middle" x="394" y="-562.5" font-family="Helvetica,sans-Serif" font-size="10.00" fill="grey"> &lt; RandomNumberGenerator &gt;</text>
</g>
<!-- Node7 -->
<g id="Node000007" class="node">
<title>Node7</title>
<g id="a_Node000007"><a xlink:href="classSerializableSingleton.html" target="_top" xlink:title=" ">
<polygon fill="white" stroke="transparent" points="569,-536 421,-536 421,-446 569,-446 569,-536"/>
<text text-anchor="start" x="443.5" y="-524" font-family="Helvetica,sans-Serif" font-size="10.00">SerializableSingleton</text>
<text text-anchor="start" x="445" y="-513" font-family="Helvetica,sans-Serif" font-size="10.00">&lt; SimulationTime &gt;</text>
<text text-anchor="start" x="493" y="-498" font-family="Helvetica,sans-Serif" font-size="10.00"> </text>
<text text-anchor="start" x="425" y="-483" font-family="Helvetica,sans-Serif" font-size="10.00">+</text>
<text text-anchor="start" x="438" y="-483" font-family="Helvetica,sans-Serif" font-size="10.00">GetSerializationWrapper()</text>
<text text-anchor="start" x="427.5" y="-468" font-family="Helvetica,sans-Serif" font-size="10.00">&#45;</text>
<text text-anchor="start" x="438" y="-468" font-family="Helvetica,sans-Serif" font-size="10.00">save()</text>
<text text-anchor="start" x="427.5" y="-453" font-family="Helvetica,sans-Serif" font-size="10.00">&#45;</text>
<text text-anchor="start" x="438" y="-453" font-family="Helvetica,sans-Serif" font-size="10.00">load()</text>
<polygon fill="#666666" stroke="#666666" points="421,-508 421,-508 569,-508 569,-508 421,-508"/>
<polygon fill="#666666" stroke="#666666" points="421,-493 421,-493 569,-493 569,-493 421,-493"/>
<polygon fill="none" stroke="#666666" points="421,-446 421,-536 569,-536 569,-446 421,-446"/>
</a>
</g>
</g>
<!-- Node1&#45;&gt;Node7 -->
<g id="edge6_Node000001_Node000007" class="edge">
<title>Node1&#45;&gt;Node7</title>
<g id="a_edge6_Node000001_Node000007"><a xlink:title=" ">
<path fill="none" stroke="orange" d="M463.99,-586.01C466.52,-582.76 468.88,-579.42 471,-576 478.43,-564.01 483.63,-549.65 487.24,-536.22"/>
<polygon fill="orange" stroke="orange" points="461.13,-583.98 457.39,-593.9 466.49,-588.48 461.13,-583.98"/>
</a>
</g>
<text text-anchor="middle" x="532.5" y="-562.5" font-family="Helvetica,sans-Serif" font-size="10.00" fill="grey"> &lt; SimulationTime &gt;</text>
</g>
<!-- Node9 -->
<g id="Node000009" class="node">
<title>Node9</title>
<g id="a_Node000009"><a xlink:href="classSerializableSingleton.html" target="_top" xlink:title=" ">
<polygon fill="white" stroke="transparent" points="773.5,-536 610.5,-536 610.5,-446 773.5,-446 773.5,-536"/>
<text text-anchor="start" x="616" y="-524" font-family="Helvetica,sans-Serif" font-size="10.00">SerializableSingleton</text>
<text text-anchor="start" x="616" y="-513" font-family="Helvetica,sans-Serif" font-size="10.00">&lt; WntConcentration&lt; DIM &gt; &gt;</text>
<text text-anchor="start" x="690.5" y="-498" font-family="Helvetica,sans-Serif" font-size="10.00"> </text>
<text text-anchor="start" x="618.5" y="-483" font-family="Helvetica,sans-Serif" font-size="10.00">+</text>
<text text-anchor="start" x="635" y="-483" font-family="Helvetica,sans-Serif" font-size="10.00">GetSerializationWrapper()</text>
<text text-anchor="start" x="621" y="-468" font-family="Helvetica,sans-Serif" font-size="10.00">&#45;</text>
<text text-anchor="start" x="635" y="-468" font-family="Helvetica,sans-Serif" font-size="10.00">save()</text>
<text text-anchor="start" x="621" y="-453" font-family="Helvetica,sans-Serif" font-size="10.00">&#45;</text>
<text text-anchor="start" x="635" y="-453" font-family="Helvetica,sans-Serif" font-size="10.00">load()</text>
<polygon fill="#666666" stroke="#666666" points="611,-508 611,-508 774,-508 774,-508 611,-508"/>
<polygon fill="#666666" stroke="#666666" points="611,-493 611,-493 774,-493 774,-493 611,-493"/>
<polygon fill="none" stroke="#666666" points="610.5,-446 610.5,-536 773.5,-536 773.5,-446 610.5,-446"/>
</a>
</g>
</g>
<!-- Node1&#45;&gt;Node9 -->
<g id="edge8_Node000001_Node000009" class="edge">
<title>Node1&#45;&gt;Node9</title>
<g id="a_edge8_Node000001_Node000009"><a xlink:title=" ">
<path fill="none" stroke="orange" d="M487.07,-616.74C519.68,-606.75 556.64,-593.19 588,-576 607.95,-565.07 627.86,-550.2 644.85,-536"/>
<polygon fill="orange" stroke="orange" points="485.68,-613.51 477.1,-619.73 487.69,-620.21 485.68,-613.51"/>
</a>
</g>
<text text-anchor="start" x="621" y="-568" font-family="Helvetica,sans-Serif" font-size="10.00" fill="grey"> &lt; WntConcentration</text>
<text text-anchor="middle" x="672.5" y="-557" font-family="Helvetica,sans-Serif" font-size="10.00" fill="grey">&lt; DIM &gt; &gt;</text>
</g>
<!-- Node2 -->
<g id="Node000002" class="node">
<title>Node2</title>
<g id="a_Node000002"><a xlink:title=" ">
<polygon fill="white" stroke="transparent" points="456,-770 350,-770 350,-721 456,-721 456,-770"/>
<text text-anchor="start" x="355" y="-757.5" font-family="Helvetica,sans-Serif" font-size="10.00">boost::noncopyable</text>
<text text-anchor="start" x="401" y="-742.5" font-family="Helvetica,sans-Serif" font-size="10.00"> </text>
<text text-anchor="start" x="401" y="-727.5" font-family="Helvetica,sans-Serif" font-size="10.00"> </text>
<polygon fill="#bfbfbf" stroke="#bfbfbf" points="350,-752.5 350,-752.5 456,-752.5 456,-752.5 350,-752.5"/>
<polygon fill="#bfbfbf" stroke="#bfbfbf" points="350,-737.5 350,-737.5 456,-737.5 456,-737.5 350,-737.5"/>
<polygon fill="none" stroke="#bfbfbf" points="350,-721 350,-770 456,-770 456,-721 350,-721"/>
</a>
</g>
</g>
<!-- Node2&#45;&gt;Node1 -->
<g id="edge1_Node000001_Node000002" class="edge">
<title>Node2&#45;&gt;Node1</title>
<g id="a_edge1_Node000001_Node000002"><a xlink:title=" ">
<path fill="none" stroke="#8b1a1a" d="M403,-710.59C403,-702.16 403,-693.01 403,-684.18"/>
<polygon fill="none" stroke="#8b1a1a" points="399.5,-710.79 403,-720.79 406.5,-710.79 399.5,-710.79"/>
</a>
</g>
</g>
<!-- Node4 -->
<g id="Node000004" class="node">
<title>Node4</title>
<g id="a_Node000004"><a xlink:href="classCellCycleTimesGenerator.html" target="_top" xlink:title=" ">
<polygon fill="white" stroke="transparent" points="192,-334 0,-334 0,-75 192,-75 192,-334"/>
<text text-anchor="start" x="33.5" y="-321.5" font-family="Helvetica,sans-Serif" font-size="10.00">CellCycleTimesGenerator</text>
<text text-anchor="start" x="6.5" y="-306.5" font-family="Helvetica,sans-Serif" font-size="10.00">&#45;</text>
<text text-anchor="start" x="17" y="-306.5" font-family="Helvetica,sans-Serif" font-size="10.00">mRandomSeed</text>
<text text-anchor="start" x="6.5" y="-291.5" font-family="Helvetica,sans-Serif" font-size="10.00">&#45;</text>
<text text-anchor="start" x="17" y="-291.5" font-family="Helvetica,sans-Serif" font-size="10.00">mCellCycleTimes</text>
<text text-anchor="start" x="6.5" y="-276.5" font-family="Helvetica,sans-Serif" font-size="10.00">&#45;</text>
<text text-anchor="start" x="17" y="-276.5" font-family="Helvetica,sans-Serif" font-size="10.00">mCurrentIndex</text>
<text text-anchor="start" x="6.5" y="-261.5" font-family="Helvetica,sans-Serif" font-size="10.00">&#45;</text>
<text text-anchor="start" x="17" y="-261.5" font-family="Helvetica,sans-Serif" font-size="10.00">mRate</text>
<text text-anchor="start" x="6.5" y="-246.5" font-family="Helvetica,sans-Serif" font-size="10.00">&#45;</text>
<text text-anchor="start" x="17" y="-246.5" font-family="Helvetica,sans-Serif" font-size="10.00">mVectorCreated</text>
<text text-anchor="start" x="6.5" y="-231.5" font-family="Helvetica,sans-Serif" font-size="10.00">&#45;</text>
<text text-anchor="start" x="17" y="-231.5" font-family="Helvetica,sans-Serif" font-size="10.00">mpInstance</text>
<text text-anchor="start" x="4" y="-216.5" font-family="Helvetica,sans-Serif" font-size="10.00">+</text>
<text text-anchor="start" x="17" y="-216.5" font-family="Helvetica,sans-Serif" font-size="10.00">SetRandomSeed()</text>
<text text-anchor="start" x="4" y="-201.5" font-family="Helvetica,sans-Serif" font-size="10.00">+</text>
<text text-anchor="start" x="17" y="-201.5" font-family="Helvetica,sans-Serif" font-size="10.00">GetRandomSeed()</text>
<text text-anchor="start" x="4" y="-186.5" font-family="Helvetica,sans-Serif" font-size="10.00">+</text>
<text text-anchor="start" x="17" y="-186.5" font-family="Helvetica,sans-Serif" font-size="10.00">SetRate()</text>
<text text-anchor="start" x="4" y="-171.5" font-family="Helvetica,sans-Serif" font-size="10.00">+</text>
<text text-anchor="start" x="17" y="-171.5" font-family="Helvetica,sans-Serif" font-size="10.00">GetRate()</text>
<text text-anchor="start" x="4" y="-156.5" font-family="Helvetica,sans-Serif" font-size="10.00">+</text>
<text text-anchor="start" x="17" y="-156.5" font-family="Helvetica,sans-Serif" font-size="10.00">GenerateCellCycleTimeSequence()</text>
<text text-anchor="start" x="4" y="-141.5" font-family="Helvetica,sans-Serif" font-size="10.00">+</text>
<text text-anchor="start" x="17" y="-141.5" font-family="Helvetica,sans-Serif" font-size="10.00">GetNextCellCycleTime()</text>
<text text-anchor="start" x="4" y="-126.5" font-family="Helvetica,sans-Serif" font-size="10.00">+</text>
<text text-anchor="start" x="17" y="-126.5" font-family="Helvetica,sans-Serif" font-size="10.00">Instance()</text>
<text text-anchor="start" x="4" y="-111.5" font-family="Helvetica,sans-Serif" font-size="10.00">+</text>
<text text-anchor="start" x="17" y="-111.5" font-family="Helvetica,sans-Serif" font-size="10.00">Destroy()</text>
<text text-anchor="start" x="4" y="-96.5" font-family="Helvetica,sans-Serif" font-size="10.00">#</text>
<text text-anchor="start" x="17" y="-96.5" font-family="Helvetica,sans-Serif" font-size="10.00">CellCycleTimesGenerator()</text>
<text text-anchor="start" x="6.5" y="-81.5" font-family="Helvetica,sans-Serif" font-size="10.00">&#45;</text>
<text text-anchor="start" x="17" y="-81.5" font-family="Helvetica,sans-Serif" font-size="10.00">serialize()</text>
<polygon fill="#666666" stroke="#666666" points="0,-316.5 0,-316.5 192,-316.5 192,-316.5 0,-316.5"/>
<polygon fill="#666666" stroke="#666666" points="0,-226.5 0,-226.5 15,-226.5 15,-226.5 0,-226.5"/>
<polygon fill="#666666" stroke="#666666" points="15,-226.5 15,-226.5 192,-226.5 192,-226.5 15,-226.5"/>
<polygon fill="none" stroke="#666666" points="0,-75 0,-334 192,-334 192,-75 0,-75"/>
</a>
</g>
</g>
<!-- Node3&#45;&gt;Node4 -->
<g id="edge3_Node000003_Node000004" class="edge">
<title>Node3&#45;&gt;Node4</title>
<g id="a_edge3_Node000003_Node000004"><a xlink:title=" ">
<path fill="none" stroke="#63b8ff" d="M111.37,-435.58C109.43,-406.66 106.97,-369.78 104.59,-334.07"/>
<polygon fill="none" stroke="#63b8ff" points="107.89,-436.11 112.05,-445.86 114.88,-435.65 107.89,-436.11"/>
</a>
</g>
</g>
<!-- Node6 -->
<g id="Node000006" class="node">
<title>Node6</title>
<g id="a_Node000006"><a xlink:href="classRandomNumberGenerator.html" target="_top" xlink:title=" ">
<polygon fill="white" stroke="transparent" points="397.5,-349 210.5,-349 210.5,-60 397.5,-60 397.5,-349"/>
<text text-anchor="start" x="240" y="-336.5" font-family="Helvetica,sans-Serif" font-size="10.00">RandomNumberGenerator</text>
<text text-anchor="start" x="217.5" y="-321.5" font-family="Helvetica,sans-Serif" font-size="10.00">&#45;</text>
<text text-anchor="start" x="228" y="-321.5" font-family="Helvetica,sans-Serif" font-size="10.00">mMersenneTwisterGenerator</text>
<text text-anchor="start" x="217.5" y="-306.5" font-family="Helvetica,sans-Serif" font-size="10.00">&#45;</text>
<text text-anchor="start" x="228" y="-306.5" font-family="Helvetica,sans-Serif" font-size="10.00">mGenerateUnitReal</text>
<text text-anchor="start" x="217.5" y="-291.5" font-family="Helvetica,sans-Serif" font-size="10.00">&#45;</text>
<text text-anchor="start" x="228" y="-291.5" font-family="Helvetica,sans-Serif" font-size="10.00">mGenerateStandardNormal</text>
<text text-anchor="start" x="217.5" y="-276.5" font-family="Helvetica,sans-Serif" font-size="10.00">&#45;</text>
<text text-anchor="start" x="228" y="-276.5" font-family="Helvetica,sans-Serif" font-size="10.00">mpInstance</text>
<text text-anchor="start" x="215" y="-261.5" font-family="Helvetica,sans-Serif" font-size="10.00">+</text>
<text text-anchor="start" x="228" y="-261.5" font-family="Helvetica,sans-Serif" font-size="10.00">StandardNormalRandomDeviate()</text>
<text text-anchor="start" x="215" y="-246.5" font-family="Helvetica,sans-Serif" font-size="10.00">+</text>
<text text-anchor="start" x="228" y="-246.5" font-family="Helvetica,sans-Serif" font-size="10.00">NormalRandomDeviate()</text>
<text text-anchor="start" x="215" y="-231.5" font-family="Helvetica,sans-Serif" font-size="10.00">+</text>
<text text-anchor="start" x="228" y="-231.5" font-family="Helvetica,sans-Serif" font-size="10.00">ranf()</text>
<text text-anchor="start" x="215" y="-216.5" font-family="Helvetica,sans-Serif" font-size="10.00">+</text>
<text text-anchor="start" x="228" y="-216.5" font-family="Helvetica,sans-Serif" font-size="10.00">GammaRandomDeviate()</text>
<text text-anchor="start" x="215" y="-201.5" font-family="Helvetica,sans-Serif" font-size="10.00">+</text>
<text text-anchor="start" x="228" y="-201.5" font-family="Helvetica,sans-Serif" font-size="10.00">ExponentialRandomDeviate()</text>
<text text-anchor="start" x="215" y="-186.5" font-family="Helvetica,sans-Serif" font-size="10.00">+</text>
<text text-anchor="start" x="228" y="-186.5" font-family="Helvetica,sans-Serif" font-size="10.00">randMod()</text>
<text text-anchor="start" x="215" y="-171.5" font-family="Helvetica,sans-Serif" font-size="10.00">+</text>
<text text-anchor="start" x="228" y="-171.5" font-family="Helvetica,sans-Serif" font-size="10.00">Shuffle()</text>
<text text-anchor="start" x="215" y="-156.5" font-family="Helvetica,sans-Serif" font-size="10.00">+</text>
<text text-anchor="start" x="228" y="-156.5" font-family="Helvetica,sans-Serif" font-size="10.00">Shuffle()</text>
<text text-anchor="start" x="215" y="-141.5" font-family="Helvetica,sans-Serif" font-size="10.00">+</text>
<text text-anchor="start" x="228" y="-141.5" font-family="Helvetica,sans-Serif" font-size="10.00">Reseed()</text>
<text text-anchor="start" x="215" y="-126.5" font-family="Helvetica,sans-Serif" font-size="10.00">+</text>
<text text-anchor="start" x="228" y="-126.5" font-family="Helvetica,sans-Serif" font-size="10.00">Instance()</text>
<text text-anchor="start" x="215" y="-111.5" font-family="Helvetica,sans-Serif" font-size="10.00">+</text>
<text text-anchor="start" x="228" y="-111.5" font-family="Helvetica,sans-Serif" font-size="10.00">Destroy()</text>
<text text-anchor="start" x="215" y="-96.5" font-family="Helvetica,sans-Serif" font-size="10.00">#</text>
<text text-anchor="start" x="228" y="-96.5" font-family="Helvetica,sans-Serif" font-size="10.00">RandomNumberGenerator()</text>
<text text-anchor="start" x="217.5" y="-81.5" font-family="Helvetica,sans-Serif" font-size="10.00">&#45;</text>
<text text-anchor="start" x="228" y="-81.5" font-family="Helvetica,sans-Serif" font-size="10.00">save()</text>
<text text-anchor="start" x="217.5" y="-66.5" font-family="Helvetica,sans-Serif" font-size="10.00">&#45;</text>
<text text-anchor="start" x="228" y="-66.5" font-family="Helvetica,sans-Serif" font-size="10.00">load()</text>
<polygon fill="#666666" stroke="#666666" points="211,-331.5 211,-331.5 398,-331.5 398,-331.5 211,-331.5"/>
<polygon fill="#666666" stroke="#666666" points="211,-271.5 211,-271.5 226,-271.5 226,-271.5 211,-271.5"/>
<polygon fill="#666666" stroke="#666666" points="226,-271.5 226,-271.5 398,-271.5 398,-271.5 226,-271.5"/>
<polygon fill="none" stroke="#666666" points="210.5,-60 210.5,-349 397.5,-349 397.5,-60 210.5,-60"/>
</a>
</g>
</g>
<!-- Node5&#45;&gt;Node6 -->
<g id="edge5_Node000005_Node000006" class="edge">
<title>Node5&#45;&gt;Node6</title>
<g id="a_edge5_Node000005_Node000006"><a xlink:title=" ">
<path fill="none" stroke="#63b8ff" d="M309.66,-435.57C309.05,-410.69 308.29,-379.92 307.53,-349.07"/>
<polygon fill="none" stroke="#63b8ff" points="306.17,-435.95 309.91,-445.86 313.17,-435.78 306.17,-435.95"/>
</a>
</g>
</g>
<!-- Node8 -->
<g id="Node000008" class="node">
<title>Node8</title>
<g id="a_Node000008"><a xlink:href="classSimulationTime.html" target="_top" xlink:title=" ">
<polygon fill="white" stroke="transparent" points="601,-358 415,-358 415,-51 601,-51 601,-358"/>
<text text-anchor="start" x="469" y="-345.5" font-family="Helvetica,sans-Serif" font-size="10.00">SimulationTime</text>
<text text-anchor="start" x="421.5" y="-330.5" font-family="Helvetica,sans-Serif" font-size="10.00">&#45;</text>
<text text-anchor="start" x="432" y="-330.5" font-family="Helvetica,sans-Serif" font-size="10.00">mStartTime</text>
<text text-anchor="start" x="421.5" y="-315.5" font-family="Helvetica,sans-Serif" font-size="10.00">&#45;</text>
<text text-anchor="start" x="432" y="-315.5" font-family="Helvetica,sans-Serif" font-size="10.00">mpInstance</text>
<text text-anchor="start" x="421.5" y="-300.5" font-family="Helvetica,sans-Serif" font-size="10.00">&#45;</text>
<text text-anchor="start" x="432" y="-300.5" font-family="Helvetica,sans-Serif" font-size="10.00">mpTimeStepper</text>
<text text-anchor="start" x="419" y="-285.5" font-family="Helvetica,sans-Serif" font-size="10.00">+</text>
<text text-anchor="start" x="432" y="-285.5" font-family="Helvetica,sans-Serif" font-size="10.00">SetEndTimeAndNumberOfTime</text>
<text text-anchor="start" x="432" y="-274.5" font-family="Helvetica,sans-Serif" font-size="10.00">Steps()</text>
<text text-anchor="start" x="419" y="-259.5" font-family="Helvetica,sans-Serif" font-size="10.00">+</text>
<text text-anchor="start" x="432" y="-259.5" font-family="Helvetica,sans-Serif" font-size="10.00">ResetEndTimeAndNumberOfTime</text>
<text text-anchor="start" x="432" y="-248.5" font-family="Helvetica,sans-Serif" font-size="10.00">Steps()</text>
<text text-anchor="start" x="419" y="-233.5" font-family="Helvetica,sans-Serif" font-size="10.00">+</text>
<text text-anchor="start" x="432" y="-233.5" font-family="Helvetica,sans-Serif" font-size="10.00">GetTimeStep()</text>
<text text-anchor="start" x="419" y="-218.5" font-family="Helvetica,sans-Serif" font-size="10.00">+</text>
<text text-anchor="start" x="432" y="-218.5" font-family="Helvetica,sans-Serif" font-size="10.00">IncrementTimeOneStep()</text>
<text text-anchor="start" x="419" y="-203.5" font-family="Helvetica,sans-Serif" font-size="10.00">+</text>
<text text-anchor="start" x="432" y="-203.5" font-family="Helvetica,sans-Serif" font-size="10.00">GetTimeStepsElapsed()</text>
<text text-anchor="start" x="419" y="-188.5" font-family="Helvetica,sans-Serif" font-size="10.00">+</text>
<text text-anchor="start" x="432" y="-188.5" font-family="Helvetica,sans-Serif" font-size="10.00">GetTime()</text>
<text text-anchor="start" x="419" y="-173.5" font-family="Helvetica,sans-Serif" font-size="10.00">+</text>
<text text-anchor="start" x="432" y="-173.5" font-family="Helvetica,sans-Serif" font-size="10.00">IsStartTimeSetUp()</text>
<text text-anchor="start" x="419" y="-158.5" font-family="Helvetica,sans-Serif" font-size="10.00">+</text>
<text text-anchor="start" x="432" y="-158.5" font-family="Helvetica,sans-Serif" font-size="10.00">IsEndTimeAndNumberOfTime</text>
<text text-anchor="start" x="432" y="-147.5" font-family="Helvetica,sans-Serif" font-size="10.00">StepsSetUp()</text>
<text text-anchor="start" x="419" y="-132.5" font-family="Helvetica,sans-Serif" font-size="10.00">+</text>
<text text-anchor="start" x="432" y="-132.5" font-family="Helvetica,sans-Serif" font-size="10.00">IsFinished()</text>
<text text-anchor="start" x="419" y="-117.5" font-family="Helvetica,sans-Serif" font-size="10.00">+</text>
<text text-anchor="start" x="432" y="-117.5" font-family="Helvetica,sans-Serif" font-size="10.00">SetStartTime()</text>
<text text-anchor="start" x="419" y="-102.5" font-family="Helvetica,sans-Serif" font-size="10.00">+</text>
<text text-anchor="start" x="432" y="-102.5" font-family="Helvetica,sans-Serif" font-size="10.00">Instance()</text>
<text text-anchor="start" x="419" y="-87.5" font-family="Helvetica,sans-Serif" font-size="10.00">+</text>
<text text-anchor="start" x="432" y="-87.5" font-family="Helvetica,sans-Serif" font-size="10.00">Destroy()</text>
<text text-anchor="start" x="419" y="-72.5" font-family="Helvetica,sans-Serif" font-size="10.00">#</text>
<text text-anchor="start" x="432" y="-72.5" font-family="Helvetica,sans-Serif" font-size="10.00">SimulationTime()</text>
<text text-anchor="start" x="421.5" y="-57.5" font-family="Helvetica,sans-Serif" font-size="10.00">&#45;</text>
<text text-anchor="start" x="432" y="-57.5" font-family="Helvetica,sans-Serif" font-size="10.00">serialize()</text>
<polygon fill="#666666" stroke="#666666" points="415,-340.5 415,-340.5 601,-340.5 601,-340.5 415,-340.5"/>
<polygon fill="#666666" stroke="#666666" points="415,-295.5 415,-295.5 430,-295.5 430,-295.5 415,-295.5"/>
<polygon fill="#666666" stroke="#666666" points="430,-295.5 430,-295.5 601,-295.5 601,-295.5 430,-295.5"/>
<polygon fill="none" stroke="#666666" points="415,-51 415,-358 601,-358 601,-51 415,-51"/>
</a>
</g>
</g>
<!-- Node7&#45;&gt;Node8 -->
<g id="edge7_Node000007_Node000008" class="edge">
<title>Node7&#45;&gt;Node8</title>
<g id="a_edge7_Node000007_Node000008"><a xlink:title=" ">
<path fill="none" stroke="#63b8ff" d="M497.49,-435.57C498.51,-413.13 499.76,-385.9 501.03,-358.14"/>
<polygon fill="none" stroke="#63b8ff" points="493.98,-435.71 497.02,-445.86 500.97,-436.03 493.98,-435.71"/>
</a>
</g>
</g>
<!-- Node10 -->
<g id="Node000010" class="node">
<title>Node10</title>
<g id="a_Node000010"><a xlink:href="classWntConcentration.html" target="_top" xlink:title=" ">
<polygon fill="white" stroke="transparent" points="809,-409 619,-409 619,0 809,0 809,-409"/>
<text text-anchor="start" x="649" y="-396.5" font-family="Helvetica,sans-Serif" font-size="10.00">WntConcentration&lt; DIM &gt;</text>
<text text-anchor="start" x="625.5" y="-381.5" font-family="Helvetica,sans-Serif" font-size="10.00">&#45;</text>
<text text-anchor="start" x="636" y="-381.5" font-family="Helvetica,sans-Serif" font-size="10.00">mCryptLength</text>
<text text-anchor="start" x="625.5" y="-366.5" font-family="Helvetica,sans-Serif" font-size="10.00">&#45;</text>
<text text-anchor="start" x="636" y="-366.5" font-family="Helvetica,sans-Serif" font-size="10.00">mLengthSet</text>
<text text-anchor="start" x="625.5" y="-351.5" font-family="Helvetica,sans-Serif" font-size="10.00">&#45;</text>
<text text-anchor="start" x="636" y="-351.5" font-family="Helvetica,sans-Serif" font-size="10.00">mWntType</text>
<text text-anchor="start" x="625.5" y="-336.5" font-family="Helvetica,sans-Serif" font-size="10.00">&#45;</text>
<text text-anchor="start" x="636" y="-336.5" font-family="Helvetica,sans-Serif" font-size="10.00">mpCellPopulation</text>
<text text-anchor="start" x="625.5" y="-321.5" font-family="Helvetica,sans-Serif" font-size="10.00">&#45;</text>
<text text-anchor="start" x="636" y="-321.5" font-family="Helvetica,sans-Serif" font-size="10.00">mTypeSet</text>
<text text-anchor="start" x="625.5" y="-306.5" font-family="Helvetica,sans-Serif" font-size="10.00">&#45;</text>
<text text-anchor="start" x="636" y="-306.5" font-family="Helvetica,sans-Serif" font-size="10.00">mConstantWntValueForTesting</text>
<text text-anchor="start" x="625.5" y="-291.5" font-family="Helvetica,sans-Serif" font-size="10.00">&#45;</text>
<text text-anchor="start" x="636" y="-291.5" font-family="Helvetica,sans-Serif" font-size="10.00">mUseConstantWntValueForTesting</text>
<text text-anchor="start" x="625.5" y="-276.5" font-family="Helvetica,sans-Serif" font-size="10.00">&#45;</text>
<text text-anchor="start" x="636" y="-276.5" font-family="Helvetica,sans-Serif" font-size="10.00">mWntConcentrationParameter</text>
<text text-anchor="start" x="625.5" y="-261.5" font-family="Helvetica,sans-Serif" font-size="10.00">&#45;</text>
<text text-anchor="start" x="636" y="-261.5" font-family="Helvetica,sans-Serif" font-size="10.00">mCryptProjectionParameterA</text>
<text text-anchor="start" x="625.5" y="-246.5" font-family="Helvetica,sans-Serif" font-size="10.00">&#45;</text>
<text text-anchor="start" x="636" y="-246.5" font-family="Helvetica,sans-Serif" font-size="10.00">mCryptProjectionParameterB</text>
<text text-anchor="start" x="625.5" y="-231.5" font-family="Helvetica,sans-Serif" font-size="10.00">&#45;</text>
<text text-anchor="start" x="636" y="-231.5" font-family="Helvetica,sans-Serif" font-size="10.00">mpInstance</text>
<text text-anchor="start" x="623" y="-216.5" font-family="Helvetica,sans-Serif" font-size="10.00">+</text>
<text text-anchor="start" x="636" y="-216.5" font-family="Helvetica,sans-Serif" font-size="10.00">~WntConcentration()</text>
<text text-anchor="start" x="623" y="-201.5" font-family="Helvetica,sans-Serif" font-size="10.00">+</text>
<text text-anchor="start" x="636" y="-201.5" font-family="Helvetica,sans-Serif" font-size="10.00">GetWntLevel()</text>
<text text-anchor="start" x="623" y="-186.5" font-family="Helvetica,sans-Serif" font-size="10.00">+</text>
<text text-anchor="start" x="636" y="-186.5" font-family="Helvetica,sans-Serif" font-size="10.00">GetWntLevel()</text>
<text text-anchor="start" x="623" y="-171.5" font-family="Helvetica,sans-Serif" font-size="10.00">+</text>
<text text-anchor="start" x="636" y="-171.5" font-family="Helvetica,sans-Serif" font-size="10.00">GetWntGradient()</text>
<text text-anchor="start" x="623" y="-156.5" font-family="Helvetica,sans-Serif" font-size="10.00">+</text>
<text text-anchor="start" x="636" y="-156.5" font-family="Helvetica,sans-Serif" font-size="10.00">GetWntGradient()</text>
<text text-anchor="start" x="623" y="-141.5" font-family="Helvetica,sans-Serif" font-size="10.00">+</text>
<text text-anchor="start" x="636" y="-141.5" font-family="Helvetica,sans-Serif" font-size="10.00">SetCellPopulation()</text>
<text text-anchor="start" x="623" y="-126.5" font-family="Helvetica,sans-Serif" font-size="10.00">+</text>
<text text-anchor="start" x="636" y="-126.5" font-family="Helvetica,sans-Serif" font-size="10.00">rGetCellPopulation()</text>
<text text-anchor="start" x="623" y="-111.5" font-family="Helvetica,sans-Serif" font-size="10.00">+</text>
<text text-anchor="start" x="636" y="-111.5" font-family="Helvetica,sans-Serif" font-size="10.00">GetCryptLength()</text>
<text text-anchor="start" x="623" y="-96.5" font-family="Helvetica,sans-Serif" font-size="10.00">+</text>
<text text-anchor="start" x="636" y="-96.5" font-family="Helvetica,sans-Serif" font-size="10.00">SetCryptLength()</text>
<text text-anchor="start" x="623" y="-81.5" font-family="Helvetica,sans-Serif" font-size="10.00">+</text>
<text text-anchor="start" x="636" y="-81.5" font-family="Helvetica,sans-Serif" font-size="10.00">GetType()</text>
<text text-anchor="start" x="636" y="-66.5" font-family="Helvetica,sans-Serif" font-size="10.00">and 9 more...</text>
<text text-anchor="start" x="623" y="-51.5" font-family="Helvetica,sans-Serif" font-size="10.00">+</text>
<text text-anchor="start" x="636" y="-51.5" font-family="Helvetica,sans-Serif" font-size="10.00">Instance()</text>
<text text-anchor="start" x="623" y="-36.5" font-family="Helvetica,sans-Serif" font-size="10.00">+</text>
<text text-anchor="start" x="636" y="-36.5" font-family="Helvetica,sans-Serif" font-size="10.00">Destroy()</text>
<text text-anchor="start" x="623" y="-21.5" font-family="Helvetica,sans-Serif" font-size="10.00">#</text>
<text text-anchor="start" x="636" y="-21.5" font-family="Helvetica,sans-Serif" font-size="10.00">WntConcentration()</text>
<text text-anchor="start" x="625.5" y="-6.5" font-family="Helvetica,sans-Serif" font-size="10.00">&#45;</text>
<text text-anchor="start" x="636" y="-6.5" font-family="Helvetica,sans-Serif" font-size="10.00">serialize()</text>
<polygon fill="#666666" stroke="#666666" points="619,-391.5 619,-391.5 809,-391.5 809,-391.5 619,-391.5"/>
<polygon fill="#666666" stroke="#666666" points="619,-226.5 619,-226.5 634,-226.5 634,-226.5 619,-226.5"/>
<polygon fill="#666666" stroke="#666666" points="634,-226.5 634,-226.5 809,-226.5 809,-226.5 634,-226.5"/>
<polygon fill="none" stroke="#666666" points="619,0 619,-409 809,-409 809,0 619,0"/>
</a>
</g>
</g>
<!-- Node9&#45;&gt;Node10 -->
<g id="edge9_Node000009_Node000010" class="edge">
<title>Node9&#45;&gt;Node10</title>
<g id="a_edge9_Node000009_Node000010"><a xlink:title=" ">
<path fill="none" stroke="#63b8ff" d="M696.2,-435.75C696.84,-427.47 697.53,-418.55 698.25,-409.18"/>
<polygon fill="none" stroke="#63b8ff" points="692.69,-435.62 695.41,-445.86 699.67,-436.16 692.69,-435.62"/>
</a>
</g>
</g>
</g>
</svg>
