<?xml version="1.0" encoding="UTF-8" standalone="no"?>
<!DOCTYPE svg PUBLIC "-//W3C//DTD SVG 1.1//EN"
 "http://www.w3.org/Graphics/SVG/1.1/DTD/svg11.dtd">
<!-- Generated by graphviz version 2.43.0 (0)
 -->
<!-- Title: EllipticBoxDomainPdeModifier&lt; DIM &gt; Pages: 1 -->
<svg width="322pt" height="1580pt"
 viewBox="0.00 0.00 322.00 1580.00" xmlns="http://www.w3.org/2000/svg" xmlns:xlink="http://www.w3.org/1999/xlink">
<g id="graph0" class="graph" transform="scale(1 1) rotate(0) translate(4 1576)">
<title>EllipticBoxDomainPdeModifier&lt; DIM &gt;</title>
<!-- Node1 -->
<g id="Node000001" class="node">
<title>Node1</title>
<g id="a_Node000001"><a xlink:title=" ">
<polygon fill="#999999" stroke="transparent" points="189,-172 4,-172 4,0 189,0 189,-172"/>
<text text-anchor="start" x="23" y="-160" font-family="Helvetica,sans-Serif" font-size="10.00">EllipticBoxDomainPdeModifier</text>
<text text-anchor="start" x="75.5" y="-149" font-family="Helvetica,sans-Serif" font-size="10.00">&lt; DIM &gt;</text>
<text text-anchor="start" x="95" y="-134" font-family="Helvetica,sans-Serif" font-size="10.00"> </text>
<text text-anchor="start" x="8.5" y="-119" font-family="Helvetica,sans-Serif" font-size="10.00">+</text>
<text text-anchor="start" x="21.5" y="-119" font-family="Helvetica,sans-Serif" font-size="10.00">EllipticBoxDomainPdeModifier()</text>
<text text-anchor="start" x="8.5" y="-104" font-family="Helvetica,sans-Serif" font-size="10.00">+</text>
<text text-anchor="start" x="21.5" y="-104" font-family="Helvetica,sans-Serif" font-size="10.00">~EllipticBoxDomainPdeModifier()</text>
<text text-anchor="start" x="8.5" y="-89" font-family="Helvetica,sans-Serif" font-size="10.00">+</text>
<text text-anchor="start" x="21.5" y="-89" font-family="Helvetica,sans-Serif" font-size="10.00">UpdateAtEndOfTimeStep()</text>
<text text-anchor="start" x="8.5" y="-74" font-family="Helvetica,sans-Serif" font-size="10.00">+</text>
<text text-anchor="start" x="21.5" y="-74" font-family="Helvetica,sans-Serif" font-size="10.00">SetupSolve()</text>
<text text-anchor="start" x="8.5" y="-59" font-family="Helvetica,sans-Serif" font-size="10.00">+</text>
<text text-anchor="start" x="21.5" y="-59" font-family="Helvetica,sans-Serif" font-size="10.00">ConstructBoundaryConditions</text>
<text text-anchor="start" x="21.5" y="-48" font-family="Helvetica,sans-Serif" font-size="10.00">Container()</text>
<text text-anchor="start" x="8.5" y="-33" font-family="Helvetica,sans-Serif" font-size="10.00">+</text>
<text text-anchor="start" x="21.5" y="-33" font-family="Helvetica,sans-Serif" font-size="10.00">OutputSimulationModifier</text>
<text text-anchor="start" x="21.5" y="-22" font-family="Helvetica,sans-Serif" font-size="10.00">Parameters()</text>
<text text-anchor="start" x="11" y="-7" font-family="Helvetica,sans-Serif" font-size="10.00">&#45;</text>
<text text-anchor="start" x="21.5" y="-7" font-family="Helvetica,sans-Serif" font-size="10.00">serialize()</text>
<polygon fill="#666666" stroke="#666666" points="4.5,-144 4.5,-144 189.5,-144 189.5,-144 4.5,-144"/>
<polygon fill="#666666" stroke="#666666" points="4.5,-129 4.5,-129 189.5,-129 189.5,-129 4.5,-129"/>
<polygon fill="none" stroke="#666666" points="4,0 4,-172 189,-172 189,0 4,0"/>
</a>
</g>
</g>
<!-- Node2 -->
<g id="Node000002" class="node">
<title>Node2</title>
<g id="a_Node000002"><a xlink:href="classAbstractBoxDomainPdeModifier.html" target="_top" xlink:title=" ">
<polygon fill="white" stroke="transparent" points="193,-501 0,-501 0,-209 193,-209 193,-501"/>
<text text-anchor="start" x="19" y="-489" font-family="Helvetica,sans-Serif" font-size="10.00">AbstractBoxDomainPdeModifier</text>
<text text-anchor="start" x="75.5" y="-478" font-family="Helvetica,sans-Serif" font-size="10.00">&lt; DIM &gt;</text>
<text text-anchor="start" x="4.5" y="-463" font-family="Helvetica,sans-Serif" font-size="10.00">#</text>
<text text-anchor="start" x="17.5" y="-463" font-family="Helvetica,sans-Serif" font-size="10.00">mCellPdeElementMap</text>
<text text-anchor="start" x="4.5" y="-448" font-family="Helvetica,sans-Serif" font-size="10.00">#</text>
<text text-anchor="start" x="17.5" y="-448" font-family="Helvetica,sans-Serif" font-size="10.00">mpMeshCuboid</text>
<text text-anchor="start" x="4.5" y="-433" font-family="Helvetica,sans-Serif" font-size="10.00">#</text>
<text text-anchor="start" x="17.5" y="-433" font-family="Helvetica,sans-Serif" font-size="10.00">mStepSize</text>
<text text-anchor="start" x="4.5" y="-418" font-family="Helvetica,sans-Serif" font-size="10.00">#</text>
<text text-anchor="start" x="17.5" y="-418" font-family="Helvetica,sans-Serif" font-size="10.00">mSetBcsOnBoxBoundary</text>
<text text-anchor="start" x="4.5" y="-403" font-family="Helvetica,sans-Serif" font-size="10.00">+</text>
<text text-anchor="start" x="17.5" y="-403" font-family="Helvetica,sans-Serif" font-size="10.00">AbstractBoxDomainPdeModifier()</text>
<text text-anchor="start" x="4.5" y="-388" font-family="Helvetica,sans-Serif" font-size="10.00">+</text>
<text text-anchor="start" x="17.5" y="-388" font-family="Helvetica,sans-Serif" font-size="10.00">~AbstractBoxDomainPdeModifier()</text>
<text text-anchor="start" x="4.5" y="-373" font-family="Helvetica,sans-Serif" font-size="10.00">+</text>
<text text-anchor="start" x="17.5" y="-373" font-family="Helvetica,sans-Serif" font-size="10.00">GetStepSize()</text>
<text text-anchor="start" x="4.5" y="-358" font-family="Helvetica,sans-Serif" font-size="10.00">+</text>
<text text-anchor="start" x="17.5" y="-358" font-family="Helvetica,sans-Serif" font-size="10.00">SetBcsOnBoxBoundary()</text>
<text text-anchor="start" x="4.5" y="-343" font-family="Helvetica,sans-Serif" font-size="10.00">+</text>
<text text-anchor="start" x="17.5" y="-343" font-family="Helvetica,sans-Serif" font-size="10.00">AreBcsSetOnBoxBoundary()</text>
<text text-anchor="start" x="4.5" y="-328" font-family="Helvetica,sans-Serif" font-size="10.00">+</text>
<text text-anchor="start" x="17.5" y="-328" font-family="Helvetica,sans-Serif" font-size="10.00">SetupSolve()</text>
<text text-anchor="start" x="4.5" y="-313" font-family="Helvetica,sans-Serif" font-size="10.00">+</text>
<text text-anchor="start" x="17.5" y="-313" font-family="Helvetica,sans-Serif" font-size="10.00">GenerateFeMesh()</text>
<text text-anchor="start" x="4.5" y="-298" font-family="Helvetica,sans-Serif" font-size="10.00">+</text>
<text text-anchor="start" x="17.5" y="-298" font-family="Helvetica,sans-Serif" font-size="10.00">UpdateCellData()</text>
<text text-anchor="start" x="4.5" y="-283" font-family="Helvetica,sans-Serif" font-size="10.00">+</text>
<text text-anchor="start" x="17.5" y="-283" font-family="Helvetica,sans-Serif" font-size="10.00">InitialiseCellPdeElement</text>
<text text-anchor="start" x="17.5" y="-272" font-family="Helvetica,sans-Serif" font-size="10.00">Map()</text>
<text text-anchor="start" x="4.5" y="-257" font-family="Helvetica,sans-Serif" font-size="10.00">+</text>
<text text-anchor="start" x="17.5" y="-257" font-family="Helvetica,sans-Serif" font-size="10.00">UpdateCellPdeElementMap()</text>
<text text-anchor="start" x="4.5" y="-242" font-family="Helvetica,sans-Serif" font-size="10.00">+</text>
<text text-anchor="start" x="17.5" y="-242" font-family="Helvetica,sans-Serif" font-size="10.00">OutputSimulationModifier</text>
<text text-anchor="start" x="17.5" y="-231" font-family="Helvetica,sans-Serif" font-size="10.00">Parameters()</text>
<text text-anchor="start" x="7" y="-216" font-family="Helvetica,sans-Serif" font-size="10.00">&#45;</text>
<text text-anchor="start" x="17.5" y="-216" font-family="Helvetica,sans-Serif" font-size="10.00">serialize()</text>
<polygon fill="#666666" stroke="#666666" points="0.5,-473 0.5,-473 193.5,-473 193.5,-473 0.5,-473"/>
<polygon fill="#666666" stroke="#666666" points="0.5,-413 0.5,-413 15.5,-413 15.5,-413 0.5,-413"/>
<polygon fill="#666666" stroke="#666666" points="15.5,-413 15.5,-413 193.5,-413 193.5,-413 15.5,-413"/>
<polygon fill="none" stroke="#666666" points="0,-209 0,-501 193,-501 193,-209 0,-209"/>
</a>
</g>
</g>
<!-- Node2&#45;&gt;Node1 -->
<g id="edge1_Node000001_Node000002" class="edge">
<title>Node2&#45;&gt;Node1</title>
<g id="a_edge1_Node000001_Node000002"><a xlink:title=" ">
<path fill="none" stroke="#63b8ff" d="M96.5,-198.59C96.5,-189.6 96.5,-180.75 96.5,-172.21"/>
<polygon fill="none" stroke="#63b8ff" points="93,-198.78 96.5,-208.78 100,-198.78 93,-198.78"/>
</a>
</g>
</g>
<!-- Node3 -->
<g id="Node000003" class="node">
<title>Node3</title>
<g id="a_Node000003"><a xlink:href="classAbstractPdeModifier.html" target="_top" xlink:title=" ">
<polygon fill="white" stroke="transparent" points="186.5,-924 6.5,-924 6.5,-538 186.5,-538 186.5,-924"/>
<text text-anchor="start" x="47" y="-912" font-family="Helvetica,sans-Serif" font-size="10.00">AbstractPdeModifier</text>
<text text-anchor="start" x="75" y="-901" font-family="Helvetica,sans-Serif" font-size="10.00">&lt; DIM &gt;</text>
<text text-anchor="start" x="10.5" y="-886" font-family="Helvetica,sans-Serif" font-size="10.00">#</text>
<text text-anchor="start" x="23.5" y="-886" font-family="Helvetica,sans-Serif" font-size="10.00">mpPde</text>
<text text-anchor="start" x="10.5" y="-871" font-family="Helvetica,sans-Serif" font-size="10.00">#</text>
<text text-anchor="start" x="23.5" y="-871" font-family="Helvetica,sans-Serif" font-size="10.00">mpBoundaryCondition</text>
<text text-anchor="start" x="10.5" y="-856" font-family="Helvetica,sans-Serif" font-size="10.00">#</text>
<text text-anchor="start" x="23.5" y="-856" font-family="Helvetica,sans-Serif" font-size="10.00">mIsNeumannBoundaryCondition</text>
<text text-anchor="start" x="10.5" y="-841" font-family="Helvetica,sans-Serif" font-size="10.00">#</text>
<text text-anchor="start" x="23.5" y="-841" font-family="Helvetica,sans-Serif" font-size="10.00">mDependentVariableName</text>
<text text-anchor="start" x="10.5" y="-826" font-family="Helvetica,sans-Serif" font-size="10.00">#</text>
<text text-anchor="start" x="23.5" y="-826" font-family="Helvetica,sans-Serif" font-size="10.00">mSolution</text>
<text text-anchor="start" x="10.5" y="-811" font-family="Helvetica,sans-Serif" font-size="10.00">#</text>
<text text-anchor="start" x="23.5" y="-811" font-family="Helvetica,sans-Serif" font-size="10.00">mpFeMesh</text>
<text text-anchor="start" x="10.5" y="-796" font-family="Helvetica,sans-Serif" font-size="10.00">#</text>
<text text-anchor="start" x="23.5" y="-796" font-family="Helvetica,sans-Serif" font-size="10.00">mOutputDirectory</text>
<text text-anchor="start" x="10.5" y="-781" font-family="Helvetica,sans-Serif" font-size="10.00">#</text>
<text text-anchor="start" x="23.5" y="-781" font-family="Helvetica,sans-Serif" font-size="10.00">mOutputGradient</text>
<text text-anchor="start" x="10.5" y="-766" font-family="Helvetica,sans-Serif" font-size="10.00">#</text>
<text text-anchor="start" x="23.5" y="-766" font-family="Helvetica,sans-Serif" font-size="10.00">mOutputSolutionAtPdeNodes</text>
<text text-anchor="start" x="10.5" y="-751" font-family="Helvetica,sans-Serif" font-size="10.00">#</text>
<text text-anchor="start" x="23.5" y="-751" font-family="Helvetica,sans-Serif" font-size="10.00">mpVizPdeSolutionResultsFile</text>
<text text-anchor="start" x="10.5" y="-736" font-family="Helvetica,sans-Serif" font-size="10.00">#</text>
<text text-anchor="start" x="23.5" y="-736" font-family="Helvetica,sans-Serif" font-size="10.00">mDeleteFeMesh</text>
<text text-anchor="start" x="10.5" y="-721" font-family="Helvetica,sans-Serif" font-size="10.00">+</text>
<text text-anchor="start" x="23.5" y="-721" font-family="Helvetica,sans-Serif" font-size="10.00">AbstractPdeModifier()</text>
<text text-anchor="start" x="10.5" y="-706" font-family="Helvetica,sans-Serif" font-size="10.00">+</text>
<text text-anchor="start" x="23.5" y="-706" font-family="Helvetica,sans-Serif" font-size="10.00">~AbstractPdeModifier()</text>
<text text-anchor="start" x="10.5" y="-691" font-family="Helvetica,sans-Serif" font-size="10.00">+</text>
<text text-anchor="start" x="23.5" y="-691" font-family="Helvetica,sans-Serif" font-size="10.00">GetPde()</text>
<text text-anchor="start" x="10.5" y="-676" font-family="Helvetica,sans-Serif" font-size="10.00">+</text>
<text text-anchor="start" x="23.5" y="-676" font-family="Helvetica,sans-Serif" font-size="10.00">GetBoundaryCondition()</text>
<text text-anchor="start" x="10.5" y="-661" font-family="Helvetica,sans-Serif" font-size="10.00">+</text>
<text text-anchor="start" x="23.5" y="-661" font-family="Helvetica,sans-Serif" font-size="10.00">IsNeumannBoundaryCondition()</text>
<text text-anchor="start" x="10.5" y="-646" font-family="Helvetica,sans-Serif" font-size="10.00">+</text>
<text text-anchor="start" x="23.5" y="-646" font-family="Helvetica,sans-Serif" font-size="10.00">SetDependentVariableName()</text>
<text text-anchor="start" x="10.5" y="-631" font-family="Helvetica,sans-Serif" font-size="10.00">+</text>
<text text-anchor="start" x="23.5" y="-631" font-family="Helvetica,sans-Serif" font-size="10.00">rGetDependentVariableName()</text>
<text text-anchor="start" x="10.5" y="-616" font-family="Helvetica,sans-Serif" font-size="10.00">+</text>
<text text-anchor="start" x="23.5" y="-616" font-family="Helvetica,sans-Serif" font-size="10.00">HasAveragedSourcePde()</text>
<text text-anchor="start" x="10.5" y="-601" font-family="Helvetica,sans-Serif" font-size="10.00">+</text>
<text text-anchor="start" x="23.5" y="-601" font-family="Helvetica,sans-Serif" font-size="10.00">SetUpSourceTermsForAveraged</text>
<text text-anchor="start" x="23.5" y="-590" font-family="Helvetica,sans-Serif" font-size="10.00">SourcePde()</text>
<text text-anchor="start" x="10.5" y="-575" font-family="Helvetica,sans-Serif" font-size="10.00">+</text>
<text text-anchor="start" x="23.5" y="-575" font-family="Helvetica,sans-Serif" font-size="10.00">GetSolution()</text>
<text text-anchor="start" x="23.5" y="-560" font-family="Helvetica,sans-Serif" font-size="10.00">and 10 more...</text>
<text text-anchor="start" x="13" y="-545" font-family="Helvetica,sans-Serif" font-size="10.00">&#45;</text>
<text text-anchor="start" x="23.5" y="-545" font-family="Helvetica,sans-Serif" font-size="10.00">serialize()</text>
<polygon fill="#666666" stroke="#666666" points="6.5,-896 6.5,-896 186.5,-896 186.5,-896 6.5,-896"/>
<polygon fill="#666666" stroke="#666666" points="6.5,-731 6.5,-731 21.5,-731 21.5,-731 6.5,-731"/>
<polygon fill="#666666" stroke="#666666" points="21.5,-731 21.5,-731 186.5,-731 186.5,-731 21.5,-731"/>
<polygon fill="none" stroke="#666666" points="6.5,-538 6.5,-924 186.5,-924 186.5,-538 6.5,-538"/>
</a>
</g>
</g>
<!-- Node3&#45;&gt;Node2 -->
<g id="edge2_Node000002_Node000003" class="edge">
<title>Node3&#45;&gt;Node2</title>
<g id="a_edge2_Node000002_Node000003"><a xlink:title=" ">
<path fill="none" stroke="#63b8ff" d="M96.5,-527.67C96.5,-518.71 96.5,-509.8 96.5,-501.02"/>
<polygon fill="none" stroke="#63b8ff" points="93,-527.8 96.5,-537.8 100,-527.8 93,-527.8"/>
</a>
</g>
</g>
<!-- Node4 -->
<g id="Node000004" class="node">
<title>Node4</title>
<g id="a_Node000004"><a xlink:href="classAbstractCellBasedSimulationModifier.html" target="_top" xlink:title=" ">
<polygon fill="white" stroke="transparent" points="188.5,-1185 4.5,-1185 4.5,-961 188.5,-961 188.5,-1185"/>
<text text-anchor="start" x="25.5" y="-1173" font-family="Helvetica,sans-Serif" font-size="10.00">AbstractCellBasedSimulation</text>
<text text-anchor="start" x="42.5" y="-1162" font-family="Helvetica,sans-Serif" font-size="10.00">Modifier&lt; DIM, DIM &gt;</text>
<text text-anchor="start" x="94.5" y="-1147" font-family="Helvetica,sans-Serif" font-size="10.00"> </text>
<text text-anchor="start" x="8.5" y="-1132" font-family="Helvetica,sans-Serif" font-size="10.00">+</text>
<text text-anchor="start" x="21.5" y="-1132" font-family="Helvetica,sans-Serif" font-size="10.00">AbstractCellBasedSimulation</text>
<text text-anchor="start" x="21.5" y="-1121" font-family="Helvetica,sans-Serif" font-size="10.00">Modifier()</text>
<text text-anchor="start" x="8.5" y="-1106" font-family="Helvetica,sans-Serif" font-size="10.00">+</text>
<text text-anchor="start" x="21.5" y="-1106" font-family="Helvetica,sans-Serif" font-size="10.00">~AbstractCellBasedSimulation</text>
<text text-anchor="start" x="21.5" y="-1095" font-family="Helvetica,sans-Serif" font-size="10.00">Modifier()</text>
<text text-anchor="start" x="8.5" y="-1080" font-family="Helvetica,sans-Serif" font-size="10.00">+</text>
<text text-anchor="start" x="21.5" y="-1080" font-family="Helvetica,sans-Serif" font-size="10.00">UpdateAtEndOfTimeStep()</text>
<text text-anchor="start" x="8.5" y="-1065" font-family="Helvetica,sans-Serif" font-size="10.00">+</text>
<text text-anchor="start" x="21.5" y="-1065" font-family="Helvetica,sans-Serif" font-size="10.00">UpdateAtEndOfOutputTimeStep()</text>
<text text-anchor="start" x="8.5" y="-1050" font-family="Helvetica,sans-Serif" font-size="10.00">+</text>
<text text-anchor="start" x="21.5" y="-1050" font-family="Helvetica,sans-Serif" font-size="10.00">SetupSolve()</text>
<text text-anchor="start" x="8.5" y="-1035" font-family="Helvetica,sans-Serif" font-size="10.00">+</text>
<text text-anchor="start" x="21.5" y="-1035" font-family="Helvetica,sans-Serif" font-size="10.00">UpdateAtEndOfSolve()</text>
<text text-anchor="start" x="8.5" y="-1020" font-family="Helvetica,sans-Serif" font-size="10.00">+</text>
<text text-anchor="start" x="21.5" y="-1020" font-family="Helvetica,sans-Serif" font-size="10.00">OutputSimulationModifier</text>
<text text-anchor="start" x="21.5" y="-1009" font-family="Helvetica,sans-Serif" font-size="10.00">Info()</text>
<text text-anchor="start" x="8.5" y="-994" font-family="Helvetica,sans-Serif" font-size="10.00">+</text>
<text text-anchor="start" x="21.5" y="-994" font-family="Helvetica,sans-Serif" font-size="10.00">OutputSimulationModifier</text>
<text text-anchor="start" x="21.5" y="-983" font-family="Helvetica,sans-Serif" font-size="10.00">Parameters()</text>
<text text-anchor="start" x="11" y="-968" font-family="Helvetica,sans-Serif" font-size="10.00">&#45;</text>
<text text-anchor="start" x="21.5" y="-968" font-family="Helvetica,sans-Serif" font-size="10.00">serialize()</text>
<polygon fill="#666666" stroke="#666666" points="4.5,-1157 4.5,-1157 188.5,-1157 188.5,-1157 4.5,-1157"/>
<polygon fill="#666666" stroke="#666666" points="4.5,-1142 4.5,-1142 188.5,-1142 188.5,-1142 4.5,-1142"/>
<polygon fill="none" stroke="#666666" points="4.5,-961 4.5,-1185 188.5,-1185 188.5,-961 4.5,-961"/>
</a>
</g>
</g>
<!-- Node4&#45;&gt;Node3 -->
<g id="edge3_Node000003_Node000004" class="edge">
<title>Node4&#45;&gt;Node3</title>
<g id="a_edge3_Node000003_Node000004"><a xlink:title=" ">
<path fill="none" stroke="#63b8ff" d="M96.5,-950.61C96.5,-941.96 96.5,-933.12 96.5,-924.21"/>
<polygon fill="none" stroke="#63b8ff" points="93,-950.67 96.5,-960.67 100,-950.67 93,-950.67"/>
</a>
</g>
</g>
<!-- Node5 -->
<g id="Node000005" class="node">
<title>Node5</title>
<g id="a_Node000005"><a xlink:href="classIdentifiable.html" target="_top" xlink:title=" ">
<polygon fill="white" stroke="transparent" points="180.5,-1572 4.5,-1572 4.5,-1493 180.5,-1493 180.5,-1572"/>
<text text-anchor="start" x="65" y="-1559.5" font-family="Helvetica,sans-Serif" font-size="10.00">Identifiable</text>
<text text-anchor="start" x="90.5" y="-1544.5" font-family="Helvetica,sans-Serif" font-size="10.00"> </text>
<text text-anchor="start" x="8.5" y="-1529.5" font-family="Helvetica,sans-Serif" font-size="10.00">+</text>
<text text-anchor="start" x="21.5" y="-1529.5" font-family="Helvetica,sans-Serif" font-size="10.00">~Identifiable()</text>
<text text-anchor="start" x="8.5" y="-1514.5" font-family="Helvetica,sans-Serif" font-size="10.00">+</text>
<text text-anchor="start" x="21.5" y="-1514.5" font-family="Helvetica,sans-Serif" font-size="10.00">GetIdentifier()</text>
<text text-anchor="start" x="11" y="-1499.5" font-family="Helvetica,sans-Serif" font-size="10.00">&#45;</text>
<text text-anchor="start" x="21.5" y="-1499.5" font-family="Helvetica,sans-Serif" font-size="10.00">TidyTemplatedExportIdentifier()</text>
<polygon fill="#666666" stroke="#666666" points="4.5,-1554.5 4.5,-1554.5 180.5,-1554.5 180.5,-1554.5 4.5,-1554.5"/>
<polygon fill="#666666" stroke="#666666" points="4.5,-1539.5 4.5,-1539.5 180.5,-1539.5 180.5,-1539.5 4.5,-1539.5"/>
<polygon fill="none" stroke="#666666" points="4.5,-1493 4.5,-1572 180.5,-1572 180.5,-1493 4.5,-1493"/>
</a>
</g>
</g>
<!-- Node5&#45;&gt;Node4 -->
<g id="edge4_Node000004_Node000005" class="edge">
<title>Node5&#45;&gt;Node4</title>
<g id="a_edge4_Node000004_Node000005"><a xlink:title=" ">
<path fill="none" stroke="#63b8ff" d="M92.93,-1482.53C93.54,-1412.02 94.7,-1279.96 95.53,-1185.05"/>
<polygon fill="none" stroke="#63b8ff" points="89.43,-1482.86 92.84,-1492.89 96.42,-1482.92 89.43,-1482.86"/>
</a>
</g>
</g>
<!-- Node6 -->
<g id="Node000006" class="node">
<title>Node6</title>
<g id="a_Node000006"><a xlink:href="classAbstractCellBasedSimulationModifier.html" target="_top" xlink:title=" ">
<polygon fill="white" stroke="transparent" points="314,-1456 109,-1456 109,-1232 314,-1232 314,-1456"/>
<text text-anchor="start" x="114.5" y="-1444" font-family="Helvetica,sans-Serif" font-size="10.00">AbstractCellBasedSimulation</text>
<text text-anchor="start" x="114.5" y="-1433" font-family="Helvetica,sans-Serif" font-size="10.00">Modifier&lt; ELEMENT_DIM, SPACE_DIM &gt;</text>
<text text-anchor="start" x="210" y="-1418" font-family="Helvetica,sans-Serif" font-size="10.00"> </text>
<text text-anchor="start" x="118.5" y="-1403" font-family="Helvetica,sans-Serif" font-size="10.00">+</text>
<text text-anchor="start" x="136.5" y="-1403" font-family="Helvetica,sans-Serif" font-size="10.00">AbstractCellBasedSimulation</text>
<text text-anchor="start" x="136.5" y="-1392" font-family="Helvetica,sans-Serif" font-size="10.00">Modifier()</text>
<text text-anchor="start" x="118.5" y="-1377" font-family="Helvetica,sans-Serif" font-size="10.00">+</text>
<text text-anchor="start" x="136.5" y="-1377" font-family="Helvetica,sans-Serif" font-size="10.00">~AbstractCellBasedSimulation</text>
<text text-anchor="start" x="136.5" y="-1366" font-family="Helvetica,sans-Serif" font-size="10.00">Modifier()</text>
<text text-anchor="start" x="118.5" y="-1351" font-family="Helvetica,sans-Serif" font-size="10.00">+</text>
<text text-anchor="start" x="136.5" y="-1351" font-family="Helvetica,sans-Serif" font-size="10.00">UpdateAtEndOfTimeStep()</text>
<text text-anchor="start" x="118.5" y="-1336" font-family="Helvetica,sans-Serif" font-size="10.00">+</text>
<text text-anchor="start" x="136.5" y="-1336" font-family="Helvetica,sans-Serif" font-size="10.00">UpdateAtEndOfOutputTimeStep()</text>
<text text-anchor="start" x="118.5" y="-1321" font-family="Helvetica,sans-Serif" font-size="10.00">+</text>
<text text-anchor="start" x="136.5" y="-1321" font-family="Helvetica,sans-Serif" font-size="10.00">SetupSolve()</text>
<text text-anchor="start" x="118.5" y="-1306" font-family="Helvetica,sans-Serif" font-size="10.00">+</text>
<text text-anchor="start" x="136.5" y="-1306" font-family="Helvetica,sans-Serif" font-size="10.00">UpdateAtEndOfSolve()</text>
<text text-anchor="start" x="118.5" y="-1291" font-family="Helvetica,sans-Serif" font-size="10.00">+</text>
<text text-anchor="start" x="136.5" y="-1291" font-family="Helvetica,sans-Serif" font-size="10.00">OutputSimulationModifier</text>
<text text-anchor="start" x="136.5" y="-1280" font-family="Helvetica,sans-Serif" font-size="10.00">Info()</text>
<text text-anchor="start" x="118.5" y="-1265" font-family="Helvetica,sans-Serif" font-size="10.00">+</text>
<text text-anchor="start" x="136.5" y="-1265" font-family="Helvetica,sans-Serif" font-size="10.00">OutputSimulationModifier</text>
<text text-anchor="start" x="136.5" y="-1254" font-family="Helvetica,sans-Serif" font-size="10.00">Parameters()</text>
<text text-anchor="start" x="121" y="-1239" font-family="Helvetica,sans-Serif" font-size="10.00">&#45;</text>
<text text-anchor="start" x="136.5" y="-1239" font-family="Helvetica,sans-Serif" font-size="10.00">serialize()</text>
<polygon fill="#666666" stroke="#666666" points="109.5,-1428 109.5,-1428 314.5,-1428 314.5,-1428 109.5,-1428"/>
<polygon fill="#666666" stroke="#666666" points="109.5,-1413 109.5,-1413 314.5,-1413 314.5,-1413 109.5,-1413"/>
<polygon fill="none" stroke="#666666" points="109,-1232 109,-1456 314,-1456 314,-1232 109,-1232"/>
</a>
</g>
</g>
<!-- Node5&#45;&gt;Node6 -->
<g id="edge6_Node000006_Node000005" class="edge">
<title>Node5&#45;&gt;Node6</title>
<g id="a_edge6_Node000006_Node000005"><a xlink:title=" ">
<path fill="none" stroke="#63b8ff" d="M122.59,-1484.34C128.19,-1475.56 134.26,-1466.06 140.5,-1456.28"/>
<polygon fill="none" stroke="#63b8ff" points="119.59,-1482.54 117.16,-1492.86 125.49,-1486.31 119.59,-1482.54"/>
</a>
</g>
</g>
<!-- Node6&#45;&gt;Node4 -->
<g id="edge5_Node000004_Node000006" class="edge">
<title>Node6&#45;&gt;Node4</title>
<g id="a_edge5_Node000004_Node000006"><a xlink:title=" ">
<path fill="none" stroke="orange" d="M159.88,-1222.27C154.62,-1209.95 149.29,-1197.48 144.07,-1185.27"/>
<polygon fill="orange" stroke="orange" points="156.75,-1223.83 163.89,-1231.65 163.18,-1221.07 156.75,-1223.83"/>
</a>
</g>
<text text-anchor="middle" x="189" y="-1206" font-family="Helvetica,sans-Serif" font-size="10.00" fill="grey"> &lt; DIM, DIM &gt;</text>
</g>
</g>
</svg>
