<?xml version="1.0" encoding="UTF-8" standalone="no"?>
<!DOCTYPE svg PUBLIC "-//W3C//DTD SVG 1.1//EN"
 "http://www.w3.org/Graphics/SVG/1.1/DTD/svg11.dtd">
<!-- Generated by graphviz version 2.43.0 (0)
 -->
<!-- Title: CellId Pages: 1 -->
<svg width="287pt" height="494pt"
 viewBox="0.00 0.00 287.00 494.00" xmlns="http://www.w3.org/2000/svg" xmlns:xlink="http://www.w3.org/1999/xlink">
<g id="graph0" class="graph" transform="scale(1 1) rotate(0) translate(4 490)">
<title>CellId</title>
<!-- Node1 -->
<g id="Node000001" class="node">
<title>Node1</title>
<g id="a_Node000001"><a xlink:title=" ">
<polygon fill="#999999" stroke="transparent" points="222,-139 116,-139 116,0 222,0 222,-139"/>
<text text-anchor="start" x="155" y="-126.5" font-family="Helvetica,sans-Serif" font-size="10.00">CellId</text>
<text text-anchor="start" x="167" y="-111.5" font-family="Helvetica,sans-Serif" font-size="10.00"> </text>
<text text-anchor="start" x="120" y="-96.5" font-family="Helvetica,sans-Serif" font-size="10.00">+</text>
<text text-anchor="start" x="133" y="-96.5" font-family="Helvetica,sans-Serif" font-size="10.00">CellId()</text>
<text text-anchor="start" x="120" y="-81.5" font-family="Helvetica,sans-Serif" font-size="10.00">+</text>
<text text-anchor="start" x="133" y="-81.5" font-family="Helvetica,sans-Serif" font-size="10.00">~CellId()</text>
<text text-anchor="start" x="120" y="-66.5" font-family="Helvetica,sans-Serif" font-size="10.00">+</text>
<text text-anchor="start" x="133" y="-66.5" font-family="Helvetica,sans-Serif" font-size="10.00">AssignCellId()</text>
<text text-anchor="start" x="120" y="-51.5" font-family="Helvetica,sans-Serif" font-size="10.00">+</text>
<text text-anchor="start" x="133" y="-51.5" font-family="Helvetica,sans-Serif" font-size="10.00">GetMaxCellId()</text>
<text text-anchor="start" x="120" y="-36.5" font-family="Helvetica,sans-Serif" font-size="10.00">+</text>
<text text-anchor="start" x="133" y="-36.5" font-family="Helvetica,sans-Serif" font-size="10.00">GetCellId()</text>
<text text-anchor="start" x="120" y="-21.5" font-family="Helvetica,sans-Serif" font-size="10.00">+</text>
<text text-anchor="start" x="133" y="-21.5" font-family="Helvetica,sans-Serif" font-size="10.00">ResetMaxCellId()</text>
<text text-anchor="start" x="122.5" y="-6.5" font-family="Helvetica,sans-Serif" font-size="10.00">&#45;</text>
<text text-anchor="start" x="133" y="-6.5" font-family="Helvetica,sans-Serif" font-size="10.00">serialize()</text>
<polygon fill="#666666" stroke="#666666" points="116,-121.5 116,-121.5 222,-121.5 222,-121.5 116,-121.5"/>
<polygon fill="#666666" stroke="#666666" points="116,-106.5 116,-106.5 222,-106.5 222,-106.5 116,-106.5"/>
<polygon fill="none" stroke="#666666" points="116,0 116,-139 222,-139 222,0 116,0"/>
</a>
</g>
</g>
<!-- Node2 -->
<g id="Node000002" class="node">
<title>Node2</title>
<g id="a_Node000002"><a xlink:href="classAbstractCellProperty.html" target="_top" xlink:title=" ">
<polygon fill="white" stroke="transparent" points="186,-360 48,-360 48,-176 186,-176 186,-360"/>
<text text-anchor="start" x="66.5" y="-348" font-family="Helvetica,sans-Serif" font-size="10.00">AbstractCellProperty</text>
<text text-anchor="start" x="115" y="-333" font-family="Helvetica,sans-Serif" font-size="10.00"> </text>
<text text-anchor="start" x="52" y="-318" font-family="Helvetica,sans-Serif" font-size="10.00">+</text>
<text text-anchor="start" x="65" y="-318" font-family="Helvetica,sans-Serif" font-size="10.00">AbstractCellProperty()</text>
<text text-anchor="start" x="52" y="-303" font-family="Helvetica,sans-Serif" font-size="10.00">+</text>
<text text-anchor="start" x="65" y="-303" font-family="Helvetica,sans-Serif" font-size="10.00">~AbstractCellProperty()</text>
<text text-anchor="start" x="52" y="-288" font-family="Helvetica,sans-Serif" font-size="10.00">+</text>
<text text-anchor="start" x="65" y="-288" font-family="Helvetica,sans-Serif" font-size="10.00">IsType()</text>
<text text-anchor="start" x="52" y="-273" font-family="Helvetica,sans-Serif" font-size="10.00">+</text>
<text text-anchor="start" x="65" y="-273" font-family="Helvetica,sans-Serif" font-size="10.00">IsSubType()</text>
<text text-anchor="start" x="52" y="-258" font-family="Helvetica,sans-Serif" font-size="10.00">+</text>
<text text-anchor="start" x="65" y="-258" font-family="Helvetica,sans-Serif" font-size="10.00">IsSame()</text>
<text text-anchor="start" x="52" y="-243" font-family="Helvetica,sans-Serif" font-size="10.00">+</text>
<text text-anchor="start" x="65" y="-243" font-family="Helvetica,sans-Serif" font-size="10.00">IsSame()</text>
<text text-anchor="start" x="52" y="-228" font-family="Helvetica,sans-Serif" font-size="10.00">+</text>
<text text-anchor="start" x="65" y="-228" font-family="Helvetica,sans-Serif" font-size="10.00">IncrementCellCount()</text>
<text text-anchor="start" x="52" y="-213" font-family="Helvetica,sans-Serif" font-size="10.00">+</text>
<text text-anchor="start" x="65" y="-213" font-family="Helvetica,sans-Serif" font-size="10.00">DecrementCellCount()</text>
<text text-anchor="start" x="52" y="-198" font-family="Helvetica,sans-Serif" font-size="10.00">+</text>
<text text-anchor="start" x="65" y="-198" font-family="Helvetica,sans-Serif" font-size="10.00">GetCellCount()</text>
<text text-anchor="start" x="54.5" y="-183" font-family="Helvetica,sans-Serif" font-size="10.00">&#45;</text>
<text text-anchor="start" x="65" y="-183" font-family="Helvetica,sans-Serif" font-size="10.00">serialize()</text>
<polygon fill="#666666" stroke="#666666" points="48,-343 48,-343 186,-343 186,-343 48,-343"/>
<polygon fill="#666666" stroke="#666666" points="48,-328 48,-328 186,-328 186,-328 48,-328"/>
<polygon fill="none" stroke="#666666" points="48,-176 48,-360 186,-360 186,-176 48,-176"/>
</a>
</g>
</g>
<!-- Node2&#45;&gt;Node1 -->
<g id="edge1_Node000001_Node000002" class="edge">
<title>Node2&#45;&gt;Node1</title>
<g id="a_edge1_Node000001_Node000002"><a xlink:title=" ">
<path fill="none" stroke="#63b8ff" d="M143.71,-166.08C146.11,-157 148.51,-147.94 150.81,-139.22"/>
<polygon fill="none" stroke="#63b8ff" points="140.27,-165.38 141.1,-175.94 147.04,-167.17 140.27,-165.38"/>
</a>
</g>
</g>
<!-- Node3 -->
<g id="Node000003" class="node">
<title>Node3</title>
<g id="a_Node000003"><a xlink:href="classIdentifiable.html" target="_top" xlink:title=" ">
<polygon fill="white" stroke="transparent" points="176,-486 0,-486 0,-407 176,-407 176,-486"/>
<text text-anchor="start" x="60.5" y="-473.5" font-family="Helvetica,sans-Serif" font-size="10.00">Identifiable</text>
<text text-anchor="start" x="86" y="-458.5" font-family="Helvetica,sans-Serif" font-size="10.00"> </text>
<text text-anchor="start" x="4" y="-443.5" font-family="Helvetica,sans-Serif" font-size="10.00">+</text>
<text text-anchor="start" x="17" y="-443.5" font-family="Helvetica,sans-Serif" font-size="10.00">~Identifiable()</text>
<text text-anchor="start" x="4" y="-428.5" font-family="Helvetica,sans-Serif" font-size="10.00">+</text>
<text text-anchor="start" x="17" y="-428.5" font-family="Helvetica,sans-Serif" font-size="10.00">GetIdentifier()</text>
<text text-anchor="start" x="6.5" y="-413.5" font-family="Helvetica,sans-Serif" font-size="10.00">&#45;</text>
<text text-anchor="start" x="17" y="-413.5" font-family="Helvetica,sans-Serif" font-size="10.00">TidyTemplatedExportIdentifier()</text>
<polygon fill="#666666" stroke="#666666" points="0,-468.5 0,-468.5 176,-468.5 176,-468.5 0,-468.5"/>
<polygon fill="#666666" stroke="#666666" points="0,-453.5 0,-453.5 176,-453.5 176,-453.5 0,-453.5"/>
<polygon fill="none" stroke="#666666" points="0,-407 0,-486 176,-486 176,-407 0,-407"/>
</a>
</g>
</g>
<!-- Node3&#45;&gt;Node2 -->
<g id="edge2_Node000002_Node000003" class="edge">
<title>Node3&#45;&gt;Node2</title>
<g id="a_edge2_Node000002_Node000003"><a xlink:title=" ">
<path fill="none" stroke="#63b8ff" d="M96.03,-396.62C97.91,-385.2 99.96,-372.68 102.03,-360.08"/>
<polygon fill="none" stroke="#63b8ff" points="92.53,-396.33 94.36,-406.77 99.44,-397.47 92.53,-396.33"/>
</a>
</g>
</g>
<!-- Node4 -->
<g id="Node000004" class="node">
<title>Node4</title>
<g id="a_Node000004"><a xlink:href="classunsigned.html" target="_top" xlink:title=" ">
<polygon fill="white" stroke="transparent" points="249.5,-471 194.5,-471 194.5,-422 249.5,-422 249.5,-471"/>
<text text-anchor="start" x="200" y="-458.5" font-family="Helvetica,sans-Serif" font-size="10.00">unsigned</text>
<text text-anchor="start" x="220.5" y="-443.5" font-family="Helvetica,sans-Serif" font-size="10.00"> </text>
<text text-anchor="start" x="220.5" y="-428.5" font-family="Helvetica,sans-Serif" font-size="10.00"> </text>
<polygon fill="#bfbfbf" stroke="#bfbfbf" points="195,-453.5 195,-453.5 250,-453.5 250,-453.5 195,-453.5"/>
<polygon fill="#bfbfbf" stroke="#bfbfbf" points="195,-438.5 195,-438.5 250,-438.5 250,-438.5 195,-438.5"/>
<polygon fill="none" stroke="#bfbfbf" points="194.5,-422 194.5,-471 249.5,-471 249.5,-422 194.5,-422"/>
</a>
</g>
</g>
<!-- Node4&#45;&gt;Node1 -->
<g id="edge4_Node000001_Node000004" class="edge">
<title>Node4&#45;&gt;Node1</title>
<g id="a_edge4_Node000001_Node000004"><a xlink:title=" ">
<path fill="none" stroke="#63b8ff" d="M220.76,-421.92C218.05,-374.87 210.54,-266.13 195,-176 193.59,-167.85 191.91,-159.4 190.08,-150.99"/>
<polygon fill="none" stroke="#63b8ff" points="190.05,-150.86 184.83,-145.89 187.41,-139.15 192.63,-144.13 190.05,-150.86"/>
</a>
</g>
<text text-anchor="middle" x="247.5" y="-271" font-family="Helvetica,sans-Serif" font-size="10.00" fill="grey"> &#45;mCellId</text>
<text text-anchor="middle" x="247.5" y="-260" font-family="Helvetica,sans-Serif" font-size="10.00" fill="grey">&#45;mMaxCellId</text>
</g>
<!-- Node4&#45;&gt;Node2 -->
<g id="edge3_Node000002_Node000004" class="edge">
<title>Node4&#45;&gt;Node2</title>
<g id="a_edge3_Node000002_Node000004"><a xlink:title=" ">
<path fill="none" stroke="#63b8ff" d="M202.2,-421.95C196.97,-416.6 191.08,-411.25 185,-407 168.68,-395.61 156.66,-404.36 144,-389 139.52,-383.56 135.75,-377.53 132.57,-371.16"/>
<polygon fill="none" stroke="#63b8ff" points="132.56,-371.14 126.5,-367.23 127.77,-360.14 133.84,-364.04 132.56,-371.14"/>
</a>
</g>
<text text-anchor="middle" x="176" y="-381" font-family="Helvetica,sans-Serif" font-size="10.00" fill="grey"> &#45;mCellCount</text>
</g>
</g>
</svg>
