<?xml version="1.0" encoding="UTF-8" standalone="no"?>
<!DOCTYPE svg PUBLIC "-//W3C//DTD SVG 1.1//EN"
 "http://www.w3.org/Graphics/SVG/1.1/DTD/svg11.dtd">
<!-- Generated by graphviz version 2.43.0 (0)
 -->
<!-- Title: ImmersedBoundaryLinearMembraneForce&lt; DIM &gt; Pages: 1 -->
<svg width="597pt" height="750pt"
 viewBox="0.00 0.00 597.00 750.00" xmlns="http://www.w3.org/2000/svg" xmlns:xlink="http://www.w3.org/1999/xlink">
<g id="graph0" class="graph" transform="scale(1 1) rotate(0) translate(4 746)">
<title>ImmersedBoundaryLinearMembraneForce&lt; DIM &gt;</title>
<!-- Node1 -->
<g id="Node000001" class="node">
<title>Node1</title>
<g id="a_Node000001"><a xlink:title=" ">
<polygon fill="#999999" stroke="transparent" points="492,-299 284,-299 284,0 492,0 492,-299"/>
<text text-anchor="start" x="298.5" y="-286.5" font-family="Helvetica,sans-Serif" font-size="10.00">ImmersedBoundaryLinearMembrane</text>
<text text-anchor="start" x="353.5" y="-275.5" font-family="Helvetica,sans-Serif" font-size="10.00">Force&lt; DIM &gt;</text>
<text text-anchor="start" x="386" y="-260.5" font-family="Helvetica,sans-Serif" font-size="10.00"> </text>
<text text-anchor="start" x="288" y="-245.5" font-family="Helvetica,sans-Serif" font-size="10.00">+</text>
<text text-anchor="start" x="301" y="-245.5" font-family="Helvetica,sans-Serif" font-size="10.00">ImmersedBoundaryLinearMembrane</text>
<text text-anchor="start" x="301" y="-234.5" font-family="Helvetica,sans-Serif" font-size="10.00">Force()</text>
<text text-anchor="start" x="288" y="-219.5" font-family="Helvetica,sans-Serif" font-size="10.00">+</text>
<text text-anchor="start" x="301" y="-219.5" font-family="Helvetica,sans-Serif" font-size="10.00">~ImmersedBoundaryLinearMembrane</text>
<text text-anchor="start" x="301" y="-208.5" font-family="Helvetica,sans-Serif" font-size="10.00">Force()</text>
<text text-anchor="start" x="288" y="-193.5" font-family="Helvetica,sans-Serif" font-size="10.00">+</text>
<text text-anchor="start" x="301" y="-193.5" font-family="Helvetica,sans-Serif" font-size="10.00">AddImmersedBoundaryForce</text>
<text text-anchor="start" x="301" y="-182.5" font-family="Helvetica,sans-Serif" font-size="10.00">Contribution()</text>
<text text-anchor="start" x="288" y="-167.5" font-family="Helvetica,sans-Serif" font-size="10.00">+</text>
<text text-anchor="start" x="301" y="-167.5" font-family="Helvetica,sans-Serif" font-size="10.00">OutputImmersedBoundaryForce</text>
<text text-anchor="start" x="301" y="-156.5" font-family="Helvetica,sans-Serif" font-size="10.00">Parameters()</text>
<text text-anchor="start" x="288" y="-141.5" font-family="Helvetica,sans-Serif" font-size="10.00">+</text>
<text text-anchor="start" x="301" y="-141.5" font-family="Helvetica,sans-Serif" font-size="10.00">GetElementSpringConst()</text>
<text text-anchor="start" x="288" y="-126.5" font-family="Helvetica,sans-Serif" font-size="10.00">+</text>
<text text-anchor="start" x="301" y="-126.5" font-family="Helvetica,sans-Serif" font-size="10.00">SetElementSpringConst()</text>
<text text-anchor="start" x="288" y="-111.5" font-family="Helvetica,sans-Serif" font-size="10.00">+</text>
<text text-anchor="start" x="301" y="-111.5" font-family="Helvetica,sans-Serif" font-size="10.00">GetElementRestLength()</text>
<text text-anchor="start" x="288" y="-96.5" font-family="Helvetica,sans-Serif" font-size="10.00">+</text>
<text text-anchor="start" x="301" y="-96.5" font-family="Helvetica,sans-Serif" font-size="10.00">SetElementRestLength()</text>
<text text-anchor="start" x="288" y="-81.5" font-family="Helvetica,sans-Serif" font-size="10.00">+</text>
<text text-anchor="start" x="301" y="-81.5" font-family="Helvetica,sans-Serif" font-size="10.00">GetLaminaSpringConst()</text>
<text text-anchor="start" x="288" y="-66.5" font-family="Helvetica,sans-Serif" font-size="10.00">+</text>
<text text-anchor="start" x="301" y="-66.5" font-family="Helvetica,sans-Serif" font-size="10.00">SetLaminaSpringConst()</text>
<text text-anchor="start" x="288" y="-51.5" font-family="Helvetica,sans-Serif" font-size="10.00">+</text>
<text text-anchor="start" x="301" y="-51.5" font-family="Helvetica,sans-Serif" font-size="10.00">GetLaminaRestLength()</text>
<text text-anchor="start" x="288" y="-36.5" font-family="Helvetica,sans-Serif" font-size="10.00">+</text>
<text text-anchor="start" x="301" y="-36.5" font-family="Helvetica,sans-Serif" font-size="10.00">SetLaminaRestLength()</text>
<text text-anchor="start" x="290.5" y="-21.5" font-family="Helvetica,sans-Serif" font-size="10.00">&#45;</text>
<text text-anchor="start" x="301" y="-21.5" font-family="Helvetica,sans-Serif" font-size="10.00">serialize()</text>
<text text-anchor="start" x="290.5" y="-6.5" font-family="Helvetica,sans-Serif" font-size="10.00">&#45;</text>
<text text-anchor="start" x="301" y="-6.5" font-family="Helvetica,sans-Serif" font-size="10.00">CalculateForcesOnElement()</text>
<polygon fill="#666666" stroke="#666666" points="284,-270.5 284,-270.5 492,-270.5 492,-270.5 284,-270.5"/>
<polygon fill="#666666" stroke="#666666" points="284,-255.5 284,-255.5 492,-255.5 492,-255.5 284,-255.5"/>
<polygon fill="none" stroke="#666666" points="284,0 284,-299 492,-299 492,0 284,0"/>
</a>
</g>
</g>
<!-- Node2 -->
<g id="Node000002" class="node">
<title>Node2</title>
<g id="a_Node000002"><a xlink:href="classAbstractImmersedBoundaryForce.html" target="_top" xlink:title=" ">
<polygon fill="white" stroke="transparent" points="373.5,-605 196.5,-605 196.5,-336 373.5,-336 373.5,-605"/>
<text text-anchor="start" x="217" y="-592.5" font-family="Helvetica,sans-Serif" font-size="10.00">AbstractImmersedBoundary</text>
<text text-anchor="start" x="251" y="-581.5" font-family="Helvetica,sans-Serif" font-size="10.00">Force&lt; DIM &gt;</text>
<text text-anchor="start" x="283.5" y="-566.5" font-family="Helvetica,sans-Serif" font-size="10.00"> </text>
<text text-anchor="start" x="201" y="-551.5" font-family="Helvetica,sans-Serif" font-size="10.00">+</text>
<text text-anchor="start" x="214" y="-551.5" font-family="Helvetica,sans-Serif" font-size="10.00">AbstractImmersedBoundary</text>
<text text-anchor="start" x="214" y="-540.5" font-family="Helvetica,sans-Serif" font-size="10.00">Force()</text>
<text text-anchor="start" x="201" y="-525.5" font-family="Helvetica,sans-Serif" font-size="10.00">+</text>
<text text-anchor="start" x="214" y="-525.5" font-family="Helvetica,sans-Serif" font-size="10.00">~AbstractImmersedBoundary</text>
<text text-anchor="start" x="214" y="-514.5" font-family="Helvetica,sans-Serif" font-size="10.00">Force()</text>
<text text-anchor="start" x="201" y="-499.5" font-family="Helvetica,sans-Serif" font-size="10.00">+</text>
<text text-anchor="start" x="214" y="-499.5" font-family="Helvetica,sans-Serif" font-size="10.00">AddImmersedBoundaryForce</text>
<text text-anchor="start" x="214" y="-488.5" font-family="Helvetica,sans-Serif" font-size="10.00">Contribution()</text>
<text text-anchor="start" x="201" y="-473.5" font-family="Helvetica,sans-Serif" font-size="10.00">+</text>
<text text-anchor="start" x="214" y="-473.5" font-family="Helvetica,sans-Serif" font-size="10.00">OutputImmersedBoundaryForce</text>
<text text-anchor="start" x="214" y="-462.5" font-family="Helvetica,sans-Serif" font-size="10.00">Parameters()</text>
<text text-anchor="start" x="201" y="-447.5" font-family="Helvetica,sans-Serif" font-size="10.00">+</text>
<text text-anchor="start" x="214" y="-447.5" font-family="Helvetica,sans-Serif" font-size="10.00">GetAdditiveNormalNoise()</text>
<text text-anchor="start" x="201" y="-432.5" font-family="Helvetica,sans-Serif" font-size="10.00">+</text>
<text text-anchor="start" x="214" y="-432.5" font-family="Helvetica,sans-Serif" font-size="10.00">SetAdditiveNormalNoise()</text>
<text text-anchor="start" x="201" y="-417.5" font-family="Helvetica,sans-Serif" font-size="10.00">+</text>
<text text-anchor="start" x="214" y="-417.5" font-family="Helvetica,sans-Serif" font-size="10.00">GetNormalNoiseMean()</text>
<text text-anchor="start" x="201" y="-402.5" font-family="Helvetica,sans-Serif" font-size="10.00">+</text>
<text text-anchor="start" x="214" y="-402.5" font-family="Helvetica,sans-Serif" font-size="10.00">SetNormalNoiseMean()</text>
<text text-anchor="start" x="201" y="-387.5" font-family="Helvetica,sans-Serif" font-size="10.00">+</text>
<text text-anchor="start" x="214" y="-387.5" font-family="Helvetica,sans-Serif" font-size="10.00">GetNormalNoiseStdDev()</text>
<text text-anchor="start" x="201" y="-372.5" font-family="Helvetica,sans-Serif" font-size="10.00">+</text>
<text text-anchor="start" x="214" y="-372.5" font-family="Helvetica,sans-Serif" font-size="10.00">SetNormalNoiseStdDev()</text>
<text text-anchor="start" x="201" y="-357.5" font-family="Helvetica,sans-Serif" font-size="10.00">#</text>
<text text-anchor="start" x="214" y="-357.5" font-family="Helvetica,sans-Serif" font-size="10.00">AddNormalNoiseToNodes()</text>
<text text-anchor="start" x="203.5" y="-342.5" font-family="Helvetica,sans-Serif" font-size="10.00">&#45;</text>
<text text-anchor="start" x="214" y="-342.5" font-family="Helvetica,sans-Serif" font-size="10.00">serialize()</text>
<polygon fill="#666666" stroke="#666666" points="197,-576.5 197,-576.5 374,-576.5 374,-576.5 197,-576.5"/>
<polygon fill="#666666" stroke="#666666" points="197,-561.5 197,-561.5 374,-561.5 374,-561.5 197,-561.5"/>
<polygon fill="none" stroke="#666666" points="196.5,-336 196.5,-605 373.5,-605 373.5,-336 196.5,-336"/>
</a>
</g>
</g>
<!-- Node2&#45;&gt;Node1 -->
<g id="edge1_Node000001_Node000002" class="edge">
<title>Node2&#45;&gt;Node1</title>
<g id="a_edge1_Node000001_Node000002"><a xlink:title=" ">
<path fill="none" stroke="#63b8ff" d="M331.34,-325.99C334.21,-317.1 337.1,-308.14 339.98,-299.23"/>
<polygon fill="none" stroke="#63b8ff" points="327.98,-325.01 328.23,-335.6 334.64,-327.16 327.98,-325.01"/>
</a>
</g>
</g>
<!-- Node3 -->
<g id="Node000003" class="node">
<title>Node3</title>
<g id="a_Node000003"><a xlink:href="classIdentifiable.html" target="_top" xlink:title=" ">
<polygon fill="white" stroke="transparent" points="176,-742 0,-742 0,-663 176,-663 176,-742"/>
<text text-anchor="start" x="60.5" y="-729.5" font-family="Helvetica,sans-Serif" font-size="10.00">Identifiable</text>
<text text-anchor="start" x="86" y="-714.5" font-family="Helvetica,sans-Serif" font-size="10.00"> </text>
<text text-anchor="start" x="4" y="-699.5" font-family="Helvetica,sans-Serif" font-size="10.00">+</text>
<text text-anchor="start" x="17" y="-699.5" font-family="Helvetica,sans-Serif" font-size="10.00">~Identifiable()</text>
<text text-anchor="start" x="4" y="-684.5" font-family="Helvetica,sans-Serif" font-size="10.00">+</text>
<text text-anchor="start" x="17" y="-684.5" font-family="Helvetica,sans-Serif" font-size="10.00">GetIdentifier()</text>
<text text-anchor="start" x="6.5" y="-669.5" font-family="Helvetica,sans-Serif" font-size="10.00">&#45;</text>
<text text-anchor="start" x="17" y="-669.5" font-family="Helvetica,sans-Serif" font-size="10.00">TidyTemplatedExportIdentifier()</text>
<polygon fill="#666666" stroke="#666666" points="0,-724.5 0,-724.5 176,-724.5 176,-724.5 0,-724.5"/>
<polygon fill="#666666" stroke="#666666" points="0,-709.5 0,-709.5 176,-709.5 176,-709.5 0,-709.5"/>
<polygon fill="none" stroke="#666666" points="0,-663 0,-742 176,-742 176,-663 0,-663"/>
</a>
</g>
</g>
<!-- Node3&#45;&gt;Node2 -->
<g id="edge2_Node000002_Node000003" class="edge">
<title>Node3&#45;&gt;Node2</title>
<g id="a_edge2_Node000002_Node000003"><a xlink:title=" ">
<path fill="none" stroke="#63b8ff" d="M127.72,-655.13C147.55,-631.98 172.38,-602.98 196.42,-574.91"/>
<polygon fill="none" stroke="#63b8ff" points="125.04,-652.87 121.2,-662.74 130.36,-657.43 125.04,-652.87"/>
</a>
</g>
</g>
<!-- Node4 -->
<g id="Node000004" class="node">
<title>Node4</title>
<g id="a_Node000004"><a xlink:href="classbool.html" target="_top" xlink:title=" ">
<polygon fill="white" stroke="transparent" points="226,-727 194,-727 194,-678 226,-678 226,-727"/>
<text text-anchor="start" x="199" y="-714.5" font-family="Helvetica,sans-Serif" font-size="10.00">bool</text>
<text text-anchor="start" x="208" y="-699.5" font-family="Helvetica,sans-Serif" font-size="10.00"> </text>
<text text-anchor="start" x="208" y="-684.5" font-family="Helvetica,sans-Serif" font-size="10.00"> </text>
<polygon fill="#bfbfbf" stroke="#bfbfbf" points="194,-709.5 194,-709.5 226,-709.5 226,-709.5 194,-709.5"/>
<polygon fill="#bfbfbf" stroke="#bfbfbf" points="194,-694.5 194,-694.5 226,-694.5 226,-694.5 194,-694.5"/>
<polygon fill="none" stroke="#bfbfbf" points="194,-678 194,-727 226,-727 226,-678 194,-678"/>
</a>
</g>
</g>
<!-- Node4&#45;&gt;Node2 -->
<g id="edge3_Node000002_Node000004" class="edge">
<title>Node4&#45;&gt;Node2</title>
<g id="a_edge3_Node000002_Node000004"><a xlink:title=" ">
<path fill="none" stroke="#63b8ff" d="M207.63,-677.81C206.7,-662.06 206.71,-641.03 211,-623 211.48,-620.99 211.98,-618.98 212.52,-616.97"/>
<polygon fill="none" stroke="#63b8ff" points="212.53,-616.94 210.36,-610.07 215.87,-605.42 218.04,-612.3 212.53,-616.94"/>
</a>
</g>
<text text-anchor="middle" x="274" y="-631.5" font-family="Helvetica,sans-Serif" font-size="10.00" fill="grey"> #mAdditiveNormalNoise</text>
</g>
<!-- Node5 -->
<g id="Node000005" class="node">
<title>Node5</title>
<g id="a_Node000005"><a xlink:href="classdouble.html" target="_top" xlink:title=" ">
<polygon fill="white" stroke="transparent" points="447,-727 403,-727 403,-678 447,-678 447,-727"/>
<text text-anchor="start" x="408" y="-714.5" font-family="Helvetica,sans-Serif" font-size="10.00">double</text>
<text text-anchor="start" x="423" y="-699.5" font-family="Helvetica,sans-Serif" font-size="10.00"> </text>
<text text-anchor="start" x="423" y="-684.5" font-family="Helvetica,sans-Serif" font-size="10.00"> </text>
<polygon fill="#bfbfbf" stroke="#bfbfbf" points="403,-709.5 403,-709.5 447,-709.5 447,-709.5 403,-709.5"/>
<polygon fill="#bfbfbf" stroke="#bfbfbf" points="403,-694.5 403,-694.5 447,-694.5 447,-694.5 403,-694.5"/>
<polygon fill="none" stroke="#bfbfbf" points="403,-678 403,-727 447,-727 447,-678 403,-678"/>
</a>
</g>
</g>
<!-- Node5&#45;&gt;Node1 -->
<g id="edge5_Node000001_Node000005" class="edge">
<title>Node5&#45;&gt;Node1</title>
<g id="a_edge5_Node000001_Node000005"><a xlink:title=" ">
<path fill="none" stroke="#63b8ff" d="M447.02,-685.02C458.62,-674.91 471.72,-660.88 478,-645 481.6,-635.91 478.92,-632.73 478,-623 468.1,-518.17 446.12,-401.97 426.36,-311.04"/>
<polygon fill="none" stroke="#63b8ff" points="426.34,-310.95 421.15,-305.94 423.77,-299.23 428.97,-304.23 426.34,-310.95"/>
</a>
</g>
<text text-anchor="middle" x="532.5" y="-484.5" font-family="Helvetica,sans-Serif" font-size="10.00" fill="grey"> &#45;mElementRestLength</text>
<text text-anchor="middle" x="532.5" y="-473.5" font-family="Helvetica,sans-Serif" font-size="10.00" fill="grey">&#45;mElementSpringConst</text>
<text text-anchor="middle" x="532.5" y="-462.5" font-family="Helvetica,sans-Serif" font-size="10.00" fill="grey">&#45;mLaminaRestLength</text>
<text text-anchor="middle" x="532.5" y="-451.5" font-family="Helvetica,sans-Serif" font-size="10.00" fill="grey">&#45;mLaminaSpringConst</text>
</g>
<!-- Node5&#45;&gt;Node2 -->
<g id="edge4_Node000002_Node000005" class="edge">
<title>Node5&#45;&gt;Node2</title>
<g id="a_edge4_Node000002_Node000005"><a xlink:title=" ">
<path fill="none" stroke="#63b8ff" d="M402.84,-686.25C389.08,-675.89 371.83,-661.17 360,-645 353.31,-635.86 347.07,-626.03 341.26,-615.86"/>
<polygon fill="none" stroke="#63b8ff" points="341.16,-615.68 334.76,-612.35 335.37,-605.16 341.77,-608.49 341.16,-615.68"/>
</a>
</g>
<text text-anchor="middle" x="419" y="-637" font-family="Helvetica,sans-Serif" font-size="10.00" fill="grey"> #mNormalNoiseMean</text>
<text text-anchor="middle" x="419" y="-626" font-family="Helvetica,sans-Serif" font-size="10.00" fill="grey">#mNormalNoiseStdDev</text>
</g>
</g>
</svg>
