<?xml version="1.0" encoding="UTF-8" standalone="no"?>
<!DOCTYPE svg PUBLIC "-//W3C//DTD SVG 1.1//EN"
 "http://www.w3.org/Graphics/SVG/1.1/DTD/svg11.dtd">
<!-- Generated by graphviz version 2.43.0 (0)
 -->
<!-- Title: ImmersedBoundaryKinematicFeedbackForce&lt; DIM &gt; Pages: 1 -->
<svg width="185pt" height="708pt"
 viewBox="0.00 0.00 185.00 708.00" xmlns="http://www.w3.org/2000/svg" xmlns:xlink="http://www.w3.org/1999/xlink">
<g id="graph0" class="graph" transform="scale(1 1) rotate(0) translate(4 704)">
<title>ImmersedBoundaryKinematicFeedbackForce&lt; DIM &gt;</title>
<!-- Node1 -->
<g id="Node000001" class="node">
<title>Node1</title>
<g id="a_Node000001"><a xlink:title=" ">
<polygon fill="#999999" stroke="transparent" points="177,-250 0,-250 0,0 177,0 177,-250"/>
<text text-anchor="start" x="16" y="-238" font-family="Helvetica,sans-Serif" font-size="10.00">ImmersedBoundaryKinematic</text>
<text text-anchor="start" x="31.5" y="-227" font-family="Helvetica,sans-Serif" font-size="10.00">FeedbackForce&lt; DIM &gt;</text>
<text text-anchor="start" x="7" y="-212" font-family="Helvetica,sans-Serif" font-size="10.00">&#45;</text>
<text text-anchor="start" x="17.5" y="-212" font-family="Helvetica,sans-Serif" font-size="10.00">mSpringConst</text>
<text text-anchor="start" x="7" y="-197" font-family="Helvetica,sans-Serif" font-size="10.00">&#45;</text>
<text text-anchor="start" x="17.5" y="-197" font-family="Helvetica,sans-Serif" font-size="10.00">mPreviousLocations</text>
<text text-anchor="start" x="4.5" y="-182" font-family="Helvetica,sans-Serif" font-size="10.00">+</text>
<text text-anchor="start" x="17.5" y="-182" font-family="Helvetica,sans-Serif" font-size="10.00">ImmersedBoundaryKinematic</text>
<text text-anchor="start" x="17.5" y="-171" font-family="Helvetica,sans-Serif" font-size="10.00">FeedbackForce()</text>
<text text-anchor="start" x="4.5" y="-156" font-family="Helvetica,sans-Serif" font-size="10.00">+</text>
<text text-anchor="start" x="17.5" y="-156" font-family="Helvetica,sans-Serif" font-size="10.00">~ImmersedBoundaryKinematic</text>
<text text-anchor="start" x="17.5" y="-145" font-family="Helvetica,sans-Serif" font-size="10.00">FeedbackForce()</text>
<text text-anchor="start" x="4.5" y="-130" font-family="Helvetica,sans-Serif" font-size="10.00">+</text>
<text text-anchor="start" x="17.5" y="-130" font-family="Helvetica,sans-Serif" font-size="10.00">AddImmersedBoundaryForce</text>
<text text-anchor="start" x="17.5" y="-119" font-family="Helvetica,sans-Serif" font-size="10.00">Contribution()</text>
<text text-anchor="start" x="4.5" y="-104" font-family="Helvetica,sans-Serif" font-size="10.00">+</text>
<text text-anchor="start" x="17.5" y="-104" font-family="Helvetica,sans-Serif" font-size="10.00">OutputImmersedBoundaryForce</text>
<text text-anchor="start" x="17.5" y="-93" font-family="Helvetica,sans-Serif" font-size="10.00">Parameters()</text>
<text text-anchor="start" x="4.5" y="-78" font-family="Helvetica,sans-Serif" font-size="10.00">+</text>
<text text-anchor="start" x="17.5" y="-78" font-family="Helvetica,sans-Serif" font-size="10.00">GetSpringConst()</text>
<text text-anchor="start" x="4.5" y="-63" font-family="Helvetica,sans-Serif" font-size="10.00">+</text>
<text text-anchor="start" x="17.5" y="-63" font-family="Helvetica,sans-Serif" font-size="10.00">SetSpringConst()</text>
<text text-anchor="start" x="7" y="-48" font-family="Helvetica,sans-Serif" font-size="10.00">&#45;</text>
<text text-anchor="start" x="17.5" y="-48" font-family="Helvetica,sans-Serif" font-size="10.00">serialize()</text>
<text text-anchor="start" x="7" y="-33" font-family="Helvetica,sans-Serif" font-size="10.00">&#45;</text>
<text text-anchor="start" x="17.5" y="-33" font-family="Helvetica,sans-Serif" font-size="10.00">UpdatePreviousLocations()</text>
<text text-anchor="start" x="7" y="-18" font-family="Helvetica,sans-Serif" font-size="10.00">&#45;</text>
<text text-anchor="start" x="17.5" y="-18" font-family="Helvetica,sans-Serif" font-size="10.00">CalculateRelativeVelocity</text>
<text text-anchor="start" x="17.5" y="-7" font-family="Helvetica,sans-Serif" font-size="10.00">Component()</text>
<polygon fill="#666666" stroke="#666666" points="0.5,-222 0.5,-222 177.5,-222 177.5,-222 0.5,-222"/>
<polygon fill="#666666" stroke="#666666" points="0.5,-192 0.5,-192 15.5,-192 15.5,-192 0.5,-192"/>
<polygon fill="#666666" stroke="#666666" points="15.5,-192 15.5,-192 177.5,-192 177.5,-192 15.5,-192"/>
<polygon fill="none" stroke="#666666" points="0,0 0,-250 177,-250 177,0 0,0"/>
</a>
</g>
</g>
<!-- Node2 -->
<g id="Node000002" class="node">
<title>Node2</title>
<g id="a_Node000002"><a xlink:href="classAbstractImmersedBoundaryForce.html" target="_top" xlink:title=" ">
<polygon fill="white" stroke="transparent" points="177,-585 0,-585 0,-286 177,-286 177,-585"/>
<text text-anchor="start" x="20.5" y="-572.5" font-family="Helvetica,sans-Serif" font-size="10.00">AbstractImmersedBoundary</text>
<text text-anchor="start" x="54.5" y="-561.5" font-family="Helvetica,sans-Serif" font-size="10.00">Force&lt; DIM &gt;</text>
<text text-anchor="start" x="4.5" y="-546.5" font-family="Helvetica,sans-Serif" font-size="10.00">#</text>
<text text-anchor="start" x="17.5" y="-546.5" font-family="Helvetica,sans-Serif" font-size="10.00">mAdditiveNormalNoise</text>
<text text-anchor="start" x="4.5" y="-531.5" font-family="Helvetica,sans-Serif" font-size="10.00">#</text>
<text text-anchor="start" x="17.5" y="-531.5" font-family="Helvetica,sans-Serif" font-size="10.00">mNormalNoiseMean</text>
<text text-anchor="start" x="4.5" y="-516.5" font-family="Helvetica,sans-Serif" font-size="10.00">#</text>
<text text-anchor="start" x="17.5" y="-516.5" font-family="Helvetica,sans-Serif" font-size="10.00">mNormalNoiseStdDev</text>
<text text-anchor="start" x="4.5" y="-501.5" font-family="Helvetica,sans-Serif" font-size="10.00">+</text>
<text text-anchor="start" x="17.5" y="-501.5" font-family="Helvetica,sans-Serif" font-size="10.00">AbstractImmersedBoundary</text>
<text text-anchor="start" x="17.5" y="-490.5" font-family="Helvetica,sans-Serif" font-size="10.00">Force()</text>
<text text-anchor="start" x="4.5" y="-475.5" font-family="Helvetica,sans-Serif" font-size="10.00">+</text>
<text text-anchor="start" x="17.5" y="-475.5" font-family="Helvetica,sans-Serif" font-size="10.00">~AbstractImmersedBoundary</text>
<text text-anchor="start" x="17.5" y="-464.5" font-family="Helvetica,sans-Serif" font-size="10.00">Force()</text>
<text text-anchor="start" x="4.5" y="-449.5" font-family="Helvetica,sans-Serif" font-size="10.00">+</text>
<text text-anchor="start" x="17.5" y="-449.5" font-family="Helvetica,sans-Serif" font-size="10.00">AddImmersedBoundaryForce</text>
<text text-anchor="start" x="17.5" y="-438.5" font-family="Helvetica,sans-Serif" font-size="10.00">Contribution()</text>
<text text-anchor="start" x="4.5" y="-423.5" font-family="Helvetica,sans-Serif" font-size="10.00">+</text>
<text text-anchor="start" x="17.5" y="-423.5" font-family="Helvetica,sans-Serif" font-size="10.00">OutputImmersedBoundaryForce</text>
<text text-anchor="start" x="17.5" y="-412.5" font-family="Helvetica,sans-Serif" font-size="10.00">Parameters()</text>
<text text-anchor="start" x="4.5" y="-397.5" font-family="Helvetica,sans-Serif" font-size="10.00">+</text>
<text text-anchor="start" x="17.5" y="-397.5" font-family="Helvetica,sans-Serif" font-size="10.00">GetAdditiveNormalNoise()</text>
<text text-anchor="start" x="4.5" y="-382.5" font-family="Helvetica,sans-Serif" font-size="10.00">+</text>
<text text-anchor="start" x="17.5" y="-382.5" font-family="Helvetica,sans-Serif" font-size="10.00">SetAdditiveNormalNoise()</text>
<text text-anchor="start" x="4.5" y="-367.5" font-family="Helvetica,sans-Serif" font-size="10.00">+</text>
<text text-anchor="start" x="17.5" y="-367.5" font-family="Helvetica,sans-Serif" font-size="10.00">GetNormalNoiseMean()</text>
<text text-anchor="start" x="4.5" y="-352.5" font-family="Helvetica,sans-Serif" font-size="10.00">+</text>
<text text-anchor="start" x="17.5" y="-352.5" font-family="Helvetica,sans-Serif" font-size="10.00">SetNormalNoiseMean()</text>
<text text-anchor="start" x="4.5" y="-337.5" font-family="Helvetica,sans-Serif" font-size="10.00">+</text>
<text text-anchor="start" x="17.5" y="-337.5" font-family="Helvetica,sans-Serif" font-size="10.00">GetNormalNoiseStdDev()</text>
<text text-anchor="start" x="4.5" y="-322.5" font-family="Helvetica,sans-Serif" font-size="10.00">+</text>
<text text-anchor="start" x="17.5" y="-322.5" font-family="Helvetica,sans-Serif" font-size="10.00">SetNormalNoiseStdDev()</text>
<text text-anchor="start" x="4.5" y="-307.5" font-family="Helvetica,sans-Serif" font-size="10.00">#</text>
<text text-anchor="start" x="17.5" y="-307.5" font-family="Helvetica,sans-Serif" font-size="10.00">AddNormalNoiseToNodes()</text>
<text text-anchor="start" x="7" y="-292.5" font-family="Helvetica,sans-Serif" font-size="10.00">&#45;</text>
<text text-anchor="start" x="17.5" y="-292.5" font-family="Helvetica,sans-Serif" font-size="10.00">serialize()</text>
<polygon fill="#666666" stroke="#666666" points="0.5,-556.5 0.5,-556.5 177.5,-556.5 177.5,-556.5 0.5,-556.5"/>
<polygon fill="#666666" stroke="#666666" points="0.5,-511.5 0.5,-511.5 15.5,-511.5 15.5,-511.5 0.5,-511.5"/>
<polygon fill="#666666" stroke="#666666" points="15.5,-511.5 15.5,-511.5 177.5,-511.5 177.5,-511.5 15.5,-511.5"/>
<polygon fill="none" stroke="#666666" points="0,-286 0,-585 177,-585 177,-286 0,-286"/>
</a>
</g>
</g>
<!-- Node2&#45;&gt;Node1 -->
<g id="edge1_Node000001_Node000002" class="edge">
<title>Node2&#45;&gt;Node1</title>
<g id="a_edge1_Node000001_Node000002"><a xlink:title=" ">
<path fill="none" stroke="#63b8ff" d="M88.5,-275.66C88.5,-267.13 88.5,-258.62 88.5,-250.23"/>
<polygon fill="none" stroke="#63b8ff" points="85,-275.67 88.5,-285.67 92,-275.67 85,-275.67"/>
</a>
</g>
</g>
<!-- Node3 -->
<g id="Node000003" class="node">
<title>Node3</title>
<g id="a_Node000003"><a xlink:href="classIdentifiable.html" target="_top" xlink:title=" ">
<polygon fill="white" stroke="transparent" points="176.5,-700 0.5,-700 0.5,-621 176.5,-621 176.5,-700"/>
<text text-anchor="start" x="61" y="-687.5" font-family="Helvetica,sans-Serif" font-size="10.00">Identifiable</text>
<text text-anchor="start" x="86.5" y="-672.5" font-family="Helvetica,sans-Serif" font-size="10.00"> </text>
<text text-anchor="start" x="4.5" y="-657.5" font-family="Helvetica,sans-Serif" font-size="10.00">+</text>
<text text-anchor="start" x="17.5" y="-657.5" font-family="Helvetica,sans-Serif" font-size="10.00">~Identifiable()</text>
<text text-anchor="start" x="4.5" y="-642.5" font-family="Helvetica,sans-Serif" font-size="10.00">+</text>
<text text-anchor="start" x="17.5" y="-642.5" font-family="Helvetica,sans-Serif" font-size="10.00">GetIdentifier()</text>
<text text-anchor="start" x="7" y="-627.5" font-family="Helvetica,sans-Serif" font-size="10.00">&#45;</text>
<text text-anchor="start" x="17.5" y="-627.5" font-family="Helvetica,sans-Serif" font-size="10.00">TidyTemplatedExportIdentifier()</text>
<polygon fill="#666666" stroke="#666666" points="0.5,-682.5 0.5,-682.5 176.5,-682.5 176.5,-682.5 0.5,-682.5"/>
<polygon fill="#666666" stroke="#666666" points="0.5,-667.5 0.5,-667.5 176.5,-667.5 176.5,-667.5 0.5,-667.5"/>
<polygon fill="none" stroke="#666666" points="0.5,-621 0.5,-700 176.5,-700 176.5,-621 0.5,-621"/>
</a>
</g>
</g>
<!-- Node3&#45;&gt;Node2 -->
<g id="edge2_Node000002_Node000003" class="edge">
<title>Node3&#45;&gt;Node2</title>
<g id="a_edge2_Node000002_Node000003"><a xlink:title=" ">
<path fill="none" stroke="#63b8ff" d="M88.5,-610.81C88.5,-602.83 88.5,-594.22 88.5,-585.24"/>
<polygon fill="none" stroke="#63b8ff" points="85,-610.91 88.5,-620.91 92,-610.91 85,-610.91"/>
</a>
</g>
</g>
</g>
</svg>
