<?xml version="1.0" encoding="UTF-8" standalone="no"?>
<!DOCTYPE svg PUBLIC "-//W3C//DTD SVG 1.1//EN"
 "http://www.w3.org/Graphics/SVG/1.1/DTD/svg11.dtd">
<!-- Generated by graphviz version 2.43.0 (0)
 -->
<!-- Title: FitzHughNagumo1961OdeSystem Pages: 1 -->
<svg width="476pt" height="1707pt"
 viewBox="0.00 0.00 476.00 1707.00" xmlns="http://www.w3.org/2000/svg" xmlns:xlink="http://www.w3.org/1999/xlink">
<g id="graph0" class="graph" transform="scale(1 1) rotate(0) translate(4 1703)">
<title>FitzHughNagumo1961OdeSystem</title>
<!-- Node1 -->
<g id="Node000001" class="node">
<title>Node1</title>
<g id="a_Node000001"><a xlink:title=" ">
<polygon fill="#999999" stroke="transparent" points="206.5,-124 4.5,-124 4.5,0 206.5,0 206.5,-124"/>
<text text-anchor="start" x="23" y="-112" font-family="Helvetica,sans-Serif" font-size="10.00">FitzHughNagumo1961OdeSystem</text>
<text text-anchor="start" x="11" y="-97" font-family="Helvetica,sans-Serif" font-size="10.00">&#45;</text>
<text text-anchor="start" x="21.5" y="-97" font-family="Helvetica,sans-Serif" font-size="10.00">mAlpha</text>
<text text-anchor="start" x="11" y="-82" font-family="Helvetica,sans-Serif" font-size="10.00">&#45;</text>
<text text-anchor="start" x="21.5" y="-82" font-family="Helvetica,sans-Serif" font-size="10.00">mGamma</text>
<text text-anchor="start" x="11" y="-67" font-family="Helvetica,sans-Serif" font-size="10.00">&#45;</text>
<text text-anchor="start" x="21.5" y="-67" font-family="Helvetica,sans-Serif" font-size="10.00">mEpsilon</text>
<text text-anchor="start" x="8.5" y="-52" font-family="Helvetica,sans-Serif" font-size="10.00">+</text>
<text text-anchor="start" x="21.5" y="-52" font-family="Helvetica,sans-Serif" font-size="10.00">FitzHughNagumo1961OdeSystem()</text>
<text text-anchor="start" x="8.5" y="-37" font-family="Helvetica,sans-Serif" font-size="10.00">+</text>
<text text-anchor="start" x="21.5" y="-37" font-family="Helvetica,sans-Serif" font-size="10.00">~FitzHughNagumo1961OdeSystem()</text>
<text text-anchor="start" x="8.5" y="-22" font-family="Helvetica,sans-Serif" font-size="10.00">+</text>
<text text-anchor="start" x="21.5" y="-22" font-family="Helvetica,sans-Serif" font-size="10.00">EvaluateYDerivatives()</text>
<text text-anchor="start" x="8.5" y="-7" font-family="Helvetica,sans-Serif" font-size="10.00">+</text>
<text text-anchor="start" x="21.5" y="-7" font-family="Helvetica,sans-Serif" font-size="10.00">GetIIonic()</text>
<polygon fill="#666666" stroke="#666666" points="4.5,-107 4.5,-107 206.5,-107 206.5,-107 4.5,-107"/>
<polygon fill="#666666" stroke="#666666" points="4.5,-62 4.5,-62 19.5,-62 19.5,-62 4.5,-62"/>
<polygon fill="#666666" stroke="#666666" points="19.5,-62 19.5,-62 206.5,-62 206.5,-62 19.5,-62"/>
<polygon fill="none" stroke="#666666" points="4.5,0 4.5,-124 206.5,-124 206.5,0 4.5,0"/>
</a>
</g>
</g>
<!-- Node2 -->
<g id="Node000002" class="node">
<title>Node2</title>
<g id="a_Node000002"><a xlink:href="classAbstractCardiacCell.html" target="_top" xlink:title=" ">
<polygon fill="white" stroke="transparent" points="189,-390 22,-390 22,-161 189,-161 189,-390"/>
<text text-anchor="start" x="57.5" y="-377.5" font-family="Helvetica,sans-Serif" font-size="10.00">AbstractCardiacCell</text>
<text text-anchor="start" x="26.5" y="-362.5" font-family="Helvetica,sans-Serif" font-size="10.00">#</text>
<text text-anchor="start" x="39.5" y="-362.5" font-family="Helvetica,sans-Serif" font-size="10.00">mDt</text>
<text text-anchor="start" x="26.5" y="-347.5" font-family="Helvetica,sans-Serif" font-size="10.00">+</text>
<text text-anchor="start" x="39.5" y="-347.5" font-family="Helvetica,sans-Serif" font-size="10.00">AbstractCardiacCell()</text>
<text text-anchor="start" x="26.5" y="-332.5" font-family="Helvetica,sans-Serif" font-size="10.00">+</text>
<text text-anchor="start" x="39.5" y="-332.5" font-family="Helvetica,sans-Serif" font-size="10.00">~AbstractCardiacCell()</text>
<text text-anchor="start" x="26.5" y="-317.5" font-family="Helvetica,sans-Serif" font-size="10.00">+</text>
<text text-anchor="start" x="39.5" y="-317.5" font-family="Helvetica,sans-Serif" font-size="10.00">Init()</text>
<text text-anchor="start" x="26.5" y="-302.5" font-family="Helvetica,sans-Serif" font-size="10.00">+</text>
<text text-anchor="start" x="39.5" y="-302.5" font-family="Helvetica,sans-Serif" font-size="10.00">SetTimestep()</text>
<text text-anchor="start" x="26.5" y="-287.5" font-family="Helvetica,sans-Serif" font-size="10.00">+</text>
<text text-anchor="start" x="39.5" y="-287.5" font-family="Helvetica,sans-Serif" font-size="10.00">SolveAndUpdateState()</text>
<text text-anchor="start" x="26.5" y="-272.5" font-family="Helvetica,sans-Serif" font-size="10.00">+</text>
<text text-anchor="start" x="39.5" y="-272.5" font-family="Helvetica,sans-Serif" font-size="10.00">Compute()</text>
<text text-anchor="start" x="26.5" y="-257.5" font-family="Helvetica,sans-Serif" font-size="10.00">+</text>
<text text-anchor="start" x="39.5" y="-257.5" font-family="Helvetica,sans-Serif" font-size="10.00">ComputeExceptVoltage()</text>
<text text-anchor="start" x="26.5" y="-242.5" font-family="Helvetica,sans-Serif" font-size="10.00">+</text>
<text text-anchor="start" x="39.5" y="-242.5" font-family="Helvetica,sans-Serif" font-size="10.00">SetVoltage()</text>
<text text-anchor="start" x="26.5" y="-227.5" font-family="Helvetica,sans-Serif" font-size="10.00">+</text>
<text text-anchor="start" x="39.5" y="-227.5" font-family="Helvetica,sans-Serif" font-size="10.00">GetVoltage()</text>
<text text-anchor="start" x="26.5" y="-212.5" font-family="Helvetica,sans-Serif" font-size="10.00">+</text>
<text text-anchor="start" x="39.5" y="-212.5" font-family="Helvetica,sans-Serif" font-size="10.00">GetNumberOfStateVariables()</text>
<text text-anchor="start" x="39.5" y="-197.5" font-family="Helvetica,sans-Serif" font-size="10.00">and 16 more...</text>
<text text-anchor="start" x="29" y="-182.5" font-family="Helvetica,sans-Serif" font-size="10.00">&#45;</text>
<text text-anchor="start" x="39.5" y="-182.5" font-family="Helvetica,sans-Serif" font-size="10.00">serialize()</text>
<text text-anchor="start" x="29" y="-167.5" font-family="Helvetica,sans-Serif" font-size="10.00">&#45;</text>
<text text-anchor="start" x="39.5" y="-167.5" font-family="Helvetica,sans-Serif" font-size="10.00">CheckForArchiveFix()</text>
<polygon fill="#666666" stroke="#666666" points="22.5,-372.5 22.5,-372.5 189.5,-372.5 189.5,-372.5 22.5,-372.5"/>
<polygon fill="#666666" stroke="#666666" points="22.5,-357.5 22.5,-357.5 37.5,-357.5 37.5,-357.5 22.5,-357.5"/>
<polygon fill="#666666" stroke="#666666" points="37.5,-357.5 37.5,-357.5 189.5,-357.5 189.5,-357.5 37.5,-357.5"/>
<polygon fill="none" stroke="#666666" points="22,-161 22,-390 189,-390 189,-161 22,-161"/>
</a>
</g>
</g>
<!-- Node2&#45;&gt;Node1 -->
<g id="edge1_Node000001_Node000002" class="edge">
<title>Node2&#45;&gt;Node1</title>
<g id="a_edge1_Node000001_Node000002"><a xlink:title=" ">
<path fill="none" stroke="#63b8ff" d="M105.5,-150.7C105.5,-141.53 105.5,-132.55 105.5,-124.05"/>
<polygon fill="none" stroke="#63b8ff" points="102,-150.7 105.5,-160.7 109,-150.7 102,-150.7"/>
</a>
</g>
</g>
<!-- Node3 -->
<g id="Node000003" class="node">
<title>Node3</title>
<g id="a_Node000003"><a xlink:href="classAbstractCardiacCellInterface.html" target="_top" xlink:title=" ">
<polygon fill="white" stroke="transparent" points="187,-731 0,-731 0,-427 187,-427 187,-731"/>
<text text-anchor="start" x="24" y="-719" font-family="Helvetica,sans-Serif" font-size="10.00">AbstractCardiacCellInterface</text>
<text text-anchor="start" x="4.5" y="-704" font-family="Helvetica,sans-Serif" font-size="10.00">#</text>
<text text-anchor="start" x="17.5" y="-704" font-family="Helvetica,sans-Serif" font-size="10.00">mVoltageIndex</text>
<text text-anchor="start" x="4.5" y="-689" font-family="Helvetica,sans-Serif" font-size="10.00">#</text>
<text text-anchor="start" x="17.5" y="-689" font-family="Helvetica,sans-Serif" font-size="10.00">mpOdeSolver</text>
<text text-anchor="start" x="4.5" y="-674" font-family="Helvetica,sans-Serif" font-size="10.00">#</text>
<text text-anchor="start" x="17.5" y="-674" font-family="Helvetica,sans-Serif" font-size="10.00">mpIntracellularStimulus</text>
<text text-anchor="start" x="4.5" y="-659" font-family="Helvetica,sans-Serif" font-size="10.00">#</text>
<text text-anchor="start" x="17.5" y="-659" font-family="Helvetica,sans-Serif" font-size="10.00">mSetVoltageDerivativeToZero</text>
<text text-anchor="start" x="4.5" y="-644" font-family="Helvetica,sans-Serif" font-size="10.00">#</text>
<text text-anchor="start" x="17.5" y="-644" font-family="Helvetica,sans-Serif" font-size="10.00">mIsUsedInTissue</text>
<text text-anchor="start" x="4.5" y="-629" font-family="Helvetica,sans-Serif" font-size="10.00">#</text>
<text text-anchor="start" x="17.5" y="-629" font-family="Helvetica,sans-Serif" font-size="10.00">mHasDefaultStimulusFromCellML</text>
<text text-anchor="start" x="4.5" y="-614" font-family="Helvetica,sans-Serif" font-size="10.00">#</text>
<text text-anchor="start" x="17.5" y="-614" font-family="Helvetica,sans-Serif" font-size="10.00">mFixedVoltage</text>
<text text-anchor="start" x="4.5" y="-599" font-family="Helvetica,sans-Serif" font-size="10.00">+</text>
<text text-anchor="start" x="17.5" y="-599" font-family="Helvetica,sans-Serif" font-size="10.00">AbstractCardiacCellInterface()</text>
<text text-anchor="start" x="4.5" y="-584" font-family="Helvetica,sans-Serif" font-size="10.00">+</text>
<text text-anchor="start" x="17.5" y="-584" font-family="Helvetica,sans-Serif" font-size="10.00">~AbstractCardiacCellInterface()</text>
<text text-anchor="start" x="4.5" y="-569" font-family="Helvetica,sans-Serif" font-size="10.00">+</text>
<text text-anchor="start" x="17.5" y="-569" font-family="Helvetica,sans-Serif" font-size="10.00">SetTimestep()</text>
<text text-anchor="start" x="4.5" y="-554" font-family="Helvetica,sans-Serif" font-size="10.00">+</text>
<text text-anchor="start" x="17.5" y="-554" font-family="Helvetica,sans-Serif" font-size="10.00">GetNumberOfStateVariables()</text>
<text text-anchor="start" x="4.5" y="-539" font-family="Helvetica,sans-Serif" font-size="10.00">+</text>
<text text-anchor="start" x="17.5" y="-539" font-family="Helvetica,sans-Serif" font-size="10.00">GetNumberOfParameters()</text>
<text text-anchor="start" x="4.5" y="-524" font-family="Helvetica,sans-Serif" font-size="10.00">+</text>
<text text-anchor="start" x="17.5" y="-524" font-family="Helvetica,sans-Serif" font-size="10.00">GetStdVecStateVariables()</text>
<text text-anchor="start" x="4.5" y="-509" font-family="Helvetica,sans-Serif" font-size="10.00">+</text>
<text text-anchor="start" x="17.5" y="-509" font-family="Helvetica,sans-Serif" font-size="10.00">rGetStateVariableNames()</text>
<text text-anchor="start" x="4.5" y="-494" font-family="Helvetica,sans-Serif" font-size="10.00">+</text>
<text text-anchor="start" x="17.5" y="-494" font-family="Helvetica,sans-Serif" font-size="10.00">SetStateVariables()</text>
<text text-anchor="start" x="4.5" y="-479" font-family="Helvetica,sans-Serif" font-size="10.00">+</text>
<text text-anchor="start" x="17.5" y="-479" font-family="Helvetica,sans-Serif" font-size="10.00">SetStateVariable()</text>
<text text-anchor="start" x="4.5" y="-464" font-family="Helvetica,sans-Serif" font-size="10.00">+</text>
<text text-anchor="start" x="17.5" y="-464" font-family="Helvetica,sans-Serif" font-size="10.00">SetStateVariable()</text>
<text text-anchor="start" x="17.5" y="-449" font-family="Helvetica,sans-Serif" font-size="10.00">and 28 more...</text>
<text text-anchor="start" x="7" y="-434" font-family="Helvetica,sans-Serif" font-size="10.00">&#45;</text>
<text text-anchor="start" x="17.5" y="-434" font-family="Helvetica,sans-Serif" font-size="10.00">serialize()</text>
<polygon fill="#666666" stroke="#666666" points="0.5,-714 0.5,-714 187.5,-714 187.5,-714 0.5,-714"/>
<polygon fill="#666666" stroke="#666666" points="0.5,-609 0.5,-609 15.5,-609 15.5,-609 0.5,-609"/>
<polygon fill="#666666" stroke="#666666" points="15.5,-609 15.5,-609 187.5,-609 187.5,-609 15.5,-609"/>
<polygon fill="none" stroke="#666666" points="0,-427 0,-731 187,-731 187,-427 0,-427"/>
</a>
</g>
</g>
<!-- Node3&#45;&gt;Node2 -->
<g id="edge2_Node000002_Node000003" class="edge">
<title>Node3&#45;&gt;Node2</title>
<g id="a_edge2_Node000002_Node000003"><a xlink:title=" ">
<path fill="none" stroke="#63b8ff" d="M99.92,-416.69C100.28,-407.74 100.63,-398.85 100.98,-390.13"/>
<polygon fill="none" stroke="#63b8ff" points="96.42,-416.68 99.52,-426.81 103.41,-416.96 96.42,-416.68"/>
</a>
</g>
</g>
<!-- Node4 -->
<g id="Node000004" class="node">
<title>Node4</title>
<g id="a_Node000004"><a xlink:href="classAbstractOdeSystem.html" target="_top" xlink:title=" ">
<polygon fill="white" stroke="transparent" points="353.5,-663.5 205.5,-663.5 205.5,-494.5 353.5,-494.5 353.5,-663.5"/>
<text text-anchor="start" x="231" y="-651" font-family="Helvetica,sans-Serif" font-size="10.00">AbstractOdeSystem</text>
<text text-anchor="start" x="209.5" y="-636" font-family="Helvetica,sans-Serif" font-size="10.00">#</text>
<text text-anchor="start" x="222.5" y="-636" font-family="Helvetica,sans-Serif" font-size="10.00">mUseAnalyticJacobian</text>
<text text-anchor="start" x="209.5" y="-621" font-family="Helvetica,sans-Serif" font-size="10.00">+</text>
<text text-anchor="start" x="222.5" y="-621" font-family="Helvetica,sans-Serif" font-size="10.00">AbstractOdeSystem()</text>
<text text-anchor="start" x="209.5" y="-606" font-family="Helvetica,sans-Serif" font-size="10.00">+</text>
<text text-anchor="start" x="222.5" y="-606" font-family="Helvetica,sans-Serif" font-size="10.00">~AbstractOdeSystem()</text>
<text text-anchor="start" x="209.5" y="-591" font-family="Helvetica,sans-Serif" font-size="10.00">+</text>
<text text-anchor="start" x="222.5" y="-591" font-family="Helvetica,sans-Serif" font-size="10.00">EvaluateYDerivatives()</text>
<text text-anchor="start" x="209.5" y="-576" font-family="Helvetica,sans-Serif" font-size="10.00">+</text>
<text text-anchor="start" x="222.5" y="-576" font-family="Helvetica,sans-Serif" font-size="10.00">CalculateStoppingEvent()</text>
<text text-anchor="start" x="209.5" y="-561" font-family="Helvetica,sans-Serif" font-size="10.00">+</text>
<text text-anchor="start" x="222.5" y="-561" font-family="Helvetica,sans-Serif" font-size="10.00">CalculateRootFunction()</text>
<text text-anchor="start" x="209.5" y="-546" font-family="Helvetica,sans-Serif" font-size="10.00">+</text>
<text text-anchor="start" x="222.5" y="-546" font-family="Helvetica,sans-Serif" font-size="10.00">GetUseAnalyticJacobian()</text>
<text text-anchor="start" x="209.5" y="-531" font-family="Helvetica,sans-Serif" font-size="10.00">+</text>
<text text-anchor="start" x="222.5" y="-531" font-family="Helvetica,sans-Serif" font-size="10.00">rGetConstStateVariables()</text>
<text text-anchor="start" x="212" y="-516" font-family="Helvetica,sans-Serif" font-size="10.00">&#45;</text>
<text text-anchor="start" x="222.5" y="-516" font-family="Helvetica,sans-Serif" font-size="10.00">save()</text>
<text text-anchor="start" x="212" y="-501" font-family="Helvetica,sans-Serif" font-size="10.00">&#45;</text>
<text text-anchor="start" x="222.5" y="-501" font-family="Helvetica,sans-Serif" font-size="10.00">load()</text>
<polygon fill="#666666" stroke="#666666" points="205.5,-646 205.5,-646 353.5,-646 353.5,-646 205.5,-646"/>
<polygon fill="#666666" stroke="#666666" points="205.5,-631 205.5,-631 220.5,-631 220.5,-631 205.5,-631"/>
<polygon fill="#666666" stroke="#666666" points="220.5,-631 220.5,-631 353.5,-631 353.5,-631 220.5,-631"/>
<polygon fill="none" stroke="#666666" points="205.5,-494.5 205.5,-663.5 353.5,-663.5 353.5,-494.5 205.5,-494.5"/>
</a>
</g>
</g>
<!-- Node4&#45;&gt;Node2 -->
<g id="edge3_Node000002_Node000004" class="edge">
<title>Node4&#45;&gt;Node2</title>
<g id="a_edge3_Node000002_Node000004"><a xlink:title=" ">
<path fill="none" stroke="#63b8ff" d="M228.61,-485.44C217.79,-466.07 206.36,-445.81 195.5,-427 188.58,-415 181.27,-402.51 173.94,-390.09"/>
<polygon fill="none" stroke="#63b8ff" points="225.6,-487.24 233.53,-494.27 231.72,-483.83 225.6,-487.24"/>
</a>
</g>
</g>
<!-- Node5 -->
<g id="Node000005" class="node">
<title>Node5</title>
<g id="a_Node000005"><a xlink:href="classAbstractParameterisedSystem.html" target="_top" xlink:title=" ">
<polygon fill="white" stroke="transparent" points="368,-1068 191,-1068 191,-768 368,-768 368,-1068"/>
<text text-anchor="start" x="206" y="-1056" font-family="Helvetica,sans-Serif" font-size="10.00">AbstractParameterisedSystem</text>
<text text-anchor="start" x="215" y="-1045" font-family="Helvetica,sans-Serif" font-size="10.00">&lt; std::vector&lt; double &gt; &gt;</text>
<text text-anchor="start" x="195.5" y="-1030" font-family="Helvetica,sans-Serif" font-size="10.00">#</text>
<text text-anchor="start" x="208.5" y="-1030" font-family="Helvetica,sans-Serif" font-size="10.00">mStateVariables</text>
<text text-anchor="start" x="195.5" y="-1015" font-family="Helvetica,sans-Serif" font-size="10.00">#</text>
<text text-anchor="start" x="208.5" y="-1015" font-family="Helvetica,sans-Serif" font-size="10.00">mParameters</text>
<text text-anchor="start" x="195.5" y="-1000" font-family="Helvetica,sans-Serif" font-size="10.00">+</text>
<text text-anchor="start" x="208.5" y="-1000" font-family="Helvetica,sans-Serif" font-size="10.00">AbstractParameterisedSystem()</text>
<text text-anchor="start" x="195.5" y="-985" font-family="Helvetica,sans-Serif" font-size="10.00">+</text>
<text text-anchor="start" x="208.5" y="-985" font-family="Helvetica,sans-Serif" font-size="10.00">rGetStateVariables()</text>
<text text-anchor="start" x="195.5" y="-970" font-family="Helvetica,sans-Serif" font-size="10.00">+</text>
<text text-anchor="start" x="208.5" y="-970" font-family="Helvetica,sans-Serif" font-size="10.00">GetStateVariables()</text>
<text text-anchor="start" x="195.5" y="-955" font-family="Helvetica,sans-Serif" font-size="10.00">+</text>
<text text-anchor="start" x="208.5" y="-955" font-family="Helvetica,sans-Serif" font-size="10.00">SetStateVariables()</text>
<text text-anchor="start" x="195.5" y="-940" font-family="Helvetica,sans-Serif" font-size="10.00">+</text>
<text text-anchor="start" x="208.5" y="-940" font-family="Helvetica,sans-Serif" font-size="10.00">GetStateVariable()</text>
<text text-anchor="start" x="195.5" y="-925" font-family="Helvetica,sans-Serif" font-size="10.00">+</text>
<text text-anchor="start" x="208.5" y="-925" font-family="Helvetica,sans-Serif" font-size="10.00">GetStateVariable()</text>
<text text-anchor="start" x="195.5" y="-910" font-family="Helvetica,sans-Serif" font-size="10.00">+</text>
<text text-anchor="start" x="208.5" y="-910" font-family="Helvetica,sans-Serif" font-size="10.00">SetStateVariable()</text>
<text text-anchor="start" x="195.5" y="-895" font-family="Helvetica,sans-Serif" font-size="10.00">+</text>
<text text-anchor="start" x="208.5" y="-895" font-family="Helvetica,sans-Serif" font-size="10.00">SetStateVariable()</text>
<text text-anchor="start" x="195.5" y="-880" font-family="Helvetica,sans-Serif" font-size="10.00">+</text>
<text text-anchor="start" x="208.5" y="-880" font-family="Helvetica,sans-Serif" font-size="10.00">VerifyStateVariables()</text>
<text text-anchor="start" x="195.5" y="-865" font-family="Helvetica,sans-Serif" font-size="10.00">+</text>
<text text-anchor="start" x="208.5" y="-865" font-family="Helvetica,sans-Serif" font-size="10.00">SetDefaultInitialConditions()</text>
<text text-anchor="start" x="208.5" y="-850" font-family="Helvetica,sans-Serif" font-size="10.00">and 13 more...</text>
<text text-anchor="start" x="195.5" y="-835" font-family="Helvetica,sans-Serif" font-size="10.00">#</text>
<text text-anchor="start" x="208.5" y="-835" font-family="Helvetica,sans-Serif" font-size="10.00">DumpState()</text>
<text text-anchor="start" x="195.5" y="-820" font-family="Helvetica,sans-Serif" font-size="10.00">#</text>
<text text-anchor="start" x="208.5" y="-820" font-family="Helvetica,sans-Serif" font-size="10.00">DumpState()</text>
<text text-anchor="start" x="195.5" y="-805" font-family="Helvetica,sans-Serif" font-size="10.00">#</text>
<text text-anchor="start" x="208.5" y="-805" font-family="Helvetica,sans-Serif" font-size="10.00">DumpState()</text>
<text text-anchor="start" x="195.5" y="-790" font-family="Helvetica,sans-Serif" font-size="10.00">#</text>
<text text-anchor="start" x="208.5" y="-790" font-family="Helvetica,sans-Serif" font-size="10.00">CheckParametersOnLoad()</text>
<text text-anchor="start" x="198" y="-775" font-family="Helvetica,sans-Serif" font-size="10.00">&#45;</text>
<text text-anchor="start" x="208.5" y="-775" font-family="Helvetica,sans-Serif" font-size="10.00">GetStateMessage()</text>
<polygon fill="#666666" stroke="#666666" points="191.5,-1040 191.5,-1040 368.5,-1040 368.5,-1040 191.5,-1040"/>
<polygon fill="#666666" stroke="#666666" points="191.5,-1010 191.5,-1010 206.5,-1010 206.5,-1010 191.5,-1010"/>
<polygon fill="#666666" stroke="#666666" points="206.5,-1010 206.5,-1010 368.5,-1010 368.5,-1010 206.5,-1010"/>
<polygon fill="none" stroke="#666666" points="191,-768 191,-1068 368,-1068 368,-768 191,-768"/>
</a>
</g>
</g>
<!-- Node5&#45;&gt;Node4 -->
<g id="edge4_Node000004_Node000005" class="edge">
<title>Node5&#45;&gt;Node4</title>
<g id="a_edge4_Node000004_Node000005"><a xlink:title=" ">
<path fill="none" stroke="#63b8ff" d="M279.5,-757.64C279.5,-725.1 279.5,-692.11 279.5,-663.54"/>
<polygon fill="none" stroke="#63b8ff" points="276,-757.72 279.5,-767.72 283,-757.72 276,-757.72"/>
</a>
</g>
</g>
<!-- Node6 -->
<g id="Node000006" class="node">
<title>Node6</title>
<g id="a_Node000006"><a xlink:href="classAbstractUntemplatedParameterisedSystem.html" target="_top" xlink:title=" ">
<polygon fill="white" stroke="transparent" points="378,-1699 173,-1699 173,-1452 378,-1452 378,-1699"/>
<text text-anchor="start" x="188.5" y="-1686.5" font-family="Helvetica,sans-Serif" font-size="10.00">AbstractUntemplatedParameterised</text>
<text text-anchor="start" x="257.5" y="-1675.5" font-family="Helvetica,sans-Serif" font-size="10.00">System</text>
<text text-anchor="start" x="177.5" y="-1660.5" font-family="Helvetica,sans-Serif" font-size="10.00">#</text>
<text text-anchor="start" x="190.5" y="-1660.5" font-family="Helvetica,sans-Serif" font-size="10.00">mNumberOfStateVariables</text>
<text text-anchor="start" x="177.5" y="-1645.5" font-family="Helvetica,sans-Serif" font-size="10.00">#</text>
<text text-anchor="start" x="190.5" y="-1645.5" font-family="Helvetica,sans-Serif" font-size="10.00">mpSystemInfo</text>
<text text-anchor="start" x="177.5" y="-1630.5" font-family="Helvetica,sans-Serif" font-size="10.00">+</text>
<text text-anchor="start" x="190.5" y="-1630.5" font-family="Helvetica,sans-Serif" font-size="10.00">AbstractUntemplatedParameterised</text>
<text text-anchor="start" x="190.5" y="-1619.5" font-family="Helvetica,sans-Serif" font-size="10.00">System()</text>
<text text-anchor="start" x="177.5" y="-1604.5" font-family="Helvetica,sans-Serif" font-size="10.00">+</text>
<text text-anchor="start" x="190.5" y="-1604.5" font-family="Helvetica,sans-Serif" font-size="10.00">~AbstractUntemplatedParameterised</text>
<text text-anchor="start" x="190.5" y="-1593.5" font-family="Helvetica,sans-Serif" font-size="10.00">System()</text>
<text text-anchor="start" x="177.5" y="-1578.5" font-family="Helvetica,sans-Serif" font-size="10.00">+</text>
<text text-anchor="start" x="190.5" y="-1578.5" font-family="Helvetica,sans-Serif" font-size="10.00">GetSystemInformation()</text>
<text text-anchor="start" x="177.5" y="-1563.5" font-family="Helvetica,sans-Serif" font-size="10.00">+</text>
<text text-anchor="start" x="190.5" y="-1563.5" font-family="Helvetica,sans-Serif" font-size="10.00">GetSystemName()</text>
<text text-anchor="start" x="177.5" y="-1548.5" font-family="Helvetica,sans-Serif" font-size="10.00">+</text>
<text text-anchor="start" x="190.5" y="-1548.5" font-family="Helvetica,sans-Serif" font-size="10.00">GetNumberOfAttributes()</text>
<text text-anchor="start" x="177.5" y="-1533.5" font-family="Helvetica,sans-Serif" font-size="10.00">+</text>
<text text-anchor="start" x="190.5" y="-1533.5" font-family="Helvetica,sans-Serif" font-size="10.00">HasAttribute()</text>
<text text-anchor="start" x="177.5" y="-1518.5" font-family="Helvetica,sans-Serif" font-size="10.00">+</text>
<text text-anchor="start" x="190.5" y="-1518.5" font-family="Helvetica,sans-Serif" font-size="10.00">GetAttribute()</text>
<text text-anchor="start" x="177.5" y="-1503.5" font-family="Helvetica,sans-Serif" font-size="10.00">+</text>
<text text-anchor="start" x="190.5" y="-1503.5" font-family="Helvetica,sans-Serif" font-size="10.00">GetNumberOfStateVariables()</text>
<text text-anchor="start" x="177.5" y="-1488.5" font-family="Helvetica,sans-Serif" font-size="10.00">+</text>
<text text-anchor="start" x="190.5" y="-1488.5" font-family="Helvetica,sans-Serif" font-size="10.00">rGetStateVariableNames()</text>
<text text-anchor="start" x="177.5" y="-1473.5" font-family="Helvetica,sans-Serif" font-size="10.00">+</text>
<text text-anchor="start" x="190.5" y="-1473.5" font-family="Helvetica,sans-Serif" font-size="10.00">rGetStateVariableUnits()</text>
<text text-anchor="start" x="190.5" y="-1458.5" font-family="Helvetica,sans-Serif" font-size="10.00">and 20 more...</text>
<polygon fill="#666666" stroke="#666666" points="173.5,-1670.5 173.5,-1670.5 378.5,-1670.5 378.5,-1670.5 173.5,-1670.5"/>
<polygon fill="#666666" stroke="#666666" points="173.5,-1640.5 173.5,-1640.5 188.5,-1640.5 188.5,-1640.5 173.5,-1640.5"/>
<polygon fill="#666666" stroke="#666666" points="188.5,-1640.5 188.5,-1640.5 378.5,-1640.5 378.5,-1640.5 188.5,-1640.5"/>
<polygon fill="none" stroke="#666666" points="173,-1452 173,-1699 378,-1699 378,-1452 173,-1452"/>
</a>
</g>
</g>
<!-- Node6&#45;&gt;Node5 -->
<g id="edge5_Node000005_Node000006" class="edge">
<title>Node6&#45;&gt;Node5</title>
<g id="a_edge5_Node000005_Node000006"><a xlink:title=" ">
<path fill="none" stroke="#63b8ff" d="M276.31,-1441.97C276.97,-1333.72 277.9,-1180.77 278.59,-1068.23"/>
<polygon fill="none" stroke="#63b8ff" points="272.81,-1441.95 276.25,-1451.97 279.81,-1442 272.81,-1441.95"/>
</a>
</g>
</g>
<!-- Node7 -->
<g id="Node000007" class="node">
<title>Node7</title>
<g id="a_Node000007"><a xlink:href="classAbstractParameterisedSystem.html" target="_top" xlink:title=" ">
<polygon fill="white" stroke="transparent" points="468,-1415 291,-1415 291,-1115 468,-1115 468,-1415"/>
<text text-anchor="start" x="306" y="-1403" font-family="Helvetica,sans-Serif" font-size="10.00">AbstractParameterisedSystem</text>
<text text-anchor="start" x="348.5" y="-1392" font-family="Helvetica,sans-Serif" font-size="10.00">&lt; VECTOR &gt;</text>
<text text-anchor="start" x="295.5" y="-1377" font-family="Helvetica,sans-Serif" font-size="10.00">#</text>
<text text-anchor="start" x="308.5" y="-1377" font-family="Helvetica,sans-Serif" font-size="10.00">mStateVariables</text>
<text text-anchor="start" x="295.5" y="-1362" font-family="Helvetica,sans-Serif" font-size="10.00">#</text>
<text text-anchor="start" x="308.5" y="-1362" font-family="Helvetica,sans-Serif" font-size="10.00">mParameters</text>
<text text-anchor="start" x="295.5" y="-1347" font-family="Helvetica,sans-Serif" font-size="10.00">+</text>
<text text-anchor="start" x="308.5" y="-1347" font-family="Helvetica,sans-Serif" font-size="10.00">AbstractParameterisedSystem()</text>
<text text-anchor="start" x="295.5" y="-1332" font-family="Helvetica,sans-Serif" font-size="10.00">+</text>
<text text-anchor="start" x="308.5" y="-1332" font-family="Helvetica,sans-Serif" font-size="10.00">rGetStateVariables()</text>
<text text-anchor="start" x="295.5" y="-1317" font-family="Helvetica,sans-Serif" font-size="10.00">+</text>
<text text-anchor="start" x="308.5" y="-1317" font-family="Helvetica,sans-Serif" font-size="10.00">GetStateVariables()</text>
<text text-anchor="start" x="295.5" y="-1302" font-family="Helvetica,sans-Serif" font-size="10.00">+</text>
<text text-anchor="start" x="308.5" y="-1302" font-family="Helvetica,sans-Serif" font-size="10.00">SetStateVariables()</text>
<text text-anchor="start" x="295.5" y="-1287" font-family="Helvetica,sans-Serif" font-size="10.00">+</text>
<text text-anchor="start" x="308.5" y="-1287" font-family="Helvetica,sans-Serif" font-size="10.00">GetStateVariable()</text>
<text text-anchor="start" x="295.5" y="-1272" font-family="Helvetica,sans-Serif" font-size="10.00">+</text>
<text text-anchor="start" x="308.5" y="-1272" font-family="Helvetica,sans-Serif" font-size="10.00">GetStateVariable()</text>
<text text-anchor="start" x="295.5" y="-1257" font-family="Helvetica,sans-Serif" font-size="10.00">+</text>
<text text-anchor="start" x="308.5" y="-1257" font-family="Helvetica,sans-Serif" font-size="10.00">SetStateVariable()</text>
<text text-anchor="start" x="295.5" y="-1242" font-family="Helvetica,sans-Serif" font-size="10.00">+</text>
<text text-anchor="start" x="308.5" y="-1242" font-family="Helvetica,sans-Serif" font-size="10.00">SetStateVariable()</text>
<text text-anchor="start" x="295.5" y="-1227" font-family="Helvetica,sans-Serif" font-size="10.00">+</text>
<text text-anchor="start" x="308.5" y="-1227" font-family="Helvetica,sans-Serif" font-size="10.00">VerifyStateVariables()</text>
<text text-anchor="start" x="295.5" y="-1212" font-family="Helvetica,sans-Serif" font-size="10.00">+</text>
<text text-anchor="start" x="308.5" y="-1212" font-family="Helvetica,sans-Serif" font-size="10.00">SetDefaultInitialConditions()</text>
<text text-anchor="start" x="308.5" y="-1197" font-family="Helvetica,sans-Serif" font-size="10.00">and 13 more...</text>
<text text-anchor="start" x="295.5" y="-1182" font-family="Helvetica,sans-Serif" font-size="10.00">#</text>
<text text-anchor="start" x="308.5" y="-1182" font-family="Helvetica,sans-Serif" font-size="10.00">DumpState()</text>
<text text-anchor="start" x="295.5" y="-1167" font-family="Helvetica,sans-Serif" font-size="10.00">#</text>
<text text-anchor="start" x="308.5" y="-1167" font-family="Helvetica,sans-Serif" font-size="10.00">DumpState()</text>
<text text-anchor="start" x="295.5" y="-1152" font-family="Helvetica,sans-Serif" font-size="10.00">#</text>
<text text-anchor="start" x="308.5" y="-1152" font-family="Helvetica,sans-Serif" font-size="10.00">DumpState()</text>
<text text-anchor="start" x="295.5" y="-1137" font-family="Helvetica,sans-Serif" font-size="10.00">#</text>
<text text-anchor="start" x="308.5" y="-1137" font-family="Helvetica,sans-Serif" font-size="10.00">CheckParametersOnLoad()</text>
<text text-anchor="start" x="298" y="-1122" font-family="Helvetica,sans-Serif" font-size="10.00">&#45;</text>
<text text-anchor="start" x="308.5" y="-1122" font-family="Helvetica,sans-Serif" font-size="10.00">GetStateMessage()</text>
<polygon fill="#666666" stroke="#666666" points="291.5,-1387 291.5,-1387 468.5,-1387 468.5,-1387 291.5,-1387"/>
<polygon fill="#666666" stroke="#666666" points="291.5,-1357 291.5,-1357 306.5,-1357 306.5,-1357 291.5,-1357"/>
<polygon fill="#666666" stroke="#666666" points="306.5,-1357 306.5,-1357 468.5,-1357 468.5,-1357 306.5,-1357"/>
<polygon fill="none" stroke="#666666" points="291,-1115 291,-1415 468,-1415 468,-1115 291,-1115"/>
</a>
</g>
</g>
<!-- Node6&#45;&gt;Node7 -->
<g id="edge7_Node000007_Node000006" class="edge">
<title>Node6&#45;&gt;Node7</title>
<g id="a_edge7_Node000007_Node000006"><a xlink:title=" ">
<path fill="none" stroke="#63b8ff" d="M320.15,-1442.06C323.15,-1433.15 326.19,-1424.14 329.22,-1415.16"/>
<polygon fill="none" stroke="#63b8ff" points="316.78,-1441.09 316.9,-1451.69 323.41,-1443.33 316.78,-1441.09"/>
</a>
</g>
</g>
<!-- Node7&#45;&gt;Node5 -->
<g id="edge6_Node000005_Node000007" class="edge">
<title>Node7&#45;&gt;Node5</title>
<g id="a_edge6_Node000005_Node000007"><a xlink:title=" ">
<path fill="none" stroke="orange" d="M333.44,-1105.1C329.88,-1092.81 326.29,-1080.43 322.75,-1068.21"/>
<polygon fill="orange" stroke="orange" points="330.15,-1106.3 336.29,-1114.94 336.87,-1104.36 330.15,-1106.3"/>
</a>
</g>
<text text-anchor="middle" x="396" y="-1089" font-family="Helvetica,sans-Serif" font-size="10.00" fill="grey"> &lt; std::vector&lt; double &gt; &gt;</text>
</g>
</g>
</svg>
