<?xml version="1.0" encoding="UTF-8" standalone="no"?>
<!DOCTYPE svg PUBLIC "-//W3C//DTD SVG 1.1//EN"
 "http://www.w3.org/Graphics/SVG/1.1/DTD/svg11.dtd">
<!-- Generated by graphviz version 2.43.0 (0)
 -->
<!-- Title: PottsElement&lt; DIM &gt; Pages: 1 -->
<svg width="689pt" height="1244pt"
 viewBox="0.00 0.00 689.00 1244.00" xmlns="http://www.w3.org/2000/svg" xmlns:xlink="http://www.w3.org/1999/xlink">
<g id="graph0" class="graph" transform="scale(1 1) rotate(0) translate(4 1240)">
<title>PottsElement&lt; DIM &gt;</title>
<!-- Node1 -->
<g id="Node000001" class="node">
<title>Node1</title>
<g id="a_Node000001"><a xlink:title=" ">
<polygon fill="#999999" stroke="transparent" points="407.5,-109 289.5,-109 289.5,0 407.5,0 407.5,-109"/>
<text text-anchor="start" x="294.5" y="-96.5" font-family="Helvetica,sans-Serif" font-size="10.00">PottsElement&lt; DIM &gt;</text>
<text text-anchor="start" x="346.5" y="-81.5" font-family="Helvetica,sans-Serif" font-size="10.00"> </text>
<text text-anchor="start" x="296.5" y="-66.5" font-family="Helvetica,sans-Serif" font-size="10.00">+</text>
<text text-anchor="start" x="312.5" y="-66.5" font-family="Helvetica,sans-Serif" font-size="10.00">PottsElement()</text>
<text text-anchor="start" x="296.5" y="-51.5" font-family="Helvetica,sans-Serif" font-size="10.00">+</text>
<text text-anchor="start" x="312.5" y="-51.5" font-family="Helvetica,sans-Serif" font-size="10.00">~PottsElement()</text>
<text text-anchor="start" x="296.5" y="-36.5" font-family="Helvetica,sans-Serif" font-size="10.00">+</text>
<text text-anchor="start" x="312.5" y="-36.5" font-family="Helvetica,sans-Serif" font-size="10.00">AddNode()</text>
<text text-anchor="start" x="296.5" y="-21.5" font-family="Helvetica,sans-Serif" font-size="10.00">+</text>
<text text-anchor="start" x="312.5" y="-21.5" font-family="Helvetica,sans-Serif" font-size="10.00">GetAspectRatio()</text>
<text text-anchor="start" x="299" y="-6.5" font-family="Helvetica,sans-Serif" font-size="10.00">&#45;</text>
<text text-anchor="start" x="312.5" y="-6.5" font-family="Helvetica,sans-Serif" font-size="10.00">serialize()</text>
<polygon fill="#666666" stroke="#666666" points="289.5,-91.5 289.5,-91.5 407.5,-91.5 407.5,-91.5 289.5,-91.5"/>
<polygon fill="#666666" stroke="#666666" points="289.5,-76.5 289.5,-76.5 407.5,-76.5 407.5,-76.5 289.5,-76.5"/>
<polygon fill="none" stroke="#666666" points="289.5,0 289.5,-109 407.5,-109 407.5,0 289.5,0"/>
</a>
</g>
</g>
<!-- Node2 -->
<g id="Node000002" class="node">
<title>Node2</title>
<g id="a_Node000002"><a xlink:href="classMutableElement.html" target="_top" xlink:title=" ">
<polygon fill="white" stroke="transparent" points="411,-371 286,-371 286,-146 411,-146 411,-371"/>
<text text-anchor="start" x="291.5" y="-358.5" font-family="Helvetica,sans-Serif" font-size="10.00">MutableElement&lt; DIM,</text>
<text text-anchor="start" x="332" y="-347.5" font-family="Helvetica,sans-Serif" font-size="10.00"> DIM &gt;</text>
<text text-anchor="start" x="347" y="-332.5" font-family="Helvetica,sans-Serif" font-size="10.00"> </text>
<text text-anchor="start" x="290.5" y="-317.5" font-family="Helvetica,sans-Serif" font-size="10.00">+</text>
<text text-anchor="start" x="303.5" y="-317.5" font-family="Helvetica,sans-Serif" font-size="10.00">MutableElement()</text>
<text text-anchor="start" x="290.5" y="-302.5" font-family="Helvetica,sans-Serif" font-size="10.00">+</text>
<text text-anchor="start" x="303.5" y="-302.5" font-family="Helvetica,sans-Serif" font-size="10.00">MutableElement()</text>
<text text-anchor="start" x="290.5" y="-287.5" font-family="Helvetica,sans-Serif" font-size="10.00">+</text>
<text text-anchor="start" x="303.5" y="-287.5" font-family="Helvetica,sans-Serif" font-size="10.00">~MutableElement()</text>
<text text-anchor="start" x="290.5" y="-272.5" font-family="Helvetica,sans-Serif" font-size="10.00">+</text>
<text text-anchor="start" x="303.5" y="-272.5" font-family="Helvetica,sans-Serif" font-size="10.00">RegisterWithNodes()</text>
<text text-anchor="start" x="290.5" y="-257.5" font-family="Helvetica,sans-Serif" font-size="10.00">+</text>
<text text-anchor="start" x="303.5" y="-257.5" font-family="Helvetica,sans-Serif" font-size="10.00">MarkAsDeleted()</text>
<text text-anchor="start" x="290.5" y="-242.5" font-family="Helvetica,sans-Serif" font-size="10.00">+</text>
<text text-anchor="start" x="303.5" y="-242.5" font-family="Helvetica,sans-Serif" font-size="10.00">ResetIndex()</text>
<text text-anchor="start" x="290.5" y="-227.5" font-family="Helvetica,sans-Serif" font-size="10.00">+</text>
<text text-anchor="start" x="303.5" y="-227.5" font-family="Helvetica,sans-Serif" font-size="10.00">UpdateNode()</text>
<text text-anchor="start" x="290.5" y="-212.5" font-family="Helvetica,sans-Serif" font-size="10.00">+</text>
<text text-anchor="start" x="303.5" y="-212.5" font-family="Helvetica,sans-Serif" font-size="10.00">DeleteNode()</text>
<text text-anchor="start" x="290.5" y="-197.5" font-family="Helvetica,sans-Serif" font-size="10.00">+</text>
<text text-anchor="start" x="303.5" y="-197.5" font-family="Helvetica,sans-Serif" font-size="10.00">AddNode()</text>
<text text-anchor="start" x="290.5" y="-182.5" font-family="Helvetica,sans-Serif" font-size="10.00">+</text>
<text text-anchor="start" x="303.5" y="-182.5" font-family="Helvetica,sans-Serif" font-size="10.00">GetNodeLocalIndex()</text>
<text text-anchor="start" x="303.5" y="-167.5" font-family="Helvetica,sans-Serif" font-size="10.00">and 12 more...</text>
<text text-anchor="start" x="293" y="-152.5" font-family="Helvetica,sans-Serif" font-size="10.00">&#45;</text>
<text text-anchor="start" x="303.5" y="-152.5" font-family="Helvetica,sans-Serif" font-size="10.00">serialize()</text>
<polygon fill="#666666" stroke="#666666" points="286.5,-342.5 286.5,-342.5 411.5,-342.5 411.5,-342.5 286.5,-342.5"/>
<polygon fill="#666666" stroke="#666666" points="286.5,-327.5 286.5,-327.5 411.5,-327.5 411.5,-327.5 286.5,-327.5"/>
<polygon fill="none" stroke="#666666" points="286,-146 286,-371 411,-371 411,-146 286,-146"/>
</a>
</g>
</g>
<!-- Node2&#45;&gt;Node1 -->
<g id="edge1_Node000001_Node000002" class="edge">
<title>Node2&#45;&gt;Node1</title>
<g id="a_edge1_Node000001_Node000002"><a xlink:title=" ">
<path fill="none" stroke="#63b8ff" d="M348.5,-135.75C348.5,-126.5 348.5,-117.5 348.5,-109.06"/>
<polygon fill="none" stroke="#63b8ff" points="345,-135.87 348.5,-145.87 352,-135.87 345,-135.87"/>
</a>
</g>
</g>
<!-- Node3 -->
<g id="Node000003" class="node">
<title>Node3</title>
<g id="a_Node000003"><a xlink:href="classAbstractElement.html" target="_top" xlink:title=" ">
<polygon fill="white" stroke="transparent" points="530.5,-915 366.5,-915 366.5,-690 530.5,-690 530.5,-915"/>
<text text-anchor="start" x="379" y="-902.5" font-family="Helvetica,sans-Serif" font-size="10.00">AbstractElement&lt; ELEMENT</text>
<text text-anchor="start" x="399.5" y="-891.5" font-family="Helvetica,sans-Serif" font-size="10.00">_DIM, SPACE_DIM &gt;</text>
<text text-anchor="start" x="446.5" y="-876.5" font-family="Helvetica,sans-Serif" font-size="10.00"> </text>
<text text-anchor="start" x="370.5" y="-861.5" font-family="Helvetica,sans-Serif" font-size="10.00">+</text>
<text text-anchor="start" x="383.5" y="-861.5" font-family="Helvetica,sans-Serif" font-size="10.00">AbstractElement()</text>
<text text-anchor="start" x="370.5" y="-846.5" font-family="Helvetica,sans-Serif" font-size="10.00">+</text>
<text text-anchor="start" x="383.5" y="-846.5" font-family="Helvetica,sans-Serif" font-size="10.00">AbstractElement()</text>
<text text-anchor="start" x="370.5" y="-831.5" font-family="Helvetica,sans-Serif" font-size="10.00">+</text>
<text text-anchor="start" x="383.5" y="-831.5" font-family="Helvetica,sans-Serif" font-size="10.00">~AbstractElement()</text>
<text text-anchor="start" x="370.5" y="-816.5" font-family="Helvetica,sans-Serif" font-size="10.00">+</text>
<text text-anchor="start" x="383.5" y="-816.5" font-family="Helvetica,sans-Serif" font-size="10.00">UpdateNode()</text>
<text text-anchor="start" x="370.5" y="-801.5" font-family="Helvetica,sans-Serif" font-size="10.00">+</text>
<text text-anchor="start" x="383.5" y="-801.5" font-family="Helvetica,sans-Serif" font-size="10.00">ReplaceNode()</text>
<text text-anchor="start" x="370.5" y="-786.5" font-family="Helvetica,sans-Serif" font-size="10.00">+</text>
<text text-anchor="start" x="383.5" y="-786.5" font-family="Helvetica,sans-Serif" font-size="10.00">MarkAsDeleted()</text>
<text text-anchor="start" x="370.5" y="-771.5" font-family="Helvetica,sans-Serif" font-size="10.00">+</text>
<text text-anchor="start" x="383.5" y="-771.5" font-family="Helvetica,sans-Serif" font-size="10.00">RegisterWithNodes()</text>
<text text-anchor="start" x="370.5" y="-756.5" font-family="Helvetica,sans-Serif" font-size="10.00">+</text>
<text text-anchor="start" x="383.5" y="-756.5" font-family="Helvetica,sans-Serif" font-size="10.00">GetNodeLocation()</text>
<text text-anchor="start" x="370.5" y="-741.5" font-family="Helvetica,sans-Serif" font-size="10.00">+</text>
<text text-anchor="start" x="383.5" y="-741.5" font-family="Helvetica,sans-Serif" font-size="10.00">GetNodeLocation()</text>
<text text-anchor="start" x="370.5" y="-726.5" font-family="Helvetica,sans-Serif" font-size="10.00">+</text>
<text text-anchor="start" x="383.5" y="-726.5" font-family="Helvetica,sans-Serif" font-size="10.00">GetNodeGlobalIndex()</text>
<text text-anchor="start" x="383.5" y="-711.5" font-family="Helvetica,sans-Serif" font-size="10.00">and 14 more...</text>
<text text-anchor="start" x="370.5" y="-696.5" font-family="Helvetica,sans-Serif" font-size="10.00">#</text>
<text text-anchor="start" x="383.5" y="-696.5" font-family="Helvetica,sans-Serif" font-size="10.00">ConstructElementAttributes()</text>
<polygon fill="#666666" stroke="#666666" points="366.5,-886.5 366.5,-886.5 530.5,-886.5 530.5,-886.5 366.5,-886.5"/>
<polygon fill="#666666" stroke="#666666" points="366.5,-871.5 366.5,-871.5 530.5,-871.5 530.5,-871.5 366.5,-871.5"/>
<polygon fill="none" stroke="#666666" points="366.5,-690 366.5,-915 530.5,-915 530.5,-690 366.5,-690"/>
</a>
</g>
</g>
<!-- Node3&#45;&gt;Node2 -->
<g id="edge2_Node000002_Node000003" class="edge">
<title>Node3&#45;&gt;Node2</title>
<g id="a_edge2_Node000002_Node000003"><a xlink:title=" ">
<path fill="none" stroke="#63b8ff" d="M420.52,-679.7C418,-667.33 415.61,-654.93 413.5,-643 393.65,-530.85 400.34,-500.97 379.5,-389 378.42,-383.2 377.25,-377.28 376.02,-371.31"/>
<polygon fill="none" stroke="#63b8ff" points="417.11,-680.51 422.56,-689.6 423.97,-679.1 417.11,-680.51"/>
</a>
</g>
</g>
<!-- Node14 -->
<g id="Node000014" class="node">
<title>Node14</title>
<g id="a_Node000014"><a xlink:href="classMutableElement.html" target="_top" xlink:title=" ">
<polygon fill="white" stroke="transparent" points="361.5,-643 213.5,-643 213.5,-418 361.5,-418 361.5,-643"/>
<text text-anchor="start" x="218.5" y="-630.5" font-family="Helvetica,sans-Serif" font-size="10.00">MutableElement&lt; ELEMENT</text>
<text text-anchor="start" x="238.5" y="-619.5" font-family="Helvetica,sans-Serif" font-size="10.00">_DIM, SPACE_DIM &gt;</text>
<text text-anchor="start" x="285.5" y="-604.5" font-family="Helvetica,sans-Serif" font-size="10.00"> </text>
<text text-anchor="start" x="223.5" y="-589.5" font-family="Helvetica,sans-Serif" font-size="10.00">+</text>
<text text-anchor="start" x="242.5" y="-589.5" font-family="Helvetica,sans-Serif" font-size="10.00">MutableElement()</text>
<text text-anchor="start" x="223.5" y="-574.5" font-family="Helvetica,sans-Serif" font-size="10.00">+</text>
<text text-anchor="start" x="242.5" y="-574.5" font-family="Helvetica,sans-Serif" font-size="10.00">MutableElement()</text>
<text text-anchor="start" x="223.5" y="-559.5" font-family="Helvetica,sans-Serif" font-size="10.00">+</text>
<text text-anchor="start" x="242.5" y="-559.5" font-family="Helvetica,sans-Serif" font-size="10.00">~MutableElement()</text>
<text text-anchor="start" x="223.5" y="-544.5" font-family="Helvetica,sans-Serif" font-size="10.00">+</text>
<text text-anchor="start" x="242.5" y="-544.5" font-family="Helvetica,sans-Serif" font-size="10.00">RegisterWithNodes()</text>
<text text-anchor="start" x="223.5" y="-529.5" font-family="Helvetica,sans-Serif" font-size="10.00">+</text>
<text text-anchor="start" x="242.5" y="-529.5" font-family="Helvetica,sans-Serif" font-size="10.00">MarkAsDeleted()</text>
<text text-anchor="start" x="223.5" y="-514.5" font-family="Helvetica,sans-Serif" font-size="10.00">+</text>
<text text-anchor="start" x="242.5" y="-514.5" font-family="Helvetica,sans-Serif" font-size="10.00">ResetIndex()</text>
<text text-anchor="start" x="223.5" y="-499.5" font-family="Helvetica,sans-Serif" font-size="10.00">+</text>
<text text-anchor="start" x="242.5" y="-499.5" font-family="Helvetica,sans-Serif" font-size="10.00">UpdateNode()</text>
<text text-anchor="start" x="223.5" y="-484.5" font-family="Helvetica,sans-Serif" font-size="10.00">+</text>
<text text-anchor="start" x="242.5" y="-484.5" font-family="Helvetica,sans-Serif" font-size="10.00">DeleteNode()</text>
<text text-anchor="start" x="223.5" y="-469.5" font-family="Helvetica,sans-Serif" font-size="10.00">+</text>
<text text-anchor="start" x="242.5" y="-469.5" font-family="Helvetica,sans-Serif" font-size="10.00">AddNode()</text>
<text text-anchor="start" x="223.5" y="-454.5" font-family="Helvetica,sans-Serif" font-size="10.00">+</text>
<text text-anchor="start" x="242.5" y="-454.5" font-family="Helvetica,sans-Serif" font-size="10.00">GetNodeLocalIndex()</text>
<text text-anchor="start" x="242.5" y="-439.5" font-family="Helvetica,sans-Serif" font-size="10.00">and 12 more...</text>
<text text-anchor="start" x="226" y="-424.5" font-family="Helvetica,sans-Serif" font-size="10.00">&#45;</text>
<text text-anchor="start" x="242.5" y="-424.5" font-family="Helvetica,sans-Serif" font-size="10.00">serialize()</text>
<polygon fill="#666666" stroke="#666666" points="213.5,-614.5 213.5,-614.5 361.5,-614.5 361.5,-614.5 213.5,-614.5"/>
<polygon fill="#666666" stroke="#666666" points="213.5,-599.5 213.5,-599.5 361.5,-599.5 361.5,-599.5 213.5,-599.5"/>
<polygon fill="none" stroke="#666666" points="213.5,-418 213.5,-643 361.5,-643 361.5,-418 213.5,-418"/>
</a>
</g>
</g>
<!-- Node3&#45;&gt;Node14 -->
<g id="edge15_Node000014_Node000003" class="edge">
<title>Node3&#45;&gt;Node14</title>
<g id="a_edge15_Node000014_Node000003"><a xlink:title=" ">
<path fill="none" stroke="#63b8ff" d="M376.67,-681.04C369.16,-668.45 361.55,-655.68 354.1,-643.18"/>
<polygon fill="none" stroke="#63b8ff" points="373.73,-682.94 381.85,-689.73 379.74,-679.35 373.73,-682.94"/>
</a>
</g>
</g>
<!-- Node4 -->
<g id="Node000004" class="node">
<title>Node4</title>
<g id="a_Node000004"><a xlink:title=" ">
<polygon fill="white" stroke="transparent" points="608,-1038.5 501,-1038.5 501,-978.5 608,-978.5 608,-1038.5"/>
<text text-anchor="start" x="506.5" y="-1026.5" font-family="Helvetica,sans-Serif" font-size="10.00">std::vector&lt; Node&lt;</text>
<text text-anchor="start" x="510" y="-1015.5" font-family="Helvetica,sans-Serif" font-size="10.00"> SPACE_DIM &gt; * &gt;</text>
<text text-anchor="start" x="553" y="-1000.5" font-family="Helvetica,sans-Serif" font-size="10.00"> </text>
<text text-anchor="start" x="553" y="-985.5" font-family="Helvetica,sans-Serif" font-size="10.00"> </text>
<polygon fill="#666666" stroke="#666666" points="501.5,-1010.5 501.5,-1010.5 608.5,-1010.5 608.5,-1010.5 501.5,-1010.5"/>
<polygon fill="#666666" stroke="#666666" points="501.5,-995.5 501.5,-995.5 608.5,-995.5 608.5,-995.5 501.5,-995.5"/>
<polygon fill="none" stroke="#666666" points="501,-978.5 501,-1038.5 608,-1038.5 608,-978.5 501,-978.5"/>
</a>
</g>
</g>
<!-- Node4&#45;&gt;Node3 -->
<g id="edge3_Node000003_Node000004" class="edge">
<title>Node4&#45;&gt;Node3</title>
<g id="a_edge3_Node000003_Node000004"><a xlink:title=" ">
<path fill="none" stroke="#63b8ff" d="M551.48,-978.36C549.31,-964.25 545.64,-947.31 539.5,-933 538.42,-930.49 537.29,-927.97 536.11,-925.46"/>
<polygon fill="none" stroke="#63b8ff" points="535.99,-925.23 529.74,-921.65 530.64,-914.49 536.9,-918.08 535.99,-925.23"/>
</a>
</g>
<text text-anchor="middle" x="572.5" y="-941.5" font-family="Helvetica,sans-Serif" font-size="10.00" fill="grey"> #mNodes</text>
</g>
<!-- Node5 -->
<g id="Node000005" class="node">
<title>Node5</title>
<g id="a_Node000005"><a xlink:title=" ">
<polygon fill="white" stroke="transparent" points="615.5,-1140 493.5,-1140 493.5,-1091 615.5,-1091 615.5,-1140"/>
<text text-anchor="start" x="498.5" y="-1127.5" font-family="Helvetica,sans-Serif" font-size="10.00">Node&lt; SPACE_DIM &gt; *</text>
<text text-anchor="start" x="552.5" y="-1112.5" font-family="Helvetica,sans-Serif" font-size="10.00"> </text>
<text text-anchor="start" x="552.5" y="-1097.5" font-family="Helvetica,sans-Serif" font-size="10.00"> </text>
<polygon fill="#bfbfbf" stroke="#bfbfbf" points="493.5,-1122.5 493.5,-1122.5 615.5,-1122.5 615.5,-1122.5 493.5,-1122.5"/>
<polygon fill="#bfbfbf" stroke="#bfbfbf" points="493.5,-1107.5 493.5,-1107.5 615.5,-1107.5 615.5,-1107.5 493.5,-1107.5"/>
<polygon fill="none" stroke="#bfbfbf" points="493.5,-1091 493.5,-1140 615.5,-1140 615.5,-1091 493.5,-1091"/>
</a>
</g>
</g>
<!-- Node5&#45;&gt;Node4 -->
<g id="edge4_Node000004_Node000005" class="edge">
<title>Node5&#45;&gt;Node4</title>
<g id="a_edge4_Node000004_Node000005"><a xlink:title=" ">
<path fill="none" stroke="#63b8ff" d="M554.5,-1090.94C554.5,-1079.09 554.5,-1064.37 554.5,-1050.73"/>
<polygon fill="none" stroke="#63b8ff" points="554.5,-1050.61 550.5,-1044.61 554.5,-1038.61 558.5,-1044.61 554.5,-1050.61"/>
</a>
</g>
<text text-anchor="middle" x="583.5" y="-1065" font-family="Helvetica,sans-Serif" font-size="10.00" fill="grey"> +elements</text>
</g>
<!-- Node6 -->
<g id="Node000006" class="node">
<title>Node6</title>
<g id="a_Node000006"><a xlink:title=" ">
<polygon fill="white" stroke="transparent" points="262,-1140 171,-1140 171,-1091 262,-1091 262,-1140"/>
<text text-anchor="start" x="176.5" y="-1127.5" font-family="Helvetica,sans-Serif" font-size="10.00">std::vector&lt; T &gt;</text>
<text text-anchor="start" x="215" y="-1112.5" font-family="Helvetica,sans-Serif" font-size="10.00"> </text>
<text text-anchor="start" x="215" y="-1097.5" font-family="Helvetica,sans-Serif" font-size="10.00"> </text>
<polygon fill="#666666" stroke="#666666" points="171.5,-1122.5 171.5,-1122.5 262.5,-1122.5 262.5,-1122.5 171.5,-1122.5"/>
<polygon fill="#666666" stroke="#666666" points="171.5,-1107.5 171.5,-1107.5 262.5,-1107.5 262.5,-1107.5 171.5,-1107.5"/>
<polygon fill="none" stroke="#666666" points="171,-1091 171,-1140 262,-1140 262,-1091 171,-1091"/>
</a>
</g>
</g>
<!-- Node6&#45;&gt;Node4 -->
<g id="edge5_Node000004_Node000006" class="edge">
<title>Node6&#45;&gt;Node4</title>
<g id="a_edge5_Node000004_Node000006"><a xlink:title=" ">
<path fill="none" stroke="orange" d="M272.18,-1098.94C311.33,-1088.16 364.99,-1073.7 412.5,-1062 447.89,-1053.28 458.45,-1056.99 492.5,-1044 496.64,-1042.42 500.85,-1040.6 505.01,-1038.64"/>
<polygon fill="orange" stroke="orange" points="271.01,-1095.64 262.3,-1101.67 272.87,-1102.38 271.01,-1095.64"/>
</a>
</g>
<text text-anchor="middle" x="481.5" y="-1065" font-family="Helvetica,sans-Serif" font-size="10.00" fill="grey"> &lt; Node&lt; SPACE_DIM &gt; * &gt;</text>
</g>
<!-- Node11 -->
<g id="Node000011" class="node">
<title>Node11</title>
<g id="a_Node000011"><a xlink:title=" ">
<polygon fill="white" stroke="transparent" points="184.5,-832.5 78.5,-832.5 78.5,-772.5 184.5,-772.5 184.5,-832.5"/>
<text text-anchor="start" x="83.5" y="-820.5" font-family="Helvetica,sans-Serif" font-size="10.00">std::vector&lt; Edge&lt;</text>
<text text-anchor="start" x="86.5" y="-809.5" font-family="Helvetica,sans-Serif" font-size="10.00"> SPACE_DIM &gt; * &gt;</text>
<text text-anchor="start" x="129.5" y="-794.5" font-family="Helvetica,sans-Serif" font-size="10.00"> </text>
<text text-anchor="start" x="129.5" y="-779.5" font-family="Helvetica,sans-Serif" font-size="10.00"> </text>
<polygon fill="#666666" stroke="#666666" points="78.5,-804.5 78.5,-804.5 184.5,-804.5 184.5,-804.5 78.5,-804.5"/>
<polygon fill="#666666" stroke="#666666" points="78.5,-789.5 78.5,-789.5 184.5,-789.5 184.5,-789.5 78.5,-789.5"/>
<polygon fill="none" stroke="#666666" points="78.5,-772.5 78.5,-832.5 184.5,-832.5 184.5,-772.5 78.5,-772.5"/>
</a>
</g>
</g>
<!-- Node6&#45;&gt;Node11 -->
<g id="edge12_Node000011_Node000006" class="edge">
<title>Node6&#45;&gt;Node11</title>
<g id="a_edge12_Node000011_Node000006"><a xlink:title=" ">
<path fill="none" stroke="orange" d="M189.16,-1082.75C180.6,-1071.23 171.97,-1057.68 166.5,-1044 151.33,-1006.1 139.1,-888.09 134.03,-832.73"/>
<polygon fill="orange" stroke="orange" points="186.45,-1084.97 195.33,-1090.74 191.99,-1080.69 186.45,-1084.97"/>
</a>
</g>
<text text-anchor="middle" x="234.5" y="-1006" font-family="Helvetica,sans-Serif" font-size="10.00" fill="grey"> &lt; Edge&lt; SPACE_DIM &gt; * &gt;</text>
</g>
<!-- Node7 -->
<g id="Node000007" class="node">
<title>Node7</title>
<g id="a_Node000007"><a xlink:title=" ">
<polygon fill="white" stroke="transparent" points="225,-1236 208,-1236 208,-1187 225,-1187 225,-1236"/>
<text text-anchor="start" x="213.5" y="-1223.5" font-family="Helvetica,sans-Serif" font-size="10.00">T</text>
<text text-anchor="start" x="215" y="-1208.5" font-family="Helvetica,sans-Serif" font-size="10.00"> </text>
<text text-anchor="start" x="215" y="-1193.5" font-family="Helvetica,sans-Serif" font-size="10.00"> </text>
<polygon fill="#bfbfbf" stroke="#bfbfbf" points="208.5,-1218.5 208.5,-1218.5 225.5,-1218.5 225.5,-1218.5 208.5,-1218.5"/>
<polygon fill="#bfbfbf" stroke="#bfbfbf" points="208.5,-1203.5 208.5,-1203.5 225.5,-1203.5 225.5,-1203.5 208.5,-1203.5"/>
<polygon fill="none" stroke="#bfbfbf" points="208,-1187 208,-1236 225,-1236 225,-1187 208,-1187"/>
</a>
</g>
</g>
<!-- Node7&#45;&gt;Node6 -->
<g id="edge6_Node000006_Node000007" class="edge">
<title>Node7&#45;&gt;Node6</title>
<g id="a_edge6_Node000006_Node000007"><a xlink:title=" ">
<path fill="none" stroke="#63b8ff" d="M216.5,-1186.78C216.5,-1176.32 216.5,-1163.79 216.5,-1152.23"/>
<polygon fill="none" stroke="#63b8ff" points="216.5,-1152.21 212.5,-1146.21 216.5,-1140.21 220.5,-1146.21 216.5,-1152.21"/>
</a>
</g>
<text text-anchor="middle" x="245.5" y="-1161" font-family="Helvetica,sans-Serif" font-size="10.00" fill="grey"> +elements</text>
</g>
<!-- Node8 -->
<g id="Node000008" class="node">
<title>Node8</title>
<g id="a_Node000008"><a xlink:href="classunsigned.html" target="_top" xlink:title=" ">
<polygon fill="white" stroke="transparent" points="681,-1033 626,-1033 626,-984 681,-984 681,-1033"/>
<text text-anchor="start" x="631.5" y="-1020.5" font-family="Helvetica,sans-Serif" font-size="10.00">unsigned</text>
<text text-anchor="start" x="652" y="-1005.5" font-family="Helvetica,sans-Serif" font-size="10.00"> </text>
<text text-anchor="start" x="652" y="-990.5" font-family="Helvetica,sans-Serif" font-size="10.00"> </text>
<polygon fill="#bfbfbf" stroke="#bfbfbf" points="626.5,-1015.5 626.5,-1015.5 681.5,-1015.5 681.5,-1015.5 626.5,-1015.5"/>
<polygon fill="#bfbfbf" stroke="#bfbfbf" points="626.5,-1000.5 626.5,-1000.5 681.5,-1000.5 681.5,-1000.5 626.5,-1000.5"/>
<polygon fill="none" stroke="#bfbfbf" points="626,-984 626,-1033 681,-1033 681,-984 626,-984"/>
</a>
</g>
</g>
<!-- Node8&#45;&gt;Node3 -->
<g id="edge7_Node000003_Node000008" class="edge">
<title>Node8&#45;&gt;Node3</title>
<g id="a_edge7_Node000003_Node000008"><a xlink:title=" ">
<path fill="none" stroke="#63b8ff" d="M639.61,-983.81C630.11,-968.54 616.7,-948.68 602.5,-933 583.62,-912.16 561.39,-891.62 539.78,-873.25"/>
<polygon fill="none" stroke="#63b8ff" points="539.76,-873.23 532.59,-872.44 530.57,-865.52 537.73,-866.31 539.76,-873.23"/>
</a>
</g>
<text text-anchor="middle" x="644" y="-941.5" font-family="Helvetica,sans-Serif" font-size="10.00" fill="grey"> #mIndex</text>
</g>
<!-- Node9 -->
<g id="Node000009" class="node">
<title>Node9</title>
<g id="a_Node000009"><a xlink:href="classbool.html" target="_top" xlink:title=" ">
<polygon fill="white" stroke="transparent" points="343.5,-1033 311.5,-1033 311.5,-984 343.5,-984 343.5,-1033"/>
<text text-anchor="start" x="316.5" y="-1020.5" font-family="Helvetica,sans-Serif" font-size="10.00">bool</text>
<text text-anchor="start" x="325.5" y="-1005.5" font-family="Helvetica,sans-Serif" font-size="10.00"> </text>
<text text-anchor="start" x="325.5" y="-990.5" font-family="Helvetica,sans-Serif" font-size="10.00"> </text>
<polygon fill="#bfbfbf" stroke="#bfbfbf" points="311.5,-1015.5 311.5,-1015.5 343.5,-1015.5 343.5,-1015.5 311.5,-1015.5"/>
<polygon fill="#bfbfbf" stroke="#bfbfbf" points="311.5,-1000.5 311.5,-1000.5 343.5,-1000.5 343.5,-1000.5 311.5,-1000.5"/>
<polygon fill="none" stroke="#bfbfbf" points="311.5,-984 311.5,-1033 343.5,-1033 343.5,-984 311.5,-984"/>
</a>
</g>
</g>
<!-- Node9&#45;&gt;Node3 -->
<g id="edge8_Node000003_Node000009" class="edge">
<title>Node9&#45;&gt;Node3</title>
<g id="a_edge8_Node000003_Node000009"><a xlink:title=" ">
<path fill="none" stroke="#63b8ff" d="M331.34,-983.81C334.39,-968.72 339.5,-949.06 347.5,-933 350,-927.98 354.13,-921.43 359.31,-913.96"/>
<polygon fill="none" stroke="#63b8ff" points="359.43,-913.8 359.66,-906.59 366.4,-904.04 366.17,-911.24 359.43,-913.8"/>
</a>
</g>
<text text-anchor="middle" x="382.5" y="-947" font-family="Helvetica,sans-Serif" font-size="10.00" fill="grey"> #mIsDeleted</text>
<text text-anchor="middle" x="382.5" y="-936" font-family="Helvetica,sans-Serif" font-size="10.00" fill="grey">#mOwnership</text>
</g>
<!-- Node10 -->
<g id="Node000010" class="node">
<title>Node10</title>
<g id="a_Node000010"><a xlink:title=" ">
<polygon fill="white" stroke="transparent" points="483,-1044 362,-1044 362,-973 483,-973 483,-1044"/>
<text text-anchor="start" x="367.5" y="-1031.5" font-family="Helvetica,sans-Serif" font-size="10.00">ElementAttributes&lt;</text>
<text text-anchor="start" x="367.5" y="-1020.5" font-family="Helvetica,sans-Serif" font-size="10.00"> ELEMENT_DIM, SPACE</text>
<text text-anchor="start" x="400.5" y="-1009.5" font-family="Helvetica,sans-Serif" font-size="10.00">_DIM &gt; *</text>
<text text-anchor="start" x="421" y="-994.5" font-family="Helvetica,sans-Serif" font-size="10.00"> </text>
<text text-anchor="start" x="421" y="-979.5" font-family="Helvetica,sans-Serif" font-size="10.00"> </text>
<polygon fill="#bfbfbf" stroke="#bfbfbf" points="362.5,-1004.5 362.5,-1004.5 483.5,-1004.5 483.5,-1004.5 362.5,-1004.5"/>
<polygon fill="#bfbfbf" stroke="#bfbfbf" points="362.5,-989.5 362.5,-989.5 483.5,-989.5 483.5,-989.5 362.5,-989.5"/>
<polygon fill="none" stroke="#bfbfbf" points="362,-973 362,-1044 483,-1044 483,-973 362,-973"/>
</a>
</g>
</g>
<!-- Node10&#45;&gt;Node3 -->
<g id="edge9_Node000003_Node000010" class="edge">
<title>Node10&#45;&gt;Node3</title>
<g id="a_edge9_Node000003_Node000010"><a xlink:title=" ">
<path fill="none" stroke="#63b8ff" d="M421.69,-972.93C421.73,-960.33 422.17,-946 423.5,-933 423.7,-931.09 423.9,-929.17 424.13,-927.24"/>
<polygon fill="none" stroke="#63b8ff" points="424.13,-927.18 420.92,-920.72 425.64,-915.27 428.86,-921.73 424.13,-927.18"/>
</a>
</g>
<text text-anchor="middle" x="481.5" y="-941.5" font-family="Helvetica,sans-Serif" font-size="10.00" fill="grey"> #mpElementAttributes</text>
</g>
<!-- Node11&#45;&gt;Node2 -->
<g id="edge10_Node000002_Node000011" class="edge">
<title>Node11&#45;&gt;Node2</title>
<g id="a_edge10_Node000002_Node000011"><a xlink:title=" ">
<path fill="none" stroke="#63b8ff" d="M125.61,-772.28C113.66,-705.28 92.53,-537.19 153.5,-418 179.98,-366.22 231.77,-325.39 275.32,-298.14"/>
<polygon fill="none" stroke="#63b8ff" points="275.37,-298.11 278.41,-291.57 285.61,-291.85 282.58,-298.39 275.37,-298.11"/>
</a>
</g>
<text text-anchor="middle" x="179" y="-528" font-family="Helvetica,sans-Serif" font-size="10.00" fill="grey"> #mEdges</text>
</g>
<!-- Node11&#45;&gt;Node14 -->
<g id="edge16_Node000014_Node000011" class="edge">
<title>Node11&#45;&gt;Node14</title>
<g id="a_edge16_Node000014_Node000011"><a xlink:title=" ">
<path fill="none" stroke="#63b8ff" d="M147.34,-772.5C159.74,-749.92 177.5,-717.85 193.5,-690 200.22,-678.31 207.27,-666.17 214.37,-654.04"/>
<polygon fill="none" stroke="#63b8ff" points="214.54,-653.76 214.12,-646.56 220.61,-643.41 221.02,-650.61 214.54,-653.76"/>
</a>
</g>
<text text-anchor="middle" x="235" y="-664" font-family="Helvetica,sans-Serif" font-size="10.00" fill="grey"> #mEdges</text>
</g>
<!-- Node12 -->
<g id="Node000012" class="node">
<title>Node12</title>
<g id="a_Node000012"><a xlink:title=" ">
<polygon fill="white" stroke="transparent" points="121,-1033 0,-1033 0,-984 121,-984 121,-1033"/>
<text text-anchor="start" x="5.5" y="-1020.5" font-family="Helvetica,sans-Serif" font-size="10.00">Edge&lt; SPACE_DIM &gt; *</text>
<text text-anchor="start" x="59" y="-1005.5" font-family="Helvetica,sans-Serif" font-size="10.00"> </text>
<text text-anchor="start" x="59" y="-990.5" font-family="Helvetica,sans-Serif" font-size="10.00"> </text>
<polygon fill="#bfbfbf" stroke="#bfbfbf" points="0.5,-1015.5 0.5,-1015.5 121.5,-1015.5 121.5,-1015.5 0.5,-1015.5"/>
<polygon fill="#bfbfbf" stroke="#bfbfbf" points="0.5,-1000.5 0.5,-1000.5 121.5,-1000.5 121.5,-1000.5 0.5,-1000.5"/>
<polygon fill="none" stroke="#bfbfbf" points="0,-984 0,-1033 121,-1033 121,-984 0,-984"/>
</a>
</g>
</g>
<!-- Node12&#45;&gt;Node11 -->
<g id="edge11_Node000011_Node000012" class="edge">
<title>Node12&#45;&gt;Node11</title>
<g id="a_edge11_Node000011_Node000012"><a xlink:title=" ">
<path fill="none" stroke="#63b8ff" d="M68.28,-983.98C73.16,-969.3 79.62,-950.02 85.5,-933 95.82,-903.12 107.78,-869.47 116.92,-843.97"/>
<polygon fill="none" stroke="#63b8ff" points="116.98,-843.8 115.24,-836.8 121.03,-832.51 122.77,-839.51 116.98,-843.8"/>
</a>
</g>
<text text-anchor="middle" x="114.5" y="-941.5" font-family="Helvetica,sans-Serif" font-size="10.00" fill="grey"> +elements</text>
</g>
<!-- Node13 -->
<g id="Node000013" class="node">
<title>Node13</title>
<g id="a_Node000013"><a xlink:href="classEdgeHelper_3_01SPACE__DIM_01_4_01_5.html" target="_top" xlink:title=" ">
<polygon fill="white" stroke="transparent" points="575,-555 422,-555 422,-506 575,-506 575,-555"/>
<text text-anchor="start" x="427.5" y="-542.5" font-family="Helvetica,sans-Serif" font-size="10.00">EdgeHelper&lt; SPACE_DIM &gt; *</text>
<text text-anchor="start" x="497" y="-527.5" font-family="Helvetica,sans-Serif" font-size="10.00"> </text>
<text text-anchor="start" x="497" y="-512.5" font-family="Helvetica,sans-Serif" font-size="10.00"> </text>
<polygon fill="#bfbfbf" stroke="#bfbfbf" points="422.5,-537.5 422.5,-537.5 575.5,-537.5 575.5,-537.5 422.5,-537.5"/>
<polygon fill="#bfbfbf" stroke="#bfbfbf" points="422.5,-522.5 422.5,-522.5 575.5,-522.5 575.5,-522.5 422.5,-522.5"/>
<polygon fill="none" stroke="#bfbfbf" points="422,-506 422,-555 575,-555 575,-506 422,-506"/>
</a>
</g>
</g>
<!-- Node13&#45;&gt;Node2 -->
<g id="edge13_Node000002_Node000013" class="edge">
<title>Node13&#45;&gt;Node2</title>
<g id="a_edge13_Node000002_Node000013"><a xlink:title=" ">
<path fill="none" stroke="#63b8ff" d="M485.19,-505.54C469.56,-477.4 442.45,-428.62 416.48,-381.87"/>
<polygon fill="none" stroke="#63b8ff" points="416.44,-381.8 410.03,-378.5 410.62,-371.31 417.03,-374.61 416.44,-381.8"/>
</a>
</g>
<text text-anchor="middle" x="462.5" y="-392" font-family="Helvetica,sans-Serif" font-size="10.00" fill="grey"> #mEdgeHelper</text>
</g>
<!-- Node14&#45;&gt;Node2 -->
<g id="edge14_Node000002_Node000014" class="edge">
<title>Node14&#45;&gt;Node2</title>
<g id="a_edge14_Node000002_Node000014"><a xlink:title=" ">
<path fill="none" stroke="orange" d="M304.55,-407.64C305.8,-401.32 307.12,-395.08 308.5,-389 309.83,-383.15 311.3,-377.18 312.85,-371.17"/>
<polygon fill="orange" stroke="orange" points="301.09,-407.15 302.65,-417.63 307.96,-408.46 301.09,-407.15"/>
</a>
</g>
<text text-anchor="middle" x="344" y="-392" font-family="Helvetica,sans-Serif" font-size="10.00" fill="grey"> &lt; DIM, DIM &gt;</text>
</g>
<!-- Node15 -->
<g id="Node000015" class="node">
<title>Node15</title>
<g id="a_Node000015"><a xlink:href="classEdgeHelper_3_01SPACE__DIM_01_4.html" target="_top" xlink:title=" ">
<polygon fill="white" stroke="transparent" points="348,-827 203,-827 203,-778 348,-778 348,-827"/>
<text text-anchor="start" x="208.5" y="-814.5" font-family="Helvetica,sans-Serif" font-size="10.00">EdgeHelper&lt; SPACE_DIM &gt;</text>
<text text-anchor="start" x="274" y="-799.5" font-family="Helvetica,sans-Serif" font-size="10.00"> </text>
<text text-anchor="start" x="274" y="-784.5" font-family="Helvetica,sans-Serif" font-size="10.00"> </text>
<polygon fill="#bfbfbf" stroke="#bfbfbf" points="203.5,-809.5 203.5,-809.5 348.5,-809.5 348.5,-809.5 203.5,-809.5"/>
<polygon fill="#bfbfbf" stroke="#bfbfbf" points="203.5,-794.5 203.5,-794.5 348.5,-794.5 348.5,-794.5 203.5,-794.5"/>
<polygon fill="none" stroke="#bfbfbf" points="203,-778 203,-827 348,-827 348,-778 203,-778"/>
</a>
</g>
</g>
<!-- Node15&#45;&gt;Node14 -->
<g id="edge17_Node000014_Node000015" class="edge">
<title>Node15&#45;&gt;Node14</title>
<g id="a_edge17_Node000014_Node000015"><a xlink:title=" ">
<path fill="none" stroke="#63b8ff" d="M275.11,-777.62C274.78,-749.65 274.62,-701.94 276.5,-661 276.59,-659.08 276.68,-657.14 276.78,-655.19"/>
<polygon fill="none" stroke="#63b8ff" points="276.79,-655.05 273.14,-648.84 277.47,-643.07 281.12,-649.29 276.79,-655.05"/>
</a>
</g>
<text text-anchor="middle" x="315.5" y="-664" font-family="Helvetica,sans-Serif" font-size="10.00" fill="grey"> #mEdgeHelper</text>
</g>
</g>
</svg>
