<?xml version="1.0" encoding="UTF-8" standalone="no"?>
<!DOCTYPE svg PUBLIC "-//W3C//DTD SVG 1.1//EN"
 "http://www.w3.org/Graphics/SVG/1.1/DTD/svg11.dtd">
<!-- Generated by graphviz version 2.43.0 (0)
 -->
<!-- Title: AbstractPhaseBasedCellCycleModel Pages: 1 -->
<svg width="878pt" height="698pt"
 viewBox="0.00 0.00 878.00 698.00" xmlns="http://www.w3.org/2000/svg" xmlns:xlink="http://www.w3.org/1999/xlink">
<g id="graph0" class="graph" transform="scale(1 1) rotate(0) translate(4 694)">
<title>AbstractPhaseBasedCellCycleModel</title>
<!-- Node1 -->
<g id="Node000001" class="node">
<title>Node1</title>
<g id="a_Node000001"><a xlink:title=" ">
<polygon fill="#999999" stroke="transparent" points="690.5,-273 515.5,-273 515.5,0 690.5,0 690.5,-273"/>
<text text-anchor="start" x="530.5" y="-260.5" font-family="Helvetica,sans-Serif" font-size="10.00">AbstractPhaseBasedCellCycle</text>
<text text-anchor="start" x="588" y="-249.5" font-family="Helvetica,sans-Serif" font-size="10.00">Model</text>
<text text-anchor="start" x="601.5" y="-234.5" font-family="Helvetica,sans-Serif" font-size="10.00"> </text>
<text text-anchor="start" x="520" y="-219.5" font-family="Helvetica,sans-Serif" font-size="10.00">+</text>
<text text-anchor="start" x="533" y="-219.5" font-family="Helvetica,sans-Serif" font-size="10.00">AbstractPhaseBasedCellCycle</text>
<text text-anchor="start" x="533" y="-208.5" font-family="Helvetica,sans-Serif" font-size="10.00">Model()</text>
<text text-anchor="start" x="520" y="-193.5" font-family="Helvetica,sans-Serif" font-size="10.00">+</text>
<text text-anchor="start" x="533" y="-193.5" font-family="Helvetica,sans-Serif" font-size="10.00">~AbstractPhaseBasedCellCycle</text>
<text text-anchor="start" x="533" y="-182.5" font-family="Helvetica,sans-Serif" font-size="10.00">Model()</text>
<text text-anchor="start" x="520" y="-167.5" font-family="Helvetica,sans-Serif" font-size="10.00">+</text>
<text text-anchor="start" x="533" y="-167.5" font-family="Helvetica,sans-Serif" font-size="10.00">ReadyToDivide()</text>
<text text-anchor="start" x="520" y="-152.5" font-family="Helvetica,sans-Serif" font-size="10.00">+</text>
<text text-anchor="start" x="533" y="-152.5" font-family="Helvetica,sans-Serif" font-size="10.00">ResetForDivision()</text>
<text text-anchor="start" x="520" y="-137.5" font-family="Helvetica,sans-Serif" font-size="10.00">+</text>
<text text-anchor="start" x="533" y="-137.5" font-family="Helvetica,sans-Serif" font-size="10.00">UpdateCellCyclePhase()</text>
<text text-anchor="start" x="520" y="-122.5" font-family="Helvetica,sans-Serif" font-size="10.00">+</text>
<text text-anchor="start" x="533" y="-122.5" font-family="Helvetica,sans-Serif" font-size="10.00">GetCurrentCellCyclePhase()</text>
<text text-anchor="start" x="520" y="-107.5" font-family="Helvetica,sans-Serif" font-size="10.00">+</text>
<text text-anchor="start" x="533" y="-107.5" font-family="Helvetica,sans-Serif" font-size="10.00">GetG1Duration()</text>
<text text-anchor="start" x="520" y="-92.5" font-family="Helvetica,sans-Serif" font-size="10.00">+</text>
<text text-anchor="start" x="533" y="-92.5" font-family="Helvetica,sans-Serif" font-size="10.00">GetStemCellG1Duration()</text>
<text text-anchor="start" x="520" y="-77.5" font-family="Helvetica,sans-Serif" font-size="10.00">+</text>
<text text-anchor="start" x="533" y="-77.5" font-family="Helvetica,sans-Serif" font-size="10.00">GetTransitCellG1Duration()</text>
<text text-anchor="start" x="520" y="-62.5" font-family="Helvetica,sans-Serif" font-size="10.00">+</text>
<text text-anchor="start" x="533" y="-62.5" font-family="Helvetica,sans-Serif" font-size="10.00">GetSG2MDuration()</text>
<text text-anchor="start" x="533" y="-47.5" font-family="Helvetica,sans-Serif" font-size="10.00">and 13 more...</text>
<text text-anchor="start" x="520" y="-32.5" font-family="Helvetica,sans-Serif" font-size="10.00">#</text>
<text text-anchor="start" x="533" y="-32.5" font-family="Helvetica,sans-Serif" font-size="10.00">AbstractPhaseBasedCellCycle</text>
<text text-anchor="start" x="533" y="-21.5" font-family="Helvetica,sans-Serif" font-size="10.00">Model()</text>
<text text-anchor="start" x="522.5" y="-6.5" font-family="Helvetica,sans-Serif" font-size="10.00">&#45;</text>
<text text-anchor="start" x="533" y="-6.5" font-family="Helvetica,sans-Serif" font-size="10.00">serialize()</text>
<polygon fill="#666666" stroke="#666666" points="516,-244.5 516,-244.5 691,-244.5 691,-244.5 516,-244.5"/>
<polygon fill="#666666" stroke="#666666" points="516,-229.5 516,-229.5 691,-229.5 691,-229.5 516,-229.5"/>
<polygon fill="none" stroke="#666666" points="515.5,0 515.5,-273 690.5,-273 690.5,0 515.5,0"/>
</a>
</g>
</g>
<!-- Node2 -->
<g id="Node000002" class="node">
<title>Node2</title>
<g id="a_Node000002"><a xlink:href="classAbstractCellCycleModel.html" target="_top" xlink:title=" ">
<polygon fill="white" stroke="transparent" points="440,-564 286,-564 286,-320 440,-320 440,-564"/>
<text text-anchor="start" x="304.5" y="-552" font-family="Helvetica,sans-Serif" font-size="10.00">AbstractCellCycleModel</text>
<text text-anchor="start" x="361" y="-537" font-family="Helvetica,sans-Serif" font-size="10.00"> </text>
<text text-anchor="start" x="290" y="-522" font-family="Helvetica,sans-Serif" font-size="10.00">+</text>
<text text-anchor="start" x="303" y="-522" font-family="Helvetica,sans-Serif" font-size="10.00">AbstractCellCycleModel()</text>
<text text-anchor="start" x="290" y="-507" font-family="Helvetica,sans-Serif" font-size="10.00">+</text>
<text text-anchor="start" x="303" y="-507" font-family="Helvetica,sans-Serif" font-size="10.00">~AbstractCellCycleModel()</text>
<text text-anchor="start" x="290" y="-492" font-family="Helvetica,sans-Serif" font-size="10.00">+</text>
<text text-anchor="start" x="303" y="-492" font-family="Helvetica,sans-Serif" font-size="10.00">SetCell()</text>
<text text-anchor="start" x="290" y="-477" font-family="Helvetica,sans-Serif" font-size="10.00">+</text>
<text text-anchor="start" x="303" y="-477" font-family="Helvetica,sans-Serif" font-size="10.00">Initialise()</text>
<text text-anchor="start" x="290" y="-462" font-family="Helvetica,sans-Serif" font-size="10.00">+</text>
<text text-anchor="start" x="303" y="-462" font-family="Helvetica,sans-Serif" font-size="10.00">InitialiseDaughterCell()</text>
<text text-anchor="start" x="290" y="-447" font-family="Helvetica,sans-Serif" font-size="10.00">+</text>
<text text-anchor="start" x="303" y="-447" font-family="Helvetica,sans-Serif" font-size="10.00">GetCell()</text>
<text text-anchor="start" x="290" y="-432" font-family="Helvetica,sans-Serif" font-size="10.00">+</text>
<text text-anchor="start" x="303" y="-432" font-family="Helvetica,sans-Serif" font-size="10.00">SetBirthTime()</text>
<text text-anchor="start" x="290" y="-417" font-family="Helvetica,sans-Serif" font-size="10.00">+</text>
<text text-anchor="start" x="303" y="-417" font-family="Helvetica,sans-Serif" font-size="10.00">SetDimension()</text>
<text text-anchor="start" x="290" y="-402" font-family="Helvetica,sans-Serif" font-size="10.00">+</text>
<text text-anchor="start" x="303" y="-402" font-family="Helvetica,sans-Serif" font-size="10.00">GetDimension()</text>
<text text-anchor="start" x="290" y="-387" font-family="Helvetica,sans-Serif" font-size="10.00">+</text>
<text text-anchor="start" x="303" y="-387" font-family="Helvetica,sans-Serif" font-size="10.00">GetBirthTime()</text>
<text text-anchor="start" x="303" y="-372" font-family="Helvetica,sans-Serif" font-size="10.00">and 9 more...</text>
<text text-anchor="start" x="290" y="-357" font-family="Helvetica,sans-Serif" font-size="10.00">#</text>
<text text-anchor="start" x="303" y="-357" font-family="Helvetica,sans-Serif" font-size="10.00">AbstractCellCycleModel()</text>
<text text-anchor="start" x="292.5" y="-342" font-family="Helvetica,sans-Serif" font-size="10.00">&#45;</text>
<text text-anchor="start" x="303" y="-342" font-family="Helvetica,sans-Serif" font-size="10.00">serialize()</text>
<text text-anchor="start" x="292.5" y="-327" font-family="Helvetica,sans-Serif" font-size="10.00">&#45;</text>
<text text-anchor="start" x="303" y="-327" font-family="Helvetica,sans-Serif" font-size="10.00">operator=()</text>
<polygon fill="#666666" stroke="#666666" points="286,-547 286,-547 440,-547 440,-547 286,-547"/>
<polygon fill="#666666" stroke="#666666" points="286,-532 286,-532 440,-532 440,-532 286,-532"/>
<polygon fill="none" stroke="#666666" points="286,-320 286,-564 440,-564 440,-320 286,-320"/>
</a>
</g>
</g>
<!-- Node2&#45;&gt;Node1 -->
<g id="edge1_Node000001_Node000002" class="edge">
<title>Node2&#45;&gt;Node1</title>
<g id="a_edge1_Node000001_Node000002"><a xlink:title=" ">
<path fill="none" stroke="#63b8ff" d="M446.5,-335.41C468.8,-307.21 492.96,-276.66 515.47,-248.19"/>
<polygon fill="none" stroke="#63b8ff" points="443.72,-333.29 440.26,-343.3 449.21,-337.63 443.72,-333.29"/>
</a>
</g>
</g>
<!-- Node3 -->
<g id="Node000003" class="node">
<title>Node3</title>
<g id="a_Node000003"><a xlink:href="classIdentifiable.html" target="_top" xlink:title=" ">
<polygon fill="white" stroke="transparent" points="298,-690 122,-690 122,-611 298,-611 298,-690"/>
<text text-anchor="start" x="182.5" y="-677.5" font-family="Helvetica,sans-Serif" font-size="10.00">Identifiable</text>
<text text-anchor="start" x="208" y="-662.5" font-family="Helvetica,sans-Serif" font-size="10.00"> </text>
<text text-anchor="start" x="126" y="-647.5" font-family="Helvetica,sans-Serif" font-size="10.00">+</text>
<text text-anchor="start" x="139" y="-647.5" font-family="Helvetica,sans-Serif" font-size="10.00">~Identifiable()</text>
<text text-anchor="start" x="126" y="-632.5" font-family="Helvetica,sans-Serif" font-size="10.00">+</text>
<text text-anchor="start" x="139" y="-632.5" font-family="Helvetica,sans-Serif" font-size="10.00">GetIdentifier()</text>
<text text-anchor="start" x="128.5" y="-617.5" font-family="Helvetica,sans-Serif" font-size="10.00">&#45;</text>
<text text-anchor="start" x="139" y="-617.5" font-family="Helvetica,sans-Serif" font-size="10.00">TidyTemplatedExportIdentifier()</text>
<polygon fill="#666666" stroke="#666666" points="122,-672.5 122,-672.5 298,-672.5 298,-672.5 122,-672.5"/>
<polygon fill="#666666" stroke="#666666" points="122,-657.5 122,-657.5 298,-657.5 298,-657.5 122,-657.5"/>
<polygon fill="none" stroke="#666666" points="122,-611 122,-690 298,-690 298,-611 122,-611"/>
</a>
</g>
</g>
<!-- Node3&#45;&gt;Node2 -->
<g id="edge2_Node000002_Node000003" class="edge">
<title>Node3&#45;&gt;Node2</title>
<g id="a_edge2_Node000002_Node000003"><a xlink:title=" ">
<path fill="none" stroke="#63b8ff" d="M245,-602.26C257.27,-585.7 271.59,-566.37 285.93,-547.02"/>
<polygon fill="none" stroke="#63b8ff" points="241.92,-600.54 238.78,-610.66 247.54,-604.71 241.92,-600.54"/>
</a>
</g>
</g>
<!-- Node4 -->
<g id="Node000004" class="node">
<title>Node4</title>
<g id="a_Node000004"><a xlink:title=" ">
<polygon fill="white" stroke="transparent" points="104,-675 0,-675 0,-626 104,-626 104,-675"/>
<text text-anchor="start" x="5" y="-662.5" font-family="Helvetica,sans-Serif" font-size="10.00">shared_ptr&lt; Cell &gt;</text>
<text text-anchor="start" x="50" y="-647.5" font-family="Helvetica,sans-Serif" font-size="10.00"> </text>
<text text-anchor="start" x="50" y="-632.5" font-family="Helvetica,sans-Serif" font-size="10.00"> </text>
<polygon fill="#bfbfbf" stroke="#bfbfbf" points="0,-657.5 0,-657.5 104,-657.5 104,-657.5 0,-657.5"/>
<polygon fill="#bfbfbf" stroke="#bfbfbf" points="0,-642.5 0,-642.5 104,-642.5 104,-642.5 0,-642.5"/>
<polygon fill="none" stroke="#bfbfbf" points="0,-626 0,-675 104,-675 104,-626 0,-626"/>
</a>
</g>
</g>
<!-- Node4&#45;&gt;Node2 -->
<g id="edge3_Node000002_Node000004" class="edge">
<title>Node4&#45;&gt;Node2</title>
<g id="a_edge3_Node000002_Node000004"><a xlink:title=" ">
<path fill="none" stroke="#63b8ff" d="M87.68,-625.81C133.17,-595.61 213.38,-542.35 275.53,-501.08"/>
<polygon fill="none" stroke="#63b8ff" points="275.73,-500.94 278.52,-494.29 285.73,-494.31 282.94,-500.96 275.73,-500.94"/>
</a>
</g>
<text text-anchor="middle" x="176" y="-585" font-family="Helvetica,sans-Serif" font-size="10.00" fill="grey"> #mpCell</text>
</g>
<!-- Node5 -->
<g id="Node000005" class="node">
<title>Node5</title>
<g id="a_Node000005"><a xlink:href="classdouble.html" target="_top" xlink:title=" ">
<polygon fill="white" stroke="transparent" points="583,-675 539,-675 539,-626 583,-626 583,-675"/>
<text text-anchor="start" x="544" y="-662.5" font-family="Helvetica,sans-Serif" font-size="10.00">double</text>
<text text-anchor="start" x="559" y="-647.5" font-family="Helvetica,sans-Serif" font-size="10.00"> </text>
<text text-anchor="start" x="559" y="-632.5" font-family="Helvetica,sans-Serif" font-size="10.00"> </text>
<polygon fill="#bfbfbf" stroke="#bfbfbf" points="539,-657.5 539,-657.5 583,-657.5 583,-657.5 539,-657.5"/>
<polygon fill="#bfbfbf" stroke="#bfbfbf" points="539,-642.5 539,-642.5 583,-642.5 583,-642.5 539,-642.5"/>
<polygon fill="none" stroke="#bfbfbf" points="539,-626 539,-675 583,-675 583,-626 539,-626"/>
</a>
</g>
</g>
<!-- Node5&#45;&gt;Node1 -->
<g id="edge8_Node000001_Node000005" class="edge">
<title>Node5&#45;&gt;Node1</title>
<g id="a_edge8_Node000001_Node000005"><a xlink:title=" ">
<path fill="none" stroke="#63b8ff" d="M568.95,-625.85C571.98,-615.83 575.16,-603.96 577,-593 594.11,-491.15 600.54,-374.9 602.73,-285.33"/>
<polygon fill="none" stroke="#63b8ff" points="602.73,-285.14 598.87,-279.06 603,-273.15 606.86,-279.24 602.73,-285.14"/>
</a>
</g>
<text text-anchor="middle" x="665.5" y="-472.5" font-family="Helvetica,sans-Serif" font-size="10.00" fill="grey"> #mG1Duration</text>
<text text-anchor="middle" x="665.5" y="-461.5" font-family="Helvetica,sans-Serif" font-size="10.00" fill="grey">#mG2Duration</text>
<text text-anchor="middle" x="665.5" y="-450.5" font-family="Helvetica,sans-Serif" font-size="10.00" fill="grey">#mMDuration</text>
<text text-anchor="middle" x="665.5" y="-439.5" font-family="Helvetica,sans-Serif" font-size="10.00" fill="grey">#mMinimumGapDuration</text>
<text text-anchor="middle" x="665.5" y="-428.5" font-family="Helvetica,sans-Serif" font-size="10.00" fill="grey">#mSDuration</text>
<text text-anchor="middle" x="665.5" y="-417.5" font-family="Helvetica,sans-Serif" font-size="10.00" fill="grey">#mStemCellG1Duration</text>
<text text-anchor="middle" x="665.5" y="-406.5" font-family="Helvetica,sans-Serif" font-size="10.00" fill="grey">#mTransitCellG1Duration</text>
</g>
<!-- Node5&#45;&gt;Node2 -->
<g id="edge4_Node000002_Node000005" class="edge">
<title>Node5&#45;&gt;Node2</title>
<g id="a_edge4_Node000002_Node000005"><a xlink:title=" ">
<path fill="none" stroke="#63b8ff" d="M538.67,-626.21C516.67,-603.27 481.64,-566.74 448.64,-532.32"/>
<polygon fill="none" stroke="#63b8ff" points="448.61,-532.28 441.57,-530.72 440.3,-523.62 447.34,-525.18 448.61,-532.28"/>
</a>
</g>
<text text-anchor="middle" x="538" y="-585" font-family="Helvetica,sans-Serif" font-size="10.00" fill="grey"> #mBirthTime</text>
</g>
<!-- Node6 -->
<g id="Node000006" class="node">
<title>Node6</title>
<g id="a_Node000006"><a xlink:href="classbool.html" target="_top" xlink:title=" ">
<polygon fill="white" stroke="transparent" points="348,-675 316,-675 316,-626 348,-626 348,-675"/>
<text text-anchor="start" x="321" y="-662.5" font-family="Helvetica,sans-Serif" font-size="10.00">bool</text>
<text text-anchor="start" x="330" y="-647.5" font-family="Helvetica,sans-Serif" font-size="10.00"> </text>
<text text-anchor="start" x="330" y="-632.5" font-family="Helvetica,sans-Serif" font-size="10.00"> </text>
<polygon fill="#bfbfbf" stroke="#bfbfbf" points="316,-657.5 316,-657.5 348,-657.5 348,-657.5 316,-657.5"/>
<polygon fill="#bfbfbf" stroke="#bfbfbf" points="316,-642.5 316,-642.5 348,-642.5 348,-642.5 316,-642.5"/>
<polygon fill="none" stroke="#bfbfbf" points="316,-626 316,-675 348,-675 348,-626 316,-626"/>
</a>
</g>
</g>
<!-- Node6&#45;&gt;Node2 -->
<g id="edge5_Node000002_Node000006" class="edge">
<title>Node6&#45;&gt;Node2</title>
<g id="a_edge5_Node000002_Node000006"><a xlink:title=" ">
<path fill="none" stroke="#63b8ff" d="M315.94,-627.33C308.47,-614.45 301.85,-597.72 305,-582 305.41,-579.97 305.84,-577.94 306.31,-575.9"/>
<polygon fill="none" stroke="#63b8ff" points="306.33,-575.82 303.91,-569.02 309.26,-564.18 311.67,-570.98 306.33,-575.82"/>
</a>
</g>
<text text-anchor="middle" x="352" y="-585" font-family="Helvetica,sans-Serif" font-size="10.00" fill="grey"> #mReadyToDivide</text>
</g>
<!-- Node7 -->
<g id="Node000007" class="node">
<title>Node7</title>
<g id="a_Node000007"><a xlink:href="classunsigned.html" target="_top" xlink:title=" ">
<polygon fill="white" stroke="transparent" points="448.5,-675 393.5,-675 393.5,-626 448.5,-626 448.5,-675"/>
<text text-anchor="start" x="399" y="-662.5" font-family="Helvetica,sans-Serif" font-size="10.00">unsigned</text>
<text text-anchor="start" x="419.5" y="-647.5" font-family="Helvetica,sans-Serif" font-size="10.00"> </text>
<text text-anchor="start" x="419.5" y="-632.5" font-family="Helvetica,sans-Serif" font-size="10.00"> </text>
<polygon fill="#bfbfbf" stroke="#bfbfbf" points="394,-657.5 394,-657.5 449,-657.5 449,-657.5 394,-657.5"/>
<polygon fill="#bfbfbf" stroke="#bfbfbf" points="394,-642.5 394,-642.5 449,-642.5 449,-642.5 394,-642.5"/>
<polygon fill="none" stroke="#bfbfbf" points="393.5,-626 393.5,-675 448.5,-675 448.5,-626 393.5,-626"/>
</a>
</g>
</g>
<!-- Node7&#45;&gt;Node2 -->
<g id="edge6_Node000002_Node000007" class="edge">
<title>Node7&#45;&gt;Node2</title>
<g id="a_edge6_Node000002_Node000007"><a xlink:title=" ">
<path fill="none" stroke="#63b8ff" d="M414.35,-625.81C410.63,-612.59 405.68,-594.95 400.31,-575.84"/>
<polygon fill="none" stroke="#63b8ff" points="400.26,-575.65 394.79,-570.96 397.01,-564.1 402.49,-568.8 400.26,-575.65"/>
</a>
</g>
<text text-anchor="middle" x="441" y="-585" font-family="Helvetica,sans-Serif" font-size="10.00" fill="grey"> #mDimension</text>
</g>
<!-- Node8 -->
<g id="Node000008" class="node">
<title>Node8</title>
<g id="a_Node000008"><a xlink:title=" ">
<polygon fill="white" stroke="transparent" points="870,-466.5 748,-466.5 748,-417.5 870,-417.5 870,-466.5"/>
<text text-anchor="start" x="753" y="-454" font-family="Helvetica,sans-Serif" font-size="10.00">enum CellCyclePhase_</text>
<text text-anchor="start" x="807" y="-439" font-family="Helvetica,sans-Serif" font-size="10.00"> </text>
<text text-anchor="start" x="807" y="-424" font-family="Helvetica,sans-Serif" font-size="10.00"> </text>
<polygon fill="#bfbfbf" stroke="#bfbfbf" points="748,-449 748,-449 870,-449 870,-449 748,-449"/>
<polygon fill="#bfbfbf" stroke="#bfbfbf" points="748,-434 748,-434 870,-434 870,-434 748,-434"/>
<polygon fill="none" stroke="#bfbfbf" points="748,-417.5 748,-466.5 870,-466.5 870,-417.5 748,-417.5"/>
</a>
</g>
</g>
<!-- Node8&#45;&gt;Node1 -->
<g id="edge7_Node000001_Node000008" class="edge">
<title>Node8&#45;&gt;Node1</title>
<g id="a_edge7_Node000001_Node000008"><a xlink:title=" ">
<path fill="none" stroke="#63b8ff" d="M794.81,-417.05C780.06,-392.42 756.1,-353.09 734,-320 722.59,-302.92 710.34,-285.14 698.06,-267.68"/>
<polygon fill="none" stroke="#63b8ff" points="697.76,-267.24 691.03,-264.65 690.84,-257.44 697.57,-260.04 697.76,-267.24"/>
</a>
</g>
<text text-anchor="middle" x="787.5" y="-294" font-family="Helvetica,sans-Serif" font-size="10.00" fill="grey"> #mCurrentCellCyclePhase</text>
</g>
</g>
</svg>
