<?xml version="1.0" encoding="UTF-8" standalone="no"?>
<!DOCTYPE svg PUBLIC "-//W3C//DTD SVG 1.1//EN"
 "http://www.w3.org/Graphics/SVG/1.1/DTD/svg11.dtd">
<!-- Generated by graphviz version 2.43.0 (0)
 -->
<!-- Title: AbstractVertexBasedDivisionRule&lt; SPACE_DIM &gt; Pages: 1 -->
<svg width="184pt" height="302pt"
 viewBox="0.00 0.00 184.00 302.00" xmlns="http://www.w3.org/2000/svg" xmlns:xlink="http://www.w3.org/1999/xlink">
<g id="graph0" class="graph" transform="scale(1 1) rotate(0) translate(4 298)">
<title>AbstractVertexBasedDivisionRule&lt; SPACE_DIM &gt;</title>
<!-- Node1 -->
<g id="Node000001" class="node">
<title>Node1</title>
<g id="a_Node000001"><a xlink:title=" ">
<polygon fill="#999999" stroke="transparent" points="175.5,-179 0.5,-179 0.5,0 175.5,0 175.5,-179"/>
<text text-anchor="start" x="17.5" y="-166.5" font-family="Helvetica,sans-Serif" font-size="10.00">AbstractVertexBasedDivision</text>
<text text-anchor="start" x="38.5" y="-155.5" font-family="Helvetica,sans-Serif" font-size="10.00">Rule&lt; SPACE_DIM &gt;</text>
<text text-anchor="start" x="86.5" y="-140.5" font-family="Helvetica,sans-Serif" font-size="10.00"> </text>
<text text-anchor="start" x="5" y="-125.5" font-family="Helvetica,sans-Serif" font-size="10.00">+</text>
<text text-anchor="start" x="18" y="-125.5" font-family="Helvetica,sans-Serif" font-size="10.00">AbstractVertexBasedDivision</text>
<text text-anchor="start" x="18" y="-114.5" font-family="Helvetica,sans-Serif" font-size="10.00">Rule()</text>
<text text-anchor="start" x="5" y="-99.5" font-family="Helvetica,sans-Serif" font-size="10.00">+</text>
<text text-anchor="start" x="18" y="-99.5" font-family="Helvetica,sans-Serif" font-size="10.00">~AbstractVertexBasedDivision</text>
<text text-anchor="start" x="18" y="-88.5" font-family="Helvetica,sans-Serif" font-size="10.00">Rule()</text>
<text text-anchor="start" x="5" y="-73.5" font-family="Helvetica,sans-Serif" font-size="10.00">+</text>
<text text-anchor="start" x="18" y="-73.5" font-family="Helvetica,sans-Serif" font-size="10.00">CalculateCellDivisionVector()</text>
<text text-anchor="start" x="5" y="-58.5" font-family="Helvetica,sans-Serif" font-size="10.00">+</text>
<text text-anchor="start" x="18" y="-58.5" font-family="Helvetica,sans-Serif" font-size="10.00">OutputCellVertexBasedDivision</text>
<text text-anchor="start" x="18" y="-47.5" font-family="Helvetica,sans-Serif" font-size="10.00">RuleInfo()</text>
<text text-anchor="start" x="5" y="-32.5" font-family="Helvetica,sans-Serif" font-size="10.00">#</text>
<text text-anchor="start" x="18" y="-32.5" font-family="Helvetica,sans-Serif" font-size="10.00">OutputCellVertexBasedDivision</text>
<text text-anchor="start" x="18" y="-21.5" font-family="Helvetica,sans-Serif" font-size="10.00">RuleParameters()</text>
<text text-anchor="start" x="7.5" y="-6.5" font-family="Helvetica,sans-Serif" font-size="10.00">&#45;</text>
<text text-anchor="start" x="18" y="-6.5" font-family="Helvetica,sans-Serif" font-size="10.00">serialize()</text>
<polygon fill="#666666" stroke="#666666" points="1,-150.5 1,-150.5 176,-150.5 176,-150.5 1,-150.5"/>
<polygon fill="#666666" stroke="#666666" points="1,-135.5 1,-135.5 176,-135.5 176,-135.5 1,-135.5"/>
<polygon fill="none" stroke="#666666" points="0.5,0 0.5,-179 175.5,-179 175.5,0 0.5,0"/>
</a>
</g>
</g>
<!-- Node2 -->
<g id="Node000002" class="node">
<title>Node2</title>
<g id="a_Node000002"><a xlink:href="classIdentifiable.html" target="_top" xlink:title=" ">
<polygon fill="white" stroke="transparent" points="176,-294 0,-294 0,-215 176,-215 176,-294"/>
<text text-anchor="start" x="60.5" y="-281.5" font-family="Helvetica,sans-Serif" font-size="10.00">Identifiable</text>
<text text-anchor="start" x="86" y="-266.5" font-family="Helvetica,sans-Serif" font-size="10.00"> </text>
<text text-anchor="start" x="4" y="-251.5" font-family="Helvetica,sans-Serif" font-size="10.00">+</text>
<text text-anchor="start" x="17" y="-251.5" font-family="Helvetica,sans-Serif" font-size="10.00">~Identifiable()</text>
<text text-anchor="start" x="4" y="-236.5" font-family="Helvetica,sans-Serif" font-size="10.00">+</text>
<text text-anchor="start" x="17" y="-236.5" font-family="Helvetica,sans-Serif" font-size="10.00">GetIdentifier()</text>
<text text-anchor="start" x="6.5" y="-221.5" font-family="Helvetica,sans-Serif" font-size="10.00">&#45;</text>
<text text-anchor="start" x="17" y="-221.5" font-family="Helvetica,sans-Serif" font-size="10.00">TidyTemplatedExportIdentifier()</text>
<polygon fill="#666666" stroke="#666666" points="0,-276.5 0,-276.5 176,-276.5 176,-276.5 0,-276.5"/>
<polygon fill="#666666" stroke="#666666" points="0,-261.5 0,-261.5 176,-261.5 176,-261.5 0,-261.5"/>
<polygon fill="none" stroke="#666666" points="0,-215 0,-294 176,-294 176,-215 0,-215"/>
</a>
</g>
</g>
<!-- Node2&#45;&gt;Node1 -->
<g id="edge1_Node000001_Node000002" class="edge">
<title>Node2&#45;&gt;Node1</title>
<g id="a_edge1_Node000001_Node000002"><a xlink:title=" ">
<path fill="none" stroke="#63b8ff" d="M88,-204.8C88,-196.59 88,-187.86 88,-179.01"/>
<polygon fill="none" stroke="#63b8ff" points="84.5,-204.87 88,-214.87 91.5,-204.87 84.5,-204.87"/>
</a>
</g>
</g>
</g>
</svg>
