<?xml version="1.0" encoding="UTF-8" standalone="no"?>
<!DOCTYPE svg PUBLIC "-//W3C//DTD SVG 1.1//EN"
 "http://www.w3.org/Graphics/SVG/1.1/DTD/svg11.dtd">
<!-- Generated by graphviz version 2.43.0 (0)
 -->
<!-- Title: SerializableSingleton&lt; SINGLETON_CLASS &gt; Pages: 1 -->
<svg width="156pt" height="183pt"
 viewBox="0.00 0.00 156.00 183.00" xmlns="http://www.w3.org/2000/svg" xmlns:xlink="http://www.w3.org/1999/xlink">
<g id="graph0" class="graph" transform="scale(1 1) rotate(0) translate(4 179)">
<title>SerializableSingleton&lt; SINGLETON_CLASS &gt;</title>
<!-- Node1 -->
<g id="Node000001" class="node">
<title>Node1</title>
<g id="a_Node000001"><a xlink:title=" ">
<polygon fill="#999999" stroke="transparent" points="148,-90 0,-90 0,0 148,0 148,-90"/>
<text text-anchor="start" x="16" y="-78" font-family="Helvetica,sans-Serif" font-size="10.00">SerializableSingleton</text>
<text text-anchor="start" x="16" y="-67" font-family="Helvetica,sans-Serif" font-size="10.00">&lt; SINGLETON_CLASS &gt;</text>
<text text-anchor="start" x="72" y="-52" font-family="Helvetica,sans-Serif" font-size="10.00"> </text>
<text text-anchor="start" x="4" y="-37" font-family="Helvetica,sans-Serif" font-size="10.00">+</text>
<text text-anchor="start" x="17" y="-37" font-family="Helvetica,sans-Serif" font-size="10.00">GetSerializationWrapper()</text>
<text text-anchor="start" x="6.5" y="-22" font-family="Helvetica,sans-Serif" font-size="10.00">&#45;</text>
<text text-anchor="start" x="17" y="-22" font-family="Helvetica,sans-Serif" font-size="10.00">save()</text>
<text text-anchor="start" x="6.5" y="-7" font-family="Helvetica,sans-Serif" font-size="10.00">&#45;</text>
<text text-anchor="start" x="17" y="-7" font-family="Helvetica,sans-Serif" font-size="10.00">load()</text>
<polygon fill="#666666" stroke="#666666" points="0,-62 0,-62 148,-62 148,-62 0,-62"/>
<polygon fill="#666666" stroke="#666666" points="0,-47 0,-47 148,-47 148,-47 0,-47"/>
<polygon fill="none" stroke="#666666" points="0,0 0,-90 148,-90 148,0 0,0"/>
</a>
</g>
</g>
<!-- Node2 -->
<g id="Node000002" class="node">
<title>Node2</title>
<g id="a_Node000002"><a xlink:title=" ">
<polygon fill="white" stroke="transparent" points="127,-175 21,-175 21,-126 127,-126 127,-175"/>
<text text-anchor="start" x="26" y="-162.5" font-family="Helvetica,sans-Serif" font-size="10.00">boost::noncopyable</text>
<text text-anchor="start" x="72" y="-147.5" font-family="Helvetica,sans-Serif" font-size="10.00"> </text>
<text text-anchor="start" x="72" y="-132.5" font-family="Helvetica,sans-Serif" font-size="10.00"> </text>
<polygon fill="#bfbfbf" stroke="#bfbfbf" points="21,-157.5 21,-157.5 127,-157.5 127,-157.5 21,-157.5"/>
<polygon fill="#bfbfbf" stroke="#bfbfbf" points="21,-142.5 21,-142.5 127,-142.5 127,-142.5 21,-142.5"/>
<polygon fill="none" stroke="#bfbfbf" points="21,-126 21,-175 127,-175 127,-126 21,-126"/>
</a>
</g>
</g>
<!-- Node2&#45;&gt;Node1 -->
<g id="edge1_Node000001_Node000002" class="edge">
<title>Node2&#45;&gt;Node1</title>
<g id="a_edge1_Node000001_Node000002"><a xlink:title=" ">
<path fill="none" stroke="#8b1a1a" d="M74,-115.62C74,-107.56 74,-98.84 74,-90.39"/>
<polygon fill="none" stroke="#8b1a1a" points="70.5,-115.75 74,-125.76 77.5,-115.76 70.5,-115.75"/>
</a>
</g>
</g>
</g>
</svg>
