<?xml version="1.0" encoding="UTF-8" standalone="no"?>
<!DOCTYPE svg PUBLIC "-//W3C//DTD SVG 1.1//EN"
 "http://www.w3.org/Graphics/SVG/1.1/DTD/svg11.dtd">
<!-- Generated by graphviz version 2.43.0 (0)
 -->
<!-- Title: VolumeConstraintPottsUpdateRule&lt; DIM &gt; Pages: 1 -->
<svg width="200pt" height="652pt"
 viewBox="0.00 0.00 200.00 652.00" xmlns="http://www.w3.org/2000/svg" xmlns:xlink="http://www.w3.org/1999/xlink">
<g id="graph0" class="graph" transform="scale(1 1) rotate(0) translate(4 648)">
<title>VolumeConstraintPottsUpdateRule&lt; DIM &gt;</title>
<!-- Node1 -->
<g id="Node000001" class="node">
<title>Node1</title>
<g id="a_Node000001"><a xlink:title=" ">
<polygon fill="#999999" stroke="transparent" points="192,-217 0,-217 0,0 192,0 192,-217"/>
<text text-anchor="start" x="22" y="-204.5" font-family="Helvetica,sans-Serif" font-size="10.00">VolumeConstraintPottsUpdate</text>
<text text-anchor="start" x="64" y="-193.5" font-family="Helvetica,sans-Serif" font-size="10.00">Rule&lt; DIM &gt;</text>
<text text-anchor="start" x="6.5" y="-178.5" font-family="Helvetica,sans-Serif" font-size="10.00">&#45;</text>
<text text-anchor="start" x="17" y="-178.5" font-family="Helvetica,sans-Serif" font-size="10.00">mDeformationEnergyParameter</text>
<text text-anchor="start" x="6.5" y="-163.5" font-family="Helvetica,sans-Serif" font-size="10.00">&#45;</text>
<text text-anchor="start" x="17" y="-163.5" font-family="Helvetica,sans-Serif" font-size="10.00">mMatureCellTargetVolume</text>
<text text-anchor="start" x="4" y="-148.5" font-family="Helvetica,sans-Serif" font-size="10.00">+</text>
<text text-anchor="start" x="17" y="-148.5" font-family="Helvetica,sans-Serif" font-size="10.00">VolumeConstraintPottsUpdate</text>
<text text-anchor="start" x="17" y="-137.5" font-family="Helvetica,sans-Serif" font-size="10.00">Rule()</text>
<text text-anchor="start" x="4" y="-122.5" font-family="Helvetica,sans-Serif" font-size="10.00">+</text>
<text text-anchor="start" x="17" y="-122.5" font-family="Helvetica,sans-Serif" font-size="10.00">~VolumeConstraintPottsUpdate</text>
<text text-anchor="start" x="17" y="-111.5" font-family="Helvetica,sans-Serif" font-size="10.00">Rule()</text>
<text text-anchor="start" x="4" y="-96.5" font-family="Helvetica,sans-Serif" font-size="10.00">+</text>
<text text-anchor="start" x="17" y="-96.5" font-family="Helvetica,sans-Serif" font-size="10.00">EvaluateHamiltonianContribution()</text>
<text text-anchor="start" x="4" y="-81.5" font-family="Helvetica,sans-Serif" font-size="10.00">+</text>
<text text-anchor="start" x="17" y="-81.5" font-family="Helvetica,sans-Serif" font-size="10.00">GetDeformationEnergyParameter()</text>
<text text-anchor="start" x="4" y="-66.5" font-family="Helvetica,sans-Serif" font-size="10.00">+</text>
<text text-anchor="start" x="17" y="-66.5" font-family="Helvetica,sans-Serif" font-size="10.00">SetDeformationEnergyParameter()</text>
<text text-anchor="start" x="4" y="-51.5" font-family="Helvetica,sans-Serif" font-size="10.00">+</text>
<text text-anchor="start" x="17" y="-51.5" font-family="Helvetica,sans-Serif" font-size="10.00">GetMatureCellTargetVolume()</text>
<text text-anchor="start" x="4" y="-36.5" font-family="Helvetica,sans-Serif" font-size="10.00">+</text>
<text text-anchor="start" x="17" y="-36.5" font-family="Helvetica,sans-Serif" font-size="10.00">SetMatureCellTargetVolume()</text>
<text text-anchor="start" x="4" y="-21.5" font-family="Helvetica,sans-Serif" font-size="10.00">+</text>
<text text-anchor="start" x="17" y="-21.5" font-family="Helvetica,sans-Serif" font-size="10.00">OutputUpdateRuleParameters()</text>
<text text-anchor="start" x="6.5" y="-6.5" font-family="Helvetica,sans-Serif" font-size="10.00">&#45;</text>
<text text-anchor="start" x="17" y="-6.5" font-family="Helvetica,sans-Serif" font-size="10.00">serialize()</text>
<polygon fill="#666666" stroke="#666666" points="0,-188.5 0,-188.5 192,-188.5 192,-188.5 0,-188.5"/>
<polygon fill="#666666" stroke="#666666" points="0,-158.5 0,-158.5 15,-158.5 15,-158.5 0,-158.5"/>
<polygon fill="#666666" stroke="#666666" points="15,-158.5 15,-158.5 192,-158.5 192,-158.5 15,-158.5"/>
<polygon fill="none" stroke="#666666" points="0,0 0,-217 192,-217 192,0 0,0"/>
</a>
</g>
</g>
<!-- Node2 -->
<g id="Node000002" class="node">
<title>Node2</title>
<g id="a_Node000002"><a xlink:href="classAbstractPottsUpdateRule.html" target="_top" xlink:title=" ">
<polygon fill="white" stroke="transparent" points="192,-373 0,-373 0,-253 192,-253 192,-373"/>
<text text-anchor="start" x="34.5" y="-361" font-family="Helvetica,sans-Serif" font-size="10.00">AbstractPottsUpdateRule</text>
<text text-anchor="start" x="74.5" y="-350" font-family="Helvetica,sans-Serif" font-size="10.00">&lt; DIM &gt;</text>
<text text-anchor="start" x="94" y="-335" font-family="Helvetica,sans-Serif" font-size="10.00"> </text>
<text text-anchor="start" x="4" y="-320" font-family="Helvetica,sans-Serif" font-size="10.00">+</text>
<text text-anchor="start" x="17" y="-320" font-family="Helvetica,sans-Serif" font-size="10.00">AbstractPottsUpdateRule()</text>
<text text-anchor="start" x="4" y="-305" font-family="Helvetica,sans-Serif" font-size="10.00">+</text>
<text text-anchor="start" x="17" y="-305" font-family="Helvetica,sans-Serif" font-size="10.00">~AbstractPottsUpdateRule()</text>
<text text-anchor="start" x="4" y="-290" font-family="Helvetica,sans-Serif" font-size="10.00">+</text>
<text text-anchor="start" x="17" y="-290" font-family="Helvetica,sans-Serif" font-size="10.00">EvaluateHamiltonianContribution()</text>
<text text-anchor="start" x="4" y="-275" font-family="Helvetica,sans-Serif" font-size="10.00">+</text>
<text text-anchor="start" x="17" y="-275" font-family="Helvetica,sans-Serif" font-size="10.00">OutputUpdateRuleParameters()</text>
<text text-anchor="start" x="6.5" y="-260" font-family="Helvetica,sans-Serif" font-size="10.00">&#45;</text>
<text text-anchor="start" x="17" y="-260" font-family="Helvetica,sans-Serif" font-size="10.00">serialize()</text>
<polygon fill="#666666" stroke="#666666" points="0,-345 0,-345 192,-345 192,-345 0,-345"/>
<polygon fill="#666666" stroke="#666666" points="0,-330 0,-330 192,-330 192,-330 0,-330"/>
<polygon fill="none" stroke="#666666" points="0,-253 0,-373 192,-373 192,-253 0,-253"/>
</a>
</g>
</g>
<!-- Node2&#45;&gt;Node1 -->
<g id="edge1_Node000001_Node000002" class="edge">
<title>Node2&#45;&gt;Node1</title>
<g id="a_edge1_Node000001_Node000002"><a xlink:title=" ">
<path fill="none" stroke="#63b8ff" d="M96,-242.87C96,-234.51 96,-225.82 96,-217.08"/>
<polygon fill="none" stroke="#63b8ff" points="92.5,-242.88 96,-252.88 99.5,-242.88 92.5,-242.88"/>
</a>
</g>
</g>
<!-- Node3 -->
<g id="Node000003" class="node">
<title>Node3</title>
<g id="a_Node000003"><a xlink:href="classAbstractUpdateRule.html" target="_top" xlink:title=" ">
<polygon fill="white" stroke="transparent" points="183.5,-529 8.5,-529 8.5,-409 183.5,-409 183.5,-529"/>
<text text-anchor="start" x="47.5" y="-517" font-family="Helvetica,sans-Serif" font-size="10.00">AbstractUpdateRule</text>
<text text-anchor="start" x="75" y="-506" font-family="Helvetica,sans-Serif" font-size="10.00">&lt; DIM &gt;</text>
<text text-anchor="start" x="94.5" y="-491" font-family="Helvetica,sans-Serif" font-size="10.00"> </text>
<text text-anchor="start" x="13" y="-476" font-family="Helvetica,sans-Serif" font-size="10.00">+</text>
<text text-anchor="start" x="26" y="-476" font-family="Helvetica,sans-Serif" font-size="10.00">AbstractUpdateRule()</text>
<text text-anchor="start" x="13" y="-461" font-family="Helvetica,sans-Serif" font-size="10.00">+</text>
<text text-anchor="start" x="26" y="-461" font-family="Helvetica,sans-Serif" font-size="10.00">~AbstractUpdateRule()</text>
<text text-anchor="start" x="13" y="-446" font-family="Helvetica,sans-Serif" font-size="10.00">+</text>
<text text-anchor="start" x="26" y="-446" font-family="Helvetica,sans-Serif" font-size="10.00">OutputUpdateRuleInfo()</text>
<text text-anchor="start" x="13" y="-431" font-family="Helvetica,sans-Serif" font-size="10.00">+</text>
<text text-anchor="start" x="26" y="-431" font-family="Helvetica,sans-Serif" font-size="10.00">OutputUpdateRuleParameters()</text>
<text text-anchor="start" x="15.5" y="-416" font-family="Helvetica,sans-Serif" font-size="10.00">&#45;</text>
<text text-anchor="start" x="26" y="-416" font-family="Helvetica,sans-Serif" font-size="10.00">serialize()</text>
<polygon fill="#666666" stroke="#666666" points="9,-501 9,-501 184,-501 184,-501 9,-501"/>
<polygon fill="#666666" stroke="#666666" points="9,-486 9,-486 184,-486 184,-486 9,-486"/>
<polygon fill="none" stroke="#666666" points="8.5,-409 8.5,-529 183.5,-529 183.5,-409 8.5,-409"/>
</a>
</g>
</g>
<!-- Node3&#45;&gt;Node2 -->
<g id="edge2_Node000002_Node000003" class="edge">
<title>Node3&#45;&gt;Node2</title>
<g id="a_edge2_Node000002_Node000003"><a xlink:title=" ">
<path fill="none" stroke="#63b8ff" d="M96,-398.63C96,-390.14 96,-381.52 96,-373.2"/>
<polygon fill="none" stroke="#63b8ff" points="92.5,-398.9 96,-408.9 99.5,-398.9 92.5,-398.9"/>
</a>
</g>
</g>
<!-- Node4 -->
<g id="Node000004" class="node">
<title>Node4</title>
<g id="a_Node000004"><a xlink:href="classIdentifiable.html" target="_top" xlink:title=" ">
<polygon fill="white" stroke="transparent" points="184,-644 8,-644 8,-565 184,-565 184,-644"/>
<text text-anchor="start" x="68.5" y="-631.5" font-family="Helvetica,sans-Serif" font-size="10.00">Identifiable</text>
<text text-anchor="start" x="94" y="-616.5" font-family="Helvetica,sans-Serif" font-size="10.00"> </text>
<text text-anchor="start" x="12" y="-601.5" font-family="Helvetica,sans-Serif" font-size="10.00">+</text>
<text text-anchor="start" x="25" y="-601.5" font-family="Helvetica,sans-Serif" font-size="10.00">~Identifiable()</text>
<text text-anchor="start" x="12" y="-586.5" font-family="Helvetica,sans-Serif" font-size="10.00">+</text>
<text text-anchor="start" x="25" y="-586.5" font-family="Helvetica,sans-Serif" font-size="10.00">GetIdentifier()</text>
<text text-anchor="start" x="14.5" y="-571.5" font-family="Helvetica,sans-Serif" font-size="10.00">&#45;</text>
<text text-anchor="start" x="25" y="-571.5" font-family="Helvetica,sans-Serif" font-size="10.00">TidyTemplatedExportIdentifier()</text>
<polygon fill="#666666" stroke="#666666" points="8,-626.5 8,-626.5 184,-626.5 184,-626.5 8,-626.5"/>
<polygon fill="#666666" stroke="#666666" points="8,-611.5 8,-611.5 184,-611.5 184,-611.5 8,-611.5"/>
<polygon fill="none" stroke="#666666" points="8,-565 8,-644 184,-644 184,-565 8,-565"/>
</a>
</g>
</g>
<!-- Node4&#45;&gt;Node3 -->
<g id="edge3_Node000003_Node000004" class="edge">
<title>Node4&#45;&gt;Node3</title>
<g id="a_edge3_Node000003_Node000004"><a xlink:title=" ">
<path fill="none" stroke="#63b8ff" d="M96,-554.64C96,-546.36 96,-537.67 96,-529.15"/>
<polygon fill="none" stroke="#63b8ff" points="92.5,-554.89 96,-564.89 99.5,-554.89 92.5,-554.89"/>
</a>
</g>
</g>
</g>
</svg>
