<?xml version="1.0" encoding="UTF-8" standalone="no"?>
<!DOCTYPE svg PUBLIC "-//W3C//DTD SVG 1.1//EN"
 "http://www.w3.org/Graphics/SVG/1.1/DTD/svg11.dtd">
<!-- Generated by graphviz version 2.43.0 (0)
 -->
<!-- Title: PottsMesh&lt; DIM &gt; Pages: 1 -->
<svg width="298pt" height="1575pt"
 viewBox="0.00 0.00 297.50 1575.00" xmlns="http://www.w3.org/2000/svg" xmlns:xlink="http://www.w3.org/1999/xlink">
<g id="graph0" class="graph" transform="scale(1 1) rotate(0) translate(4 1571)">
<title>PottsMesh&lt; DIM &gt;</title>
<!-- Node1 -->
<g id="Node000001" class="node">
<title>Node1</title>
<g id="a_Node000001"><a xlink:title=" ">
<polygon fill="#999999" stroke="transparent" points="187,-707 0,-707 0,-377 187,-377 187,-707"/>
<text text-anchor="start" x="47" y="-695" font-family="Helvetica,sans-Serif" font-size="10.00">PottsMesh&lt; DIM &gt;</text>
<text text-anchor="start" x="4.5" y="-680" font-family="Helvetica,sans-Serif" font-size="10.00">#</text>
<text text-anchor="start" x="17.5" y="-680" font-family="Helvetica,sans-Serif" font-size="10.00">mElements</text>
<text text-anchor="start" x="4.5" y="-665" font-family="Helvetica,sans-Serif" font-size="10.00">#</text>
<text text-anchor="start" x="17.5" y="-665" font-family="Helvetica,sans-Serif" font-size="10.00">mDeletedElementIndices</text>
<text text-anchor="start" x="4.5" y="-650" font-family="Helvetica,sans-Serif" font-size="10.00">#</text>
<text text-anchor="start" x="17.5" y="-650" font-family="Helvetica,sans-Serif" font-size="10.00">mVonNeumannNeighbouringNode</text>
<text text-anchor="start" x="17.5" y="-639" font-family="Helvetica,sans-Serif" font-size="10.00">Indices</text>
<text text-anchor="start" x="4.5" y="-624" font-family="Helvetica,sans-Serif" font-size="10.00">#</text>
<text text-anchor="start" x="17.5" y="-624" font-family="Helvetica,sans-Serif" font-size="10.00">mMooreNeighbouringNodeIndices</text>
<text text-anchor="start" x="4.5" y="-609" font-family="Helvetica,sans-Serif" font-size="10.00">+</text>
<text text-anchor="start" x="17.5" y="-609" font-family="Helvetica,sans-Serif" font-size="10.00">GetElementIteratorBegin()</text>
<text text-anchor="start" x="4.5" y="-594" font-family="Helvetica,sans-Serif" font-size="10.00">+</text>
<text text-anchor="start" x="17.5" y="-594" font-family="Helvetica,sans-Serif" font-size="10.00">GetElementIteratorEnd()</text>
<text text-anchor="start" x="4.5" y="-579" font-family="Helvetica,sans-Serif" font-size="10.00">+</text>
<text text-anchor="start" x="17.5" y="-579" font-family="Helvetica,sans-Serif" font-size="10.00">PottsMesh()</text>
<text text-anchor="start" x="4.5" y="-564" font-family="Helvetica,sans-Serif" font-size="10.00">+</text>
<text text-anchor="start" x="17.5" y="-564" font-family="Helvetica,sans-Serif" font-size="10.00">PottsMesh()</text>
<text text-anchor="start" x="4.5" y="-549" font-family="Helvetica,sans-Serif" font-size="10.00">+</text>
<text text-anchor="start" x="17.5" y="-549" font-family="Helvetica,sans-Serif" font-size="10.00">~PottsMesh()</text>
<text text-anchor="start" x="4.5" y="-534" font-family="Helvetica,sans-Serif" font-size="10.00">+</text>
<text text-anchor="start" x="17.5" y="-534" font-family="Helvetica,sans-Serif" font-size="10.00">GetNumNodes()</text>
<text text-anchor="start" x="4.5" y="-519" font-family="Helvetica,sans-Serif" font-size="10.00">+</text>
<text text-anchor="start" x="17.5" y="-519" font-family="Helvetica,sans-Serif" font-size="10.00">GetNumElements()</text>
<text text-anchor="start" x="4.5" y="-504" font-family="Helvetica,sans-Serif" font-size="10.00">+</text>
<text text-anchor="start" x="17.5" y="-504" font-family="Helvetica,sans-Serif" font-size="10.00">GetNumAllElements()</text>
<text text-anchor="start" x="4.5" y="-489" font-family="Helvetica,sans-Serif" font-size="10.00">+</text>
<text text-anchor="start" x="17.5" y="-489" font-family="Helvetica,sans-Serif" font-size="10.00">GetElement()</text>
<text text-anchor="start" x="4.5" y="-474" font-family="Helvetica,sans-Serif" font-size="10.00">+</text>
<text text-anchor="start" x="17.5" y="-474" font-family="Helvetica,sans-Serif" font-size="10.00">GetCentroidOfElement()</text>
<text text-anchor="start" x="17.5" y="-459" font-family="Helvetica,sans-Serif" font-size="10.00">and 12 more...</text>
<text text-anchor="start" x="4.5" y="-444" font-family="Helvetica,sans-Serif" font-size="10.00">#</text>
<text text-anchor="start" x="17.5" y="-444" font-family="Helvetica,sans-Serif" font-size="10.00">SolveNodeMapping()</text>
<text text-anchor="start" x="4.5" y="-429" font-family="Helvetica,sans-Serif" font-size="10.00">#</text>
<text text-anchor="start" x="17.5" y="-429" font-family="Helvetica,sans-Serif" font-size="10.00">SolveElementMapping()</text>
<text text-anchor="start" x="4.5" y="-414" font-family="Helvetica,sans-Serif" font-size="10.00">#</text>
<text text-anchor="start" x="17.5" y="-414" font-family="Helvetica,sans-Serif" font-size="10.00">SolveBoundaryElementMapping()</text>
<text text-anchor="start" x="4.5" y="-399" font-family="Helvetica,sans-Serif" font-size="10.00">#</text>
<text text-anchor="start" x="17.5" y="-399" font-family="Helvetica,sans-Serif" font-size="10.00">save()</text>
<text text-anchor="start" x="4.5" y="-384" font-family="Helvetica,sans-Serif" font-size="10.00">#</text>
<text text-anchor="start" x="17.5" y="-384" font-family="Helvetica,sans-Serif" font-size="10.00">load()</text>
<polygon fill="#666666" stroke="#666666" points="0.5,-690 0.5,-690 187.5,-690 187.5,-690 0.5,-690"/>
<polygon fill="#666666" stroke="#666666" points="0.5,-619 0.5,-619 15.5,-619 15.5,-619 0.5,-619"/>
<polygon fill="#666666" stroke="#666666" points="15.5,-619 15.5,-619 187.5,-619 187.5,-619 15.5,-619"/>
<polygon fill="none" stroke="#666666" points="0,-377 0,-707 187,-707 187,-377 0,-377"/>
</a>
</g>
</g>
<!-- Node5 -->
<g id="Node000005" class="node">
<title>Node5</title>
<g id="a_Node000005"><a xlink:href="classPottsMesh.html" target="_top" xlink:title=" ">
<polygon fill="white" stroke="transparent" points="187,-330 0,-330 0,0 187,0 187,-330"/>
<text text-anchor="start" x="29" y="-318" font-family="Helvetica,sans-Serif" font-size="10.00">PottsMesh&lt; SPACE_DIM &gt;</text>
<text text-anchor="start" x="4.5" y="-303" font-family="Helvetica,sans-Serif" font-size="10.00">#</text>
<text text-anchor="start" x="17.5" y="-303" font-family="Helvetica,sans-Serif" font-size="10.00">mElements</text>
<text text-anchor="start" x="4.5" y="-288" font-family="Helvetica,sans-Serif" font-size="10.00">#</text>
<text text-anchor="start" x="17.5" y="-288" font-family="Helvetica,sans-Serif" font-size="10.00">mDeletedElementIndices</text>
<text text-anchor="start" x="4.5" y="-273" font-family="Helvetica,sans-Serif" font-size="10.00">#</text>
<text text-anchor="start" x="17.5" y="-273" font-family="Helvetica,sans-Serif" font-size="10.00">mVonNeumannNeighbouringNode</text>
<text text-anchor="start" x="17.5" y="-262" font-family="Helvetica,sans-Serif" font-size="10.00">Indices</text>
<text text-anchor="start" x="4.5" y="-247" font-family="Helvetica,sans-Serif" font-size="10.00">#</text>
<text text-anchor="start" x="17.5" y="-247" font-family="Helvetica,sans-Serif" font-size="10.00">mMooreNeighbouringNodeIndices</text>
<text text-anchor="start" x="4.5" y="-232" font-family="Helvetica,sans-Serif" font-size="10.00">+</text>
<text text-anchor="start" x="17.5" y="-232" font-family="Helvetica,sans-Serif" font-size="10.00">GetElementIteratorBegin()</text>
<text text-anchor="start" x="4.5" y="-217" font-family="Helvetica,sans-Serif" font-size="10.00">+</text>
<text text-anchor="start" x="17.5" y="-217" font-family="Helvetica,sans-Serif" font-size="10.00">GetElementIteratorEnd()</text>
<text text-anchor="start" x="4.5" y="-202" font-family="Helvetica,sans-Serif" font-size="10.00">+</text>
<text text-anchor="start" x="17.5" y="-202" font-family="Helvetica,sans-Serif" font-size="10.00">PottsMesh()</text>
<text text-anchor="start" x="4.5" y="-187" font-family="Helvetica,sans-Serif" font-size="10.00">+</text>
<text text-anchor="start" x="17.5" y="-187" font-family="Helvetica,sans-Serif" font-size="10.00">PottsMesh()</text>
<text text-anchor="start" x="4.5" y="-172" font-family="Helvetica,sans-Serif" font-size="10.00">+</text>
<text text-anchor="start" x="17.5" y="-172" font-family="Helvetica,sans-Serif" font-size="10.00">~PottsMesh()</text>
<text text-anchor="start" x="4.5" y="-157" font-family="Helvetica,sans-Serif" font-size="10.00">+</text>
<text text-anchor="start" x="17.5" y="-157" font-family="Helvetica,sans-Serif" font-size="10.00">GetNumNodes()</text>
<text text-anchor="start" x="4.5" y="-142" font-family="Helvetica,sans-Serif" font-size="10.00">+</text>
<text text-anchor="start" x="17.5" y="-142" font-family="Helvetica,sans-Serif" font-size="10.00">GetNumElements()</text>
<text text-anchor="start" x="4.5" y="-127" font-family="Helvetica,sans-Serif" font-size="10.00">+</text>
<text text-anchor="start" x="17.5" y="-127" font-family="Helvetica,sans-Serif" font-size="10.00">GetNumAllElements()</text>
<text text-anchor="start" x="4.5" y="-112" font-family="Helvetica,sans-Serif" font-size="10.00">+</text>
<text text-anchor="start" x="17.5" y="-112" font-family="Helvetica,sans-Serif" font-size="10.00">GetElement()</text>
<text text-anchor="start" x="4.5" y="-97" font-family="Helvetica,sans-Serif" font-size="10.00">+</text>
<text text-anchor="start" x="17.5" y="-97" font-family="Helvetica,sans-Serif" font-size="10.00">GetCentroidOfElement()</text>
<text text-anchor="start" x="17.5" y="-82" font-family="Helvetica,sans-Serif" font-size="10.00">and 12 more...</text>
<text text-anchor="start" x="4.5" y="-67" font-family="Helvetica,sans-Serif" font-size="10.00">#</text>
<text text-anchor="start" x="17.5" y="-67" font-family="Helvetica,sans-Serif" font-size="10.00">SolveNodeMapping()</text>
<text text-anchor="start" x="4.5" y="-52" font-family="Helvetica,sans-Serif" font-size="10.00">#</text>
<text text-anchor="start" x="17.5" y="-52" font-family="Helvetica,sans-Serif" font-size="10.00">SolveElementMapping()</text>
<text text-anchor="start" x="4.5" y="-37" font-family="Helvetica,sans-Serif" font-size="10.00">#</text>
<text text-anchor="start" x="17.5" y="-37" font-family="Helvetica,sans-Serif" font-size="10.00">SolveBoundaryElementMapping()</text>
<text text-anchor="start" x="4.5" y="-22" font-family="Helvetica,sans-Serif" font-size="10.00">#</text>
<text text-anchor="start" x="17.5" y="-22" font-family="Helvetica,sans-Serif" font-size="10.00">save()</text>
<text text-anchor="start" x="4.5" y="-7" font-family="Helvetica,sans-Serif" font-size="10.00">#</text>
<text text-anchor="start" x="17.5" y="-7" font-family="Helvetica,sans-Serif" font-size="10.00">load()</text>
<polygon fill="#666666" stroke="#666666" points="0.5,-313 0.5,-313 187.5,-313 187.5,-313 0.5,-313"/>
<polygon fill="#666666" stroke="#666666" points="0.5,-242 0.5,-242 15.5,-242 15.5,-242 0.5,-242"/>
<polygon fill="#666666" stroke="#666666" points="15.5,-242 15.5,-242 187.5,-242 187.5,-242 15.5,-242"/>
<polygon fill="none" stroke="#666666" points="0,0 0,-330 187,-330 187,0 0,0"/>
</a>
</g>
</g>
<!-- Node1&#45;&gt;Node5 -->
<g id="edge5_Node000001_Node000005" class="edge">
<title>Node1&#45;&gt;Node5</title>
<g id="a_edge5_Node000001_Node000005"><a xlink:title=" ">
<path fill="none" stroke="orange" d="M93.5,-366.62C93.5,-354.49 93.5,-342.28 93.5,-330.2"/>
<polygon fill="orange" stroke="orange" points="90,-366.79 93.5,-376.79 97,-366.79 90,-366.79"/>
</a>
</g>
<text text-anchor="middle" x="134.5" y="-351" font-family="Helvetica,sans-Serif" font-size="10.00" fill="grey"> &lt; SPACE_DIM &gt;</text>
</g>
<!-- Node2 -->
<g id="Node000002" class="node">
<title>Node2</title>
<g id="a_Node000002"><a xlink:href="classAbstractMesh.html" target="_top" xlink:title=" ">
<polygon fill="white" stroke="transparent" points="185.5,-1089 1.5,-1089 1.5,-744 185.5,-744 185.5,-1089"/>
<text text-anchor="start" x="43" y="-1076.5" font-family="Helvetica,sans-Serif" font-size="10.00">AbstractMesh&lt; DIM,</text>
<text text-anchor="start" x="76.5" y="-1065.5" font-family="Helvetica,sans-Serif" font-size="10.00"> DIM &gt;</text>
<text text-anchor="start" x="5.5" y="-1050.5" font-family="Helvetica,sans-Serif" font-size="10.00">#</text>
<text text-anchor="start" x="18.5" y="-1050.5" font-family="Helvetica,sans-Serif" font-size="10.00">mNodes</text>
<text text-anchor="start" x="5.5" y="-1035.5" font-family="Helvetica,sans-Serif" font-size="10.00">#</text>
<text text-anchor="start" x="18.5" y="-1035.5" font-family="Helvetica,sans-Serif" font-size="10.00">mBoundaryNodes</text>
<text text-anchor="start" x="5.5" y="-1020.5" font-family="Helvetica,sans-Serif" font-size="10.00">#</text>
<text text-anchor="start" x="18.5" y="-1020.5" font-family="Helvetica,sans-Serif" font-size="10.00">mpDistributedVectorFactory</text>
<text text-anchor="start" x="5.5" y="-1005.5" font-family="Helvetica,sans-Serif" font-size="10.00">#</text>
<text text-anchor="start" x="18.5" y="-1005.5" font-family="Helvetica,sans-Serif" font-size="10.00">mNodePermutation</text>
<text text-anchor="start" x="5.5" y="-990.5" font-family="Helvetica,sans-Serif" font-size="10.00">#</text>
<text text-anchor="start" x="18.5" y="-990.5" font-family="Helvetica,sans-Serif" font-size="10.00">mMeshFileBaseName</text>
<text text-anchor="start" x="5.5" y="-975.5" font-family="Helvetica,sans-Serif" font-size="10.00">#</text>
<text text-anchor="start" x="18.5" y="-975.5" font-family="Helvetica,sans-Serif" font-size="10.00">mMeshChangesDuringSimulation</text>
<text text-anchor="start" x="5.5" y="-960.5" font-family="Helvetica,sans-Serif" font-size="10.00">+</text>
<text text-anchor="start" x="18.5" y="-960.5" font-family="Helvetica,sans-Serif" font-size="10.00">CalculateBoundingBox()</text>
<text text-anchor="start" x="5.5" y="-945.5" font-family="Helvetica,sans-Serif" font-size="10.00">+</text>
<text text-anchor="start" x="18.5" y="-945.5" font-family="Helvetica,sans-Serif" font-size="10.00">GetNodeIteratorBegin()</text>
<text text-anchor="start" x="5.5" y="-930.5" font-family="Helvetica,sans-Serif" font-size="10.00">+</text>
<text text-anchor="start" x="18.5" y="-930.5" font-family="Helvetica,sans-Serif" font-size="10.00">GetNodeIteratorEnd()</text>
<text text-anchor="start" x="5.5" y="-915.5" font-family="Helvetica,sans-Serif" font-size="10.00">+</text>
<text text-anchor="start" x="18.5" y="-915.5" font-family="Helvetica,sans-Serif" font-size="10.00">AbstractMesh()</text>
<text text-anchor="start" x="5.5" y="-900.5" font-family="Helvetica,sans-Serif" font-size="10.00">+</text>
<text text-anchor="start" x="18.5" y="-900.5" font-family="Helvetica,sans-Serif" font-size="10.00">~AbstractMesh()</text>
<text text-anchor="start" x="5.5" y="-885.5" font-family="Helvetica,sans-Serif" font-size="10.00">+</text>
<text text-anchor="start" x="18.5" y="-885.5" font-family="Helvetica,sans-Serif" font-size="10.00">GetNumNodes()</text>
<text text-anchor="start" x="5.5" y="-870.5" font-family="Helvetica,sans-Serif" font-size="10.00">+</text>
<text text-anchor="start" x="18.5" y="-870.5" font-family="Helvetica,sans-Serif" font-size="10.00">GetNumBoundaryNodes()</text>
<text text-anchor="start" x="5.5" y="-855.5" font-family="Helvetica,sans-Serif" font-size="10.00">+</text>
<text text-anchor="start" x="18.5" y="-855.5" font-family="Helvetica,sans-Serif" font-size="10.00">GetNumAllNodes()</text>
<text text-anchor="start" x="5.5" y="-840.5" font-family="Helvetica,sans-Serif" font-size="10.00">+</text>
<text text-anchor="start" x="18.5" y="-840.5" font-family="Helvetica,sans-Serif" font-size="10.00">GetNumNodeAttributes()</text>
<text text-anchor="start" x="5.5" y="-825.5" font-family="Helvetica,sans-Serif" font-size="10.00">+</text>
<text text-anchor="start" x="18.5" y="-825.5" font-family="Helvetica,sans-Serif" font-size="10.00">GetNode()</text>
<text text-anchor="start" x="18.5" y="-810.5" font-family="Helvetica,sans-Serif" font-size="10.00">and 28 more...</text>
<text text-anchor="start" x="5.5" y="-795.5" font-family="Helvetica,sans-Serif" font-size="10.00">#</text>
<text text-anchor="start" x="18.5" y="-795.5" font-family="Helvetica,sans-Serif" font-size="10.00">SetElementOwnerships()</text>
<text text-anchor="start" x="5.5" y="-780.5" font-family="Helvetica,sans-Serif" font-size="10.00">#</text>
<text text-anchor="start" x="18.5" y="-780.5" font-family="Helvetica,sans-Serif" font-size="10.00">CalculateBoundingBox()</text>
<text text-anchor="start" x="8" y="-765.5" font-family="Helvetica,sans-Serif" font-size="10.00">&#45;</text>
<text text-anchor="start" x="18.5" y="-765.5" font-family="Helvetica,sans-Serif" font-size="10.00">SolveNodeMapping()</text>
<text text-anchor="start" x="8" y="-750.5" font-family="Helvetica,sans-Serif" font-size="10.00">&#45;</text>
<text text-anchor="start" x="18.5" y="-750.5" font-family="Helvetica,sans-Serif" font-size="10.00">serialize()</text>
<polygon fill="#666666" stroke="#666666" points="1.5,-1060.5 1.5,-1060.5 185.5,-1060.5 185.5,-1060.5 1.5,-1060.5"/>
<polygon fill="#666666" stroke="#666666" points="1.5,-970.5 1.5,-970.5 16.5,-970.5 16.5,-970.5 1.5,-970.5"/>
<polygon fill="#666666" stroke="#666666" points="16.5,-970.5 16.5,-970.5 185.5,-970.5 185.5,-970.5 16.5,-970.5"/>
<polygon fill="none" stroke="#666666" points="1.5,-744 1.5,-1089 185.5,-1089 185.5,-744 1.5,-744"/>
</a>
</g>
</g>
<!-- Node2&#45;&gt;Node1 -->
<g id="edge1_Node000001_Node000002" class="edge">
<title>Node2&#45;&gt;Node1</title>
<g id="a_edge1_Node000001_Node000002"><a xlink:title=" ">
<path fill="none" stroke="#63b8ff" d="M93.5,-733.93C93.5,-725.03 93.5,-716.11 93.5,-707.26"/>
<polygon fill="none" stroke="#63b8ff" points="90,-733.97 93.5,-743.97 97,-733.97 90,-733.97"/>
</a>
</g>
</g>
<!-- Node3 -->
<g id="Node000003" class="node">
<title>Node3</title>
<g id="a_Node000003"><a xlink:title=" ">
<polygon fill="white" stroke="transparent" points="142.5,-1567 36.5,-1567 36.5,-1518 142.5,-1518 142.5,-1567"/>
<text text-anchor="start" x="41.5" y="-1554.5" font-family="Helvetica,sans-Serif" font-size="10.00">boost::noncopyable</text>
<text text-anchor="start" x="87.5" y="-1539.5" font-family="Helvetica,sans-Serif" font-size="10.00"> </text>
<text text-anchor="start" x="87.5" y="-1524.5" font-family="Helvetica,sans-Serif" font-size="10.00"> </text>
<polygon fill="#bfbfbf" stroke="#bfbfbf" points="36.5,-1549.5 36.5,-1549.5 142.5,-1549.5 142.5,-1549.5 36.5,-1549.5"/>
<polygon fill="#bfbfbf" stroke="#bfbfbf" points="36.5,-1534.5 36.5,-1534.5 142.5,-1534.5 142.5,-1534.5 36.5,-1534.5"/>
<polygon fill="none" stroke="#bfbfbf" points="36.5,-1518 36.5,-1567 142.5,-1567 142.5,-1518 36.5,-1518"/>
</a>
</g>
</g>
<!-- Node3&#45;&gt;Node2 -->
<g id="edge2_Node000002_Node000003" class="edge">
<title>Node3&#45;&gt;Node2</title>
<g id="a_edge2_Node000002_Node000003"><a xlink:title=" ">
<path fill="none" stroke="#8b1a1a" d="M89.72,-1507.63C90.22,-1429.87 91.47,-1234.14 92.4,-1089.3"/>
<polygon fill="none" stroke="#8b1a1a" points="86.22,-1507.78 89.65,-1517.8 93.22,-1507.82 86.22,-1507.78"/>
</a>
</g>
</g>
<!-- Node4 -->
<g id="Node000004" class="node">
<title>Node4</title>
<g id="a_Node000004"><a xlink:href="classAbstractMesh.html" target="_top" xlink:title=" ">
<polygon fill="white" stroke="transparent" points="289.5,-1481 105.5,-1481 105.5,-1136 289.5,-1136 289.5,-1481"/>
<text text-anchor="start" x="135.5" y="-1468.5" font-family="Helvetica,sans-Serif" font-size="10.00">AbstractMesh&lt; ELEMENT</text>
<text text-anchor="start" x="148.5" y="-1457.5" font-family="Helvetica,sans-Serif" font-size="10.00">_DIM, SPACE_DIM &gt;</text>
<text text-anchor="start" x="109.5" y="-1442.5" font-family="Helvetica,sans-Serif" font-size="10.00">#</text>
<text text-anchor="start" x="122.5" y="-1442.5" font-family="Helvetica,sans-Serif" font-size="10.00">mNodes</text>
<text text-anchor="start" x="109.5" y="-1427.5" font-family="Helvetica,sans-Serif" font-size="10.00">#</text>
<text text-anchor="start" x="122.5" y="-1427.5" font-family="Helvetica,sans-Serif" font-size="10.00">mBoundaryNodes</text>
<text text-anchor="start" x="109.5" y="-1412.5" font-family="Helvetica,sans-Serif" font-size="10.00">#</text>
<text text-anchor="start" x="122.5" y="-1412.5" font-family="Helvetica,sans-Serif" font-size="10.00">mpDistributedVectorFactory</text>
<text text-anchor="start" x="109.5" y="-1397.5" font-family="Helvetica,sans-Serif" font-size="10.00">#</text>
<text text-anchor="start" x="122.5" y="-1397.5" font-family="Helvetica,sans-Serif" font-size="10.00">mNodePermutation</text>
<text text-anchor="start" x="109.5" y="-1382.5" font-family="Helvetica,sans-Serif" font-size="10.00">#</text>
<text text-anchor="start" x="122.5" y="-1382.5" font-family="Helvetica,sans-Serif" font-size="10.00">mMeshFileBaseName</text>
<text text-anchor="start" x="109.5" y="-1367.5" font-family="Helvetica,sans-Serif" font-size="10.00">#</text>
<text text-anchor="start" x="122.5" y="-1367.5" font-family="Helvetica,sans-Serif" font-size="10.00">mMeshChangesDuringSimulation</text>
<text text-anchor="start" x="109.5" y="-1352.5" font-family="Helvetica,sans-Serif" font-size="10.00">+</text>
<text text-anchor="start" x="122.5" y="-1352.5" font-family="Helvetica,sans-Serif" font-size="10.00">GetNodeIteratorBegin()</text>
<text text-anchor="start" x="109.5" y="-1337.5" font-family="Helvetica,sans-Serif" font-size="10.00">+</text>
<text text-anchor="start" x="122.5" y="-1337.5" font-family="Helvetica,sans-Serif" font-size="10.00">GetNodeIteratorEnd()</text>
<text text-anchor="start" x="109.5" y="-1322.5" font-family="Helvetica,sans-Serif" font-size="10.00">+</text>
<text text-anchor="start" x="122.5" y="-1322.5" font-family="Helvetica,sans-Serif" font-size="10.00">AbstractMesh()</text>
<text text-anchor="start" x="109.5" y="-1307.5" font-family="Helvetica,sans-Serif" font-size="10.00">+</text>
<text text-anchor="start" x="122.5" y="-1307.5" font-family="Helvetica,sans-Serif" font-size="10.00">~AbstractMesh()</text>
<text text-anchor="start" x="109.5" y="-1292.5" font-family="Helvetica,sans-Serif" font-size="10.00">+</text>
<text text-anchor="start" x="122.5" y="-1292.5" font-family="Helvetica,sans-Serif" font-size="10.00">GetNumNodes()</text>
<text text-anchor="start" x="109.5" y="-1277.5" font-family="Helvetica,sans-Serif" font-size="10.00">+</text>
<text text-anchor="start" x="122.5" y="-1277.5" font-family="Helvetica,sans-Serif" font-size="10.00">GetNumBoundaryNodes()</text>
<text text-anchor="start" x="109.5" y="-1262.5" font-family="Helvetica,sans-Serif" font-size="10.00">+</text>
<text text-anchor="start" x="122.5" y="-1262.5" font-family="Helvetica,sans-Serif" font-size="10.00">GetNumAllNodes()</text>
<text text-anchor="start" x="109.5" y="-1247.5" font-family="Helvetica,sans-Serif" font-size="10.00">+</text>
<text text-anchor="start" x="122.5" y="-1247.5" font-family="Helvetica,sans-Serif" font-size="10.00">GetNumNodeAttributes()</text>
<text text-anchor="start" x="109.5" y="-1232.5" font-family="Helvetica,sans-Serif" font-size="10.00">+</text>
<text text-anchor="start" x="122.5" y="-1232.5" font-family="Helvetica,sans-Serif" font-size="10.00">GetNode()</text>
<text text-anchor="start" x="109.5" y="-1217.5" font-family="Helvetica,sans-Serif" font-size="10.00">+</text>
<text text-anchor="start" x="122.5" y="-1217.5" font-family="Helvetica,sans-Serif" font-size="10.00">GetNodeOrHaloNode()</text>
<text text-anchor="start" x="122.5" y="-1202.5" font-family="Helvetica,sans-Serif" font-size="10.00">and 28 more...</text>
<text text-anchor="start" x="109.5" y="-1187.5" font-family="Helvetica,sans-Serif" font-size="10.00">#</text>
<text text-anchor="start" x="122.5" y="-1187.5" font-family="Helvetica,sans-Serif" font-size="10.00">SetElementOwnerships()</text>
<text text-anchor="start" x="109.5" y="-1172.5" font-family="Helvetica,sans-Serif" font-size="10.00">#</text>
<text text-anchor="start" x="122.5" y="-1172.5" font-family="Helvetica,sans-Serif" font-size="10.00">CalculateBoundingBox()</text>
<text text-anchor="start" x="112" y="-1157.5" font-family="Helvetica,sans-Serif" font-size="10.00">&#45;</text>
<text text-anchor="start" x="122.5" y="-1157.5" font-family="Helvetica,sans-Serif" font-size="10.00">SolveNodeMapping()</text>
<text text-anchor="start" x="112" y="-1142.5" font-family="Helvetica,sans-Serif" font-size="10.00">&#45;</text>
<text text-anchor="start" x="122.5" y="-1142.5" font-family="Helvetica,sans-Serif" font-size="10.00">serialize()</text>
<polygon fill="#666666" stroke="#666666" points="105.5,-1452.5 105.5,-1452.5 289.5,-1452.5 289.5,-1452.5 105.5,-1452.5"/>
<polygon fill="#666666" stroke="#666666" points="105.5,-1362.5 105.5,-1362.5 120.5,-1362.5 120.5,-1362.5 105.5,-1362.5"/>
<polygon fill="#666666" stroke="#666666" points="120.5,-1362.5 120.5,-1362.5 289.5,-1362.5 289.5,-1362.5 120.5,-1362.5"/>
<polygon fill="none" stroke="#666666" points="105.5,-1136 105.5,-1481 289.5,-1481 289.5,-1136 105.5,-1136"/>
</a>
</g>
</g>
<!-- Node3&#45;&gt;Node4 -->
<g id="edge4_Node000004_Node000003" class="edge">
<title>Node3&#45;&gt;Node4</title>
<g id="a_edge4_Node000004_Node000003"><a xlink:title=" ">
<path fill="none" stroke="#8b1a1a" d="M104.79,-1508.66C108.57,-1500.53 112.89,-1491.25 117.55,-1481.25"/>
<polygon fill="none" stroke="#8b1a1a" points="101.5,-1507.43 100.45,-1517.98 107.84,-1510.39 101.5,-1507.43"/>
</a>
</g>
</g>
<!-- Node4&#45;&gt;Node2 -->
<g id="edge3_Node000002_Node000004" class="edge">
<title>Node4&#45;&gt;Node2</title>
<g id="a_edge3_Node000002_Node000004"><a xlink:title=" ">
<path fill="none" stroke="orange" d="M149.11,-1126.02C145.82,-1113.71 142.52,-1101.33 139.25,-1089.08"/>
<polygon fill="orange" stroke="orange" points="145.77,-1127.11 151.73,-1135.87 152.54,-1125.31 145.77,-1127.11"/>
</a>
</g>
<text text-anchor="middle" x="181" y="-1110" font-family="Helvetica,sans-Serif" font-size="10.00" fill="grey"> &lt; DIM, DIM &gt;</text>
</g>
</g>
</svg>
