<?xml version="1.0" encoding="UTF-8" standalone="no"?>
<!DOCTYPE svg PUBLIC "-//W3C//DTD SVG 1.1//EN"
 "http://www.w3.org/Graphics/SVG/1.1/DTD/svg11.dtd">
<!-- Generated by graphviz version 2.43.0 (0)
 -->
<!-- Title: AbstractCardiacCellFactory&lt; ELEMENT_DIM, SPACE_DIM &gt; Pages: 1 -->
<svg width="691pt" height="347pt"
 viewBox="0.00 0.00 691.00 347.00" xmlns="http://www.w3.org/2000/svg" xmlns:xlink="http://www.w3.org/1999/xlink">
<g id="graph0" class="graph" transform="scale(1 1) rotate(0) translate(4 343)">
<title>AbstractCardiacCellFactory&lt; ELEMENT_DIM, SPACE_DIM &gt;</title>
<!-- Node1 -->
<g id="Node000001" class="node">
<title>Node1</title>
<g id="a_Node000001"><a xlink:title=" ">
<polygon fill="#999999" stroke="transparent" points="441,-232 262,-232 262,0 441,0 441,-232"/>
<text text-anchor="start" x="274.5" y="-220" font-family="Helvetica,sans-Serif" font-size="10.00">AbstractCardiacCellFactory</text>
<text text-anchor="start" x="274.5" y="-209" font-family="Helvetica,sans-Serif" font-size="10.00">&lt; ELEMENT_DIM, SPACE_DIM &gt;</text>
<text text-anchor="start" x="350" y="-194" font-family="Helvetica,sans-Serif" font-size="10.00"> </text>
<text text-anchor="start" x="266.5" y="-179" font-family="Helvetica,sans-Serif" font-size="10.00">+</text>
<text text-anchor="start" x="279.5" y="-179" font-family="Helvetica,sans-Serif" font-size="10.00">CreateCardiacCellForNode()</text>
<text text-anchor="start" x="266.5" y="-164" font-family="Helvetica,sans-Serif" font-size="10.00">+</text>
<text text-anchor="start" x="279.5" y="-164" font-family="Helvetica,sans-Serif" font-size="10.00">CreateCardiacCellForTissue</text>
<text text-anchor="start" x="279.5" y="-153" font-family="Helvetica,sans-Serif" font-size="10.00">Node()</text>
<text text-anchor="start" x="266.5" y="-138" font-family="Helvetica,sans-Serif" font-size="10.00">+</text>
<text text-anchor="start" x="279.5" y="-138" font-family="Helvetica,sans-Serif" font-size="10.00">FinaliseCellCreation()</text>
<text text-anchor="start" x="266.5" y="-123" font-family="Helvetica,sans-Serif" font-size="10.00">+</text>
<text text-anchor="start" x="279.5" y="-123" font-family="Helvetica,sans-Serif" font-size="10.00">FillInCellularTransmural</text>
<text text-anchor="start" x="279.5" y="-112" font-family="Helvetica,sans-Serif" font-size="10.00">Areas()</text>
<text text-anchor="start" x="266.5" y="-97" font-family="Helvetica,sans-Serif" font-size="10.00">+</text>
<text text-anchor="start" x="279.5" y="-97" font-family="Helvetica,sans-Serif" font-size="10.00">GetNumberOfCells()</text>
<text text-anchor="start" x="266.5" y="-82" font-family="Helvetica,sans-Serif" font-size="10.00">+</text>
<text text-anchor="start" x="279.5" y="-82" font-family="Helvetica,sans-Serif" font-size="10.00">AbstractCardiacCellFactory()</text>
<text text-anchor="start" x="266.5" y="-67" font-family="Helvetica,sans-Serif" font-size="10.00">+</text>
<text text-anchor="start" x="279.5" y="-67" font-family="Helvetica,sans-Serif" font-size="10.00">~AbstractCardiacCellFactory()</text>
<text text-anchor="start" x="266.5" y="-52" font-family="Helvetica,sans-Serif" font-size="10.00">+</text>
<text text-anchor="start" x="279.5" y="-52" font-family="Helvetica,sans-Serif" font-size="10.00">SetMesh()</text>
<text text-anchor="start" x="266.5" y="-37" font-family="Helvetica,sans-Serif" font-size="10.00">+</text>
<text text-anchor="start" x="279.5" y="-37" font-family="Helvetica,sans-Serif" font-size="10.00">GetMesh()</text>
<text text-anchor="start" x="266.5" y="-22" font-family="Helvetica,sans-Serif" font-size="10.00">+</text>
<text text-anchor="start" x="279.5" y="-22" font-family="Helvetica,sans-Serif" font-size="10.00">SetHeartGeometryInformation()</text>
<text text-anchor="start" x="266.5" y="-7" font-family="Helvetica,sans-Serif" font-size="10.00">+</text>
<text text-anchor="start" x="279.5" y="-7" font-family="Helvetica,sans-Serif" font-size="10.00">GetHeartGeometryInformation()</text>
<polygon fill="#666666" stroke="#666666" points="262.5,-204 262.5,-204 441.5,-204 441.5,-204 262.5,-204"/>
<polygon fill="#666666" stroke="#666666" points="262.5,-189 262.5,-189 441.5,-189 441.5,-189 262.5,-189"/>
<polygon fill="none" stroke="#666666" points="262,0 262,-232 441,-232 441,0 262,0"/>
</a>
</g>
</g>
<!-- Node2 -->
<g id="Node000002" class="node">
<title>Node2</title>
<g id="a_Node000002"><a xlink:title=" ">
<polygon fill="white" stroke="transparent" points="173,-339 0,-339 0,-279 173,-279 173,-339"/>
<text text-anchor="start" x="5.5" y="-327" font-family="Helvetica,sans-Serif" font-size="10.00">AbstractTetrahedralMesh</text>
<text text-anchor="start" x="5.5" y="-316" font-family="Helvetica,sans-Serif" font-size="10.00">&lt; ELEMENT_DIM, SPACE_DIM &gt; *</text>
<text text-anchor="start" x="85" y="-301" font-family="Helvetica,sans-Serif" font-size="10.00"> </text>
<text text-anchor="start" x="85" y="-286" font-family="Helvetica,sans-Serif" font-size="10.00"> </text>
<polygon fill="#bfbfbf" stroke="#bfbfbf" points="0.5,-311 0.5,-311 173.5,-311 173.5,-311 0.5,-311"/>
<polygon fill="#bfbfbf" stroke="#bfbfbf" points="0.5,-296 0.5,-296 173.5,-296 173.5,-296 0.5,-296"/>
<polygon fill="none" stroke="#bfbfbf" points="0,-279 0,-339 173,-339 173,-279 0,-279"/>
</a>
</g>
</g>
<!-- Node2&#45;&gt;Node1 -->
<g id="edge1_Node000001_Node000002" class="edge">
<title>Node2&#45;&gt;Node1</title>
<g id="a_edge1_Node000001_Node000002"><a xlink:title=" ">
<path fill="none" stroke="#63b8ff" d="M126.75,-278.99C160,-255.03 208.63,-219.97 252.16,-188.6"/>
<polygon fill="none" stroke="#63b8ff" points="252.21,-188.57 254.74,-181.81 261.94,-181.55 259.41,-188.3 252.21,-188.57"/>
</a>
</g>
<text text-anchor="middle" x="190" y="-253" font-family="Helvetica,sans-Serif" font-size="10.00" fill="grey"> &#45;mpMesh</text>
</g>
<!-- Node3 -->
<g id="Node000003" class="node">
<title>Node3</title>
<g id="a_Node000003"><a xlink:title=" ">
<polygon fill="white" stroke="transparent" points="334,-339 191,-339 191,-279 334,-279 334,-339"/>
<text text-anchor="start" x="196.5" y="-327" font-family="Helvetica,sans-Serif" font-size="10.00">HeartGeometryInformation</text>
<text text-anchor="start" x="219.5" y="-316" font-family="Helvetica,sans-Serif" font-size="10.00">&lt; SPACE_DIM &gt; *</text>
<text text-anchor="start" x="261" y="-301" font-family="Helvetica,sans-Serif" font-size="10.00"> </text>
<text text-anchor="start" x="261" y="-286" font-family="Helvetica,sans-Serif" font-size="10.00"> </text>
<polygon fill="#bfbfbf" stroke="#bfbfbf" points="191.5,-311 191.5,-311 334.5,-311 334.5,-311 191.5,-311"/>
<polygon fill="#bfbfbf" stroke="#bfbfbf" points="191.5,-296 191.5,-296 334.5,-296 334.5,-296 191.5,-296"/>
<polygon fill="none" stroke="#bfbfbf" points="191,-279 191,-339 334,-339 334,-279 191,-279"/>
</a>
</g>
</g>
<!-- Node3&#45;&gt;Node1 -->
<g id="edge2_Node000001_Node000003" class="edge">
<title>Node3&#45;&gt;Node1</title>
<g id="a_edge2_Node000001_Node000003"><a xlink:title=" ">
<path fill="none" stroke="#63b8ff" d="M259.82,-278.88C259.8,-269.48 260.66,-259.14 263.5,-250 264.16,-247.86 264.87,-245.73 265.62,-243.59"/>
<polygon fill="none" stroke="#63b8ff" points="265.69,-243.44 264.13,-236.4 270.03,-232.25 271.59,-239.29 265.69,-243.44"/>
</a>
</g>
<text text-anchor="middle" x="341.5" y="-253" font-family="Helvetica,sans-Serif" font-size="10.00" fill="grey"> &#45;mpHeartGeometryInformation</text>
</g>
<!-- Node4 -->
<g id="Node000004" class="node">
<title>Node4</title>
<g id="a_Node000004"><a xlink:title=" ">
<polygon fill="white" stroke="transparent" points="516.5,-333.5 366.5,-333.5 366.5,-284.5 516.5,-284.5 516.5,-333.5"/>
<text text-anchor="start" x="371.5" y="-321" font-family="Helvetica,sans-Serif" font-size="10.00">shared_ptr&lt; ZeroStimulus &gt;</text>
<text text-anchor="start" x="439.5" y="-306" font-family="Helvetica,sans-Serif" font-size="10.00"> </text>
<text text-anchor="start" x="439.5" y="-291" font-family="Helvetica,sans-Serif" font-size="10.00"> </text>
<polygon fill="#bfbfbf" stroke="#bfbfbf" points="366.5,-316 366.5,-316 516.5,-316 516.5,-316 366.5,-316"/>
<polygon fill="#bfbfbf" stroke="#bfbfbf" points="366.5,-301 366.5,-301 516.5,-301 516.5,-301 366.5,-301"/>
<polygon fill="none" stroke="#bfbfbf" points="366.5,-284.5 366.5,-333.5 516.5,-333.5 516.5,-284.5 366.5,-284.5"/>
</a>
</g>
</g>
<!-- Node4&#45;&gt;Node1 -->
<g id="edge3_Node000001_Node000004" class="edge">
<title>Node4&#45;&gt;Node1</title>
<g id="a_edge3_Node000001_Node000004"><a xlink:title=" ">
<path fill="none" stroke="#63b8ff" d="M433.2,-284.34C429.3,-273.73 424.44,-261.12 419.5,-250 418.53,-247.82 417.55,-245.63 416.55,-243.43"/>
<polygon fill="none" stroke="#63b8ff" points="416.46,-243.23 410.31,-239.45 411.43,-232.33 417.58,-236.1 416.46,-243.23"/>
</a>
</g>
<text text-anchor="middle" x="470" y="-253" font-family="Helvetica,sans-Serif" font-size="10.00" fill="grey"> #mpZeroStimulus</text>
</g>
<!-- Node5 -->
<g id="Node000005" class="node">
<title>Node5</title>
<g id="a_Node000005"><a xlink:title=" ">
<polygon fill="white" stroke="transparent" points="683,-339 534,-339 534,-279 683,-279 683,-339"/>
<text text-anchor="start" x="539.5" y="-327" font-family="Helvetica,sans-Serif" font-size="10.00">shared_ptr&lt; AbstractIvpOde</text>
<text text-anchor="start" x="587.5" y="-316" font-family="Helvetica,sans-Serif" font-size="10.00">Solver &gt;</text>
<text text-anchor="start" x="607" y="-301" font-family="Helvetica,sans-Serif" font-size="10.00"> </text>
<text text-anchor="start" x="607" y="-286" font-family="Helvetica,sans-Serif" font-size="10.00"> </text>
<polygon fill="#bfbfbf" stroke="#bfbfbf" points="534.5,-311 534.5,-311 683.5,-311 683.5,-311 534.5,-311"/>
<polygon fill="#bfbfbf" stroke="#bfbfbf" points="534.5,-296 534.5,-296 683.5,-296 683.5,-296 534.5,-296"/>
<polygon fill="none" stroke="#bfbfbf" points="534,-279 534,-339 683,-339 683,-279 534,-279"/>
</a>
</g>
</g>
<!-- Node5&#45;&gt;Node1 -->
<g id="edge4_Node000001_Node000005" class="edge">
<title>Node5&#45;&gt;Node1</title>
<g id="a_edge4_Node000001_Node000005"><a xlink:title=" ">
<path fill="none" stroke="#63b8ff" d="M569.47,-278.99C538.01,-255.61 492.35,-221.67 450.93,-190.9"/>
<polygon fill="none" stroke="#63b8ff" points="450.7,-190.72 443.49,-190.35 441.06,-183.56 448.27,-183.93 450.7,-190.72"/>
</a>
</g>
<text text-anchor="middle" x="568.5" y="-253" font-family="Helvetica,sans-Serif" font-size="10.00" fill="grey"> #mpSolver</text>
</g>
</g>
</svg>
