<?xml version="1.0" encoding="UTF-8" standalone="no"?>
<!DOCTYPE svg PUBLIC "-//W3C//DTD SVG 1.1//EN"
 "http://www.w3.org/Graphics/SVG/1.1/DTD/svg11.dtd">
<!-- Generated by graphviz version 2.43.0 (0)
 -->
<!-- Title: RungeKuttaFehlbergIvpOdeSolver Pages: 1 -->
<svg width="184pt" height="639pt"
 viewBox="0.00 0.00 184.00 639.00" xmlns="http://www.w3.org/2000/svg" xmlns:xlink="http://www.w3.org/1999/xlink">
<g id="graph0" class="graph" transform="scale(1 1) rotate(0) translate(4 635)">
<title>RungeKuttaFehlbergIvpOdeSolver</title>
<!-- Node1 -->
<g id="Node000001" class="node">
<title>Node1</title>
<g id="a_Node000001"><a xlink:title=" ">
<polygon fill="#999999" stroke="transparent" points="165,-311 11,-311 11,0 165,0 165,-311"/>
<text text-anchor="start" x="21.5" y="-298.5" font-family="Helvetica,sans-Serif" font-size="10.00">RungeKuttaFehlbergIvpOde</text>
<text text-anchor="start" x="72.5" y="-287.5" font-family="Helvetica,sans-Serif" font-size="10.00">Solver</text>
<text text-anchor="start" x="17.5" y="-272.5" font-family="Helvetica,sans-Serif" font-size="10.00">&#45;</text>
<text text-anchor="start" x="28" y="-272.5" font-family="Helvetica,sans-Serif" font-size="10.00">m1932o2197</text>
<text text-anchor="start" x="17.5" y="-257.5" font-family="Helvetica,sans-Serif" font-size="10.00">&#45;</text>
<text text-anchor="start" x="28" y="-257.5" font-family="Helvetica,sans-Serif" font-size="10.00">m7200o2197</text>
<text text-anchor="start" x="17.5" y="-242.5" font-family="Helvetica,sans-Serif" font-size="10.00">&#45;</text>
<text text-anchor="start" x="28" y="-242.5" font-family="Helvetica,sans-Serif" font-size="10.00">m7296o2197</text>
<text text-anchor="start" x="17.5" y="-227.5" font-family="Helvetica,sans-Serif" font-size="10.00">&#45;</text>
<text text-anchor="start" x="28" y="-227.5" font-family="Helvetica,sans-Serif" font-size="10.00">m12o13</text>
<text text-anchor="start" x="17.5" y="-212.5" font-family="Helvetica,sans-Serif" font-size="10.00">&#45;</text>
<text text-anchor="start" x="28" y="-212.5" font-family="Helvetica,sans-Serif" font-size="10.00">m439o216</text>
<text text-anchor="start" x="17.5" y="-197.5" font-family="Helvetica,sans-Serif" font-size="10.00">&#45;</text>
<text text-anchor="start" x="28" y="-197.5" font-family="Helvetica,sans-Serif" font-size="10.00">m3680o513</text>
<text text-anchor="start" x="17.5" y="-182.5" font-family="Helvetica,sans-Serif" font-size="10.00">&#45;</text>
<text text-anchor="start" x="28" y="-182.5" font-family="Helvetica,sans-Serif" font-size="10.00">m845o4104</text>
<text text-anchor="start" x="17.5" y="-167.5" font-family="Helvetica,sans-Serif" font-size="10.00">&#45;</text>
<text text-anchor="start" x="28" y="-167.5" font-family="Helvetica,sans-Serif" font-size="10.00">m8o27</text>
<text text-anchor="start" x="17.5" y="-152.5" font-family="Helvetica,sans-Serif" font-size="10.00">&#45;</text>
<text text-anchor="start" x="28" y="-152.5" font-family="Helvetica,sans-Serif" font-size="10.00">m3544o2565</text>
<text text-anchor="start" x="17.5" y="-137.5" font-family="Helvetica,sans-Serif" font-size="10.00">&#45;</text>
<text text-anchor="start" x="28" y="-137.5" font-family="Helvetica,sans-Serif" font-size="10.00">m1859o4104</text>
<text text-anchor="start" x="28" y="-122.5" font-family="Helvetica,sans-Serif" font-size="10.00">and 19 more...</text>
<text text-anchor="start" x="15" y="-107.5" font-family="Helvetica,sans-Serif" font-size="10.00">+</text>
<text text-anchor="start" x="28" y="-107.5" font-family="Helvetica,sans-Serif" font-size="10.00">RungeKuttaFehlbergIvpOde</text>
<text text-anchor="start" x="28" y="-96.5" font-family="Helvetica,sans-Serif" font-size="10.00">Solver()</text>
<text text-anchor="start" x="15" y="-81.5" font-family="Helvetica,sans-Serif" font-size="10.00">+</text>
<text text-anchor="start" x="28" y="-81.5" font-family="Helvetica,sans-Serif" font-size="10.00">Solve()</text>
<text text-anchor="start" x="15" y="-66.5" font-family="Helvetica,sans-Serif" font-size="10.00">+</text>
<text text-anchor="start" x="28" y="-66.5" font-family="Helvetica,sans-Serif" font-size="10.00">Solve()</text>
<text text-anchor="start" x="15" y="-51.5" font-family="Helvetica,sans-Serif" font-size="10.00">#</text>
<text text-anchor="start" x="28" y="-51.5" font-family="Helvetica,sans-Serif" font-size="10.00">InternalSolve()</text>
<text text-anchor="start" x="15" y="-36.5" font-family="Helvetica,sans-Serif" font-size="10.00">#</text>
<text text-anchor="start" x="28" y="-36.5" font-family="Helvetica,sans-Serif" font-size="10.00">CalculateNextYValue()</text>
<text text-anchor="start" x="15" y="-21.5" font-family="Helvetica,sans-Serif" font-size="10.00">#</text>
<text text-anchor="start" x="28" y="-21.5" font-family="Helvetica,sans-Serif" font-size="10.00">AdjustStepSize()</text>
<text text-anchor="start" x="17.5" y="-6.5" font-family="Helvetica,sans-Serif" font-size="10.00">&#45;</text>
<text text-anchor="start" x="28" y="-6.5" font-family="Helvetica,sans-Serif" font-size="10.00">serialize()</text>
<polygon fill="#666666" stroke="#666666" points="11,-282.5 11,-282.5 165,-282.5 165,-282.5 11,-282.5"/>
<polygon fill="#666666" stroke="#666666" points="11,-117.5 11,-117.5 26,-117.5 26,-117.5 11,-117.5"/>
<polygon fill="#666666" stroke="#666666" points="26,-117.5 26,-117.5 165,-117.5 165,-117.5 26,-117.5"/>
<polygon fill="none" stroke="#666666" points="11,0 11,-311 165,-311 165,0 11,0"/>
</a>
</g>
</g>
<!-- Node2 -->
<g id="Node000002" class="node">
<title>Node2</title>
<g id="a_Node000002"><a xlink:href="classAbstractIvpOdeSolver.html" target="_top" xlink:title=" ">
<polygon fill="white" stroke="transparent" points="175.5,-516 0.5,-516 0.5,-347 175.5,-347 175.5,-516"/>
<text text-anchor="start" x="35.5" y="-503.5" font-family="Helvetica,sans-Serif" font-size="10.00">AbstractIvpOdeSolver</text>
<text text-anchor="start" x="5" y="-488.5" font-family="Helvetica,sans-Serif" font-size="10.00">#</text>
<text text-anchor="start" x="18" y="-488.5" font-family="Helvetica,sans-Serif" font-size="10.00">mStoppingEventOccurred</text>
<text text-anchor="start" x="5" y="-473.5" font-family="Helvetica,sans-Serif" font-size="10.00">#</text>
<text text-anchor="start" x="18" y="-473.5" font-family="Helvetica,sans-Serif" font-size="10.00">mStoppingTime</text>
<text text-anchor="start" x="5" y="-458.5" font-family="Helvetica,sans-Serif" font-size="10.00">+</text>
<text text-anchor="start" x="18" y="-458.5" font-family="Helvetica,sans-Serif" font-size="10.00">Solve()</text>
<text text-anchor="start" x="5" y="-443.5" font-family="Helvetica,sans-Serif" font-size="10.00">+</text>
<text text-anchor="start" x="18" y="-443.5" font-family="Helvetica,sans-Serif" font-size="10.00">Solve()</text>
<text text-anchor="start" x="5" y="-428.5" font-family="Helvetica,sans-Serif" font-size="10.00">+</text>
<text text-anchor="start" x="18" y="-428.5" font-family="Helvetica,sans-Serif" font-size="10.00">SolveAndUpdateStateVariable()</text>
<text text-anchor="start" x="5" y="-413.5" font-family="Helvetica,sans-Serif" font-size="10.00">+</text>
<text text-anchor="start" x="18" y="-413.5" font-family="Helvetica,sans-Serif" font-size="10.00">StoppingEventOccurred()</text>
<text text-anchor="start" x="5" y="-398.5" font-family="Helvetica,sans-Serif" font-size="10.00">+</text>
<text text-anchor="start" x="18" y="-398.5" font-family="Helvetica,sans-Serif" font-size="10.00">GetStoppingTime()</text>
<text text-anchor="start" x="5" y="-383.5" font-family="Helvetica,sans-Serif" font-size="10.00">+</text>
<text text-anchor="start" x="18" y="-383.5" font-family="Helvetica,sans-Serif" font-size="10.00">AbstractIvpOdeSolver()</text>
<text text-anchor="start" x="5" y="-368.5" font-family="Helvetica,sans-Serif" font-size="10.00">+</text>
<text text-anchor="start" x="18" y="-368.5" font-family="Helvetica,sans-Serif" font-size="10.00">~AbstractIvpOdeSolver()</text>
<text text-anchor="start" x="7.5" y="-353.5" font-family="Helvetica,sans-Serif" font-size="10.00">&#45;</text>
<text text-anchor="start" x="18" y="-353.5" font-family="Helvetica,sans-Serif" font-size="10.00">serialize()</text>
<polygon fill="#666666" stroke="#666666" points="1,-498.5 1,-498.5 176,-498.5 176,-498.5 1,-498.5"/>
<polygon fill="#666666" stroke="#666666" points="1,-468.5 1,-468.5 16,-468.5 16,-468.5 1,-468.5"/>
<polygon fill="#666666" stroke="#666666" points="16,-468.5 16,-468.5 176,-468.5 176,-468.5 16,-468.5"/>
<polygon fill="none" stroke="#666666" points="0.5,-347 0.5,-516 175.5,-516 175.5,-347 0.5,-347"/>
</a>
</g>
</g>
<!-- Node2&#45;&gt;Node1 -->
<g id="edge1_Node000001_Node000002" class="edge">
<title>Node2&#45;&gt;Node1</title>
<g id="a_edge1_Node000001_Node000002"><a xlink:title=" ">
<path fill="none" stroke="#63b8ff" d="M88,-336.77C88,-328.44 88,-319.88 88,-311.21"/>
<polygon fill="none" stroke="#63b8ff" points="84.5,-336.8 88,-346.8 91.5,-336.8 84.5,-336.8"/>
</a>
</g>
</g>
<!-- Node3 -->
<g id="Node000003" class="node">
<title>Node3</title>
<g id="a_Node000003"><a xlink:href="classIdentifiable.html" target="_top" xlink:title=" ">
<polygon fill="white" stroke="transparent" points="176,-631 0,-631 0,-552 176,-552 176,-631"/>
<text text-anchor="start" x="60.5" y="-618.5" font-family="Helvetica,sans-Serif" font-size="10.00">Identifiable</text>
<text text-anchor="start" x="86" y="-603.5" font-family="Helvetica,sans-Serif" font-size="10.00"> </text>
<text text-anchor="start" x="4" y="-588.5" font-family="Helvetica,sans-Serif" font-size="10.00">+</text>
<text text-anchor="start" x="17" y="-588.5" font-family="Helvetica,sans-Serif" font-size="10.00">~Identifiable()</text>
<text text-anchor="start" x="4" y="-573.5" font-family="Helvetica,sans-Serif" font-size="10.00">+</text>
<text text-anchor="start" x="17" y="-573.5" font-family="Helvetica,sans-Serif" font-size="10.00">GetIdentifier()</text>
<text text-anchor="start" x="6.5" y="-558.5" font-family="Helvetica,sans-Serif" font-size="10.00">&#45;</text>
<text text-anchor="start" x="17" y="-558.5" font-family="Helvetica,sans-Serif" font-size="10.00">TidyTemplatedExportIdentifier()</text>
<polygon fill="#666666" stroke="#666666" points="0,-613.5 0,-613.5 176,-613.5 176,-613.5 0,-613.5"/>
<polygon fill="#666666" stroke="#666666" points="0,-598.5 0,-598.5 176,-598.5 176,-598.5 0,-598.5"/>
<polygon fill="none" stroke="#666666" points="0,-552 0,-631 176,-631 176,-552 0,-552"/>
</a>
</g>
</g>
<!-- Node3&#45;&gt;Node2 -->
<g id="edge2_Node000002_Node000003" class="edge">
<title>Node3&#45;&gt;Node2</title>
<g id="a_edge2_Node000002_Node000003"><a xlink:title=" ">
<path fill="none" stroke="#63b8ff" d="M88,-541.83C88,-533.68 88,-525.02 88,-516.29"/>
<polygon fill="none" stroke="#63b8ff" points="84.5,-541.85 88,-551.85 91.5,-541.85 84.5,-541.85"/>
</a>
</g>
</g>
</g>
</svg>
