<?xml version="1.0" encoding="UTF-8" standalone="no"?>
<!DOCTYPE svg PUBLIC "-//W3C//DTD SVG 1.1//EN"
 "http://www.w3.org/Graphics/SVG/1.1/DTD/svg11.dtd">
<!-- Generated by graphviz version 2.43.0 (0)
 -->
<!-- Title: FixedCentreBasedDivisionRule&lt; ELEMENT_DIM, SPACE_DIM &gt; Pages: 1 -->
<svg width="195pt" height="480pt"
 viewBox="0.00 0.00 195.00 480.00" xmlns="http://www.w3.org/2000/svg" xmlns:xlink="http://www.w3.org/1999/xlink">
<g id="graph0" class="graph" transform="scale(1 1) rotate(0) translate(4 476)">
<title>FixedCentreBasedDivisionRule&lt; ELEMENT_DIM, SPACE_DIM &gt;</title>
<!-- Node1 -->
<g id="Node000001" class="node">
<title>Node1</title>
<g id="a_Node000001"><a xlink:title=" ">
<polygon fill="#999999" stroke="transparent" points="187,-142 0,-142 0,0 187,0 187,-142"/>
<text text-anchor="start" x="5.5" y="-130" font-family="Helvetica,sans-Serif" font-size="10.00">FixedCentreBasedDivision</text>
<text text-anchor="start" x="5.5" y="-119" font-family="Helvetica,sans-Serif" font-size="10.00">Rule&lt; ELEMENT_DIM, SPACE_DIM &gt;</text>
<text text-anchor="start" x="12.5" y="-104" font-family="Helvetica,sans-Serif" font-size="10.00">&#45;</text>
<text text-anchor="start" x="28.5" y="-104" font-family="Helvetica,sans-Serif" font-size="10.00">mDaughterLocation</text>
<text text-anchor="start" x="10" y="-89" font-family="Helvetica,sans-Serif" font-size="10.00">+</text>
<text text-anchor="start" x="28.5" y="-89" font-family="Helvetica,sans-Serif" font-size="10.00">FixedCentreBasedDivision</text>
<text text-anchor="start" x="28.5" y="-78" font-family="Helvetica,sans-Serif" font-size="10.00">Rule()</text>
<text text-anchor="start" x="10" y="-63" font-family="Helvetica,sans-Serif" font-size="10.00">+</text>
<text text-anchor="start" x="28.5" y="-63" font-family="Helvetica,sans-Serif" font-size="10.00">~FixedCentreBasedDivision</text>
<text text-anchor="start" x="28.5" y="-52" font-family="Helvetica,sans-Serif" font-size="10.00">Rule()</text>
<text text-anchor="start" x="10" y="-37" font-family="Helvetica,sans-Serif" font-size="10.00">+</text>
<text text-anchor="start" x="28.5" y="-37" font-family="Helvetica,sans-Serif" font-size="10.00">rGetDaughterLocation()</text>
<text text-anchor="start" x="10" y="-22" font-family="Helvetica,sans-Serif" font-size="10.00">+</text>
<text text-anchor="start" x="28.5" y="-22" font-family="Helvetica,sans-Serif" font-size="10.00">CalculateCellDivisionVector()</text>
<text text-anchor="start" x="12.5" y="-7" font-family="Helvetica,sans-Serif" font-size="10.00">&#45;</text>
<text text-anchor="start" x="28.5" y="-7" font-family="Helvetica,sans-Serif" font-size="10.00">serialize()</text>
<polygon fill="#666666" stroke="#666666" points="0.5,-114 0.5,-114 187.5,-114 187.5,-114 0.5,-114"/>
<polygon fill="#666666" stroke="#666666" points="0.5,-99 0.5,-99 26.5,-99 26.5,-99 0.5,-99"/>
<polygon fill="#666666" stroke="#666666" points="26.5,-99 26.5,-99 187.5,-99 187.5,-99 26.5,-99"/>
<polygon fill="none" stroke="#666666" points="0,0 0,-142 187,-142 187,0 0,0"/>
</a>
</g>
</g>
<!-- Node2 -->
<g id="Node000002" class="node">
<title>Node2</title>
<g id="a_Node000002"><a xlink:href="classAbstractCentreBasedDivisionRule.html" target="_top" xlink:title=" ">
<polygon fill="white" stroke="transparent" points="187,-357 0,-357 0,-178 187,-178 187,-357"/>
<text text-anchor="start" x="5.5" y="-344.5" font-family="Helvetica,sans-Serif" font-size="10.00">AbstractCentreBasedDivision</text>
<text text-anchor="start" x="5.5" y="-333.5" font-family="Helvetica,sans-Serif" font-size="10.00">Rule&lt; ELEMENT_DIM, SPACE_DIM &gt;</text>
<text text-anchor="start" x="92" y="-318.5" font-family="Helvetica,sans-Serif" font-size="10.00"> </text>
<text text-anchor="start" x="7.5" y="-303.5" font-family="Helvetica,sans-Serif" font-size="10.00">+</text>
<text text-anchor="start" x="23.5" y="-303.5" font-family="Helvetica,sans-Serif" font-size="10.00">AbstractCentreBasedDivision</text>
<text text-anchor="start" x="23.5" y="-292.5" font-family="Helvetica,sans-Serif" font-size="10.00">Rule()</text>
<text text-anchor="start" x="7.5" y="-277.5" font-family="Helvetica,sans-Serif" font-size="10.00">+</text>
<text text-anchor="start" x="23.5" y="-277.5" font-family="Helvetica,sans-Serif" font-size="10.00">~AbstractCentreBasedDivision</text>
<text text-anchor="start" x="23.5" y="-266.5" font-family="Helvetica,sans-Serif" font-size="10.00">Rule()</text>
<text text-anchor="start" x="7.5" y="-251.5" font-family="Helvetica,sans-Serif" font-size="10.00">+</text>
<text text-anchor="start" x="23.5" y="-251.5" font-family="Helvetica,sans-Serif" font-size="10.00">CalculateCellDivisionVector()</text>
<text text-anchor="start" x="7.5" y="-236.5" font-family="Helvetica,sans-Serif" font-size="10.00">+</text>
<text text-anchor="start" x="23.5" y="-236.5" font-family="Helvetica,sans-Serif" font-size="10.00">OutputCellCentreBasedDivision</text>
<text text-anchor="start" x="23.5" y="-225.5" font-family="Helvetica,sans-Serif" font-size="10.00">RuleInfo()</text>
<text text-anchor="start" x="7.5" y="-210.5" font-family="Helvetica,sans-Serif" font-size="10.00">#</text>
<text text-anchor="start" x="23.5" y="-210.5" font-family="Helvetica,sans-Serif" font-size="10.00">OutputCellCentreBasedDivision</text>
<text text-anchor="start" x="23.5" y="-199.5" font-family="Helvetica,sans-Serif" font-size="10.00">RuleParameters()</text>
<text text-anchor="start" x="10" y="-184.5" font-family="Helvetica,sans-Serif" font-size="10.00">&#45;</text>
<text text-anchor="start" x="23.5" y="-184.5" font-family="Helvetica,sans-Serif" font-size="10.00">serialize()</text>
<polygon fill="#666666" stroke="#666666" points="0.5,-328.5 0.5,-328.5 187.5,-328.5 187.5,-328.5 0.5,-328.5"/>
<polygon fill="#666666" stroke="#666666" points="0.5,-313.5 0.5,-313.5 187.5,-313.5 187.5,-313.5 0.5,-313.5"/>
<polygon fill="none" stroke="#666666" points="0,-178 0,-357 187,-357 187,-178 0,-178"/>
</a>
</g>
</g>
<!-- Node2&#45;&gt;Node1 -->
<g id="edge1_Node000001_Node000002" class="edge">
<title>Node2&#45;&gt;Node1</title>
<g id="a_edge1_Node000001_Node000002"><a xlink:title=" ">
<path fill="none" stroke="#63b8ff" d="M93.5,-167.7C93.5,-159.11 93.5,-150.52 93.5,-142.23"/>
<polygon fill="none" stroke="#63b8ff" points="90,-167.79 93.5,-177.79 97,-167.79 90,-167.79"/>
</a>
</g>
</g>
<!-- Node3 -->
<g id="Node000003" class="node">
<title>Node3</title>
<g id="a_Node000003"><a xlink:href="classIdentifiable.html" target="_top" xlink:title=" ">
<polygon fill="white" stroke="transparent" points="181.5,-472 5.5,-472 5.5,-393 181.5,-393 181.5,-472"/>
<text text-anchor="start" x="66" y="-459.5" font-family="Helvetica,sans-Serif" font-size="10.00">Identifiable</text>
<text text-anchor="start" x="91.5" y="-444.5" font-family="Helvetica,sans-Serif" font-size="10.00"> </text>
<text text-anchor="start" x="9.5" y="-429.5" font-family="Helvetica,sans-Serif" font-size="10.00">+</text>
<text text-anchor="start" x="22.5" y="-429.5" font-family="Helvetica,sans-Serif" font-size="10.00">~Identifiable()</text>
<text text-anchor="start" x="9.5" y="-414.5" font-family="Helvetica,sans-Serif" font-size="10.00">+</text>
<text text-anchor="start" x="22.5" y="-414.5" font-family="Helvetica,sans-Serif" font-size="10.00">GetIdentifier()</text>
<text text-anchor="start" x="12" y="-399.5" font-family="Helvetica,sans-Serif" font-size="10.00">&#45;</text>
<text text-anchor="start" x="22.5" y="-399.5" font-family="Helvetica,sans-Serif" font-size="10.00">TidyTemplatedExportIdentifier()</text>
<polygon fill="#666666" stroke="#666666" points="5.5,-454.5 5.5,-454.5 181.5,-454.5 181.5,-454.5 5.5,-454.5"/>
<polygon fill="#666666" stroke="#666666" points="5.5,-439.5 5.5,-439.5 181.5,-439.5 181.5,-439.5 5.5,-439.5"/>
<polygon fill="none" stroke="#666666" points="5.5,-393 5.5,-472 181.5,-472 181.5,-393 5.5,-393"/>
</a>
</g>
</g>
<!-- Node3&#45;&gt;Node2 -->
<g id="edge2_Node000002_Node000003" class="edge">
<title>Node3&#45;&gt;Node2</title>
<g id="a_edge2_Node000002_Node000003"><a xlink:title=" ">
<path fill="none" stroke="#63b8ff" d="M93.5,-382.8C93.5,-374.59 93.5,-365.86 93.5,-357.01"/>
<polygon fill="none" stroke="#63b8ff" points="90,-382.87 93.5,-392.87 97,-382.87 90,-382.87"/>
</a>
</g>
</g>
</g>
</svg>
