<?xml version="1.0" encoding="UTF-8" standalone="no"?>
<!DOCTYPE svg PUBLIC "-//W3C//DTD SVG 1.1//EN"
 "http://www.w3.org/Graphics/SVG/1.1/DTD/svg11.dtd">
<!-- Generated by graphviz version 2.43.0 (0)
 -->
<!-- Title: BathCellFactory&lt; DIM, CELLTYPE &gt; Pages: 1 -->
<svg width="911pt" height="759pt"
 viewBox="0.00 0.00 910.50 759.00" xmlns="http://www.w3.org/2000/svg" xmlns:xlink="http://www.w3.org/1999/xlink">
<g id="graph0" class="graph" transform="scale(1 1) rotate(0) translate(4 755)">
<title>BathCellFactory&lt; DIM, CELLTYPE &gt;</title>
<!-- Node1 -->
<g id="Node000001" class="node">
<title>Node1</title>
<g id="a_Node000001"><a xlink:title=" ">
<polygon fill="#999999" stroke="transparent" points="718.5,-86 562.5,-86 562.5,0 718.5,0 718.5,-86"/>
<text text-anchor="start" x="585" y="-74" font-family="Helvetica,sans-Serif" font-size="10.00">BathCellFactory&lt; DIM,</text>
<text text-anchor="start" x="610" y="-63" font-family="Helvetica,sans-Serif" font-size="10.00"> CELLTYPE &gt;</text>
<text text-anchor="start" x="638.5" y="-48" font-family="Helvetica,sans-Serif" font-size="10.00"> </text>
<text text-anchor="start" x="566.5" y="-33" font-family="Helvetica,sans-Serif" font-size="10.00">+</text>
<text text-anchor="start" x="579.5" y="-33" font-family="Helvetica,sans-Serif" font-size="10.00">BathCellFactory()</text>
<text text-anchor="start" x="566.5" y="-18" font-family="Helvetica,sans-Serif" font-size="10.00">+</text>
<text text-anchor="start" x="579.5" y="-18" font-family="Helvetica,sans-Serif" font-size="10.00">CreateCardiacCellForTissue</text>
<text text-anchor="start" x="579.5" y="-7" font-family="Helvetica,sans-Serif" font-size="10.00">Node()</text>
<polygon fill="#666666" stroke="#666666" points="562.5,-58 562.5,-58 718.5,-58 718.5,-58 562.5,-58"/>
<polygon fill="#666666" stroke="#666666" points="562.5,-43 562.5,-43 718.5,-43 718.5,-43 562.5,-43"/>
<polygon fill="none" stroke="#666666" points="562.5,0 562.5,-86 718.5,-86 718.5,0 562.5,0"/>
</a>
</g>
</g>
<!-- Node2 -->
<g id="Node000002" class="node">
<title>Node2</title>
<g id="a_Node000002"><a xlink:href="classAbstractCardiacCellFactory.html" target="_top" xlink:title=" ">
<polygon fill="white" stroke="transparent" points="525,-365 346,-365 346,-133 525,-133 525,-365"/>
<text text-anchor="start" x="370" y="-353" font-family="Helvetica,sans-Serif" font-size="10.00">AbstractCardiacCellFactory</text>
<text text-anchor="start" x="414.5" y="-342" font-family="Helvetica,sans-Serif" font-size="10.00">&lt; DIM &gt;</text>
<text text-anchor="start" x="434" y="-327" font-family="Helvetica,sans-Serif" font-size="10.00"> </text>
<text text-anchor="start" x="350.5" y="-312" font-family="Helvetica,sans-Serif" font-size="10.00">+</text>
<text text-anchor="start" x="363.5" y="-312" font-family="Helvetica,sans-Serif" font-size="10.00">CreateCardiacCellForNode()</text>
<text text-anchor="start" x="350.5" y="-297" font-family="Helvetica,sans-Serif" font-size="10.00">+</text>
<text text-anchor="start" x="363.5" y="-297" font-family="Helvetica,sans-Serif" font-size="10.00">CreateCardiacCellForTissue</text>
<text text-anchor="start" x="363.5" y="-286" font-family="Helvetica,sans-Serif" font-size="10.00">Node()</text>
<text text-anchor="start" x="350.5" y="-271" font-family="Helvetica,sans-Serif" font-size="10.00">+</text>
<text text-anchor="start" x="363.5" y="-271" font-family="Helvetica,sans-Serif" font-size="10.00">FinaliseCellCreation()</text>
<text text-anchor="start" x="350.5" y="-256" font-family="Helvetica,sans-Serif" font-size="10.00">+</text>
<text text-anchor="start" x="363.5" y="-256" font-family="Helvetica,sans-Serif" font-size="10.00">FillInCellularTransmural</text>
<text text-anchor="start" x="363.5" y="-245" font-family="Helvetica,sans-Serif" font-size="10.00">Areas()</text>
<text text-anchor="start" x="350.5" y="-230" font-family="Helvetica,sans-Serif" font-size="10.00">+</text>
<text text-anchor="start" x="363.5" y="-230" font-family="Helvetica,sans-Serif" font-size="10.00">GetNumberOfCells()</text>
<text text-anchor="start" x="350.5" y="-215" font-family="Helvetica,sans-Serif" font-size="10.00">+</text>
<text text-anchor="start" x="363.5" y="-215" font-family="Helvetica,sans-Serif" font-size="10.00">AbstractCardiacCellFactory()</text>
<text text-anchor="start" x="350.5" y="-200" font-family="Helvetica,sans-Serif" font-size="10.00">+</text>
<text text-anchor="start" x="363.5" y="-200" font-family="Helvetica,sans-Serif" font-size="10.00">~AbstractCardiacCellFactory()</text>
<text text-anchor="start" x="350.5" y="-185" font-family="Helvetica,sans-Serif" font-size="10.00">+</text>
<text text-anchor="start" x="363.5" y="-185" font-family="Helvetica,sans-Serif" font-size="10.00">SetMesh()</text>
<text text-anchor="start" x="350.5" y="-170" font-family="Helvetica,sans-Serif" font-size="10.00">+</text>
<text text-anchor="start" x="363.5" y="-170" font-family="Helvetica,sans-Serif" font-size="10.00">GetMesh()</text>
<text text-anchor="start" x="350.5" y="-155" font-family="Helvetica,sans-Serif" font-size="10.00">+</text>
<text text-anchor="start" x="363.5" y="-155" font-family="Helvetica,sans-Serif" font-size="10.00">SetHeartGeometryInformation()</text>
<text text-anchor="start" x="350.5" y="-140" font-family="Helvetica,sans-Serif" font-size="10.00">+</text>
<text text-anchor="start" x="363.5" y="-140" font-family="Helvetica,sans-Serif" font-size="10.00">GetHeartGeometryInformation()</text>
<polygon fill="#666666" stroke="#666666" points="346.5,-337 346.5,-337 525.5,-337 525.5,-337 346.5,-337"/>
<polygon fill="#666666" stroke="#666666" points="346.5,-322 346.5,-322 525.5,-322 525.5,-322 346.5,-322"/>
<polygon fill="none" stroke="#666666" points="346,-133 346,-365 525,-365 525,-133 346,-133"/>
</a>
</g>
</g>
<!-- Node2&#45;&gt;Node1 -->
<g id="edge1_Node000001_Node000002" class="edge">
<title>Node2&#45;&gt;Node1</title>
<g id="a_edge1_Node000001_Node000002"><a xlink:title=" ">
<path fill="none" stroke="#63b8ff" d="M532.42,-151C538.53,-144.91 544.6,-138.87 550.5,-133 565.93,-117.66 582.88,-100.87 597.87,-86.06"/>
<polygon fill="none" stroke="#63b8ff" points="529.84,-148.64 525.23,-158.18 534.78,-153.59 529.84,-148.64"/>
</a>
</g>
</g>
<!-- Node3 -->
<g id="Node000003" class="node">
<title>Node3</title>
<g id="a_Node000003"><a xlink:title=" ">
<polygon fill="white" stroke="transparent" points="556,-751 383,-751 383,-691 556,-691 556,-751"/>
<text text-anchor="start" x="388.5" y="-739" font-family="Helvetica,sans-Serif" font-size="10.00">AbstractTetrahedralMesh</text>
<text text-anchor="start" x="388.5" y="-728" font-family="Helvetica,sans-Serif" font-size="10.00">&lt; ELEMENT_DIM, SPACE_DIM &gt; *</text>
<text text-anchor="start" x="468" y="-713" font-family="Helvetica,sans-Serif" font-size="10.00"> </text>
<text text-anchor="start" x="468" y="-698" font-family="Helvetica,sans-Serif" font-size="10.00"> </text>
<polygon fill="#bfbfbf" stroke="#bfbfbf" points="383.5,-723 383.5,-723 556.5,-723 556.5,-723 383.5,-723"/>
<polygon fill="#bfbfbf" stroke="#bfbfbf" points="383.5,-708 383.5,-708 556.5,-708 556.5,-708 383.5,-708"/>
<polygon fill="none" stroke="#bfbfbf" points="383,-691 383,-751 556,-751 556,-691 383,-691"/>
</a>
</g>
</g>
<!-- Node3&#45;&gt;Node2 -->
<g id="edge2_Node000002_Node000003" class="edge">
<title>Node3&#45;&gt;Node2</title>
<g id="a_edge2_Node000002_Node000003"><a xlink:title=" ">
<path fill="none" stroke="#63b8ff" d="M498.19,-690.97C508.78,-677.83 519.05,-661.36 522.5,-644 542.6,-542.87 547.65,-512 522.5,-412 519.52,-400.15 515.49,-388.23 510.78,-376.51"/>
<polygon fill="none" stroke="#63b8ff" points="510.74,-376.41 504.72,-372.43 506.08,-365.35 512.09,-369.33 510.74,-376.41"/>
</a>
</g>
<text text-anchor="middle" x="565" y="-525.5" font-family="Helvetica,sans-Serif" font-size="10.00" fill="grey"> &#45;mpMesh</text>
</g>
<!-- Node7 -->
<g id="Node000007" class="node">
<title>Node7</title>
<g id="a_Node000007"><a xlink:href="classAbstractCardiacCellFactory.html" target="_top" xlink:title=" ">
<polygon fill="white" stroke="transparent" points="514,-644 335,-644 335,-412 514,-412 514,-644"/>
<text text-anchor="start" x="347.5" y="-632" font-family="Helvetica,sans-Serif" font-size="10.00">AbstractCardiacCellFactory</text>
<text text-anchor="start" x="347.5" y="-621" font-family="Helvetica,sans-Serif" font-size="10.00">&lt; ELEMENT_DIM, SPACE_DIM &gt;</text>
<text text-anchor="start" x="423" y="-606" font-family="Helvetica,sans-Serif" font-size="10.00"> </text>
<text text-anchor="start" x="339.5" y="-591" font-family="Helvetica,sans-Serif" font-size="10.00">+</text>
<text text-anchor="start" x="352.5" y="-591" font-family="Helvetica,sans-Serif" font-size="10.00">CreateCardiacCellForNode()</text>
<text text-anchor="start" x="339.5" y="-576" font-family="Helvetica,sans-Serif" font-size="10.00">+</text>
<text text-anchor="start" x="352.5" y="-576" font-family="Helvetica,sans-Serif" font-size="10.00">CreateCardiacCellForTissue</text>
<text text-anchor="start" x="352.5" y="-565" font-family="Helvetica,sans-Serif" font-size="10.00">Node()</text>
<text text-anchor="start" x="339.5" y="-550" font-family="Helvetica,sans-Serif" font-size="10.00">+</text>
<text text-anchor="start" x="352.5" y="-550" font-family="Helvetica,sans-Serif" font-size="10.00">FinaliseCellCreation()</text>
<text text-anchor="start" x="339.5" y="-535" font-family="Helvetica,sans-Serif" font-size="10.00">+</text>
<text text-anchor="start" x="352.5" y="-535" font-family="Helvetica,sans-Serif" font-size="10.00">FillInCellularTransmural</text>
<text text-anchor="start" x="352.5" y="-524" font-family="Helvetica,sans-Serif" font-size="10.00">Areas()</text>
<text text-anchor="start" x="339.5" y="-509" font-family="Helvetica,sans-Serif" font-size="10.00">+</text>
<text text-anchor="start" x="352.5" y="-509" font-family="Helvetica,sans-Serif" font-size="10.00">GetNumberOfCells()</text>
<text text-anchor="start" x="339.5" y="-494" font-family="Helvetica,sans-Serif" font-size="10.00">+</text>
<text text-anchor="start" x="352.5" y="-494" font-family="Helvetica,sans-Serif" font-size="10.00">AbstractCardiacCellFactory()</text>
<text text-anchor="start" x="339.5" y="-479" font-family="Helvetica,sans-Serif" font-size="10.00">+</text>
<text text-anchor="start" x="352.5" y="-479" font-family="Helvetica,sans-Serif" font-size="10.00">~AbstractCardiacCellFactory()</text>
<text text-anchor="start" x="339.5" y="-464" font-family="Helvetica,sans-Serif" font-size="10.00">+</text>
<text text-anchor="start" x="352.5" y="-464" font-family="Helvetica,sans-Serif" font-size="10.00">SetMesh()</text>
<text text-anchor="start" x="339.5" y="-449" font-family="Helvetica,sans-Serif" font-size="10.00">+</text>
<text text-anchor="start" x="352.5" y="-449" font-family="Helvetica,sans-Serif" font-size="10.00">GetMesh()</text>
<text text-anchor="start" x="339.5" y="-434" font-family="Helvetica,sans-Serif" font-size="10.00">+</text>
<text text-anchor="start" x="352.5" y="-434" font-family="Helvetica,sans-Serif" font-size="10.00">SetHeartGeometryInformation()</text>
<text text-anchor="start" x="339.5" y="-419" font-family="Helvetica,sans-Serif" font-size="10.00">+</text>
<text text-anchor="start" x="352.5" y="-419" font-family="Helvetica,sans-Serif" font-size="10.00">GetHeartGeometryInformation()</text>
<polygon fill="#666666" stroke="#666666" points="335.5,-616 335.5,-616 514.5,-616 514.5,-616 335.5,-616"/>
<polygon fill="#666666" stroke="#666666" points="335.5,-601 335.5,-601 514.5,-601 514.5,-601 335.5,-601"/>
<polygon fill="none" stroke="#666666" points="335,-412 335,-644 514,-644 514,-412 335,-412"/>
</a>
</g>
</g>
<!-- Node3&#45;&gt;Node7 -->
<g id="edge7_Node000007_Node000003" class="edge">
<title>Node3&#45;&gt;Node7</title>
<g id="a_edge7_Node000007_Node000003"><a xlink:title=" ">
<path fill="none" stroke="#63b8ff" d="M462.67,-690.99C460.31,-681 457.51,-669.09 454.5,-656.32"/>
<polygon fill="none" stroke="#63b8ff" points="454.44,-656.06 449.17,-651.14 451.68,-644.38 456.95,-649.3 454.44,-656.06"/>
</a>
</g>
<text text-anchor="middle" x="482" y="-665" font-family="Helvetica,sans-Serif" font-size="10.00" fill="grey"> &#45;mpMesh</text>
</g>
<!-- Node4 -->
<g id="Node000004" class="node">
<title>Node4</title>
<g id="a_Node000004"><a xlink:title=" ">
<polygon fill="white" stroke="transparent" points="143,-751 0,-751 0,-691 143,-691 143,-751"/>
<text text-anchor="start" x="5.5" y="-739" font-family="Helvetica,sans-Serif" font-size="10.00">HeartGeometryInformation</text>
<text text-anchor="start" x="28.5" y="-728" font-family="Helvetica,sans-Serif" font-size="10.00">&lt; SPACE_DIM &gt; *</text>
<text text-anchor="start" x="70" y="-713" font-family="Helvetica,sans-Serif" font-size="10.00"> </text>
<text text-anchor="start" x="70" y="-698" font-family="Helvetica,sans-Serif" font-size="10.00"> </text>
<polygon fill="#bfbfbf" stroke="#bfbfbf" points="0.5,-723 0.5,-723 143.5,-723 143.5,-723 0.5,-723"/>
<polygon fill="#bfbfbf" stroke="#bfbfbf" points="0.5,-708 0.5,-708 143.5,-708 143.5,-708 0.5,-708"/>
<polygon fill="none" stroke="#bfbfbf" points="0,-691 0,-751 143,-751 143,-691 0,-691"/>
</a>
</g>
</g>
<!-- Node4&#45;&gt;Node2 -->
<g id="edge3_Node000002_Node000004" class="edge">
<title>Node4&#45;&gt;Node2</title>
<g id="a_edge3_Node000002_Node000004"><a xlink:title=" ">
<path fill="none" stroke="#63b8ff" d="M63.34,-690.65C48.9,-632.05 25.51,-498.75 83.5,-412 139.77,-327.82 251.54,-286.63 334.11,-266.97"/>
<polygon fill="none" stroke="#63b8ff" points="334.12,-266.97 339.07,-261.73 345.81,-264.28 340.86,-269.52 334.12,-266.97"/>
</a>
</g>
<text text-anchor="middle" x="161.5" y="-525.5" font-family="Helvetica,sans-Serif" font-size="10.00" fill="grey"> &#45;mpHeartGeometryInformation</text>
</g>
<!-- Node4&#45;&gt;Node7 -->
<g id="edge8_Node000007_Node000004" class="edge">
<title>Node4&#45;&gt;Node7</title>
<g id="a_edge8_Node000007_Node000004"><a xlink:title=" ">
<path fill="none" stroke="#63b8ff" d="M102.54,-690.9C115.99,-679.98 132.52,-668.63 149.5,-662 220.69,-634.21 252.37,-678.63 320.5,-644 321.88,-643.3 323.26,-642.57 324.62,-641.81"/>
<polygon fill="none" stroke="#63b8ff" points="324.64,-641.8 327.68,-635.27 334.88,-635.56 331.84,-642.1 324.64,-641.8"/>
</a>
</g>
<text text-anchor="middle" x="227.5" y="-665" font-family="Helvetica,sans-Serif" font-size="10.00" fill="grey"> &#45;mpHeartGeometryInformation</text>
</g>
<!-- Node5 -->
<g id="Node000005" class="node">
<title>Node5</title>
<g id="a_Node000005"><a xlink:title=" ">
<polygon fill="white" stroke="transparent" points="736.5,-745.5 586.5,-745.5 586.5,-696.5 736.5,-696.5 736.5,-745.5"/>
<text text-anchor="start" x="591.5" y="-733" font-family="Helvetica,sans-Serif" font-size="10.00">shared_ptr&lt; ZeroStimulus &gt;</text>
<text text-anchor="start" x="659.5" y="-718" font-family="Helvetica,sans-Serif" font-size="10.00"> </text>
<text text-anchor="start" x="659.5" y="-703" font-family="Helvetica,sans-Serif" font-size="10.00"> </text>
<polygon fill="#bfbfbf" stroke="#bfbfbf" points="586.5,-728 586.5,-728 736.5,-728 736.5,-728 586.5,-728"/>
<polygon fill="#bfbfbf" stroke="#bfbfbf" points="586.5,-713 586.5,-713 736.5,-713 736.5,-713 586.5,-713"/>
<polygon fill="none" stroke="#bfbfbf" points="586.5,-696.5 586.5,-745.5 736.5,-745.5 736.5,-696.5 586.5,-696.5"/>
</a>
</g>
</g>
<!-- Node5&#45;&gt;Node2 -->
<g id="edge4_Node000002_Node000005" class="edge">
<title>Node5&#45;&gt;Node2</title>
<g id="a_edge4_Node000002_Node000005"><a xlink:title=" ">
<path fill="none" stroke="#63b8ff" d="M667.83,-696.28C669.85,-685.77 671.17,-673.26 669.5,-662 652.43,-547.13 652.61,-511.96 593.5,-412 590.91,-407.61 564.47,-380.18 533.93,-349.09"/>
<polygon fill="none" stroke="#63b8ff" points="533.64,-348.8 526.59,-347.33 525.23,-340.25 532.29,-341.72 533.64,-348.8"/>
</a>
</g>
<text text-anchor="middle" x="714" y="-525.5" font-family="Helvetica,sans-Serif" font-size="10.00" fill="grey"> #mpZeroStimulus</text>
</g>
<!-- Node5&#45;&gt;Node7 -->
<g id="edge9_Node000007_Node000005" class="edge">
<title>Node5&#45;&gt;Node7</title>
<g id="a_edge9_Node000007_Node000005"><a xlink:title=" ">
<path fill="none" stroke="#63b8ff" d="M618.08,-696.41C604.68,-689.02 589.93,-680.77 576.5,-673 554.92,-660.52 547.73,-659.86 528.5,-644 526.86,-642.65 525.22,-641.27 523.58,-639.86"/>
<polygon fill="none" stroke="#63b8ff" points="523.24,-639.56 516.09,-638.57 514.26,-631.59 521.4,-632.58 523.24,-639.56"/>
</a>
</g>
<text text-anchor="middle" x="623" y="-665" font-family="Helvetica,sans-Serif" font-size="10.00" fill="grey"> #mpZeroStimulus</text>
</g>
<!-- Node6 -->
<g id="Node000006" class="node">
<title>Node6</title>
<g id="a_Node000006"><a xlink:title=" ">
<polygon fill="white" stroke="transparent" points="341,-751 192,-751 192,-691 341,-691 341,-751"/>
<text text-anchor="start" x="197.5" y="-739" font-family="Helvetica,sans-Serif" font-size="10.00">shared_ptr&lt; AbstractIvpOde</text>
<text text-anchor="start" x="245.5" y="-728" font-family="Helvetica,sans-Serif" font-size="10.00">Solver &gt;</text>
<text text-anchor="start" x="265" y="-713" font-family="Helvetica,sans-Serif" font-size="10.00"> </text>
<text text-anchor="start" x="265" y="-698" font-family="Helvetica,sans-Serif" font-size="10.00"> </text>
<polygon fill="#bfbfbf" stroke="#bfbfbf" points="192.5,-723 192.5,-723 341.5,-723 341.5,-723 192.5,-723"/>
<polygon fill="#bfbfbf" stroke="#bfbfbf" points="192.5,-708 192.5,-708 341.5,-708 341.5,-708 192.5,-708"/>
<polygon fill="none" stroke="#bfbfbf" points="192,-691 192,-751 341,-751 341,-691 192,-691"/>
</a>
</g>
</g>
<!-- Node6&#45;&gt;Node2 -->
<g id="edge5_Node000002_Node000006" class="edge">
<title>Node6&#45;&gt;Node2</title>
<g id="a_edge5_Node000002_Node000006"><a xlink:title=" ">
<path fill="none" stroke="#63b8ff" d="M259.39,-690.91C247.1,-634.43 226.88,-507.16 267.5,-412 282.43,-377.03 308.99,-345.93 336.64,-320.56"/>
<polygon fill="none" stroke="#63b8ff" points="336.69,-320.51 338.51,-313.53 345.65,-312.53 343.83,-319.5 336.69,-320.51"/>
</a>
</g>
<text text-anchor="middle" x="296.5" y="-525.5" font-family="Helvetica,sans-Serif" font-size="10.00" fill="grey"> #mpSolver</text>
</g>
<!-- Node6&#45;&gt;Node7 -->
<g id="edge10_Node000007_Node000006" class="edge">
<title>Node6&#45;&gt;Node7</title>
<g id="a_edge10_Node000007_Node000006"><a xlink:title=" ">
<path fill="none" stroke="#63b8ff" d="M290.5,-690.99C300.74,-678.6 313.44,-663.25 326.91,-646.98"/>
<polygon fill="none" stroke="#63b8ff" points="327.26,-646.55 328,-639.38 334.91,-637.31 334.16,-644.48 327.26,-646.55"/>
</a>
</g>
<text text-anchor="middle" x="342.5" y="-665" font-family="Helvetica,sans-Serif" font-size="10.00" fill="grey"> #mpSolver</text>
</g>
<!-- Node7&#45;&gt;Node2 -->
<g id="edge6_Node000002_Node000007" class="edge">
<title>Node7&#45;&gt;Node2</title>
<g id="a_edge6_Node000002_Node000007"><a xlink:title=" ">
<path fill="none" stroke="orange" d="M429.47,-401.74C429.96,-389.55 430.45,-377.23 430.93,-365.15"/>
<polygon fill="orange" stroke="orange" points="425.97,-401.8 429.07,-411.93 432.96,-402.08 425.97,-401.8"/>
</a>
</g>
<text text-anchor="middle" x="453.5" y="-386" font-family="Helvetica,sans-Serif" font-size="10.00" fill="grey"> &lt; DIM &gt;</text>
</g>
<!-- Node8 -->
<g id="Node000008" class="node">
<title>Node8</title>
<g id="a_Node000008"><a xlink:title=" ">
<polygon fill="white" stroke="transparent" points="721,-273.5 560,-273.5 560,-224.5 721,-224.5 721,-273.5"/>
<text text-anchor="start" x="565.5" y="-261" font-family="Helvetica,sans-Serif" font-size="10.00">shared_ptr&lt; SimpleStimulus &gt;</text>
<text text-anchor="start" x="639" y="-246" font-family="Helvetica,sans-Serif" font-size="10.00"> </text>
<text text-anchor="start" x="639" y="-231" font-family="Helvetica,sans-Serif" font-size="10.00"> </text>
<polygon fill="#bfbfbf" stroke="#bfbfbf" points="560.5,-256 560.5,-256 721.5,-256 721.5,-256 560.5,-256"/>
<polygon fill="#bfbfbf" stroke="#bfbfbf" points="560.5,-241 560.5,-241 721.5,-241 721.5,-241 560.5,-241"/>
<polygon fill="none" stroke="#bfbfbf" points="560,-224.5 560,-273.5 721,-273.5 721,-224.5 560,-224.5"/>
</a>
</g>
</g>
<!-- Node8&#45;&gt;Node1 -->
<g id="edge11_Node000001_Node000008" class="edge">
<title>Node8&#45;&gt;Node1</title>
<g id="a_edge11_Node000001_Node000008"><a xlink:title=" ">
<path fill="none" stroke="#63b8ff" d="M640.5,-224.2C640.5,-193.53 640.5,-139.28 640.5,-98.3"/>
<polygon fill="none" stroke="#63b8ff" points="640.5,-98.05 636.5,-92.05 640.5,-86.05 644.5,-92.05 640.5,-98.05"/>
</a>
</g>
<text text-anchor="middle" x="673.5" y="-107" font-family="Helvetica,sans-Serif" font-size="10.00" fill="grey"> &#45;mpStimulus</text>
</g>
<!-- Node9 -->
<g id="Node000009" class="node">
<title>Node9</title>
<g id="a_Node000009"><a xlink:title=" ">
<polygon fill="white" stroke="transparent" points="881,-273.5 748,-273.5 748,-224.5 881,-224.5 881,-273.5"/>
<text text-anchor="start" x="753.5" y="-261" font-family="Helvetica,sans-Serif" font-size="10.00">c_vector&lt; double, DIM &gt;</text>
<text text-anchor="start" x="813" y="-246" font-family="Helvetica,sans-Serif" font-size="10.00"> </text>
<text text-anchor="start" x="813" y="-231" font-family="Helvetica,sans-Serif" font-size="10.00"> </text>
<polygon fill="#bfbfbf" stroke="#bfbfbf" points="748.5,-256 748.5,-256 881.5,-256 881.5,-256 748.5,-256"/>
<polygon fill="#bfbfbf" stroke="#bfbfbf" points="748.5,-241 748.5,-241 881.5,-241 881.5,-241 748.5,-241"/>
<polygon fill="none" stroke="#bfbfbf" points="748,-224.5 748,-273.5 881,-273.5 881,-224.5 748,-224.5"/>
</a>
</g>
</g>
<!-- Node9&#45;&gt;Node1 -->
<g id="edge12_Node000001_Node000009" class="edge">
<title>Node9&#45;&gt;Node1</title>
<g id="a_edge12_Node000001_Node000009"><a xlink:title=" ">
<path fill="none" stroke="#63b8ff" d="M799.86,-224.27C781.02,-194.62 746.42,-143.03 710.5,-104 707.65,-100.9 704.65,-97.81 701.55,-94.75"/>
<polygon fill="none" stroke="#63b8ff" points="701.32,-94.53 694.22,-93.28 692.64,-86.25 699.74,-87.5 701.32,-94.53"/>
</a>
</g>
<text text-anchor="middle" x="768" y="-107" font-family="Helvetica,sans-Serif" font-size="10.00" fill="grey"> &#45;mStimulatedPoint</text>
</g>
<!-- Node10 -->
<g id="Node000010" class="node">
<title>Node10</title>
<g id="a_Node000010"><a xlink:title=" ">
<polygon fill="white" stroke="transparent" points="846.5,-552.5 794.5,-552.5 794.5,-503.5 846.5,-503.5 846.5,-552.5"/>
<text text-anchor="start" x="799.5" y="-540" font-family="Helvetica,sans-Serif" font-size="10.00">c_vector</text>
<text text-anchor="start" x="818.5" y="-525" font-family="Helvetica,sans-Serif" font-size="10.00"> </text>
<text text-anchor="start" x="818.5" y="-510" font-family="Helvetica,sans-Serif" font-size="10.00"> </text>
<polygon fill="#bfbfbf" stroke="#bfbfbf" points="794.5,-535 794.5,-535 846.5,-535 846.5,-535 794.5,-535"/>
<polygon fill="#bfbfbf" stroke="#bfbfbf" points="794.5,-520 794.5,-520 846.5,-520 846.5,-520 794.5,-520"/>
<polygon fill="none" stroke="#bfbfbf" points="794.5,-503.5 794.5,-552.5 846.5,-552.5 846.5,-503.5 794.5,-503.5"/>
</a>
</g>
</g>
<!-- Node10&#45;&gt;Node9 -->
<g id="edge13_Node000009_Node000010" class="edge">
<title>Node10&#45;&gt;Node9</title>
<g id="a_edge13_Node000009_Node000010"><a xlink:title=" ">
<path fill="none" stroke="orange" d="M819.77,-493.11C818.53,-436.15 816.07,-322.67 815.01,-273.56"/>
<polygon fill="orange" stroke="orange" points="816.27,-493.46 819.99,-503.38 823.27,-493.31 816.27,-493.46"/>
</a>
</g>
<text text-anchor="middle" x="860" y="-386" font-family="Helvetica,sans-Serif" font-size="10.00" fill="grey"> &lt; double, DIM &gt;</text>
</g>
</g>
</svg>
