<?xml version="1.0" encoding="UTF-8" standalone="no"?>
<!DOCTYPE svg PUBLIC "-//W3C//DTD SVG 1.1//EN"
 "http://www.w3.org/Graphics/SVG/1.1/DTD/svg11.dtd">
<!-- Generated by graphviz version 2.43.0 (0)
 -->
<!-- Title: Cell Pages: 1 -->
<svg width="248pt" height="468pt"
 viewBox="0.00 0.00 247.50 468.00" xmlns="http://www.w3.org/2000/svg" xmlns:xlink="http://www.w3.org/1999/xlink">
<g id="graph0" class="graph" transform="scale(1 1) rotate(0) translate(4 464)">
<title>Cell</title>
<!-- Node1 -->
<g id="Node000001" class="node">
<title>Node1</title>
<g id="a_Node000001"><a xlink:title=" ">
<polygon fill="#999999" stroke="transparent" points="191,-364 43,-364 43,0 191,0 191,-364"/>
<text text-anchor="start" x="107.5" y="-352" font-family="Helvetica,sans-Serif" font-size="10.00">Cell</text>
<text text-anchor="start" x="47" y="-337" font-family="Helvetica,sans-Serif" font-size="10.00">#</text>
<text text-anchor="start" x="60" y="-337" font-family="Helvetica,sans-Serif" font-size="10.00">mCanDivide</text>
<text text-anchor="start" x="47" y="-322" font-family="Helvetica,sans-Serif" font-size="10.00">#</text>
<text text-anchor="start" x="60" y="-322" font-family="Helvetica,sans-Serif" font-size="10.00">mCellPropertyCollection</text>
<text text-anchor="start" x="47" y="-307" font-family="Helvetica,sans-Serif" font-size="10.00">#</text>
<text text-anchor="start" x="60" y="-307" font-family="Helvetica,sans-Serif" font-size="10.00">mpCellCycleModel</text>
<text text-anchor="start" x="47" y="-292" font-family="Helvetica,sans-Serif" font-size="10.00">#</text>
<text text-anchor="start" x="60" y="-292" font-family="Helvetica,sans-Serif" font-size="10.00">mpSrnModel</text>
<text text-anchor="start" x="47" y="-277" font-family="Helvetica,sans-Serif" font-size="10.00">#</text>
<text text-anchor="start" x="60" y="-277" font-family="Helvetica,sans-Serif" font-size="10.00">mDeathTime</text>
<text text-anchor="start" x="47" y="-262" font-family="Helvetica,sans-Serif" font-size="10.00">#</text>
<text text-anchor="start" x="60" y="-262" font-family="Helvetica,sans-Serif" font-size="10.00">mStartOfApoptosisTime</text>
<text text-anchor="start" x="47" y="-247" font-family="Helvetica,sans-Serif" font-size="10.00">#</text>
<text text-anchor="start" x="60" y="-247" font-family="Helvetica,sans-Serif" font-size="10.00">mApoptosisTime</text>
<text text-anchor="start" x="47" y="-232" font-family="Helvetica,sans-Serif" font-size="10.00">#</text>
<text text-anchor="start" x="60" y="-232" font-family="Helvetica,sans-Serif" font-size="10.00">mUndergoingApoptosis</text>
<text text-anchor="start" x="47" y="-217" font-family="Helvetica,sans-Serif" font-size="10.00">#</text>
<text text-anchor="start" x="60" y="-217" font-family="Helvetica,sans-Serif" font-size="10.00">mIsDead</text>
<text text-anchor="start" x="47" y="-202" font-family="Helvetica,sans-Serif" font-size="10.00">#</text>
<text text-anchor="start" x="60" y="-202" font-family="Helvetica,sans-Serif" font-size="10.00">mIsLogged</text>
<text text-anchor="start" x="47" y="-187" font-family="Helvetica,sans-Serif" font-size="10.00">#</text>
<text text-anchor="start" x="60" y="-187" font-family="Helvetica,sans-Serif" font-size="10.00">mHasSrnModel</text>
<text text-anchor="start" x="47" y="-172" font-family="Helvetica,sans-Serif" font-size="10.00">+</text>
<text text-anchor="start" x="60" y="-172" font-family="Helvetica,sans-Serif" font-size="10.00">Cell()</text>
<text text-anchor="start" x="47" y="-157" font-family="Helvetica,sans-Serif" font-size="10.00">+</text>
<text text-anchor="start" x="60" y="-157" font-family="Helvetica,sans-Serif" font-size="10.00">~Cell()</text>
<text text-anchor="start" x="47" y="-142" font-family="Helvetica,sans-Serif" font-size="10.00">+</text>
<text text-anchor="start" x="60" y="-142" font-family="Helvetica,sans-Serif" font-size="10.00">GetCellProliferativeType()</text>
<text text-anchor="start" x="47" y="-127" font-family="Helvetica,sans-Serif" font-size="10.00">+</text>
<text text-anchor="start" x="60" y="-127" font-family="Helvetica,sans-Serif" font-size="10.00">SetCellProliferativeType()</text>
<text text-anchor="start" x="47" y="-112" font-family="Helvetica,sans-Serif" font-size="10.00">+</text>
<text text-anchor="start" x="60" y="-112" font-family="Helvetica,sans-Serif" font-size="10.00">SetBirthTime()</text>
<text text-anchor="start" x="47" y="-97" font-family="Helvetica,sans-Serif" font-size="10.00">+</text>
<text text-anchor="start" x="60" y="-97" font-family="Helvetica,sans-Serif" font-size="10.00">SetCellCycleModel()</text>
<text text-anchor="start" x="47" y="-82" font-family="Helvetica,sans-Serif" font-size="10.00">+</text>
<text text-anchor="start" x="60" y="-82" font-family="Helvetica,sans-Serif" font-size="10.00">GetCellCycleModel()</text>
<text text-anchor="start" x="47" y="-67" font-family="Helvetica,sans-Serif" font-size="10.00">+</text>
<text text-anchor="start" x="60" y="-67" font-family="Helvetica,sans-Serif" font-size="10.00">InitialiseCellCycleModel()</text>
<text text-anchor="start" x="47" y="-52" font-family="Helvetica,sans-Serif" font-size="10.00">+</text>
<text text-anchor="start" x="60" y="-52" font-family="Helvetica,sans-Serif" font-size="10.00">SetSrnModel()</text>
<text text-anchor="start" x="47" y="-37" font-family="Helvetica,sans-Serif" font-size="10.00">+</text>
<text text-anchor="start" x="60" y="-37" font-family="Helvetica,sans-Serif" font-size="10.00">GetSrnModel()</text>
<text text-anchor="start" x="60" y="-22" font-family="Helvetica,sans-Serif" font-size="10.00">and 30 more...</text>
<text text-anchor="start" x="49.5" y="-7" font-family="Helvetica,sans-Serif" font-size="10.00">&#45;</text>
<text text-anchor="start" x="60" y="-7" font-family="Helvetica,sans-Serif" font-size="10.00">serialize()</text>
<polygon fill="#666666" stroke="#666666" points="43,-347 43,-347 191,-347 191,-347 43,-347"/>
<polygon fill="#666666" stroke="#666666" points="43,-182 43,-182 58,-182 58,-182 43,-182"/>
<polygon fill="#666666" stroke="#666666" points="58,-182 58,-182 191,-182 191,-182 58,-182"/>
<polygon fill="none" stroke="#666666" points="43,0 43,-364 191,-364 191,0 43,0"/>
</a>
</g>
</g>
<!-- Node2 -->
<g id="Node000002" class="node">
<title>Node2</title>
<g id="a_Node000002"><a xlink:title=" ">
<polygon fill="white" stroke="transparent" points="106,-454.5 0,-454.5 0,-405.5 106,-405.5 106,-454.5"/>
<text text-anchor="start" x="5" y="-442" font-family="Helvetica,sans-Serif" font-size="10.00">boost::noncopyable</text>
<text text-anchor="start" x="51" y="-427" font-family="Helvetica,sans-Serif" font-size="10.00"> </text>
<text text-anchor="start" x="51" y="-412" font-family="Helvetica,sans-Serif" font-size="10.00"> </text>
<polygon fill="#bfbfbf" stroke="#bfbfbf" points="0,-437 0,-437 106,-437 106,-437 0,-437"/>
<polygon fill="#bfbfbf" stroke="#bfbfbf" points="0,-422 0,-422 106,-422 106,-422 0,-422"/>
<polygon fill="none" stroke="#bfbfbf" points="0,-405.5 0,-454.5 106,-454.5 106,-405.5 0,-405.5"/>
</a>
</g>
</g>
<!-- Node2&#45;&gt;Node1 -->
<g id="edge1_Node000001_Node000002" class="edge">
<title>Node2&#45;&gt;Node1</title>
<g id="a_edge1_Node000001_Node000002"><a xlink:title=" ">
<path fill="none" stroke="#8b1a1a" d="M61.68,-395.65C64.08,-386.42 66.86,-375.71 69.88,-364.12"/>
<polygon fill="none" stroke="#8b1a1a" points="58.27,-394.85 59.14,-405.41 65.04,-396.62 58.27,-394.85"/>
</a>
</g>
</g>
<!-- Node3 -->
<g id="Node000003" class="node">
<title>Node3</title>
<g id="a_Node000003"><a xlink:title=" ">
<polygon fill="white" stroke="transparent" points="239.5,-460 124.5,-460 124.5,-400 239.5,-400 239.5,-460"/>
<text text-anchor="start" x="130" y="-448" font-family="Helvetica,sans-Serif" font-size="10.00">boost::enable_shared</text>
<text text-anchor="start" x="135.5" y="-437" font-family="Helvetica,sans-Serif" font-size="10.00">_from_this&lt; Cell &gt;</text>
<text text-anchor="start" x="180.5" y="-422" font-family="Helvetica,sans-Serif" font-size="10.00"> </text>
<text text-anchor="start" x="180.5" y="-407" font-family="Helvetica,sans-Serif" font-size="10.00"> </text>
<polygon fill="#bfbfbf" stroke="#bfbfbf" points="125,-432 125,-432 240,-432 240,-432 125,-432"/>
<polygon fill="#bfbfbf" stroke="#bfbfbf" points="125,-417 125,-417 240,-417 240,-417 125,-417"/>
<polygon fill="none" stroke="#bfbfbf" points="124.5,-400 124.5,-460 239.5,-460 239.5,-400 124.5,-400"/>
</a>
</g>
</g>
<!-- Node3&#45;&gt;Node1 -->
<g id="edge2_Node000001_Node000003" class="edge">
<title>Node3&#45;&gt;Node1</title>
<g id="a_edge2_Node000001_Node000003"><a xlink:title=" ">
<path fill="none" stroke="#63b8ff" d="M171.7,-390.01C169.62,-382.15 167.31,-373.41 164.85,-364.1"/>
<polygon fill="none" stroke="#63b8ff" points="168.35,-391.04 174.29,-399.81 175.12,-389.25 168.35,-391.04"/>
</a>
</g>
</g>
</g>
</svg>
