<?xml version="1.0" encoding="UTF-8" standalone="no"?>
<!DOCTYPE svg PUBLIC "-//W3C//DTD SVG 1.1//EN"
 "http://www.w3.org/Graphics/SVG/1.1/DTD/svg11.dtd">
<!-- Generated by graphviz version 2.43.0 (0)
 -->
<!-- Title: VolumeConstraintPottsUpdateRule&lt; DIM &gt; Pages: 1 -->
<svg width="390pt" height="661pt"
 viewBox="0.00 0.00 390.00 661.00" xmlns="http://www.w3.org/2000/svg" xmlns:xlink="http://www.w3.org/1999/xlink">
<g id="graph0" class="graph" transform="scale(1 1) rotate(0) translate(4 657)">
<title>VolumeConstraintPottsUpdateRule&lt; DIM &gt;</title>
<!-- Node1 -->
<g id="Node000001" class="node">
<title>Node1</title>
<g id="a_Node000001"><a xlink:title=" ">
<polygon fill="#999999" stroke="transparent" points="294,-202 102,-202 102,0 294,0 294,-202"/>
<text text-anchor="start" x="124" y="-190" font-family="Helvetica,sans-Serif" font-size="10.00">VolumeConstraintPottsUpdate</text>
<text text-anchor="start" x="166" y="-179" font-family="Helvetica,sans-Serif" font-size="10.00">Rule&lt; DIM &gt;</text>
<text text-anchor="start" x="196" y="-164" font-family="Helvetica,sans-Serif" font-size="10.00"> </text>
<text text-anchor="start" x="106" y="-149" font-family="Helvetica,sans-Serif" font-size="10.00">+</text>
<text text-anchor="start" x="119" y="-149" font-family="Helvetica,sans-Serif" font-size="10.00">VolumeConstraintPottsUpdate</text>
<text text-anchor="start" x="119" y="-138" font-family="Helvetica,sans-Serif" font-size="10.00">Rule()</text>
<text text-anchor="start" x="106" y="-123" font-family="Helvetica,sans-Serif" font-size="10.00">+</text>
<text text-anchor="start" x="119" y="-123" font-family="Helvetica,sans-Serif" font-size="10.00">~VolumeConstraintPottsUpdate</text>
<text text-anchor="start" x="119" y="-112" font-family="Helvetica,sans-Serif" font-size="10.00">Rule()</text>
<text text-anchor="start" x="106" y="-97" font-family="Helvetica,sans-Serif" font-size="10.00">+</text>
<text text-anchor="start" x="119" y="-97" font-family="Helvetica,sans-Serif" font-size="10.00">EvaluateHamiltonianContribution()</text>
<text text-anchor="start" x="106" y="-82" font-family="Helvetica,sans-Serif" font-size="10.00">+</text>
<text text-anchor="start" x="119" y="-82" font-family="Helvetica,sans-Serif" font-size="10.00">GetDeformationEnergyParameter()</text>
<text text-anchor="start" x="106" y="-67" font-family="Helvetica,sans-Serif" font-size="10.00">+</text>
<text text-anchor="start" x="119" y="-67" font-family="Helvetica,sans-Serif" font-size="10.00">SetDeformationEnergyParameter()</text>
<text text-anchor="start" x="106" y="-52" font-family="Helvetica,sans-Serif" font-size="10.00">+</text>
<text text-anchor="start" x="119" y="-52" font-family="Helvetica,sans-Serif" font-size="10.00">GetMatureCellTargetVolume()</text>
<text text-anchor="start" x="106" y="-37" font-family="Helvetica,sans-Serif" font-size="10.00">+</text>
<text text-anchor="start" x="119" y="-37" font-family="Helvetica,sans-Serif" font-size="10.00">SetMatureCellTargetVolume()</text>
<text text-anchor="start" x="106" y="-22" font-family="Helvetica,sans-Serif" font-size="10.00">+</text>
<text text-anchor="start" x="119" y="-22" font-family="Helvetica,sans-Serif" font-size="10.00">OutputUpdateRuleParameters()</text>
<text text-anchor="start" x="108.5" y="-7" font-family="Helvetica,sans-Serif" font-size="10.00">&#45;</text>
<text text-anchor="start" x="119" y="-7" font-family="Helvetica,sans-Serif" font-size="10.00">serialize()</text>
<polygon fill="#666666" stroke="#666666" points="102,-174 102,-174 294,-174 294,-174 102,-174"/>
<polygon fill="#666666" stroke="#666666" points="102,-159 102,-159 294,-159 294,-159 102,-159"/>
<polygon fill="none" stroke="#666666" points="102,0 102,-202 294,-202 294,0 102,0"/>
</a>
</g>
</g>
<!-- Node2 -->
<g id="Node000002" class="node">
<title>Node2</title>
<g id="a_Node000002"><a xlink:href="classAbstractPottsUpdateRule.html" target="_top" xlink:title=" ">
<polygon fill="white" stroke="transparent" points="192,-380 0,-380 0,-260 192,-260 192,-380"/>
<text text-anchor="start" x="34.5" y="-368" font-family="Helvetica,sans-Serif" font-size="10.00">AbstractPottsUpdateRule</text>
<text text-anchor="start" x="74.5" y="-357" font-family="Helvetica,sans-Serif" font-size="10.00">&lt; DIM &gt;</text>
<text text-anchor="start" x="94" y="-342" font-family="Helvetica,sans-Serif" font-size="10.00"> </text>
<text text-anchor="start" x="4" y="-327" font-family="Helvetica,sans-Serif" font-size="10.00">+</text>
<text text-anchor="start" x="17" y="-327" font-family="Helvetica,sans-Serif" font-size="10.00">AbstractPottsUpdateRule()</text>
<text text-anchor="start" x="4" y="-312" font-family="Helvetica,sans-Serif" font-size="10.00">+</text>
<text text-anchor="start" x="17" y="-312" font-family="Helvetica,sans-Serif" font-size="10.00">~AbstractPottsUpdateRule()</text>
<text text-anchor="start" x="4" y="-297" font-family="Helvetica,sans-Serif" font-size="10.00">+</text>
<text text-anchor="start" x="17" y="-297" font-family="Helvetica,sans-Serif" font-size="10.00">EvaluateHamiltonianContribution()</text>
<text text-anchor="start" x="4" y="-282" font-family="Helvetica,sans-Serif" font-size="10.00">+</text>
<text text-anchor="start" x="17" y="-282" font-family="Helvetica,sans-Serif" font-size="10.00">OutputUpdateRuleParameters()</text>
<text text-anchor="start" x="6.5" y="-267" font-family="Helvetica,sans-Serif" font-size="10.00">&#45;</text>
<text text-anchor="start" x="17" y="-267" font-family="Helvetica,sans-Serif" font-size="10.00">serialize()</text>
<polygon fill="#666666" stroke="#666666" points="0,-352 0,-352 192,-352 192,-352 0,-352"/>
<polygon fill="#666666" stroke="#666666" points="0,-337 0,-337 192,-337 192,-337 0,-337"/>
<polygon fill="none" stroke="#666666" points="0,-260 0,-380 192,-380 192,-260 0,-260"/>
</a>
</g>
</g>
<!-- Node2&#45;&gt;Node1 -->
<g id="edge1_Node000001_Node000002" class="edge">
<title>Node2&#45;&gt;Node1</title>
<g id="a_edge1_Node000001_Node000002"><a xlink:title=" ">
<path fill="none" stroke="#63b8ff" d="M128.14,-250.61C135.36,-235.27 143.15,-218.69 150.83,-202.35"/>
<polygon fill="none" stroke="#63b8ff" points="124.82,-249.45 123.74,-259.99 131.16,-252.43 124.82,-249.45"/>
</a>
</g>
</g>
<!-- Node3 -->
<g id="Node000003" class="node">
<title>Node3</title>
<g id="a_Node000003"><a xlink:href="classAbstractUpdateRule.html" target="_top" xlink:title=" ">
<polygon fill="white" stroke="transparent" points="183.5,-537 8.5,-537 8.5,-417 183.5,-417 183.5,-537"/>
<text text-anchor="start" x="47.5" y="-525" font-family="Helvetica,sans-Serif" font-size="10.00">AbstractUpdateRule</text>
<text text-anchor="start" x="75" y="-514" font-family="Helvetica,sans-Serif" font-size="10.00">&lt; DIM &gt;</text>
<text text-anchor="start" x="94.5" y="-499" font-family="Helvetica,sans-Serif" font-size="10.00"> </text>
<text text-anchor="start" x="13" y="-484" font-family="Helvetica,sans-Serif" font-size="10.00">+</text>
<text text-anchor="start" x="26" y="-484" font-family="Helvetica,sans-Serif" font-size="10.00">AbstractUpdateRule()</text>
<text text-anchor="start" x="13" y="-469" font-family="Helvetica,sans-Serif" font-size="10.00">+</text>
<text text-anchor="start" x="26" y="-469" font-family="Helvetica,sans-Serif" font-size="10.00">~AbstractUpdateRule()</text>
<text text-anchor="start" x="13" y="-454" font-family="Helvetica,sans-Serif" font-size="10.00">+</text>
<text text-anchor="start" x="26" y="-454" font-family="Helvetica,sans-Serif" font-size="10.00">OutputUpdateRuleInfo()</text>
<text text-anchor="start" x="13" y="-439" font-family="Helvetica,sans-Serif" font-size="10.00">+</text>
<text text-anchor="start" x="26" y="-439" font-family="Helvetica,sans-Serif" font-size="10.00">OutputUpdateRuleParameters()</text>
<text text-anchor="start" x="15.5" y="-424" font-family="Helvetica,sans-Serif" font-size="10.00">&#45;</text>
<text text-anchor="start" x="26" y="-424" font-family="Helvetica,sans-Serif" font-size="10.00">serialize()</text>
<polygon fill="#666666" stroke="#666666" points="9,-509 9,-509 184,-509 184,-509 9,-509"/>
<polygon fill="#666666" stroke="#666666" points="9,-494 9,-494 184,-494 184,-494 9,-494"/>
<polygon fill="none" stroke="#666666" points="8.5,-417 8.5,-537 183.5,-537 183.5,-417 8.5,-417"/>
</a>
</g>
</g>
<!-- Node3&#45;&gt;Node2 -->
<g id="edge2_Node000002_Node000003" class="edge">
<title>Node3&#45;&gt;Node2</title>
<g id="a_edge2_Node000002_Node000003"><a xlink:title=" ">
<path fill="none" stroke="#63b8ff" d="M96,-406.95C96,-398 96,-388.9 96,-380.13"/>
<polygon fill="none" stroke="#63b8ff" points="92.5,-406.96 96,-416.96 99.5,-406.96 92.5,-406.96"/>
</a>
</g>
</g>
<!-- Node4 -->
<g id="Node000004" class="node">
<title>Node4</title>
<g id="a_Node000004"><a xlink:href="classIdentifiable.html" target="_top" xlink:title=" ">
<polygon fill="white" stroke="transparent" points="184,-653 8,-653 8,-574 184,-574 184,-653"/>
<text text-anchor="start" x="68.5" y="-640.5" font-family="Helvetica,sans-Serif" font-size="10.00">Identifiable</text>
<text text-anchor="start" x="94" y="-625.5" font-family="Helvetica,sans-Serif" font-size="10.00"> </text>
<text text-anchor="start" x="12" y="-610.5" font-family="Helvetica,sans-Serif" font-size="10.00">+</text>
<text text-anchor="start" x="25" y="-610.5" font-family="Helvetica,sans-Serif" font-size="10.00">~Identifiable()</text>
<text text-anchor="start" x="12" y="-595.5" font-family="Helvetica,sans-Serif" font-size="10.00">+</text>
<text text-anchor="start" x="25" y="-595.5" font-family="Helvetica,sans-Serif" font-size="10.00">GetIdentifier()</text>
<text text-anchor="start" x="14.5" y="-580.5" font-family="Helvetica,sans-Serif" font-size="10.00">&#45;</text>
<text text-anchor="start" x="25" y="-580.5" font-family="Helvetica,sans-Serif" font-size="10.00">TidyTemplatedExportIdentifier()</text>
<polygon fill="#666666" stroke="#666666" points="8,-635.5 8,-635.5 184,-635.5 184,-635.5 8,-635.5"/>
<polygon fill="#666666" stroke="#666666" points="8,-620.5 8,-620.5 184,-620.5 184,-620.5 8,-620.5"/>
<polygon fill="none" stroke="#666666" points="8,-574 8,-653 184,-653 184,-574 8,-574"/>
</a>
</g>
</g>
<!-- Node4&#45;&gt;Node3 -->
<g id="edge3_Node000003_Node000004" class="edge">
<title>Node4&#45;&gt;Node3</title>
<g id="a_edge3_Node000003_Node000004"><a xlink:title=" ">
<path fill="none" stroke="#63b8ff" d="M96,-563.69C96,-555.06 96,-546 96,-537.12"/>
<polygon fill="none" stroke="#63b8ff" points="92.5,-563.96 96,-573.96 99.5,-563.96 92.5,-563.96"/>
</a>
</g>
</g>
<!-- Node5 -->
<g id="Node000005" class="node">
<title>Node5</title>
<g id="a_Node000005"><a xlink:href="classdouble.html" target="_top" xlink:title=" ">
<polygon fill="white" stroke="transparent" points="254,-344.5 210,-344.5 210,-295.5 254,-295.5 254,-344.5"/>
<text text-anchor="start" x="215" y="-332" font-family="Helvetica,sans-Serif" font-size="10.00">double</text>
<text text-anchor="start" x="230" y="-317" font-family="Helvetica,sans-Serif" font-size="10.00"> </text>
<text text-anchor="start" x="230" y="-302" font-family="Helvetica,sans-Serif" font-size="10.00"> </text>
<polygon fill="#bfbfbf" stroke="#bfbfbf" points="210,-327 210,-327 254,-327 254,-327 210,-327"/>
<polygon fill="#bfbfbf" stroke="#bfbfbf" points="210,-312 210,-312 254,-312 254,-312 210,-312"/>
<polygon fill="none" stroke="#bfbfbf" points="210,-295.5 210,-344.5 254,-344.5 254,-295.5 210,-295.5"/>
</a>
</g>
</g>
<!-- Node5&#45;&gt;Node1 -->
<g id="edge4_Node000001_Node000005" class="edge">
<title>Node5&#45;&gt;Node1</title>
<g id="a_edge4_Node000001_Node000005"><a xlink:title=" ">
<path fill="none" stroke="#63b8ff" d="M228.3,-295.36C225.16,-275.34 220.41,-245.06 215.61,-214.37"/>
<polygon fill="none" stroke="#63b8ff" points="215.55,-214 210.67,-208.69 213.69,-202.15 218.57,-207.45 215.55,-214"/>
</a>
</g>
<text text-anchor="middle" x="300.5" y="-234" font-family="Helvetica,sans-Serif" font-size="10.00" fill="grey"> &#45;mDeformationEnergyParameter</text>
<text text-anchor="middle" x="300.5" y="-223" font-family="Helvetica,sans-Serif" font-size="10.00" fill="grey">&#45;mMatureCellTargetVolume</text>
</g>
</g>
</svg>
