<?xml version="1.0" encoding="UTF-8" standalone="no"?>
<!DOCTYPE svg PUBLIC "-//W3C//DTD SVG 1.1//EN"
 "http://www.w3.org/Graphics/SVG/1.1/DTD/svg11.dtd">
<!-- Generated by graphviz version 2.43.0 (0)
 -->
<!-- Title: AbstractCellCycleModelOdeSolver Pages: 1 -->
<svg width="299pt" height="407pt"
 viewBox="0.00 0.00 298.50 407.00" xmlns="http://www.w3.org/2000/svg" xmlns:xlink="http://www.w3.org/1999/xlink">
<g id="graph0" class="graph" transform="scale(1 1) rotate(0) translate(4 403)">
<title>AbstractCellCycleModelOdeSolver</title>
<!-- Node1 -->
<g id="Node000001" class="node">
<title>Node1</title>
<g id="a_Node000001"><a xlink:title=" ">
<polygon fill="#999999" stroke="transparent" points="222,-292 47,-292 47,0 222,0 222,-292"/>
<text text-anchor="start" x="67" y="-280" font-family="Helvetica,sans-Serif" font-size="10.00">AbstractCellCycleModelOde</text>
<text text-anchor="start" x="119.5" y="-269" font-family="Helvetica,sans-Serif" font-size="10.00">Solver</text>
<text text-anchor="start" x="133" y="-254" font-family="Helvetica,sans-Serif" font-size="10.00"> </text>
<text text-anchor="start" x="51.5" y="-239" font-family="Helvetica,sans-Serif" font-size="10.00">+</text>
<text text-anchor="start" x="64.5" y="-239" font-family="Helvetica,sans-Serif" font-size="10.00">AbstractCellCycleModelOde</text>
<text text-anchor="start" x="64.5" y="-228" font-family="Helvetica,sans-Serif" font-size="10.00">Solver()</text>
<text text-anchor="start" x="51.5" y="-213" font-family="Helvetica,sans-Serif" font-size="10.00">+</text>
<text text-anchor="start" x="64.5" y="-213" font-family="Helvetica,sans-Serif" font-size="10.00">~AbstractCellCycleModelOde</text>
<text text-anchor="start" x="64.5" y="-202" font-family="Helvetica,sans-Serif" font-size="10.00">Solver()</text>
<text text-anchor="start" x="51.5" y="-187" font-family="Helvetica,sans-Serif" font-size="10.00">+</text>
<text text-anchor="start" x="64.5" y="-187" font-family="Helvetica,sans-Serif" font-size="10.00">IsSetUp()</text>
<text text-anchor="start" x="51.5" y="-172" font-family="Helvetica,sans-Serif" font-size="10.00">+</text>
<text text-anchor="start" x="64.5" y="-172" font-family="Helvetica,sans-Serif" font-size="10.00">Reset()</text>
<text text-anchor="start" x="51.5" y="-157" font-family="Helvetica,sans-Serif" font-size="10.00">+</text>
<text text-anchor="start" x="64.5" y="-157" font-family="Helvetica,sans-Serif" font-size="10.00">SolveAndUpdateStateVariable()</text>
<text text-anchor="start" x="51.5" y="-142" font-family="Helvetica,sans-Serif" font-size="10.00">+</text>
<text text-anchor="start" x="64.5" y="-142" font-family="Helvetica,sans-Serif" font-size="10.00">Initialise()</text>
<text text-anchor="start" x="51.5" y="-127" font-family="Helvetica,sans-Serif" font-size="10.00">+</text>
<text text-anchor="start" x="64.5" y="-127" font-family="Helvetica,sans-Serif" font-size="10.00">StoppingEventOccurred()</text>
<text text-anchor="start" x="51.5" y="-112" font-family="Helvetica,sans-Serif" font-size="10.00">+</text>
<text text-anchor="start" x="64.5" y="-112" font-family="Helvetica,sans-Serif" font-size="10.00">GetStoppingTime()</text>
<text text-anchor="start" x="51.5" y="-97" font-family="Helvetica,sans-Serif" font-size="10.00">+</text>
<text text-anchor="start" x="64.5" y="-97" font-family="Helvetica,sans-Serif" font-size="10.00">SetSizeOfOdeSystem()</text>
<text text-anchor="start" x="51.5" y="-82" font-family="Helvetica,sans-Serif" font-size="10.00">+</text>
<text text-anchor="start" x="64.5" y="-82" font-family="Helvetica,sans-Serif" font-size="10.00">GetSizeOfOdeSystem()</text>
<text text-anchor="start" x="51.5" y="-67" font-family="Helvetica,sans-Serif" font-size="10.00">+</text>
<text text-anchor="start" x="64.5" y="-67" font-family="Helvetica,sans-Serif" font-size="10.00">CheckForStoppingEvents()</text>
<text text-anchor="start" x="51.5" y="-52" font-family="Helvetica,sans-Serif" font-size="10.00">+</text>
<text text-anchor="start" x="64.5" y="-52" font-family="Helvetica,sans-Serif" font-size="10.00">SetMaxSteps()</text>
<text text-anchor="start" x="51.5" y="-37" font-family="Helvetica,sans-Serif" font-size="10.00">+</text>
<text text-anchor="start" x="64.5" y="-37" font-family="Helvetica,sans-Serif" font-size="10.00">SetTolerances()</text>
<text text-anchor="start" x="51.5" y="-22" font-family="Helvetica,sans-Serif" font-size="10.00">+</text>
<text text-anchor="start" x="64.5" y="-22" font-family="Helvetica,sans-Serif" font-size="10.00">IsAdaptive()</text>
<text text-anchor="start" x="54" y="-7" font-family="Helvetica,sans-Serif" font-size="10.00">&#45;</text>
<text text-anchor="start" x="64.5" y="-7" font-family="Helvetica,sans-Serif" font-size="10.00">serialize()</text>
<polygon fill="#666666" stroke="#666666" points="47.5,-264 47.5,-264 222.5,-264 222.5,-264 47.5,-264"/>
<polygon fill="#666666" stroke="#666666" points="47.5,-249 47.5,-249 222.5,-249 222.5,-249 47.5,-249"/>
<polygon fill="none" stroke="#666666" points="47,0 47,-292 222,-292 222,0 47,0"/>
</a>
</g>
</g>
<!-- Node2 -->
<g id="Node000002" class="node">
<title>Node2</title>
<g id="a_Node000002"><a xlink:title=" ">
<polygon fill="white" stroke="transparent" points="149,-399 0,-399 0,-339 149,-339 149,-399"/>
<text text-anchor="start" x="5.5" y="-387" font-family="Helvetica,sans-Serif" font-size="10.00">shared_ptr&lt; AbstractIvpOde</text>
<text text-anchor="start" x="53.5" y="-376" font-family="Helvetica,sans-Serif" font-size="10.00">Solver &gt;</text>
<text text-anchor="start" x="73" y="-361" font-family="Helvetica,sans-Serif" font-size="10.00"> </text>
<text text-anchor="start" x="73" y="-346" font-family="Helvetica,sans-Serif" font-size="10.00"> </text>
<polygon fill="#bfbfbf" stroke="#bfbfbf" points="0.5,-371 0.5,-371 149.5,-371 149.5,-371 0.5,-371"/>
<polygon fill="#bfbfbf" stroke="#bfbfbf" points="0.5,-356 0.5,-356 149.5,-356 149.5,-356 0.5,-356"/>
<polygon fill="none" stroke="#bfbfbf" points="0,-339 0,-399 149,-399 149,-339 0,-339"/>
</a>
</g>
</g>
<!-- Node2&#45;&gt;Node1 -->
<g id="edge1_Node000001_Node000002" class="edge">
<title>Node2&#45;&gt;Node1</title>
<g id="a_edge1_Node000001_Node000002"><a xlink:title=" ">
<path fill="none" stroke="#63b8ff" d="M82.47,-338.65C85.18,-328.66 88.43,-316.7 91.96,-303.7"/>
<polygon fill="none" stroke="#63b8ff" points="91.98,-303.61 89.69,-296.77 95.13,-292.03 97.41,-298.87 91.98,-303.61"/>
</a>
</g>
<text text-anchor="middle" x="128.5" y="-313" font-family="Helvetica,sans-Serif" font-size="10.00" fill="grey"> #mpOdeSolver</text>
</g>
<!-- Node3 -->
<g id="Node000003" class="node">
<title>Node3</title>
<g id="a_Node000003"><a xlink:href="classunsigned.html" target="_top" xlink:title=" ">
<polygon fill="white" stroke="transparent" points="222,-393.5 167,-393.5 167,-344.5 222,-344.5 222,-393.5"/>
<text text-anchor="start" x="172.5" y="-381" font-family="Helvetica,sans-Serif" font-size="10.00">unsigned</text>
<text text-anchor="start" x="193" y="-366" font-family="Helvetica,sans-Serif" font-size="10.00"> </text>
<text text-anchor="start" x="193" y="-351" font-family="Helvetica,sans-Serif" font-size="10.00"> </text>
<polygon fill="#bfbfbf" stroke="#bfbfbf" points="167.5,-376 167.5,-376 222.5,-376 222.5,-376 167.5,-376"/>
<polygon fill="#bfbfbf" stroke="#bfbfbf" points="167.5,-361 167.5,-361 222.5,-361 222.5,-361 167.5,-361"/>
<polygon fill="none" stroke="#bfbfbf" points="167,-344.5 167,-393.5 222,-393.5 222,-344.5 167,-344.5"/>
</a>
</g>
</g>
<!-- Node3&#45;&gt;Node1 -->
<g id="edge2_Node000001_Node000003" class="edge">
<title>Node3&#45;&gt;Node1</title>
<g id="a_edge2_Node000001_Node000003"><a xlink:title=" ">
<path fill="none" stroke="#63b8ff" d="M188.08,-344.35C185.14,-333.52 181.39,-319.69 177.23,-304.39"/>
<polygon fill="none" stroke="#63b8ff" points="177.13,-304.01 171.69,-299.27 173.98,-292.43 179.41,-297.17 177.13,-304.01"/>
</a>
</g>
<text text-anchor="middle" x="236" y="-313" font-family="Helvetica,sans-Serif" font-size="10.00" fill="grey"> #mSizeOfOdeSystem</text>
</g>
</g>
</svg>
