<?xml version="1.0" encoding="UTF-8" standalone="no"?>
<!DOCTYPE svg PUBLIC "-//W3C//DTD SVG 1.1//EN"
 "http://www.w3.org/Graphics/SVG/1.1/DTD/svg11.dtd">
<!-- Generated by graphviz version 2.43.0 (0)
 -->
<!-- Title: Alarcon2004OxygenBasedCellCycleOdeSystem Pages: 1 -->
<svg width="303pt" height="1534pt"
 viewBox="0.00 0.00 303.00 1534.00" xmlns="http://www.w3.org/2000/svg" xmlns:xlink="http://www.w3.org/1999/xlink">
<g id="graph0" class="graph" transform="scale(1 1) rotate(0) translate(4 1530)">
<title>Alarcon2004OxygenBasedCellCycleOdeSystem</title>
<!-- Node1 -->
<g id="Node000001" class="node">
<title>Node1</title>
<g id="a_Node000001"><a xlink:title=" ">
<polygon fill="#999999" stroke="transparent" points="195,-352 18,-352 18,0 195,0 195,-352"/>
<text text-anchor="start" x="33" y="-340" font-family="Helvetica,sans-Serif" font-size="10.00">Alarcon2004OxygenBasedCell</text>
<text text-anchor="start" x="65" y="-329" font-family="Helvetica,sans-Serif" font-size="10.00">CycleOdeSystem</text>
<text text-anchor="start" x="25" y="-314" font-family="Helvetica,sans-Serif" font-size="10.00">&#45;</text>
<text text-anchor="start" x="35.5" y="-314" font-family="Helvetica,sans-Serif" font-size="10.00">ma1</text>
<text text-anchor="start" x="25" y="-299" font-family="Helvetica,sans-Serif" font-size="10.00">&#45;</text>
<text text-anchor="start" x="35.5" y="-299" font-family="Helvetica,sans-Serif" font-size="10.00">ma2</text>
<text text-anchor="start" x="25" y="-284" font-family="Helvetica,sans-Serif" font-size="10.00">&#45;</text>
<text text-anchor="start" x="35.5" y="-284" font-family="Helvetica,sans-Serif" font-size="10.00">ma3</text>
<text text-anchor="start" x="25" y="-269" font-family="Helvetica,sans-Serif" font-size="10.00">&#45;</text>
<text text-anchor="start" x="35.5" y="-269" font-family="Helvetica,sans-Serif" font-size="10.00">ma4</text>
<text text-anchor="start" x="25" y="-254" font-family="Helvetica,sans-Serif" font-size="10.00">&#45;</text>
<text text-anchor="start" x="35.5" y="-254" font-family="Helvetica,sans-Serif" font-size="10.00">mb3</text>
<text text-anchor="start" x="25" y="-239" font-family="Helvetica,sans-Serif" font-size="10.00">&#45;</text>
<text text-anchor="start" x="35.5" y="-239" font-family="Helvetica,sans-Serif" font-size="10.00">mb4</text>
<text text-anchor="start" x="25" y="-224" font-family="Helvetica,sans-Serif" font-size="10.00">&#45;</text>
<text text-anchor="start" x="35.5" y="-224" font-family="Helvetica,sans-Serif" font-size="10.00">mc1</text>
<text text-anchor="start" x="25" y="-209" font-family="Helvetica,sans-Serif" font-size="10.00">&#45;</text>
<text text-anchor="start" x="35.5" y="-209" font-family="Helvetica,sans-Serif" font-size="10.00">mc2</text>
<text text-anchor="start" x="25" y="-194" font-family="Helvetica,sans-Serif" font-size="10.00">&#45;</text>
<text text-anchor="start" x="35.5" y="-194" font-family="Helvetica,sans-Serif" font-size="10.00">md1</text>
<text text-anchor="start" x="25" y="-179" font-family="Helvetica,sans-Serif" font-size="10.00">&#45;</text>
<text text-anchor="start" x="35.5" y="-179" font-family="Helvetica,sans-Serif" font-size="10.00">md2</text>
<text text-anchor="start" x="35.5" y="-164" font-family="Helvetica,sans-Serif" font-size="10.00">and 9 more...</text>
<text text-anchor="start" x="22.5" y="-149" font-family="Helvetica,sans-Serif" font-size="10.00">+</text>
<text text-anchor="start" x="35.5" y="-149" font-family="Helvetica,sans-Serif" font-size="10.00">Alarcon2004OxygenBasedCell</text>
<text text-anchor="start" x="35.5" y="-138" font-family="Helvetica,sans-Serif" font-size="10.00">CycleOdeSystem()</text>
<text text-anchor="start" x="22.5" y="-123" font-family="Helvetica,sans-Serif" font-size="10.00">+</text>
<text text-anchor="start" x="35.5" y="-123" font-family="Helvetica,sans-Serif" font-size="10.00">~Alarcon2004OxygenBasedCell</text>
<text text-anchor="start" x="35.5" y="-112" font-family="Helvetica,sans-Serif" font-size="10.00">CycleOdeSystem()</text>
<text text-anchor="start" x="22.5" y="-97" font-family="Helvetica,sans-Serif" font-size="10.00">+</text>
<text text-anchor="start" x="35.5" y="-97" font-family="Helvetica,sans-Serif" font-size="10.00">Init()</text>
<text text-anchor="start" x="22.5" y="-82" font-family="Helvetica,sans-Serif" font-size="10.00">+</text>
<text text-anchor="start" x="35.5" y="-82" font-family="Helvetica,sans-Serif" font-size="10.00">EvaluateYDerivatives()</text>
<text text-anchor="start" x="22.5" y="-67" font-family="Helvetica,sans-Serif" font-size="10.00">+</text>
<text text-anchor="start" x="35.5" y="-67" font-family="Helvetica,sans-Serif" font-size="10.00">CalculateStoppingEvent()</text>
<text text-anchor="start" x="22.5" y="-52" font-family="Helvetica,sans-Serif" font-size="10.00">+</text>
<text text-anchor="start" x="35.5" y="-52" font-family="Helvetica,sans-Serif" font-size="10.00">SetIsLabelled()</text>
<text text-anchor="start" x="22.5" y="-37" font-family="Helvetica,sans-Serif" font-size="10.00">+</text>
<text text-anchor="start" x="35.5" y="-37" font-family="Helvetica,sans-Serif" font-size="10.00">IsLabelled()</text>
<text text-anchor="start" x="22.5" y="-22" font-family="Helvetica,sans-Serif" font-size="10.00">+</text>
<text text-anchor="start" x="35.5" y="-22" font-family="Helvetica,sans-Serif" font-size="10.00">GetOxygenConcentration()</text>
<text text-anchor="start" x="25" y="-7" font-family="Helvetica,sans-Serif" font-size="10.00">&#45;</text>
<text text-anchor="start" x="35.5" y="-7" font-family="Helvetica,sans-Serif" font-size="10.00">serialize()</text>
<polygon fill="#666666" stroke="#666666" points="18.5,-324 18.5,-324 195.5,-324 195.5,-324 18.5,-324"/>
<polygon fill="#666666" stroke="#666666" points="18.5,-159 18.5,-159 33.5,-159 33.5,-159 18.5,-159"/>
<polygon fill="#666666" stroke="#666666" points="33.5,-159 33.5,-159 195.5,-159 195.5,-159 33.5,-159"/>
<polygon fill="none" stroke="#666666" points="18,0 18,-352 195,-352 195,0 18,0"/>
</a>
</g>
</g>
<!-- Node2 -->
<g id="Node000002" class="node">
<title>Node2</title>
<g id="a_Node000002"><a xlink:href="classAbstractOdeSystem.html" target="_top" xlink:title=" ">
<polygon fill="white" stroke="transparent" points="180.5,-558 32.5,-558 32.5,-389 180.5,-389 180.5,-558"/>
<text text-anchor="start" x="58" y="-545.5" font-family="Helvetica,sans-Serif" font-size="10.00">AbstractOdeSystem</text>
<text text-anchor="start" x="36.5" y="-530.5" font-family="Helvetica,sans-Serif" font-size="10.00">#</text>
<text text-anchor="start" x="49.5" y="-530.5" font-family="Helvetica,sans-Serif" font-size="10.00">mUseAnalyticJacobian</text>
<text text-anchor="start" x="36.5" y="-515.5" font-family="Helvetica,sans-Serif" font-size="10.00">+</text>
<text text-anchor="start" x="49.5" y="-515.5" font-family="Helvetica,sans-Serif" font-size="10.00">AbstractOdeSystem()</text>
<text text-anchor="start" x="36.5" y="-500.5" font-family="Helvetica,sans-Serif" font-size="10.00">+</text>
<text text-anchor="start" x="49.5" y="-500.5" font-family="Helvetica,sans-Serif" font-size="10.00">~AbstractOdeSystem()</text>
<text text-anchor="start" x="36.5" y="-485.5" font-family="Helvetica,sans-Serif" font-size="10.00">+</text>
<text text-anchor="start" x="49.5" y="-485.5" font-family="Helvetica,sans-Serif" font-size="10.00">EvaluateYDerivatives()</text>
<text text-anchor="start" x="36.5" y="-470.5" font-family="Helvetica,sans-Serif" font-size="10.00">+</text>
<text text-anchor="start" x="49.5" y="-470.5" font-family="Helvetica,sans-Serif" font-size="10.00">CalculateStoppingEvent()</text>
<text text-anchor="start" x="36.5" y="-455.5" font-family="Helvetica,sans-Serif" font-size="10.00">+</text>
<text text-anchor="start" x="49.5" y="-455.5" font-family="Helvetica,sans-Serif" font-size="10.00">CalculateRootFunction()</text>
<text text-anchor="start" x="36.5" y="-440.5" font-family="Helvetica,sans-Serif" font-size="10.00">+</text>
<text text-anchor="start" x="49.5" y="-440.5" font-family="Helvetica,sans-Serif" font-size="10.00">GetUseAnalyticJacobian()</text>
<text text-anchor="start" x="36.5" y="-425.5" font-family="Helvetica,sans-Serif" font-size="10.00">+</text>
<text text-anchor="start" x="49.5" y="-425.5" font-family="Helvetica,sans-Serif" font-size="10.00">rGetConstStateVariables()</text>
<text text-anchor="start" x="39" y="-410.5" font-family="Helvetica,sans-Serif" font-size="10.00">&#45;</text>
<text text-anchor="start" x="49.5" y="-410.5" font-family="Helvetica,sans-Serif" font-size="10.00">save()</text>
<text text-anchor="start" x="39" y="-395.5" font-family="Helvetica,sans-Serif" font-size="10.00">&#45;</text>
<text text-anchor="start" x="49.5" y="-395.5" font-family="Helvetica,sans-Serif" font-size="10.00">load()</text>
<polygon fill="#666666" stroke="#666666" points="32.5,-540.5 32.5,-540.5 180.5,-540.5 180.5,-540.5 32.5,-540.5"/>
<polygon fill="#666666" stroke="#666666" points="32.5,-525.5 32.5,-525.5 47.5,-525.5 47.5,-525.5 32.5,-525.5"/>
<polygon fill="#666666" stroke="#666666" points="47.5,-525.5 47.5,-525.5 180.5,-525.5 180.5,-525.5 47.5,-525.5"/>
<polygon fill="none" stroke="#666666" points="32.5,-389 32.5,-558 180.5,-558 180.5,-389 32.5,-389"/>
</a>
</g>
</g>
<!-- Node2&#45;&gt;Node1 -->
<g id="edge1_Node000001_Node000002" class="edge">
<title>Node2&#45;&gt;Node1</title>
<g id="a_edge1_Node000001_Node000002"><a xlink:title=" ">
<path fill="none" stroke="#63b8ff" d="M106.5,-378.4C106.5,-369.9 106.5,-361.13 106.5,-352.23"/>
<polygon fill="none" stroke="#63b8ff" points="103,-378.61 106.5,-388.61 110,-378.61 103,-378.61"/>
</a>
</g>
</g>
<!-- Node3 -->
<g id="Node000003" class="node">
<title>Node3</title>
<g id="a_Node000003"><a xlink:href="classAbstractParameterisedSystem.html" target="_top" xlink:title=" ">
<polygon fill="white" stroke="transparent" points="195,-895 18,-895 18,-595 195,-595 195,-895"/>
<text text-anchor="start" x="33" y="-883" font-family="Helvetica,sans-Serif" font-size="10.00">AbstractParameterisedSystem</text>
<text text-anchor="start" x="42" y="-872" font-family="Helvetica,sans-Serif" font-size="10.00">&lt; std::vector&lt; double &gt; &gt;</text>
<text text-anchor="start" x="22.5" y="-857" font-family="Helvetica,sans-Serif" font-size="10.00">#</text>
<text text-anchor="start" x="35.5" y="-857" font-family="Helvetica,sans-Serif" font-size="10.00">mStateVariables</text>
<text text-anchor="start" x="22.5" y="-842" font-family="Helvetica,sans-Serif" font-size="10.00">#</text>
<text text-anchor="start" x="35.5" y="-842" font-family="Helvetica,sans-Serif" font-size="10.00">mParameters</text>
<text text-anchor="start" x="22.5" y="-827" font-family="Helvetica,sans-Serif" font-size="10.00">+</text>
<text text-anchor="start" x="35.5" y="-827" font-family="Helvetica,sans-Serif" font-size="10.00">AbstractParameterisedSystem()</text>
<text text-anchor="start" x="22.5" y="-812" font-family="Helvetica,sans-Serif" font-size="10.00">+</text>
<text text-anchor="start" x="35.5" y="-812" font-family="Helvetica,sans-Serif" font-size="10.00">rGetStateVariables()</text>
<text text-anchor="start" x="22.5" y="-797" font-family="Helvetica,sans-Serif" font-size="10.00">+</text>
<text text-anchor="start" x="35.5" y="-797" font-family="Helvetica,sans-Serif" font-size="10.00">GetStateVariables()</text>
<text text-anchor="start" x="22.5" y="-782" font-family="Helvetica,sans-Serif" font-size="10.00">+</text>
<text text-anchor="start" x="35.5" y="-782" font-family="Helvetica,sans-Serif" font-size="10.00">SetStateVariables()</text>
<text text-anchor="start" x="22.5" y="-767" font-family="Helvetica,sans-Serif" font-size="10.00">+</text>
<text text-anchor="start" x="35.5" y="-767" font-family="Helvetica,sans-Serif" font-size="10.00">GetStateVariable()</text>
<text text-anchor="start" x="22.5" y="-752" font-family="Helvetica,sans-Serif" font-size="10.00">+</text>
<text text-anchor="start" x="35.5" y="-752" font-family="Helvetica,sans-Serif" font-size="10.00">GetStateVariable()</text>
<text text-anchor="start" x="22.5" y="-737" font-family="Helvetica,sans-Serif" font-size="10.00">+</text>
<text text-anchor="start" x="35.5" y="-737" font-family="Helvetica,sans-Serif" font-size="10.00">SetStateVariable()</text>
<text text-anchor="start" x="22.5" y="-722" font-family="Helvetica,sans-Serif" font-size="10.00">+</text>
<text text-anchor="start" x="35.5" y="-722" font-family="Helvetica,sans-Serif" font-size="10.00">SetStateVariable()</text>
<text text-anchor="start" x="22.5" y="-707" font-family="Helvetica,sans-Serif" font-size="10.00">+</text>
<text text-anchor="start" x="35.5" y="-707" font-family="Helvetica,sans-Serif" font-size="10.00">VerifyStateVariables()</text>
<text text-anchor="start" x="22.5" y="-692" font-family="Helvetica,sans-Serif" font-size="10.00">+</text>
<text text-anchor="start" x="35.5" y="-692" font-family="Helvetica,sans-Serif" font-size="10.00">SetDefaultInitialConditions()</text>
<text text-anchor="start" x="35.5" y="-677" font-family="Helvetica,sans-Serif" font-size="10.00">and 13 more...</text>
<text text-anchor="start" x="22.5" y="-662" font-family="Helvetica,sans-Serif" font-size="10.00">#</text>
<text text-anchor="start" x="35.5" y="-662" font-family="Helvetica,sans-Serif" font-size="10.00">DumpState()</text>
<text text-anchor="start" x="22.5" y="-647" font-family="Helvetica,sans-Serif" font-size="10.00">#</text>
<text text-anchor="start" x="35.5" y="-647" font-family="Helvetica,sans-Serif" font-size="10.00">DumpState()</text>
<text text-anchor="start" x="22.5" y="-632" font-family="Helvetica,sans-Serif" font-size="10.00">#</text>
<text text-anchor="start" x="35.5" y="-632" font-family="Helvetica,sans-Serif" font-size="10.00">DumpState()</text>
<text text-anchor="start" x="22.5" y="-617" font-family="Helvetica,sans-Serif" font-size="10.00">#</text>
<text text-anchor="start" x="35.5" y="-617" font-family="Helvetica,sans-Serif" font-size="10.00">CheckParametersOnLoad()</text>
<text text-anchor="start" x="25" y="-602" font-family="Helvetica,sans-Serif" font-size="10.00">&#45;</text>
<text text-anchor="start" x="35.5" y="-602" font-family="Helvetica,sans-Serif" font-size="10.00">GetStateMessage()</text>
<polygon fill="#666666" stroke="#666666" points="18.5,-867 18.5,-867 195.5,-867 195.5,-867 18.5,-867"/>
<polygon fill="#666666" stroke="#666666" points="18.5,-837 18.5,-837 33.5,-837 33.5,-837 18.5,-837"/>
<polygon fill="#666666" stroke="#666666" points="33.5,-837 33.5,-837 195.5,-837 195.5,-837 33.5,-837"/>
<polygon fill="none" stroke="#666666" points="18,-595 18,-895 195,-895 195,-595 18,-595"/>
</a>
</g>
</g>
<!-- Node3&#45;&gt;Node2 -->
<g id="edge2_Node000002_Node000003" class="edge">
<title>Node3&#45;&gt;Node2</title>
<g id="a_edge2_Node000002_Node000003"><a xlink:title=" ">
<path fill="none" stroke="#63b8ff" d="M106.5,-584.45C106.5,-575.46 106.5,-566.61 106.5,-558.09"/>
<polygon fill="none" stroke="#63b8ff" points="103,-584.67 106.5,-594.67 110,-584.67 103,-584.67"/>
</a>
</g>
</g>
<!-- Node4 -->
<g id="Node000004" class="node">
<title>Node4</title>
<g id="a_Node000004"><a xlink:href="classAbstractUntemplatedParameterisedSystem.html" target="_top" xlink:title=" ">
<polygon fill="white" stroke="transparent" points="205,-1526 0,-1526 0,-1279 205,-1279 205,-1526"/>
<text text-anchor="start" x="15.5" y="-1513.5" font-family="Helvetica,sans-Serif" font-size="10.00">AbstractUntemplatedParameterised</text>
<text text-anchor="start" x="84.5" y="-1502.5" font-family="Helvetica,sans-Serif" font-size="10.00">System</text>
<text text-anchor="start" x="4.5" y="-1487.5" font-family="Helvetica,sans-Serif" font-size="10.00">#</text>
<text text-anchor="start" x="17.5" y="-1487.5" font-family="Helvetica,sans-Serif" font-size="10.00">mNumberOfStateVariables</text>
<text text-anchor="start" x="4.5" y="-1472.5" font-family="Helvetica,sans-Serif" font-size="10.00">#</text>
<text text-anchor="start" x="17.5" y="-1472.5" font-family="Helvetica,sans-Serif" font-size="10.00">mpSystemInfo</text>
<text text-anchor="start" x="4.5" y="-1457.5" font-family="Helvetica,sans-Serif" font-size="10.00">+</text>
<text text-anchor="start" x="17.5" y="-1457.5" font-family="Helvetica,sans-Serif" font-size="10.00">AbstractUntemplatedParameterised</text>
<text text-anchor="start" x="17.5" y="-1446.5" font-family="Helvetica,sans-Serif" font-size="10.00">System()</text>
<text text-anchor="start" x="4.5" y="-1431.5" font-family="Helvetica,sans-Serif" font-size="10.00">+</text>
<text text-anchor="start" x="17.5" y="-1431.5" font-family="Helvetica,sans-Serif" font-size="10.00">~AbstractUntemplatedParameterised</text>
<text text-anchor="start" x="17.5" y="-1420.5" font-family="Helvetica,sans-Serif" font-size="10.00">System()</text>
<text text-anchor="start" x="4.5" y="-1405.5" font-family="Helvetica,sans-Serif" font-size="10.00">+</text>
<text text-anchor="start" x="17.5" y="-1405.5" font-family="Helvetica,sans-Serif" font-size="10.00">GetSystemInformation()</text>
<text text-anchor="start" x="4.5" y="-1390.5" font-family="Helvetica,sans-Serif" font-size="10.00">+</text>
<text text-anchor="start" x="17.5" y="-1390.5" font-family="Helvetica,sans-Serif" font-size="10.00">GetSystemName()</text>
<text text-anchor="start" x="4.5" y="-1375.5" font-family="Helvetica,sans-Serif" font-size="10.00">+</text>
<text text-anchor="start" x="17.5" y="-1375.5" font-family="Helvetica,sans-Serif" font-size="10.00">GetNumberOfAttributes()</text>
<text text-anchor="start" x="4.5" y="-1360.5" font-family="Helvetica,sans-Serif" font-size="10.00">+</text>
<text text-anchor="start" x="17.5" y="-1360.5" font-family="Helvetica,sans-Serif" font-size="10.00">HasAttribute()</text>
<text text-anchor="start" x="4.5" y="-1345.5" font-family="Helvetica,sans-Serif" font-size="10.00">+</text>
<text text-anchor="start" x="17.5" y="-1345.5" font-family="Helvetica,sans-Serif" font-size="10.00">GetAttribute()</text>
<text text-anchor="start" x="4.5" y="-1330.5" font-family="Helvetica,sans-Serif" font-size="10.00">+</text>
<text text-anchor="start" x="17.5" y="-1330.5" font-family="Helvetica,sans-Serif" font-size="10.00">GetNumberOfStateVariables()</text>
<text text-anchor="start" x="4.5" y="-1315.5" font-family="Helvetica,sans-Serif" font-size="10.00">+</text>
<text text-anchor="start" x="17.5" y="-1315.5" font-family="Helvetica,sans-Serif" font-size="10.00">rGetStateVariableNames()</text>
<text text-anchor="start" x="4.5" y="-1300.5" font-family="Helvetica,sans-Serif" font-size="10.00">+</text>
<text text-anchor="start" x="17.5" y="-1300.5" font-family="Helvetica,sans-Serif" font-size="10.00">rGetStateVariableUnits()</text>
<text text-anchor="start" x="17.5" y="-1285.5" font-family="Helvetica,sans-Serif" font-size="10.00">and 20 more...</text>
<polygon fill="#666666" stroke="#666666" points="0.5,-1497.5 0.5,-1497.5 205.5,-1497.5 205.5,-1497.5 0.5,-1497.5"/>
<polygon fill="#666666" stroke="#666666" points="0.5,-1467.5 0.5,-1467.5 15.5,-1467.5 15.5,-1467.5 0.5,-1467.5"/>
<polygon fill="#666666" stroke="#666666" points="15.5,-1467.5 15.5,-1467.5 205.5,-1467.5 205.5,-1467.5 15.5,-1467.5"/>
<polygon fill="none" stroke="#666666" points="0,-1279 0,-1526 205,-1526 205,-1279 0,-1279"/>
</a>
</g>
</g>
<!-- Node4&#45;&gt;Node3 -->
<g id="edge3_Node000003_Node000004" class="edge">
<title>Node4&#45;&gt;Node3</title>
<g id="a_edge3_Node000003_Node000004"><a xlink:title=" ">
<path fill="none" stroke="#63b8ff" d="M103.31,-1268.97C103.97,-1160.72 104.9,-1007.77 105.59,-895.23"/>
<polygon fill="none" stroke="#63b8ff" points="99.81,-1268.95 103.25,-1278.97 106.81,-1269 99.81,-1268.95"/>
</a>
</g>
</g>
<!-- Node5 -->
<g id="Node000005" class="node">
<title>Node5</title>
<g id="a_Node000005"><a xlink:href="classAbstractParameterisedSystem.html" target="_top" xlink:title=" ">
<polygon fill="white" stroke="transparent" points="295,-1242 118,-1242 118,-942 295,-942 295,-1242"/>
<text text-anchor="start" x="133" y="-1230" font-family="Helvetica,sans-Serif" font-size="10.00">AbstractParameterisedSystem</text>
<text text-anchor="start" x="175.5" y="-1219" font-family="Helvetica,sans-Serif" font-size="10.00">&lt; VECTOR &gt;</text>
<text text-anchor="start" x="122.5" y="-1204" font-family="Helvetica,sans-Serif" font-size="10.00">#</text>
<text text-anchor="start" x="135.5" y="-1204" font-family="Helvetica,sans-Serif" font-size="10.00">mStateVariables</text>
<text text-anchor="start" x="122.5" y="-1189" font-family="Helvetica,sans-Serif" font-size="10.00">#</text>
<text text-anchor="start" x="135.5" y="-1189" font-family="Helvetica,sans-Serif" font-size="10.00">mParameters</text>
<text text-anchor="start" x="122.5" y="-1174" font-family="Helvetica,sans-Serif" font-size="10.00">+</text>
<text text-anchor="start" x="135.5" y="-1174" font-family="Helvetica,sans-Serif" font-size="10.00">AbstractParameterisedSystem()</text>
<text text-anchor="start" x="122.5" y="-1159" font-family="Helvetica,sans-Serif" font-size="10.00">+</text>
<text text-anchor="start" x="135.5" y="-1159" font-family="Helvetica,sans-Serif" font-size="10.00">rGetStateVariables()</text>
<text text-anchor="start" x="122.5" y="-1144" font-family="Helvetica,sans-Serif" font-size="10.00">+</text>
<text text-anchor="start" x="135.5" y="-1144" font-family="Helvetica,sans-Serif" font-size="10.00">GetStateVariables()</text>
<text text-anchor="start" x="122.5" y="-1129" font-family="Helvetica,sans-Serif" font-size="10.00">+</text>
<text text-anchor="start" x="135.5" y="-1129" font-family="Helvetica,sans-Serif" font-size="10.00">SetStateVariables()</text>
<text text-anchor="start" x="122.5" y="-1114" font-family="Helvetica,sans-Serif" font-size="10.00">+</text>
<text text-anchor="start" x="135.5" y="-1114" font-family="Helvetica,sans-Serif" font-size="10.00">GetStateVariable()</text>
<text text-anchor="start" x="122.5" y="-1099" font-family="Helvetica,sans-Serif" font-size="10.00">+</text>
<text text-anchor="start" x="135.5" y="-1099" font-family="Helvetica,sans-Serif" font-size="10.00">GetStateVariable()</text>
<text text-anchor="start" x="122.5" y="-1084" font-family="Helvetica,sans-Serif" font-size="10.00">+</text>
<text text-anchor="start" x="135.5" y="-1084" font-family="Helvetica,sans-Serif" font-size="10.00">SetStateVariable()</text>
<text text-anchor="start" x="122.5" y="-1069" font-family="Helvetica,sans-Serif" font-size="10.00">+</text>
<text text-anchor="start" x="135.5" y="-1069" font-family="Helvetica,sans-Serif" font-size="10.00">SetStateVariable()</text>
<text text-anchor="start" x="122.5" y="-1054" font-family="Helvetica,sans-Serif" font-size="10.00">+</text>
<text text-anchor="start" x="135.5" y="-1054" font-family="Helvetica,sans-Serif" font-size="10.00">VerifyStateVariables()</text>
<text text-anchor="start" x="122.5" y="-1039" font-family="Helvetica,sans-Serif" font-size="10.00">+</text>
<text text-anchor="start" x="135.5" y="-1039" font-family="Helvetica,sans-Serif" font-size="10.00">SetDefaultInitialConditions()</text>
<text text-anchor="start" x="135.5" y="-1024" font-family="Helvetica,sans-Serif" font-size="10.00">and 13 more...</text>
<text text-anchor="start" x="122.5" y="-1009" font-family="Helvetica,sans-Serif" font-size="10.00">#</text>
<text text-anchor="start" x="135.5" y="-1009" font-family="Helvetica,sans-Serif" font-size="10.00">DumpState()</text>
<text text-anchor="start" x="122.5" y="-994" font-family="Helvetica,sans-Serif" font-size="10.00">#</text>
<text text-anchor="start" x="135.5" y="-994" font-family="Helvetica,sans-Serif" font-size="10.00">DumpState()</text>
<text text-anchor="start" x="122.5" y="-979" font-family="Helvetica,sans-Serif" font-size="10.00">#</text>
<text text-anchor="start" x="135.5" y="-979" font-family="Helvetica,sans-Serif" font-size="10.00">DumpState()</text>
<text text-anchor="start" x="122.5" y="-964" font-family="Helvetica,sans-Serif" font-size="10.00">#</text>
<text text-anchor="start" x="135.5" y="-964" font-family="Helvetica,sans-Serif" font-size="10.00">CheckParametersOnLoad()</text>
<text text-anchor="start" x="125" y="-949" font-family="Helvetica,sans-Serif" font-size="10.00">&#45;</text>
<text text-anchor="start" x="135.5" y="-949" font-family="Helvetica,sans-Serif" font-size="10.00">GetStateMessage()</text>
<polygon fill="#666666" stroke="#666666" points="118.5,-1214 118.5,-1214 295.5,-1214 295.5,-1214 118.5,-1214"/>
<polygon fill="#666666" stroke="#666666" points="118.5,-1184 118.5,-1184 133.5,-1184 133.5,-1184 118.5,-1184"/>
<polygon fill="#666666" stroke="#666666" points="133.5,-1184 133.5,-1184 295.5,-1184 295.5,-1184 133.5,-1184"/>
<polygon fill="none" stroke="#666666" points="118,-942 118,-1242 295,-1242 295,-942 118,-942"/>
</a>
</g>
</g>
<!-- Node4&#45;&gt;Node5 -->
<g id="edge5_Node000005_Node000004" class="edge">
<title>Node4&#45;&gt;Node5</title>
<g id="a_edge5_Node000005_Node000004"><a xlink:title=" ">
<path fill="none" stroke="#63b8ff" d="M147.15,-1269.06C150.15,-1260.15 153.19,-1251.14 156.22,-1242.16"/>
<polygon fill="none" stroke="#63b8ff" points="143.78,-1268.09 143.9,-1278.69 150.41,-1270.33 143.78,-1268.09"/>
</a>
</g>
</g>
<!-- Node5&#45;&gt;Node3 -->
<g id="edge4_Node000003_Node000005" class="edge">
<title>Node5&#45;&gt;Node3</title>
<g id="a_edge4_Node000003_Node000005"><a xlink:title=" ">
<path fill="none" stroke="orange" d="M160.44,-932.1C156.88,-919.81 153.29,-907.43 149.75,-895.21"/>
<polygon fill="orange" stroke="orange" points="157.15,-933.3 163.29,-941.94 163.87,-931.36 157.15,-933.3"/>
</a>
</g>
<text text-anchor="middle" x="223" y="-916" font-family="Helvetica,sans-Serif" font-size="10.00" fill="grey"> &lt; std::vector&lt; double &gt; &gt;</text>
</g>
</g>
</svg>
