<?xml version="1.0" encoding="UTF-8" standalone="no"?>
<!DOCTYPE svg PUBLIC "-//W3C//DTD SVG 1.1//EN"
 "http://www.w3.org/Graphics/SVG/1.1/DTD/svg11.dtd">
<!-- Generated by graphviz version 2.43.0 (0)
 -->
<!-- Title: XdmfMeshWriter&lt; ELEMENT_DIM, SPACE_DIM &gt; Pages: 1 -->
<svg width="1627pt" height="1332pt"
 viewBox="0.00 0.00 1627.00 1332.00" xmlns="http://www.w3.org/2000/svg" xmlns:xlink="http://www.w3.org/1999/xlink">
<g id="graph0" class="graph" transform="scale(1 1) rotate(0) translate(4 1328)">
<title>XdmfMeshWriter&lt; ELEMENT_DIM, SPACE_DIM &gt;</title>
<!-- Node1 -->
<g id="Node000001" class="node">
<title>Node1</title>
<g id="a_Node000001"><a xlink:title=" ">
<polygon fill="#999999" stroke="transparent" points="705,-120 555,-120 555,0 705,0 705,-120"/>
<text text-anchor="start" x="560" y="-108" font-family="Helvetica,sans-Serif" font-size="10.00">XdmfMeshWriter&lt; ELEMENT</text>
<text text-anchor="start" x="581" y="-97" font-family="Helvetica,sans-Serif" font-size="10.00">_DIM, SPACE_DIM &gt;</text>
<text text-anchor="start" x="628" y="-82" font-family="Helvetica,sans-Serif" font-size="10.00"> </text>
<text text-anchor="start" x="563" y="-67" font-family="Helvetica,sans-Serif" font-size="10.00">+</text>
<text text-anchor="start" x="580" y="-67" font-family="Helvetica,sans-Serif" font-size="10.00">XdmfMeshWriter()</text>
<text text-anchor="start" x="563" y="-52" font-family="Helvetica,sans-Serif" font-size="10.00">+</text>
<text text-anchor="start" x="580" y="-52" font-family="Helvetica,sans-Serif" font-size="10.00">WriteFiles()</text>
<text text-anchor="start" x="563" y="-37" font-family="Helvetica,sans-Serif" font-size="10.00">+</text>
<text text-anchor="start" x="580" y="-37" font-family="Helvetica,sans-Serif" font-size="10.00">WriteFilesUsingMesh()</text>
<text text-anchor="start" x="565.5" y="-22" font-family="Helvetica,sans-Serif" font-size="10.00">&#45;</text>
<text text-anchor="start" x="580" y="-22" font-family="Helvetica,sans-Serif" font-size="10.00">WriteXdmfMasterFile()</text>
<text text-anchor="start" x="565.5" y="-7" font-family="Helvetica,sans-Serif" font-size="10.00">&#45;</text>
<text text-anchor="start" x="580" y="-7" font-family="Helvetica,sans-Serif" font-size="10.00">AddDataOnNodes()</text>
<polygon fill="#666666" stroke="#666666" points="555,-92 555,-92 705,-92 705,-92 555,-92"/>
<polygon fill="#666666" stroke="#666666" points="555,-77 555,-77 705,-77 705,-77 555,-77"/>
<polygon fill="none" stroke="#666666" points="555,0 555,-120 705,-120 705,0 555,0"/>
</a>
</g>
</g>
<!-- Node2 -->
<g id="Node000002" class="node">
<title>Node2</title>
<g id="a_Node000002"><a xlink:href="classAbstractTetrahedralMeshWriter.html" target="_top" xlink:title=" ">
<polygon fill="white" stroke="transparent" points="720.5,-459 539.5,-459 539.5,-167 720.5,-167 720.5,-459"/>
<text text-anchor="start" x="553" y="-447" font-family="Helvetica,sans-Serif" font-size="10.00">AbstractTetrahedralMeshWriter</text>
<text text-anchor="start" x="553" y="-436" font-family="Helvetica,sans-Serif" font-size="10.00">&lt; ELEMENT_DIM, SPACE_DIM &gt;</text>
<text text-anchor="start" x="628.5" y="-421" font-family="Helvetica,sans-Serif" font-size="10.00"> </text>
<text text-anchor="start" x="544" y="-406" font-family="Helvetica,sans-Serif" font-size="10.00">+</text>
<text text-anchor="start" x="557" y="-406" font-family="Helvetica,sans-Serif" font-size="10.00">AbstractTetrahedralMeshWriter()</text>
<text text-anchor="start" x="544" y="-391" font-family="Helvetica,sans-Serif" font-size="10.00">+</text>
<text text-anchor="start" x="557" y="-391" font-family="Helvetica,sans-Serif" font-size="10.00">~AbstractTetrahedralMesh</text>
<text text-anchor="start" x="557" y="-380" font-family="Helvetica,sans-Serif" font-size="10.00">Writer()</text>
<text text-anchor="start" x="544" y="-365" font-family="Helvetica,sans-Serif" font-size="10.00">+</text>
<text text-anchor="start" x="557" y="-365" font-family="Helvetica,sans-Serif" font-size="10.00">WriteFilesUsingMesh()</text>
<text text-anchor="start" x="544" y="-350" font-family="Helvetica,sans-Serif" font-size="10.00">+</text>
<text text-anchor="start" x="557" y="-350" font-family="Helvetica,sans-Serif" font-size="10.00">WriteFilesUsingMeshReader</text>
<text text-anchor="start" x="557" y="-339" font-family="Helvetica,sans-Serif" font-size="10.00">AndMesh()</text>
<text text-anchor="start" x="544" y="-324" font-family="Helvetica,sans-Serif" font-size="10.00">+</text>
<text text-anchor="start" x="557" y="-324" font-family="Helvetica,sans-Serif" font-size="10.00">GetNextNode()</text>
<text text-anchor="start" x="544" y="-309" font-family="Helvetica,sans-Serif" font-size="10.00">+</text>
<text text-anchor="start" x="557" y="-309" font-family="Helvetica,sans-Serif" font-size="10.00">GetNextElement()</text>
<text text-anchor="start" x="544" y="-294" font-family="Helvetica,sans-Serif" font-size="10.00">+</text>
<text text-anchor="start" x="557" y="-294" font-family="Helvetica,sans-Serif" font-size="10.00">GetNextBoundaryElement()</text>
<text text-anchor="start" x="544" y="-279" font-family="Helvetica,sans-Serif" font-size="10.00">+</text>
<text text-anchor="start" x="557" y="-279" font-family="Helvetica,sans-Serif" font-size="10.00">GetNextCableElement()</text>
<text text-anchor="start" x="546.5" y="-264" font-family="Helvetica,sans-Serif" font-size="10.00">&#45;</text>
<text text-anchor="start" x="557" y="-264" font-family="Helvetica,sans-Serif" font-size="10.00">PostElement()</text>
<text text-anchor="start" x="546.5" y="-249" font-family="Helvetica,sans-Serif" font-size="10.00">&#45;</text>
<text text-anchor="start" x="557" y="-249" font-family="Helvetica,sans-Serif" font-size="10.00">UnpackElement()</text>
<text text-anchor="start" x="546.5" y="-234" font-family="Helvetica,sans-Serif" font-size="10.00">&#45;</text>
<text text-anchor="start" x="557" y="-234" font-family="Helvetica,sans-Serif" font-size="10.00">WriteFilesUsingParallelMesh()</text>
<text text-anchor="start" x="546.5" y="-219" font-family="Helvetica,sans-Serif" font-size="10.00">&#45;</text>
<text text-anchor="start" x="557" y="-219" font-family="Helvetica,sans-Serif" font-size="10.00">WriteNclFile()</text>
<text text-anchor="start" x="546.5" y="-204" font-family="Helvetica,sans-Serif" font-size="10.00">&#45;</text>
<text text-anchor="start" x="557" y="-204" font-family="Helvetica,sans-Serif" font-size="10.00">CreateFilesWithHeaders()</text>
<text text-anchor="start" x="546.5" y="-189" font-family="Helvetica,sans-Serif" font-size="10.00">&#45;</text>
<text text-anchor="start" x="557" y="-189" font-family="Helvetica,sans-Serif" font-size="10.00">AppendLocalDataToFiles()</text>
<text text-anchor="start" x="546.5" y="-174" font-family="Helvetica,sans-Serif" font-size="10.00">&#45;</text>
<text text-anchor="start" x="557" y="-174" font-family="Helvetica,sans-Serif" font-size="10.00">WriteFilesFooter()</text>
<polygon fill="#666666" stroke="#666666" points="540,-431 540,-431 721,-431 721,-431 540,-431"/>
<polygon fill="#666666" stroke="#666666" points="540,-416 540,-416 721,-416 721,-416 540,-416"/>
<polygon fill="none" stroke="#666666" points="539.5,-167 539.5,-459 720.5,-459 720.5,-167 539.5,-167"/>
</a>
</g>
</g>
<!-- Node2&#45;&gt;Node1 -->
<g id="edge1_Node000001_Node000002" class="edge">
<title>Node2&#45;&gt;Node1</title>
<g id="a_edge1_Node000001_Node000002"><a xlink:title=" ">
<path fill="none" stroke="#63b8ff" d="M630,-156.43C630,-143.71 630,-131.42 630,-120.14"/>
<polygon fill="none" stroke="#63b8ff" points="626.5,-156.72 630,-166.72 633.5,-156.72 626.5,-156.72"/>
</a>
</g>
</g>
<!-- Node3 -->
<g id="Node000003" class="node">
<title>Node3</title>
<g id="a_Node000003"><a xlink:href="classAbstractMeshWriter.html" target="_top" xlink:title=" ">
<polygon fill="white" stroke="transparent" points="1328,-746 1162,-746 1162,-506 1328,-506 1328,-746"/>
<text text-anchor="start" x="1167.5" y="-734" font-family="Helvetica,sans-Serif" font-size="10.00">AbstractMeshWriter</text>
<text text-anchor="start" x="1167.5" y="-723" font-family="Helvetica,sans-Serif" font-size="10.00">&lt; ELEMENT_DIM, SPACE_DIM &gt;</text>
<text text-anchor="start" x="1243" y="-708" font-family="Helvetica,sans-Serif" font-size="10.00"> </text>
<text text-anchor="start" x="1166" y="-693" font-family="Helvetica,sans-Serif" font-size="10.00">+</text>
<text text-anchor="start" x="1179" y="-693" font-family="Helvetica,sans-Serif" font-size="10.00">AbstractMeshWriter()</text>
<text text-anchor="start" x="1166" y="-678" font-family="Helvetica,sans-Serif" font-size="10.00">+</text>
<text text-anchor="start" x="1179" y="-678" font-family="Helvetica,sans-Serif" font-size="10.00">~AbstractMeshWriter()</text>
<text text-anchor="start" x="1166" y="-663" font-family="Helvetica,sans-Serif" font-size="10.00">+</text>
<text text-anchor="start" x="1179" y="-663" font-family="Helvetica,sans-Serif" font-size="10.00">GetOutputDirectory()</text>
<text text-anchor="start" x="1166" y="-648" font-family="Helvetica,sans-Serif" font-size="10.00">+</text>
<text text-anchor="start" x="1179" y="-648" font-family="Helvetica,sans-Serif" font-size="10.00">GetNumNodes()</text>
<text text-anchor="start" x="1166" y="-633" font-family="Helvetica,sans-Serif" font-size="10.00">+</text>
<text text-anchor="start" x="1179" y="-633" font-family="Helvetica,sans-Serif" font-size="10.00">GetNumElements()</text>
<text text-anchor="start" x="1166" y="-618" font-family="Helvetica,sans-Serif" font-size="10.00">+</text>
<text text-anchor="start" x="1179" y="-618" font-family="Helvetica,sans-Serif" font-size="10.00">GetNumBoundaryFaces()</text>
<text text-anchor="start" x="1166" y="-603" font-family="Helvetica,sans-Serif" font-size="10.00">+</text>
<text text-anchor="start" x="1179" y="-603" font-family="Helvetica,sans-Serif" font-size="10.00">GetNumCableElements()</text>
<text text-anchor="start" x="1166" y="-588" font-family="Helvetica,sans-Serif" font-size="10.00">+</text>
<text text-anchor="start" x="1179" y="-588" font-family="Helvetica,sans-Serif" font-size="10.00">GetNextNode()</text>
<text text-anchor="start" x="1166" y="-573" font-family="Helvetica,sans-Serif" font-size="10.00">+</text>
<text text-anchor="start" x="1179" y="-573" font-family="Helvetica,sans-Serif" font-size="10.00">GetNextElement()</text>
<text text-anchor="start" x="1166" y="-558" font-family="Helvetica,sans-Serif" font-size="10.00">+</text>
<text text-anchor="start" x="1179" y="-558" font-family="Helvetica,sans-Serif" font-size="10.00">GetNextBoundaryElement()</text>
<text text-anchor="start" x="1166" y="-543" font-family="Helvetica,sans-Serif" font-size="10.00">+</text>
<text text-anchor="start" x="1179" y="-543" font-family="Helvetica,sans-Serif" font-size="10.00">GetNextCableElement()</text>
<text text-anchor="start" x="1166" y="-528" font-family="Helvetica,sans-Serif" font-size="10.00">+</text>
<text text-anchor="start" x="1179" y="-528" font-family="Helvetica,sans-Serif" font-size="10.00">WriteFiles()</text>
<text text-anchor="start" x="1166" y="-513" font-family="Helvetica,sans-Serif" font-size="10.00">+</text>
<text text-anchor="start" x="1179" y="-513" font-family="Helvetica,sans-Serif" font-size="10.00">WriteFilesUsingMeshReader()</text>
<polygon fill="#666666" stroke="#666666" points="1162,-718 1162,-718 1328,-718 1328,-718 1162,-718"/>
<polygon fill="#666666" stroke="#666666" points="1162,-703 1162,-703 1328,-703 1328,-703 1162,-703"/>
<polygon fill="none" stroke="#666666" points="1162,-506 1162,-746 1328,-746 1328,-506 1162,-506"/>
</a>
</g>
</g>
<!-- Node3&#45;&gt;Node2 -->
<g id="edge2_Node000002_Node000003" class="edge">
<title>Node3&#45;&gt;Node2</title>
<g id="a_edge2_Node000002_Node000003"><a xlink:title=" ">
<path fill="none" stroke="#63b8ff" d="M1153.83,-543.29C1136.07,-529.7 1117.03,-516.6 1098,-506 1063.87,-486.98 1053.3,-484.75 1015,-477 952.8,-464.42 785.23,-490.26 730,-459 726.81,-457.19 723.69,-455.24 720.66,-453.15"/>
<polygon fill="none" stroke="#63b8ff" points="1151.86,-546.19 1161.9,-549.56 1156.15,-540.66 1151.86,-546.19"/>
</a>
</g>
</g>
<!-- Node4 -->
<g id="Node000004" class="node">
<title>Node4</title>
<g id="a_Node000004"><a xlink:href="classOutputFileHandler.html" target="_top" xlink:title=" ">
<polygon fill="white" stroke="transparent" points="1619,-1110 1441,-1110 1441,-870 1619,-870 1619,-1110"/>
<text text-anchor="start" x="1485.5" y="-1098" font-family="Helvetica,sans-Serif" font-size="10.00">OutputFileHandler</text>
<text text-anchor="start" x="1528" y="-1083" font-family="Helvetica,sans-Serif" font-size="10.00"> </text>
<text text-anchor="start" x="1445" y="-1068" font-family="Helvetica,sans-Serif" font-size="10.00">+</text>
<text text-anchor="start" x="1458" y="-1068" font-family="Helvetica,sans-Serif" font-size="10.00">OutputFileHandler()</text>
<text text-anchor="start" x="1445" y="-1053" font-family="Helvetica,sans-Serif" font-size="10.00">+</text>
<text text-anchor="start" x="1458" y="-1053" font-family="Helvetica,sans-Serif" font-size="10.00">OutputFileHandler()</text>
<text text-anchor="start" x="1445" y="-1038" font-family="Helvetica,sans-Serif" font-size="10.00">+</text>
<text text-anchor="start" x="1458" y="-1038" font-family="Helvetica,sans-Serif" font-size="10.00">GetOutputDirectoryFullPath()</text>
<text text-anchor="start" x="1445" y="-1023" font-family="Helvetica,sans-Serif" font-size="10.00">+</text>
<text text-anchor="start" x="1458" y="-1023" font-family="Helvetica,sans-Serif" font-size="10.00">GetRelativePath()</text>
<text text-anchor="start" x="1445" y="-1008" font-family="Helvetica,sans-Serif" font-size="10.00">+</text>
<text text-anchor="start" x="1458" y="-1008" font-family="Helvetica,sans-Serif" font-size="10.00">SetArchiveDirectory()</text>
<text text-anchor="start" x="1445" y="-993" font-family="Helvetica,sans-Serif" font-size="10.00">+</text>
<text text-anchor="start" x="1458" y="-993" font-family="Helvetica,sans-Serif" font-size="10.00">OpenOutputFile()</text>
<text text-anchor="start" x="1445" y="-978" font-family="Helvetica,sans-Serif" font-size="10.00">+</text>
<text text-anchor="start" x="1458" y="-978" font-family="Helvetica,sans-Serif" font-size="10.00">OpenOutputFile()</text>
<text text-anchor="start" x="1445" y="-963" font-family="Helvetica,sans-Serif" font-size="10.00">+</text>
<text text-anchor="start" x="1458" y="-963" font-family="Helvetica,sans-Serif" font-size="10.00">CopyFileTo()</text>
<text text-anchor="start" x="1445" y="-948" font-family="Helvetica,sans-Serif" font-size="10.00">+</text>
<text text-anchor="start" x="1458" y="-948" font-family="Helvetica,sans-Serif" font-size="10.00">FindFile()</text>
<text text-anchor="start" x="1445" y="-933" font-family="Helvetica,sans-Serif" font-size="10.00">+</text>
<text text-anchor="start" x="1458" y="-933" font-family="Helvetica,sans-Serif" font-size="10.00">GetChasteTestOutputDirectory()</text>
<text text-anchor="start" x="1447.5" y="-918" font-family="Helvetica,sans-Serif" font-size="10.00">&#45;</text>
<text text-anchor="start" x="1458" y="-918" font-family="Helvetica,sans-Serif" font-size="10.00">CommonConstructor()</text>
<text text-anchor="start" x="1447.5" y="-903" font-family="Helvetica,sans-Serif" font-size="10.00">&#45;</text>
<text text-anchor="start" x="1458" y="-903" font-family="Helvetica,sans-Serif" font-size="10.00">MakeFoldersAndReturnFull</text>
<text text-anchor="start" x="1458" y="-892" font-family="Helvetica,sans-Serif" font-size="10.00">Path()</text>
<text text-anchor="start" x="1447.5" y="-877" font-family="Helvetica,sans-Serif" font-size="10.00">&#45;</text>
<text text-anchor="start" x="1458" y="-877" font-family="Helvetica,sans-Serif" font-size="10.00">AddTrailingSlash()</text>
<polygon fill="#666666" stroke="#666666" points="1441,-1093 1441,-1093 1619,-1093 1619,-1093 1441,-1093"/>
<polygon fill="#666666" stroke="#666666" points="1441,-1078 1441,-1078 1619,-1078 1619,-1078 1441,-1078"/>
<polygon fill="none" stroke="#666666" points="1441,-870 1441,-1110 1619,-1110 1619,-870 1441,-870"/>
</a>
</g>
</g>
<!-- Node4&#45;&gt;Node3 -->
<g id="edge3_Node000003_Node000004" class="edge">
<title>Node4&#45;&gt;Node3</title>
<g id="a_edge3_Node000003_Node000004"><a xlink:title=" ">
<path fill="none" stroke="#63b8ff" d="M1443.37,-869.95C1417.64,-835.42 1389.08,-797.9 1362,-764 1353.69,-753.6 1344.92,-742.88 1336.06,-732.23"/>
<polygon fill="none" stroke="#63b8ff" points="1335.95,-732.1 1329.04,-730.06 1328.26,-722.89 1335.18,-724.93 1335.95,-732.1"/>
</a>
</g>
<text text-anchor="middle" x="1486" y="-805.5" font-family="Helvetica,sans-Serif" font-size="10.00" fill="grey"> #mpOutputFileHandler</text>
</g>
<!-- Node5 -->
<g id="Node000005" class="node">
<title>Node5</title>
<g id="a_Node000005"><a xlink:title=" ">
<polygon fill="white" stroke="transparent" points="1430.5,-1217 1371.5,-1217 1371.5,-1168 1430.5,-1168 1430.5,-1217"/>
<text text-anchor="start" x="1377" y="-1204.5" font-family="Helvetica,sans-Serif" font-size="10.00">std::string</text>
<text text-anchor="start" x="1399.5" y="-1189.5" font-family="Helvetica,sans-Serif" font-size="10.00"> </text>
<text text-anchor="start" x="1399.5" y="-1174.5" font-family="Helvetica,sans-Serif" font-size="10.00"> </text>
<polygon fill="#666666" stroke="#666666" points="1372,-1199.5 1372,-1199.5 1431,-1199.5 1431,-1199.5 1372,-1199.5"/>
<polygon fill="#666666" stroke="#666666" points="1372,-1184.5 1372,-1184.5 1431,-1184.5 1431,-1184.5 1372,-1184.5"/>
<polygon fill="none" stroke="#666666" points="1371.5,-1168 1371.5,-1217 1430.5,-1217 1430.5,-1168 1371.5,-1168"/>
</a>
</g>
</g>
<!-- Node5&#45;&gt;Node3 -->
<g id="edge6_Node000003_Node000005" class="edge">
<title>Node5&#45;&gt;Node3</title>
<g id="a_edge6_Node000003_Node000005"><a xlink:title=" ">
<path fill="none" stroke="#63b8ff" d="M1384.61,-1167.72C1374.74,-1152.06 1362.97,-1130.7 1357,-1110 1314.3,-961.92 1382.66,-910.23 1334,-764 1333.29,-761.87 1332.54,-759.75 1331.76,-757.62"/>
<polygon fill="none" stroke="#63b8ff" points="1331.68,-757.43 1325.73,-753.36 1327.2,-746.3 1333.15,-750.37 1331.68,-757.43"/>
</a>
</g>
<text text-anchor="middle" x="1394.5" y="-987.5" font-family="Helvetica,sans-Serif" font-size="10.00" fill="grey"> #mBaseName</text>
</g>
<!-- Node5&#45;&gt;Node4 -->
<g id="edge4_Node000004_Node000005" class="edge">
<title>Node5&#45;&gt;Node4</title>
<g id="a_edge4_Node000004_Node000005"><a xlink:title=" ">
<path fill="none" stroke="#63b8ff" d="M1416.3,-1167.71C1424.47,-1155.02 1435.22,-1138.31 1446.87,-1120.21"/>
<polygon fill="none" stroke="#63b8ff" points="1446.92,-1120.13 1446.8,-1112.92 1453.41,-1110.04 1453.53,-1117.25 1446.92,-1120.13"/>
</a>
</g>
<text text-anchor="middle" x="1483" y="-1142" font-family="Helvetica,sans-Serif" font-size="10.00" fill="grey"> +SIG_FILE_NAME</text>
<text text-anchor="middle" x="1483" y="-1131" font-family="Helvetica,sans-Serif" font-size="10.00" fill="grey">&#45;mDirectory</text>
</g>
<!-- Node6 -->
<g id="Node000006" class="node">
<title>Node6</title>
<g id="a_Node000006"><a xlink:title=" ">
<polygon fill="white" stroke="transparent" points="1450,-1324 1352,-1324 1352,-1264 1450,-1264 1450,-1324"/>
<text text-anchor="start" x="1357" y="-1312" font-family="Helvetica,sans-Serif" font-size="10.00">std::basic_string&lt;</text>
<text text-anchor="start" x="1382.5" y="-1301" font-family="Helvetica,sans-Serif" font-size="10.00"> Char &gt;</text>
<text text-anchor="start" x="1399" y="-1286" font-family="Helvetica,sans-Serif" font-size="10.00"> </text>
<text text-anchor="start" x="1399" y="-1271" font-family="Helvetica,sans-Serif" font-size="10.00"> </text>
<polygon fill="#666666" stroke="#666666" points="1352,-1296 1352,-1296 1450,-1296 1450,-1296 1352,-1296"/>
<polygon fill="#666666" stroke="#666666" points="1352,-1281 1352,-1281 1450,-1281 1450,-1281 1352,-1281"/>
<polygon fill="none" stroke="#666666" points="1352,-1264 1352,-1324 1450,-1324 1450,-1264 1352,-1264"/>
</a>
</g>
</g>
<!-- Node6&#45;&gt;Node5 -->
<g id="edge5_Node000005_Node000006" class="edge">
<title>Node6&#45;&gt;Node5</title>
<g id="a_edge5_Node000005_Node000006"><a xlink:title=" ">
<path fill="none" stroke="#63b8ff" d="M1401,-1253.8C1401,-1241.38 1401,-1228.03 1401,-1217.06"/>
<polygon fill="none" stroke="#63b8ff" points="1397.5,-1253.95 1401,-1263.95 1404.5,-1253.95 1397.5,-1253.95"/>
</a>
</g>
</g>
<!-- Node7 -->
<g id="Node000007" class="node">
<title>Node7</title>
<g id="a_Node000007"><a xlink:title=" ">
<polygon fill="white" stroke="transparent" points="1310.5,-1025.5 1181.5,-1025.5 1181.5,-954.5 1310.5,-954.5 1310.5,-1025.5"/>
<text text-anchor="start" x="1187" y="-1013" font-family="Helvetica,sans-Serif" font-size="10.00">AbstractMeshReader</text>
<text text-anchor="start" x="1187" y="-1002" font-family="Helvetica,sans-Serif" font-size="10.00">&lt; ELEMENT_DIM, SPACE</text>
<text text-anchor="start" x="1224" y="-991" font-family="Helvetica,sans-Serif" font-size="10.00">_DIM &gt; *</text>
<text text-anchor="start" x="1244.5" y="-976" font-family="Helvetica,sans-Serif" font-size="10.00"> </text>
<text text-anchor="start" x="1244.5" y="-961" font-family="Helvetica,sans-Serif" font-size="10.00"> </text>
<polygon fill="#bfbfbf" stroke="#bfbfbf" points="1182,-986 1182,-986 1311,-986 1311,-986 1182,-986"/>
<polygon fill="#bfbfbf" stroke="#bfbfbf" points="1182,-971 1182,-971 1311,-971 1311,-971 1182,-971"/>
<polygon fill="none" stroke="#bfbfbf" points="1181.5,-954.5 1181.5,-1025.5 1310.5,-1025.5 1310.5,-954.5 1181.5,-954.5"/>
</a>
</g>
</g>
<!-- Node7&#45;&gt;Node3 -->
<g id="edge7_Node000003_Node000007" class="edge">
<title>Node7&#45;&gt;Node3</title>
<g id="a_edge7_Node000003_Node000007"><a xlink:title=" ">
<path fill="none" stroke="#63b8ff" d="M1245.9,-954.29C1245.78,-909.29 1245.56,-828.26 1245.36,-758.08"/>
<polygon fill="none" stroke="#63b8ff" points="1245.36,-758.02 1241.35,-752.03 1245.33,-746.02 1249.35,-752.01 1245.36,-758.02"/>
</a>
</g>
<text text-anchor="middle" x="1289" y="-805.5" font-family="Helvetica,sans-Serif" font-size="10.00" fill="grey"> #mpMeshReader</text>
</g>
<!-- Node8 -->
<g id="Node000008" class="node">
<title>Node8</title>
<g id="a_Node000008"><a xlink:href="classunsigned.html" target="_top" xlink:title=" ">
<polygon fill="white" stroke="transparent" points="254.5,-1217 199.5,-1217 199.5,-1168 254.5,-1168 254.5,-1217"/>
<text text-anchor="start" x="205" y="-1204.5" font-family="Helvetica,sans-Serif" font-size="10.00">unsigned</text>
<text text-anchor="start" x="225.5" y="-1189.5" font-family="Helvetica,sans-Serif" font-size="10.00"> </text>
<text text-anchor="start" x="225.5" y="-1174.5" font-family="Helvetica,sans-Serif" font-size="10.00"> </text>
<polygon fill="#bfbfbf" stroke="#bfbfbf" points="200,-1199.5 200,-1199.5 255,-1199.5 255,-1199.5 200,-1199.5"/>
<polygon fill="#bfbfbf" stroke="#bfbfbf" points="200,-1184.5 200,-1184.5 255,-1184.5 255,-1184.5 200,-1184.5"/>
<polygon fill="none" stroke="#bfbfbf" points="199.5,-1168 199.5,-1217 254.5,-1217 254.5,-1168 199.5,-1168"/>
</a>
</g>
</g>
<!-- Node8&#45;&gt;Node1 -->
<g id="edge21_Node000001_Node000008" class="edge">
<title>Node8&#45;&gt;Node1</title>
<g id="a_edge21_Node000001_Node000008"><a xlink:title=" ">
<path fill="none" stroke="#63b8ff" d="M199.17,-1182.01C138.55,-1159.38 0,-1096.16 0,-991 0,-991 0,-991 0,-312 0,-196.46 370.29,-110.55 543.1,-76.75"/>
<polygon fill="none" stroke="#63b8ff" points="543.16,-76.74 548.29,-71.67 554.95,-74.45 549.82,-79.52 543.16,-76.74"/>
</a>
</g>
<text text-anchor="middle" x="63.5" y="-623.5" font-family="Helvetica,sans-Serif" font-size="10.00" fill="grey"> #mNumberOfTimePoints</text>
</g>
<!-- Node8&#45;&gt;Node2 -->
<g id="edge15_Node000002_Node000008" class="edge">
<title>Node8&#45;&gt;Node2</title>
<g id="a_edge15_Node000002_Node000008"><a xlink:title=" ">
<path fill="none" stroke="#63b8ff" d="M221.42,-1167.99C196.52,-1060.65 99.89,-617.62 174,-506 252.31,-388.05 418.81,-342.39 527.47,-324.83"/>
<polygon fill="none" stroke="#63b8ff" points="527.58,-324.82 532.9,-319.94 539.44,-322.97 534.13,-327.85 527.58,-324.82"/>
</a>
</g>
<text text-anchor="start" x="162" y="-844" font-family="Helvetica,sans-Serif" font-size="10.00" fill="grey"> #mBoundaryElementCounter</text>
<text text-anchor="middle" x="250" y="-833" font-family="Helvetica,sans-Serif" font-size="10.00" fill="grey">ForParallelMesh</text>
<text text-anchor="start" x="162" y="-822" font-family="Helvetica,sans-Serif" font-size="10.00" fill="grey">#mCableElementCounterForParallel</text>
<text text-anchor="middle" x="250" y="-811" font-family="Helvetica,sans-Serif" font-size="10.00" fill="grey">Mesh</text>
<text text-anchor="middle" x="250" y="-800" font-family="Helvetica,sans-Serif" font-size="10.00" fill="grey">#mElementCounterForParallelMesh</text>
<text text-anchor="middle" x="250" y="-789" font-family="Helvetica,sans-Serif" font-size="10.00" fill="grey">#mNodeCounterForParallelMesh</text>
<text text-anchor="middle" x="250" y="-778" font-family="Helvetica,sans-Serif" font-size="10.00" fill="grey">#mNodesPerBoundaryElement</text>
<text text-anchor="middle" x="250" y="-767" font-family="Helvetica,sans-Serif" font-size="10.00" fill="grey">#mNodesPerElement</text>
</g>
<!-- Node8&#45;&gt;Node3 -->
<g id="edge8_Node000003_Node000008" class="edge">
<title>Node8&#45;&gt;Node3</title>
<g id="a_edge8_Node000003_Node000008"><a xlink:title=" ">
<path fill="none" stroke="#63b8ff" d="M254.52,-1189.51C388.35,-1179.74 965.7,-1136.18 993,-1110 1071.2,-1034.98 989.47,-967.87 1036,-870 1064.28,-810.53 1111.07,-754.11 1153.23,-710.63"/>
<polygon fill="none" stroke="#63b8ff" points="1153.46,-710.4 1154.81,-703.31 1161.87,-701.83 1160.52,-708.92 1153.46,-710.4"/>
</a>
</g>
<text text-anchor="middle" x="1104.5" y="-1004" font-family="Helvetica,sans-Serif" font-size="10.00" fill="grey"> #mNumBoundaryElements</text>
<text text-anchor="middle" x="1104.5" y="-993" font-family="Helvetica,sans-Serif" font-size="10.00" fill="grey">#mNumCableElements</text>
<text text-anchor="middle" x="1104.5" y="-982" font-family="Helvetica,sans-Serif" font-size="10.00" fill="grey">#mNumElements</text>
<text text-anchor="middle" x="1104.5" y="-971" font-family="Helvetica,sans-Serif" font-size="10.00" fill="grey">#mNumNodes</text>
</g>
<!-- Node10 -->
<g id="Node000010" class="node">
<title>Node10</title>
<g id="a_Node000010"><a xlink:title=" ">
<polygon fill="white" stroke="transparent" points="690.5,-1014.5 561.5,-1014.5 561.5,-965.5 690.5,-965.5 690.5,-1014.5"/>
<text text-anchor="start" x="567" y="-1002" font-family="Helvetica,sans-Serif" font-size="10.00">std::vector&lt; unsigned &gt;</text>
<text text-anchor="start" x="624.5" y="-987" font-family="Helvetica,sans-Serif" font-size="10.00"> </text>
<text text-anchor="start" x="624.5" y="-972" font-family="Helvetica,sans-Serif" font-size="10.00"> </text>
<polygon fill="#666666" stroke="#666666" points="562,-997 562,-997 691,-997 691,-997 562,-997"/>
<polygon fill="#666666" stroke="#666666" points="562,-982 562,-982 691,-982 691,-982 562,-982"/>
<polygon fill="none" stroke="#666666" points="561.5,-965.5 561.5,-1014.5 690.5,-1014.5 690.5,-965.5 561.5,-965.5"/>
</a>
</g>
</g>
<!-- Node8&#45;&gt;Node10 -->
<g id="edge11_Node000010_Node000008" class="edge">
<title>Node8&#45;&gt;Node10</title>
<g id="a_edge11_Node000010_Node000008"><a xlink:title=" ">
<path fill="none" stroke="#63b8ff" d="M254.74,-1177.56C319.4,-1145.07 481.21,-1063.76 568.32,-1019.98"/>
<polygon fill="none" stroke="#63b8ff" points="568.36,-1019.97 571.92,-1013.7 579.08,-1014.58 575.51,-1020.85 568.36,-1019.97"/>
</a>
</g>
<text text-anchor="middle" x="374" y="-1136.5" font-family="Helvetica,sans-Serif" font-size="10.00" fill="grey"> +elements</text>
</g>
<!-- Node9 -->
<g id="Node000009" class="node">
<title>Node9</title>
<g id="a_Node000009"><a xlink:href="classNodeMap.html" target="_top" xlink:title=" ">
<polygon fill="white" stroke="transparent" points="964.5,-710.5 859.5,-710.5 859.5,-541.5 964.5,-541.5 964.5,-710.5"/>
<text text-anchor="start" x="889" y="-698" font-family="Helvetica,sans-Serif" font-size="10.00">NodeMap</text>
<text text-anchor="start" x="910.5" y="-683" font-family="Helvetica,sans-Serif" font-size="10.00"> </text>
<text text-anchor="start" x="864" y="-668" font-family="Helvetica,sans-Serif" font-size="10.00">+</text>
<text text-anchor="start" x="877" y="-668" font-family="Helvetica,sans-Serif" font-size="10.00">NodeMap()</text>
<text text-anchor="start" x="864" y="-653" font-family="Helvetica,sans-Serif" font-size="10.00">+</text>
<text text-anchor="start" x="877" y="-653" font-family="Helvetica,sans-Serif" font-size="10.00">Resize()</text>
<text text-anchor="start" x="864" y="-638" font-family="Helvetica,sans-Serif" font-size="10.00">+</text>
<text text-anchor="start" x="877" y="-638" font-family="Helvetica,sans-Serif" font-size="10.00">ResetToIdentity()</text>
<text text-anchor="start" x="864" y="-623" font-family="Helvetica,sans-Serif" font-size="10.00">+</text>
<text text-anchor="start" x="877" y="-623" font-family="Helvetica,sans-Serif" font-size="10.00">SetNewIndex()</text>
<text text-anchor="start" x="864" y="-608" font-family="Helvetica,sans-Serif" font-size="10.00">+</text>
<text text-anchor="start" x="877" y="-608" font-family="Helvetica,sans-Serif" font-size="10.00">SetDeleted()</text>
<text text-anchor="start" x="864" y="-593" font-family="Helvetica,sans-Serif" font-size="10.00">+</text>
<text text-anchor="start" x="877" y="-593" font-family="Helvetica,sans-Serif" font-size="10.00">IsDeleted()</text>
<text text-anchor="start" x="864" y="-578" font-family="Helvetica,sans-Serif" font-size="10.00">+</text>
<text text-anchor="start" x="877" y="-578" font-family="Helvetica,sans-Serif" font-size="10.00">GetNewIndex()</text>
<text text-anchor="start" x="864" y="-563" font-family="Helvetica,sans-Serif" font-size="10.00">+</text>
<text text-anchor="start" x="877" y="-563" font-family="Helvetica,sans-Serif" font-size="10.00">IsIdentityMap()</text>
<text text-anchor="start" x="864" y="-548" font-family="Helvetica,sans-Serif" font-size="10.00">+</text>
<text text-anchor="start" x="877" y="-548" font-family="Helvetica,sans-Serif" font-size="10.00">GetSize()</text>
<polygon fill="#666666" stroke="#666666" points="860,-693 860,-693 965,-693 965,-693 860,-693"/>
<polygon fill="#666666" stroke="#666666" points="860,-678 860,-678 965,-678 965,-678 860,-678"/>
<polygon fill="none" stroke="#666666" points="859.5,-541.5 859.5,-710.5 964.5,-710.5 964.5,-541.5 859.5,-541.5"/>
</a>
</g>
</g>
<!-- Node9&#45;&gt;Node2 -->
<g id="edge9_Node000002_Node000009" class="edge">
<title>Node9&#45;&gt;Node2</title>
<g id="a_edge9_Node000002_Node000009"><a xlink:title=" ">
<path fill="none" stroke="#63b8ff" d="M879.15,-541.39C871.36,-528.36 862.03,-515.95 851,-506 829.58,-486.68 752.63,-476.89 730,-459 729.9,-458.92 729.81,-458.85 729.71,-458.77"/>
<polygon fill="none" stroke="#63b8ff" points="729.98,-459 722.82,-458.18 720.82,-451.25 727.99,-452.07 729.98,-459"/>
</a>
</g>
<text text-anchor="middle" x="843" y="-480" font-family="Helvetica,sans-Serif" font-size="10.00" fill="grey"> &#45;mpNodeMap</text>
</g>
<!-- Node10&#45;&gt;Node9 -->
<g id="edge10_Node000009_Node000010" class="edge">
<title>Node10&#45;&gt;Node9</title>
<g id="a_edge10_Node000009_Node000010"><a xlink:title=" ">
<path fill="none" stroke="#63b8ff" d="M652.08,-965.42C696.75,-924.11 789.05,-834.58 851,-746 856.49,-738.16 861.79,-729.75 866.82,-721.17"/>
<polygon fill="none" stroke="#63b8ff" points="866.88,-721.07 866.38,-713.87 872.82,-710.64 873.33,-717.83 866.88,-721.07"/>
</a>
</g>
<text text-anchor="middle" x="854" y="-805.5" font-family="Helvetica,sans-Serif" font-size="10.00" fill="grey"> &#45;mMap</text>
</g>
<!-- Node11 -->
<g id="Node000011" class="node">
<title>Node11</title>
<g id="a_Node000011"><a xlink:title=" ">
<polygon fill="white" stroke="transparent" points="671.5,-1217 580.5,-1217 580.5,-1168 671.5,-1168 671.5,-1217"/>
<text text-anchor="start" x="586" y="-1204.5" font-family="Helvetica,sans-Serif" font-size="10.00">std::vector&lt; T &gt;</text>
<text text-anchor="start" x="624.5" y="-1189.5" font-family="Helvetica,sans-Serif" font-size="10.00"> </text>
<text text-anchor="start" x="624.5" y="-1174.5" font-family="Helvetica,sans-Serif" font-size="10.00"> </text>
<polygon fill="#666666" stroke="#666666" points="581,-1199.5 581,-1199.5 672,-1199.5 672,-1199.5 581,-1199.5"/>
<polygon fill="#666666" stroke="#666666" points="581,-1184.5 581,-1184.5 672,-1184.5 672,-1184.5 581,-1184.5"/>
<polygon fill="none" stroke="#666666" points="580.5,-1168 580.5,-1217 671.5,-1217 671.5,-1168 580.5,-1168"/>
</a>
</g>
</g>
<!-- Node11&#45;&gt;Node10 -->
<g id="edge12_Node000010_Node000011" class="edge">
<title>Node11&#45;&gt;Node10</title>
<g id="a_edge12_Node000010_Node000011"><a xlink:title=" ">
<path fill="none" stroke="orange" d="M626,-1157.51C626,-1116.94 626,-1050.16 626,-1014.76"/>
<polygon fill="orange" stroke="orange" points="622.5,-1157.71 626,-1167.71 629.5,-1157.71 622.5,-1157.71"/>
</a>
</g>
<text text-anchor="middle" x="661" y="-1136.5" font-family="Helvetica,sans-Serif" font-size="10.00" fill="grey"> &lt; unsigned &gt;</text>
</g>
<!-- Node12 -->
<g id="Node000012" class="node">
<title>Node12</title>
<g id="a_Node000012"><a xlink:title=" ">
<polygon fill="white" stroke="transparent" points="634.5,-1318.5 617.5,-1318.5 617.5,-1269.5 634.5,-1269.5 634.5,-1318.5"/>
<text text-anchor="start" x="623" y="-1306" font-family="Helvetica,sans-Serif" font-size="10.00">T</text>
<text text-anchor="start" x="624.5" y="-1291" font-family="Helvetica,sans-Serif" font-size="10.00"> </text>
<text text-anchor="start" x="624.5" y="-1276" font-family="Helvetica,sans-Serif" font-size="10.00"> </text>
<polygon fill="#bfbfbf" stroke="#bfbfbf" points="618,-1301 618,-1301 635,-1301 635,-1301 618,-1301"/>
<polygon fill="#bfbfbf" stroke="#bfbfbf" points="618,-1286 618,-1286 635,-1286 635,-1286 618,-1286"/>
<polygon fill="none" stroke="#bfbfbf" points="617.5,-1269.5 617.5,-1318.5 634.5,-1318.5 634.5,-1269.5 617.5,-1269.5"/>
</a>
</g>
</g>
<!-- Node12&#45;&gt;Node11 -->
<g id="edge13_Node000011_Node000012" class="edge">
<title>Node12&#45;&gt;Node11</title>
<g id="a_edge13_Node000011_Node000012"><a xlink:title=" ">
<path fill="none" stroke="#63b8ff" d="M626,-1269.42C626,-1257.49 626,-1242.75 626,-1229.44"/>
<polygon fill="none" stroke="#63b8ff" points="626,-1229.26 622,-1223.26 626,-1217.26 630,-1223.26 626,-1229.26"/>
</a>
</g>
<text text-anchor="middle" x="655" y="-1238" font-family="Helvetica,sans-Serif" font-size="10.00" fill="grey"> +elements</text>
</g>
<!-- Node13 -->
<g id="Node000013" class="node">
<title>Node13</title>
<g id="a_Node000013"><a xlink:href="classbool.html" target="_top" xlink:title=" ">
<polygon fill="white" stroke="transparent" points="984,-1014.5 952,-1014.5 952,-965.5 984,-965.5 984,-1014.5"/>
<text text-anchor="start" x="957" y="-1002" font-family="Helvetica,sans-Serif" font-size="10.00">bool</text>
<text text-anchor="start" x="966" y="-987" font-family="Helvetica,sans-Serif" font-size="10.00"> </text>
<text text-anchor="start" x="966" y="-972" font-family="Helvetica,sans-Serif" font-size="10.00"> </text>
<polygon fill="#bfbfbf" stroke="#bfbfbf" points="952,-997 952,-997 984,-997 984,-997 952,-997"/>
<polygon fill="#bfbfbf" stroke="#bfbfbf" points="952,-982 952,-982 984,-982 984,-982 952,-982"/>
<polygon fill="none" stroke="#bfbfbf" points="952,-965.5 952,-1014.5 984,-1014.5 984,-965.5 952,-965.5"/>
</a>
</g>
</g>
<!-- Node13&#45;&gt;Node2 -->
<g id="edge20_Node000002_Node000013" class="edge">
<title>Node13&#45;&gt;Node2</title>
<g id="a_edge20_Node000002_Node000013"><a xlink:title=" ">
<path fill="none" stroke="#63b8ff" d="M972,-965.31C986.14,-878.41 1029.96,-578.41 974,-506 947.22,-471.34 780.2,-463.25 732.7,-455.83"/>
<polygon fill="none" stroke="#63b8ff" points="732.45,-455.77 725.67,-458.23 720.8,-452.91 727.58,-450.46 732.45,-455.77"/>
</a>
</g>
<text text-anchor="middle" x="1047.5" y="-634.5" font-family="Helvetica,sans-Serif" font-size="10.00" fill="grey"> #mFilesAreBinary</text>
<text text-anchor="middle" x="1047.5" y="-623.5" font-family="Helvetica,sans-Serif" font-size="10.00" fill="grey">#mIndexFromZero</text>
<text text-anchor="middle" x="1047.5" y="-612.5" font-family="Helvetica,sans-Serif" font-size="10.00" fill="grey">#mWriteMetaFile</text>
</g>
<!-- Node13&#45;&gt;Node9 -->
<g id="edge14_Node000009_Node000013" class="edge">
<title>Node13&#45;&gt;Node9</title>
<g id="a_edge14_Node000009_Node000013"><a xlink:title=" ">
<path fill="none" stroke="#63b8ff" d="M958.29,-965.23C947.78,-938.28 931.51,-892.78 924,-852 916.28,-810.07 912.96,-763.07 911.69,-722.91"/>
<polygon fill="none" stroke="#63b8ff" points="911.69,-722.67 907.52,-716.79 911.36,-710.68 915.52,-716.57 911.69,-722.67"/>
</a>
</g>
<text text-anchor="middle" x="955.5" y="-805.5" font-family="Helvetica,sans-Serif" font-size="10.00" fill="grey"> &#45;mIsIdentity</text>
</g>
<!-- Node14 -->
<g id="Node000014" class="node">
<title>Node14</title>
<g id="a_Node000014"><a xlink:title=" ">
<polygon fill="white" stroke="transparent" points="356.5,-656 183.5,-656 183.5,-596 356.5,-596 356.5,-656"/>
<text text-anchor="start" x="189" y="-644" font-family="Helvetica,sans-Serif" font-size="10.00">AbstractTetrahedralMesh</text>
<text text-anchor="start" x="189" y="-633" font-family="Helvetica,sans-Serif" font-size="10.00">&lt; ELEMENT_DIM, SPACE_DIM &gt; *</text>
<text text-anchor="start" x="268.5" y="-618" font-family="Helvetica,sans-Serif" font-size="10.00"> </text>
<text text-anchor="start" x="268.5" y="-603" font-family="Helvetica,sans-Serif" font-size="10.00"> </text>
<polygon fill="#bfbfbf" stroke="#bfbfbf" points="184,-628 184,-628 357,-628 357,-628 184,-628"/>
<polygon fill="#bfbfbf" stroke="#bfbfbf" points="184,-613 184,-613 357,-613 357,-613 184,-613"/>
<polygon fill="none" stroke="#bfbfbf" points="183.5,-596 183.5,-656 356.5,-656 356.5,-596 183.5,-596"/>
</a>
</g>
</g>
<!-- Node14&#45;&gt;Node2 -->
<g id="edge16_Node000002_Node000014" class="edge">
<title>Node14&#45;&gt;Node2</title>
<g id="a_edge16_Node000002_Node000014"><a xlink:title=" ">
<path fill="none" stroke="#63b8ff" d="M289.9,-595.77C307.89,-570.49 335.93,-533.74 365,-506 415.09,-458.2 477.55,-412.39 529.25,-377.52"/>
<polygon fill="none" stroke="#63b8ff" points="529.47,-377.37 532.22,-370.71 539.44,-370.69 536.68,-377.36 529.47,-377.37"/>
</a>
</g>
<text text-anchor="middle" x="419" y="-480" font-family="Helvetica,sans-Serif" font-size="10.00" fill="grey"> #mpMesh</text>
</g>
<!-- Node15 -->
<g id="Node000015" class="node">
<title>Node15</title>
<g id="a_Node000015"><a xlink:title=" ">
<polygon fill="white" stroke="transparent" points="547.5,-656 374.5,-656 374.5,-596 547.5,-596 547.5,-656"/>
<text text-anchor="start" x="380" y="-644" font-family="Helvetica,sans-Serif" font-size="10.00">DistributedTetrahedralMesh</text>
<text text-anchor="start" x="380" y="-633" font-family="Helvetica,sans-Serif" font-size="10.00">&lt; ELEMENT_DIM, SPACE_DIM &gt; *</text>
<text text-anchor="start" x="459.5" y="-618" font-family="Helvetica,sans-Serif" font-size="10.00"> </text>
<text text-anchor="start" x="459.5" y="-603" font-family="Helvetica,sans-Serif" font-size="10.00"> </text>
<polygon fill="#bfbfbf" stroke="#bfbfbf" points="375,-628 375,-628 548,-628 548,-628 375,-628"/>
<polygon fill="#bfbfbf" stroke="#bfbfbf" points="375,-613 375,-613 548,-613 548,-613 375,-613"/>
<polygon fill="none" stroke="#bfbfbf" points="374.5,-596 374.5,-656 547.5,-656 547.5,-596 374.5,-596"/>
</a>
</g>
</g>
<!-- Node15&#45;&gt;Node2 -->
<g id="edge17_Node000002_Node000015" class="edge">
<title>Node15&#45;&gt;Node2</title>
<g id="a_edge17_Node000002_Node000015"><a xlink:title=" ">
<path fill="none" stroke="#63b8ff" d="M470,-595.75C479.91,-565.25 497.21,-516.46 518,-477 522.66,-468.16 527.7,-459.22 532.99,-450.32"/>
<polygon fill="none" stroke="#63b8ff" points="533.09,-450.16 532.77,-442.96 539.3,-439.9 539.61,-447.1 533.09,-450.16"/>
</a>
</g>
<text text-anchor="middle" x="572" y="-480" font-family="Helvetica,sans-Serif" font-size="10.00" fill="grey"> #mpDistributedMesh</text>
</g>
<!-- Node16 -->
<g id="Node000016" class="node">
<title>Node16</title>
<g id="a_Node000016"><a xlink:title=" ">
<polygon fill="white" stroke="transparent" points="694.5,-661.5 565.5,-661.5 565.5,-590.5 694.5,-590.5 694.5,-661.5"/>
<text text-anchor="start" x="571" y="-649" font-family="Helvetica,sans-Serif" font-size="10.00">MixedDimensionMesh</text>
<text text-anchor="start" x="571" y="-638" font-family="Helvetica,sans-Serif" font-size="10.00">&lt; ELEMENT_DIM, SPACE</text>
<text text-anchor="start" x="608" y="-627" font-family="Helvetica,sans-Serif" font-size="10.00">_DIM &gt; *</text>
<text text-anchor="start" x="628.5" y="-612" font-family="Helvetica,sans-Serif" font-size="10.00"> </text>
<text text-anchor="start" x="628.5" y="-597" font-family="Helvetica,sans-Serif" font-size="10.00"> </text>
<polygon fill="#bfbfbf" stroke="#bfbfbf" points="566,-622 566,-622 695,-622 695,-622 566,-622"/>
<polygon fill="#bfbfbf" stroke="#bfbfbf" points="566,-607 566,-607 695,-607 695,-607 566,-607"/>
<polygon fill="none" stroke="#bfbfbf" points="565.5,-590.5 565.5,-661.5 694.5,-661.5 694.5,-590.5 565.5,-590.5"/>
</a>
</g>
</g>
<!-- Node16&#45;&gt;Node2 -->
<g id="edge18_Node000002_Node000016" class="edge">
<title>Node16&#45;&gt;Node2</title>
<g id="a_edge18_Node000002_Node000016"><a xlink:title=" ">
<path fill="none" stroke="#63b8ff" d="M630,-590.23C630,-560.69 630,-516.06 630,-471.24"/>
<polygon fill="none" stroke="#63b8ff" points="630,-471.23 626,-465.23 630,-459.23 634,-465.23 630,-471.23"/>
</a>
</g>
<text text-anchor="middle" x="671.5" y="-480" font-family="Helvetica,sans-Serif" font-size="10.00" fill="grey"> #mpMixedMesh</text>
</g>
<!-- Node17 -->
<g id="Node000017" class="node">
<title>Node17</title>
<g id="a_Node000017"><a xlink:title=" ">
<polygon fill="white" stroke="transparent" points="841.5,-661.5 712.5,-661.5 712.5,-590.5 841.5,-590.5 841.5,-661.5"/>
<text text-anchor="start" x="718" y="-649" font-family="Helvetica,sans-Serif" font-size="10.00">MeshWriterIterators</text>
<text text-anchor="start" x="718" y="-638" font-family="Helvetica,sans-Serif" font-size="10.00">&lt; ELEMENT_DIM, SPACE</text>
<text text-anchor="start" x="755" y="-627" font-family="Helvetica,sans-Serif" font-size="10.00">_DIM &gt; *</text>
<text text-anchor="start" x="775.5" y="-612" font-family="Helvetica,sans-Serif" font-size="10.00"> </text>
<text text-anchor="start" x="775.5" y="-597" font-family="Helvetica,sans-Serif" font-size="10.00"> </text>
<polygon fill="#bfbfbf" stroke="#bfbfbf" points="713,-622 713,-622 842,-622 842,-622 713,-622"/>
<polygon fill="#bfbfbf" stroke="#bfbfbf" points="713,-607 713,-607 842,-607 842,-607 713,-607"/>
<polygon fill="none" stroke="#bfbfbf" points="712.5,-590.5 712.5,-661.5 841.5,-661.5 841.5,-590.5 712.5,-590.5"/>
</a>
</g>
</g>
<!-- Node17&#45;&gt;Node2 -->
<g id="edge19_Node000002_Node000017" class="edge">
<title>Node17&#45;&gt;Node2</title>
<g id="a_edge19_Node000002_Node000017"><a xlink:title=" ">
<path fill="none" stroke="#63b8ff" d="M764.18,-590.47C752.67,-560.19 734.86,-515.17 717,-477 715.98,-474.82 714.95,-472.63 713.9,-470.43"/>
<polygon fill="none" stroke="#63b8ff" points="713.77,-470.16 707.56,-466.5 708.56,-459.36 714.77,-463.02 713.77,-470.16"/>
</a>
</g>
<text text-anchor="middle" x="744.5" y="-480" font-family="Helvetica,sans-Serif" font-size="10.00" fill="grey"> #mpIters</text>
</g>
<!-- Node18 -->
<g id="Node000018" class="node">
<title>Node18</title>
<g id="a_Node000018"><a xlink:href="classdouble.html" target="_top" xlink:title=" ">
<polygon fill="white" stroke="transparent" points="783,-337.5 739,-337.5 739,-288.5 783,-288.5 783,-337.5"/>
<text text-anchor="start" x="744" y="-325" font-family="Helvetica,sans-Serif" font-size="10.00">double</text>
<text text-anchor="start" x="759" y="-310" font-family="Helvetica,sans-Serif" font-size="10.00"> </text>
<text text-anchor="start" x="759" y="-295" font-family="Helvetica,sans-Serif" font-size="10.00"> </text>
<polygon fill="#bfbfbf" stroke="#bfbfbf" points="739,-320 739,-320 783,-320 783,-320 739,-320"/>
<polygon fill="#bfbfbf" stroke="#bfbfbf" points="739,-305 739,-305 783,-305 783,-305 739,-305"/>
<polygon fill="none" stroke="#bfbfbf" points="739,-288.5 739,-337.5 783,-337.5 783,-288.5 739,-288.5"/>
</a>
</g>
</g>
<!-- Node18&#45;&gt;Node1 -->
<g id="edge22_Node000001_Node000018" class="edge">
<title>Node18&#45;&gt;Node1</title>
<g id="a_edge22_Node000001_Node000018"><a xlink:title=" ">
<path fill="none" stroke="#63b8ff" d="M759.85,-288.33C757.54,-258.48 750.64,-206.32 730,-167 723.09,-153.83 714.08,-141.12 704.29,-129.35"/>
<polygon fill="none" stroke="#63b8ff" points="704.16,-129.2 697.21,-127.28 696.31,-120.13 703.26,-122.05 704.16,-129.2"/>
</a>
</g>
<text text-anchor="middle" x="751" y="-141" font-family="Helvetica,sans-Serif" font-size="10.00" fill="grey"> #mTimeStep</text>
</g>
</g>
</svg>
