<?xml version="1.0" encoding="UTF-8" standalone="no"?>
<!DOCTYPE svg PUBLIC "-//W3C//DTD SVG 1.1//EN"
 "http://www.w3.org/Graphics/SVG/1.1/DTD/svg11.dtd">
<!-- Generated by graphviz version 2.43.0 (0)
 -->
<!-- Title: ImmersedBoundaryLinearMembraneForce&lt; DIM &gt; Pages: 1 -->
<svg width="216pt" height="802pt"
 viewBox="0.00 0.00 216.00 802.00" xmlns="http://www.w3.org/2000/svg" xmlns:xlink="http://www.w3.org/1999/xlink">
<g id="graph0" class="graph" transform="scale(1 1) rotate(0) translate(4 798)">
<title>ImmersedBoundaryLinearMembraneForce&lt; DIM &gt;</title>
<!-- Node1 -->
<g id="Node000001" class="node">
<title>Node1</title>
<g id="a_Node000001"><a xlink:title=" ">
<polygon fill="#999999" stroke="transparent" points="208,-344 0,-344 0,0 208,0 208,-344"/>
<text text-anchor="start" x="14.5" y="-332" font-family="Helvetica,sans-Serif" font-size="10.00">ImmersedBoundaryLinearMembrane</text>
<text text-anchor="start" x="69.5" y="-321" font-family="Helvetica,sans-Serif" font-size="10.00">Force&lt; DIM &gt;</text>
<text text-anchor="start" x="6.5" y="-306" font-family="Helvetica,sans-Serif" font-size="10.00">&#45;</text>
<text text-anchor="start" x="17" y="-306" font-family="Helvetica,sans-Serif" font-size="10.00">mElementSpringConst</text>
<text text-anchor="start" x="6.5" y="-291" font-family="Helvetica,sans-Serif" font-size="10.00">&#45;</text>
<text text-anchor="start" x="17" y="-291" font-family="Helvetica,sans-Serif" font-size="10.00">mElementRestLength</text>
<text text-anchor="start" x="6.5" y="-276" font-family="Helvetica,sans-Serif" font-size="10.00">&#45;</text>
<text text-anchor="start" x="17" y="-276" font-family="Helvetica,sans-Serif" font-size="10.00">mLaminaSpringConst</text>
<text text-anchor="start" x="6.5" y="-261" font-family="Helvetica,sans-Serif" font-size="10.00">&#45;</text>
<text text-anchor="start" x="17" y="-261" font-family="Helvetica,sans-Serif" font-size="10.00">mLaminaRestLength</text>
<text text-anchor="start" x="4" y="-246" font-family="Helvetica,sans-Serif" font-size="10.00">+</text>
<text text-anchor="start" x="17" y="-246" font-family="Helvetica,sans-Serif" font-size="10.00">ImmersedBoundaryLinearMembrane</text>
<text text-anchor="start" x="17" y="-235" font-family="Helvetica,sans-Serif" font-size="10.00">Force()</text>
<text text-anchor="start" x="4" y="-220" font-family="Helvetica,sans-Serif" font-size="10.00">+</text>
<text text-anchor="start" x="17" y="-220" font-family="Helvetica,sans-Serif" font-size="10.00">~ImmersedBoundaryLinearMembrane</text>
<text text-anchor="start" x="17" y="-209" font-family="Helvetica,sans-Serif" font-size="10.00">Force()</text>
<text text-anchor="start" x="4" y="-194" font-family="Helvetica,sans-Serif" font-size="10.00">+</text>
<text text-anchor="start" x="17" y="-194" font-family="Helvetica,sans-Serif" font-size="10.00">AddImmersedBoundaryForce</text>
<text text-anchor="start" x="17" y="-183" font-family="Helvetica,sans-Serif" font-size="10.00">Contribution()</text>
<text text-anchor="start" x="4" y="-168" font-family="Helvetica,sans-Serif" font-size="10.00">+</text>
<text text-anchor="start" x="17" y="-168" font-family="Helvetica,sans-Serif" font-size="10.00">OutputImmersedBoundaryForce</text>
<text text-anchor="start" x="17" y="-157" font-family="Helvetica,sans-Serif" font-size="10.00">Parameters()</text>
<text text-anchor="start" x="4" y="-142" font-family="Helvetica,sans-Serif" font-size="10.00">+</text>
<text text-anchor="start" x="17" y="-142" font-family="Helvetica,sans-Serif" font-size="10.00">GetElementSpringConst()</text>
<text text-anchor="start" x="4" y="-127" font-family="Helvetica,sans-Serif" font-size="10.00">+</text>
<text text-anchor="start" x="17" y="-127" font-family="Helvetica,sans-Serif" font-size="10.00">SetElementSpringConst()</text>
<text text-anchor="start" x="4" y="-112" font-family="Helvetica,sans-Serif" font-size="10.00">+</text>
<text text-anchor="start" x="17" y="-112" font-family="Helvetica,sans-Serif" font-size="10.00">GetElementRestLength()</text>
<text text-anchor="start" x="4" y="-97" font-family="Helvetica,sans-Serif" font-size="10.00">+</text>
<text text-anchor="start" x="17" y="-97" font-family="Helvetica,sans-Serif" font-size="10.00">SetElementRestLength()</text>
<text text-anchor="start" x="4" y="-82" font-family="Helvetica,sans-Serif" font-size="10.00">+</text>
<text text-anchor="start" x="17" y="-82" font-family="Helvetica,sans-Serif" font-size="10.00">GetLaminaSpringConst()</text>
<text text-anchor="start" x="4" y="-67" font-family="Helvetica,sans-Serif" font-size="10.00">+</text>
<text text-anchor="start" x="17" y="-67" font-family="Helvetica,sans-Serif" font-size="10.00">SetLaminaSpringConst()</text>
<text text-anchor="start" x="4" y="-52" font-family="Helvetica,sans-Serif" font-size="10.00">+</text>
<text text-anchor="start" x="17" y="-52" font-family="Helvetica,sans-Serif" font-size="10.00">GetLaminaRestLength()</text>
<text text-anchor="start" x="4" y="-37" font-family="Helvetica,sans-Serif" font-size="10.00">+</text>
<text text-anchor="start" x="17" y="-37" font-family="Helvetica,sans-Serif" font-size="10.00">SetLaminaRestLength()</text>
<text text-anchor="start" x="6.5" y="-22" font-family="Helvetica,sans-Serif" font-size="10.00">&#45;</text>
<text text-anchor="start" x="17" y="-22" font-family="Helvetica,sans-Serif" font-size="10.00">serialize()</text>
<text text-anchor="start" x="6.5" y="-7" font-family="Helvetica,sans-Serif" font-size="10.00">&#45;</text>
<text text-anchor="start" x="17" y="-7" font-family="Helvetica,sans-Serif" font-size="10.00">CalculateForcesOnElement()</text>
<polygon fill="#666666" stroke="#666666" points="0,-316 0,-316 208,-316 208,-316 0,-316"/>
<polygon fill="#666666" stroke="#666666" points="0,-256 0,-256 15,-256 15,-256 0,-256"/>
<polygon fill="#666666" stroke="#666666" points="15,-256 15,-256 208,-256 208,-256 15,-256"/>
<polygon fill="none" stroke="#666666" points="0,0 0,-344 208,-344 208,0 0,0"/>
</a>
</g>
</g>
<!-- Node2 -->
<g id="Node000002" class="node">
<title>Node2</title>
<g id="a_Node000002"><a xlink:href="classAbstractImmersedBoundaryForce.html" target="_top" xlink:title=" ">
<polygon fill="white" stroke="transparent" points="192.5,-679 15.5,-679 15.5,-380 192.5,-380 192.5,-679"/>
<text text-anchor="start" x="36" y="-666.5" font-family="Helvetica,sans-Serif" font-size="10.00">AbstractImmersedBoundary</text>
<text text-anchor="start" x="70" y="-655.5" font-family="Helvetica,sans-Serif" font-size="10.00">Force&lt; DIM &gt;</text>
<text text-anchor="start" x="20" y="-640.5" font-family="Helvetica,sans-Serif" font-size="10.00">#</text>
<text text-anchor="start" x="33" y="-640.5" font-family="Helvetica,sans-Serif" font-size="10.00">mAdditiveNormalNoise</text>
<text text-anchor="start" x="20" y="-625.5" font-family="Helvetica,sans-Serif" font-size="10.00">#</text>
<text text-anchor="start" x="33" y="-625.5" font-family="Helvetica,sans-Serif" font-size="10.00">mNormalNoiseMean</text>
<text text-anchor="start" x="20" y="-610.5" font-family="Helvetica,sans-Serif" font-size="10.00">#</text>
<text text-anchor="start" x="33" y="-610.5" font-family="Helvetica,sans-Serif" font-size="10.00">mNormalNoiseStdDev</text>
<text text-anchor="start" x="20" y="-595.5" font-family="Helvetica,sans-Serif" font-size="10.00">+</text>
<text text-anchor="start" x="33" y="-595.5" font-family="Helvetica,sans-Serif" font-size="10.00">AbstractImmersedBoundary</text>
<text text-anchor="start" x="33" y="-584.5" font-family="Helvetica,sans-Serif" font-size="10.00">Force()</text>
<text text-anchor="start" x="20" y="-569.5" font-family="Helvetica,sans-Serif" font-size="10.00">+</text>
<text text-anchor="start" x="33" y="-569.5" font-family="Helvetica,sans-Serif" font-size="10.00">~AbstractImmersedBoundary</text>
<text text-anchor="start" x="33" y="-558.5" font-family="Helvetica,sans-Serif" font-size="10.00">Force()</text>
<text text-anchor="start" x="20" y="-543.5" font-family="Helvetica,sans-Serif" font-size="10.00">+</text>
<text text-anchor="start" x="33" y="-543.5" font-family="Helvetica,sans-Serif" font-size="10.00">AddImmersedBoundaryForce</text>
<text text-anchor="start" x="33" y="-532.5" font-family="Helvetica,sans-Serif" font-size="10.00">Contribution()</text>
<text text-anchor="start" x="20" y="-517.5" font-family="Helvetica,sans-Serif" font-size="10.00">+</text>
<text text-anchor="start" x="33" y="-517.5" font-family="Helvetica,sans-Serif" font-size="10.00">OutputImmersedBoundaryForce</text>
<text text-anchor="start" x="33" y="-506.5" font-family="Helvetica,sans-Serif" font-size="10.00">Parameters()</text>
<text text-anchor="start" x="20" y="-491.5" font-family="Helvetica,sans-Serif" font-size="10.00">+</text>
<text text-anchor="start" x="33" y="-491.5" font-family="Helvetica,sans-Serif" font-size="10.00">GetAdditiveNormalNoise()</text>
<text text-anchor="start" x="20" y="-476.5" font-family="Helvetica,sans-Serif" font-size="10.00">+</text>
<text text-anchor="start" x="33" y="-476.5" font-family="Helvetica,sans-Serif" font-size="10.00">SetAdditiveNormalNoise()</text>
<text text-anchor="start" x="20" y="-461.5" font-family="Helvetica,sans-Serif" font-size="10.00">+</text>
<text text-anchor="start" x="33" y="-461.5" font-family="Helvetica,sans-Serif" font-size="10.00">GetNormalNoiseMean()</text>
<text text-anchor="start" x="20" y="-446.5" font-family="Helvetica,sans-Serif" font-size="10.00">+</text>
<text text-anchor="start" x="33" y="-446.5" font-family="Helvetica,sans-Serif" font-size="10.00">SetNormalNoiseMean()</text>
<text text-anchor="start" x="20" y="-431.5" font-family="Helvetica,sans-Serif" font-size="10.00">+</text>
<text text-anchor="start" x="33" y="-431.5" font-family="Helvetica,sans-Serif" font-size="10.00">GetNormalNoiseStdDev()</text>
<text text-anchor="start" x="20" y="-416.5" font-family="Helvetica,sans-Serif" font-size="10.00">+</text>
<text text-anchor="start" x="33" y="-416.5" font-family="Helvetica,sans-Serif" font-size="10.00">SetNormalNoiseStdDev()</text>
<text text-anchor="start" x="20" y="-401.5" font-family="Helvetica,sans-Serif" font-size="10.00">#</text>
<text text-anchor="start" x="33" y="-401.5" font-family="Helvetica,sans-Serif" font-size="10.00">AddNormalNoiseToNodes()</text>
<text text-anchor="start" x="22.5" y="-386.5" font-family="Helvetica,sans-Serif" font-size="10.00">&#45;</text>
<text text-anchor="start" x="33" y="-386.5" font-family="Helvetica,sans-Serif" font-size="10.00">serialize()</text>
<polygon fill="#666666" stroke="#666666" points="16,-650.5 16,-650.5 193,-650.5 193,-650.5 16,-650.5"/>
<polygon fill="#666666" stroke="#666666" points="16,-605.5 16,-605.5 31,-605.5 31,-605.5 16,-605.5"/>
<polygon fill="#666666" stroke="#666666" points="31,-605.5 31,-605.5 193,-605.5 193,-605.5 31,-605.5"/>
<polygon fill="none" stroke="#666666" points="15.5,-380 15.5,-679 192.5,-679 192.5,-380 15.5,-380"/>
</a>
</g>
</g>
<!-- Node2&#45;&gt;Node1 -->
<g id="edge1_Node000001_Node000002" class="edge">
<title>Node2&#45;&gt;Node1</title>
<g id="a_edge1_Node000001_Node000002"><a xlink:title=" ">
<path fill="none" stroke="#63b8ff" d="M104,-369.53C104,-361.08 104,-352.58 104,-344.1"/>
<polygon fill="none" stroke="#63b8ff" points="100.5,-369.8 104,-379.8 107.5,-369.8 100.5,-369.8"/>
</a>
</g>
</g>
<!-- Node3 -->
<g id="Node000003" class="node">
<title>Node3</title>
<g id="a_Node000003"><a xlink:href="classIdentifiable.html" target="_top" xlink:title=" ">
<polygon fill="white" stroke="transparent" points="192,-794 16,-794 16,-715 192,-715 192,-794"/>
<text text-anchor="start" x="76.5" y="-781.5" font-family="Helvetica,sans-Serif" font-size="10.00">Identifiable</text>
<text text-anchor="start" x="102" y="-766.5" font-family="Helvetica,sans-Serif" font-size="10.00"> </text>
<text text-anchor="start" x="20" y="-751.5" font-family="Helvetica,sans-Serif" font-size="10.00">+</text>
<text text-anchor="start" x="33" y="-751.5" font-family="Helvetica,sans-Serif" font-size="10.00">~Identifiable()</text>
<text text-anchor="start" x="20" y="-736.5" font-family="Helvetica,sans-Serif" font-size="10.00">+</text>
<text text-anchor="start" x="33" y="-736.5" font-family="Helvetica,sans-Serif" font-size="10.00">GetIdentifier()</text>
<text text-anchor="start" x="22.5" y="-721.5" font-family="Helvetica,sans-Serif" font-size="10.00">&#45;</text>
<text text-anchor="start" x="33" y="-721.5" font-family="Helvetica,sans-Serif" font-size="10.00">TidyTemplatedExportIdentifier()</text>
<polygon fill="#666666" stroke="#666666" points="16,-776.5 16,-776.5 192,-776.5 192,-776.5 16,-776.5"/>
<polygon fill="#666666" stroke="#666666" points="16,-761.5 16,-761.5 192,-761.5 192,-761.5 16,-761.5"/>
<polygon fill="none" stroke="#666666" points="16,-715 16,-794 192,-794 192,-715 16,-715"/>
</a>
</g>
</g>
<!-- Node3&#45;&gt;Node2 -->
<g id="edge2_Node000002_Node000003" class="edge">
<title>Node3&#45;&gt;Node2</title>
<g id="a_edge2_Node000002_Node000003"><a xlink:title=" ">
<path fill="none" stroke="#63b8ff" d="M104,-704.81C104,-696.83 104,-688.22 104,-679.24"/>
<polygon fill="none" stroke="#63b8ff" points="100.5,-704.91 104,-714.91 107.5,-704.91 100.5,-704.91"/>
</a>
</g>
</g>
</g>
</svg>
