<?xml version="1.0" encoding="UTF-8" standalone="no"?>
<!DOCTYPE svg PUBLIC "-//W3C//DTD SVG 1.1//EN"
 "http://www.w3.org/Graphics/SVG/1.1/DTD/svg11.dtd">
<!-- Generated by graphviz version 2.43.0 (0)
 -->
<!-- Title: Element&lt; ELEMENT_DIM, SPACE_DIM &gt; Pages: 1 -->
<svg width="471pt" height="1115pt"
 viewBox="0.00 0.00 471.00 1115.00" xmlns="http://www.w3.org/2000/svg" xmlns:xlink="http://www.w3.org/1999/xlink">
<g id="graph0" class="graph" transform="scale(1 1) rotate(0) translate(4 1111)">
<title>Element&lt; ELEMENT_DIM, SPACE_DIM &gt;</title>
<!-- Node1 -->
<g id="Node000001" class="node">
<title>Node1</title>
<g id="a_Node000001"><a xlink:title=" ">
<polygon fill="#999999" stroke="transparent" points="325.5,-266 146.5,-266 146.5,0 325.5,0 325.5,-266"/>
<text text-anchor="start" x="173.5" y="-254" font-family="Helvetica,sans-Serif" font-size="10.00">Element&lt; ELEMENT_DIM,</text>
<text text-anchor="start" x="201.5" y="-243" font-family="Helvetica,sans-Serif" font-size="10.00"> SPACE_DIM &gt;</text>
<text text-anchor="start" x="234.5" y="-228" font-family="Helvetica,sans-Serif" font-size="10.00"> </text>
<text text-anchor="start" x="151" y="-213" font-family="Helvetica,sans-Serif" font-size="10.00">+</text>
<text text-anchor="start" x="164" y="-213" font-family="Helvetica,sans-Serif" font-size="10.00">Element()</text>
<text text-anchor="start" x="151" y="-198" font-family="Helvetica,sans-Serif" font-size="10.00">+</text>
<text text-anchor="start" x="164" y="-198" font-family="Helvetica,sans-Serif" font-size="10.00">Element()</text>
<text text-anchor="start" x="151" y="-183" font-family="Helvetica,sans-Serif" font-size="10.00">+</text>
<text text-anchor="start" x="164" y="-183" font-family="Helvetica,sans-Serif" font-size="10.00">RegisterWithNodes()</text>
<text text-anchor="start" x="151" y="-168" font-family="Helvetica,sans-Serif" font-size="10.00">+</text>
<text text-anchor="start" x="164" y="-168" font-family="Helvetica,sans-Serif" font-size="10.00">MarkAsDeleted()</text>
<text text-anchor="start" x="151" y="-153" font-family="Helvetica,sans-Serif" font-size="10.00">+</text>
<text text-anchor="start" x="164" y="-153" font-family="Helvetica,sans-Serif" font-size="10.00">UpdateNode()</text>
<text text-anchor="start" x="151" y="-138" font-family="Helvetica,sans-Serif" font-size="10.00">+</text>
<text text-anchor="start" x="164" y="-138" font-family="Helvetica,sans-Serif" font-size="10.00">ResetIndex()</text>
<text text-anchor="start" x="151" y="-123" font-family="Helvetica,sans-Serif" font-size="10.00">+</text>
<text text-anchor="start" x="164" y="-123" font-family="Helvetica,sans-Serif" font-size="10.00">CalculateCircumsphere()</text>
<text text-anchor="start" x="151" y="-108" font-family="Helvetica,sans-Serif" font-size="10.00">+</text>
<text text-anchor="start" x="164" y="-108" font-family="Helvetica,sans-Serif" font-size="10.00">CalculateCircumsphereVolume()</text>
<text text-anchor="start" x="151" y="-93" font-family="Helvetica,sans-Serif" font-size="10.00">+</text>
<text text-anchor="start" x="164" y="-93" font-family="Helvetica,sans-Serif" font-size="10.00">CalculateQuality()</text>
<text text-anchor="start" x="151" y="-78" font-family="Helvetica,sans-Serif" font-size="10.00">+</text>
<text text-anchor="start" x="164" y="-78" font-family="Helvetica,sans-Serif" font-size="10.00">CalculateMinMaxEdgeLengths()</text>
<text text-anchor="start" x="151" y="-63" font-family="Helvetica,sans-Serif" font-size="10.00">+</text>
<text text-anchor="start" x="164" y="-63" font-family="Helvetica,sans-Serif" font-size="10.00">CalculateInterpolationWeights()</text>
<text text-anchor="start" x="151" y="-48" font-family="Helvetica,sans-Serif" font-size="10.00">+</text>
<text text-anchor="start" x="164" y="-48" font-family="Helvetica,sans-Serif" font-size="10.00">CalculateInterpolationWeights</text>
<text text-anchor="start" x="164" y="-37" font-family="Helvetica,sans-Serif" font-size="10.00">WithProjection()</text>
<text text-anchor="start" x="151" y="-22" font-family="Helvetica,sans-Serif" font-size="10.00">+</text>
<text text-anchor="start" x="164" y="-22" font-family="Helvetica,sans-Serif" font-size="10.00">CalculateXi()</text>
<text text-anchor="start" x="151" y="-7" font-family="Helvetica,sans-Serif" font-size="10.00">+</text>
<text text-anchor="start" x="164" y="-7" font-family="Helvetica,sans-Serif" font-size="10.00">IncludesPoint()</text>
<polygon fill="#666666" stroke="#666666" points="147,-238 147,-238 326,-238 326,-238 147,-238"/>
<polygon fill="#666666" stroke="#666666" points="147,-223 147,-223 326,-223 326,-223 147,-223"/>
<polygon fill="none" stroke="#666666" points="146.5,0 146.5,-266 325.5,-266 325.5,0 146.5,0"/>
</a>
</g>
</g>
<!-- Node2 -->
<g id="Node000002" class="node">
<title>Node2</title>
<g id="a_Node000002"><a xlink:href="classAbstractTetrahedralElement.html" target="_top" xlink:title=" ">
<polygon fill="white" stroke="transparent" points="322.5,-524 149.5,-524 149.5,-303 322.5,-303 322.5,-524"/>
<text text-anchor="start" x="159" y="-511.5" font-family="Helvetica,sans-Serif" font-size="10.00">AbstractTetrahedralElement</text>
<text text-anchor="start" x="159" y="-500.5" font-family="Helvetica,sans-Serif" font-size="10.00">&lt; ELEMENT_DIM, SPACE_DIM &gt;</text>
<text text-anchor="start" x="234.5" y="-485.5" font-family="Helvetica,sans-Serif" font-size="10.00"> </text>
<text text-anchor="start" x="154" y="-470.5" font-family="Helvetica,sans-Serif" font-size="10.00">+</text>
<text text-anchor="start" x="167" y="-470.5" font-family="Helvetica,sans-Serif" font-size="10.00">AbstractTetrahedralElement()</text>
<text text-anchor="start" x="154" y="-455.5" font-family="Helvetica,sans-Serif" font-size="10.00">+</text>
<text text-anchor="start" x="167" y="-455.5" font-family="Helvetica,sans-Serif" font-size="10.00">AbstractTetrahedralElement()</text>
<text text-anchor="start" x="154" y="-440.5" font-family="Helvetica,sans-Serif" font-size="10.00">+</text>
<text text-anchor="start" x="167" y="-440.5" font-family="Helvetica,sans-Serif" font-size="10.00">~AbstractTetrahedralElement()</text>
<text text-anchor="start" x="154" y="-425.5" font-family="Helvetica,sans-Serif" font-size="10.00">+</text>
<text text-anchor="start" x="167" y="-425.5" font-family="Helvetica,sans-Serif" font-size="10.00">CalculateCentroid()</text>
<text text-anchor="start" x="154" y="-410.5" font-family="Helvetica,sans-Serif" font-size="10.00">+</text>
<text text-anchor="start" x="167" y="-410.5" font-family="Helvetica,sans-Serif" font-size="10.00">CalculateJacobian()</text>
<text text-anchor="start" x="154" y="-395.5" font-family="Helvetica,sans-Serif" font-size="10.00">+</text>
<text text-anchor="start" x="167" y="-395.5" font-family="Helvetica,sans-Serif" font-size="10.00">CalculateWeightedDirection()</text>
<text text-anchor="start" x="154" y="-380.5" font-family="Helvetica,sans-Serif" font-size="10.00">+</text>
<text text-anchor="start" x="167" y="-380.5" font-family="Helvetica,sans-Serif" font-size="10.00">CalculateNormal()</text>
<text text-anchor="start" x="154" y="-365.5" font-family="Helvetica,sans-Serif" font-size="10.00">+</text>
<text text-anchor="start" x="167" y="-365.5" font-family="Helvetica,sans-Serif" font-size="10.00">CalculateInverseJacobian()</text>
<text text-anchor="start" x="154" y="-350.5" font-family="Helvetica,sans-Serif" font-size="10.00">+</text>
<text text-anchor="start" x="167" y="-350.5" font-family="Helvetica,sans-Serif" font-size="10.00">GetVolume()</text>
<text text-anchor="start" x="154" y="-335.5" font-family="Helvetica,sans-Serif" font-size="10.00">+</text>
<text text-anchor="start" x="167" y="-335.5" font-family="Helvetica,sans-Serif" font-size="10.00">GetStiffnessMatrixGlobal</text>
<text text-anchor="start" x="167" y="-324.5" font-family="Helvetica,sans-Serif" font-size="10.00">Indices()</text>
<text text-anchor="start" x="154" y="-309.5" font-family="Helvetica,sans-Serif" font-size="10.00">#</text>
<text text-anchor="start" x="167" y="-309.5" font-family="Helvetica,sans-Serif" font-size="10.00">RefreshJacobian()</text>
<polygon fill="#666666" stroke="#666666" points="150,-495.5 150,-495.5 323,-495.5 323,-495.5 150,-495.5"/>
<polygon fill="#666666" stroke="#666666" points="150,-480.5 150,-480.5 323,-480.5 323,-480.5 150,-480.5"/>
<polygon fill="none" stroke="#666666" points="149.5,-303 149.5,-524 322.5,-524 322.5,-303 149.5,-303"/>
</a>
</g>
</g>
<!-- Node2&#45;&gt;Node1 -->
<g id="edge1_Node000001_Node000002" class="edge">
<title>Node2&#45;&gt;Node1</title>
<g id="a_edge1_Node000001_Node000002"><a xlink:title=" ">
<path fill="none" stroke="#63b8ff" d="M236,-292.62C236,-283.87 236,-275.02 236,-266.21"/>
<polygon fill="none" stroke="#63b8ff" points="232.5,-292.83 236,-302.83 239.5,-292.83 232.5,-292.83"/>
</a>
</g>
</g>
<!-- Node3 -->
<g id="Node000003" class="node">
<title>Node3</title>
<g id="a_Node000003"><a xlink:href="classAbstractElement.html" target="_top" xlink:title=" ">
<polygon fill="white" stroke="transparent" points="318,-786 154,-786 154,-561 318,-561 318,-786"/>
<text text-anchor="start" x="166.5" y="-773.5" font-family="Helvetica,sans-Serif" font-size="10.00">AbstractElement&lt; ELEMENT</text>
<text text-anchor="start" x="187" y="-762.5" font-family="Helvetica,sans-Serif" font-size="10.00">_DIM, SPACE_DIM &gt;</text>
<text text-anchor="start" x="234" y="-747.5" font-family="Helvetica,sans-Serif" font-size="10.00"> </text>
<text text-anchor="start" x="158" y="-732.5" font-family="Helvetica,sans-Serif" font-size="10.00">+</text>
<text text-anchor="start" x="171" y="-732.5" font-family="Helvetica,sans-Serif" font-size="10.00">AbstractElement()</text>
<text text-anchor="start" x="158" y="-717.5" font-family="Helvetica,sans-Serif" font-size="10.00">+</text>
<text text-anchor="start" x="171" y="-717.5" font-family="Helvetica,sans-Serif" font-size="10.00">AbstractElement()</text>
<text text-anchor="start" x="158" y="-702.5" font-family="Helvetica,sans-Serif" font-size="10.00">+</text>
<text text-anchor="start" x="171" y="-702.5" font-family="Helvetica,sans-Serif" font-size="10.00">~AbstractElement()</text>
<text text-anchor="start" x="158" y="-687.5" font-family="Helvetica,sans-Serif" font-size="10.00">+</text>
<text text-anchor="start" x="171" y="-687.5" font-family="Helvetica,sans-Serif" font-size="10.00">UpdateNode()</text>
<text text-anchor="start" x="158" y="-672.5" font-family="Helvetica,sans-Serif" font-size="10.00">+</text>
<text text-anchor="start" x="171" y="-672.5" font-family="Helvetica,sans-Serif" font-size="10.00">ReplaceNode()</text>
<text text-anchor="start" x="158" y="-657.5" font-family="Helvetica,sans-Serif" font-size="10.00">+</text>
<text text-anchor="start" x="171" y="-657.5" font-family="Helvetica,sans-Serif" font-size="10.00">MarkAsDeleted()</text>
<text text-anchor="start" x="158" y="-642.5" font-family="Helvetica,sans-Serif" font-size="10.00">+</text>
<text text-anchor="start" x="171" y="-642.5" font-family="Helvetica,sans-Serif" font-size="10.00">RegisterWithNodes()</text>
<text text-anchor="start" x="158" y="-627.5" font-family="Helvetica,sans-Serif" font-size="10.00">+</text>
<text text-anchor="start" x="171" y="-627.5" font-family="Helvetica,sans-Serif" font-size="10.00">GetNodeLocation()</text>
<text text-anchor="start" x="158" y="-612.5" font-family="Helvetica,sans-Serif" font-size="10.00">+</text>
<text text-anchor="start" x="171" y="-612.5" font-family="Helvetica,sans-Serif" font-size="10.00">GetNodeLocation()</text>
<text text-anchor="start" x="158" y="-597.5" font-family="Helvetica,sans-Serif" font-size="10.00">+</text>
<text text-anchor="start" x="171" y="-597.5" font-family="Helvetica,sans-Serif" font-size="10.00">GetNodeGlobalIndex()</text>
<text text-anchor="start" x="171" y="-582.5" font-family="Helvetica,sans-Serif" font-size="10.00">and 14 more...</text>
<text text-anchor="start" x="158" y="-567.5" font-family="Helvetica,sans-Serif" font-size="10.00">#</text>
<text text-anchor="start" x="171" y="-567.5" font-family="Helvetica,sans-Serif" font-size="10.00">ConstructElementAttributes()</text>
<polygon fill="#666666" stroke="#666666" points="154,-757.5 154,-757.5 318,-757.5 318,-757.5 154,-757.5"/>
<polygon fill="#666666" stroke="#666666" points="154,-742.5 154,-742.5 318,-742.5 318,-742.5 154,-742.5"/>
<polygon fill="none" stroke="#666666" points="154,-561 154,-786 318,-786 318,-561 154,-561"/>
</a>
</g>
</g>
<!-- Node3&#45;&gt;Node2 -->
<g id="edge2_Node000002_Node000003" class="edge">
<title>Node3&#45;&gt;Node2</title>
<g id="a_edge2_Node000002_Node000003"><a xlink:title=" ">
<path fill="none" stroke="#63b8ff" d="M236,-550.57C236,-541.8 236,-532.99 236,-524.29"/>
<polygon fill="none" stroke="#63b8ff" points="232.5,-550.84 236,-560.84 239.5,-550.84 232.5,-550.84"/>
</a>
</g>
</g>
<!-- Node4 -->
<g id="Node000004" class="node">
<title>Node4</title>
<g id="a_Node000004"><a xlink:title=" ">
<polygon fill="white" stroke="transparent" points="154.5,-909.5 47.5,-909.5 47.5,-849.5 154.5,-849.5 154.5,-909.5"/>
<text text-anchor="start" x="53" y="-897.5" font-family="Helvetica,sans-Serif" font-size="10.00">std::vector&lt; Node&lt;</text>
<text text-anchor="start" x="56.5" y="-886.5" font-family="Helvetica,sans-Serif" font-size="10.00"> SPACE_DIM &gt; * &gt;</text>
<text text-anchor="start" x="99.5" y="-871.5" font-family="Helvetica,sans-Serif" font-size="10.00"> </text>
<text text-anchor="start" x="99.5" y="-856.5" font-family="Helvetica,sans-Serif" font-size="10.00"> </text>
<polygon fill="#666666" stroke="#666666" points="48,-881.5 48,-881.5 155,-881.5 155,-881.5 48,-881.5"/>
<polygon fill="#666666" stroke="#666666" points="48,-866.5 48,-866.5 155,-866.5 155,-866.5 48,-866.5"/>
<polygon fill="none" stroke="#666666" points="47.5,-849.5 47.5,-909.5 154.5,-909.5 154.5,-849.5 47.5,-849.5"/>
</a>
</g>
</g>
<!-- Node4&#45;&gt;Node3 -->
<g id="edge3_Node000003_Node000004" class="edge">
<title>Node4&#45;&gt;Node3</title>
<g id="a_edge3_Node000003_Node000004"><a xlink:title=" ">
<path fill="none" stroke="#63b8ff" d="M116.43,-849.41C124.08,-835.46 133.65,-818.64 143,-804 144.57,-801.54 146.17,-799.06 147.79,-796.57"/>
<polygon fill="none" stroke="#63b8ff" points="147.97,-796.3 147.94,-789.09 154.58,-786.29 154.61,-793.5 147.97,-796.3"/>
</a>
</g>
<text text-anchor="middle" x="169" y="-812.5" font-family="Helvetica,sans-Serif" font-size="10.00" fill="grey"> #mNodes</text>
</g>
<!-- Node5 -->
<g id="Node000005" class="node">
<title>Node5</title>
<g id="a_Node000005"><a xlink:title=" ">
<polygon fill="white" stroke="transparent" points="122,-1011 0,-1011 0,-962 122,-962 122,-1011"/>
<text text-anchor="start" x="5" y="-998.5" font-family="Helvetica,sans-Serif" font-size="10.00">Node&lt; SPACE_DIM &gt; *</text>
<text text-anchor="start" x="59" y="-983.5" font-family="Helvetica,sans-Serif" font-size="10.00"> </text>
<text text-anchor="start" x="59" y="-968.5" font-family="Helvetica,sans-Serif" font-size="10.00"> </text>
<polygon fill="#bfbfbf" stroke="#bfbfbf" points="0,-993.5 0,-993.5 122,-993.5 122,-993.5 0,-993.5"/>
<polygon fill="#bfbfbf" stroke="#bfbfbf" points="0,-978.5 0,-978.5 122,-978.5 122,-978.5 0,-978.5"/>
<polygon fill="none" stroke="#bfbfbf" points="0,-962 0,-1011 122,-1011 122,-962 0,-962"/>
</a>
</g>
</g>
<!-- Node5&#45;&gt;Node4 -->
<g id="edge4_Node000004_Node000005" class="edge">
<title>Node5&#45;&gt;Node4</title>
<g id="a_edge4_Node000004_Node000005"><a xlink:title=" ">
<path fill="none" stroke="#63b8ff" d="M69.98,-961.94C74.58,-949.84 80.33,-934.77 85.61,-920.89"/>
<polygon fill="none" stroke="#63b8ff" points="85.64,-920.82 84.04,-913.79 89.91,-909.61 91.51,-916.64 85.64,-920.82"/>
</a>
</g>
<text text-anchor="middle" x="110" y="-936" font-family="Helvetica,sans-Serif" font-size="10.00" fill="grey"> +elements</text>
</g>
<!-- Node6 -->
<g id="Node000006" class="node">
<title>Node6</title>
<g id="a_Node000006"><a xlink:title=" ">
<polygon fill="white" stroke="transparent" points="231.5,-1011 140.5,-1011 140.5,-962 231.5,-962 231.5,-1011"/>
<text text-anchor="start" x="146" y="-998.5" font-family="Helvetica,sans-Serif" font-size="10.00">std::vector&lt; T &gt;</text>
<text text-anchor="start" x="184.5" y="-983.5" font-family="Helvetica,sans-Serif" font-size="10.00"> </text>
<text text-anchor="start" x="184.5" y="-968.5" font-family="Helvetica,sans-Serif" font-size="10.00"> </text>
<polygon fill="#666666" stroke="#666666" points="141,-993.5 141,-993.5 232,-993.5 232,-993.5 141,-993.5"/>
<polygon fill="#666666" stroke="#666666" points="141,-978.5 141,-978.5 232,-978.5 232,-978.5 141,-978.5"/>
<polygon fill="none" stroke="#666666" points="140.5,-962 140.5,-1011 231.5,-1011 231.5,-962 140.5,-962"/>
</a>
</g>
</g>
<!-- Node6&#45;&gt;Node4 -->
<g id="edge5_Node000004_Node000006" class="edge">
<title>Node6&#45;&gt;Node4</title>
<g id="a_edge5_Node000004_Node000006"><a xlink:title=" ">
<path fill="none" stroke="orange" d="M160.47,-953.96C149.07,-939.88 135.72,-923.39 124.56,-909.61"/>
<polygon fill="orange" stroke="orange" points="157.91,-956.37 166.92,-961.94 163.35,-951.96 157.91,-956.37"/>
</a>
</g>
<text text-anchor="middle" x="220" y="-936" font-family="Helvetica,sans-Serif" font-size="10.00" fill="grey"> &lt; Node&lt; SPACE_DIM &gt; * &gt;</text>
</g>
<!-- Node7 -->
<g id="Node000007" class="node">
<title>Node7</title>
<g id="a_Node000007"><a xlink:title=" ">
<polygon fill="white" stroke="transparent" points="194.5,-1107 177.5,-1107 177.5,-1058 194.5,-1058 194.5,-1107"/>
<text text-anchor="start" x="183" y="-1094.5" font-family="Helvetica,sans-Serif" font-size="10.00">T</text>
<text text-anchor="start" x="184.5" y="-1079.5" font-family="Helvetica,sans-Serif" font-size="10.00"> </text>
<text text-anchor="start" x="184.5" y="-1064.5" font-family="Helvetica,sans-Serif" font-size="10.00"> </text>
<polygon fill="#bfbfbf" stroke="#bfbfbf" points="178,-1089.5 178,-1089.5 195,-1089.5 195,-1089.5 178,-1089.5"/>
<polygon fill="#bfbfbf" stroke="#bfbfbf" points="178,-1074.5 178,-1074.5 195,-1074.5 195,-1074.5 178,-1074.5"/>
<polygon fill="none" stroke="#bfbfbf" points="177.5,-1058 177.5,-1107 194.5,-1107 194.5,-1058 177.5,-1058"/>
</a>
</g>
</g>
<!-- Node7&#45;&gt;Node6 -->
<g id="edge6_Node000006_Node000007" class="edge">
<title>Node7&#45;&gt;Node6</title>
<g id="a_edge6_Node000006_Node000007"><a xlink:title=" ">
<path fill="none" stroke="#63b8ff" d="M186,-1057.78C186,-1047.32 186,-1034.79 186,-1023.23"/>
<polygon fill="none" stroke="#63b8ff" points="186,-1023.21 182,-1017.21 186,-1011.21 190,-1017.21 186,-1023.21"/>
</a>
</g>
<text text-anchor="middle" x="215" y="-1032" font-family="Helvetica,sans-Serif" font-size="10.00" fill="grey"> +elements</text>
</g>
<!-- Node8 -->
<g id="Node000008" class="node">
<title>Node8</title>
<g id="a_Node000008"><a xlink:href="classunsigned.html" target="_top" xlink:title=" ">
<polygon fill="white" stroke="transparent" points="227.5,-904 172.5,-904 172.5,-855 227.5,-855 227.5,-904"/>
<text text-anchor="start" x="178" y="-891.5" font-family="Helvetica,sans-Serif" font-size="10.00">unsigned</text>
<text text-anchor="start" x="198.5" y="-876.5" font-family="Helvetica,sans-Serif" font-size="10.00"> </text>
<text text-anchor="start" x="198.5" y="-861.5" font-family="Helvetica,sans-Serif" font-size="10.00"> </text>
<polygon fill="#bfbfbf" stroke="#bfbfbf" points="173,-886.5 173,-886.5 228,-886.5 228,-886.5 173,-886.5"/>
<polygon fill="#bfbfbf" stroke="#bfbfbf" points="173,-871.5 173,-871.5 228,-871.5 228,-871.5 173,-871.5"/>
<polygon fill="none" stroke="#bfbfbf" points="172.5,-855 172.5,-904 227.5,-904 227.5,-855 172.5,-855"/>
</a>
</g>
</g>
<!-- Node8&#45;&gt;Node3 -->
<g id="edge7_Node000003_Node000008" class="edge">
<title>Node8&#45;&gt;Node3</title>
<g id="a_edge7_Node000003_Node000008"><a xlink:title=" ">
<path fill="none" stroke="#63b8ff" d="M198.82,-854.9C198.45,-840.19 198.64,-820.91 201,-804 201.27,-802.07 201.56,-800.13 201.87,-798.18"/>
<polygon fill="none" stroke="#63b8ff" points="201.91,-797.92 199,-791.32 203.97,-786.1 206.88,-792.69 201.91,-797.92"/>
</a>
</g>
<text text-anchor="middle" x="225.5" y="-812.5" font-family="Helvetica,sans-Serif" font-size="10.00" fill="grey"> #mIndex</text>
</g>
<!-- Node9 -->
<g id="Node000009" class="node">
<title>Node9</title>
<g id="a_Node000009"><a xlink:href="classbool.html" target="_top" xlink:title=" ">
<polygon fill="white" stroke="transparent" points="288,-904 256,-904 256,-855 288,-855 288,-904"/>
<text text-anchor="start" x="261" y="-891.5" font-family="Helvetica,sans-Serif" font-size="10.00">bool</text>
<text text-anchor="start" x="270" y="-876.5" font-family="Helvetica,sans-Serif" font-size="10.00"> </text>
<text text-anchor="start" x="270" y="-861.5" font-family="Helvetica,sans-Serif" font-size="10.00"> </text>
<polygon fill="#bfbfbf" stroke="#bfbfbf" points="256,-886.5 256,-886.5 288,-886.5 288,-886.5 256,-886.5"/>
<polygon fill="#bfbfbf" stroke="#bfbfbf" points="256,-871.5 256,-871.5 288,-871.5 288,-871.5 256,-871.5"/>
<polygon fill="none" stroke="#bfbfbf" points="256,-855 256,-904 288,-904 288,-855 256,-855"/>
</a>
</g>
</g>
<!-- Node9&#45;&gt;Node3 -->
<g id="edge8_Node000003_Node000009" class="edge">
<title>Node9&#45;&gt;Node3</title>
<g id="a_edge8_Node000003_Node000009"><a xlink:title=" ">
<path fill="none" stroke="#63b8ff" d="M267.8,-854.7C265.2,-839.98 261.65,-819.83 257.85,-798.32"/>
<polygon fill="none" stroke="#63b8ff" points="257.81,-798.07 252.82,-792.86 255.72,-786.25 260.7,-791.47 257.81,-798.07"/>
</a>
</g>
<text text-anchor="middle" x="297" y="-818" font-family="Helvetica,sans-Serif" font-size="10.00" fill="grey"> #mIsDeleted</text>
<text text-anchor="middle" x="297" y="-807" font-family="Helvetica,sans-Serif" font-size="10.00" fill="grey">#mOwnership</text>
</g>
<!-- Node10 -->
<g id="Node000010" class="node">
<title>Node10</title>
<g id="a_Node000010"><a xlink:title=" ">
<polygon fill="white" stroke="transparent" points="427.5,-915 306.5,-915 306.5,-844 427.5,-844 427.5,-915"/>
<text text-anchor="start" x="312" y="-902.5" font-family="Helvetica,sans-Serif" font-size="10.00">ElementAttributes&lt;</text>
<text text-anchor="start" x="312" y="-891.5" font-family="Helvetica,sans-Serif" font-size="10.00"> ELEMENT_DIM, SPACE</text>
<text text-anchor="start" x="345" y="-880.5" font-family="Helvetica,sans-Serif" font-size="10.00">_DIM &gt; *</text>
<text text-anchor="start" x="365.5" y="-865.5" font-family="Helvetica,sans-Serif" font-size="10.00"> </text>
<text text-anchor="start" x="365.5" y="-850.5" font-family="Helvetica,sans-Serif" font-size="10.00"> </text>
<polygon fill="#bfbfbf" stroke="#bfbfbf" points="307,-875.5 307,-875.5 428,-875.5 428,-875.5 307,-875.5"/>
<polygon fill="#bfbfbf" stroke="#bfbfbf" points="307,-860.5 307,-860.5 428,-860.5 428,-860.5 307,-860.5"/>
<polygon fill="none" stroke="#bfbfbf" points="306.5,-844 306.5,-915 427.5,-915 427.5,-844 306.5,-844"/>
</a>
</g>
</g>
<!-- Node10&#45;&gt;Node3 -->
<g id="edge9_Node000003_Node000010" class="edge">
<title>Node10&#45;&gt;Node3</title>
<g id="a_edge9_Node000003_Node000010"><a xlink:title=" ">
<path fill="none" stroke="#63b8ff" d="M354.78,-843.85C349.68,-830.98 343.24,-816.48 336,-804 332.48,-797.94 328.72,-791.85 324.78,-785.78"/>
<polygon fill="none" stroke="#63b8ff" points="324.66,-785.6 318,-782.82 318.01,-775.61 324.66,-778.39 324.66,-785.6"/>
</a>
</g>
<text text-anchor="middle" x="405" y="-812.5" font-family="Helvetica,sans-Serif" font-size="10.00" fill="grey"> #mpElementAttributes</text>
</g>
</g>
</svg>
