<?xml version="1.0" encoding="UTF-8" standalone="no"?>
<!DOCTYPE svg PUBLIC "-//W3C//DTD SVG 1.1//EN"
 "http://www.w3.org/Graphics/SVG/1.1/DTD/svg11.dtd">
<!-- Generated by graphviz version 2.43.0 (0)
 -->
<!-- Title: OpenSimplex2S::LatticePoint4D Pages: 1 -->
<svg width="173pt" height="201pt"
 viewBox="0.00 0.00 173.00 201.00" xmlns="http://www.w3.org/2000/svg" xmlns:xlink="http://www.w3.org/1999/xlink">
<g id="graph0" class="graph" transform="scale(1 1) rotate(0) translate(4 197)">
<title>OpenSimplex2S::LatticePoint4D</title>
<!-- Node1 -->
<g id="Node000001" class="node">
<title>Node1</title>
<g id="a_Node000001"><a xlink:title=" ">
<polygon fill="#999999" stroke="transparent" points="165,-64 0,-64 0,0 165,0 165,-64"/>
<text text-anchor="start" x="5.5" y="-52" font-family="Helvetica,sans-Serif" font-size="10.00">OpenSimplex2S::LatticePoint4D</text>
<text text-anchor="start" x="81" y="-37" font-family="Helvetica,sans-Serif" font-size="10.00"> </text>
<text text-anchor="start" x="20.5" y="-22" font-family="Helvetica,sans-Serif" font-size="10.00">+</text>
<text text-anchor="start" x="49.5" y="-22" font-family="Helvetica,sans-Serif" font-size="10.00">LatticePoint4D()</text>
<text text-anchor="start" x="20.5" y="-7" font-family="Helvetica,sans-Serif" font-size="10.00">+</text>
<text text-anchor="start" x="49.5" y="-7" font-family="Helvetica,sans-Serif" font-size="10.00">LatticePoint4D()</text>
<polygon fill="#666666" stroke="#666666" points="0.5,-47 0.5,-47 165.5,-47 165.5,-47 0.5,-47"/>
<polygon fill="#666666" stroke="#666666" points="0.5,-32 0.5,-32 165.5,-32 165.5,-32 0.5,-32"/>
<polygon fill="none" stroke="#666666" points="0,0 0,-64 165,-64 165,0 0,0"/>
</a>
</g>
</g>
<!-- Node2 -->
<g id="Node000002" class="node">
<title>Node2</title>
<g id="a_Node000002"><a xlink:title=" ">
<polygon fill="white" stroke="transparent" points="67,-193 44,-193 44,-144 67,-144 67,-193"/>
<text text-anchor="start" x="49.5" y="-180.5" font-family="Helvetica,sans-Serif" font-size="10.00">int</text>
<text text-anchor="start" x="54" y="-165.5" font-family="Helvetica,sans-Serif" font-size="10.00"> </text>
<text text-anchor="start" x="54" y="-150.5" font-family="Helvetica,sans-Serif" font-size="10.00"> </text>
<polygon fill="#bfbfbf" stroke="#bfbfbf" points="44.5,-175.5 44.5,-175.5 67.5,-175.5 67.5,-175.5 44.5,-175.5"/>
<polygon fill="#bfbfbf" stroke="#bfbfbf" points="44.5,-160.5 44.5,-160.5 67.5,-160.5 67.5,-160.5 44.5,-160.5"/>
<polygon fill="none" stroke="#bfbfbf" points="44,-144 44,-193 67,-193 67,-144 44,-144"/>
</a>
</g>
</g>
<!-- Node2&#45;&gt;Node1 -->
<g id="edge1_Node000001_Node000002" class="edge">
<title>Node2&#45;&gt;Node1</title>
<g id="a_edge1_Node000001_Node000002"><a xlink:title=" ">
<path fill="none" stroke="#63b8ff" d="M52.82,-143.89C51.55,-126.5 51.29,-102.43 56.5,-82 57.05,-79.85 57.71,-77.7 58.45,-75.55"/>
<polygon fill="none" stroke="#63b8ff" points="58.54,-75.35 57.14,-68.28 63.13,-64.27 64.53,-71.34 58.54,-75.35"/>
</a>
</g>
<text text-anchor="middle" x="72" y="-118" font-family="Helvetica,sans-Serif" font-size="10.00" fill="grey"> +wsv</text>
<text text-anchor="middle" x="72" y="-107" font-family="Helvetica,sans-Serif" font-size="10.00" fill="grey">+xsv</text>
<text text-anchor="middle" x="72" y="-96" font-family="Helvetica,sans-Serif" font-size="10.00" fill="grey">+ysv</text>
<text text-anchor="middle" x="72" y="-85" font-family="Helvetica,sans-Serif" font-size="10.00" fill="grey">+zsv</text>
</g>
<!-- Node3 -->
<g id="Node000003" class="node">
<title>Node3</title>
<g id="a_Node000003"><a xlink:href="classdouble.html" target="_top" xlink:title=" ">
<polygon fill="white" stroke="transparent" points="131.5,-193 87.5,-193 87.5,-144 131.5,-144 131.5,-193"/>
<text text-anchor="start" x="92.5" y="-180.5" font-family="Helvetica,sans-Serif" font-size="10.00">double</text>
<text text-anchor="start" x="107.5" y="-165.5" font-family="Helvetica,sans-Serif" font-size="10.00"> </text>
<text text-anchor="start" x="107.5" y="-150.5" font-family="Helvetica,sans-Serif" font-size="10.00"> </text>
<polygon fill="#bfbfbf" stroke="#bfbfbf" points="87.5,-175.5 87.5,-175.5 131.5,-175.5 131.5,-175.5 87.5,-175.5"/>
<polygon fill="#bfbfbf" stroke="#bfbfbf" points="87.5,-160.5 87.5,-160.5 131.5,-160.5 131.5,-160.5 87.5,-160.5"/>
<polygon fill="none" stroke="#bfbfbf" points="87.5,-144 87.5,-193 131.5,-193 131.5,-144 87.5,-144"/>
</a>
</g>
</g>
<!-- Node3&#45;&gt;Node1 -->
<g id="edge2_Node000001_Node000003" class="edge">
<title>Node3&#45;&gt;Node1</title>
<g id="a_edge2_Node000001_Node000003"><a xlink:title=" ">
<path fill="none" stroke="#63b8ff" d="M104.74,-143.76C100.98,-125.06 95.64,-98.48 91.14,-76.04"/>
<polygon fill="none" stroke="#63b8ff" points="91.1,-75.85 86,-70.75 88.74,-64.08 93.84,-69.18 91.1,-75.85"/>
</a>
</g>
<text text-anchor="middle" x="113.5" y="-118" font-family="Helvetica,sans-Serif" font-size="10.00" fill="grey"> +dw</text>
<text text-anchor="middle" x="113.5" y="-107" font-family="Helvetica,sans-Serif" font-size="10.00" fill="grey">+dx</text>
<text text-anchor="middle" x="113.5" y="-96" font-family="Helvetica,sans-Serif" font-size="10.00" fill="grey">+dy</text>
<text text-anchor="middle" x="113.5" y="-85" font-family="Helvetica,sans-Serif" font-size="10.00" fill="grey">+dz</text>
</g>
</g>
</svg>
