<?xml version="1.0" encoding="UTF-8" standalone="no"?>
<!DOCTYPE svg PUBLIC "-//W3C//DTD SVG 1.1//EN"
 "http://www.w3.org/Graphics/SVG/1.1/DTD/svg11.dtd">
<!-- Generated by graphviz version 2.40.1 (20161225.0304)
 -->
<!-- Title: Hdf5ToTxtConverter&lt; ELEMENT_DIM, SPACE_DIM &gt; Pages: 1 -->
<svg width="1077pt" height="646pt"
 viewBox="0.00 0.00 1077.00 646.00" xmlns="http://www.w3.org/2000/svg" xmlns:xlink="http://www.w3.org/1999/xlink">
<g id="graph0" class="graph" transform="scale(1 1) rotate(0) translate(4 642)">
<title>Hdf5ToTxtConverter&lt; ELEMENT_DIM, SPACE_DIM &gt;</title>
<polygon fill="#ffffff" stroke="transparent" points="-4,4 -4,-642 1073,-642 1073,4 -4,4"/>
<!-- Node2 -->
<g id="node1" class="node">
<title>Node2</title>
<polygon fill="#bfbfbf" stroke="#000000" points="501,-.5 501,-68.5 671,-68.5 671,-.5 501,-.5"/>
<text text-anchor="start" x="509" y="-56.5" font-family="Helvetica,sans-Serif" font-size="10.00" fill="#000000">Hdf5ToTxtConverter</text>
<text text-anchor="middle" x="586" y="-45.5" font-family="Helvetica,sans-Serif" font-size="10.00" fill="#000000">&lt; ELEMENT_DIM, SPACE_DIM &gt;</text>
<polyline fill="none" stroke="#000000" points="501,-38.5 671,-38.5 "/>
<text text-anchor="middle" x="586" y="-26.5" font-family="Helvetica,sans-Serif" font-size="10.00" fill="#000000"> </text>
<polyline fill="none" stroke="#000000" points="501,-19.5 671,-19.5 "/>
<text text-anchor="start" x="509" y="-7.5" font-family="Helvetica,sans-Serif" font-size="10.00" fill="#000000">+ Hdf5ToTxtConverter()</text>
</g>
<!-- Node3 -->
<g id="node2" class="node">
<title>Node3</title>
<g id="a_node2"><a xlink:href="classAbstractHdf5Converter.html" target="_top" xlink:title="{AbstractHdf5Converter\l\&lt; ELEMENT_DIM, SPACE_DIM \&gt;\n||+ AbstractHdf5Converter()\l+ WriteInfoFile()\l+ ~AbstractHdf5Converter()\l+ GetSubdirectory()\l# MoveOntoNextDataset()\l&#45; GenerateListOfDatasets()\l}">
<polygon fill="#ffffff" stroke="#000000" points="501,-106.5 501,-229.5 671,-229.5 671,-106.5 501,-106.5"/>
<text text-anchor="start" x="509" y="-217.5" font-family="Helvetica,sans-Serif" font-size="10.00" fill="#000000">AbstractHdf5Converter</text>
<text text-anchor="middle" x="586" y="-206.5" font-family="Helvetica,sans-Serif" font-size="10.00" fill="#000000">&lt; ELEMENT_DIM, SPACE_DIM &gt;</text>
<polyline fill="none" stroke="#000000" points="501,-199.5 671,-199.5 "/>
<text text-anchor="middle" x="586" y="-187.5" font-family="Helvetica,sans-Serif" font-size="10.00" fill="#000000"> </text>
<polyline fill="none" stroke="#000000" points="501,-180.5 671,-180.5 "/>
<text text-anchor="start" x="509" y="-168.5" font-family="Helvetica,sans-Serif" font-size="10.00" fill="#000000">+ AbstractHdf5Converter()</text>
<text text-anchor="start" x="509" y="-157.5" font-family="Helvetica,sans-Serif" font-size="10.00" fill="#000000">+ WriteInfoFile()</text>
<text text-anchor="start" x="509" y="-146.5" font-family="Helvetica,sans-Serif" font-size="10.00" fill="#000000">+ ~AbstractHdf5Converter()</text>
<text text-anchor="start" x="509" y="-135.5" font-family="Helvetica,sans-Serif" font-size="10.00" fill="#000000">+ GetSubdirectory()</text>
<text text-anchor="start" x="509" y="-124.5" font-family="Helvetica,sans-Serif" font-size="10.00" fill="#000000"># MoveOntoNextDataset()</text>
<text text-anchor="start" x="509" y="-113.5" font-family="Helvetica,sans-Serif" font-size="10.00" fill="#000000">&#45; GenerateListOfDatasets()</text>
</a>
</g>
</g>
<!-- Node3&#45;&gt;Node2 -->
<g id="edge1" class="edge">
<title>Node3&#45;&gt;Node2</title>
<path fill="none" stroke="#191970" d="M586,-96.2729C586,-86.6379 586,-77.1419 586,-68.5939"/>
<polygon fill="none" stroke="#191970" points="582.5001,-96.3301 586,-106.3301 589.5001,-96.3301 582.5001,-96.3301"/>
</g>
<!-- Node4 -->
<g id="node3" class="node">
<title>Node4</title>
<polygon fill="#ffffff" stroke="#bfbfbf" points="0,-387.5 0,-444.5 154,-444.5 154,-387.5 0,-387.5"/>
<text text-anchor="middle" x="77" y="-432.5" font-family="Helvetica,sans-Serif" font-size="10.00" fill="#000000">shared_ptr&lt; Hdf5DataReader &gt;</text>
<polyline fill="none" stroke="#bfbfbf" points="0,-425.5 154,-425.5 "/>
<text text-anchor="middle" x="77" y="-413.5" font-family="Helvetica,sans-Serif" font-size="10.00" fill="#000000"> </text>
<polyline fill="none" stroke="#bfbfbf" points="0,-406.5 154,-406.5 "/>
<text text-anchor="middle" x="77" y="-394.5" font-family="Helvetica,sans-Serif" font-size="10.00" fill="#000000"> </text>
</g>
<!-- Node4&#45;&gt;Node3 -->
<g id="edge2" class="edge">
<title>Node4&#45;&gt;Node3</title>
<path fill="none" stroke="#404040" d="M75.9411,-387.21C76.2382,-349.4255 82.8638,-283.7283 122,-248 174.3835,-200.1779 368.9711,-180.4293 488.893,-172.6686"/>
<polygon fill="none" stroke="#404040" points="488.9991,-172.662 494.7369,-168.2942 500.9756,-171.9107 495.2377,-176.2785 488.9991,-172.662"/>
<text text-anchor="middle" x="149" y="-262" font-family="Helvetica,sans-Serif" font-size="10.00" fill="#000000"> #mpReader</text>
</g>
<!-- Node5 -->
<g id="node4" class="node">
<title>Node5</title>
<g id="a_node4"><a xlink:href="classOutputFileHandler.html" target="_top" xlink:title="{OutputFileHandler\n||+ OutputFileHandler()\l+ OutputFileHandler()\l+ GetOutputDirectoryFullPath()\l+ GetRelativePath()\l+ SetArchiveDirectory()\l+ OpenOutputFile()\l+ OpenOutputFile()\l+ CopyFileTo()\l+ FindFile()\l+ GetChasteTestOutputDirectory()\l&#45; CommonConstructor()\l&#45; MakeFoldersAndReturnFullPath()\l&#45; AddTrailingSlash()\l}">
<polygon fill="#ffffff" stroke="#000000" points="313.5,-321.5 313.5,-510.5 480.5,-510.5 480.5,-321.5 313.5,-321.5"/>
<text text-anchor="middle" x="397" y="-498.5" font-family="Helvetica,sans-Serif" font-size="10.00" fill="#000000">OutputFileHandler</text>
<polyline fill="none" stroke="#000000" points="313.5,-491.5 480.5,-491.5 "/>
<text text-anchor="middle" x="397" y="-479.5" font-family="Helvetica,sans-Serif" font-size="10.00" fill="#000000"> </text>
<polyline fill="none" stroke="#000000" points="313.5,-472.5 480.5,-472.5 "/>
<text text-anchor="start" x="321.5" y="-460.5" font-family="Helvetica,sans-Serif" font-size="10.00" fill="#000000">+ OutputFileHandler()</text>
<text text-anchor="start" x="321.5" y="-449.5" font-family="Helvetica,sans-Serif" font-size="10.00" fill="#000000">+ OutputFileHandler()</text>
<text text-anchor="start" x="321.5" y="-438.5" font-family="Helvetica,sans-Serif" font-size="10.00" fill="#000000">+ GetOutputDirectoryFullPath()</text>
<text text-anchor="start" x="321.5" y="-427.5" font-family="Helvetica,sans-Serif" font-size="10.00" fill="#000000">+ GetRelativePath()</text>
<text text-anchor="start" x="321.5" y="-416.5" font-family="Helvetica,sans-Serif" font-size="10.00" fill="#000000">+ SetArchiveDirectory()</text>
<text text-anchor="start" x="321.5" y="-405.5" font-family="Helvetica,sans-Serif" font-size="10.00" fill="#000000">+ OpenOutputFile()</text>
<text text-anchor="start" x="321.5" y="-394.5" font-family="Helvetica,sans-Serif" font-size="10.00" fill="#000000">+ OpenOutputFile()</text>
<text text-anchor="start" x="321.5" y="-383.5" font-family="Helvetica,sans-Serif" font-size="10.00" fill="#000000">+ CopyFileTo()</text>
<text text-anchor="start" x="321.5" y="-372.5" font-family="Helvetica,sans-Serif" font-size="10.00" fill="#000000">+ FindFile()</text>
<text text-anchor="start" x="321.5" y="-361.5" font-family="Helvetica,sans-Serif" font-size="10.00" fill="#000000">+ GetChasteTestOutputDirectory()</text>
<text text-anchor="start" x="321.5" y="-350.5" font-family="Helvetica,sans-Serif" font-size="10.00" fill="#000000">&#45; CommonConstructor()</text>
<text text-anchor="start" x="321.5" y="-339.5" font-family="Helvetica,sans-Serif" font-size="10.00" fill="#000000">&#45; MakeFoldersAndReturnFullPath()</text>
<text text-anchor="start" x="321.5" y="-328.5" font-family="Helvetica,sans-Serif" font-size="10.00" fill="#000000">&#45; AddTrailingSlash()</text>
</a>
</g>
</g>
<!-- Node5&#45;&gt;Node3 -->
<g id="edge3" class="edge">
<title>Node5&#45;&gt;Node3</title>
<path fill="none" stroke="#404040" d="M435.0483,-321.151C447.5851,-295.9483 463.0086,-269.7243 481,-248 484.4648,-243.8163 488.1881,-239.7215 492.0925,-235.7351"/>
<polygon fill="none" stroke="#404040" points="492.2874,-235.5459 493.8072,-228.4968 500.8987,-227.1885 499.3788,-234.2376 492.2874,-235.5459"/>
<text text-anchor="middle" x="531.5" y="-262" font-family="Helvetica,sans-Serif" font-size="10.00" fill="#000000"> #mpOutputFileHandler</text>
</g>
<!-- Node6 -->
<g id="node5" class="node">
<title>Node6</title>
<polygon fill="#ffffff" stroke="#bfbfbf" points="369.5,-580.5 369.5,-637.5 410.5,-637.5 410.5,-580.5 369.5,-580.5"/>
<text text-anchor="middle" x="390" y="-625.5" font-family="Helvetica,sans-Serif" font-size="10.00" fill="#000000">string</text>
<polyline fill="none" stroke="#bfbfbf" points="369.5,-618.5 410.5,-618.5 "/>
<text text-anchor="middle" x="390" y="-606.5" font-family="Helvetica,sans-Serif" font-size="10.00" fill="#000000"> </text>
<polyline fill="none" stroke="#bfbfbf" points="369.5,-599.5 410.5,-599.5 "/>
<text text-anchor="middle" x="390" y="-587.5" font-family="Helvetica,sans-Serif" font-size="10.00" fill="#000000"> </text>
</g>
<!-- Node6&#45;&gt;Node3 -->
<g id="edge8" class="edge">
<title>Node6&#45;&gt;Node3</title>
<path fill="none" stroke="#404040" d="M369.2889,-607.9209C328.4393,-604.5425 238.0675,-590.5919 199,-533 169.8084,-489.9669 168.6931,-341.2551 199,-299 233.2987,-251.1793 385.7205,-210.3146 488.7294,-187.4789"/>
<polygon fill="none" stroke="#404040" points="489.0001,-187.4197 494.0053,-182.2285 500.7222,-184.852 495.7171,-190.0432 489.0001,-187.4197"/>
<text text-anchor="middle" x="251.5" y="-419" font-family="Helvetica,sans-Serif" font-size="10.00" fill="#000000"> #mFileBaseName</text>
<text text-anchor="middle" x="251.5" y="-408" font-family="Helvetica,sans-Serif" font-size="10.00" fill="#000000">#mRelativeSubdirectory</text>
</g>
<!-- Node6&#45;&gt;Node5 -->
<g id="edge4" class="edge">
<title>Node6&#45;&gt;Node5</title>
<path fill="none" stroke="#404040" d="M369.3355,-603.7128C343.8905,-595.9243 304.9539,-579.1614 313,-551 315.8376,-541.0685 319.6402,-531.1561 324.0652,-521.4695"/>
<polygon fill="none" stroke="#404040" points="324.0789,-521.441 323.0927,-514.2976 329.3073,-510.6398 330.2935,-517.7832 324.0789,-521.441"/>
<text text-anchor="middle" x="340.5" y="-554" font-family="Helvetica,sans-Serif" font-size="10.00" fill="#000000"> &#45;mDirectory</text>
</g>
<!-- Node6&#45;&gt;Node5 -->
<g id="edge5" class="edge">
<title>Node6&#45;&gt;Node5</title>
<path fill="none" stroke="#404040" d="M390.3392,-580.3806C390.4914,-571.0155 390.7051,-560.5628 391,-551 391.2822,-541.8492 391.6178,-532.3513 391.9839,-522.8247"/>
<polygon fill="none" stroke="#404040" points="391.9865,-522.7569 388.2275,-516.603 392.4623,-510.7663 396.2212,-516.9202 391.9865,-522.7569"/>
<text text-anchor="middle" x="435" y="-554" font-family="Helvetica,sans-Serif" font-size="10.00" fill="#000000"> +SIG_FILE_NAME</text>
</g>
<!-- Node10 -->
<g id="node9" class="node">
<title>Node10</title>
<g id="a_node9"><a xlink:href="classFileFinder.html" target="_top" xlink:title="{FileFinder\n||+ FileFinder()\l+ FileFinder()\l+ FileFinder()\l+ FileFinder()\l+ ~FileFinder()\l+ SetPath()\l+ SetPath()\l+ IsPathSet()\l+ Exists()\l+ IsFile()\land 14 more...\l+ IsAbsolutePath()\l+ ReplaceSpacesWithUnderscores()\l+ ReplaceUnderscoresWithSpaces()\l+ FakePath()\l+ StopFaking()\l&#45; PrivateRemove()\l}">
<polygon fill="#ffffff" stroke="#000000" points="498,-299.5 498,-532.5 674,-532.5 674,-299.5 498,-299.5"/>
<text text-anchor="middle" x="586" y="-520.5" font-family="Helvetica,sans-Serif" font-size="10.00" fill="#000000">FileFinder</text>
<polyline fill="none" stroke="#000000" points="498,-513.5 674,-513.5 "/>
<text text-anchor="middle" x="586" y="-501.5" font-family="Helvetica,sans-Serif" font-size="10.00" fill="#000000"> </text>
<polyline fill="none" stroke="#000000" points="498,-494.5 674,-494.5 "/>
<text text-anchor="start" x="506" y="-482.5" font-family="Helvetica,sans-Serif" font-size="10.00" fill="#000000">+ FileFinder()</text>
<text text-anchor="start" x="506" y="-471.5" font-family="Helvetica,sans-Serif" font-size="10.00" fill="#000000">+ FileFinder()</text>
<text text-anchor="start" x="506" y="-460.5" font-family="Helvetica,sans-Serif" font-size="10.00" fill="#000000">+ FileFinder()</text>
<text text-anchor="start" x="506" y="-449.5" font-family="Helvetica,sans-Serif" font-size="10.00" fill="#000000">+ FileFinder()</text>
<text text-anchor="start" x="506" y="-438.5" font-family="Helvetica,sans-Serif" font-size="10.00" fill="#000000">+ ~FileFinder()</text>
<text text-anchor="start" x="506" y="-427.5" font-family="Helvetica,sans-Serif" font-size="10.00" fill="#000000">+ SetPath()</text>
<text text-anchor="start" x="506" y="-416.5" font-family="Helvetica,sans-Serif" font-size="10.00" fill="#000000">+ SetPath()</text>
<text text-anchor="start" x="506" y="-405.5" font-family="Helvetica,sans-Serif" font-size="10.00" fill="#000000">+ IsPathSet()</text>
<text text-anchor="start" x="506" y="-394.5" font-family="Helvetica,sans-Serif" font-size="10.00" fill="#000000">+ Exists()</text>
<text text-anchor="start" x="506" y="-383.5" font-family="Helvetica,sans-Serif" font-size="10.00" fill="#000000">+ IsFile()</text>
<text text-anchor="start" x="506" y="-372.5" font-family="Helvetica,sans-Serif" font-size="10.00" fill="#000000">and 14 more...</text>
<text text-anchor="start" x="506" y="-361.5" font-family="Helvetica,sans-Serif" font-size="10.00" fill="#000000">+ IsAbsolutePath()</text>
<text text-anchor="start" x="506" y="-350.5" font-family="Helvetica,sans-Serif" font-size="10.00" fill="#000000">+ ReplaceSpacesWithUnderscores()</text>
<text text-anchor="start" x="506" y="-339.5" font-family="Helvetica,sans-Serif" font-size="10.00" fill="#000000">+ ReplaceUnderscoresWithSpaces()</text>
<text text-anchor="start" x="506" y="-328.5" font-family="Helvetica,sans-Serif" font-size="10.00" fill="#000000">+ FakePath()</text>
<text text-anchor="start" x="506" y="-317.5" font-family="Helvetica,sans-Serif" font-size="10.00" fill="#000000">+ StopFaking()</text>
<text text-anchor="start" x="506" y="-306.5" font-family="Helvetica,sans-Serif" font-size="10.00" fill="#000000">&#45; PrivateRemove()</text>
</a>
</g>
</g>
<!-- Node6&#45;&gt;Node10 -->
<g id="edge11" class="edge">
<title>Node6&#45;&gt;Node10</title>
<path fill="none" stroke="#404040" d="M410.6856,-601.2415C429.8302,-593.3683 458.3654,-579.8117 479,-562 486.1924,-555.7916 493.1783,-549.0131 499.9063,-541.886"/>
<polygon fill="none" stroke="#404040" points="500.2046,-541.5586 501.2888,-534.4295 508.2866,-532.6884 507.2023,-539.8175 500.2046,-541.5586"/>
<text text-anchor="middle" x="521" y="-554" font-family="Helvetica,sans-Serif" font-size="10.00" fill="#000000"> &#45;msFakePath</text>
</g>
<!-- Node6&#45;&gt;Node10 -->
<g id="edge14" class="edge">
<title>Node6&#45;&gt;Node10</title>
<path fill="none" stroke="#404040" d="M410.7047,-605.8601C450.6503,-599.3824 536.171,-583.3375 556,-562 561.202,-556.4022 565.6031,-550.1531 569.3188,-543.4774"/>
<polygon fill="none" stroke="#404040" points="569.3341,-543.4461 568.3795,-536.2984 574.6101,-532.6681 575.5648,-539.8158 569.3341,-543.4461"/>
<text text-anchor="middle" x="589" y="-554" font-family="Helvetica,sans-Serif" font-size="10.00" fill="#000000"> &#45;mAbsPath</text>
</g>
<!-- Node7 -->
<g id="node6" class="node">
<title>Node7</title>
<polygon fill="#ffffff" stroke="#bfbfbf" points="692.5,-387.5 692.5,-444.5 797.5,-444.5 797.5,-387.5 692.5,-387.5"/>
<text text-anchor="middle" x="745" y="-432.5" font-family="Helvetica,sans-Serif" font-size="10.00" fill="#000000">vector&lt; std::string &gt;</text>
<polyline fill="none" stroke="#bfbfbf" points="692.5,-425.5 797.5,-425.5 "/>
<text text-anchor="middle" x="745" y="-413.5" font-family="Helvetica,sans-Serif" font-size="10.00" fill="#000000"> </text>
<polyline fill="none" stroke="#bfbfbf" points="692.5,-406.5 797.5,-406.5 "/>
<text text-anchor="middle" x="745" y="-394.5" font-family="Helvetica,sans-Serif" font-size="10.00" fill="#000000"> </text>
</g>
<!-- Node7&#45;&gt;Node3 -->
<g id="edge6" class="edge">
<title>Node7&#45;&gt;Node3</title>
<path fill="none" stroke="#404040" d="M731.1653,-387.2009C714.0884,-352.7852 683.2082,-294.0739 650,-248 647.9525,-245.1593 645.8414,-242.2823 643.6887,-239.3915"/>
<polygon fill="none" stroke="#404040" points="643.4784,-239.1135 636.6689,-236.7405 636.2404,-229.5421 643.0499,-231.9151 643.4784,-239.1135"/>
<text text-anchor="middle" x="711.5" y="-262" font-family="Helvetica,sans-Serif" font-size="10.00" fill="#000000"> #mDatasetNames</text>
</g>
<!-- Node8 -->
<g id="node7" class="node">
<title>Node8</title>
<polygon fill="#ffffff" stroke="#bfbfbf" points="815.5,-382 815.5,-450 992.5,-450 992.5,-382 815.5,-382"/>
<text text-anchor="start" x="823.5" y="-438" font-family="Helvetica,sans-Serif" font-size="10.00" fill="#000000">AbstractTetrahedralMesh</text>
<text text-anchor="middle" x="904" y="-427" font-family="Helvetica,sans-Serif" font-size="10.00" fill="#000000">&lt; ELEMENT_DIM, SPACE_DIM &gt; *</text>
<polyline fill="none" stroke="#bfbfbf" points="815.5,-420 992.5,-420 "/>
<text text-anchor="middle" x="904" y="-408" font-family="Helvetica,sans-Serif" font-size="10.00" fill="#000000"> </text>
<polyline fill="none" stroke="#bfbfbf" points="815.5,-401 992.5,-401 "/>
<text text-anchor="middle" x="904" y="-389" font-family="Helvetica,sans-Serif" font-size="10.00" fill="#000000"> </text>
</g>
<!-- Node8&#45;&gt;Node3 -->
<g id="edge7" class="edge">
<title>Node8&#45;&gt;Node3</title>
<path fill="none" stroke="#404040" d="M881.4971,-381.7608C855.44,-344.4325 809.335,-285.0821 757,-248 734.1702,-231.8239 707.5513,-217.5402 682.2089,-205.6856"/>
<polygon fill="none" stroke="#404040" points="681.9707,-205.5766 674.8504,-206.7177 671.0585,-200.5841 678.1788,-199.443 681.9707,-205.5766"/>
<text text-anchor="middle" x="817" y="-262" font-family="Helvetica,sans-Serif" font-size="10.00" fill="#000000"> #mpMesh</text>
</g>
<!-- Node9 -->
<g id="node8" class="node">
<title>Node9</title>
<g id="a_node8"><a xlink:href="classunsigned.html" target="_top" xlink:title="{unsigned\n||}">
<polygon fill="#ffffff" stroke="#000000" points="1010,-387.5 1010,-444.5 1066,-444.5 1066,-387.5 1010,-387.5"/>
<text text-anchor="middle" x="1038" y="-432.5" font-family="Helvetica,sans-Serif" font-size="10.00" fill="#000000">unsigned</text>
<polyline fill="none" stroke="#000000" points="1010,-425.5 1066,-425.5 "/>
<text text-anchor="middle" x="1038" y="-413.5" font-family="Helvetica,sans-Serif" font-size="10.00" fill="#000000"> </text>
<polyline fill="none" stroke="#000000" points="1010,-406.5 1066,-406.5 "/>
<text text-anchor="middle" x="1038" y="-394.5" font-family="Helvetica,sans-Serif" font-size="10.00" fill="#000000"> </text>
</a>
</g>
</g>
<!-- Node9&#45;&gt;Node3 -->
<g id="edge9" class="edge">
<title>Node9&#45;&gt;Node3</title>
<path fill="none" stroke="#404040" d="M1036.4974,-387.4465C1033.6099,-361.1323 1025.3563,-322.6791 1002,-299 957.2194,-253.6004 791.2789,-211.2323 682.9989,-187.56"/>
<polygon fill="none" stroke="#404040" points="682.8022,-187.5175 676.0914,-190.1569 671.074,-184.9775 677.7848,-182.3381 682.8022,-187.5175"/>
<text text-anchor="middle" x="1021" y="-273" font-family="Helvetica,sans-Serif" font-size="10.00" fill="#000000"> #mNumVariables</text>
<text text-anchor="middle" x="1021" y="-262" font-family="Helvetica,sans-Serif" font-size="10.00" fill="#000000">#mOpenDatasetIndex</text>
<text text-anchor="middle" x="1021" y="-251" font-family="Helvetica,sans-Serif" font-size="10.00" fill="#000000">#mPrecision</text>
</g>
<!-- Node10&#45;&gt;Node3 -->
<g id="edge10" class="edge">
<title>Node10&#45;&gt;Node3</title>
<path fill="none" stroke="#404040" d="M586,-299.2619C586,-279.7654 586,-260.0287 586,-241.9885"/>
<polygon fill="none" stroke="#404040" points="586.0001,-241.794 582,-235.794 586,-229.794 590,-235.794 586.0001,-241.794"/>
<text text-anchor="middle" x="616" y="-262" font-family="Helvetica,sans-Serif" font-size="10.00" fill="#000000"> #mrH5Folder</text>
</g>
<!-- Node11 -->
<g id="node10" class="node">
<title>Node11</title>
<polygon fill="#ffffff" stroke="#bfbfbf" points="640.5,-580.5 640.5,-637.5 681.5,-637.5 681.5,-580.5 640.5,-580.5"/>
<text text-anchor="middle" x="661" y="-625.5" font-family="Helvetica,sans-Serif" font-size="10.00" fill="#000000">Value</text>
<polyline fill="none" stroke="#bfbfbf" points="640.5,-618.5 681.5,-618.5 "/>
<text text-anchor="middle" x="661" y="-606.5" font-family="Helvetica,sans-Serif" font-size="10.00" fill="#000000"> </text>
<polyline fill="none" stroke="#bfbfbf" points="640.5,-599.5 681.5,-599.5 "/>
<text text-anchor="middle" x="661" y="-587.5" font-family="Helvetica,sans-Serif" font-size="10.00" fill="#000000"> </text>
</g>
<!-- Node11&#45;&gt;Node10 -->
<g id="edge12" class="edge">
<title>Node11&#45;&gt;Node10</title>
<path fill="none" stroke="#404040" d="M650.2113,-580.3592C646.663,-570.9928 642.6837,-560.5448 639,-551 638.097,-548.6601 637.184,-546.298 636.2631,-543.9188"/>
<polygon fill="none" stroke="#404040" points="636.2436,-543.8682 630.3447,-539.7204 631.9047,-532.68 637.8035,-536.8278 636.2436,-543.8682"/>
<text text-anchor="middle" x="674.5" y="-554" font-family="Helvetica,sans-Serif" font-size="10.00" fill="#000000"> &#45;msFakeWhat</text>
</g>
<!-- Node12 -->
<g id="node11" class="node">
<title>Node12</title>
<g id="a_node11"><a xlink:href="classbool.html" target="_top" xlink:title="{bool\n||}">
<polygon fill="#ffffff" stroke="#000000" points="731.5,-580.5 731.5,-637.5 766.5,-637.5 766.5,-580.5 731.5,-580.5"/>
<text text-anchor="middle" x="749" y="-625.5" font-family="Helvetica,sans-Serif" font-size="10.00" fill="#000000">bool</text>
<polyline fill="none" stroke="#000000" points="731.5,-618.5 766.5,-618.5 "/>
<text text-anchor="middle" x="749" y="-606.5" font-family="Helvetica,sans-Serif" font-size="10.00" fill="#000000"> </text>
<polyline fill="none" stroke="#000000" points="731.5,-599.5 766.5,-599.5 "/>
<text text-anchor="middle" x="749" y="-587.5" font-family="Helvetica,sans-Serif" font-size="10.00" fill="#000000"> </text>
</a>
</g>
</g>
<!-- Node12&#45;&gt;Node10 -->
<g id="edge13" class="edge">
<title>Node12&#45;&gt;Node10</title>
<path fill="none" stroke="#404040" d="M733.4948,-580.4533C727.2841,-570.4804 719.5629,-559.6317 711,-551 700.8428,-540.7613 694.7396,-542.626 684,-533 683.6948,-532.7264 683.3897,-532.4519 683.0847,-532.1764"/>
<polygon fill="none" stroke="#404040" points="683.0461,-532.1404 675.9318,-530.9626 674.2828,-523.9425 681.397,-525.1203 683.0461,-532.1404"/>
<text text-anchor="middle" x="743.5" y="-554" font-family="Helvetica,sans-Serif" font-size="10.00" fill="#000000"> &#45;msFaking</text>
</g>
</g>
</svg>
