<?xml version="1.0" encoding="UTF-8" standalone="no"?>
<!DOCTYPE svg PUBLIC "-//W3C//DTD SVG 1.1//EN"
 "http://www.w3.org/Graphics/SVG/1.1/DTD/svg11.dtd">
<!-- Generated by graphviz version 2.40.1 (20161225.0304)
 -->
<!-- Title: TysonNovakCellCycleModel Pages: 1 -->
<svg width="962pt" height="1826pt"
 viewBox="0.00 0.00 961.50 1826.00" xmlns="http://www.w3.org/2000/svg" xmlns:xlink="http://www.w3.org/1999/xlink">
<g id="graph0" class="graph" transform="scale(1 1) rotate(0) translate(4 1822)">
<title>TysonNovakCellCycleModel</title>
<polygon fill="#ffffff" stroke="transparent" points="-4,4 -4,-1822 957.5,-1822 957.5,4 -4,4"/>
<!-- Node5 -->
<g id="node1" class="node">
<title>Node5</title>
<polygon fill="#bfbfbf" stroke="#000000" points="348.5,-.5 348.5,-167.5 528.5,-167.5 528.5,-.5 348.5,-.5"/>
<text text-anchor="middle" x="438.5" y="-155.5" font-family="Helvetica,sans-Serif" font-size="10.00" fill="#000000">TysonNovakCellCycleModel</text>
<polyline fill="none" stroke="#000000" points="348.5,-148.5 528.5,-148.5 "/>
<text text-anchor="middle" x="438.5" y="-136.5" font-family="Helvetica,sans-Serif" font-size="10.00" fill="#000000"> </text>
<polyline fill="none" stroke="#000000" points="348.5,-129.5 528.5,-129.5 "/>
<text text-anchor="start" x="356.5" y="-117.5" font-family="Helvetica,sans-Serif" font-size="10.00" fill="#000000">+ TysonNovakCellCycleModel()</text>
<text text-anchor="start" x="356.5" y="-106.5" font-family="Helvetica,sans-Serif" font-size="10.00" fill="#000000">+ Initialise()</text>
<text text-anchor="start" x="356.5" y="-95.5" font-family="Helvetica,sans-Serif" font-size="10.00" fill="#000000">+ ResetForDivision()</text>
<text text-anchor="start" x="356.5" y="-84.5" font-family="Helvetica,sans-Serif" font-size="10.00" fill="#000000">+ CreateCellCycleModel()</text>
<text text-anchor="start" x="356.5" y="-73.5" font-family="Helvetica,sans-Serif" font-size="10.00" fill="#000000">+ InitialiseDaughterCell()</text>
<text text-anchor="start" x="356.5" y="-62.5" font-family="Helvetica,sans-Serif" font-size="10.00" fill="#000000">+ GetAverageTransitCellCycleTime()</text>
<text text-anchor="start" x="356.5" y="-51.5" font-family="Helvetica,sans-Serif" font-size="10.00" fill="#000000">+ GetAverageStemCellCycleTime()</text>
<text text-anchor="start" x="356.5" y="-40.5" font-family="Helvetica,sans-Serif" font-size="10.00" fill="#000000">+ CanCellTerminallyDifferentiate()</text>
<text text-anchor="start" x="356.5" y="-29.5" font-family="Helvetica,sans-Serif" font-size="10.00" fill="#000000">+ OutputCellCycleModelParameters()</text>
<text text-anchor="start" x="356.5" y="-18.5" font-family="Helvetica,sans-Serif" font-size="10.00" fill="#000000"># TysonNovakCellCycleModel()</text>
<text text-anchor="start" x="356.5" y="-7.5" font-family="Helvetica,sans-Serif" font-size="10.00" fill="#000000">&#45; serialize()</text>
</g>
<!-- Node6 -->
<g id="node2" class="node">
<title>Node6</title>
<g id="a_node2"><a xlink:href="classAbstractOdeBasedCellCycleModel.html" target="_top" xlink:title="{AbstractOdeBasedCellCycle\lModel\n||+ AbstractOdeBasedCellCycle\lModel()\l+ ~AbstractOdeBasedCellCycle\lModel()\l+ GetOdeStopTime()\l+ SetBirthTime()\l+ ReadyToDivide()\l+ ResetForDivision()\l+ OutputCellCycleModelParameters()\l# AbstractOdeBasedCellCycle\lModel()\l&#45; serialize()\l}">
<polygon fill="#ffffff" stroke="#000000" points="348.5,-205.5 348.5,-394.5 528.5,-394.5 528.5,-205.5 348.5,-205.5"/>
<text text-anchor="start" x="356.5" y="-382.5" font-family="Helvetica,sans-Serif" font-size="10.00" fill="#000000">AbstractOdeBasedCellCycle</text>
<text text-anchor="middle" x="438.5" y="-371.5" font-family="Helvetica,sans-Serif" font-size="10.00" fill="#000000">Model</text>
<polyline fill="none" stroke="#000000" points="348.5,-364.5 528.5,-364.5 "/>
<text text-anchor="middle" x="438.5" y="-352.5" font-family="Helvetica,sans-Serif" font-size="10.00" fill="#000000"> </text>
<polyline fill="none" stroke="#000000" points="348.5,-345.5 528.5,-345.5 "/>
<text text-anchor="start" x="356.5" y="-333.5" font-family="Helvetica,sans-Serif" font-size="10.00" fill="#000000">+ AbstractOdeBasedCellCycle</text>
<text text-anchor="start" x="356.5" y="-322.5" font-family="Helvetica,sans-Serif" font-size="10.00" fill="#000000">Model()</text>
<text text-anchor="start" x="356.5" y="-311.5" font-family="Helvetica,sans-Serif" font-size="10.00" fill="#000000">+ ~AbstractOdeBasedCellCycle</text>
<text text-anchor="start" x="356.5" y="-300.5" font-family="Helvetica,sans-Serif" font-size="10.00" fill="#000000">Model()</text>
<text text-anchor="start" x="356.5" y="-289.5" font-family="Helvetica,sans-Serif" font-size="10.00" fill="#000000">+ GetOdeStopTime()</text>
<text text-anchor="start" x="356.5" y="-278.5" font-family="Helvetica,sans-Serif" font-size="10.00" fill="#000000">+ SetBirthTime()</text>
<text text-anchor="start" x="356.5" y="-267.5" font-family="Helvetica,sans-Serif" font-size="10.00" fill="#000000">+ ReadyToDivide()</text>
<text text-anchor="start" x="356.5" y="-256.5" font-family="Helvetica,sans-Serif" font-size="10.00" fill="#000000">+ ResetForDivision()</text>
<text text-anchor="start" x="356.5" y="-245.5" font-family="Helvetica,sans-Serif" font-size="10.00" fill="#000000">+ OutputCellCycleModelParameters()</text>
<text text-anchor="start" x="356.5" y="-234.5" font-family="Helvetica,sans-Serif" font-size="10.00" fill="#000000"># AbstractOdeBasedCellCycle</text>
<text text-anchor="start" x="356.5" y="-223.5" font-family="Helvetica,sans-Serif" font-size="10.00" fill="#000000">Model()</text>
<text text-anchor="start" x="356.5" y="-212.5" font-family="Helvetica,sans-Serif" font-size="10.00" fill="#000000">&#45; serialize()</text>
</a>
</g>
</g>
<!-- Node6&#45;&gt;Node5 -->
<g id="edge1" class="edge">
<title>Node6&#45;&gt;Node5</title>
<path fill="none" stroke="#191970" d="M438.5,-194.9911C438.5,-185.8735 438.5,-176.7275 438.5,-167.8131"/>
<polygon fill="none" stroke="#191970" points="435.0001,-195.2592 438.5,-205.2593 442.0001,-195.2593 435.0001,-195.2592"/>
</g>
<!-- Node7 -->
<g id="node3" class="node">
<title>Node7</title>
<g id="a_node3"><a xlink:href="classAbstractCellCycleModel.html" target="_top" xlink:title="{AbstractCellCycleModel\n||+ AbstractCellCycleModel()\l+ ~AbstractCellCycleModel()\l+ SetCell()\l+ Initialise()\l+ InitialiseDaughterCell()\l+ GetCell()\l+ SetBirthTime()\l+ SetDimension()\l+ GetDimension()\l+ GetBirthTime()\land 9 more...\l# AbstractCellCycleModel()\l&#45; serialize()\l&#45; operator=()\l}">
<polygon fill="#ffffff" stroke="#000000" points="197,-449 197,-649 340,-649 340,-449 197,-449"/>
<text text-anchor="middle" x="268.5" y="-637" font-family="Helvetica,sans-Serif" font-size="10.00" fill="#000000">AbstractCellCycleModel</text>
<polyline fill="none" stroke="#000000" points="197,-630 340,-630 "/>
<text text-anchor="middle" x="268.5" y="-618" font-family="Helvetica,sans-Serif" font-size="10.00" fill="#000000"> </text>
<polyline fill="none" stroke="#000000" points="197,-611 340,-611 "/>
<text text-anchor="start" x="205" y="-599" font-family="Helvetica,sans-Serif" font-size="10.00" fill="#000000">+ AbstractCellCycleModel()</text>
<text text-anchor="start" x="205" y="-588" font-family="Helvetica,sans-Serif" font-size="10.00" fill="#000000">+ ~AbstractCellCycleModel()</text>
<text text-anchor="start" x="205" y="-577" font-family="Helvetica,sans-Serif" font-size="10.00" fill="#000000">+ SetCell()</text>
<text text-anchor="start" x="205" y="-566" font-family="Helvetica,sans-Serif" font-size="10.00" fill="#000000">+ Initialise()</text>
<text text-anchor="start" x="205" y="-555" font-family="Helvetica,sans-Serif" font-size="10.00" fill="#000000">+ InitialiseDaughterCell()</text>
<text text-anchor="start" x="205" y="-544" font-family="Helvetica,sans-Serif" font-size="10.00" fill="#000000">+ GetCell()</text>
<text text-anchor="start" x="205" y="-533" font-family="Helvetica,sans-Serif" font-size="10.00" fill="#000000">+ SetBirthTime()</text>
<text text-anchor="start" x="205" y="-522" font-family="Helvetica,sans-Serif" font-size="10.00" fill="#000000">+ SetDimension()</text>
<text text-anchor="start" x="205" y="-511" font-family="Helvetica,sans-Serif" font-size="10.00" fill="#000000">+ GetDimension()</text>
<text text-anchor="start" x="205" y="-500" font-family="Helvetica,sans-Serif" font-size="10.00" fill="#000000">+ GetBirthTime()</text>
<text text-anchor="start" x="205" y="-489" font-family="Helvetica,sans-Serif" font-size="10.00" fill="#000000">and 9 more...</text>
<text text-anchor="start" x="205" y="-478" font-family="Helvetica,sans-Serif" font-size="10.00" fill="#000000"># AbstractCellCycleModel()</text>
<text text-anchor="start" x="205" y="-467" font-family="Helvetica,sans-Serif" font-size="10.00" fill="#000000">&#45; serialize()</text>
<text text-anchor="start" x="205" y="-456" font-family="Helvetica,sans-Serif" font-size="10.00" fill="#000000">&#45; operator=()</text>
</a>
</g>
</g>
<!-- Node7&#45;&gt;Node6 -->
<g id="edge2" class="edge">
<title>Node7&#45;&gt;Node6</title>
<path fill="none" stroke="#191970" d="M342.65,-440.392C353.0287,-425.1903 363.6268,-409.6672 373.8117,-394.7494"/>
<polygon fill="none" stroke="#191970" points="339.6586,-438.5662 336.9107,-448.7985 345.4398,-442.5132 339.6586,-438.5662"/>
</g>
<!-- Node8 -->
<g id="node4" class="node">
<title>Node8</title>
<g id="a_node4"><a xlink:href="classIdentifiable.html" target="_top" xlink:title="{Identifiable\n||+ ~Identifiable()\l+ GetIdentifier()\l&#45; TidyTemplatedExportIdentifier()\l}">
<polygon fill="#ffffff" stroke="#000000" points="0,-757.5 0,-836.5 159,-836.5 159,-757.5 0,-757.5"/>
<text text-anchor="middle" x="79.5" y="-824.5" font-family="Helvetica,sans-Serif" font-size="10.00" fill="#000000">Identifiable</text>
<polyline fill="none" stroke="#000000" points="0,-817.5 159,-817.5 "/>
<text text-anchor="middle" x="79.5" y="-805.5" font-family="Helvetica,sans-Serif" font-size="10.00" fill="#000000"> </text>
<polyline fill="none" stroke="#000000" points="0,-798.5 159,-798.5 "/>
<text text-anchor="start" x="8" y="-786.5" font-family="Helvetica,sans-Serif" font-size="10.00" fill="#000000">+ ~Identifiable()</text>
<text text-anchor="start" x="8" y="-775.5" font-family="Helvetica,sans-Serif" font-size="10.00" fill="#000000">+ GetIdentifier()</text>
<text text-anchor="start" x="8" y="-764.5" font-family="Helvetica,sans-Serif" font-size="10.00" fill="#000000">&#45; TidyTemplatedExportIdentifier()</text>
</a>
</g>
</g>
<!-- Node8&#45;&gt;Node7 -->
<g id="edge3" class="edge">
<title>Node8&#45;&gt;Node7</title>
<path fill="none" stroke="#191970" d="M115.9166,-749.2152C138.8417,-719.1336 169.2168,-679.2764 196.8267,-643.0475"/>
<polygon fill="none" stroke="#191970" points="112.9343,-747.3543 109.6566,-757.4294 118.5018,-751.5973 112.9343,-747.3543"/>
</g>
<!-- Node9 -->
<g id="node5" class="node">
<title>Node9</title>
<g id="a_node5"><a xlink:href="classdouble.html" target="_top" xlink:title="{double\n||}">
<polygon fill="#ffffff" stroke="#000000" points="452,-768.5 452,-825.5 497,-825.5 497,-768.5 452,-768.5"/>
<text text-anchor="middle" x="474.5" y="-813.5" font-family="Helvetica,sans-Serif" font-size="10.00" fill="#000000">double</text>
<polyline fill="none" stroke="#000000" points="452,-806.5 497,-806.5 "/>
<text text-anchor="middle" x="474.5" y="-794.5" font-family="Helvetica,sans-Serif" font-size="10.00" fill="#000000"> </text>
<polyline fill="none" stroke="#000000" points="452,-787.5 497,-787.5 "/>
<text text-anchor="middle" x="474.5" y="-775.5" font-family="Helvetica,sans-Serif" font-size="10.00" fill="#000000"> </text>
</a>
</g>
</g>
<!-- Node9&#45;&gt;Node6 -->
<g id="edge22" class="edge">
<title>Node9&#45;&gt;Node6</title>
<path fill="none" stroke="#404040" d="M467.0558,-768.3599C460.5682,-741.9789 451.5783,-701.644 447.5,-666 437.5791,-579.2924 435.7113,-480.3075 436.112,-407.1588"/>
<polygon fill="none" stroke="#404040" points="436.1151,-406.7301 432.1593,-400.7009 436.2033,-394.7304 440.1591,-400.7596 436.1151,-406.7301"/>
<text text-anchor="middle" x="481" y="-546.5" font-family="Helvetica,sans-Serif" font-size="10.00" fill="#000000"> #mDivideTime</text>
</g>
<!-- Node9&#45;&gt;Node7 -->
<g id="edge4" class="edge">
<title>Node9&#45;&gt;Node7</title>
<path fill="none" stroke="#404040" d="M468.4966,-768.2685C463.8679,-753.0058 455.9065,-735.1475 442.5,-724 415.4766,-701.5301 394.0319,-726.5205 365.5,-706 355.1708,-698.5711 341.9145,-680.6405 328.5414,-659.4393"/>
<polygon fill="none" stroke="#404040" points="328.4928,-659.3606 321.9376,-656.3557 322.1901,-649.149 328.7453,-652.1539 328.4928,-659.3606"/>
<text text-anchor="middle" x="395" y="-692.5" font-family="Helvetica,sans-Serif" font-size="10.00" fill="#000000"> #mBirthTime</text>
</g>
<!-- Node13 -->
<g id="node9" class="node">
<title>Node13</title>
<g id="a_node9"><a xlink:href="classCellCycleModelOdeHandler.html" target="_top" xlink:title="{CellCycleModelOdeHandler\n||+ CellCycleModelOdeHandler()\l+ ~CellCycleModelOdeHandler()\l+ GetOdeSystem()\l+ SetOdeSystem()\l+ GetOdeSolver()\l+ SetLastTime()\l+ GetDt()\l+ SetDt()\l+ SetStateVariables()\l+ GetProteinConcentrations()\l+ SetProteinConcentrations\lForTestsOnly()\l# CellCycleModelOdeHandler()\l# SolveOdeToTime()\l# AdjustOdeParameters()\l&#45; serialize()\l&#45; operator=()\l}">
<polygon fill="#ffffff" stroke="#000000" points="523.5,-432.5 523.5,-665.5 681.5,-665.5 681.5,-432.5 523.5,-432.5"/>
<text text-anchor="middle" x="602.5" y="-653.5" font-family="Helvetica,sans-Serif" font-size="10.00" fill="#000000">CellCycleModelOdeHandler</text>
<polyline fill="none" stroke="#000000" points="523.5,-646.5 681.5,-646.5 "/>
<text text-anchor="middle" x="602.5" y="-634.5" font-family="Helvetica,sans-Serif" font-size="10.00" fill="#000000"> </text>
<polyline fill="none" stroke="#000000" points="523.5,-627.5 681.5,-627.5 "/>
<text text-anchor="start" x="531.5" y="-615.5" font-family="Helvetica,sans-Serif" font-size="10.00" fill="#000000">+ CellCycleModelOdeHandler()</text>
<text text-anchor="start" x="531.5" y="-604.5" font-family="Helvetica,sans-Serif" font-size="10.00" fill="#000000">+ ~CellCycleModelOdeHandler()</text>
<text text-anchor="start" x="531.5" y="-593.5" font-family="Helvetica,sans-Serif" font-size="10.00" fill="#000000">+ GetOdeSystem()</text>
<text text-anchor="start" x="531.5" y="-582.5" font-family="Helvetica,sans-Serif" font-size="10.00" fill="#000000">+ SetOdeSystem()</text>
<text text-anchor="start" x="531.5" y="-571.5" font-family="Helvetica,sans-Serif" font-size="10.00" fill="#000000">+ GetOdeSolver()</text>
<text text-anchor="start" x="531.5" y="-560.5" font-family="Helvetica,sans-Serif" font-size="10.00" fill="#000000">+ SetLastTime()</text>
<text text-anchor="start" x="531.5" y="-549.5" font-family="Helvetica,sans-Serif" font-size="10.00" fill="#000000">+ GetDt()</text>
<text text-anchor="start" x="531.5" y="-538.5" font-family="Helvetica,sans-Serif" font-size="10.00" fill="#000000">+ SetDt()</text>
<text text-anchor="start" x="531.5" y="-527.5" font-family="Helvetica,sans-Serif" font-size="10.00" fill="#000000">+ SetStateVariables()</text>
<text text-anchor="start" x="531.5" y="-516.5" font-family="Helvetica,sans-Serif" font-size="10.00" fill="#000000">+ GetProteinConcentrations()</text>
<text text-anchor="start" x="531.5" y="-505.5" font-family="Helvetica,sans-Serif" font-size="10.00" fill="#000000">+ SetProteinConcentrations</text>
<text text-anchor="start" x="531.5" y="-494.5" font-family="Helvetica,sans-Serif" font-size="10.00" fill="#000000">ForTestsOnly()</text>
<text text-anchor="start" x="531.5" y="-483.5" font-family="Helvetica,sans-Serif" font-size="10.00" fill="#000000"># CellCycleModelOdeHandler()</text>
<text text-anchor="start" x="531.5" y="-472.5" font-family="Helvetica,sans-Serif" font-size="10.00" fill="#000000"># SolveOdeToTime()</text>
<text text-anchor="start" x="531.5" y="-461.5" font-family="Helvetica,sans-Serif" font-size="10.00" fill="#000000"># AdjustOdeParameters()</text>
<text text-anchor="start" x="531.5" y="-450.5" font-family="Helvetica,sans-Serif" font-size="10.00" fill="#000000">&#45; serialize()</text>
<text text-anchor="start" x="531.5" y="-439.5" font-family="Helvetica,sans-Serif" font-size="10.00" fill="#000000">&#45; operator=()</text>
</a>
</g>
</g>
<!-- Node9&#45;&gt;Node13 -->
<g id="edge9" class="edge">
<title>Node9&#45;&gt;Node13</title>
<path fill="none" stroke="#404040" d="M465.8365,-768.2413C460.3062,-743.9191 456.787,-709.118 472.5,-684 482.1985,-668.4965 495.2344,-677.4416 509.5,-666 511.1351,-664.6885 512.7597,-663.3434 514.3727,-661.9679"/>
<polygon fill="none" stroke="#404040" points="514.5537,-661.8052 516.3416,-654.8192 523.4778,-653.7827 521.6899,-660.7687 514.5537,-661.8052"/>
<text text-anchor="middle" x="500" y="-698" font-family="Helvetica,sans-Serif" font-size="10.00" fill="#000000"> #mDt</text>
<text text-anchor="middle" x="500" y="-687" font-family="Helvetica,sans-Serif" font-size="10.00" fill="#000000">#mLastTime</text>
</g>
<!-- Node10 -->
<g id="node6" class="node">
<title>Node10</title>
<polygon fill="#ffffff" stroke="#bfbfbf" points="335.5,-768.5 335.5,-825.5 433.5,-825.5 433.5,-768.5 335.5,-768.5"/>
<text text-anchor="middle" x="384.5" y="-813.5" font-family="Helvetica,sans-Serif" font-size="10.00" fill="#000000">shared_ptr&lt; Cell &gt;</text>
<polyline fill="none" stroke="#bfbfbf" points="335.5,-806.5 433.5,-806.5 "/>
<text text-anchor="middle" x="384.5" y="-794.5" font-family="Helvetica,sans-Serif" font-size="10.00" fill="#000000"> </text>
<polyline fill="none" stroke="#bfbfbf" points="335.5,-787.5 433.5,-787.5 "/>
<text text-anchor="middle" x="384.5" y="-775.5" font-family="Helvetica,sans-Serif" font-size="10.00" fill="#000000"> </text>
</g>
<!-- Node10&#45;&gt;Node7 -->
<g id="edge5" class="edge">
<title>Node10&#45;&gt;Node7</title>
<path fill="none" stroke="#404040" d="M360.9115,-768.3366C349.3465,-754.6327 335.0249,-738.1672 321.5,-724 313.4677,-715.5863 308.2074,-716.1358 302.5,-706 294.7034,-692.1541 288.6932,-676.6945 284.0602,-661.0252"/>
<polygon fill="none" stroke="#404040" points="283.9442,-660.6004 278.5033,-655.8678 280.7791,-649.0252 286.22,-653.7578 283.9442,-660.6004"/>
<text text-anchor="middle" x="322.5" y="-692.5" font-family="Helvetica,sans-Serif" font-size="10.00" fill="#000000"> #mpCell</text>
</g>
<!-- Node11 -->
<g id="node7" class="node">
<title>Node11</title>
<g id="a_node7"><a xlink:href="classbool.html" target="_top" xlink:title="{bool\n||}">
<polygon fill="#ffffff" stroke="#000000" points="521,-1005.5 521,-1062.5 556,-1062.5 556,-1005.5 521,-1005.5"/>
<text text-anchor="middle" x="538.5" y="-1050.5" font-family="Helvetica,sans-Serif" font-size="10.00" fill="#000000">bool</text>
<polyline fill="none" stroke="#000000" points="521,-1043.5 556,-1043.5 "/>
<text text-anchor="middle" x="538.5" y="-1031.5" font-family="Helvetica,sans-Serif" font-size="10.00" fill="#000000"> </text>
<polyline fill="none" stroke="#000000" points="521,-1024.5 556,-1024.5 "/>
<text text-anchor="middle" x="538.5" y="-1012.5" font-family="Helvetica,sans-Serif" font-size="10.00" fill="#000000"> </text>
</a>
</g>
</g>
<!-- Node11&#45;&gt;Node7 -->
<g id="edge6" class="edge">
<title>Node11&#45;&gt;Node7</title>
<path fill="none" stroke="#404040" d="M520.8193,-1030.6618C466.9957,-1019.4369 304.964,-977.5407 241.5,-870 204.7074,-807.6544 212.0254,-726.2874 228.2527,-661.0748"/>
<polygon fill="none" stroke="#404040" points="228.3489,-660.7058 225.9928,-653.8905 231.3778,-649.0943 233.7338,-655.9097 228.3489,-660.7058"/>
<text text-anchor="middle" x="284" y="-794.5" font-family="Helvetica,sans-Serif" font-size="10.00" fill="#000000"> #mReadyToDivide</text>
</g>
<!-- Node11&#45;&gt;Node13 -->
<g id="edge20" class="edge">
<title>Node11&#45;&gt;Node13</title>
<path fill="none" stroke="#404040" d="M536.8833,-1005.1126C534.36,-950.0027 531.395,-826.2353 548.5,-724 551.0504,-708.7563 554.5792,-692.992 558.6229,-677.4544"/>
<polygon fill="none" stroke="#404040" points="558.687,-677.2164 556.3851,-670.3826 561.8079,-665.6293 564.1098,-672.4632 558.687,-677.2164"/>
<text text-anchor="middle" x="605" y="-794.5" font-family="Helvetica,sans-Serif" font-size="10.00" fill="#000000"> #mFinishedRunningOdes</text>
</g>
<!-- Node14 -->
<g id="node10" class="node">
<title>Node14</title>
<g id="a_node10"><a xlink:href="classAbstractOdeSystem.html" target="_top" xlink:title="{AbstractOdeSystem\n||+ AbstractOdeSystem()\l+ ~AbstractOdeSystem()\l+ EvaluateYDerivatives()\l+ CalculateStoppingEvent()\l+ CalculateRootFunction()\l+ GetUseAnalyticJacobian()\l+ rGetConstStateVariables()\l&#45; save()\l&#45; load()\l}">
<polygon fill="#ffffff" stroke="#000000" points="813.5,-724.5 813.5,-869.5 953.5,-869.5 953.5,-724.5 813.5,-724.5"/>
<text text-anchor="middle" x="883.5" y="-857.5" font-family="Helvetica,sans-Serif" font-size="10.00" fill="#000000">AbstractOdeSystem</text>
<polyline fill="none" stroke="#000000" points="813.5,-850.5 953.5,-850.5 "/>
<text text-anchor="middle" x="883.5" y="-838.5" font-family="Helvetica,sans-Serif" font-size="10.00" fill="#000000"> </text>
<polyline fill="none" stroke="#000000" points="813.5,-831.5 953.5,-831.5 "/>
<text text-anchor="start" x="821.5" y="-819.5" font-family="Helvetica,sans-Serif" font-size="10.00" fill="#000000">+ AbstractOdeSystem()</text>
<text text-anchor="start" x="821.5" y="-808.5" font-family="Helvetica,sans-Serif" font-size="10.00" fill="#000000">+ ~AbstractOdeSystem()</text>
<text text-anchor="start" x="821.5" y="-797.5" font-family="Helvetica,sans-Serif" font-size="10.00" fill="#000000">+ EvaluateYDerivatives()</text>
<text text-anchor="start" x="821.5" y="-786.5" font-family="Helvetica,sans-Serif" font-size="10.00" fill="#000000">+ CalculateStoppingEvent()</text>
<text text-anchor="start" x="821.5" y="-775.5" font-family="Helvetica,sans-Serif" font-size="10.00" fill="#000000">+ CalculateRootFunction()</text>
<text text-anchor="start" x="821.5" y="-764.5" font-family="Helvetica,sans-Serif" font-size="10.00" fill="#000000">+ GetUseAnalyticJacobian()</text>
<text text-anchor="start" x="821.5" y="-753.5" font-family="Helvetica,sans-Serif" font-size="10.00" fill="#000000">+ rGetConstStateVariables()</text>
<text text-anchor="start" x="821.5" y="-742.5" font-family="Helvetica,sans-Serif" font-size="10.00" fill="#000000">&#45; save()</text>
<text text-anchor="start" x="821.5" y="-731.5" font-family="Helvetica,sans-Serif" font-size="10.00" fill="#000000">&#45; load()</text>
</a>
</g>
</g>
<!-- Node11&#45;&gt;Node14 -->
<g id="edge19" class="edge">
<title>Node11&#45;&gt;Node14</title>
<path fill="none" stroke="#404040" d="M542.4561,-1005.3984C547.6131,-978.861 559.1772,-940.0862 584.5,-917 655.5732,-852.2044 710.0682,-908.6011 802.3342,-870.2159"/>
<polygon fill="none" stroke="#404040" points="802.5337,-870.1261 806.3612,-864.0146 813.4747,-865.1972 809.6471,-871.3087 802.5337,-870.1261"/>
<text text-anchor="middle" x="685" y="-891" font-family="Helvetica,sans-Serif" font-size="10.00" fill="#000000"> #mUseAnalyticJacobian</text>
</g>
<!-- Node12 -->
<g id="node8" class="node">
<title>Node12</title>
<g id="a_node8"><a xlink:href="classunsigned.html" target="_top" xlink:title="{unsigned\n||}">
<polygon fill="#ffffff" stroke="#000000" points="337.5,-1755 337.5,-1812 393.5,-1812 393.5,-1755 337.5,-1755"/>
<text text-anchor="middle" x="365.5" y="-1800" font-family="Helvetica,sans-Serif" font-size="10.00" fill="#000000">unsigned</text>
<polyline fill="none" stroke="#000000" points="337.5,-1793 393.5,-1793 "/>
<text text-anchor="middle" x="365.5" y="-1781" font-family="Helvetica,sans-Serif" font-size="10.00" fill="#000000"> </text>
<polyline fill="none" stroke="#000000" points="337.5,-1774 393.5,-1774 "/>
<text text-anchor="middle" x="365.5" y="-1762" font-family="Helvetica,sans-Serif" font-size="10.00" fill="#000000"> </text>
</a>
</g>
</g>
<!-- Node12&#45;&gt;Node7 -->
<g id="edge7" class="edge">
<title>Node12&#45;&gt;Node7</title>
<path fill="none" stroke="#404040" d="M337.1369,-1770.8243C286.6638,-1746.1089 186.5,-1686.3699 186.5,-1601.5 186.5,-1601.5 186.5,-1601.5 186.5,-797 186.5,-750.8911 199.4356,-702.2869 215.0313,-660.4433"/>
<polygon fill="none" stroke="#404040" points="215.0804,-660.315 213.4958,-653.2802 219.3801,-649.1117 220.9647,-656.1466 215.0804,-660.315"/>
<text text-anchor="middle" x="218.5" y="-1177.5" font-family="Helvetica,sans-Serif" font-size="10.00" fill="#000000"> #mDimension</text>
</g>
<!-- Node16 -->
<g id="node12" class="node">
<title>Node16</title>
<g id="a_node12"><a xlink:href="classAbstractUntemplatedParameterisedSystem.html" target="_top" xlink:title="{AbstractUntemplatedParameterised\lSystem\n||+ AbstractUntemplatedParameterised\lSystem()\l+ ~AbstractUntemplatedParameterised\lSystem()\l+ GetSystemInformation()\l+ GetSystemName()\l+ GetNumberOfAttributes()\l+ HasAttribute()\l+ GetAttribute()\l+ GetNumberOfStateVariables()\l+ rGetStateVariableNames()\l+ rGetStateVariableUnits()\land 20 more...\l}">
<polygon fill="#ffffff" stroke="#000000" points="480,-1501.5 480,-1701.5 667,-1701.5 667,-1501.5 480,-1501.5"/>
<text text-anchor="start" x="488" y="-1689.5" font-family="Helvetica,sans-Serif" font-size="10.00" fill="#000000">AbstractUntemplatedParameterised</text>
<text text-anchor="middle" x="573.5" y="-1678.5" font-family="Helvetica,sans-Serif" font-size="10.00" fill="#000000">System</text>
<polyline fill="none" stroke="#000000" points="480,-1671.5 667,-1671.5 "/>
<text text-anchor="middle" x="573.5" y="-1659.5" font-family="Helvetica,sans-Serif" font-size="10.00" fill="#000000"> </text>
<polyline fill="none" stroke="#000000" points="480,-1652.5 667,-1652.5 "/>
<text text-anchor="start" x="488" y="-1640.5" font-family="Helvetica,sans-Serif" font-size="10.00" fill="#000000">+ AbstractUntemplatedParameterised</text>
<text text-anchor="start" x="488" y="-1629.5" font-family="Helvetica,sans-Serif" font-size="10.00" fill="#000000">System()</text>
<text text-anchor="start" x="488" y="-1618.5" font-family="Helvetica,sans-Serif" font-size="10.00" fill="#000000">+ ~AbstractUntemplatedParameterised</text>
<text text-anchor="start" x="488" y="-1607.5" font-family="Helvetica,sans-Serif" font-size="10.00" fill="#000000">System()</text>
<text text-anchor="start" x="488" y="-1596.5" font-family="Helvetica,sans-Serif" font-size="10.00" fill="#000000">+ GetSystemInformation()</text>
<text text-anchor="start" x="488" y="-1585.5" font-family="Helvetica,sans-Serif" font-size="10.00" fill="#000000">+ GetSystemName()</text>
<text text-anchor="start" x="488" y="-1574.5" font-family="Helvetica,sans-Serif" font-size="10.00" fill="#000000">+ GetNumberOfAttributes()</text>
<text text-anchor="start" x="488" y="-1563.5" font-family="Helvetica,sans-Serif" font-size="10.00" fill="#000000">+ HasAttribute()</text>
<text text-anchor="start" x="488" y="-1552.5" font-family="Helvetica,sans-Serif" font-size="10.00" fill="#000000">+ GetAttribute()</text>
<text text-anchor="start" x="488" y="-1541.5" font-family="Helvetica,sans-Serif" font-size="10.00" fill="#000000">+ GetNumberOfStateVariables()</text>
<text text-anchor="start" x="488" y="-1530.5" font-family="Helvetica,sans-Serif" font-size="10.00" fill="#000000">+ rGetStateVariableNames()</text>
<text text-anchor="start" x="488" y="-1519.5" font-family="Helvetica,sans-Serif" font-size="10.00" fill="#000000">+ rGetStateVariableUnits()</text>
<text text-anchor="start" x="488" y="-1508.5" font-family="Helvetica,sans-Serif" font-size="10.00" fill="#000000">and 20 more...</text>
</a>
</g>
</g>
<!-- Node12&#45;&gt;Node16 -->
<g id="edge14" class="edge">
<title>Node12&#45;&gt;Node16</title>
<path fill="none" stroke="#404040" d="M393.7879,-1759.191C408.3364,-1747.0207 426.5354,-1732.2994 443.5,-1720 453.2317,-1712.9445 458.007,-1711.5718 470.1901,-1702.6249"/>
<polygon fill="none" stroke="#404040" points="470.4728,-1702.406 472.767,-1695.5696 479.96,-1695.0579 477.6657,-1701.8944 470.4728,-1702.406"/>
<text text-anchor="middle" x="506.5" y="-1723" font-family="Helvetica,sans-Serif" font-size="10.00" fill="#000000"> #mNumberOfStateVariables</text>
</g>
<!-- Node13&#45;&gt;Node6 -->
<g id="edge8" class="edge">
<title>Node13&#45;&gt;Node6</title>
<path fill="none" stroke="#191970" d="M519.9355,-423.643C513.5526,-413.9518 507.1742,-404.2675 500.955,-394.825"/>
<polygon fill="none" stroke="#191970" points="517.1186,-425.7292 525.5421,-432.1554 522.9645,-421.8788 517.1186,-425.7292"/>
</g>
<!-- Node14&#45;&gt;Node13 -->
<g id="edge10" class="edge">
<title>Node14&#45;&gt;Node13</title>
<path fill="none" stroke="#404040" d="M813.3956,-732.0037C810.3971,-729.2922 807.4225,-726.615 804.5,-724 767.6796,-691.0539 726.5408,-655.2377 691.0466,-624.6395"/>
<polygon fill="none" stroke="#404040" points="690.7663,-624.3981 683.6097,-623.5136 681.6735,-616.5673 688.8302,-617.4517 690.7663,-624.3981"/>
<text text-anchor="middle" x="819.5" y="-692.5" font-family="Helvetica,sans-Serif" font-size="10.00" fill="#000000"> #mpOdeSystem</text>
</g>
<!-- Node15 -->
<g id="node11" class="node">
<title>Node15</title>
<g id="a_node11"><a xlink:href="classAbstractParameterisedSystem.html" target="_top" xlink:title="{AbstractParameterisedSystem\l\&lt; std::vector\&lt; double \&gt; \&gt;\n||+ AbstractParameterisedSystem()\l+ rGetStateVariables()\l+ GetStateVariables()\l+ SetStateVariables()\l+ GetStateVariable()\l+ GetStateVariable()\l+ SetStateVariable()\l+ SetStateVariable()\l+ VerifyStateVariables()\l+ SetDefaultInitialConditions()\land 13 more...\l# DumpState()\l# DumpState()\l# DumpState()\l# CheckParametersOnLoad()\l&#45; GetStateMessage()\l}">
<polygon fill="#ffffff" stroke="#000000" points="593,-917.5 593,-1150.5 758,-1150.5 758,-917.5 593,-917.5"/>
<text text-anchor="start" x="601" y="-1138.5" font-family="Helvetica,sans-Serif" font-size="10.00" fill="#000000">AbstractParameterisedSystem</text>
<text text-anchor="middle" x="675.5" y="-1127.5" font-family="Helvetica,sans-Serif" font-size="10.00" fill="#000000">&lt; std::vector&lt; double &gt; &gt;</text>
<polyline fill="none" stroke="#000000" points="593,-1120.5 758,-1120.5 "/>
<text text-anchor="middle" x="675.5" y="-1108.5" font-family="Helvetica,sans-Serif" font-size="10.00" fill="#000000"> </text>
<polyline fill="none" stroke="#000000" points="593,-1101.5 758,-1101.5 "/>
<text text-anchor="start" x="601" y="-1089.5" font-family="Helvetica,sans-Serif" font-size="10.00" fill="#000000">+ AbstractParameterisedSystem()</text>
<text text-anchor="start" x="601" y="-1078.5" font-family="Helvetica,sans-Serif" font-size="10.00" fill="#000000">+ rGetStateVariables()</text>
<text text-anchor="start" x="601" y="-1067.5" font-family="Helvetica,sans-Serif" font-size="10.00" fill="#000000">+ GetStateVariables()</text>
<text text-anchor="start" x="601" y="-1056.5" font-family="Helvetica,sans-Serif" font-size="10.00" fill="#000000">+ SetStateVariables()</text>
<text text-anchor="start" x="601" y="-1045.5" font-family="Helvetica,sans-Serif" font-size="10.00" fill="#000000">+ GetStateVariable()</text>
<text text-anchor="start" x="601" y="-1034.5" font-family="Helvetica,sans-Serif" font-size="10.00" fill="#000000">+ GetStateVariable()</text>
<text text-anchor="start" x="601" y="-1023.5" font-family="Helvetica,sans-Serif" font-size="10.00" fill="#000000">+ SetStateVariable()</text>
<text text-anchor="start" x="601" y="-1012.5" font-family="Helvetica,sans-Serif" font-size="10.00" fill="#000000">+ SetStateVariable()</text>
<text text-anchor="start" x="601" y="-1001.5" font-family="Helvetica,sans-Serif" font-size="10.00" fill="#000000">+ VerifyStateVariables()</text>
<text text-anchor="start" x="601" y="-990.5" font-family="Helvetica,sans-Serif" font-size="10.00" fill="#000000">+ SetDefaultInitialConditions()</text>
<text text-anchor="start" x="601" y="-979.5" font-family="Helvetica,sans-Serif" font-size="10.00" fill="#000000">and 13 more...</text>
<text text-anchor="start" x="601" y="-968.5" font-family="Helvetica,sans-Serif" font-size="10.00" fill="#000000"># DumpState()</text>
<text text-anchor="start" x="601" y="-957.5" font-family="Helvetica,sans-Serif" font-size="10.00" fill="#000000"># DumpState()</text>
<text text-anchor="start" x="601" y="-946.5" font-family="Helvetica,sans-Serif" font-size="10.00" fill="#000000"># DumpState()</text>
<text text-anchor="start" x="601" y="-935.5" font-family="Helvetica,sans-Serif" font-size="10.00" fill="#000000"># CheckParametersOnLoad()</text>
<text text-anchor="start" x="601" y="-924.5" font-family="Helvetica,sans-Serif" font-size="10.00" fill="#000000">&#45; GetStateMessage()</text>
</a>
</g>
</g>
<!-- Node15&#45;&gt;Node14 -->
<g id="edge11" class="edge">
<title>Node15&#45;&gt;Node14</title>
<path fill="none" stroke="#191970" d="M764.7796,-932.2728C783.2551,-911.2213 802.3633,-889.4491 819.7078,-869.6863"/>
<polygon fill="none" stroke="#191970" points="761.9716,-930.1663 758.0059,-939.9909 767.2327,-934.7837 761.9716,-930.1663"/>
</g>
<!-- Node16&#45;&gt;Node15 -->
<g id="edge12" class="edge">
<title>Node16&#45;&gt;Node15</title>
<path fill="none" stroke="#191970" d="M657.456,-1492.6808C666.8475,-1476.6653 675.2602,-1459.8636 681.5,-1443 723.9793,-1328.195 724.5625,-1290.4817 709.5,-1169 708.7565,-1163.0036 707.834,-1156.8909 706.7745,-1150.7418"/>
<polygon fill="none" stroke="#191970" points="654.3094,-1491.1214 652.1455,-1501.4929 660.3049,-1494.7345 654.3094,-1491.1214"/>
</g>
<!-- Node19 -->
<g id="node15" class="node">
<title>Node19</title>
<g id="a_node15"><a xlink:href="classAbstractParameterisedSystem.html" target="_top" xlink:title="{AbstractParameterisedSystem\l\&lt; VECTOR \&gt;\n||+ AbstractParameterisedSystem()\l+ rGetStateVariables()\l+ GetStateVariables()\l+ SetStateVariables()\l+ GetStateVariable()\l+ GetStateVariable()\l+ SetStateVariable()\l+ SetStateVariable()\l+ VerifyStateVariables()\l+ SetDefaultInitialConditions()\land 13 more...\l# DumpState()\l# DumpState()\l# DumpState()\l# CheckParametersOnLoad()\l&#45; GetStateMessage()\l}">
<polygon fill="#ffffff" stroke="#000000" points="399,-1209.5 399,-1442.5 564,-1442.5 564,-1209.5 399,-1209.5"/>
<text text-anchor="start" x="407" y="-1430.5" font-family="Helvetica,sans-Serif" font-size="10.00" fill="#000000">AbstractParameterisedSystem</text>
<text text-anchor="middle" x="481.5" y="-1419.5" font-family="Helvetica,sans-Serif" font-size="10.00" fill="#000000">&lt; VECTOR &gt;</text>
<polyline fill="none" stroke="#000000" points="399,-1412.5 564,-1412.5 "/>
<text text-anchor="middle" x="481.5" y="-1400.5" font-family="Helvetica,sans-Serif" font-size="10.00" fill="#000000"> </text>
<polyline fill="none" stroke="#000000" points="399,-1393.5 564,-1393.5 "/>
<text text-anchor="start" x="407" y="-1381.5" font-family="Helvetica,sans-Serif" font-size="10.00" fill="#000000">+ AbstractParameterisedSystem()</text>
<text text-anchor="start" x="407" y="-1370.5" font-family="Helvetica,sans-Serif" font-size="10.00" fill="#000000">+ rGetStateVariables()</text>
<text text-anchor="start" x="407" y="-1359.5" font-family="Helvetica,sans-Serif" font-size="10.00" fill="#000000">+ GetStateVariables()</text>
<text text-anchor="start" x="407" y="-1348.5" font-family="Helvetica,sans-Serif" font-size="10.00" fill="#000000">+ SetStateVariables()</text>
<text text-anchor="start" x="407" y="-1337.5" font-family="Helvetica,sans-Serif" font-size="10.00" fill="#000000">+ GetStateVariable()</text>
<text text-anchor="start" x="407" y="-1326.5" font-family="Helvetica,sans-Serif" font-size="10.00" fill="#000000">+ GetStateVariable()</text>
<text text-anchor="start" x="407" y="-1315.5" font-family="Helvetica,sans-Serif" font-size="10.00" fill="#000000">+ SetStateVariable()</text>
<text text-anchor="start" x="407" y="-1304.5" font-family="Helvetica,sans-Serif" font-size="10.00" fill="#000000">+ SetStateVariable()</text>
<text text-anchor="start" x="407" y="-1293.5" font-family="Helvetica,sans-Serif" font-size="10.00" fill="#000000">+ VerifyStateVariables()</text>
<text text-anchor="start" x="407" y="-1282.5" font-family="Helvetica,sans-Serif" font-size="10.00" fill="#000000">+ SetDefaultInitialConditions()</text>
<text text-anchor="start" x="407" y="-1271.5" font-family="Helvetica,sans-Serif" font-size="10.00" fill="#000000">and 13 more...</text>
<text text-anchor="start" x="407" y="-1260.5" font-family="Helvetica,sans-Serif" font-size="10.00" fill="#000000"># DumpState()</text>
<text text-anchor="start" x="407" y="-1249.5" font-family="Helvetica,sans-Serif" font-size="10.00" fill="#000000"># DumpState()</text>
<text text-anchor="start" x="407" y="-1238.5" font-family="Helvetica,sans-Serif" font-size="10.00" fill="#000000"># DumpState()</text>
<text text-anchor="start" x="407" y="-1227.5" font-family="Helvetica,sans-Serif" font-size="10.00" fill="#000000"># CheckParametersOnLoad()</text>
<text text-anchor="start" x="407" y="-1216.5" font-family="Helvetica,sans-Serif" font-size="10.00" fill="#000000">&#45; GetStateMessage()</text>
</a>
</g>
</g>
<!-- Node16&#45;&gt;Node19 -->
<g id="edge17" class="edge">
<title>Node16&#45;&gt;Node19</title>
<path fill="none" stroke="#191970" d="M546.8712,-1491.3208C543.8996,-1481.0144 540.7611,-1470.7746 537.5,-1461 535.4924,-1454.9826 533.3428,-1448.853 531.0982,-1442.6905"/>
<polygon fill="none" stroke="#191970" points="543.5785,-1492.5395 549.6677,-1501.2096 550.3143,-1490.6345 543.5785,-1492.5395"/>
</g>
<!-- Node17 -->
<g id="node13" class="node">
<title>Node17</title>
<polygon fill="#ffffff" stroke="#bfbfbf" points="493.5,-1749.5 493.5,-1817.5 653.5,-1817.5 653.5,-1749.5 493.5,-1749.5"/>
<text text-anchor="start" x="501.5" y="-1805.5" font-family="Helvetica,sans-Serif" font-size="10.00" fill="#000000">shared_ptr&lt; AbstractOdeSystem</text>
<text text-anchor="middle" x="573.5" y="-1794.5" font-family="Helvetica,sans-Serif" font-size="10.00" fill="#000000">Information &gt;</text>
<polyline fill="none" stroke="#bfbfbf" points="493.5,-1787.5 653.5,-1787.5 "/>
<text text-anchor="middle" x="573.5" y="-1775.5" font-family="Helvetica,sans-Serif" font-size="10.00" fill="#000000"> </text>
<polyline fill="none" stroke="#bfbfbf" points="493.5,-1768.5 653.5,-1768.5 "/>
<text text-anchor="middle" x="573.5" y="-1756.5" font-family="Helvetica,sans-Serif" font-size="10.00" fill="#000000"> </text>
</g>
<!-- Node17&#45;&gt;Node16 -->
<g id="edge13" class="edge">
<title>Node17&#45;&gt;Node16</title>
<path fill="none" stroke="#404040" d="M573.5,-1749.2672C573.5,-1738.8108 573.5,-1726.6896 573.5,-1713.9751"/>
<polygon fill="none" stroke="#404040" points="573.5001,-1713.6382 569.5,-1707.6383 573.5,-1701.6382 577.5,-1707.6382 573.5001,-1713.6382"/>
<text text-anchor="middle" x="610" y="-1723" font-family="Helvetica,sans-Serif" font-size="10.00" fill="#000000"> #mpSystemInfo</text>
</g>
<!-- Node18 -->
<g id="node14" class="node">
<title>Node18</title>
<polygon fill="#ffffff" stroke="#bfbfbf" points="582.5,-1297.5 582.5,-1354.5 672.5,-1354.5 672.5,-1297.5 582.5,-1297.5"/>
<text text-anchor="middle" x="627.5" y="-1342.5" font-family="Helvetica,sans-Serif" font-size="10.00" fill="#000000">vector&lt; double &gt;</text>
<polyline fill="none" stroke="#bfbfbf" points="582.5,-1335.5 672.5,-1335.5 "/>
<text text-anchor="middle" x="627.5" y="-1323.5" font-family="Helvetica,sans-Serif" font-size="10.00" fill="#000000"> </text>
<polyline fill="none" stroke="#bfbfbf" points="582.5,-1316.5 672.5,-1316.5 "/>
<text text-anchor="middle" x="627.5" y="-1304.5" font-family="Helvetica,sans-Serif" font-size="10.00" fill="#000000"> </text>
</g>
<!-- Node18&#45;&gt;Node15 -->
<g id="edge15" class="edge">
<title>Node18&#45;&gt;Node15</title>
<path fill="none" stroke="#404040" d="M624.8932,-1297.3901C622.6531,-1265.7307 620.8602,-1213.3212 628.5,-1169 628.855,-1166.9403 629.2376,-1164.87 629.6454,-1162.7921"/>
<polygon fill="none" stroke="#404040" points="629.6969,-1162.5545 627.061,-1155.8424 632.2429,-1150.8276 634.8789,-1157.5397 629.6969,-1162.5545"/>
<text text-anchor="middle" x="669" y="-1183" font-family="Helvetica,sans-Serif" font-size="10.00" fill="#000000"> #mStateVariables</text>
<text text-anchor="middle" x="669" y="-1172" font-family="Helvetica,sans-Serif" font-size="10.00" fill="#000000">#mParameters</text>
</g>
<!-- Node19&#45;&gt;Node15 -->
<g id="edge16" class="edge">
<title>Node19&#45;&gt;Node15</title>
<path fill="none" stroke="#ffa500" d="M488.3273,-1199.6688C492.7292,-1188.4988 498.6423,-1178.0263 506.5,-1169 524.5008,-1148.3221 542.2165,-1165.4736 565.5,-1151 574.9712,-1145.1124 584.1683,-1138.2083 592.9456,-1130.7489"/>
<polygon fill="#ffa500" stroke="#ffa500" points="484.9916,-1198.6043 484.9757,-1209.1991 491.5952,-1200.9267 484.9916,-1198.6043"/>
<text text-anchor="middle" x="564" y="-1177.5" font-family="Helvetica,sans-Serif" font-size="10.00" fill="#000000"> &lt; std::vector&lt; double &gt; &gt;</text>
</g>
<!-- Node20 -->
<g id="node16" class="node">
<title>Node20</title>
<polygon fill="#ffffff" stroke="#bfbfbf" points="403,-1573 403,-1630 462,-1630 462,-1573 403,-1573"/>
<text text-anchor="middle" x="432.5" y="-1618" font-family="Helvetica,sans-Serif" font-size="10.00" fill="#000000">VECTOR</text>
<polyline fill="none" stroke="#bfbfbf" points="403,-1611 462,-1611 "/>
<text text-anchor="middle" x="432.5" y="-1599" font-family="Helvetica,sans-Serif" font-size="10.00" fill="#000000"> </text>
<polyline fill="none" stroke="#bfbfbf" points="403,-1592 462,-1592 "/>
<text text-anchor="middle" x="432.5" y="-1580" font-family="Helvetica,sans-Serif" font-size="10.00" fill="#000000"> </text>
</g>
<!-- Node20&#45;&gt;Node19 -->
<g id="edge18" class="edge">
<title>Node20&#45;&gt;Node19</title>
<path fill="none" stroke="#404040" d="M437.2562,-1572.9559C442.0168,-1544.5541 449.6051,-1499.7368 456.5,-1461 456.8661,-1458.943 457.2365,-1456.8685 457.6104,-1454.7803"/>
<polygon fill="none" stroke="#404040" points="457.6599,-1454.5047 454.7858,-1447.8911 459.7853,-1442.6944 462.6594,-1449.308 457.6599,-1454.5047"/>
<text text-anchor="middle" x="497" y="-1475" font-family="Helvetica,sans-Serif" font-size="10.00" fill="#000000"> #mStateVariables</text>
<text text-anchor="middle" x="497" y="-1464" font-family="Helvetica,sans-Serif" font-size="10.00" fill="#000000">#mParameters</text>
</g>
<!-- Node21 -->
<g id="node17" class="node">
<title>Node21</title>
<polygon fill="#ffffff" stroke="#bfbfbf" points="670,-763 670,-831 795,-831 795,-763 670,-763"/>
<text text-anchor="start" x="678" y="-819" font-family="Helvetica,sans-Serif" font-size="10.00" fill="#000000">shared_ptr&lt; AbstractCell</text>
<text text-anchor="middle" x="732.5" y="-808" font-family="Helvetica,sans-Serif" font-size="10.00" fill="#000000">CycleModelOdeSolver &gt;</text>
<polyline fill="none" stroke="#bfbfbf" points="670,-801 795,-801 "/>
<text text-anchor="middle" x="732.5" y="-789" font-family="Helvetica,sans-Serif" font-size="10.00" fill="#000000"> </text>
<polyline fill="none" stroke="#bfbfbf" points="670,-782 795,-782 "/>
<text text-anchor="middle" x="732.5" y="-770" font-family="Helvetica,sans-Serif" font-size="10.00" fill="#000000"> </text>
</g>
<!-- Node21&#45;&gt;Node13 -->
<g id="edge21" class="edge">
<title>Node21&#45;&gt;Node13</title>
<path fill="none" stroke="#404040" d="M714.5605,-762.777C702.5767,-739.9155 685.9929,-708.2787 669.2539,-676.3459"/>
<polygon fill="none" stroke="#404040" points="669.149,-676.1457 662.8206,-672.6887 663.5777,-665.5174 669.9061,-668.9744 669.149,-676.1457"/>
<text text-anchor="middle" x="716.5" y="-692.5" font-family="Helvetica,sans-Serif" font-size="10.00" fill="#000000"> #mpOdeSolver</text>
</g>
</g>
</svg>
