<?xml version="1.0" encoding="UTF-8" standalone="no"?>
<!DOCTYPE svg PUBLIC "-//W3C//DTD SVG 1.1//EN"
 "http://www.w3.org/Graphics/SVG/1.1/DTD/svg11.dtd">
<!-- Generated by graphviz version 2.40.1 (20161225.0304)
 -->
<!-- Title: MultiStimulus Pages: 1 -->
<svg width="358pt" height="397pt"
 viewBox="0.00 0.00 357.50 397.00" xmlns="http://www.w3.org/2000/svg" xmlns:xlink="http://www.w3.org/1999/xlink">
<g id="graph0" class="graph" transform="scale(1 1) rotate(0) translate(4 393)">
<title>MultiStimulus</title>
<polygon fill="#ffffff" stroke="transparent" points="-4,4 -4,-393 353.5,-393 353.5,4 -4,4"/>
<!-- Node0 -->
<g id="node1" class="node">
<title>Node0</title>
<polygon fill="#bfbfbf" stroke="#000000" points="123.5,-160.5 123.5,-261.5 220.5,-261.5 220.5,-160.5 123.5,-160.5"/>
<text text-anchor="middle" x="172" y="-249.5" font-family="Helvetica,sans-Serif" font-size="10.00" fill="#000000">MultiStimulus</text>
<polyline fill="none" stroke="#000000" points="123.5,-242.5 220.5,-242.5 "/>
<text text-anchor="start" x="131.5" y="-230.5" font-family="Helvetica,sans-Serif" font-size="10.00" fill="#000000"># mStimuli</text>
<polyline fill="none" stroke="#000000" points="123.5,-223.5 220.5,-223.5 "/>
<text text-anchor="start" x="131.5" y="-211.5" font-family="Helvetica,sans-Serif" font-size="10.00" fill="#000000">+ ~MultiStimulus()</text>
<text text-anchor="start" x="131.5" y="-200.5" font-family="Helvetica,sans-Serif" font-size="10.00" fill="#000000">+ AddStimulus()</text>
<text text-anchor="start" x="131.5" y="-189.5" font-family="Helvetica,sans-Serif" font-size="10.00" fill="#000000">+ GetStimulus()</text>
<text text-anchor="start" x="131.5" y="-178.5" font-family="Helvetica,sans-Serif" font-size="10.00" fill="#000000">+ Clear()</text>
<text text-anchor="start" x="131.5" y="-167.5" font-family="Helvetica,sans-Serif" font-size="10.00" fill="#000000">&#45; serialize()</text>
</g>
<!-- Node2 -->
<g id="node3" class="node">
<title>Node2</title>
<g id="a_node3"><a xlink:href="classS1S2Stimulus.html" target="_top" xlink:title="{S1S2Stimulus\n|&#45; mS2Index\l&#45; mNumS2FrequencyValues\l|+ S1S2Stimulus()\l+ GetStimulus()\l+ SetS2ExperimentPeriodIndex()\l+ GetNumS2FrequencyValues()\l&#45; serialize()\l&#45; S1S2Stimulus()\l}">
<polygon fill="#ffffff" stroke="#000000" points="0,-.5 0,-123.5 160,-123.5 160,-.5 0,-.5"/>
<text text-anchor="middle" x="80" y="-111.5" font-family="Helvetica,sans-Serif" font-size="10.00" fill="#000000">S1S2Stimulus</text>
<polyline fill="none" stroke="#000000" points="0,-104.5 160,-104.5 "/>
<text text-anchor="start" x="8" y="-92.5" font-family="Helvetica,sans-Serif" font-size="10.00" fill="#000000">&#45; mS2Index</text>
<text text-anchor="start" x="8" y="-81.5" font-family="Helvetica,sans-Serif" font-size="10.00" fill="#000000">&#45; mNumS2FrequencyValues</text>
<polyline fill="none" stroke="#000000" points="0,-74.5 160,-74.5 "/>
<text text-anchor="start" x="8" y="-62.5" font-family="Helvetica,sans-Serif" font-size="10.00" fill="#000000">+ S1S2Stimulus()</text>
<text text-anchor="start" x="8" y="-51.5" font-family="Helvetica,sans-Serif" font-size="10.00" fill="#000000">+ GetStimulus()</text>
<text text-anchor="start" x="8" y="-40.5" font-family="Helvetica,sans-Serif" font-size="10.00" fill="#000000">+ SetS2ExperimentPeriodIndex()</text>
<text text-anchor="start" x="8" y="-29.5" font-family="Helvetica,sans-Serif" font-size="10.00" fill="#000000">+ GetNumS2FrequencyValues()</text>
<text text-anchor="start" x="8" y="-18.5" font-family="Helvetica,sans-Serif" font-size="10.00" fill="#000000">&#45; serialize()</text>
<text text-anchor="start" x="8" y="-7.5" font-family="Helvetica,sans-Serif" font-size="10.00" fill="#000000">&#45; S1S2Stimulus()</text>
</a>
</g>
</g>
<!-- Node0&#45;&gt;Node2 -->
<g id="edge2" class="edge">
<title>Node0&#45;&gt;Node2</title>
<path fill="none" stroke="#191970" d="M135.2562,-151.491C129.6124,-142.3506 123.7747,-132.896 118.1022,-123.709"/>
<polygon fill="none" stroke="#191970" points="132.3643,-153.4695 140.5961,-160.1394 138.3204,-149.7918 132.3643,-153.4695"/>
</g>
<!-- Node3 -->
<g id="node4" class="node">
<title>Node3</title>
<g id="a_node4"><a xlink:href="classSteadyStateRestitutionStimulus.html" target="_top" xlink:title="{SteadyStateRestitutionStimulus\n||+ SteadyStateRestitutionStimulus()\l&#45; serialize()\l&#45; SteadyStateRestitutionStimulus()\l}">
<polygon fill="#ffffff" stroke="#000000" points="178.5,-22.5 178.5,-101.5 349.5,-101.5 349.5,-22.5 178.5,-22.5"/>
<text text-anchor="middle" x="264" y="-89.5" font-family="Helvetica,sans-Serif" font-size="10.00" fill="#000000">SteadyStateRestitutionStimulus</text>
<polyline fill="none" stroke="#000000" points="178.5,-82.5 349.5,-82.5 "/>
<text text-anchor="middle" x="264" y="-70.5" font-family="Helvetica,sans-Serif" font-size="10.00" fill="#000000"> </text>
<polyline fill="none" stroke="#000000" points="178.5,-63.5 349.5,-63.5 "/>
<text text-anchor="start" x="186.5" y="-51.5" font-family="Helvetica,sans-Serif" font-size="10.00" fill="#000000">+ SteadyStateRestitutionStimulus()</text>
<text text-anchor="start" x="186.5" y="-40.5" font-family="Helvetica,sans-Serif" font-size="10.00" fill="#000000">&#45; serialize()</text>
<text text-anchor="start" x="186.5" y="-29.5" font-family="Helvetica,sans-Serif" font-size="10.00" fill="#000000">&#45; SteadyStateRestitutionStimulus()</text>
</a>
</g>
</g>
<!-- Node0&#45;&gt;Node3 -->
<g id="edge3" class="edge">
<title>Node0&#45;&gt;Node3</title>
<path fill="none" stroke="#191970" d="M208.7249,-151.5216C219.0356,-134.8228 229.9949,-117.0735 239.4127,-101.8207"/>
<polygon fill="none" stroke="#191970" points="205.6796,-149.7918 203.4039,-160.1394 211.6357,-153.4695 205.6796,-149.7918"/>
</g>
<!-- Node1 -->
<g id="node2" class="node">
<title>Node1</title>
<g id="a_node2"><a xlink:href="classAbstractStimulusFunction.html" target="_top" xlink:title="{AbstractStimulusFunction\n||+ GetStimulus()\l+ ~AbstractStimulusFunction()\l+ Clear()\l&#45; serialize()\l}">
<polygon fill="#ffffff" stroke="#000000" points="97,-298.5 97,-388.5 247,-388.5 247,-298.5 97,-298.5"/>
<text text-anchor="middle" x="172" y="-376.5" font-family="Helvetica,sans-Serif" font-size="10.00" fill="#000000">AbstractStimulusFunction</text>
<polyline fill="none" stroke="#000000" points="97,-369.5 247,-369.5 "/>
<text text-anchor="middle" x="172" y="-357.5" font-family="Helvetica,sans-Serif" font-size="10.00" fill="#000000"> </text>
<polyline fill="none" stroke="#000000" points="97,-350.5 247,-350.5 "/>
<text text-anchor="start" x="105" y="-338.5" font-family="Helvetica,sans-Serif" font-size="10.00" fill="#000000">+ GetStimulus()</text>
<text text-anchor="start" x="105" y="-327.5" font-family="Helvetica,sans-Serif" font-size="10.00" fill="#000000">+ ~AbstractStimulusFunction()</text>
<text text-anchor="start" x="105" y="-316.5" font-family="Helvetica,sans-Serif" font-size="10.00" fill="#000000">+ Clear()</text>
<text text-anchor="start" x="105" y="-305.5" font-family="Helvetica,sans-Serif" font-size="10.00" fill="#000000">&#45; serialize()</text>
</a>
</g>
</g>
<!-- Node1&#45;&gt;Node0 -->
<g id="edge1" class="edge">
<title>Node1&#45;&gt;Node0</title>
<path fill="none" stroke="#191970" d="M172,-288.2098C172,-279.5051 172,-270.5409 172,-261.9407"/>
<polygon fill="none" stroke="#191970" points="168.5001,-288.2716 172,-298.2716 175.5001,-288.2716 168.5001,-288.2716"/>
</g>
</g>
</svg>
