<?xml version="1.0" encoding="UTF-8" standalone="no"?>
<!DOCTYPE svg PUBLIC "-//W3C//DTD SVG 1.1//EN"
 "http://www.w3.org/Graphics/SVG/1.1/DTD/svg11.dtd">
<!-- Generated by graphviz version 2.40.1 (20161225.0304)
 -->
<!-- Title: GmshMeshReader&lt; ELEMENT_DIM, SPACE_DIM &gt; Pages: 1 -->
<svg width="636pt" height="600pt"
 viewBox="0.00 0.00 636.00 600.00" xmlns="http://www.w3.org/2000/svg" xmlns:xlink="http://www.w3.org/1999/xlink">
<g id="graph0" class="graph" transform="scale(1 1) rotate(0) translate(4 596)">
<title>GmshMeshReader&lt; ELEMENT_DIM, SPACE_DIM &gt;</title>
<polygon fill="#ffffff" stroke="transparent" points="-4,4 -4,-596 632,-596 632,4 -4,4"/>
<!-- Node2 -->
<g id="node1" class="node">
<title>Node2</title>
<polygon fill="#bfbfbf" stroke="#000000" points="232,-.5 232,-255.5 404,-255.5 404,-.5 232,-.5"/>
<text text-anchor="start" x="240" y="-243.5" font-family="Helvetica,sans-Serif" font-size="10.00" fill="#000000">GmshMeshReader&lt; ELEMENT</text>
<text text-anchor="middle" x="318" y="-232.5" font-family="Helvetica,sans-Serif" font-size="10.00" fill="#000000">_DIM, SPACE_DIM &gt;</text>
<polyline fill="none" stroke="#000000" points="232,-225.5 404,-225.5 "/>
<text text-anchor="start" x="240" y="-213.5" font-family="Helvetica,sans-Serif" font-size="10.00" fill="#000000">&#45; mNumElements</text>
<text text-anchor="start" x="240" y="-202.5" font-family="Helvetica,sans-Serif" font-size="10.00" fill="#000000">&#45; mNumFaceAttributes</text>
<polyline fill="none" stroke="#000000" points="232,-195.5 404,-195.5 "/>
<text text-anchor="start" x="240" y="-183.5" font-family="Helvetica,sans-Serif" font-size="10.00" fill="#000000">+ GmshMeshReader()</text>
<text text-anchor="start" x="240" y="-172.5" font-family="Helvetica,sans-Serif" font-size="10.00" fill="#000000">+ ~GmshMeshReader()</text>
<text text-anchor="start" x="240" y="-161.5" font-family="Helvetica,sans-Serif" font-size="10.00" fill="#000000">+ GetNumElements()</text>
<text text-anchor="start" x="240" y="-150.5" font-family="Helvetica,sans-Serif" font-size="10.00" fill="#000000">+ GetNumNodes()</text>
<text text-anchor="start" x="240" y="-139.5" font-family="Helvetica,sans-Serif" font-size="10.00" fill="#000000">+ GetNumFaces()</text>
<text text-anchor="start" x="240" y="-128.5" font-family="Helvetica,sans-Serif" font-size="10.00" fill="#000000">+ GetNumCableElements()</text>
<text text-anchor="start" x="240" y="-117.5" font-family="Helvetica,sans-Serif" font-size="10.00" fill="#000000">+ GetNumElementAttributes()</text>
<text text-anchor="start" x="240" y="-106.5" font-family="Helvetica,sans-Serif" font-size="10.00" fill="#000000">+ GetNumFaceAttributes()</text>
<text text-anchor="start" x="240" y="-95.5" font-family="Helvetica,sans-Serif" font-size="10.00" fill="#000000">+ GetNumCableElementAttributes()</text>
<text text-anchor="start" x="240" y="-84.5" font-family="Helvetica,sans-Serif" font-size="10.00" fill="#000000">+ GetOrderOfElements()</text>
<text text-anchor="start" x="240" y="-73.5" font-family="Helvetica,sans-Serif" font-size="10.00" fill="#000000">and 10 more...</text>
<text text-anchor="start" x="240" y="-62.5" font-family="Helvetica,sans-Serif" font-size="10.00" fill="#000000">&#45; ReadHeaders()</text>
<text text-anchor="start" x="240" y="-51.5" font-family="Helvetica,sans-Serif" font-size="10.00" fill="#000000">&#45; ReadNodeHeader()</text>
<text text-anchor="start" x="240" y="-40.5" font-family="Helvetica,sans-Serif" font-size="10.00" fill="#000000">&#45; ReadElementHeader()</text>
<text text-anchor="start" x="240" y="-29.5" font-family="Helvetica,sans-Serif" font-size="10.00" fill="#000000">&#45; ReadFaceHeader()</text>
<text text-anchor="start" x="240" y="-18.5" font-family="Helvetica,sans-Serif" font-size="10.00" fill="#000000">&#45; OpenFiles()</text>
<text text-anchor="start" x="240" y="-7.5" font-family="Helvetica,sans-Serif" font-size="10.00" fill="#000000">&#45; CloseFiles()</text>
</g>
<!-- Node3 -->
<g id="node2" class="node">
<title>Node3</title>
<g id="a_node2"><a xlink:href="classAbstractMeshReader.html" target="_top" xlink:title="{AbstractMeshReader\l\&lt; ELEMENT_DIM, SPACE_DIM \&gt;\n||+ ~AbstractMeshReader()\l+ GetNumElements()\l+ GetNumNodes()\l+ GetNumFaces()\l+ GetNumCableElements()\l+ GetNumElementAttributes()\l+ GetNumFaceAttributes()\l+ GetNumCableElementAttributes()\l+ GetNodeAttributes()\l+ GetNumEdges()\land 25 more...\l}">
<polygon fill="#ffffff" stroke="#000000" points="0,-413.5 0,-591.5 172,-591.5 172,-413.5 0,-413.5"/>
<text text-anchor="start" x="8" y="-579.5" font-family="Helvetica,sans-Serif" font-size="10.00" fill="#000000">AbstractMeshReader</text>
<text text-anchor="middle" x="86" y="-568.5" font-family="Helvetica,sans-Serif" font-size="10.00" fill="#000000">&lt; ELEMENT_DIM, SPACE_DIM &gt;</text>
<polyline fill="none" stroke="#000000" points="0,-561.5 172,-561.5 "/>
<text text-anchor="middle" x="86" y="-549.5" font-family="Helvetica,sans-Serif" font-size="10.00" fill="#000000"> </text>
<polyline fill="none" stroke="#000000" points="0,-542.5 172,-542.5 "/>
<text text-anchor="start" x="8" y="-530.5" font-family="Helvetica,sans-Serif" font-size="10.00" fill="#000000">+ ~AbstractMeshReader()</text>
<text text-anchor="start" x="8" y="-519.5" font-family="Helvetica,sans-Serif" font-size="10.00" fill="#000000">+ GetNumElements()</text>
<text text-anchor="start" x="8" y="-508.5" font-family="Helvetica,sans-Serif" font-size="10.00" fill="#000000">+ GetNumNodes()</text>
<text text-anchor="start" x="8" y="-497.5" font-family="Helvetica,sans-Serif" font-size="10.00" fill="#000000">+ GetNumFaces()</text>
<text text-anchor="start" x="8" y="-486.5" font-family="Helvetica,sans-Serif" font-size="10.00" fill="#000000">+ GetNumCableElements()</text>
<text text-anchor="start" x="8" y="-475.5" font-family="Helvetica,sans-Serif" font-size="10.00" fill="#000000">+ GetNumElementAttributes()</text>
<text text-anchor="start" x="8" y="-464.5" font-family="Helvetica,sans-Serif" font-size="10.00" fill="#000000">+ GetNumFaceAttributes()</text>
<text text-anchor="start" x="8" y="-453.5" font-family="Helvetica,sans-Serif" font-size="10.00" fill="#000000">+ GetNumCableElementAttributes()</text>
<text text-anchor="start" x="8" y="-442.5" font-family="Helvetica,sans-Serif" font-size="10.00" fill="#000000">+ GetNodeAttributes()</text>
<text text-anchor="start" x="8" y="-431.5" font-family="Helvetica,sans-Serif" font-size="10.00" fill="#000000">+ GetNumEdges()</text>
<text text-anchor="start" x="8" y="-420.5" font-family="Helvetica,sans-Serif" font-size="10.00" fill="#000000">and 25 more...</text>
</a>
</g>
</g>
<!-- Node3&#45;&gt;Node2 -->
<g id="edge1" class="edge">
<title>Node3&#45;&gt;Node2</title>
<path fill="none" stroke="#191970" d="M134.1239,-404.3983C155.3738,-363.2859 181.5158,-315.4969 208,-274 215.4271,-262.3629 223.5062,-250.465 231.8013,-238.731"/>
<polygon fill="none" stroke="#191970" points="130.9887,-402.8417 129.527,-413.3352 137.2135,-406.0436 130.9887,-402.8417"/>
</g>
<!-- Node4 -->
<g id="node3" class="node">
<title>Node4</title>
<g id="a_node3"><a xlink:href="classdouble.html" target="_top" xlink:title="{double\n||}">
<polygon fill="#ffffff" stroke="#000000" points="190.5,-474 190.5,-531 235.5,-531 235.5,-474 190.5,-474"/>
<text text-anchor="middle" x="213" y="-519" font-family="Helvetica,sans-Serif" font-size="10.00" fill="#000000">double</text>
<polyline fill="none" stroke="#000000" points="190.5,-512 235.5,-512 "/>
<text text-anchor="middle" x="213" y="-500" font-family="Helvetica,sans-Serif" font-size="10.00" fill="#000000"> </text>
<polyline fill="none" stroke="#000000" points="190.5,-493 235.5,-493 "/>
<text text-anchor="middle" x="213" y="-481" font-family="Helvetica,sans-Serif" font-size="10.00" fill="#000000"> </text>
</a>
</g>
</g>
<!-- Node4&#45;&gt;Node2 -->
<g id="edge2" class="edge">
<title>Node4&#45;&gt;Node2</title>
<path fill="none" stroke="#404040" d="M211.3591,-473.9308C209.7119,-429.8839 210.0014,-343.2371 232,-274 232.7182,-271.7396 233.4765,-269.4767 234.2716,-267.2137"/>
<polygon fill="none" stroke="#404040" points="234.3007,-267.1366 232.6776,-260.1105 238.539,-255.9099 240.162,-262.936 234.3007,-267.1366"/>
<text text-anchor="middle" x="273" y="-332" font-family="Helvetica,sans-Serif" font-size="10.00" fill="#000000"> &#45;mVersionNumber</text>
</g>
<!-- Node5 -->
<g id="node4" class="node">
<title>Node5</title>
<polygon fill="#ffffff" stroke="#bfbfbf" points="292,-474 292,-531 344,-531 344,-474 292,-474"/>
<text text-anchor="middle" x="318" y="-519" font-family="Helvetica,sans-Serif" font-size="10.00" fill="#000000">ifstream</text>
<polyline fill="none" stroke="#bfbfbf" points="292,-512 344,-512 "/>
<text text-anchor="middle" x="318" y="-500" font-family="Helvetica,sans-Serif" font-size="10.00" fill="#000000"> </text>
<polyline fill="none" stroke="#bfbfbf" points="292,-493 344,-493 "/>
<text text-anchor="middle" x="318" y="-481" font-family="Helvetica,sans-Serif" font-size="10.00" fill="#000000"> </text>
</g>
<!-- Node5&#45;&gt;Node2 -->
<g id="edge3" class="edge">
<title>Node5&#45;&gt;Node2</title>
<path fill="none" stroke="#404040" d="M318,-473.7355C318,-429.839 318,-343.2594 318,-267.7269"/>
<polygon fill="none" stroke="#404040" points="318.0001,-267.7075 314,-261.7075 318,-255.7075 322,-261.7075 318.0001,-267.7075"/>
<text text-anchor="middle" x="350" y="-343" font-family="Helvetica,sans-Serif" font-size="10.00" fill="#000000"> &#45;mFaceFile</text>
<text text-anchor="middle" x="350" y="-332" font-family="Helvetica,sans-Serif" font-size="10.00" fill="#000000">&#45;mElementFile</text>
<text text-anchor="middle" x="350" y="-321" font-family="Helvetica,sans-Serif" font-size="10.00" fill="#000000">&#45;mNodeFile</text>
</g>
<!-- Node6 -->
<g id="node5" class="node">
<title>Node6</title>
<polygon fill="#ffffff" stroke="#bfbfbf" points="384.5,-474 384.5,-531 425.5,-531 425.5,-474 384.5,-474"/>
<text text-anchor="middle" x="405" y="-519" font-family="Helvetica,sans-Serif" font-size="10.00" fill="#000000">string</text>
<polyline fill="none" stroke="#bfbfbf" points="384.5,-512 425.5,-512 "/>
<text text-anchor="middle" x="405" y="-500" font-family="Helvetica,sans-Serif" font-size="10.00" fill="#000000"> </text>
<polyline fill="none" stroke="#bfbfbf" points="384.5,-493 425.5,-493 "/>
<text text-anchor="middle" x="405" y="-481" font-family="Helvetica,sans-Serif" font-size="10.00" fill="#000000"> </text>
</g>
<!-- Node6&#45;&gt;Node2 -->
<g id="edge4" class="edge">
<title>Node6&#45;&gt;Node2</title>
<path fill="none" stroke="#404040" d="M405.1769,-473.8426C404.7953,-430.043 401.4662,-344.1435 383,-274 382.4288,-271.8304 381.8289,-269.6522 381.2026,-267.4682"/>
<polygon fill="none" stroke="#404040" points="381.1273,-267.2218 375.5464,-262.6552 377.6152,-255.7472 383.1961,-260.3139 381.1273,-267.2218"/>
<text text-anchor="middle" x="429.5" y="-332" font-family="Helvetica,sans-Serif" font-size="10.00" fill="#000000"> &#45;mFileName</text>
</g>
<!-- Node7 -->
<g id="node6" class="node">
<title>Node7</title>
<g id="a_node6"><a xlink:href="classunsigned.html" target="_top" xlink:title="{unsigned\n||}">
<polygon fill="#ffffff" stroke="#000000" points="457,-474 457,-531 513,-531 513,-474 457,-474"/>
<text text-anchor="middle" x="485" y="-519" font-family="Helvetica,sans-Serif" font-size="10.00" fill="#000000">unsigned</text>
<polyline fill="none" stroke="#000000" points="457,-512 513,-512 "/>
<text text-anchor="middle" x="485" y="-500" font-family="Helvetica,sans-Serif" font-size="10.00" fill="#000000"> </text>
<polyline fill="none" stroke="#000000" points="457,-493 513,-493 "/>
<text text-anchor="middle" x="485" y="-481" font-family="Helvetica,sans-Serif" font-size="10.00" fill="#000000"> </text>
</a>
</g>
</g>
<!-- Node7&#45;&gt;Node2 -->
<g id="edge5" class="edge">
<title>Node7&#45;&gt;Node2</title>
<path fill="none" stroke="#404040" d="M487.9995,-473.8319C491.446,-428.9059 493.1238,-340.2123 462,-274 450.1924,-248.8806 432.2212,-225.5202 412.9356,-205.177"/>
<polygon fill="none" stroke="#404040" points="412.6925,-204.9283 405.6378,-203.4346 404.3032,-196.348 411.358,-197.8417 412.6925,-204.9283"/>
<text text-anchor="middle" x="558" y="-387" font-family="Helvetica,sans-Serif" font-size="10.00" fill="#000000"> &#45;mNumNodes</text>
<text text-anchor="middle" x="558" y="-376" font-family="Helvetica,sans-Serif" font-size="10.00" fill="#000000">&#45;mDataSize</text>
<text text-anchor="middle" x="558" y="-365" font-family="Helvetica,sans-Serif" font-size="10.00" fill="#000000">&#45;mFileType</text>
<text text-anchor="middle" x="558" y="-354" font-family="Helvetica,sans-Serif" font-size="10.00" fill="#000000">&#45;mOrderOfBoundaryElements</text>
<text text-anchor="middle" x="558" y="-343" font-family="Helvetica,sans-Serif" font-size="10.00" fill="#000000">&#45;mOrderOfElements</text>
<text text-anchor="middle" x="558" y="-332" font-family="Helvetica,sans-Serif" font-size="10.00" fill="#000000">&#45;mTotalNumElementsAndFaces</text>
<text text-anchor="middle" x="558" y="-321" font-family="Helvetica,sans-Serif" font-size="10.00" fill="#000000">&#45;mNodesPerBoundaryElement</text>
<text text-anchor="middle" x="558" y="-310" font-family="Helvetica,sans-Serif" font-size="10.00" fill="#000000">&#45;mNodesPerElement</text>
<text text-anchor="middle" x="558" y="-299" font-family="Helvetica,sans-Serif" font-size="10.00" fill="#000000">&#45;mNumElementAttributes</text>
<text text-anchor="middle" x="558" y="-288" font-family="Helvetica,sans-Serif" font-size="10.00" fill="#000000">&#45;mNumFaces</text>
<text text-anchor="middle" x="558" y="-277" font-family="Helvetica,sans-Serif" font-size="10.00" fill="#000000">...</text>
</g>
</g>
</svg>
