<?xml version="1.0" encoding="UTF-8" standalone="no"?>
<!DOCTYPE svg PUBLIC "-//W3C//DTD SVG 1.1//EN"
 "http://www.w3.org/Graphics/SVG/1.1/DTD/svg11.dtd">
<!-- Generated by graphviz version 2.40.1 (20161225.0304)
 -->
<!-- Title: RKC21IvpOdeSolver Pages: 1 -->
<svg width="413pt" height="547pt"
 viewBox="0.00 0.00 412.50 547.00" xmlns="http://www.w3.org/2000/svg" xmlns:xlink="http://www.w3.org/1999/xlink">
<g id="graph0" class="graph" transform="scale(1 1) rotate(0) translate(4 543)">
<title>RKC21IvpOdeSolver</title>
<polygon fill="#ffffff" stroke="transparent" points="-4,4 -4,-543 408.5,-543 408.5,4 -4,4"/>
<!-- Node4 -->
<g id="node1" class="node">
<title>Node4</title>
<polygon fill="#bfbfbf" stroke="#000000" points="209,-.5 209,-79.5 334,-79.5 334,-.5 209,-.5"/>
<text text-anchor="middle" x="271.5" y="-67.5" font-family="Helvetica,sans-Serif" font-size="10.00" fill="#000000">RKC21IvpOdeSolver</text>
<polyline fill="none" stroke="#000000" points="209,-60.5 334,-60.5 "/>
<text text-anchor="middle" x="271.5" y="-48.5" font-family="Helvetica,sans-Serif" font-size="10.00" fill="#000000"> </text>
<polyline fill="none" stroke="#000000" points="209,-41.5 334,-41.5 "/>
<text text-anchor="start" x="217" y="-29.5" font-family="Helvetica,sans-Serif" font-size="10.00" fill="#000000">+ RKC21IvpOdeSolver()</text>
<text text-anchor="start" x="217" y="-18.5" font-family="Helvetica,sans-Serif" font-size="10.00" fill="#000000"># CalculateNextYValue()</text>
<text text-anchor="start" x="217" y="-7.5" font-family="Helvetica,sans-Serif" font-size="10.00" fill="#000000">&#45; serialize()</text>
</g>
<!-- Node5 -->
<g id="node2" class="node">
<title>Node5</title>
<g id="a_node2"><a xlink:href="classAbstractOneStepIvpOdeSolver.html" target="_top" xlink:title="{AbstractOneStepIvpOdeSolver\n||+ Solve()\l+ Solve()\l+ ~AbstractOneStepIvpOdeSolver()\l# InternalSolve()\l# CalculateNextYValue()\l&#45; serialize()\l}">
<polygon fill="#ffffff" stroke="#000000" points="185.5,-117.5 185.5,-229.5 357.5,-229.5 357.5,-117.5 185.5,-117.5"/>
<text text-anchor="middle" x="271.5" y="-217.5" font-family="Helvetica,sans-Serif" font-size="10.00" fill="#000000">AbstractOneStepIvpOdeSolver</text>
<polyline fill="none" stroke="#000000" points="185.5,-210.5 357.5,-210.5 "/>
<text text-anchor="middle" x="271.5" y="-198.5" font-family="Helvetica,sans-Serif" font-size="10.00" fill="#000000"> </text>
<polyline fill="none" stroke="#000000" points="185.5,-191.5 357.5,-191.5 "/>
<text text-anchor="start" x="193.5" y="-179.5" font-family="Helvetica,sans-Serif" font-size="10.00" fill="#000000">+ Solve()</text>
<text text-anchor="start" x="193.5" y="-168.5" font-family="Helvetica,sans-Serif" font-size="10.00" fill="#000000">+ Solve()</text>
<text text-anchor="start" x="193.5" y="-157.5" font-family="Helvetica,sans-Serif" font-size="10.00" fill="#000000">+ ~AbstractOneStepIvpOdeSolver()</text>
<text text-anchor="start" x="193.5" y="-146.5" font-family="Helvetica,sans-Serif" font-size="10.00" fill="#000000"># InternalSolve()</text>
<text text-anchor="start" x="193.5" y="-135.5" font-family="Helvetica,sans-Serif" font-size="10.00" fill="#000000"># CalculateNextYValue()</text>
<text text-anchor="start" x="193.5" y="-124.5" font-family="Helvetica,sans-Serif" font-size="10.00" fill="#000000">&#45; serialize()</text>
</a>
</g>
</g>
<!-- Node5&#45;&gt;Node4 -->
<g id="edge1" class="edge">
<title>Node5&#45;&gt;Node4</title>
<path fill="none" stroke="#191970" d="M271.5,-107.0887C271.5,-97.6692 271.5,-88.2406 271.5,-79.5534"/>
<polygon fill="none" stroke="#191970" points="268.0001,-107.2709 271.5,-117.2709 275.0001,-107.2709 268.0001,-107.2709"/>
</g>
<!-- Node6 -->
<g id="node3" class="node">
<title>Node6</title>
<g id="a_node3"><a xlink:href="classAbstractIvpOdeSolver.html" target="_top" xlink:title="{AbstractIvpOdeSolver\n||+ Solve()\l+ Solve()\l+ SolveAndUpdateStateVariable()\l+ StoppingEventOccurred()\l+ GetStoppingTime()\l+ AbstractIvpOdeSolver()\l+ ~AbstractIvpOdeSolver()\l&#45; serialize()\l}">
<polygon fill="#ffffff" stroke="#000000" points="117.5,-277.5 117.5,-411.5 281.5,-411.5 281.5,-277.5 117.5,-277.5"/>
<text text-anchor="middle" x="199.5" y="-399.5" font-family="Helvetica,sans-Serif" font-size="10.00" fill="#000000">AbstractIvpOdeSolver</text>
<polyline fill="none" stroke="#000000" points="117.5,-392.5 281.5,-392.5 "/>
<text text-anchor="middle" x="199.5" y="-380.5" font-family="Helvetica,sans-Serif" font-size="10.00" fill="#000000"> </text>
<polyline fill="none" stroke="#000000" points="117.5,-373.5 281.5,-373.5 "/>
<text text-anchor="start" x="125.5" y="-361.5" font-family="Helvetica,sans-Serif" font-size="10.00" fill="#000000">+ Solve()</text>
<text text-anchor="start" x="125.5" y="-350.5" font-family="Helvetica,sans-Serif" font-size="10.00" fill="#000000">+ Solve()</text>
<text text-anchor="start" x="125.5" y="-339.5" font-family="Helvetica,sans-Serif" font-size="10.00" fill="#000000">+ SolveAndUpdateStateVariable()</text>
<text text-anchor="start" x="125.5" y="-328.5" font-family="Helvetica,sans-Serif" font-size="10.00" fill="#000000">+ StoppingEventOccurred()</text>
<text text-anchor="start" x="125.5" y="-317.5" font-family="Helvetica,sans-Serif" font-size="10.00" fill="#000000">+ GetStoppingTime()</text>
<text text-anchor="start" x="125.5" y="-306.5" font-family="Helvetica,sans-Serif" font-size="10.00" fill="#000000">+ AbstractIvpOdeSolver()</text>
<text text-anchor="start" x="125.5" y="-295.5" font-family="Helvetica,sans-Serif" font-size="10.00" fill="#000000">+ ~AbstractIvpOdeSolver()</text>
<text text-anchor="start" x="125.5" y="-284.5" font-family="Helvetica,sans-Serif" font-size="10.00" fill="#000000">&#45; serialize()</text>
</a>
</g>
</g>
<!-- Node6&#45;&gt;Node5 -->
<g id="edge2" class="edge">
<title>Node6&#45;&gt;Node5</title>
<path fill="none" stroke="#191970" d="M231.6861,-268.0579C237.1307,-255.127 242.693,-241.9166 247.8673,-229.6278"/>
<polygon fill="none" stroke="#191970" points="228.4046,-266.8325 227.7497,-277.4071 234.856,-269.5489 228.4046,-266.8325"/>
</g>
<!-- Node7 -->
<g id="node4" class="node">
<title>Node7</title>
<g id="a_node4"><a xlink:href="classIdentifiable.html" target="_top" xlink:title="{Identifiable\n||+ ~Identifiable()\l+ GetIdentifier()\l&#45; TidyTemplatedExportIdentifier()\l}">
<polygon fill="#ffffff" stroke="#000000" points="0,-459.5 0,-538.5 159,-538.5 159,-459.5 0,-459.5"/>
<text text-anchor="middle" x="79.5" y="-526.5" font-family="Helvetica,sans-Serif" font-size="10.00" fill="#000000">Identifiable</text>
<polyline fill="none" stroke="#000000" points="0,-519.5 159,-519.5 "/>
<text text-anchor="middle" x="79.5" y="-507.5" font-family="Helvetica,sans-Serif" font-size="10.00" fill="#000000"> </text>
<polyline fill="none" stroke="#000000" points="0,-500.5 159,-500.5 "/>
<text text-anchor="start" x="8" y="-488.5" font-family="Helvetica,sans-Serif" font-size="10.00" fill="#000000">+ ~Identifiable()</text>
<text text-anchor="start" x="8" y="-477.5" font-family="Helvetica,sans-Serif" font-size="10.00" fill="#000000">+ GetIdentifier()</text>
<text text-anchor="start" x="8" y="-466.5" font-family="Helvetica,sans-Serif" font-size="10.00" fill="#000000">&#45; TidyTemplatedExportIdentifier()</text>
</a>
</g>
</g>
<!-- Node7&#45;&gt;Node6 -->
<g id="edge3" class="edge">
<title>Node7&#45;&gt;Node6</title>
<path fill="none" stroke="#191970" d="M116.6286,-451.1969C126.3279,-438.7091 136.9649,-425.014 147.2889,-411.7217"/>
<polygon fill="none" stroke="#191970" points="113.7729,-449.1678 110.403,-459.2124 119.3013,-453.4617 113.7729,-449.1678"/>
</g>
<!-- Node8 -->
<g id="node5" class="node">
<title>Node8</title>
<g id="a_node5"><a xlink:href="classdouble.html" target="_top" xlink:title="{double\n||}">
<polygon fill="#ffffff" stroke="#000000" points="177,-470.5 177,-527.5 222,-527.5 222,-470.5 177,-470.5"/>
<text text-anchor="middle" x="199.5" y="-515.5" font-family="Helvetica,sans-Serif" font-size="10.00" fill="#000000">double</text>
<polyline fill="none" stroke="#000000" points="177,-508.5 222,-508.5 "/>
<text text-anchor="middle" x="199.5" y="-496.5" font-family="Helvetica,sans-Serif" font-size="10.00" fill="#000000"> </text>
<polyline fill="none" stroke="#000000" points="177,-489.5 222,-489.5 "/>
<text text-anchor="middle" x="199.5" y="-477.5" font-family="Helvetica,sans-Serif" font-size="10.00" fill="#000000"> </text>
</a>
</g>
</g>
<!-- Node8&#45;&gt;Node6 -->
<g id="edge4" class="edge">
<title>Node8&#45;&gt;Node6</title>
<path fill="none" stroke="#404040" d="M199.5,-470.3018C199.5,-456.9597 199.5,-440.368 199.5,-423.6572"/>
<polygon fill="none" stroke="#404040" points="199.5001,-423.513 195.5,-417.513 199.5,-411.513 203.5,-417.5129 199.5001,-423.513"/>
<text text-anchor="middle" x="238" y="-433" font-family="Helvetica,sans-Serif" font-size="10.00" fill="#000000"> #mStoppingTime</text>
</g>
<!-- Node9 -->
<g id="node6" class="node">
<title>Node9</title>
<g id="a_node6"><a xlink:href="classbool.html" target="_top" xlink:title="{bool\n||}">
<polygon fill="#ffffff" stroke="#000000" points="282,-470.5 282,-527.5 317,-527.5 317,-470.5 282,-470.5"/>
<text text-anchor="middle" x="299.5" y="-515.5" font-family="Helvetica,sans-Serif" font-size="10.00" fill="#000000">bool</text>
<polyline fill="none" stroke="#000000" points="282,-508.5 317,-508.5 "/>
<text text-anchor="middle" x="299.5" y="-496.5" font-family="Helvetica,sans-Serif" font-size="10.00" fill="#000000"> </text>
<polyline fill="none" stroke="#000000" points="282,-489.5 317,-489.5 "/>
<text text-anchor="middle" x="299.5" y="-477.5" font-family="Helvetica,sans-Serif" font-size="10.00" fill="#000000"> </text>
</a>
</g>
</g>
<!-- Node9&#45;&gt;Node6 -->
<g id="edge5" class="edge">
<title>Node9&#45;&gt;Node6</title>
<path fill="none" stroke="#404040" d="M293.3235,-470.3169C289.8203,-457.4499 284.6731,-442.4096 277.5,-430 275.8598,-427.1623 274.1118,-424.3392 272.2766,-421.5401"/>
<polygon fill="none" stroke="#404040" points="272.1561,-421.3674 265.4415,-418.7377 265.2863,-411.5283 272.0009,-414.1579 272.1561,-421.3674"/>
<text text-anchor="middle" x="344" y="-433" font-family="Helvetica,sans-Serif" font-size="10.00" fill="#000000"> #mStoppingEventOccurred</text>
</g>
<!-- Node10 -->
<g id="node7" class="node">
<title>Node10</title>
<polygon fill="#ffffff" stroke="#bfbfbf" points="299.5,-316 299.5,-373 389.5,-373 389.5,-316 299.5,-316"/>
<text text-anchor="middle" x="344.5" y="-361" font-family="Helvetica,sans-Serif" font-size="10.00" fill="#000000">vector&lt; double &gt;</text>
<polyline fill="none" stroke="#bfbfbf" points="299.5,-354 389.5,-354 "/>
<text text-anchor="middle" x="344.5" y="-342" font-family="Helvetica,sans-Serif" font-size="10.00" fill="#000000"> </text>
<polyline fill="none" stroke="#bfbfbf" points="299.5,-335 389.5,-335 "/>
<text text-anchor="middle" x="344.5" y="-323" font-family="Helvetica,sans-Serif" font-size="10.00" fill="#000000"> </text>
</g>
<!-- Node10&#45;&gt;Node5 -->
<g id="edge6" class="edge">
<title>Node10&#45;&gt;Node5</title>
<path fill="none" stroke="#404040" d="M332.2814,-315.8784C323.5484,-295.4216 311.4214,-267.0145 300.2952,-240.9517"/>
<polygon fill="none" stroke="#404040" points="300.1472,-240.605 294.1126,-236.6573 295.4357,-229.5686 301.4703,-233.5163 300.1472,-240.605"/>
<text text-anchor="middle" x="351.5" y="-251" font-family="Helvetica,sans-Serif" font-size="10.00" fill="#000000"> &#45;mWorkingMemory</text>
</g>
</g>
</svg>
