<?xml version="1.0" encoding="UTF-8" standalone="no"?>
<!DOCTYPE svg PUBLIC "-//W3C//DTD SVG 1.1//EN"
 "http://www.w3.org/Graphics/SVG/1.1/DTD/svg11.dtd">
<!-- Generated by graphviz version 2.40.1 (20161225.0304)
 -->
<!-- Title: OdeSystemInformation&lt; ODE_SYSTEM &gt; Pages: 1 -->
<svg width="586pt" height="628pt"
 viewBox="0.00 0.00 586.00 628.00" xmlns="http://www.w3.org/2000/svg" xmlns:xlink="http://www.w3.org/1999/xlink">
<g id="graph0" class="graph" transform="scale(1 1) rotate(0) translate(4 624)">
<title>OdeSystemInformation&lt; ODE_SYSTEM &gt;</title>
<polygon fill="#ffffff" stroke="transparent" points="-4,4 -4,-624 582,-624 582,4 -4,4"/>
<!-- Node2 -->
<g id="node1" class="node">
<title>Node2</title>
<polygon fill="#bfbfbf" stroke="#000000" points="330.5,-.5 330.5,-233.5 461.5,-233.5 461.5,-.5 330.5,-.5"/>
<text text-anchor="start" x="338.5" y="-221.5" font-family="Helvetica,sans-Serif" font-size="10.00" fill="#000000">OdeSystemInformation</text>
<text text-anchor="middle" x="396" y="-210.5" font-family="Helvetica,sans-Serif" font-size="10.00" fill="#000000">&lt; ODE_SYSTEM &gt;</text>
<polyline fill="none" stroke="#000000" points="330.5,-203.5 461.5,-203.5 "/>
<text text-anchor="middle" x="396" y="-191.5" font-family="Helvetica,sans-Serif" font-size="10.00" fill="#000000"> </text>
<polyline fill="none" stroke="#000000" points="330.5,-184.5 461.5,-184.5 "/>
<text text-anchor="start" x="338.5" y="-172.5" font-family="Helvetica,sans-Serif" font-size="10.00" fill="#000000">+ Instance()</text>
<text text-anchor="start" x="338.5" y="-161.5" font-family="Helvetica,sans-Serif" font-size="10.00" fill="#000000"># OdeSystemInformation()</text>
<text text-anchor="start" x="338.5" y="-150.5" font-family="Helvetica,sans-Serif" font-size="10.00" fill="#000000"># OdeSystemInformation()</text>
<text text-anchor="start" x="338.5" y="-139.5" font-family="Helvetica,sans-Serif" font-size="10.00" fill="#000000"># operator=()</text>
<text text-anchor="start" x="338.5" y="-128.5" font-family="Helvetica,sans-Serif" font-size="10.00" fill="#000000"># Initialise()</text>
<text text-anchor="start" x="338.5" y="-117.5" font-family="Helvetica,sans-Serif" font-size="10.00" fill="#000000"># Initialise()</text>
<text text-anchor="start" x="338.5" y="-106.5" font-family="Helvetica,sans-Serif" font-size="10.00" fill="#000000"># Initialise()</text>
<text text-anchor="start" x="338.5" y="-95.5" font-family="Helvetica,sans-Serif" font-size="10.00" fill="#000000"># Initialise()</text>
<text text-anchor="start" x="338.5" y="-84.5" font-family="Helvetica,sans-Serif" font-size="10.00" fill="#000000"># Initialise()</text>
<text text-anchor="start" x="338.5" y="-73.5" font-family="Helvetica,sans-Serif" font-size="10.00" fill="#000000"># Initialise()</text>
<text text-anchor="start" x="338.5" y="-62.5" font-family="Helvetica,sans-Serif" font-size="10.00" fill="#000000"># Initialise()</text>
<text text-anchor="start" x="338.5" y="-51.5" font-family="Helvetica,sans-Serif" font-size="10.00" fill="#000000"># Initialise()</text>
<text text-anchor="start" x="338.5" y="-40.5" font-family="Helvetica,sans-Serif" font-size="10.00" fill="#000000"># Initialise()</text>
<text text-anchor="start" x="338.5" y="-29.5" font-family="Helvetica,sans-Serif" font-size="10.00" fill="#000000"># Initialise()</text>
<text text-anchor="start" x="338.5" y="-18.5" font-family="Helvetica,sans-Serif" font-size="10.00" fill="#000000"># Initialise()</text>
<text text-anchor="start" x="338.5" y="-7.5" font-family="Helvetica,sans-Serif" font-size="10.00" fill="#000000"># Initialise()</text>
</g>
<!-- Node3 -->
<g id="node2" class="node">
<title>Node3</title>
<g id="a_node2"><a xlink:href="classAbstractOdeSystemInformation.html" target="_top" xlink:title="{AbstractOdeSystemInformation\n||+ AbstractOdeSystemInformation()\l+ ~AbstractOdeSystemInformation()\l+ GetSystemName()\l+ GetFreeVariableName()\l+ GetFreeVariableUnits()\l+ SetDefaultInitialConditions()\l+ SetDefaultInitialCondition()\l+ GetInitialConditions()\l+ rGetStateVariableNames()\l+ rGetStateVariableUnits()\land 21 more...\l# Initialise()\l}">
<polygon fill="#ffffff" stroke="#000000" points="212.5,-281.5 212.5,-459.5 387.5,-459.5 387.5,-281.5 212.5,-281.5"/>
<text text-anchor="middle" x="300" y="-447.5" font-family="Helvetica,sans-Serif" font-size="10.00" fill="#000000">AbstractOdeSystemInformation</text>
<polyline fill="none" stroke="#000000" points="212.5,-440.5 387.5,-440.5 "/>
<text text-anchor="middle" x="300" y="-428.5" font-family="Helvetica,sans-Serif" font-size="10.00" fill="#000000"> </text>
<polyline fill="none" stroke="#000000" points="212.5,-421.5 387.5,-421.5 "/>
<text text-anchor="start" x="220.5" y="-409.5" font-family="Helvetica,sans-Serif" font-size="10.00" fill="#000000">+ AbstractOdeSystemInformation()</text>
<text text-anchor="start" x="220.5" y="-398.5" font-family="Helvetica,sans-Serif" font-size="10.00" fill="#000000">+ ~AbstractOdeSystemInformation()</text>
<text text-anchor="start" x="220.5" y="-387.5" font-family="Helvetica,sans-Serif" font-size="10.00" fill="#000000">+ GetSystemName()</text>
<text text-anchor="start" x="220.5" y="-376.5" font-family="Helvetica,sans-Serif" font-size="10.00" fill="#000000">+ GetFreeVariableName()</text>
<text text-anchor="start" x="220.5" y="-365.5" font-family="Helvetica,sans-Serif" font-size="10.00" fill="#000000">+ GetFreeVariableUnits()</text>
<text text-anchor="start" x="220.5" y="-354.5" font-family="Helvetica,sans-Serif" font-size="10.00" fill="#000000">+ SetDefaultInitialConditions()</text>
<text text-anchor="start" x="220.5" y="-343.5" font-family="Helvetica,sans-Serif" font-size="10.00" fill="#000000">+ SetDefaultInitialCondition()</text>
<text text-anchor="start" x="220.5" y="-332.5" font-family="Helvetica,sans-Serif" font-size="10.00" fill="#000000">+ GetInitialConditions()</text>
<text text-anchor="start" x="220.5" y="-321.5" font-family="Helvetica,sans-Serif" font-size="10.00" fill="#000000">+ rGetStateVariableNames()</text>
<text text-anchor="start" x="220.5" y="-310.5" font-family="Helvetica,sans-Serif" font-size="10.00" fill="#000000">+ rGetStateVariableUnits()</text>
<text text-anchor="start" x="220.5" y="-299.5" font-family="Helvetica,sans-Serif" font-size="10.00" fill="#000000">and 21 more...</text>
<text text-anchor="start" x="220.5" y="-288.5" font-family="Helvetica,sans-Serif" font-size="10.00" fill="#000000"># Initialise()</text>
</a>
</g>
</g>
<!-- Node3&#45;&gt;Node2 -->
<g id="edge1" class="edge">
<title>Node3&#45;&gt;Node2</title>
<path fill="none" stroke="#191970" d="M337.3017,-272.0002C342.0389,-259.4911 346.9225,-246.5954 351.755,-233.8344"/>
<polygon fill="none" stroke="#191970" points="333.9795,-270.8904 333.711,-281.4818 340.5258,-273.3695 333.9795,-270.8904"/>
</g>
<!-- Node4 -->
<g id="node3" class="node">
<title>Node4</title>
<polygon fill="#ffffff" stroke="#bfbfbf" points="0,-562.5 0,-619.5 90,-619.5 90,-562.5 0,-562.5"/>
<text text-anchor="middle" x="45" y="-607.5" font-family="Helvetica,sans-Serif" font-size="10.00" fill="#000000">vector&lt; double &gt;</text>
<polyline fill="none" stroke="#bfbfbf" points="0,-600.5 90,-600.5 "/>
<text text-anchor="middle" x="45" y="-588.5" font-family="Helvetica,sans-Serif" font-size="10.00" fill="#000000"> </text>
<polyline fill="none" stroke="#bfbfbf" points="0,-581.5 90,-581.5 "/>
<text text-anchor="middle" x="45" y="-569.5" font-family="Helvetica,sans-Serif" font-size="10.00" fill="#000000"> </text>
</g>
<!-- Node4&#45;&gt;Node3 -->
<g id="edge2" class="edge">
<title>Node4&#45;&gt;Node3</title>
<path fill="none" stroke="#404040" d="M45.1437,-562.4734C46.695,-537.6352 52.5381,-501.9501 72,-478 104.5661,-437.9237 155.552,-411.9529 201.0578,-395.5989"/>
<polygon fill="none" stroke="#404040" points="201.1529,-395.566 205.5168,-389.8253 212.4944,-391.6455 208.1305,-397.3863 201.1529,-395.566"/>
<text text-anchor="middle" x="115.5" y="-508.5" font-family="Helvetica,sans-Serif" font-size="10.00" fill="#000000"> #mInitialConditions</text>
</g>
<!-- Node5 -->
<g id="node4" class="node">
<title>Node5</title>
<polygon fill="#ffffff" stroke="#bfbfbf" points="108.5,-562.5 108.5,-619.5 213.5,-619.5 213.5,-562.5 108.5,-562.5"/>
<text text-anchor="middle" x="161" y="-607.5" font-family="Helvetica,sans-Serif" font-size="10.00" fill="#000000">vector&lt; std::string &gt;</text>
<polyline fill="none" stroke="#bfbfbf" points="108.5,-600.5 213.5,-600.5 "/>
<text text-anchor="middle" x="161" y="-588.5" font-family="Helvetica,sans-Serif" font-size="10.00" fill="#000000"> </text>
<polyline fill="none" stroke="#bfbfbf" points="108.5,-581.5 213.5,-581.5 "/>
<text text-anchor="middle" x="161" y="-569.5" font-family="Helvetica,sans-Serif" font-size="10.00" fill="#000000"> </text>
</g>
<!-- Node5&#45;&gt;Node3 -->
<g id="edge3" class="edge">
<title>Node5&#45;&gt;Node3</title>
<path fill="none" stroke="#404040" d="M160.6704,-562.3668C161.5552,-538.4409 165.604,-504.1379 180,-478 186.523,-466.1567 194.8612,-454.9531 204.0966,-444.5698"/>
<polygon fill="none" stroke="#404040" points="204.2279,-444.4293 205.4014,-437.3142 212.4204,-435.6609 211.2469,-442.7759 204.2279,-444.4293"/>
<text text-anchor="middle" x="238" y="-536" font-family="Helvetica,sans-Serif" font-size="10.00" fill="#000000"> #mDerivedQuantityUnits</text>
<text text-anchor="middle" x="238" y="-525" font-family="Helvetica,sans-Serif" font-size="10.00" fill="#000000">#mVariableUnits</text>
<text text-anchor="middle" x="238" y="-514" font-family="Helvetica,sans-Serif" font-size="10.00" fill="#000000">#mVariableNames</text>
<text text-anchor="middle" x="238" y="-503" font-family="Helvetica,sans-Serif" font-size="10.00" fill="#000000">#mParameterNames</text>
<text text-anchor="middle" x="238" y="-492" font-family="Helvetica,sans-Serif" font-size="10.00" fill="#000000">#mDerivedQuantityNames</text>
<text text-anchor="middle" x="238" y="-481" font-family="Helvetica,sans-Serif" font-size="10.00" fill="#000000">#mParameterUnits</text>
</g>
<!-- Node6 -->
<g id="node5" class="node">
<title>Node6</title>
<g id="a_node5"><a xlink:href="classbool.html" target="_top" xlink:title="{bool\n||}">
<polygon fill="#ffffff" stroke="#000000" points="282.5,-562.5 282.5,-619.5 317.5,-619.5 317.5,-562.5 282.5,-562.5"/>
<text text-anchor="middle" x="300" y="-607.5" font-family="Helvetica,sans-Serif" font-size="10.00" fill="#000000">bool</text>
<polyline fill="none" stroke="#000000" points="282.5,-600.5 317.5,-600.5 "/>
<text text-anchor="middle" x="300" y="-588.5" font-family="Helvetica,sans-Serif" font-size="10.00" fill="#000000"> </text>
<polyline fill="none" stroke="#000000" points="282.5,-581.5 317.5,-581.5 "/>
<text text-anchor="middle" x="300" y="-569.5" font-family="Helvetica,sans-Serif" font-size="10.00" fill="#000000"> </text>
</a>
</g>
</g>
<!-- Node6&#45;&gt;Node3 -->
<g id="edge4" class="edge">
<title>Node6&#45;&gt;Node3</title>
<path fill="none" stroke="#404040" d="M300,-562.1735C300,-538.9885 300,-504.9491 300,-471.965"/>
<polygon fill="none" stroke="#404040" points="300.0001,-471.8828 296,-465.8828 300,-459.8828 304,-465.8828 300.0001,-471.8828"/>
<text text-anchor="middle" x="329" y="-508.5" font-family="Helvetica,sans-Serif" font-size="10.00" fill="#000000"> #mInitialised</text>
</g>
<!-- Node7 -->
<g id="node6" class="node">
<title>Node7</title>
<polygon fill="#ffffff" stroke="#bfbfbf" points="360.5,-562.5 360.5,-619.5 401.5,-619.5 401.5,-562.5 360.5,-562.5"/>
<text text-anchor="middle" x="381" y="-607.5" font-family="Helvetica,sans-Serif" font-size="10.00" fill="#000000">string</text>
<polyline fill="none" stroke="#bfbfbf" points="360.5,-600.5 401.5,-600.5 "/>
<text text-anchor="middle" x="381" y="-588.5" font-family="Helvetica,sans-Serif" font-size="10.00" fill="#000000"> </text>
<polyline fill="none" stroke="#bfbfbf" points="360.5,-581.5 401.5,-581.5 "/>
<text text-anchor="middle" x="381" y="-569.5" font-family="Helvetica,sans-Serif" font-size="10.00" fill="#000000"> </text>
</g>
<!-- Node7&#45;&gt;Node3 -->
<g id="edge5" class="edge">
<title>Node7&#45;&gt;Node3</title>
<path fill="none" stroke="#404040" d="M377.93,-562.4862C374.8435,-539.2373 369.0627,-505.8156 359,-478 358.1371,-475.6149 357.2268,-473.2189 356.2753,-470.8183"/>
<polygon fill="none" stroke="#404040" points="356.1979,-470.6342 350.1845,-466.6543 351.5453,-459.5728 357.5587,-463.5526 356.1979,-470.6342"/>
<text text-anchor="middle" x="422.5" y="-519.5" font-family="Helvetica,sans-Serif" font-size="10.00" fill="#000000"> #mFreeVariableUnits</text>
<text text-anchor="middle" x="422.5" y="-508.5" font-family="Helvetica,sans-Serif" font-size="10.00" fill="#000000">#mFreeVariableName</text>
<text text-anchor="middle" x="422.5" y="-497.5" font-family="Helvetica,sans-Serif" font-size="10.00" fill="#000000">#mSystemName</text>
</g>
<!-- Node8 -->
<g id="node7" class="node">
<title>Node8</title>
<polygon fill="#ffffff" stroke="#bfbfbf" points="433.5,-562.5 433.5,-619.5 564.5,-619.5 564.5,-562.5 433.5,-562.5"/>
<text text-anchor="middle" x="499" y="-607.5" font-family="Helvetica,sans-Serif" font-size="10.00" fill="#000000">map&lt; std::string, double &gt;</text>
<polyline fill="none" stroke="#bfbfbf" points="433.5,-600.5 564.5,-600.5 "/>
<text text-anchor="middle" x="499" y="-588.5" font-family="Helvetica,sans-Serif" font-size="10.00" fill="#000000"> </text>
<polyline fill="none" stroke="#bfbfbf" points="433.5,-581.5 564.5,-581.5 "/>
<text text-anchor="middle" x="499" y="-569.5" font-family="Helvetica,sans-Serif" font-size="10.00" fill="#000000"> </text>
</g>
<!-- Node8&#45;&gt;Node3 -->
<g id="edge6" class="edge">
<title>Node8&#45;&gt;Node3</title>
<path fill="none" stroke="#404040" d="M500.6183,-562.4562C500.4375,-536.9046 495.8901,-500.1524 474,-478 451.7097,-455.4426 432.2344,-472.3405 398.9726,-459.8327"/>
<polygon fill="none" stroke="#404040" points="398.5765,-459.6513 391.4555,-460.7875 387.6678,-454.6512 394.7888,-453.515 398.5765,-459.6513"/>
<text text-anchor="middle" x="528.5" y="-508.5" font-family="Helvetica,sans-Serif" font-size="10.00" fill="#000000"> #mAttributes</text>
</g>
<!-- Node9 -->
<g id="node8" class="node">
<title>Node9</title>
<polygon fill="#ffffff" stroke="#bfbfbf" points="406,-336.5 406,-404.5 578,-404.5 578,-336.5 406,-336.5"/>
<text text-anchor="start" x="414" y="-392.5" font-family="Helvetica,sans-Serif" font-size="10.00" fill="#000000">shared_ptr&lt; OdeSystemInformation</text>
<text text-anchor="middle" x="492" y="-381.5" font-family="Helvetica,sans-Serif" font-size="10.00" fill="#000000">&lt; ODE_SYSTEM &gt; &gt;</text>
<polyline fill="none" stroke="#bfbfbf" points="406,-374.5 578,-374.5 "/>
<text text-anchor="middle" x="492" y="-362.5" font-family="Helvetica,sans-Serif" font-size="10.00" fill="#000000"> </text>
<polyline fill="none" stroke="#bfbfbf" points="406,-355.5 578,-355.5 "/>
<text text-anchor="middle" x="492" y="-343.5" font-family="Helvetica,sans-Serif" font-size="10.00" fill="#000000"> </text>
</g>
<!-- Node9&#45;&gt;Node2 -->
<g id="edge7" class="edge">
<title>Node9&#45;&gt;Node2</title>
<path fill="none" stroke="#404040" d="M479.053,-336.3119C469.9946,-312.3921 457.2742,-278.8021 444.506,-245.086"/>
<polygon fill="none" stroke="#404040" points="444.4292,-244.8831 438.5635,-240.6886 440.1793,-233.6608 446.045,-237.8553 444.4292,-244.8831"/>
<text text-anchor="middle" x="479" y="-255" font-family="Helvetica,sans-Serif" font-size="10.00" fill="#000000"> &#45;mpInstance</text>
</g>
</g>
</svg>
