<?xml version="1.0" encoding="UTF-8" standalone="no"?>
<!DOCTYPE svg PUBLIC "-//W3C//DTD SVG 1.1//EN"
 "http://www.w3.org/Graphics/SVG/1.1/DTD/svg11.dtd">
<!-- Generated by graphviz version 2.40.1 (20161225.0304)
 -->
<!-- Title: StiffnessMatrixAssembler&lt; ELEMENT_DIM, SPACE_DIM &gt; Pages: 1 -->
<svg width="977pt" height="1197pt"
 viewBox="0.00 0.00 976.50 1197.00" xmlns="http://www.w3.org/2000/svg" xmlns:xlink="http://www.w3.org/1999/xlink">
<g id="graph0" class="graph" transform="scale(1 1) rotate(0) translate(4 1193)">
<title>StiffnessMatrixAssembler&lt; ELEMENT_DIM, SPACE_DIM &gt;</title>
<polygon fill="#ffffff" stroke="transparent" points="-4,4 -4,-1193 972.5,-1193 972.5,4 -4,4"/>
<!-- Node6 -->
<g id="node1" class="node">
<title>Node6</title>
<polygon fill="#bfbfbf" stroke="#000000" points="643.5,-.5 643.5,-79.5 813.5,-79.5 813.5,-.5 643.5,-.5"/>
<text text-anchor="start" x="651.5" y="-67.5" font-family="Helvetica,sans-Serif" font-size="10.00" fill="#000000">StiffnessMatrixAssembler</text>
<text text-anchor="middle" x="728.5" y="-56.5" font-family="Helvetica,sans-Serif" font-size="10.00" fill="#000000">&lt; ELEMENT_DIM, SPACE_DIM &gt;</text>
<polyline fill="none" stroke="#000000" points="643.5,-49.5 813.5,-49.5 "/>
<text text-anchor="middle" x="728.5" y="-37.5" font-family="Helvetica,sans-Serif" font-size="10.00" fill="#000000"> </text>
<polyline fill="none" stroke="#000000" points="643.5,-30.5 813.5,-30.5 "/>
<text text-anchor="start" x="651.5" y="-18.5" font-family="Helvetica,sans-Serif" font-size="10.00" fill="#000000">+ ComputeMatrixTerm()</text>
<text text-anchor="start" x="651.5" y="-7.5" font-family="Helvetica,sans-Serif" font-size="10.00" fill="#000000">+ StiffnessMatrixAssembler()</text>
</g>
<!-- Node7 -->
<g id="node2" class="node">
<title>Node7</title>
<g id="a_node2"><a xlink:href="classAbstractFeVolumeIntegralAssembler.html" target="_top" xlink:title="{AbstractFeVolumeIntegral\lAssembler\&lt; ELEMENT_DIM,\l SPACE_DIM, 1, false, true,\l NORMAL \&gt;\n||+ AbstractFeVolumeIntegral\lAssembler()\l+ ~AbstractFeVolumeIntegral\lAssembler()\l# ComputeTransformedBasisFunction\lDerivatives()\l# DoAssemble()\l# ComputeMatrixTerm()\l# ComputeVectorTerm()\l# AssembleOnElement()\l# ElementAssemblyCriterion()\l}">
<polygon fill="#ffffff" stroke="#000000" points="637.5,-117.5 637.5,-317.5 819.5,-317.5 819.5,-117.5 637.5,-117.5"/>
<text text-anchor="start" x="645.5" y="-305.5" font-family="Helvetica,sans-Serif" font-size="10.00" fill="#000000">AbstractFeVolumeIntegral</text>
<text text-anchor="start" x="645.5" y="-294.5" font-family="Helvetica,sans-Serif" font-size="10.00" fill="#000000">Assembler&lt; ELEMENT_DIM,</text>
<text text-anchor="start" x="645.5" y="-283.5" font-family="Helvetica,sans-Serif" font-size="10.00" fill="#000000"> SPACE_DIM, 1, false, true,</text>
<text text-anchor="middle" x="728.5" y="-272.5" font-family="Helvetica,sans-Serif" font-size="10.00" fill="#000000"> NORMAL &gt;</text>
<polyline fill="none" stroke="#000000" points="637.5,-265.5 819.5,-265.5 "/>
<text text-anchor="middle" x="728.5" y="-253.5" font-family="Helvetica,sans-Serif" font-size="10.00" fill="#000000"> </text>
<polyline fill="none" stroke="#000000" points="637.5,-246.5 819.5,-246.5 "/>
<text text-anchor="start" x="645.5" y="-234.5" font-family="Helvetica,sans-Serif" font-size="10.00" fill="#000000">+ AbstractFeVolumeIntegral</text>
<text text-anchor="start" x="645.5" y="-223.5" font-family="Helvetica,sans-Serif" font-size="10.00" fill="#000000">Assembler()</text>
<text text-anchor="start" x="645.5" y="-212.5" font-family="Helvetica,sans-Serif" font-size="10.00" fill="#000000">+ ~AbstractFeVolumeIntegral</text>
<text text-anchor="start" x="645.5" y="-201.5" font-family="Helvetica,sans-Serif" font-size="10.00" fill="#000000">Assembler()</text>
<text text-anchor="start" x="645.5" y="-190.5" font-family="Helvetica,sans-Serif" font-size="10.00" fill="#000000"># ComputeTransformedBasisFunction</text>
<text text-anchor="start" x="645.5" y="-179.5" font-family="Helvetica,sans-Serif" font-size="10.00" fill="#000000">Derivatives()</text>
<text text-anchor="start" x="645.5" y="-168.5" font-family="Helvetica,sans-Serif" font-size="10.00" fill="#000000"># DoAssemble()</text>
<text text-anchor="start" x="645.5" y="-157.5" font-family="Helvetica,sans-Serif" font-size="10.00" fill="#000000"># ComputeMatrixTerm()</text>
<text text-anchor="start" x="645.5" y="-146.5" font-family="Helvetica,sans-Serif" font-size="10.00" fill="#000000"># ComputeVectorTerm()</text>
<text text-anchor="start" x="645.5" y="-135.5" font-family="Helvetica,sans-Serif" font-size="10.00" fill="#000000"># AssembleOnElement()</text>
<text text-anchor="start" x="645.5" y="-124.5" font-family="Helvetica,sans-Serif" font-size="10.00" fill="#000000"># ElementAssemblyCriterion()</text>
</a>
</g>
</g>
<!-- Node7&#45;&gt;Node6 -->
<g id="edge1" class="edge">
<title>Node7&#45;&gt;Node6</title>
<path fill="none" stroke="#191970" d="M728.5,-107.0895C728.5,-97.3634 728.5,-88.007 728.5,-79.5273"/>
<polygon fill="none" stroke="#191970" points="725.0001,-107.3377 728.5,-117.3377 732.0001,-107.3378 725.0001,-107.3377"/>
</g>
<!-- Node8 -->
<g id="node3" class="node">
<title>Node8</title>
<g id="a_node3"><a xlink:href="classAbstractFeAssemblerCommon.html" target="_top" xlink:title="{AbstractFeAssemblerCommon\l\&lt; ELEMENT_DIM, SPACE_DIM,\l PROBLEM_DIM, CAN_ASSEMBLE\l_VECTOR, CAN_ASSEMBLE_MATRIX,\l INTERPOLATION_LEVEL \&gt;\n||+ AbstractFeAssemblerCommon()\l+ SetCurrentSolution()\l+ ~AbstractFeAssemblerCommon()\l# GetCurrentSolutionOrGuess\lValue()\l# ResetInterpolatedQuantities()\l# IncrementInterpolatedQuantities()\l# IncrementInterpolatedGradient\lQuantities()\l}">
<polygon fill="#ffffff" stroke="#000000" points="391,-646.5 391,-835.5 588,-835.5 588,-646.5 391,-646.5"/>
<text text-anchor="start" x="399" y="-823.5" font-family="Helvetica,sans-Serif" font-size="10.00" fill="#000000">AbstractFeAssemblerCommon</text>
<text text-anchor="start" x="399" y="-812.5" font-family="Helvetica,sans-Serif" font-size="10.00" fill="#000000">&lt; ELEMENT_DIM, SPACE_DIM,</text>
<text text-anchor="start" x="399" y="-801.5" font-family="Helvetica,sans-Serif" font-size="10.00" fill="#000000"> PROBLEM_DIM, CAN_ASSEMBLE</text>
<text text-anchor="start" x="399" y="-790.5" font-family="Helvetica,sans-Serif" font-size="10.00" fill="#000000">_VECTOR, CAN_ASSEMBLE_MATRIX,</text>
<text text-anchor="middle" x="489.5" y="-779.5" font-family="Helvetica,sans-Serif" font-size="10.00" fill="#000000"> INTERPOLATION_LEVEL &gt;</text>
<polyline fill="none" stroke="#000000" points="391,-772.5 588,-772.5 "/>
<text text-anchor="middle" x="489.5" y="-760.5" font-family="Helvetica,sans-Serif" font-size="10.00" fill="#000000"> </text>
<polyline fill="none" stroke="#000000" points="391,-753.5 588,-753.5 "/>
<text text-anchor="start" x="399" y="-741.5" font-family="Helvetica,sans-Serif" font-size="10.00" fill="#000000">+ AbstractFeAssemblerCommon()</text>
<text text-anchor="start" x="399" y="-730.5" font-family="Helvetica,sans-Serif" font-size="10.00" fill="#000000">+ SetCurrentSolution()</text>
<text text-anchor="start" x="399" y="-719.5" font-family="Helvetica,sans-Serif" font-size="10.00" fill="#000000">+ ~AbstractFeAssemblerCommon()</text>
<text text-anchor="start" x="399" y="-708.5" font-family="Helvetica,sans-Serif" font-size="10.00" fill="#000000"># GetCurrentSolutionOrGuess</text>
<text text-anchor="start" x="399" y="-697.5" font-family="Helvetica,sans-Serif" font-size="10.00" fill="#000000">Value()</text>
<text text-anchor="start" x="399" y="-686.5" font-family="Helvetica,sans-Serif" font-size="10.00" fill="#000000"># ResetInterpolatedQuantities()</text>
<text text-anchor="start" x="399" y="-675.5" font-family="Helvetica,sans-Serif" font-size="10.00" fill="#000000"># IncrementInterpolatedQuantities()</text>
<text text-anchor="start" x="399" y="-664.5" font-family="Helvetica,sans-Serif" font-size="10.00" fill="#000000"># IncrementInterpolatedGradient</text>
<text text-anchor="start" x="399" y="-653.5" font-family="Helvetica,sans-Serif" font-size="10.00" fill="#000000">Quantities()</text>
</a>
</g>
</g>
<!-- Node8&#45;&gt;Node7 -->
<g id="edge2" class="edge">
<title>Node8&#45;&gt;Node7</title>
<path fill="none" stroke="#191970" d="M470.5316,-636.0593C462.4417,-562.2321 462.5433,-463.3762 502.5,-387 531.6008,-331.3745 588.1008,-288.9995 637.3256,-260.5309"/>
<polygon fill="none" stroke="#191970" points="467.0914,-636.7773 471.7242,-646.3056 474.0445,-635.968 467.0914,-636.7773"/>
</g>
<!-- Node21 -->
<g id="node16" class="node">
<title>Node21</title>
<g id="a_node16"><a xlink:href="classAbstractFeVolumeIntegralAssembler.html" target="_top" xlink:title="{AbstractFeVolumeIntegral\lAssembler\&lt; ELEMENT_DIM,\l SPACE_DIM, PROBLEM_DIM,\l CAN_ASSEMBLE_VECTOR, CAN\l_ASSEMBLE_MATRIX, INTERPOLATION_LEVEL \&gt;\n||+ AbstractFeVolumeIntegral\lAssembler()\l+ ~AbstractFeVolumeIntegral\lAssembler()\l# ComputeTransformedBasisFunction\lDerivatives()\l# DoAssemble()\l# ComputeMatrixTerm()\l# ComputeVectorTerm()\l# AssembleOnElement()\l# ElementAssemblyCriterion()\l}">
<polygon fill="#ffffff" stroke="#000000" points="511,-387.5 511,-598.5 762,-598.5 762,-387.5 511,-387.5"/>
<text text-anchor="start" x="519" y="-586.5" font-family="Helvetica,sans-Serif" font-size="10.00" fill="#000000">AbstractFeVolumeIntegral</text>
<text text-anchor="start" x="519" y="-575.5" font-family="Helvetica,sans-Serif" font-size="10.00" fill="#000000">Assembler&lt; ELEMENT_DIM,</text>
<text text-anchor="start" x="519" y="-564.5" font-family="Helvetica,sans-Serif" font-size="10.00" fill="#000000"> SPACE_DIM, PROBLEM_DIM,</text>
<text text-anchor="start" x="519" y="-553.5" font-family="Helvetica,sans-Serif" font-size="10.00" fill="#000000"> CAN_ASSEMBLE_VECTOR, CAN</text>
<text text-anchor="middle" x="636.5" y="-542.5" font-family="Helvetica,sans-Serif" font-size="10.00" fill="#000000">_ASSEMBLE_MATRIX, INTERPOLATION_LEVEL &gt;</text>
<polyline fill="none" stroke="#000000" points="511,-535.5 762,-535.5 "/>
<text text-anchor="middle" x="636.5" y="-523.5" font-family="Helvetica,sans-Serif" font-size="10.00" fill="#000000"> </text>
<polyline fill="none" stroke="#000000" points="511,-516.5 762,-516.5 "/>
<text text-anchor="start" x="519" y="-504.5" font-family="Helvetica,sans-Serif" font-size="10.00" fill="#000000">+ AbstractFeVolumeIntegral</text>
<text text-anchor="start" x="519" y="-493.5" font-family="Helvetica,sans-Serif" font-size="10.00" fill="#000000">Assembler()</text>
<text text-anchor="start" x="519" y="-482.5" font-family="Helvetica,sans-Serif" font-size="10.00" fill="#000000">+ ~AbstractFeVolumeIntegral</text>
<text text-anchor="start" x="519" y="-471.5" font-family="Helvetica,sans-Serif" font-size="10.00" fill="#000000">Assembler()</text>
<text text-anchor="start" x="519" y="-460.5" font-family="Helvetica,sans-Serif" font-size="10.00" fill="#000000"># ComputeTransformedBasisFunction</text>
<text text-anchor="start" x="519" y="-449.5" font-family="Helvetica,sans-Serif" font-size="10.00" fill="#000000">Derivatives()</text>
<text text-anchor="start" x="519" y="-438.5" font-family="Helvetica,sans-Serif" font-size="10.00" fill="#000000"># DoAssemble()</text>
<text text-anchor="start" x="519" y="-427.5" font-family="Helvetica,sans-Serif" font-size="10.00" fill="#000000"># ComputeMatrixTerm()</text>
<text text-anchor="start" x="519" y="-416.5" font-family="Helvetica,sans-Serif" font-size="10.00" fill="#000000"># ComputeVectorTerm()</text>
<text text-anchor="start" x="519" y="-405.5" font-family="Helvetica,sans-Serif" font-size="10.00" fill="#000000"># AssembleOnElement()</text>
<text text-anchor="start" x="519" y="-394.5" font-family="Helvetica,sans-Serif" font-size="10.00" fill="#000000"># ElementAssemblyCriterion()</text>
</a>
</g>
</g>
<!-- Node8&#45;&gt;Node21 -->
<g id="edge17" class="edge">
<title>Node8&#45;&gt;Node21</title>
<path fill="none" stroke="#191970" d="M550.9377,-637.35C558.545,-624.516 566.3294,-611.383 573.9531,-598.5213"/>
<polygon fill="none" stroke="#191970" points="547.7918,-635.7933 545.7036,-646.1803 553.8135,-639.3626 547.7918,-635.7933"/>
</g>
<!-- Node9 -->
<g id="node4" class="node">
<title>Node9</title>
<g id="a_node4"><a xlink:href="classAbstractFeAssemblerInterface.html" target="_top" xlink:title="{AbstractFeAssemblerInterface\l\&lt; CAN_ASSEMBLE_VECTOR, CAN\l_ASSEMBLE_MATRIX \&gt;\n||+ AbstractFeAssemblerInterface()\l+ SetMatrixToAssemble()\l+ SetVectorToAssemble()\l+ Assemble()\l+ AssembleMatrix()\l+ AssembleVector()\l+ ~AbstractFeAssemblerInterface()\l# DoAssemble()\l}">
<polygon fill="#ffffff" stroke="#000000" points="233.5,-894.5 233.5,-1050.5 415.5,-1050.5 415.5,-894.5 233.5,-894.5"/>
<text text-anchor="start" x="241.5" y="-1038.5" font-family="Helvetica,sans-Serif" font-size="10.00" fill="#000000">AbstractFeAssemblerInterface</text>
<text text-anchor="start" x="241.5" y="-1027.5" font-family="Helvetica,sans-Serif" font-size="10.00" fill="#000000">&lt; CAN_ASSEMBLE_VECTOR, CAN</text>
<text text-anchor="middle" x="324.5" y="-1016.5" font-family="Helvetica,sans-Serif" font-size="10.00" fill="#000000">_ASSEMBLE_MATRIX &gt;</text>
<polyline fill="none" stroke="#000000" points="233.5,-1009.5 415.5,-1009.5 "/>
<text text-anchor="middle" x="324.5" y="-997.5" font-family="Helvetica,sans-Serif" font-size="10.00" fill="#000000"> </text>
<polyline fill="none" stroke="#000000" points="233.5,-990.5 415.5,-990.5 "/>
<text text-anchor="start" x="241.5" y="-978.5" font-family="Helvetica,sans-Serif" font-size="10.00" fill="#000000">+ AbstractFeAssemblerInterface()</text>
<text text-anchor="start" x="241.5" y="-967.5" font-family="Helvetica,sans-Serif" font-size="10.00" fill="#000000">+ SetMatrixToAssemble()</text>
<text text-anchor="start" x="241.5" y="-956.5" font-family="Helvetica,sans-Serif" font-size="10.00" fill="#000000">+ SetVectorToAssemble()</text>
<text text-anchor="start" x="241.5" y="-945.5" font-family="Helvetica,sans-Serif" font-size="10.00" fill="#000000">+ Assemble()</text>
<text text-anchor="start" x="241.5" y="-934.5" font-family="Helvetica,sans-Serif" font-size="10.00" fill="#000000">+ AssembleMatrix()</text>
<text text-anchor="start" x="241.5" y="-923.5" font-family="Helvetica,sans-Serif" font-size="10.00" fill="#000000">+ AssembleVector()</text>
<text text-anchor="start" x="241.5" y="-912.5" font-family="Helvetica,sans-Serif" font-size="10.00" fill="#000000">+ ~AbstractFeAssemblerInterface()</text>
<text text-anchor="start" x="241.5" y="-901.5" font-family="Helvetica,sans-Serif" font-size="10.00" fill="#000000"># DoAssemble()</text>
</a>
</g>
</g>
<!-- Node9&#45;&gt;Node8 -->
<g id="edge3" class="edge">
<title>Node9&#45;&gt;Node8</title>
<path fill="none" stroke="#191970" d="M386.1963,-885.9383C397.9087,-869.5054 410.2196,-852.2328 422.0981,-835.5669"/>
<polygon fill="none" stroke="#191970" points="383.0854,-884.2727 380.1314,-894.4474 388.7857,-888.3355 383.0854,-884.2727"/>
</g>
<!-- Node10 -->
<g id="node5" class="node">
<title>Node10</title>
<polygon fill="#ffffff" stroke="#bfbfbf" points="0,-1131.5 0,-1188.5 71,-1188.5 71,-1131.5 0,-1131.5"/>
<text text-anchor="middle" x="35.5" y="-1176.5" font-family="Helvetica,sans-Serif" font-size="10.00" fill="#000000">noncopyable</text>
<polyline fill="none" stroke="#bfbfbf" points="0,-1169.5 71,-1169.5 "/>
<text text-anchor="middle" x="35.5" y="-1157.5" font-family="Helvetica,sans-Serif" font-size="10.00" fill="#000000"> </text>
<polyline fill="none" stroke="#bfbfbf" points="0,-1150.5 71,-1150.5 "/>
<text text-anchor="middle" x="35.5" y="-1138.5" font-family="Helvetica,sans-Serif" font-size="10.00" fill="#000000"> </text>
</g>
<!-- Node10&#45;&gt;Node9 -->
<g id="edge4" class="edge">
<title>Node10&#45;&gt;Node9</title>
<path fill="none" stroke="#8b1a1a" d="M56.4599,-1122.8075C68.1373,-1104.698 84.0442,-1083.7149 102.5,-1069 140.9457,-1038.3471 190.6204,-1015.5562 233.2297,-999.8436"/>
<polygon fill="none" stroke="#8b1a1a" points="53.4051,-1121.0914 51.0745,-1131.4267 59.3416,-1124.8007 53.4051,-1121.0914"/>
</g>
<!-- Node11 -->
<g id="node6" class="node">
<title>Node11</title>
<g id="a_node6"><a xlink:href="classbool.html" target="_top" xlink:title="{bool\n||}">
<polygon fill="#ffffff" stroke="#000000" points="89,-1131.5 89,-1188.5 124,-1188.5 124,-1131.5 89,-1131.5"/>
<text text-anchor="middle" x="106.5" y="-1176.5" font-family="Helvetica,sans-Serif" font-size="10.00" fill="#000000">bool</text>
<polyline fill="none" stroke="#000000" points="89,-1169.5 124,-1169.5 "/>
<text text-anchor="middle" x="106.5" y="-1157.5" font-family="Helvetica,sans-Serif" font-size="10.00" fill="#000000"> </text>
<polyline fill="none" stroke="#000000" points="89,-1150.5 124,-1150.5 "/>
<text text-anchor="middle" x="106.5" y="-1138.5" font-family="Helvetica,sans-Serif" font-size="10.00" fill="#000000"> </text>
</a>
</g>
</g>
<!-- Node11&#45;&gt;Node9 -->
<g id="edge5" class="edge">
<title>Node11&#45;&gt;Node9</title>
<path fill="none" stroke="#404040" d="M104.6486,-1131.4938C104.8438,-1112.0823 108.1158,-1086.7823 121.5,-1069 146.2225,-1036.1535 184.9763,-1013.9987 222.0259,-999.2985"/>
<polygon fill="none" stroke="#404040" points="222.2295,-999.2215 226.4242,-993.3559 233.4519,-994.9721 229.2572,-1000.8376 222.2295,-999.2215"/>
<text text-anchor="middle" x="188.5" y="-1105" font-family="Helvetica,sans-Serif" font-size="10.00" fill="#000000"> #mAssembleVector</text>
<text text-anchor="middle" x="188.5" y="-1094" font-family="Helvetica,sans-Serif" font-size="10.00" fill="#000000">#mZeroVectorBeforeAssembly</text>
<text text-anchor="middle" x="188.5" y="-1083" font-family="Helvetica,sans-Serif" font-size="10.00" fill="#000000">#mAssembleMatrix</text>
<text text-anchor="middle" x="188.5" y="-1072" font-family="Helvetica,sans-Serif" font-size="10.00" fill="#000000">#mZeroMatrixBeforeAssembly</text>
</g>
<!-- Node12 -->
<g id="node7" class="node">
<title>Node12</title>
<g id="a_node7"><a xlink:href="classMat.html" target="_top" xlink:title="{Mat\n||}">
<polygon fill="#ffffff" stroke="#000000" points="247,-1131.5 247,-1188.5 280,-1188.5 280,-1131.5 247,-1131.5"/>
<text text-anchor="middle" x="263.5" y="-1176.5" font-family="Helvetica,sans-Serif" font-size="10.00" fill="#000000">Mat</text>
<polyline fill="none" stroke="#000000" points="247,-1169.5 280,-1169.5 "/>
<text text-anchor="middle" x="263.5" y="-1157.5" font-family="Helvetica,sans-Serif" font-size="10.00" fill="#000000"> </text>
<polyline fill="none" stroke="#000000" points="247,-1150.5 280,-1150.5 "/>
<text text-anchor="middle" x="263.5" y="-1138.5" font-family="Helvetica,sans-Serif" font-size="10.00" fill="#000000"> </text>
</a>
</g>
</g>
<!-- Node12&#45;&gt;Node9 -->
<g id="edge6" class="edge">
<title>Node12&#45;&gt;Node9</title>
<path fill="none" stroke="#404040" d="M259.8982,-1131.1361C258.5794,-1112.9479 258.6196,-1089.1739 264.5,-1069 265.1728,-1066.6917 265.9176,-1064.3845 266.7259,-1062.0835"/>
<polygon fill="none" stroke="#404040" points="266.8347,-1061.8089 265.3282,-1054.7569 271.2582,-1050.6539 272.7648,-1057.7059 266.8347,-1061.8089"/>
<text text-anchor="middle" x="314" y="-1088.5" font-family="Helvetica,sans-Serif" font-size="10.00" fill="#000000"> #mMatrixToAssemble</text>
</g>
<!-- Node13 -->
<g id="node8" class="node">
<title>Node13</title>
<g id="a_node8"><a xlink:href="classPetscInt.html" target="_top" xlink:title="{PetscInt\n||}">
<polygon fill="#ffffff" stroke="#000000" points="359,-1131.5 359,-1188.5 412,-1188.5 412,-1131.5 359,-1131.5"/>
<text text-anchor="middle" x="385.5" y="-1176.5" font-family="Helvetica,sans-Serif" font-size="10.00" fill="#000000">PetscInt</text>
<polyline fill="none" stroke="#000000" points="359,-1169.5 412,-1169.5 "/>
<text text-anchor="middle" x="385.5" y="-1157.5" font-family="Helvetica,sans-Serif" font-size="10.00" fill="#000000"> </text>
<polyline fill="none" stroke="#000000" points="359,-1150.5 412,-1150.5 "/>
<text text-anchor="middle" x="385.5" y="-1138.5" font-family="Helvetica,sans-Serif" font-size="10.00" fill="#000000"> </text>
</a>
</g>
</g>
<!-- Node13&#45;&gt;Node9 -->
<g id="edge7" class="edge">
<title>Node13&#45;&gt;Node9</title>
<path fill="none" stroke="#404040" d="M379.7204,-1131.4193C375.7878,-1113.3409 370.1078,-1089.5828 363.5,-1069 362.7751,-1066.7418 362.0219,-1064.4616 361.2454,-1062.1674"/>
<polygon fill="none" stroke="#404040" points="361.1659,-1061.9409 355.404,-1057.605 357.1902,-1050.6186 362.9522,-1054.9545 361.1659,-1061.9409"/>
<text text-anchor="middle" x="426.5" y="-1094" font-family="Helvetica,sans-Serif" font-size="10.00" fill="#000000"> #mOwnershipRangeHi</text>
<text text-anchor="middle" x="426.5" y="-1083" font-family="Helvetica,sans-Serif" font-size="10.00" fill="#000000">#mOwnershipRangeLo</text>
</g>
<!-- Node14 -->
<g id="node9" class="node">
<title>Node14</title>
<g id="a_node9"><a xlink:href="classVec.html" target="_top" xlink:title="{Vec\n||}">
<polygon fill="#ffffff" stroke="#000000" points="554.5,-1131.5 554.5,-1188.5 588.5,-1188.5 588.5,-1131.5 554.5,-1131.5"/>
<text text-anchor="middle" x="571.5" y="-1176.5" font-family="Helvetica,sans-Serif" font-size="10.00" fill="#000000">Vec</text>
<polyline fill="none" stroke="#000000" points="554.5,-1169.5 588.5,-1169.5 "/>
<text text-anchor="middle" x="571.5" y="-1157.5" font-family="Helvetica,sans-Serif" font-size="10.00" fill="#000000"> </text>
<polyline fill="none" stroke="#000000" points="554.5,-1150.5 588.5,-1150.5 "/>
<text text-anchor="middle" x="571.5" y="-1138.5" font-family="Helvetica,sans-Serif" font-size="10.00" fill="#000000"> </text>
</a>
</g>
</g>
<!-- Node14&#45;&gt;Node9 -->
<g id="edge8" class="edge">
<title>Node14&#45;&gt;Node9</title>
<path fill="none" stroke="#404040" d="M554.2484,-1150.0402C540.4414,-1141.4728 521.1898,-1128.1278 507.5,-1113 492.2588,-1096.1579 497.4212,-1085.2008 481.5,-1069 465.2679,-1052.4827 445.6635,-1037.5911 425.8916,-1024.7264"/>
<polygon fill="none" stroke="#404040" points="425.6946,-1024.6018 418.4855,-1024.7741 415.5538,-1018.1858 422.7629,-1018.0135 425.6946,-1024.6018"/>
<text text-anchor="middle" x="557.5" y="-1088.5" font-family="Helvetica,sans-Serif" font-size="10.00" fill="#000000"> #mVectorToAssemble</text>
</g>
<!-- Node15 -->
<g id="node10" class="node">
<title>Node15</title>
<g id="a_node10"><a xlink:href="classReplicatableVector.html" target="_top" xlink:title="{ReplicatableVector\n||+ ReplicatableVector()\l+ ReplicatableVector()\l+ ReplicatableVector()\l+ ~ReplicatableVector()\l+ GetSize()\l+ Resize()\l+ operator[]()\l+ Replicate()\l+ ReplicatePetscVector()\l&#45; RemovePetscContext()\l}">
<polygon fill="#ffffff" stroke="#000000" points="654,-894.5 654,-1050.5 781,-1050.5 781,-894.5 654,-894.5"/>
<text text-anchor="middle" x="717.5" y="-1038.5" font-family="Helvetica,sans-Serif" font-size="10.00" fill="#000000">ReplicatableVector</text>
<polyline fill="none" stroke="#000000" points="654,-1031.5 781,-1031.5 "/>
<text text-anchor="middle" x="717.5" y="-1019.5" font-family="Helvetica,sans-Serif" font-size="10.00" fill="#000000"> </text>
<polyline fill="none" stroke="#000000" points="654,-1012.5 781,-1012.5 "/>
<text text-anchor="start" x="662" y="-1000.5" font-family="Helvetica,sans-Serif" font-size="10.00" fill="#000000">+ ReplicatableVector()</text>
<text text-anchor="start" x="662" y="-989.5" font-family="Helvetica,sans-Serif" font-size="10.00" fill="#000000">+ ReplicatableVector()</text>
<text text-anchor="start" x="662" y="-978.5" font-family="Helvetica,sans-Serif" font-size="10.00" fill="#000000">+ ReplicatableVector()</text>
<text text-anchor="start" x="662" y="-967.5" font-family="Helvetica,sans-Serif" font-size="10.00" fill="#000000">+ ~ReplicatableVector()</text>
<text text-anchor="start" x="662" y="-956.5" font-family="Helvetica,sans-Serif" font-size="10.00" fill="#000000">+ GetSize()</text>
<text text-anchor="start" x="662" y="-945.5" font-family="Helvetica,sans-Serif" font-size="10.00" fill="#000000">+ Resize()</text>
<text text-anchor="start" x="662" y="-934.5" font-family="Helvetica,sans-Serif" font-size="10.00" fill="#000000">+ operator[]()</text>
<text text-anchor="start" x="662" y="-923.5" font-family="Helvetica,sans-Serif" font-size="10.00" fill="#000000">+ Replicate()</text>
<text text-anchor="start" x="662" y="-912.5" font-family="Helvetica,sans-Serif" font-size="10.00" fill="#000000">+ ReplicatePetscVector()</text>
<text text-anchor="start" x="662" y="-901.5" font-family="Helvetica,sans-Serif" font-size="10.00" fill="#000000">&#45; RemovePetscContext()</text>
</a>
</g>
</g>
<!-- Node14&#45;&gt;Node15 -->
<g id="edge13" class="edge">
<title>Node14&#45;&gt;Node15</title>
<path fill="none" stroke="#404040" d="M588.8921,-1140.0903C596.0121,-1131.8048 604.2622,-1122.029 611.5,-1113 624.9646,-1096.2032 639.0465,-1078.0102 652.386,-1060.4617"/>
<polygon fill="none" stroke="#404040" points="652.4654,-1060.3569 652.9003,-1053.1589 659.7119,-1050.7919 659.277,-1057.9899 652.4654,-1060.3569"/>
<text text-anchor="middle" x="674" y="-1088.5" font-family="Helvetica,sans-Serif" font-size="10.00" fill="#000000"> &#45;mReplicated</text>
</g>
<!-- Node15&#45;&gt;Node8 -->
<g id="edge9" class="edge">
<title>Node15&#45;&gt;Node8</title>
<path fill="none" stroke="#404040" d="M653.9893,-908.0143C634.5633,-888.2902 612.6862,-866.0772 591.3802,-844.4441"/>
<polygon fill="none" stroke="#404040" points="591.3532,-844.4167 584.2931,-842.9487 582.9327,-835.867 589.9929,-837.3351 591.3532,-844.4167"/>
<text text-anchor="start" x="616.5" y="-868" font-family="Helvetica,sans-Serif" font-size="10.00" fill="#000000"> #mCurrentSolutionOrGuess</text>
<text text-anchor="middle" x="678.5" y="-857" font-family="Helvetica,sans-Serif" font-size="10.00" fill="#000000">Replicated</text>
</g>
<!-- Node16 -->
<g id="node11" class="node">
<title>Node16</title>
<g id="a_node11"><a xlink:href="classdouble.html" target="_top" xlink:title="{double\n||}">
<polygon fill="#ffffff" stroke="#000000" points="690,-1131.5 690,-1188.5 735,-1188.5 735,-1131.5 690,-1131.5"/>
<text text-anchor="middle" x="712.5" y="-1176.5" font-family="Helvetica,sans-Serif" font-size="10.00" fill="#000000">double</text>
<polyline fill="none" stroke="#000000" points="690,-1169.5 735,-1169.5 "/>
<text text-anchor="middle" x="712.5" y="-1157.5" font-family="Helvetica,sans-Serif" font-size="10.00" fill="#000000"> </text>
<polyline fill="none" stroke="#000000" points="690,-1150.5 735,-1150.5 "/>
<text text-anchor="middle" x="712.5" y="-1138.5" font-family="Helvetica,sans-Serif" font-size="10.00" fill="#000000"> </text>
</a>
</g>
</g>
<!-- Node16&#45;&gt;Node15 -->
<g id="edge10" class="edge">
<title>Node16&#45;&gt;Node15</title>
<path fill="none" stroke="#404040" d="M713.2703,-1131.114C713.7623,-1112.6636 714.4296,-1087.6389 715.0887,-1062.923"/>
<polygon fill="none" stroke="#404040" points="715.0908,-1062.8404 711.2522,-1056.7358 715.4108,-1050.8446 719.2494,-1056.9491 715.0908,-1062.8404"/>
<text text-anchor="middle" x="735" y="-1088.5" font-family="Helvetica,sans-Serif" font-size="10.00" fill="#000000"> &#45;mpData</text>
</g>
<!-- Node17 -->
<g id="node12" class="node">
<title>Node17</title>
<polygon fill="#ffffff" stroke="#bfbfbf" points="753,-1131.5 753,-1188.5 818,-1188.5 818,-1131.5 753,-1131.5"/>
<text text-anchor="middle" x="785.5" y="-1176.5" font-family="Helvetica,sans-Serif" font-size="10.00" fill="#000000">VecScatter</text>
<polyline fill="none" stroke="#bfbfbf" points="753,-1169.5 818,-1169.5 "/>
<text text-anchor="middle" x="785.5" y="-1157.5" font-family="Helvetica,sans-Serif" font-size="10.00" fill="#000000"> </text>
<polyline fill="none" stroke="#bfbfbf" points="753,-1150.5 818,-1150.5 "/>
<text text-anchor="middle" x="785.5" y="-1138.5" font-family="Helvetica,sans-Serif" font-size="10.00" fill="#000000"> </text>
</g>
<!-- Node17&#45;&gt;Node15 -->
<g id="edge11" class="edge">
<title>Node17&#45;&gt;Node15</title>
<path fill="none" stroke="#404040" d="M778.3712,-1131.4102C773.6078,-1113.3283 766.8783,-1089.5697 759.5,-1069 758.6566,-1066.6486 757.7834,-1064.2732 756.8862,-1061.8829"/>
<polygon fill="none" stroke="#404040" points="756.8603,-1061.816 750.9654,-1057.6626 752.5321,-1050.6237 758.427,-1054.7771 756.8603,-1061.816"/>
<text text-anchor="middle" x="791" y="-1088.5" font-family="Helvetica,sans-Serif" font-size="10.00" fill="#000000"> &#45;mToAll</text>
</g>
<!-- Node18 -->
<g id="node13" class="node">
<title>Node18</title>
<g id="a_node13"><a xlink:href="classunsigned.html" target="_top" xlink:title="{unsigned\n||}">
<polygon fill="#ffffff" stroke="#000000" points="836.5,-1131.5 836.5,-1188.5 892.5,-1188.5 892.5,-1131.5 836.5,-1131.5"/>
<text text-anchor="middle" x="864.5" y="-1176.5" font-family="Helvetica,sans-Serif" font-size="10.00" fill="#000000">unsigned</text>
<polyline fill="none" stroke="#000000" points="836.5,-1169.5 892.5,-1169.5 "/>
<text text-anchor="middle" x="864.5" y="-1157.5" font-family="Helvetica,sans-Serif" font-size="10.00" fill="#000000"> </text>
<polyline fill="none" stroke="#000000" points="836.5,-1150.5 892.5,-1150.5 "/>
<text text-anchor="middle" x="864.5" y="-1138.5" font-family="Helvetica,sans-Serif" font-size="10.00" fill="#000000"> </text>
</a>
</g>
</g>
<!-- Node18&#45;&gt;Node15 -->
<g id="edge12" class="edge">
<title>Node18&#45;&gt;Node15</title>
<path fill="none" stroke="#404040" d="M850.9648,-1131.305C841.6111,-1112.7501 828.2342,-1088.5107 813.5,-1069 806.1612,-1059.2821 797.887,-1049.5664 789.3514,-1040.2457"/>
<polygon fill="none" stroke="#404040" points="789.3115,-1040.2031 782.2907,-1038.5571 781.1098,-1031.4434 788.1305,-1033.0893 789.3115,-1040.2031"/>
<text text-anchor="middle" x="857.5" y="-1088.5" font-family="Helvetica,sans-Serif" font-size="10.00" fill="#000000"> &#45;mSize</text>
</g>
<!-- Node19 -->
<g id="node14" class="node">
<title>Node19</title>
<polygon fill="#ffffff" stroke="#bfbfbf" points="842.5,-707 842.5,-775 968.5,-775 968.5,-707 842.5,-707"/>
<text text-anchor="start" x="850.5" y="-763" font-family="Helvetica,sans-Serif" font-size="10.00" fill="#000000">GaussianQuadratureRule</text>
<text text-anchor="middle" x="905.5" y="-752" font-family="Helvetica,sans-Serif" font-size="10.00" fill="#000000">&lt; ELEMENT_DIM &gt; *</text>
<polyline fill="none" stroke="#bfbfbf" points="842.5,-745 968.5,-745 "/>
<text text-anchor="middle" x="905.5" y="-733" font-family="Helvetica,sans-Serif" font-size="10.00" fill="#000000"> </text>
<polyline fill="none" stroke="#bfbfbf" points="842.5,-726 968.5,-726 "/>
<text text-anchor="middle" x="905.5" y="-714" font-family="Helvetica,sans-Serif" font-size="10.00" fill="#000000"> </text>
</g>
<!-- Node19&#45;&gt;Node7 -->
<g id="edge14" class="edge">
<title>Node19&#45;&gt;Node7</title>
<path fill="none" stroke="#404040" d="M904.9214,-706.9532C902.7554,-642.2334 892.7742,-498.0072 847.5,-387 839.2705,-366.8221 828.2677,-346.698 816.2661,-327.7332"/>
<polygon fill="none" stroke="#404040" points="816.2403,-327.6933 809.6189,-324.8372 809.7086,-317.6266 816.33,-320.4828 816.2403,-327.6933"/>
<text text-anchor="middle" x="928.5" y="-490.5" font-family="Helvetica,sans-Serif" font-size="10.00" fill="#000000"> #mpQuadRule</text>
</g>
<!-- Node19&#45;&gt;Node21 -->
<g id="edge18" class="edge">
<title>Node19&#45;&gt;Node21</title>
<path fill="none" stroke="#404040" d="M876.737,-706.9708C860.5211,-688.3747 839.5472,-665.2732 819.5,-646 804.2608,-631.3492 787.8228,-616.4577 771.2699,-602.0041"/>
<polygon fill="none" stroke="#404040" points="771.1342,-601.8864 763.9807,-600.9768 762.069,-594.0237 769.2225,-594.9333 771.1342,-601.8864"/>
<text text-anchor="middle" x="828.5" y="-620" font-family="Helvetica,sans-Serif" font-size="10.00" fill="#000000"> #mpQuadRule</text>
</g>
<!-- Node20 -->
<g id="node15" class="node">
<title>Node20</title>
<polygon fill="#ffffff" stroke="#bfbfbf" points="633,-707 633,-775 810,-775 810,-707 633,-707"/>
<text text-anchor="start" x="641" y="-763" font-family="Helvetica,sans-Serif" font-size="10.00" fill="#000000">AbstractTetrahedralMesh</text>
<text text-anchor="middle" x="721.5" y="-752" font-family="Helvetica,sans-Serif" font-size="10.00" fill="#000000">&lt; ELEMENT_DIM, SPACE_DIM &gt; *</text>
<polyline fill="none" stroke="#bfbfbf" points="633,-745 810,-745 "/>
<text text-anchor="middle" x="721.5" y="-733" font-family="Helvetica,sans-Serif" font-size="10.00" fill="#000000"> </text>
<polyline fill="none" stroke="#bfbfbf" points="633,-726 810,-726 "/>
<text text-anchor="middle" x="721.5" y="-714" font-family="Helvetica,sans-Serif" font-size="10.00" fill="#000000"> </text>
</g>
<!-- Node20&#45;&gt;Node7 -->
<g id="edge15" class="edge">
<title>Node20&#45;&gt;Node7</title>
<path fill="none" stroke="#404040" d="M736.6355,-706.7573C748.3841,-678.4638 763.9096,-636.9298 771.5,-599 794.4648,-484.2437 810.1235,-450.1921 784.5,-336 783.9862,-333.7104 783.423,-331.4129 782.8151,-329.112"/>
<polygon fill="none" stroke="#404040" points="782.8146,-329.11 777.2829,-324.4839 779.4257,-317.5984 784.9573,-322.2246 782.8146,-329.11"/>
<text text-anchor="middle" x="820.5" y="-490.5" font-family="Helvetica,sans-Serif" font-size="10.00" fill="#000000"> #mpMesh</text>
</g>
<!-- Node20&#45;&gt;Node21 -->
<g id="edge19" class="edge">
<title>Node20&#45;&gt;Node21</title>
<path fill="none" stroke="#404040" d="M709.7704,-706.777C701.0993,-681.478 688.7451,-645.4329 676.6461,-610.1322"/>
<polygon fill="none" stroke="#404040" points="676.6226,-610.0634 670.8933,-605.6845 672.7318,-598.7117 678.4611,-603.0906 676.6226,-610.0634"/>
<text text-anchor="middle" x="704.5" y="-620" font-family="Helvetica,sans-Serif" font-size="10.00" fill="#000000"> #mpMesh</text>
</g>
<!-- Node21&#45;&gt;Node7 -->
<g id="edge16" class="edge">
<title>Node21&#45;&gt;Node7</title>
<path fill="none" stroke="#ffa500" d="M649.1329,-377.5641C652.1469,-363.3693 655.879,-349.2177 660.5,-336 662.6136,-329.9545 665.0377,-323.8661 667.6834,-317.8111"/>
<polygon fill="#ffa500" stroke="#ffa500" points="645.6977,-376.8937 647.1589,-387.3873 652.5605,-378.2728 645.6977,-376.8937"/>
<text text-anchor="start" x="660.5" y="-361" font-family="Helvetica,sans-Serif" font-size="10.00" fill="#000000"> &lt; ELEMENT_DIM, SPACE</text>
<text text-anchor="start" x="660.5" y="-350" font-family="Helvetica,sans-Serif" font-size="10.00" fill="#000000">_DIM, 1, false, true,</text>
<text text-anchor="middle" x="722.5" y="-339" font-family="Helvetica,sans-Serif" font-size="10.00" fill="#000000"> NORMAL &gt;</text>
</g>
</g>
</svg>
