<?xml version="1.0" encoding="UTF-8" standalone="no"?>
<!DOCTYPE svg PUBLIC "-//W3C//DTD SVG 1.1//EN"
 "http://www.w3.org/Graphics/SVG/1.1/DTD/svg11.dtd">
<!-- Generated by graphviz version 2.40.1 (20161225.0304)
 -->
<!-- Title: ChasteCuboid&lt; SPACE_DIM &gt; Pages: 1 -->
<svg width="359pt" height="783pt"
 viewBox="0.00 0.00 359.00 783.00" xmlns="http://www.w3.org/2000/svg" xmlns:xlink="http://www.w3.org/1999/xlink">
<g id="graph0" class="graph" transform="scale(1 1) rotate(0) translate(4 779)">
<title>ChasteCuboid&lt; SPACE_DIM &gt;</title>
<polygon fill="#ffffff" stroke="transparent" points="-4,4 -4,-779 355,-779 355,4 -4,4"/>
<!-- Node2 -->
<g id="node1" class="node">
<title>Node2</title>
<polygon fill="#bfbfbf" stroke="#000000" points="23.5,-.5 23.5,-134.5 145.5,-134.5 145.5,-.5 23.5,-.5"/>
<text text-anchor="start" x="31.5" y="-122.5" font-family="Helvetica,sans-Serif" font-size="10.00" fill="#000000">ChasteCuboid&lt; SPACE</text>
<text text-anchor="middle" x="84.5" y="-111.5" font-family="Helvetica,sans-Serif" font-size="10.00" fill="#000000">_DIM &gt;</text>
<polyline fill="none" stroke="#000000" points="23.5,-104.5 145.5,-104.5 "/>
<text text-anchor="middle" x="84.5" y="-92.5" font-family="Helvetica,sans-Serif" font-size="10.00" fill="#000000"> </text>
<polyline fill="none" stroke="#000000" points="23.5,-85.5 145.5,-85.5 "/>
<text text-anchor="start" x="31.5" y="-73.5" font-family="Helvetica,sans-Serif" font-size="10.00" fill="#000000">+ ChasteCuboid()</text>
<text text-anchor="start" x="31.5" y="-62.5" font-family="Helvetica,sans-Serif" font-size="10.00" fill="#000000">+ DoesContain()</text>
<text text-anchor="start" x="31.5" y="-51.5" font-family="Helvetica,sans-Serif" font-size="10.00" fill="#000000">+ rGetUpperCorner()</text>
<text text-anchor="start" x="31.5" y="-40.5" font-family="Helvetica,sans-Serif" font-size="10.00" fill="#000000">+ rGetLowerCorner()</text>
<text text-anchor="start" x="31.5" y="-29.5" font-family="Helvetica,sans-Serif" font-size="10.00" fill="#000000">+ GetWidth()</text>
<text text-anchor="start" x="31.5" y="-18.5" font-family="Helvetica,sans-Serif" font-size="10.00" fill="#000000">+ GetLongestAxis()</text>
<text text-anchor="start" x="31.5" y="-7.5" font-family="Helvetica,sans-Serif" font-size="10.00" fill="#000000">&#45; serialize()</text>
</g>
<!-- Node3 -->
<g id="node2" class="node">
<title>Node3</title>
<g id="a_node2"><a xlink:href="classAbstractChasteRegion.html" target="_top" xlink:title="{AbstractChasteRegion\l\&lt; SPACE_DIM \&gt;\n||+ AbstractChasteRegion()\l+ Destroy()\l+ ~AbstractChasteRegion()\l+ DoesContain()\l&#45; serialize()\l}">
<polygon fill="#ffffff" stroke="#000000" points="0,-221 0,-333 137,-333 137,-221 0,-221"/>
<text text-anchor="start" x="8" y="-321" font-family="Helvetica,sans-Serif" font-size="10.00" fill="#000000">AbstractChasteRegion</text>
<text text-anchor="middle" x="68.5" y="-310" font-family="Helvetica,sans-Serif" font-size="10.00" fill="#000000">&lt; SPACE_DIM &gt;</text>
<polyline fill="none" stroke="#000000" points="0,-303 137,-303 "/>
<text text-anchor="middle" x="68.5" y="-291" font-family="Helvetica,sans-Serif" font-size="10.00" fill="#000000"> </text>
<polyline fill="none" stroke="#000000" points="0,-284 137,-284 "/>
<text text-anchor="start" x="8" y="-272" font-family="Helvetica,sans-Serif" font-size="10.00" fill="#000000">+ AbstractChasteRegion()</text>
<text text-anchor="start" x="8" y="-261" font-family="Helvetica,sans-Serif" font-size="10.00" fill="#000000">+ Destroy()</text>
<text text-anchor="start" x="8" y="-250" font-family="Helvetica,sans-Serif" font-size="10.00" fill="#000000">+ ~AbstractChasteRegion()</text>
<text text-anchor="start" x="8" y="-239" font-family="Helvetica,sans-Serif" font-size="10.00" fill="#000000">+ DoesContain()</text>
<text text-anchor="start" x="8" y="-228" font-family="Helvetica,sans-Serif" font-size="10.00" fill="#000000">&#45; serialize()</text>
</a>
</g>
</g>
<!-- Node3&#45;&gt;Node2 -->
<g id="edge1" class="edge">
<title>Node3&#45;&gt;Node2</title>
<path fill="none" stroke="#191970" d="M73.5657,-210.6716C75.419,-186.4044 77.5162,-158.9435 79.3748,-134.6087"/>
<polygon fill="none" stroke="#191970" points="70.0595,-210.6203 72.7877,-220.8578 77.0391,-211.1534 70.0595,-210.6203"/>
</g>
<!-- Node4 -->
<g id="node3" class="node">
<title>Node4</title>
<g id="a_node3"><a xlink:href="classChastePoint.html" target="_top" xlink:title="{ChastePoint\&lt; SPACE\l_DIM \&gt;\n||+ ChastePoint()\l+ ChastePoint()\l+ ChastePoint()\l+ rGetLocation()\l+ rGetLocation()\l+ operator[]()\l+ GetWithDefault()\l+ SetCoordinate()\l+ IsSamePoint()\l&#45; serialize()\l}">
<polygon fill="#ffffff" stroke="#000000" points="155.5,-193.5 155.5,-360.5 269.5,-360.5 269.5,-193.5 155.5,-193.5"/>
<text text-anchor="start" x="163.5" y="-348.5" font-family="Helvetica,sans-Serif" font-size="10.00" fill="#000000">ChastePoint&lt; SPACE</text>
<text text-anchor="middle" x="212.5" y="-337.5" font-family="Helvetica,sans-Serif" font-size="10.00" fill="#000000">_DIM &gt;</text>
<polyline fill="none" stroke="#000000" points="155.5,-330.5 269.5,-330.5 "/>
<text text-anchor="middle" x="212.5" y="-318.5" font-family="Helvetica,sans-Serif" font-size="10.00" fill="#000000"> </text>
<polyline fill="none" stroke="#000000" points="155.5,-311.5 269.5,-311.5 "/>
<text text-anchor="start" x="163.5" y="-299.5" font-family="Helvetica,sans-Serif" font-size="10.00" fill="#000000">+ ChastePoint()</text>
<text text-anchor="start" x="163.5" y="-288.5" font-family="Helvetica,sans-Serif" font-size="10.00" fill="#000000">+ ChastePoint()</text>
<text text-anchor="start" x="163.5" y="-277.5" font-family="Helvetica,sans-Serif" font-size="10.00" fill="#000000">+ ChastePoint()</text>
<text text-anchor="start" x="163.5" y="-266.5" font-family="Helvetica,sans-Serif" font-size="10.00" fill="#000000">+ rGetLocation()</text>
<text text-anchor="start" x="163.5" y="-255.5" font-family="Helvetica,sans-Serif" font-size="10.00" fill="#000000">+ rGetLocation()</text>
<text text-anchor="start" x="163.5" y="-244.5" font-family="Helvetica,sans-Serif" font-size="10.00" fill="#000000">+ operator[]()</text>
<text text-anchor="start" x="163.5" y="-233.5" font-family="Helvetica,sans-Serif" font-size="10.00" fill="#000000">+ GetWithDefault()</text>
<text text-anchor="start" x="163.5" y="-222.5" font-family="Helvetica,sans-Serif" font-size="10.00" fill="#000000">+ SetCoordinate()</text>
<text text-anchor="start" x="163.5" y="-211.5" font-family="Helvetica,sans-Serif" font-size="10.00" fill="#000000">+ IsSamePoint()</text>
<text text-anchor="start" x="163.5" y="-200.5" font-family="Helvetica,sans-Serif" font-size="10.00" fill="#000000">&#45; serialize()</text>
</a>
</g>
</g>
<!-- Node4&#45;&gt;Node2 -->
<g id="edge2" class="edge">
<title>Node4&#45;&gt;Node2</title>
<path fill="none" stroke="#404040" d="M161.3592,-193.2969C151.6843,-177.4618 141.6005,-160.9575 132.0421,-145.3131"/>
<polygon fill="none" stroke="#404040" points="131.7767,-144.8786 125.2351,-141.8441 125.5202,-134.6386 132.0618,-137.6731 131.7767,-144.8786"/>
<text text-anchor="middle" x="183.5" y="-167" font-family="Helvetica,sans-Serif" font-size="10.00" fill="#000000"> &#45;mUpperCorner</text>
<text text-anchor="middle" x="183.5" y="-156" font-family="Helvetica,sans-Serif" font-size="10.00" fill="#000000">&#45;mLowerCorner</text>
</g>
<!-- Node5 -->
<g id="node4" class="node">
<title>Node5</title>
<polygon fill="#ffffff" stroke="#bfbfbf" points="127,-612.5 127,-669.5 252,-669.5 252,-612.5 127,-612.5"/>
<text text-anchor="middle" x="189.5" y="-657.5" font-family="Helvetica,sans-Serif" font-size="10.00" fill="#000000">c_vector&lt; double, DIM &gt;</text>
<polyline fill="none" stroke="#bfbfbf" points="127,-650.5 252,-650.5 "/>
<text text-anchor="middle" x="189.5" y="-638.5" font-family="Helvetica,sans-Serif" font-size="10.00" fill="#000000"> </text>
<polyline fill="none" stroke="#bfbfbf" points="127,-631.5 252,-631.5 "/>
<text text-anchor="middle" x="189.5" y="-619.5" font-family="Helvetica,sans-Serif" font-size="10.00" fill="#000000"> </text>
</g>
<!-- Node5&#45;&gt;Node4 -->
<g id="edge3" class="edge">
<title>Node5&#45;&gt;Node4</title>
<path fill="none" stroke="#404040" d="M186.6853,-612.1605C185.4379,-597.9722 184.1151,-580.6058 183.5,-565 180.752,-495.2764 175.9141,-477.3642 183.5,-408 184.763,-396.4511 186.6346,-384.43 188.8298,-372.5589"/>
<polygon fill="none" stroke="#404040" points="188.8333,-372.5406 186.0512,-365.8878 191.1222,-360.7609 193.9043,-367.4137 188.8333,-372.5406"/>
<text text-anchor="middle" x="209.5" y="-484" font-family="Helvetica,sans-Serif" font-size="10.00" fill="#000000"> &#45;mLocation</text>
</g>
<!-- Node7 -->
<g id="node6" class="node">
<title>Node7</title>
<g id="a_node6"><a xlink:href="classChastePoint.html" target="_top" xlink:title="{ChastePoint\&lt; DIM \&gt;\n||+ ChastePoint()\l+ ChastePoint()\l+ ChastePoint()\l+ rGetLocation()\l+ rGetLocation()\l+ operator[]()\l+ GetWithDefault()\l+ SetCoordinate()\l+ IsSamePoint()\l&#45; serialize()\l}">
<polygon fill="#ffffff" stroke="#000000" points="244,-408.5 244,-564.5 351,-564.5 351,-408.5 244,-408.5"/>
<text text-anchor="middle" x="297.5" y="-552.5" font-family="Helvetica,sans-Serif" font-size="10.00" fill="#000000">ChastePoint&lt; DIM &gt;</text>
<polyline fill="none" stroke="#000000" points="244,-545.5 351,-545.5 "/>
<text text-anchor="middle" x="297.5" y="-533.5" font-family="Helvetica,sans-Serif" font-size="10.00" fill="#000000"> </text>
<polyline fill="none" stroke="#000000" points="244,-526.5 351,-526.5 "/>
<text text-anchor="start" x="252" y="-514.5" font-family="Helvetica,sans-Serif" font-size="10.00" fill="#000000">+ ChastePoint()</text>
<text text-anchor="start" x="252" y="-503.5" font-family="Helvetica,sans-Serif" font-size="10.00" fill="#000000">+ ChastePoint()</text>
<text text-anchor="start" x="252" y="-492.5" font-family="Helvetica,sans-Serif" font-size="10.00" fill="#000000">+ ChastePoint()</text>
<text text-anchor="start" x="252" y="-481.5" font-family="Helvetica,sans-Serif" font-size="10.00" fill="#000000">+ rGetLocation()</text>
<text text-anchor="start" x="252" y="-470.5" font-family="Helvetica,sans-Serif" font-size="10.00" fill="#000000">+ rGetLocation()</text>
<text text-anchor="start" x="252" y="-459.5" font-family="Helvetica,sans-Serif" font-size="10.00" fill="#000000">+ operator[]()</text>
<text text-anchor="start" x="252" y="-448.5" font-family="Helvetica,sans-Serif" font-size="10.00" fill="#000000">+ GetWithDefault()</text>
<text text-anchor="start" x="252" y="-437.5" font-family="Helvetica,sans-Serif" font-size="10.00" fill="#000000">+ SetCoordinate()</text>
<text text-anchor="start" x="252" y="-426.5" font-family="Helvetica,sans-Serif" font-size="10.00" fill="#000000">+ IsSamePoint()</text>
<text text-anchor="start" x="252" y="-415.5" font-family="Helvetica,sans-Serif" font-size="10.00" fill="#000000">&#45; serialize()</text>
</a>
</g>
</g>
<!-- Node5&#45;&gt;Node7 -->
<g id="edge6" class="edge">
<title>Node5&#45;&gt;Node7</title>
<path fill="none" stroke="#404040" d="M209.5609,-612.3018C217.4148,-601.0663 226.8796,-587.5264 236.6484,-573.5516"/>
<polygon fill="none" stroke="#404040" points="236.9215,-573.1609 237.0806,-565.9516 243.7966,-563.3257 243.6375,-570.535 236.9215,-573.1609"/>
<text text-anchor="middle" x="253.5" y="-586" font-family="Helvetica,sans-Serif" font-size="10.00" fill="#000000"> &#45;mLocation</text>
</g>
<!-- Node6 -->
<g id="node5" class="node">
<title>Node6</title>
<polygon fill="#ffffff" stroke="#bfbfbf" points="162.5,-717.5 162.5,-774.5 216.5,-774.5 216.5,-717.5 162.5,-717.5"/>
<text text-anchor="middle" x="189.5" y="-762.5" font-family="Helvetica,sans-Serif" font-size="10.00" fill="#000000">c_vector</text>
<polyline fill="none" stroke="#bfbfbf" points="162.5,-755.5 216.5,-755.5 "/>
<text text-anchor="middle" x="189.5" y="-743.5" font-family="Helvetica,sans-Serif" font-size="10.00" fill="#000000"> </text>
<polyline fill="none" stroke="#bfbfbf" points="162.5,-736.5 216.5,-736.5 "/>
<text text-anchor="middle" x="189.5" y="-724.5" font-family="Helvetica,sans-Serif" font-size="10.00" fill="#000000"> </text>
</g>
<!-- Node6&#45;&gt;Node5 -->
<g id="edge4" class="edge">
<title>Node6&#45;&gt;Node5</title>
<path fill="none" stroke="#ffa500" d="M189.5,-707.192C189.5,-694.7605 189.5,-681.2278 189.5,-669.657"/>
<polygon fill="#ffa500" stroke="#ffa500" points="186.0001,-707.3083 189.5,-717.3083 193.0001,-707.3083 186.0001,-707.3083"/>
<text text-anchor="middle" x="227" y="-691" font-family="Helvetica,sans-Serif" font-size="10.00" fill="#000000"> &lt; double, DIM &gt;</text>
</g>
<!-- Node7&#45;&gt;Node4 -->
<g id="edge5" class="edge">
<title>Node7&#45;&gt;Node4</title>
<path fill="none" stroke="#ffa500" d="M261.9575,-398.8983C256.8263,-386.2514 251.556,-373.2616 246.4569,-360.6937"/>
<polygon fill="#ffa500" stroke="#ffa500" points="258.8462,-400.5395 265.8491,-408.4899 265.3327,-397.9077 258.8462,-400.5395"/>
<text text-anchor="middle" x="297.5" y="-382" font-family="Helvetica,sans-Serif" font-size="10.00" fill="#000000"> &lt; SPACE_DIM &gt;</text>
</g>
</g>
</svg>
