<?xml version="1.0" encoding="UTF-8" standalone="no"?>
<!DOCTYPE svg PUBLIC "-//W3C//DTD SVG 1.1//EN"
 "http://www.w3.org/Graphics/SVG/1.1/DTD/svg11.dtd">
<!-- Generated by graphviz version 2.40.1 (20161225.0304)
 -->
<!-- Title: ChastePoint&lt; DIM &gt; Pages: 1 -->
<svg width="146pt" height="375pt"
 viewBox="0.00 0.00 145.50 375.00" xmlns="http://www.w3.org/2000/svg" xmlns:xlink="http://www.w3.org/1999/xlink">
<g id="graph0" class="graph" transform="scale(1 1) rotate(0) translate(4 371)">
<title>ChastePoint&lt; DIM &gt;</title>
<polygon fill="#ffffff" stroke="transparent" points="-4,4 -4,-371 141.5,-371 141.5,4 -4,4"/>
<!-- Node2 -->
<g id="node1" class="node">
<title>Node2</title>
<polygon fill="#bfbfbf" stroke="#000000" points="9,-.5 9,-156.5 116,-156.5 116,-.5 9,-.5"/>
<text text-anchor="middle" x="62.5" y="-144.5" font-family="Helvetica,sans-Serif" font-size="10.00" fill="#000000">ChastePoint&lt; DIM &gt;</text>
<polyline fill="none" stroke="#000000" points="9,-137.5 116,-137.5 "/>
<text text-anchor="middle" x="62.5" y="-125.5" font-family="Helvetica,sans-Serif" font-size="10.00" fill="#000000"> </text>
<polyline fill="none" stroke="#000000" points="9,-118.5 116,-118.5 "/>
<text text-anchor="start" x="17" y="-106.5" font-family="Helvetica,sans-Serif" font-size="10.00" fill="#000000">+ ChastePoint()</text>
<text text-anchor="start" x="17" y="-95.5" font-family="Helvetica,sans-Serif" font-size="10.00" fill="#000000">+ ChastePoint()</text>
<text text-anchor="start" x="17" y="-84.5" font-family="Helvetica,sans-Serif" font-size="10.00" fill="#000000">+ ChastePoint()</text>
<text text-anchor="start" x="17" y="-73.5" font-family="Helvetica,sans-Serif" font-size="10.00" fill="#000000">+ rGetLocation()</text>
<text text-anchor="start" x="17" y="-62.5" font-family="Helvetica,sans-Serif" font-size="10.00" fill="#000000">+ rGetLocation()</text>
<text text-anchor="start" x="17" y="-51.5" font-family="Helvetica,sans-Serif" font-size="10.00" fill="#000000">+ operator[]()</text>
<text text-anchor="start" x="17" y="-40.5" font-family="Helvetica,sans-Serif" font-size="10.00" fill="#000000">+ GetWithDefault()</text>
<text text-anchor="start" x="17" y="-29.5" font-family="Helvetica,sans-Serif" font-size="10.00" fill="#000000">+ SetCoordinate()</text>
<text text-anchor="start" x="17" y="-18.5" font-family="Helvetica,sans-Serif" font-size="10.00" fill="#000000">+ IsSamePoint()</text>
<text text-anchor="start" x="17" y="-7.5" font-family="Helvetica,sans-Serif" font-size="10.00" fill="#000000">&#45; serialize()</text>
</g>
<!-- Node3 -->
<g id="node2" class="node">
<title>Node3</title>
<polygon fill="#ffffff" stroke="#bfbfbf" points="0,-204.5 0,-261.5 125,-261.5 125,-204.5 0,-204.5"/>
<text text-anchor="middle" x="62.5" y="-249.5" font-family="Helvetica,sans-Serif" font-size="10.00" fill="#000000">c_vector&lt; double, DIM &gt;</text>
<polyline fill="none" stroke="#bfbfbf" points="0,-242.5 125,-242.5 "/>
<text text-anchor="middle" x="62.5" y="-230.5" font-family="Helvetica,sans-Serif" font-size="10.00" fill="#000000"> </text>
<polyline fill="none" stroke="#bfbfbf" points="0,-223.5 125,-223.5 "/>
<text text-anchor="middle" x="62.5" y="-211.5" font-family="Helvetica,sans-Serif" font-size="10.00" fill="#000000"> </text>
</g>
<!-- Node3&#45;&gt;Node2 -->
<g id="edge1" class="edge">
<title>Node3&#45;&gt;Node2</title>
<path fill="none" stroke="#404040" d="M62.5,-204.3018C62.5,-193.9853 62.5,-181.726 62.5,-168.9711"/>
<polygon fill="none" stroke="#404040" points="62.5001,-168.6376 58.5,-162.6376 62.5,-156.6376 66.5,-162.6375 62.5001,-168.6376"/>
<text text-anchor="middle" x="88.5" y="-178" font-family="Helvetica,sans-Serif" font-size="10.00" fill="#000000"> &#45;mLocation</text>
</g>
<!-- Node4 -->
<g id="node3" class="node">
<title>Node4</title>
<polygon fill="#ffffff" stroke="#bfbfbf" points="35.5,-309.5 35.5,-366.5 89.5,-366.5 89.5,-309.5 35.5,-309.5"/>
<text text-anchor="middle" x="62.5" y="-354.5" font-family="Helvetica,sans-Serif" font-size="10.00" fill="#000000">c_vector</text>
<polyline fill="none" stroke="#bfbfbf" points="35.5,-347.5 89.5,-347.5 "/>
<text text-anchor="middle" x="62.5" y="-335.5" font-family="Helvetica,sans-Serif" font-size="10.00" fill="#000000"> </text>
<polyline fill="none" stroke="#bfbfbf" points="35.5,-328.5 89.5,-328.5 "/>
<text text-anchor="middle" x="62.5" y="-316.5" font-family="Helvetica,sans-Serif" font-size="10.00" fill="#000000"> </text>
</g>
<!-- Node4&#45;&gt;Node3 -->
<g id="edge2" class="edge">
<title>Node4&#45;&gt;Node3</title>
<path fill="none" stroke="#ffa500" d="M62.5,-299.192C62.5,-286.7605 62.5,-273.2278 62.5,-261.657"/>
<polygon fill="#ffa500" stroke="#ffa500" points="59.0001,-299.3083 62.5,-309.3083 66.0001,-299.3083 59.0001,-299.3083"/>
<text text-anchor="middle" x="100" y="-283" font-family="Helvetica,sans-Serif" font-size="10.00" fill="#000000"> &lt; double, DIM &gt;</text>
</g>
</g>
</svg>
