<?xml version="1.0" encoding="UTF-8" standalone="no"?>
<!DOCTYPE svg PUBLIC "-//W3C//DTD SVG 1.1//EN"
 "http://www.w3.org/Graphics/SVG/1.1/DTD/svg11.dtd">
<!-- Generated by graphviz version 2.40.1 (20161225.0304)
 -->
<!-- Title: ForwardEulerNumericalMethod&lt; ELEMENT_DIM, SPACE_DIM &gt; Pages: 1 -->
<svg width="617pt" height="552pt"
 viewBox="0.00 0.00 617.00 552.00" xmlns="http://www.w3.org/2000/svg" xmlns:xlink="http://www.w3.org/1999/xlink">
<g id="graph0" class="graph" transform="scale(1 1) rotate(0) translate(4 548)">
<title>ForwardEulerNumericalMethod&lt; ELEMENT_DIM, SPACE_DIM &gt;</title>
<polygon fill="#ffffff" stroke="transparent" points="-4,4 -4,-548 613,-548 613,4 -4,4"/>
<!-- Node3 -->
<g id="node1" class="node">
<title>Node3</title>
<polygon fill="#bfbfbf" stroke="#000000" points="217.5,-.5 217.5,-112.5 405.5,-112.5 405.5,-.5 217.5,-.5"/>
<text text-anchor="start" x="225.5" y="-100.5" font-family="Helvetica,sans-Serif" font-size="10.00" fill="#000000">ForwardEulerNumericalMethod</text>
<text text-anchor="middle" x="311.5" y="-89.5" font-family="Helvetica,sans-Serif" font-size="10.00" fill="#000000">&lt; ELEMENT_DIM, SPACE_DIM &gt;</text>
<polyline fill="none" stroke="#000000" points="217.5,-82.5 405.5,-82.5 "/>
<text text-anchor="middle" x="311.5" y="-70.5" font-family="Helvetica,sans-Serif" font-size="10.00" fill="#000000"> </text>
<polyline fill="none" stroke="#000000" points="217.5,-63.5 405.5,-63.5 "/>
<text text-anchor="start" x="225.5" y="-51.5" font-family="Helvetica,sans-Serif" font-size="10.00" fill="#000000">+ ForwardEulerNumericalMethod()</text>
<text text-anchor="start" x="225.5" y="-40.5" font-family="Helvetica,sans-Serif" font-size="10.00" fill="#000000">+ ~ForwardEulerNumericalMethod()</text>
<text text-anchor="start" x="225.5" y="-29.5" font-family="Helvetica,sans-Serif" font-size="10.00" fill="#000000">+ UpdateAllNodePositions()</text>
<text text-anchor="start" x="225.5" y="-18.5" font-family="Helvetica,sans-Serif" font-size="10.00" fill="#000000">+ OutputNumericalMethodParameters()</text>
<text text-anchor="start" x="225.5" y="-7.5" font-family="Helvetica,sans-Serif" font-size="10.00" fill="#000000">&#45; serialize()</text>
</g>
<!-- Node4 -->
<g id="node2" class="node">
<title>Node4</title>
<g id="a_node2"><a xlink:href="classAbstractNumericalMethod.html" target="_top" xlink:title="{AbstractNumericalMethod\l\&lt; ELEMENT_DIM, SPACE_DIM \&gt;\n||+ AbstractNumericalMethod()\l+ ~AbstractNumericalMethod()\l+ SetCellPopulation()\l+ SetForceCollection()\l+ SetUseAdaptiveTimestep()\l+ SetUseUpdateNodeLocation()\l+ GetUseUpdateNodeLocation()\l+ HasAdaptiveTimestep()\l+ UpdateAllNodePositions()\l+ OutputNumericalMethodInfo()\l+ OutputNumericalMethodParameters()\l# ComputeForcesIncludingDamping()\l# SaveCurrentLocations()\l# SafeNodePositionUpdate()\l# DetectStepSizeExceptions()\l&#45; serialize()\l}">
<polygon fill="#ffffff" stroke="#000000" points="217.5,-150.5 217.5,-383.5 405.5,-383.5 405.5,-150.5 217.5,-150.5"/>
<text text-anchor="start" x="225.5" y="-371.5" font-family="Helvetica,sans-Serif" font-size="10.00" fill="#000000">AbstractNumericalMethod</text>
<text text-anchor="middle" x="311.5" y="-360.5" font-family="Helvetica,sans-Serif" font-size="10.00" fill="#000000">&lt; ELEMENT_DIM, SPACE_DIM &gt;</text>
<polyline fill="none" stroke="#000000" points="217.5,-353.5 405.5,-353.5 "/>
<text text-anchor="middle" x="311.5" y="-341.5" font-family="Helvetica,sans-Serif" font-size="10.00" fill="#000000"> </text>
<polyline fill="none" stroke="#000000" points="217.5,-334.5 405.5,-334.5 "/>
<text text-anchor="start" x="225.5" y="-322.5" font-family="Helvetica,sans-Serif" font-size="10.00" fill="#000000">+ AbstractNumericalMethod()</text>
<text text-anchor="start" x="225.5" y="-311.5" font-family="Helvetica,sans-Serif" font-size="10.00" fill="#000000">+ ~AbstractNumericalMethod()</text>
<text text-anchor="start" x="225.5" y="-300.5" font-family="Helvetica,sans-Serif" font-size="10.00" fill="#000000">+ SetCellPopulation()</text>
<text text-anchor="start" x="225.5" y="-289.5" font-family="Helvetica,sans-Serif" font-size="10.00" fill="#000000">+ SetForceCollection()</text>
<text text-anchor="start" x="225.5" y="-278.5" font-family="Helvetica,sans-Serif" font-size="10.00" fill="#000000">+ SetUseAdaptiveTimestep()</text>
<text text-anchor="start" x="225.5" y="-267.5" font-family="Helvetica,sans-Serif" font-size="10.00" fill="#000000">+ SetUseUpdateNodeLocation()</text>
<text text-anchor="start" x="225.5" y="-256.5" font-family="Helvetica,sans-Serif" font-size="10.00" fill="#000000">+ GetUseUpdateNodeLocation()</text>
<text text-anchor="start" x="225.5" y="-245.5" font-family="Helvetica,sans-Serif" font-size="10.00" fill="#000000">+ HasAdaptiveTimestep()</text>
<text text-anchor="start" x="225.5" y="-234.5" font-family="Helvetica,sans-Serif" font-size="10.00" fill="#000000">+ UpdateAllNodePositions()</text>
<text text-anchor="start" x="225.5" y="-223.5" font-family="Helvetica,sans-Serif" font-size="10.00" fill="#000000">+ OutputNumericalMethodInfo()</text>
<text text-anchor="start" x="225.5" y="-212.5" font-family="Helvetica,sans-Serif" font-size="10.00" fill="#000000">+ OutputNumericalMethodParameters()</text>
<text text-anchor="start" x="225.5" y="-201.5" font-family="Helvetica,sans-Serif" font-size="10.00" fill="#000000"># ComputeForcesIncludingDamping()</text>
<text text-anchor="start" x="225.5" y="-190.5" font-family="Helvetica,sans-Serif" font-size="10.00" fill="#000000"># SaveCurrentLocations()</text>
<text text-anchor="start" x="225.5" y="-179.5" font-family="Helvetica,sans-Serif" font-size="10.00" fill="#000000"># SafeNodePositionUpdate()</text>
<text text-anchor="start" x="225.5" y="-168.5" font-family="Helvetica,sans-Serif" font-size="10.00" fill="#000000"># DetectStepSizeExceptions()</text>
<text text-anchor="start" x="225.5" y="-157.5" font-family="Helvetica,sans-Serif" font-size="10.00" fill="#000000">&#45; serialize()</text>
</a>
</g>
</g>
<!-- Node4&#45;&gt;Node3 -->
<g id="edge1" class="edge">
<title>Node4&#45;&gt;Node3</title>
<path fill="none" stroke="#191970" d="M311.5,-140.2979C311.5,-130.714 311.5,-121.3779 311.5,-112.6261"/>
<polygon fill="none" stroke="#191970" points="308.0001,-140.3609 311.5,-150.3609 315.0001,-140.361 308.0001,-140.3609"/>
</g>
<!-- Node5 -->
<g id="node3" class="node">
<title>Node5</title>
<g id="a_node3"><a xlink:href="classIdentifiable.html" target="_top" xlink:title="{Identifiable\n||+ ~Identifiable()\l+ GetIdentifier()\l&#45; TidyTemplatedExportIdentifier()\l}">
<polygon fill="#ffffff" stroke="#000000" points="0,-459 0,-538 159,-538 159,-459 0,-459"/>
<text text-anchor="middle" x="79.5" y="-526" font-family="Helvetica,sans-Serif" font-size="10.00" fill="#000000">Identifiable</text>
<polyline fill="none" stroke="#000000" points="0,-519 159,-519 "/>
<text text-anchor="middle" x="79.5" y="-507" font-family="Helvetica,sans-Serif" font-size="10.00" fill="#000000"> </text>
<polyline fill="none" stroke="#000000" points="0,-500 159,-500 "/>
<text text-anchor="start" x="8" y="-488" font-family="Helvetica,sans-Serif" font-size="10.00" fill="#000000">+ ~Identifiable()</text>
<text text-anchor="start" x="8" y="-477" font-family="Helvetica,sans-Serif" font-size="10.00" fill="#000000">+ GetIdentifier()</text>
<text text-anchor="start" x="8" y="-466" font-family="Helvetica,sans-Serif" font-size="10.00" fill="#000000">&#45; TidyTemplatedExportIdentifier()</text>
</a>
</g>
</g>
<!-- Node5&#45;&gt;Node4 -->
<g id="edge2" class="edge">
<title>Node5&#45;&gt;Node4</title>
<path fill="none" stroke="#191970" d="M126.2696,-451.8312C152.343,-425.814 185.775,-392.4541 217.0426,-361.2538"/>
<polygon fill="none" stroke="#191970" points="123.7251,-449.4258 119.1186,-458.9668 128.6695,-454.3809 123.7251,-449.4258"/>
</g>
<!-- Node6 -->
<g id="node4" class="node">
<title>Node6</title>
<polygon fill="#ffffff" stroke="#bfbfbf" points="177,-453.5 177,-543.5 332,-543.5 332,-453.5 177,-453.5"/>
<text text-anchor="start" x="185" y="-531.5" font-family="Helvetica,sans-Serif" font-size="10.00" fill="#000000">vector&lt; boost::shared</text>
<text text-anchor="start" x="185" y="-520.5" font-family="Helvetica,sans-Serif" font-size="10.00" fill="#000000">_ptr&lt; AbstractForce&lt;</text>
<text text-anchor="start" x="185" y="-509.5" font-family="Helvetica,sans-Serif" font-size="10.00" fill="#000000"> ELEMENT_DIM, SPACE_DIM</text>
<text text-anchor="middle" x="254.5" y="-498.5" font-family="Helvetica,sans-Serif" font-size="10.00" fill="#000000"> &gt; &gt; &gt; *</text>
<polyline fill="none" stroke="#bfbfbf" points="177,-491.5 332,-491.5 "/>
<text text-anchor="middle" x="254.5" y="-479.5" font-family="Helvetica,sans-Serif" font-size="10.00" fill="#000000"> </text>
<polyline fill="none" stroke="#bfbfbf" points="177,-472.5 332,-472.5 "/>
<text text-anchor="middle" x="254.5" y="-460.5" font-family="Helvetica,sans-Serif" font-size="10.00" fill="#000000"> </text>
</g>
<!-- Node6&#45;&gt;Node4 -->
<g id="edge3" class="edge">
<title>Node6&#45;&gt;Node4</title>
<path fill="none" stroke="#404040" d="M251.426,-453.4426C251.2374,-437.0963 252.1085,-418.5786 255.5,-402 255.9478,-399.8112 256.431,-397.6133 256.9466,-395.4095"/>
<polygon fill="none" stroke="#404040" points="256.9993,-395.2052 254.625,-388.3962 259.9972,-383.5857 262.3714,-390.3948 256.9993,-395.2052"/>
<text text-anchor="middle" x="301" y="-416" font-family="Helvetica,sans-Serif" font-size="10.00" fill="#000000"> #mpForceCollection</text>
</g>
<!-- Node7 -->
<g id="node5" class="node">
<title>Node7</title>
<g id="a_node5"><a xlink:href="classbool.html" target="_top" xlink:title="{bool\n||}">
<polygon fill="#ffffff" stroke="#000000" points="351,-470 351,-527 386,-527 386,-470 351,-470"/>
<text text-anchor="middle" x="368.5" y="-515" font-family="Helvetica,sans-Serif" font-size="10.00" fill="#000000">bool</text>
<polyline fill="none" stroke="#000000" points="351,-508 386,-508 "/>
<text text-anchor="middle" x="368.5" y="-496" font-family="Helvetica,sans-Serif" font-size="10.00" fill="#000000"> </text>
<polyline fill="none" stroke="#000000" points="351,-489 386,-489 "/>
<text text-anchor="middle" x="368.5" y="-477" font-family="Helvetica,sans-Serif" font-size="10.00" fill="#000000"> </text>
</a>
</g>
</g>
<!-- Node7&#45;&gt;Node4 -->
<g id="edge4" class="edge">
<title>Node7&#45;&gt;Node4</title>
<path fill="none" stroke="#404040" d="M362.1753,-469.7346C357.8936,-450.5213 352.0302,-424.7056 346.5,-402 345.9749,-399.8442 345.4426,-397.6697 344.9042,-395.4807"/>
<polygon fill="none" stroke="#404040" points="344.861,-395.3062 339.5349,-390.4449 341.9739,-383.6587 347.2999,-388.5201 344.861,-395.3062"/>
<text text-anchor="middle" x="418" y="-427" font-family="Helvetica,sans-Serif" font-size="10.00" fill="#000000"> #mUseUpdateNodeLocation</text>
<text text-anchor="middle" x="418" y="-416" font-family="Helvetica,sans-Serif" font-size="10.00" fill="#000000">#mUseAdaptiveTimestep</text>
<text text-anchor="middle" x="418" y="-405" font-family="Helvetica,sans-Serif" font-size="10.00" fill="#000000">#mGhostNodeForcesEnabled</text>
</g>
<!-- Node8 -->
<g id="node6" class="node">
<title>Node8</title>
<polygon fill="#ffffff" stroke="#bfbfbf" points="432,-464.5 432,-532.5 609,-532.5 609,-464.5 432,-464.5"/>
<text text-anchor="start" x="440" y="-520.5" font-family="Helvetica,sans-Serif" font-size="10.00" fill="#000000">AbstractOffLatticeCellPopulation</text>
<text text-anchor="middle" x="520.5" y="-509.5" font-family="Helvetica,sans-Serif" font-size="10.00" fill="#000000">&lt; ELEMENT_DIM, SPACE_DIM &gt; *</text>
<polyline fill="none" stroke="#bfbfbf" points="432,-502.5 609,-502.5 "/>
<text text-anchor="middle" x="520.5" y="-490.5" font-family="Helvetica,sans-Serif" font-size="10.00" fill="#000000"> </text>
<polyline fill="none" stroke="#bfbfbf" points="432,-483.5 609,-483.5 "/>
<text text-anchor="middle" x="520.5" y="-471.5" font-family="Helvetica,sans-Serif" font-size="10.00" fill="#000000"> </text>
</g>
<!-- Node8&#45;&gt;Node4 -->
<g id="edge5" class="edge">
<title>Node8&#45;&gt;Node4</title>
<path fill="none" stroke="#404040" d="M513.4944,-464.0665C508.3259,-444.547 499.8259,-420.422 486.5,-402 467.3558,-375.5345 441.5936,-351.7427 415.7314,-331.7728"/>
<polygon fill="none" stroke="#404040" points="415.4111,-331.5315 408.212,-331.1144 405.8282,-324.3087 413.0272,-324.7258 415.4111,-331.5315"/>
<text text-anchor="middle" x="546" y="-416" font-family="Helvetica,sans-Serif" font-size="10.00" fill="#000000"> #mpCellPopulation</text>
</g>
</g>
</svg>
