<?xml version="1.0" encoding="UTF-8" standalone="no"?>
<!DOCTYPE svg PUBLIC "-//W3C//DTD SVG 1.1//EN"
 "http://www.w3.org/Graphics/SVG/1.1/DTD/svg11.dtd">
<!-- Generated by graphviz version 2.40.1 (20161225.0304)
 -->
<!-- Title: GammaG1CellCycleModel Pages: 1 -->
<svg width="691pt" height="1049pt"
 viewBox="0.00 0.00 690.50 1049.00" xmlns="http://www.w3.org/2000/svg" xmlns:xlink="http://www.w3.org/1999/xlink">
<g id="graph0" class="graph" transform="scale(1 1) rotate(0) translate(4 1045)">
<title>GammaG1CellCycleModel</title>
<polygon fill="#ffffff" stroke="transparent" points="-4,4 -4,-1045 686.5,-1045 686.5,4 -4,4"/>
<!-- Node5 -->
<g id="node1" class="node">
<title>Node5</title>
<polygon fill="#bfbfbf" stroke="#000000" points="0,-.5 0,-156.5 180,-156.5 180,-.5 0,-.5"/>
<text text-anchor="middle" x="90" y="-144.5" font-family="Helvetica,sans-Serif" font-size="10.00" fill="#000000">GammaG1CellCycleModel</text>
<polyline fill="none" stroke="#000000" points="0,-137.5 180,-137.5 "/>
<text text-anchor="middle" x="90" y="-125.5" font-family="Helvetica,sans-Serif" font-size="10.00" fill="#000000"> </text>
<polyline fill="none" stroke="#000000" points="0,-118.5 180,-118.5 "/>
<text text-anchor="start" x="8" y="-106.5" font-family="Helvetica,sans-Serif" font-size="10.00" fill="#000000">+ GammaG1CellCycleModel()</text>
<text text-anchor="start" x="8" y="-95.5" font-family="Helvetica,sans-Serif" font-size="10.00" fill="#000000">+ SetG1Duration()</text>
<text text-anchor="start" x="8" y="-84.5" font-family="Helvetica,sans-Serif" font-size="10.00" fill="#000000">+ CreateCellCycleModel()</text>
<text text-anchor="start" x="8" y="-73.5" font-family="Helvetica,sans-Serif" font-size="10.00" fill="#000000">+ SetShape()</text>
<text text-anchor="start" x="8" y="-62.5" font-family="Helvetica,sans-Serif" font-size="10.00" fill="#000000">+ SetScale()</text>
<text text-anchor="start" x="8" y="-51.5" font-family="Helvetica,sans-Serif" font-size="10.00" fill="#000000">+ GetShape()</text>
<text text-anchor="start" x="8" y="-40.5" font-family="Helvetica,sans-Serif" font-size="10.00" fill="#000000">+ GetScale()</text>
<text text-anchor="start" x="8" y="-29.5" font-family="Helvetica,sans-Serif" font-size="10.00" fill="#000000">+ OutputCellCycleModelParameters()</text>
<text text-anchor="start" x="8" y="-18.5" font-family="Helvetica,sans-Serif" font-size="10.00" fill="#000000"># GammaG1CellCycleModel()</text>
<text text-anchor="start" x="8" y="-7.5" font-family="Helvetica,sans-Serif" font-size="10.00" fill="#000000">&#45; serialize()</text>
</g>
<!-- Node6 -->
<g id="node2" class="node">
<title>Node6</title>
<g id="a_node2"><a xlink:href="classAbstractSimplePhaseBasedCellCycleModel.html" target="_top" xlink:title="{AbstractSimplePhaseBased\lCellCycleModel\n||+ AbstractSimplePhaseBased\lCellCycleModel()\l+ ~AbstractSimplePhaseBased\lCellCycleModel()\l+ ResetForDivision()\l+ UpdateCellCyclePhase()\l+ InitialiseDaughterCell()\l+ Initialise()\l+ OutputCellCycleModelParameters()\l# SetG1Duration()\l# AbstractSimplePhaseBased\lCellCycleModel()\l&#45; serialize()\l}">
<polygon fill="#ffffff" stroke="#000000" points="126,-194.5 126,-394.5 306,-394.5 306,-194.5 126,-194.5"/>
<text text-anchor="start" x="134" y="-382.5" font-family="Helvetica,sans-Serif" font-size="10.00" fill="#000000">AbstractSimplePhaseBased</text>
<text text-anchor="middle" x="216" y="-371.5" font-family="Helvetica,sans-Serif" font-size="10.00" fill="#000000">CellCycleModel</text>
<polyline fill="none" stroke="#000000" points="126,-364.5 306,-364.5 "/>
<text text-anchor="middle" x="216" y="-352.5" font-family="Helvetica,sans-Serif" font-size="10.00" fill="#000000"> </text>
<polyline fill="none" stroke="#000000" points="126,-345.5 306,-345.5 "/>
<text text-anchor="start" x="134" y="-333.5" font-family="Helvetica,sans-Serif" font-size="10.00" fill="#000000">+ AbstractSimplePhaseBased</text>
<text text-anchor="start" x="134" y="-322.5" font-family="Helvetica,sans-Serif" font-size="10.00" fill="#000000">CellCycleModel()</text>
<text text-anchor="start" x="134" y="-311.5" font-family="Helvetica,sans-Serif" font-size="10.00" fill="#000000">+ ~AbstractSimplePhaseBased</text>
<text text-anchor="start" x="134" y="-300.5" font-family="Helvetica,sans-Serif" font-size="10.00" fill="#000000">CellCycleModel()</text>
<text text-anchor="start" x="134" y="-289.5" font-family="Helvetica,sans-Serif" font-size="10.00" fill="#000000">+ ResetForDivision()</text>
<text text-anchor="start" x="134" y="-278.5" font-family="Helvetica,sans-Serif" font-size="10.00" fill="#000000">+ UpdateCellCyclePhase()</text>
<text text-anchor="start" x="134" y="-267.5" font-family="Helvetica,sans-Serif" font-size="10.00" fill="#000000">+ InitialiseDaughterCell()</text>
<text text-anchor="start" x="134" y="-256.5" font-family="Helvetica,sans-Serif" font-size="10.00" fill="#000000">+ Initialise()</text>
<text text-anchor="start" x="134" y="-245.5" font-family="Helvetica,sans-Serif" font-size="10.00" fill="#000000">+ OutputCellCycleModelParameters()</text>
<text text-anchor="start" x="134" y="-234.5" font-family="Helvetica,sans-Serif" font-size="10.00" fill="#000000"># SetG1Duration()</text>
<text text-anchor="start" x="134" y="-223.5" font-family="Helvetica,sans-Serif" font-size="10.00" fill="#000000"># AbstractSimplePhaseBased</text>
<text text-anchor="start" x="134" y="-212.5" font-family="Helvetica,sans-Serif" font-size="10.00" fill="#000000">CellCycleModel()</text>
<text text-anchor="start" x="134" y="-201.5" font-family="Helvetica,sans-Serif" font-size="10.00" fill="#000000">&#45; serialize()</text>
</a>
</g>
</g>
<!-- Node6&#45;&gt;Node5 -->
<g id="edge1" class="edge">
<title>Node6&#45;&gt;Node5</title>
<path fill="none" stroke="#191970" d="M152.5705,-185.7638C146.8312,-175.925 141.0967,-166.0943 135.5574,-156.5984"/>
<polygon fill="none" stroke="#191970" points="149.5486,-187.5296 157.6106,-194.4039 155.5951,-184.0025 149.5486,-187.5296"/>
</g>
<!-- Node7 -->
<g id="node3" class="node">
<title>Node7</title>
<g id="a_node3"><a xlink:href="classAbstractPhaseBasedCellCycleModel.html" target="_top" xlink:title="{AbstractPhaseBasedCellCycle\lModel\n||+ AbstractPhaseBasedCellCycle\lModel()\l+ ~AbstractPhaseBasedCellCycle\lModel()\l+ ReadyToDivide()\l+ ResetForDivision()\l+ UpdateCellCyclePhase()\l+ GetCurrentCellCyclePhase()\l+ GetG1Duration()\l+ GetStemCellG1Duration()\l+ GetTransitCellG1Duration()\l+ GetSG2MDuration()\land 13 more...\l# AbstractPhaseBasedCellCycle\lModel()\l&#45; serialize()\l}">
<polygon fill="#ffffff" stroke="#000000" points="176.5,-432.5 176.5,-665.5 343.5,-665.5 343.5,-432.5 176.5,-432.5"/>
<text text-anchor="start" x="184.5" y="-653.5" font-family="Helvetica,sans-Serif" font-size="10.00" fill="#000000">AbstractPhaseBasedCellCycle</text>
<text text-anchor="middle" x="260" y="-642.5" font-family="Helvetica,sans-Serif" font-size="10.00" fill="#000000">Model</text>
<polyline fill="none" stroke="#000000" points="176.5,-635.5 343.5,-635.5 "/>
<text text-anchor="middle" x="260" y="-623.5" font-family="Helvetica,sans-Serif" font-size="10.00" fill="#000000"> </text>
<polyline fill="none" stroke="#000000" points="176.5,-616.5 343.5,-616.5 "/>
<text text-anchor="start" x="184.5" y="-604.5" font-family="Helvetica,sans-Serif" font-size="10.00" fill="#000000">+ AbstractPhaseBasedCellCycle</text>
<text text-anchor="start" x="184.5" y="-593.5" font-family="Helvetica,sans-Serif" font-size="10.00" fill="#000000">Model()</text>
<text text-anchor="start" x="184.5" y="-582.5" font-family="Helvetica,sans-Serif" font-size="10.00" fill="#000000">+ ~AbstractPhaseBasedCellCycle</text>
<text text-anchor="start" x="184.5" y="-571.5" font-family="Helvetica,sans-Serif" font-size="10.00" fill="#000000">Model()</text>
<text text-anchor="start" x="184.5" y="-560.5" font-family="Helvetica,sans-Serif" font-size="10.00" fill="#000000">+ ReadyToDivide()</text>
<text text-anchor="start" x="184.5" y="-549.5" font-family="Helvetica,sans-Serif" font-size="10.00" fill="#000000">+ ResetForDivision()</text>
<text text-anchor="start" x="184.5" y="-538.5" font-family="Helvetica,sans-Serif" font-size="10.00" fill="#000000">+ UpdateCellCyclePhase()</text>
<text text-anchor="start" x="184.5" y="-527.5" font-family="Helvetica,sans-Serif" font-size="10.00" fill="#000000">+ GetCurrentCellCyclePhase()</text>
<text text-anchor="start" x="184.5" y="-516.5" font-family="Helvetica,sans-Serif" font-size="10.00" fill="#000000">+ GetG1Duration()</text>
<text text-anchor="start" x="184.5" y="-505.5" font-family="Helvetica,sans-Serif" font-size="10.00" fill="#000000">+ GetStemCellG1Duration()</text>
<text text-anchor="start" x="184.5" y="-494.5" font-family="Helvetica,sans-Serif" font-size="10.00" fill="#000000">+ GetTransitCellG1Duration()</text>
<text text-anchor="start" x="184.5" y="-483.5" font-family="Helvetica,sans-Serif" font-size="10.00" fill="#000000">+ GetSG2MDuration()</text>
<text text-anchor="start" x="184.5" y="-472.5" font-family="Helvetica,sans-Serif" font-size="10.00" fill="#000000">and 13 more...</text>
<text text-anchor="start" x="184.5" y="-461.5" font-family="Helvetica,sans-Serif" font-size="10.00" fill="#000000"># AbstractPhaseBasedCellCycle</text>
<text text-anchor="start" x="184.5" y="-450.5" font-family="Helvetica,sans-Serif" font-size="10.00" fill="#000000">Model()</text>
<text text-anchor="start" x="184.5" y="-439.5" font-family="Helvetica,sans-Serif" font-size="10.00" fill="#000000">&#45; serialize()</text>
</a>
</g>
</g>
<!-- Node7&#45;&gt;Node6 -->
<g id="edge2" class="edge">
<title>Node7&#45;&gt;Node6</title>
<path fill="none" stroke="#191970" d="M238.0713,-422.1621C236.4738,-412.9222 234.8758,-403.6794 233.311,-394.6285"/>
<polygon fill="none" stroke="#191970" points="234.6504,-422.9205 239.8029,-432.1781 241.548,-421.728 234.6504,-422.9205"/>
</g>
<!-- Node8 -->
<g id="node4" class="node">
<title>Node8</title>
<g id="a_node4"><a xlink:href="classAbstractCellCycleModel.html" target="_top" xlink:title="{AbstractCellCycleModel\n||+ AbstractCellCycleModel()\l+ ~AbstractCellCycleModel()\l+ SetCell()\l+ Initialise()\l+ InitialiseDaughterCell()\l+ GetCell()\l+ SetBirthTime()\l+ SetDimension()\l+ GetDimension()\l+ GetBirthTime()\land 9 more...\l# AbstractCellCycleModel()\l&#45; serialize()\l&#45; operator=()\l}">
<polygon fill="#ffffff" stroke="#000000" points="352.5,-713.5 352.5,-913.5 495.5,-913.5 495.5,-713.5 352.5,-713.5"/>
<text text-anchor="middle" x="424" y="-901.5" font-family="Helvetica,sans-Serif" font-size="10.00" fill="#000000">AbstractCellCycleModel</text>
<polyline fill="none" stroke="#000000" points="352.5,-894.5 495.5,-894.5 "/>
<text text-anchor="middle" x="424" y="-882.5" font-family="Helvetica,sans-Serif" font-size="10.00" fill="#000000"> </text>
<polyline fill="none" stroke="#000000" points="352.5,-875.5 495.5,-875.5 "/>
<text text-anchor="start" x="360.5" y="-863.5" font-family="Helvetica,sans-Serif" font-size="10.00" fill="#000000">+ AbstractCellCycleModel()</text>
<text text-anchor="start" x="360.5" y="-852.5" font-family="Helvetica,sans-Serif" font-size="10.00" fill="#000000">+ ~AbstractCellCycleModel()</text>
<text text-anchor="start" x="360.5" y="-841.5" font-family="Helvetica,sans-Serif" font-size="10.00" fill="#000000">+ SetCell()</text>
<text text-anchor="start" x="360.5" y="-830.5" font-family="Helvetica,sans-Serif" font-size="10.00" fill="#000000">+ Initialise()</text>
<text text-anchor="start" x="360.5" y="-819.5" font-family="Helvetica,sans-Serif" font-size="10.00" fill="#000000">+ InitialiseDaughterCell()</text>
<text text-anchor="start" x="360.5" y="-808.5" font-family="Helvetica,sans-Serif" font-size="10.00" fill="#000000">+ GetCell()</text>
<text text-anchor="start" x="360.5" y="-797.5" font-family="Helvetica,sans-Serif" font-size="10.00" fill="#000000">+ SetBirthTime()</text>
<text text-anchor="start" x="360.5" y="-786.5" font-family="Helvetica,sans-Serif" font-size="10.00" fill="#000000">+ SetDimension()</text>
<text text-anchor="start" x="360.5" y="-775.5" font-family="Helvetica,sans-Serif" font-size="10.00" fill="#000000">+ GetDimension()</text>
<text text-anchor="start" x="360.5" y="-764.5" font-family="Helvetica,sans-Serif" font-size="10.00" fill="#000000">+ GetBirthTime()</text>
<text text-anchor="start" x="360.5" y="-753.5" font-family="Helvetica,sans-Serif" font-size="10.00" fill="#000000">and 9 more...</text>
<text text-anchor="start" x="360.5" y="-742.5" font-family="Helvetica,sans-Serif" font-size="10.00" fill="#000000"># AbstractCellCycleModel()</text>
<text text-anchor="start" x="360.5" y="-731.5" font-family="Helvetica,sans-Serif" font-size="10.00" fill="#000000">&#45; serialize()</text>
<text text-anchor="start" x="360.5" y="-720.5" font-family="Helvetica,sans-Serif" font-size="10.00" fill="#000000">&#45; operator=()</text>
</a>
</g>
</g>
<!-- Node8&#45;&gt;Node7 -->
<g id="edge3" class="edge">
<title>Node8&#45;&gt;Node7</title>
<path fill="none" stroke="#191970" d="M401.4656,-703.9581C398.6667,-697.0445 395.5252,-690.3288 392,-684 379.3191,-661.2338 361.7842,-639.5883 343.6331,-620.5629"/>
<polygon fill="none" stroke="#191970" points="398.2603,-705.3772 405.0738,-713.4906 404.807,-702.8991 398.2603,-705.3772"/>
</g>
<!-- Node9 -->
<g id="node5" class="node">
<title>Node9</title>
<g id="a_node5"><a xlink:href="classIdentifiable.html" target="_top" xlink:title="{Identifiable\n||+ ~Identifiable()\l+ GetIdentifier()\l&#45; TidyTemplatedExportIdentifier()\l}">
<polygon fill="#ffffff" stroke="#000000" points="523.5,-961.5 523.5,-1040.5 682.5,-1040.5 682.5,-961.5 523.5,-961.5"/>
<text text-anchor="middle" x="603" y="-1028.5" font-family="Helvetica,sans-Serif" font-size="10.00" fill="#000000">Identifiable</text>
<polyline fill="none" stroke="#000000" points="523.5,-1021.5 682.5,-1021.5 "/>
<text text-anchor="middle" x="603" y="-1009.5" font-family="Helvetica,sans-Serif" font-size="10.00" fill="#000000"> </text>
<polyline fill="none" stroke="#000000" points="523.5,-1002.5 682.5,-1002.5 "/>
<text text-anchor="start" x="531.5" y="-990.5" font-family="Helvetica,sans-Serif" font-size="10.00" fill="#000000">+ ~Identifiable()</text>
<text text-anchor="start" x="531.5" y="-979.5" font-family="Helvetica,sans-Serif" font-size="10.00" fill="#000000">+ GetIdentifier()</text>
<text text-anchor="start" x="531.5" y="-968.5" font-family="Helvetica,sans-Serif" font-size="10.00" fill="#000000">&#45; TidyTemplatedExportIdentifier()</text>
</a>
</g>
</g>
<!-- Node9&#45;&gt;Node8 -->
<g id="edge4" class="edge">
<title>Node9&#45;&gt;Node8</title>
<path fill="none" stroke="#191970" d="M557.9735,-953.8353C539.058,-934.0217 516.5892,-910.4859 495.5092,-888.4049"/>
<polygon fill="none" stroke="#191970" points="555.6019,-956.4198 565.0387,-961.2361 560.6651,-951.5861 555.6019,-956.4198"/>
</g>
<!-- Node10 -->
<g id="node6" class="node">
<title>Node10</title>
<g id="a_node6"><a xlink:href="classdouble.html" target="_top" xlink:title="{double\n||}">
<polygon fill="#ffffff" stroke="#000000" points="63.5,-972.5 63.5,-1029.5 108.5,-1029.5 108.5,-972.5 63.5,-972.5"/>
<text text-anchor="middle" x="86" y="-1017.5" font-family="Helvetica,sans-Serif" font-size="10.00" fill="#000000">double</text>
<polyline fill="none" stroke="#000000" points="63.5,-1010.5 108.5,-1010.5 "/>
<text text-anchor="middle" x="86" y="-998.5" font-family="Helvetica,sans-Serif" font-size="10.00" fill="#000000"> </text>
<polyline fill="none" stroke="#000000" points="63.5,-991.5 108.5,-991.5 "/>
<text text-anchor="middle" x="86" y="-979.5" font-family="Helvetica,sans-Serif" font-size="10.00" fill="#000000"> </text>
</a>
</g>
</g>
<!-- Node10&#45;&gt;Node5 -->
<g id="edge11" class="edge">
<title>Node10&#45;&gt;Node5</title>
<path fill="none" stroke="#404040" d="M74.3923,-972.3066C60.7651,-935.9733 40,-871.1499 40,-813.5 40,-813.5 40,-813.5 40,-294.5 40,-252.3788 49.1361,-206.7999 59.5977,-168.4158"/>
<polygon fill="none" stroke="#404040" points="59.6306,-168.2985 57.4037,-161.4399 62.8782,-156.7463 65.1051,-163.605 59.6306,-168.2985"/>
<text text-anchor="middle" x="61.5" y="-552" font-family="Helvetica,sans-Serif" font-size="10.00" fill="#000000"> &#45;mShape</text>
<text text-anchor="middle" x="61.5" y="-541" font-family="Helvetica,sans-Serif" font-size="10.00" fill="#000000">&#45;mScale</text>
</g>
<!-- Node10&#45;&gt;Node7 -->
<g id="edge9" class="edge">
<title>Node10&#45;&gt;Node7</title>
<path fill="none" stroke="#404040" d="M80.1567,-972.0983C70.7291,-918.4322 56.8287,-800.8633 95,-713 110.7561,-676.7324 138.5935,-644.2185 166.967,-617.8917"/>
<polygon fill="none" stroke="#404040" points="167.2794,-617.6094 169.0498,-610.619 176.1834,-609.5645 174.4131,-616.555 167.2794,-617.6094"/>
<text text-anchor="middle" x="150.5" y="-844" font-family="Helvetica,sans-Serif" font-size="10.00" fill="#000000"> #mSDuration</text>
<text text-anchor="middle" x="150.5" y="-833" font-family="Helvetica,sans-Serif" font-size="10.00" fill="#000000">#mStemCellG1Duration</text>
<text text-anchor="middle" x="150.5" y="-822" font-family="Helvetica,sans-Serif" font-size="10.00" fill="#000000">#mMDuration</text>
<text text-anchor="middle" x="150.5" y="-811" font-family="Helvetica,sans-Serif" font-size="10.00" fill="#000000">#mMinimumGapDuration</text>
<text text-anchor="middle" x="150.5" y="-800" font-family="Helvetica,sans-Serif" font-size="10.00" fill="#000000">#mTransitCellG1Duration</text>
<text text-anchor="middle" x="150.5" y="-789" font-family="Helvetica,sans-Serif" font-size="10.00" fill="#000000">#mG2Duration</text>
<text text-anchor="middle" x="150.5" y="-778" font-family="Helvetica,sans-Serif" font-size="10.00" fill="#000000">#mG1Duration</text>
</g>
<!-- Node10&#45;&gt;Node8 -->
<g id="edge5" class="edge">
<title>Node10&#45;&gt;Node8</title>
<path fill="none" stroke="#404040" d="M108.5903,-990.0832C140.3791,-975.1033 200.4269,-948.1944 254,-932 289.6915,-921.211 306.2378,-932.861 341.8132,-914.4163"/>
<polygon fill="none" stroke="#404040" points="341.9663,-914.3288 345.1894,-907.8781 352.3836,-908.3722 349.1604,-914.823 341.9663,-914.3288"/>
<text text-anchor="middle" x="283.5" y="-935" font-family="Helvetica,sans-Serif" font-size="10.00" fill="#000000"> #mBirthTime</text>
</g>
<!-- Node11 -->
<g id="node7" class="node">
<title>Node11</title>
<polygon fill="#ffffff" stroke="#bfbfbf" points="236,-972.5 236,-1029.5 334,-1029.5 334,-972.5 236,-972.5"/>
<text text-anchor="middle" x="285" y="-1017.5" font-family="Helvetica,sans-Serif" font-size="10.00" fill="#000000">shared_ptr&lt; Cell &gt;</text>
<polyline fill="none" stroke="#bfbfbf" points="236,-1010.5 334,-1010.5 "/>
<text text-anchor="middle" x="285" y="-998.5" font-family="Helvetica,sans-Serif" font-size="10.00" fill="#000000"> </text>
<polyline fill="none" stroke="#bfbfbf" points="236,-991.5 334,-991.5 "/>
<text text-anchor="middle" x="285" y="-979.5" font-family="Helvetica,sans-Serif" font-size="10.00" fill="#000000"> </text>
</g>
<!-- Node11&#45;&gt;Node8 -->
<g id="edge6" class="edge">
<title>Node11&#45;&gt;Node8</title>
<path fill="none" stroke="#404040" d="M299.233,-972.2928C306.2087,-959.4209 315.2114,-944.3835 325,-932 332.2133,-922.8744 336.1362,-922.5715 344,-914 344.0872,-913.905 344.1743,-913.8099 344.2615,-913.7147"/>
<polygon fill="none" stroke="#404040" points="344.3799,-913.5828 345.4102,-906.4456 352.3946,-904.6516 351.3643,-911.7887 344.3799,-913.5828"/>
<text text-anchor="middle" x="345" y="-935" font-family="Helvetica,sans-Serif" font-size="10.00" fill="#000000"> #mpCell</text>
</g>
<!-- Node12 -->
<g id="node8" class="node">
<title>Node12</title>
<g id="a_node8"><a xlink:href="classbool.html" target="_top" xlink:title="{bool\n||}">
<polygon fill="#ffffff" stroke="#000000" points="352.5,-972.5 352.5,-1029.5 387.5,-1029.5 387.5,-972.5 352.5,-972.5"/>
<text text-anchor="middle" x="370" y="-1017.5" font-family="Helvetica,sans-Serif" font-size="10.00" fill="#000000">bool</text>
<polyline fill="none" stroke="#000000" points="352.5,-1010.5 387.5,-1010.5 "/>
<text text-anchor="middle" x="370" y="-998.5" font-family="Helvetica,sans-Serif" font-size="10.00" fill="#000000"> </text>
<polyline fill="none" stroke="#000000" points="352.5,-991.5 387.5,-991.5 "/>
<text text-anchor="middle" x="370" y="-979.5" font-family="Helvetica,sans-Serif" font-size="10.00" fill="#000000"> </text>
</a>
</g>
</g>
<!-- Node12&#45;&gt;Node8 -->
<g id="edge7" class="edge">
<title>Node12&#45;&gt;Node8</title>
<path fill="none" stroke="#404040" d="M367.8368,-972.1646C367.5608,-959.6817 368.13,-944.9849 371,-932 371.4807,-929.8252 372.0033,-927.6417 372.5637,-925.4535"/>
<polygon fill="none" stroke="#404040" points="372.616,-925.2695 370.4109,-918.4039 375.9003,-913.7277 378.1054,-920.5934 372.616,-925.2695"/>
<text text-anchor="middle" x="413.5" y="-935" font-family="Helvetica,sans-Serif" font-size="10.00" fill="#000000"> #mReadyToDivide</text>
</g>
<!-- Node13 -->
<g id="node9" class="node">
<title>Node13</title>
<g id="a_node9"><a xlink:href="classunsigned.html" target="_top" xlink:title="{unsigned\n||}">
<polygon fill="#ffffff" stroke="#000000" points="450,-972.5 450,-1029.5 506,-1029.5 506,-972.5 450,-972.5"/>
<text text-anchor="middle" x="478" y="-1017.5" font-family="Helvetica,sans-Serif" font-size="10.00" fill="#000000">unsigned</text>
<polyline fill="none" stroke="#000000" points="450,-1010.5 506,-1010.5 "/>
<text text-anchor="middle" x="478" y="-998.5" font-family="Helvetica,sans-Serif" font-size="10.00" fill="#000000"> </text>
<polyline fill="none" stroke="#000000" points="450,-991.5 506,-991.5 "/>
<text text-anchor="middle" x="478" y="-979.5" font-family="Helvetica,sans-Serif" font-size="10.00" fill="#000000"> </text>
</a>
</g>
</g>
<!-- Node13&#45;&gt;Node8 -->
<g id="edge8" class="edge">
<title>Node13&#45;&gt;Node8</title>
<path fill="none" stroke="#404040" d="M469.6808,-972.114C465.931,-959.0936 461.2382,-942.7991 456.2991,-925.6496"/>
<polygon fill="none" stroke="#404040" points="456.17,-925.2013 450.6657,-920.5426 452.8489,-913.67 458.3533,-918.3286 456.17,-925.2013"/>
<text text-anchor="middle" x="492" y="-935" font-family="Helvetica,sans-Serif" font-size="10.00" fill="#000000"> #mDimension</text>
</g>
<!-- Node14 -->
<g id="node10" class="node">
<title>Node14</title>
<polygon fill="#ffffff" stroke="#bfbfbf" points="215.5,-785 215.5,-842 334.5,-842 334.5,-785 215.5,-785"/>
<text text-anchor="middle" x="275" y="-830" font-family="Helvetica,sans-Serif" font-size="10.00" fill="#000000">enum CellCyclePhase_</text>
<polyline fill="none" stroke="#bfbfbf" points="215.5,-823 334.5,-823 "/>
<text text-anchor="middle" x="275" y="-811" font-family="Helvetica,sans-Serif" font-size="10.00" fill="#000000"> </text>
<polyline fill="none" stroke="#bfbfbf" points="215.5,-804 334.5,-804 "/>
<text text-anchor="middle" x="275" y="-792" font-family="Helvetica,sans-Serif" font-size="10.00" fill="#000000"> </text>
</g>
<!-- Node14&#45;&gt;Node7 -->
<g id="edge10" class="edge">
<title>Node14&#45;&gt;Node7</title>
<path fill="none" stroke="#404040" d="M273.3805,-784.9426C271.8978,-758.7982 269.5935,-718.165 267.3123,-677.9403"/>
<polygon fill="none" stroke="#404040" points="267.3017,-677.7518 262.9684,-671.988 266.6222,-665.7711 270.9555,-671.5349 267.3017,-677.7518"/>
<text text-anchor="middle" x="328" y="-687" font-family="Helvetica,sans-Serif" font-size="10.00" fill="#000000"> #mCurrentCellCyclePhase</text>
</g>
</g>
</svg>
