<?xml version="1.0" encoding="UTF-8" standalone="no"?>
<!DOCTYPE svg PUBLIC "-//W3C//DTD SVG 1.1//EN"
 "http://www.w3.org/Graphics/SVG/1.1/DTD/svg11.dtd">
<!-- Generated by graphviz version 2.40.1 (20161225.0304)
 -->
<!-- Title: ElementAttributes&lt; ELEMENT_DIM, SPACE_DIM &gt; Pages: 1 -->
<svg width="172pt" height="237pt"
 viewBox="0.00 0.00 172.00 237.00" xmlns="http://www.w3.org/2000/svg" xmlns:xlink="http://www.w3.org/1999/xlink">
<g id="graph0" class="graph" transform="scale(1 1) rotate(0) translate(4 233)">
<title>ElementAttributes&lt; ELEMENT_DIM, SPACE_DIM &gt;</title>
<polygon fill="#ffffff" stroke="transparent" points="-4,4 -4,-233 168,-233 168,4 -4,4"/>
<!-- Node1 -->
<g id="node1" class="node">
<title>Node1</title>
<polygon fill="#bfbfbf" stroke="#000000" points="0,-.5 0,-123.5 164,-123.5 164,-.5 0,-.5"/>
<text text-anchor="start" x="8" y="-111.5" font-family="Helvetica,sans-Serif" font-size="10.00" fill="#000000">ElementAttributes&lt;</text>
<text text-anchor="middle" x="82" y="-100.5" font-family="Helvetica,sans-Serif" font-size="10.00" fill="#000000"> ELEMENT_DIM, SPACE_DIM &gt;</text>
<polyline fill="none" stroke="#000000" points="0,-93.5 164,-93.5 "/>
<text text-anchor="middle" x="82" y="-81.5" font-family="Helvetica,sans-Serif" font-size="10.00" fill="#000000"> </text>
<polyline fill="none" stroke="#000000" points="0,-74.5 164,-74.5 "/>
<text text-anchor="start" x="8" y="-62.5" font-family="Helvetica,sans-Serif" font-size="10.00" fill="#000000">+ ElementAttributes()</text>
<text text-anchor="start" x="8" y="-51.5" font-family="Helvetica,sans-Serif" font-size="10.00" fill="#000000">+ rGetAttributes()</text>
<text text-anchor="start" x="8" y="-40.5" font-family="Helvetica,sans-Serif" font-size="10.00" fill="#000000">+ AddAttribute()</text>
<text text-anchor="start" x="8" y="-29.5" font-family="Helvetica,sans-Serif" font-size="10.00" fill="#000000">+ SetFirstAttribute()</text>
<text text-anchor="start" x="8" y="-18.5" font-family="Helvetica,sans-Serif" font-size="10.00" fill="#000000">+ GetFirstAttribute()</text>
<text text-anchor="start" x="8" y="-7.5" font-family="Helvetica,sans-Serif" font-size="10.00" fill="#000000">&#45; serialize()</text>
</g>
<!-- Node2 -->
<g id="node2" class="node">
<title>Node2</title>
<polygon fill="#ffffff" stroke="#bfbfbf" points="37,-171.5 37,-228.5 127,-228.5 127,-171.5 37,-171.5"/>
<text text-anchor="middle" x="82" y="-216.5" font-family="Helvetica,sans-Serif" font-size="10.00" fill="#000000">vector&lt; double &gt;</text>
<polyline fill="none" stroke="#bfbfbf" points="37,-209.5 127,-209.5 "/>
<text text-anchor="middle" x="82" y="-197.5" font-family="Helvetica,sans-Serif" font-size="10.00" fill="#000000"> </text>
<polyline fill="none" stroke="#bfbfbf" points="37,-190.5 127,-190.5 "/>
<text text-anchor="middle" x="82" y="-178.5" font-family="Helvetica,sans-Serif" font-size="10.00" fill="#000000"> </text>
</g>
<!-- Node2&#45;&gt;Node1 -->
<g id="edge1" class="edge">
<title>Node2&#45;&gt;Node1</title>
<path fill="none" stroke="#404040" d="M82,-171.4063C82,-160.8767 82,-148.4088 82,-135.7269"/>
<polygon fill="none" stroke="#404040" points="82.0001,-135.5587 78,-129.5587 82,-123.5587 86,-129.5586 82.0001,-135.5587"/>
<text text-anchor="middle" x="110.5" y="-145" font-family="Helvetica,sans-Serif" font-size="10.00" fill="#000000"> &#45;mAttributes</text>
</g>
</g>
</svg>
