<?xml version="1.0" encoding="UTF-8" standalone="no"?>
<!DOCTYPE svg PUBLIC "-//W3C//DTD SVG 1.1//EN"
 "http://www.w3.org/Graphics/SVG/1.1/DTD/svg11.dtd">
<!-- Generated by graphviz version 2.40.1 (20161225.0304)
 -->
<!-- Title: AbstractFeAssemblerInterface&lt; CAN_ASSEMBLE_VECTOR, CAN_ASSEMBLE_MATRIX &gt; Pages: 1 -->
<svg width="613pt" height="303pt"
 viewBox="0.00 0.00 612.50 303.00" xmlns="http://www.w3.org/2000/svg" xmlns:xlink="http://www.w3.org/1999/xlink">
<g id="graph0" class="graph" transform="scale(1 1) rotate(0) translate(4 299)">
<title>AbstractFeAssemblerInterface&lt; CAN_ASSEMBLE_VECTOR, CAN_ASSEMBLE_MATRIX &gt;</title>
<polygon fill="#ffffff" stroke="transparent" points="-4,4 -4,-299 608.5,-299 608.5,4 -4,4"/>
<!-- Node68 -->
<g id="node1" class="node">
<title>Node68</title>
<polygon fill="#bfbfbf" stroke="#000000" points="172.5,-.5 172.5,-156.5 354.5,-156.5 354.5,-.5 172.5,-.5"/>
<text text-anchor="start" x="180.5" y="-144.5" font-family="Helvetica,sans-Serif" font-size="10.00" fill="#000000">AbstractFeAssemblerInterface</text>
<text text-anchor="start" x="180.5" y="-133.5" font-family="Helvetica,sans-Serif" font-size="10.00" fill="#000000">&lt; CAN_ASSEMBLE_VECTOR, CAN</text>
<text text-anchor="middle" x="263.5" y="-122.5" font-family="Helvetica,sans-Serif" font-size="10.00" fill="#000000">_ASSEMBLE_MATRIX &gt;</text>
<polyline fill="none" stroke="#000000" points="172.5,-115.5 354.5,-115.5 "/>
<text text-anchor="middle" x="263.5" y="-103.5" font-family="Helvetica,sans-Serif" font-size="10.00" fill="#000000"> </text>
<polyline fill="none" stroke="#000000" points="172.5,-96.5 354.5,-96.5 "/>
<text text-anchor="start" x="180.5" y="-84.5" font-family="Helvetica,sans-Serif" font-size="10.00" fill="#000000">+ AbstractFeAssemblerInterface()</text>
<text text-anchor="start" x="180.5" y="-73.5" font-family="Helvetica,sans-Serif" font-size="10.00" fill="#000000">+ SetMatrixToAssemble()</text>
<text text-anchor="start" x="180.5" y="-62.5" font-family="Helvetica,sans-Serif" font-size="10.00" fill="#000000">+ SetVectorToAssemble()</text>
<text text-anchor="start" x="180.5" y="-51.5" font-family="Helvetica,sans-Serif" font-size="10.00" fill="#000000">+ Assemble()</text>
<text text-anchor="start" x="180.5" y="-40.5" font-family="Helvetica,sans-Serif" font-size="10.00" fill="#000000">+ AssembleMatrix()</text>
<text text-anchor="start" x="180.5" y="-29.5" font-family="Helvetica,sans-Serif" font-size="10.00" fill="#000000">+ AssembleVector()</text>
<text text-anchor="start" x="180.5" y="-18.5" font-family="Helvetica,sans-Serif" font-size="10.00" fill="#000000">+ ~AbstractFeAssemblerInterface()</text>
<text text-anchor="start" x="180.5" y="-7.5" font-family="Helvetica,sans-Serif" font-size="10.00" fill="#000000"># DoAssemble()</text>
</g>
<!-- Node69 -->
<g id="node2" class="node">
<title>Node69</title>
<polygon fill="#ffffff" stroke="#bfbfbf" points="0,-237.5 0,-294.5 71,-294.5 71,-237.5 0,-237.5"/>
<text text-anchor="middle" x="35.5" y="-282.5" font-family="Helvetica,sans-Serif" font-size="10.00" fill="#000000">noncopyable</text>
<polyline fill="none" stroke="#bfbfbf" points="0,-275.5 71,-275.5 "/>
<text text-anchor="middle" x="35.5" y="-263.5" font-family="Helvetica,sans-Serif" font-size="10.00" fill="#000000"> </text>
<polyline fill="none" stroke="#bfbfbf" points="0,-256.5 71,-256.5 "/>
<text text-anchor="middle" x="35.5" y="-244.5" font-family="Helvetica,sans-Serif" font-size="10.00" fill="#000000"> </text>
</g>
<!-- Node69&#45;&gt;Node68 -->
<g id="edge1" class="edge">
<title>Node69&#45;&gt;Node68</title>
<path fill="none" stroke="#8b1a1a" d="M59.8722,-228.8013C72.4873,-211.2357 88.9147,-190.7271 106.5,-175 126.2939,-157.2976 149.7561,-140.9302 172.4274,-126.8931"/>
<polygon fill="none" stroke="#8b1a1a" points="56.8875,-226.9611 53.9972,-237.1541 62.6131,-230.9883 56.8875,-226.9611"/>
</g>
<!-- Node70 -->
<g id="node3" class="node">
<title>Node70</title>
<g id="a_node3"><a xlink:href="classbool.html" target="_top" xlink:title="{bool\n||}">
<polygon fill="#ffffff" stroke="#000000" points="89,-237.5 89,-294.5 124,-294.5 124,-237.5 89,-237.5"/>
<text text-anchor="middle" x="106.5" y="-282.5" font-family="Helvetica,sans-Serif" font-size="10.00" fill="#000000">bool</text>
<polyline fill="none" stroke="#000000" points="89,-275.5 124,-275.5 "/>
<text text-anchor="middle" x="106.5" y="-263.5" font-family="Helvetica,sans-Serif" font-size="10.00" fill="#000000"> </text>
<polyline fill="none" stroke="#000000" points="89,-256.5 124,-256.5 "/>
<text text-anchor="middle" x="106.5" y="-244.5" font-family="Helvetica,sans-Serif" font-size="10.00" fill="#000000"> </text>
</a>
</g>
</g>
<!-- Node70&#45;&gt;Node68 -->
<g id="edge2" class="edge">
<title>Node70&#45;&gt;Node68</title>
<path fill="none" stroke="#404040" d="M107.1065,-237.2549C108.7384,-218.2201 113.3237,-193.4561 125.5,-175 135.405,-159.9867 148.5195,-146.616 162.7288,-134.9656"/>
<polygon fill="none" stroke="#404040" points="162.7487,-134.9501 165.0113,-128.1031 172.2018,-127.5581 169.9392,-134.4051 162.7487,-134.9501"/>
<text text-anchor="middle" x="192.5" y="-211" font-family="Helvetica,sans-Serif" font-size="10.00" fill="#000000"> #mAssembleVector</text>
<text text-anchor="middle" x="192.5" y="-200" font-family="Helvetica,sans-Serif" font-size="10.00" fill="#000000">#mZeroVectorBeforeAssembly</text>
<text text-anchor="middle" x="192.5" y="-189" font-family="Helvetica,sans-Serif" font-size="10.00" fill="#000000">#mAssembleMatrix</text>
<text text-anchor="middle" x="192.5" y="-178" font-family="Helvetica,sans-Serif" font-size="10.00" fill="#000000">#mZeroMatrixBeforeAssembly</text>
</g>
<!-- Node71 -->
<g id="node4" class="node">
<title>Node71</title>
<g id="a_node4"><a xlink:href="classMat.html" target="_top" xlink:title="{Mat\n||}">
<polygon fill="#ffffff" stroke="#000000" points="247,-237.5 247,-294.5 280,-294.5 280,-237.5 247,-237.5"/>
<text text-anchor="middle" x="263.5" y="-282.5" font-family="Helvetica,sans-Serif" font-size="10.00" fill="#000000">Mat</text>
<polyline fill="none" stroke="#000000" points="247,-275.5 280,-275.5 "/>
<text text-anchor="middle" x="263.5" y="-263.5" font-family="Helvetica,sans-Serif" font-size="10.00" fill="#000000"> </text>
<polyline fill="none" stroke="#000000" points="247,-256.5 280,-256.5 "/>
<text text-anchor="middle" x="263.5" y="-244.5" font-family="Helvetica,sans-Serif" font-size="10.00" fill="#000000"> </text>
</a>
</g>
</g>
<!-- Node71&#45;&gt;Node68 -->
<g id="edge3" class="edge">
<title>Node71&#45;&gt;Node68</title>
<path fill="none" stroke="#404040" d="M263.5,-237.114C263.5,-218.6636 263.5,-193.6389 263.5,-168.923"/>
<polygon fill="none" stroke="#404040" points="263.5001,-168.8446 259.5,-162.8446 263.5,-156.8446 267.5,-162.8446 263.5001,-168.8446"/>
<text text-anchor="middle" x="313" y="-194.5" font-family="Helvetica,sans-Serif" font-size="10.00" fill="#000000"> #mMatrixToAssemble</text>
</g>
<!-- Node72 -->
<g id="node5" class="node">
<title>Node72</title>
<g id="a_node5"><a xlink:href="classPetscInt.html" target="_top" xlink:title="{PetscInt\n||}">
<polygon fill="#ffffff" stroke="#000000" points="359,-237.5 359,-294.5 412,-294.5 412,-237.5 359,-237.5"/>
<text text-anchor="middle" x="385.5" y="-282.5" font-family="Helvetica,sans-Serif" font-size="10.00" fill="#000000">PetscInt</text>
<polyline fill="none" stroke="#000000" points="359,-275.5 412,-275.5 "/>
<text text-anchor="middle" x="385.5" y="-263.5" font-family="Helvetica,sans-Serif" font-size="10.00" fill="#000000"> </text>
<polyline fill="none" stroke="#000000" points="359,-256.5 412,-256.5 "/>
<text text-anchor="middle" x="385.5" y="-244.5" font-family="Helvetica,sans-Serif" font-size="10.00" fill="#000000"> </text>
</a>
</g>
</g>
<!-- Node72&#45;&gt;Node68 -->
<g id="edge4" class="edge">
<title>Node72&#45;&gt;Node68</title>
<path fill="none" stroke="#404040" d="M382.7727,-237.4038C380.0098,-218.6648 374.4876,-194.1809 363.5,-175 361.8698,-172.1542 360.1308,-169.3384 358.299,-166.5577"/>
<polygon fill="none" stroke="#404040" points="358.2208,-166.4471 351.4901,-163.8591 351.2903,-156.6507 358.021,-159.2387 358.2208,-166.4471"/>
<text text-anchor="middle" x="429.5" y="-200" font-family="Helvetica,sans-Serif" font-size="10.00" fill="#000000"> #mOwnershipRangeHi</text>
<text text-anchor="middle" x="429.5" y="-189" font-family="Helvetica,sans-Serif" font-size="10.00" fill="#000000">#mOwnershipRangeLo</text>
</g>
<!-- Node73 -->
<g id="node6" class="node">
<title>Node73</title>
<g id="a_node6"><a xlink:href="classVec.html" target="_top" xlink:title="{Vec\n||}">
<polygon fill="#ffffff" stroke="#000000" points="493.5,-237.5 493.5,-294.5 527.5,-294.5 527.5,-237.5 493.5,-237.5"/>
<text text-anchor="middle" x="510.5" y="-282.5" font-family="Helvetica,sans-Serif" font-size="10.00" fill="#000000">Vec</text>
<polyline fill="none" stroke="#000000" points="493.5,-275.5 527.5,-275.5 "/>
<text text-anchor="middle" x="510.5" y="-263.5" font-family="Helvetica,sans-Serif" font-size="10.00" fill="#000000"> </text>
<polyline fill="none" stroke="#000000" points="493.5,-256.5 527.5,-256.5 "/>
<text text-anchor="middle" x="510.5" y="-244.5" font-family="Helvetica,sans-Serif" font-size="10.00" fill="#000000"> </text>
</a>
</g>
</g>
<!-- Node73&#45;&gt;Node68 -->
<g id="edge5" class="edge">
<title>Node73&#45;&gt;Node68</title>
<path fill="none" stroke="#404040" d="M508.5945,-237.1226C505.9101,-217.5408 499.5372,-192.1899 484.5,-175 453.8213,-139.9293 408.0471,-117.1134 366.1014,-102.5253"/>
<polygon fill="none" stroke="#404040" points="366.0596,-102.5114 359.1027,-104.4091 354.6753,-98.7172 361.6322,-96.8195 366.0596,-102.5114"/>
<text text-anchor="middle" x="554.5" y="-194.5" font-family="Helvetica,sans-Serif" font-size="10.00" fill="#000000"> #mVectorToAssemble</text>
</g>
</g>
</svg>
