<?xml version="1.0" encoding="UTF-8" standalone="no"?>
<!DOCTYPE svg PUBLIC "-//W3C//DTD SVG 1.1//EN"
 "http://www.w3.org/Graphics/SVG/1.1/DTD/svg11.dtd">
<!-- Generated by graphviz version 2.40.1 (20161225.0304)
 -->
<!-- Title: CellLabel Pages: 1 -->
<svg width="167pt" height="408pt"
 viewBox="0.00 0.00 167.00 408.00" xmlns="http://www.w3.org/2000/svg" xmlns:xlink="http://www.w3.org/1999/xlink">
<g id="graph0" class="graph" transform="scale(1 1) rotate(0) translate(4 404)">
<title>CellLabel</title>
<polygon fill="#ffffff" stroke="transparent" points="-4,4 -4,-404 163,-404 163,4 -4,4"/>
<!-- Node0 -->
<g id="node1" class="node">
<title>Node0</title>
<polygon fill="#bfbfbf" stroke="#000000" points="40.5,-.5 40.5,-90.5 118.5,-90.5 118.5,-.5 40.5,-.5"/>
<text text-anchor="middle" x="79.5" y="-78.5" font-family="Helvetica,sans-Serif" font-size="10.00" fill="#000000">CellLabel</text>
<polyline fill="none" stroke="#000000" points="40.5,-71.5 118.5,-71.5 "/>
<text text-anchor="start" x="48.5" y="-59.5" font-family="Helvetica,sans-Serif" font-size="10.00" fill="#000000"># mColour</text>
<polyline fill="none" stroke="#000000" points="40.5,-52.5 118.5,-52.5 "/>
<text text-anchor="start" x="48.5" y="-40.5" font-family="Helvetica,sans-Serif" font-size="10.00" fill="#000000">+ CellLabel()</text>
<text text-anchor="start" x="48.5" y="-29.5" font-family="Helvetica,sans-Serif" font-size="10.00" fill="#000000">+ ~CellLabel()</text>
<text text-anchor="start" x="48.5" y="-18.5" font-family="Helvetica,sans-Serif" font-size="10.00" fill="#000000">+ GetColour()</text>
<text text-anchor="start" x="48.5" y="-7.5" font-family="Helvetica,sans-Serif" font-size="10.00" fill="#000000">&#45; serialize()</text>
</g>
<!-- Node1 -->
<g id="node2" class="node">
<title>Node1</title>
<g id="a_node2"><a xlink:href="classAbstractCellProperty.html" target="_top" xlink:title="{AbstractCellProperty\n|&#45; mCellCount\l|+ AbstractCellProperty()\l+ ~AbstractCellProperty()\l+ IsType()\l+ IsSubType()\l+ IsSame()\l+ IsSame()\l+ IncrementCellCount()\l+ DecrementCellCount()\l+ GetCellCount()\l&#45; serialize()\l}">
<polygon fill="#ffffff" stroke="#000000" points="15.5,-127.5 15.5,-283.5 143.5,-283.5 143.5,-127.5 15.5,-127.5"/>
<text text-anchor="middle" x="79.5" y="-271.5" font-family="Helvetica,sans-Serif" font-size="10.00" fill="#000000">AbstractCellProperty</text>
<polyline fill="none" stroke="#000000" points="15.5,-264.5 143.5,-264.5 "/>
<text text-anchor="start" x="23.5" y="-252.5" font-family="Helvetica,sans-Serif" font-size="10.00" fill="#000000">&#45; mCellCount</text>
<polyline fill="none" stroke="#000000" points="15.5,-245.5 143.5,-245.5 "/>
<text text-anchor="start" x="23.5" y="-233.5" font-family="Helvetica,sans-Serif" font-size="10.00" fill="#000000">+ AbstractCellProperty()</text>
<text text-anchor="start" x="23.5" y="-222.5" font-family="Helvetica,sans-Serif" font-size="10.00" fill="#000000">+ ~AbstractCellProperty()</text>
<text text-anchor="start" x="23.5" y="-211.5" font-family="Helvetica,sans-Serif" font-size="10.00" fill="#000000">+ IsType()</text>
<text text-anchor="start" x="23.5" y="-200.5" font-family="Helvetica,sans-Serif" font-size="10.00" fill="#000000">+ IsSubType()</text>
<text text-anchor="start" x="23.5" y="-189.5" font-family="Helvetica,sans-Serif" font-size="10.00" fill="#000000">+ IsSame()</text>
<text text-anchor="start" x="23.5" y="-178.5" font-family="Helvetica,sans-Serif" font-size="10.00" fill="#000000">+ IsSame()</text>
<text text-anchor="start" x="23.5" y="-167.5" font-family="Helvetica,sans-Serif" font-size="10.00" fill="#000000">+ IncrementCellCount()</text>
<text text-anchor="start" x="23.5" y="-156.5" font-family="Helvetica,sans-Serif" font-size="10.00" fill="#000000">+ DecrementCellCount()</text>
<text text-anchor="start" x="23.5" y="-145.5" font-family="Helvetica,sans-Serif" font-size="10.00" fill="#000000">+ GetCellCount()</text>
<text text-anchor="start" x="23.5" y="-134.5" font-family="Helvetica,sans-Serif" font-size="10.00" fill="#000000">&#45; serialize()</text>
</a>
</g>
</g>
<!-- Node1&#45;&gt;Node0 -->
<g id="edge1" class="edge">
<title>Node1&#45;&gt;Node0</title>
<path fill="none" stroke="#191970" d="M79.5,-117.1048C79.5,-108.0409 79.5,-99.1223 79.5,-90.8214"/>
<polygon fill="none" stroke="#191970" points="76.0001,-117.3748 79.5,-127.3748 83.0001,-117.3749 76.0001,-117.3748"/>
</g>
<!-- Node2 -->
<g id="node3" class="node">
<title>Node2</title>
<g id="a_node3"><a xlink:href="classIdentifiable.html" target="_top" xlink:title="{Identifiable\n||+ ~Identifiable()\l+ GetIdentifier()\l&#45; TidyTemplatedExportIdentifier()\l}">
<polygon fill="#ffffff" stroke="#000000" points="0,-320.5 0,-399.5 159,-399.5 159,-320.5 0,-320.5"/>
<text text-anchor="middle" x="79.5" y="-387.5" font-family="Helvetica,sans-Serif" font-size="10.00" fill="#000000">Identifiable</text>
<polyline fill="none" stroke="#000000" points="0,-380.5 159,-380.5 "/>
<text text-anchor="middle" x="79.5" y="-368.5" font-family="Helvetica,sans-Serif" font-size="10.00" fill="#000000"> </text>
<polyline fill="none" stroke="#000000" points="0,-361.5 159,-361.5 "/>
<text text-anchor="start" x="8" y="-349.5" font-family="Helvetica,sans-Serif" font-size="10.00" fill="#000000">+ ~Identifiable()</text>
<text text-anchor="start" x="8" y="-338.5" font-family="Helvetica,sans-Serif" font-size="10.00" fill="#000000">+ GetIdentifier()</text>
<text text-anchor="start" x="8" y="-327.5" font-family="Helvetica,sans-Serif" font-size="10.00" fill="#000000">&#45; TidyTemplatedExportIdentifier()</text>
</a>
</g>
</g>
<!-- Node2&#45;&gt;Node1 -->
<g id="edge2" class="edge">
<title>Node2&#45;&gt;Node1</title>
<path fill="none" stroke="#191970" d="M79.5,-310.1247C79.5,-301.6207 79.5,-292.6084 79.5,-283.581"/>
<polygon fill="none" stroke="#191970" points="76.0001,-310.2124 79.5,-320.2124 83.0001,-310.2124 76.0001,-310.2124"/>
</g>
</g>
</svg>
