<?xml version="1.0" encoding="UTF-8" standalone="no"?>
<!DOCTYPE svg PUBLIC "-//W3C//DTD SVG 1.1//EN"
 "http://www.w3.org/Graphics/SVG/1.1/DTD/svg11.dtd">
<!-- Generated by graphviz version 2.40.1 (20161225.0304)
 -->
<!-- Title: FourthOrderTensor&lt; DIM1, DIM2, DIM3, DIM4 &gt; Pages: 1 -->
<svg width="198pt" height="292pt"
 viewBox="0.00 0.00 198.00 292.00" xmlns="http://www.w3.org/2000/svg" xmlns:xlink="http://www.w3.org/1999/xlink">
<g id="graph0" class="graph" transform="scale(1 1) rotate(0) translate(4 288)">
<title>FourthOrderTensor&lt; DIM1, DIM2, DIM3, DIM4 &gt;</title>
<polygon fill="#ffffff" stroke="transparent" points="-4,4 -4,-288 194,-288 194,4 -4,4"/>
<!-- Node2 -->
<g id="node1" class="node">
<title>Node2</title>
<polygon fill="#bfbfbf" stroke="#000000" points="0,-.5 0,-178.5 190,-178.5 190,-.5 0,-.5"/>
<text text-anchor="start" x="8" y="-166.5" font-family="Helvetica,sans-Serif" font-size="10.00" fill="#000000">FourthOrderTensor&lt;</text>
<text text-anchor="middle" x="95" y="-155.5" font-family="Helvetica,sans-Serif" font-size="10.00" fill="#000000"> DIM1, DIM2, DIM3, DIM4 &gt;</text>
<polyline fill="none" stroke="#000000" points="0,-148.5 190,-148.5 "/>
<text text-anchor="middle" x="95" y="-136.5" font-family="Helvetica,sans-Serif" font-size="10.00" fill="#000000"> </text>
<polyline fill="none" stroke="#000000" points="0,-129.5 190,-129.5 "/>
<text text-anchor="start" x="8" y="-117.5" font-family="Helvetica,sans-Serif" font-size="10.00" fill="#000000">+ FourthOrderTensor()</text>
<text text-anchor="start" x="8" y="-106.5" font-family="Helvetica,sans-Serif" font-size="10.00" fill="#000000">+ SetAsContractionOnFirstDimension()</text>
<text text-anchor="start" x="8" y="-95.5" font-family="Helvetica,sans-Serif" font-size="10.00" fill="#000000">+ SetAsContractionOnSecond</text>
<text text-anchor="start" x="8" y="-84.5" font-family="Helvetica,sans-Serif" font-size="10.00" fill="#000000">Dimension()</text>
<text text-anchor="start" x="8" y="-73.5" font-family="Helvetica,sans-Serif" font-size="10.00" fill="#000000">+ SetAsContractionOnThirdDimension()</text>
<text text-anchor="start" x="8" y="-62.5" font-family="Helvetica,sans-Serif" font-size="10.00" fill="#000000">+ SetAsContractionOnFourth</text>
<text text-anchor="start" x="8" y="-51.5" font-family="Helvetica,sans-Serif" font-size="10.00" fill="#000000">Dimension()</text>
<text text-anchor="start" x="8" y="-40.5" font-family="Helvetica,sans-Serif" font-size="10.00" fill="#000000">+ operator()()</text>
<text text-anchor="start" x="8" y="-29.5" font-family="Helvetica,sans-Serif" font-size="10.00" fill="#000000">+ Zero()</text>
<text text-anchor="start" x="8" y="-18.5" font-family="Helvetica,sans-Serif" font-size="10.00" fill="#000000">+ rGetData()</text>
<text text-anchor="start" x="8" y="-7.5" font-family="Helvetica,sans-Serif" font-size="10.00" fill="#000000">&#45; GetVectorIndex()</text>
</g>
<!-- Node3 -->
<g id="node2" class="node">
<title>Node3</title>
<polygon fill="#ffffff" stroke="#bfbfbf" points="50,-226.5 50,-283.5 140,-283.5 140,-226.5 50,-226.5"/>
<text text-anchor="middle" x="95" y="-271.5" font-family="Helvetica,sans-Serif" font-size="10.00" fill="#000000">vector&lt; double &gt;</text>
<polyline fill="none" stroke="#bfbfbf" points="50,-264.5 140,-264.5 "/>
<text text-anchor="middle" x="95" y="-252.5" font-family="Helvetica,sans-Serif" font-size="10.00" fill="#000000"> </text>
<polyline fill="none" stroke="#bfbfbf" points="50,-245.5 140,-245.5 "/>
<text text-anchor="middle" x="95" y="-233.5" font-family="Helvetica,sans-Serif" font-size="10.00" fill="#000000"> </text>
</g>
<!-- Node3&#45;&gt;Node2 -->
<g id="edge1" class="edge">
<title>Node3&#45;&gt;Node2</title>
<path fill="none" stroke="#404040" d="M95,-226.1721C95,-215.9957 95,-203.8923 95,-191.1577"/>
<polygon fill="none" stroke="#404040" points="95.0001,-190.7971 91,-184.7972 95,-178.7971 99,-184.7971 95.0001,-190.7971"/>
<text text-anchor="middle" x="113" y="-200" font-family="Helvetica,sans-Serif" font-size="10.00" fill="#000000"> &#45;mData</text>
</g>
</g>
</svg>
