<?xml version="1.0" encoding="UTF-8" standalone="no"?>
<!DOCTYPE svg PUBLIC "-//W3C//DTD SVG 1.1//EN"
 "http://www.w3.org/Graphics/SVG/1.1/DTD/svg11.dtd">
<!-- Generated by graphviz version 2.40.1 (20161225.0304)
 -->
<!-- Title: AbstractCellWriter&lt; ELEMENT_DIM, SPACE_DIM &gt; Pages: 1 -->
<svg width="3140pt" height="700pt"
 viewBox="0.00 0.00 3139.50 700.00" xmlns="http://www.w3.org/2000/svg" xmlns:xlink="http://www.w3.org/1999/xlink">
<g id="graph0" class="graph" transform="scale(1 1) rotate(0) translate(4 696)">
<title>AbstractCellWriter&lt; ELEMENT_DIM, SPACE_DIM &gt;</title>
<polygon fill="#ffffff" stroke="transparent" points="-4,4 -4,-696 3135.5,-696 3135.5,4 -4,4"/>
<!-- Node0 -->
<g id="node1" class="node">
<title>Node0</title>
<polygon fill="#bfbfbf" stroke="#000000" points="1469.5,-149.5 1469.5,-360.5 1642.5,-360.5 1642.5,-149.5 1469.5,-149.5"/>
<text text-anchor="start" x="1477.5" y="-348.5" font-family="Helvetica,sans-Serif" font-size="10.00" fill="#000000">AbstractCellWriter</text>
<text text-anchor="middle" x="1556" y="-337.5" font-family="Helvetica,sans-Serif" font-size="10.00" fill="#000000">&lt; ELEMENT_DIM, SPACE_DIM &gt;</text>
<polyline fill="none" stroke="#000000" points="1469.5,-330.5 1642.5,-330.5 "/>
<text text-anchor="start" x="1477.5" y="-318.5" font-family="Helvetica,sans-Serif" font-size="10.00" fill="#000000"># mOutputScalarData</text>
<text text-anchor="start" x="1477.5" y="-307.5" font-family="Helvetica,sans-Serif" font-size="10.00" fill="#000000"># mOutputVectorData</text>
<text text-anchor="start" x="1477.5" y="-296.5" font-family="Helvetica,sans-Serif" font-size="10.00" fill="#000000"># mVtkCellDataName</text>
<text text-anchor="start" x="1477.5" y="-285.5" font-family="Helvetica,sans-Serif" font-size="10.00" fill="#000000"># mVtkVectorCellDataName</text>
<polyline fill="none" stroke="#000000" points="1469.5,-278.5 1642.5,-278.5 "/>
<text text-anchor="start" x="1477.5" y="-266.5" font-family="Helvetica,sans-Serif" font-size="10.00" fill="#000000">+ AbstractCellWriter()</text>
<text text-anchor="start" x="1477.5" y="-255.5" font-family="Helvetica,sans-Serif" font-size="10.00" fill="#000000">+ GetCellDataForVtkOutput()</text>
<text text-anchor="start" x="1477.5" y="-244.5" font-family="Helvetica,sans-Serif" font-size="10.00" fill="#000000">+ GetVectorCellDataForVtkOutput()</text>
<text text-anchor="start" x="1477.5" y="-233.5" font-family="Helvetica,sans-Serif" font-size="10.00" fill="#000000">+ VisitCell()</text>
<text text-anchor="start" x="1477.5" y="-222.5" font-family="Helvetica,sans-Serif" font-size="10.00" fill="#000000">+ GetOutputScalarData()</text>
<text text-anchor="start" x="1477.5" y="-211.5" font-family="Helvetica,sans-Serif" font-size="10.00" fill="#000000">+ GetOutputVectorData()</text>
<text text-anchor="start" x="1477.5" y="-200.5" font-family="Helvetica,sans-Serif" font-size="10.00" fill="#000000">+ SetVtkCellDataName()</text>
<text text-anchor="start" x="1477.5" y="-189.5" font-family="Helvetica,sans-Serif" font-size="10.00" fill="#000000">+ SetVtkVectorCellDataName()</text>
<text text-anchor="start" x="1477.5" y="-178.5" font-family="Helvetica,sans-Serif" font-size="10.00" fill="#000000">+ GetVtkCellDataName()</text>
<text text-anchor="start" x="1477.5" y="-167.5" font-family="Helvetica,sans-Serif" font-size="10.00" fill="#000000">+ GetVtkVectorCellDataName()</text>
<text text-anchor="start" x="1477.5" y="-156.5" font-family="Helvetica,sans-Serif" font-size="10.00" fill="#000000">&#45; serialize()</text>
</g>
<!-- Node3 -->
<g id="node4" class="node">
<title>Node3</title>
<g id="a_node4"><a xlink:href="classCellAgesWriter.html" target="_top" xlink:title="{CellAgesWriter\&lt; ELEMENT\l_DIM, SPACE_DIM \&gt;\n||+ CellAgesWriter()\l+ GetCellDataForVtkOutput()\l+ VisitCell()\l&#45; serialize()\l}">
<polygon fill="#ffffff" stroke="#000000" points="0,-6 0,-107 144,-107 144,-6 0,-6"/>
<text text-anchor="start" x="8" y="-95" font-family="Helvetica,sans-Serif" font-size="10.00" fill="#000000">CellAgesWriter&lt; ELEMENT</text>
<text text-anchor="middle" x="72" y="-84" font-family="Helvetica,sans-Serif" font-size="10.00" fill="#000000">_DIM, SPACE_DIM &gt;</text>
<polyline fill="none" stroke="#000000" points="0,-77 144,-77 "/>
<text text-anchor="middle" x="72" y="-65" font-family="Helvetica,sans-Serif" font-size="10.00" fill="#000000"> </text>
<polyline fill="none" stroke="#000000" points="0,-58 144,-58 "/>
<text text-anchor="start" x="8" y="-46" font-family="Helvetica,sans-Serif" font-size="10.00" fill="#000000">+ CellAgesWriter()</text>
<text text-anchor="start" x="8" y="-35" font-family="Helvetica,sans-Serif" font-size="10.00" fill="#000000">+ GetCellDataForVtkOutput()</text>
<text text-anchor="start" x="8" y="-24" font-family="Helvetica,sans-Serif" font-size="10.00" fill="#000000">+ VisitCell()</text>
<text text-anchor="start" x="8" y="-13" font-family="Helvetica,sans-Serif" font-size="10.00" fill="#000000">&#45; serialize()</text>
</a>
</g>
</g>
<!-- Node0&#45;&gt;Node3 -->
<g id="edge3" class="edge">
<title>Node0&#45;&gt;Node3</title>
<path fill="none" stroke="#191970" d="M1459.3575,-251.5327C1183.0119,-240.6274 393.9281,-202.3044 153,-113 148.4985,-111.3314 144.0128,-109.352 139.5931,-107.1496"/>
<polygon fill="none" stroke="#191970" points="1459.2364,-255.0305 1469.3657,-251.9245 1459.5103,-248.0359 1459.2364,-255.0305"/>
</g>
<!-- Node4 -->
<g id="node5" class="node">
<title>Node4</title>
<g id="a_node5"><a xlink:href="classCellAncestorWriter.html" target="_top" xlink:title="{CellAncestorWriter\l\&lt; ELEMENT_DIM, SPACE_DIM \&gt;\n||+ CellAncestorWriter()\l+ GetCellDataForVtkOutput()\l+ VisitCell()\l&#45; serialize()\l}">
<polygon fill="#ffffff" stroke="#000000" points="162,-6 162,-107 332,-107 332,-6 162,-6"/>
<text text-anchor="start" x="170" y="-95" font-family="Helvetica,sans-Serif" font-size="10.00" fill="#000000">CellAncestorWriter</text>
<text text-anchor="middle" x="247" y="-84" font-family="Helvetica,sans-Serif" font-size="10.00" fill="#000000">&lt; ELEMENT_DIM, SPACE_DIM &gt;</text>
<polyline fill="none" stroke="#000000" points="162,-77 332,-77 "/>
<text text-anchor="middle" x="247" y="-65" font-family="Helvetica,sans-Serif" font-size="10.00" fill="#000000"> </text>
<polyline fill="none" stroke="#000000" points="162,-58 332,-58 "/>
<text text-anchor="start" x="170" y="-46" font-family="Helvetica,sans-Serif" font-size="10.00" fill="#000000">+ CellAncestorWriter()</text>
<text text-anchor="start" x="170" y="-35" font-family="Helvetica,sans-Serif" font-size="10.00" fill="#000000">+ GetCellDataForVtkOutput()</text>
<text text-anchor="start" x="170" y="-24" font-family="Helvetica,sans-Serif" font-size="10.00" fill="#000000">+ VisitCell()</text>
<text text-anchor="start" x="170" y="-13" font-family="Helvetica,sans-Serif" font-size="10.00" fill="#000000">&#45; serialize()</text>
</a>
</g>
</g>
<!-- Node0&#45;&gt;Node4 -->
<g id="edge4" class="edge">
<title>Node0&#45;&gt;Node4</title>
<path fill="none" stroke="#191970" d="M1459.2705,-248.9822C1209.5243,-232.6051 548.1716,-183.6775 341,-113 335.9542,-111.2786 330.8877,-109.2579 325.8653,-107.0238"/>
<polygon fill="none" stroke="#191970" points="1459.2097,-252.4856 1469.4164,-249.6444 1459.6657,-245.5004 1459.2097,-252.4856"/>
</g>
<!-- Node5 -->
<g id="node6" class="node">
<title>Node5</title>
<g id="a_node6"><a xlink:href="classCellAppliedForceWriter.html" target="_top" xlink:title="{CellAppliedForceWriter\l\&lt; ELEMENT_DIM, SPACE_DIM \&gt;\n||+ CellAppliedForceWriter()\l+ GetVectorCellDataForVtkOutput()\l+ VisitCell()\l&#45; serialize()\l}">
<polygon fill="#ffffff" stroke="#000000" points="350.5,-6 350.5,-107 523.5,-107 523.5,-6 350.5,-6"/>
<text text-anchor="start" x="358.5" y="-95" font-family="Helvetica,sans-Serif" font-size="10.00" fill="#000000">CellAppliedForceWriter</text>
<text text-anchor="middle" x="437" y="-84" font-family="Helvetica,sans-Serif" font-size="10.00" fill="#000000">&lt; ELEMENT_DIM, SPACE_DIM &gt;</text>
<polyline fill="none" stroke="#000000" points="350.5,-77 523.5,-77 "/>
<text text-anchor="middle" x="437" y="-65" font-family="Helvetica,sans-Serif" font-size="10.00" fill="#000000"> </text>
<polyline fill="none" stroke="#000000" points="350.5,-58 523.5,-58 "/>
<text text-anchor="start" x="358.5" y="-46" font-family="Helvetica,sans-Serif" font-size="10.00" fill="#000000">+ CellAppliedForceWriter()</text>
<text text-anchor="start" x="358.5" y="-35" font-family="Helvetica,sans-Serif" font-size="10.00" fill="#000000">+ GetVectorCellDataForVtkOutput()</text>
<text text-anchor="start" x="358.5" y="-24" font-family="Helvetica,sans-Serif" font-size="10.00" fill="#000000">+ VisitCell()</text>
<text text-anchor="start" x="358.5" y="-13" font-family="Helvetica,sans-Serif" font-size="10.00" fill="#000000">&#45; serialize()</text>
</a>
</g>
</g>
<!-- Node0&#45;&gt;Node5 -->
<g id="edge5" class="edge">
<title>Node0&#45;&gt;Node5</title>
<path fill="none" stroke="#191970" d="M1459.2027,-246.448C1238.3961,-226.1543 703.4477,-172.3248 533,-113 527.9773,-111.2518 522.9259,-109.2273 517.91,-107.0059"/>
<polygon fill="none" stroke="#191970" points="1459.1996,-249.9622 1469.4772,-247.3889 1459.8381,-242.9914 1459.1996,-249.9622"/>
</g>
<!-- Node6 -->
<g id="node7" class="node">
<title>Node6</title>
<g id="a_node7"><a xlink:href="classCellBetaCateninWriter.html" target="_top" xlink:title="{CellBetaCateninWriter\l\&lt; ELEMENT_DIM, SPACE_DIM \&gt;\n||+ CellBetaCateninWriter()\l+ GetCellDataForVtkOutput()\l+ VisitCell()\l&#45; serialize()\l}">
<polygon fill="#ffffff" stroke="#000000" points="542,-6 542,-107 712,-107 712,-6 542,-6"/>
<text text-anchor="start" x="550" y="-95" font-family="Helvetica,sans-Serif" font-size="10.00" fill="#000000">CellBetaCateninWriter</text>
<text text-anchor="middle" x="627" y="-84" font-family="Helvetica,sans-Serif" font-size="10.00" fill="#000000">&lt; ELEMENT_DIM, SPACE_DIM &gt;</text>
<polyline fill="none" stroke="#000000" points="542,-77 712,-77 "/>
<text text-anchor="middle" x="627" y="-65" font-family="Helvetica,sans-Serif" font-size="10.00" fill="#000000"> </text>
<polyline fill="none" stroke="#000000" points="542,-58 712,-58 "/>
<text text-anchor="start" x="550" y="-46" font-family="Helvetica,sans-Serif" font-size="10.00" fill="#000000">+ CellBetaCateninWriter()</text>
<text text-anchor="start" x="550" y="-35" font-family="Helvetica,sans-Serif" font-size="10.00" fill="#000000">+ GetCellDataForVtkOutput()</text>
<text text-anchor="start" x="550" y="-24" font-family="Helvetica,sans-Serif" font-size="10.00" fill="#000000">+ VisitCell()</text>
<text text-anchor="start" x="550" y="-13" font-family="Helvetica,sans-Serif" font-size="10.00" fill="#000000">&#45; serialize()</text>
</a>
</g>
</g>
<!-- Node0&#45;&gt;Node6 -->
<g id="edge6" class="edge">
<title>Node0&#45;&gt;Node6</title>
<path fill="none" stroke="#191970" d="M1459.2258,-250.1939C1300.4807,-239.7723 976.8501,-207.794 721,-113 716.2686,-111.247 711.5094,-109.2515 706.7791,-107.0824"/>
<polygon fill="none" stroke="#191970" points="1459.2374,-253.7017 1469.4411,-250.8496 1459.6859,-246.7161 1459.2374,-253.7017"/>
</g>
<!-- Node7 -->
<g id="node8" class="node">
<title>Node7</title>
<g id="a_node8"><a xlink:href="classCellCycleModelProteinConcentrationsWriter.html" target="_top" xlink:title="{CellCycleModelProteinConcentrations\lWriter\&lt; ELEMENT_DIM, SPACE_DIM \&gt;\n||+ CellCycleModelProteinConcentrations\lWriter()\l+ GetCellDataForVtkOutput()\l+ VisitCell()\l&#45; serialize()\l}">
<polygon fill="#ffffff" stroke="#000000" points="730.5,-.5 730.5,-112.5 927.5,-112.5 927.5,-.5 730.5,-.5"/>
<text text-anchor="start" x="738.5" y="-100.5" font-family="Helvetica,sans-Serif" font-size="10.00" fill="#000000">CellCycleModelProteinConcentrations</text>
<text text-anchor="middle" x="829" y="-89.5" font-family="Helvetica,sans-Serif" font-size="10.00" fill="#000000">Writer&lt; ELEMENT_DIM, SPACE_DIM &gt;</text>
<polyline fill="none" stroke="#000000" points="730.5,-82.5 927.5,-82.5 "/>
<text text-anchor="middle" x="829" y="-70.5" font-family="Helvetica,sans-Serif" font-size="10.00" fill="#000000"> </text>
<polyline fill="none" stroke="#000000" points="730.5,-63.5 927.5,-63.5 "/>
<text text-anchor="start" x="738.5" y="-51.5" font-family="Helvetica,sans-Serif" font-size="10.00" fill="#000000">+ CellCycleModelProteinConcentrations</text>
<text text-anchor="start" x="738.5" y="-40.5" font-family="Helvetica,sans-Serif" font-size="10.00" fill="#000000">Writer()</text>
<text text-anchor="start" x="738.5" y="-29.5" font-family="Helvetica,sans-Serif" font-size="10.00" fill="#000000">+ GetCellDataForVtkOutput()</text>
<text text-anchor="start" x="738.5" y="-18.5" font-family="Helvetica,sans-Serif" font-size="10.00" fill="#000000">+ VisitCell()</text>
<text text-anchor="start" x="738.5" y="-7.5" font-family="Helvetica,sans-Serif" font-size="10.00" fill="#000000">&#45; serialize()</text>
</a>
</g>
</g>
<!-- Node0&#45;&gt;Node7 -->
<g id="edge7" class="edge">
<title>Node0&#45;&gt;Node7</title>
<path fill="none" stroke="#191970" d="M1459.1792,-240.698C1335.4319,-220.6421 1115.8193,-179.0346 937,-113 933.9232,-111.8638 930.823,-110.658 927.7136,-109.3953"/>
<polygon fill="none" stroke="#191970" points="1458.9566,-244.2071 1469.3854,-242.3384 1460.0675,-237.2958 1458.9566,-244.2071"/>
</g>
<!-- Node8 -->
<g id="node9" class="node">
<title>Node8</title>
<g id="a_node9"><a xlink:href="classCellDataItemWriter.html" target="_top" xlink:title="{CellDataItemWriter\l\&lt; ELEMENT_DIM, SPACE_DIM \&gt;\n|&#45; mCellDataVariableName\l|+ CellDataItemWriter()\l+ GetCellDataForVtkOutput()\l+ VisitCell()\l+ GetCellDataVariableName()\l&#45; serialize()\l}">
<polygon fill="#ffffff" stroke="#000000" points="946,-.5 946,-112.5 1116,-112.5 1116,-.5 946,-.5"/>
<text text-anchor="start" x="954" y="-100.5" font-family="Helvetica,sans-Serif" font-size="10.00" fill="#000000">CellDataItemWriter</text>
<text text-anchor="middle" x="1031" y="-89.5" font-family="Helvetica,sans-Serif" font-size="10.00" fill="#000000">&lt; ELEMENT_DIM, SPACE_DIM &gt;</text>
<polyline fill="none" stroke="#000000" points="946,-82.5 1116,-82.5 "/>
<text text-anchor="start" x="954" y="-70.5" font-family="Helvetica,sans-Serif" font-size="10.00" fill="#000000">&#45; mCellDataVariableName</text>
<polyline fill="none" stroke="#000000" points="946,-63.5 1116,-63.5 "/>
<text text-anchor="start" x="954" y="-51.5" font-family="Helvetica,sans-Serif" font-size="10.00" fill="#000000">+ CellDataItemWriter()</text>
<text text-anchor="start" x="954" y="-40.5" font-family="Helvetica,sans-Serif" font-size="10.00" fill="#000000">+ GetCellDataForVtkOutput()</text>
<text text-anchor="start" x="954" y="-29.5" font-family="Helvetica,sans-Serif" font-size="10.00" fill="#000000">+ VisitCell()</text>
<text text-anchor="start" x="954" y="-18.5" font-family="Helvetica,sans-Serif" font-size="10.00" fill="#000000">+ GetCellDataVariableName()</text>
<text text-anchor="start" x="954" y="-7.5" font-family="Helvetica,sans-Serif" font-size="10.00" fill="#000000">&#45; serialize()</text>
</a>
</g>
</g>
<!-- Node0&#45;&gt;Node8 -->
<g id="edge8" class="edge">
<title>Node0&#45;&gt;Node8</title>
<path fill="none" stroke="#191970" d="M1459.4118,-229.8611C1370.4943,-205.1694 1235.9688,-163.8569 1125,-113 1122.0574,-111.6514 1119.0911,-110.2328 1116.1173,-108.7594"/>
<polygon fill="none" stroke="#191970" points="1458.6449,-233.2802 1469.2158,-232.5675 1460.5077,-226.5326 1458.6449,-233.2802"/>
</g>
<!-- Node9 -->
<g id="node10" class="node">
<title>Node9</title>
<g id="a_node10"><a xlink:href="classCellDeltaNotchWriter.html" target="_top" xlink:title="{CellDeltaNotchWriter\l\&lt; ELEMENT_DIM, SPACE_DIM \&gt;\n||+ CellDeltaNotchWriter()\l+ GetCellDataForVtkOutput()\l+ VisitCell()\l&#45; serialize()\l}">
<polygon fill="#ffffff" stroke="#000000" points="1134,-6 1134,-107 1304,-107 1304,-6 1134,-6"/>
<text text-anchor="start" x="1142" y="-95" font-family="Helvetica,sans-Serif" font-size="10.00" fill="#000000">CellDeltaNotchWriter</text>
<text text-anchor="middle" x="1219" y="-84" font-family="Helvetica,sans-Serif" font-size="10.00" fill="#000000">&lt; ELEMENT_DIM, SPACE_DIM &gt;</text>
<polyline fill="none" stroke="#000000" points="1134,-77 1304,-77 "/>
<text text-anchor="middle" x="1219" y="-65" font-family="Helvetica,sans-Serif" font-size="10.00" fill="#000000"> </text>
<polyline fill="none" stroke="#000000" points="1134,-58 1304,-58 "/>
<text text-anchor="start" x="1142" y="-46" font-family="Helvetica,sans-Serif" font-size="10.00" fill="#000000">+ CellDeltaNotchWriter()</text>
<text text-anchor="start" x="1142" y="-35" font-family="Helvetica,sans-Serif" font-size="10.00" fill="#000000">+ GetCellDataForVtkOutput()</text>
<text text-anchor="start" x="1142" y="-24" font-family="Helvetica,sans-Serif" font-size="10.00" fill="#000000">+ VisitCell()</text>
<text text-anchor="start" x="1142" y="-13" font-family="Helvetica,sans-Serif" font-size="10.00" fill="#000000">&#45; serialize()</text>
</a>
</g>
</g>
<!-- Node0&#45;&gt;Node9 -->
<g id="edge9" class="edge">
<title>Node0&#45;&gt;Node9</title>
<path fill="none" stroke="#191970" d="M1460.4114,-199.507C1415.579,-173.3865 1361.4709,-141.7278 1313,-113 1309.724,-111.0584 1306.3862,-109.0753 1303.0162,-107.0691"/>
<polygon fill="none" stroke="#191970" points="1458.847,-202.6463 1469.2498,-204.6548 1462.3701,-196.5974 1458.847,-202.6463"/>
</g>
<!-- Node10 -->
<g id="node11" class="node">
<title>Node10</title>
<g id="a_node11"><a xlink:href="classCellIdWriter.html" target="_top" xlink:title="{CellIdWriter\&lt; ELEMENT\l_DIM, SPACE_DIM \&gt;\n||+ CellIdWriter()\l+ GetCellDataForVtkOutput()\l+ VisitCell()\l&#45; serialize()\l}">
<polygon fill="#ffffff" stroke="#000000" points="1322,-6 1322,-107 1466,-107 1466,-6 1322,-6"/>
<text text-anchor="start" x="1330" y="-95" font-family="Helvetica,sans-Serif" font-size="10.00" fill="#000000">CellIdWriter&lt; ELEMENT</text>
<text text-anchor="middle" x="1394" y="-84" font-family="Helvetica,sans-Serif" font-size="10.00" fill="#000000">_DIM, SPACE_DIM &gt;</text>
<polyline fill="none" stroke="#000000" points="1322,-77 1466,-77 "/>
<text text-anchor="middle" x="1394" y="-65" font-family="Helvetica,sans-Serif" font-size="10.00" fill="#000000"> </text>
<polyline fill="none" stroke="#000000" points="1322,-58 1466,-58 "/>
<text text-anchor="start" x="1330" y="-46" font-family="Helvetica,sans-Serif" font-size="10.00" fill="#000000">+ CellIdWriter()</text>
<text text-anchor="start" x="1330" y="-35" font-family="Helvetica,sans-Serif" font-size="10.00" fill="#000000">+ GetCellDataForVtkOutput()</text>
<text text-anchor="start" x="1330" y="-24" font-family="Helvetica,sans-Serif" font-size="10.00" fill="#000000">+ VisitCell()</text>
<text text-anchor="start" x="1330" y="-13" font-family="Helvetica,sans-Serif" font-size="10.00" fill="#000000">&#45; serialize()</text>
</a>
</g>
</g>
<!-- Node0&#45;&gt;Node10 -->
<g id="edge10" class="edge">
<title>Node0&#45;&gt;Node10</title>
<path fill="none" stroke="#191970" d="M1463.3674,-141.4965C1453.6462,-129.5849 1444.1532,-117.9531 1435.4643,-107.3066"/>
<polygon fill="none" stroke="#191970" points="1460.7481,-143.8225 1469.7825,-149.357 1466.1713,-139.3966 1460.7481,-143.8225"/>
</g>
<!-- Node11 -->
<g id="node12" class="node">
<title>Node11</title>
<g id="a_node12"><a xlink:href="classCellLabelWriter.html" target="_top" xlink:title="{CellLabelWriter\&lt; ELEMENT\l_DIM, SPACE_DIM \&gt;\n||+ CellLabelWriter()\l+ GetCellDataForVtkOutput()\l+ VisitCell()\l&#45; serialize()\l}">
<polygon fill="#ffffff" stroke="#000000" points="1484,-6 1484,-107 1628,-107 1628,-6 1484,-6"/>
<text text-anchor="start" x="1492" y="-95" font-family="Helvetica,sans-Serif" font-size="10.00" fill="#000000">CellLabelWriter&lt; ELEMENT</text>
<text text-anchor="middle" x="1556" y="-84" font-family="Helvetica,sans-Serif" font-size="10.00" fill="#000000">_DIM, SPACE_DIM &gt;</text>
<polyline fill="none" stroke="#000000" points="1484,-77 1628,-77 "/>
<text text-anchor="middle" x="1556" y="-65" font-family="Helvetica,sans-Serif" font-size="10.00" fill="#000000"> </text>
<polyline fill="none" stroke="#000000" points="1484,-58 1628,-58 "/>
<text text-anchor="start" x="1492" y="-46" font-family="Helvetica,sans-Serif" font-size="10.00" fill="#000000">+ CellLabelWriter()</text>
<text text-anchor="start" x="1492" y="-35" font-family="Helvetica,sans-Serif" font-size="10.00" fill="#000000">+ GetCellDataForVtkOutput()</text>
<text text-anchor="start" x="1492" y="-24" font-family="Helvetica,sans-Serif" font-size="10.00" fill="#000000">+ VisitCell()</text>
<text text-anchor="start" x="1492" y="-13" font-family="Helvetica,sans-Serif" font-size="10.00" fill="#000000">&#45; serialize()</text>
</a>
</g>
</g>
<!-- Node0&#45;&gt;Node11 -->
<g id="edge11" class="edge">
<title>Node0&#45;&gt;Node11</title>
<path fill="none" stroke="#191970" d="M1556,-139.1181C1556,-128.0384 1556,-117.2433 1556,-107.3066"/>
<polygon fill="none" stroke="#191970" points="1552.5001,-139.3569 1556,-149.357 1559.5001,-139.357 1552.5001,-139.3569"/>
</g>
<!-- Node12 -->
<g id="node13" class="node">
<title>Node12</title>
<g id="a_node13"><a xlink:href="classCellLocationIndexWriter.html" target="_top" xlink:title="{CellLocationIndexWriter\l\&lt; ELEMENT_DIM, SPACE_DIM \&gt;\n||+ CellLocationIndexWriter()\l+ GetCellDataForVtkOutput()\l+ VisitCell()\l&#45; serialize()\l}">
<polygon fill="#ffffff" stroke="#000000" points="1646,-6 1646,-107 1816,-107 1816,-6 1646,-6"/>
<text text-anchor="start" x="1654" y="-95" font-family="Helvetica,sans-Serif" font-size="10.00" fill="#000000">CellLocationIndexWriter</text>
<text text-anchor="middle" x="1731" y="-84" font-family="Helvetica,sans-Serif" font-size="10.00" fill="#000000">&lt; ELEMENT_DIM, SPACE_DIM &gt;</text>
<polyline fill="none" stroke="#000000" points="1646,-77 1816,-77 "/>
<text text-anchor="middle" x="1731" y="-65" font-family="Helvetica,sans-Serif" font-size="10.00" fill="#000000"> </text>
<polyline fill="none" stroke="#000000" points="1646,-58 1816,-58 "/>
<text text-anchor="start" x="1654" y="-46" font-family="Helvetica,sans-Serif" font-size="10.00" fill="#000000">+ CellLocationIndexWriter()</text>
<text text-anchor="start" x="1654" y="-35" font-family="Helvetica,sans-Serif" font-size="10.00" fill="#000000">+ GetCellDataForVtkOutput()</text>
<text text-anchor="start" x="1654" y="-24" font-family="Helvetica,sans-Serif" font-size="10.00" fill="#000000">+ VisitCell()</text>
<text text-anchor="start" x="1654" y="-13" font-family="Helvetica,sans-Serif" font-size="10.00" fill="#000000">&#45; serialize()</text>
</a>
</g>
</g>
<!-- Node0&#45;&gt;Node12 -->
<g id="edge12" class="edge">
<title>Node0&#45;&gt;Node12</title>
<path fill="none" stroke="#191970" d="M1649.4632,-148.9861C1662.3183,-134.4047 1675.001,-120.0189 1686.3944,-107.0955"/>
<polygon fill="none" stroke="#191970" points="1646.7187,-146.8066 1642.731,-156.6223 1651.9695,-151.4357 1646.7187,-146.8066"/>
</g>
<!-- Node13 -->
<g id="node14" class="node">
<title>Node13</title>
<g id="a_node14"><a xlink:href="classCellMutationStatesWriter.html" target="_top" xlink:title="{CellMutationStatesWriter\l\&lt; ELEMENT_DIM, SPACE_DIM \&gt;\n||+ CellMutationStatesWriter()\l+ GetCellDataForVtkOutput()\l+ VisitCell()\l&#45; serialize()\l}">
<polygon fill="#ffffff" stroke="#000000" points="1834,-6 1834,-107 2004,-107 2004,-6 1834,-6"/>
<text text-anchor="start" x="1842" y="-95" font-family="Helvetica,sans-Serif" font-size="10.00" fill="#000000">CellMutationStatesWriter</text>
<text text-anchor="middle" x="1919" y="-84" font-family="Helvetica,sans-Serif" font-size="10.00" fill="#000000">&lt; ELEMENT_DIM, SPACE_DIM &gt;</text>
<polyline fill="none" stroke="#000000" points="1834,-77 2004,-77 "/>
<text text-anchor="middle" x="1919" y="-65" font-family="Helvetica,sans-Serif" font-size="10.00" fill="#000000"> </text>
<polyline fill="none" stroke="#000000" points="1834,-58 2004,-58 "/>
<text text-anchor="start" x="1842" y="-46" font-family="Helvetica,sans-Serif" font-size="10.00" fill="#000000">+ CellMutationStatesWriter()</text>
<text text-anchor="start" x="1842" y="-35" font-family="Helvetica,sans-Serif" font-size="10.00" fill="#000000">+ GetCellDataForVtkOutput()</text>
<text text-anchor="start" x="1842" y="-24" font-family="Helvetica,sans-Serif" font-size="10.00" fill="#000000">+ VisitCell()</text>
<text text-anchor="start" x="1842" y="-13" font-family="Helvetica,sans-Serif" font-size="10.00" fill="#000000">&#45; serialize()</text>
</a>
</g>
</g>
<!-- Node0&#45;&gt;Node13 -->
<g id="edge13" class="edge">
<title>Node0&#45;&gt;Node13</title>
<path fill="none" stroke="#191970" d="M1651.834,-206.0546C1703.5052,-179.253 1768.1539,-145.0555 1825,-113 1828.4,-111.0827 1831.8582,-109.1102 1835.3436,-107.1036"/>
<polygon fill="none" stroke="#191970" points="1649.9416,-203.0931 1642.6716,-210.8001 1653.161,-209.3088 1649.9416,-203.0931"/>
</g>
<!-- Node14 -->
<g id="node15" class="node">
<title>Node14</title>
<g id="a_node15"><a xlink:href="classCellProliferativePhasesWriter.html" target="_top" xlink:title="{CellProliferativePhasesWriter\l\&lt; ELEMENT_DIM, SPACE_DIM \&gt;\n||+ CellProliferativePhasesWriter()\l+ GetCellDataForVtkOutput()\l+ VisitCell()\l&#45; serialize()\l}">
<polygon fill="#ffffff" stroke="#000000" points="2022,-6 2022,-107 2192,-107 2192,-6 2022,-6"/>
<text text-anchor="start" x="2030" y="-95" font-family="Helvetica,sans-Serif" font-size="10.00" fill="#000000">CellProliferativePhasesWriter</text>
<text text-anchor="middle" x="2107" y="-84" font-family="Helvetica,sans-Serif" font-size="10.00" fill="#000000">&lt; ELEMENT_DIM, SPACE_DIM &gt;</text>
<polyline fill="none" stroke="#000000" points="2022,-77 2192,-77 "/>
<text text-anchor="middle" x="2107" y="-65" font-family="Helvetica,sans-Serif" font-size="10.00" fill="#000000"> </text>
<polyline fill="none" stroke="#000000" points="2022,-58 2192,-58 "/>
<text text-anchor="start" x="2030" y="-46" font-family="Helvetica,sans-Serif" font-size="10.00" fill="#000000">+ CellProliferativePhasesWriter()</text>
<text text-anchor="start" x="2030" y="-35" font-family="Helvetica,sans-Serif" font-size="10.00" fill="#000000">+ GetCellDataForVtkOutput()</text>
<text text-anchor="start" x="2030" y="-24" font-family="Helvetica,sans-Serif" font-size="10.00" fill="#000000">+ VisitCell()</text>
<text text-anchor="start" x="2030" y="-13" font-family="Helvetica,sans-Serif" font-size="10.00" fill="#000000">&#45; serialize()</text>
</a>
</g>
</g>
<!-- Node0&#45;&gt;Node14 -->
<g id="edge14" class="edge">
<title>Node0&#45;&gt;Node14</title>
<path fill="none" stroke="#191970" d="M1652.699,-232.1705C1746.9185,-208.2655 1893.0891,-166.7263 2013,-113 2017.0834,-111.1704 2021.2092,-109.2007 2025.3352,-107.1318"/>
<polygon fill="none" stroke="#191970" points="1651.7357,-228.8038 1642.8946,-234.642 1653.4468,-235.5915 1651.7357,-228.8038"/>
</g>
<!-- Node15 -->
<g id="node16" class="node">
<title>Node15</title>
<g id="a_node16"><a xlink:href="classCellProliferativeTypesWriter.html" target="_top" xlink:title="{CellProliferativeTypesWriter\l\&lt; ELEMENT_DIM, SPACE_DIM \&gt;\n||+ CellProliferativeTypesWriter()\l+ GetCellDataForVtkOutput()\l+ VisitCell()\l&#45; serialize()\l}">
<polygon fill="#ffffff" stroke="#000000" points="2210,-6 2210,-107 2380,-107 2380,-6 2210,-6"/>
<text text-anchor="start" x="2218" y="-95" font-family="Helvetica,sans-Serif" font-size="10.00" fill="#000000">CellProliferativeTypesWriter</text>
<text text-anchor="middle" x="2295" y="-84" font-family="Helvetica,sans-Serif" font-size="10.00" fill="#000000">&lt; ELEMENT_DIM, SPACE_DIM &gt;</text>
<polyline fill="none" stroke="#000000" points="2210,-77 2380,-77 "/>
<text text-anchor="middle" x="2295" y="-65" font-family="Helvetica,sans-Serif" font-size="10.00" fill="#000000"> </text>
<polyline fill="none" stroke="#000000" points="2210,-58 2380,-58 "/>
<text text-anchor="start" x="2218" y="-46" font-family="Helvetica,sans-Serif" font-size="10.00" fill="#000000">+ CellProliferativeTypesWriter()</text>
<text text-anchor="start" x="2218" y="-35" font-family="Helvetica,sans-Serif" font-size="10.00" fill="#000000">+ GetCellDataForVtkOutput()</text>
<text text-anchor="start" x="2218" y="-24" font-family="Helvetica,sans-Serif" font-size="10.00" fill="#000000">+ VisitCell()</text>
<text text-anchor="start" x="2218" y="-13" font-family="Helvetica,sans-Serif" font-size="10.00" fill="#000000">&#45; serialize()</text>
</a>
</g>
</g>
<!-- Node0&#45;&gt;Node15 -->
<g id="edge15" class="edge">
<title>Node0&#45;&gt;Node15</title>
<path fill="none" stroke="#191970" d="M1652.8435,-243.6458C1781.594,-226.3362 2014.5683,-187.2363 2201,-113 2205.5109,-111.2038 2210.0557,-109.2048 2214.5831,-107.0613"/>
<polygon fill="none" stroke="#191970" points="1652.0677,-240.218 1642.6157,-245.0044 1652.9895,-247.1571 1652.0677,-240.218"/>
</g>
<!-- Node16 -->
<g id="node17" class="node">
<title>Node16</title>
<g id="a_node17"><a xlink:href="classCellRadiusWriter.html" target="_top" xlink:title="{CellRadiusWriter\&lt; ELEMENT\l_DIM, SPACE_DIM \&gt;\n||+ CellRadiusWriter()\l+ GetCellDataForVtkOutput()\l+ VisitCell()\l&#45; serialize()\l}">
<polygon fill="#ffffff" stroke="#000000" points="2398.5,-6 2398.5,-107 2545.5,-107 2545.5,-6 2398.5,-6"/>
<text text-anchor="start" x="2406.5" y="-95" font-family="Helvetica,sans-Serif" font-size="10.00" fill="#000000">CellRadiusWriter&lt; ELEMENT</text>
<text text-anchor="middle" x="2472" y="-84" font-family="Helvetica,sans-Serif" font-size="10.00" fill="#000000">_DIM, SPACE_DIM &gt;</text>
<polyline fill="none" stroke="#000000" points="2398.5,-77 2545.5,-77 "/>
<text text-anchor="middle" x="2472" y="-65" font-family="Helvetica,sans-Serif" font-size="10.00" fill="#000000"> </text>
<polyline fill="none" stroke="#000000" points="2398.5,-58 2545.5,-58 "/>
<text text-anchor="start" x="2406.5" y="-46" font-family="Helvetica,sans-Serif" font-size="10.00" fill="#000000">+ CellRadiusWriter()</text>
<text text-anchor="start" x="2406.5" y="-35" font-family="Helvetica,sans-Serif" font-size="10.00" fill="#000000">+ GetCellDataForVtkOutput()</text>
<text text-anchor="start" x="2406.5" y="-24" font-family="Helvetica,sans-Serif" font-size="10.00" fill="#000000">+ VisitCell()</text>
<text text-anchor="start" x="2406.5" y="-13" font-family="Helvetica,sans-Serif" font-size="10.00" fill="#000000">&#45; serialize()</text>
</a>
</g>
</g>
<!-- Node0&#45;&gt;Node16 -->
<g id="edge16" class="edge">
<title>Node0&#45;&gt;Node16</title>
<path fill="none" stroke="#191970" d="M1652.858,-251.7998C1812.007,-243.6618 2136.3709,-214.8589 2389,-113 2393.3651,-111.24 2397.7326,-109.2228 2402.0536,-107.0222"/>
<polygon fill="none" stroke="#191970" points="1652.4314,-248.3166 1642.6166,-252.3065 1652.7774,-255.308 1652.4314,-248.3166"/>
</g>
<!-- Node17 -->
<g id="node18" class="node">
<title>Node17</title>
<g id="a_node18"><a xlink:href="classCellRosetteRankWriter.html" target="_top" xlink:title="{CellRosetteRankWriter\l\&lt; ELEMENT_DIM, SPACE_DIM \&gt;\n||+ CellRosetteRankWriter()\l+ GetCellDataForVtkOutput()\l+ VisitCell()\l&#45; serialize()\l}">
<polygon fill="#ffffff" stroke="#000000" points="2564,-6 2564,-107 2734,-107 2734,-6 2564,-6"/>
<text text-anchor="start" x="2572" y="-95" font-family="Helvetica,sans-Serif" font-size="10.00" fill="#000000">CellRosetteRankWriter</text>
<text text-anchor="middle" x="2649" y="-84" font-family="Helvetica,sans-Serif" font-size="10.00" fill="#000000">&lt; ELEMENT_DIM, SPACE_DIM &gt;</text>
<polyline fill="none" stroke="#000000" points="2564,-77 2734,-77 "/>
<text text-anchor="middle" x="2649" y="-65" font-family="Helvetica,sans-Serif" font-size="10.00" fill="#000000"> </text>
<polyline fill="none" stroke="#000000" points="2564,-58 2734,-58 "/>
<text text-anchor="start" x="2572" y="-46" font-family="Helvetica,sans-Serif" font-size="10.00" fill="#000000">+ CellRosetteRankWriter()</text>
<text text-anchor="start" x="2572" y="-35" font-family="Helvetica,sans-Serif" font-size="10.00" fill="#000000">+ GetCellDataForVtkOutput()</text>
<text text-anchor="start" x="2572" y="-24" font-family="Helvetica,sans-Serif" font-size="10.00" fill="#000000">+ VisitCell()</text>
<text text-anchor="start" x="2572" y="-13" font-family="Helvetica,sans-Serif" font-size="10.00" fill="#000000">&#45; serialize()</text>
</a>
</g>
</g>
<!-- Node0&#45;&gt;Node17 -->
<g id="edge17" class="edge">
<title>Node0&#45;&gt;Node17</title>
<path fill="none" stroke="#191970" d="M1652.9517,-246.1779C1870.1048,-225.6196 2389.4501,-171.7845 2555,-113 2559.8446,-111.2798 2564.7129,-109.2939 2569.546,-107.1176"/>
<polygon fill="none" stroke="#191970" points="1652.4692,-242.7078 1642.8421,-247.1316 1653.1267,-249.6769 1652.4692,-242.7078"/>
</g>
<!-- Node18 -->
<g id="node19" class="node">
<title>Node18</title>
<g id="a_node19"><a xlink:href="classCellVolumesWriter.html" target="_top" xlink:title="{CellVolumesWriter\&lt;\l ELEMENT_DIM, SPACE_DIM \&gt;\n||+ CellVolumesWriter()\l+ GetCellDataForVtkOutput()\l+ VisitCell()\l&#45; serialize()\l}">
<polygon fill="#ffffff" stroke="#000000" points="2752,-6 2752,-107 2916,-107 2916,-6 2752,-6"/>
<text text-anchor="start" x="2760" y="-95" font-family="Helvetica,sans-Serif" font-size="10.00" fill="#000000">CellVolumesWriter&lt;</text>
<text text-anchor="middle" x="2834" y="-84" font-family="Helvetica,sans-Serif" font-size="10.00" fill="#000000"> ELEMENT_DIM, SPACE_DIM &gt;</text>
<polyline fill="none" stroke="#000000" points="2752,-77 2916,-77 "/>
<text text-anchor="middle" x="2834" y="-65" font-family="Helvetica,sans-Serif" font-size="10.00" fill="#000000"> </text>
<polyline fill="none" stroke="#000000" points="2752,-58 2916,-58 "/>
<text text-anchor="start" x="2760" y="-46" font-family="Helvetica,sans-Serif" font-size="10.00" fill="#000000">+ CellVolumesWriter()</text>
<text text-anchor="start" x="2760" y="-35" font-family="Helvetica,sans-Serif" font-size="10.00" fill="#000000">+ GetCellDataForVtkOutput()</text>
<text text-anchor="start" x="2760" y="-24" font-family="Helvetica,sans-Serif" font-size="10.00" fill="#000000">+ VisitCell()</text>
<text text-anchor="start" x="2760" y="-13" font-family="Helvetica,sans-Serif" font-size="10.00" fill="#000000">&#45; serialize()</text>
</a>
</g>
</g>
<!-- Node0&#45;&gt;Node18 -->
<g id="edge18" class="edge">
<title>Node0&#45;&gt;Node18</title>
<path fill="none" stroke="#191970" d="M1652.7622,-248.8491C1898.5616,-232.3621 2541.741,-183.5926 2743,-113 2747.9134,-111.2766 2752.8406,-109.2543 2757.7199,-107.0191"/>
<polygon fill="none" stroke="#191970" points="1652.5167,-245.3576 1642.7721,-249.5161 1652.9831,-252.3421 1652.5167,-245.3576"/>
</g>
<!-- Node19 -->
<g id="node20" class="node">
<title>Node19</title>
<g id="a_node20"><a xlink:href="classLegacyCellProliferativeTypesWriter.html" target="_top" xlink:title="{LegacyCellProliferativeTypes\lWriter\&lt; ELEMENT_DIM, SPACE_DIM \&gt;\n||+ LegacyCellProliferativeTypes\lWriter()\l+ GetCellDataForVtkOutput()\l+ VisitCell()\l&#45; serialize()\l}">
<polygon fill="#ffffff" stroke="#000000" points="2934.5,-.5 2934.5,-112.5 3131.5,-112.5 3131.5,-.5 2934.5,-.5"/>
<text text-anchor="start" x="2942.5" y="-100.5" font-family="Helvetica,sans-Serif" font-size="10.00" fill="#000000">LegacyCellProliferativeTypes</text>
<text text-anchor="middle" x="3033" y="-89.5" font-family="Helvetica,sans-Serif" font-size="10.00" fill="#000000">Writer&lt; ELEMENT_DIM, SPACE_DIM &gt;</text>
<polyline fill="none" stroke="#000000" points="2934.5,-82.5 3131.5,-82.5 "/>
<text text-anchor="middle" x="3033" y="-70.5" font-family="Helvetica,sans-Serif" font-size="10.00" fill="#000000"> </text>
<polyline fill="none" stroke="#000000" points="2934.5,-63.5 3131.5,-63.5 "/>
<text text-anchor="start" x="2942.5" y="-51.5" font-family="Helvetica,sans-Serif" font-size="10.00" fill="#000000">+ LegacyCellProliferativeTypes</text>
<text text-anchor="start" x="2942.5" y="-40.5" font-family="Helvetica,sans-Serif" font-size="10.00" fill="#000000">Writer()</text>
<text text-anchor="start" x="2942.5" y="-29.5" font-family="Helvetica,sans-Serif" font-size="10.00" fill="#000000">+ GetCellDataForVtkOutput()</text>
<text text-anchor="start" x="2942.5" y="-18.5" font-family="Helvetica,sans-Serif" font-size="10.00" fill="#000000">+ VisitCell()</text>
<text text-anchor="start" x="2942.5" y="-7.5" font-family="Helvetica,sans-Serif" font-size="10.00" fill="#000000">&#45; serialize()</text>
</a>
</g>
</g>
<!-- Node0&#45;&gt;Node19 -->
<g id="edge19" class="edge">
<title>Node0&#45;&gt;Node19</title>
<path fill="none" stroke="#191970" d="M1653.073,-249.6972C1924.297,-234.1278 2685.8463,-185.0638 2925,-113 2928.1404,-112.0537 2931.2965,-111.0149 2934.4548,-109.8982"/>
<polygon fill="none" stroke="#191970" points="1652.6397,-246.2162 1642.8557,-250.2812 1653.0392,-253.2047 1652.6397,-246.2162"/>
</g>
<!-- Node1 -->
<g id="node2" class="node">
<title>Node1</title>
<g id="a_node2"><a xlink:href="classAbstractCellBasedWriter.html" target="_top" xlink:title="{AbstractCellBasedWriter\l\&lt; ELEMENT_DIM, SPACE_DIM \&gt;\n|# mFileName\l# mpOutStream\l|+ AbstractCellBasedWriter()\l+ ~AbstractCellBasedWriter()\l+ CloseFile()\l+ OpenOutputFile()\l+ OpenOutputFileForAppend()\l+ WriteTimeStamp()\l+ WriteNewline()\l+ SetFileName()\l+ GetFileName()\l&#45; serialize()\l}">
<polygon fill="#ffffff" stroke="#000000" points="1471,-397.5 1471,-575.5 1641,-575.5 1641,-397.5 1471,-397.5"/>
<text text-anchor="start" x="1479" y="-563.5" font-family="Helvetica,sans-Serif" font-size="10.00" fill="#000000">AbstractCellBasedWriter</text>
<text text-anchor="middle" x="1556" y="-552.5" font-family="Helvetica,sans-Serif" font-size="10.00" fill="#000000">&lt; ELEMENT_DIM, SPACE_DIM &gt;</text>
<polyline fill="none" stroke="#000000" points="1471,-545.5 1641,-545.5 "/>
<text text-anchor="start" x="1479" y="-533.5" font-family="Helvetica,sans-Serif" font-size="10.00" fill="#000000"># mFileName</text>
<text text-anchor="start" x="1479" y="-522.5" font-family="Helvetica,sans-Serif" font-size="10.00" fill="#000000"># mpOutStream</text>
<polyline fill="none" stroke="#000000" points="1471,-515.5 1641,-515.5 "/>
<text text-anchor="start" x="1479" y="-503.5" font-family="Helvetica,sans-Serif" font-size="10.00" fill="#000000">+ AbstractCellBasedWriter()</text>
<text text-anchor="start" x="1479" y="-492.5" font-family="Helvetica,sans-Serif" font-size="10.00" fill="#000000">+ ~AbstractCellBasedWriter()</text>
<text text-anchor="start" x="1479" y="-481.5" font-family="Helvetica,sans-Serif" font-size="10.00" fill="#000000">+ CloseFile()</text>
<text text-anchor="start" x="1479" y="-470.5" font-family="Helvetica,sans-Serif" font-size="10.00" fill="#000000">+ OpenOutputFile()</text>
<text text-anchor="start" x="1479" y="-459.5" font-family="Helvetica,sans-Serif" font-size="10.00" fill="#000000">+ OpenOutputFileForAppend()</text>
<text text-anchor="start" x="1479" y="-448.5" font-family="Helvetica,sans-Serif" font-size="10.00" fill="#000000">+ WriteTimeStamp()</text>
<text text-anchor="start" x="1479" y="-437.5" font-family="Helvetica,sans-Serif" font-size="10.00" fill="#000000">+ WriteNewline()</text>
<text text-anchor="start" x="1479" y="-426.5" font-family="Helvetica,sans-Serif" font-size="10.00" fill="#000000">+ SetFileName()</text>
<text text-anchor="start" x="1479" y="-415.5" font-family="Helvetica,sans-Serif" font-size="10.00" fill="#000000">+ GetFileName()</text>
<text text-anchor="start" x="1479" y="-404.5" font-family="Helvetica,sans-Serif" font-size="10.00" fill="#000000">&#45; serialize()</text>
</a>
</g>
</g>
<!-- Node1&#45;&gt;Node0 -->
<g id="edge1" class="edge">
<title>Node1&#45;&gt;Node0</title>
<path fill="none" stroke="#191970" d="M1556,-387.1421C1556,-378.4057 1556,-369.5421 1556,-360.756"/>
<polygon fill="none" stroke="#191970" points="1552.5001,-387.3272 1556,-397.3272 1559.5001,-387.3272 1552.5001,-387.3272"/>
</g>
<!-- Node2 -->
<g id="node3" class="node">
<title>Node2</title>
<g id="a_node3"><a xlink:href="classIdentifiable.html" target="_top" xlink:title="{Identifiable\n||+ ~Identifiable()\l+ GetIdentifier()\l&#45; TidyTemplatedExportIdentifier()\l}">
<polygon fill="#ffffff" stroke="#000000" points="1476.5,-612.5 1476.5,-691.5 1635.5,-691.5 1635.5,-612.5 1476.5,-612.5"/>
<text text-anchor="middle" x="1556" y="-679.5" font-family="Helvetica,sans-Serif" font-size="10.00" fill="#000000">Identifiable</text>
<polyline fill="none" stroke="#000000" points="1476.5,-672.5 1635.5,-672.5 "/>
<text text-anchor="middle" x="1556" y="-660.5" font-family="Helvetica,sans-Serif" font-size="10.00" fill="#000000"> </text>
<polyline fill="none" stroke="#000000" points="1476.5,-653.5 1635.5,-653.5 "/>
<text text-anchor="start" x="1484.5" y="-641.5" font-family="Helvetica,sans-Serif" font-size="10.00" fill="#000000">+ ~Identifiable()</text>
<text text-anchor="start" x="1484.5" y="-630.5" font-family="Helvetica,sans-Serif" font-size="10.00" fill="#000000">+ GetIdentifier()</text>
<text text-anchor="start" x="1484.5" y="-619.5" font-family="Helvetica,sans-Serif" font-size="10.00" fill="#000000">&#45; TidyTemplatedExportIdentifier()</text>
</a>
</g>
</g>
<!-- Node2&#45;&gt;Node1 -->
<g id="edge2" class="edge">
<title>Node2&#45;&gt;Node1</title>
<path fill="none" stroke="#191970" d="M1556,-602.3206C1556,-593.841 1556,-584.8069 1556,-575.6678"/>
<polygon fill="none" stroke="#191970" points="1552.5001,-602.3586 1556,-612.3586 1559.5001,-602.3587 1552.5001,-602.3586"/>
</g>
</g>
</svg>
