<?xml version="1.0" encoding="UTF-8" standalone="no"?>
<!DOCTYPE svg PUBLIC "-//W3C//DTD SVG 1.1//EN"
 "http://www.w3.org/Graphics/SVG/1.1/DTD/svg11.dtd">
<!-- Generated by graphviz version 2.40.1 (20161225.0304)
 -->
<!-- Title: StressPerElementWriter&lt; DIM &gt; Pages: 1 -->
<svg width="498pt" height="601pt"
 viewBox="0.00 0.00 497.50 601.00" xmlns="http://www.w3.org/2000/svg" xmlns:xlink="http://www.w3.org/1999/xlink">
<g id="graph0" class="graph" transform="scale(1 1) rotate(0) translate(4 597)">
<title>StressPerElementWriter&lt; DIM &gt;</title>
<polygon fill="#ffffff" stroke="transparent" points="-4,4 -4,-597 493.5,-597 493.5,4 -4,4"/>
<!-- Node3 -->
<g id="node1" class="node">
<title>Node3</title>
<polygon fill="#bfbfbf" stroke="#000000" points="271,-.5 271,-79.5 408,-79.5 408,-.5 271,-.5"/>
<text text-anchor="start" x="279" y="-67.5" font-family="Helvetica,sans-Serif" font-size="10.00" fill="#000000">StressPerElementWriter</text>
<text text-anchor="middle" x="339.5" y="-56.5" font-family="Helvetica,sans-Serif" font-size="10.00" fill="#000000">&lt; DIM &gt;</text>
<polyline fill="none" stroke="#000000" points="271,-49.5 408,-49.5 "/>
<text text-anchor="middle" x="339.5" y="-37.5" font-family="Helvetica,sans-Serif" font-size="10.00" fill="#000000"> </text>
<polyline fill="none" stroke="#000000" points="271,-30.5 408,-30.5 "/>
<text text-anchor="start" x="279" y="-18.5" font-family="Helvetica,sans-Serif" font-size="10.00" fill="#000000">+ StressPerElementWriter()</text>
<text text-anchor="start" x="279" y="-7.5" font-family="Helvetica,sans-Serif" font-size="10.00" fill="#000000">+ Visit()</text>
</g>
<!-- Node4 -->
<g id="node2" class="node">
<title>Node4</title>
<g id="a_node2"><a xlink:href="classAbstractPerElementWriter.html" target="_top" xlink:title="{AbstractPerElementWriter\l\&lt; DIM, DIM, DIM *DIM \&gt;\n||+ AbstractPerElementWriter()\l+ WriteData()\l+ SetWriteFileAsBinary()\l+ ~AbstractPerElementWriter()\l# Visit()\l# WriteElementOnMaster()\l# WriteHeaderOnMaster()\l# PreWriteCalculations()\l}">
<polygon fill="#ffffff" stroke="#000000" points="182.5,-127.5 182.5,-272.5 334.5,-272.5 334.5,-127.5 182.5,-127.5"/>
<text text-anchor="start" x="190.5" y="-260.5" font-family="Helvetica,sans-Serif" font-size="10.00" fill="#000000">AbstractPerElementWriter</text>
<text text-anchor="middle" x="258.5" y="-249.5" font-family="Helvetica,sans-Serif" font-size="10.00" fill="#000000">&lt; DIM, DIM, DIM *DIM &gt;</text>
<polyline fill="none" stroke="#000000" points="182.5,-242.5 334.5,-242.5 "/>
<text text-anchor="middle" x="258.5" y="-230.5" font-family="Helvetica,sans-Serif" font-size="10.00" fill="#000000"> </text>
<polyline fill="none" stroke="#000000" points="182.5,-223.5 334.5,-223.5 "/>
<text text-anchor="start" x="190.5" y="-211.5" font-family="Helvetica,sans-Serif" font-size="10.00" fill="#000000">+ AbstractPerElementWriter()</text>
<text text-anchor="start" x="190.5" y="-200.5" font-family="Helvetica,sans-Serif" font-size="10.00" fill="#000000">+ WriteData()</text>
<text text-anchor="start" x="190.5" y="-189.5" font-family="Helvetica,sans-Serif" font-size="10.00" fill="#000000">+ SetWriteFileAsBinary()</text>
<text text-anchor="start" x="190.5" y="-178.5" font-family="Helvetica,sans-Serif" font-size="10.00" fill="#000000">+ ~AbstractPerElementWriter()</text>
<text text-anchor="start" x="190.5" y="-167.5" font-family="Helvetica,sans-Serif" font-size="10.00" fill="#000000"># Visit()</text>
<text text-anchor="start" x="190.5" y="-156.5" font-family="Helvetica,sans-Serif" font-size="10.00" fill="#000000"># WriteElementOnMaster()</text>
<text text-anchor="start" x="190.5" y="-145.5" font-family="Helvetica,sans-Serif" font-size="10.00" fill="#000000"># WriteHeaderOnMaster()</text>
<text text-anchor="start" x="190.5" y="-134.5" font-family="Helvetica,sans-Serif" font-size="10.00" fill="#000000"># PreWriteCalculations()</text>
</a>
</g>
</g>
<!-- Node4&#45;&gt;Node3 -->
<g id="edge1" class="edge">
<title>Node4&#45;&gt;Node3</title>
<path fill="none" stroke="#191970" d="M299.8833,-118.2551C306.6423,-104.9041 313.3685,-91.6178 319.3083,-79.8848"/>
<polygon fill="none" stroke="#191970" points="296.6022,-116.9875 295.2081,-127.4902 302.8475,-120.1492 296.6022,-116.9875"/>
</g>
<!-- Node5 -->
<g id="node3" class="node">
<title>Node5</title>
<polygon fill="#ffffff" stroke="#bfbfbf" points="0,-524.5 0,-592.5 177,-592.5 177,-524.5 0,-524.5"/>
<text text-anchor="start" x="8" y="-580.5" font-family="Helvetica,sans-Serif" font-size="10.00" fill="#000000">AbstractTetrahedralMesh</text>
<text text-anchor="middle" x="88.5" y="-569.5" font-family="Helvetica,sans-Serif" font-size="10.00" fill="#000000">&lt; ELEMENT_DIM, SPACE_DIM &gt; *</text>
<polyline fill="none" stroke="#bfbfbf" points="0,-562.5 177,-562.5 "/>
<text text-anchor="middle" x="88.5" y="-550.5" font-family="Helvetica,sans-Serif" font-size="10.00" fill="#000000"> </text>
<polyline fill="none" stroke="#bfbfbf" points="0,-543.5 177,-543.5 "/>
<text text-anchor="middle" x="88.5" y="-531.5" font-family="Helvetica,sans-Serif" font-size="10.00" fill="#000000"> </text>
</g>
<!-- Node5&#45;&gt;Node4 -->
<g id="edge2" class="edge">
<title>Node5&#45;&gt;Node4</title>
<path fill="none" stroke="#404040" d="M74.4161,-524.4281C56.6807,-475.7891 32.5977,-385.1384 68.5,-320 90.6199,-279.8673 132.4393,-251.3001 171.2247,-232.1341"/>
<polygon fill="none" stroke="#404040" points="171.229,-232.132 174.9282,-225.942 182.0648,-226.9758 178.3657,-233.1658 171.229,-232.132"/>
<text text-anchor="middle" x="91.5" y="-396" font-family="Helvetica,sans-Serif" font-size="10.00" fill="#000000"> #mpMesh</text>
</g>
<!-- Node8 -->
<g id="node6" class="node">
<title>Node8</title>
<g id="a_node6"><a xlink:href="classAbstractPerElementWriter.html" target="_top" xlink:title="{AbstractPerElementWriter\l\&lt; ELEMENT_DIM, SPACE_DIM,\l DATA_SIZE \&gt;\n||+ AbstractPerElementWriter()\l+ WriteData()\l+ SetWriteFileAsBinary()\l+ ~AbstractPerElementWriter()\l# Visit()\l# WriteElementOnMaster()\l# WriteHeaderOnMaster()\l# PreWriteCalculations()\l}">
<polygon fill="#ffffff" stroke="#000000" points="123.5,-320.5 123.5,-476.5 287.5,-476.5 287.5,-320.5 123.5,-320.5"/>
<text text-anchor="start" x="131.5" y="-464.5" font-family="Helvetica,sans-Serif" font-size="10.00" fill="#000000">AbstractPerElementWriter</text>
<text text-anchor="start" x="131.5" y="-453.5" font-family="Helvetica,sans-Serif" font-size="10.00" fill="#000000">&lt; ELEMENT_DIM, SPACE_DIM,</text>
<text text-anchor="middle" x="205.5" y="-442.5" font-family="Helvetica,sans-Serif" font-size="10.00" fill="#000000"> DATA_SIZE &gt;</text>
<polyline fill="none" stroke="#000000" points="123.5,-435.5 287.5,-435.5 "/>
<text text-anchor="middle" x="205.5" y="-423.5" font-family="Helvetica,sans-Serif" font-size="10.00" fill="#000000"> </text>
<polyline fill="none" stroke="#000000" points="123.5,-416.5 287.5,-416.5 "/>
<text text-anchor="start" x="131.5" y="-404.5" font-family="Helvetica,sans-Serif" font-size="10.00" fill="#000000">+ AbstractPerElementWriter()</text>
<text text-anchor="start" x="131.5" y="-393.5" font-family="Helvetica,sans-Serif" font-size="10.00" fill="#000000">+ WriteData()</text>
<text text-anchor="start" x="131.5" y="-382.5" font-family="Helvetica,sans-Serif" font-size="10.00" fill="#000000">+ SetWriteFileAsBinary()</text>
<text text-anchor="start" x="131.5" y="-371.5" font-family="Helvetica,sans-Serif" font-size="10.00" fill="#000000">+ ~AbstractPerElementWriter()</text>
<text text-anchor="start" x="131.5" y="-360.5" font-family="Helvetica,sans-Serif" font-size="10.00" fill="#000000"># Visit()</text>
<text text-anchor="start" x="131.5" y="-349.5" font-family="Helvetica,sans-Serif" font-size="10.00" fill="#000000"># WriteElementOnMaster()</text>
<text text-anchor="start" x="131.5" y="-338.5" font-family="Helvetica,sans-Serif" font-size="10.00" fill="#000000"># WriteHeaderOnMaster()</text>
<text text-anchor="start" x="131.5" y="-327.5" font-family="Helvetica,sans-Serif" font-size="10.00" fill="#000000"># PreWriteCalculations()</text>
</a>
</g>
</g>
<!-- Node5&#45;&gt;Node8 -->
<g id="edge6" class="edge">
<title>Node5&#45;&gt;Node8</title>
<path fill="none" stroke="#404040" d="M113.5994,-524.176C121.8122,-512.9449 131.3457,-499.9076 141.1002,-486.5681"/>
<polygon fill="none" stroke="#404040" points="141.1431,-486.5094 141.4559,-479.305 148.2264,-476.8229 147.9136,-484.0272 141.1431,-486.5094"/>
<text text-anchor="middle" x="156.5" y="-498" font-family="Helvetica,sans-Serif" font-size="10.00" fill="#000000"> #mpMesh</text>
</g>
<!-- Node6 -->
<g id="node4" class="node">
<title>Node6</title>
<g id="a_node4"><a xlink:href="classbool.html" target="_top" xlink:title="{bool\n||}">
<polygon fill="#ffffff" stroke="#000000" points="364,-530 364,-587 399,-587 399,-530 364,-530"/>
<text text-anchor="middle" x="381.5" y="-575" font-family="Helvetica,sans-Serif" font-size="10.00" fill="#000000">bool</text>
<polyline fill="none" stroke="#000000" points="364,-568 399,-568 "/>
<text text-anchor="middle" x="381.5" y="-556" font-family="Helvetica,sans-Serif" font-size="10.00" fill="#000000"> </text>
<polyline fill="none" stroke="#000000" points="364,-549 399,-549 "/>
<text text-anchor="middle" x="381.5" y="-537" font-family="Helvetica,sans-Serif" font-size="10.00" fill="#000000"> </text>
</a>
</g>
</g>
<!-- Node6&#45;&gt;Node4 -->
<g id="edge3" class="edge">
<title>Node6&#45;&gt;Node4</title>
<path fill="none" stroke="#404040" d="M395.8467,-529.9948C399.0022,-522.3873 401.8832,-514.0416 403.5,-506 419.7954,-424.9505 437.5042,-394.4195 401.5,-320 388.4614,-293.0496 372.4721,-293.7741 344.4135,-273.2411"/>
<polygon fill="none" stroke="#404040" points="344.3156,-273.1644 337.1254,-272.6142 334.8679,-265.7655 342.058,-266.3158 344.3156,-273.1644"/>
<text text-anchor="middle" x="456" y="-396" font-family="Helvetica,sans-Serif" font-size="10.00" fill="#000000"> &#45;mFileIsBinary</text>
</g>
<!-- Node6&#45;&gt;Node8 -->
<g id="edge7" class="edge">
<title>Node6&#45;&gt;Node8</title>
<path fill="none" stroke="#404040" d="M363.8809,-538.038C359.6111,-533.3212 354.9823,-528.3998 350.5,-524 333.7068,-507.516 315.1337,-490.5677 297.0435,-474.6681"/>
<polygon fill="none" stroke="#404040" points="296.6789,-474.3497 289.5284,-473.4165 287.6395,-466.4571 294.79,-467.3903 296.6789,-474.3497"/>
<text text-anchor="middle" x="366" y="-498" font-family="Helvetica,sans-Serif" font-size="10.00" fill="#000000"> &#45;mFileIsBinary</text>
</g>
<!-- Node7 -->
<g id="node5" class="node">
<title>Node7</title>
<polygon fill="#ffffff" stroke="#bfbfbf" points="203.5,-530 203.5,-587 341.5,-587 341.5,-530 203.5,-530"/>
<text text-anchor="middle" x="272.5" y="-575" font-family="Helvetica,sans-Serif" font-size="10.00" fill="#000000">shared_ptr&lt; std::ofstream &gt;</text>
<polyline fill="none" stroke="#bfbfbf" points="203.5,-568 341.5,-568 "/>
<text text-anchor="middle" x="272.5" y="-556" font-family="Helvetica,sans-Serif" font-size="10.00" fill="#000000"> </text>
<polyline fill="none" stroke="#bfbfbf" points="203.5,-549 341.5,-549 "/>
<text text-anchor="middle" x="272.5" y="-537" font-family="Helvetica,sans-Serif" font-size="10.00" fill="#000000"> </text>
</g>
<!-- Node7&#45;&gt;Node4 -->
<g id="edge4" class="edge">
<title>Node7&#45;&gt;Node4</title>
<path fill="none" stroke="#404040" d="M297.2868,-529.9559C302.2958,-522.6115 306.8383,-514.3973 309.5,-506 338.373,-414.911 333.6415,-383.4557 309.5,-291 308.8995,-288.7001 308.2264,-286.3968 307.49,-284.0966"/>
<polygon fill="none" stroke="#404040" points="307.4277,-283.9253 301.6156,-279.6568 303.3204,-272.6501 309.1324,-276.9186 307.4277,-283.9253"/>
<text text-anchor="middle" x="363.5" y="-396" font-family="Helvetica,sans-Serif" font-size="10.00" fill="#000000"> #mpMasterFile</text>
</g>
<!-- Node7&#45;&gt;Node8 -->
<g id="edge8" class="edge">
<title>Node7&#45;&gt;Node8</title>
<path fill="none" stroke="#404040" d="M254.1616,-529.927C249.6899,-522.3204 245.1486,-513.9921 241.5,-506 238.9099,-500.3266 236.4095,-494.4106 234.0162,-488.399"/>
<polygon fill="none" stroke="#404040" points="233.8489,-487.963 227.965,-483.794 229.5503,-476.7593 235.4342,-480.9282 233.8489,-487.963"/>
<text text-anchor="middle" x="275.5" y="-498" font-family="Helvetica,sans-Serif" font-size="10.00" fill="#000000"> #mpMasterFile</text>
</g>
<!-- Node8&#45;&gt;Node4 -->
<g id="edge5" class="edge">
<title>Node8&#45;&gt;Node4</title>
<path fill="none" stroke="#ffa500" d="M190.6817,-309.9761C191.3475,-303.4904 192.5685,-297.1038 194.5,-291 196.4521,-284.8311 198.9892,-278.7184 201.9248,-272.7529"/>
<polygon fill="#ffa500" stroke="#ffa500" points="187.1722,-310.0323 190.0704,-320.223 194.1598,-310.4493 187.1722,-310.0323"/>
<text text-anchor="middle" x="252" y="-294" font-family="Helvetica,sans-Serif" font-size="10.00" fill="#000000"> &lt; DIM, DIM, DIM *DIM &gt;</text>
</g>
<!-- Node9 -->
<g id="node7" class="node">
<title>Node9</title>
<polygon fill="#ffffff" stroke="#bfbfbf" points="353,-166 353,-234 488,-234 488,-166 353,-166"/>
<text text-anchor="start" x="361" y="-222" font-family="Helvetica,sans-Serif" font-size="10.00" fill="#000000">AbstractNonlinearElasticity</text>
<text text-anchor="middle" x="420.5" y="-211" font-family="Helvetica,sans-Serif" font-size="10.00" fill="#000000">Solver&lt; DIM &gt; *</text>
<polyline fill="none" stroke="#bfbfbf" points="353,-204 488,-204 "/>
<text text-anchor="middle" x="420.5" y="-192" font-family="Helvetica,sans-Serif" font-size="10.00" fill="#000000"> </text>
<polyline fill="none" stroke="#bfbfbf" points="353,-185 488,-185 "/>
<text text-anchor="middle" x="420.5" y="-173" font-family="Helvetica,sans-Serif" font-size="10.00" fill="#000000"> </text>
</g>
<!-- Node9&#45;&gt;Node3 -->
<g id="edge9" class="edge">
<title>Node9&#45;&gt;Node3</title>
<path fill="none" stroke="#404040" d="M403.1235,-165.676C392.0378,-143.7784 377.4761,-115.0146 365.0815,-90.5314"/>
<polygon fill="none" stroke="#404040" points="364.9795,-90.3298 358.7007,-86.7834 359.5595,-79.6236 365.8382,-83.17 364.9795,-90.3298"/>
<text text-anchor="middle" x="397.5" y="-101" font-family="Helvetica,sans-Serif" font-size="10.00" fill="#000000"> &#45;mpSolver</text>
</g>
</g>
</svg>
