<?xml version="1.0" encoding="UTF-8" standalone="no"?>
<!DOCTYPE svg PUBLIC "-//W3C//DTD SVG 1.1//EN"
 "http://www.w3.org/Graphics/SVG/1.1/DTD/svg11.dtd">
<!-- Generated by graphviz version 2.40.1 (20161225.0304)
 -->
<!-- Title: NumericFileComparison Pages: 1 -->
<svg width="344pt" height="365pt"
 viewBox="0.00 0.00 343.50 365.00" xmlns="http://www.w3.org/2000/svg" xmlns:xlink="http://www.w3.org/1999/xlink">
<g id="graph0" class="graph" transform="scale(1 1) rotate(0) translate(4 361)">
<title>NumericFileComparison</title>
<polygon fill="#ffffff" stroke="transparent" points="-4,4 -4,-361 339.5,-361 339.5,4 -4,4"/>
<!-- Node2 -->
<g id="node1" class="node">
<title>Node2</title>
<polygon fill="#bfbfbf" stroke="#000000" points="86,-.5 86,-90.5 223,-90.5 223,-.5 86,-.5"/>
<text text-anchor="middle" x="154.5" y="-78.5" font-family="Helvetica,sans-Serif" font-size="10.00" fill="#000000">NumericFileComparison</text>
<polyline fill="none" stroke="#000000" points="86,-71.5 223,-71.5 "/>
<text text-anchor="middle" x="154.5" y="-59.5" font-family="Helvetica,sans-Serif" font-size="10.00" fill="#000000"> </text>
<polyline fill="none" stroke="#000000" points="86,-52.5 223,-52.5 "/>
<text text-anchor="start" x="94" y="-40.5" font-family="Helvetica,sans-Serif" font-size="10.00" fill="#000000">+ NumericFileComparison()</text>
<text text-anchor="start" x="94" y="-29.5" font-family="Helvetica,sans-Serif" font-size="10.00" fill="#000000">+ NumericFileComparison()</text>
<text text-anchor="start" x="94" y="-18.5" font-family="Helvetica,sans-Serif" font-size="10.00" fill="#000000">+ CompareFiles()</text>
<text text-anchor="start" x="94" y="-7.5" font-family="Helvetica,sans-Serif" font-size="10.00" fill="#000000">&#45; ReadNextToken()</text>
</g>
<!-- Node3 -->
<g id="node2" class="node">
<title>Node3</title>
<g id="a_node2"><a xlink:href="classAbstractFileComparison.html" target="_top" xlink:title="{AbstractFileComparison\n||+ AbstractFileComparison()\l+ AbstractFileComparison()\l+ ~AbstractFileComparison()\l# ResetFiles()\l# SkipHeaderLines()\l&#45; Setup()\l}">
<polygon fill="#ffffff" stroke="#000000" points="83,-128.5 83,-240.5 226,-240.5 226,-128.5 83,-128.5"/>
<text text-anchor="middle" x="154.5" y="-228.5" font-family="Helvetica,sans-Serif" font-size="10.00" fill="#000000">AbstractFileComparison</text>
<polyline fill="none" stroke="#000000" points="83,-221.5 226,-221.5 "/>
<text text-anchor="middle" x="154.5" y="-209.5" font-family="Helvetica,sans-Serif" font-size="10.00" fill="#000000"> </text>
<polyline fill="none" stroke="#000000" points="83,-202.5 226,-202.5 "/>
<text text-anchor="start" x="91" y="-190.5" font-family="Helvetica,sans-Serif" font-size="10.00" fill="#000000">+ AbstractFileComparison()</text>
<text text-anchor="start" x="91" y="-179.5" font-family="Helvetica,sans-Serif" font-size="10.00" fill="#000000">+ AbstractFileComparison()</text>
<text text-anchor="start" x="91" y="-168.5" font-family="Helvetica,sans-Serif" font-size="10.00" fill="#000000">+ ~AbstractFileComparison()</text>
<text text-anchor="start" x="91" y="-157.5" font-family="Helvetica,sans-Serif" font-size="10.00" fill="#000000"># ResetFiles()</text>
<text text-anchor="start" x="91" y="-146.5" font-family="Helvetica,sans-Serif" font-size="10.00" fill="#000000"># SkipHeaderLines()</text>
<text text-anchor="start" x="91" y="-135.5" font-family="Helvetica,sans-Serif" font-size="10.00" fill="#000000">&#45; Setup()</text>
</a>
</g>
</g>
<!-- Node3&#45;&gt;Node2 -->
<g id="edge1" class="edge">
<title>Node3&#45;&gt;Node2</title>
<path fill="none" stroke="#191970" d="M154.5,-118.302C154.5,-108.9709 154.5,-99.5602 154.5,-90.7449"/>
<polygon fill="none" stroke="#191970" points="151.0001,-118.364 154.5,-128.364 158.0001,-118.3641 151.0001,-118.364"/>
</g>
<!-- Node4 -->
<g id="node3" class="node">
<title>Node4</title>
<polygon fill="#ffffff" stroke="#bfbfbf" points="0,-299.5 0,-356.5 59,-356.5 59,-299.5 0,-299.5"/>
<text text-anchor="middle" x="29.5" y="-344.5" font-family="Helvetica,sans-Serif" font-size="10.00" fill="#000000">ifstream *</text>
<polyline fill="none" stroke="#bfbfbf" points="0,-337.5 59,-337.5 "/>
<text text-anchor="middle" x="29.5" y="-325.5" font-family="Helvetica,sans-Serif" font-size="10.00" fill="#000000"> </text>
<polyline fill="none" stroke="#bfbfbf" points="0,-318.5 59,-318.5 "/>
<text text-anchor="middle" x="29.5" y="-306.5" font-family="Helvetica,sans-Serif" font-size="10.00" fill="#000000"> </text>
</g>
<!-- Node4&#45;&gt;Node3 -->
<g id="edge2" class="edge">
<title>Node4&#45;&gt;Node3</title>
<path fill="none" stroke="#404040" d="M31.4,-299.2289C33.4112,-286.048 37.451,-270.7767 45.5,-259 52.9764,-248.0612 62.6339,-238.2639 73.1062,-229.6504"/>
<polygon fill="none" stroke="#404040" points="73.4172,-229.4102 75.7201,-222.5766 82.9137,-222.074 80.6108,-228.9076 73.4172,-229.4102"/>
<text text-anchor="middle" x="67" y="-273" font-family="Helvetica,sans-Serif" font-size="10.00" fill="#000000"> #mpFile1</text>
<text text-anchor="middle" x="67" y="-262" font-family="Helvetica,sans-Serif" font-size="10.00" fill="#000000">#mpFile2</text>
</g>
<!-- Node5 -->
<g id="node4" class="node">
<title>Node5</title>
<g id="a_node4"><a xlink:href="classbool.html" target="_top" xlink:title="{bool\n||}">
<polygon fill="#ffffff" stroke="#000000" points="78,-299.5 78,-356.5 113,-356.5 113,-299.5 78,-299.5"/>
<text text-anchor="middle" x="95.5" y="-344.5" font-family="Helvetica,sans-Serif" font-size="10.00" fill="#000000">bool</text>
<polyline fill="none" stroke="#000000" points="78,-337.5 113,-337.5 "/>
<text text-anchor="middle" x="95.5" y="-325.5" font-family="Helvetica,sans-Serif" font-size="10.00" fill="#000000"> </text>
<polyline fill="none" stroke="#000000" points="78,-318.5 113,-318.5 "/>
<text text-anchor="middle" x="95.5" y="-306.5" font-family="Helvetica,sans-Serif" font-size="10.00" fill="#000000"> </text>
</a>
</g>
</g>
<!-- Node5&#45;&gt;Node3 -->
<g id="edge3" class="edge">
<title>Node5&#45;&gt;Node3</title>
<path fill="none" stroke="#404040" d="M91.8853,-299.4188C91.2899,-286.7125 92.0108,-271.7719 96.5,-259 97.3493,-256.5837 98.311,-254.1849 99.3682,-251.8103"/>
<polygon fill="none" stroke="#404040" points="99.4838,-251.5842 98.6553,-244.4208 104.949,-240.9009 105.7775,-248.0643 99.4838,-251.5842"/>
<text text-anchor="middle" x="144.5" y="-273" font-family="Helvetica,sans-Serif" font-size="10.00" fill="#000000"> #mCalledCollectively</text>
<text text-anchor="middle" x="144.5" y="-262" font-family="Helvetica,sans-Serif" font-size="10.00" fill="#000000">#mSuppressOutput</text>
</g>
<!-- Node6 -->
<g id="node5" class="node">
<title>Node6</title>
<polygon fill="#ffffff" stroke="#bfbfbf" points="194,-299.5 194,-356.5 235,-356.5 235,-299.5 194,-299.5"/>
<text text-anchor="middle" x="214.5" y="-344.5" font-family="Helvetica,sans-Serif" font-size="10.00" fill="#000000">string</text>
<polyline fill="none" stroke="#bfbfbf" points="194,-337.5 235,-337.5 "/>
<text text-anchor="middle" x="214.5" y="-325.5" font-family="Helvetica,sans-Serif" font-size="10.00" fill="#000000"> </text>
<polyline fill="none" stroke="#bfbfbf" points="194,-318.5 235,-318.5 "/>
<text text-anchor="middle" x="214.5" y="-306.5" font-family="Helvetica,sans-Serif" font-size="10.00" fill="#000000"> </text>
</g>
<!-- Node6&#45;&gt;Node3 -->
<g id="edge4" class="edge">
<title>Node6&#45;&gt;Node3</title>
<path fill="none" stroke="#404040" d="M206.5322,-299.4274C202.7364,-286.8588 197.8559,-272.0238 192.5,-259 191.4905,-256.5452 190.4313,-254.061 189.3348,-251.5642"/>
<polygon fill="none" stroke="#404040" points="189.3079,-251.5052 183.1779,-247.7074 184.3258,-240.5883 190.4559,-244.386 189.3079,-251.5052"/>
<text text-anchor="middle" x="230.5" y="-273" font-family="Helvetica,sans-Serif" font-size="10.00" fill="#000000"> #mFilename1</text>
<text text-anchor="middle" x="230.5" y="-262" font-family="Helvetica,sans-Serif" font-size="10.00" fill="#000000">#mFilename2</text>
</g>
<!-- Node7 -->
<g id="node6" class="node">
<title>Node7</title>
<g id="a_node6"><a xlink:href="classunsigned.html" target="_top" xlink:title="{unsigned\n||}">
<polygon fill="#ffffff" stroke="#000000" points="271.5,-299.5 271.5,-356.5 327.5,-356.5 327.5,-299.5 271.5,-299.5"/>
<text text-anchor="middle" x="299.5" y="-344.5" font-family="Helvetica,sans-Serif" font-size="10.00" fill="#000000">unsigned</text>
<polyline fill="none" stroke="#000000" points="271.5,-337.5 327.5,-337.5 "/>
<text text-anchor="middle" x="299.5" y="-325.5" font-family="Helvetica,sans-Serif" font-size="10.00" fill="#000000"> </text>
<polyline fill="none" stroke="#000000" points="271.5,-318.5 327.5,-318.5 "/>
<text text-anchor="middle" x="299.5" y="-306.5" font-family="Helvetica,sans-Serif" font-size="10.00" fill="#000000"> </text>
</a>
</g>
</g>
<!-- Node7&#45;&gt;Node3 -->
<g id="edge5" class="edge">
<title>Node7&#45;&gt;Node3</title>
<path fill="none" stroke="#404040" d="M289.4133,-299.4644C283.7741,-286.1827 275.7881,-270.7596 265.5,-259 256.9003,-249.1704 246.7179,-240.0624 236.064,-231.8337"/>
<polygon fill="none" stroke="#404040" points="235.8298,-231.6606 228.6271,-231.3114 226.1792,-224.5285 233.3819,-224.8777 235.8298,-231.6606"/>
<text text-anchor="middle" x="307.5" y="-267.5" font-family="Helvetica,sans-Serif" font-size="10.00" fill="#000000"> #mLineNum</text>
</g>
</g>
</svg>
