<?xml version="1.0" encoding="UTF-8" standalone="no"?>
<!DOCTYPE svg PUBLIC "-//W3C//DTD SVG 1.1//EN"
 "http://www.w3.org/Graphics/SVG/1.1/DTD/svg11.dtd">
<!-- Generated by graphviz version 2.40.1 (20161225.0304)
 -->
<!-- Title: Graphical Class Hierarchy Pages: 1 -->
<svg width="322pt" height="137pt"
 viewBox="0.00 0.00 322.00 137.00" xmlns="http://www.w3.org/2000/svg" xmlns:xlink="http://www.w3.org/1999/xlink">
<g id="graph0" class="graph" transform="scale(1 1) rotate(0) translate(4 133)">
<title>Graphical Class Hierarchy</title>
<polygon fill="#ffffff" stroke="transparent" points="-4,4 -4,-133 318,-133 318,4 -4,4"/>
<!-- Node0 -->
<g id="node1" class="node">
<title>Node0</title>
<g id="a_node1"><a xlink:href="classAbstractCardiacCellFactory.html" target="_top" xlink:title="AbstractCardiacCellFactory\l\&lt; DIM \&gt;">
<polygon fill="#ffffff" stroke="#000000" points="0,-49.5 0,-79.5 137,-79.5 137,-49.5 0,-49.5"/>
<text text-anchor="start" x="8" y="-67.5" font-family="Helvetica,sans-Serif" font-size="10.00" fill="#000000">AbstractCardiacCellFactory</text>
<text text-anchor="middle" x="68.5" y="-56.5" font-family="Helvetica,sans-Serif" font-size="10.00" fill="#000000">&lt; DIM &gt;</text>
</a>
</g>
</g>
<!-- Node1 -->
<g id="node2" class="node">
<title>Node1</title>
<g id="a_node2"><a xlink:href="classBathCellFactory.html" target="_top" xlink:title="BathCellFactory\&lt; DIM,\l CELLTYPE \&gt;">
<polygon fill="#ffffff" stroke="#000000" points="184.5,-98.5 184.5,-128.5 302.5,-128.5 302.5,-98.5 184.5,-98.5"/>
<text text-anchor="start" x="192.5" y="-116.5" font-family="Helvetica,sans-Serif" font-size="10.00" fill="#000000">BathCellFactory&lt; DIM,</text>
<text text-anchor="middle" x="243.5" y="-105.5" font-family="Helvetica,sans-Serif" font-size="10.00" fill="#000000"> CELLTYPE &gt;</text>
</a>
</g>
</g>
<!-- Node0&#45;&gt;Node1 -->
<g id="edge1" class="edge">
<title>Node0&#45;&gt;Node1</title>
<path fill="none" stroke="#191970" d="M132.1473,-82.3212C151.042,-87.6118 171.5434,-93.3522 189.7444,-98.4484"/>
<polygon fill="#191970" stroke="#191970" points="133.0071,-78.9274 122.4337,-79.6014 131.1196,-85.6682 133.0071,-78.9274"/>
</g>
<!-- Node2 -->
<g id="node3" class="node">
<title>Node2</title>
<g id="a_node3"><a xlink:href="classRampedQuarterStimulusCellFactory.html" target="_top" xlink:title="RampedQuarterStimulusCell\lFactory\&lt; CELL, DIM \&gt;">
<polygon fill="#ffffff" stroke="#000000" points="173,-49.5 173,-79.5 314,-79.5 314,-49.5 173,-49.5"/>
<text text-anchor="start" x="181" y="-67.5" font-family="Helvetica,sans-Serif" font-size="10.00" fill="#000000">RampedQuarterStimulusCell</text>
<text text-anchor="middle" x="243.5" y="-56.5" font-family="Helvetica,sans-Serif" font-size="10.00" fill="#000000">Factory&lt; CELL, DIM &gt;</text>
</a>
</g>
</g>
<!-- Node0&#45;&gt;Node2 -->
<g id="edge2" class="edge">
<title>Node0&#45;&gt;Node2</title>
<path fill="none" stroke="#191970" d="M147.3895,-64.5C155.8355,-64.5 164.3895,-64.5 172.7327,-64.5"/>
<polygon fill="#191970" stroke="#191970" points="147.1624,-61.0001 137.1624,-64.5 147.1623,-68.0001 147.1624,-61.0001"/>
</g>
<!-- Node3 -->
<g id="node4" class="node">
<title>Node3</title>
<g id="a_node4"><a xlink:href="classZeroStimulusCellFactory.html" target="_top" xlink:title="ZeroStimulusCellFactory\l\&lt; CELL, DIM \&gt;">
<polygon fill="#ffffff" stroke="#000000" points="181,-.5 181,-30.5 306,-30.5 306,-.5 181,-.5"/>
<text text-anchor="start" x="189" y="-18.5" font-family="Helvetica,sans-Serif" font-size="10.00" fill="#000000">ZeroStimulusCellFactory</text>
<text text-anchor="middle" x="243.5" y="-7.5" font-family="Helvetica,sans-Serif" font-size="10.00" fill="#000000">&lt; CELL, DIM &gt;</text>
</a>
</g>
</g>
<!-- Node0&#45;&gt;Node3 -->
<g id="edge3" class="edge">
<title>Node0&#45;&gt;Node3</title>
<path fill="none" stroke="#191970" d="M132.1473,-46.6788C151.042,-41.3882 171.5434,-35.6478 189.7444,-30.5516"/>
<polygon fill="#191970" stroke="#191970" points="131.1196,-43.3318 122.4337,-49.3986 133.0071,-50.0726 131.1196,-43.3318"/>
</g>
</g>
</svg>
