<?xml version="1.0" encoding="UTF-8" standalone="no"?>
<!DOCTYPE svg PUBLIC "-//W3C//DTD SVG 1.1//EN"
 "http://www.w3.org/Graphics/SVG/1.1/DTD/svg11.dtd">
<!-- Generated by graphviz version 2.40.1 (20161225.0304)
 -->
<!-- Title: Graphical Class Hierarchy Pages: 1 -->
<svg width="534pt" height="110pt"
 viewBox="0.00 0.00 534.00 110.00" xmlns="http://www.w3.org/2000/svg" xmlns:xlink="http://www.w3.org/1999/xlink">
<g id="graph0" class="graph" transform="scale(1 1) rotate(0) translate(4 106)">
<title>Graphical Class Hierarchy</title>
<polygon fill="#ffffff" stroke="transparent" points="-4,4 -4,-106 530,-106 530,4 -4,4"/>
<!-- Node769 -->
<g id="node1" class="node">
<title>Node769</title>
<g id="a_node1"><a xlink:href="classAbstractCardiacMechanicsSolverInterface.html" target="_top" xlink:title="AbstractCardiacMechanics\lSolverInterface\&lt; DIM \&gt;">
<polygon fill="#ffffff" stroke="#000000" points="0,-58 0,-88 134,-88 134,-58 0,-58"/>
<text text-anchor="start" x="8" y="-76" font-family="Helvetica,sans-Serif" font-size="10.00" fill="#000000">AbstractCardiacMechanics</text>
<text text-anchor="middle" x="67" y="-65" font-family="Helvetica,sans-Serif" font-size="10.00" fill="#000000">SolverInterface&lt; DIM &gt;</text>
</a>
</g>
</g>
<!-- Node1 -->
<g id="node2" class="node">
<title>Node1</title>
<g id="a_node2"><a xlink:href="classAbstractCardiacMechanicsSolver.html" target="_top" xlink:title="AbstractCardiacMechanics\lSolver\&lt; ELASTICITY_SOLVER,\l DIM \&gt;">
<polygon fill="#ffffff" stroke="#000000" points="170,-30.5 170,-71.5 330,-71.5 330,-30.5 170,-30.5"/>
<text text-anchor="start" x="178" y="-59.5" font-family="Helvetica,sans-Serif" font-size="10.00" fill="#000000">AbstractCardiacMechanics</text>
<text text-anchor="start" x="178" y="-48.5" font-family="Helvetica,sans-Serif" font-size="10.00" fill="#000000">Solver&lt; ELASTICITY_SOLVER,</text>
<text text-anchor="middle" x="250" y="-37.5" font-family="Helvetica,sans-Serif" font-size="10.00" fill="#000000"> DIM &gt;</text>
</a>
</g>
</g>
<!-- Node769&#45;&gt;Node1 -->
<g id="edge1" class="edge">
<title>Node769&#45;&gt;Node1</title>
<path fill="none" stroke="#191970" d="M144.3099,-63.7059C152.7612,-62.6899 161.378,-61.654 169.8625,-60.634"/>
<polygon fill="#191970" stroke="#191970" points="143.614,-60.2643 134.1033,-64.9329 144.4496,-67.2142 143.614,-60.2643"/>
</g>
<!-- Node2 -->
<g id="node3" class="node">
<title>Node2</title>
<g id="a_node3"><a xlink:href="classExplicitCardiacMechanicsSolver.html" target="_top" xlink:title="ExplicitCardiacMechanics\lSolver\&lt; ELASTICITY_SOLVER,\l DIM \&gt;">
<polygon fill="#ffffff" stroke="#000000" points="366,-60.5 366,-101.5 526,-101.5 526,-60.5 366,-60.5"/>
<text text-anchor="start" x="374" y="-89.5" font-family="Helvetica,sans-Serif" font-size="10.00" fill="#000000">ExplicitCardiacMechanics</text>
<text text-anchor="start" x="374" y="-78.5" font-family="Helvetica,sans-Serif" font-size="10.00" fill="#000000">Solver&lt; ELASTICITY_SOLVER,</text>
<text text-anchor="middle" x="446" y="-67.5" font-family="Helvetica,sans-Serif" font-size="10.00" fill="#000000"> DIM &gt;</text>
</a>
</g>
</g>
<!-- Node1&#45;&gt;Node2 -->
<g id="edge2" class="edge">
<title>Node1&#45;&gt;Node2</title>
<path fill="none" stroke="#191970" d="M340.0766,-64.7872C348.7035,-66.1077 357.4128,-67.4407 365.9347,-68.7451"/>
<polygon fill="#191970" stroke="#191970" points="340.4179,-61.2988 330.0034,-63.2454 339.3587,-68.2182 340.4179,-61.2988"/>
</g>
<!-- Node3 -->
<g id="node4" class="node">
<title>Node3</title>
<g id="a_node4"><a xlink:href="classImplicitCardiacMechanicsSolver.html" target="_top" xlink:title="ImplicitCardiacMechanics\lSolver\&lt; ELASTICITY_SOLVER,\l DIM \&gt;">
<polygon fill="#ffffff" stroke="#000000" points="366,-.5 366,-41.5 526,-41.5 526,-.5 366,-.5"/>
<text text-anchor="start" x="374" y="-29.5" font-family="Helvetica,sans-Serif" font-size="10.00" fill="#000000">ImplicitCardiacMechanics</text>
<text text-anchor="start" x="374" y="-18.5" font-family="Helvetica,sans-Serif" font-size="10.00" fill="#000000">Solver&lt; ELASTICITY_SOLVER,</text>
<text text-anchor="middle" x="446" y="-7.5" font-family="Helvetica,sans-Serif" font-size="10.00" fill="#000000"> DIM &gt;</text>
</a>
</g>
</g>
<!-- Node1&#45;&gt;Node3 -->
<g id="edge3" class="edge">
<title>Node1&#45;&gt;Node3</title>
<path fill="none" stroke="#191970" d="M340.0766,-37.2128C348.7035,-35.8923 357.4128,-34.5593 365.9347,-33.2549"/>
<polygon fill="#191970" stroke="#191970" points="339.3587,-33.7818 330.0034,-38.7546 340.4179,-40.7012 339.3587,-33.7818"/>
</g>
<!-- Node0 -->
<g id="node5" class="node">
<title>Node0</title>
<g id="a_node5"><a xlink:href="classELASTICITY__SOLVER.html" target="_top" xlink:title="ELASTICITY_SOLVER">
<polygon fill="#ffffff" stroke="#000000" points="7,-19.5 7,-38.5 127,-38.5 127,-19.5 7,-19.5"/>
<text text-anchor="middle" x="67" y="-26.5" font-family="Helvetica,sans-Serif" font-size="10.00" fill="#000000">ELASTICITY_SOLVER</text>
</a>
</g>
</g>
<!-- Node0&#45;&gt;Node1 -->
<g id="edge4" class="edge">
<title>Node0&#45;&gt;Node1</title>
<path fill="none" stroke="#191970" d="M137.2555,-37.446C147.9216,-38.7283 158.9954,-40.0596 169.8526,-41.3648"/>
<polygon fill="#191970" stroke="#191970" points="137.5208,-33.9528 127.1745,-36.2341 136.6852,-40.9028 137.5208,-33.9528"/>
</g>
</g>
</svg>
