<?xml version="1.0" encoding="UTF-8" standalone="no"?>
<!DOCTYPE svg PUBLIC "-//W3C//DTD SVG 1.1//EN"
 "http://www.w3.org/Graphics/SVG/1.1/DTD/svg11.dtd">
<!-- Generated by graphviz version 2.40.1 (20161225.0304)
 -->
<!-- Title: Graphical Class Hierarchy Pages: 1 -->
<svg width="1144pt" height="993pt"
 viewBox="0.00 0.00 1144.00 992.50" xmlns="http://www.w3.org/2000/svg" xmlns:xlink="http://www.w3.org/1999/xlink">
<g id="graph0" class="graph" transform="scale(1 1) rotate(0) translate(4 988.5)">
<title>Graphical Class Hierarchy</title>
<polygon fill="#ffffff" stroke="transparent" points="-4,4 -4,-988.5 1140,-988.5 1140,4 -4,4"/>
<!-- Node770 -->
<g id="node1" class="node">
<title>Node770</title>
<g id="a_node1"><a xlink:href="classAbstractCardiacCellInterface.html" target="_top" xlink:title="AbstractCardiacCellInterface">
<polygon fill="#ffffff" stroke="#000000" points="394,-700.5 394,-719.5 537,-719.5 537,-700.5 394,-700.5"/>
<text text-anchor="middle" x="465.5" y="-707.5" font-family="Helvetica,sans-Serif" font-size="10.00" fill="#000000">AbstractCardiacCellInterface</text>
</a>
</g>
</g>
<!-- Node8 -->
<g id="node2" class="node">
<title>Node8</title>
<g id="a_node2"><a xlink:href="classAbstractCardiacCell.html" target="_top" xlink:title="AbstractCardiacCell">
<polygon fill="#ffffff" stroke="#000000" points="601.5,-700.5 601.5,-719.5 705.5,-719.5 705.5,-700.5 601.5,-700.5"/>
<text text-anchor="middle" x="653.5" y="-707.5" font-family="Helvetica,sans-Serif" font-size="10.00" fill="#000000">AbstractCardiacCell</text>
</a>
</g>
</g>
<!-- Node770&#45;&gt;Node8 -->
<g id="edge1" class="edge">
<title>Node770&#45;&gt;Node8</title>
<path fill="none" stroke="#191970" d="M547.2329,-710C565.6029,-710 584.6088,-710 601.3792,-710"/>
<polygon fill="#191970" stroke="#191970" points="547.1111,-706.5001 537.111,-710 547.111,-713.5001 547.1111,-706.5001"/>
</g>
<!-- Node4 -->
<g id="node12" class="node">
<title>Node4</title>
<g id="a_node12"><a xlink:href="classAbstractCvodeCell.html" target="_top" xlink:title="AbstractCvodeCell">
<polygon fill="#ffffff" stroke="#000000" points="604,-738.5 604,-757.5 703,-757.5 703,-738.5 604,-738.5"/>
<text text-anchor="middle" x="653.5" y="-745.5" font-family="Helvetica,sans-Serif" font-size="10.00" fill="#000000">AbstractCvodeCell</text>
</a>
</g>
</g>
<!-- Node770&#45;&gt;Node4 -->
<g id="edge11" class="edge">
<title>Node770&#45;&gt;Node4</title>
<path fill="none" stroke="#191970" d="M522.9365,-721.6095C549.6744,-727.014 581.0879,-733.3635 606.4008,-738.4799"/>
<polygon fill="#191970" stroke="#191970" points="523.4356,-718.1397 512.9403,-719.589 522.0487,-725.0009 523.4356,-718.1397"/>
</g>
<!-- Node9 -->
<g id="node3" class="node">
<title>Node9</title>
<g id="a_node3"><a xlink:href="classAbstractBackwardEulerCardiacCell.html" target="_top" xlink:title="AbstractBackwardEulerCardiac\lCell\&lt; SIZE \&gt;">
<polygon fill="#ffffff" stroke="#000000" points="782.5,-556 782.5,-586 935.5,-586 935.5,-556 782.5,-556"/>
<text text-anchor="start" x="790.5" y="-574" font-family="Helvetica,sans-Serif" font-size="10.00" fill="#000000">AbstractBackwardEulerCardiac</text>
<text text-anchor="middle" x="859" y="-563" font-family="Helvetica,sans-Serif" font-size="10.00" fill="#000000">Cell&lt; SIZE &gt;</text>
</a>
</g>
</g>
<!-- Node8&#45;&gt;Node9 -->
<g id="edge2" class="edge">
<title>Node8&#45;&gt;Node9</title>
<path fill="none" stroke="#191970" d="M666.6125,-692.4812C686.3092,-667.3956 725.9515,-621.4666 770,-596 776.6693,-592.1442 783.9665,-588.8553 791.4217,-586.0565"/>
<polygon fill="#191970" stroke="#191970" points="663.8298,-690.3583 660.5029,-700.4173 669.3765,-694.6285 663.8298,-690.3583"/>
</g>
<!-- Node10 -->
<g id="node4" class="node">
<title>Node10</title>
<g id="a_node4"><a xlink:href="classAbstractBackwardEulerCardiacCell_3_010u_01_4.html" target="_top" xlink:title="AbstractBackwardEulerCardiac\lCell\&lt; 0u \&gt;">
<polygon fill="#ffffff" stroke="#000000" points="782.5,-905 782.5,-935 935.5,-935 935.5,-905 782.5,-905"/>
<text text-anchor="start" x="790.5" y="-923" font-family="Helvetica,sans-Serif" font-size="10.00" fill="#000000">AbstractBackwardEulerCardiac</text>
<text text-anchor="middle" x="859" y="-912" font-family="Helvetica,sans-Serif" font-size="10.00" fill="#000000">Cell&lt; 0u &gt;</text>
</a>
</g>
</g>
<!-- Node8&#45;&gt;Node10 -->
<g id="edge3" class="edge">
<title>Node8&#45;&gt;Node10</title>
<path fill="none" stroke="#191970" d="M715.325,-716.7688C722.2841,-719.6816 728.7465,-723.6432 734,-729 787.1636,-783.2086 717.6999,-840.9579 770,-896 773.6377,-899.8284 777.8165,-903.0687 782.3364,-905.8087"/>
<polygon fill="#191970" stroke="#191970" points="716.1893,-713.3647 705.5946,-713.4144 713.9078,-719.9825 716.1893,-713.3647"/>
</g>
<!-- Node11 -->
<g id="node5" class="node">
<title>Node11</title>
<g id="a_node5"><a xlink:href="classAbstractGeneralizedRushLarsenCardiacCell.html" target="_top" xlink:title="AbstractGeneralizedRushLarsen\lCardiacCell">
<polygon fill="#ffffff" stroke="#000000" points="780,-856 780,-886 938,-886 938,-856 780,-856"/>
<text text-anchor="start" x="788" y="-874" font-family="Helvetica,sans-Serif" font-size="10.00" fill="#000000">AbstractGeneralizedRushLarsen</text>
<text text-anchor="middle" x="859" y="-863" font-family="Helvetica,sans-Serif" font-size="10.00" fill="#000000">CardiacCell</text>
</a>
</g>
</g>
<!-- Node8&#45;&gt;Node11 -->
<g id="edge4" class="edge">
<title>Node8&#45;&gt;Node11</title>
<path fill="none" stroke="#191970" d="M715.173,-717.321C722.0979,-720.1507 728.5927,-723.942 734,-729 773.7324,-766.1663 731.0579,-808.0064 770,-846 773.9058,-849.8107 778.344,-853.0501 783.1043,-855.8029"/>
<polygon fill="#191970" stroke="#191970" points="716.1197,-713.9459 705.5252,-714.0298 713.8596,-720.5711 716.1197,-713.9459"/>
</g>
<!-- Node12 -->
<g id="node6" class="node">
<title>Node12</title>
<g id="a_node6"><a xlink:href="classAbstractRushLarsenCardiacCell.html" target="_top" xlink:title="AbstractRushLarsenCardiacCell">
<polygon fill="#ffffff" stroke="#000000" points="780.5,-817.5 780.5,-836.5 937.5,-836.5 937.5,-817.5 780.5,-817.5"/>
<text text-anchor="middle" x="859" y="-824.5" font-family="Helvetica,sans-Serif" font-size="10.00" fill="#000000">AbstractRushLarsenCardiacCell</text>
</a>
</g>
</g>
<!-- Node8&#45;&gt;Node12 -->
<g id="edge5" class="edge">
<title>Node8&#45;&gt;Node12</title>
<path fill="none" stroke="#191970" d="M715.596,-718.4121C722.2447,-721.0762 728.5569,-724.5305 734,-729 763.8197,-753.4862 739.9193,-783.8351 770,-808 774.6806,-811.7601 779.9326,-814.8225 785.4833,-817.3116"/>
<polygon fill="#191970" stroke="#191970" points="716.2708,-714.9452 705.6764,-715.0482 714.0227,-721.5744 716.2708,-714.9452"/>
</g>
<!-- Node13 -->
<g id="node7" class="node">
<title>Node13</title>
<g id="a_node7"><a xlink:href="classCML__noble__varghese__kohl__noble__1998__basic__with__sac.html" target="_top" xlink:title="CML_noble_varghese\l_kohl_noble_1998_basic\l_with_sac">
<polygon fill="#ffffff" stroke="#000000" points="797.5,-757.5 797.5,-798.5 920.5,-798.5 920.5,-757.5 797.5,-757.5"/>
<text text-anchor="start" x="805.5" y="-786.5" font-family="Helvetica,sans-Serif" font-size="10.00" fill="#000000">CML_noble_varghese</text>
<text text-anchor="start" x="805.5" y="-775.5" font-family="Helvetica,sans-Serif" font-size="10.00" fill="#000000">_kohl_noble_1998_basic</text>
<text text-anchor="middle" x="859" y="-764.5" font-family="Helvetica,sans-Serif" font-size="10.00" fill="#000000">_with_sac</text>
</a>
</g>
</g>
<!-- Node8&#45;&gt;Node13 -->
<g id="edge6" class="edge">
<title>Node8&#45;&gt;Node13</title>
<path fill="none" stroke="#191970" d="M712.8466,-722.1898C720.0558,-724.2017 727.2519,-726.47 734,-729 750.9402,-735.3513 753.3745,-740.8654 770,-748 778.6908,-751.7295 788.012,-755.3091 797.2318,-758.6151"/>
<polygon fill="#191970" stroke="#191970" points="713.6108,-718.7717 703.0487,-719.6047 711.8249,-725.5401 713.6108,-718.7717"/>
</g>
<!-- Node14 -->
<g id="node8" class="node">
<title>Node14</title>
<g id="a_node8"><a xlink:href="classCorriasBuistICCModified.html" target="_top" xlink:title="CorriasBuistICCModified">
<polygon fill="#ffffff" stroke="#000000" points="796.5,-719.5 796.5,-738.5 921.5,-738.5 921.5,-719.5 796.5,-719.5"/>
<text text-anchor="middle" x="859" y="-726.5" font-family="Helvetica,sans-Serif" font-size="10.00" fill="#000000">CorriasBuistICCModified</text>
</a>
</g>
</g>
<!-- Node8&#45;&gt;Node14 -->
<g id="edge7" class="edge">
<title>Node8&#45;&gt;Node14</title>
<path fill="none" stroke="#191970" d="M715.9089,-715.7702C741.3881,-718.1259 770.8016,-720.8454 796.3097,-723.2038"/>
<polygon fill="#191970" stroke="#191970" points="715.9018,-712.2547 705.622,-714.8191 715.2573,-719.2249 715.9018,-712.2547"/>
</g>
<!-- Node15 -->
<g id="node9" class="node">
<title>Node15</title>
<g id="a_node9"><a xlink:href="classCorriasBuistSMCModified.html" target="_top" xlink:title="CorriasBuistSMCModified">
<polygon fill="#ffffff" stroke="#000000" points="794,-681.5 794,-700.5 924,-700.5 924,-681.5 794,-681.5"/>
<text text-anchor="middle" x="859" y="-688.5" font-family="Helvetica,sans-Serif" font-size="10.00" fill="#000000">CorriasBuistSMCModified</text>
</a>
</g>
</g>
<!-- Node8&#45;&gt;Node15 -->
<g id="edge8" class="edge">
<title>Node8&#45;&gt;Node15</title>
<path fill="none" stroke="#191970" d="M715.5913,-704.2592C740.2699,-701.9775 768.6796,-699.3508 793.6691,-697.0403"/>
<polygon fill="#191970" stroke="#191970" points="715.2573,-700.7751 705.622,-705.1809 715.9018,-707.7453 715.2573,-700.7751"/>
</g>
<!-- Node16 -->
<g id="node10" class="node">
<title>Node16</title>
<g id="a_node10"><a xlink:href="classFakeBathCell.html" target="_top" xlink:title="FakeBathCell">
<polygon fill="#ffffff" stroke="#000000" points="821,-643.5 821,-662.5 897,-662.5 897,-643.5 821,-643.5"/>
<text text-anchor="middle" x="859" y="-650.5" font-family="Helvetica,sans-Serif" font-size="10.00" fill="#000000">FakeBathCell</text>
</a>
</g>
</g>
<!-- Node8&#45;&gt;Node16 -->
<g id="edge9" class="edge">
<title>Node8&#45;&gt;Node16</title>
<path fill="none" stroke="#191970" d="M689.7227,-697.0979C712.5702,-689.2315 742.7985,-679.3182 770,-672 786.4776,-667.5669 804.8923,-663.4927 820.6771,-660.2635"/>
<polygon fill="#191970" stroke="#191970" points="688.3964,-693.8534 680.0982,-700.4407 690.6931,-700.4659 688.3964,-693.8534"/>
</g>
<!-- Node17 -->
<g id="node11" class="node">
<title>Node17</title>
<g id="a_node11"><a xlink:href="classFitzHughNagumo1961OdeSystem.html" target="_top" xlink:title="FitzHughNagumo1961OdeSystem">
<polygon fill="#ffffff" stroke="#000000" points="776,-605.5 776,-624.5 942,-624.5 942,-605.5 776,-605.5"/>
<text text-anchor="middle" x="859" y="-612.5" font-family="Helvetica,sans-Serif" font-size="10.00" fill="#000000">FitzHughNagumo1961OdeSystem</text>
</a>
</g>
</g>
<!-- Node8&#45;&gt;Node17 -->
<g id="edge10" class="edge">
<title>Node8&#45;&gt;Node17</title>
<path fill="none" stroke="#191970" d="M672.8611,-694.1234C695.0046,-676.7705 732.9939,-649.3926 770,-634 779.1904,-630.1773 789.2474,-627.0854 799.1879,-624.5961"/>
<polygon fill="#191970" stroke="#191970" points="670.5587,-691.4828 664.9199,-700.4525 674.9215,-696.9569 670.5587,-691.4828"/>
</g>
<!-- Node5 -->
<g id="node13" class="node">
<title>Node5</title>
<g id="a_node13"><a xlink:href="classAbstractCvodeCellWithDataClamp.html" target="_top" xlink:title="AbstractCvodeCellWithData\lClamp">
<polygon fill="#ffffff" stroke="#000000" points="789,-954 789,-984 929,-984 929,-954 789,-954"/>
<text text-anchor="start" x="797" y="-972" font-family="Helvetica,sans-Serif" font-size="10.00" fill="#000000">AbstractCvodeCellWithData</text>
<text text-anchor="middle" x="859" y="-961" font-family="Helvetica,sans-Serif" font-size="10.00" fill="#000000">Clamp</text>
</a>
</g>
</g>
<!-- Node4&#45;&gt;Node5 -->
<g id="edge12" class="edge">
<title>Node4&#45;&gt;Node5</title>
<path fill="none" stroke="#191970" d="M659.3773,-767.3064C672.461,-806.9439 707.8395,-897.7382 770,-945 775.7327,-949.3587 782.2,-952.9266 788.9665,-955.847"/>
<polygon fill="#191970" stroke="#191970" points="662.6437,-766.0286 656.2745,-757.5619 655.9736,-768.1525 662.6437,-766.0286"/>
</g>
<!-- Node740 -->
<g id="node14" class="node">
<title>Node740</title>
<g id="a_node14"><a xlink:href="classAbstractContractionModel.html" target="_top" xlink:title="AbstractContractionModel">
<polygon fill="#ffffff" stroke="#000000" points="400.5,-436.5 400.5,-455.5 530.5,-455.5 530.5,-436.5 400.5,-436.5"/>
<text text-anchor="middle" x="465.5" y="-443.5" font-family="Helvetica,sans-Serif" font-size="10.00" fill="#000000">AbstractContractionModel</text>
</a>
</g>
</g>
<!-- Node741 -->
<g id="node15" class="node">
<title>Node741</title>
<g id="a_node15"><a xlink:href="classAbstractAlgebraicContractionModel.html" target="_top" xlink:title="AbstractAlgebraicContraction\lModel">
<polygon fill="#ffffff" stroke="#000000" points="581.5,-456 581.5,-486 725.5,-486 725.5,-456 581.5,-456"/>
<text text-anchor="start" x="589.5" y="-474" font-family="Helvetica,sans-Serif" font-size="10.00" fill="#000000">AbstractAlgebraicContraction</text>
<text text-anchor="middle" x="653.5" y="-463" font-family="Helvetica,sans-Serif" font-size="10.00" fill="#000000">Model</text>
</a>
</g>
</g>
<!-- Node740&#45;&gt;Node741 -->
<g id="edge13" class="edge">
<title>Node740&#45;&gt;Node741</title>
<path fill="none" stroke="#191970" d="M540.8179,-456.0157C554.1738,-457.7917 568.054,-459.6375 581.3205,-461.4017"/>
<polygon fill="#191970" stroke="#191970" points="541.0998,-452.5224 530.7257,-454.6736 540.177,-459.4614 541.0998,-452.5224"/>
</g>
<!-- Node18 -->
<g id="node19" class="node">
<title>Node18</title>
<g id="a_node19"><a xlink:href="classAbstractOdeBasedContractionModel.html" target="_top" xlink:title="AbstractOdeBasedContraction\lModel">
<polygon fill="#ffffff" stroke="#000000" points="579,-389 579,-419 728,-419 728,-389 579,-389"/>
<text text-anchor="start" x="587" y="-407" font-family="Helvetica,sans-Serif" font-size="10.00" fill="#000000">AbstractOdeBasedContraction</text>
<text text-anchor="middle" x="653.5" y="-396" font-family="Helvetica,sans-Serif" font-size="10.00" fill="#000000">Model</text>
</a>
</g>
</g>
<!-- Node740&#45;&gt;Node18 -->
<g id="edge17" class="edge">
<title>Node740&#45;&gt;Node18</title>
<path fill="none" stroke="#191970" d="M517.9357,-434.2856C539.1175,-429.5535 563.8251,-424.0338 586.3017,-419.0124"/>
<polygon fill="#191970" stroke="#191970" points="517.1564,-430.8734 508.1601,-436.4695 518.6827,-437.705 517.1564,-430.8734"/>
</g>
<!-- Node742 -->
<g id="node16" class="node">
<title>Node742</title>
<g id="a_node16"><a xlink:href="classConstantActiveTension.html" target="_top" xlink:title="ConstantActiveTension">
<polygon fill="#ffffff" stroke="#000000" points="799.5,-517.5 799.5,-536.5 918.5,-536.5 918.5,-517.5 799.5,-517.5"/>
<text text-anchor="middle" x="859" y="-524.5" font-family="Helvetica,sans-Serif" font-size="10.00" fill="#000000">ConstantActiveTension</text>
</a>
</g>
</g>
<!-- Node741&#45;&gt;Node742 -->
<g id="edge14" class="edge">
<title>Node741&#45;&gt;Node742</title>
<path fill="none" stroke="#191970" d="M707.153,-489.2416C726.8012,-495.6028 749.2922,-502.5151 770,-508 782.982,-511.4385 797.1549,-514.6883 810.2967,-517.4956"/>
<polygon fill="#191970" stroke="#191970" points="708.0526,-485.8535 697.46,-486.0742 705.8782,-492.5073 708.0526,-485.8535"/>
</g>
<!-- Node743 -->
<g id="node17" class="node">
<title>Node743</title>
<g id="a_node17"><a xlink:href="classFakeBathContractionModel.html" target="_top" xlink:title="FakeBathContractionModel">
<polygon fill="#ffffff" stroke="#000000" points="791.5,-479.5 791.5,-498.5 926.5,-498.5 926.5,-479.5 791.5,-479.5"/>
<text text-anchor="middle" x="859" y="-486.5" font-family="Helvetica,sans-Serif" font-size="10.00" fill="#000000">FakeBathContractionModel</text>
</a>
</g>
</g>
<!-- Node741&#45;&gt;Node743 -->
<g id="edge15" class="edge">
<title>Node741&#45;&gt;Node743</title>
<path fill="none" stroke="#191970" d="M735.8182,-478.2104C754.2973,-479.829 773.6951,-481.528 791.4887,-483.0866"/>
<polygon fill="#191970" stroke="#191970" points="735.9299,-474.7068 725.6627,-477.3208 735.3191,-481.6801 735.9299,-474.7068"/>
</g>
<!-- Node744 -->
<g id="node18" class="node">
<title>Node744</title>
<g id="a_node18"><a xlink:href="classNonPhysiologicalContractionModel.html" target="_top" xlink:title="NonPhysiologicalContraction\lModel">
<polygon fill="#ffffff" stroke="#000000" points="787.5,-430 787.5,-460 930.5,-460 930.5,-430 787.5,-430"/>
<text text-anchor="start" x="795.5" y="-448" font-family="Helvetica,sans-Serif" font-size="10.00" fill="#000000">NonPhysiologicalContraction</text>
<text text-anchor="middle" x="859" y="-437" font-family="Helvetica,sans-Serif" font-size="10.00" fill="#000000">Model</text>
</a>
</g>
</g>
<!-- Node741&#45;&gt;Node744 -->
<g id="edge16" class="edge">
<title>Node741&#45;&gt;Node744</title>
<path fill="none" stroke="#191970" d="M735.6324,-460.6086C752.747,-458.4432 770.6576,-456.1771 787.3577,-454.0642"/>
<polygon fill="#191970" stroke="#191970" points="735.1442,-457.1423 725.6627,-461.8699 736.0229,-464.087 735.1442,-457.1423"/>
</g>
<!-- Node19 -->
<g id="node20" class="node">
<title>Node19</title>
<g id="a_node20"><a xlink:href="classKerchoffs2003ContractionModel.html" target="_top" xlink:title="Kerchoffs2003Contraction\lModel">
<polygon fill="#ffffff" stroke="#000000" points="794,-381 794,-411 924,-411 924,-381 794,-381"/>
<text text-anchor="start" x="802" y="-399" font-family="Helvetica,sans-Serif" font-size="10.00" fill="#000000">Kerchoffs2003Contraction</text>
<text text-anchor="middle" x="859" y="-388" font-family="Helvetica,sans-Serif" font-size="10.00" fill="#000000">Model</text>
</a>
</g>
</g>
<!-- Node18&#45;&gt;Node19 -->
<g id="edge18" class="edge">
<title>Node18&#45;&gt;Node19</title>
<path fill="none" stroke="#191970" d="M738.4443,-400.6932C756.9307,-399.9735 776.2102,-399.223 793.7899,-398.5386"/>
<polygon fill="#191970" stroke="#191970" points="738.1278,-397.2027 728.2715,-401.0892 738.4002,-404.1974 738.1278,-397.2027"/>
</g>
<!-- Node20 -->
<g id="node21" class="node">
<title>Node20</title>
<g id="a_node21"><a xlink:href="classNash2004ContractionModel.html" target="_top" xlink:title="Nash2004ContractionModel">
<polygon fill="#ffffff" stroke="#000000" points="790.5,-342.5 790.5,-361.5 927.5,-361.5 927.5,-342.5 790.5,-342.5"/>
<text text-anchor="middle" x="859" y="-349.5" font-family="Helvetica,sans-Serif" font-size="10.00" fill="#000000">Nash2004ContractionModel</text>
</a>
</g>
</g>
<!-- Node18&#45;&gt;Node20 -->
<g id="edge19" class="edge">
<title>Node18&#45;&gt;Node20</title>
<path fill="none" stroke="#191970" d="M716.1759,-386.2025C733.5636,-381.4239 752.4777,-376.3727 770,-372 784.4436,-368.3956 800.2797,-364.7416 814.5384,-361.5605"/>
<polygon fill="#191970" stroke="#191970" points="714.8429,-382.9397 706.1368,-388.9774 716.7079,-389.6867 714.8429,-382.9397"/>
</g>
<!-- Node21 -->
<g id="node22" class="node">
<title>Node21</title>
<g id="a_node22"><a xlink:href="classNhsContractionModel.html" target="_top" xlink:title="NhsContractionModel">
<polygon fill="#ffffff" stroke="#000000" points="803.5,-304.5 803.5,-323.5 914.5,-323.5 914.5,-304.5 803.5,-304.5"/>
<text text-anchor="middle" x="859" y="-311.5" font-family="Helvetica,sans-Serif" font-size="10.00" fill="#000000">NhsContractionModel</text>
</a>
</g>
</g>
<!-- Node18&#45;&gt;Node21 -->
<g id="edge20" class="edge">
<title>Node18&#45;&gt;Node21</title>
<path fill="none" stroke="#191970" d="M724.9985,-384.4725C728.1243,-382.7916 731.143,-380.9711 734,-379 755.3687,-364.2571 747.9842,-346.758 770,-333 779.9149,-326.804 791.5343,-322.6025 803.0444,-319.7601"/>
<polygon fill="#191970" stroke="#191970" points="723.4291,-381.3436 715.9509,-388.8488 726.4772,-387.6451 723.4291,-381.3436"/>
</g>
<!-- Node22 -->
<g id="node23" class="node">
<title>Node22</title>
<g id="a_node23"><a xlink:href="classNhsModelWithBackwardSolver.html" target="_top" xlink:title="NhsModelWithBackwardSolver">
<polygon fill="#ffffff" stroke="#000000" points="984,-304.5 984,-323.5 1136,-323.5 1136,-304.5 984,-304.5"/>
<text text-anchor="middle" x="1060" y="-311.5" font-family="Helvetica,sans-Serif" font-size="10.00" fill="#000000">NhsModelWithBackwardSolver</text>
</a>
</g>
</g>
<!-- Node21&#45;&gt;Node22 -->
<g id="edge21" class="edge">
<title>Node21&#45;&gt;Node22</title>
<path fill="none" stroke="#191970" d="M924.9724,-314C943.7983,-314 964.4642,-314 983.8448,-314"/>
<polygon fill="#191970" stroke="#191970" points="924.7228,-310.5001 914.7228,-314 924.7227,-317.5001 924.7228,-310.5001"/>
</g>
<!-- Node0 -->
<g id="node24" class="node">
<title>Node0</title>
<g id="a_node24"><a xlink:href="classAbstractUntemplatedParameterisedSystem.html" target="_top" xlink:title="AbstractUntemplatedParameterised\lSystem">
<polygon fill="#ffffff" stroke="#000000" points="0,-594 0,-624 172,-624 172,-594 0,-594"/>
<text text-anchor="start" x="8" y="-612" font-family="Helvetica,sans-Serif" font-size="10.00" fill="#000000">AbstractUntemplatedParameterised</text>
<text text-anchor="middle" x="86" y="-601" font-family="Helvetica,sans-Serif" font-size="10.00" fill="#000000">System</text>
</a>
</g>
</g>
<!-- Node1 -->
<g id="node25" class="node">
<title>Node1</title>
<g id="a_node25"><a xlink:href="classAbstractParameterisedSystem.html" target="_top" xlink:title="AbstractParameterisedSystem\l\&lt; VECTOR \&gt;">
<polygon fill="#ffffff" stroke="#000000" points="208,-643 208,-673 358,-673 358,-643 208,-643"/>
<text text-anchor="start" x="216" y="-661" font-family="Helvetica,sans-Serif" font-size="10.00" fill="#000000">AbstractParameterisedSystem</text>
<text text-anchor="middle" x="283" y="-650" font-family="Helvetica,sans-Serif" font-size="10.00" fill="#000000">&lt; VECTOR &gt;</text>
</a>
</g>
</g>
<!-- Node0&#45;&gt;Node1 -->
<g id="edge22" class="edge">
<title>Node0&#45;&gt;Node1</title>
<path fill="none" stroke="#191970" d="M156.2638,-626.4768C177.9769,-631.8775 201.6894,-637.7755 222.669,-642.9938"/>
<polygon fill="#191970" stroke="#191970" points="156.9945,-623.0519 146.4453,-624.0346 155.3048,-629.845 156.9945,-623.0519"/>
</g>
<!-- Node2 -->
<g id="node26" class="node">
<title>Node2</title>
<g id="a_node26"><a xlink:href="classAbstractParameterisedSystem.html" target="_top" xlink:title="AbstractParameterisedSystem\l\&lt; N_Vector \&gt;">
<polygon fill="#ffffff" stroke="#000000" points="208,-594 208,-624 358,-624 358,-594 208,-594"/>
<text text-anchor="start" x="216" y="-612" font-family="Helvetica,sans-Serif" font-size="10.00" fill="#000000">AbstractParameterisedSystem</text>
<text text-anchor="middle" x="283" y="-601" font-family="Helvetica,sans-Serif" font-size="10.00" fill="#000000">&lt; N_Vector &gt;</text>
</a>
</g>
</g>
<!-- Node0&#45;&gt;Node2 -->
<g id="edge23" class="edge">
<title>Node0&#45;&gt;Node2</title>
<path fill="none" stroke="#191970" d="M182.2089,-609C190.8254,-609 199.4653,-609 207.8647,-609"/>
<polygon fill="#191970" stroke="#191970" points="182.1205,-605.5001 172.1205,-609 182.1204,-612.5001 182.1205,-605.5001"/>
</g>
<!-- Node6 -->
<g id="node28" class="node">
<title>Node6</title>
<g id="a_node28"><a xlink:href="classAbstractParameterisedSystem.html" target="_top" xlink:title="AbstractParameterisedSystem\l\&lt; std::vector\&lt; double \&gt; \&gt;">
<polygon fill="#ffffff" stroke="#000000" points="208,-434 208,-464 358,-464 358,-434 208,-434"/>
<text text-anchor="start" x="216" y="-452" font-family="Helvetica,sans-Serif" font-size="10.00" fill="#000000">AbstractParameterisedSystem</text>
<text text-anchor="middle" x="283" y="-441" font-family="Helvetica,sans-Serif" font-size="10.00" fill="#000000">&lt; std::vector&lt; double &gt; &gt;</text>
</a>
</g>
</g>
<!-- Node0&#45;&gt;Node6 -->
<g id="edge26" class="edge">
<title>Node0&#45;&gt;Node6</title>
<path fill="none" stroke="#191970" d="M112.3553,-587.5947C152.7986,-554.7473 229.1722,-492.718 264.3725,-464.129"/>
<polygon fill="#191970" stroke="#191970" points="110.0891,-584.9263 104.5333,-593.9476 114.5022,-590.3599 110.0891,-584.9263"/>
</g>
<!-- Node3 -->
<g id="node27" class="node">
<title>Node3</title>
<g id="a_node27"><a xlink:href="classAbstractCvodeSystem.html" target="_top" xlink:title="AbstractCvodeSystem">
<polygon fill="#ffffff" stroke="#000000" points="407.5,-738.5 407.5,-757.5 523.5,-757.5 523.5,-738.5 407.5,-738.5"/>
<text text-anchor="middle" x="465.5" y="-745.5" font-family="Helvetica,sans-Serif" font-size="10.00" fill="#000000">AbstractCvodeSystem</text>
</a>
</g>
</g>
<!-- Node2&#45;&gt;Node3 -->
<g id="edge24" class="edge">
<title>Node2&#45;&gt;Node3</title>
<path fill="none" stroke="#191970" d="M352.7649,-629.5439C354.5993,-630.9333 356.3511,-632.4165 358,-634 390.567,-665.2747 360.479,-698.75 394,-729 398.2909,-732.8722 403.2826,-735.9702 408.5961,-738.4465"/>
<polygon fill="#191970" stroke="#191970" points="354.5526,-626.5318 344.2564,-624.0339 350.7476,-632.4074 354.5526,-626.5318"/>
</g>
<!-- Node3&#45;&gt;Node4 -->
<g id="edge25" class="edge">
<title>Node3&#45;&gt;Node4</title>
<path fill="none" stroke="#191970" d="M533.8108,-748C556.9717,-748 582.3863,-748 603.816,-748"/>
<polygon fill="#191970" stroke="#191970" points="533.6969,-744.5001 523.6969,-748 533.6969,-751.5001 533.6969,-744.5001"/>
</g>
<!-- Node7 -->
<g id="node29" class="node">
<title>Node7</title>
<g id="a_node29"><a xlink:href="classAbstractOdeSystem.html" target="_top" xlink:title="AbstractOdeSystem">
<polygon fill="#ffffff" stroke="#000000" points="413,-240.5 413,-259.5 518,-259.5 518,-240.5 413,-240.5"/>
<text text-anchor="middle" x="465.5" y="-247.5" font-family="Helvetica,sans-Serif" font-size="10.00" fill="#000000">AbstractOdeSystem</text>
</a>
</g>
</g>
<!-- Node6&#45;&gt;Node7 -->
<g id="edge27" class="edge">
<title>Node6&#45;&gt;Node7</title>
<path fill="none" stroke="#191970" d="M303.9045,-426.2055C343.7518,-382.7555 429.0693,-289.7245 456.6813,-259.616"/>
<polygon fill="#191970" stroke="#191970" points="301.1969,-423.9796 297.0174,-433.7152 306.3559,-428.7108 301.1969,-423.9796"/>
</g>
<!-- Node7&#45;&gt;Node8 -->
<g id="edge28" class="edge">
<title>Node7&#45;&gt;Node8</title>
<path fill="none" stroke="#191970" d="M473.3513,-269.2105C505.4737,-347.808 626.2878,-643.4169 649.595,-700.4451"/>
<polygon fill="#191970" stroke="#191970" points="476.4498,-267.5404 469.4266,-259.6078 469.97,-270.1887 476.4498,-267.5404"/>
</g>
<!-- Node7&#45;&gt;Node18 -->
<g id="edge29" class="edge">
<title>Node7&#45;&gt;Node18</title>
<path fill="none" stroke="#191970" d="M476.0571,-268.4976C492.9634,-296.4883 528.7527,-349.4644 573,-379 578.7207,-382.8186 585.0541,-386.0777 591.5826,-388.8541"/>
<polygon fill="#191970" stroke="#191970" points="478.9752,-266.5555 470.8817,-259.7183 472.945,-270.1103 478.9752,-266.5555"/>
</g>
<!-- Node23 -->
<g id="node30" class="node">
<title>Node23</title>
<g id="a_node30"><a xlink:href="classAbstractOdeSystemForCoupledPdeSystem.html" target="_top" xlink:title="AbstractOdeSystemForCoupled\lPdeSystem">
<polygon fill="#ffffff" stroke="#000000" points="576,-213 576,-243 731,-243 731,-213 576,-213"/>
<text text-anchor="start" x="584" y="-231" font-family="Helvetica,sans-Serif" font-size="10.00" fill="#000000">AbstractOdeSystemForCoupled</text>
<text text-anchor="middle" x="653.5" y="-220" font-family="Helvetica,sans-Serif" font-size="10.00" fill="#000000">PdeSystem</text>
</a>
</g>
</g>
<!-- Node7&#45;&gt;Node23 -->
<g id="edge30" class="edge">
<title>Node7&#45;&gt;Node23</title>
<path fill="none" stroke="#191970" d="M528.442,-242.6344C543.6696,-240.8525 560.1222,-238.9272 575.9345,-237.0768"/>
<polygon fill="#191970" stroke="#191970" points="527.6439,-239.2039 518.1185,-243.8425 528.4575,-246.1564 527.6439,-239.2039"/>
</g>
<!-- Node26 -->
<g id="node33" class="node">
<title>Node26</title>
<g id="a_node33"><a xlink:href="classAbstractOdeSystemWithAnalyticJacobian.html" target="_top" xlink:title="AbstractOdeSystemWithAnalytic\lJacobian">
<polygon fill="#ffffff" stroke="#000000" points="573,-164 573,-194 734,-194 734,-164 573,-164"/>
<text text-anchor="start" x="581" y="-182" font-family="Helvetica,sans-Serif" font-size="10.00" fill="#000000">AbstractOdeSystemWithAnalytic</text>
<text text-anchor="middle" x="653.5" y="-171" font-family="Helvetica,sans-Serif" font-size="10.00" fill="#000000">Jacobian</text>
</a>
</g>
</g>
<!-- Node7&#45;&gt;Node26 -->
<g id="edge33" class="edge">
<title>Node7&#45;&gt;Node26</title>
<path fill="none" stroke="#191970" d="M494.6026,-236.1195C516.0093,-226.1951 545.9631,-212.8985 573,-203 581.4907,-199.8915 590.5904,-196.8809 599.5061,-194.1032"/>
<polygon fill="#191970" stroke="#191970" points="492.986,-233.0116 485.4097,-240.4177 495.9509,-239.3527 492.986,-233.0116"/>
</g>
<!-- Node28 -->
<g id="node35" class="node">
<title>Node28</title>
<g id="a_node35"><a xlink:href="classAlarcon2004OxygenBasedCellCycleOdeSystem.html" target="_top" xlink:title="Alarcon2004OxygenBasedCell\lCycleOdeSystem">
<polygon fill="#ffffff" stroke="#000000" points="579,-115 579,-145 728,-145 728,-115 579,-115"/>
<text text-anchor="start" x="587" y="-133" font-family="Helvetica,sans-Serif" font-size="10.00" fill="#000000">Alarcon2004OxygenBasedCell</text>
<text text-anchor="middle" x="653.5" y="-122" font-family="Helvetica,sans-Serif" font-size="10.00" fill="#000000">CycleOdeSystem</text>
</a>
</g>
</g>
<!-- Node7&#45;&gt;Node28 -->
<g id="edge35" class="edge">
<title>Node7&#45;&gt;Node28</title>
<path fill="none" stroke="#191970" d="M480.4403,-232.6089C499.753,-211.17 535.3931,-175.0035 573,-154 579.1116,-150.5867 585.7613,-147.6096 592.5327,-145.0252"/>
<polygon fill="#191970" stroke="#191970" points="477.6448,-230.4868 473.6461,-240.2981 482.8904,-235.1219 477.6448,-230.4868"/>
</g>
<!-- Node29 -->
<g id="node36" class="node">
<title>Node29</title>
<g id="a_node36"><a xlink:href="classCombinedOdeSystem.html" target="_top" xlink:title="CombinedOdeSystem">
<polygon fill="#ffffff" stroke="#000000" points="597,-76.5 597,-95.5 710,-95.5 710,-76.5 597,-76.5"/>
<text text-anchor="middle" x="653.5" y="-83.5" font-family="Helvetica,sans-Serif" font-size="10.00" fill="#000000">CombinedOdeSystem</text>
</a>
</g>
</g>
<!-- Node7&#45;&gt;Node29 -->
<g id="edge36" class="edge">
<title>Node7&#45;&gt;Node29</title>
<path fill="none" stroke="#191970" d="M474.0827,-231.0377C489.3028,-199.6589 524.0897,-137.2062 573,-105 580.1959,-100.2617 588.4407,-96.7008 596.8475,-94.0256"/>
<polygon fill="#191970" stroke="#191970" points="470.7685,-229.8607 469.679,-240.3994 477.1027,-232.8403 470.7685,-229.8607"/>
</g>
<!-- Node30 -->
<g id="node37" class="node">
<title>Node30</title>
<g id="a_node37"><a xlink:href="classDeltaNotchOdeSystem.html" target="_top" xlink:title="DeltaNotchOdeSystem">
<polygon fill="#ffffff" stroke="#000000" points="594.5,-38.5 594.5,-57.5 712.5,-57.5 712.5,-38.5 594.5,-38.5"/>
<text text-anchor="middle" x="653.5" y="-45.5" font-family="Helvetica,sans-Serif" font-size="10.00" fill="#000000">DeltaNotchOdeSystem</text>
</a>
</g>
</g>
<!-- Node7&#45;&gt;Node30 -->
<g id="edge37" class="edge">
<title>Node7&#45;&gt;Node30</title>
<path fill="none" stroke="#191970" d="M471.2666,-230.3863C483.4497,-192.5347 515.5223,-109.4141 573,-67 579.3549,-62.3106 586.6949,-58.7591 594.3034,-56.0731"/>
<polygon fill="#191970" stroke="#191970" points="467.8457,-229.6019 468.2348,-240.1896 474.5332,-231.6701 467.8457,-229.6019"/>
</g>
<!-- Node31 -->
<g id="node38" class="node">
<title>Node31</title>
<g id="a_node38"><a xlink:href="classGoldbeter1991OdeSystem.html" target="_top" xlink:title="Goldbeter1991OdeSystem">
<polygon fill="#ffffff" stroke="#000000" points="588,-.5 588,-19.5 719,-19.5 719,-.5 588,-.5"/>
<text text-anchor="middle" x="653.5" y="-7.5" font-family="Helvetica,sans-Serif" font-size="10.00" fill="#000000">Goldbeter1991OdeSystem</text>
</a>
</g>
</g>
<!-- Node7&#45;&gt;Node31 -->
<g id="edge38" class="edge">
<title>Node7&#45;&gt;Node31</title>
<path fill="none" stroke="#191970" d="M469.1692,-230.3096C478.3454,-186.8196 506.5017,-82.2188 573,-29 577.8209,-25.1418 583.2935,-22.0437 589.0628,-19.5591"/>
<polygon fill="#191970" stroke="#191970" points="465.7196,-229.7113 467.1916,-240.2034 472.5838,-231.0835 465.7196,-229.7113"/>
</g>
<!-- Node32 -->
<g id="node39" class="node">
<title>Node32</title>
<g id="a_node39"><a xlink:href="classMirams2010WntOdeSystem.html" target="_top" xlink:title="Mirams2010WntOdeSystem">
<polygon fill="#ffffff" stroke="#000000" points="583.5,-350.5 583.5,-369.5 723.5,-369.5 723.5,-350.5 583.5,-350.5"/>
<text text-anchor="middle" x="653.5" y="-357.5" font-family="Helvetica,sans-Serif" font-size="10.00" fill="#000000">Mirams2010WntOdeSystem</text>
</a>
</g>
</g>
<!-- Node7&#45;&gt;Node32 -->
<g id="edge39" class="edge">
<title>Node7&#45;&gt;Node32</title>
<path fill="none" stroke="#191970" d="M480.8217,-266.8447C500.2858,-287.2142 535.8385,-321.1106 573,-340 581.4726,-344.3067 590.9272,-347.7221 600.2942,-350.4195"/>
<polygon fill="#191970" stroke="#191970" points="483.3459,-264.4197 473.9549,-259.5147 478.2374,-269.2055 483.3459,-264.4197"/>
</g>
<!-- Node33 -->
<g id="node40" class="node">
<title>Node33</title>
<g id="a_node40"><a xlink:href="classVanLeeuwen2009WntSwatCellCycleOdeSystem.html" target="_top" xlink:title="VanLeeuwen2009WntSwatCell\lCycleOdeSystem">
<polygon fill="#ffffff" stroke="#000000" points="577.5,-301 577.5,-331 729.5,-331 729.5,-301 577.5,-301"/>
<text text-anchor="start" x="585.5" y="-319" font-family="Helvetica,sans-Serif" font-size="10.00" fill="#000000">VanLeeuwen2009WntSwatCell</text>
<text text-anchor="middle" x="653.5" y="-308" font-family="Helvetica,sans-Serif" font-size="10.00" fill="#000000">CycleOdeSystem</text>
</a>
</g>
</g>
<!-- Node7&#45;&gt;Node33 -->
<g id="edge40" class="edge">
<title>Node7&#45;&gt;Node33</title>
<path fill="none" stroke="#191970" d="M498.739,-263.3001C519.8793,-271.6039 547.9013,-282.3262 573,-291 582.682,-294.346 593.088,-297.7314 603.0982,-300.8844"/>
<polygon fill="#191970" stroke="#191970" points="499.8384,-259.9713 489.2518,-259.5546 497.2679,-266.4823 499.8384,-259.9713"/>
</g>
<!-- Node34 -->
<g id="node41" class="node">
<title>Node34</title>
<g id="a_node41"><a xlink:href="classWntCellCycleOdeSystem.html" target="_top" xlink:title="WntCellCycleOdeSystem">
<polygon fill="#ffffff" stroke="#000000" points="589,-262.5 589,-281.5 718,-281.5 718,-262.5 589,-262.5"/>
<text text-anchor="middle" x="653.5" y="-269.5" font-family="Helvetica,sans-Serif" font-size="10.00" fill="#000000">WntCellCycleOdeSystem</text>
</a>
</g>
</g>
<!-- Node7&#45;&gt;Node34 -->
<g id="edge41" class="edge">
<title>Node7&#45;&gt;Node34</title>
<path fill="none" stroke="#191970" d="M528.1174,-257.3276C547.6334,-259.6114 569.1882,-262.1337 588.8411,-264.4335"/>
<polygon fill="#191970" stroke="#191970" points="528.4575,-253.8436 518.1185,-256.1575 527.6439,-260.7961 528.4575,-253.8436"/>
</g>
<!-- Node24 -->
<g id="node31" class="node">
<title>Node24</title>
<g id="a_node31"><a xlink:href="classOdeSystemForCoupledHeatEquation.html" target="_top" xlink:title="OdeSystemForCoupledHeatEquation">
<polygon fill="#ffffff" stroke="#000000" points="770,-259.5 770,-278.5 948,-278.5 948,-259.5 770,-259.5"/>
<text text-anchor="middle" x="859" y="-266.5" font-family="Helvetica,sans-Serif" font-size="10.00" fill="#000000">OdeSystemForCoupledHeatEquation</text>
</a>
</g>
</g>
<!-- Node23&#45;&gt;Node24 -->
<g id="edge31" class="edge">
<title>Node23&#45;&gt;Node24</title>
<path fill="none" stroke="#191970" d="M738.9498,-245.0484C763.6016,-249.9667 789.6214,-255.158 811.1111,-259.4455"/>
<polygon fill="#191970" stroke="#191970" points="739.3453,-241.5584 728.8537,-243.0341 737.9756,-248.4231 739.3453,-241.5584"/>
</g>
<!-- Node25 -->
<g id="node32" class="node">
<title>Node25</title>
<g id="a_node32"><a xlink:href="classOdeSystemForCoupledHeatEquationWithSource.html" target="_top" xlink:title="OdeSystemForCoupledHeatEquation\lWithSource">
<polygon fill="#ffffff" stroke="#000000" points="770,-210 770,-240 948,-240 948,-210 770,-210"/>
<text text-anchor="start" x="778" y="-228" font-family="Helvetica,sans-Serif" font-size="10.00" fill="#000000">OdeSystemForCoupledHeatEquation</text>
<text text-anchor="middle" x="859" y="-217" font-family="Helvetica,sans-Serif" font-size="10.00" fill="#000000">WithSource</text>
</a>
</g>
</g>
<!-- Node23&#45;&gt;Node25 -->
<g id="edge32" class="edge">
<title>Node23&#45;&gt;Node25</title>
<path fill="none" stroke="#191970" d="M741.3425,-226.7176C750.7742,-226.5799 760.3771,-226.4397 769.8243,-226.3018"/>
<polygon fill="#191970" stroke="#191970" points="741.1385,-223.2201 731.1907,-226.8658 741.2408,-230.2194 741.1385,-223.2201"/>
</g>
<!-- Node27 -->
<g id="node34" class="node">
<title>Node27</title>
<g id="a_node34"><a xlink:href="classTysonNovak2001OdeSystem.html" target="_top" xlink:title="TysonNovak2001OdeSystem">
<polygon fill="#ffffff" stroke="#000000" points="786.5,-169.5 786.5,-188.5 931.5,-188.5 931.5,-169.5 786.5,-169.5"/>
<text text-anchor="middle" x="859" y="-176.5" font-family="Helvetica,sans-Serif" font-size="10.00" fill="#000000">TysonNovak2001OdeSystem</text>
</a>
</g>
</g>
<!-- Node26&#45;&gt;Node27 -->
<g id="edge34" class="edge">
<title>Node26&#45;&gt;Node27</title>
<path fill="none" stroke="#191970" d="M744.2939,-179C758.3477,-179 772.7041,-179 786.292,-179"/>
<polygon fill="#191970" stroke="#191970" points="744.1293,-175.5001 734.1292,-179 744.1292,-182.5001 744.1293,-175.5001"/>
</g>
</g>
</svg>
