<?xml version="1.0" encoding="UTF-8" standalone="no"?>
<!DOCTYPE svg PUBLIC "-//W3C//DTD SVG 1.1//EN"
 "http://www.w3.org/Graphics/SVG/1.1/DTD/svg11.dtd">
<!-- Generated by graphviz version 2.40.1 (20161225.0304)
 -->
<!-- Title: Graphical Class Hierarchy Pages: 1 -->
<svg width="669pt" height="274pt"
 viewBox="0.00 0.00 669.00 273.50" xmlns="http://www.w3.org/2000/svg" xmlns:xlink="http://www.w3.org/1999/xlink">
<g id="graph0" class="graph" transform="scale(1 1) rotate(0) translate(4 269.5)">
<title>Graphical Class Hierarchy</title>
<polygon fill="#ffffff" stroke="transparent" points="-4,4 -4,-269.5 665,-269.5 665,4 -4,4"/>
<!-- Node0 -->
<g id="node1" class="node">
<title>Node0</title>
<g id="a_node1"><a xlink:href="classAbstractMaterialLaw.html" target="_top" xlink:title="AbstractMaterialLaw\l\&lt; DIM \&gt;">
<polygon fill="#ffffff" stroke="#000000" points="0,-88 0,-118 106,-118 106,-88 0,-88"/>
<text text-anchor="start" x="8" y="-106" font-family="Helvetica,sans-Serif" font-size="10.00" fill="#000000">AbstractMaterialLaw</text>
<text text-anchor="middle" x="53" y="-95" font-family="Helvetica,sans-Serif" font-size="10.00" fill="#000000">&lt; DIM &gt;</text>
</a>
</g>
</g>
<!-- Node1 -->
<g id="node2" class="node">
<title>Node1</title>
<g id="a_node2"><a xlink:href="classAbstractCompressibleMaterialLaw.html" target="_top" xlink:title="AbstractCompressibleMaterial\lLaw\&lt; DIM \&gt;">
<polygon fill="#ffffff" stroke="#000000" points="145,-186 145,-216 293,-216 293,-186 145,-186"/>
<text text-anchor="start" x="153" y="-204" font-family="Helvetica,sans-Serif" font-size="10.00" fill="#000000">AbstractCompressibleMaterial</text>
<text text-anchor="middle" x="219" y="-193" font-family="Helvetica,sans-Serif" font-size="10.00" fill="#000000">Law&lt; DIM &gt;</text>
</a>
</g>
</g>
<!-- Node0&#45;&gt;Node1 -->
<g id="edge1" class="edge">
<title>Node0&#45;&gt;Node1</title>
<path fill="none" stroke="#191970" d="M87.4648,-123.3467C119.0164,-141.9735 164.9934,-169.1166 193.3972,-185.8851"/>
<polygon fill="#191970" stroke="#191970" points="88.9644,-120.1676 78.5737,-118.0977 85.4057,-126.1955 88.9644,-120.1676"/>
</g>
<!-- Node5 -->
<g id="node6" class="node">
<title>Node5</title>
<g id="a_node6"><a xlink:href="classAbstractIncompressibleMaterialLaw.html" target="_top" xlink:title="AbstractIncompressibleMaterial\lLaw\&lt; DIM \&gt;">
<polygon fill="#ffffff" stroke="#000000" points="142,-88 142,-118 296,-118 296,-88 142,-88"/>
<text text-anchor="start" x="150" y="-106" font-family="Helvetica,sans-Serif" font-size="10.00" fill="#000000">AbstractIncompressibleMaterial</text>
<text text-anchor="middle" x="219" y="-95" font-family="Helvetica,sans-Serif" font-size="10.00" fill="#000000">Law&lt; DIM &gt;</text>
</a>
</g>
</g>
<!-- Node0&#45;&gt;Node5 -->
<g id="edge5" class="edge">
<title>Node0&#45;&gt;Node5</title>
<path fill="none" stroke="#191970" d="M116.6777,-103C124.8959,-103 133.3818,-103 141.7881,-103"/>
<polygon fill="#191970" stroke="#191970" points="116.4372,-99.5001 106.4372,-103 116.4371,-106.5001 116.4372,-99.5001"/>
</g>
<!-- Node13 -->
<g id="node14" class="node">
<title>Node13</title>
<g id="a_node14"><a xlink:href="classAbstractIncompressibleMaterialLaw.html" target="_top" xlink:title="AbstractIncompressibleMaterial\lLaw\&lt; 2 \&gt;">
<polygon fill="#ffffff" stroke="#000000" points="142,-17 142,-47 296,-47 296,-17 142,-17"/>
<text text-anchor="start" x="150" y="-35" font-family="Helvetica,sans-Serif" font-size="10.00" fill="#000000">AbstractIncompressibleMaterial</text>
<text text-anchor="middle" x="219" y="-24" font-family="Helvetica,sans-Serif" font-size="10.00" fill="#000000">Law&lt; 2 &gt;</text>
</a>
</g>
</g>
<!-- Node0&#45;&gt;Node13 -->
<g id="edge13" class="edge">
<title>Node0&#45;&gt;Node13</title>
<path fill="none" stroke="#191970" d="M97.4634,-83.9825C124.5438,-72.4 158.6588,-57.8086 183.8464,-47.0356"/>
<polygon fill="#191970" stroke="#191970" points="96.0223,-80.7921 88.2043,-87.9427 98.775,-87.2282 96.0223,-80.7921"/>
</g>
<!-- Node2 -->
<g id="node3" class="node">
<title>Node2</title>
<g id="a_node3"><a xlink:href="classAbstractIsotropicCompressibleMaterialLaw.html" target="_top" xlink:title="AbstractIsotropicCompressible\lMaterialLaw\&lt; DIM \&gt;">
<polygon fill="#ffffff" stroke="#000000" points="335,-235 335,-265 486,-265 486,-235 335,-235"/>
<text text-anchor="start" x="343" y="-253" font-family="Helvetica,sans-Serif" font-size="10.00" fill="#000000">AbstractIsotropicCompressible</text>
<text text-anchor="middle" x="410.5" y="-242" font-family="Helvetica,sans-Serif" font-size="10.00" fill="#000000">MaterialLaw&lt; DIM &gt;</text>
</a>
</g>
</g>
<!-- Node1&#45;&gt;Node2 -->
<g id="edge2" class="edge">
<title>Node1&#45;&gt;Node2</title>
<path fill="none" stroke="#191970" d="M287.5875,-218.5498C308.6166,-223.9306 331.5513,-229.799 351.8534,-234.9938"/>
<polygon fill="#191970" stroke="#191970" points="288.3133,-215.1228 277.7577,-216.0346 286.578,-221.9043 288.3133,-215.1228"/>
</g>
<!-- Node4 -->
<g id="node5" class="node">
<title>Node4</title>
<g id="a_node5"><a xlink:href="classCompressibleExponentialLaw.html" target="_top" xlink:title="CompressibleExponentialLaw\l\&lt; DIM \&gt;">
<polygon fill="#ffffff" stroke="#000000" points="337.5,-186 337.5,-216 483.5,-216 483.5,-186 337.5,-186"/>
<text text-anchor="start" x="345.5" y="-204" font-family="Helvetica,sans-Serif" font-size="10.00" fill="#000000">CompressibleExponentialLaw</text>
<text text-anchor="middle" x="410.5" y="-193" font-family="Helvetica,sans-Serif" font-size="10.00" fill="#000000">&lt; DIM &gt;</text>
</a>
</g>
</g>
<!-- Node1&#45;&gt;Node4 -->
<g id="edge4" class="edge">
<title>Node1&#45;&gt;Node4</title>
<path fill="none" stroke="#191970" d="M303.3489,-201C314.6614,-201 326.1893,-201 337.2888,-201"/>
<polygon fill="#191970" stroke="#191970" points="303.0389,-197.5001 293.0389,-201 303.0389,-204.5001 303.0389,-197.5001"/>
</g>
<!-- Node3 -->
<g id="node4" class="node">
<title>Node3</title>
<g id="a_node4"><a xlink:href="classCompressibleMooneyRivlinMaterialLaw.html" target="_top" xlink:title="CompressibleMooneyRivlin\lMaterialLaw\&lt; DIM \&gt;">
<polygon fill="#ffffff" stroke="#000000" points="525,-235 525,-265 661,-265 661,-235 525,-235"/>
<text text-anchor="start" x="533" y="-253" font-family="Helvetica,sans-Serif" font-size="10.00" fill="#000000">CompressibleMooneyRivlin</text>
<text text-anchor="middle" x="593" y="-242" font-family="Helvetica,sans-Serif" font-size="10.00" fill="#000000">MaterialLaw&lt; DIM &gt;</text>
</a>
</g>
</g>
<!-- Node2&#45;&gt;Node3 -->
<g id="edge3" class="edge">
<title>Node2&#45;&gt;Node3</title>
<path fill="none" stroke="#191970" d="M496.0498,-250C505.6954,-250 515.4263,-250 524.8091,-250"/>
<polygon fill="#191970" stroke="#191970" points="496.0471,-246.5001 486.0471,-250 496.0471,-253.5001 496.0471,-246.5001"/>
</g>
<!-- Node6 -->
<g id="node7" class="node">
<title>Node6</title>
<g id="a_node7"><a xlink:href="classAbstractIsotropicIncompressibleMaterialLaw.html" target="_top" xlink:title="AbstractIsotropicIncompressible\lMaterialLaw\&lt; DIM \&gt;">
<polygon fill="#ffffff" stroke="#000000" points="332,-137 332,-167 489,-167 489,-137 332,-137"/>
<text text-anchor="start" x="340" y="-155" font-family="Helvetica,sans-Serif" font-size="10.00" fill="#000000">AbstractIsotropicIncompressible</text>
<text text-anchor="middle" x="410.5" y="-144" font-family="Helvetica,sans-Serif" font-size="10.00" fill="#000000">MaterialLaw&lt; DIM &gt;</text>
</a>
</g>
</g>
<!-- Node5&#45;&gt;Node6 -->
<g id="edge6" class="edge">
<title>Node5&#45;&gt;Node6</title>
<path fill="none" stroke="#191970" d="M287.5875,-120.5498C308.6166,-125.9306 331.5513,-131.799 351.8534,-136.9938"/>
<polygon fill="#191970" stroke="#191970" points="288.3133,-117.1228 277.7577,-118.0346 286.578,-123.9043 288.3133,-117.1228"/>
</g>
<!-- Node9 -->
<g id="node10" class="node">
<title>Node9</title>
<g id="a_node10"><a xlink:href="classAbstractIsotropicIncompressibleMaterialLaw.html" target="_top" xlink:title="AbstractIsotropicIncompressible\lMaterialLaw\&lt; 3 \&gt;">
<polygon fill="#ffffff" stroke="#000000" points="332,-88 332,-118 489,-118 489,-88 332,-88"/>
<text text-anchor="start" x="340" y="-106" font-family="Helvetica,sans-Serif" font-size="10.00" fill="#000000">AbstractIsotropicIncompressible</text>
<text text-anchor="middle" x="410.5" y="-95" font-family="Helvetica,sans-Serif" font-size="10.00" fill="#000000">MaterialLaw&lt; 3 &gt;</text>
</a>
</g>
</g>
<!-- Node5&#45;&gt;Node9 -->
<g id="edge9" class="edge">
<title>Node5&#45;&gt;Node9</title>
<path fill="none" stroke="#191970" d="M306.3269,-103C314.7925,-103 323.3466,-103 331.7217,-103"/>
<polygon fill="#191970" stroke="#191970" points="306.0626,-99.5001 296.0626,-103 306.0626,-106.5001 306.0626,-99.5001"/>
</g>
<!-- Node11 -->
<g id="node12" class="node">
<title>Node11</title>
<g id="a_node12"><a xlink:href="classPoleZeroMaterialLaw.html" target="_top" xlink:title="PoleZeroMaterialLaw\l\&lt; DIM \&gt;">
<polygon fill="#ffffff" stroke="#000000" points="356.5,-39 356.5,-69 464.5,-69 464.5,-39 356.5,-39"/>
<text text-anchor="start" x="364.5" y="-57" font-family="Helvetica,sans-Serif" font-size="10.00" fill="#000000">PoleZeroMaterialLaw</text>
<text text-anchor="middle" x="410.5" y="-46" font-family="Helvetica,sans-Serif" font-size="10.00" fill="#000000">&lt; DIM &gt;</text>
</a>
</g>
</g>
<!-- Node5&#45;&gt;Node11 -->
<g id="edge11" class="edge">
<title>Node5&#45;&gt;Node11</title>
<path fill="none" stroke="#191970" d="M287.6329,-85.4386C310.2434,-79.6531 335.0526,-73.3051 356.4216,-67.8373"/>
<polygon fill="#191970" stroke="#191970" points="286.578,-82.0957 277.7577,-87.9654 288.3133,-88.8772 286.578,-82.0957"/>
</g>
<!-- Node7 -->
<g id="node8" class="node">
<title>Node7</title>
<g id="a_node8"><a xlink:href="classExponentialMaterialLaw.html" target="_top" xlink:title="ExponentialMaterialLaw\l\&lt; DIM \&gt;">
<polygon fill="#ffffff" stroke="#000000" points="533,-184 533,-214 653,-214 653,-184 533,-184"/>
<text text-anchor="start" x="541" y="-202" font-family="Helvetica,sans-Serif" font-size="10.00" fill="#000000">ExponentialMaterialLaw</text>
<text text-anchor="middle" x="593" y="-191" font-family="Helvetica,sans-Serif" font-size="10.00" fill="#000000">&lt; DIM &gt;</text>
</a>
</g>
</g>
<!-- Node6&#45;&gt;Node7 -->
<g id="edge7" class="edge">
<title>Node6&#45;&gt;Node7</title>
<path fill="none" stroke="#191970" d="M478.5462,-169.5242C497.0021,-174.2773 516.8145,-179.3796 534.6815,-183.981"/>
<polygon fill="#191970" stroke="#191970" points="479.3028,-166.105 468.7459,-167.0003 477.557,-172.8838 479.3028,-166.105"/>
</g>
<!-- Node8 -->
<g id="node9" class="node">
<title>Node8</title>
<g id="a_node9"><a xlink:href="classMooneyRivlinMaterialLaw.html" target="_top" xlink:title="MooneyRivlinMaterialLaw\l\&lt; DIM \&gt;">
<polygon fill="#ffffff" stroke="#000000" points="529,-135 529,-165 657,-165 657,-135 529,-135"/>
<text text-anchor="start" x="537" y="-153" font-family="Helvetica,sans-Serif" font-size="10.00" fill="#000000">MooneyRivlinMaterialLaw</text>
<text text-anchor="middle" x="593" y="-142" font-family="Helvetica,sans-Serif" font-size="10.00" fill="#000000">&lt; DIM &gt;</text>
</a>
</g>
</g>
<!-- Node6&#45;&gt;Node8 -->
<g id="edge8" class="edge">
<title>Node6&#45;&gt;Node8</title>
<path fill="none" stroke="#191970" d="M499.4946,-151.0247C509.3845,-150.9163 519.3097,-150.8076 528.8052,-150.7035"/>
<polygon fill="#191970" stroke="#191970" points="499.1816,-147.5278 489.2206,-151.1373 499.2584,-154.5274 499.1816,-147.5278"/>
</g>
<!-- Node10 -->
<g id="node11" class="node">
<title>Node10</title>
<g id="a_node11"><a xlink:href="classPolynomialMaterialLaw3d.html" target="_top" xlink:title="PolynomialMaterialLaw3d">
<polygon fill="#ffffff" stroke="#000000" points="529,-93.5 529,-112.5 657,-112.5 657,-93.5 529,-93.5"/>
<text text-anchor="middle" x="593" y="-100.5" font-family="Helvetica,sans-Serif" font-size="10.00" fill="#000000">PolynomialMaterialLaw3d</text>
</a>
</g>
</g>
<!-- Node9&#45;&gt;Node10 -->
<g id="edge10" class="edge">
<title>Node9&#45;&gt;Node10</title>
<path fill="none" stroke="#191970" d="M499.4946,-103C509.3845,-103 519.3097,-103 528.8052,-103"/>
<polygon fill="#191970" stroke="#191970" points="499.2206,-99.5001 489.2206,-103 499.2206,-106.5001 499.2206,-99.5001"/>
</g>
<!-- Node12 -->
<g id="node13" class="node">
<title>Node12</title>
<g id="a_node13"><a xlink:href="classNashHunterPoleZeroLaw.html" target="_top" xlink:title="NashHunterPoleZeroLaw\l\&lt; DIM \&gt;">
<polygon fill="#ffffff" stroke="#000000" points="530,-39 530,-69 656,-69 656,-39 530,-39"/>
<text text-anchor="start" x="538" y="-57" font-family="Helvetica,sans-Serif" font-size="10.00" fill="#000000">NashHunterPoleZeroLaw</text>
<text text-anchor="middle" x="593" y="-46" font-family="Helvetica,sans-Serif" font-size="10.00" fill="#000000">&lt; DIM &gt;</text>
</a>
</g>
</g>
<!-- Node11&#45;&gt;Node12 -->
<g id="edge12" class="edge">
<title>Node11&#45;&gt;Node12</title>
<path fill="none" stroke="#191970" d="M474.815,-54C492.7148,-54 512.1335,-54 529.9593,-54"/>
<polygon fill="#191970" stroke="#191970" points="474.7619,-50.5001 464.7619,-54 474.7619,-57.5001 474.7619,-50.5001"/>
</g>
<!-- Node14 -->
<g id="node15" class="node">
<title>Node14</title>
<g id="a_node15"><a xlink:href="classSchmidCostaExponentialLaw2d.html" target="_top" xlink:title="SchmidCostaExponentialLaw2d">
<polygon fill="#ffffff" stroke="#000000" points="333,-.5 333,-19.5 488,-19.5 488,-.5 333,-.5"/>
<text text-anchor="middle" x="410.5" y="-7.5" font-family="Helvetica,sans-Serif" font-size="10.00" fill="#000000">SchmidCostaExponentialLaw2d</text>
</a>
</g>
</g>
<!-- Node13&#45;&gt;Node14 -->
<g id="edge14" class="edge">
<title>Node13&#45;&gt;Node14</title>
<path fill="none" stroke="#191970" d="M306.1145,-21.9921C315.0708,-20.9631 324.1288,-19.9225 332.9714,-18.9067"/>
<polygon fill="#191970" stroke="#191970" points="305.5978,-18.5283 296.0626,-23.1469 306.3968,-25.4826 305.5978,-18.5283"/>
</g>
</g>
</svg>
