<?xml version="1.0" encoding="UTF-8" standalone="no"?>
<!DOCTYPE svg PUBLIC "-//W3C//DTD SVG 1.1//EN"
 "http://www.w3.org/Graphics/SVG/1.1/DTD/svg11.dtd">
<!-- Generated by graphviz version 2.40.1 (20161225.0304)
 -->
<!-- Title: global/src/checkpointing/SerializationExportWrapper.hpp Pages: 1 -->
<svg width="452pt" height="106pt"
 viewBox="0.00 0.00 452.00 106.00" xmlns="http://www.w3.org/2000/svg" xmlns:xlink="http://www.w3.org/1999/xlink">
<g id="graph0" class="graph" transform="scale(1 1) rotate(0) translate(4 102)">
<title>global/src/checkpointing/SerializationExportWrapper.hpp</title>
<polygon fill="#ffffff" stroke="transparent" points="-4,4 -4,-102 448,-102 448,4 -4,4"/>
<!-- Node0 -->
<g id="node1" class="node">
<title>Node0</title>
<polygon fill="#bfbfbf" stroke="#000000" points="139.5,-67.5 139.5,-97.5 296.5,-97.5 296.5,-67.5 139.5,-67.5"/>
<text text-anchor="start" x="147.5" y="-85.5" font-family="Helvetica,sans-Serif" font-size="10.00" fill="#000000">global/src/checkpointing</text>
<text text-anchor="middle" x="218" y="-74.5" font-family="Helvetica,sans-Serif" font-size="10.00" fill="#000000">/SerializationExportWrapper.hpp</text>
</g>
<!-- Node1 -->
<g id="node2" class="node">
<title>Node1</title>
<polygon fill="#ffffff" stroke="#bfbfbf" points="0,-6 0,-25 94,-25 94,-6 0,-6"/>
<text text-anchor="middle" x="47" y="-13" font-family="Helvetica,sans-Serif" font-size="10.00" fill="#000000">boost/version.hpp</text>
</g>
<!-- Node0&#45;&gt;Node1 -->
<g id="edge1" class="edge">
<title>Node0&#45;&gt;Node1</title>
<path fill="none" stroke="#191970" d="M179.6243,-67.4639C150.028,-55.8677 109.476,-39.9789 81.0304,-28.8335"/>
<polygon fill="#191970" stroke="#191970" points="82.0992,-25.4933 71.5115,-25.1039 79.5455,-32.0109 82.0992,-25.4933"/>
</g>
<!-- Node2 -->
<g id="node3" class="node">
<title>Node2</title>
<polygon fill="#ffffff" stroke="#bfbfbf" points="112.5,-.5 112.5,-30.5 207.5,-30.5 207.5,-.5 112.5,-.5"/>
<text text-anchor="start" x="120.5" y="-18.5" font-family="Helvetica,sans-Serif" font-size="10.00" fill="#000000">boost/serialization</text>
<text text-anchor="middle" x="160" y="-7.5" font-family="Helvetica,sans-Serif" font-size="10.00" fill="#000000">/export.hpp</text>
</g>
<!-- Node0&#45;&gt;Node2 -->
<g id="edge2" class="edge">
<title>Node0&#45;&gt;Node2</title>
<path fill="none" stroke="#191970" d="M204.8389,-67.2967C197.4232,-58.7303 188.0143,-47.8614 179.7323,-38.2943"/>
<polygon fill="#191970" stroke="#191970" points="182.3003,-35.913 173.109,-30.6432 177.0078,-40.4946 182.3003,-35.913"/>
</g>
<!-- Node3 -->
<g id="node4" class="node">
<title>Node3</title>
<polygon fill="#ffffff" stroke="#bfbfbf" points="226,-.5 226,-30.5 326,-30.5 326,-.5 226,-.5"/>
<text text-anchor="start" x="234" y="-18.5" font-family="Helvetica,sans-Serif" font-size="10.00" fill="#000000">boost/preprocessor</text>
<text text-anchor="middle" x="276" y="-7.5" font-family="Helvetica,sans-Serif" font-size="10.00" fill="#000000">/cat.hpp</text>
</g>
<!-- Node0&#45;&gt;Node3 -->
<g id="edge3" class="edge">
<title>Node0&#45;&gt;Node3</title>
<path fill="none" stroke="#191970" d="M231.1611,-67.2967C238.5768,-58.7303 247.9857,-47.8614 256.2677,-38.2943"/>
<polygon fill="#191970" stroke="#191970" points="258.9922,-40.4946 262.891,-30.6432 253.6997,-35.913 258.9922,-40.4946"/>
</g>
<!-- Node4 -->
<g id="node5" class="node">
<title>Node4</title>
<polygon fill="#ffffff" stroke="#bfbfbf" points="344,-.5 344,-30.5 444,-30.5 444,-.5 344,-.5"/>
<text text-anchor="start" x="352" y="-18.5" font-family="Helvetica,sans-Serif" font-size="10.00" fill="#000000">boost/preprocessor</text>
<text text-anchor="middle" x="394" y="-7.5" font-family="Helvetica,sans-Serif" font-size="10.00" fill="#000000">/stringize.hpp</text>
</g>
<!-- Node0&#45;&gt;Node4 -->
<g id="edge4" class="edge">
<title>Node0&#45;&gt;Node4</title>
<path fill="none" stroke="#191970" d="M257.4978,-67.4639C283.3359,-57.6278 317.2866,-44.7034 344.8647,-34.2049"/>
<polygon fill="#191970" stroke="#191970" points="346.2294,-37.4305 354.3299,-30.6017 343.7389,-30.8885 346.2294,-37.4305"/>
</g>
</g>
</svg>
