<?xml version="1.0" encoding="UTF-8" standalone="no"?>
<!DOCTYPE svg PUBLIC "-//W3C//DTD SVG 1.1//EN"
 "http://www.w3.org/Graphics/SVG/1.1/DTD/svg11.dtd">
<!-- Generated by graphviz version 2.38.0 (20140413.2041)
 -->
<!-- Title: global/src/BoostFilesystem.hpp Pages: 1 -->
<svg width="389pt" height="84pt"
 viewBox="0.00 0.00 388.50 84.00" xmlns="http://www.w3.org/2000/svg" xmlns:xlink="http://www.w3.org/1999/xlink">
<g id="graph0" class="graph" transform="scale(1 1) rotate(0) translate(4 80)">
<title>global/src/BoostFilesystem.hpp</title>
<polygon fill="white" stroke="none" points="-4,4 -4,-80 384.5,-80 384.5,4 -4,4"/>
<!-- Node1 -->
<g id="node1" class="node"><title>Node1</title>
<polygon fill="#bfbfbf" stroke="black" points="89,-56.5 89,-75.5 243,-75.5 243,-56.5 89,-56.5"/>
<text text-anchor="middle" x="166" y="-63.5" font-family="Helvetica,sans-Serif" font-size="10.00">global/src/BoostFilesystem.hpp</text>
</g>
<!-- Node2 -->
<g id="node2" class="node"><title>Node2</title>
<polygon fill="white" stroke="#bfbfbf" points="0,-0.5 0,-19.5 94,-19.5 94,-0.5 0,-0.5"/>
<text text-anchor="middle" x="47" y="-7.5" font-family="Helvetica,sans-Serif" font-size="10.00">boost/version.hpp</text>
</g>
<!-- Node1&#45;&gt;Node2 -->
<g id="edge1" class="edge"><title>Node1&#45;&gt;Node2</title>
<path fill="none" stroke="midnightblue" d="M147.144,-56.4435C127.734,-47.6356 97.2699,-33.8116 75.0355,-23.722"/>
<polygon fill="midnightblue" stroke="midnightblue" points="76.3203,-20.4615 65.7677,-19.5164 73.4277,-26.836 76.3203,-20.4615"/>
</g>
<!-- Node3 -->
<g id="node3" class="node"><title>Node3</title>
<polygon fill="white" stroke="#bfbfbf" points="112.5,-0.5 112.5,-19.5 219.5,-19.5 219.5,-0.5 112.5,-0.5"/>
<text text-anchor="middle" x="166" y="-7.5" font-family="Helvetica,sans-Serif" font-size="10.00">boost/filesystem.hpp</text>
</g>
<!-- Node1&#45;&gt;Node3 -->
<g id="edge2" class="edge"><title>Node1&#45;&gt;Node3</title>
<path fill="none" stroke="midnightblue" d="M166,-56.083C166,-49.0059 166,-38.8611 166,-29.9865"/>
<polygon fill="midnightblue" stroke="midnightblue" points="169.5,-29.751 166,-19.7511 162.5,-29.7511 169.5,-29.751"/>
</g>
<!-- Node4 -->
<g id="node4" class="node"><title>Node4</title>
<polygon fill="white" stroke="#bfbfbf" points="237.5,-0.5 237.5,-19.5 380.5,-19.5 380.5,-0.5 237.5,-0.5"/>
<text text-anchor="middle" x="309" y="-7.5" font-family="Helvetica,sans-Serif" font-size="10.00">boost/filesystem/fstream.hpp</text>
</g>
<!-- Node1&#45;&gt;Node4 -->
<g id="edge3" class="edge"><title>Node1&#45;&gt;Node4</title>
<path fill="none" stroke="midnightblue" d="M188.659,-56.4435C212.402,-47.4776 249.909,-33.314 276.738,-23.1827"/>
<polygon fill="midnightblue" stroke="midnightblue" points="278.329,-26.3235 286.447,-19.5164 275.856,-19.7749 278.329,-26.3235"/>
</g>
</g>
</svg>
