<?xml version="1.0" encoding="UTF-8" standalone="no"?>
<!DOCTYPE svg PUBLIC "-//W3C//DTD SVG 1.1//EN"
 "http://www.w3.org/Graphics/SVG/1.1/DTD/svg11.dtd">
<!-- Generated by graphviz version 2.38.0 (20140413.2041)
 -->
<!-- Title: FarhadifarForce&lt; DIM &gt; Pages: 1 -->
<svg width="285pt" height="724pt"
 viewBox="0.00 0.00 284.50 724.00" xmlns="http://www.w3.org/2000/svg" xmlns:xlink="http://www.w3.org/1999/xlink">
<g id="graph0" class="graph" transform="scale(1 1) rotate(0) translate(4 720)">
<title>FarhadifarForce&lt; DIM &gt;</title>
<polygon fill="white" stroke="none" points="-4,4 -4,-720 280.5,-720 280.5,4 -4,4"/>
<!-- Node1 -->
<g id="node1" class="node"><title>Node1</title>
<polygon fill="#bfbfbf" stroke="black" points="-1.42109e-14,-0.5 -1.42109e-14,-255.5 186,-255.5 186,-0.5 -1.42109e-14,-0.5"/>
<text text-anchor="middle" x="93" y="-243.5" font-family="Helvetica,sans-Serif" font-size="10.00">FarhadifarForce&lt; DIM &gt;</text>
<polyline fill="none" stroke="black" points="-1.42109e-14,-236.5 186,-236.5 "/>
<text text-anchor="start" x="8" y="-224.5" font-family="Helvetica,sans-Serif" font-size="10.00"># mAreaElasticityParameter</text>
<text text-anchor="start" x="8" y="-213.5" font-family="Helvetica,sans-Serif" font-size="10.00"># mPerimeterContractilityParameter</text>
<text text-anchor="start" x="8" y="-202.5" font-family="Helvetica,sans-Serif" font-size="10.00"># mLineTensionParameter</text>
<text text-anchor="start" x="8" y="-191.5" font-family="Helvetica,sans-Serif" font-size="10.00"># mBoundaryLineTensionParameter</text>
<polyline fill="none" stroke="black" points="-1.42109e-14,-184.5 186,-184.5 "/>
<text text-anchor="start" x="8" y="-172.5" font-family="Helvetica,sans-Serif" font-size="10.00">+ FarhadifarForce()</text>
<text text-anchor="start" x="8" y="-161.5" font-family="Helvetica,sans-Serif" font-size="10.00">+ ~FarhadifarForce()</text>
<text text-anchor="start" x="8" y="-150.5" font-family="Helvetica,sans-Serif" font-size="10.00">+ AddForceContribution()</text>
<text text-anchor="start" x="8" y="-139.5" font-family="Helvetica,sans-Serif" font-size="10.00">+ GetLineTensionParameter()</text>
<text text-anchor="start" x="8" y="-128.5" font-family="Helvetica,sans-Serif" font-size="10.00">+ GetAreaElasticityParameter()</text>
<text text-anchor="start" x="8" y="-117.5" font-family="Helvetica,sans-Serif" font-size="10.00">+ GetPerimeterContractility</text>
<text text-anchor="start" x="8" y="-106.5" font-family="Helvetica,sans-Serif" font-size="10.00">Parameter()</text>
<text text-anchor="start" x="8" y="-95.5" font-family="Helvetica,sans-Serif" font-size="10.00">+ GetLineTensionParameter()</text>
<text text-anchor="start" x="8" y="-84.5" font-family="Helvetica,sans-Serif" font-size="10.00">+ GetBoundaryLineTensionParameter()</text>
<text text-anchor="start" x="8" y="-73.5" font-family="Helvetica,sans-Serif" font-size="10.00">+ SetAreaElasticityParameter()</text>
<text text-anchor="start" x="8" y="-62.5" font-family="Helvetica,sans-Serif" font-size="10.00">+ SetPerimeterContractility</text>
<text text-anchor="start" x="8" y="-51.5" font-family="Helvetica,sans-Serif" font-size="10.00">Parameter()</text>
<text text-anchor="start" x="8" y="-40.5" font-family="Helvetica,sans-Serif" font-size="10.00">+ SetLineTensionParameter()</text>
<text text-anchor="start" x="8" y="-29.5" font-family="Helvetica,sans-Serif" font-size="10.00">+ SetBoundaryLineTensionParameter()</text>
<text text-anchor="start" x="8" y="-18.5" font-family="Helvetica,sans-Serif" font-size="10.00">+ OutputForceParameters()</text>
<text text-anchor="start" x="8" y="-7.5" font-family="Helvetica,sans-Serif" font-size="10.00">&#45; serialize()</text>
</g>
<!-- Node2 -->
<g id="node2" class="node"><title>Node2</title>
<g id="a_node2"><a xlink:href="classAbstractForce.html" target="_top" xlink:title="{AbstractForce\&lt; DIM \&gt;\n||+ AbstractForce()\l+ ~AbstractForce()\l+ AddForceContribution()\l+ OutputForceInfo()\l+ OutputForceParameters()\l+ WriteDataToVisualizerSetupFile()\l&#45; serialize()\l}">
<polygon fill="white" stroke="black" points="7.5,-293.5 7.5,-416.5 178.5,-416.5 178.5,-293.5 7.5,-293.5"/>
<text text-anchor="middle" x="93" y="-404.5" font-family="Helvetica,sans-Serif" font-size="10.00">AbstractForce&lt; DIM &gt;</text>
<polyline fill="none" stroke="black" points="7.5,-397.5 178.5,-397.5 "/>
<text text-anchor="middle" x="93" y="-385.5" font-family="Helvetica,sans-Serif" font-size="10.00"> </text>
<polyline fill="none" stroke="black" points="7.5,-378.5 178.5,-378.5 "/>
<text text-anchor="start" x="15.5" y="-366.5" font-family="Helvetica,sans-Serif" font-size="10.00">+ AbstractForce()</text>
<text text-anchor="start" x="15.5" y="-355.5" font-family="Helvetica,sans-Serif" font-size="10.00">+ ~AbstractForce()</text>
<text text-anchor="start" x="15.5" y="-344.5" font-family="Helvetica,sans-Serif" font-size="10.00">+ AddForceContribution()</text>
<text text-anchor="start" x="15.5" y="-333.5" font-family="Helvetica,sans-Serif" font-size="10.00">+ OutputForceInfo()</text>
<text text-anchor="start" x="15.5" y="-322.5" font-family="Helvetica,sans-Serif" font-size="10.00">+ OutputForceParameters()</text>
<text text-anchor="start" x="15.5" y="-311.5" font-family="Helvetica,sans-Serif" font-size="10.00">+ WriteDataToVisualizerSetupFile()</text>
<text text-anchor="start" x="15.5" y="-300.5" font-family="Helvetica,sans-Serif" font-size="10.00">&#45; serialize()</text>
</a>
</g>
</g>
<!-- Node2&#45;&gt;Node1 -->
<g id="edge1" class="edge"><title>Node2&#45;&gt;Node1</title>
<path fill="none" stroke="midnightblue" d="M93,-283.197C93,-274.328 93,-265.055 93,-255.649"/>
<polygon fill="none" stroke="midnightblue" points="89.5001,-283.408 93,-293.408 96.5001,-283.408 89.5001,-283.408"/>
</g>
<!-- Node3 -->
<g id="node3" class="node"><title>Node3</title>
<g id="a_node3"><a xlink:href="classIdentifiable.html" target="_top" xlink:title="{Identifiable\n||+ ~Identifiable()\l+ GetIdentifier()\l&#45; TidyTemplatedExportIdentifier()\l}">
<polygon fill="white" stroke="black" points="31.5,-636.5 31.5,-715.5 190.5,-715.5 190.5,-636.5 31.5,-636.5"/>
<text text-anchor="middle" x="111" y="-703.5" font-family="Helvetica,sans-Serif" font-size="10.00">Identifiable</text>
<polyline fill="none" stroke="black" points="31.5,-696.5 190.5,-696.5 "/>
<text text-anchor="middle" x="111" y="-684.5" font-family="Helvetica,sans-Serif" font-size="10.00"> </text>
<polyline fill="none" stroke="black" points="31.5,-677.5 190.5,-677.5 "/>
<text text-anchor="start" x="39.5" y="-665.5" font-family="Helvetica,sans-Serif" font-size="10.00">+ ~Identifiable()</text>
<text text-anchor="start" x="39.5" y="-654.5" font-family="Helvetica,sans-Serif" font-size="10.00">+ GetIdentifier()</text>
<text text-anchor="start" x="39.5" y="-643.5" font-family="Helvetica,sans-Serif" font-size="10.00">&#45; TidyTemplatedExportIdentifier()</text>
</a>
</g>
</g>
<!-- Node3&#45;&gt;Node2 -->
<g id="edge2" class="edge"><title>Node3&#45;&gt;Node2</title>
<path fill="none" stroke="midnightblue" d="M100.003,-626.187C98.3648,-617.19 96.9196,-607.844 96,-599 89.5641,-537.102 89.5486,-465.862 90.6916,-416.594"/>
<polygon fill="none" stroke="midnightblue" points="96.5932,-626.992 101.916,-636.153 103.468,-625.672 96.5932,-626.992"/>
</g>
<!-- Node4 -->
<g id="node4" class="node"><title>Node4</title>
<g id="a_node4"><a xlink:href="classAbstractForce.html" target="_top" xlink:title="{AbstractForce\&lt; ELEMENT\l_DIM, SPACE_DIM \&gt;\n||+ AbstractForce()\l+ ~AbstractForce()\l+ AddForceContribution()\l+ OutputForceInfo()\l+ OutputForceParameters()\l+ WriteDataToVisualizerSetupFile()\l&#45; serialize()\l}">
<polygon fill="white" stroke="black" points="105.5,-464.5 105.5,-598.5 276.5,-598.5 276.5,-464.5 105.5,-464.5"/>
<text text-anchor="start" x="113.5" y="-586.5" font-family="Helvetica,sans-Serif" font-size="10.00">AbstractForce&lt; ELEMENT</text>
<text text-anchor="middle" x="191" y="-575.5" font-family="Helvetica,sans-Serif" font-size="10.00">_DIM, SPACE_DIM &gt;</text>
<polyline fill="none" stroke="black" points="105.5,-568.5 276.5,-568.5 "/>
<text text-anchor="middle" x="191" y="-556.5" font-family="Helvetica,sans-Serif" font-size="10.00"> </text>
<polyline fill="none" stroke="black" points="105.5,-549.5 276.5,-549.5 "/>
<text text-anchor="start" x="113.5" y="-537.5" font-family="Helvetica,sans-Serif" font-size="10.00">+ AbstractForce()</text>
<text text-anchor="start" x="113.5" y="-526.5" font-family="Helvetica,sans-Serif" font-size="10.00">+ ~AbstractForce()</text>
<text text-anchor="start" x="113.5" y="-515.5" font-family="Helvetica,sans-Serif" font-size="10.00">+ AddForceContribution()</text>
<text text-anchor="start" x="113.5" y="-504.5" font-family="Helvetica,sans-Serif" font-size="10.00">+ OutputForceInfo()</text>
<text text-anchor="start" x="113.5" y="-493.5" font-family="Helvetica,sans-Serif" font-size="10.00">+ OutputForceParameters()</text>
<text text-anchor="start" x="113.5" y="-482.5" font-family="Helvetica,sans-Serif" font-size="10.00">+ WriteDataToVisualizerSetupFile()</text>
<text text-anchor="start" x="113.5" y="-471.5" font-family="Helvetica,sans-Serif" font-size="10.00">&#45; serialize()</text>
</a>
</g>
</g>
<!-- Node3&#45;&gt;Node4 -->
<g id="edge4" class="edge"><title>Node3&#45;&gt;Node4</title>
<path fill="none" stroke="midnightblue" d="M137.558,-627.694C142.804,-618.349 148.399,-608.383 153.919,-598.55"/>
<polygon fill="none" stroke="midnightblue" points="134.493,-626.004 132.649,-636.437 140.596,-629.431 134.493,-626.004"/>
</g>
<!-- Node4&#45;&gt;Node2 -->
<g id="edge3" class="edge"><title>Node4&#45;&gt;Node2</title>
<path fill="none" stroke="orange" d="M148.694,-455.169C141.448,-442.267 134.002,-429.009 127.008,-416.555"/>
<polygon fill="orange" stroke="orange" points="145.722,-457.026 153.671,-464.031 151.826,-453.598 145.722,-457.026"/>
<text text-anchor="middle" x="162" y="-438" font-family="Helvetica,sans-Serif" font-size="10.00"> &lt; DIM &gt;</text>
</g>
</g>
</svg>
