<?xml version="1.0" encoding="UTF-8" standalone="no"?>
<!DOCTYPE svg PUBLIC "-//W3C//DTD SVG 1.1//EN"
 "http://www.w3.org/Graphics/SVG/1.1/DTD/svg11.dtd">
<!-- Generated by graphviz version 2.38.0 (20140413.2041)
 -->
<!-- Title: OdeLinearSystemSolver Pages: 1 -->
<svg width="2098pt" height="893pt"
 viewBox="0.00 0.00 2098.02 893.00" xmlns="http://www.w3.org/2000/svg" xmlns:xlink="http://www.w3.org/1999/xlink">
<g id="graph0" class="graph" transform="scale(1 1) rotate(0) translate(4 889)">
<title>OdeLinearSystemSolver</title>
<polygon fill="white" stroke="none" points="-4,4 -4,-889 2094.02,-889 2094.02,4 -4,4"/>
<!-- Node1 -->
<g id="node1" class="node"><title>Node1</title>
<polygon fill="#bfbfbf" stroke="black" points="1031.52,-0.5 1031.52,-123.5 1174.52,-123.5 1174.52,-0.5 1031.52,-0.5"/>
<text text-anchor="middle" x="1103.02" y="-111.5" font-family="Helvetica,sans-Serif" font-size="10.00">OdeLinearSystemSolver</text>
<polyline fill="none" stroke="black" points="1031.52,-104.5 1174.52,-104.5 "/>
<text text-anchor="middle" x="1103.02" y="-92.5" font-family="Helvetica,sans-Serif" font-size="10.00"> </text>
<polyline fill="none" stroke="black" points="1031.52,-85.5 1174.52,-85.5 "/>
<text text-anchor="start" x="1039.52" y="-73.5" font-family="Helvetica,sans-Serif" font-size="10.00">+ OdeLinearSystemSolver()</text>
<text text-anchor="start" x="1039.52" y="-62.5" font-family="Helvetica,sans-Serif" font-size="10.00">+ ~OdeLinearSystemSolver()</text>
<text text-anchor="start" x="1039.52" y="-51.5" font-family="Helvetica,sans-Serif" font-size="10.00">+ GetTimeStep()</text>
<text text-anchor="start" x="1039.52" y="-40.5" font-family="Helvetica,sans-Serif" font-size="10.00">+ rGetLhsMatrix()</text>
<text text-anchor="start" x="1039.52" y="-29.5" font-family="Helvetica,sans-Serif" font-size="10.00">+ rGetForceVector()</text>
<text text-anchor="start" x="1039.52" y="-18.5" font-family="Helvetica,sans-Serif" font-size="10.00">+ SetInitialConditionVector()</text>
<text text-anchor="start" x="1039.52" y="-7.5" font-family="Helvetica,sans-Serif" font-size="10.00">+ SolveOneTimeStep()</text>
</g>
<!-- Node2 -->
<g id="node2" class="node"><title>Node2</title>
<g id="a_node2"><a xlink:href="classdouble.html" target="_top" xlink:title="{double\n||}">
<polygon fill="white" stroke="black" points="198.521,-502 198.521,-559 243.521,-559 243.521,-502 198.521,-502"/>
<text text-anchor="middle" x="221.021" y="-547" font-family="Helvetica,sans-Serif" font-size="10.00">double</text>
<polyline fill="none" stroke="black" points="198.521,-540 243.521,-540 "/>
<text text-anchor="middle" x="221.021" y="-528" font-family="Helvetica,sans-Serif" font-size="10.00"> </text>
<polyline fill="none" stroke="black" points="198.521,-521 243.521,-521 "/>
<text text-anchor="middle" x="221.021" y="-509" font-family="Helvetica,sans-Serif" font-size="10.00"> </text>
</a>
</g>
</g>
<!-- Node2&#45;&gt;Node1 -->
<g id="edge1" class="edge"><title>Node2&#45;&gt;Node1</title>
<path fill="none" stroke="#404040" d="M215.692,-501.894C211.011,-469.055 208.641,-414.256 236.021,-379 430.441,-128.654 842.214,-76.522 1019.24,-65.7555"/>
<polygon fill="none" stroke="#404040" points="1019.34,-65.7499 1025.1,-61.4132 1031.32,-65.0633 1025.56,-69.4001 1019.34,-65.7499"/>
<text text-anchor="middle" x="550.521" y="-263.5" font-family="Helvetica,sans-Serif" font-size="10.00"> &#45;mTimeStep</text>
</g>
<!-- Node3 -->
<g id="node3" class="node"><title>Node3</title>
<g id="a_node3"><a xlink:href="classLinearSystem.html" target="_top" xlink:title="{LinearSystem\n||+ LinearSystem()\l+ LinearSystem()\l+ LinearSystem()\l+ LinearSystem()\l+ ~LinearSystem()\l+ SetMatrixElement()\l+ AddToMatrixElement()\l+ AssembleFinalLinearSystem()\l+ AssembleIntermediateLinear\lSystem()\l+ FinaliseLhsMatrix()\land 41 more...\l&#45; serialize()\l}">
<polygon fill="white" stroke="black" points="1025.02,-171.5 1025.02,-360.5 1181.02,-360.5 1181.02,-171.5 1025.02,-171.5"/>
<text text-anchor="middle" x="1103.02" y="-348.5" font-family="Helvetica,sans-Serif" font-size="10.00">LinearSystem</text>
<polyline fill="none" stroke="black" points="1025.02,-341.5 1181.02,-341.5 "/>
<text text-anchor="middle" x="1103.02" y="-329.5" font-family="Helvetica,sans-Serif" font-size="10.00"> </text>
<polyline fill="none" stroke="black" points="1025.02,-322.5 1181.02,-322.5 "/>
<text text-anchor="start" x="1033.02" y="-310.5" font-family="Helvetica,sans-Serif" font-size="10.00">+ LinearSystem()</text>
<text text-anchor="start" x="1033.02" y="-299.5" font-family="Helvetica,sans-Serif" font-size="10.00">+ LinearSystem()</text>
<text text-anchor="start" x="1033.02" y="-288.5" font-family="Helvetica,sans-Serif" font-size="10.00">+ LinearSystem()</text>
<text text-anchor="start" x="1033.02" y="-277.5" font-family="Helvetica,sans-Serif" font-size="10.00">+ LinearSystem()</text>
<text text-anchor="start" x="1033.02" y="-266.5" font-family="Helvetica,sans-Serif" font-size="10.00">+ ~LinearSystem()</text>
<text text-anchor="start" x="1033.02" y="-255.5" font-family="Helvetica,sans-Serif" font-size="10.00">+ SetMatrixElement()</text>
<text text-anchor="start" x="1033.02" y="-244.5" font-family="Helvetica,sans-Serif" font-size="10.00">+ AddToMatrixElement()</text>
<text text-anchor="start" x="1033.02" y="-233.5" font-family="Helvetica,sans-Serif" font-size="10.00">+ AssembleFinalLinearSystem()</text>
<text text-anchor="start" x="1033.02" y="-222.5" font-family="Helvetica,sans-Serif" font-size="10.00">+ AssembleIntermediateLinear</text>
<text text-anchor="start" x="1033.02" y="-211.5" font-family="Helvetica,sans-Serif" font-size="10.00">System()</text>
<text text-anchor="start" x="1033.02" y="-200.5" font-family="Helvetica,sans-Serif" font-size="10.00">+ FinaliseLhsMatrix()</text>
<text text-anchor="start" x="1033.02" y="-189.5" font-family="Helvetica,sans-Serif" font-size="10.00">and 41 more...</text>
<text text-anchor="start" x="1033.02" y="-178.5" font-family="Helvetica,sans-Serif" font-size="10.00">&#45; serialize()</text>
</a>
</g>
</g>
<!-- Node2&#45;&gt;Node3 -->
<g id="edge10" class="edge"><title>Node2&#45;&gt;Node3</title>
<path fill="none" stroke="#404040" d="M226.846,-501.756C235.751,-460.557 252.695,-387.156 262.021,-379 372.33,-282.523 819.254,-268.359 1012.86,-266.835"/>
<polygon fill="none" stroke="#404040" points="1012.97,-266.835 1018.94,-262.794 1024.97,-266.754 1018.99,-270.794 1012.97,-266.835"/>
<text text-anchor="middle" x="302.521" y="-420.5" font-family="Helvetica,sans-Serif" font-size="10.00"> &#45;mNonZerosUsed</text>
<text text-anchor="middle" x="302.521" y="-409.5" font-family="Helvetica,sans-Serif" font-size="10.00">&#45;mTolerance</text>
</g>
<!-- Node3&#45;&gt;Node1 -->
<g id="edge2" class="edge"><title>Node3&#45;&gt;Node1</title>
<path fill="none" stroke="#404040" d="M1103.02,-171.392C1103.02,-159.493 1103.02,-147.456 1103.02,-135.948"/>
<polygon fill="none" stroke="#404040" points="1103.02,-135.698 1099.02,-129.698 1103.02,-123.698 1107.02,-129.698 1103.02,-135.698"/>
<text text-anchor="middle" x="1140.52" y="-145" font-family="Helvetica,sans-Serif" font-size="10.00"> &#45;mLinearSystem</text>
</g>
<!-- Node4 -->
<g id="node4" class="node"><title>Node4</title>
<g id="a_node4"><a xlink:href="classPCBlockDiagonal.html" target="_top" xlink:title="{PCBlockDiagonal\n||+ PCBlockDiagonal()\l+ ~PCBlockDiagonal()\l&#45; PCBlockDiagonalCreate()\l&#45; PCBlockDiagonalSetUp()\l}">
<polygon fill="white" stroke="black" points="428.521,-485.5 428.521,-575.5 563.521,-575.5 563.521,-485.5 428.521,-485.5"/>
<text text-anchor="middle" x="496.021" y="-563.5" font-family="Helvetica,sans-Serif" font-size="10.00">PCBlockDiagonal</text>
<polyline fill="none" stroke="black" points="428.521,-556.5 563.521,-556.5 "/>
<text text-anchor="middle" x="496.021" y="-544.5" font-family="Helvetica,sans-Serif" font-size="10.00"> </text>
<polyline fill="none" stroke="black" points="428.521,-537.5 563.521,-537.5 "/>
<text text-anchor="start" x="436.521" y="-525.5" font-family="Helvetica,sans-Serif" font-size="10.00">+ PCBlockDiagonal()</text>
<text text-anchor="start" x="436.521" y="-514.5" font-family="Helvetica,sans-Serif" font-size="10.00">+ ~PCBlockDiagonal()</text>
<text text-anchor="start" x="436.521" y="-503.5" font-family="Helvetica,sans-Serif" font-size="10.00">&#45; PCBlockDiagonalCreate()</text>
<text text-anchor="start" x="436.521" y="-492.5" font-family="Helvetica,sans-Serif" font-size="10.00">&#45; PCBlockDiagonalSetUp()</text>
</a>
</g>
</g>
<!-- Node4&#45;&gt;Node3 -->
<g id="edge3" class="edge"><title>Node4&#45;&gt;Node3</title>
<path fill="none" stroke="#404040" d="M488.584,-485.231C485.653,-451.779 487.896,-406.99 514.021,-379 580.513,-307.763 864.818,-280.818 1012.75,-271.482"/>
<polygon fill="none" stroke="#404040" points="1012.92,-271.472 1018.66,-267.111 1024.9,-270.736 1019.16,-275.096 1012.92,-271.472"/>
<text text-anchor="middle" x="562.521" y="-415" font-family="Helvetica,sans-Serif" font-size="10.00"> &#45;mpBlockDiagonalPC</text>
</g>
<!-- Node5 -->
<g id="node5" class="node"><title>Node5</title>
<polygon fill="white" stroke="#bfbfbf" points="143.521,-827.5 143.521,-884.5 174.521,-884.5 174.521,-827.5 143.521,-827.5"/>
<text text-anchor="middle" x="159.021" y="-872.5" font-family="Helvetica,sans-Serif" font-size="10.00">PC</text>
<polyline fill="none" stroke="#bfbfbf" points="143.521,-865.5 174.521,-865.5 "/>
<text text-anchor="middle" x="159.021" y="-853.5" font-family="Helvetica,sans-Serif" font-size="10.00"> </text>
<polyline fill="none" stroke="#bfbfbf" points="143.521,-846.5 174.521,-846.5 "/>
<text text-anchor="middle" x="159.021" y="-834.5" font-family="Helvetica,sans-Serif" font-size="10.00"> </text>
</g>
<!-- Node5&#45;&gt;Node4 -->
<g id="edge4" class="edge"><title>Node5&#45;&gt;Node4</title>
<path fill="none" stroke="#404040" d="M143.296,-833.608C138.732,-826.192 134.353,-817.579 132.021,-809 114.186,-743.381 97.2439,-714.434 132.021,-656 199.115,-543.265 296.184,-633.063 419.021,-587 423.201,-585.432 427.359,-583.575 431.453,-581.506"/>
<polygon fill="none" stroke="#404040" points="431.617,-581.416 434.922,-575.007 442.109,-575.593 438.804,-582.002 431.617,-581.416"/>
<text text-anchor="middle" x="175.021" y="-688" font-family="Helvetica,sans-Serif" font-size="10.00"> +mPetscPCObject</text>
</g>
<!-- Node6 -->
<g id="node6" class="node"><title>Node6</title>
<g id="a_node6"><a xlink:href="structPCBlockDiagonal_1_1PCBlockDiagonalContext.html" target="_top" xlink:title="{PCBlockDiagonal::PCBlock\lDiagonalContext\n||}">
<polygon fill="white" stroke="black" points="403.521,-656.5 403.521,-724.5 542.521,-724.5 542.521,-656.5 403.521,-656.5"/>
<text text-anchor="start" x="411.521" y="-712.5" font-family="Helvetica,sans-Serif" font-size="10.00">PCBlockDiagonal::PCBlock</text>
<text text-anchor="middle" x="473.021" y="-701.5" font-family="Helvetica,sans-Serif" font-size="10.00">DiagonalContext</text>
<polyline fill="none" stroke="black" points="403.521,-694.5 542.521,-694.5 "/>
<text text-anchor="middle" x="473.021" y="-682.5" font-family="Helvetica,sans-Serif" font-size="10.00"> </text>
<polyline fill="none" stroke="black" points="403.521,-675.5 542.521,-675.5 "/>
<text text-anchor="middle" x="473.021" y="-663.5" font-family="Helvetica,sans-Serif" font-size="10.00"> </text>
</a>
</g>
</g>
<!-- Node5&#45;&gt;Node6 -->
<g id="edge6" class="edge"><title>Node5&#45;&gt;Node6</title>
<path fill="none" stroke="#404040" d="M155.001,-827.305C152.988,-801.674 154.701,-764.397 177.021,-743 201.734,-719.309 296.301,-730.914 330.021,-725 349.977,-721.5 371.322,-716.945 391.27,-712.328"/>
<polygon fill="none" stroke="#404040" points="391.477,-712.28 396.402,-707.012 403.158,-709.532 398.233,-714.8 391.477,-712.28"/>
<text text-anchor="middle" x="212.021" y="-779" font-family="Helvetica,sans-Serif" font-size="10.00"> +PC_amg_A11</text>
<text text-anchor="middle" x="212.021" y="-768" font-family="Helvetica,sans-Serif" font-size="10.00">+PC_amg_A22</text>
</g>
<!-- Node14 -->
<g id="node14" class="node"><title>Node14</title>
<g id="a_node14"><a xlink:href="classPCTwoLevelsBlockDiagonal.html" target="_top" xlink:title="{PCTwoLevelsBlockDiagonal\n||+ PCTwoLevelsBlockDiagonal()\l+ ~PCTwoLevelsBlockDiagonal()\l&#45; PCTwoLevelsBlockDiagonal\lCreate()\l&#45; PCTwoLevelsBlockDiagonal\lSetUp()\l}">
<polygon fill="white" stroke="black" points="582.021,-474.5 582.021,-586.5 744.021,-586.5 744.021,-474.5 582.021,-474.5"/>
<text text-anchor="middle" x="663.021" y="-574.5" font-family="Helvetica,sans-Serif" font-size="10.00">PCTwoLevelsBlockDiagonal</text>
<polyline fill="none" stroke="black" points="582.021,-567.5 744.021,-567.5 "/>
<text text-anchor="middle" x="663.021" y="-555.5" font-family="Helvetica,sans-Serif" font-size="10.00"> </text>
<polyline fill="none" stroke="black" points="582.021,-548.5 744.021,-548.5 "/>
<text text-anchor="start" x="590.021" y="-536.5" font-family="Helvetica,sans-Serif" font-size="10.00">+ PCTwoLevelsBlockDiagonal()</text>
<text text-anchor="start" x="590.021" y="-525.5" font-family="Helvetica,sans-Serif" font-size="10.00">+ ~PCTwoLevelsBlockDiagonal()</text>
<text text-anchor="start" x="590.021" y="-514.5" font-family="Helvetica,sans-Serif" font-size="10.00">&#45; PCTwoLevelsBlockDiagonal</text>
<text text-anchor="start" x="590.021" y="-503.5" font-family="Helvetica,sans-Serif" font-size="10.00">Create()</text>
<text text-anchor="start" x="590.021" y="-492.5" font-family="Helvetica,sans-Serif" font-size="10.00">&#45; PCTwoLevelsBlockDiagonal</text>
<text text-anchor="start" x="590.021" y="-481.5" font-family="Helvetica,sans-Serif" font-size="10.00">SetUp()</text>
</a>
</g>
</g>
<!-- Node5&#45;&gt;Node14 -->
<g id="edge16" class="edge"><title>Node5&#45;&gt;Node14</title>
<path fill="none" stroke="#404040" d="M149.781,-827.252C143.455,-802.645 139.089,-766.988 157.021,-743 173.945,-720.36 192.826,-737.815 218.021,-725 262.947,-702.15 263.147,-678.951 308.021,-656 378.251,-620.081 401.406,-623.776 478.021,-605 515.946,-595.706 530.015,-601.217 570.393,-587.14"/>
<polygon fill="none" stroke="#404040" points="570.635,-587.05 574.867,-581.212 581.884,-582.872 577.652,-588.711 570.635,-587.05"/>
<text text-anchor="middle" x="351.021" y="-688" font-family="Helvetica,sans-Serif" font-size="10.00"> +mPetscPCObject</text>
</g>
<!-- Node15 -->
<g id="node15" class="node"><title>Node15</title>
<g id="a_node15"><a xlink:href="structPCTwoLevelsBlockDiagonal_1_1PCTwoLevelsBlockDiagonalContext.html" target="_top" xlink:title="{PCTwoLevelsBlockDiagonal\l::PCTwoLevelsBlockDiagonalContext\n||}">
<polygon fill="white" stroke="black" points="727.021,-656.5 727.021,-724.5 909.021,-724.5 909.021,-656.5 727.021,-656.5"/>
<text text-anchor="start" x="735.021" y="-712.5" font-family="Helvetica,sans-Serif" font-size="10.00">PCTwoLevelsBlockDiagonal</text>
<text text-anchor="middle" x="818.021" y="-701.5" font-family="Helvetica,sans-Serif" font-size="10.00">::PCTwoLevelsBlockDiagonalContext</text>
<polyline fill="none" stroke="black" points="727.021,-694.5 909.021,-694.5 "/>
<text text-anchor="middle" x="818.021" y="-682.5" font-family="Helvetica,sans-Serif" font-size="10.00"> </text>
<polyline fill="none" stroke="black" points="727.021,-675.5 909.021,-675.5 "/>
<text text-anchor="middle" x="818.021" y="-663.5" font-family="Helvetica,sans-Serif" font-size="10.00"> </text>
</a>
</g>
</g>
<!-- Node5&#45;&gt;Node15 -->
<g id="edge18" class="edge"><title>Node5&#45;&gt;Node15</title>
<path fill="none" stroke="#404040" d="M174.619,-855.054C208.362,-854.386 289.184,-848.468 340.021,-809 366.414,-788.51 347.747,-760.806 376.021,-743 406.082,-724.069 645.517,-730.993 714.915,-724.681"/>
<polygon fill="none" stroke="#404040" points="715.105,-724.656 720.543,-719.92 727.007,-723.119 721.568,-727.854 715.105,-724.656"/>
<text text-anchor="middle" x="420.021" y="-784.5" font-family="Helvetica,sans-Serif" font-size="10.00"> +PC_amg_A22_B1</text>
<text text-anchor="middle" x="420.021" y="-773.5" font-family="Helvetica,sans-Serif" font-size="10.00">+PC_amg_A22_B2</text>
<text text-anchor="middle" x="420.021" y="-762.5" font-family="Helvetica,sans-Serif" font-size="10.00">+PC_amg_A11</text>
</g>
<!-- Node21 -->
<g id="node21" class="node"><title>Node21</title>
<g id="a_node21"><a xlink:href="classPCLDUFactorisation.html" target="_top" xlink:title="{PCLDUFactorisation\n||+ PCLDUFactorisation()\l+ ~PCLDUFactorisation()\l&#45; PCLDUFactorisationCreate()\l&#45; PCLDUFactorisationSetUp()\l}">
<polygon fill="white" stroke="black" points="261.521,-485.5 261.521,-575.5 410.521,-575.5 410.521,-485.5 261.521,-485.5"/>
<text text-anchor="middle" x="336.021" y="-563.5" font-family="Helvetica,sans-Serif" font-size="10.00">PCLDUFactorisation</text>
<polyline fill="none" stroke="black" points="261.521,-556.5 410.521,-556.5 "/>
<text text-anchor="middle" x="336.021" y="-544.5" font-family="Helvetica,sans-Serif" font-size="10.00"> </text>
<polyline fill="none" stroke="black" points="261.521,-537.5 410.521,-537.5 "/>
<text text-anchor="start" x="269.521" y="-525.5" font-family="Helvetica,sans-Serif" font-size="10.00">+ PCLDUFactorisation()</text>
<text text-anchor="start" x="269.521" y="-514.5" font-family="Helvetica,sans-Serif" font-size="10.00">+ ~PCLDUFactorisation()</text>
<text text-anchor="start" x="269.521" y="-503.5" font-family="Helvetica,sans-Serif" font-size="10.00">&#45; PCLDUFactorisationCreate()</text>
<text text-anchor="start" x="269.521" y="-492.5" font-family="Helvetica,sans-Serif" font-size="10.00">&#45; PCLDUFactorisationSetUp()</text>
</a>
</g>
</g>
<!-- Node5&#45;&gt;Node21 -->
<g id="edge29" class="edge"><title>Node5&#45;&gt;Node21</title>
<path fill="none" stroke="#404040" d="M143.514,-846.542C96.7459,-819.901 -36.8843,-734.813 10.021,-656 67.22,-559.891 147.054,-625.608 252.021,-587 256.507,-585.35 260.992,-583.42 265.427,-581.287"/>
<polygon fill="none" stroke="#404040" points="265.673,-581.159 269.146,-574.839 276.316,-575.615 272.842,-581.935 265.673,-581.159"/>
<text text-anchor="middle" x="53.021" y="-688" font-family="Helvetica,sans-Serif" font-size="10.00"> +mPetscPCObject</text>
</g>
<!-- Node22 -->
<g id="node22" class="node"><title>Node22</title>
<g id="a_node22"><a xlink:href="structPCLDUFactorisation_1_1PCLDUFactorisationContext.html" target="_top" xlink:title="{PCLDUFactorisation\l::PCLDUFactorisationContext\n||}">
<polygon fill="white" stroke="black" points="561.021,-656.5 561.021,-724.5 709.021,-724.5 709.021,-656.5 561.021,-656.5"/>
<text text-anchor="start" x="569.021" y="-712.5" font-family="Helvetica,sans-Serif" font-size="10.00">PCLDUFactorisation</text>
<text text-anchor="middle" x="635.021" y="-701.5" font-family="Helvetica,sans-Serif" font-size="10.00">::PCLDUFactorisationContext</text>
<polyline fill="none" stroke="black" points="561.021,-694.5 709.021,-694.5 "/>
<text text-anchor="middle" x="635.021" y="-682.5" font-family="Helvetica,sans-Serif" font-size="10.00"> </text>
<polyline fill="none" stroke="black" points="561.021,-675.5 709.021,-675.5 "/>
<text text-anchor="middle" x="635.021" y="-663.5" font-family="Helvetica,sans-Serif" font-size="10.00"> </text>
</a>
</g>
</g>
<!-- Node5&#45;&gt;Node22 -->
<g id="edge31" class="edge"><title>Node5&#45;&gt;Node22</title>
<path fill="none" stroke="#404040" d="M174.627,-850.748C194.195,-844.645 227.53,-831.574 247.021,-809 267.322,-785.488 245.287,-761.792 270.021,-743 293.084,-725.478 488.123,-730.869 548.887,-724.345"/>
<polygon fill="none" stroke="#404040" points="548.893,-724.344 554.219,-719.482 560.755,-722.528 555.429,-727.39 548.893,-724.344"/>
<text text-anchor="middle" x="305.021" y="-779" font-family="Helvetica,sans-Serif" font-size="10.00"> +PC_amg_A11</text>
<text text-anchor="middle" x="305.021" y="-768" font-family="Helvetica,sans-Serif" font-size="10.00">+PC_amg_A22</text>
</g>
<!-- Node6&#45;&gt;Node4 -->
<g id="edge5" class="edge"><title>Node6&#45;&gt;Node4</title>
<path fill="none" stroke="#404040" d="M477.843,-656.378C480.734,-636.512 484.489,-610.722 487.834,-587.741"/>
<polygon fill="none" stroke="#404040" points="487.862,-587.548 484.768,-581.035 489.591,-575.673 492.685,-582.187 487.862,-587.548"/>
<text text-anchor="middle" x="519.521" y="-619" font-family="Helvetica,sans-Serif" font-size="10.00"> +mPCContext</text>
</g>
<!-- Node7 -->
<g id="node7" class="node"><title>Node7</title>
<polygon fill="white" stroke="#bfbfbf" points="544.521,-827.5 544.521,-884.5 609.521,-884.5 609.521,-827.5 544.521,-827.5"/>
<text text-anchor="middle" x="577.021" y="-872.5" font-family="Helvetica,sans-Serif" font-size="10.00">VecScatter</text>
<polyline fill="none" stroke="#bfbfbf" points="544.521,-865.5 609.521,-865.5 "/>
<text text-anchor="middle" x="577.021" y="-853.5" font-family="Helvetica,sans-Serif" font-size="10.00"> </text>
<polyline fill="none" stroke="#bfbfbf" points="544.521,-846.5 609.521,-846.5 "/>
<text text-anchor="middle" x="577.021" y="-834.5" font-family="Helvetica,sans-Serif" font-size="10.00"> </text>
</g>
<!-- Node7&#45;&gt;Node6 -->
<g id="edge7" class="edge"><title>Node7&#45;&gt;Node6</title>
<path fill="none" stroke="#404040" d="M544.481,-847.603C523.655,-841.078 498.004,-829.334 484.021,-809 469.703,-788.179 466.628,-760.147 467.286,-736.686"/>
<polygon fill="none" stroke="#404040" points="467.294,-736.529 463.633,-730.317 467.959,-724.547 471.62,-730.76 467.294,-736.529"/>
<text text-anchor="middle" x="524.521" y="-779" font-family="Helvetica,sans-Serif" font-size="10.00"> +A11_scatter_ctx</text>
<text text-anchor="middle" x="524.521" y="-768" font-family="Helvetica,sans-Serif" font-size="10.00">+A22_scatter_ctx</text>
</g>
<!-- Node7&#45;&gt;Node15 -->
<g id="edge19" class="edge"><title>Node7&#45;&gt;Node15</title>
<path fill="none" stroke="#404040" d="M609.573,-843.296C626.376,-835.791 646.021,-824.514 659.021,-809 678.972,-785.19 660.351,-765.256 682.021,-743 685.326,-739.606 698.384,-733.775 715.192,-727.227"/>
<polygon fill="none" stroke="#404040" points="715.5,-727.11 719.683,-721.237 726.714,-722.84 722.53,-728.713 715.5,-727.11"/>
<text text-anchor="middle" x="729.521" y="-784.5" font-family="Helvetica,sans-Serif" font-size="10.00"> +A11_scatter_ctx</text>
<text text-anchor="middle" x="729.521" y="-773.5" font-family="Helvetica,sans-Serif" font-size="10.00">+A22_B1_scatter_ctx</text>
<text text-anchor="middle" x="729.521" y="-762.5" font-family="Helvetica,sans-Serif" font-size="10.00">+A22_B2_scatter_ctx</text>
</g>
<!-- Node7&#45;&gt;Node22 -->
<g id="edge32" class="edge"><title>Node7&#45;&gt;Node22</title>
<path fill="none" stroke="#404040" d="M571.312,-827.447C567.797,-803.935 565.982,-769.781 578.021,-743 579.384,-739.968 581.022,-737.039 582.868,-734.221"/>
<polygon fill="none" stroke="#404040" points="583.021,-734.022 583.515,-726.828 590.346,-724.517 589.852,-731.711 583.021,-734.022"/>
<text text-anchor="middle" x="618.521" y="-779" font-family="Helvetica,sans-Serif" font-size="10.00"> +A11_scatter_ctx</text>
<text text-anchor="middle" x="618.521" y="-768" font-family="Helvetica,sans-Serif" font-size="10.00">+A22_scatter_ctx</text>
</g>
<!-- Node8 -->
<g id="node8" class="node"><title>Node8</title>
<g id="a_node8"><a xlink:href="classMat.html" target="_top" xlink:title="{Mat\n||}">
<polygon fill="white" stroke="black" points="969.521,-827.5 969.521,-884.5 1002.52,-884.5 1002.52,-827.5 969.521,-827.5"/>
<text text-anchor="middle" x="986.021" y="-872.5" font-family="Helvetica,sans-Serif" font-size="10.00">Mat</text>
<polyline fill="none" stroke="black" points="969.521,-865.5 1002.52,-865.5 "/>
<text text-anchor="middle" x="986.021" y="-853.5" font-family="Helvetica,sans-Serif" font-size="10.00"> </text>
<polyline fill="none" stroke="black" points="969.521,-846.5 1002.52,-846.5 "/>
<text text-anchor="middle" x="986.021" y="-834.5" font-family="Helvetica,sans-Serif" font-size="10.00"> </text>
</a>
</g>
</g>
<!-- Node8&#45;&gt;Node3 -->
<g id="edge22" class="edge"><title>Node8&#45;&gt;Node3</title>
<path fill="none" stroke="#404040" d="M1002.71,-853.199C1042.75,-848.499 1142.38,-834.434 1162.02,-809 1169.3,-799.57 1188.66,-542.912 1152.02,-379 1151.51,-376.709 1150.95,-374.406 1150.35,-372.098"/>
<polygon fill="none" stroke="#404040" points="1150.34,-372.061 1144.83,-367.405 1147.01,-360.532 1152.52,-365.188 1150.34,-372.061"/>
<text text-anchor="middle" x="1213.02" y="-624.5" font-family="Helvetica,sans-Serif" font-size="10.00"> &#45;mPrecondMatrix</text>
<text text-anchor="middle" x="1213.02" y="-613.5" font-family="Helvetica,sans-Serif" font-size="10.00">&#45;mLhsMatrix</text>
</g>
<!-- Node8&#45;&gt;Node6 -->
<g id="edge8" class="edge"><title>Node8&#45;&gt;Node6</title>
<path fill="none" stroke="#404040" d="M969.394,-853.116C927.867,-848.087 821.14,-833.067 796.021,-809 773.98,-787.882 800.657,-762.316 777.021,-743 740.685,-713.305 618.045,-733.872 554.972,-724.8"/>
<polygon fill="none" stroke="#404040" points="554.618,-724.733 547.973,-727.534 542.832,-722.477 549.477,-719.676 554.618,-724.733"/>
<text text-anchor="middle" x="847.521" y="-779" font-family="Helvetica,sans-Serif" font-size="10.00"> +A11_matrix_subblock</text>
<text text-anchor="middle" x="847.521" y="-768" font-family="Helvetica,sans-Serif" font-size="10.00">+A22_matrix_subblock</text>
</g>
<!-- Node8&#45;&gt;Node15 -->
<g id="edge20" class="edge"><title>Node8&#45;&gt;Node15</title>
<path fill="none" stroke="#404040" d="M1002.88,-841.123C1011.59,-832.829 1021.35,-821.49 1026.02,-809 1036.3,-781.525 1044.1,-766.1 1026.02,-743 1012.37,-725.553 966.393,-713.193 921.13,-704.963"/>
<polygon fill="none" stroke="#404040" points="920.857,-704.915 914.26,-707.825 909.036,-702.854 915.633,-699.944 920.857,-704.915"/>
<text text-anchor="middle" x="1097.52" y="-784.5" font-family="Helvetica,sans-Serif" font-size="10.00"> +A22_B2_matrix_subblock</text>
<text text-anchor="middle" x="1097.52" y="-773.5" font-family="Helvetica,sans-Serif" font-size="10.00">+A22_B1_matrix_subblock</text>
<text text-anchor="middle" x="1097.52" y="-762.5" font-family="Helvetica,sans-Serif" font-size="10.00">+A11_matrix_subblock</text>
</g>
<!-- Node8&#45;&gt;Node22 -->
<g id="edge33" class="edge"><title>Node8&#45;&gt;Node22</title>
<path fill="none" stroke="#404040" d="M969.419,-847.115C954.855,-839.372 934.161,-826.224 922.021,-809 904.436,-784.05 926.49,-762.518 903.021,-743 873.62,-718.549 774.483,-732.369 721.212,-724.904"/>
<polygon fill="none" stroke="#404040" points="721.136,-724.889 714.499,-727.709 709.344,-722.667 715.981,-719.847 721.136,-724.889"/>
<text text-anchor="middle" x="972.021" y="-784.5" font-family="Helvetica,sans-Serif" font-size="10.00"> +B_matrix_subblock</text>
<text text-anchor="middle" x="972.021" y="-773.5" font-family="Helvetica,sans-Serif" font-size="10.00">+A11_matrix_subblock</text>
<text text-anchor="middle" x="972.021" y="-762.5" font-family="Helvetica,sans-Serif" font-size="10.00">+A22_matrix_subblock</text>
</g>
<!-- Node9 -->
<g id="node9" class="node"><title>Node9</title>
<g id="a_node9"><a xlink:href="classVec.html" target="_top" xlink:title="{Vec\n||}">
<polygon fill="white" stroke="black" points="1382.02,-827.5 1382.02,-884.5 1416.02,-884.5 1416.02,-827.5 1382.02,-827.5"/>
<text text-anchor="middle" x="1399.02" y="-872.5" font-family="Helvetica,sans-Serif" font-size="10.00">Vec</text>
<polyline fill="none" stroke="black" points="1382.02,-865.5 1416.02,-865.5 "/>
<text text-anchor="middle" x="1399.02" y="-853.5" font-family="Helvetica,sans-Serif" font-size="10.00"> </text>
<polyline fill="none" stroke="black" points="1382.02,-846.5 1416.02,-846.5 "/>
<text text-anchor="middle" x="1399.02" y="-834.5" font-family="Helvetica,sans-Serif" font-size="10.00"> </text>
</a>
</g>
</g>
<!-- Node9&#45;&gt;Node1 -->
<g id="edge36" class="edge"><title>Node9&#45;&gt;Node1</title>
<path fill="none" stroke="#404040" d="M1416.22,-852.399C1496.57,-839.778 1831.02,-781.816 1831.02,-691.5 1831.02,-691.5 1831.02,-691.5 1831.02,-265 1831.02,-132.643 1378.57,-83.4309 1187.05,-68.5286"/>
<polygon fill="none" stroke="#404040" points="1186.78,-68.5085 1180.5,-72.0408 1174.82,-67.5962 1181.1,-64.0639 1186.78,-68.5085"/>
<text text-anchor="middle" x="1872.02" y="-533.5" font-family="Helvetica,sans-Serif" font-size="10.00"> &#45;mCurrentSolution</text>
<text text-anchor="middle" x="1872.02" y="-522.5" font-family="Helvetica,sans-Serif" font-size="10.00">&#45;mForceVector</text>
</g>
<!-- Node9&#45;&gt;Node3 -->
<g id="edge35" class="edge"><title>Node9&#45;&gt;Node3</title>
<path fill="none" stroke="#404040" d="M1416.07,-854.33C1493.67,-851.136 1811.05,-836.47 1845.02,-809 1963.44,-713.245 1976.75,-614.088 1917.02,-474 1893.1,-417.904 1872.66,-406.077 1818.02,-379 1709.7,-325.321 1360.22,-289.057 1193.34,-274.358"/>
<polygon fill="none" stroke="#404040" points="1193.12,-274.339 1186.79,-277.802 1181.16,-273.295 1187.49,-269.832 1193.12,-274.339"/>
<text text-anchor="start" x="1951.02" y="-630" font-family="Helvetica,sans-Serif" font-size="10.00"> &#45;mDirichletBoundaryConditions</text>
<text text-anchor="middle" x="2020.52" y="-619" font-family="Helvetica,sans-Serif" font-size="10.00">Vector</text>
<text text-anchor="middle" x="2020.52" y="-608" font-family="Helvetica,sans-Serif" font-size="10.00">&#45;mRhsVector</text>
</g>
<!-- Node9&#45;&gt;Node6 -->
<g id="edge9" class="edge"><title>Node9&#45;&gt;Node6</title>
<path fill="none" stroke="#404040" d="M1382.01,-854.39C1347.6,-852.423 1268.37,-844.111 1214.02,-809 1182.65,-788.735 1195.37,-759.796 1162.02,-743 1104.06,-713.814 659.007,-737.273 554.709,-724.604"/>
<polygon fill="none" stroke="#404040" points="554.632,-724.592 548.07,-727.58 542.787,-722.671 549.35,-719.683 554.632,-724.592"/>
<text text-anchor="middle" x="1248.02" y="-790" font-family="Helvetica,sans-Serif" font-size="10.00"> +y1_subvector</text>
<text text-anchor="middle" x="1248.02" y="-779" font-family="Helvetica,sans-Serif" font-size="10.00">+x2_subvector</text>
<text text-anchor="middle" x="1248.02" y="-768" font-family="Helvetica,sans-Serif" font-size="10.00">+y2_subvector</text>
<text text-anchor="middle" x="1248.02" y="-757" font-family="Helvetica,sans-Serif" font-size="10.00">+x1_subvector</text>
</g>
<!-- Node9&#45;&gt;Node15 -->
<g id="edge21" class="edge"><title>Node9&#45;&gt;Node15</title>
<path fill="none" stroke="#404040" d="M1402.06,-827.059C1403.16,-801.249 1400.11,-763.848 1377.02,-743 1343.98,-713.174 1073.45,-699.691 921.192,-694.414"/>
<polygon fill="none" stroke="#404040" points="921.083,-694.41 914.95,-698.204 909.09,-694.003 915.222,-690.209 921.083,-694.41"/>
<text text-anchor="middle" x="1438.02" y="-801" font-family="Helvetica,sans-Serif" font-size="10.00"> +y1_subvector</text>
<text text-anchor="middle" x="1438.02" y="-790" font-family="Helvetica,sans-Serif" font-size="10.00">+x21_subvector</text>
<text text-anchor="middle" x="1438.02" y="-779" font-family="Helvetica,sans-Serif" font-size="10.00">+y21_subvector</text>
<text text-anchor="middle" x="1438.02" y="-768" font-family="Helvetica,sans-Serif" font-size="10.00">+x22_subvector</text>
<text text-anchor="middle" x="1438.02" y="-757" font-family="Helvetica,sans-Serif" font-size="10.00">+x1_subvector</text>
<text text-anchor="middle" x="1438.02" y="-746" font-family="Helvetica,sans-Serif" font-size="10.00">+y22_subvector</text>
</g>
<!-- Node9&#45;&gt;Node22 -->
<g id="edge34" class="edge"><title>Node9&#45;&gt;Node22</title>
<path fill="none" stroke="#404040" d="M1381.79,-851.125C1360.63,-845.477 1325.1,-832.942 1305.02,-809 1285.4,-785.614 1310.11,-761.741 1286.02,-743 1262.61,-724.79 809.15,-730.653 721.471,-724.299"/>
<polygon fill="none" stroke="#404040" points="721.212,-724.27 714.797,-727.563 709.289,-722.909 715.704,-719.615 721.212,-724.27"/>
<text text-anchor="middle" x="1339.02" y="-801" font-family="Helvetica,sans-Serif" font-size="10.00"> +y1_subvector</text>
<text text-anchor="middle" x="1339.02" y="-790" font-family="Helvetica,sans-Serif" font-size="10.00">+x2_subvector</text>
<text text-anchor="middle" x="1339.02" y="-779" font-family="Helvetica,sans-Serif" font-size="10.00">+y2_subvector</text>
<text text-anchor="middle" x="1339.02" y="-768" font-family="Helvetica,sans-Serif" font-size="10.00">+x1_subvector</text>
<text text-anchor="middle" x="1339.02" y="-757" font-family="Helvetica,sans-Serif" font-size="10.00">+z</text>
<text text-anchor="middle" x="1339.02" y="-746" font-family="Helvetica,sans-Serif" font-size="10.00">+temp</text>
</g>
<!-- Node10 -->
<g id="node10" class="node"><title>Node10</title>
<polygon fill="white" stroke="#bfbfbf" points="765.521,-502 765.521,-559 802.521,-559 802.521,-502 765.521,-502"/>
<text text-anchor="middle" x="784.021" y="-547" font-family="Helvetica,sans-Serif" font-size="10.00">KSP</text>
<polyline fill="none" stroke="#bfbfbf" points="765.521,-540 802.521,-540 "/>
<text text-anchor="middle" x="784.021" y="-528" font-family="Helvetica,sans-Serif" font-size="10.00"> </text>
<polyline fill="none" stroke="#bfbfbf" points="765.521,-521 802.521,-521 "/>
<text text-anchor="middle" x="784.021" y="-509" font-family="Helvetica,sans-Serif" font-size="10.00"> </text>
</g>
<!-- Node10&#45;&gt;Node3 -->
<g id="edge11" class="edge"><title>Node10&#45;&gt;Node3</title>
<path fill="none" stroke="#404040" d="M778.713,-501.91C774.052,-469.087 771.703,-414.303 799.021,-379 849.782,-313.402 942.939,-286.214 1012.8,-274.951"/>
<polygon fill="none" stroke="#404040" points="1012.82,-274.949 1018.15,-270.096 1024.68,-273.152 1019.35,-278.006 1012.82,-274.949"/>
<text text-anchor="middle" x="829.021" y="-415" font-family="Helvetica,sans-Serif" font-size="10.00"> &#45;mKspSolver</text>
</g>
<!-- Node11 -->
<g id="node11" class="node"><title>Node11</title>
<polygon fill="white" stroke="#bfbfbf" points="846.521,-502 846.521,-559 887.521,-559 887.521,-502 846.521,-502"/>
<text text-anchor="middle" x="867.021" y="-547" font-family="Helvetica,sans-Serif" font-size="10.00">string</text>
<polyline fill="none" stroke="#bfbfbf" points="846.521,-540 887.521,-540 "/>
<text text-anchor="middle" x="867.021" y="-528" font-family="Helvetica,sans-Serif" font-size="10.00"> </text>
<polyline fill="none" stroke="#bfbfbf" points="846.521,-521 887.521,-521 "/>
<text text-anchor="middle" x="867.021" y="-509" font-family="Helvetica,sans-Serif" font-size="10.00"> </text>
</g>
<!-- Node11&#45;&gt;Node3 -->
<g id="edge12" class="edge"><title>Node11&#45;&gt;Node3</title>
<path fill="none" stroke="#404040" d="M863.048,-501.819C859.919,-469.405 859.631,-415.512 885.021,-379 915.254,-335.524 967.613,-307.849 1013.44,-290.888"/>
<polygon fill="none" stroke="#404040" points="1013.63,-290.822 1017.94,-285.043 1024.93,-286.803 1020.62,-292.581 1013.63,-290.822"/>
<text text-anchor="middle" x="912.021" y="-420.5" font-family="Helvetica,sans-Serif" font-size="10.00"> &#45;mKspType</text>
<text text-anchor="middle" x="912.021" y="-409.5" font-family="Helvetica,sans-Serif" font-size="10.00">&#45;mPcType</text>
</g>
<!-- Node12 -->
<g id="node12" class="node"><title>Node12</title>
<g id="a_node12"><a xlink:href="classbool.html" target="_top" xlink:title="{bool\n||}">
<polygon fill="white" stroke="black" points="926.521,-502 926.521,-559 961.521,-559 961.521,-502 926.521,-502"/>
<text text-anchor="middle" x="944.021" y="-547" font-family="Helvetica,sans-Serif" font-size="10.00">bool</text>
<polyline fill="none" stroke="black" points="926.521,-540 961.521,-540 "/>
<text text-anchor="middle" x="944.021" y="-528" font-family="Helvetica,sans-Serif" font-size="10.00"> </text>
<polyline fill="none" stroke="black" points="926.521,-521 961.521,-521 "/>
<text text-anchor="middle" x="944.021" y="-509" font-family="Helvetica,sans-Serif" font-size="10.00"> </text>
</a>
</g>
</g>
<!-- Node12&#45;&gt;Node3 -->
<g id="edge13" class="edge"><title>Node12&#45;&gt;Node3</title>
<path fill="none" stroke="#404040" d="M941.531,-501.774C939.976,-470.036 941.455,-417.481 963.021,-379 975.698,-356.38 994.95,-336.621 1015.15,-320.257"/>
<polygon fill="none" stroke="#404040" points="1015.34,-320.115 1017.61,-313.272 1024.8,-312.74 1022.53,-319.583 1015.34,-320.115"/>
<text text-anchor="middle" x="1031.02" y="-448" font-family="Helvetica,sans-Serif" font-size="10.00"> &#45;mDestroyMatAndVec</text>
<text text-anchor="middle" x="1031.02" y="-437" font-family="Helvetica,sans-Serif" font-size="10.00">&#45;mForceSpectrumReevaluation</text>
<text text-anchor="middle" x="1031.02" y="-426" font-family="Helvetica,sans-Serif" font-size="10.00">&#45;mPrecondMatrixIsNotLhs</text>
<text text-anchor="middle" x="1031.02" y="-415" font-family="Helvetica,sans-Serif" font-size="10.00">&#45;mUseAbsoluteTolerance</text>
<text text-anchor="middle" x="1031.02" y="-404" font-family="Helvetica,sans-Serif" font-size="10.00">&#45;mMatrixIsConstant</text>
<text text-anchor="middle" x="1031.02" y="-393" font-family="Helvetica,sans-Serif" font-size="10.00">&#45;mKspIsSetup</text>
<text text-anchor="middle" x="1031.02" y="-382" font-family="Helvetica,sans-Serif" font-size="10.00">&#45;mUseFixedNumberIterations</text>
</g>
<!-- Node13 -->
<g id="node13" class="node"><title>Node13</title>
<polygon fill="white" stroke="#bfbfbf" points="1072.02,-502 1072.02,-559 1134.02,-559 1134.02,-502 1072.02,-502"/>
<text text-anchor="middle" x="1103.02" y="-547" font-family="Helvetica,sans-Serif" font-size="10.00">PetscReal</text>
<polyline fill="none" stroke="#bfbfbf" points="1072.02,-540 1134.02,-540 "/>
<text text-anchor="middle" x="1103.02" y="-528" font-family="Helvetica,sans-Serif" font-size="10.00"> </text>
<polyline fill="none" stroke="#bfbfbf" points="1072.02,-521 1134.02,-521 "/>
<text text-anchor="middle" x="1103.02" y="-509" font-family="Helvetica,sans-Serif" font-size="10.00"> </text>
</g>
<!-- Node13&#45;&gt;Node3 -->
<g id="edge14" class="edge"><title>Node13&#45;&gt;Node3</title>
<path fill="none" stroke="#404040" d="M1103.02,-501.904C1103.02,-471.207 1103.02,-419.742 1103.02,-372.795"/>
<polygon fill="none" stroke="#404040" points="1103.02,-372.655 1099.02,-366.655 1103.02,-360.655 1107.02,-366.655 1103.02,-372.655"/>
<text text-anchor="middle" x="1127.02" y="-420.5" font-family="Helvetica,sans-Serif" font-size="10.00"> &#45;mEigMax</text>
<text text-anchor="middle" x="1127.02" y="-409.5" font-family="Helvetica,sans-Serif" font-size="10.00">&#45;mEigMin</text>
</g>
<!-- Node14&#45;&gt;Node3 -->
<g id="edge15" class="edge"><title>Node14&#45;&gt;Node3</title>
<path fill="none" stroke="#404040" d="M629.008,-474.468C614.67,-443.582 605.67,-405.957 627.021,-379 674.206,-319.424 888.21,-288.398 1012.62,-275.128"/>
<polygon fill="none" stroke="#404040" points="1012.8,-275.109 1018.36,-270.506 1024.74,-273.861 1019.19,-278.463 1012.8,-275.109"/>
<text text-anchor="middle" x="699.521" y="-415" font-family="Helvetica,sans-Serif" font-size="10.00"> &#45;mpTwoLevelsBlockDiagonalPC</text>
</g>
<!-- Node15&#45;&gt;Node14 -->
<g id="edge17" class="edge"><title>Node15&#45;&gt;Node14</title>
<path fill="none" stroke="#404040" d="M785.528,-656.378C768.206,-638.721 746.295,-616.385 725.807,-595.501"/>
<polygon fill="none" stroke="#404040" points="725.535,-595.224 718.478,-593.742 717.131,-586.658 724.188,-588.14 725.535,-595.224"/>
<text text-anchor="middle" x="797.521" y="-619" font-family="Helvetica,sans-Serif" font-size="10.00"> +mPCContext</text>
</g>
<!-- Node16 -->
<g id="node16" class="node"><title>Node16</title>
<polygon fill="white" stroke="#bfbfbf" points="1194.02,-502 1194.02,-559 1272.02,-559 1272.02,-502 1194.02,-502"/>
<text text-anchor="middle" x="1233.02" y="-547" font-family="Helvetica,sans-Serif" font-size="10.00">MatNullSpace</text>
<polyline fill="none" stroke="#bfbfbf" points="1194.02,-540 1272.02,-540 "/>
<text text-anchor="middle" x="1233.02" y="-528" font-family="Helvetica,sans-Serif" font-size="10.00"> </text>
<polyline fill="none" stroke="#bfbfbf" points="1194.02,-521 1272.02,-521 "/>
<text text-anchor="middle" x="1233.02" y="-509" font-family="Helvetica,sans-Serif" font-size="10.00"> </text>
</g>
<!-- Node16&#45;&gt;Node3 -->
<g id="edge23" class="edge"><title>Node16&#45;&gt;Node3</title>
<path fill="none" stroke="#404040" d="M1219.61,-501.938C1213.24,-488.294 1205.78,-471.47 1200.02,-456 1187.57,-422.525 1192.14,-411.359 1177.02,-379 1175.81,-376.417 1174.55,-373.825 1173.25,-371.23"/>
<polygon fill="none" stroke="#404040" points="1173.23,-371.19 1166.89,-367.743 1167.64,-360.57 1173.97,-364.018 1173.23,-371.19"/>
<text text-anchor="middle" x="1238.02" y="-415" font-family="Helvetica,sans-Serif" font-size="10.00"> &#45;mMatNullSpace</text>
</g>
<!-- Node17 -->
<g id="node17" class="node"><title>Node17</title>
<g id="a_node17"><a xlink:href="classunsigned.html" target="_top" xlink:title="{unsigned\n||}">
<polygon fill="white" stroke="black" points="1290.02,-502 1290.02,-559 1346.02,-559 1346.02,-502 1290.02,-502"/>
<text text-anchor="middle" x="1318.02" y="-547" font-family="Helvetica,sans-Serif" font-size="10.00">unsigned</text>
<polyline fill="none" stroke="black" points="1290.02,-540 1346.02,-540 "/>
<text text-anchor="middle" x="1318.02" y="-528" font-family="Helvetica,sans-Serif" font-size="10.00"> </text>
<polyline fill="none" stroke="black" points="1290.02,-521 1346.02,-521 "/>
<text text-anchor="middle" x="1318.02" y="-509" font-family="Helvetica,sans-Serif" font-size="10.00"> </text>
</a>
</g>
</g>
<!-- Node17&#45;&gt;Node3 -->
<g id="edge24" class="edge"><title>Node17&#45;&gt;Node3</title>
<path fill="none" stroke="#404040" d="M1310.8,-501.675C1299.8,-459.576 1279.72,-384.026 1276.02,-379 1254.4,-349.608 1222.55,-325.861 1192.06,-307.924"/>
<polygon fill="none" stroke="#404040" points="1191.77,-307.762 1184.58,-308.268 1181.35,-301.823 1188.54,-301.317 1191.77,-307.762"/>
<text text-anchor="middle" x="1372.02" y="-426" font-family="Helvetica,sans-Serif" font-size="10.00"> &#45;mEvaluateNumItsEveryNSolves</text>
<text text-anchor="middle" x="1372.02" y="-415" font-family="Helvetica,sans-Serif" font-size="10.00">&#45;mNumSolves</text>
<text text-anchor="middle" x="1372.02" y="-404" font-family="Helvetica,sans-Serif" font-size="10.00">&#45;mRowPreallocation</text>
</g>
<!-- Node18 -->
<g id="node18" class="node"><title>Node18</title>
<polygon fill="white" stroke="#bfbfbf" points="1407.02,-496.5 1407.02,-564.5 1525.02,-564.5 1525.02,-496.5 1407.02,-496.5"/>
<text text-anchor="start" x="1415.02" y="-552.5" font-family="Helvetica,sans-Serif" font-size="10.00">shared_ptr&lt; std::vector</text>
<text text-anchor="middle" x="1466.02" y="-541.5" font-family="Helvetica,sans-Serif" font-size="10.00">&lt; PetscInt &gt; &gt;</text>
<polyline fill="none" stroke="#bfbfbf" points="1407.02,-534.5 1525.02,-534.5 "/>
<text text-anchor="middle" x="1466.02" y="-522.5" font-family="Helvetica,sans-Serif" font-size="10.00"> </text>
<polyline fill="none" stroke="#bfbfbf" points="1407.02,-515.5 1525.02,-515.5 "/>
<text text-anchor="middle" x="1466.02" y="-503.5" font-family="Helvetica,sans-Serif" font-size="10.00"> </text>
</g>
<!-- Node18&#45;&gt;Node3 -->
<g id="edge25" class="edge"><title>Node18&#45;&gt;Node3</title>
<path fill="none" stroke="#404040" d="M1465.87,-496.482C1465.03,-457.675 1461.37,-396.355 1447.02,-379 1385.17,-304.178 1272.6,-278.878 1193.11,-270.576"/>
<polygon fill="none" stroke="#404040" points="1193.09,-270.574 1186.73,-273.983 1181.14,-269.428 1187.5,-266.019 1193.09,-270.574"/>
<text text-anchor="middle" x="1499.52" y="-415" font-family="Helvetica,sans-Serif" font-size="10.00"> &#45;mpBathNodes</text>
</g>
<!-- Node19 -->
<g id="node19" class="node"><title>Node19</title>
<polygon fill="white" stroke="#bfbfbf" points="1543.52,-502 1543.52,-559 1584.52,-559 1584.52,-502 1543.52,-502"/>
<text text-anchor="middle" x="1564.02" y="-547" font-family="Helvetica,sans-Serif" font-size="10.00">void *</text>
<polyline fill="none" stroke="#bfbfbf" points="1543.52,-540 1584.52,-540 "/>
<text text-anchor="middle" x="1564.02" y="-528" font-family="Helvetica,sans-Serif" font-size="10.00"> </text>
<polyline fill="none" stroke="#bfbfbf" points="1543.52,-521 1584.52,-521 "/>
<text text-anchor="middle" x="1564.02" y="-509" font-family="Helvetica,sans-Serif" font-size="10.00"> </text>
</g>
<!-- Node19&#45;&gt;Node3 -->
<g id="edge26" class="edge"><title>Node19&#45;&gt;Node3</title>
<path fill="none" stroke="#404040" d="M1562.77,-501.901C1560.45,-463.448 1554.15,-396.494 1538.02,-379 1491.92,-329.011 1306.76,-295.153 1193.39,-278.648"/>
<polygon fill="none" stroke="#404040" points="1193.18,-278.617 1186.67,-281.724 1181.3,-276.913 1187.8,-273.805 1193.18,-278.617"/>
<text text-anchor="middle" x="1625.02" y="-415" font-family="Helvetica,sans-Serif" font-size="10.00"> &#45;mpConvergenceTestContext</text>
</g>
<!-- Node20 -->
<g id="node20" class="node"><title>Node20</title>
<g id="a_node20"><a xlink:href="classPetscInt.html" target="_top" xlink:title="{PetscInt\n||}">
<polygon fill="white" stroke="black" points="1689.52,-502 1689.52,-559 1742.52,-559 1742.52,-502 1689.52,-502"/>
<text text-anchor="middle" x="1716.02" y="-547" font-family="Helvetica,sans-Serif" font-size="10.00">PetscInt</text>
<polyline fill="none" stroke="black" points="1689.52,-540 1742.52,-540 "/>
<text text-anchor="middle" x="1716.02" y="-528" font-family="Helvetica,sans-Serif" font-size="10.00"> </text>
<polyline fill="none" stroke="black" points="1689.52,-521 1742.52,-521 "/>
<text text-anchor="middle" x="1716.02" y="-509" font-family="Helvetica,sans-Serif" font-size="10.00"> </text>
</a>
</g>
</g>
<!-- Node20&#45;&gt;Node3 -->
<g id="edge27" class="edge"><title>Node20&#45;&gt;Node3</title>
<path fill="none" stroke="#404040" d="M1715.7,-501.797C1714.64,-463.216 1710.42,-396.107 1694.02,-379 1626.36,-308.428 1341.53,-281.175 1193.39,-271.626"/>
<polygon fill="none" stroke="#404040" points="1193.21,-271.614 1186.97,-275.23 1181.23,-270.862 1187.47,-267.246 1193.21,-271.614"/>
<text text-anchor="middle" x="1764.02" y="-426" font-family="Helvetica,sans-Serif" font-size="10.00"> &#45;mOwnershipRangeHi</text>
<text text-anchor="middle" x="1764.02" y="-415" font-family="Helvetica,sans-Serif" font-size="10.00">&#45;mOwnershipRangeLo</text>
<text text-anchor="middle" x="1764.02" y="-404" font-family="Helvetica,sans-Serif" font-size="10.00">&#45;mSize</text>
</g>
<!-- Node21&#45;&gt;Node3 -->
<g id="edge28" class="edge"><title>Node21&#45;&gt;Node3</title>
<path fill="none" stroke="#404040" d="M341.404,-485.408C347.118,-446.293 357.487,-393.212 373.021,-379 465,-294.849 838.45,-273.917 1012.69,-268.716"/>
<polygon fill="none" stroke="#404040" points="1012.89,-268.711 1018.77,-264.541 1024.88,-268.368 1019,-272.538 1012.89,-268.711"/>
<text text-anchor="middle" x="428.521" y="-415" font-family="Helvetica,sans-Serif" font-size="10.00"> &#45;mpLDUFactorisationPC</text>
</g>
<!-- Node22&#45;&gt;Node21 -->
<g id="edge30" class="edge"><title>Node22&#45;&gt;Node21</title>
<path fill="none" stroke="#404040" d="M613.366,-656.484C599.521,-638.201 579.894,-616.837 557.021,-605 502.088,-576.573 476.919,-608.763 419.021,-587 414.584,-585.332 410.148,-583.388 405.764,-581.244"/>
<polygon fill="none" stroke="#404040" points="405.607,-581.162 398.433,-581.893 394.999,-575.552 402.173,-574.821 405.607,-581.162"/>
<text text-anchor="middle" x="629.521" y="-619" font-family="Helvetica,sans-Serif" font-size="10.00"> +mPCContext</text>
</g>
</g>
</svg>
