<?xml version="1.0" encoding="UTF-8" standalone="no"?>
<!DOCTYPE svg PUBLIC "-//W3C//DTD SVG 1.1//EN"
 "http://www.w3.org/Graphics/SVG/1.1/DTD/svg11.dtd">
<!-- Generated by graphviz version 2.38.0 (20140413.2041)
 -->
<!-- Title: CellVecData Pages: 1 -->
<svg width="167pt" height="474pt"
 viewBox="0.00 0.00 167.00 474.00" xmlns="http://www.w3.org/2000/svg" xmlns:xlink="http://www.w3.org/1999/xlink">
<g id="graph0" class="graph" transform="scale(1 1) rotate(0) translate(4 470)">
<title>CellVecData</title>
<polygon fill="white" stroke="none" points="-4,4 -4,-470 163,-470 163,4 -4,4"/>
<!-- Node1 -->
<g id="node1" class="node"><title>Node1</title>
<polygon fill="#bfbfbf" stroke="black" points="33,-0.5 33,-156.5 126,-156.5 126,-0.5 33,-0.5"/>
<text text-anchor="middle" x="79.5" y="-144.5" font-family="Helvetica,sans-Serif" font-size="10.00">CellVecData</text>
<polyline fill="none" stroke="black" points="33,-137.5 126,-137.5 "/>
<text text-anchor="start" x="41" y="-125.5" font-family="Helvetica,sans-Serif" font-size="10.00">&#45; mCellVecData</text>
<text text-anchor="start" x="41" y="-114.5" font-family="Helvetica,sans-Serif" font-size="10.00">&#45; mFreeVecs</text>
<polyline fill="none" stroke="black" points="33,-107.5 126,-107.5 "/>
<text text-anchor="start" x="41" y="-95.5" font-family="Helvetica,sans-Serif" font-size="10.00">+ CellVecData()</text>
<text text-anchor="start" x="41" y="-84.5" font-family="Helvetica,sans-Serif" font-size="10.00">+ CellVecData()</text>
<text text-anchor="start" x="41" y="-73.5" font-family="Helvetica,sans-Serif" font-size="10.00">+ CellVecData()</text>
<text text-anchor="start" x="41" y="-62.5" font-family="Helvetica,sans-Serif" font-size="10.00">+ ~CellVecData()</text>
<text text-anchor="start" x="41" y="-51.5" font-family="Helvetica,sans-Serif" font-size="10.00">+ SetItem()</text>
<text text-anchor="start" x="41" y="-40.5" font-family="Helvetica,sans-Serif" font-size="10.00">+ GetItem()</text>
<text text-anchor="start" x="41" y="-29.5" font-family="Helvetica,sans-Serif" font-size="10.00">+ GetNumItems()</text>
<text text-anchor="start" x="41" y="-18.5" font-family="Helvetica,sans-Serif" font-size="10.00">+ GetKeys()</text>
<text text-anchor="start" x="41" y="-7.5" font-family="Helvetica,sans-Serif" font-size="10.00">&#45; serialize()</text>
</g>
<!-- Node2 -->
<g id="node2" class="node"><title>Node2</title>
<g id="a_node2"><a xlink:href="classAbstractCellProperty.html" target="_top" xlink:title="{AbstractCellProperty\n|&#45; mCellCount\l|+ AbstractCellProperty()\l+ ~AbstractCellProperty()\l+ IsType()\l+ IsSubType()\l+ IsSame()\l+ IsSame()\l+ IncrementCellCount()\l+ DecrementCellCount()\l+ GetCellCount()\l&#45; serialize()\l}">
<polygon fill="white" stroke="black" points="15.5,-193.5 15.5,-349.5 143.5,-349.5 143.5,-193.5 15.5,-193.5"/>
<text text-anchor="middle" x="79.5" y="-337.5" font-family="Helvetica,sans-Serif" font-size="10.00">AbstractCellProperty</text>
<polyline fill="none" stroke="black" points="15.5,-330.5 143.5,-330.5 "/>
<text text-anchor="start" x="23.5" y="-318.5" font-family="Helvetica,sans-Serif" font-size="10.00">&#45; mCellCount</text>
<polyline fill="none" stroke="black" points="15.5,-311.5 143.5,-311.5 "/>
<text text-anchor="start" x="23.5" y="-299.5" font-family="Helvetica,sans-Serif" font-size="10.00">+ AbstractCellProperty()</text>
<text text-anchor="start" x="23.5" y="-288.5" font-family="Helvetica,sans-Serif" font-size="10.00">+ ~AbstractCellProperty()</text>
<text text-anchor="start" x="23.5" y="-277.5" font-family="Helvetica,sans-Serif" font-size="10.00">+ IsType()</text>
<text text-anchor="start" x="23.5" y="-266.5" font-family="Helvetica,sans-Serif" font-size="10.00">+ IsSubType()</text>
<text text-anchor="start" x="23.5" y="-255.5" font-family="Helvetica,sans-Serif" font-size="10.00">+ IsSame()</text>
<text text-anchor="start" x="23.5" y="-244.5" font-family="Helvetica,sans-Serif" font-size="10.00">+ IsSame()</text>
<text text-anchor="start" x="23.5" y="-233.5" font-family="Helvetica,sans-Serif" font-size="10.00">+ IncrementCellCount()</text>
<text text-anchor="start" x="23.5" y="-222.5" font-family="Helvetica,sans-Serif" font-size="10.00">+ DecrementCellCount()</text>
<text text-anchor="start" x="23.5" y="-211.5" font-family="Helvetica,sans-Serif" font-size="10.00">+ GetCellCount()</text>
<text text-anchor="start" x="23.5" y="-200.5" font-family="Helvetica,sans-Serif" font-size="10.00">&#45; serialize()</text>
</a>
</g>
</g>
<!-- Node2&#45;&gt;Node1 -->
<g id="edge1" class="edge"><title>Node2&#45;&gt;Node1</title>
<path fill="none" stroke="midnightblue" d="M79.5,-183.352C79.5,-174.432 79.5,-165.415 79.5,-156.614"/>
<polygon fill="none" stroke="midnightblue" points="76.0001,-183.364 79.5,-193.364 83.0001,-183.364 76.0001,-183.364"/>
</g>
<!-- Node3 -->
<g id="node3" class="node"><title>Node3</title>
<g id="a_node3"><a xlink:href="classIdentifiable.html" target="_top" xlink:title="{Identifiable\n||+ ~Identifiable()\l+ GetIdentifier()\l&#45; TidyTemplatedExportIdentifier()\l}">
<polygon fill="white" stroke="black" points="-1.42109e-14,-386.5 -1.42109e-14,-465.5 159,-465.5 159,-386.5 -1.42109e-14,-386.5"/>
<text text-anchor="middle" x="79.5" y="-453.5" font-family="Helvetica,sans-Serif" font-size="10.00">Identifiable</text>
<polyline fill="none" stroke="black" points="-1.42109e-14,-446.5 159,-446.5 "/>
<text text-anchor="middle" x="79.5" y="-434.5" font-family="Helvetica,sans-Serif" font-size="10.00"> </text>
<polyline fill="none" stroke="black" points="-1.42109e-14,-427.5 159,-427.5 "/>
<text text-anchor="start" x="8" y="-415.5" font-family="Helvetica,sans-Serif" font-size="10.00">+ ~Identifiable()</text>
<text text-anchor="start" x="8" y="-404.5" font-family="Helvetica,sans-Serif" font-size="10.00">+ GetIdentifier()</text>
<text text-anchor="start" x="8" y="-393.5" font-family="Helvetica,sans-Serif" font-size="10.00">&#45; TidyTemplatedExportIdentifier()</text>
</a>
</g>
</g>
<!-- Node3&#45;&gt;Node2 -->
<g id="edge2" class="edge"><title>Node3&#45;&gt;Node2</title>
<path fill="none" stroke="midnightblue" d="M79.5,-376.08C79.5,-367.607 79.5,-358.615 79.5,-349.608"/>
<polygon fill="none" stroke="midnightblue" points="76.0001,-376.123 79.5,-386.123 83.0001,-376.123 76.0001,-376.123"/>
</g>
</g>
</svg>
