<?xml version="1.0" encoding="UTF-8" standalone="no"?>
<!DOCTYPE svg PUBLIC "-//W3C//DTD SVG 1.1//EN"
 "http://www.w3.org/Graphics/SVG/1.1/DTD/svg11.dtd">
<!-- Generated by graphviz version 2.38.0 (20140413.2041)
 -->
<!-- Title: ToroidalHoneycombVertexMeshGenerator Pages: 1 -->
<svg width="193pt" height="237pt"
 viewBox="0.00 0.00 193.00 237.00" xmlns="http://www.w3.org/2000/svg" xmlns:xlink="http://www.w3.org/1999/xlink">
<g id="graph0" class="graph" transform="scale(1 1) rotate(0) translate(4 233)">
<title>ToroidalHoneycombVertexMeshGenerator</title>
<polygon fill="white" stroke="none" points="-4,4 -4,-233 189,-233 189,4 -4,4"/>
<!-- Node1 -->
<g id="node1" class="node"><title>Node1</title>
<polygon fill="#bfbfbf" stroke="black" points="10,-0.5 10,-101.5 175,-101.5 175,-0.5 10,-0.5"/>
<text text-anchor="start" x="18" y="-89.5" font-family="Helvetica,sans-Serif" font-size="10.00">ToroidalHoneycombVertexMesh</text>
<text text-anchor="middle" x="92.5" y="-78.5" font-family="Helvetica,sans-Serif" font-size="10.00">Generator</text>
<polyline fill="none" stroke="black" points="10,-71.5 175,-71.5 "/>
<text text-anchor="middle" x="92.5" y="-59.5" font-family="Helvetica,sans-Serif" font-size="10.00"> </text>
<polyline fill="none" stroke="black" points="10,-52.5 175,-52.5 "/>
<text text-anchor="start" x="18" y="-40.5" font-family="Helvetica,sans-Serif" font-size="10.00">+ ToroidalHoneycombVertexMesh</text>
<text text-anchor="start" x="18" y="-29.5" font-family="Helvetica,sans-Serif" font-size="10.00">Generator()</text>
<text text-anchor="start" x="18" y="-18.5" font-family="Helvetica,sans-Serif" font-size="10.00">+ GetMesh()</text>
<text text-anchor="start" x="18" y="-7.5" font-family="Helvetica,sans-Serif" font-size="10.00">+ GetToroidalMesh()</text>
</g>
<!-- Node2 -->
<g id="node2" class="node"><title>Node2</title>
<g id="a_node2"><a xlink:href="classHoneycombVertexMeshGenerator.html" target="_top" xlink:title="{HoneycombVertexMeshGenerator\n|# mpMesh\l|+ HoneycombVertexMeshGenerator()\l+ HoneycombVertexMeshGenerator()\l+ ~HoneycombVertexMeshGenerator()\l+ GetMesh()\l}">
<polygon fill="white" stroke="black" points="-1.42109e-14,-138.5 -1.42109e-14,-228.5 185,-228.5 185,-138.5 -1.42109e-14,-138.5"/>
<text text-anchor="middle" x="92.5" y="-216.5" font-family="Helvetica,sans-Serif" font-size="10.00">HoneycombVertexMeshGenerator</text>
<polyline fill="none" stroke="black" points="-1.42109e-14,-209.5 185,-209.5 "/>
<text text-anchor="start" x="8" y="-197.5" font-family="Helvetica,sans-Serif" font-size="10.00"># mpMesh</text>
<polyline fill="none" stroke="black" points="-1.42109e-14,-190.5 185,-190.5 "/>
<text text-anchor="start" x="8" y="-178.5" font-family="Helvetica,sans-Serif" font-size="10.00">+ HoneycombVertexMeshGenerator()</text>
<text text-anchor="start" x="8" y="-167.5" font-family="Helvetica,sans-Serif" font-size="10.00">+ HoneycombVertexMeshGenerator()</text>
<text text-anchor="start" x="8" y="-156.5" font-family="Helvetica,sans-Serif" font-size="10.00">+ ~HoneycombVertexMeshGenerator()</text>
<text text-anchor="start" x="8" y="-145.5" font-family="Helvetica,sans-Serif" font-size="10.00">+ GetMesh()</text>
</a>
</g>
</g>
<!-- Node2&#45;&gt;Node1 -->
<g id="edge1" class="edge"><title>Node2&#45;&gt;Node1</title>
<path fill="none" stroke="#8b1a1a" d="M92.5,-128.131C92.5,-119.311 92.5,-110.219 92.5,-101.523"/>
<polygon fill="none" stroke="#8b1a1a" points="89.0001,-128.319 92.5,-138.319 96.0001,-128.319 89.0001,-128.319"/>
</g>
</g>
</svg>
