<?xml version="1.0" encoding="UTF-8" standalone="no"?>
<!DOCTYPE svg PUBLIC "-//W3C//DTD SVG 1.1//EN"
 "http://www.w3.org/Graphics/SVG/1.1/DTD/svg11.dtd">
<!-- Generated by graphviz version 2.38.0 (20140413.2041)
 -->
<!-- Title: ColumnDataReader Pages: 1 -->
<svg width="1004pt" height="325pt"
 viewBox="0.00 0.00 1003.50 325.00" xmlns="http://www.w3.org/2000/svg" xmlns:xlink="http://www.w3.org/1999/xlink">
<g id="graph0" class="graph" transform="scale(1 1) rotate(0) translate(4 321)">
<title>ColumnDataReader</title>
<polygon fill="white" stroke="none" points="-4,4 -4,-321 999.5,-321 999.5,4 -4,4"/>
<!-- Node1 -->
<g id="node1" class="node"><title>Node1</title>
<polygon fill="#bfbfbf" stroke="black" points="402,-0.5 402,-167.5 567,-167.5 567,-0.5 402,-0.5"/>
<text text-anchor="middle" x="484.5" y="-155.5" font-family="Helvetica,sans-Serif" font-size="10.00">ColumnDataReader</text>
<polyline fill="none" stroke="black" points="402,-148.5 567,-148.5 "/>
<text text-anchor="middle" x="484.5" y="-136.5" font-family="Helvetica,sans-Serif" font-size="10.00"> </text>
<polyline fill="none" stroke="black" points="402,-129.5 567,-129.5 "/>
<text text-anchor="start" x="410" y="-117.5" font-family="Helvetica,sans-Serif" font-size="10.00">+ ColumnDataReader()</text>
<text text-anchor="start" x="410" y="-106.5" font-family="Helvetica,sans-Serif" font-size="10.00">+ ColumnDataReader()</text>
<text text-anchor="start" x="410" y="-95.5" font-family="Helvetica,sans-Serif" font-size="10.00">+ GetValues()</text>
<text text-anchor="start" x="410" y="-84.5" font-family="Helvetica,sans-Serif" font-size="10.00">+ GetValues()</text>
<text text-anchor="start" x="410" y="-73.5" font-family="Helvetica,sans-Serif" font-size="10.00">+ GetUnlimitedDimensionValues()</text>
<text text-anchor="start" x="410" y="-62.5" font-family="Helvetica,sans-Serif" font-size="10.00">+ HasValues()</text>
<text text-anchor="start" x="410" y="-51.5" font-family="Helvetica,sans-Serif" font-size="10.00">+ GetFieldWidth()</text>
<text text-anchor="start" x="410" y="-40.5" font-family="Helvetica,sans-Serif" font-size="10.00">&#45; PushColumnEntryFromLine()</text>
<text text-anchor="start" x="410" y="-29.5" font-family="Helvetica,sans-Serif" font-size="10.00">&#45; ReadColumnFromFile()</text>
<text text-anchor="start" x="410" y="-18.5" font-family="Helvetica,sans-Serif" font-size="10.00">&#45; ReadValueFromFile()</text>
<text text-anchor="start" x="410" y="-7.5" font-family="Helvetica,sans-Serif" font-size="10.00">&#45; CheckFiles()</text>
</g>
<!-- Node2 -->
<g id="node2" class="node"><title>Node2</title>
<g id="a_node2"><a xlink:href="classAbstractDataReader.html" target="_top" xlink:title="{AbstractDataReader\n||+ GetValues()\l+ GetValues()\l+ ~AbstractDataReader()\l}">
<polygon fill="white" stroke="black" points="0,-237.5 0,-316.5 127,-316.5 127,-237.5 0,-237.5"/>
<text text-anchor="middle" x="63.5" y="-304.5" font-family="Helvetica,sans-Serif" font-size="10.00">AbstractDataReader</text>
<polyline fill="none" stroke="black" points="0,-297.5 127,-297.5 "/>
<text text-anchor="middle" x="63.5" y="-285.5" font-family="Helvetica,sans-Serif" font-size="10.00"> </text>
<polyline fill="none" stroke="black" points="0,-278.5 127,-278.5 "/>
<text text-anchor="start" x="8" y="-266.5" font-family="Helvetica,sans-Serif" font-size="10.00">+ GetValues()</text>
<text text-anchor="start" x="8" y="-255.5" font-family="Helvetica,sans-Serif" font-size="10.00">+ GetValues()</text>
<text text-anchor="start" x="8" y="-244.5" font-family="Helvetica,sans-Serif" font-size="10.00">+ ~AbstractDataReader()</text>
</a>
</g>
</g>
<!-- Node2&#45;&gt;Node1 -->
<g id="edge1" class="edge"><title>Node2&#45;&gt;Node1</title>
<path fill="none" stroke="midnightblue" d="M136.242,-233.801C164.627,-218.004 197.697,-200.41 228.5,-186 285.301,-159.428 351.15,-133.554 401.839,-114.647"/>
<polygon fill="none" stroke="midnightblue" points="134.217,-230.923 127.199,-238.86 137.635,-237.032 134.217,-230.923"/>
</g>
<!-- Node3 -->
<g id="node3" class="node"><title>Node3</title>
<polygon fill="white" stroke="#bfbfbf" points="145.5,-248.5 145.5,-305.5 235.5,-305.5 235.5,-248.5 145.5,-248.5"/>
<text text-anchor="middle" x="190.5" y="-293.5" font-family="Helvetica,sans-Serif" font-size="10.00">vector&lt; double &gt;</text>
<polyline fill="none" stroke="#bfbfbf" points="145.5,-286.5 235.5,-286.5 "/>
<text text-anchor="middle" x="190.5" y="-274.5" font-family="Helvetica,sans-Serif" font-size="10.00"> </text>
<polyline fill="none" stroke="#bfbfbf" points="145.5,-267.5 235.5,-267.5 "/>
<text text-anchor="middle" x="190.5" y="-255.5" font-family="Helvetica,sans-Serif" font-size="10.00"> </text>
</g>
<!-- Node3&#45;&gt;Node1 -->
<g id="edge2" class="edge"><title>Node3&#45;&gt;Node1</title>
<path fill="none" stroke="#404040" d="M207.881,-248.348C221.205,-228.908 241.073,-203.37 263.5,-186 301.383,-156.66 349.156,-133.472 390.585,-116.754"/>
<polygon fill="none" stroke="#404040" points="390.648,-116.729 394.758,-110.804 401.808,-112.319 397.698,-118.244 390.648,-116.729"/>
<text text-anchor="middle" x="286" y="-200" font-family="Helvetica,sans-Serif" font-size="10.00"> &#45;mValues</text>
</g>
<!-- Node4 -->
<g id="node4" class="node"><title>Node4</title>
<polygon fill="white" stroke="#bfbfbf" points="254,-243 254,-311 361,-311 361,-243 254,-243"/>
<text text-anchor="start" x="262" y="-299" font-family="Helvetica,sans-Serif" font-size="10.00">map&lt; std::string, std</text>
<text text-anchor="middle" x="307.5" y="-288" font-family="Helvetica,sans-Serif" font-size="10.00">::string &gt;</text>
<polyline fill="none" stroke="#bfbfbf" points="254,-281 361,-281 "/>
<text text-anchor="middle" x="307.5" y="-269" font-family="Helvetica,sans-Serif" font-size="10.00"> </text>
<polyline fill="none" stroke="#bfbfbf" points="254,-262 361,-262 "/>
<text text-anchor="middle" x="307.5" y="-250" font-family="Helvetica,sans-Serif" font-size="10.00"> </text>
</g>
<!-- Node4&#45;&gt;Node1 -->
<g id="edge3" class="edge"><title>Node4&#45;&gt;Node1</title>
<path fill="none" stroke="#404040" d="M307.926,-242.755C309.607,-224.619 314.145,-202.558 325.5,-186 342.008,-161.93 366.331,-142.367 391.013,-127.094"/>
<polygon fill="none" stroke="#404040" points="391.275,-126.939 394.391,-120.436 401.592,-120.811 398.476,-127.314 391.275,-126.939"/>
<text text-anchor="middle" x="370.5" y="-200" font-family="Helvetica,sans-Serif" font-size="10.00"> &#45;mVariablesToUnits</text>
</g>
<!-- Node5 -->
<g id="node5" class="node"><title>Node5</title>
<polygon fill="white" stroke="#bfbfbf" points="379,-248.5 379,-305.5 492,-305.5 492,-248.5 379,-248.5"/>
<text text-anchor="middle" x="435.5" y="-293.5" font-family="Helvetica,sans-Serif" font-size="10.00">map&lt; std::string, int &gt;</text>
<polyline fill="none" stroke="#bfbfbf" points="379,-286.5 492,-286.5 "/>
<text text-anchor="middle" x="435.5" y="-274.5" font-family="Helvetica,sans-Serif" font-size="10.00"> </text>
<polyline fill="none" stroke="#bfbfbf" points="379,-267.5 492,-267.5 "/>
<text text-anchor="middle" x="435.5" y="-255.5" font-family="Helvetica,sans-Serif" font-size="10.00"> </text>
</g>
<!-- Node5&#45;&gt;Node1 -->
<g id="edge4" class="edge"><title>Node5&#45;&gt;Node1</title>
<path fill="none" stroke="#404040" d="M425.135,-248.442C419.839,-230.429 415.624,-206.523 421.5,-186 422.161,-183.69 422.892,-181.382 423.686,-179.08"/>
<polygon fill="none" stroke="#404040" points="423.784,-178.826 422.231,-171.784 428.134,-167.642 429.687,-174.684 423.784,-178.826"/>
<text text-anchor="middle" x="474.5" y="-200" font-family="Helvetica,sans-Serif" font-size="10.00"> &#45;mVariablesToColumns</text>
</g>
<!-- Node6 -->
<g id="node6" class="node"><title>Node6</title>
<polygon fill="white" stroke="#bfbfbf" points="535,-248.5 535,-305.5 564,-305.5 564,-248.5 535,-248.5"/>
<text text-anchor="middle" x="549.5" y="-293.5" font-family="Helvetica,sans-Serif" font-size="10.00">int</text>
<polyline fill="none" stroke="#bfbfbf" points="535,-286.5 564,-286.5 "/>
<text text-anchor="middle" x="549.5" y="-274.5" font-family="Helvetica,sans-Serif" font-size="10.00"> </text>
<polyline fill="none" stroke="#bfbfbf" points="535,-267.5 564,-267.5 "/>
<text text-anchor="middle" x="549.5" y="-255.5" font-family="Helvetica,sans-Serif" font-size="10.00"> </text>
</g>
<!-- Node6&#45;&gt;Node1 -->
<g id="edge5" class="edge"><title>Node6&#45;&gt;Node1</title>
<path fill="none" stroke="#404040" d="M543.995,-248.497C540.097,-230.506 534.354,-206.605 527.5,-186 526.713,-183.634 525.894,-181.245 525.048,-178.843"/>
<polygon fill="none" stroke="#404040" points="525.035,-178.807 519.219,-174.544 520.917,-167.535 526.733,-171.798 525.035,-178.807"/>
<text text-anchor="middle" x="593.5" y="-205.5" font-family="Helvetica,sans-Serif" font-size="10.00"> &#45;mNumFixedDimensions</text>
<text text-anchor="middle" x="593.5" y="-194.5" font-family="Helvetica,sans-Serif" font-size="10.00">&#45;mNumVariables</text>
</g>
<!-- Node7 -->
<g id="node7" class="node"><title>Node7</title>
<polygon fill="white" stroke="#bfbfbf" points="664,-248.5 664,-305.5 705,-305.5 705,-248.5 664,-248.5"/>
<text text-anchor="middle" x="684.5" y="-293.5" font-family="Helvetica,sans-Serif" font-size="10.00">string</text>
<polyline fill="none" stroke="#bfbfbf" points="664,-286.5 705,-286.5 "/>
<text text-anchor="middle" x="684.5" y="-274.5" font-family="Helvetica,sans-Serif" font-size="10.00"> </text>
<polyline fill="none" stroke="#bfbfbf" points="664,-267.5 705,-267.5 "/>
<text text-anchor="middle" x="684.5" y="-255.5" font-family="Helvetica,sans-Serif" font-size="10.00"> </text>
</g>
<!-- Node7&#45;&gt;Node1 -->
<g id="edge6" class="edge"><title>Node7&#45;&gt;Node1</title>
<path fill="none" stroke="#404040" d="M680.156,-248.374C675.987,-229.195 668.082,-203.962 653.5,-186 633.34,-161.167 605.337,-140.994 577.918,-125.391"/>
<polygon fill="none" stroke="#404040" points="577.567,-125.198 570.382,-125.815 567.05,-119.419 574.235,-118.803 577.567,-125.198"/>
<text text-anchor="middle" x="717.5" y="-211" font-family="Helvetica,sans-Serif" font-size="10.00"> &#45;mAncillaryFilename</text>
<text text-anchor="middle" x="717.5" y="-200" font-family="Helvetica,sans-Serif" font-size="10.00">&#45;mInfoFilename</text>
<text text-anchor="middle" x="717.5" y="-189" font-family="Helvetica,sans-Serif" font-size="10.00">&#45;mDataFilename</text>
</g>
<!-- Node8 -->
<g id="node8" class="node"><title>Node8</title>
<g id="a_node8"><a xlink:href="classbool.html" target="_top" xlink:title="{bool\n||}">
<polygon fill="white" stroke="black" points="782,-248.5 782,-305.5 817,-305.5 817,-248.5 782,-248.5"/>
<text text-anchor="middle" x="799.5" y="-293.5" font-family="Helvetica,sans-Serif" font-size="10.00">bool</text>
<polyline fill="none" stroke="black" points="782,-286.5 817,-286.5 "/>
<text text-anchor="middle" x="799.5" y="-274.5" font-family="Helvetica,sans-Serif" font-size="10.00"> </text>
<polyline fill="none" stroke="black" points="782,-267.5 817,-267.5 "/>
<text text-anchor="middle" x="799.5" y="-255.5" font-family="Helvetica,sans-Serif" font-size="10.00"> </text>
</a>
</g>
</g>
<!-- Node8&#45;&gt;Node1 -->
<g id="edge7" class="edge"><title>Node8&#45;&gt;Node1</title>
<path fill="none" stroke="#404040" d="M796.015,-248.265C792.167,-228.53 784.141,-202.661 767.5,-186 717.213,-135.653 640.167,-110.284 579.156,-97.569"/>
<polygon fill="none" stroke="#404040" points="578.951,-97.5282 572.287,-100.283 567.181,-95.191 573.845,-92.4362 578.951,-97.5282"/>
<text text-anchor="middle" x="849" y="-200" font-family="Helvetica,sans-Serif" font-size="10.00"> &#45;mHasUnlimitedDimension</text>
</g>
<!-- Node9 -->
<g id="node9" class="node"><title>Node9</title>
<g id="a_node9"><a xlink:href="classunsigned.html" target="_top" xlink:title="{unsigned\n||}">
<polygon fill="white" stroke="black" points="915.5,-248.5 915.5,-305.5 971.5,-305.5 971.5,-248.5 915.5,-248.5"/>
<text text-anchor="middle" x="943.5" y="-293.5" font-family="Helvetica,sans-Serif" font-size="10.00">unsigned</text>
<polyline fill="none" stroke="black" points="915.5,-286.5 971.5,-286.5 "/>
<text text-anchor="middle" x="943.5" y="-274.5" font-family="Helvetica,sans-Serif" font-size="10.00"> </text>
<polyline fill="none" stroke="black" points="915.5,-267.5 971.5,-267.5 "/>
<text text-anchor="middle" x="943.5" y="-255.5" font-family="Helvetica,sans-Serif" font-size="10.00"> </text>
</a>
</g>
</g>
<!-- Node9&#45;&gt;Node1 -->
<g id="edge8" class="edge"><title>Node9&#45;&gt;Node1</title>
<path fill="none" stroke="#404040" d="M941.29,-248.158C938.213,-228.104 930.891,-201.883 913.5,-186 865.238,-141.921 690.327,-111.693 579.303,-96.4597"/>
<polygon fill="none" stroke="#404040" points="578.988,-96.4173 572.507,-99.5775 567.097,-94.8099 573.578,-91.6496 578.988,-96.4173"/>
<text text-anchor="middle" x="965" y="-200" font-family="Helvetica,sans-Serif" font-size="10.00"> &#45;mFieldWidth</text>
</g>
</g>
</svg>
