<?xml version="1.0" encoding="UTF-8" standalone="no"?>
<!DOCTYPE svg PUBLIC "-//W3C//DTD SVG 1.1//EN"
 "http://www.w3.org/Graphics/SVG/1.1/DTD/svg11.dtd">
<!-- Generated by graphviz version 2.38.0 (20140413.2041)
 -->
<!-- Title: AbstractCardiacCellInterface Pages: 1 -->
<svg width="651pt" height="347pt"
 viewBox="0.00 0.00 651.00 347.00" xmlns="http://www.w3.org/2000/svg" xmlns:xlink="http://www.w3.org/1999/xlink">
<g id="graph0" class="graph" transform="scale(1 1) rotate(0) translate(4 343)">
<title>AbstractCardiacCellInterface</title>
<polygon fill="white" stroke="none" points="-4,4 -4,-343 647,-343 647,4 -4,4"/>
<!-- Node1 -->
<g id="node1" class="node"><title>Node1</title>
<polygon fill="#bfbfbf" stroke="black" points="204,-0.5 204,-178.5 368,-178.5 368,-0.5 204,-0.5"/>
<text text-anchor="middle" x="286" y="-166.5" font-family="Helvetica,sans-Serif" font-size="10.00">AbstractCardiacCellInterface</text>
<polyline fill="none" stroke="black" points="204,-159.5 368,-159.5 "/>
<text text-anchor="middle" x="286" y="-147.5" font-family="Helvetica,sans-Serif" font-size="10.00"> </text>
<polyline fill="none" stroke="black" points="204,-140.5 368,-140.5 "/>
<text text-anchor="start" x="212" y="-128.5" font-family="Helvetica,sans-Serif" font-size="10.00">+ AbstractCardiacCellInterface()</text>
<text text-anchor="start" x="212" y="-117.5" font-family="Helvetica,sans-Serif" font-size="10.00">+ ~AbstractCardiacCellInterface()</text>
<text text-anchor="start" x="212" y="-106.5" font-family="Helvetica,sans-Serif" font-size="10.00">+ SetTimestep()</text>
<text text-anchor="start" x="212" y="-95.5" font-family="Helvetica,sans-Serif" font-size="10.00">+ GetNumberOfStateVariables()</text>
<text text-anchor="start" x="212" y="-84.5" font-family="Helvetica,sans-Serif" font-size="10.00">+ GetNumberOfParameters()</text>
<text text-anchor="start" x="212" y="-73.5" font-family="Helvetica,sans-Serif" font-size="10.00">+ GetStdVecStateVariables()</text>
<text text-anchor="start" x="212" y="-62.5" font-family="Helvetica,sans-Serif" font-size="10.00">+ rGetStateVariableNames()</text>
<text text-anchor="start" x="212" y="-51.5" font-family="Helvetica,sans-Serif" font-size="10.00">+ SetStateVariables()</text>
<text text-anchor="start" x="212" y="-40.5" font-family="Helvetica,sans-Serif" font-size="10.00">+ SetStateVariable()</text>
<text text-anchor="start" x="212" y="-29.5" font-family="Helvetica,sans-Serif" font-size="10.00">+ SetStateVariable()</text>
<text text-anchor="start" x="212" y="-18.5" font-family="Helvetica,sans-Serif" font-size="10.00">and 28 more...</text>
<text text-anchor="start" x="212" y="-7.5" font-family="Helvetica,sans-Serif" font-size="10.00">&#45; serialize()</text>
</g>
<!-- Node2 -->
<g id="node2" class="node"><title>Node2</title>
<polygon fill="white" stroke="#bfbfbf" points="0,-270.5 0,-338.5 140,-338.5 140,-270.5 0,-270.5"/>
<text text-anchor="start" x="8" y="-326.5" font-family="Helvetica,sans-Serif" font-size="10.00">shared_ptr&lt; AbstractIvpOde</text>
<text text-anchor="middle" x="70" y="-315.5" font-family="Helvetica,sans-Serif" font-size="10.00">Solver &gt;</text>
<polyline fill="none" stroke="#bfbfbf" points="0,-308.5 140,-308.5 "/>
<text text-anchor="middle" x="70" y="-296.5" font-family="Helvetica,sans-Serif" font-size="10.00"> </text>
<polyline fill="none" stroke="#bfbfbf" points="0,-289.5 140,-289.5 "/>
<text text-anchor="middle" x="70" y="-277.5" font-family="Helvetica,sans-Serif" font-size="10.00"> </text>
</g>
<!-- Node2&#45;&gt;Node1 -->
<g id="edge1" class="edge"><title>Node2&#45;&gt;Node1</title>
<path fill="none" stroke="#404040" d="M79.3375,-270.44C86.9625,-247.861 99.5261,-218.293 118,-197 138.878,-172.936 166.526,-152.385 193.352,-135.941"/>
<polygon fill="none" stroke="#404040" points="193.666,-135.754 196.773,-129.246 203.975,-129.61 200.868,-136.118 193.666,-135.754"/>
<text text-anchor="middle" x="152" y="-222" font-family="Helvetica,sans-Serif" font-size="10.00"> #mpOdeSolver</text>
</g>
<!-- Node3 -->
<g id="node3" class="node"><title>Node3</title>
<g id="a_node3"><a xlink:href="classdouble.html" target="_top" xlink:title="{double\n||}">
<polygon fill="white" stroke="black" points="158.5,-276 158.5,-333 203.5,-333 203.5,-276 158.5,-276"/>
<text text-anchor="middle" x="181" y="-321" font-family="Helvetica,sans-Serif" font-size="10.00">double</text>
<polyline fill="none" stroke="black" points="158.5,-314 203.5,-314 "/>
<text text-anchor="middle" x="181" y="-302" font-family="Helvetica,sans-Serif" font-size="10.00"> </text>
<polyline fill="none" stroke="black" points="158.5,-295 203.5,-295 "/>
<text text-anchor="middle" x="181" y="-283" font-family="Helvetica,sans-Serif" font-size="10.00"> </text>
</a>
</g>
</g>
<!-- Node3&#45;&gt;Node1 -->
<g id="edge2" class="edge"><title>Node3&#45;&gt;Node1</title>
<path fill="none" stroke="#404040" d="M184.662,-275.794C188.304,-253.683 195.113,-222.327 207,-197 208.217,-194.406 209.503,-191.813 210.847,-189.227"/>
<polygon fill="none" stroke="#404040" points="210.887,-189.154 210.282,-181.969 216.682,-178.646 217.287,-185.831 210.887,-189.154"/>
<text text-anchor="middle" x="244" y="-222" font-family="Helvetica,sans-Serif" font-size="10.00"> #mFixedVoltage</text>
</g>
<!-- Node4 -->
<g id="node4" class="node"><title>Node4</title>
<polygon fill="white" stroke="#bfbfbf" points="222,-270.5 222,-338.5 368,-338.5 368,-270.5 222,-270.5"/>
<text text-anchor="start" x="230" y="-326.5" font-family="Helvetica,sans-Serif" font-size="10.00">shared_ptr&lt; AbstractStimulus</text>
<text text-anchor="middle" x="295" y="-315.5" font-family="Helvetica,sans-Serif" font-size="10.00">Function &gt;</text>
<polyline fill="none" stroke="#bfbfbf" points="222,-308.5 368,-308.5 "/>
<text text-anchor="middle" x="295" y="-296.5" font-family="Helvetica,sans-Serif" font-size="10.00"> </text>
<polyline fill="none" stroke="#bfbfbf" points="222,-289.5 368,-289.5 "/>
<text text-anchor="middle" x="295" y="-277.5" font-family="Helvetica,sans-Serif" font-size="10.00"> </text>
</g>
<!-- Node4&#45;&gt;Node1 -->
<g id="edge3" class="edge"><title>Node4&#45;&gt;Node1</title>
<path fill="none" stroke="#404040" d="M289.111,-270.341C288.241,-264.259 287.478,-257.953 287,-252 285.412,-232.234 284.626,-211.063 284.318,-190.773"/>
<polygon fill="none" stroke="#404040" points="284.317,-190.61 280.253,-184.653 284.188,-178.611 288.252,-184.568 284.317,-190.61"/>
<text text-anchor="middle" x="342.5" y="-222" font-family="Helvetica,sans-Serif" font-size="10.00"> #mpIntracellularStimulus</text>
</g>
<!-- Node5 -->
<g id="node5" class="node"><title>Node5</title>
<g id="a_node5"><a xlink:href="classbool.html" target="_top" xlink:title="{bool\n||}">
<polygon fill="white" stroke="black" points="402.5,-276 402.5,-333 437.5,-333 437.5,-276 402.5,-276"/>
<text text-anchor="middle" x="420" y="-321" font-family="Helvetica,sans-Serif" font-size="10.00">bool</text>
<polyline fill="none" stroke="black" points="402.5,-314 437.5,-314 "/>
<text text-anchor="middle" x="420" y="-302" font-family="Helvetica,sans-Serif" font-size="10.00"> </text>
<polyline fill="none" stroke="black" points="402.5,-295 437.5,-295 "/>
<text text-anchor="middle" x="420" y="-283" font-family="Helvetica,sans-Serif" font-size="10.00"> </text>
</a>
</g>
</g>
<!-- Node5&#45;&gt;Node1 -->
<g id="edge4" class="edge"><title>Node5&#45;&gt;Node1</title>
<path fill="none" stroke="#404040" d="M418.803,-275.671C416.803,-253.204 411.571,-221.425 398,-197 391.976,-186.158 384.476,-175.758 376.228,-165.996"/>
<polygon fill="none" stroke="#404040" points="376.073,-165.82 369.1,-163.981 368.116,-156.837 375.089,-158.676 376.073,-165.82"/>
<text text-anchor="start" x="416" y="-244" font-family="Helvetica,sans-Serif" font-size="10.00"> #mHasDefaultStimulusFrom</text>
<text text-anchor="middle" x="479.5" y="-233" font-family="Helvetica,sans-Serif" font-size="10.00">CellML</text>
<text text-anchor="start" x="416" y="-222" font-family="Helvetica,sans-Serif" font-size="10.00">#mSetVoltageDerivativeTo</text>
<text text-anchor="middle" x="479.5" y="-211" font-family="Helvetica,sans-Serif" font-size="10.00">Zero</text>
<text text-anchor="middle" x="479.5" y="-200" font-family="Helvetica,sans-Serif" font-size="10.00">#mIsUsedInTissue</text>
</g>
<!-- Node6 -->
<g id="node6" class="node"><title>Node6</title>
<g id="a_node6"><a xlink:href="classunsigned.html" target="_top" xlink:title="{unsigned\n||}">
<polygon fill="white" stroke="black" points="542,-276 542,-333 598,-333 598,-276 542,-276"/>
<text text-anchor="middle" x="570" y="-321" font-family="Helvetica,sans-Serif" font-size="10.00">unsigned</text>
<polyline fill="none" stroke="black" points="542,-314 598,-314 "/>
<text text-anchor="middle" x="570" y="-302" font-family="Helvetica,sans-Serif" font-size="10.00"> </text>
<polyline fill="none" stroke="black" points="542,-295 598,-295 "/>
<text text-anchor="middle" x="570" y="-283" font-family="Helvetica,sans-Serif" font-size="10.00"> </text>
</a>
</g>
</g>
<!-- Node6&#45;&gt;Node1 -->
<g id="edge5" class="edge"><title>Node6&#45;&gt;Node1</title>
<path fill="none" stroke="#404040" d="M570.846,-275.957C570.123,-252.442 565.479,-219.027 547,-197 505.228,-147.208 436.556,-120.416 380.135,-106.16"/>
<polygon fill="none" stroke="#404040" points="379.961,-106.118 373.191,-108.6 368.296,-103.305 375.066,-100.823 379.961,-106.118"/>
<text text-anchor="middle" x="606" y="-222" font-family="Helvetica,sans-Serif" font-size="10.00"> #mVoltageIndex</text>
</g>
</g>
</svg>
