<?xml version="1.0" encoding="UTF-8" standalone="no"?>
<!DOCTYPE svg PUBLIC "-//W3C//DTD SVG 1.1//EN"
 "http://www.w3.org/Graphics/SVG/1.1/DTD/svg11.dtd">
<!-- Generated by graphviz version 2.38.0 (20140413.2041)
 -->
<!-- Title: CmguiMeshWriter&lt; ELEMENT_DIM, SPACE_DIM &gt; Pages: 1 -->
<svg width="1960pt" height="1135pt"
 viewBox="0.00 0.00 1960.38 1135.00" xmlns="http://www.w3.org/2000/svg" xmlns:xlink="http://www.w3.org/1999/xlink">
<g id="graph0" class="graph" transform="scale(1 1) rotate(0) translate(4 1131)">
<title>CmguiMeshWriter&lt; ELEMENT_DIM, SPACE_DIM &gt;</title>
<polygon fill="white" stroke="none" points="-4,4 -4,-1131 1956.38,-1131 1956.38,4 -4,4"/>
<!-- Node1 -->
<g id="node1" class="node"><title>Node1</title>
<polygon fill="#bfbfbf" stroke="black" points="1659.38,-0.5 1659.38,-200.5 1811.38,-200.5 1811.38,-0.5 1659.38,-0.5"/>
<text text-anchor="start" x="1667.38" y="-188.5" font-family="Helvetica,sans-Serif" font-size="10.00">CmguiMeshWriter&lt; ELEMENT</text>
<text text-anchor="middle" x="1735.38" y="-177.5" font-family="Helvetica,sans-Serif" font-size="10.00">_DIM, SPACE_DIM &gt;</text>
<polyline fill="none" stroke="black" points="1659.38,-170.5 1811.38,-170.5 "/>
<text text-anchor="middle" x="1735.38" y="-158.5" font-family="Helvetica,sans-Serif" font-size="10.00"> </text>
<polyline fill="none" stroke="black" points="1659.38,-151.5 1811.38,-151.5 "/>
<text text-anchor="start" x="1667.38" y="-139.5" font-family="Helvetica,sans-Serif" font-size="10.00">+ CmguiMeshWriter()</text>
<text text-anchor="start" x="1667.38" y="-128.5" font-family="Helvetica,sans-Serif" font-size="10.00">+ WriteFiles()</text>
<text text-anchor="start" x="1667.38" y="-117.5" font-family="Helvetica,sans-Serif" font-size="10.00">+ SetAdditionalFieldNames()</text>
<text text-anchor="start" x="1667.38" y="-106.5" font-family="Helvetica,sans-Serif" font-size="10.00">+ SetRegionNames()</text>
<text text-anchor="start" x="1667.38" y="-95.5" font-family="Helvetica,sans-Serif" font-size="10.00">+ ~CmguiMeshWriter()</text>
<text text-anchor="start" x="1667.38" y="-84.5" font-family="Helvetica,sans-Serif" font-size="10.00"># GetOpenMode()</text>
<text text-anchor="start" x="1667.38" y="-73.5" font-family="Helvetica,sans-Serif" font-size="10.00"># OpenNodeFile()</text>
<text text-anchor="start" x="1667.38" y="-62.5" font-family="Helvetica,sans-Serif" font-size="10.00"># OpenElementFiles()</text>
<text text-anchor="start" x="1667.38" y="-51.5" font-family="Helvetica,sans-Serif" font-size="10.00"># WriteNodeFileHeader()</text>
<text text-anchor="start" x="1667.38" y="-40.5" font-family="Helvetica,sans-Serif" font-size="10.00"># WriteElementsFileHeader()</text>
<text text-anchor="start" x="1667.38" y="-29.5" font-family="Helvetica,sans-Serif" font-size="10.00"># CreateFilesWithHeaders()</text>
<text text-anchor="start" x="1667.38" y="-18.5" font-family="Helvetica,sans-Serif" font-size="10.00"># AppendLocalDataToFiles()</text>
<text text-anchor="start" x="1667.38" y="-7.5" font-family="Helvetica,sans-Serif" font-size="10.00"># WriteFilesFooter()</text>
</g>
<!-- Node2 -->
<g id="node2" class="node"><title>Node2</title>
<g id="a_node2"><a xlink:href="classAbstractTetrahedralMeshWriter.html" target="_top" xlink:title="{AbstractTetrahedralMeshWriter\l\&lt; ELEMENT_DIM, SPACE_DIM \&gt;\n||+ AbstractTetrahedralMeshWriter()\l+ ~AbstractTetrahedralMesh\lWriter()\l+ WriteFilesUsingMesh()\l+ WriteFilesUsingMeshReader\lAndMesh()\l+ GetNextNode()\l+ GetNextElement()\l+ GetNextBoundaryElement()\l+ GetNextCableElement()\l&#45; PostElement()\l&#45; UnpackElement()\l&#45; WriteFilesUsingParallelMesh()\l&#45; WriteNclFile()\l&#45; CreateFilesWithHeaders()\l&#45; AppendLocalDataToFiles()\l&#45; WriteFilesFooter()\l}">
<polygon fill="white" stroke="black" points="1140.38,-259.5 1140.38,-503.5 1310.38,-503.5 1310.38,-259.5 1140.38,-259.5"/>
<text text-anchor="start" x="1148.38" y="-491.5" font-family="Helvetica,sans-Serif" font-size="10.00">AbstractTetrahedralMeshWriter</text>
<text text-anchor="middle" x="1225.38" y="-480.5" font-family="Helvetica,sans-Serif" font-size="10.00">&lt; ELEMENT_DIM, SPACE_DIM &gt;</text>
<polyline fill="none" stroke="black" points="1140.38,-473.5 1310.38,-473.5 "/>
<text text-anchor="middle" x="1225.38" y="-461.5" font-family="Helvetica,sans-Serif" font-size="10.00"> </text>
<polyline fill="none" stroke="black" points="1140.38,-454.5 1310.38,-454.5 "/>
<text text-anchor="start" x="1148.38" y="-442.5" font-family="Helvetica,sans-Serif" font-size="10.00">+ AbstractTetrahedralMeshWriter()</text>
<text text-anchor="start" x="1148.38" y="-431.5" font-family="Helvetica,sans-Serif" font-size="10.00">+ ~AbstractTetrahedralMesh</text>
<text text-anchor="start" x="1148.38" y="-420.5" font-family="Helvetica,sans-Serif" font-size="10.00">Writer()</text>
<text text-anchor="start" x="1148.38" y="-409.5" font-family="Helvetica,sans-Serif" font-size="10.00">+ WriteFilesUsingMesh()</text>
<text text-anchor="start" x="1148.38" y="-398.5" font-family="Helvetica,sans-Serif" font-size="10.00">+ WriteFilesUsingMeshReader</text>
<text text-anchor="start" x="1148.38" y="-387.5" font-family="Helvetica,sans-Serif" font-size="10.00">AndMesh()</text>
<text text-anchor="start" x="1148.38" y="-376.5" font-family="Helvetica,sans-Serif" font-size="10.00">+ GetNextNode()</text>
<text text-anchor="start" x="1148.38" y="-365.5" font-family="Helvetica,sans-Serif" font-size="10.00">+ GetNextElement()</text>
<text text-anchor="start" x="1148.38" y="-354.5" font-family="Helvetica,sans-Serif" font-size="10.00">+ GetNextBoundaryElement()</text>
<text text-anchor="start" x="1148.38" y="-343.5" font-family="Helvetica,sans-Serif" font-size="10.00">+ GetNextCableElement()</text>
<text text-anchor="start" x="1148.38" y="-332.5" font-family="Helvetica,sans-Serif" font-size="10.00">&#45; PostElement()</text>
<text text-anchor="start" x="1148.38" y="-321.5" font-family="Helvetica,sans-Serif" font-size="10.00">&#45; UnpackElement()</text>
<text text-anchor="start" x="1148.38" y="-310.5" font-family="Helvetica,sans-Serif" font-size="10.00">&#45; WriteFilesUsingParallelMesh()</text>
<text text-anchor="start" x="1148.38" y="-299.5" font-family="Helvetica,sans-Serif" font-size="10.00">&#45; WriteNclFile()</text>
<text text-anchor="start" x="1148.38" y="-288.5" font-family="Helvetica,sans-Serif" font-size="10.00">&#45; CreateFilesWithHeaders()</text>
<text text-anchor="start" x="1148.38" y="-277.5" font-family="Helvetica,sans-Serif" font-size="10.00">&#45; AppendLocalDataToFiles()</text>
<text text-anchor="start" x="1148.38" y="-266.5" font-family="Helvetica,sans-Serif" font-size="10.00">&#45; WriteFilesFooter()</text>
</a>
</g>
</g>
<!-- Node2&#45;&gt;Node1 -->
<g id="edge1" class="edge"><title>Node2&#45;&gt;Node1</title>
<path fill="none" stroke="midnightblue" d="M1319.46,-329.033C1417.31,-275.502 1568.62,-192.727 1659.24,-143.156"/>
<polygon fill="none" stroke="midnightblue" points="1317.55,-326.089 1310.46,-333.959 1320.91,-332.23 1317.55,-326.089"/>
</g>
<!-- Node3 -->
<g id="node3" class="node"><title>Node3</title>
<g id="a_node3"><a xlink:href="classAbstractMeshWriter.html" target="_top" xlink:title="{AbstractMeshWriter\l\&lt; ELEMENT_DIM, SPACE_DIM \&gt;\n||+ AbstractMeshWriter()\l+ ~AbstractMeshWriter()\l+ GetOutputDirectory()\l+ GetNumNodes()\l+ GetNumElements()\l+ GetNumBoundaryFaces()\l+ GetNumCableElements()\l+ GetNextNode()\l+ GetNextElement()\l+ GetNextBoundaryElement()\l+ GetNextCableElement()\l+ WriteFiles()\l+ WriteFilesUsingMeshReader()\l}">
<polygon fill="white" stroke="black" points="194.381,-551.5 194.381,-751.5 364.381,-751.5 364.381,-551.5 194.381,-551.5"/>
<text text-anchor="start" x="202.381" y="-739.5" font-family="Helvetica,sans-Serif" font-size="10.00">AbstractMeshWriter</text>
<text text-anchor="middle" x="279.381" y="-728.5" font-family="Helvetica,sans-Serif" font-size="10.00">&lt; ELEMENT_DIM, SPACE_DIM &gt;</text>
<polyline fill="none" stroke="black" points="194.381,-721.5 364.381,-721.5 "/>
<text text-anchor="middle" x="279.381" y="-709.5" font-family="Helvetica,sans-Serif" font-size="10.00"> </text>
<polyline fill="none" stroke="black" points="194.381,-702.5 364.381,-702.5 "/>
<text text-anchor="start" x="202.381" y="-690.5" font-family="Helvetica,sans-Serif" font-size="10.00">+ AbstractMeshWriter()</text>
<text text-anchor="start" x="202.381" y="-679.5" font-family="Helvetica,sans-Serif" font-size="10.00">+ ~AbstractMeshWriter()</text>
<text text-anchor="start" x="202.381" y="-668.5" font-family="Helvetica,sans-Serif" font-size="10.00">+ GetOutputDirectory()</text>
<text text-anchor="start" x="202.381" y="-657.5" font-family="Helvetica,sans-Serif" font-size="10.00">+ GetNumNodes()</text>
<text text-anchor="start" x="202.381" y="-646.5" font-family="Helvetica,sans-Serif" font-size="10.00">+ GetNumElements()</text>
<text text-anchor="start" x="202.381" y="-635.5" font-family="Helvetica,sans-Serif" font-size="10.00">+ GetNumBoundaryFaces()</text>
<text text-anchor="start" x="202.381" y="-624.5" font-family="Helvetica,sans-Serif" font-size="10.00">+ GetNumCableElements()</text>
<text text-anchor="start" x="202.381" y="-613.5" font-family="Helvetica,sans-Serif" font-size="10.00">+ GetNextNode()</text>
<text text-anchor="start" x="202.381" y="-602.5" font-family="Helvetica,sans-Serif" font-size="10.00">+ GetNextElement()</text>
<text text-anchor="start" x="202.381" y="-591.5" font-family="Helvetica,sans-Serif" font-size="10.00">+ GetNextBoundaryElement()</text>
<text text-anchor="start" x="202.381" y="-580.5" font-family="Helvetica,sans-Serif" font-size="10.00">+ GetNextCableElement()</text>
<text text-anchor="start" x="202.381" y="-569.5" font-family="Helvetica,sans-Serif" font-size="10.00">+ WriteFiles()</text>
<text text-anchor="start" x="202.381" y="-558.5" font-family="Helvetica,sans-Serif" font-size="10.00">+ WriteFilesUsingMeshReader()</text>
</a>
</g>
</g>
<!-- Node3&#45;&gt;Node2 -->
<g id="edge2" class="edge"><title>Node3&#45;&gt;Node2</title>
<path fill="none" stroke="midnightblue" d="M373.327,-590.487C415.127,-566.093 465.801,-539.572 514.381,-522 732.183,-443.219 1004.48,-405.599 1140.22,-390.684"/>
<polygon fill="none" stroke="midnightblue" points="371.388,-587.567 364.545,-595.656 374.939,-593.599 371.388,-587.567"/>
</g>
<!-- Node4 -->
<g id="node4" class="node"><title>Node4</title>
<g id="a_node4"><a xlink:href="classOutputFileHandler.html" target="_top" xlink:title="{OutputFileHandler\n||+ OutputFileHandler()\l+ OutputFileHandler()\l+ GetOutputDirectoryFullPath()\l+ GetRelativePath()\l+ SetArchiveDirectory()\l+ OpenOutputFile()\l+ OpenOutputFile()\l+ CopyFileTo()\l+ FindFile()\l+ GetChasteTestOutputDirectory()\l&#45; CommonConstructor()\l&#45; MakeFoldersAndReturnFullPath()\l&#45; AddTrailingSlash()\l}">
<polygon fill="white" stroke="black" points="264.881,-832.5 264.881,-1021.5 431.881,-1021.5 431.881,-832.5 264.881,-832.5"/>
<text text-anchor="middle" x="348.381" y="-1009.5" font-family="Helvetica,sans-Serif" font-size="10.00">OutputFileHandler</text>
<polyline fill="none" stroke="black" points="264.881,-1002.5 431.881,-1002.5 "/>
<text text-anchor="middle" x="348.381" y="-990.5" font-family="Helvetica,sans-Serif" font-size="10.00"> </text>
<polyline fill="none" stroke="black" points="264.881,-983.5 431.881,-983.5 "/>
<text text-anchor="start" x="272.881" y="-971.5" font-family="Helvetica,sans-Serif" font-size="10.00">+ OutputFileHandler()</text>
<text text-anchor="start" x="272.881" y="-960.5" font-family="Helvetica,sans-Serif" font-size="10.00">+ OutputFileHandler()</text>
<text text-anchor="start" x="272.881" y="-949.5" font-family="Helvetica,sans-Serif" font-size="10.00">+ GetOutputDirectoryFullPath()</text>
<text text-anchor="start" x="272.881" y="-938.5" font-family="Helvetica,sans-Serif" font-size="10.00">+ GetRelativePath()</text>
<text text-anchor="start" x="272.881" y="-927.5" font-family="Helvetica,sans-Serif" font-size="10.00">+ SetArchiveDirectory()</text>
<text text-anchor="start" x="272.881" y="-916.5" font-family="Helvetica,sans-Serif" font-size="10.00">+ OpenOutputFile()</text>
<text text-anchor="start" x="272.881" y="-905.5" font-family="Helvetica,sans-Serif" font-size="10.00">+ OpenOutputFile()</text>
<text text-anchor="start" x="272.881" y="-894.5" font-family="Helvetica,sans-Serif" font-size="10.00">+ CopyFileTo()</text>
<text text-anchor="start" x="272.881" y="-883.5" font-family="Helvetica,sans-Serif" font-size="10.00">+ FindFile()</text>
<text text-anchor="start" x="272.881" y="-872.5" font-family="Helvetica,sans-Serif" font-size="10.00">+ GetChasteTestOutputDirectory()</text>
<text text-anchor="start" x="272.881" y="-861.5" font-family="Helvetica,sans-Serif" font-size="10.00">&#45; CommonConstructor()</text>
<text text-anchor="start" x="272.881" y="-850.5" font-family="Helvetica,sans-Serif" font-size="10.00">&#45; MakeFoldersAndReturnFullPath()</text>
<text text-anchor="start" x="272.881" y="-839.5" font-family="Helvetica,sans-Serif" font-size="10.00">&#45; AddTrailingSlash()</text>
</a>
</g>
</g>
<!-- Node4&#45;&gt;Node3 -->
<g id="edge3" class="edge"><title>Node4&#45;&gt;Node3</title>
<path fill="none" stroke="#404040" d="M286.772,-832.31C284.285,-826.256 282.116,-820.128 280.381,-814 275.894,-798.152 273.413,-781.074 272.254,-764.165"/>
<polygon fill="none" stroke="#404040" points="272.24,-763.886 267.943,-758.096 271.635,-751.902 275.932,-757.692 272.24,-763.886"/>
<text text-anchor="middle" x="330.881" y="-789.5" font-family="Helvetica,sans-Serif" font-size="10.00"> #mpOutputFileHandler</text>
</g>
<!-- Node5 -->
<g id="node5" class="node"><title>Node5</title>
<polygon fill="white" stroke="#bfbfbf" points="327.881,-1069.5 327.881,-1126.5 368.881,-1126.5 368.881,-1069.5 327.881,-1069.5"/>
<text text-anchor="middle" x="348.381" y="-1114.5" font-family="Helvetica,sans-Serif" font-size="10.00">string</text>
<polyline fill="none" stroke="#bfbfbf" points="327.881,-1107.5 368.881,-1107.5 "/>
<text text-anchor="middle" x="348.381" y="-1095.5" font-family="Helvetica,sans-Serif" font-size="10.00"> </text>
<polyline fill="none" stroke="#bfbfbf" points="327.881,-1088.5 368.881,-1088.5 "/>
<text text-anchor="middle" x="348.381" y="-1076.5" font-family="Helvetica,sans-Serif" font-size="10.00"> </text>
</g>
<!-- Node5&#45;&gt;Node1 -->
<g id="edge20" class="edge"><title>Node5&#45;&gt;Node1</title>
<path fill="none" stroke="#404040" d="M369.153,-1096.52C528.351,-1092.78 1552.26,-1067.06 1681.38,-1022 1749.72,-998.152 1814.38,-1000.38 1814.38,-928 1814.38,-928 1814.38,-928 1814.38,-380.5 1814.38,-323.638 1799,-262.639 1781.81,-212.224"/>
<polygon fill="none" stroke="#404040" points="1781.73,-211.972 1775.97,-207.625 1777.77,-200.642 1783.53,-204.989 1781.73,-211.972"/>
<text text-anchor="middle" x="1871.38" y="-665.5" font-family="Helvetica,sans-Serif" font-size="10.00"> #mGroupName</text>
<text text-anchor="middle" x="1871.38" y="-654.5" font-family="Helvetica,sans-Serif" font-size="10.00">#mElementFileHeader</text>
<text text-anchor="middle" x="1871.38" y="-643.5" font-family="Helvetica,sans-Serif" font-size="10.00">#mAdditionalFieldHeader</text>
<text text-anchor="middle" x="1871.38" y="-632.5" font-family="Helvetica,sans-Serif" font-size="10.00">#mCoordinatesFileHeader</text>
</g>
<!-- Node5&#45;&gt;Node3 -->
<g id="edge6" class="edge"><title>Node5&#45;&gt;Node3</title>
<path fill="none" stroke="#404040" d="M327.459,-1095.29C263.274,-1089.56 71.275,-1068.74 34.3807,-1022 -17.9368,-955.715 -3.80617,-907.317 34.3807,-832 65.621,-770.384 129.055,-724.821 183.548,-695.019"/>
<polygon fill="none" stroke="#404040" points="183.73,-694.921 187.139,-688.566 194.315,-689.268 190.907,-695.623 183.73,-694.921"/>
<text text-anchor="middle" x="67.3807" y="-924.5" font-family="Helvetica,sans-Serif" font-size="10.00"> #mBaseName</text>
</g>
<!-- Node5&#45;&gt;Node4 -->
<g id="edge4" class="edge"><title>Node5&#45;&gt;Node4</title>
<path fill="none" stroke="#404040" d="M327.553,-1077.88C320.715,-1070.26 313.956,-1060.94 310.381,-1051 308.36,-1045.38 307.175,-1039.59 306.673,-1033.74"/>
<polygon fill="none" stroke="#404040" points="306.672,-1033.65 302.613,-1027.69 306.554,-1021.65 310.613,-1027.61 306.672,-1033.65"/>
<text text-anchor="middle" x="337.881" y="-1043" font-family="Helvetica,sans-Serif" font-size="10.00"> &#45;mDirectory</text>
</g>
<!-- Node5&#45;&gt;Node4 -->
<g id="edge5" class="edge"><title>Node5&#45;&gt;Node4</title>
<path fill="none" stroke="#404040" d="M360.43,-1069.22C362.484,-1063.31 364.301,-1057.03 365.381,-1051 366.384,-1045.39 366.998,-1039.63 367.294,-1033.81"/>
<polygon fill="none" stroke="#404040" points="367.295,-1033.8 363.386,-1027.74 367.477,-1021.81 371.385,-1027.87 367.295,-1033.8"/>
<text text-anchor="middle" x="411.381" y="-1043" font-family="Helvetica,sans-Serif" font-size="10.00"> +SIG_FILE_NAME</text>
</g>
<!-- Node6 -->
<g id="node6" class="node"><title>Node6</title>
<polygon fill="white" stroke="#bfbfbf" points="109.881,-887.5 109.881,-966.5 246.881,-966.5 246.881,-887.5 109.881,-887.5"/>
<text text-anchor="start" x="117.881" y="-954.5" font-family="Helvetica,sans-Serif" font-size="10.00">AbstractMeshReader</text>
<text text-anchor="start" x="117.881" y="-943.5" font-family="Helvetica,sans-Serif" font-size="10.00">&lt; ELEMENT_DIM, SPACE</text>
<text text-anchor="middle" x="178.381" y="-932.5" font-family="Helvetica,sans-Serif" font-size="10.00">_DIM &gt; *</text>
<polyline fill="none" stroke="#bfbfbf" points="109.881,-925.5 246.881,-925.5 "/>
<text text-anchor="middle" x="178.381" y="-913.5" font-family="Helvetica,sans-Serif" font-size="10.00"> </text>
<polyline fill="none" stroke="#bfbfbf" points="109.881,-906.5 246.881,-906.5 "/>
<text text-anchor="middle" x="178.381" y="-894.5" font-family="Helvetica,sans-Serif" font-size="10.00"> </text>
</g>
<!-- Node6&#45;&gt;Node3 -->
<g id="edge7" class="edge"><title>Node6&#45;&gt;Node3</title>
<path fill="none" stroke="#404040" d="M175.768,-887.188C174.944,-854.805 176.955,-807.983 191.381,-770 192.337,-767.483 193.363,-764.974 194.453,-762.477"/>
<polygon fill="none" stroke="#404040" points="194.467,-762.448 193.429,-755.312 199.617,-751.609 200.655,-758.745 194.467,-762.448"/>
<text text-anchor="middle" x="230.381" y="-789.5" font-family="Helvetica,sans-Serif" font-size="10.00"> #mpMeshReader</text>
</g>
<!-- Node7 -->
<g id="node7" class="node"><title>Node7</title>
<g id="a_node7"><a xlink:href="classunsigned.html" target="_top" xlink:title="{unsigned\n||}">
<polygon fill="white" stroke="black" points="508.381,-898.5 508.381,-955.5 564.381,-955.5 564.381,-898.5 508.381,-898.5"/>
<text text-anchor="middle" x="536.381" y="-943.5" font-family="Helvetica,sans-Serif" font-size="10.00">unsigned</text>
<polyline fill="none" stroke="black" points="508.381,-936.5 564.381,-936.5 "/>
<text text-anchor="middle" x="536.381" y="-924.5" font-family="Helvetica,sans-Serif" font-size="10.00"> </text>
<polyline fill="none" stroke="black" points="508.381,-917.5 564.381,-917.5 "/>
<text text-anchor="middle" x="536.381" y="-905.5" font-family="Helvetica,sans-Serif" font-size="10.00"> </text>
</a>
</g>
</g>
<!-- Node7&#45;&gt;Node1 -->
<g id="edge21" class="edge"><title>Node7&#45;&gt;Node1</title>
<path fill="none" stroke="#404040" d="M533.449,-898.364C525.439,-817.558 506.403,-583.542 547.381,-522 674.814,-330.616 1393.81,-170.042 1647.09,-118.696"/>
<polygon fill="none" stroke="#404040" points="1647.39,-118.635 1652.48,-113.527 1659.15,-116.261 1654.06,-121.369 1647.39,-118.635"/>
<text text-anchor="middle" x="606.381" y="-525" font-family="Helvetica,sans-Serif" font-size="10.00"> #mNumNodesPerElement</text>
</g>
<!-- Node7&#45;&gt;Node2 -->
<g id="edge16" class="edge"><title>Node7&#45;&gt;Node2</title>
<path fill="none" stroke="#404040" d="M564.493,-908.527C606.425,-880.855 684.565,-822.762 723.381,-752 767.066,-672.36 701.684,-620.322 760.381,-551 852.677,-441.998 1021.35,-403.507 1128.18,-389.917"/>
<polygon fill="none" stroke="#404040" points="1128.34,-389.898 1133.81,-385.205 1140.25,-388.454 1134.77,-393.147 1128.34,-389.898"/>
<text text-anchor="start" x="760.381" y="-693" font-family="Helvetica,sans-Serif" font-size="10.00"> #mNodeCounterForParallel</text>
<text text-anchor="middle" x="846.381" y="-682" font-family="Helvetica,sans-Serif" font-size="10.00">Mesh</text>
<text text-anchor="middle" x="846.381" y="-671" font-family="Helvetica,sans-Serif" font-size="10.00">#mNodesPerBoundaryElement</text>
<text text-anchor="start" x="760.381" y="-660" font-family="Helvetica,sans-Serif" font-size="10.00">#mCableElementCounterForParallel</text>
<text text-anchor="middle" x="846.381" y="-649" font-family="Helvetica,sans-Serif" font-size="10.00">Mesh</text>
<text text-anchor="start" x="760.381" y="-638" font-family="Helvetica,sans-Serif" font-size="10.00">#mBoundaryElementCounterForParallel</text>
<text text-anchor="middle" x="846.381" y="-627" font-family="Helvetica,sans-Serif" font-size="10.00">Mesh</text>
<text text-anchor="middle" x="846.381" y="-616" font-family="Helvetica,sans-Serif" font-size="10.00">#mElementCounterForParallelMesh</text>
<text text-anchor="middle" x="846.381" y="-605" font-family="Helvetica,sans-Serif" font-size="10.00">#mNodesPerElement</text>
</g>
<!-- Node7&#45;&gt;Node3 -->
<g id="edge8" class="edge"><title>Node7&#45;&gt;Node3</title>
<path fill="none" stroke="#404040" d="M512.27,-898.118C493.94,-878.045 467.353,-851.226 440.381,-832 425.814,-821.617 417.143,-826.535 404.381,-814 388.638,-798.538 393.809,-788.233 381.381,-770 378.346,-765.548 375.165,-761.076 371.879,-756.615"/>
<polygon fill="none" stroke="#404040" points="371.761,-756.458 364.954,-754.077 364.534,-746.878 371.34,-749.259 371.761,-756.458"/>
<text text-anchor="middle" x="463.381" y="-806" font-family="Helvetica,sans-Serif" font-size="10.00"> #mNumCableElements</text>
<text text-anchor="middle" x="463.381" y="-795" font-family="Helvetica,sans-Serif" font-size="10.00">#mNumElements</text>
<text text-anchor="middle" x="463.381" y="-784" font-family="Helvetica,sans-Serif" font-size="10.00">#mNumBoundaryElements</text>
<text text-anchor="middle" x="463.381" y="-773" font-family="Helvetica,sans-Serif" font-size="10.00">#mNumNodes</text>
</g>
<!-- Node8 -->
<g id="node8" class="node"><title>Node8</title>
<polygon fill="white" stroke="#bfbfbf" points="1136.88,-617.5 1136.88,-685.5 1313.88,-685.5 1313.88,-617.5 1136.88,-617.5"/>
<text text-anchor="start" x="1144.88" y="-673.5" font-family="Helvetica,sans-Serif" font-size="10.00">DistributedTetrahedralMesh</text>
<text text-anchor="middle" x="1225.38" y="-662.5" font-family="Helvetica,sans-Serif" font-size="10.00">&lt; ELEMENT_DIM, SPACE_DIM &gt; *</text>
<polyline fill="none" stroke="#bfbfbf" points="1136.88,-655.5 1313.88,-655.5 "/>
<text text-anchor="middle" x="1225.38" y="-643.5" font-family="Helvetica,sans-Serif" font-size="10.00"> </text>
<polyline fill="none" stroke="#bfbfbf" points="1136.88,-636.5 1313.88,-636.5 "/>
<text text-anchor="middle" x="1225.38" y="-624.5" font-family="Helvetica,sans-Serif" font-size="10.00"> </text>
</g>
<!-- Node8&#45;&gt;Node2 -->
<g id="edge9" class="edge"><title>Node8&#45;&gt;Node2</title>
<path fill="none" stroke="#404040" d="M1225.38,-617.369C1225.38,-591.463 1225.38,-553.619 1225.38,-515.844"/>
<polygon fill="none" stroke="#404040" points="1225.38,-515.597 1221.38,-509.597 1225.38,-503.597 1229.38,-509.597 1225.38,-515.597"/>
<text text-anchor="middle" x="1272.38" y="-525" font-family="Helvetica,sans-Serif" font-size="10.00"> #mpDistributedMesh</text>
</g>
<!-- Node9 -->
<g id="node9" class="node"><title>Node9</title>
<polygon fill="white" stroke="#bfbfbf" points="941.881,-617.5 941.881,-685.5 1118.88,-685.5 1118.88,-617.5 941.881,-617.5"/>
<text text-anchor="start" x="949.881" y="-673.5" font-family="Helvetica,sans-Serif" font-size="10.00">AbstractTetrahedralMesh</text>
<text text-anchor="middle" x="1030.38" y="-662.5" font-family="Helvetica,sans-Serif" font-size="10.00">&lt; ELEMENT_DIM, SPACE_DIM &gt; *</text>
<polyline fill="none" stroke="#bfbfbf" points="941.881,-655.5 1118.88,-655.5 "/>
<text text-anchor="middle" x="1030.38" y="-643.5" font-family="Helvetica,sans-Serif" font-size="10.00"> </text>
<polyline fill="none" stroke="#bfbfbf" points="941.881,-636.5 1118.88,-636.5 "/>
<text text-anchor="middle" x="1030.38" y="-624.5" font-family="Helvetica,sans-Serif" font-size="10.00"> </text>
</g>
<!-- Node9&#45;&gt;Node2 -->
<g id="edge10" class="edge"><title>Node9&#45;&gt;Node2</title>
<path fill="none" stroke="#404040" d="M1054.49,-617.369C1074.44,-589.941 1104.14,-549.13 1133.2,-509.187"/>
<polygon fill="none" stroke="#404040" points="1133.31,-509.036 1133.61,-501.831 1140.37,-499.333 1140.08,-506.538 1133.31,-509.036"/>
<text text-anchor="middle" x="1145.38" y="-525" font-family="Helvetica,sans-Serif" font-size="10.00"> #mpMesh</text>
</g>
<!-- Node10 -->
<g id="node10" class="node"><title>Node10</title>
<g id="a_node10"><a xlink:href="classNodeMap.html" target="_top" xlink:title="{NodeMap\n||+ NodeMap()\l+ Resize()\l+ ResetToIdentity()\l+ SetNewIndex()\l+ SetDeleted()\l+ IsDeleted()\l+ GetNewIndex()\l+ IsIdentityMap()\l+ GetSize()\l}">
<polygon fill="white" stroke="black" points="1450.88,-579 1450.88,-724 1551.88,-724 1551.88,-579 1450.88,-579"/>
<text text-anchor="middle" x="1501.38" y="-712" font-family="Helvetica,sans-Serif" font-size="10.00">NodeMap</text>
<polyline fill="none" stroke="black" points="1450.88,-705 1551.88,-705 "/>
<text text-anchor="middle" x="1501.38" y="-693" font-family="Helvetica,sans-Serif" font-size="10.00"> </text>
<polyline fill="none" stroke="black" points="1450.88,-686 1551.88,-686 "/>
<text text-anchor="start" x="1458.88" y="-674" font-family="Helvetica,sans-Serif" font-size="10.00">+ NodeMap()</text>
<text text-anchor="start" x="1458.88" y="-663" font-family="Helvetica,sans-Serif" font-size="10.00">+ Resize()</text>
<text text-anchor="start" x="1458.88" y="-652" font-family="Helvetica,sans-Serif" font-size="10.00">+ ResetToIdentity()</text>
<text text-anchor="start" x="1458.88" y="-641" font-family="Helvetica,sans-Serif" font-size="10.00">+ SetNewIndex()</text>
<text text-anchor="start" x="1458.88" y="-630" font-family="Helvetica,sans-Serif" font-size="10.00">+ SetDeleted()</text>
<text text-anchor="start" x="1458.88" y="-619" font-family="Helvetica,sans-Serif" font-size="10.00">+ IsDeleted()</text>
<text text-anchor="start" x="1458.88" y="-608" font-family="Helvetica,sans-Serif" font-size="10.00">+ GetNewIndex()</text>
<text text-anchor="start" x="1458.88" y="-597" font-family="Helvetica,sans-Serif" font-size="10.00">+ IsIdentityMap()</text>
<text text-anchor="start" x="1458.88" y="-586" font-family="Helvetica,sans-Serif" font-size="10.00">+ GetSize()</text>
</a>
</g>
</g>
<!-- Node10&#45;&gt;Node2 -->
<g id="edge11" class="edge"><title>Node10&#45;&gt;Node2</title>
<path fill="none" stroke="#404040" d="M1458.58,-578.856C1451.64,-569.121 1444.15,-559.55 1436.38,-551 1402.01,-513.186 1358.65,-477.022 1320.19,-447.96"/>
<polygon fill="none" stroke="#404040" points="1320.13,-447.918 1312.93,-447.526 1310.52,-440.728 1317.72,-441.121 1320.13,-447.918"/>
<text text-anchor="middle" x="1447.38" y="-525" font-family="Helvetica,sans-Serif" font-size="10.00"> &#45;mpNodeMap</text>
</g>
<!-- Node11 -->
<g id="node11" class="node"><title>Node11</title>
<polygon fill="white" stroke="#bfbfbf" points="1571.88,-898.5 1571.88,-955.5 1672.88,-955.5 1672.88,-898.5 1571.88,-898.5"/>
<text text-anchor="middle" x="1622.38" y="-943.5" font-family="Helvetica,sans-Serif" font-size="10.00">vector&lt; unsigned &gt;</text>
<polyline fill="none" stroke="#bfbfbf" points="1571.88,-936.5 1672.88,-936.5 "/>
<text text-anchor="middle" x="1622.38" y="-924.5" font-family="Helvetica,sans-Serif" font-size="10.00"> </text>
<polyline fill="none" stroke="#bfbfbf" points="1571.88,-917.5 1672.88,-917.5 "/>
<text text-anchor="middle" x="1622.38" y="-905.5" font-family="Helvetica,sans-Serif" font-size="10.00"> </text>
</g>
<!-- Node11&#45;&gt;Node1 -->
<g id="edge18" class="edge"><title>Node11&#45;&gt;Node1</title>
<path fill="none" stroke="#404040" d="M1642.33,-898.457C1664.92,-865.502 1700.5,-807.764 1715.38,-752 1728.84,-701.561 1733.29,-384.918 1734.72,-212.721"/>
<polygon fill="none" stroke="#404040" points="1734.72,-212.578 1730.77,-206.546 1734.82,-200.578 1738.77,-206.611 1734.72,-212.578"/>
<text text-anchor="middle" x="1762.38" y="-525" font-family="Helvetica,sans-Serif" font-size="10.00"> #mReordering</text>
</g>
<!-- Node11&#45;&gt;Node10 -->
<g id="edge12" class="edge"><title>Node11&#45;&gt;Node10</title>
<path fill="none" stroke="#404040" d="M1610.11,-898.27C1593.36,-860.409 1562.61,-790.909 1538.08,-735.452"/>
<polygon fill="none" stroke="#404040" points="1537.96,-735.179 1531.87,-731.311 1533.1,-724.205 1539.19,-728.074 1537.96,-735.179"/>
<text text-anchor="middle" x="1590.38" y="-789.5" font-family="Helvetica,sans-Serif" font-size="10.00"> &#45;mMap</text>
</g>
<!-- Node12 -->
<g id="node12" class="node"><title>Node12</title>
<g id="a_node12"><a xlink:href="classbool.html" target="_top" xlink:title="{bool\n||}">
<polygon fill="white" stroke="black" points="1383.88,-898.5 1383.88,-955.5 1418.88,-955.5 1418.88,-898.5 1383.88,-898.5"/>
<text text-anchor="middle" x="1401.38" y="-943.5" font-family="Helvetica,sans-Serif" font-size="10.00">bool</text>
<polyline fill="none" stroke="black" points="1383.88,-936.5 1418.88,-936.5 "/>
<text text-anchor="middle" x="1401.38" y="-924.5" font-family="Helvetica,sans-Serif" font-size="10.00"> </text>
<polyline fill="none" stroke="black" points="1383.88,-917.5 1418.88,-917.5 "/>
<text text-anchor="middle" x="1401.38" y="-905.5" font-family="Helvetica,sans-Serif" font-size="10.00"> </text>
</a>
</g>
</g>
<!-- Node12&#45;&gt;Node2 -->
<g id="edge15" class="edge"><title>Node12&#45;&gt;Node2</title>
<path fill="none" stroke="#404040" d="M1393.75,-898.45C1384.47,-864.29 1368.78,-804.185 1358.38,-752 1338.18,-650.594 1361.9,-617.957 1323.38,-522 1321.19,-516.537 1318.74,-511.08 1316.1,-505.662"/>
<polygon fill="none" stroke="#404040" points="1315.9,-505.277 1309.6,-501.771 1310.42,-494.606 1316.72,-498.112 1315.9,-505.277"/>
<text text-anchor="middle" x="1399.88" y="-660" font-family="Helvetica,sans-Serif" font-size="10.00"> #mIndexFromZero</text>
<text text-anchor="middle" x="1399.88" y="-649" font-family="Helvetica,sans-Serif" font-size="10.00">#mFilesAreBinary</text>
<text text-anchor="middle" x="1399.88" y="-638" font-family="Helvetica,sans-Serif" font-size="10.00">#mWriteMetaFile</text>
</g>
<!-- Node12&#45;&gt;Node10 -->
<g id="edge13" class="edge"><title>Node12&#45;&gt;Node10</title>
<path fill="none" stroke="#404040" d="M1411.52,-898.27C1425.33,-860.488 1450.67,-791.199 1470.92,-735.8"/>
<polygon fill="none" stroke="#404040" points="1471.04,-735.476 1469.35,-728.467 1475.16,-724.205 1476.86,-731.214 1471.04,-735.476"/>
<text text-anchor="middle" x="1484.88" y="-789.5" font-family="Helvetica,sans-Serif" font-size="10.00"> &#45;mIsIdentity</text>
</g>
<!-- Node13 -->
<g id="node13" class="node"><title>Node13</title>
<polygon fill="white" stroke="#bfbfbf" points="1569.88,-612 1569.88,-691 1706.88,-691 1706.88,-612 1569.88,-612"/>
<text text-anchor="start" x="1577.88" y="-679" font-family="Helvetica,sans-Serif" font-size="10.00">MeshWriterIterators</text>
<text text-anchor="start" x="1577.88" y="-668" font-family="Helvetica,sans-Serif" font-size="10.00">&lt; ELEMENT_DIM, SPACE</text>
<text text-anchor="middle" x="1638.38" y="-657" font-family="Helvetica,sans-Serif" font-size="10.00">_DIM &gt; *</text>
<polyline fill="none" stroke="#bfbfbf" points="1569.88,-650 1706.88,-650 "/>
<text text-anchor="middle" x="1638.38" y="-638" font-family="Helvetica,sans-Serif" font-size="10.00"> </text>
<polyline fill="none" stroke="#bfbfbf" points="1569.88,-631 1706.88,-631 "/>
<text text-anchor="middle" x="1638.38" y="-619" font-family="Helvetica,sans-Serif" font-size="10.00"> </text>
</g>
<!-- Node13&#45;&gt;Node2 -->
<g id="edge14" class="edge"><title>Node13&#45;&gt;Node2</title>
<path fill="none" stroke="#404040" d="M1614.01,-611.684C1600.09,-591.739 1581.27,-568.101 1560.38,-551 1488.41,-492.088 1392.45,-446.455 1321.68,-417.625"/>
<polygon fill="none" stroke="#404040" points="1321.67,-417.624 1314.61,-419.094 1310.54,-413.143 1317.6,-411.673 1321.67,-417.624"/>
<text text-anchor="middle" x="1558.38" y="-525" font-family="Helvetica,sans-Serif" font-size="10.00"> #mpIters</text>
</g>
<!-- Node14 -->
<g id="node14" class="node"><title>Node14</title>
<polygon fill="white" stroke="#bfbfbf" points="577.881,-612 577.881,-691 714.881,-691 714.881,-612 577.881,-612"/>
<text text-anchor="start" x="585.881" y="-679" font-family="Helvetica,sans-Serif" font-size="10.00">MixedDimensionMesh</text>
<text text-anchor="start" x="585.881" y="-668" font-family="Helvetica,sans-Serif" font-size="10.00">&lt; ELEMENT_DIM, SPACE</text>
<text text-anchor="middle" x="646.381" y="-657" font-family="Helvetica,sans-Serif" font-size="10.00">_DIM &gt; *</text>
<polyline fill="none" stroke="#bfbfbf" points="577.881,-650 714.881,-650 "/>
<text text-anchor="middle" x="646.381" y="-638" font-family="Helvetica,sans-Serif" font-size="10.00"> </text>
<polyline fill="none" stroke="#bfbfbf" points="577.881,-631 714.881,-631 "/>
<text text-anchor="middle" x="646.381" y="-619" font-family="Helvetica,sans-Serif" font-size="10.00"> </text>
</g>
<!-- Node14&#45;&gt;Node2 -->
<g id="edge17" class="edge"><title>Node14&#45;&gt;Node2</title>
<path fill="none" stroke="#404040" d="M645.992,-611.714C647.83,-583.199 655.037,-545.476 678.381,-522 740.953,-459.073 988.731,-415.367 1128.37,-395.178"/>
<polygon fill="none" stroke="#404040" points="1128.42,-395.171 1133.79,-390.362 1140.3,-393.472 1134.92,-398.281 1128.42,-395.171"/>
<text text-anchor="middle" x="714.881" y="-525" font-family="Helvetica,sans-Serif" font-size="10.00"> #mpMixedMesh</text>
</g>
<!-- Node15 -->
<g id="node15" class="node"><title>Node15</title>
<polygon fill="white" stroke="#bfbfbf" points="1842.88,-353 1842.88,-410 1947.88,-410 1947.88,-353 1842.88,-353"/>
<text text-anchor="middle" x="1895.38" y="-398" font-family="Helvetica,sans-Serif" font-size="10.00">vector&lt; std::string &gt;</text>
<polyline fill="none" stroke="#bfbfbf" points="1842.88,-391 1947.88,-391 "/>
<text text-anchor="middle" x="1895.38" y="-379" font-family="Helvetica,sans-Serif" font-size="10.00"> </text>
<polyline fill="none" stroke="#bfbfbf" points="1842.88,-372 1947.88,-372 "/>
<text text-anchor="middle" x="1895.38" y="-360" font-family="Helvetica,sans-Serif" font-size="10.00"> </text>
</g>
<!-- Node15&#45;&gt;Node1 -->
<g id="edge19" class="edge"><title>Node15&#45;&gt;Node1</title>
<path fill="none" stroke="#404040" d="M1886.53,-352.838C1875.37,-319.775 1854.45,-263.357 1828.38,-219 1825.25,-213.67 1821.89,-208.317 1818.39,-202.991"/>
<polygon fill="none" stroke="#404040" points="1818.21,-202.729 1811.54,-200.006 1811.48,-192.795 1818.16,-195.518 1818.21,-202.729"/>
<text text-anchor="middle" x="1896.38" y="-233" font-family="Helvetica,sans-Serif" font-size="10.00"> #mAdditionalFieldNames</text>
<text text-anchor="middle" x="1896.38" y="-222" font-family="Helvetica,sans-Serif" font-size="10.00">#mRegionNames</text>
</g>
</g>
</svg>
