<?xml version="1.0" encoding="UTF-8" standalone="no"?>
<!DOCTYPE svg PUBLIC "-//W3C//DTD SVG 1.1//EN"
 "http://www.w3.org/Graphics/SVG/1.1/DTD/svg11.dtd">
<!-- Generated by graphviz version 2.38.0 (20140413.2041)
 -->
<!-- Title: MemfemMeshReader&lt; ELEMENT_DIM, SPACE_DIM &gt; Pages: 1 -->
<svg width="999pt" height="607pt"
 viewBox="0.00 0.00 999.00 607.00" xmlns="http://www.w3.org/2000/svg" xmlns:xlink="http://www.w3.org/1999/xlink">
<g id="graph0" class="graph" transform="scale(1 1) rotate(0) translate(4 603)">
<title>MemfemMeshReader&lt; ELEMENT_DIM, SPACE_DIM &gt;</title>
<polygon fill="white" stroke="none" points="-4,4 -4,-603 995,-603 995,4 -4,4"/>
<!-- Node1 -->
<g id="node1" class="node"><title>Node1</title>
<polygon fill="#bfbfbf" stroke="black" points="438.5,-0.5 438.5,-101.5 605.5,-101.5 605.5,-0.5 438.5,-0.5"/>
<text text-anchor="start" x="446.5" y="-89.5" font-family="Helvetica,sans-Serif" font-size="10.00">MemfemMeshReader&lt; ELEMENT</text>
<text text-anchor="middle" x="522" y="-78.5" font-family="Helvetica,sans-Serif" font-size="10.00">_DIM, SPACE_DIM &gt;</text>
<polyline fill="none" stroke="black" points="438.5,-71.5 605.5,-71.5 "/>
<text text-anchor="middle" x="522" y="-59.5" font-family="Helvetica,sans-Serif" font-size="10.00"> </text>
<polyline fill="none" stroke="black" points="438.5,-52.5 605.5,-52.5 "/>
<text text-anchor="start" x="446.5" y="-40.5" font-family="Helvetica,sans-Serif" font-size="10.00">+ MemfemMeshReader()</text>
<text text-anchor="start" x="446.5" y="-29.5" font-family="Helvetica,sans-Serif" font-size="10.00">+ ~MemfemMeshReader()</text>
<text text-anchor="start" x="446.5" y="-18.5" font-family="Helvetica,sans-Serif" font-size="10.00">&#45; TokenizeStringsToDoubles()</text>
<text text-anchor="start" x="446.5" y="-7.5" font-family="Helvetica,sans-Serif" font-size="10.00">&#45; TokenizeStringsToInts()</text>
</g>
<!-- Node2 -->
<g id="node2" class="node"><title>Node2</title>
<g id="a_node2"><a xlink:href="classAbstractCachedMeshReader.html" target="_top" xlink:title="{AbstractCachedMeshReader\l\&lt; ELEMENT_DIM, SPACE_DIM \&gt;\n||+ AbstractCachedMeshReader()\l+ ~AbstractCachedMeshReader()\l+ GetNumElements()\l+ GetNumNodes()\l+ GetNumFaces()\l+ GetMaxNodeIndex()\l+ GetMinNodeIndex()\l+ GetNextNode()\l+ Reset()\l+ GetNextElementData()\l+ GetNextFaceData()\l# GetRawDataFromFile()\l}">
<polygon fill="white" stroke="black" points="437,-139.5 437,-328.5 607,-328.5 607,-139.5 437,-139.5"/>
<text text-anchor="start" x="445" y="-316.5" font-family="Helvetica,sans-Serif" font-size="10.00">AbstractCachedMeshReader</text>
<text text-anchor="middle" x="522" y="-305.5" font-family="Helvetica,sans-Serif" font-size="10.00">&lt; ELEMENT_DIM, SPACE_DIM &gt;</text>
<polyline fill="none" stroke="black" points="437,-298.5 607,-298.5 "/>
<text text-anchor="middle" x="522" y="-286.5" font-family="Helvetica,sans-Serif" font-size="10.00"> </text>
<polyline fill="none" stroke="black" points="437,-279.5 607,-279.5 "/>
<text text-anchor="start" x="445" y="-267.5" font-family="Helvetica,sans-Serif" font-size="10.00">+ AbstractCachedMeshReader()</text>
<text text-anchor="start" x="445" y="-256.5" font-family="Helvetica,sans-Serif" font-size="10.00">+ ~AbstractCachedMeshReader()</text>
<text text-anchor="start" x="445" y="-245.5" font-family="Helvetica,sans-Serif" font-size="10.00">+ GetNumElements()</text>
<text text-anchor="start" x="445" y="-234.5" font-family="Helvetica,sans-Serif" font-size="10.00">+ GetNumNodes()</text>
<text text-anchor="start" x="445" y="-223.5" font-family="Helvetica,sans-Serif" font-size="10.00">+ GetNumFaces()</text>
<text text-anchor="start" x="445" y="-212.5" font-family="Helvetica,sans-Serif" font-size="10.00">+ GetMaxNodeIndex()</text>
<text text-anchor="start" x="445" y="-201.5" font-family="Helvetica,sans-Serif" font-size="10.00">+ GetMinNodeIndex()</text>
<text text-anchor="start" x="445" y="-190.5" font-family="Helvetica,sans-Serif" font-size="10.00">+ GetNextNode()</text>
<text text-anchor="start" x="445" y="-179.5" font-family="Helvetica,sans-Serif" font-size="10.00">+ Reset()</text>
<text text-anchor="start" x="445" y="-168.5" font-family="Helvetica,sans-Serif" font-size="10.00">+ GetNextElementData()</text>
<text text-anchor="start" x="445" y="-157.5" font-family="Helvetica,sans-Serif" font-size="10.00">+ GetNextFaceData()</text>
<text text-anchor="start" x="445" y="-146.5" font-family="Helvetica,sans-Serif" font-size="10.00"># GetRawDataFromFile()</text>
</a>
</g>
</g>
<!-- Node2&#45;&gt;Node1 -->
<g id="edge1" class="edge"><title>Node2&#45;&gt;Node1</title>
<path fill="none" stroke="midnightblue" d="M522,-129.046C522,-119.633 522,-110.418 522,-101.822"/>
<polygon fill="none" stroke="midnightblue" points="518.5,-129.319 522,-139.319 525.5,-129.319 518.5,-129.319"/>
</g>
<!-- Node3 -->
<g id="node3" class="node"><title>Node3</title>
<g id="a_node3"><a xlink:href="classAbstractMeshReader.html" target="_top" xlink:title="{AbstractMeshReader\l\&lt; ELEMENT_DIM, SPACE_DIM \&gt;\n||+ ~AbstractMeshReader()\l+ GetNumElements()\l+ GetNumNodes()\l+ GetNumFaces()\l+ GetNumCableElements()\l+ GetNumElementAttributes()\l+ GetNumFaceAttributes()\l+ GetNumCableElementAttributes()\l+ GetNodeAttributes()\l+ GetNumEdges()\land 25 more...\l}">
<polygon fill="white" stroke="black" points="0,-420.5 0,-598.5 172,-598.5 172,-420.5 0,-420.5"/>
<text text-anchor="start" x="8" y="-586.5" font-family="Helvetica,sans-Serif" font-size="10.00">AbstractMeshReader</text>
<text text-anchor="middle" x="86" y="-575.5" font-family="Helvetica,sans-Serif" font-size="10.00">&lt; ELEMENT_DIM, SPACE_DIM &gt;</text>
<polyline fill="none" stroke="black" points="0,-568.5 172,-568.5 "/>
<text text-anchor="middle" x="86" y="-556.5" font-family="Helvetica,sans-Serif" font-size="10.00"> </text>
<polyline fill="none" stroke="black" points="0,-549.5 172,-549.5 "/>
<text text-anchor="start" x="8" y="-537.5" font-family="Helvetica,sans-Serif" font-size="10.00">+ ~AbstractMeshReader()</text>
<text text-anchor="start" x="8" y="-526.5" font-family="Helvetica,sans-Serif" font-size="10.00">+ GetNumElements()</text>
<text text-anchor="start" x="8" y="-515.5" font-family="Helvetica,sans-Serif" font-size="10.00">+ GetNumNodes()</text>
<text text-anchor="start" x="8" y="-504.5" font-family="Helvetica,sans-Serif" font-size="10.00">+ GetNumFaces()</text>
<text text-anchor="start" x="8" y="-493.5" font-family="Helvetica,sans-Serif" font-size="10.00">+ GetNumCableElements()</text>
<text text-anchor="start" x="8" y="-482.5" font-family="Helvetica,sans-Serif" font-size="10.00">+ GetNumElementAttributes()</text>
<text text-anchor="start" x="8" y="-471.5" font-family="Helvetica,sans-Serif" font-size="10.00">+ GetNumFaceAttributes()</text>
<text text-anchor="start" x="8" y="-460.5" font-family="Helvetica,sans-Serif" font-size="10.00">+ GetNumCableElementAttributes()</text>
<text text-anchor="start" x="8" y="-449.5" font-family="Helvetica,sans-Serif" font-size="10.00">+ GetNodeAttributes()</text>
<text text-anchor="start" x="8" y="-438.5" font-family="Helvetica,sans-Serif" font-size="10.00">+ GetNumEdges()</text>
<text text-anchor="start" x="8" y="-427.5" font-family="Helvetica,sans-Serif" font-size="10.00">and 25 more...</text>
</a>
</g>
</g>
<!-- Node3&#45;&gt;Node2 -->
<g id="edge2" class="edge"><title>Node3&#45;&gt;Node2</title>
<path fill="none" stroke="midnightblue" d="M171.354,-413.455C195.802,-389.718 223.577,-365.721 252,-347 309.32,-309.246 381.437,-280.123 436.716,-261.048"/>
<polygon fill="none" stroke="midnightblue" points="168.893,-410.966 164.214,-420.472 173.799,-415.959 168.893,-410.966"/>
</g>
<!-- Node4 -->
<g id="node4" class="node"><title>Node4</title>
<polygon fill="white" stroke="#bfbfbf" points="190.5,-481 190.5,-538 295.5,-538 295.5,-481 190.5,-481"/>
<text text-anchor="middle" x="243" y="-526" font-family="Helvetica,sans-Serif" font-size="10.00">vector&lt; std::string &gt;</text>
<polyline fill="none" stroke="#bfbfbf" points="190.5,-519 295.5,-519 "/>
<text text-anchor="middle" x="243" y="-507" font-family="Helvetica,sans-Serif" font-size="10.00"> </text>
<polyline fill="none" stroke="#bfbfbf" points="190.5,-500 295.5,-500 "/>
<text text-anchor="middle" x="243" y="-488" font-family="Helvetica,sans-Serif" font-size="10.00"> </text>
</g>
<!-- Node4&#45;&gt;Node2 -->
<g id="edge3" class="edge"><title>Node4&#45;&gt;Node2</title>
<path fill="none" stroke="#404040" d="M242.678,-480.76C243.704,-445.8 250.408,-385.626 282,-347 318.122,-302.836 375.612,-275.172 425.269,-258.388"/>
<polygon fill="none" stroke="#404040" points="425.307,-258.376 429.774,-252.715 436.717,-254.662 432.25,-260.323 425.307,-258.376"/>
<text text-anchor="middle" x="327.5" y="-383" font-family="Helvetica,sans-Serif" font-size="10.00"> #mFaceRawData</text>
<text text-anchor="middle" x="327.5" y="-372" font-family="Helvetica,sans-Serif" font-size="10.00">#mElementRawData</text>
<text text-anchor="middle" x="327.5" y="-361" font-family="Helvetica,sans-Serif" font-size="10.00">#mNodeRawData</text>
</g>
<!-- Node5 -->
<g id="node5" class="node"><title>Node5</title>
<polygon fill="white" stroke="#bfbfbf" points="313.5,-475.5 313.5,-543.5 412.5,-543.5 412.5,-475.5 313.5,-475.5"/>
<text text-anchor="start" x="321.5" y="-531.5" font-family="Helvetica,sans-Serif" font-size="10.00">vector&lt; std::vector</text>
<text text-anchor="middle" x="363" y="-520.5" font-family="Helvetica,sans-Serif" font-size="10.00">&lt; unsigned &gt; &gt;</text>
<polyline fill="none" stroke="#bfbfbf" points="313.5,-513.5 412.5,-513.5 "/>
<text text-anchor="middle" x="363" y="-501.5" font-family="Helvetica,sans-Serif" font-size="10.00"> </text>
<polyline fill="none" stroke="#bfbfbf" points="313.5,-494.5 412.5,-494.5 "/>
<text text-anchor="middle" x="363" y="-482.5" font-family="Helvetica,sans-Serif" font-size="10.00"> </text>
</g>
<!-- Node5&#45;&gt;Node2 -->
<g id="edge4" class="edge"><title>Node5&#45;&gt;Node2</title>
<path fill="none" stroke="#404040" d="M364.272,-475.436C366.883,-441.211 374.713,-387.221 398,-347 406.187,-332.859 416.775,-319.518 428.31,-307.311"/>
<polygon fill="none" stroke="#404040" points="428.439,-307.179 429.797,-300.097 436.857,-298.627 435.499,-305.709 428.439,-307.179"/>
<text text-anchor="middle" x="435" y="-377.5" font-family="Helvetica,sans-Serif" font-size="10.00"> #mElementData</text>
<text text-anchor="middle" x="435" y="-366.5" font-family="Helvetica,sans-Serif" font-size="10.00">#mFaceData</text>
</g>
<!-- Node6 -->
<g id="node6" class="node"><title>Node6</title>
<polygon fill="white" stroke="#bfbfbf" points="430.5,-475.5 430.5,-543.5 529.5,-543.5 529.5,-475.5 430.5,-475.5"/>
<text text-anchor="start" x="438.5" y="-531.5" font-family="Helvetica,sans-Serif" font-size="10.00">vector&lt; std::vector</text>
<text text-anchor="middle" x="480" y="-520.5" font-family="Helvetica,sans-Serif" font-size="10.00">&lt; double &gt; &gt;</text>
<polyline fill="none" stroke="#bfbfbf" points="430.5,-513.5 529.5,-513.5 "/>
<text text-anchor="middle" x="480" y="-501.5" font-family="Helvetica,sans-Serif" font-size="10.00"> </text>
<polyline fill="none" stroke="#bfbfbf" points="430.5,-494.5 529.5,-494.5 "/>
<text text-anchor="middle" x="480" y="-482.5" font-family="Helvetica,sans-Serif" font-size="10.00"> </text>
</g>
<!-- Node6&#45;&gt;Node2 -->
<g id="edge5" class="edge"><title>Node6&#45;&gt;Node2</title>
<path fill="none" stroke="#404040" d="M476.912,-475.408C474.614,-442.547 473.082,-390.873 481,-347 481.39,-344.84 481.818,-342.666 482.28,-340.484"/>
<polygon fill="none" stroke="#404040" points="482.29,-340.441 479.781,-333.681 485.056,-328.764 487.565,-335.524 482.29,-340.441"/>
<text text-anchor="middle" x="511.5" y="-372" font-family="Helvetica,sans-Serif" font-size="10.00"> #mNodeData</text>
</g>
<!-- Node7 -->
<g id="node7" class="node"><title>Node7</title>
<g id="a_node7"><a xlink:href="classbool.html" target="_top" xlink:title="{bool\n||}">
<polygon fill="white" stroke="black" points="547.5,-481 547.5,-538 582.5,-538 582.5,-481 547.5,-481"/>
<text text-anchor="middle" x="565" y="-526" font-family="Helvetica,sans-Serif" font-size="10.00">bool</text>
<polyline fill="none" stroke="black" points="547.5,-519 582.5,-519 "/>
<text text-anchor="middle" x="565" y="-507" font-family="Helvetica,sans-Serif" font-size="10.00"> </text>
<polyline fill="none" stroke="black" points="547.5,-500 582.5,-500 "/>
<text text-anchor="middle" x="565" y="-488" font-family="Helvetica,sans-Serif" font-size="10.00"> </text>
</a>
</g>
</g>
<!-- Node7&#45;&gt;Node2 -->
<g id="edge6" class="edge"><title>Node7&#45;&gt;Node2</title>
<path fill="none" stroke="#404040" d="M561.349,-480.735C557.042,-448.524 549.515,-393.839 542,-347 541.672,-344.955 541.337,-342.89 540.997,-340.81"/>
<polygon fill="none" stroke="#404040" points="540.962,-340.601 536.033,-335.338 538.994,-328.763 543.924,-334.026 540.962,-340.601"/>
<text text-anchor="middle" x="592.5" y="-372" font-family="Helvetica,sans-Serif" font-size="10.00"> #mIndexFromZero</text>
</g>
<!-- Node8 -->
<g id="node8" class="node"><title>Node8</title>
<polygon fill="white" stroke="#bfbfbf" points="696.5,-481 696.5,-538 743.5,-538 743.5,-481 696.5,-481"/>
<text text-anchor="middle" x="720" y="-526" font-family="Helvetica,sans-Serif" font-size="10.00">iterator</text>
<polyline fill="none" stroke="#bfbfbf" points="696.5,-519 743.5,-519 "/>
<text text-anchor="middle" x="720" y="-507" font-family="Helvetica,sans-Serif" font-size="10.00"> </text>
<polyline fill="none" stroke="#bfbfbf" points="696.5,-500 743.5,-500 "/>
<text text-anchor="middle" x="720" y="-488" font-family="Helvetica,sans-Serif" font-size="10.00"> </text>
</g>
<!-- Node8&#45;&gt;Node2 -->
<g id="edge7" class="edge"><title>Node8&#45;&gt;Node2</title>
<path fill="none" stroke="#404040" d="M707.364,-480.93C688.901,-441.143 654.912,-369.887 638,-347 631.075,-337.628 623.335,-328.343 615.229,-319.365"/>
<polygon fill="none" stroke="#404040" points="615.17,-319.301 608.158,-317.616 607.016,-310.496 614.028,-312.181 615.17,-319.301"/>
<text text-anchor="middle" x="707" y="-372" font-family="Helvetica,sans-Serif" font-size="10.00"> #mpNodeIterator</text>
</g>
<!-- Node8&#45;&gt;Node2 -->
<g id="edge8" class="edge"><title>Node8&#45;&gt;Node2</title>
<path fill="none" stroke="#404040" d="M735.273,-480.877C751.827,-446.843 772.668,-388.449 747,-347 718.826,-301.505 666.01,-273.895 618.627,-257.477"/>
<polygon fill="none" stroke="#404040" points="618.427,-257.41 611.474,-259.322 607.034,-253.64 613.987,-251.728 618.427,-257.41"/>
<text text-anchor="middle" x="803" y="-377.5" font-family="Helvetica,sans-Serif" font-size="10.00"> #mpFaceIterator</text>
<text text-anchor="middle" x="803" y="-366.5" font-family="Helvetica,sans-Serif" font-size="10.00">#mpElementIterator</text>
</g>
<!-- Node9 -->
<g id="node9" class="node"><title>Node9</title>
<g id="a_node9"><a xlink:href="classunsigned.html" target="_top" xlink:title="{unsigned\n||}">
<polygon fill="white" stroke="black" points="850,-481 850,-538 906,-538 906,-481 850,-481"/>
<text text-anchor="middle" x="878" y="-526" font-family="Helvetica,sans-Serif" font-size="10.00">unsigned</text>
<polyline fill="none" stroke="black" points="850,-519 906,-519 "/>
<text text-anchor="middle" x="878" y="-507" font-family="Helvetica,sans-Serif" font-size="10.00"> </text>
<polyline fill="none" stroke="black" points="850,-500 906,-500 "/>
<text text-anchor="middle" x="878" y="-488" font-family="Helvetica,sans-Serif" font-size="10.00"> </text>
</a>
</g>
</g>
<!-- Node9&#45;&gt;Node2 -->
<g id="edge9" class="edge"><title>Node9&#45;&gt;Node2</title>
<path fill="none" stroke="#404040" d="M881.118,-480.996C883.532,-445.732 882.151,-384.656 850,-347 792.817,-280.027 693.816,-253.024 619.5,-242.18"/>
<polygon fill="none" stroke="#404040" points="619.218,-242.142 612.732,-245.291 607.329,-240.515 613.816,-237.365 619.218,-242.142"/>
<text text-anchor="middle" x="933" y="-394" font-family="Helvetica,sans-Serif" font-size="10.00"> #mNumElementAttributes</text>
<text text-anchor="middle" x="933" y="-383" font-family="Helvetica,sans-Serif" font-size="10.00">#mNumNodeAttributes</text>
<text text-anchor="middle" x="933" y="-372" font-family="Helvetica,sans-Serif" font-size="10.00">#mMaxNodeBdyMarker</text>
<text text-anchor="middle" x="933" y="-361" font-family="Helvetica,sans-Serif" font-size="10.00">#mNumElementNodes</text>
<text text-anchor="middle" x="933" y="-350" font-family="Helvetica,sans-Serif" font-size="10.00">#mMaxFaceBdyMarker</text>
</g>
</g>
</svg>
