<?xml version="1.0" encoding="UTF-8" standalone="no"?>
<!DOCTYPE svg PUBLIC "-//W3C//DTD SVG 1.1//EN"
 "http://www.w3.org/Graphics/SVG/1.1/DTD/svg11.dtd">
<!-- Generated by graphviz version 2.38.0 (20140413.2041)
 -->
<!-- Title: SchmidCostaExponentialLaw2d Pages: 1 -->
<svg width="310pt" height="636pt"
 viewBox="0.00 0.00 310.00 636.00" xmlns="http://www.w3.org/2000/svg" xmlns:xlink="http://www.w3.org/1999/xlink">
<g id="graph0" class="graph" transform="scale(1 1) rotate(0) translate(4 632)">
<title>SchmidCostaExponentialLaw2d</title>
<polygon fill="white" stroke="none" points="-4,4 -4,-632 306,-632 306,4 -4,4"/>
<!-- Node1 -->
<g id="node1" class="node"><title>Node1</title>
<polygon fill="#bfbfbf" stroke="black" points="1.5,-0.5 1.5,-123.5 191.5,-123.5 191.5,-0.5 1.5,-0.5"/>
<text text-anchor="middle" x="96.5" y="-111.5" font-family="Helvetica,sans-Serif" font-size="10.00">SchmidCostaExponentialLaw2d</text>
<polyline fill="none" stroke="black" points="1.5,-104.5 191.5,-104.5 "/>
<text text-anchor="start" x="9.5" y="-92.5" font-family="Helvetica,sans-Serif" font-size="10.00">&#45; mA</text>
<text text-anchor="start" x="9.5" y="-81.5" font-family="Helvetica,sans-Serif" font-size="10.00">&#45; mB</text>
<text text-anchor="start" x="9.5" y="-70.5" font-family="Helvetica,sans-Serif" font-size="10.00">&#45; mIdentity</text>
<polyline fill="none" stroke="black" points="1.5,-63.5 191.5,-63.5 "/>
<text text-anchor="start" x="9.5" y="-51.5" font-family="Helvetica,sans-Serif" font-size="10.00">+ SchmidCostaExponentialLaw2d()</text>
<text text-anchor="start" x="9.5" y="-40.5" font-family="Helvetica,sans-Serif" font-size="10.00">+ ComputeStressAndStressDerivative()</text>
<text text-anchor="start" x="9.5" y="-29.5" font-family="Helvetica,sans-Serif" font-size="10.00">+ GetA()</text>
<text text-anchor="start" x="9.5" y="-18.5" font-family="Helvetica,sans-Serif" font-size="10.00">+ GetB()</text>
<text text-anchor="start" x="9.5" y="-7.5" font-family="Helvetica,sans-Serif" font-size="10.00">+ GetZeroStrainPressure()</text>
</g>
<!-- Node2 -->
<g id="node2" class="node"><title>Node2</title>
<g id="a_node2"><a xlink:href="classAbstractIncompressibleMaterialLaw.html" target="_top" xlink:title="{AbstractIncompressibleMaterial\lLaw\&lt; 2 \&gt;\n||+ AbstractIncompressibleMaterialLaw()\l+ ~AbstractIncompressibleMaterialLaw()\l+ GetZeroStrainPressure()\l}">
<polygon fill="white" stroke="black" points="0,-161.5 0,-251.5 193,-251.5 193,-161.5 0,-161.5"/>
<text text-anchor="start" x="8" y="-239.5" font-family="Helvetica,sans-Serif" font-size="10.00">AbstractIncompressibleMaterial</text>
<text text-anchor="middle" x="96.5" y="-228.5" font-family="Helvetica,sans-Serif" font-size="10.00">Law&lt; 2 &gt;</text>
<polyline fill="none" stroke="black" points="0,-221.5 193,-221.5 "/>
<text text-anchor="middle" x="96.5" y="-209.5" font-family="Helvetica,sans-Serif" font-size="10.00"> </text>
<polyline fill="none" stroke="black" points="0,-202.5 193,-202.5 "/>
<text text-anchor="start" x="8" y="-190.5" font-family="Helvetica,sans-Serif" font-size="10.00">+ AbstractIncompressibleMaterialLaw()</text>
<text text-anchor="start" x="8" y="-179.5" font-family="Helvetica,sans-Serif" font-size="10.00">+ ~AbstractIncompressibleMaterialLaw()</text>
<text text-anchor="start" x="8" y="-168.5" font-family="Helvetica,sans-Serif" font-size="10.00">+ GetZeroStrainPressure()</text>
</a>
</g>
</g>
<!-- Node2&#45;&gt;Node1 -->
<g id="edge1" class="edge"><title>Node2&#45;&gt;Node1</title>
<path fill="none" stroke="midnightblue" d="M96.5,-151.177C96.5,-142.13 96.5,-132.696 96.5,-123.507"/>
<polygon fill="none" stroke="midnightblue" points="93.0001,-151.193 96.5,-161.193 100,-151.193 93.0001,-151.193"/>
</g>
<!-- Node3 -->
<g id="node3" class="node"><title>Node3</title>
<g id="a_node3"><a xlink:href="classAbstractMaterialLaw.html" target="_top" xlink:title="{AbstractMaterialLaw\l\&lt; DIM \&gt;\n|# mpChangeOfBasisMatrix\l|+ AbstractMaterialLaw()\l+ ~AbstractMaterialLaw()\l+ ComputeStressAndStressDerivative()\l+ ComputeCauchyStress()\l+ Compute1stPiolaKirchoffStress()\l+ Compute2ndPiolaKirchoffStress()\l+ ScaleMaterialParameters()\l+ SetChangeOfBasisMatrix()\l+ ResetToNoChangeOfBasisMatrix()\l# ComputeTransformedDeformation\lTensor()\l# TransformStressAndStress\lDerivative()\l}">
<polygon fill="white" stroke="black" points="22.5,-427.5 22.5,-627.5 212.5,-627.5 212.5,-427.5 22.5,-427.5"/>
<text text-anchor="start" x="30.5" y="-615.5" font-family="Helvetica,sans-Serif" font-size="10.00">AbstractMaterialLaw</text>
<text text-anchor="middle" x="117.5" y="-604.5" font-family="Helvetica,sans-Serif" font-size="10.00">&lt; DIM &gt;</text>
<polyline fill="none" stroke="black" points="22.5,-597.5 212.5,-597.5 "/>
<text text-anchor="start" x="30.5" y="-585.5" font-family="Helvetica,sans-Serif" font-size="10.00"># mpChangeOfBasisMatrix</text>
<polyline fill="none" stroke="black" points="22.5,-578.5 212.5,-578.5 "/>
<text text-anchor="start" x="30.5" y="-566.5" font-family="Helvetica,sans-Serif" font-size="10.00">+ AbstractMaterialLaw()</text>
<text text-anchor="start" x="30.5" y="-555.5" font-family="Helvetica,sans-Serif" font-size="10.00">+ ~AbstractMaterialLaw()</text>
<text text-anchor="start" x="30.5" y="-544.5" font-family="Helvetica,sans-Serif" font-size="10.00">+ ComputeStressAndStressDerivative()</text>
<text text-anchor="start" x="30.5" y="-533.5" font-family="Helvetica,sans-Serif" font-size="10.00">+ ComputeCauchyStress()</text>
<text text-anchor="start" x="30.5" y="-522.5" font-family="Helvetica,sans-Serif" font-size="10.00">+ Compute1stPiolaKirchoffStress()</text>
<text text-anchor="start" x="30.5" y="-511.5" font-family="Helvetica,sans-Serif" font-size="10.00">+ Compute2ndPiolaKirchoffStress()</text>
<text text-anchor="start" x="30.5" y="-500.5" font-family="Helvetica,sans-Serif" font-size="10.00">+ ScaleMaterialParameters()</text>
<text text-anchor="start" x="30.5" y="-489.5" font-family="Helvetica,sans-Serif" font-size="10.00">+ SetChangeOfBasisMatrix()</text>
<text text-anchor="start" x="30.5" y="-478.5" font-family="Helvetica,sans-Serif" font-size="10.00">+ ResetToNoChangeOfBasisMatrix()</text>
<text text-anchor="start" x="30.5" y="-467.5" font-family="Helvetica,sans-Serif" font-size="10.00"># ComputeTransformedDeformation</text>
<text text-anchor="start" x="30.5" y="-456.5" font-family="Helvetica,sans-Serif" font-size="10.00">Tensor()</text>
<text text-anchor="start" x="30.5" y="-445.5" font-family="Helvetica,sans-Serif" font-size="10.00"># TransformStressAndStress</text>
<text text-anchor="start" x="30.5" y="-434.5" font-family="Helvetica,sans-Serif" font-size="10.00">Derivative()</text>
</a>
</g>
</g>
<!-- Node3&#45;&gt;Node2 -->
<g id="edge2" class="edge"><title>Node3&#45;&gt;Node2</title>
<path fill="none" stroke="midnightblue" d="M101.986,-417.431C101.012,-408.165 100.16,-398.928 99.5,-390 96.0199,-342.913 95.5745,-288.814 95.8103,-251.817"/>
<polygon fill="none" stroke="midnightblue" points="98.5187,-417.922 103.087,-427.482 105.477,-417.16 98.5187,-417.922"/>
</g>
<!-- Node4 -->
<g id="node4" class="node"><title>Node4</title>
<g id="a_node4"><a xlink:href="classAbstractIncompressibleMaterialLaw.html" target="_top" xlink:title="{AbstractIncompressibleMaterial\lLaw\&lt; DIM \&gt;\n||+ AbstractIncompressibleMaterialLaw()\l+ ~AbstractIncompressibleMaterialLaw()\l+ GetZeroStrainPressure()\l}">
<polygon fill="white" stroke="black" points="109,-299.5 109,-389.5 302,-389.5 302,-299.5 109,-299.5"/>
<text text-anchor="start" x="117" y="-377.5" font-family="Helvetica,sans-Serif" font-size="10.00">AbstractIncompressibleMaterial</text>
<text text-anchor="middle" x="205.5" y="-366.5" font-family="Helvetica,sans-Serif" font-size="10.00">Law&lt; DIM &gt;</text>
<polyline fill="none" stroke="black" points="109,-359.5 302,-359.5 "/>
<text text-anchor="middle" x="205.5" y="-347.5" font-family="Helvetica,sans-Serif" font-size="10.00"> </text>
<polyline fill="none" stroke="black" points="109,-340.5 302,-340.5 "/>
<text text-anchor="start" x="117" y="-328.5" font-family="Helvetica,sans-Serif" font-size="10.00">+ AbstractIncompressibleMaterialLaw()</text>
<text text-anchor="start" x="117" y="-317.5" font-family="Helvetica,sans-Serif" font-size="10.00">+ ~AbstractIncompressibleMaterialLaw()</text>
<text text-anchor="start" x="117" y="-306.5" font-family="Helvetica,sans-Serif" font-size="10.00">+ GetZeroStrainPressure()</text>
</a>
</g>
</g>
<!-- Node3&#45;&gt;Node4 -->
<g id="edge4" class="edge"><title>Node3&#45;&gt;Node4</title>
<path fill="none" stroke="midnightblue" d="M170.225,-418.055C175.062,-408.106 179.753,-398.458 184.05,-389.618"/>
<polygon fill="none" stroke="midnightblue" points="166.973,-416.739 165.748,-427.263 173.268,-419.8 166.973,-416.739"/>
</g>
<!-- Node4&#45;&gt;Node2 -->
<g id="edge3" class="edge"><title>Node4&#45;&gt;Node2</title>
<path fill="none" stroke="orange" d="M163.714,-291.363C153.28,-278.345 142.187,-264.504 132.085,-251.899"/>
<polygon fill="orange" stroke="orange" points="161.126,-293.73 170.111,-299.345 166.588,-289.353 161.126,-293.73"/>
<text text-anchor="middle" x="167" y="-273" font-family="Helvetica,sans-Serif" font-size="10.00"> &lt; 2 &gt;</text>
</g>
</g>
</svg>
