<?xml version="1.0" encoding="UTF-8" standalone="no"?>
<!DOCTYPE svg PUBLIC "-//W3C//DTD SVG 1.1//EN"
 "http://www.w3.org/Graphics/SVG/1.1/DTD/svg11.dtd">
<!-- Generated by graphviz version 2.38.0 (20140413.2041)
 -->
<!-- Title: ConstantActiveTension Pages: 1 -->
<svg width="306pt" height="519pt"
 viewBox="0.00 0.00 305.50 519.00" xmlns="http://www.w3.org/2000/svg" xmlns:xlink="http://www.w3.org/1999/xlink">
<g id="graph0" class="graph" transform="scale(1 1) rotate(0) translate(4 515)">
<title>ConstantActiveTension</title>
<polygon fill="white" stroke="none" points="-4,4 -4,-515 301.5,-515 301.5,4 -4,4"/>
<!-- Node1 -->
<g id="node1" class="node"><title>Node1</title>
<polygon fill="#bfbfbf" stroke="black" points="88.5,-0.5 88.5,-123.5 236.5,-123.5 236.5,-0.5 88.5,-0.5"/>
<text text-anchor="middle" x="162.5" y="-111.5" font-family="Helvetica,sans-Serif" font-size="10.00">ConstantActiveTension</text>
<polyline fill="none" stroke="black" points="88.5,-104.5 236.5,-104.5 "/>
<text text-anchor="middle" x="162.5" y="-92.5" font-family="Helvetica,sans-Serif" font-size="10.00"> </text>
<polyline fill="none" stroke="black" points="88.5,-85.5 236.5,-85.5 "/>
<text text-anchor="start" x="96.5" y="-73.5" font-family="Helvetica,sans-Serif" font-size="10.00">+ ConstantActiveTension()</text>
<text text-anchor="start" x="96.5" y="-62.5" font-family="Helvetica,sans-Serif" font-size="10.00">+ SetInputParameters()</text>
<text text-anchor="start" x="96.5" y="-51.5" font-family="Helvetica,sans-Serif" font-size="10.00">+ SetStretchAndStretchRate()</text>
<text text-anchor="start" x="96.5" y="-40.5" font-family="Helvetica,sans-Serif" font-size="10.00">+ GetActiveTension()</text>
<text text-anchor="start" x="96.5" y="-29.5" font-family="Helvetica,sans-Serif" font-size="10.00">+ IsStretchDependent()</text>
<text text-anchor="start" x="96.5" y="-18.5" font-family="Helvetica,sans-Serif" font-size="10.00">+ IsStretchRateDependent()</text>
<text text-anchor="start" x="96.5" y="-7.5" font-family="Helvetica,sans-Serif" font-size="10.00">+ SetActiveTensionValue()</text>
</g>
<!-- Node2 -->
<g id="node2" class="node"><title>Node2</title>
<g id="a_node2"><a xlink:href="classAbstractAlgebraicContractionModel.html" target="_top" xlink:title="{AbstractAlgebraicContraction\lModel\n||+ AbstractAlgebraicContraction\lModel()\l+ RunDoNotUpdate()\l+ RunAndUpdate()\l+ GetNextActiveTension()\l+ UpdateStateVariables()\l}">
<polygon fill="white" stroke="black" points="2,-161.5 2,-284.5 155,-284.5 155,-161.5 2,-161.5"/>
<text text-anchor="start" x="10" y="-272.5" font-family="Helvetica,sans-Serif" font-size="10.00">AbstractAlgebraicContraction</text>
<text text-anchor="middle" x="78.5" y="-261.5" font-family="Helvetica,sans-Serif" font-size="10.00">Model</text>
<polyline fill="none" stroke="black" points="2,-254.5 155,-254.5 "/>
<text text-anchor="middle" x="78.5" y="-242.5" font-family="Helvetica,sans-Serif" font-size="10.00"> </text>
<polyline fill="none" stroke="black" points="2,-235.5 155,-235.5 "/>
<text text-anchor="start" x="10" y="-223.5" font-family="Helvetica,sans-Serif" font-size="10.00">+ AbstractAlgebraicContraction</text>
<text text-anchor="start" x="10" y="-212.5" font-family="Helvetica,sans-Serif" font-size="10.00">Model()</text>
<text text-anchor="start" x="10" y="-201.5" font-family="Helvetica,sans-Serif" font-size="10.00">+ RunDoNotUpdate()</text>
<text text-anchor="start" x="10" y="-190.5" font-family="Helvetica,sans-Serif" font-size="10.00">+ RunAndUpdate()</text>
<text text-anchor="start" x="10" y="-179.5" font-family="Helvetica,sans-Serif" font-size="10.00">+ GetNextActiveTension()</text>
<text text-anchor="start" x="10" y="-168.5" font-family="Helvetica,sans-Serif" font-size="10.00">+ UpdateStateVariables()</text>
</a>
</g>
</g>
<!-- Node2&#45;&gt;Node1 -->
<g id="edge1" class="edge"><title>Node2&#45;&gt;Node1</title>
<path fill="none" stroke="midnightblue" d="M115.297,-152.349C120.347,-142.791 125.498,-133.039 130.453,-123.66"/>
<polygon fill="none" stroke="midnightblue" points="112.073,-150.958 110.496,-161.435 118.262,-154.228 112.073,-150.958"/>
</g>
<!-- Node3 -->
<g id="node3" class="node"><title>Node3</title>
<g id="a_node3"><a xlink:href="classAbstractContractionModel.html" target="_top" xlink:title="{AbstractContractionModel\n||+ AbstractContractionModel()\l+ ~AbstractContractionModel()\l+ IsStretchDependent()\l+ IsStretchRateDependent()\l+ SetInputParameters()\l+ SetStretchAndStretchRate()\l+ SetStretch()\l+ RunDoNotUpdate()\l+ RunAndUpdate()\l+ UpdateStateVariables()\l+ GetActiveTension()\l+ GetNextActiveTension()\l}">
<polygon fill="white" stroke="black" points="0,-332.5 0,-510.5 151,-510.5 151,-332.5 0,-332.5"/>
<text text-anchor="middle" x="75.5" y="-498.5" font-family="Helvetica,sans-Serif" font-size="10.00">AbstractContractionModel</text>
<polyline fill="none" stroke="black" points="0,-491.5 151,-491.5 "/>
<text text-anchor="middle" x="75.5" y="-479.5" font-family="Helvetica,sans-Serif" font-size="10.00"> </text>
<polyline fill="none" stroke="black" points="0,-472.5 151,-472.5 "/>
<text text-anchor="start" x="8" y="-460.5" font-family="Helvetica,sans-Serif" font-size="10.00">+ AbstractContractionModel()</text>
<text text-anchor="start" x="8" y="-449.5" font-family="Helvetica,sans-Serif" font-size="10.00">+ ~AbstractContractionModel()</text>
<text text-anchor="start" x="8" y="-438.5" font-family="Helvetica,sans-Serif" font-size="10.00">+ IsStretchDependent()</text>
<text text-anchor="start" x="8" y="-427.5" font-family="Helvetica,sans-Serif" font-size="10.00">+ IsStretchRateDependent()</text>
<text text-anchor="start" x="8" y="-416.5" font-family="Helvetica,sans-Serif" font-size="10.00">+ SetInputParameters()</text>
<text text-anchor="start" x="8" y="-405.5" font-family="Helvetica,sans-Serif" font-size="10.00">+ SetStretchAndStretchRate()</text>
<text text-anchor="start" x="8" y="-394.5" font-family="Helvetica,sans-Serif" font-size="10.00">+ SetStretch()</text>
<text text-anchor="start" x="8" y="-383.5" font-family="Helvetica,sans-Serif" font-size="10.00">+ RunDoNotUpdate()</text>
<text text-anchor="start" x="8" y="-372.5" font-family="Helvetica,sans-Serif" font-size="10.00">+ RunAndUpdate()</text>
<text text-anchor="start" x="8" y="-361.5" font-family="Helvetica,sans-Serif" font-size="10.00">+ UpdateStateVariables()</text>
<text text-anchor="start" x="8" y="-350.5" font-family="Helvetica,sans-Serif" font-size="10.00">+ GetActiveTension()</text>
<text text-anchor="start" x="8" y="-339.5" font-family="Helvetica,sans-Serif" font-size="10.00">+ GetNextActiveTension()</text>
</a>
</g>
</g>
<!-- Node3&#45;&gt;Node2 -->
<g id="edge2" class="edge"><title>Node3&#45;&gt;Node2</title>
<path fill="none" stroke="midnightblue" d="M77.0027,-322.075C77.1978,-309.296 77.3928,-296.52 77.5746,-284.613"/>
<polygon fill="none" stroke="midnightblue" points="73.4996,-322.256 76.8464,-332.309 80.4988,-322.363 73.4996,-322.256"/>
</g>
<!-- Node4 -->
<g id="node4" class="node"><title>Node4</title>
<g id="a_node4"><a xlink:href="classdouble.html" target="_top" xlink:title="{double\n||}">
<polygon fill="white" stroke="black" points="169,-393 169,-450 214,-450 214,-393 169,-393"/>
<text text-anchor="middle" x="191.5" y="-438" font-family="Helvetica,sans-Serif" font-size="10.00">double</text>
<polyline fill="none" stroke="black" points="169,-431 214,-431 "/>
<text text-anchor="middle" x="191.5" y="-419" font-family="Helvetica,sans-Serif" font-size="10.00"> </text>
<polyline fill="none" stroke="black" points="169,-412 214,-412 "/>
<text text-anchor="middle" x="191.5" y="-400" font-family="Helvetica,sans-Serif" font-size="10.00"> </text>
</a>
</g>
</g>
<!-- Node4&#45;&gt;Node1 -->
<g id="edge4" class="edge"><title>Node4&#45;&gt;Node1</title>
<path fill="none" stroke="#404040" d="M189.249,-392.745C184.821,-338.164 174.853,-215.283 168.415,-135.912"/>
<polygon fill="none" stroke="#404040" points="168.383,-135.525 163.911,-129.868 167.413,-123.564 171.885,-129.221 168.383,-135.525"/>
<text text-anchor="middle" x="239" y="-220.5" font-family="Helvetica,sans-Serif" font-size="10.00"> &#45;mConstantActiveTension</text>
</g>
<!-- Node4&#45;&gt;Node2 -->
<g id="edge3" class="edge"><title>Node4&#45;&gt;Node2</title>
<path fill="none" stroke="#404040" d="M185.432,-392.847C180.493,-374.467 172.223,-350.416 159.5,-332 152.513,-321.886 146.653,-323.2 138.5,-314 133.145,-307.956 127.896,-301.404 122.868,-294.684"/>
<polygon fill="none" stroke="#404040" points="122.717,-294.475 115.957,-291.964 115.674,-284.758 122.434,-287.269 122.717,-294.475"/>
<text text-anchor="middle" x="158" y="-306" font-family="Helvetica,sans-Serif" font-size="10.00"> #mTime</text>
</g>
</g>
</svg>
