<?xml version="1.0" encoding="UTF-8" standalone="no"?>
<!DOCTYPE svg PUBLIC "-//W3C//DTD SVG 1.1//EN"
 "http://www.w3.org/Graphics/SVG/1.1/DTD/svg11.dtd">
<!-- Generated by graphviz version 2.38.0 (20140413.2041)
 -->
<!-- Title: AbstractUntemplatedConvergenceTester Pages: 1 -->
<svg width="496pt" height="336pt"
 viewBox="0.00 0.00 495.50 336.00" xmlns="http://www.w3.org/2000/svg" xmlns:xlink="http://www.w3.org/1999/xlink">
<g id="graph0" class="graph" transform="scale(1 1) rotate(0) translate(4 332)">
<title>AbstractUntemplatedConvergenceTester</title>
<polygon fill="white" stroke="none" points="-4,4 -4,-332 491.5,-332 491.5,4 -4,4"/>
<!-- Node1 -->
<g id="node1" class="node"><title>Node1</title>
<polygon fill="#bfbfbf" stroke="black" points="167.5,-0.5 167.5,-112.5 349.5,-112.5 349.5,-0.5 167.5,-0.5"/>
<text text-anchor="start" x="175.5" y="-100.5" font-family="Helvetica,sans-Serif" font-size="10.00">AbstractUntemplatedConvergence</text>
<text text-anchor="middle" x="258.5" y="-89.5" font-family="Helvetica,sans-Serif" font-size="10.00">Tester</text>
<polyline fill="none" stroke="black" points="167.5,-82.5 349.5,-82.5 "/>
<text text-anchor="middle" x="258.5" y="-70.5" font-family="Helvetica,sans-Serif" font-size="10.00"> </text>
<polyline fill="none" stroke="black" points="167.5,-63.5 349.5,-63.5 "/>
<text text-anchor="start" x="175.5" y="-51.5" font-family="Helvetica,sans-Serif" font-size="10.00">+ AbstractUntemplatedConvergence</text>
<text text-anchor="start" x="175.5" y="-40.5" font-family="Helvetica,sans-Serif" font-size="10.00">Tester()</text>
<text text-anchor="start" x="175.5" y="-29.5" font-family="Helvetica,sans-Serif" font-size="10.00">+ Converge()</text>
<text text-anchor="start" x="175.5" y="-18.5" font-family="Helvetica,sans-Serif" font-size="10.00">+ ~AbstractUntemplatedConvergence</text>
<text text-anchor="start" x="175.5" y="-7.5" font-family="Helvetica,sans-Serif" font-size="10.00">Tester()</text>
</g>
<!-- Node2 -->
<g id="node2" class="node"><title>Node2</title>
<g id="a_node2"><a xlink:href="classdouble.html" target="_top" xlink:title="{double\n||}">
<polygon fill="white" stroke="black" points="0,-270.5 0,-327.5 45,-327.5 45,-270.5 0,-270.5"/>
<text text-anchor="middle" x="22.5" y="-315.5" font-family="Helvetica,sans-Serif" font-size="10.00">double</text>
<polyline fill="none" stroke="black" points="0,-308.5 45,-308.5 "/>
<text text-anchor="middle" x="22.5" y="-296.5" font-family="Helvetica,sans-Serif" font-size="10.00"> </text>
<polyline fill="none" stroke="black" points="0,-289.5 45,-289.5 "/>
<text text-anchor="middle" x="22.5" y="-277.5" font-family="Helvetica,sans-Serif" font-size="10.00"> </text>
</a>
</g>
</g>
<!-- Node2&#45;&gt;Node1 -->
<g id="edge1" class="edge"><title>Node2&#45;&gt;Node1</title>
<path fill="none" stroke="#404040" d="M14.8459,-270.247C6.70819,-234.24 -1.1876,-171.279 29.5,-131 59.1214,-92.1204 109.535,-73.4291 155.532,-64.5928"/>
<polygon fill="none" stroke="#404040" points="155.609,-64.5795 160.826,-59.6013 167.427,-62.5024 162.21,-67.4806 155.609,-64.5795"/>
<text text-anchor="middle" x="98" y="-244" font-family="Helvetica,sans-Serif" font-size="10.00"> +ConductionVelocity</text>
<text text-anchor="middle" x="98" y="-233" font-family="Helvetica,sans-Serif" font-size="10.00">+OdeTimeStep</text>
<text text-anchor="middle" x="98" y="-222" font-family="Helvetica,sans-Serif" font-size="10.00">+LastDifference</text>
<text text-anchor="middle" x="98" y="-211" font-family="Helvetica,sans-Serif" font-size="10.00">+AbsoluteStimulus</text>
<text text-anchor="middle" x="98" y="-200" font-family="Helvetica,sans-Serif" font-size="10.00">+Apd90ThirdQn</text>
<text text-anchor="middle" x="98" y="-189" font-family="Helvetica,sans-Serif" font-size="10.00">+NeumannStimulus</text>
<text text-anchor="middle" x="98" y="-178" font-family="Helvetica,sans-Serif" font-size="10.00">+RelativeConvergenceCriterion</text>
<text text-anchor="middle" x="98" y="-167" font-family="Helvetica,sans-Serif" font-size="10.00">#mMeshWidth</text>
<text text-anchor="middle" x="98" y="-156" font-family="Helvetica,sans-Serif" font-size="10.00">+Apd90FirstQn</text>
<text text-anchor="middle" x="98" y="-145" font-family="Helvetica,sans-Serif" font-size="10.00">+PdeTimeStep</text>
<text text-anchor="middle" x="98" y="-134" font-family="Helvetica,sans-Serif" font-size="10.00">...</text>
</g>
<!-- Node3 -->
<g id="node3" class="node"><title>Node3</title>
<g id="a_node3"><a xlink:href="classbool.html" target="_top" xlink:title="{bool\n||}">
<polygon fill="white" stroke="black" points="165,-270.5 165,-327.5 200,-327.5 200,-270.5 165,-270.5"/>
<text text-anchor="middle" x="182.5" y="-315.5" font-family="Helvetica,sans-Serif" font-size="10.00">bool</text>
<polyline fill="none" stroke="black" points="165,-308.5 200,-308.5 "/>
<text text-anchor="middle" x="182.5" y="-296.5" font-family="Helvetica,sans-Serif" font-size="10.00"> </text>
<polyline fill="none" stroke="black" points="165,-289.5 200,-289.5 "/>
<text text-anchor="middle" x="182.5" y="-277.5" font-family="Helvetica,sans-Serif" font-size="10.00"> </text>
</a>
</g>
</g>
<!-- Node3&#45;&gt;Node1 -->
<g id="edge2" class="edge"><title>Node3&#45;&gt;Node1</title>
<path fill="none" stroke="#404040" d="M176.415,-270.392C170.246,-236.174 164.103,-176.784 183.5,-131 184.64,-128.309 185.932,-125.667 187.351,-123.078"/>
<polygon fill="none" stroke="#404040" points="187.46,-122.905 187.267,-115.696 193.846,-112.745 194.039,-119.954 187.46,-122.905"/>
<text text-anchor="middle" x="248.5" y="-205.5" font-family="Helvetica,sans-Serif" font-size="10.00"> +SimulateFullActionPotential</text>
<text text-anchor="middle" x="248.5" y="-194.5" font-family="Helvetica,sans-Serif" font-size="10.00">+PopulatedResult</text>
<text text-anchor="middle" x="248.5" y="-183.5" font-family="Helvetica,sans-Serif" font-size="10.00">+FixedResult</text>
<text text-anchor="middle" x="248.5" y="-172.5" font-family="Helvetica,sans-Serif" font-size="10.00">+Converged</text>
</g>
<!-- Node4 -->
<g id="node4" class="node"><title>Node4</title>
<polygon fill="white" stroke="#bfbfbf" points="281,-270.5 281,-327.5 390,-327.5 390,-270.5 281,-270.5"/>
<text text-anchor="middle" x="335.5" y="-315.5" font-family="Helvetica,sans-Serif" font-size="10.00">enum StimulusType_</text>
<polyline fill="none" stroke="#bfbfbf" points="281,-308.5 390,-308.5 "/>
<text text-anchor="middle" x="335.5" y="-296.5" font-family="Helvetica,sans-Serif" font-size="10.00"> </text>
<polyline fill="none" stroke="#bfbfbf" points="281,-289.5 390,-289.5 "/>
<text text-anchor="middle" x="335.5" y="-277.5" font-family="Helvetica,sans-Serif" font-size="10.00"> </text>
</g>
<!-- Node4&#45;&gt;Node1 -->
<g id="edge3" class="edge"><title>Node4&#45;&gt;Node1</title>
<path fill="none" stroke="#404040" d="M336.072,-270.311C335.84,-236.268 332.359,-177.314 313.5,-131 312.474,-128.481 311.341,-125.972 310.119,-123.482"/>
<polygon fill="none" stroke="#404040" points="309.995,-123.254 303.612,-119.9 304.252,-112.718 310.636,-116.072 309.995,-123.254"/>
<text text-anchor="middle" x="359.5" y="-189" font-family="Helvetica,sans-Serif" font-size="10.00"> +Stimulus</text>
</g>
<!-- Node5 -->
<g id="node5" class="node"><title>Node5</title>
<g id="a_node5"><a xlink:href="classunsigned.html" target="_top" xlink:title="{unsigned\n||}">
<polygon fill="white" stroke="black" points="408.5,-270.5 408.5,-327.5 464.5,-327.5 464.5,-270.5 408.5,-270.5"/>
<text text-anchor="middle" x="436.5" y="-315.5" font-family="Helvetica,sans-Serif" font-size="10.00">unsigned</text>
<polyline fill="none" stroke="black" points="408.5,-308.5 464.5,-308.5 "/>
<text text-anchor="middle" x="436.5" y="-296.5" font-family="Helvetica,sans-Serif" font-size="10.00"> </text>
<polyline fill="none" stroke="black" points="408.5,-289.5 464.5,-289.5 "/>
<text text-anchor="middle" x="436.5" y="-277.5" font-family="Helvetica,sans-Serif" font-size="10.00"> </text>
</a>
</g>
</g>
<!-- Node5&#45;&gt;Node1 -->
<g id="edge4" class="edge"><title>Node5&#45;&gt;Node1</title>
<path fill="none" stroke="#404040" d="M434.677,-270.267C431.03,-234.567 420.113,-172.237 387.5,-131 379.685,-121.118 370.151,-112.33 359.84,-104.579"/>
<polygon fill="none" stroke="#404040" points="359.554,-104.377 352.346,-104.189 349.747,-97.4629 356.955,-97.651 359.554,-104.377"/>
<text text-anchor="middle" x="460" y="-189" font-family="Helvetica,sans-Serif" font-size="10.00"> +MeshNum</text>
</g>
</g>
</svg>
