<?xml version="1.0" encoding="UTF-8" standalone="no"?>
<!DOCTYPE svg PUBLIC "-//W3C//DTD SVG 1.1//EN"
 "http://www.w3.org/Graphics/SVG/1.1/DTD/svg11.dtd">
<!-- Generated by graphviz version 2.38.0 (20140413.2041)
 -->
<!-- Title: HoneycombVertexMeshGenerator Pages: 1 -->
<svg width="344pt" height="237pt"
 viewBox="0.00 0.00 343.50 237.00" xmlns="http://www.w3.org/2000/svg" xmlns:xlink="http://www.w3.org/1999/xlink">
<g id="graph0" class="graph" transform="scale(1 1) rotate(0) translate(4 233)">
<title>HoneycombVertexMeshGenerator</title>
<polygon fill="white" stroke="none" points="-4,4 -4,-233 339.5,-233 339.5,4 -4,4"/>
<!-- Node1 -->
<g id="node1" class="node"><title>Node1</title>
<polygon fill="#bfbfbf" stroke="black" points="71.5,-138.5 71.5,-228.5 256.5,-228.5 256.5,-138.5 71.5,-138.5"/>
<text text-anchor="middle" x="164" y="-216.5" font-family="Helvetica,sans-Serif" font-size="10.00">HoneycombVertexMeshGenerator</text>
<polyline fill="none" stroke="black" points="71.5,-209.5 256.5,-209.5 "/>
<text text-anchor="start" x="79.5" y="-197.5" font-family="Helvetica,sans-Serif" font-size="10.00"># mpMesh</text>
<polyline fill="none" stroke="black" points="71.5,-190.5 256.5,-190.5 "/>
<text text-anchor="start" x="79.5" y="-178.5" font-family="Helvetica,sans-Serif" font-size="10.00">+ HoneycombVertexMeshGenerator()</text>
<text text-anchor="start" x="79.5" y="-167.5" font-family="Helvetica,sans-Serif" font-size="10.00">+ HoneycombVertexMeshGenerator()</text>
<text text-anchor="start" x="79.5" y="-156.5" font-family="Helvetica,sans-Serif" font-size="10.00">+ ~HoneycombVertexMeshGenerator()</text>
<text text-anchor="start" x="79.5" y="-145.5" font-family="Helvetica,sans-Serif" font-size="10.00">+ GetMesh()</text>
</g>
<!-- Node2 -->
<g id="node2" class="node"><title>Node2</title>
<g id="a_node2"><a xlink:href="classCylindricalHoneycombVertexMeshGenerator.html" target="_top" xlink:title="{CylindricalHoneycombVertex\lMeshGenerator\n||+ CylindricalHoneycombVertex\lMeshGenerator()\l+ GetMesh()\l+ GetCylindricalMesh()\l}">
<polygon fill="white" stroke="black" points="0,-0.5 0,-101.5 152,-101.5 152,-0.5 0,-0.5"/>
<text text-anchor="start" x="8" y="-89.5" font-family="Helvetica,sans-Serif" font-size="10.00">CylindricalHoneycombVertex</text>
<text text-anchor="middle" x="76" y="-78.5" font-family="Helvetica,sans-Serif" font-size="10.00">MeshGenerator</text>
<polyline fill="none" stroke="black" points="0,-71.5 152,-71.5 "/>
<text text-anchor="middle" x="76" y="-59.5" font-family="Helvetica,sans-Serif" font-size="10.00"> </text>
<polyline fill="none" stroke="black" points="0,-52.5 152,-52.5 "/>
<text text-anchor="start" x="8" y="-40.5" font-family="Helvetica,sans-Serif" font-size="10.00">+ CylindricalHoneycombVertex</text>
<text text-anchor="start" x="8" y="-29.5" font-family="Helvetica,sans-Serif" font-size="10.00">MeshGenerator()</text>
<text text-anchor="start" x="8" y="-18.5" font-family="Helvetica,sans-Serif" font-size="10.00">+ GetMesh()</text>
<text text-anchor="start" x="8" y="-7.5" font-family="Helvetica,sans-Serif" font-size="10.00">+ GetCylindricalMesh()</text>
</a>
</g>
</g>
<!-- Node1&#45;&gt;Node2 -->
<g id="edge1" class="edge"><title>Node1&#45;&gt;Node2</title>
<path fill="none" stroke="#8b1a1a" d="M128.498,-129.853C122.191,-120.499 115.641,-110.786 109.395,-101.523"/>
<polygon fill="none" stroke="#8b1a1a" points="125.714,-131.984 134.207,-138.319 131.518,-128.071 125.714,-131.984"/>
</g>
<!-- Node3 -->
<g id="node3" class="node"><title>Node3</title>
<g id="a_node3"><a xlink:href="classToroidalHoneycombVertexMeshGenerator.html" target="_top" xlink:title="{ToroidalHoneycombVertexMesh\lGenerator\n||+ ToroidalHoneycombVertexMesh\lGenerator()\l+ GetMesh()\l+ GetToroidalMesh()\l}">
<polygon fill="white" stroke="black" points="170.5,-0.5 170.5,-101.5 335.5,-101.5 335.5,-0.5 170.5,-0.5"/>
<text text-anchor="start" x="178.5" y="-89.5" font-family="Helvetica,sans-Serif" font-size="10.00">ToroidalHoneycombVertexMesh</text>
<text text-anchor="middle" x="253" y="-78.5" font-family="Helvetica,sans-Serif" font-size="10.00">Generator</text>
<polyline fill="none" stroke="black" points="170.5,-71.5 335.5,-71.5 "/>
<text text-anchor="middle" x="253" y="-59.5" font-family="Helvetica,sans-Serif" font-size="10.00"> </text>
<polyline fill="none" stroke="black" points="170.5,-52.5 335.5,-52.5 "/>
<text text-anchor="start" x="178.5" y="-40.5" font-family="Helvetica,sans-Serif" font-size="10.00">+ ToroidalHoneycombVertexMesh</text>
<text text-anchor="start" x="178.5" y="-29.5" font-family="Helvetica,sans-Serif" font-size="10.00">Generator()</text>
<text text-anchor="start" x="178.5" y="-18.5" font-family="Helvetica,sans-Serif" font-size="10.00">+ GetMesh()</text>
<text text-anchor="start" x="178.5" y="-7.5" font-family="Helvetica,sans-Serif" font-size="10.00">+ GetToroidalMesh()</text>
</a>
</g>
</g>
<!-- Node1&#45;&gt;Node3 -->
<g id="edge2" class="edge"><title>Node1&#45;&gt;Node3</title>
<path fill="none" stroke="#8b1a1a" d="M199.905,-129.853C206.284,-120.499 212.909,-110.786 219.226,-101.523"/>
<polygon fill="none" stroke="#8b1a1a" points="196.874,-128.085 194.131,-138.319 202.657,-132.029 196.874,-128.085"/>
</g>
</g>
</svg>
