<?xml version="1.0" encoding="UTF-8" standalone="no"?>
<!DOCTYPE svg PUBLIC "-//W3C//DTD SVG 1.1//EN"
 "http://www.w3.org/Graphics/SVG/1.1/DTD/svg11.dtd">
<!-- Generated by graphviz version 2.38.0 (20140413.2041)
 -->
<!-- Title: VertexElement&lt; 1, SPACE_DIM &gt; Pages: 1 -->
<svg width="621pt" height="928pt"
 viewBox="0.00 0.00 621.19 928.00" xmlns="http://www.w3.org/2000/svg" xmlns:xlink="http://www.w3.org/1999/xlink">
<g id="graph0" class="graph" transform="scale(1 1) rotate(0) translate(4 924)">
<title>VertexElement&lt; 1, SPACE_DIM &gt;</title>
<polygon fill="white" stroke="none" points="-4,4 -4,-924 617.189,-924 617.189,4 -4,4"/>
<!-- Node1 -->
<g id="node1" class="node"><title>Node1</title>
<polygon fill="#bfbfbf" stroke="black" points="174.189,-0.5 174.189,-101.5 326.189,-101.5 326.189,-0.5 174.189,-0.5"/>
<text text-anchor="start" x="182.189" y="-89.5" font-family="Helvetica,sans-Serif" font-size="10.00">VertexElement&lt; 1, SPACE</text>
<text text-anchor="middle" x="250.189" y="-78.5" font-family="Helvetica,sans-Serif" font-size="10.00">_DIM &gt;</text>
<polyline fill="none" stroke="black" points="174.189,-71.5 326.189,-71.5 "/>
<text text-anchor="middle" x="250.189" y="-59.5" font-family="Helvetica,sans-Serif" font-size="10.00"> </text>
<polyline fill="none" stroke="black" points="174.189,-52.5 326.189,-52.5 "/>
<text text-anchor="start" x="182.189" y="-40.5" font-family="Helvetica,sans-Serif" font-size="10.00">+ VertexElement()</text>
<text text-anchor="start" x="182.189" y="-29.5" font-family="Helvetica,sans-Serif" font-size="10.00">+ GetNumFaces()</text>
<text text-anchor="start" x="182.189" y="-18.5" font-family="Helvetica,sans-Serif" font-size="10.00">+ GetFace()</text>
<text text-anchor="start" x="182.189" y="-7.5" font-family="Helvetica,sans-Serif" font-size="10.00">+ FaceIsOrientatedClockwise()</text>
</g>
<!-- Node2 -->
<g id="node2" class="node"><title>Node2</title>
<g id="a_node2"><a xlink:href="classMutableElement_3_011_00_01SPACE__DIM_01_4.html" target="_top" xlink:title="{MutableElement\&lt; 1,\l SPACE_DIM \&gt;\n||+ MutableElement()\l+ MutableElement()\l+ ~MutableElement()\l+ UpdateNode()\l+ RegisterWithNodes()\l+ MarkAsDeleted()\l+ ResetIndex()\l+ DeleteNode()\l+ AddNode()\l+ GetNodeLocalIndex()\l+ IsElementOnBoundary()\l}">
<polygon fill="white" stroke="black" points="185.189,-139.5 185.189,-317.5 315.189,-317.5 315.189,-139.5 185.189,-139.5"/>
<text text-anchor="start" x="193.189" y="-305.5" font-family="Helvetica,sans-Serif" font-size="10.00">MutableElement&lt; 1,</text>
<text text-anchor="middle" x="250.189" y="-294.5" font-family="Helvetica,sans-Serif" font-size="10.00"> SPACE_DIM &gt;</text>
<polyline fill="none" stroke="black" points="185.189,-287.5 315.189,-287.5 "/>
<text text-anchor="middle" x="250.189" y="-275.5" font-family="Helvetica,sans-Serif" font-size="10.00"> </text>
<polyline fill="none" stroke="black" points="185.189,-268.5 315.189,-268.5 "/>
<text text-anchor="start" x="193.189" y="-256.5" font-family="Helvetica,sans-Serif" font-size="10.00">+ MutableElement()</text>
<text text-anchor="start" x="193.189" y="-245.5" font-family="Helvetica,sans-Serif" font-size="10.00">+ MutableElement()</text>
<text text-anchor="start" x="193.189" y="-234.5" font-family="Helvetica,sans-Serif" font-size="10.00">+ ~MutableElement()</text>
<text text-anchor="start" x="193.189" y="-223.5" font-family="Helvetica,sans-Serif" font-size="10.00">+ UpdateNode()</text>
<text text-anchor="start" x="193.189" y="-212.5" font-family="Helvetica,sans-Serif" font-size="10.00">+ RegisterWithNodes()</text>
<text text-anchor="start" x="193.189" y="-201.5" font-family="Helvetica,sans-Serif" font-size="10.00">+ MarkAsDeleted()</text>
<text text-anchor="start" x="193.189" y="-190.5" font-family="Helvetica,sans-Serif" font-size="10.00">+ ResetIndex()</text>
<text text-anchor="start" x="193.189" y="-179.5" font-family="Helvetica,sans-Serif" font-size="10.00">+ DeleteNode()</text>
<text text-anchor="start" x="193.189" y="-168.5" font-family="Helvetica,sans-Serif" font-size="10.00">+ AddNode()</text>
<text text-anchor="start" x="193.189" y="-157.5" font-family="Helvetica,sans-Serif" font-size="10.00">+ GetNodeLocalIndex()</text>
<text text-anchor="start" x="193.189" y="-146.5" font-family="Helvetica,sans-Serif" font-size="10.00">+ IsElementOnBoundary()</text>
</a>
</g>
</g>
<!-- Node2&#45;&gt;Node1 -->
<g id="edge1" class="edge"><title>Node2&#45;&gt;Node1</title>
<path fill="none" stroke="midnightblue" d="M250.189,-129.459C250.189,-119.87 250.189,-110.447 250.189,-101.657"/>
<polygon fill="none" stroke="midnightblue" points="246.689,-129.493 250.189,-139.493 253.689,-129.493 246.689,-129.493"/>
</g>
<!-- Node3 -->
<g id="node3" class="node"><title>Node3</title>
<g id="a_node3"><a xlink:href="classAbstractElement.html" target="_top" xlink:title="{AbstractElement\&lt; 1,\l SPACE_DIM \&gt;\n||+ AbstractElement()\l+ AbstractElement()\l+ ~AbstractElement()\l+ UpdateNode()\l+ ReplaceNode()\l+ MarkAsDeleted()\l+ RegisterWithNodes()\l+ GetNodeLocation()\l+ GetNodeLocation()\l+ GetNodeGlobalIndex()\land 14 more...\l# ConstructElementAttributes()\l}">
<polygon fill="white" stroke="black" points="174.189,-355.5 174.189,-544.5 326.189,-544.5 326.189,-355.5 174.189,-355.5"/>
<text text-anchor="start" x="182.189" y="-532.5" font-family="Helvetica,sans-Serif" font-size="10.00">AbstractElement&lt; 1,</text>
<text text-anchor="middle" x="250.189" y="-521.5" font-family="Helvetica,sans-Serif" font-size="10.00"> SPACE_DIM &gt;</text>
<polyline fill="none" stroke="black" points="174.189,-514.5 326.189,-514.5 "/>
<text text-anchor="middle" x="250.189" y="-502.5" font-family="Helvetica,sans-Serif" font-size="10.00"> </text>
<polyline fill="none" stroke="black" points="174.189,-495.5 326.189,-495.5 "/>
<text text-anchor="start" x="182.189" y="-483.5" font-family="Helvetica,sans-Serif" font-size="10.00">+ AbstractElement()</text>
<text text-anchor="start" x="182.189" y="-472.5" font-family="Helvetica,sans-Serif" font-size="10.00">+ AbstractElement()</text>
<text text-anchor="start" x="182.189" y="-461.5" font-family="Helvetica,sans-Serif" font-size="10.00">+ ~AbstractElement()</text>
<text text-anchor="start" x="182.189" y="-450.5" font-family="Helvetica,sans-Serif" font-size="10.00">+ UpdateNode()</text>
<text text-anchor="start" x="182.189" y="-439.5" font-family="Helvetica,sans-Serif" font-size="10.00">+ ReplaceNode()</text>
<text text-anchor="start" x="182.189" y="-428.5" font-family="Helvetica,sans-Serif" font-size="10.00">+ MarkAsDeleted()</text>
<text text-anchor="start" x="182.189" y="-417.5" font-family="Helvetica,sans-Serif" font-size="10.00">+ RegisterWithNodes()</text>
<text text-anchor="start" x="182.189" y="-406.5" font-family="Helvetica,sans-Serif" font-size="10.00">+ GetNodeLocation()</text>
<text text-anchor="start" x="182.189" y="-395.5" font-family="Helvetica,sans-Serif" font-size="10.00">+ GetNodeLocation()</text>
<text text-anchor="start" x="182.189" y="-384.5" font-family="Helvetica,sans-Serif" font-size="10.00">+ GetNodeGlobalIndex()</text>
<text text-anchor="start" x="182.189" y="-373.5" font-family="Helvetica,sans-Serif" font-size="10.00">and 14 more...</text>
<text text-anchor="start" x="182.189" y="-362.5" font-family="Helvetica,sans-Serif" font-size="10.00"># ConstructElementAttributes()</text>
</a>
</g>
</g>
<!-- Node3&#45;&gt;Node2 -->
<g id="edge2" class="edge"><title>Node3&#45;&gt;Node2</title>
<path fill="none" stroke="midnightblue" d="M250.189,-344.998C250.189,-335.864 250.189,-326.675 250.189,-317.688"/>
<polygon fill="none" stroke="midnightblue" points="246.689,-345.276 250.189,-355.276 253.689,-345.276 246.689,-345.276"/>
</g>
<!-- Node4 -->
<g id="node4" class="node"><title>Node4</title>
<polygon fill="white" stroke="#bfbfbf" points="62.6893,-846 62.6893,-914 181.689,-914 181.689,-846 62.6893,-846"/>
<text text-anchor="start" x="70.6893" y="-902" font-family="Helvetica,sans-Serif" font-size="10.00">vector&lt; Node&lt; SPACE</text>
<text text-anchor="middle" x="122.189" y="-891" font-family="Helvetica,sans-Serif" font-size="10.00">_DIM &gt; * &gt;</text>
<polyline fill="none" stroke="#bfbfbf" points="62.6893,-884 181.689,-884 "/>
<text text-anchor="middle" x="122.189" y="-872" font-family="Helvetica,sans-Serif" font-size="10.00"> </text>
<polyline fill="none" stroke="#bfbfbf" points="62.6893,-865 181.689,-865 "/>
<text text-anchor="middle" x="122.189" y="-853" font-family="Helvetica,sans-Serif" font-size="10.00"> </text>
</g>
<!-- Node4&#45;&gt;Node3 -->
<g id="edge3" class="edge"><title>Node4&#45;&gt;Node3</title>
<path fill="none" stroke="#404040" d="M114.038,-845.709C102.24,-790.681 85.3006,-678.264 119.189,-592 129.353,-566.128 146.745,-542.181 165.593,-521.641"/>
<polygon fill="none" stroke="#404040" points="165.773,-521.451 167.005,-514.346 174.038,-512.75 172.806,-519.856 165.773,-521.451"/>
<text text-anchor="middle" x="142.189" y="-684.5" font-family="Helvetica,sans-Serif" font-size="10.00"> #mNodes</text>
</g>
<!-- Node8 -->
<g id="node8" class="node"><title>Node8</title>
<g id="a_node8"><a xlink:href="classAbstractElement.html" target="_top" xlink:title="{AbstractElement\&lt; ELEMENT\l_DIM, SPACE_DIM \&gt;\n||+ AbstractElement()\l+ AbstractElement()\l+ ~AbstractElement()\l+ UpdateNode()\l+ ReplaceNode()\l+ MarkAsDeleted()\l+ RegisterWithNodes()\l+ GetNodeLocation()\l+ GetNodeLocation()\l+ GetNodeGlobalIndex()\land 14 more...\l# ConstructElementAttributes()\l}">
<polygon fill="white" stroke="black" points="174.189,-592.5 174.189,-781.5 326.189,-781.5 326.189,-592.5 174.189,-592.5"/>
<text text-anchor="start" x="182.189" y="-769.5" font-family="Helvetica,sans-Serif" font-size="10.00">AbstractElement&lt; ELEMENT</text>
<text text-anchor="middle" x="250.189" y="-758.5" font-family="Helvetica,sans-Serif" font-size="10.00">_DIM, SPACE_DIM &gt;</text>
<polyline fill="none" stroke="black" points="174.189,-751.5 326.189,-751.5 "/>
<text text-anchor="middle" x="250.189" y="-739.5" font-family="Helvetica,sans-Serif" font-size="10.00"> </text>
<polyline fill="none" stroke="black" points="174.189,-732.5 326.189,-732.5 "/>
<text text-anchor="start" x="182.189" y="-720.5" font-family="Helvetica,sans-Serif" font-size="10.00">+ AbstractElement()</text>
<text text-anchor="start" x="182.189" y="-709.5" font-family="Helvetica,sans-Serif" font-size="10.00">+ AbstractElement()</text>
<text text-anchor="start" x="182.189" y="-698.5" font-family="Helvetica,sans-Serif" font-size="10.00">+ ~AbstractElement()</text>
<text text-anchor="start" x="182.189" y="-687.5" font-family="Helvetica,sans-Serif" font-size="10.00">+ UpdateNode()</text>
<text text-anchor="start" x="182.189" y="-676.5" font-family="Helvetica,sans-Serif" font-size="10.00">+ ReplaceNode()</text>
<text text-anchor="start" x="182.189" y="-665.5" font-family="Helvetica,sans-Serif" font-size="10.00">+ MarkAsDeleted()</text>
<text text-anchor="start" x="182.189" y="-654.5" font-family="Helvetica,sans-Serif" font-size="10.00">+ RegisterWithNodes()</text>
<text text-anchor="start" x="182.189" y="-643.5" font-family="Helvetica,sans-Serif" font-size="10.00">+ GetNodeLocation()</text>
<text text-anchor="start" x="182.189" y="-632.5" font-family="Helvetica,sans-Serif" font-size="10.00">+ GetNodeLocation()</text>
<text text-anchor="start" x="182.189" y="-621.5" font-family="Helvetica,sans-Serif" font-size="10.00">+ GetNodeGlobalIndex()</text>
<text text-anchor="start" x="182.189" y="-610.5" font-family="Helvetica,sans-Serif" font-size="10.00">and 14 more...</text>
<text text-anchor="start" x="182.189" y="-599.5" font-family="Helvetica,sans-Serif" font-size="10.00"># ConstructElementAttributes()</text>
</a>
</g>
</g>
<!-- Node4&#45;&gt;Node8 -->
<g id="edge8" class="edge"><title>Node4&#45;&gt;Node8</title>
<path fill="none" stroke="#404040" d="M144.485,-845.73C154.779,-830.37 167.623,-811.204 180.774,-791.581"/>
<polygon fill="none" stroke="#404040" points="180.774,-791.58 180.792,-784.369 187.455,-781.612 187.437,-788.823 180.774,-791.58"/>
<text text-anchor="middle" x="198.189" y="-808.5" font-family="Helvetica,sans-Serif" font-size="10.00"> #mNodes</text>
</g>
<!-- Node5 -->
<g id="node5" class="node"><title>Node5</title>
<g id="a_node5"><a xlink:href="classbool.html" target="_top" xlink:title="{bool\n||}">
<polygon fill="white" stroke="black" points="1.68935,-851.5 1.68935,-908.5 36.6893,-908.5 36.6893,-851.5 1.68935,-851.5"/>
<text text-anchor="middle" x="19.1893" y="-896.5" font-family="Helvetica,sans-Serif" font-size="10.00">bool</text>
<polyline fill="none" stroke="black" points="1.68935,-889.5 36.6893,-889.5 "/>
<text text-anchor="middle" x="19.1893" y="-877.5" font-family="Helvetica,sans-Serif" font-size="10.00"> </text>
<polyline fill="none" stroke="black" points="1.68935,-870.5 36.6893,-870.5 "/>
<text text-anchor="middle" x="19.1893" y="-858.5" font-family="Helvetica,sans-Serif" font-size="10.00"> </text>
</a>
</g>
</g>
<!-- Node5&#45;&gt;Node3 -->
<g id="edge4" class="edge"><title>Node5&#45;&gt;Node3</title>
<path fill="none" stroke="#404040" d="M12.6329,-851.42C1.39573,-797.47 -15.9716,-675.925 32.1893,-592 60.9634,-541.858 115.626,-506.567 163.014,-483.832"/>
<polygon fill="none" stroke="#404040" points="163.06,-483.81 166.812,-477.652 173.939,-478.746 170.188,-484.905 163.06,-483.81"/>
<text text-anchor="middle" x="64.1893" y="-690" font-family="Helvetica,sans-Serif" font-size="10.00"> #mOwnership</text>
<text text-anchor="middle" x="64.1893" y="-679" font-family="Helvetica,sans-Serif" font-size="10.00">#mIsDeleted</text>
</g>
<!-- Node5&#45;&gt;Node8 -->
<g id="edge9" class="edge"><title>Node5&#45;&gt;Node8</title>
<path fill="none" stroke="#404040" d="M36.7946,-857.994C41.9549,-852.062 47.6908,-845.679 53.1893,-840 71.3458,-821.248 73.4314,-812.781 96.1893,-800 121.952,-785.531 134.856,-797.208 160.189,-782 161.524,-781.199 162.852,-780.372 164.173,-779.523"/>
<polygon fill="none" stroke="#404040" points="164.293,-779.44 166.938,-772.731 174.147,-772.593 171.503,-779.301 164.293,-779.44"/>
<text text-anchor="middle" x="128.189" y="-814" font-family="Helvetica,sans-Serif" font-size="10.00"> #mOwnership</text>
<text text-anchor="middle" x="128.189" y="-803" font-family="Helvetica,sans-Serif" font-size="10.00">#mIsDeleted</text>
</g>
<!-- Node6 -->
<g id="node6" class="node"><title>Node6</title>
<polygon fill="white" stroke="#bfbfbf" points="340.689,-840.5 340.689,-919.5 471.689,-919.5 471.689,-840.5 340.689,-840.5"/>
<text text-anchor="start" x="348.689" y="-907.5" font-family="Helvetica,sans-Serif" font-size="10.00">ElementAttributes&lt;</text>
<text text-anchor="start" x="348.689" y="-896.5" font-family="Helvetica,sans-Serif" font-size="10.00"> ELEMENT_DIM, SPACE</text>
<text text-anchor="middle" x="406.189" y="-885.5" font-family="Helvetica,sans-Serif" font-size="10.00">_DIM &gt; *</text>
<polyline fill="none" stroke="#bfbfbf" points="340.689,-878.5 471.689,-878.5 "/>
<text text-anchor="middle" x="406.189" y="-866.5" font-family="Helvetica,sans-Serif" font-size="10.00"> </text>
<polyline fill="none" stroke="#bfbfbf" points="340.689,-859.5 471.689,-859.5 "/>
<text text-anchor="middle" x="406.189" y="-847.5" font-family="Helvetica,sans-Serif" font-size="10.00"> </text>
</g>
<!-- Node6&#45;&gt;Node3 -->
<g id="edge5" class="edge"><title>Node6&#45;&gt;Node3</title>
<path fill="none" stroke="#404040" d="M449.663,-840.309C453.925,-834.605 457.616,-828.458 460.189,-822 485.775,-757.79 590.031,-890.549 410.189,-592 391.391,-560.793 363.405,-532.745 336.072,-510.037"/>
<polygon fill="none" stroke="#404040" points="335.767,-509.791 328.588,-509.118 326.447,-502.232 333.627,-502.904 335.767,-509.791"/>
<text text-anchor="middle" x="563.189" y="-684.5" font-family="Helvetica,sans-Serif" font-size="10.00"> #mpElementAttributes</text>
</g>
<!-- Node6&#45;&gt;Node8 -->
<g id="edge10" class="edge"><title>Node6&#45;&gt;Node8</title>
<path fill="none" stroke="#404040" d="M374.62,-840.348C362.642,-825.682 348.366,-808.203 333.827,-790.403"/>
<polygon fill="none" stroke="#404040" points="333.802,-790.372 326.909,-788.256 326.211,-781.078 333.105,-783.195 333.802,-790.372"/>
<text text-anchor="middle" x="406.189" y="-808.5" font-family="Helvetica,sans-Serif" font-size="10.00"> #mpElementAttributes</text>
</g>
<!-- Node7 -->
<g id="node7" class="node"><title>Node7</title>
<g id="a_node7"><a xlink:href="classunsigned.html" target="_top" xlink:title="{unsigned\n||}">
<polygon fill="white" stroke="black" points="244.189,-851.5 244.189,-908.5 300.189,-908.5 300.189,-851.5 244.189,-851.5"/>
<text text-anchor="middle" x="272.189" y="-896.5" font-family="Helvetica,sans-Serif" font-size="10.00">unsigned</text>
<polyline fill="none" stroke="black" points="244.189,-889.5 300.189,-889.5 "/>
<text text-anchor="middle" x="272.189" y="-877.5" font-family="Helvetica,sans-Serif" font-size="10.00"> </text>
<polyline fill="none" stroke="black" points="244.189,-870.5 300.189,-870.5 "/>
<text text-anchor="middle" x="272.189" y="-858.5" font-family="Helvetica,sans-Serif" font-size="10.00"> </text>
</a>
</g>
</g>
<!-- Node7&#45;&gt;Node3 -->
<g id="edge6" class="edge"><title>Node7&#45;&gt;Node3</title>
<path fill="none" stroke="#404040" d="M296,-851.404C310.268,-833.052 327.152,-807.679 335.189,-782 364.292,-689.013 378.758,-654.47 345.189,-563 341.978,-554.248 337.745,-545.712 332.85,-537.508"/>
<polygon fill="none" stroke="#404040" points="332.788,-537.411 326.185,-534.512 326.321,-527.302 332.924,-530.201 332.788,-537.411"/>
<text text-anchor="middle" x="385.689" y="-684.5" font-family="Helvetica,sans-Serif" font-size="10.00"> #mIndex</text>
</g>
<!-- Node7&#45;&gt;Node8 -->
<g id="edge11" class="edge"><title>Node7&#45;&gt;Node8</title>
<path fill="none" stroke="#404040" d="M268.99,-851.227C267.199,-835.673 264.838,-815.181 262.398,-793.991"/>
<polygon fill="none" stroke="#404040" points="262.369,-793.744 257.709,-788.241 260.996,-781.822 265.656,-787.325 262.369,-793.744"/>
<text text-anchor="middle" x="285.689" y="-808.5" font-family="Helvetica,sans-Serif" font-size="10.00"> #mIndex</text>
</g>
<!-- Node8&#45;&gt;Node3 -->
<g id="edge7" class="edge"><title>Node8&#45;&gt;Node3</title>
<path fill="none" stroke="orange" d="M250.189,-582.415C250.189,-569.835 250.189,-557.039 250.189,-544.615"/>
<polygon fill="orange" stroke="orange" points="246.689,-582.447 250.189,-592.447 253.689,-582.447 246.689,-582.447"/>
<text text-anchor="middle" x="295.689" y="-566" font-family="Helvetica,sans-Serif" font-size="10.00"> &lt; 1, SPACE_DIM &gt;</text>
</g>
</g>
</svg>
