<?xml version="1.0" encoding="UTF-8" standalone="no"?>
<!DOCTYPE svg PUBLIC "-//W3C//DTD SVG 1.1//EN"
 "http://www.w3.org/Graphics/SVG/1.1/DTD/svg11.dtd">
<!-- Generated by graphviz version 2.38.0 (20140413.2041)
 -->
<!-- Title: CardiacSimulation Pages: 1 -->
<svg width="242pt" height="248pt"
 viewBox="0.00 0.00 241.50 248.00" xmlns="http://www.w3.org/2000/svg" xmlns:xlink="http://www.w3.org/1999/xlink">
<g id="graph0" class="graph" transform="scale(1 1) rotate(0) translate(4 244)">
<title>CardiacSimulation</title>
<polygon fill="white" stroke="none" points="-4,4 -4,-244 237.5,-244 237.5,4 -4,4"/>
<!-- Node1 -->
<g id="node1" class="node"><title>Node1</title>
<polygon fill="#bfbfbf" stroke="black" points="14.5,-0.5 14.5,-123.5 154.5,-123.5 154.5,-0.5 14.5,-0.5"/>
<text text-anchor="middle" x="84.5" y="-111.5" font-family="Helvetica,sans-Serif" font-size="10.00">CardiacSimulation</text>
<polyline fill="none" stroke="black" points="14.5,-104.5 154.5,-104.5 "/>
<text text-anchor="middle" x="84.5" y="-92.5" font-family="Helvetica,sans-Serif" font-size="10.00"> </text>
<polyline fill="none" stroke="black" points="14.5,-85.5 154.5,-85.5 "/>
<text text-anchor="start" x="22.5" y="-73.5" font-family="Helvetica,sans-Serif" font-size="10.00">+ CardiacSimulation()</text>
<text text-anchor="start" x="22.5" y="-62.5" font-family="Helvetica,sans-Serif" font-size="10.00">+ GetSavedProblem()</text>
<text text-anchor="start" x="22.5" y="-51.5" font-family="Helvetica,sans-Serif" font-size="10.00">&#45; ReadParametersFromFile()</text>
<text text-anchor="start" x="22.5" y="-40.5" font-family="Helvetica,sans-Serif" font-size="10.00">&#45; CreateAndRun()</text>
<text text-anchor="start" x="22.5" y="-29.5" font-family="Helvetica,sans-Serif" font-size="10.00">&#45; Run()</text>
<text text-anchor="start" x="22.5" y="-18.5" font-family="Helvetica,sans-Serif" font-size="10.00">&#45; CreateResumeXmlFile()</text>
<text text-anchor="start" x="22.5" y="-7.5" font-family="Helvetica,sans-Serif" font-size="10.00">&#45; BoolToString()</text>
</g>
<!-- Node2 -->
<g id="node2" class="node"><title>Node2</title>
<g id="a_node2"><a xlink:href="classbool.html" target="_top" xlink:title="{bool\n||}">
<polygon fill="white" stroke="black" points="0,-177 0,-234 35,-234 35,-177 0,-177"/>
<text text-anchor="middle" x="17.5" y="-222" font-family="Helvetica,sans-Serif" font-size="10.00">bool</text>
<polyline fill="none" stroke="black" points="0,-215 35,-215 "/>
<text text-anchor="middle" x="17.5" y="-203" font-family="Helvetica,sans-Serif" font-size="10.00"> </text>
<polyline fill="none" stroke="black" points="0,-196 35,-196 "/>
<text text-anchor="middle" x="17.5" y="-184" font-family="Helvetica,sans-Serif" font-size="10.00"> </text>
</a>
</g>
</g>
<!-- Node2&#45;&gt;Node1 -->
<g id="edge1" class="edge"><title>Node2&#45;&gt;Node1</title>
<path fill="none" stroke="#404040" d="M14.0091,-176.689C13.6145,-165.588 14.4531,-152.884 18.5,-142 19.4362,-139.482 20.4901,-136.987 21.6445,-134.522"/>
<polygon fill="none" stroke="#404040" points="21.652,-134.508 20.9449,-127.332 27.2973,-123.919 28.0044,-131.095 21.652,-134.508"/>
<text text-anchor="middle" x="74" y="-145" font-family="Helvetica,sans-Serif" font-size="10.00"> &#45;mSaveProblemInstance</text>
</g>
<!-- Node3 -->
<g id="node3" class="node"><title>Node3</title>
<polygon fill="white" stroke="#bfbfbf" points="69.5,-171.5 69.5,-239.5 233.5,-239.5 233.5,-171.5 69.5,-171.5"/>
<text text-anchor="start" x="77.5" y="-227.5" font-family="Helvetica,sans-Serif" font-size="10.00">shared_ptr&lt; AbstractUntemplated</text>
<text text-anchor="middle" x="151.5" y="-216.5" font-family="Helvetica,sans-Serif" font-size="10.00">CardiacProblem &gt;</text>
<polyline fill="none" stroke="#bfbfbf" points="69.5,-209.5 233.5,-209.5 "/>
<text text-anchor="middle" x="151.5" y="-197.5" font-family="Helvetica,sans-Serif" font-size="10.00"> </text>
<polyline fill="none" stroke="#bfbfbf" points="69.5,-190.5 233.5,-190.5 "/>
<text text-anchor="middle" x="151.5" y="-178.5" font-family="Helvetica,sans-Serif" font-size="10.00"> </text>
</g>
<!-- Node3&#45;&gt;Node1 -->
<g id="edge2" class="edge"><title>Node3&#45;&gt;Node1</title>
<path fill="none" stroke="#404040" d="M141.055,-171.3C137.704,-161.706 133.75,-151.314 129.5,-142 128.382,-139.55 127.213,-137.075 126.005,-134.591"/>
<polygon fill="none" stroke="#404040" points="125.902,-134.387 119.627,-130.834 120.494,-123.675 126.769,-127.228 125.902,-134.387"/>
<text text-anchor="middle" x="174" y="-145" font-family="Helvetica,sans-Serif" font-size="10.00"> &#45;mSavedProblem</text>
</g>
</g>
</svg>
