<?xml version="1.0" encoding="UTF-8" standalone="no"?>
<!DOCTYPE svg PUBLIC "-//W3C//DTD SVG 1.1//EN"
 "http://www.w3.org/Graphics/SVG/1.1/DTD/svg11.dtd">
<!-- Generated by graphviz version 2.38.0 (20140413.2041)
 -->
<!-- Title: ApoptoticCellKiller&lt; SPACE_DIM &gt; Pages: 1 -->
<svg width="183pt" height="441pt"
 viewBox="0.00 0.00 183.00 441.00" xmlns="http://www.w3.org/2000/svg" xmlns:xlink="http://www.w3.org/1999/xlink">
<g id="graph0" class="graph" transform="scale(1 1) rotate(0) translate(4 437)">
<title>ApoptoticCellKiller&lt; SPACE_DIM &gt;</title>
<polygon fill="white" stroke="none" points="-4,4 -4,-437 179,-437 179,4 -4,4"/>
<!-- Node1 -->
<g id="node1" class="node"><title>Node1</title>
<polygon fill="#bfbfbf" stroke="black" points="0,-0.5 0,-134.5 175,-134.5 175,-0.5 0,-0.5"/>
<text text-anchor="start" x="8" y="-122.5" font-family="Helvetica,sans-Serif" font-size="10.00">ApoptoticCellKiller</text>
<text text-anchor="middle" x="87.5" y="-111.5" font-family="Helvetica,sans-Serif" font-size="10.00">&lt; SPACE_DIM &gt;</text>
<polyline fill="none" stroke="black" points="0,-104.5 175,-104.5 "/>
<text text-anchor="middle" x="87.5" y="-92.5" font-family="Helvetica,sans-Serif" font-size="10.00"> </text>
<polyline fill="none" stroke="black" points="0,-85.5 175,-85.5 "/>
<text text-anchor="start" x="8" y="-73.5" font-family="Helvetica,sans-Serif" font-size="10.00">+ ApoptoticCellKiller()</text>
<text text-anchor="start" x="8" y="-62.5" font-family="Helvetica,sans-Serif" font-size="10.00">+ CheckAndLabelSingleCellFor</text>
<text text-anchor="start" x="8" y="-51.5" font-family="Helvetica,sans-Serif" font-size="10.00">Apoptosis()</text>
<text text-anchor="start" x="8" y="-40.5" font-family="Helvetica,sans-Serif" font-size="10.00">+ CheckAndLabelCellsForApoptosis</text>
<text text-anchor="start" x="8" y="-29.5" font-family="Helvetica,sans-Serif" font-size="10.00">OrDeath()</text>
<text text-anchor="start" x="8" y="-18.5" font-family="Helvetica,sans-Serif" font-size="10.00">+ OutputCellKillerParameters()</text>
<text text-anchor="start" x="8" y="-7.5" font-family="Helvetica,sans-Serif" font-size="10.00">&#45; serialize()</text>
</g>
<!-- Node2 -->
<g id="node2" class="node"><title>Node2</title>
<g id="a_node2"><a xlink:href="classAbstractCellKiller.html" target="_top" xlink:title="{AbstractCellKiller\l\&lt; SPACE_DIM \&gt;\n|# mpCellPopulation\l|+ AbstractCellKiller()\l+ ~AbstractCellKiller()\l+ CheckAndLabelCellsForApoptosis\lOrDeath()\l+ GetCellPopulation()\l+ OutputCellKillerInfo()\l+ OutputCellKillerParameters()\l&#45; serialize()\l}">
<polygon fill="white" stroke="black" points="0,-171.5 0,-316.5 175,-316.5 175,-171.5 0,-171.5"/>
<text text-anchor="start" x="8" y="-304.5" font-family="Helvetica,sans-Serif" font-size="10.00">AbstractCellKiller</text>
<text text-anchor="middle" x="87.5" y="-293.5" font-family="Helvetica,sans-Serif" font-size="10.00">&lt; SPACE_DIM &gt;</text>
<polyline fill="none" stroke="black" points="0,-286.5 175,-286.5 "/>
<text text-anchor="start" x="8" y="-274.5" font-family="Helvetica,sans-Serif" font-size="10.00"># mpCellPopulation</text>
<polyline fill="none" stroke="black" points="0,-267.5 175,-267.5 "/>
<text text-anchor="start" x="8" y="-255.5" font-family="Helvetica,sans-Serif" font-size="10.00">+ AbstractCellKiller()</text>
<text text-anchor="start" x="8" y="-244.5" font-family="Helvetica,sans-Serif" font-size="10.00">+ ~AbstractCellKiller()</text>
<text text-anchor="start" x="8" y="-233.5" font-family="Helvetica,sans-Serif" font-size="10.00">+ CheckAndLabelCellsForApoptosis</text>
<text text-anchor="start" x="8" y="-222.5" font-family="Helvetica,sans-Serif" font-size="10.00">OrDeath()</text>
<text text-anchor="start" x="8" y="-211.5" font-family="Helvetica,sans-Serif" font-size="10.00">+ GetCellPopulation()</text>
<text text-anchor="start" x="8" y="-200.5" font-family="Helvetica,sans-Serif" font-size="10.00">+ OutputCellKillerInfo()</text>
<text text-anchor="start" x="8" y="-189.5" font-family="Helvetica,sans-Serif" font-size="10.00">+ OutputCellKillerParameters()</text>
<text text-anchor="start" x="8" y="-178.5" font-family="Helvetica,sans-Serif" font-size="10.00">&#45; serialize()</text>
</a>
</g>
</g>
<!-- Node2&#45;&gt;Node1 -->
<g id="edge1" class="edge"><title>Node2&#45;&gt;Node1</title>
<path fill="none" stroke="midnightblue" d="M87.5,-161.249C87.5,-152.327 87.5,-143.328 87.5,-134.628"/>
<polygon fill="none" stroke="midnightblue" points="84.0001,-161.269 87.5,-171.269 91.0001,-161.269 84.0001,-161.269"/>
</g>
<!-- Node3 -->
<g id="node3" class="node"><title>Node3</title>
<g id="a_node3"><a xlink:href="classIdentifiable.html" target="_top" xlink:title="{Identifiable\n||+ ~Identifiable()\l+ GetIdentifier()\l&#45; TidyTemplatedExportIdentifier()\l}">
<polygon fill="white" stroke="black" points="8,-353.5 8,-432.5 167,-432.5 167,-353.5 8,-353.5"/>
<text text-anchor="middle" x="87.5" y="-420.5" font-family="Helvetica,sans-Serif" font-size="10.00">Identifiable</text>
<polyline fill="none" stroke="black" points="8,-413.5 167,-413.5 "/>
<text text-anchor="middle" x="87.5" y="-401.5" font-family="Helvetica,sans-Serif" font-size="10.00"> </text>
<polyline fill="none" stroke="black" points="8,-394.5 167,-394.5 "/>
<text text-anchor="start" x="16" y="-382.5" font-family="Helvetica,sans-Serif" font-size="10.00">+ ~Identifiable()</text>
<text text-anchor="start" x="16" y="-371.5" font-family="Helvetica,sans-Serif" font-size="10.00">+ GetIdentifier()</text>
<text text-anchor="start" x="16" y="-360.5" font-family="Helvetica,sans-Serif" font-size="10.00">&#45; TidyTemplatedExportIdentifier()</text>
</a>
</g>
</g>
<!-- Node3&#45;&gt;Node2 -->
<g id="edge2" class="edge"><title>Node3&#45;&gt;Node2</title>
<path fill="none" stroke="midnightblue" d="M87.5,-343.243C87.5,-334.699 87.5,-325.651 87.5,-316.64"/>
<polygon fill="none" stroke="midnightblue" points="84.0001,-343.377 87.5,-353.377 91.0001,-343.378 84.0001,-343.377"/>
</g>
</g>
</svg>
