<?xml version="1.0" encoding="UTF-8" standalone="no"?>
<!DOCTYPE svg PUBLIC "-//W3C//DTD SVG 1.1//EN"
 "http://www.w3.org/Graphics/SVG/1.1/DTD/svg11.dtd">
<!-- Generated by graphviz version 2.38.0 (20140413.2041)
 -->
<!-- Title: PapillaryFibreCalculator Pages: 1 -->
<svg width="1980pt" height="1774pt"
 viewBox="0.00 0.00 1979.93 1774.00" xmlns="http://www.w3.org/2000/svg" xmlns:xlink="http://www.w3.org/1999/xlink">
<g id="graph0" class="graph" transform="scale(1 1) rotate(0) translate(4 1770)">
<title>PapillaryFibreCalculator</title>
<polygon fill="white" stroke="none" points="-4,4 -4,-1770 1975.93,-1770 1975.93,4 -4,4"/>
<!-- Node1 -->
<g id="node1" class="node"><title>Node1</title>
<polygon fill="#bfbfbf" stroke="black" points="1076.93,-0.5 1076.93,-112.5 1248.93,-112.5 1248.93,-0.5 1076.93,-0.5"/>
<text text-anchor="middle" x="1162.93" y="-100.5" font-family="Helvetica,sans-Serif" font-size="10.00">PapillaryFibreCalculator</text>
<polyline fill="none" stroke="black" points="1076.93,-93.5 1248.93,-93.5 "/>
<text text-anchor="middle" x="1162.93" y="-81.5" font-family="Helvetica,sans-Serif" font-size="10.00"> </text>
<polyline fill="none" stroke="black" points="1076.93,-74.5 1248.93,-74.5 "/>
<text text-anchor="start" x="1084.93" y="-62.5" font-family="Helvetica,sans-Serif" font-size="10.00">+ PapillaryFibreCalculator()</text>
<text text-anchor="start" x="1084.93" y="-51.5" font-family="Helvetica,sans-Serif" font-size="10.00">+ CalculateFibreOrientations()</text>
<text text-anchor="start" x="1084.93" y="-40.5" font-family="Helvetica,sans-Serif" font-size="10.00">&#45; GetRadiusVectorForOneElement()</text>
<text text-anchor="start" x="1084.93" y="-29.5" font-family="Helvetica,sans-Serif" font-size="10.00">&#45; GetRadiusVectors()</text>
<text text-anchor="start" x="1084.93" y="-18.5" font-family="Helvetica,sans-Serif" font-size="10.00">&#45; ConstructStructureTensors()</text>
<text text-anchor="start" x="1084.93" y="-7.5" font-family="Helvetica,sans-Serif" font-size="10.00">&#45; SmoothStructureTensors()</text>
</g>
<!-- Node2 -->
<g id="node2" class="node"><title>Node2</title>
<polygon fill="white" stroke="#bfbfbf" points="948.433,-270.5 948.433,-338.5 1079.43,-338.5 1079.43,-270.5 948.433,-270.5"/>
<text text-anchor="start" x="956.433" y="-326.5" font-family="Helvetica,sans-Serif" font-size="10.00">vector&lt; c_vector&lt; double,</text>
<text text-anchor="middle" x="1013.93" y="-315.5" font-family="Helvetica,sans-Serif" font-size="10.00"> 3 &gt; &gt;</text>
<polyline fill="none" stroke="#bfbfbf" points="948.433,-308.5 1079.43,-308.5 "/>
<text text-anchor="middle" x="1013.93" y="-296.5" font-family="Helvetica,sans-Serif" font-size="10.00"> </text>
<polyline fill="none" stroke="#bfbfbf" points="948.433,-289.5 1079.43,-289.5 "/>
<text text-anchor="middle" x="1013.93" y="-277.5" font-family="Helvetica,sans-Serif" font-size="10.00"> </text>
</g>
<!-- Node2&#45;&gt;Node1 -->
<g id="edge1" class="edge"><title>Node2&#45;&gt;Node1</title>
<path fill="none" stroke="#404040" d="M1021.52,-270.425C1030.99,-233.94 1049.72,-174.626 1079.93,-131 1082.06,-127.934 1084.33,-124.912 1086.73,-121.943"/>
<polygon fill="none" stroke="#404040" points="1086.9,-121.744 1087.79,-114.589 1094.74,-112.66 1093.85,-119.816 1086.9,-121.744"/>
<text text-anchor="middle" x="1119.43" y="-139.5" font-family="Helvetica,sans-Serif" font-size="10.00"> &#45;mRadiusVectors</text>
</g>
<!-- Node3 -->
<g id="node3" class="node"><title>Node3</title>
<polygon fill="white" stroke="#bfbfbf" points="1097.43,-270.5 1097.43,-338.5 1228.43,-338.5 1228.43,-270.5 1097.43,-270.5"/>
<text text-anchor="start" x="1105.43" y="-326.5" font-family="Helvetica,sans-Serif" font-size="10.00">vector&lt; c_matrix&lt; double,</text>
<text text-anchor="middle" x="1162.93" y="-315.5" font-family="Helvetica,sans-Serif" font-size="10.00"> 3, 3 &gt; &gt;</text>
<polyline fill="none" stroke="#bfbfbf" points="1097.43,-308.5 1228.43,-308.5 "/>
<text text-anchor="middle" x="1162.93" y="-296.5" font-family="Helvetica,sans-Serif" font-size="10.00"> </text>
<polyline fill="none" stroke="#bfbfbf" points="1097.43,-289.5 1228.43,-289.5 "/>
<text text-anchor="middle" x="1162.93" y="-277.5" font-family="Helvetica,sans-Serif" font-size="10.00"> </text>
</g>
<!-- Node3&#45;&gt;Node1 -->
<g id="edge2" class="edge"><title>Node3&#45;&gt;Node1</title>
<path fill="none" stroke="#404040" d="M1162.93,-270.323C1162.93,-233.243 1162.93,-172.217 1162.93,-124.998"/>
<polygon fill="none" stroke="#404040" points="1162.93,-124.698 1158.93,-118.698 1162.93,-112.698 1166.93,-118.698 1162.93,-124.698"/>
<text text-anchor="middle" x="1229.93" y="-145" font-family="Helvetica,sans-Serif" font-size="10.00"> &#45;mSmoothedStructureTensors</text>
<text text-anchor="middle" x="1229.93" y="-134" font-family="Helvetica,sans-Serif" font-size="10.00">&#45;mStructureTensors</text>
</g>
<!-- Node4 -->
<g id="node4" class="node"><title>Node4</title>
<g id="a_node4"><a xlink:href="classTetrahedralMesh.html" target="_top" xlink:title="{TetrahedralMesh\&lt; 3, 3 \&gt;\n||+ TetrahedralMesh()\l+ ConstructFromMeshReader()\l+ ReadNodesPerProcessorFile()\l+ CheckIsConforming()\l+ GetVolume()\l+ GetSurfaceArea()\l+ RefreshMesh()\l+ PermuteNodes()\l+ PermuteNodes()\l+ GetContainingElementIndex\lWithInitialGuess()\land 11 more...\l# SolveNodeMapping()\l# SolveElementMapping()\l# SolveBoundaryElementMapping()\l# ExportToMesher()\l# ImportFromMesher()\l# InitialiseTriangulateIo()\l# FreeTriangulateIo()\l&#45; serialize()\l}">
<polygon fill="white" stroke="black" points="1246.93,-171.5 1246.93,-437.5 1416.93,-437.5 1416.93,-171.5 1246.93,-171.5"/>
<text text-anchor="middle" x="1331.93" y="-425.5" font-family="Helvetica,sans-Serif" font-size="10.00">TetrahedralMesh&lt; 3, 3 &gt;</text>
<polyline fill="none" stroke="black" points="1246.93,-418.5 1416.93,-418.5 "/>
<text text-anchor="middle" x="1331.93" y="-406.5" font-family="Helvetica,sans-Serif" font-size="10.00"> </text>
<polyline fill="none" stroke="black" points="1246.93,-399.5 1416.93,-399.5 "/>
<text text-anchor="start" x="1254.93" y="-387.5" font-family="Helvetica,sans-Serif" font-size="10.00">+ TetrahedralMesh()</text>
<text text-anchor="start" x="1254.93" y="-376.5" font-family="Helvetica,sans-Serif" font-size="10.00">+ ConstructFromMeshReader()</text>
<text text-anchor="start" x="1254.93" y="-365.5" font-family="Helvetica,sans-Serif" font-size="10.00">+ ReadNodesPerProcessorFile()</text>
<text text-anchor="start" x="1254.93" y="-354.5" font-family="Helvetica,sans-Serif" font-size="10.00">+ CheckIsConforming()</text>
<text text-anchor="start" x="1254.93" y="-343.5" font-family="Helvetica,sans-Serif" font-size="10.00">+ GetVolume()</text>
<text text-anchor="start" x="1254.93" y="-332.5" font-family="Helvetica,sans-Serif" font-size="10.00">+ GetSurfaceArea()</text>
<text text-anchor="start" x="1254.93" y="-321.5" font-family="Helvetica,sans-Serif" font-size="10.00">+ RefreshMesh()</text>
<text text-anchor="start" x="1254.93" y="-310.5" font-family="Helvetica,sans-Serif" font-size="10.00">+ PermuteNodes()</text>
<text text-anchor="start" x="1254.93" y="-299.5" font-family="Helvetica,sans-Serif" font-size="10.00">+ PermuteNodes()</text>
<text text-anchor="start" x="1254.93" y="-288.5" font-family="Helvetica,sans-Serif" font-size="10.00">+ GetContainingElementIndex</text>
<text text-anchor="start" x="1254.93" y="-277.5" font-family="Helvetica,sans-Serif" font-size="10.00">WithInitialGuess()</text>
<text text-anchor="start" x="1254.93" y="-266.5" font-family="Helvetica,sans-Serif" font-size="10.00">and 11 more...</text>
<text text-anchor="start" x="1254.93" y="-255.5" font-family="Helvetica,sans-Serif" font-size="10.00"># SolveNodeMapping()</text>
<text text-anchor="start" x="1254.93" y="-244.5" font-family="Helvetica,sans-Serif" font-size="10.00"># SolveElementMapping()</text>
<text text-anchor="start" x="1254.93" y="-233.5" font-family="Helvetica,sans-Serif" font-size="10.00"># SolveBoundaryElementMapping()</text>
<text text-anchor="start" x="1254.93" y="-222.5" font-family="Helvetica,sans-Serif" font-size="10.00"># ExportToMesher()</text>
<text text-anchor="start" x="1254.93" y="-211.5" font-family="Helvetica,sans-Serif" font-size="10.00"># ImportFromMesher()</text>
<text text-anchor="start" x="1254.93" y="-200.5" font-family="Helvetica,sans-Serif" font-size="10.00"># InitialiseTriangulateIo()</text>
<text text-anchor="start" x="1254.93" y="-189.5" font-family="Helvetica,sans-Serif" font-size="10.00"># FreeTriangulateIo()</text>
<text text-anchor="start" x="1254.93" y="-178.5" font-family="Helvetica,sans-Serif" font-size="10.00">&#45; serialize()</text>
</a>
</g>
</g>
<!-- Node4&#45;&gt;Node1 -->
<g id="edge3" class="edge"><title>Node4&#45;&gt;Node1</title>
<path fill="none" stroke="#404040" d="M1321.13,-171.177C1316.27,-156.808 1309.71,-143.051 1300.93,-131 1290.12,-116.152 1275.37,-104.018 1259.54,-94.2003"/>
<polygon fill="none" stroke="#404040" points="1259.38,-94.1079 1252.18,-94.5513 1249,-88.0781 1256.2,-87.6346 1259.38,-94.1079"/>
<text text-anchor="middle" x="1333.93" y="-139.5" font-family="Helvetica,sans-Serif" font-size="10.00"> &#45;mrMesh</text>
</g>
<!-- Node5 -->
<g id="node5" class="node"><title>Node5</title>
<g id="a_node5"><a xlink:href="classAbstractTetrahedralMesh.html" target="_top" xlink:title="{AbstractTetrahedralMesh\l\&lt; ELEMENT_DIM, SPACE_DIM \&gt;\n||+ GetElementIteratorBegin()\l+ GetElementIteratorEnd()\l+ AbstractTetrahedralMesh()\l+ ~AbstractTetrahedralMesh()\l+ GetNumElements()\l+ GetNumLocalElements()\l+ GetNumBoundaryElements()\l+ GetNumLocalBoundaryElements()\l+ GetNumAllElements()\l+ GetNumAllBoundaryElements()\land 25 more...\l# SetElementOwnerships()\l&#45; SolveElementMapping()\l&#45; SolveBoundaryElementMapping()\l&#45; save()\l&#45; load()\l}">
<polygon fill="white" stroke="black" points="901.933,-832.5 901.933,-1065.5 1075.93,-1065.5 1075.93,-832.5 901.933,-832.5"/>
<text text-anchor="start" x="909.933" y="-1053.5" font-family="Helvetica,sans-Serif" font-size="10.00">AbstractTetrahedralMesh</text>
<text text-anchor="middle" x="988.933" y="-1042.5" font-family="Helvetica,sans-Serif" font-size="10.00">&lt; ELEMENT_DIM, SPACE_DIM &gt;</text>
<polyline fill="none" stroke="black" points="901.933,-1035.5 1075.93,-1035.5 "/>
<text text-anchor="middle" x="988.933" y="-1023.5" font-family="Helvetica,sans-Serif" font-size="10.00"> </text>
<polyline fill="none" stroke="black" points="901.933,-1016.5 1075.93,-1016.5 "/>
<text text-anchor="start" x="909.933" y="-1004.5" font-family="Helvetica,sans-Serif" font-size="10.00">+ GetElementIteratorBegin()</text>
<text text-anchor="start" x="909.933" y="-993.5" font-family="Helvetica,sans-Serif" font-size="10.00">+ GetElementIteratorEnd()</text>
<text text-anchor="start" x="909.933" y="-982.5" font-family="Helvetica,sans-Serif" font-size="10.00">+ AbstractTetrahedralMesh()</text>
<text text-anchor="start" x="909.933" y="-971.5" font-family="Helvetica,sans-Serif" font-size="10.00">+ ~AbstractTetrahedralMesh()</text>
<text text-anchor="start" x="909.933" y="-960.5" font-family="Helvetica,sans-Serif" font-size="10.00">+ GetNumElements()</text>
<text text-anchor="start" x="909.933" y="-949.5" font-family="Helvetica,sans-Serif" font-size="10.00">+ GetNumLocalElements()</text>
<text text-anchor="start" x="909.933" y="-938.5" font-family="Helvetica,sans-Serif" font-size="10.00">+ GetNumBoundaryElements()</text>
<text text-anchor="start" x="909.933" y="-927.5" font-family="Helvetica,sans-Serif" font-size="10.00">+ GetNumLocalBoundaryElements()</text>
<text text-anchor="start" x="909.933" y="-916.5" font-family="Helvetica,sans-Serif" font-size="10.00">+ GetNumAllElements()</text>
<text text-anchor="start" x="909.933" y="-905.5" font-family="Helvetica,sans-Serif" font-size="10.00">+ GetNumAllBoundaryElements()</text>
<text text-anchor="start" x="909.933" y="-894.5" font-family="Helvetica,sans-Serif" font-size="10.00">and 25 more...</text>
<text text-anchor="start" x="909.933" y="-883.5" font-family="Helvetica,sans-Serif" font-size="10.00"># SetElementOwnerships()</text>
<text text-anchor="start" x="909.933" y="-872.5" font-family="Helvetica,sans-Serif" font-size="10.00">&#45; SolveElementMapping()</text>
<text text-anchor="start" x="909.933" y="-861.5" font-family="Helvetica,sans-Serif" font-size="10.00">&#45; SolveBoundaryElementMapping()</text>
<text text-anchor="start" x="909.933" y="-850.5" font-family="Helvetica,sans-Serif" font-size="10.00">&#45; save()</text>
<text text-anchor="start" x="909.933" y="-839.5" font-family="Helvetica,sans-Serif" font-size="10.00">&#45; load()</text>
</a>
</g>
</g>
<!-- Node5&#45;&gt;Node4 -->
<g id="edge4" class="edge"><title>Node5&#45;&gt;Node4</title>
<path fill="none" stroke="midnightblue" d="M974.081,-821.872C968.941,-721.966 977.236,-583.325 1044.93,-485 1095,-412.284 1162.29,-483.522 1237.93,-438 1240.95,-436.182 1243.9,-434.226 1246.78,-432.149"/>
<polygon fill="none" stroke="midnightblue" points="970.596,-822.239 974.656,-832.025 977.585,-821.843 970.596,-822.239"/>
</g>
<!-- Node20 -->
<g id="node20" class="node"><title>Node20</title>
<g id="a_node20"><a xlink:href="classTetrahedralMesh.html" target="_top" xlink:title="{TetrahedralMesh\&lt; ELEMENT\l_DIM, SPACE_DIM \&gt;\n||+ TetrahedralMesh()\l+ ConstructFromMeshReader()\l+ ReadNodesPerProcessorFile()\l+ CheckIsConforming()\l+ GetVolume()\l+ GetSurfaceArea()\l+ RefreshMesh()\l+ PermuteNodes()\l+ PermuteNodes()\l+ GetContainingElementIndex\lWithInitialGuess()\land 11 more...\l# SolveNodeMapping()\l# SolveElementMapping()\l# SolveBoundaryElementMapping()\l# ExportToMesher()\l# ImportFromMesher()\l# InitialiseTriangulateIo()\l# FreeTriangulateIo()\l&#45; serialize()\l}">
<polygon fill="white" stroke="black" points="1447.93,-485.5 1447.93,-762.5 1617.93,-762.5 1617.93,-485.5 1447.93,-485.5"/>
<text text-anchor="start" x="1455.93" y="-750.5" font-family="Helvetica,sans-Serif" font-size="10.00">TetrahedralMesh&lt; ELEMENT</text>
<text text-anchor="middle" x="1532.93" y="-739.5" font-family="Helvetica,sans-Serif" font-size="10.00">_DIM, SPACE_DIM &gt;</text>
<polyline fill="none" stroke="black" points="1447.93,-732.5 1617.93,-732.5 "/>
<text text-anchor="middle" x="1532.93" y="-720.5" font-family="Helvetica,sans-Serif" font-size="10.00"> </text>
<polyline fill="none" stroke="black" points="1447.93,-713.5 1617.93,-713.5 "/>
<text text-anchor="start" x="1455.93" y="-701.5" font-family="Helvetica,sans-Serif" font-size="10.00">+ TetrahedralMesh()</text>
<text text-anchor="start" x="1455.93" y="-690.5" font-family="Helvetica,sans-Serif" font-size="10.00">+ ConstructFromMeshReader()</text>
<text text-anchor="start" x="1455.93" y="-679.5" font-family="Helvetica,sans-Serif" font-size="10.00">+ ReadNodesPerProcessorFile()</text>
<text text-anchor="start" x="1455.93" y="-668.5" font-family="Helvetica,sans-Serif" font-size="10.00">+ CheckIsConforming()</text>
<text text-anchor="start" x="1455.93" y="-657.5" font-family="Helvetica,sans-Serif" font-size="10.00">+ GetVolume()</text>
<text text-anchor="start" x="1455.93" y="-646.5" font-family="Helvetica,sans-Serif" font-size="10.00">+ GetSurfaceArea()</text>
<text text-anchor="start" x="1455.93" y="-635.5" font-family="Helvetica,sans-Serif" font-size="10.00">+ RefreshMesh()</text>
<text text-anchor="start" x="1455.93" y="-624.5" font-family="Helvetica,sans-Serif" font-size="10.00">+ PermuteNodes()</text>
<text text-anchor="start" x="1455.93" y="-613.5" font-family="Helvetica,sans-Serif" font-size="10.00">+ PermuteNodes()</text>
<text text-anchor="start" x="1455.93" y="-602.5" font-family="Helvetica,sans-Serif" font-size="10.00">+ GetContainingElementIndex</text>
<text text-anchor="start" x="1455.93" y="-591.5" font-family="Helvetica,sans-Serif" font-size="10.00">WithInitialGuess()</text>
<text text-anchor="start" x="1455.93" y="-580.5" font-family="Helvetica,sans-Serif" font-size="10.00">and 11 more...</text>
<text text-anchor="start" x="1455.93" y="-569.5" font-family="Helvetica,sans-Serif" font-size="10.00"># SolveNodeMapping()</text>
<text text-anchor="start" x="1455.93" y="-558.5" font-family="Helvetica,sans-Serif" font-size="10.00"># SolveElementMapping()</text>
<text text-anchor="start" x="1455.93" y="-547.5" font-family="Helvetica,sans-Serif" font-size="10.00"># SolveBoundaryElementMapping()</text>
<text text-anchor="start" x="1455.93" y="-536.5" font-family="Helvetica,sans-Serif" font-size="10.00"># ExportToMesher()</text>
<text text-anchor="start" x="1455.93" y="-525.5" font-family="Helvetica,sans-Serif" font-size="10.00"># ImportFromMesher()</text>
<text text-anchor="start" x="1455.93" y="-514.5" font-family="Helvetica,sans-Serif" font-size="10.00"># InitialiseTriangulateIo()</text>
<text text-anchor="start" x="1455.93" y="-503.5" font-family="Helvetica,sans-Serif" font-size="10.00"># FreeTriangulateIo()</text>
<text text-anchor="start" x="1455.93" y="-492.5" font-family="Helvetica,sans-Serif" font-size="10.00">&#45; serialize()</text>
</a>
</g>
</g>
<!-- Node5&#45;&gt;Node20 -->
<g id="edge24" class="edge"><title>Node5&#45;&gt;Node20</title>
<path fill="none" stroke="midnightblue" d="M1083.32,-825.743C1104.52,-806.875 1128.63,-790.515 1154.93,-781 1213.36,-759.869 1379.6,-793.138 1433.93,-763 1438.7,-760.354 1443.3,-757.37 1447.73,-754.11"/>
<polygon fill="none" stroke="midnightblue" points="1080.95,-823.173 1075.95,-832.514 1085.68,-828.33 1080.95,-823.173"/>
</g>
<!-- Node6 -->
<g id="node6" class="node"><title>Node6</title>
<g id="a_node6"><a xlink:href="classAbstractMesh.html" target="_top" xlink:title="{AbstractMesh\&lt; ELEMENT\l_DIM, SPACE_DIM \&gt;\n||+ GetNodeIteratorBegin()\l+ GetNodeIteratorEnd()\l+ AbstractMesh()\l+ ~AbstractMesh()\l+ GetNumNodes()\l+ GetNumBoundaryNodes()\l+ GetNumAllNodes()\l+ GetNumNodeAttributes()\l+ GetNode()\l+ GetNodeOrHaloNode()\land 28 more...\l# SetElementOwnerships()\l# CalculateBoundingBox()\l&#45; SolveNodeMapping()\l&#45; serialize()\l}">
<polygon fill="white" stroke="black" points="361.933,-1113.5 361.933,-1335.5 499.933,-1335.5 499.933,-1113.5 361.933,-1113.5"/>
<text text-anchor="start" x="369.933" y="-1323.5" font-family="Helvetica,sans-Serif" font-size="10.00">AbstractMesh&lt; ELEMENT</text>
<text text-anchor="middle" x="430.933" y="-1312.5" font-family="Helvetica,sans-Serif" font-size="10.00">_DIM, SPACE_DIM &gt;</text>
<polyline fill="none" stroke="black" points="361.933,-1305.5 499.933,-1305.5 "/>
<text text-anchor="middle" x="430.933" y="-1293.5" font-family="Helvetica,sans-Serif" font-size="10.00"> </text>
<polyline fill="none" stroke="black" points="361.933,-1286.5 499.933,-1286.5 "/>
<text text-anchor="start" x="369.933" y="-1274.5" font-family="Helvetica,sans-Serif" font-size="10.00">+ GetNodeIteratorBegin()</text>
<text text-anchor="start" x="369.933" y="-1263.5" font-family="Helvetica,sans-Serif" font-size="10.00">+ GetNodeIteratorEnd()</text>
<text text-anchor="start" x="369.933" y="-1252.5" font-family="Helvetica,sans-Serif" font-size="10.00">+ AbstractMesh()</text>
<text text-anchor="start" x="369.933" y="-1241.5" font-family="Helvetica,sans-Serif" font-size="10.00">+ ~AbstractMesh()</text>
<text text-anchor="start" x="369.933" y="-1230.5" font-family="Helvetica,sans-Serif" font-size="10.00">+ GetNumNodes()</text>
<text text-anchor="start" x="369.933" y="-1219.5" font-family="Helvetica,sans-Serif" font-size="10.00">+ GetNumBoundaryNodes()</text>
<text text-anchor="start" x="369.933" y="-1208.5" font-family="Helvetica,sans-Serif" font-size="10.00">+ GetNumAllNodes()</text>
<text text-anchor="start" x="369.933" y="-1197.5" font-family="Helvetica,sans-Serif" font-size="10.00">+ GetNumNodeAttributes()</text>
<text text-anchor="start" x="369.933" y="-1186.5" font-family="Helvetica,sans-Serif" font-size="10.00">+ GetNode()</text>
<text text-anchor="start" x="369.933" y="-1175.5" font-family="Helvetica,sans-Serif" font-size="10.00">+ GetNodeOrHaloNode()</text>
<text text-anchor="start" x="369.933" y="-1164.5" font-family="Helvetica,sans-Serif" font-size="10.00">and 28 more...</text>
<text text-anchor="start" x="369.933" y="-1153.5" font-family="Helvetica,sans-Serif" font-size="10.00"># SetElementOwnerships()</text>
<text text-anchor="start" x="369.933" y="-1142.5" font-family="Helvetica,sans-Serif" font-size="10.00"># CalculateBoundingBox()</text>
<text text-anchor="start" x="369.933" y="-1131.5" font-family="Helvetica,sans-Serif" font-size="10.00">&#45; SolveNodeMapping()</text>
<text text-anchor="start" x="369.933" y="-1120.5" font-family="Helvetica,sans-Serif" font-size="10.00">&#45; serialize()</text>
</a>
</g>
</g>
<!-- Node6&#45;&gt;Node5 -->
<g id="edge5" class="edge"><title>Node6&#45;&gt;Node5</title>
<path fill="none" stroke="midnightblue" d="M509.344,-1185.07C612.79,-1134.36 794.296,-1045.4 901.887,-992.665"/>
<polygon fill="none" stroke="midnightblue" points="507.634,-1182.01 500.195,-1189.55 510.715,-1188.29 507.634,-1182.01"/>
</g>
<!-- Node7 -->
<g id="node7" class="node"><title>Node7</title>
<polygon fill="white" stroke="#bfbfbf" points="342.433,-1482.5 342.433,-1539.5 413.433,-1539.5 413.433,-1482.5 342.433,-1482.5"/>
<text text-anchor="middle" x="377.933" y="-1527.5" font-family="Helvetica,sans-Serif" font-size="10.00">noncopyable</text>
<polyline fill="none" stroke="#bfbfbf" points="342.433,-1520.5 413.433,-1520.5 "/>
<text text-anchor="middle" x="377.933" y="-1508.5" font-family="Helvetica,sans-Serif" font-size="10.00"> </text>
<polyline fill="none" stroke="#bfbfbf" points="342.433,-1501.5 413.433,-1501.5 "/>
<text text-anchor="middle" x="377.933" y="-1489.5" font-family="Helvetica,sans-Serif" font-size="10.00"> </text>
</g>
<!-- Node7&#45;&gt;Node6 -->
<g id="edge6" class="edge"><title>Node7&#45;&gt;Node6</title>
<path fill="none" stroke="#8b1a1a" d="M390.858,-1472.72C399.579,-1446.09 410.61,-1409.24 416.933,-1376 419.41,-1362.98 421.454,-1349.24 423.14,-1335.57"/>
<polygon fill="none" stroke="#8b1a1a" points="387.475,-1471.81 387.644,-1482.4 394.118,-1474.02 387.475,-1471.81"/>
</g>
<!-- Node8 -->
<g id="node8" class="node"><title>Node8</title>
<g id="a_node8"><a xlink:href="classDistributedVectorFactory.html" target="_top" xlink:title="{DistributedVectorFactory\n||+ DistributedVectorFactory()\l+ DistributedVectorFactory()\l+ DistributedVectorFactory()\l+ DistributedVectorFactory()\l+ ~DistributedVectorFactory()\l+ CreateVec()\l+ CreateVec()\l+ CreateDistributedVector()\l+ IsGlobalIndexLocal()\l+ GetLocalOwnership()\land 8 more...\l+ SetCheckNumberOfProcesses\lOnLoad()\l+ CheckNumberOfProcessesOnLoad()\l&#45; CheckForPetsc()\l&#45; CalculateOwnership()\l&#45; serialize()\l}">
<polygon fill="white" stroke="black" points="431.433,-1394.5 431.433,-1627.5 616.433,-1627.5 616.433,-1394.5 431.433,-1394.5"/>
<text text-anchor="middle" x="523.933" y="-1615.5" font-family="Helvetica,sans-Serif" font-size="10.00">DistributedVectorFactory</text>
<polyline fill="none" stroke="black" points="431.433,-1608.5 616.433,-1608.5 "/>
<text text-anchor="middle" x="523.933" y="-1596.5" font-family="Helvetica,sans-Serif" font-size="10.00"> </text>
<polyline fill="none" stroke="black" points="431.433,-1589.5 616.433,-1589.5 "/>
<text text-anchor="start" x="439.433" y="-1577.5" font-family="Helvetica,sans-Serif" font-size="10.00">+ DistributedVectorFactory()</text>
<text text-anchor="start" x="439.433" y="-1566.5" font-family="Helvetica,sans-Serif" font-size="10.00">+ DistributedVectorFactory()</text>
<text text-anchor="start" x="439.433" y="-1555.5" font-family="Helvetica,sans-Serif" font-size="10.00">+ DistributedVectorFactory()</text>
<text text-anchor="start" x="439.433" y="-1544.5" font-family="Helvetica,sans-Serif" font-size="10.00">+ DistributedVectorFactory()</text>
<text text-anchor="start" x="439.433" y="-1533.5" font-family="Helvetica,sans-Serif" font-size="10.00">+ ~DistributedVectorFactory()</text>
<text text-anchor="start" x="439.433" y="-1522.5" font-family="Helvetica,sans-Serif" font-size="10.00">+ CreateVec()</text>
<text text-anchor="start" x="439.433" y="-1511.5" font-family="Helvetica,sans-Serif" font-size="10.00">+ CreateVec()</text>
<text text-anchor="start" x="439.433" y="-1500.5" font-family="Helvetica,sans-Serif" font-size="10.00">+ CreateDistributedVector()</text>
<text text-anchor="start" x="439.433" y="-1489.5" font-family="Helvetica,sans-Serif" font-size="10.00">+ IsGlobalIndexLocal()</text>
<text text-anchor="start" x="439.433" y="-1478.5" font-family="Helvetica,sans-Serif" font-size="10.00">+ GetLocalOwnership()</text>
<text text-anchor="start" x="439.433" y="-1467.5" font-family="Helvetica,sans-Serif" font-size="10.00">and 8 more...</text>
<text text-anchor="start" x="439.433" y="-1456.5" font-family="Helvetica,sans-Serif" font-size="10.00">+ SetCheckNumberOfProcesses</text>
<text text-anchor="start" x="439.433" y="-1445.5" font-family="Helvetica,sans-Serif" font-size="10.00">OnLoad()</text>
<text text-anchor="start" x="439.433" y="-1434.5" font-family="Helvetica,sans-Serif" font-size="10.00">+ CheckNumberOfProcessesOnLoad()</text>
<text text-anchor="start" x="439.433" y="-1423.5" font-family="Helvetica,sans-Serif" font-size="10.00">&#45; CheckForPetsc()</text>
<text text-anchor="start" x="439.433" y="-1412.5" font-family="Helvetica,sans-Serif" font-size="10.00">&#45; CalculateOwnership()</text>
<text text-anchor="start" x="439.433" y="-1401.5" font-family="Helvetica,sans-Serif" font-size="10.00">&#45; serialize()</text>
</a>
</g>
</g>
<!-- Node8&#45;&gt;Node6 -->
<g id="edge7" class="edge"><title>Node8&#45;&gt;Node6</title>
<path fill="none" stroke="#404040" d="M486.107,-1394.28C481.057,-1378.84 475.867,-1362.96 470.784,-1347.41"/>
<polygon fill="none" stroke="#404040" points="470.651,-1347 464.985,-1342.54 466.923,-1335.6 472.589,-1340.06 470.651,-1347"/>
<text text-anchor="middle" x="543.433" y="-1362.5" font-family="Helvetica,sans-Serif" font-size="10.00"> #mpDistributedVectorFactory</text>
</g>
<!-- Node8&#45;&gt;Node8 -->
<g id="edge8" class="edge"><title>Node8&#45;&gt;Node8</title>
<path fill="none" stroke="#404040" d="M616.635,-1534.36C627.418,-1530.05 634.433,-1522.26 634.433,-1511 634.433,-1503.96 631.693,-1498.28 627.005,-1493.95"/>
<polygon fill="none" stroke="#404040" points="626.883,-1493.88 619.678,-1494.17 616.635,-1487.64 623.84,-1487.34 626.883,-1493.88"/>
<text text-anchor="middle" x="677.433" y="-1508.5" font-family="Helvetica,sans-Serif" font-size="10.00"> &#45;mpOriginalFactory</text>
</g>
<!-- Node9 -->
<g id="node9" class="node"><title>Node9</title>
<polygon fill="white" stroke="#bfbfbf" points="173.433,-1708.5 173.433,-1765.5 274.433,-1765.5 274.433,-1708.5 173.433,-1708.5"/>
<text text-anchor="middle" x="223.933" y="-1753.5" font-family="Helvetica,sans-Serif" font-size="10.00">vector&lt; unsigned &gt;</text>
<polyline fill="none" stroke="#bfbfbf" points="173.433,-1746.5 274.433,-1746.5 "/>
<text text-anchor="middle" x="223.933" y="-1734.5" font-family="Helvetica,sans-Serif" font-size="10.00"> </text>
<polyline fill="none" stroke="#bfbfbf" points="173.433,-1727.5 274.433,-1727.5 "/>
<text text-anchor="middle" x="223.933" y="-1715.5" font-family="Helvetica,sans-Serif" font-size="10.00"> </text>
</g>
<!-- Node9&#45;&gt;Node6 -->
<g id="edge13" class="edge"><title>Node9&#45;&gt;Node6</title>
<path fill="none" stroke="#404040" d="M173.345,-1721.72C129.605,-1706.4 69.104,-1677.34 40.9333,-1628 -10.6357,-1537.69 -16.1902,-1480.91 40.9333,-1394 109.338,-1289.93 257.169,-1249.84 349.894,-1234.6"/>
<polygon fill="none" stroke="#404040" points="349.903,-1234.6 355.21,-1229.72 361.758,-1232.74 356.451,-1237.62 349.903,-1234.6"/>
<text text-anchor="middle" x="87.4333" y="-1508.5" font-family="Helvetica,sans-Serif" font-size="10.00"> #mNodePermutation</text>
</g>
<!-- Node9&#45;&gt;Node8 -->
<g id="edge9" class="edge"><title>Node9&#45;&gt;Node8</title>
<path fill="none" stroke="#404040" d="M274.485,-1714.46C316.366,-1695.25 376.211,-1664.55 421.933,-1628 422.031,-1627.92 422.13,-1627.84 422.228,-1627.76"/>
<polygon fill="none" stroke="#404040" points="422.094,-1627.88 424.128,-1620.96 431.296,-1620.17 429.263,-1627.09 422.094,-1627.88"/>
<text text-anchor="middle" x="430.933" y="-1665.5" font-family="Helvetica,sans-Serif" font-size="10.00"> &#45;mGlobalLows</text>
</g>
<!-- Node10 -->
<g id="node10" class="node"><title>Node10</title>
<g id="a_node10"><a xlink:href="classbool.html" target="_top" xlink:title="{bool\n||}">
<polygon fill="white" stroke="black" points="739.433,-1708.5 739.433,-1765.5 774.433,-1765.5 774.433,-1708.5 739.433,-1708.5"/>
<text text-anchor="middle" x="756.933" y="-1753.5" font-family="Helvetica,sans-Serif" font-size="10.00">bool</text>
<polyline fill="none" stroke="black" points="739.433,-1746.5 774.433,-1746.5 "/>
<text text-anchor="middle" x="756.933" y="-1734.5" font-family="Helvetica,sans-Serif" font-size="10.00"> </text>
<polyline fill="none" stroke="black" points="739.433,-1727.5 774.433,-1727.5 "/>
<text text-anchor="middle" x="756.933" y="-1715.5" font-family="Helvetica,sans-Serif" font-size="10.00"> </text>
</a>
</g>
</g>
<!-- Node10&#45;&gt;Node5 -->
<g id="edge16" class="edge"><title>Node10&#45;&gt;Node5</title>
<path fill="none" stroke="#404040" d="M774.51,-1730.04C808.789,-1717.39 884.079,-1684.3 916.933,-1628 974.798,-1528.84 942.63,-1226.78 957.933,-1113 959.488,-1101.44 961.327,-1089.45 963.321,-1077.47"/>
<polygon fill="none" stroke="#404040" points="963.345,-1077.34 960.41,-1070.75 965.362,-1065.51 968.296,-1072.09 963.345,-1077.34"/>
<text text-anchor="middle" x="991.933" y="-1362.5" font-family="Helvetica,sans-Serif" font-size="10.00"> #mMeshIsLinear</text>
</g>
<!-- Node10&#45;&gt;Node6 -->
<g id="edge14" class="edge"><title>Node10&#45;&gt;Node6</title>
<path fill="none" stroke="#404040" d="M757.914,-1708.4C759.967,-1636.57 762.071,-1445.82 728.933,-1394 679.57,-1316.81 581.588,-1271.48 511.447,-1247.63"/>
<polygon fill="none" stroke="#404040" points="511.397,-1247.61 504.445,-1249.53 500.004,-1243.85 506.957,-1241.93 511.397,-1247.61"/>
<text text-anchor="middle" x="835.933" y="-1508.5" font-family="Helvetica,sans-Serif" font-size="10.00"> #mMeshChangesDuringSimulation</text>
</g>
<!-- Node10&#45;&gt;Node8 -->
<g id="edge10" class="edge"><title>Node10&#45;&gt;Node8</title>
<path fill="none" stroke="#404040" d="M738.945,-1735.36C707.595,-1733.31 642.523,-1724.84 602.933,-1690 600.16,-1687.56 590.073,-1666.04 577.989,-1638.75"/>
<polygon fill="none" stroke="#404040" points="577.919,-1638.59 571.841,-1634.71 573.083,-1627.61 579.162,-1631.49 577.919,-1638.59"/>
<text text-anchor="start" x="602.933" y="-1676.5" font-family="Helvetica,sans-Serif" font-size="10.00"> &#45;msCheckNumberOfProcesses</text>
<text text-anchor="middle" x="672.933" y="-1665.5" font-family="Helvetica,sans-Serif" font-size="10.00">OnLoad</text>
<text text-anchor="middle" x="672.933" y="-1654.5" font-family="Helvetica,sans-Serif" font-size="10.00">&#45;mPetscStatusKnown</text>
</g>
<!-- Node11 -->
<g id="node11" class="node"><title>Node11</title>
<g id="a_node11"><a xlink:href="classunsigned.html" target="_top" xlink:title="{unsigned\n||}">
<polygon fill="white" stroke="black" points="483.933,-1708.5 483.933,-1765.5 539.933,-1765.5 539.933,-1708.5 483.933,-1708.5"/>
<text text-anchor="middle" x="511.933" y="-1753.5" font-family="Helvetica,sans-Serif" font-size="10.00">unsigned</text>
<polyline fill="none" stroke="black" points="483.933,-1746.5 539.933,-1746.5 "/>
<text text-anchor="middle" x="511.933" y="-1734.5" font-family="Helvetica,sans-Serif" font-size="10.00"> </text>
<polyline fill="none" stroke="black" points="483.933,-1727.5 539.933,-1727.5 "/>
<text text-anchor="middle" x="511.933" y="-1715.5" font-family="Helvetica,sans-Serif" font-size="10.00"> </text>
</a>
</g>
</g>
<!-- Node11&#45;&gt;Node8 -->
<g id="edge11" class="edge"><title>Node11&#45;&gt;Node8</title>
<path fill="none" stroke="#404040" d="M511.735,-1708.41C511.731,-1690.59 511.96,-1666.92 512.933,-1646 513.028,-1643.96 513.13,-1641.9 513.237,-1639.82"/>
<polygon fill="none" stroke="#404040" points="513.239,-1639.8 509.582,-1633.58 513.912,-1627.82 517.569,-1634.03 513.239,-1639.8"/>
<text text-anchor="middle" x="546.433" y="-1682" font-family="Helvetica,sans-Serif" font-size="10.00"> &#45;mHi</text>
<text text-anchor="middle" x="546.433" y="-1671" font-family="Helvetica,sans-Serif" font-size="10.00">&#45;mNumProcs</text>
<text text-anchor="middle" x="546.433" y="-1660" font-family="Helvetica,sans-Serif" font-size="10.00">&#45;mLo</text>
<text text-anchor="middle" x="546.433" y="-1649" font-family="Helvetica,sans-Serif" font-size="10.00">&#45;mProblemSize</text>
</g>
<!-- Node12 -->
<g id="node12" class="node"><title>Node12</title>
<polygon fill="white" stroke="#bfbfbf" points="143.433,-1477 143.433,-1545 262.433,-1545 262.433,-1477 143.433,-1477"/>
<text text-anchor="start" x="151.433" y="-1533" font-family="Helvetica,sans-Serif" font-size="10.00">vector&lt; Node&lt; SPACE</text>
<text text-anchor="middle" x="202.933" y="-1522" font-family="Helvetica,sans-Serif" font-size="10.00">_DIM &gt; * &gt;</text>
<polyline fill="none" stroke="#bfbfbf" points="143.433,-1515 262.433,-1515 "/>
<text text-anchor="middle" x="202.933" y="-1503" font-family="Helvetica,sans-Serif" font-size="10.00"> </text>
<polyline fill="none" stroke="#bfbfbf" points="143.433,-1496 262.433,-1496 "/>
<text text-anchor="middle" x="202.933" y="-1484" font-family="Helvetica,sans-Serif" font-size="10.00"> </text>
</g>
<!-- Node12&#45;&gt;Node6 -->
<g id="edge12" class="edge"><title>Node12&#45;&gt;Node6</title>
<path fill="none" stroke="#404040" d="M195.769,-1476.92C190.385,-1443.41 187.325,-1391.34 209.933,-1354 241.019,-1302.67 300.922,-1269.71 350.528,-1250.04"/>
<polygon fill="none" stroke="#404040" points="350.707,-1249.97 354.881,-1244.09 361.914,-1245.68 357.74,-1251.56 350.707,-1249.97"/>
<text text-anchor="middle" x="253.433" y="-1368" font-family="Helvetica,sans-Serif" font-size="10.00"> #mBoundaryNodes</text>
<text text-anchor="middle" x="253.433" y="-1357" font-family="Helvetica,sans-Serif" font-size="10.00">#mNodes</text>
</g>
<!-- Node13 -->
<g id="node13" class="node"><title>Node13</title>
<polygon fill="white" stroke="#bfbfbf" points="283.433,-1482.5 283.433,-1539.5 324.433,-1539.5 324.433,-1482.5 283.433,-1482.5"/>
<text text-anchor="middle" x="303.933" y="-1527.5" font-family="Helvetica,sans-Serif" font-size="10.00">string</text>
<polyline fill="none" stroke="#bfbfbf" points="283.433,-1520.5 324.433,-1520.5 "/>
<text text-anchor="middle" x="303.933" y="-1508.5" font-family="Helvetica,sans-Serif" font-size="10.00"> </text>
<polyline fill="none" stroke="#bfbfbf" points="283.433,-1501.5 324.433,-1501.5 "/>
<text text-anchor="middle" x="303.933" y="-1489.5" font-family="Helvetica,sans-Serif" font-size="10.00"> </text>
</g>
<!-- Node13&#45;&gt;Node6 -->
<g id="edge15" class="edge"><title>Node13&#45;&gt;Node6</title>
<path fill="none" stroke="#404040" d="M298.569,-1482.27C293.648,-1450.08 289.488,-1396.03 306.933,-1354 317.188,-1329.29 334.616,-1306.64 353.218,-1287.47"/>
<polygon fill="none" stroke="#404040" points="353.317,-1287.37 354.751,-1280.31 361.826,-1278.91 360.392,-1285.98 353.317,-1287.37"/>
<text text-anchor="middle" x="359.933" y="-1362.5" font-family="Helvetica,sans-Serif" font-size="10.00"> #mMeshFileBaseName</text>
</g>
<!-- Node14 -->
<g id="node14" class="node"><title>Node14</title>
<polygon fill="white" stroke="#bfbfbf" points="966.933,-1185 966.933,-1264 1112.93,-1264 1112.93,-1185 966.933,-1185"/>
<text text-anchor="start" x="974.933" y="-1252" font-family="Helvetica,sans-Serif" font-size="10.00">vector&lt; BoundaryElement</text>
<text text-anchor="start" x="974.933" y="-1241" font-family="Helvetica,sans-Serif" font-size="10.00">&lt; ELEMENT_DIM&#45;1, SPACE</text>
<text text-anchor="middle" x="1039.93" y="-1230" font-family="Helvetica,sans-Serif" font-size="10.00">_DIM &gt; * &gt;</text>
<polyline fill="none" stroke="#bfbfbf" points="966.933,-1223 1112.93,-1223 "/>
<text text-anchor="middle" x="1039.93" y="-1211" font-family="Helvetica,sans-Serif" font-size="10.00"> </text>
<polyline fill="none" stroke="#bfbfbf" points="966.933,-1204 1112.93,-1204 "/>
<text text-anchor="middle" x="1039.93" y="-1192" font-family="Helvetica,sans-Serif" font-size="10.00"> </text>
</g>
<!-- Node14&#45;&gt;Node5 -->
<g id="edge17" class="edge"><title>Node14&#45;&gt;Node5</title>
<path fill="none" stroke="#404040" d="M1032.73,-1184.89C1027.46,-1156.61 1019.98,-1116.49 1012.69,-1077.39"/>
<polygon fill="none" stroke="#404040" points="1012.69,-1077.38 1007.65,-1072.21 1010.49,-1065.58 1015.52,-1070.74 1012.69,-1077.38"/>
<text text-anchor="middle" x="1066.93" y="-1087" font-family="Helvetica,sans-Serif" font-size="10.00"> #mBoundaryElements</text>
</g>
<!-- Node15 -->
<g id="node15" class="node"><title>Node15</title>
<polygon fill="white" stroke="#bfbfbf" points="1131.43,-1190.5 1131.43,-1258.5 1276.43,-1258.5 1276.43,-1190.5 1131.43,-1190.5"/>
<text text-anchor="start" x="1139.43" y="-1246.5" font-family="Helvetica,sans-Serif" font-size="10.00">vector&lt; Element&lt; ELEMENT</text>
<text text-anchor="middle" x="1203.93" y="-1235.5" font-family="Helvetica,sans-Serif" font-size="10.00">_DIM, SPACE_DIM &gt; * &gt;</text>
<polyline fill="none" stroke="#bfbfbf" points="1131.43,-1228.5 1276.43,-1228.5 "/>
<text text-anchor="middle" x="1203.93" y="-1216.5" font-family="Helvetica,sans-Serif" font-size="10.00"> </text>
<polyline fill="none" stroke="#bfbfbf" points="1131.43,-1209.5 1276.43,-1209.5 "/>
<text text-anchor="middle" x="1203.93" y="-1197.5" font-family="Helvetica,sans-Serif" font-size="10.00"> </text>
</g>
<!-- Node15&#45;&gt;Node5 -->
<g id="edge18" class="edge"><title>Node15&#45;&gt;Node5</title>
<path fill="none" stroke="#404040" d="M1190.7,-1190.27C1177.06,-1159.47 1153.24,-1114.03 1120.93,-1084 1109.88,-1073.72 1101.82,-1075.9 1085.87,-1065.72"/>
<polygon fill="none" stroke="#404040" points="1085.83,-1065.69 1078.62,-1065.39 1076.12,-1058.63 1083.33,-1058.92 1085.83,-1065.69"/>
<text text-anchor="middle" x="1158.93" y="-1087" font-family="Helvetica,sans-Serif" font-size="10.00"> #mElements</text>
</g>
<!-- Node16 -->
<g id="node16" class="node"><title>Node16</title>
<polygon fill="white" stroke="#bfbfbf" points="1093.93,-920.5 1093.93,-977.5 1183.93,-977.5 1183.93,-920.5 1093.93,-920.5"/>
<text text-anchor="middle" x="1138.93" y="-965.5" font-family="Helvetica,sans-Serif" font-size="10.00">vector&lt; double &gt;</text>
<polyline fill="none" stroke="#bfbfbf" points="1093.93,-958.5 1183.93,-958.5 "/>
<text text-anchor="middle" x="1138.93" y="-946.5" font-family="Helvetica,sans-Serif" font-size="10.00"> </text>
<polyline fill="none" stroke="#bfbfbf" points="1093.93,-939.5 1183.93,-939.5 "/>
<text text-anchor="middle" x="1138.93" y="-927.5" font-family="Helvetica,sans-Serif" font-size="10.00"> </text>
</g>
<!-- Node16&#45;&gt;Node4 -->
<g id="edge19" class="edge"><title>Node16&#45;&gt;Node4</title>
<path fill="none" stroke="#404040" d="M1128.17,-920.34C1114.91,-884.642 1093.13,-820.3 1084.93,-763 1067.45,-640.688 1011.51,-584.37 1084.93,-485 1125.06,-430.694 1174.92,-474.685 1236.66,-437.839"/>
<polygon fill="none" stroke="#404040" points="1236.67,-437.833 1239.46,-431.184 1246.67,-431.204 1243.88,-437.853 1236.67,-437.833"/>
<text text-anchor="start" x="1084.93" y="-632.5" font-family="Helvetica,sans-Serif" font-size="10.00"> #mBoundaryElementJacobian</text>
<text text-anchor="middle" x="1158.93" y="-621.5" font-family="Helvetica,sans-Serif" font-size="10.00">Determinants</text>
<text text-anchor="middle" x="1158.93" y="-610.5" font-family="Helvetica,sans-Serif" font-size="10.00">#mElementJacobianDeterminants</text>
</g>
<!-- Node16&#45;&gt;Node20 -->
<g id="edge25" class="edge"><title>Node16&#45;&gt;Node20</title>
<path fill="none" stroke="#404040" d="M1137.62,-920.393C1137.48,-882.428 1143.55,-814.953 1184.93,-781 1227.82,-745.811 1385.52,-790.099 1433.93,-763 1435.12,-762.334 1436.3,-761.647 1437.47,-760.94"/>
<polygon fill="none" stroke="#404040" points="1437.74,-760.758 1440.49,-754.091 1447.7,-754.062 1444.95,-760.729 1437.74,-760.758"/>
<text text-anchor="start" x="1184.93" y="-806" font-family="Helvetica,sans-Serif" font-size="10.00"> #mBoundaryElementJacobian</text>
<text text-anchor="middle" x="1258.93" y="-795" font-family="Helvetica,sans-Serif" font-size="10.00">Determinants</text>
<text text-anchor="middle" x="1258.93" y="-784" font-family="Helvetica,sans-Serif" font-size="10.00">#mElementJacobianDeterminants</text>
</g>
<!-- Node17 -->
<g id="node17" class="node"><title>Node17</title>
<polygon fill="white" stroke="#bfbfbf" points="1251.43,-915 1251.43,-983 1382.43,-983 1382.43,-915 1251.43,-915"/>
<text text-anchor="start" x="1259.43" y="-971" font-family="Helvetica,sans-Serif" font-size="10.00">vector&lt; c_vector&lt; double,</text>
<text text-anchor="middle" x="1316.93" y="-960" font-family="Helvetica,sans-Serif" font-size="10.00"> SPACE_DIM &gt; &gt;</text>
<polyline fill="none" stroke="#bfbfbf" points="1251.43,-953 1382.43,-953 "/>
<text text-anchor="middle" x="1316.93" y="-941" font-family="Helvetica,sans-Serif" font-size="10.00"> </text>
<polyline fill="none" stroke="#bfbfbf" points="1251.43,-934 1382.43,-934 "/>
<text text-anchor="middle" x="1316.93" y="-922" font-family="Helvetica,sans-Serif" font-size="10.00"> </text>
</g>
<!-- Node17&#45;&gt;Node4 -->
<g id="edge20" class="edge"><title>Node17&#45;&gt;Node4</title>
<path fill="none" stroke="#404040" d="M1312.98,-914.915C1307.9,-880.184 1297.07,-824.664 1275.93,-781 1271.52,-771.878 1265.22,-772.586 1261.93,-763 1221.84,-646.132 1239.09,-606.426 1261.93,-485 1264.14,-473.289 1267.08,-461.362 1270.52,-449.504"/>
<polygon fill="none" stroke="#404040" points="1270.62,-449.163 1268.54,-442.259 1274.11,-437.681 1276.2,-444.585 1270.62,-449.163"/>
<text text-anchor="middle" x="1350.43" y="-627" font-family="Helvetica,sans-Serif" font-size="10.00"> #mElementWeightedDirections</text>
<text text-anchor="middle" x="1350.43" y="-616" font-family="Helvetica,sans-Serif" font-size="10.00">#mBoundaryElementWeightedDirections</text>
</g>
<!-- Node17&#45;&gt;Node20 -->
<g id="edge26" class="edge"><title>Node17&#45;&gt;Node20</title>
<path fill="none" stroke="#404040" d="M1315.75,-914.888C1316.3,-877.204 1323.23,-816.321 1358.93,-781 1383.3,-756.892 1405.49,-782.129 1433.93,-763 1435.28,-762.098 1436.61,-761.171 1437.92,-760.22"/>
<polygon fill="none" stroke="#404040" points="1438.33,-759.899 1440.59,-753.051 1447.79,-752.505 1445.52,-759.352 1438.33,-759.899"/>
<text text-anchor="middle" x="1447.43" y="-800.5" font-family="Helvetica,sans-Serif" font-size="10.00"> #mElementWeightedDirections</text>
<text text-anchor="middle" x="1447.43" y="-789.5" font-family="Helvetica,sans-Serif" font-size="10.00">#mBoundaryElementWeightedDirections</text>
</g>
<!-- Node18 -->
<g id="node18" class="node"><title>Node18</title>
<polygon fill="white" stroke="#bfbfbf" points="1722.43,-915 1722.43,-983 1895.43,-983 1895.43,-915 1722.43,-915"/>
<text text-anchor="start" x="1730.43" y="-971" font-family="Helvetica,sans-Serif" font-size="10.00">vector&lt; c_matrix&lt; double,</text>
<text text-anchor="middle" x="1808.93" y="-960" font-family="Helvetica,sans-Serif" font-size="10.00"> ELEMENT_DIM, SPACE_DIM &gt; &gt;</text>
<polyline fill="none" stroke="#bfbfbf" points="1722.43,-953 1895.43,-953 "/>
<text text-anchor="middle" x="1808.93" y="-941" font-family="Helvetica,sans-Serif" font-size="10.00"> </text>
<polyline fill="none" stroke="#bfbfbf" points="1722.43,-934 1895.43,-934 "/>
<text text-anchor="middle" x="1808.93" y="-922" font-family="Helvetica,sans-Serif" font-size="10.00"> </text>
</g>
<!-- Node18&#45;&gt;Node4 -->
<g id="edge21" class="edge"><title>Node18&#45;&gt;Node4</title>
<path fill="none" stroke="#404040" d="M1817.9,-914.746C1837.94,-832.489 1877.28,-616.643 1778.93,-485 1696.24,-374.317 1534.12,-331.735 1429.52,-315.453"/>
<polygon fill="none" stroke="#404040" points="1429.25,-315.412 1422.72,-318.482 1417.38,-313.64 1423.9,-310.57 1429.25,-315.412"/>
<text text-anchor="middle" x="1906.93" y="-621.5" font-family="Helvetica,sans-Serif" font-size="10.00"> #mElementInverseJacobians</text>
</g>
<!-- Node18&#45;&gt;Node20 -->
<g id="edge27" class="edge"><title>Node18&#45;&gt;Node20</title>
<path fill="none" stroke="#404040" d="M1774.49,-914.898C1737.68,-878.874 1678.35,-818.922 1631.93,-763 1629.84,-760.481 1627.75,-757.921 1625.65,-755.329"/>
<polygon fill="none" stroke="#404040" points="1625.55,-755.198 1618.68,-752.999 1618.07,-745.813 1624.94,-748.013 1625.55,-755.198"/>
<text text-anchor="middle" x="1737.93" y="-795" font-family="Helvetica,sans-Serif" font-size="10.00"> #mElementInverseJacobians</text>
</g>
<!-- Node19 -->
<g id="node19" class="node"><title>Node19</title>
<polygon fill="white" stroke="#bfbfbf" points="1477.43,-915 1477.43,-983 1650.43,-983 1650.43,-915 1477.43,-915"/>
<text text-anchor="start" x="1485.43" y="-971" font-family="Helvetica,sans-Serif" font-size="10.00">vector&lt; c_matrix&lt; double,</text>
<text text-anchor="middle" x="1563.93" y="-960" font-family="Helvetica,sans-Serif" font-size="10.00"> SPACE_DIM, ELEMENT_DIM &gt; &gt;</text>
<polyline fill="none" stroke="#bfbfbf" points="1477.43,-953 1650.43,-953 "/>
<text text-anchor="middle" x="1563.93" y="-941" font-family="Helvetica,sans-Serif" font-size="10.00"> </text>
<polyline fill="none" stroke="#bfbfbf" points="1477.43,-934 1650.43,-934 "/>
<text text-anchor="middle" x="1563.93" y="-922" font-family="Helvetica,sans-Serif" font-size="10.00"> </text>
</g>
<!-- Node19&#45;&gt;Node4 -->
<g id="edge22" class="edge"><title>Node19&#45;&gt;Node4</title>
<path fill="none" stroke="#404040" d="M1589.2,-914.88C1607.29,-888.982 1630.11,-851.239 1639.93,-814 1652.11,-767.851 1727.27,-654.668 1626.93,-485 1583.36,-411.31 1496.6,-363.978 1428.4,-336.527"/>
<polygon fill="none" stroke="#404040" points="1428.37,-336.513 1421.32,-338.043 1417.2,-332.127 1424.24,-330.596 1428.37,-336.513"/>
<text text-anchor="middle" x="1726.43" y="-621.5" font-family="Helvetica,sans-Serif" font-size="10.00"> #mElementJacobians</text>
</g>
<!-- Node19&#45;&gt;Node20 -->
<g id="edge28" class="edge"><title>Node19&#45;&gt;Node20</title>
<path fill="none" stroke="#404040" d="M1557.76,-914.808C1552.97,-887.767 1546.54,-848.545 1542.93,-814 1541.61,-801.302 1540.45,-788.104 1539.45,-774.852"/>
<polygon fill="none" stroke="#404040" points="1539.43,-774.647 1535.01,-768.951 1538.57,-762.678 1542.99,-768.374 1539.43,-774.647"/>
<text text-anchor="middle" x="1591.43" y="-795" font-family="Helvetica,sans-Serif" font-size="10.00"> #mElementJacobians</text>
</g>
<!-- Node20&#45;&gt;Node4 -->
<g id="edge23" class="edge"><title>Node20&#45;&gt;Node4</title>
<path fill="none" stroke="orange" d="M1442.18,-479.651C1433.31,-465.639 1424.34,-451.465 1415.54,-437.571"/>
<polygon fill="orange" stroke="orange" points="1439.38,-481.774 1447.69,-488.351 1445.3,-478.03 1439.38,-481.774"/>
<text text-anchor="middle" x="1450.93" y="-459" font-family="Helvetica,sans-Serif" font-size="10.00"> &lt; 3, 3 &gt;</text>
</g>
</g>
</svg>
