<?xml version="1.0" encoding="UTF-8" standalone="no"?>
<!DOCTYPE svg PUBLIC "-//W3C//DTD SVG 1.1//EN"
 "http://www.w3.org/Graphics/SVG/1.1/DTD/svg11.dtd">
<!-- Generated by graphviz version 2.38.0 (20140413.2041)
 -->
<!-- Title: AbstractCellBasedSimulation&lt; ELEMENT_DIM, SPACE_DIM &gt; Pages: 1 -->
<svg width="1315pt" height="512pt"
 viewBox="0.00 0.00 1314.50 512.00" xmlns="http://www.w3.org/2000/svg" xmlns:xlink="http://www.w3.org/1999/xlink">
<g id="graph0" class="graph" transform="scale(1 1) rotate(0) translate(4 508)">
<title>AbstractCellBasedSimulation&lt; ELEMENT_DIM, SPACE_DIM &gt;</title>
<polygon fill="white" stroke="none" points="-4,4 -4,-508 1310.5,-508 1310.5,4 -4,4"/>
<!-- Node1 -->
<g id="node1" class="node"><title>Node1</title>
<polygon fill="#bfbfbf" stroke="black" points="560,-0.5 560,-299.5 739,-299.5 739,-0.5 560,-0.5"/>
<text text-anchor="start" x="568" y="-287.5" font-family="Helvetica,sans-Serif" font-size="10.00">AbstractCellBasedSimulation</text>
<text text-anchor="middle" x="649.5" y="-276.5" font-family="Helvetica,sans-Serif" font-size="10.00">&lt; ELEMENT_DIM, SPACE_DIM &gt;</text>
<polyline fill="none" stroke="black" points="560,-269.5 739,-269.5 "/>
<text text-anchor="middle" x="649.5" y="-257.5" font-family="Helvetica,sans-Serif" font-size="10.00"> </text>
<polyline fill="none" stroke="black" points="560,-250.5 739,-250.5 "/>
<text text-anchor="start" x="568" y="-238.5" font-family="Helvetica,sans-Serif" font-size="10.00">+ AbstractCellBasedSimulation()</text>
<text text-anchor="start" x="568" y="-227.5" font-family="Helvetica,sans-Serif" font-size="10.00">+ ~AbstractCellBasedSimulation()</text>
<text text-anchor="start" x="568" y="-216.5" font-family="Helvetica,sans-Serif" font-size="10.00">+ GetNodeLocation()</text>
<text text-anchor="start" x="568" y="-205.5" font-family="Helvetica,sans-Serif" font-size="10.00">+ GetDt()</text>
<text text-anchor="start" x="568" y="-194.5" font-family="Helvetica,sans-Serif" font-size="10.00">+ GetNumBirths()</text>
<text text-anchor="start" x="568" y="-183.5" font-family="Helvetica,sans-Serif" font-size="10.00">+ GetNumDeaths()</text>
<text text-anchor="start" x="568" y="-172.5" font-family="Helvetica,sans-Serif" font-size="10.00">+ GetOutputDirectory()</text>
<text text-anchor="start" x="568" y="-161.5" font-family="Helvetica,sans-Serif" font-size="10.00">+ SetDt()</text>
<text text-anchor="start" x="568" y="-150.5" font-family="Helvetica,sans-Serif" font-size="10.00">+ SetEndTime()</text>
<text text-anchor="start" x="568" y="-139.5" font-family="Helvetica,sans-Serif" font-size="10.00">+ SetOutputDirectory()</text>
<text text-anchor="start" x="568" y="-128.5" font-family="Helvetica,sans-Serif" font-size="10.00">and 16 more...</text>
<text text-anchor="start" x="568" y="-117.5" font-family="Helvetica,sans-Serif" font-size="10.00"># WriteVisualizerSetupFile()</text>
<text text-anchor="start" x="568" y="-106.5" font-family="Helvetica,sans-Serif" font-size="10.00"># DoCellBirth()</text>
<text text-anchor="start" x="568" y="-95.5" font-family="Helvetica,sans-Serif" font-size="10.00"># DoCellRemoval()</text>
<text text-anchor="start" x="568" y="-84.5" font-family="Helvetica,sans-Serif" font-size="10.00"># SetupSolve()</text>
<text text-anchor="start" x="568" y="-73.5" font-family="Helvetica,sans-Serif" font-size="10.00"># StoppingEventHasOccurred()</text>
<text text-anchor="start" x="568" y="-62.5" font-family="Helvetica,sans-Serif" font-size="10.00"># UpdateCellPopulation()</text>
<text text-anchor="start" x="568" y="-51.5" font-family="Helvetica,sans-Serif" font-size="10.00"># UpdateCellLocationsAndTopology()</text>
<text text-anchor="start" x="568" y="-40.5" font-family="Helvetica,sans-Serif" font-size="10.00"># OutputSimulationSetup()</text>
<text text-anchor="start" x="568" y="-29.5" font-family="Helvetica,sans-Serif" font-size="10.00"># OutputAdditionalSimulation</text>
<text text-anchor="start" x="568" y="-18.5" font-family="Helvetica,sans-Serif" font-size="10.00">Setup()</text>
<text text-anchor="start" x="568" y="-7.5" font-family="Helvetica,sans-Serif" font-size="10.00">&#45; serialize()</text>
</g>
<!-- Node2 -->
<g id="node2" class="node"><title>Node2</title>
<g id="a_node2"><a xlink:href="classIdentifiable.html" target="_top" xlink:title="{Identifiable\n||+ ~Identifiable()\l+ GetIdentifier()\l&#45; TidyTemplatedExportIdentifier()\l}">
<polygon fill="white" stroke="black" points="0,-419 0,-498 159,-498 159,-419 0,-419"/>
<text text-anchor="middle" x="79.5" y="-486" font-family="Helvetica,sans-Serif" font-size="10.00">Identifiable</text>
<polyline fill="none" stroke="black" points="0,-479 159,-479 "/>
<text text-anchor="middle" x="79.5" y="-467" font-family="Helvetica,sans-Serif" font-size="10.00"> </text>
<polyline fill="none" stroke="black" points="0,-460 159,-460 "/>
<text text-anchor="start" x="8" y="-448" font-family="Helvetica,sans-Serif" font-size="10.00">+ ~Identifiable()</text>
<text text-anchor="start" x="8" y="-437" font-family="Helvetica,sans-Serif" font-size="10.00">+ GetIdentifier()</text>
<text text-anchor="start" x="8" y="-426" font-family="Helvetica,sans-Serif" font-size="10.00">&#45; TidyTemplatedExportIdentifier()</text>
</a>
</g>
</g>
<!-- Node2&#45;&gt;Node1 -->
<g id="edge1" class="edge"><title>Node2&#45;&gt;Node1</title>
<path fill="none" stroke="midnightblue" d="M124.227,-411.618C154.896,-382.037 197.648,-344.321 240.5,-318 343.27,-254.876 474.106,-206.29 559.753,-178.199"/>
<polygon fill="none" stroke="midnightblue" points="121.419,-409.467 116.697,-418.952 126.303,-414.482 121.419,-409.467"/>
</g>
<!-- Node3 -->
<g id="node3" class="node"><title>Node3</title>
<g id="a_node3"><a xlink:href="classdouble.html" target="_top" xlink:title="{double\n||}">
<polygon fill="white" stroke="black" points="177,-430 177,-487 222,-487 222,-430 177,-430"/>
<text text-anchor="middle" x="199.5" y="-475" font-family="Helvetica,sans-Serif" font-size="10.00">double</text>
<polyline fill="none" stroke="black" points="177,-468 222,-468 "/>
<text text-anchor="middle" x="199.5" y="-456" font-family="Helvetica,sans-Serif" font-size="10.00"> </text>
<polyline fill="none" stroke="black" points="177,-449 222,-449 "/>
<text text-anchor="middle" x="199.5" y="-437" font-family="Helvetica,sans-Serif" font-size="10.00"> </text>
</a>
</g>
</g>
<!-- Node3&#45;&gt;Node1 -->
<g id="edge2" class="edge"><title>Node3&#45;&gt;Node1</title>
<path fill="none" stroke="#404040" d="M216.873,-429.988C237.355,-399.354 273.916,-349.956 315.5,-318 386.837,-263.18 478.981,-218.72 548.411,-189.497"/>
<polygon fill="none" stroke="#404040" points="548.71,-189.373 552.711,-183.374 559.788,-184.759 555.787,-190.759 548.71,-189.373"/>
<text text-anchor="middle" x="343.5" y="-359.5" font-family="Helvetica,sans-Serif" font-size="10.00"> #mEndTime</text>
<text text-anchor="middle" x="343.5" y="-348.5" font-family="Helvetica,sans-Serif" font-size="10.00">#mDt</text>
</g>
<!-- Node4 -->
<g id="node4" class="node"><title>Node4</title>
<polygon fill="white" stroke="#bfbfbf" points="240.5,-424.5 240.5,-492.5 420.5,-492.5 420.5,-424.5 240.5,-424.5"/>
<text text-anchor="start" x="248.5" y="-480.5" font-family="Helvetica,sans-Serif" font-size="10.00">AbstractCellPopulation</text>
<text text-anchor="middle" x="330.5" y="-469.5" font-family="Helvetica,sans-Serif" font-size="10.00">&lt; ELEMENT_DIM, SPACE_DIM &gt; &amp;</text>
<polyline fill="none" stroke="#bfbfbf" points="240.5,-462.5 420.5,-462.5 "/>
<text text-anchor="middle" x="330.5" y="-450.5" font-family="Helvetica,sans-Serif" font-size="10.00"> </text>
<polyline fill="none" stroke="#bfbfbf" points="240.5,-443.5 420.5,-443.5 "/>
<text text-anchor="middle" x="330.5" y="-431.5" font-family="Helvetica,sans-Serif" font-size="10.00"> </text>
</g>
<!-- Node4&#45;&gt;Node1 -->
<g id="edge3" class="edge"><title>Node4&#45;&gt;Node1</title>
<path fill="none" stroke="#404040" d="M353.234,-424.47C374.231,-395.048 407.132,-351.584 440.5,-318 474.006,-284.277 514.129,-250.824 550.222,-222.817"/>
<polygon fill="none" stroke="#404040" points="550.288,-222.766 552.6,-215.936 559.794,-215.442 557.482,-222.273 550.288,-222.766"/>
<text text-anchor="middle" x="482" y="-354" font-family="Helvetica,sans-Serif" font-size="10.00"> #mrCellPopulation</text>
</g>
<!-- Node5 -->
<g id="node5" class="node"><title>Node5</title>
<polygon fill="white" stroke="#bfbfbf" points="438.5,-413.5 438.5,-503.5 610.5,-503.5 610.5,-413.5 438.5,-413.5"/>
<text text-anchor="start" x="446.5" y="-491.5" font-family="Helvetica,sans-Serif" font-size="10.00">vector&lt; boost::shared</text>
<text text-anchor="start" x="446.5" y="-480.5" font-family="Helvetica,sans-Serif" font-size="10.00">_ptr&lt; AbstractCellBasedSimulation</text>
<text text-anchor="start" x="446.5" y="-469.5" font-family="Helvetica,sans-Serif" font-size="10.00">Modifier&lt; ELEMENT_DIM, SPACE</text>
<text text-anchor="middle" x="524.5" y="-458.5" font-family="Helvetica,sans-Serif" font-size="10.00">_DIM &gt; &gt; &gt;</text>
<polyline fill="none" stroke="#bfbfbf" points="438.5,-451.5 610.5,-451.5 "/>
<text text-anchor="middle" x="524.5" y="-439.5" font-family="Helvetica,sans-Serif" font-size="10.00"> </text>
<polyline fill="none" stroke="#bfbfbf" points="438.5,-432.5 610.5,-432.5 "/>
<text text-anchor="middle" x="524.5" y="-420.5" font-family="Helvetica,sans-Serif" font-size="10.00"> </text>
</g>
<!-- Node5&#45;&gt;Node1 -->
<g id="edge4" class="edge"><title>Node5&#45;&gt;Node1</title>
<path fill="none" stroke="#404040" d="M525.261,-413.286C526.934,-385.254 531.35,-348.634 542.5,-318 545.928,-308.581 549.96,-299.145 554.415,-289.817"/>
<polygon fill="none" stroke="#404040" points="554.487,-289.671 553.575,-282.518 559.827,-278.925 560.739,-286.078 554.487,-289.671"/>
<text text-anchor="middle" x="594" y="-354" font-family="Helvetica,sans-Serif" font-size="10.00"> #mSimulationModifiers</text>
</g>
<!-- Node6 -->
<g id="node6" class="node"><title>Node6</title>
<polygon fill="white" stroke="#bfbfbf" points="629,-430 629,-487 670,-487 670,-430 629,-430"/>
<text text-anchor="middle" x="649.5" y="-475" font-family="Helvetica,sans-Serif" font-size="10.00">string</text>
<polyline fill="none" stroke="#bfbfbf" points="629,-468 670,-468 "/>
<text text-anchor="middle" x="649.5" y="-456" font-family="Helvetica,sans-Serif" font-size="10.00"> </text>
<polyline fill="none" stroke="#bfbfbf" points="629,-449 670,-449 "/>
<text text-anchor="middle" x="649.5" y="-437" font-family="Helvetica,sans-Serif" font-size="10.00"> </text>
</g>
<!-- Node6&#45;&gt;Node1 -->
<g id="edge5" class="edge"><title>Node6&#45;&gt;Node1</title>
<path fill="none" stroke="#404040" d="M649.5,-429.76C649.5,-402.164 649.5,-357.464 649.5,-311.863"/>
<polygon fill="none" stroke="#404040" points="649.5,-311.628 645.5,-305.628 649.5,-299.628 653.5,-305.628 649.5,-311.628"/>
<text text-anchor="middle" x="715.5" y="-359.5" font-family="Helvetica,sans-Serif" font-size="10.00"> #mSimulationOutputDirectory</text>
<text text-anchor="middle" x="715.5" y="-348.5" font-family="Helvetica,sans-Serif" font-size="10.00">#mOutputDirectory</text>
</g>
<!-- Node7 -->
<g id="node7" class="node"><title>Node7</title>
<g id="a_node7"><a xlink:href="classbool.html" target="_top" xlink:title="{bool\n||}">
<polygon fill="white" stroke="black" points="787,-430 787,-487 822,-487 822,-430 787,-430"/>
<text text-anchor="middle" x="804.5" y="-475" font-family="Helvetica,sans-Serif" font-size="10.00">bool</text>
<polyline fill="none" stroke="black" points="787,-468 822,-468 "/>
<text text-anchor="middle" x="804.5" y="-456" font-family="Helvetica,sans-Serif" font-size="10.00"> </text>
<polyline fill="none" stroke="black" points="787,-449 822,-449 "/>
<text text-anchor="middle" x="804.5" y="-437" font-family="Helvetica,sans-Serif" font-size="10.00"> </text>
</a>
</g>
</g>
<!-- Node7&#45;&gt;Node1 -->
<g id="edge6" class="edge"><title>Node7&#45;&gt;Node1</title>
<path fill="none" stroke="#404040" d="M804.261,-429.861C803.085,-400.847 798.545,-354.468 782.5,-318 773.115,-296.668 760.316,-275.741 746.348,-256.306"/>
<polygon fill="none" stroke="#404040" points="746.303,-256.245 739.522,-253.792 739.178,-246.589 745.959,-249.042 746.303,-256.245"/>
<text text-anchor="start" x="801.5" y="-387" font-family="Helvetica,sans-Serif" font-size="10.00"> #mDeleteCellPopulationIn</text>
<text text-anchor="middle" x="862" y="-376" font-family="Helvetica,sans-Serif" font-size="10.00">Destructor</text>
<text text-anchor="middle" x="862" y="-365" font-family="Helvetica,sans-Serif" font-size="10.00">#mInitialiseCells</text>
<text text-anchor="middle" x="862" y="-354" font-family="Helvetica,sans-Serif" font-size="10.00">#mOutputDivisionLocations</text>
<text text-anchor="middle" x="862" y="-343" font-family="Helvetica,sans-Serif" font-size="10.00">#mOutputCellVelocities</text>
<text text-anchor="middle" x="862" y="-332" font-family="Helvetica,sans-Serif" font-size="10.00">#mUpdateCellPopulation</text>
<text text-anchor="middle" x="862" y="-321" font-family="Helvetica,sans-Serif" font-size="10.00">#mNoBirth</text>
</g>
<!-- Node8 -->
<g id="node8" class="node"><title>Node8</title>
<g id="a_node8"><a xlink:href="classunsigned.html" target="_top" xlink:title="{unsigned\n||}">
<polygon fill="white" stroke="black" points="920.5,-430 920.5,-487 976.5,-487 976.5,-430 920.5,-430"/>
<text text-anchor="middle" x="948.5" y="-475" font-family="Helvetica,sans-Serif" font-size="10.00">unsigned</text>
<polyline fill="none" stroke="black" points="920.5,-468 976.5,-468 "/>
<text text-anchor="middle" x="948.5" y="-456" font-family="Helvetica,sans-Serif" font-size="10.00"> </text>
<polyline fill="none" stroke="black" points="920.5,-449 976.5,-449 "/>
<text text-anchor="middle" x="948.5" y="-437" font-family="Helvetica,sans-Serif" font-size="10.00"> </text>
</a>
</g>
</g>
<!-- Node8&#45;&gt;Node1 -->
<g id="edge7" class="edge"><title>Node8&#45;&gt;Node1</title>
<path fill="none" stroke="#404040" d="M946.884,-429.786C944.36,-394.452 938.477,-335.798 926.5,-318 884.664,-255.832 811.177,-213.099 750.404,-186.432"/>
<polygon fill="none" stroke="#404040" points="750.246,-186.364 743.155,-187.678 739.215,-181.638 746.306,-180.324 750.246,-186.364"/>
<text text-anchor="middle" x="1009" y="-365" font-family="Helvetica,sans-Serif" font-size="10.00"> #mNumBirths</text>
<text text-anchor="middle" x="1009" y="-354" font-family="Helvetica,sans-Serif" font-size="10.00">#mSamplingTimestepMultiple</text>
<text text-anchor="middle" x="1009" y="-343" font-family="Helvetica,sans-Serif" font-size="10.00">#mNumDeaths</text>
</g>
<!-- Node9 -->
<g id="node9" class="node"><title>Node9</title>
<polygon fill="white" stroke="#bfbfbf" points="1031.5,-430 1031.5,-487 1169.5,-487 1169.5,-430 1031.5,-430"/>
<text text-anchor="middle" x="1100.5" y="-475" font-family="Helvetica,sans-Serif" font-size="10.00">shared_ptr&lt; std::ofstream &gt;</text>
<polyline fill="none" stroke="#bfbfbf" points="1031.5,-468 1169.5,-468 "/>
<text text-anchor="middle" x="1100.5" y="-456" font-family="Helvetica,sans-Serif" font-size="10.00"> </text>
<polyline fill="none" stroke="#bfbfbf" points="1031.5,-449 1169.5,-449 "/>
<text text-anchor="middle" x="1100.5" y="-437" font-family="Helvetica,sans-Serif" font-size="10.00"> </text>
</g>
<!-- Node9&#45;&gt;Node1 -->
<g id="edge8" class="edge"><title>Node9&#45;&gt;Node1</title>
<path fill="none" stroke="#404040" d="M1103.47,-429.912C1105.22,-399.21 1103.23,-349.75 1077.5,-318 997.23,-218.958 850.353,-178.491 751.332,-162.064"/>
<polygon fill="none" stroke="#404040" points="751.05,-162.02 744.496,-165.026 739.2,-160.132 745.754,-157.125 751.05,-162.02"/>
<text text-anchor="middle" x="1157" y="-365" font-family="Helvetica,sans-Serif" font-size="10.00"> #mpVizSetupFile</text>
<text text-anchor="middle" x="1157" y="-354" font-family="Helvetica,sans-Serif" font-size="10.00">#mpCellVelocitiesFile</text>
<text text-anchor="middle" x="1157" y="-343" font-family="Helvetica,sans-Serif" font-size="10.00">#mpDivisionLocationFile</text>
</g>
<!-- Node10 -->
<g id="node10" class="node"><title>Node10</title>
<polygon fill="white" stroke="#bfbfbf" points="1187.5,-419 1187.5,-498 1305.5,-498 1305.5,-419 1187.5,-419"/>
<text text-anchor="start" x="1195.5" y="-486" font-family="Helvetica,sans-Serif" font-size="10.00">vector&lt; boost::shared</text>
<text text-anchor="start" x="1195.5" y="-475" font-family="Helvetica,sans-Serif" font-size="10.00">_ptr&lt; AbstractCellKiller</text>
<text text-anchor="middle" x="1246.5" y="-464" font-family="Helvetica,sans-Serif" font-size="10.00">&lt; SPACE_DIM &gt; &gt; &gt;</text>
<polyline fill="none" stroke="#bfbfbf" points="1187.5,-457 1305.5,-457 "/>
<text text-anchor="middle" x="1246.5" y="-445" font-family="Helvetica,sans-Serif" font-size="10.00"> </text>
<polyline fill="none" stroke="#bfbfbf" points="1187.5,-438 1305.5,-438 "/>
<text text-anchor="middle" x="1246.5" y="-426" font-family="Helvetica,sans-Serif" font-size="10.00"> </text>
</g>
<!-- Node10&#45;&gt;Node1 -->
<g id="edge9" class="edge"><title>Node10&#45;&gt;Node1</title>
<path fill="none" stroke="#404040" d="M1247.69,-418.899C1246.54,-387.808 1239.86,-344.977 1214.5,-318 1093.36,-189.121 878.084,-158.154 751.116,-151.629"/>
<polygon fill="none" stroke="#404040" points="751.098,-151.628 744.919,-155.345 739.111,-151.071 745.29,-147.354 751.098,-151.628"/>
<text text-anchor="middle" x="1276" y="-354" font-family="Helvetica,sans-Serif" font-size="10.00"> #mCellKillers</text>
</g>
</g>
</svg>
