<?xml version="1.0" encoding="UTF-8" standalone="no"?>
<!DOCTYPE svg PUBLIC "-//W3C//DTD SVG 1.1//EN"
 "http://www.w3.org/Graphics/SVG/1.1/DTD/svg11.dtd">
<!-- Generated by graphviz version 2.38.0 (20140413.2041)
 -->
<!-- Title: UniformSourceEllipticPde&lt; DIM &gt; Pages: 1 -->
<svg width="323pt" height="690pt"
 viewBox="0.00 0.00 322.50 690.00" xmlns="http://www.w3.org/2000/svg" xmlns:xlink="http://www.w3.org/1999/xlink">
<g id="graph0" class="graph" transform="scale(1 1) rotate(0) translate(4 686)">
<title>UniformSourceEllipticPde&lt; DIM &gt;</title>
<polygon fill="white" stroke="none" points="-4,4 -4,-686 318.5,-686 318.5,4 -4,4"/>
<!-- Node1 -->
<g id="node1" class="node"><title>Node1</title>
<polygon fill="#bfbfbf" stroke="black" points="105,-0.5 105,-123.5 304,-123.5 304,-0.5 105,-0.5"/>
<text text-anchor="start" x="113" y="-111.5" font-family="Helvetica,sans-Serif" font-size="10.00">UniformSourceEllipticPde</text>
<text text-anchor="middle" x="204.5" y="-100.5" font-family="Helvetica,sans-Serif" font-size="10.00">&lt; DIM &gt;</text>
<polyline fill="none" stroke="black" points="105,-93.5 304,-93.5 "/>
<text text-anchor="middle" x="204.5" y="-81.5" font-family="Helvetica,sans-Serif" font-size="10.00"> </text>
<polyline fill="none" stroke="black" points="105,-74.5 304,-74.5 "/>
<text text-anchor="start" x="113" y="-62.5" font-family="Helvetica,sans-Serif" font-size="10.00">+ UniformSourceEllipticPde()</text>
<text text-anchor="start" x="113" y="-51.5" font-family="Helvetica,sans-Serif" font-size="10.00">+ GetCoefficient()</text>
<text text-anchor="start" x="113" y="-40.5" font-family="Helvetica,sans-Serif" font-size="10.00">+ ComputeConstantInUSourceTerm()</text>
<text text-anchor="start" x="113" y="-29.5" font-family="Helvetica,sans-Serif" font-size="10.00">+ ComputeLinearInUCoeffInSourceTerm()</text>
<text text-anchor="start" x="113" y="-18.5" font-family="Helvetica,sans-Serif" font-size="10.00">+ ComputeDiffusionTerm()</text>
<text text-anchor="start" x="113" y="-7.5" font-family="Helvetica,sans-Serif" font-size="10.00">&#45; serialize()</text>
</g>
<!-- Node2 -->
<g id="node2" class="node"><title>Node2</title>
<g id="a_node2"><a xlink:href="classAbstractLinearEllipticPde.html" target="_top" xlink:title="{AbstractLinearEllipticPde\l\&lt; DIM, DIM \&gt;\n||+ AbstractLinearEllipticPde()\l+ ~AbstractLinearEllipticPde()\l+ ComputeConstantInUSourceTerm()\l+ ComputeLinearInUCoeffInSourceTerm()\l+ ComputeDiffusionTerm()\l+ ComputeConstantInUSource\lTermAtNode()\l+ ComputeLinearInUCoeffInSource\lTermAtNode()\l&#45; serialize()\l}">
<polygon fill="white" stroke="black" points="0,-171.5 0,-338.5 199,-338.5 199,-171.5 0,-171.5"/>
<text text-anchor="start" x="8" y="-326.5" font-family="Helvetica,sans-Serif" font-size="10.00">AbstractLinearEllipticPde</text>
<text text-anchor="middle" x="99.5" y="-315.5" font-family="Helvetica,sans-Serif" font-size="10.00">&lt; DIM, DIM &gt;</text>
<polyline fill="none" stroke="black" points="0,-308.5 199,-308.5 "/>
<text text-anchor="middle" x="99.5" y="-296.5" font-family="Helvetica,sans-Serif" font-size="10.00"> </text>
<polyline fill="none" stroke="black" points="0,-289.5 199,-289.5 "/>
<text text-anchor="start" x="8" y="-277.5" font-family="Helvetica,sans-Serif" font-size="10.00">+ AbstractLinearEllipticPde()</text>
<text text-anchor="start" x="8" y="-266.5" font-family="Helvetica,sans-Serif" font-size="10.00">+ ~AbstractLinearEllipticPde()</text>
<text text-anchor="start" x="8" y="-255.5" font-family="Helvetica,sans-Serif" font-size="10.00">+ ComputeConstantInUSourceTerm()</text>
<text text-anchor="start" x="8" y="-244.5" font-family="Helvetica,sans-Serif" font-size="10.00">+ ComputeLinearInUCoeffInSourceTerm()</text>
<text text-anchor="start" x="8" y="-233.5" font-family="Helvetica,sans-Serif" font-size="10.00">+ ComputeDiffusionTerm()</text>
<text text-anchor="start" x="8" y="-222.5" font-family="Helvetica,sans-Serif" font-size="10.00">+ ComputeConstantInUSource</text>
<text text-anchor="start" x="8" y="-211.5" font-family="Helvetica,sans-Serif" font-size="10.00">TermAtNode()</text>
<text text-anchor="start" x="8" y="-200.5" font-family="Helvetica,sans-Serif" font-size="10.00">+ ComputeLinearInUCoeffInSource</text>
<text text-anchor="start" x="8" y="-189.5" font-family="Helvetica,sans-Serif" font-size="10.00">TermAtNode()</text>
<text text-anchor="start" x="8" y="-178.5" font-family="Helvetica,sans-Serif" font-size="10.00">&#45; serialize()</text>
</a>
</g>
</g>
<!-- Node2&#45;&gt;Node1 -->
<g id="edge1" class="edge"><title>Node2&#45;&gt;Node1</title>
<path fill="none" stroke="midnightblue" d="M149.923,-162.279C157.136,-149.157 164.402,-135.94 171.174,-123.621"/>
<polygon fill="none" stroke="midnightblue" points="146.694,-160.886 144.944,-171.335 152.828,-164.258 146.694,-160.886"/>
</g>
<!-- Node3 -->
<g id="node3" class="node"><title>Node3</title>
<g id="a_node3"><a xlink:href="classAbstractLinearPde.html" target="_top" xlink:title="{AbstractLinearPde\&lt;\l ELEMENT_DIM, SPACE_DIM \&gt;\n||+ AbstractLinearPde()\l+ ~AbstractLinearPde()\l&#45; serialize()\l}">
<polygon fill="white" stroke="black" points="39.5,-591.5 39.5,-681.5 203.5,-681.5 203.5,-591.5 39.5,-591.5"/>
<text text-anchor="start" x="47.5" y="-669.5" font-family="Helvetica,sans-Serif" font-size="10.00">AbstractLinearPde&lt;</text>
<text text-anchor="middle" x="121.5" y="-658.5" font-family="Helvetica,sans-Serif" font-size="10.00"> ELEMENT_DIM, SPACE_DIM &gt;</text>
<polyline fill="none" stroke="black" points="39.5,-651.5 203.5,-651.5 "/>
<text text-anchor="middle" x="121.5" y="-639.5" font-family="Helvetica,sans-Serif" font-size="10.00"> </text>
<polyline fill="none" stroke="black" points="39.5,-632.5 203.5,-632.5 "/>
<text text-anchor="start" x="47.5" y="-620.5" font-family="Helvetica,sans-Serif" font-size="10.00">+ AbstractLinearPde()</text>
<text text-anchor="start" x="47.5" y="-609.5" font-family="Helvetica,sans-Serif" font-size="10.00">+ ~AbstractLinearPde()</text>
<text text-anchor="start" x="47.5" y="-598.5" font-family="Helvetica,sans-Serif" font-size="10.00">&#45; serialize()</text>
</a>
</g>
</g>
<!-- Node3&#45;&gt;Node2 -->
<g id="edge2" class="edge"><title>Node3&#45;&gt;Node2</title>
<path fill="none" stroke="midnightblue" d="M107.193,-581.62C105.265,-572.463 103.582,-563.004 102.5,-554 93.7992,-481.569 93.7728,-398.524 95.5049,-338.53"/>
<polygon fill="none" stroke="midnightblue" points="103.781,-582.397 109.365,-591.401 110.614,-580.88 103.781,-582.397"/>
</g>
<!-- Node4 -->
<g id="node4" class="node"><title>Node4</title>
<g id="a_node4"><a xlink:href="classAbstractLinearEllipticPde.html" target="_top" xlink:title="{AbstractLinearEllipticPde\l\&lt; ELEMENT_DIM, SPACE_DIM \&gt;\n||+ AbstractLinearEllipticPde()\l+ ~AbstractLinearEllipticPde()\l+ ComputeConstantInUSourceTerm()\l+ ComputeLinearInUCoeffInSourceTerm()\l+ ComputeDiffusionTerm()\l+ ComputeConstantInUSource\lTermAtNode()\l+ ComputeLinearInUCoeffInSource\lTermAtNode()\l&#45; serialize()\l}">
<polygon fill="white" stroke="black" points="112,-386.5 112,-553.5 311,-553.5 311,-386.5 112,-386.5"/>
<text text-anchor="start" x="120" y="-541.5" font-family="Helvetica,sans-Serif" font-size="10.00">AbstractLinearEllipticPde</text>
<text text-anchor="middle" x="211.5" y="-530.5" font-family="Helvetica,sans-Serif" font-size="10.00">&lt; ELEMENT_DIM, SPACE_DIM &gt;</text>
<polyline fill="none" stroke="black" points="112,-523.5 311,-523.5 "/>
<text text-anchor="middle" x="211.5" y="-511.5" font-family="Helvetica,sans-Serif" font-size="10.00"> </text>
<polyline fill="none" stroke="black" points="112,-504.5 311,-504.5 "/>
<text text-anchor="start" x="120" y="-492.5" font-family="Helvetica,sans-Serif" font-size="10.00">+ AbstractLinearEllipticPde()</text>
<text text-anchor="start" x="120" y="-481.5" font-family="Helvetica,sans-Serif" font-size="10.00">+ ~AbstractLinearEllipticPde()</text>
<text text-anchor="start" x="120" y="-470.5" font-family="Helvetica,sans-Serif" font-size="10.00">+ ComputeConstantInUSourceTerm()</text>
<text text-anchor="start" x="120" y="-459.5" font-family="Helvetica,sans-Serif" font-size="10.00">+ ComputeLinearInUCoeffInSourceTerm()</text>
<text text-anchor="start" x="120" y="-448.5" font-family="Helvetica,sans-Serif" font-size="10.00">+ ComputeDiffusionTerm()</text>
<text text-anchor="start" x="120" y="-437.5" font-family="Helvetica,sans-Serif" font-size="10.00">+ ComputeConstantInUSource</text>
<text text-anchor="start" x="120" y="-426.5" font-family="Helvetica,sans-Serif" font-size="10.00">TermAtNode()</text>
<text text-anchor="start" x="120" y="-415.5" font-family="Helvetica,sans-Serif" font-size="10.00">+ ComputeLinearInUCoeffInSource</text>
<text text-anchor="start" x="120" y="-404.5" font-family="Helvetica,sans-Serif" font-size="10.00">TermAtNode()</text>
<text text-anchor="start" x="120" y="-393.5" font-family="Helvetica,sans-Serif" font-size="10.00">&#45; serialize()</text>
</a>
</g>
</g>
<!-- Node3&#45;&gt;Node4 -->
<g id="edge4" class="edge"><title>Node3&#45;&gt;Node4</title>
<path fill="none" stroke="midnightblue" d="M150.546,-582.41C155.588,-573.195 160.936,-563.419 166.289,-553.636"/>
<polygon fill="none" stroke="midnightblue" points="147.348,-580.964 145.618,-591.417 153.489,-584.324 147.348,-580.964"/>
</g>
<!-- Node4&#45;&gt;Node2 -->
<g id="edge3" class="edge"><title>Node4&#45;&gt;Node2</title>
<path fill="none" stroke="orange" d="M163.368,-377.463C156.579,-364.551 149.632,-351.34 142.938,-338.61"/>
<polygon fill="orange" stroke="orange" points="160.286,-379.122 168.038,-386.344 166.481,-375.864 160.286,-379.122"/>
<text text-anchor="middle" x="188" y="-360" font-family="Helvetica,sans-Serif" font-size="10.00"> &lt; DIM, DIM &gt;</text>
</g>
<!-- Node5 -->
<g id="node5" class="node"><title>Node5</title>
<g id="a_node5"><a xlink:href="classdouble.html" target="_top" xlink:title="{double\n||}">
<polygon fill="white" stroke="black" points="217,-226.5 217,-283.5 262,-283.5 262,-226.5 217,-226.5"/>
<text text-anchor="middle" x="239.5" y="-271.5" font-family="Helvetica,sans-Serif" font-size="10.00">double</text>
<polyline fill="none" stroke="black" points="217,-264.5 262,-264.5 "/>
<text text-anchor="middle" x="239.5" y="-252.5" font-family="Helvetica,sans-Serif" font-size="10.00"> </text>
<polyline fill="none" stroke="black" points="217,-245.5 262,-245.5 "/>
<text text-anchor="middle" x="239.5" y="-233.5" font-family="Helvetica,sans-Serif" font-size="10.00"> </text>
</a>
</g>
</g>
<!-- Node5&#45;&gt;Node1 -->
<g id="edge5" class="edge"><title>Node5&#45;&gt;Node1</title>
<path fill="none" stroke="#404040" d="M234.411,-226.227C230.057,-202.465 223.59,-167.179 217.783,-135.488"/>
<polygon fill="none" stroke="#404040" points="217.758,-135.353 212.742,-130.172 215.595,-123.549 220.611,-128.73 217.758,-135.353"/>
<text text-anchor="middle" x="268" y="-145" font-family="Helvetica,sans-Serif" font-size="10.00"> &#45;mSourceCoefficient</text>
</g>
</g>
</svg>
