<?xml version="1.0" encoding="UTF-8" standalone="no"?>
<!DOCTYPE svg PUBLIC "-//W3C//DTD SVG 1.1//EN"
 "http://www.w3.org/Graphics/SVG/1.1/DTD/svg11.dtd">
<!-- Generated by graphviz version 2.38.0 (20140413.2041)
 -->
<!-- Title: AbstractCardiacMechanicsSolver&lt; ELASTICITY_SOLVER, DIM &gt; Pages: 1 -->
<svg width="1780pt" height="716pt"
 viewBox="0.00 0.00 1780.00 716.00" xmlns="http://www.w3.org/2000/svg" xmlns:xlink="http://www.w3.org/1999/xlink">
<g id="graph0" class="graph" transform="scale(1 1) rotate(0) translate(4 712)">
<title>AbstractCardiacMechanicsSolver&lt; ELASTICITY_SOLVER, DIM &gt;</title>
<polygon fill="white" stroke="none" points="-4,4 -4,-712 1776,-712 1776,4 -4,4"/>
<!-- Node1 -->
<g id="node1" class="node"><title>Node1</title>
<polygon fill="#bfbfbf" stroke="black" points="807,-0.5 807,-310.5 985,-310.5 985,-0.5 807,-0.5"/>
<text text-anchor="start" x="815" y="-298.5" font-family="Helvetica,sans-Serif" font-size="10.00">AbstractCardiacMechanics</text>
<text text-anchor="start" x="815" y="-287.5" font-family="Helvetica,sans-Serif" font-size="10.00">Solver&lt; ELASTICITY_SOLVER,</text>
<text text-anchor="middle" x="896" y="-276.5" font-family="Helvetica,sans-Serif" font-size="10.00"> DIM &gt;</text>
<polyline fill="none" stroke="black" points="807,-269.5 985,-269.5 "/>
<text text-anchor="middle" x="896" y="-257.5" font-family="Helvetica,sans-Serif" font-size="10.00"> </text>
<polyline fill="none" stroke="black" points="807,-250.5 985,-250.5 "/>
<text text-anchor="start" x="815" y="-238.5" font-family="Helvetica,sans-Serif" font-size="10.00">+ AbstractCardiacMechanics</text>
<text text-anchor="start" x="815" y="-227.5" font-family="Helvetica,sans-Serif" font-size="10.00">Solver()</text>
<text text-anchor="start" x="815" y="-216.5" font-family="Helvetica,sans-Serif" font-size="10.00">+ ~AbstractCardiacMechanics</text>
<text text-anchor="start" x="815" y="-205.5" font-family="Helvetica,sans-Serif" font-size="10.00">Solver()</text>
<text text-anchor="start" x="815" y="-194.5" font-family="Helvetica,sans-Serif" font-size="10.00">+ SetFineCoarseMeshPair()</text>
<text text-anchor="start" x="815" y="-183.5" font-family="Helvetica,sans-Serif" font-size="10.00">+ GetTotalNumQuadPoints()</text>
<text text-anchor="start" x="815" y="-172.5" font-family="Helvetica,sans-Serif" font-size="10.00">+ GetQuadratureRule()</text>
<text text-anchor="start" x="815" y="-161.5" font-family="Helvetica,sans-Serif" font-size="10.00">+ rGetQuadPointToDataAtQuad</text>
<text text-anchor="start" x="815" y="-150.5" font-family="Helvetica,sans-Serif" font-size="10.00">PointMap()</text>
<text text-anchor="start" x="815" y="-139.5" font-family="Helvetica,sans-Serif" font-size="10.00">+ SetConstantFibreSheetDirections()</text>
<text text-anchor="start" x="815" y="-128.5" font-family="Helvetica,sans-Serif" font-size="10.00">+ SetVariableFibreSheetDirections()</text>
<text text-anchor="start" x="815" y="-117.5" font-family="Helvetica,sans-Serif" font-size="10.00">+ SetCalciumAndVoltage()</text>
<text text-anchor="start" x="815" y="-106.5" font-family="Helvetica,sans-Serif" font-size="10.00">+ Solve()</text>
<text text-anchor="start" x="815" y="-95.5" font-family="Helvetica,sans-Serif" font-size="10.00">+ ComputeDeformationGradient</text>
<text text-anchor="start" x="815" y="-84.5" font-family="Helvetica,sans-Serif" font-size="10.00">AndStretchInEachElement()</text>
<text text-anchor="start" x="815" y="-73.5" font-family="Helvetica,sans-Serif" font-size="10.00"># IsImplicitSolver()</text>
<text text-anchor="start" x="815" y="-62.5" font-family="Helvetica,sans-Serif" font-size="10.00"># AddActiveStressAndStress</text>
<text text-anchor="start" x="815" y="-51.5" font-family="Helvetica,sans-Serif" font-size="10.00">Derivative()</text>
<text text-anchor="start" x="815" y="-40.5" font-family="Helvetica,sans-Serif" font-size="10.00"># SetupChangeOfBasisMatrix()</text>
<text text-anchor="start" x="815" y="-29.5" font-family="Helvetica,sans-Serif" font-size="10.00"># Initialise()</text>
<text text-anchor="start" x="815" y="-18.5" font-family="Helvetica,sans-Serif" font-size="10.00"># GetActiveTensionAndTension</text>
<text text-anchor="start" x="815" y="-7.5" font-family="Helvetica,sans-Serif" font-size="10.00">Derivs()</text>
</g>
<!-- Node2 -->
<g id="node2" class="node"><title>Node2</title>
<g id="a_node2"><a xlink:href="classELASTICITY__SOLVER.html" target="_top" xlink:title="{ELASTICITY_SOLVER\n||}">
<polygon fill="white" stroke="black" points="0,-468.5 0,-525.5 120,-525.5 120,-468.5 0,-468.5"/>
<text text-anchor="middle" x="60" y="-513.5" font-family="Helvetica,sans-Serif" font-size="10.00">ELASTICITY_SOLVER</text>
<polyline fill="none" stroke="black" points="0,-506.5 120,-506.5 "/>
<text text-anchor="middle" x="60" y="-494.5" font-family="Helvetica,sans-Serif" font-size="10.00"> </text>
<polyline fill="none" stroke="black" points="0,-487.5 120,-487.5 "/>
<text text-anchor="middle" x="60" y="-475.5" font-family="Helvetica,sans-Serif" font-size="10.00"> </text>
</a>
</g>
</g>
<!-- Node2&#45;&gt;Node1 -->
<g id="edge1" class="edge"><title>Node2&#45;&gt;Node1</title>
<path fill="none" stroke="midnightblue" d="M76.5112,-459.272C88.2794,-436.789 106.068,-408.98 129,-391 335.417,-229.154 653.354,-178.521 806.923,-163.064"/>
<polygon fill="none" stroke="midnightblue" points="73.3752,-457.717 71.9921,-468.222 79.6238,-460.873 73.3752,-457.717"/>
</g>
<!-- Node3 -->
<g id="node3" class="node"><title>Node3</title>
<g id="a_node3"><a xlink:href="classAbstractCardiacMechanicsSolverInterface.html" target="_top" xlink:title="{AbstractCardiacMechanics\lSolverInterface\&lt; DIM \&gt;\n||+ AbstractCardiacMechanics\lSolverInterface()\l+ ~AbstractCardiacMechanics\lSolverInterface()\l+ GetTotalNumQuadPoints()\l+ GetQuadratureRule()\l+ Initialise()\l+ SetFineCoarseMeshPair()\l+ SetConstantFibreSheetDirections()\l+ SetVariableFibreSheetDirections()\l+ SetCalciumAndVoltage()\l+ Solve()\l+ ComputeDeformationGradient\lAndStretchInEachElement()\l}">
<polygon fill="white" stroke="black" points="138,-391.5 138,-602.5 316,-602.5 316,-391.5 138,-391.5"/>
<text text-anchor="start" x="146" y="-590.5" font-family="Helvetica,sans-Serif" font-size="10.00">AbstractCardiacMechanics</text>
<text text-anchor="middle" x="227" y="-579.5" font-family="Helvetica,sans-Serif" font-size="10.00">SolverInterface&lt; DIM &gt;</text>
<polyline fill="none" stroke="black" points="138,-572.5 316,-572.5 "/>
<text text-anchor="middle" x="227" y="-560.5" font-family="Helvetica,sans-Serif" font-size="10.00"> </text>
<polyline fill="none" stroke="black" points="138,-553.5 316,-553.5 "/>
<text text-anchor="start" x="146" y="-541.5" font-family="Helvetica,sans-Serif" font-size="10.00">+ AbstractCardiacMechanics</text>
<text text-anchor="start" x="146" y="-530.5" font-family="Helvetica,sans-Serif" font-size="10.00">SolverInterface()</text>
<text text-anchor="start" x="146" y="-519.5" font-family="Helvetica,sans-Serif" font-size="10.00">+ ~AbstractCardiacMechanics</text>
<text text-anchor="start" x="146" y="-508.5" font-family="Helvetica,sans-Serif" font-size="10.00">SolverInterface()</text>
<text text-anchor="start" x="146" y="-497.5" font-family="Helvetica,sans-Serif" font-size="10.00">+ GetTotalNumQuadPoints()</text>
<text text-anchor="start" x="146" y="-486.5" font-family="Helvetica,sans-Serif" font-size="10.00">+ GetQuadratureRule()</text>
<text text-anchor="start" x="146" y="-475.5" font-family="Helvetica,sans-Serif" font-size="10.00">+ Initialise()</text>
<text text-anchor="start" x="146" y="-464.5" font-family="Helvetica,sans-Serif" font-size="10.00">+ SetFineCoarseMeshPair()</text>
<text text-anchor="start" x="146" y="-453.5" font-family="Helvetica,sans-Serif" font-size="10.00">+ SetConstantFibreSheetDirections()</text>
<text text-anchor="start" x="146" y="-442.5" font-family="Helvetica,sans-Serif" font-size="10.00">+ SetVariableFibreSheetDirections()</text>
<text text-anchor="start" x="146" y="-431.5" font-family="Helvetica,sans-Serif" font-size="10.00">+ SetCalciumAndVoltage()</text>
<text text-anchor="start" x="146" y="-420.5" font-family="Helvetica,sans-Serif" font-size="10.00">+ Solve()</text>
<text text-anchor="start" x="146" y="-409.5" font-family="Helvetica,sans-Serif" font-size="10.00">+ ComputeDeformationGradient</text>
<text text-anchor="start" x="146" y="-398.5" font-family="Helvetica,sans-Serif" font-size="10.00">AndStretchInEachElement()</text>
</a>
</g>
</g>
<!-- Node3&#45;&gt;Node1 -->
<g id="edge2" class="edge"><title>Node3&#45;&gt;Node1</title>
<path fill="none" stroke="midnightblue" d="M297.581,-383.065C314.13,-362.944 333.111,-343.736 354,-329 493.796,-230.381 692.613,-186.239 806.538,-168.006"/>
<polygon fill="none" stroke="midnightblue" points="294.649,-381.127 291.121,-391.117 300.109,-385.508 294.649,-381.127"/>
</g>
<!-- Node4 -->
<g id="node4" class="node"><title>Node4</title>
<g id="a_node4"><a xlink:href="classdouble.html" target="_top" xlink:title="{double\n||}">
<polygon fill="white" stroke="black" points="334.5,-468.5 334.5,-525.5 379.5,-525.5 379.5,-468.5 334.5,-468.5"/>
<text text-anchor="middle" x="357" y="-513.5" font-family="Helvetica,sans-Serif" font-size="10.00">double</text>
<polyline fill="none" stroke="black" points="334.5,-506.5 379.5,-506.5 "/>
<text text-anchor="middle" x="357" y="-494.5" font-family="Helvetica,sans-Serif" font-size="10.00"> </text>
<polyline fill="none" stroke="black" points="334.5,-487.5 379.5,-487.5 "/>
<text text-anchor="middle" x="357" y="-475.5" font-family="Helvetica,sans-Serif" font-size="10.00"> </text>
</a>
</g>
</g>
<!-- Node4&#45;&gt;Node1 -->
<g id="edge3" class="edge"><title>Node4&#45;&gt;Node1</title>
<path fill="none" stroke="#404040" d="M352.629,-468.262C348.559,-431.984 347.299,-368.419 380,-329 482.369,-205.601 675.842,-170.004 794.599,-160.026"/>
<polygon fill="none" stroke="#404040" points="794.956,-159.998 800.625,-155.541 806.919,-159.06 801.25,-163.517 794.956,-159.998"/>
<text text-anchor="middle" x="416.5" y="-359.5" font-family="Helvetica,sans-Serif" font-size="10.00"> #mNextTime</text>
<text text-anchor="middle" x="416.5" y="-348.5" font-family="Helvetica,sans-Serif" font-size="10.00">#mOdeTimestep</text>
<text text-anchor="middle" x="416.5" y="-337.5" font-family="Helvetica,sans-Serif" font-size="10.00">#mCurrentTime</text>
</g>
<!-- Node5 -->
<g id="node5" class="node"><title>Node5</title>
<polygon fill="white" stroke="#bfbfbf" points="397,-463 397,-531 565,-531 565,-463 397,-463"/>
<text text-anchor="start" x="405" y="-519" font-family="Helvetica,sans-Serif" font-size="10.00">map&lt; unsigned, DataAtQuadrature</text>
<text text-anchor="middle" x="481" y="-508" font-family="Helvetica,sans-Serif" font-size="10.00">Point_ &gt;</text>
<polyline fill="none" stroke="#bfbfbf" points="397,-501 565,-501 "/>
<text text-anchor="middle" x="481" y="-489" font-family="Helvetica,sans-Serif" font-size="10.00"> </text>
<polyline fill="none" stroke="#bfbfbf" points="397,-482 565,-482 "/>
<text text-anchor="middle" x="481" y="-470" font-family="Helvetica,sans-Serif" font-size="10.00"> </text>
</g>
<!-- Node5&#45;&gt;Node1 -->
<g id="edge4" class="edge"><title>Node5&#45;&gt;Node1</title>
<path fill="none" stroke="#404040" d="M467.961,-462.766C456.124,-426.637 444.233,-368.752 471,-329 542.908,-222.208 693.504,-181.502 794.715,-166.004"/>
<polygon fill="none" stroke="#404040" points="794.931,-165.973 800.289,-161.146 806.805,-164.236 801.447,-169.062 794.931,-165.973"/>
<text text-anchor="middle" x="555.5" y="-348.5" font-family="Helvetica,sans-Serif" font-size="10.00"> #mQuadPointToDataAtQuadPointMap</text>
</g>
<!-- Node6 -->
<g id="node6" class="node"><title>Node6</title>
<g id="a_node6"><a xlink:href="classbool.html" target="_top" xlink:title="{bool\n||}">
<polygon fill="white" stroke="black" points="627.5,-468.5 627.5,-525.5 662.5,-525.5 662.5,-468.5 627.5,-468.5"/>
<text text-anchor="middle" x="645" y="-513.5" font-family="Helvetica,sans-Serif" font-size="10.00">bool</text>
<polyline fill="none" stroke="black" points="627.5,-506.5 662.5,-506.5 "/>
<text text-anchor="middle" x="645" y="-494.5" font-family="Helvetica,sans-Serif" font-size="10.00"> </text>
<polyline fill="none" stroke="black" points="627.5,-487.5 662.5,-487.5 "/>
<text text-anchor="middle" x="645" y="-475.5" font-family="Helvetica,sans-Serif" font-size="10.00"> </text>
</a>
</g>
</g>
<!-- Node6&#45;&gt;Node1 -->
<g id="edge5" class="edge"><title>Node6&#45;&gt;Node1</title>
<path fill="none" stroke="#404040" d="M640.64,-468.249C636.585,-433.357 634.384,-372.737 659,-329 689.876,-274.14 746.25,-232.02 796.271,-203.138"/>
<polygon fill="none" stroke="#404040" points="796.386,-203.073 799.646,-196.641 806.837,-197.176 803.578,-203.608 796.386,-203.073"/>
<text text-anchor="start" x="659" y="-354" font-family="Helvetica,sans-Serif" font-size="10.00"> #mFibreSheetDirectionsDefined</text>
<text text-anchor="middle" x="730" y="-343" font-family="Helvetica,sans-Serif" font-size="10.00">ByQuadraturePoint</text>
</g>
<!-- Node7 -->
<g id="node7" class="node"><title>Node7</title>
<polygon fill="white" stroke="#bfbfbf" points="744.5,-463 744.5,-531 875.5,-531 875.5,-463 744.5,-463"/>
<text text-anchor="start" x="752.5" y="-519" font-family="Helvetica,sans-Serif" font-size="10.00">vector&lt; c_matrix&lt; double,</text>
<text text-anchor="middle" x="810" y="-508" font-family="Helvetica,sans-Serif" font-size="10.00"> DIM, DIM &gt; &gt; *</text>
<polyline fill="none" stroke="#bfbfbf" points="744.5,-501 875.5,-501 "/>
<text text-anchor="middle" x="810" y="-489" font-family="Helvetica,sans-Serif" font-size="10.00"> </text>
<polyline fill="none" stroke="#bfbfbf" points="744.5,-482 875.5,-482 "/>
<text text-anchor="middle" x="810" y="-470" font-family="Helvetica,sans-Serif" font-size="10.00"> </text>
</g>
<!-- Node7&#45;&gt;Node1 -->
<g id="edge6" class="edge"><title>Node7&#45;&gt;Node1</title>
<path fill="none" stroke="#404040" d="M805.879,-462.844C802.642,-428.77 800.271,-374.43 811,-329 811.51,-326.84 812.051,-324.675 812.621,-322.509"/>
<polygon fill="none" stroke="#404040" points="812.639,-322.446 810.44,-315.578 815.933,-310.907 818.132,-317.774 812.639,-322.446"/>
<text text-anchor="middle" x="885.5" y="-348.5" font-family="Helvetica,sans-Serif" font-size="10.00"> #mpVariableFibreSheetDirections</text>
</g>
<!-- Node8 -->
<g id="node8" class="node"><title>Node8</title>
<polygon fill="white" stroke="#bfbfbf" points="958.5,-468.5 958.5,-525.5 1005.5,-525.5 1005.5,-468.5 958.5,-468.5"/>
<text text-anchor="middle" x="982" y="-513.5" font-family="Helvetica,sans-Serif" font-size="10.00">iterator</text>
<polyline fill="none" stroke="#bfbfbf" points="958.5,-506.5 1005.5,-506.5 "/>
<text text-anchor="middle" x="982" y="-494.5" font-family="Helvetica,sans-Serif" font-size="10.00"> </text>
<polyline fill="none" stroke="#bfbfbf" points="958.5,-487.5 1005.5,-487.5 "/>
<text text-anchor="middle" x="982" y="-475.5" font-family="Helvetica,sans-Serif" font-size="10.00"> </text>
</g>
<!-- Node8&#45;&gt;Node1 -->
<g id="edge7" class="edge"><title>Node8&#45;&gt;Node1</title>
<path fill="none" stroke="#404040" d="M980.272,-468.459C977.743,-435.063 971.968,-377.252 960,-329 959.461,-326.827 958.904,-324.644 958.329,-322.453"/>
<polygon fill="none" stroke="#404040" points="958.272,-322.245 952.83,-317.514 955.103,-310.671 960.546,-315.401 958.272,-322.245"/>
<text text-anchor="middle" x="1002.5" y="-348.5" font-family="Helvetica,sans-Serif" font-size="10.00"> #mMapIterator</text>
</g>
<!-- Node9 -->
<g id="node9" class="node"><title>Node9</title>
<polygon fill="white" stroke="#bfbfbf" points="1023.5,-463 1023.5,-531 1142.5,-531 1142.5,-463 1023.5,-463"/>
<text text-anchor="start" x="1031.5" y="-519" font-family="Helvetica,sans-Serif" font-size="10.00">c_matrix&lt; double, DIM,</text>
<text text-anchor="middle" x="1083" y="-508" font-family="Helvetica,sans-Serif" font-size="10.00"> DIM &gt;</text>
<polyline fill="none" stroke="#bfbfbf" points="1023.5,-501 1142.5,-501 "/>
<text text-anchor="middle" x="1083" y="-489" font-family="Helvetica,sans-Serif" font-size="10.00"> </text>
<polyline fill="none" stroke="#bfbfbf" points="1023.5,-482 1142.5,-482 "/>
<text text-anchor="middle" x="1083" y="-470" font-family="Helvetica,sans-Serif" font-size="10.00"> </text>
</g>
<!-- Node9&#45;&gt;Node1 -->
<g id="edge8" class="edge"><title>Node9&#45;&gt;Node1</title>
<path fill="none" stroke="#404040" d="M1078.87,-462.766C1073.54,-427.912 1062.2,-372.291 1040,-329 1027.31,-304.245 1010.51,-279.896 992.883,-257.647"/>
<polygon fill="none" stroke="#404040" points="992.829,-257.58 985.947,-255.427 985.287,-248.246 992.17,-250.399 992.829,-257.58"/>
<text text-anchor="middle" x="1132" y="-348.5" font-family="Helvetica,sans-Serif" font-size="10.00"> #mConstantFibreSheetDirections</text>
</g>
<!-- Node10 -->
<g id="node10" class="node"><title>Node10</title>
<polygon fill="white" stroke="#bfbfbf" points="1056,-650.5 1056,-707.5 1110,-707.5 1110,-650.5 1056,-650.5"/>
<text text-anchor="middle" x="1083" y="-695.5" font-family="Helvetica,sans-Serif" font-size="10.00">c_matrix</text>
<polyline fill="none" stroke="#bfbfbf" points="1056,-688.5 1110,-688.5 "/>
<text text-anchor="middle" x="1083" y="-676.5" font-family="Helvetica,sans-Serif" font-size="10.00"> </text>
<polyline fill="none" stroke="#bfbfbf" points="1056,-669.5 1110,-669.5 "/>
<text text-anchor="middle" x="1083" y="-657.5" font-family="Helvetica,sans-Serif" font-size="10.00"> </text>
</g>
<!-- Node10&#45;&gt;Node9 -->
<g id="edge9" class="edge"><title>Node10&#45;&gt;Node9</title>
<path fill="none" stroke="orange" d="M1083,-639.906C1083,-607.702 1083,-562.028 1083,-531.273"/>
<polygon fill="orange" stroke="orange" points="1079.5,-640.269 1083,-650.269 1086.5,-640.27 1079.5,-640.269"/>
<text text-anchor="middle" x="1133" y="-624" font-family="Helvetica,sans-Serif" font-size="10.00"> &lt; double, DIM, DIM &gt;</text>
</g>
<!-- Node11 -->
<g id="node11" class="node"><title>Node11</title>
<polygon fill="white" stroke="#bfbfbf" points="1180.5,-468.5 1180.5,-525.5 1305.5,-525.5 1305.5,-468.5 1180.5,-468.5"/>
<text text-anchor="middle" x="1243" y="-513.5" font-family="Helvetica,sans-Serif" font-size="10.00">c_vector&lt; double, DIM &gt;</text>
<polyline fill="none" stroke="#bfbfbf" points="1180.5,-506.5 1305.5,-506.5 "/>
<text text-anchor="middle" x="1243" y="-494.5" font-family="Helvetica,sans-Serif" font-size="10.00"> </text>
<polyline fill="none" stroke="#bfbfbf" points="1180.5,-487.5 1305.5,-487.5 "/>
<text text-anchor="middle" x="1243" y="-475.5" font-family="Helvetica,sans-Serif" font-size="10.00"> </text>
</g>
<!-- Node11&#45;&gt;Node1 -->
<g id="edge10" class="edge"><title>Node11&#45;&gt;Node1</title>
<path fill="none" stroke="#404040" d="M1244.36,-468.347C1244.7,-432.734 1240.37,-370.498 1210,-329 1157.98,-257.918 1067.42,-212.692 996.887,-186.467"/>
<polygon fill="none" stroke="#404040" points="996.583,-186.357 989.578,-188.07 985.303,-182.263 992.308,-180.55 996.583,-186.357"/>
<text text-anchor="start" x="1231" y="-365" font-family="Helvetica,sans-Serif" font-size="10.00"> #mCurrentElementSheetNormal</text>
<text text-anchor="middle" x="1304.5" y="-354" font-family="Helvetica,sans-Serif" font-size="10.00">Direction</text>
<text text-anchor="middle" x="1304.5" y="-343" font-family="Helvetica,sans-Serif" font-size="10.00">#mCurrentElementFibreDirection</text>
<text text-anchor="middle" x="1304.5" y="-332" font-family="Helvetica,sans-Serif" font-size="10.00">#mCurrentElementSheetDirection</text>
</g>
<!-- Node12 -->
<g id="node12" class="node"><title>Node12</title>
<polygon fill="white" stroke="#bfbfbf" points="1216,-650.5 1216,-707.5 1270,-707.5 1270,-650.5 1216,-650.5"/>
<text text-anchor="middle" x="1243" y="-695.5" font-family="Helvetica,sans-Serif" font-size="10.00">c_vector</text>
<polyline fill="none" stroke="#bfbfbf" points="1216,-688.5 1270,-688.5 "/>
<text text-anchor="middle" x="1243" y="-676.5" font-family="Helvetica,sans-Serif" font-size="10.00"> </text>
<polyline fill="none" stroke="#bfbfbf" points="1216,-669.5 1270,-669.5 "/>
<text text-anchor="middle" x="1243" y="-657.5" font-family="Helvetica,sans-Serif" font-size="10.00"> </text>
</g>
<!-- Node12&#45;&gt;Node11 -->
<g id="edge11" class="edge"><title>Node12&#45;&gt;Node11</title>
<path fill="none" stroke="orange" d="M1243,-640.187C1243,-605.988 1243,-556.429 1243,-525.762"/>
<polygon fill="orange" stroke="orange" points="1239.5,-640.269 1243,-650.269 1246.5,-640.27 1239.5,-640.269"/>
<text text-anchor="middle" x="1280.5" y="-624" font-family="Helvetica,sans-Serif" font-size="10.00"> &lt; double, DIM &gt;</text>
</g>
<!-- Node13 -->
<g id="node13" class="node"><title>Node13</title>
<polygon fill="white" stroke="#bfbfbf" points="1353,-463 1353,-531 1461,-531 1461,-463 1353,-463"/>
<text text-anchor="start" x="1361" y="-519" font-family="Helvetica,sans-Serif" font-size="10.00">FineCoarseMeshPair</text>
<text text-anchor="middle" x="1407" y="-508" font-family="Helvetica,sans-Serif" font-size="10.00">&lt; DIM &gt; *</text>
<polyline fill="none" stroke="#bfbfbf" points="1353,-501 1461,-501 "/>
<text text-anchor="middle" x="1407" y="-489" font-family="Helvetica,sans-Serif" font-size="10.00"> </text>
<polyline fill="none" stroke="#bfbfbf" points="1353,-482 1461,-482 "/>
<text text-anchor="middle" x="1407" y="-470" font-family="Helvetica,sans-Serif" font-size="10.00"> </text>
</g>
<!-- Node13&#45;&gt;Node1 -->
<g id="edge12" class="edge"><title>Node13&#45;&gt;Node1</title>
<path fill="none" stroke="#404040" d="M1411.35,-462.85C1414.28,-425.983 1413.04,-366.672 1382,-329 1286.97,-213.661 1109.25,-175.394 997.069,-162.728"/>
<polygon fill="none" stroke="#404040" points="997.006,-162.721 990.614,-166.059 985.075,-161.443 991.467,-158.105 997.006,-162.721"/>
<text text-anchor="middle" x="1437" y="-348.5" font-family="Helvetica,sans-Serif" font-size="10.00"> #mpMeshPair</text>
</g>
<!-- Node14 -->
<g id="node14" class="node"><title>Node14</title>
<g id="a_node14"><a xlink:href="classunsigned.html" target="_top" xlink:title="{unsigned\n||}">
<polygon fill="white" stroke="black" points="1479,-468.5 1479,-525.5 1535,-525.5 1535,-468.5 1479,-468.5"/>
<text text-anchor="middle" x="1507" y="-513.5" font-family="Helvetica,sans-Serif" font-size="10.00">unsigned</text>
<polyline fill="none" stroke="black" points="1479,-506.5 1535,-506.5 "/>
<text text-anchor="middle" x="1507" y="-494.5" font-family="Helvetica,sans-Serif" font-size="10.00"> </text>
<polyline fill="none" stroke="black" points="1479,-487.5 1535,-487.5 "/>
<text text-anchor="middle" x="1507" y="-475.5" font-family="Helvetica,sans-Serif" font-size="10.00"> </text>
</a>
</g>
</g>
<!-- Node14&#45;&gt;Node1 -->
<g id="edge13" class="edge"><title>Node14&#45;&gt;Node1</title>
<path fill="none" stroke="#404040" d="M1509.42,-468.215C1511.01,-431.589 1508.04,-367.326 1473,-329 1408.89,-258.866 1144.94,-201.363 997.245,-173.911"/>
<polygon fill="none" stroke="#404040" points="996.873,-173.842 990.247,-176.689 985.071,-171.667 991.697,-168.821 996.873,-173.842"/>
<text text-anchor="middle" x="1554" y="-359.5" font-family="Helvetica,sans-Serif" font-size="10.00"> #mTotalQuadPoints</text>
<text text-anchor="start" x="1498" y="-348.5" font-family="Helvetica,sans-Serif" font-size="10.00">#NUM_VERTICES_PER</text>
<text text-anchor="middle" x="1554" y="-337.5" font-family="Helvetica,sans-Serif" font-size="10.00">_ELEMENT</text>
</g>
<!-- Node15 -->
<g id="node15" class="node"><title>Node15</title>
<polygon fill="white" stroke="#bfbfbf" points="1554,-463 1554,-531 1726,-531 1726,-463 1554,-463"/>
<text text-anchor="start" x="1562" y="-519" font-family="Helvetica,sans-Serif" font-size="10.00">ElectroMechanicsProblemDefinition</text>
<text text-anchor="middle" x="1640" y="-508" font-family="Helvetica,sans-Serif" font-size="10.00">&lt; DIM &gt; &amp;</text>
<polyline fill="none" stroke="#bfbfbf" points="1554,-501 1726,-501 "/>
<text text-anchor="middle" x="1640" y="-489" font-family="Helvetica,sans-Serif" font-size="10.00"> </text>
<polyline fill="none" stroke="#bfbfbf" points="1554,-482 1726,-482 "/>
<text text-anchor="middle" x="1640" y="-470" font-family="Helvetica,sans-Serif" font-size="10.00"> </text>
</g>
<!-- Node15&#45;&gt;Node1 -->
<g id="edge14" class="edge"><title>Node15&#45;&gt;Node1</title>
<path fill="none" stroke="#404040" d="M1644.77,-462.881C1648.16,-425.479 1647.31,-365.137 1614,-329 1531.29,-239.275 1174.53,-187.602 997.05,-167.006"/>
<polygon fill="none" stroke="#404040" points="997.028,-167.004 990.611,-170.294 985.106,-165.636 991.523,-162.346 997.028,-167.004"/>
<text text-anchor="start" x="1638" y="-354" font-family="Helvetica,sans-Serif" font-size="10.00"> #mrElectroMechanicsProblem</text>
<text text-anchor="middle" x="1705" y="-343" font-family="Helvetica,sans-Serif" font-size="10.00">Definition</text>
</g>
</g>
</svg>
