<?xml version="1.0" encoding="UTF-8" standalone="no"?>
<!DOCTYPE svg PUBLIC "-//W3C//DTD SVG 1.1//EN"
 "http://www.w3.org/Graphics/SVG/1.1/DTD/svg11.dtd">
<!-- Generated by graphviz version 2.38.0 (20140413.2041)
 -->
<!-- Title: OffLatticeSimulation&lt; ELEMENT_DIM, SPACE_DIM &gt; Pages: 1 -->
<svg width="1320pt" height="826pt"
 viewBox="0.00 0.00 1319.50 826.00" xmlns="http://www.w3.org/2000/svg" xmlns:xlink="http://www.w3.org/1999/xlink">
<g id="graph0" class="graph" transform="scale(1 1) rotate(0) translate(4 822)">
<title>OffLatticeSimulation&lt; ELEMENT_DIM, SPACE_DIM &gt;</title>
<polygon fill="white" stroke="none" points="-4,4 -4,-822 1315.5,-822 1315.5,4 -4,4"/>
<!-- Node1 -->
<g id="node1" class="node"><title>Node1</title>
<polygon fill="#bfbfbf" stroke="black" points="843,-0.5 843,-266.5 1022,-266.5 1022,-0.5 843,-0.5"/>
<text text-anchor="start" x="851" y="-254.5" font-family="Helvetica,sans-Serif" font-size="10.00">OffLatticeSimulation</text>
<text text-anchor="middle" x="932.5" y="-243.5" font-family="Helvetica,sans-Serif" font-size="10.00">&lt; ELEMENT_DIM, SPACE_DIM &gt;</text>
<polyline fill="none" stroke="black" points="843,-236.5 1022,-236.5 "/>
<text text-anchor="middle" x="932.5" y="-224.5" font-family="Helvetica,sans-Serif" font-size="10.00"> </text>
<polyline fill="none" stroke="black" points="843,-217.5 1022,-217.5 "/>
<text text-anchor="start" x="851" y="-205.5" font-family="Helvetica,sans-Serif" font-size="10.00">+ OffLatticeSimulation()</text>
<text text-anchor="start" x="851" y="-194.5" font-family="Helvetica,sans-Serif" font-size="10.00">+ AddForce()</text>
<text text-anchor="start" x="851" y="-183.5" font-family="Helvetica,sans-Serif" font-size="10.00">+ RemoveAllForces()</text>
<text text-anchor="start" x="851" y="-172.5" font-family="Helvetica,sans-Serif" font-size="10.00">+ AddCellPopulationBoundary</text>
<text text-anchor="start" x="851" y="-161.5" font-family="Helvetica,sans-Serif" font-size="10.00">Condition()</text>
<text text-anchor="start" x="851" y="-150.5" font-family="Helvetica,sans-Serif" font-size="10.00">+ RemoveAllCellPopulationBoundary</text>
<text text-anchor="start" x="851" y="-139.5" font-family="Helvetica,sans-Serif" font-size="10.00">Conditions()</text>
<text text-anchor="start" x="851" y="-128.5" font-family="Helvetica,sans-Serif" font-size="10.00">+ SetNumericalMethod()</text>
<text text-anchor="start" x="851" y="-117.5" font-family="Helvetica,sans-Serif" font-size="10.00">+ GetNumericalMethod()</text>
<text text-anchor="start" x="851" y="-106.5" font-family="Helvetica,sans-Serif" font-size="10.00">+ OutputAdditionalSimulation</text>
<text text-anchor="start" x="851" y="-95.5" font-family="Helvetica,sans-Serif" font-size="10.00">Setup()</text>
<text text-anchor="start" x="851" y="-84.5" font-family="Helvetica,sans-Serif" font-size="10.00">+ OutputSimulationParameters()</text>
<text text-anchor="start" x="851" y="-73.5" font-family="Helvetica,sans-Serif" font-size="10.00">+ rGetForceCollection()</text>
<text text-anchor="start" x="851" y="-62.5" font-family="Helvetica,sans-Serif" font-size="10.00"># UpdateCellLocationsAndTopology()</text>
<text text-anchor="start" x="851" y="-51.5" font-family="Helvetica,sans-Serif" font-size="10.00"># RevertToOldLocations()</text>
<text text-anchor="start" x="851" y="-40.5" font-family="Helvetica,sans-Serif" font-size="10.00"># ApplyBoundaries()</text>
<text text-anchor="start" x="851" y="-29.5" font-family="Helvetica,sans-Serif" font-size="10.00"># SetupSolve()</text>
<text text-anchor="start" x="851" y="-18.5" font-family="Helvetica,sans-Serif" font-size="10.00"># WriteVisualizerSetupFile()</text>
<text text-anchor="start" x="851" y="-7.5" font-family="Helvetica,sans-Serif" font-size="10.00">&#45; serialize()</text>
</g>
<!-- Node2 -->
<g id="node2" class="node"><title>Node2</title>
<g id="a_node2"><a xlink:href="classAbstractCellBasedSimulation.html" target="_top" xlink:title="{AbstractCellBasedSimulation\l\&lt; ELEMENT_DIM, SPACE_DIM \&gt;\n||+ AbstractCellBasedSimulation()\l+ ~AbstractCellBasedSimulation()\l+ GetNodeLocation()\l+ GetDt()\l+ GetNumBirths()\l+ GetNumDeaths()\l+ GetOutputDirectory()\l+ SetDt()\l+ SetEndTime()\l+ SetOutputDirectory()\land 16 more...\l# WriteVisualizerSetupFile()\l# DoCellBirth()\l# DoCellRemoval()\l# SetupSolve()\l# StoppingEventHasOccurred()\l# UpdateCellPopulation()\l# UpdateCellLocationsAndTopology()\l# OutputSimulationSetup()\l# OutputAdditionalSimulation\lSetup()\l&#45; serialize()\l}">
<polygon fill="white" stroke="black" points="560,-314.5 560,-613.5 739,-613.5 739,-314.5 560,-314.5"/>
<text text-anchor="start" x="568" y="-601.5" font-family="Helvetica,sans-Serif" font-size="10.00">AbstractCellBasedSimulation</text>
<text text-anchor="middle" x="649.5" y="-590.5" font-family="Helvetica,sans-Serif" font-size="10.00">&lt; ELEMENT_DIM, SPACE_DIM &gt;</text>
<polyline fill="none" stroke="black" points="560,-583.5 739,-583.5 "/>
<text text-anchor="middle" x="649.5" y="-571.5" font-family="Helvetica,sans-Serif" font-size="10.00"> </text>
<polyline fill="none" stroke="black" points="560,-564.5 739,-564.5 "/>
<text text-anchor="start" x="568" y="-552.5" font-family="Helvetica,sans-Serif" font-size="10.00">+ AbstractCellBasedSimulation()</text>
<text text-anchor="start" x="568" y="-541.5" font-family="Helvetica,sans-Serif" font-size="10.00">+ ~AbstractCellBasedSimulation()</text>
<text text-anchor="start" x="568" y="-530.5" font-family="Helvetica,sans-Serif" font-size="10.00">+ GetNodeLocation()</text>
<text text-anchor="start" x="568" y="-519.5" font-family="Helvetica,sans-Serif" font-size="10.00">+ GetDt()</text>
<text text-anchor="start" x="568" y="-508.5" font-family="Helvetica,sans-Serif" font-size="10.00">+ GetNumBirths()</text>
<text text-anchor="start" x="568" y="-497.5" font-family="Helvetica,sans-Serif" font-size="10.00">+ GetNumDeaths()</text>
<text text-anchor="start" x="568" y="-486.5" font-family="Helvetica,sans-Serif" font-size="10.00">+ GetOutputDirectory()</text>
<text text-anchor="start" x="568" y="-475.5" font-family="Helvetica,sans-Serif" font-size="10.00">+ SetDt()</text>
<text text-anchor="start" x="568" y="-464.5" font-family="Helvetica,sans-Serif" font-size="10.00">+ SetEndTime()</text>
<text text-anchor="start" x="568" y="-453.5" font-family="Helvetica,sans-Serif" font-size="10.00">+ SetOutputDirectory()</text>
<text text-anchor="start" x="568" y="-442.5" font-family="Helvetica,sans-Serif" font-size="10.00">and 16 more...</text>
<text text-anchor="start" x="568" y="-431.5" font-family="Helvetica,sans-Serif" font-size="10.00"># WriteVisualizerSetupFile()</text>
<text text-anchor="start" x="568" y="-420.5" font-family="Helvetica,sans-Serif" font-size="10.00"># DoCellBirth()</text>
<text text-anchor="start" x="568" y="-409.5" font-family="Helvetica,sans-Serif" font-size="10.00"># DoCellRemoval()</text>
<text text-anchor="start" x="568" y="-398.5" font-family="Helvetica,sans-Serif" font-size="10.00"># SetupSolve()</text>
<text text-anchor="start" x="568" y="-387.5" font-family="Helvetica,sans-Serif" font-size="10.00"># StoppingEventHasOccurred()</text>
<text text-anchor="start" x="568" y="-376.5" font-family="Helvetica,sans-Serif" font-size="10.00"># UpdateCellPopulation()</text>
<text text-anchor="start" x="568" y="-365.5" font-family="Helvetica,sans-Serif" font-size="10.00"># UpdateCellLocationsAndTopology()</text>
<text text-anchor="start" x="568" y="-354.5" font-family="Helvetica,sans-Serif" font-size="10.00"># OutputSimulationSetup()</text>
<text text-anchor="start" x="568" y="-343.5" font-family="Helvetica,sans-Serif" font-size="10.00"># OutputAdditionalSimulation</text>
<text text-anchor="start" x="568" y="-332.5" font-family="Helvetica,sans-Serif" font-size="10.00">Setup()</text>
<text text-anchor="start" x="568" y="-321.5" font-family="Helvetica,sans-Serif" font-size="10.00">&#45; serialize()</text>
</a>
</g>
</g>
<!-- Node2&#45;&gt;Node1 -->
<g id="edge1" class="edge"><title>Node2&#45;&gt;Node1</title>
<path fill="none" stroke="midnightblue" d="M745.53,-317.616C746.519,-316.401 747.509,-315.196 748.5,-314 777.122,-279.47 811.629,-244.387 842.989,-214.507"/>
<polygon fill="none" stroke="midnightblue" points="742.532,-315.762 739.027,-325.761 748.002,-320.13 742.532,-315.762"/>
</g>
<!-- Node3 -->
<g id="node3" class="node"><title>Node3</title>
<g id="a_node3"><a xlink:href="classIdentifiable.html" target="_top" xlink:title="{Identifiable\n||+ ~Identifiable()\l+ GetIdentifier()\l&#45; TidyTemplatedExportIdentifier()\l}">
<polygon fill="white" stroke="black" points="0,-733 0,-812 159,-812 159,-733 0,-733"/>
<text text-anchor="middle" x="79.5" y="-800" font-family="Helvetica,sans-Serif" font-size="10.00">Identifiable</text>
<polyline fill="none" stroke="black" points="0,-793 159,-793 "/>
<text text-anchor="middle" x="79.5" y="-781" font-family="Helvetica,sans-Serif" font-size="10.00"> </text>
<polyline fill="none" stroke="black" points="0,-774 159,-774 "/>
<text text-anchor="start" x="8" y="-762" font-family="Helvetica,sans-Serif" font-size="10.00">+ ~Identifiable()</text>
<text text-anchor="start" x="8" y="-751" font-family="Helvetica,sans-Serif" font-size="10.00">+ GetIdentifier()</text>
<text text-anchor="start" x="8" y="-740" font-family="Helvetica,sans-Serif" font-size="10.00">&#45; TidyTemplatedExportIdentifier()</text>
</a>
</g>
</g>
<!-- Node3&#45;&gt;Node2 -->
<g id="edge2" class="edge"><title>Node3&#45;&gt;Node2</title>
<path fill="none" stroke="midnightblue" d="M124.227,-725.618C154.896,-696.037 197.648,-658.321 240.5,-632 343.27,-568.876 474.106,-520.29 559.753,-492.199"/>
<polygon fill="none" stroke="midnightblue" points="121.419,-723.467 116.697,-732.952 126.303,-728.482 121.419,-723.467"/>
</g>
<!-- Node4 -->
<g id="node4" class="node"><title>Node4</title>
<g id="a_node4"><a xlink:href="classdouble.html" target="_top" xlink:title="{double\n||}">
<polygon fill="white" stroke="black" points="177,-744 177,-801 222,-801 222,-744 177,-744"/>
<text text-anchor="middle" x="199.5" y="-789" font-family="Helvetica,sans-Serif" font-size="10.00">double</text>
<polyline fill="none" stroke="black" points="177,-782 222,-782 "/>
<text text-anchor="middle" x="199.5" y="-770" font-family="Helvetica,sans-Serif" font-size="10.00"> </text>
<polyline fill="none" stroke="black" points="177,-763 222,-763 "/>
<text text-anchor="middle" x="199.5" y="-751" font-family="Helvetica,sans-Serif" font-size="10.00"> </text>
</a>
</g>
</g>
<!-- Node4&#45;&gt;Node2 -->
<g id="edge3" class="edge"><title>Node4&#45;&gt;Node2</title>
<path fill="none" stroke="#404040" d="M216.873,-743.988C237.355,-713.354 273.916,-663.956 315.5,-632 386.837,-577.18 478.981,-532.72 548.411,-503.497"/>
<polygon fill="none" stroke="#404040" points="548.71,-503.373 552.711,-497.374 559.788,-498.759 555.787,-504.759 548.71,-503.373"/>
<text text-anchor="middle" x="343.5" y="-673.5" font-family="Helvetica,sans-Serif" font-size="10.00"> #mEndTime</text>
<text text-anchor="middle" x="343.5" y="-662.5" font-family="Helvetica,sans-Serif" font-size="10.00">#mDt</text>
</g>
<!-- Node5 -->
<g id="node5" class="node"><title>Node5</title>
<polygon fill="white" stroke="#bfbfbf" points="240.5,-738.5 240.5,-806.5 420.5,-806.5 420.5,-738.5 240.5,-738.5"/>
<text text-anchor="start" x="248.5" y="-794.5" font-family="Helvetica,sans-Serif" font-size="10.00">AbstractCellPopulation</text>
<text text-anchor="middle" x="330.5" y="-783.5" font-family="Helvetica,sans-Serif" font-size="10.00">&lt; ELEMENT_DIM, SPACE_DIM &gt; &amp;</text>
<polyline fill="none" stroke="#bfbfbf" points="240.5,-776.5 420.5,-776.5 "/>
<text text-anchor="middle" x="330.5" y="-764.5" font-family="Helvetica,sans-Serif" font-size="10.00"> </text>
<polyline fill="none" stroke="#bfbfbf" points="240.5,-757.5 420.5,-757.5 "/>
<text text-anchor="middle" x="330.5" y="-745.5" font-family="Helvetica,sans-Serif" font-size="10.00"> </text>
</g>
<!-- Node5&#45;&gt;Node2 -->
<g id="edge4" class="edge"><title>Node5&#45;&gt;Node2</title>
<path fill="none" stroke="#404040" d="M353.234,-738.47C374.231,-709.048 407.132,-665.584 440.5,-632 474.006,-598.277 514.129,-564.824 550.222,-536.817"/>
<polygon fill="none" stroke="#404040" points="550.288,-536.766 552.6,-529.936 559.794,-529.442 557.482,-536.273 550.288,-536.766"/>
<text text-anchor="middle" x="482" y="-668" font-family="Helvetica,sans-Serif" font-size="10.00"> #mrCellPopulation</text>
</g>
<!-- Node6 -->
<g id="node6" class="node"><title>Node6</title>
<polygon fill="white" stroke="#bfbfbf" points="438.5,-727.5 438.5,-817.5 610.5,-817.5 610.5,-727.5 438.5,-727.5"/>
<text text-anchor="start" x="446.5" y="-805.5" font-family="Helvetica,sans-Serif" font-size="10.00">vector&lt; boost::shared</text>
<text text-anchor="start" x="446.5" y="-794.5" font-family="Helvetica,sans-Serif" font-size="10.00">_ptr&lt; AbstractCellBasedSimulation</text>
<text text-anchor="start" x="446.5" y="-783.5" font-family="Helvetica,sans-Serif" font-size="10.00">Modifier&lt; ELEMENT_DIM, SPACE</text>
<text text-anchor="middle" x="524.5" y="-772.5" font-family="Helvetica,sans-Serif" font-size="10.00">_DIM &gt; &gt; &gt;</text>
<polyline fill="none" stroke="#bfbfbf" points="438.5,-765.5 610.5,-765.5 "/>
<text text-anchor="middle" x="524.5" y="-753.5" font-family="Helvetica,sans-Serif" font-size="10.00"> </text>
<polyline fill="none" stroke="#bfbfbf" points="438.5,-746.5 610.5,-746.5 "/>
<text text-anchor="middle" x="524.5" y="-734.5" font-family="Helvetica,sans-Serif" font-size="10.00"> </text>
</g>
<!-- Node6&#45;&gt;Node2 -->
<g id="edge5" class="edge"><title>Node6&#45;&gt;Node2</title>
<path fill="none" stroke="#404040" d="M525.261,-727.286C526.934,-699.254 531.35,-662.634 542.5,-632 545.928,-622.581 549.96,-613.145 554.415,-603.817"/>
<polygon fill="none" stroke="#404040" points="554.487,-603.671 553.575,-596.518 559.827,-592.925 560.739,-600.078 554.487,-603.671"/>
<text text-anchor="middle" x="594" y="-668" font-family="Helvetica,sans-Serif" font-size="10.00"> #mSimulationModifiers</text>
</g>
<!-- Node7 -->
<g id="node7" class="node"><title>Node7</title>
<polygon fill="white" stroke="#bfbfbf" points="629,-744 629,-801 670,-801 670,-744 629,-744"/>
<text text-anchor="middle" x="649.5" y="-789" font-family="Helvetica,sans-Serif" font-size="10.00">string</text>
<polyline fill="none" stroke="#bfbfbf" points="629,-782 670,-782 "/>
<text text-anchor="middle" x="649.5" y="-770" font-family="Helvetica,sans-Serif" font-size="10.00"> </text>
<polyline fill="none" stroke="#bfbfbf" points="629,-763 670,-763 "/>
<text text-anchor="middle" x="649.5" y="-751" font-family="Helvetica,sans-Serif" font-size="10.00"> </text>
</g>
<!-- Node7&#45;&gt;Node2 -->
<g id="edge6" class="edge"><title>Node7&#45;&gt;Node2</title>
<path fill="none" stroke="#404040" d="M649.5,-743.76C649.5,-716.164 649.5,-671.464 649.5,-625.863"/>
<polygon fill="none" stroke="#404040" points="649.5,-625.628 645.5,-619.628 649.5,-613.628 653.5,-619.628 649.5,-625.628"/>
<text text-anchor="middle" x="715.5" y="-673.5" font-family="Helvetica,sans-Serif" font-size="10.00"> #mSimulationOutputDirectory</text>
<text text-anchor="middle" x="715.5" y="-662.5" font-family="Helvetica,sans-Serif" font-size="10.00">#mOutputDirectory</text>
</g>
<!-- Node8 -->
<g id="node8" class="node"><title>Node8</title>
<g id="a_node8"><a xlink:href="classbool.html" target="_top" xlink:title="{bool\n||}">
<polygon fill="white" stroke="black" points="787,-744 787,-801 822,-801 822,-744 787,-744"/>
<text text-anchor="middle" x="804.5" y="-789" font-family="Helvetica,sans-Serif" font-size="10.00">bool</text>
<polyline fill="none" stroke="black" points="787,-782 822,-782 "/>
<text text-anchor="middle" x="804.5" y="-770" font-family="Helvetica,sans-Serif" font-size="10.00"> </text>
<polyline fill="none" stroke="black" points="787,-763 822,-763 "/>
<text text-anchor="middle" x="804.5" y="-751" font-family="Helvetica,sans-Serif" font-size="10.00"> </text>
</a>
</g>
</g>
<!-- Node8&#45;&gt;Node2 -->
<g id="edge7" class="edge"><title>Node8&#45;&gt;Node2</title>
<path fill="none" stroke="#404040" d="M803.051,-743.987C800.703,-708.573 795.004,-649.508 782.5,-632 772.563,-618.086 761.177,-625.474 748.5,-614 748.299,-613.818 748.097,-613.635 747.896,-613.451"/>
<polygon fill="none" stroke="#404040" points="747.647,-613.212 740.551,-611.933 739.002,-604.89 746.099,-606.169 747.647,-613.212"/>
<text text-anchor="start" x="800.5" y="-701" font-family="Helvetica,sans-Serif" font-size="10.00"> #mDeleteCellPopulationIn</text>
<text text-anchor="middle" x="861" y="-690" font-family="Helvetica,sans-Serif" font-size="10.00">Destructor</text>
<text text-anchor="middle" x="861" y="-679" font-family="Helvetica,sans-Serif" font-size="10.00">#mInitialiseCells</text>
<text text-anchor="middle" x="861" y="-668" font-family="Helvetica,sans-Serif" font-size="10.00">#mOutputDivisionLocations</text>
<text text-anchor="middle" x="861" y="-657" font-family="Helvetica,sans-Serif" font-size="10.00">#mOutputCellVelocities</text>
<text text-anchor="middle" x="861" y="-646" font-family="Helvetica,sans-Serif" font-size="10.00">#mUpdateCellPopulation</text>
<text text-anchor="middle" x="861" y="-635" font-family="Helvetica,sans-Serif" font-size="10.00">#mNoBirth</text>
</g>
<!-- Node9 -->
<g id="node9" class="node"><title>Node9</title>
<g id="a_node9"><a xlink:href="classunsigned.html" target="_top" xlink:title="{unsigned\n||}">
<polygon fill="white" stroke="black" points="920.5,-744 920.5,-801 976.5,-801 976.5,-744 920.5,-744"/>
<text text-anchor="middle" x="948.5" y="-789" font-family="Helvetica,sans-Serif" font-size="10.00">unsigned</text>
<polyline fill="none" stroke="black" points="920.5,-782 976.5,-782 "/>
<text text-anchor="middle" x="948.5" y="-770" font-family="Helvetica,sans-Serif" font-size="10.00"> </text>
<polyline fill="none" stroke="black" points="920.5,-763 976.5,-763 "/>
<text text-anchor="middle" x="948.5" y="-751" font-family="Helvetica,sans-Serif" font-size="10.00"> </text>
</a>
</g>
</g>
<!-- Node9&#45;&gt;Node2 -->
<g id="edge8" class="edge"><title>Node9&#45;&gt;Node2</title>
<path fill="none" stroke="#404040" d="M947.79,-743.788C946.237,-707.524 941.285,-646.834 925.5,-632 898.884,-606.987 799.275,-630.258 750.208,-612.958"/>
<polygon fill="none" stroke="#404040" points="750.043,-612.881 742.914,-613.965 739.171,-607.802 746.3,-606.717 750.043,-612.881"/>
<text text-anchor="middle" x="1010" y="-679" font-family="Helvetica,sans-Serif" font-size="10.00"> #mNumBirths</text>
<text text-anchor="middle" x="1010" y="-668" font-family="Helvetica,sans-Serif" font-size="10.00">#mSamplingTimestepMultiple</text>
<text text-anchor="middle" x="1010" y="-657" font-family="Helvetica,sans-Serif" font-size="10.00">#mNumDeaths</text>
</g>
<!-- Node10 -->
<g id="node10" class="node"><title>Node10</title>
<polygon fill="white" stroke="#bfbfbf" points="1031.5,-744 1031.5,-801 1169.5,-801 1169.5,-744 1031.5,-744"/>
<text text-anchor="middle" x="1100.5" y="-789" font-family="Helvetica,sans-Serif" font-size="10.00">shared_ptr&lt; std::ofstream &gt;</text>
<polyline fill="none" stroke="#bfbfbf" points="1031.5,-782 1169.5,-782 "/>
<text text-anchor="middle" x="1100.5" y="-770" font-family="Helvetica,sans-Serif" font-size="10.00"> </text>
<polyline fill="none" stroke="#bfbfbf" points="1031.5,-763 1169.5,-763 "/>
<text text-anchor="middle" x="1100.5" y="-751" font-family="Helvetica,sans-Serif" font-size="10.00"> </text>
</g>
<!-- Node10&#45;&gt;Node2 -->
<g id="edge9" class="edge"><title>Node10&#45;&gt;Node2</title>
<path fill="none" stroke="#404040" d="M1105.26,-743.738C1108.99,-711.669 1109.25,-659.769 1078.5,-632 1053.11,-609.073 816.272,-629.063 750.593,-612.318"/>
<polygon fill="none" stroke="#404040" points="750.292,-612.205 743.272,-613.853 739.05,-608.007 746.071,-606.359 750.292,-612.205"/>
<text text-anchor="middle" x="1161" y="-679" font-family="Helvetica,sans-Serif" font-size="10.00"> #mpVizSetupFile</text>
<text text-anchor="middle" x="1161" y="-668" font-family="Helvetica,sans-Serif" font-size="10.00">#mpCellVelocitiesFile</text>
<text text-anchor="middle" x="1161" y="-657" font-family="Helvetica,sans-Serif" font-size="10.00">#mpDivisionLocationFile</text>
</g>
<!-- Node11 -->
<g id="node11" class="node"><title>Node11</title>
<polygon fill="white" stroke="#bfbfbf" points="1187.5,-733 1187.5,-812 1305.5,-812 1305.5,-733 1187.5,-733"/>
<text text-anchor="start" x="1195.5" y="-800" font-family="Helvetica,sans-Serif" font-size="10.00">vector&lt; boost::shared</text>
<text text-anchor="start" x="1195.5" y="-789" font-family="Helvetica,sans-Serif" font-size="10.00">_ptr&lt; AbstractCellKiller</text>
<text text-anchor="middle" x="1246.5" y="-778" font-family="Helvetica,sans-Serif" font-size="10.00">&lt; SPACE_DIM &gt; &gt; &gt;</text>
<polyline fill="none" stroke="#bfbfbf" points="1187.5,-771 1305.5,-771 "/>
<text text-anchor="middle" x="1246.5" y="-759" font-family="Helvetica,sans-Serif" font-size="10.00"> </text>
<polyline fill="none" stroke="#bfbfbf" points="1187.5,-752 1305.5,-752 "/>
<text text-anchor="middle" x="1246.5" y="-740" font-family="Helvetica,sans-Serif" font-size="10.00"> </text>
</g>
<!-- Node11&#45;&gt;Node2 -->
<g id="edge10" class="edge"><title>Node11&#45;&gt;Node2</title>
<path fill="none" stroke="#404040" d="M1250.55,-732.873C1251.57,-700.667 1246.99,-656.266 1218.5,-632 1180.81,-599.901 833.685,-635.409 750.372,-612.474"/>
<polygon fill="none" stroke="#404040" points="750.202,-612.408 743.162,-613.974 739.01,-608.078 746.049,-606.513 750.202,-612.408"/>
<text text-anchor="middle" x="1281" y="-668" font-family="Helvetica,sans-Serif" font-size="10.00"> #mCellKillers</text>
</g>
<!-- Node12 -->
<g id="node12" class="node"><title>Node12</title>
<polygon fill="white" stroke="#bfbfbf" points="757.5,-424.5 757.5,-503.5 927.5,-503.5 927.5,-424.5 757.5,-424.5"/>
<text text-anchor="start" x="765.5" y="-491.5" font-family="Helvetica,sans-Serif" font-size="10.00">shared_ptr&lt; AbstractNumerical</text>
<text text-anchor="start" x="765.5" y="-480.5" font-family="Helvetica,sans-Serif" font-size="10.00">Method&lt; ELEMENT_DIM, SPACE</text>
<text text-anchor="middle" x="842.5" y="-469.5" font-family="Helvetica,sans-Serif" font-size="10.00">_DIM &gt; &gt;</text>
<polyline fill="none" stroke="#bfbfbf" points="757.5,-462.5 927.5,-462.5 "/>
<text text-anchor="middle" x="842.5" y="-450.5" font-family="Helvetica,sans-Serif" font-size="10.00"> </text>
<polyline fill="none" stroke="#bfbfbf" points="757.5,-443.5 927.5,-443.5 "/>
<text text-anchor="middle" x="842.5" y="-431.5" font-family="Helvetica,sans-Serif" font-size="10.00"> </text>
</g>
<!-- Node12&#45;&gt;Node1 -->
<g id="edge11" class="edge"><title>Node12&#45;&gt;Node1</title>
<path fill="none" stroke="#404040" d="M853.089,-424.351C863.002,-388.167 878.442,-331.811 893.082,-278.376"/>
<polygon fill="none" stroke="#404040" points="893.118,-278.244 890.846,-271.4 896.289,-266.67 898.561,-273.514 893.118,-278.244"/>
<text text-anchor="middle" x="940" y="-288" font-family="Helvetica,sans-Serif" font-size="10.00"> #mpNumericalMethod</text>
</g>
<!-- Node13 -->
<g id="node13" class="node"><title>Node13</title>
<polygon fill="white" stroke="#bfbfbf" points="946,-419 946,-509 1101,-509 1101,-419 946,-419"/>
<text text-anchor="start" x="954" y="-497" font-family="Helvetica,sans-Serif" font-size="10.00">vector&lt; boost::shared</text>
<text text-anchor="start" x="954" y="-486" font-family="Helvetica,sans-Serif" font-size="10.00">_ptr&lt; AbstractCellPopulation</text>
<text text-anchor="start" x="954" y="-475" font-family="Helvetica,sans-Serif" font-size="10.00">BoundaryCondition&lt; ELEMENT</text>
<text text-anchor="middle" x="1023.5" y="-464" font-family="Helvetica,sans-Serif" font-size="10.00">_DIM, SPACE_DIM &gt; &gt; &gt;</text>
<polyline fill="none" stroke="#bfbfbf" points="946,-457 1101,-457 "/>
<text text-anchor="middle" x="1023.5" y="-445" font-family="Helvetica,sans-Serif" font-size="10.00"> </text>
<polyline fill="none" stroke="#bfbfbf" points="946,-438 1101,-438 "/>
<text text-anchor="middle" x="1023.5" y="-426" font-family="Helvetica,sans-Serif" font-size="10.00"> </text>
</g>
<!-- Node13&#45;&gt;Node1 -->
<g id="edge12" class="edge"><title>Node13&#45;&gt;Node1</title>
<path fill="none" stroke="#404040" d="M1018.78,-418.885C1014.25,-382.5 1006.18,-329.776 993.5,-285 992.893,-282.855 992.264,-280.7 991.617,-278.536"/>
<polygon fill="none" stroke="#404040" points="991.561,-278.354 985.956,-273.817 987.989,-266.898 993.594,-271.436 991.561,-278.354"/>
<text text-anchor="middle" x="1049" y="-288" font-family="Helvetica,sans-Serif" font-size="10.00"> #mBoundaryConditions</text>
</g>
<!-- Node14 -->
<g id="node14" class="node"><title>Node14</title>
<polygon fill="white" stroke="#bfbfbf" points="1119.5,-424.5 1119.5,-503.5 1301.5,-503.5 1301.5,-424.5 1119.5,-424.5"/>
<text text-anchor="start" x="1127.5" y="-491.5" font-family="Helvetica,sans-Serif" font-size="10.00">vector&lt; boost::shared</text>
<text text-anchor="start" x="1127.5" y="-480.5" font-family="Helvetica,sans-Serif" font-size="10.00">_ptr&lt; AbstractForce&lt;</text>
<text text-anchor="middle" x="1210.5" y="-469.5" font-family="Helvetica,sans-Serif" font-size="10.00"> ELEMENT_DIM, SPACE_DIM &gt; &gt; &gt;</text>
<polyline fill="none" stroke="#bfbfbf" points="1119.5,-462.5 1301.5,-462.5 "/>
<text text-anchor="middle" x="1210.5" y="-450.5" font-family="Helvetica,sans-Serif" font-size="10.00"> </text>
<polyline fill="none" stroke="#bfbfbf" points="1119.5,-443.5 1301.5,-443.5 "/>
<text text-anchor="middle" x="1210.5" y="-431.5" font-family="Helvetica,sans-Serif" font-size="10.00"> </text>
</g>
<!-- Node14&#45;&gt;Node1 -->
<g id="edge13" class="edge"><title>Node14&#45;&gt;Node1</title>
<path fill="none" stroke="#404040" d="M1192.24,-424.233C1173.45,-386.534 1141.87,-328.718 1105.5,-285 1083.73,-258.834 1057.21,-233.358 1031.53,-211.03"/>
<polygon fill="none" stroke="#404040" points="1031.22,-210.768 1024.07,-209.895 1022.12,-202.952 1029.28,-203.825 1031.22,-210.768"/>
<text text-anchor="middle" x="1155" y="-288" font-family="Helvetica,sans-Serif" font-size="10.00"> #mForceCollection</text>
</g>
</g>
</svg>
