<?xml version="1.0" encoding="UTF-8" standalone="no"?>
<!DOCTYPE svg PUBLIC "-//W3C//DTD SVG 1.1//EN"
 "http://www.w3.org/Graphics/SVG/1.1/DTD/svg11.dtd">
<!-- Generated by graphviz version 2.38.0 (20140413.2041)
 -->
<!-- Title: MeshBasedCellPopulation&lt; ELEMENT_DIM, SPACE_DIM &gt;::SpringIterator Pages: 1 -->
<svg width="432pt" height="270pt"
 viewBox="0.00 0.00 432.00 270.00" xmlns="http://www.w3.org/2000/svg" xmlns:xlink="http://www.w3.org/1999/xlink">
<g id="graph0" class="graph" transform="scale(1 1) rotate(0) translate(4 266)">
<title>MeshBasedCellPopulation&lt; ELEMENT_DIM, SPACE_DIM &gt;::SpringIterator</title>
<polygon fill="white" stroke="none" points="-4,4 -4,-266 428,-266 428,4 -4,4"/>
<!-- Node1 -->
<g id="node1" class="node"><title>Node1</title>
<polygon fill="#bfbfbf" stroke="black" points="186.5,-0.5 186.5,-145.5 347.5,-145.5 347.5,-0.5 186.5,-0.5"/>
<text text-anchor="start" x="194.5" y="-133.5" font-family="Helvetica,sans-Serif" font-size="10.00">MeshBasedCellPopulation</text>
<text text-anchor="start" x="194.5" y="-122.5" font-family="Helvetica,sans-Serif" font-size="10.00">&lt; ELEMENT_DIM, SPACE_DIM</text>
<text text-anchor="middle" x="267" y="-111.5" font-family="Helvetica,sans-Serif" font-size="10.00"> &gt;::SpringIterator</text>
<polyline fill="none" stroke="black" points="186.5,-104.5 347.5,-104.5 "/>
<text text-anchor="middle" x="267" y="-92.5" font-family="Helvetica,sans-Serif" font-size="10.00"> </text>
<polyline fill="none" stroke="black" points="186.5,-85.5 347.5,-85.5 "/>
<text text-anchor="start" x="194.5" y="-73.5" font-family="Helvetica,sans-Serif" font-size="10.00">+ GetNodeA()</text>
<text text-anchor="start" x="194.5" y="-62.5" font-family="Helvetica,sans-Serif" font-size="10.00">+ GetNodeB()</text>
<text text-anchor="start" x="194.5" y="-51.5" font-family="Helvetica,sans-Serif" font-size="10.00">+ GetCellA()</text>
<text text-anchor="start" x="194.5" y="-40.5" font-family="Helvetica,sans-Serif" font-size="10.00">+ GetCellB()</text>
<text text-anchor="start" x="194.5" y="-29.5" font-family="Helvetica,sans-Serif" font-size="10.00">+ operator!=()</text>
<text text-anchor="start" x="194.5" y="-18.5" font-family="Helvetica,sans-Serif" font-size="10.00">+ operator++()</text>
<text text-anchor="start" x="194.5" y="-7.5" font-family="Helvetica,sans-Serif" font-size="10.00">+ SpringIterator()</text>
</g>
<!-- Node2 -->
<g id="node2" class="node"><title>Node2</title>
<polygon fill="white" stroke="#bfbfbf" points="0,-193.5 0,-261.5 180,-261.5 180,-193.5 0,-193.5"/>
<text text-anchor="start" x="8" y="-249.5" font-family="Helvetica,sans-Serif" font-size="10.00">MeshBasedCellPopulation</text>
<text text-anchor="middle" x="90" y="-238.5" font-family="Helvetica,sans-Serif" font-size="10.00">&lt; ELEMENT_DIM, SPACE_DIM &gt; &amp;</text>
<polyline fill="none" stroke="#bfbfbf" points="0,-231.5 180,-231.5 "/>
<text text-anchor="middle" x="90" y="-219.5" font-family="Helvetica,sans-Serif" font-size="10.00"> </text>
<polyline fill="none" stroke="#bfbfbf" points="0,-212.5 180,-212.5 "/>
<text text-anchor="middle" x="90" y="-200.5" font-family="Helvetica,sans-Serif" font-size="10.00"> </text>
</g>
<!-- Node2&#45;&gt;Node1 -->
<g id="edge1" class="edge"><title>Node2&#45;&gt;Node1</title>
<path fill="none" stroke="#404040" d="M128.406,-193.41C142.733,-181.066 159.671,-166.473 176.698,-151.803"/>
<polygon fill="none" stroke="#404040" points="177.059,-151.491 178.994,-144.545 186.15,-143.659 184.216,-150.605 177.059,-151.491"/>
<text text-anchor="middle" x="198.5" y="-167" font-family="Helvetica,sans-Serif" font-size="10.00"> &#45;mrCellPopulation</text>
</g>
<!-- Node3 -->
<g id="node3" class="node"><title>Node3</title>
<polygon fill="white" stroke="#bfbfbf" points="198,-199 198,-256 336,-256 336,-199 198,-199"/>
<text text-anchor="middle" x="267" y="-244" font-family="Helvetica,sans-Serif" font-size="10.00">set&lt; std::set&lt; unsigned &gt; &gt;</text>
<polyline fill="none" stroke="#bfbfbf" points="198,-237 336,-237 "/>
<text text-anchor="middle" x="267" y="-225" font-family="Helvetica,sans-Serif" font-size="10.00"> </text>
<polyline fill="none" stroke="#bfbfbf" points="198,-218 336,-218 "/>
<text text-anchor="middle" x="267" y="-206" font-family="Helvetica,sans-Serif" font-size="10.00"> </text>
</g>
<!-- Node3&#45;&gt;Node1 -->
<g id="edge2" class="edge"><title>Node3&#45;&gt;Node1</title>
<path fill="none" stroke="#404040" d="M267,-198.883C267,-187.031 267,-172.488 267,-157.568"/>
<polygon fill="none" stroke="#404040" points="267,-157.566 263,-151.566 267,-145.566 271,-151.566 267,-157.566"/>
<text text-anchor="middle" x="306" y="-167" font-family="Helvetica,sans-Serif" font-size="10.00"> &#45;mSpringsVisited</text>
</g>
<!-- Node4 -->
<g id="node4" class="node"><title>Node4</title>
<polygon fill="white" stroke="#bfbfbf" points="354,-199 354,-256 424,-256 424,-199 354,-199"/>
<text text-anchor="middle" x="389" y="-244" font-family="Helvetica,sans-Serif" font-size="10.00">EdgeIterator</text>
<polyline fill="none" stroke="#bfbfbf" points="354,-237 424,-237 "/>
<text text-anchor="middle" x="389" y="-225" font-family="Helvetica,sans-Serif" font-size="10.00"> </text>
<polyline fill="none" stroke="#bfbfbf" points="354,-218 424,-218 "/>
<text text-anchor="middle" x="389" y="-206" font-family="Helvetica,sans-Serif" font-size="10.00"> </text>
</g>
<!-- Node4&#45;&gt;Node1 -->
<g id="edge3" class="edge"><title>Node4&#45;&gt;Node1</title>
<path fill="none" stroke="#404040" d="M372.646,-198.746C365.751,-187.652 357.387,-174.939 349,-164 346.726,-161.034 344.375,-158.049 341.969,-155.061"/>
<polygon fill="none" stroke="#404040" points="341.748,-154.793 334.847,-152.704 334.121,-145.529 341.023,-147.619 341.748,-154.793"/>
<text text-anchor="middle" x="382" y="-167" font-family="Helvetica,sans-Serif" font-size="10.00"> &#45;mEdgeIter</text>
</g>
</g>
</svg>
