<?xml version="1.0" encoding="UTF-8" standalone="no"?>
<!DOCTYPE svg PUBLIC "-//W3C//DTD SVG 1.1//EN"
 "http://www.w3.org/Graphics/SVG/1.1/DTD/svg11.dtd">
<!-- Generated by graphviz version 2.38.0 (20140413.2041)
 -->
<!-- Title: DiffusionCaUpdateRule&lt; DIM &gt; Pages: 1 -->
<svg width="297pt" height="570pt"
 viewBox="0.00 0.00 296.50 570.00" xmlns="http://www.w3.org/2000/svg" xmlns:xlink="http://www.w3.org/1999/xlink">
<g id="graph0" class="graph" transform="scale(1 1) rotate(0) translate(4 566)">
<title>DiffusionCaUpdateRule&lt; DIM &gt;</title>
<polygon fill="white" stroke="none" points="-4,4 -4,-566 292.5,-566 292.5,4 -4,4"/>
<!-- Node1 -->
<g id="node1" class="node"><title>Node1</title>
<polygon fill="#bfbfbf" stroke="black" points="91,-0.5 91,-134.5 254,-134.5 254,-0.5 91,-0.5"/>
<text text-anchor="start" x="99" y="-122.5" font-family="Helvetica,sans-Serif" font-size="10.00">DiffusionCaUpdateRule</text>
<text text-anchor="middle" x="172.5" y="-111.5" font-family="Helvetica,sans-Serif" font-size="10.00">&lt; DIM &gt;</text>
<polyline fill="none" stroke="black" points="91,-104.5 254,-104.5 "/>
<text text-anchor="middle" x="172.5" y="-92.5" font-family="Helvetica,sans-Serif" font-size="10.00"> </text>
<polyline fill="none" stroke="black" points="91,-85.5 254,-85.5 "/>
<text text-anchor="start" x="99" y="-73.5" font-family="Helvetica,sans-Serif" font-size="10.00">+ DiffusionCaUpdateRule()</text>
<text text-anchor="start" x="99" y="-62.5" font-family="Helvetica,sans-Serif" font-size="10.00">+ ~DiffusionCaUpdateRule()</text>
<text text-anchor="start" x="99" y="-51.5" font-family="Helvetica,sans-Serif" font-size="10.00">+ EvaluateProbability()</text>
<text text-anchor="start" x="99" y="-40.5" font-family="Helvetica,sans-Serif" font-size="10.00">+ GetDiffusionParameter()</text>
<text text-anchor="start" x="99" y="-29.5" font-family="Helvetica,sans-Serif" font-size="10.00">+ SetDiffusionParameter()</text>
<text text-anchor="start" x="99" y="-18.5" font-family="Helvetica,sans-Serif" font-size="10.00">+ OutputUpdateRuleParameters()</text>
<text text-anchor="start" x="99" y="-7.5" font-family="Helvetica,sans-Serif" font-size="10.00">&#45; serialize()</text>
</g>
<!-- Node2 -->
<g id="node2" class="node"><title>Node2</title>
<g id="a_node2"><a xlink:href="classAbstractCaUpdateRule.html" target="_top" xlink:title="{AbstractCaUpdateRule\l\&lt; DIM \&gt;\n||+ AbstractCaUpdateRule()\l+ ~AbstractCaUpdateRule()\l+ EvaluateProbability()\l+ OutputUpdateRuleParameters()\l&#45; serialize()\l}">
<polygon fill="white" stroke="black" points="0,-182.5 0,-294.5 163,-294.5 163,-182.5 0,-182.5"/>
<text text-anchor="start" x="8" y="-282.5" font-family="Helvetica,sans-Serif" font-size="10.00">AbstractCaUpdateRule</text>
<text text-anchor="middle" x="81.5" y="-271.5" font-family="Helvetica,sans-Serif" font-size="10.00">&lt; DIM &gt;</text>
<polyline fill="none" stroke="black" points="0,-264.5 163,-264.5 "/>
<text text-anchor="middle" x="81.5" y="-252.5" font-family="Helvetica,sans-Serif" font-size="10.00"> </text>
<polyline fill="none" stroke="black" points="0,-245.5 163,-245.5 "/>
<text text-anchor="start" x="8" y="-233.5" font-family="Helvetica,sans-Serif" font-size="10.00">+ AbstractCaUpdateRule()</text>
<text text-anchor="start" x="8" y="-222.5" font-family="Helvetica,sans-Serif" font-size="10.00">+ ~AbstractCaUpdateRule()</text>
<text text-anchor="start" x="8" y="-211.5" font-family="Helvetica,sans-Serif" font-size="10.00">+ EvaluateProbability()</text>
<text text-anchor="start" x="8" y="-200.5" font-family="Helvetica,sans-Serif" font-size="10.00">+ OutputUpdateRuleParameters()</text>
<text text-anchor="start" x="8" y="-189.5" font-family="Helvetica,sans-Serif" font-size="10.00">&#45; serialize()</text>
</a>
</g>
</g>
<!-- Node2&#45;&gt;Node1 -->
<g id="edge1" class="edge"><title>Node2&#45;&gt;Node1</title>
<path fill="none" stroke="midnightblue" d="M116.175,-173.104C122.97,-160.485 130.107,-147.231 136.93,-134.558"/>
<polygon fill="none" stroke="midnightblue" points="112.956,-171.699 111.297,-182.163 119.12,-175.018 112.956,-171.699"/>
</g>
<!-- Node3 -->
<g id="node3" class="node"><title>Node3</title>
<g id="a_node3"><a xlink:href="classAbstractUpdateRule.html" target="_top" xlink:title="{AbstractUpdateRule\l\&lt; DIM \&gt;\n||+ AbstractUpdateRule()\l+ ~AbstractUpdateRule()\l+ OutputUpdateRuleInfo()\l+ OutputUpdateRuleParameters()\l&#45; serialize()\l}">
<polygon fill="white" stroke="black" points="0,-332.5 0,-444.5 163,-444.5 163,-332.5 0,-332.5"/>
<text text-anchor="start" x="8" y="-432.5" font-family="Helvetica,sans-Serif" font-size="10.00">AbstractUpdateRule</text>
<text text-anchor="middle" x="81.5" y="-421.5" font-family="Helvetica,sans-Serif" font-size="10.00">&lt; DIM &gt;</text>
<polyline fill="none" stroke="black" points="0,-414.5 163,-414.5 "/>
<text text-anchor="middle" x="81.5" y="-402.5" font-family="Helvetica,sans-Serif" font-size="10.00"> </text>
<polyline fill="none" stroke="black" points="0,-395.5 163,-395.5 "/>
<text text-anchor="start" x="8" y="-383.5" font-family="Helvetica,sans-Serif" font-size="10.00">+ AbstractUpdateRule()</text>
<text text-anchor="start" x="8" y="-372.5" font-family="Helvetica,sans-Serif" font-size="10.00">+ ~AbstractUpdateRule()</text>
<text text-anchor="start" x="8" y="-361.5" font-family="Helvetica,sans-Serif" font-size="10.00">+ OutputUpdateRuleInfo()</text>
<text text-anchor="start" x="8" y="-350.5" font-family="Helvetica,sans-Serif" font-size="10.00">+ OutputUpdateRuleParameters()</text>
<text text-anchor="start" x="8" y="-339.5" font-family="Helvetica,sans-Serif" font-size="10.00">&#45; serialize()</text>
</a>
</g>
</g>
<!-- Node3&#45;&gt;Node2 -->
<g id="edge2" class="edge"><title>Node3&#45;&gt;Node2</title>
<path fill="none" stroke="midnightblue" d="M81.5,-322.14C81.5,-312.967 81.5,-303.614 81.5,-294.656"/>
<polygon fill="none" stroke="midnightblue" points="78.0001,-322.39 81.5,-332.39 85.0001,-322.39 78.0001,-322.39"/>
</g>
<!-- Node4 -->
<g id="node4" class="node"><title>Node4</title>
<g id="a_node4"><a xlink:href="classIdentifiable.html" target="_top" xlink:title="{Identifiable\n||+ ~Identifiable()\l+ GetIdentifier()\l&#45; TidyTemplatedExportIdentifier()\l}">
<polygon fill="white" stroke="black" points="2,-482.5 2,-561.5 161,-561.5 161,-482.5 2,-482.5"/>
<text text-anchor="middle" x="81.5" y="-549.5" font-family="Helvetica,sans-Serif" font-size="10.00">Identifiable</text>
<polyline fill="none" stroke="black" points="2,-542.5 161,-542.5 "/>
<text text-anchor="middle" x="81.5" y="-530.5" font-family="Helvetica,sans-Serif" font-size="10.00"> </text>
<polyline fill="none" stroke="black" points="2,-523.5 161,-523.5 "/>
<text text-anchor="start" x="10" y="-511.5" font-family="Helvetica,sans-Serif" font-size="10.00">+ ~Identifiable()</text>
<text text-anchor="start" x="10" y="-500.5" font-family="Helvetica,sans-Serif" font-size="10.00">+ GetIdentifier()</text>
<text text-anchor="start" x="10" y="-489.5" font-family="Helvetica,sans-Serif" font-size="10.00">&#45; TidyTemplatedExportIdentifier()</text>
</a>
</g>
</g>
<!-- Node4&#45;&gt;Node3 -->
<g id="edge3" class="edge"><title>Node4&#45;&gt;Node3</title>
<path fill="none" stroke="midnightblue" d="M81.5,-471.994C81.5,-463.041 81.5,-453.644 81.5,-444.53"/>
<polygon fill="none" stroke="midnightblue" points="78.0001,-472.257 81.5,-482.257 85.0001,-472.257 78.0001,-472.257"/>
</g>
<!-- Node5 -->
<g id="node5" class="node"><title>Node5</title>
<g id="a_node5"><a xlink:href="classdouble.html" target="_top" xlink:title="{double\n||}">
<polygon fill="white" stroke="black" points="181,-210 181,-267 226,-267 226,-210 181,-210"/>
<text text-anchor="middle" x="203.5" y="-255" font-family="Helvetica,sans-Serif" font-size="10.00">double</text>
<polyline fill="none" stroke="black" points="181,-248 226,-248 "/>
<text text-anchor="middle" x="203.5" y="-236" font-family="Helvetica,sans-Serif" font-size="10.00"> </text>
<polyline fill="none" stroke="black" points="181,-229 226,-229 "/>
<text text-anchor="middle" x="203.5" y="-217" font-family="Helvetica,sans-Serif" font-size="10.00"> </text>
</a>
</g>
</g>
<!-- Node5&#45;&gt;Node1 -->
<g id="edge4" class="edge"><title>Node5&#45;&gt;Node1</title>
<path fill="none" stroke="#404040" d="M198.45,-209.971C195.28,-192.687 191.018,-169.452 186.865,-146.811"/>
<polygon fill="none" stroke="#404040" points="186.808,-146.503 181.791,-141.324 184.643,-134.7 189.66,-139.88 186.808,-146.503"/>
<text text-anchor="middle" x="239" y="-156" font-family="Helvetica,sans-Serif" font-size="10.00"> &#45;mDiffusionParameter</text>
</g>
</g>
</svg>
