<?xml version="1.0" encoding="UTF-8" standalone="no"?>
<!DOCTYPE svg PUBLIC "-//W3C//DTD SVG 1.1//EN"
 "http://www.w3.org/Graphics/SVG/1.1/DTD/svg11.dtd">
<!-- Generated by graphviz version 2.38.0 (20140413.2041)
 -->
<!-- Title: ChemotacticForce&lt; DIM &gt; Pages: 1 -->
<svg width="277pt" height="581pt"
 viewBox="0.00 0.00 277.00 581.00" xmlns="http://www.w3.org/2000/svg" xmlns:xlink="http://www.w3.org/1999/xlink">
<g id="graph0" class="graph" transform="scale(1 1) rotate(0) translate(4 577)">
<title>ChemotacticForce&lt; DIM &gt;</title>
<polygon fill="white" stroke="none" points="-4,4 -4,-577 273,-577 273,4 -4,4"/>
<!-- Node1 -->
<g id="node1" class="node"><title>Node1</title>
<polygon fill="#bfbfbf" stroke="black" points="0.5,-0.5 0.5,-112.5 170.5,-112.5 170.5,-0.5 0.5,-0.5"/>
<text text-anchor="middle" x="85.5" y="-100.5" font-family="Helvetica,sans-Serif" font-size="10.00">ChemotacticForce&lt; DIM &gt;</text>
<polyline fill="none" stroke="black" points="0.5,-93.5 170.5,-93.5 "/>
<text text-anchor="middle" x="85.5" y="-81.5" font-family="Helvetica,sans-Serif" font-size="10.00"> </text>
<polyline fill="none" stroke="black" points="0.5,-74.5 170.5,-74.5 "/>
<text text-anchor="start" x="8.5" y="-62.5" font-family="Helvetica,sans-Serif" font-size="10.00">+ ChemotacticForce()</text>
<text text-anchor="start" x="8.5" y="-51.5" font-family="Helvetica,sans-Serif" font-size="10.00">+ ~ChemotacticForce()</text>
<text text-anchor="start" x="8.5" y="-40.5" font-family="Helvetica,sans-Serif" font-size="10.00">+ AddForceContribution()</text>
<text text-anchor="start" x="8.5" y="-29.5" font-family="Helvetica,sans-Serif" font-size="10.00">+ OutputForceParameters()</text>
<text text-anchor="start" x="8.5" y="-18.5" font-family="Helvetica,sans-Serif" font-size="10.00">&#45; GetChemotacticForceMagnitude()</text>
<text text-anchor="start" x="8.5" y="-7.5" font-family="Helvetica,sans-Serif" font-size="10.00">&#45; serialize()</text>
</g>
<!-- Node2 -->
<g id="node2" class="node"><title>Node2</title>
<g id="a_node2"><a xlink:href="classAbstractForce.html" target="_top" xlink:title="{AbstractForce\&lt; DIM \&gt;\n||+ AbstractForce()\l+ ~AbstractForce()\l+ AddForceContribution()\l+ OutputForceInfo()\l+ OutputForceParameters()\l+ WriteDataToVisualizerSetupFile()\l&#45; serialize()\l}">
<polygon fill="white" stroke="black" points="0,-150.5 0,-273.5 171,-273.5 171,-150.5 0,-150.5"/>
<text text-anchor="middle" x="85.5" y="-261.5" font-family="Helvetica,sans-Serif" font-size="10.00">AbstractForce&lt; DIM &gt;</text>
<polyline fill="none" stroke="black" points="0,-254.5 171,-254.5 "/>
<text text-anchor="middle" x="85.5" y="-242.5" font-family="Helvetica,sans-Serif" font-size="10.00"> </text>
<polyline fill="none" stroke="black" points="0,-235.5 171,-235.5 "/>
<text text-anchor="start" x="8" y="-223.5" font-family="Helvetica,sans-Serif" font-size="10.00">+ AbstractForce()</text>
<text text-anchor="start" x="8" y="-212.5" font-family="Helvetica,sans-Serif" font-size="10.00">+ ~AbstractForce()</text>
<text text-anchor="start" x="8" y="-201.5" font-family="Helvetica,sans-Serif" font-size="10.00">+ AddForceContribution()</text>
<text text-anchor="start" x="8" y="-190.5" font-family="Helvetica,sans-Serif" font-size="10.00">+ OutputForceInfo()</text>
<text text-anchor="start" x="8" y="-179.5" font-family="Helvetica,sans-Serif" font-size="10.00">+ OutputForceParameters()</text>
<text text-anchor="start" x="8" y="-168.5" font-family="Helvetica,sans-Serif" font-size="10.00">+ WriteDataToVisualizerSetupFile()</text>
<text text-anchor="start" x="8" y="-157.5" font-family="Helvetica,sans-Serif" font-size="10.00">&#45; serialize()</text>
</a>
</g>
</g>
<!-- Node2&#45;&gt;Node1 -->
<g id="edge1" class="edge"><title>Node2&#45;&gt;Node1</title>
<path fill="none" stroke="midnightblue" d="M85.5,-140.055C85.5,-130.886 85.5,-121.605 85.5,-112.741"/>
<polygon fill="none" stroke="midnightblue" points="82.0001,-140.333 85.5,-150.333 89.0001,-140.333 82.0001,-140.333"/>
</g>
<!-- Node3 -->
<g id="node3" class="node"><title>Node3</title>
<g id="a_node3"><a xlink:href="classIdentifiable.html" target="_top" xlink:title="{Identifiable\n||+ ~Identifiable()\l+ GetIdentifier()\l&#45; TidyTemplatedExportIdentifier()\l}">
<polygon fill="white" stroke="black" points="24,-493.5 24,-572.5 183,-572.5 183,-493.5 24,-493.5"/>
<text text-anchor="middle" x="103.5" y="-560.5" font-family="Helvetica,sans-Serif" font-size="10.00">Identifiable</text>
<polyline fill="none" stroke="black" points="24,-553.5 183,-553.5 "/>
<text text-anchor="middle" x="103.5" y="-541.5" font-family="Helvetica,sans-Serif" font-size="10.00"> </text>
<polyline fill="none" stroke="black" points="24,-534.5 183,-534.5 "/>
<text text-anchor="start" x="32" y="-522.5" font-family="Helvetica,sans-Serif" font-size="10.00">+ ~Identifiable()</text>
<text text-anchor="start" x="32" y="-511.5" font-family="Helvetica,sans-Serif" font-size="10.00">+ GetIdentifier()</text>
<text text-anchor="start" x="32" y="-500.5" font-family="Helvetica,sans-Serif" font-size="10.00">&#45; TidyTemplatedExportIdentifier()</text>
</a>
</g>
</g>
<!-- Node3&#45;&gt;Node2 -->
<g id="edge2" class="edge"><title>Node3&#45;&gt;Node2</title>
<path fill="none" stroke="midnightblue" d="M92.5026,-483.187C90.8648,-474.19 89.4196,-464.844 88.5,-456 82.0641,-394.102 82.0486,-322.862 83.1916,-273.594"/>
<polygon fill="none" stroke="midnightblue" points="89.0932,-483.992 94.416,-493.153 95.9676,-482.672 89.0932,-483.992"/>
</g>
<!-- Node4 -->
<g id="node4" class="node"><title>Node4</title>
<g id="a_node4"><a xlink:href="classAbstractForce.html" target="_top" xlink:title="{AbstractForce\&lt; ELEMENT\l_DIM, SPACE_DIM \&gt;\n||+ AbstractForce()\l+ ~AbstractForce()\l+ AddForceContribution()\l+ OutputForceInfo()\l+ OutputForceParameters()\l+ WriteDataToVisualizerSetupFile()\l&#45; serialize()\l}">
<polygon fill="white" stroke="black" points="98,-321.5 98,-455.5 269,-455.5 269,-321.5 98,-321.5"/>
<text text-anchor="start" x="106" y="-443.5" font-family="Helvetica,sans-Serif" font-size="10.00">AbstractForce&lt; ELEMENT</text>
<text text-anchor="middle" x="183.5" y="-432.5" font-family="Helvetica,sans-Serif" font-size="10.00">_DIM, SPACE_DIM &gt;</text>
<polyline fill="none" stroke="black" points="98,-425.5 269,-425.5 "/>
<text text-anchor="middle" x="183.5" y="-413.5" font-family="Helvetica,sans-Serif" font-size="10.00"> </text>
<polyline fill="none" stroke="black" points="98,-406.5 269,-406.5 "/>
<text text-anchor="start" x="106" y="-394.5" font-family="Helvetica,sans-Serif" font-size="10.00">+ AbstractForce()</text>
<text text-anchor="start" x="106" y="-383.5" font-family="Helvetica,sans-Serif" font-size="10.00">+ ~AbstractForce()</text>
<text text-anchor="start" x="106" y="-372.5" font-family="Helvetica,sans-Serif" font-size="10.00">+ AddForceContribution()</text>
<text text-anchor="start" x="106" y="-361.5" font-family="Helvetica,sans-Serif" font-size="10.00">+ OutputForceInfo()</text>
<text text-anchor="start" x="106" y="-350.5" font-family="Helvetica,sans-Serif" font-size="10.00">+ OutputForceParameters()</text>
<text text-anchor="start" x="106" y="-339.5" font-family="Helvetica,sans-Serif" font-size="10.00">+ WriteDataToVisualizerSetupFile()</text>
<text text-anchor="start" x="106" y="-328.5" font-family="Helvetica,sans-Serif" font-size="10.00">&#45; serialize()</text>
</a>
</g>
</g>
<!-- Node3&#45;&gt;Node4 -->
<g id="edge4" class="edge"><title>Node3&#45;&gt;Node4</title>
<path fill="none" stroke="midnightblue" d="M130.058,-484.694C135.304,-475.349 140.899,-465.383 146.419,-455.55"/>
<polygon fill="none" stroke="midnightblue" points="126.993,-483.004 125.149,-493.437 133.096,-486.431 126.993,-483.004"/>
</g>
<!-- Node4&#45;&gt;Node2 -->
<g id="edge3" class="edge"><title>Node4&#45;&gt;Node2</title>
<path fill="none" stroke="orange" d="M141.194,-312.169C133.948,-299.267 126.502,-286.009 119.508,-273.555"/>
<polygon fill="orange" stroke="orange" points="138.222,-314.026 146.171,-321.031 144.326,-310.598 138.222,-314.026"/>
<text text-anchor="middle" x="154.5" y="-295" font-family="Helvetica,sans-Serif" font-size="10.00"> &lt; DIM &gt;</text>
</g>
</g>
</svg>
