<?xml version="1.0" encoding="UTF-8" standalone="no"?>
<!DOCTYPE svg PUBLIC "-//W3C//DTD SVG 1.1//EN"
 "http://www.w3.org/Graphics/SVG/1.1/DTD/svg11.dtd">
<!-- Generated by graphviz version 2.38.0 (20140413.2041)
 -->
<!-- Title: MockEulerIvpOdeSolver Pages: 1 -->
<svg width="470pt" height="707pt"
 viewBox="0.00 0.00 469.50 707.00" xmlns="http://www.w3.org/2000/svg" xmlns:xlink="http://www.w3.org/1999/xlink">
<g id="graph0" class="graph" transform="scale(1 1) rotate(0) translate(4 703)">
<title>MockEulerIvpOdeSolver</title>
<polygon fill="white" stroke="none" points="-4,4 -4,-703 465.5,-703 465.5,4 -4,4"/>
<!-- Node1 -->
<g id="node1" class="node"><title>Node1</title>
<polygon fill="#bfbfbf" stroke="black" points="317,-0.5 317,-101.5 460,-101.5 460,-0.5 317,-0.5"/>
<text text-anchor="middle" x="388.5" y="-89.5" font-family="Helvetica,sans-Serif" font-size="10.00">MockEulerIvpOdeSolver</text>
<polyline fill="none" stroke="black" points="317,-82.5 460,-82.5 "/>
<text text-anchor="middle" x="388.5" y="-70.5" font-family="Helvetica,sans-Serif" font-size="10.00"> </text>
<polyline fill="none" stroke="black" points="317,-63.5 460,-63.5 "/>
<text text-anchor="start" x="325" y="-51.5" font-family="Helvetica,sans-Serif" font-size="10.00">+ MockEulerIvpOdeSolver()</text>
<text text-anchor="start" x="325" y="-40.5" font-family="Helvetica,sans-Serif" font-size="10.00">+ GetCallCount()</text>
<text text-anchor="start" x="325" y="-29.5" font-family="Helvetica,sans-Serif" font-size="10.00">+ ~MockEulerIvpOdeSolver()</text>
<text text-anchor="start" x="325" y="-18.5" font-family="Helvetica,sans-Serif" font-size="10.00"># InternalSolve()</text>
<text text-anchor="start" x="325" y="-7.5" font-family="Helvetica,sans-Serif" font-size="10.00">&#45; serialize()</text>
</g>
<!-- Node2 -->
<g id="node2" class="node"><title>Node2</title>
<g id="a_node2"><a xlink:href="classEulerIvpOdeSolver.html" target="_top" xlink:title="{EulerIvpOdeSolver\n||+ EulerIvpOdeSolver()\l+ ~EulerIvpOdeSolver()\l# CalculateNextYValue()\l&#45; serialize()\l}">
<polygon fill="white" stroke="black" points="245,-149.5 245,-239.5 370,-239.5 370,-149.5 245,-149.5"/>
<text text-anchor="middle" x="307.5" y="-227.5" font-family="Helvetica,sans-Serif" font-size="10.00">EulerIvpOdeSolver</text>
<polyline fill="none" stroke="black" points="245,-220.5 370,-220.5 "/>
<text text-anchor="middle" x="307.5" y="-208.5" font-family="Helvetica,sans-Serif" font-size="10.00"> </text>
<polyline fill="none" stroke="black" points="245,-201.5 370,-201.5 "/>
<text text-anchor="start" x="253" y="-189.5" font-family="Helvetica,sans-Serif" font-size="10.00">+ EulerIvpOdeSolver()</text>
<text text-anchor="start" x="253" y="-178.5" font-family="Helvetica,sans-Serif" font-size="10.00">+ ~EulerIvpOdeSolver()</text>
<text text-anchor="start" x="253" y="-167.5" font-family="Helvetica,sans-Serif" font-size="10.00"># CalculateNextYValue()</text>
<text text-anchor="start" x="253" y="-156.5" font-family="Helvetica,sans-Serif" font-size="10.00">&#45; serialize()</text>
</a>
</g>
</g>
<!-- Node2&#45;&gt;Node1 -->
<g id="edge1" class="edge"><title>Node2&#45;&gt;Node1</title>
<path fill="none" stroke="midnightblue" d="M338.071,-140.095C345.292,-127.481 352.961,-114.083 360.082,-101.644"/>
<polygon fill="none" stroke="midnightblue" points="334.837,-138.699 332.907,-149.117 340.912,-142.177 334.837,-138.699"/>
</g>
<!-- Node3 -->
<g id="node3" class="node"><title>Node3</title>
<g id="a_node3"><a xlink:href="classAbstractOneStepIvpOdeSolver.html" target="_top" xlink:title="{AbstractOneStepIvpOdeSolver\n||+ Solve()\l+ Solve()\l+ ~AbstractOneStepIvpOdeSolver()\l# InternalSolve()\l# CalculateNextYValue()\l&#45; serialize()\l}">
<polygon fill="white" stroke="black" points="221.5,-277.5 221.5,-389.5 393.5,-389.5 393.5,-277.5 221.5,-277.5"/>
<text text-anchor="middle" x="307.5" y="-377.5" font-family="Helvetica,sans-Serif" font-size="10.00">AbstractOneStepIvpOdeSolver</text>
<polyline fill="none" stroke="black" points="221.5,-370.5 393.5,-370.5 "/>
<text text-anchor="middle" x="307.5" y="-358.5" font-family="Helvetica,sans-Serif" font-size="10.00"> </text>
<polyline fill="none" stroke="black" points="221.5,-351.5 393.5,-351.5 "/>
<text text-anchor="start" x="229.5" y="-339.5" font-family="Helvetica,sans-Serif" font-size="10.00">+ Solve()</text>
<text text-anchor="start" x="229.5" y="-328.5" font-family="Helvetica,sans-Serif" font-size="10.00">+ Solve()</text>
<text text-anchor="start" x="229.5" y="-317.5" font-family="Helvetica,sans-Serif" font-size="10.00">+ ~AbstractOneStepIvpOdeSolver()</text>
<text text-anchor="start" x="229.5" y="-306.5" font-family="Helvetica,sans-Serif" font-size="10.00"># InternalSolve()</text>
<text text-anchor="start" x="229.5" y="-295.5" font-family="Helvetica,sans-Serif" font-size="10.00"># CalculateNextYValue()</text>
<text text-anchor="start" x="229.5" y="-284.5" font-family="Helvetica,sans-Serif" font-size="10.00">&#45; serialize()</text>
</a>
</g>
</g>
<!-- Node3&#45;&gt;Node2 -->
<g id="edge2" class="edge"><title>Node3&#45;&gt;Node2</title>
<path fill="none" stroke="midnightblue" d="M307.5,-267.134C307.5,-257.826 307.5,-248.44 307.5,-239.667"/>
<polygon fill="none" stroke="midnightblue" points="304,-267.172 307.5,-277.172 311,-267.172 304,-267.172"/>
</g>
<!-- Node4 -->
<g id="node4" class="node"><title>Node4</title>
<g id="a_node4"><a xlink:href="classAbstractIvpOdeSolver.html" target="_top" xlink:title="{AbstractIvpOdeSolver\n||+ Solve()\l+ Solve()\l+ SolveAndUpdateStateVariable()\l+ StoppingEventOccurred()\l+ GetStoppingTime()\l+ AbstractIvpOdeSolver()\l+ ~AbstractIvpOdeSolver()\l&#45; serialize()\l}">
<polygon fill="white" stroke="black" points="117.5,-437.5 117.5,-571.5 281.5,-571.5 281.5,-437.5 117.5,-437.5"/>
<text text-anchor="middle" x="199.5" y="-559.5" font-family="Helvetica,sans-Serif" font-size="10.00">AbstractIvpOdeSolver</text>
<polyline fill="none" stroke="black" points="117.5,-552.5 281.5,-552.5 "/>
<text text-anchor="middle" x="199.5" y="-540.5" font-family="Helvetica,sans-Serif" font-size="10.00"> </text>
<polyline fill="none" stroke="black" points="117.5,-533.5 281.5,-533.5 "/>
<text text-anchor="start" x="125.5" y="-521.5" font-family="Helvetica,sans-Serif" font-size="10.00">+ Solve()</text>
<text text-anchor="start" x="125.5" y="-510.5" font-family="Helvetica,sans-Serif" font-size="10.00">+ Solve()</text>
<text text-anchor="start" x="125.5" y="-499.5" font-family="Helvetica,sans-Serif" font-size="10.00">+ SolveAndUpdateStateVariable()</text>
<text text-anchor="start" x="125.5" y="-488.5" font-family="Helvetica,sans-Serif" font-size="10.00">+ StoppingEventOccurred()</text>
<text text-anchor="start" x="125.5" y="-477.5" font-family="Helvetica,sans-Serif" font-size="10.00">+ GetStoppingTime()</text>
<text text-anchor="start" x="125.5" y="-466.5" font-family="Helvetica,sans-Serif" font-size="10.00">+ AbstractIvpOdeSolver()</text>
<text text-anchor="start" x="125.5" y="-455.5" font-family="Helvetica,sans-Serif" font-size="10.00">+ ~AbstractIvpOdeSolver()</text>
<text text-anchor="start" x="125.5" y="-444.5" font-family="Helvetica,sans-Serif" font-size="10.00">&#45; serialize()</text>
</a>
</g>
</g>
<!-- Node4&#45;&gt;Node3 -->
<g id="edge3" class="edge"><title>Node4&#45;&gt;Node3</title>
<path fill="none" stroke="midnightblue" d="M247.336,-428.646C255.704,-415.551 264.272,-402.144 272.222,-389.704"/>
<polygon fill="none" stroke="midnightblue" points="244.31,-426.881 241.874,-437.192 250.209,-430.65 244.31,-426.881"/>
</g>
<!-- Node5 -->
<g id="node5" class="node"><title>Node5</title>
<g id="a_node5"><a xlink:href="classIdentifiable.html" target="_top" xlink:title="{Identifiable\n||+ ~Identifiable()\l+ GetIdentifier()\l&#45; TidyTemplatedExportIdentifier()\l}">
<polygon fill="white" stroke="black" points="0,-619.5 0,-698.5 159,-698.5 159,-619.5 0,-619.5"/>
<text text-anchor="middle" x="79.5" y="-686.5" font-family="Helvetica,sans-Serif" font-size="10.00">Identifiable</text>
<polyline fill="none" stroke="black" points="0,-679.5 159,-679.5 "/>
<text text-anchor="middle" x="79.5" y="-667.5" font-family="Helvetica,sans-Serif" font-size="10.00"> </text>
<polyline fill="none" stroke="black" points="0,-660.5 159,-660.5 "/>
<text text-anchor="start" x="8" y="-648.5" font-family="Helvetica,sans-Serif" font-size="10.00">+ ~Identifiable()</text>
<text text-anchor="start" x="8" y="-637.5" font-family="Helvetica,sans-Serif" font-size="10.00">+ GetIdentifier()</text>
<text text-anchor="start" x="8" y="-626.5" font-family="Helvetica,sans-Serif" font-size="10.00">&#45; TidyTemplatedExportIdentifier()</text>
</a>
</g>
</g>
<!-- Node5&#45;&gt;Node4 -->
<g id="edge4" class="edge"><title>Node5&#45;&gt;Node4</title>
<path fill="none" stroke="midnightblue" d="M116.399,-611.108C126.231,-598.613 137.041,-584.876 147.518,-571.561"/>
<polygon fill="none" stroke="midnightblue" points="113.525,-609.1 110.092,-619.123 119.026,-613.429 113.525,-609.1"/>
</g>
<!-- Node6 -->
<g id="node6" class="node"><title>Node6</title>
<g id="a_node6"><a xlink:href="classdouble.html" target="_top" xlink:title="{double\n||}">
<polygon fill="white" stroke="black" points="177,-630.5 177,-687.5 222,-687.5 222,-630.5 177,-630.5"/>
<text text-anchor="middle" x="199.5" y="-675.5" font-family="Helvetica,sans-Serif" font-size="10.00">double</text>
<polyline fill="none" stroke="black" points="177,-668.5 222,-668.5 "/>
<text text-anchor="middle" x="199.5" y="-656.5" font-family="Helvetica,sans-Serif" font-size="10.00"> </text>
<polyline fill="none" stroke="black" points="177,-649.5 222,-649.5 "/>
<text text-anchor="middle" x="199.5" y="-637.5" font-family="Helvetica,sans-Serif" font-size="10.00"> </text>
</a>
</g>
</g>
<!-- Node6&#45;&gt;Node4 -->
<g id="edge5" class="edge"><title>Node6&#45;&gt;Node4</title>
<path fill="none" stroke="#404040" d="M199.5,-630.383C199.5,-617.122 199.5,-600.493 199.5,-583.735"/>
<polygon fill="none" stroke="#404040" points="199.5,-583.557 195.5,-577.557 199.5,-571.557 203.5,-577.557 199.5,-583.557"/>
<text text-anchor="middle" x="238" y="-593" font-family="Helvetica,sans-Serif" font-size="10.00"> #mStoppingTime</text>
</g>
<!-- Node7 -->
<g id="node7" class="node"><title>Node7</title>
<g id="a_node7"><a xlink:href="classbool.html" target="_top" xlink:title="{bool\n||}">
<polygon fill="white" stroke="black" points="282,-630.5 282,-687.5 317,-687.5 317,-630.5 282,-630.5"/>
<text text-anchor="middle" x="299.5" y="-675.5" font-family="Helvetica,sans-Serif" font-size="10.00">bool</text>
<polyline fill="none" stroke="black" points="282,-668.5 317,-668.5 "/>
<text text-anchor="middle" x="299.5" y="-656.5" font-family="Helvetica,sans-Serif" font-size="10.00"> </text>
<polyline fill="none" stroke="black" points="282,-649.5 317,-649.5 "/>
<text text-anchor="middle" x="299.5" y="-637.5" font-family="Helvetica,sans-Serif" font-size="10.00"> </text>
</a>
</g>
</g>
<!-- Node7&#45;&gt;Node4 -->
<g id="edge6" class="edge"><title>Node7&#45;&gt;Node4</title>
<path fill="none" stroke="#404040" d="M293.477,-630.38C289.964,-617.551 284.766,-602.425 277.5,-590 275.856,-587.189 274.105,-584.393 272.267,-581.621"/>
<polygon fill="none" stroke="#404040" points="272.19,-581.513 265.462,-578.919 265.268,-571.711 271.996,-574.304 272.19,-581.513"/>
<text text-anchor="middle" x="344" y="-593" font-family="Helvetica,sans-Serif" font-size="10.00"> #mStoppingEventOccurred</text>
</g>
<!-- Node8 -->
<g id="node8" class="node"><title>Node8</title>
<polygon fill="white" stroke="#bfbfbf" points="299.5,-476 299.5,-533 389.5,-533 389.5,-476 299.5,-476"/>
<text text-anchor="middle" x="344.5" y="-521" font-family="Helvetica,sans-Serif" font-size="10.00">vector&lt; double &gt;</text>
<polyline fill="none" stroke="#bfbfbf" points="299.5,-514 389.5,-514 "/>
<text text-anchor="middle" x="344.5" y="-502" font-family="Helvetica,sans-Serif" font-size="10.00"> </text>
<polyline fill="none" stroke="#bfbfbf" points="299.5,-495 389.5,-495 "/>
<text text-anchor="middle" x="344.5" y="-483" font-family="Helvetica,sans-Serif" font-size="10.00"> </text>
</g>
<!-- Node8&#45;&gt;Node3 -->
<g id="edge7" class="edge"><title>Node8&#45;&gt;Node3</title>
<path fill="none" stroke="#404040" d="M338.473,-475.971C334.051,-455.775 327.85,-427.451 322.157,-401.448"/>
<polygon fill="none" stroke="#404040" points="322.152,-401.423 316.961,-396.417 319.585,-389.701 324.776,-394.706 322.152,-401.423"/>
<text text-anchor="middle" x="369.5" y="-411" font-family="Helvetica,sans-Serif" font-size="10.00"> &#45;mWorkingMemory</text>
</g>
<!-- Node9 -->
<g id="node9" class="node"><title>Node9</title>
<g id="a_node9"><a xlink:href="classunsigned.html" target="_top" xlink:title="{unsigned\n||}">
<polygon fill="white" stroke="black" points="387.5,-166 387.5,-223 443.5,-223 443.5,-166 387.5,-166"/>
<text text-anchor="middle" x="415.5" y="-211" font-family="Helvetica,sans-Serif" font-size="10.00">unsigned</text>
<polyline fill="none" stroke="black" points="387.5,-204 443.5,-204 "/>
<text text-anchor="middle" x="415.5" y="-192" font-family="Helvetica,sans-Serif" font-size="10.00"> </text>
<polyline fill="none" stroke="black" points="387.5,-185 443.5,-185 "/>
<text text-anchor="middle" x="415.5" y="-173" font-family="Helvetica,sans-Serif" font-size="10.00"> </text>
</a>
</g>
</g>
<!-- Node9&#45;&gt;Node1 -->
<g id="edge8" class="edge"><title>Node9&#45;&gt;Node1</title>
<path fill="none" stroke="#404040" d="M410.23,-165.881C407.372,-150.905 403.719,-131.759 400.227,-113.457"/>
<polygon fill="none" stroke="#404040" points="400.214,-113.391 395.161,-108.247 397.965,-101.604 403.019,-106.748 400.214,-113.391"/>
<text text-anchor="middle" x="432.5" y="-123" font-family="Helvetica,sans-Serif" font-size="10.00"> &#45;mCallCount</text>
</g>
</g>
</svg>
