<?xml version="1.0" encoding="UTF-8" standalone="no"?>
<!DOCTYPE svg PUBLIC "-//W3C//DTD SVG 1.1//EN"
 "http://www.w3.org/Graphics/SVG/1.1/DTD/svg11.dtd">
<!-- Generated by graphviz version 2.38.0 (20140413.2041)
 -->
<!-- Title: OdeConvergenceTester&lt; CELL, CARDIAC_PROBLEM, DIM, PROBLEM_DIM &gt; Pages: 1 -->
<svg width="496pt" height="702pt"
 viewBox="0.00 0.00 495.50 702.00" xmlns="http://www.w3.org/2000/svg" xmlns:xlink="http://www.w3.org/1999/xlink">
<g id="graph0" class="graph" transform="scale(1 1) rotate(0) translate(4 698)">
<title>OdeConvergenceTester&lt; CELL, CARDIAC_PROBLEM, DIM, PROBLEM_DIM &gt;</title>
<polygon fill="white" stroke="none" points="-4,4 -4,-698 491.5,-698 491.5,4 -4,4"/>
<!-- Node1 -->
<g id="node1" class="node"><title>Node1</title>
<polygon fill="#bfbfbf" stroke="black" points="169.5,-0.5 169.5,-112.5 347.5,-112.5 347.5,-0.5 169.5,-0.5"/>
<text text-anchor="start" x="177.5" y="-100.5" font-family="Helvetica,sans-Serif" font-size="10.00">OdeConvergenceTester</text>
<text text-anchor="start" x="177.5" y="-89.5" font-family="Helvetica,sans-Serif" font-size="10.00">&lt; CELL, CARDIAC_PROBLEM,</text>
<text text-anchor="middle" x="258.5" y="-78.5" font-family="Helvetica,sans-Serif" font-size="10.00"> DIM, PROBLEM_DIM &gt;</text>
<polyline fill="none" stroke="black" points="169.5,-71.5 347.5,-71.5 "/>
<text text-anchor="middle" x="258.5" y="-59.5" font-family="Helvetica,sans-Serif" font-size="10.00"> </text>
<polyline fill="none" stroke="black" points="169.5,-52.5 347.5,-52.5 "/>
<text text-anchor="start" x="177.5" y="-40.5" font-family="Helvetica,sans-Serif" font-size="10.00">+ SetInitialConvergenceParameters()</text>
<text text-anchor="start" x="177.5" y="-29.5" font-family="Helvetica,sans-Serif" font-size="10.00">+ UpdateConvergenceParameters()</text>
<text text-anchor="start" x="177.5" y="-18.5" font-family="Helvetica,sans-Serif" font-size="10.00">+ GiveUpConvergence()</text>
<text text-anchor="start" x="177.5" y="-7.5" font-family="Helvetica,sans-Serif" font-size="10.00">+ Abscissa()</text>
</g>
<!-- Node2 -->
<g id="node2" class="node"><title>Node2</title>
<g id="a_node2"><a xlink:href="classAbstractConvergenceTester.html" target="_top" xlink:title="{AbstractConvergenceTester\l\&lt; CELL, CARDIAC_PROBLEM,\l DIM, PROBLEM_DIM \&gt;\n||+ Converge()\l+ DisplayRun()\l+ ~AbstractConvergenceTester()\l+ SetInitialConvergenceParameters()\l+ UpdateConvergenceParameters()\l+ GiveUpConvergence()\l+ Abscissa()\l+ PopulateStandardResult()\l+ IsConverged()\l+ SetMeshWidth()\l}">
<polygon fill="white" stroke="black" points="169.5,-150.5 169.5,-328.5 347.5,-328.5 347.5,-150.5 169.5,-150.5"/>
<text text-anchor="start" x="177.5" y="-316.5" font-family="Helvetica,sans-Serif" font-size="10.00">AbstractConvergenceTester</text>
<text text-anchor="start" x="177.5" y="-305.5" font-family="Helvetica,sans-Serif" font-size="10.00">&lt; CELL, CARDIAC_PROBLEM,</text>
<text text-anchor="middle" x="258.5" y="-294.5" font-family="Helvetica,sans-Serif" font-size="10.00"> DIM, PROBLEM_DIM &gt;</text>
<polyline fill="none" stroke="black" points="169.5,-287.5 347.5,-287.5 "/>
<text text-anchor="middle" x="258.5" y="-275.5" font-family="Helvetica,sans-Serif" font-size="10.00"> </text>
<polyline fill="none" stroke="black" points="169.5,-268.5 347.5,-268.5 "/>
<text text-anchor="start" x="177.5" y="-256.5" font-family="Helvetica,sans-Serif" font-size="10.00">+ Converge()</text>
<text text-anchor="start" x="177.5" y="-245.5" font-family="Helvetica,sans-Serif" font-size="10.00">+ DisplayRun()</text>
<text text-anchor="start" x="177.5" y="-234.5" font-family="Helvetica,sans-Serif" font-size="10.00">+ ~AbstractConvergenceTester()</text>
<text text-anchor="start" x="177.5" y="-223.5" font-family="Helvetica,sans-Serif" font-size="10.00">+ SetInitialConvergenceParameters()</text>
<text text-anchor="start" x="177.5" y="-212.5" font-family="Helvetica,sans-Serif" font-size="10.00">+ UpdateConvergenceParameters()</text>
<text text-anchor="start" x="177.5" y="-201.5" font-family="Helvetica,sans-Serif" font-size="10.00">+ GiveUpConvergence()</text>
<text text-anchor="start" x="177.5" y="-190.5" font-family="Helvetica,sans-Serif" font-size="10.00">+ Abscissa()</text>
<text text-anchor="start" x="177.5" y="-179.5" font-family="Helvetica,sans-Serif" font-size="10.00">+ PopulateStandardResult()</text>
<text text-anchor="start" x="177.5" y="-168.5" font-family="Helvetica,sans-Serif" font-size="10.00">+ IsConverged()</text>
<text text-anchor="start" x="177.5" y="-157.5" font-family="Helvetica,sans-Serif" font-size="10.00">+ SetMeshWidth()</text>
</a>
</g>
</g>
<!-- Node2&#45;&gt;Node1 -->
<g id="edge1" class="edge"><title>Node2&#45;&gt;Node1</title>
<path fill="none" stroke="midnightblue" d="M258.5,-140.147C258.5,-130.734 258.5,-121.436 258.5,-112.663"/>
<polygon fill="none" stroke="midnightblue" points="255,-140.386 258.5,-150.386 262,-140.386 255,-140.386"/>
</g>
<!-- Node3 -->
<g id="node3" class="node"><title>Node3</title>
<g id="a_node3"><a xlink:href="classAbstractUntemplatedConvergenceTester.html" target="_top" xlink:title="{AbstractUntemplatedConvergence\lTester\n||+ AbstractUntemplatedConvergence\lTester()\l+ Converge()\l+ ~AbstractUntemplatedConvergence\lTester()\l}">
<polygon fill="white" stroke="black" points="167.5,-366.5 167.5,-478.5 349.5,-478.5 349.5,-366.5 167.5,-366.5"/>
<text text-anchor="start" x="175.5" y="-466.5" font-family="Helvetica,sans-Serif" font-size="10.00">AbstractUntemplatedConvergence</text>
<text text-anchor="middle" x="258.5" y="-455.5" font-family="Helvetica,sans-Serif" font-size="10.00">Tester</text>
<polyline fill="none" stroke="black" points="167.5,-448.5 349.5,-448.5 "/>
<text text-anchor="middle" x="258.5" y="-436.5" font-family="Helvetica,sans-Serif" font-size="10.00"> </text>
<polyline fill="none" stroke="black" points="167.5,-429.5 349.5,-429.5 "/>
<text text-anchor="start" x="175.5" y="-417.5" font-family="Helvetica,sans-Serif" font-size="10.00">+ AbstractUntemplatedConvergence</text>
<text text-anchor="start" x="175.5" y="-406.5" font-family="Helvetica,sans-Serif" font-size="10.00">Tester()</text>
<text text-anchor="start" x="175.5" y="-395.5" font-family="Helvetica,sans-Serif" font-size="10.00">+ Converge()</text>
<text text-anchor="start" x="175.5" y="-384.5" font-family="Helvetica,sans-Serif" font-size="10.00">+ ~AbstractUntemplatedConvergence</text>
<text text-anchor="start" x="175.5" y="-373.5" font-family="Helvetica,sans-Serif" font-size="10.00">Tester()</text>
</a>
</g>
</g>
<!-- Node3&#45;&gt;Node2 -->
<g id="edge2" class="edge"><title>Node3&#45;&gt;Node2</title>
<path fill="none" stroke="midnightblue" d="M258.5,-356.007C258.5,-347.16 258.5,-337.967 258.5,-328.805"/>
<polygon fill="none" stroke="midnightblue" points="255,-356.211 258.5,-366.211 262,-356.211 255,-356.211"/>
</g>
<!-- Node4 -->
<g id="node4" class="node"><title>Node4</title>
<g id="a_node4"><a xlink:href="classdouble.html" target="_top" xlink:title="{double\n||}">
<polygon fill="white" stroke="black" points="0,-636.5 0,-693.5 45,-693.5 45,-636.5 0,-636.5"/>
<text text-anchor="middle" x="22.5" y="-681.5" font-family="Helvetica,sans-Serif" font-size="10.00">double</text>
<polyline fill="none" stroke="black" points="0,-674.5 45,-674.5 "/>
<text text-anchor="middle" x="22.5" y="-662.5" font-family="Helvetica,sans-Serif" font-size="10.00"> </text>
<polyline fill="none" stroke="black" points="0,-655.5 45,-655.5 "/>
<text text-anchor="middle" x="22.5" y="-643.5" font-family="Helvetica,sans-Serif" font-size="10.00"> </text>
</a>
</g>
</g>
<!-- Node4&#45;&gt;Node3 -->
<g id="edge3" class="edge"><title>Node4&#45;&gt;Node3</title>
<path fill="none" stroke="#404040" d="M14.8459,-636.247C6.70819,-600.24 -1.1876,-537.279 29.5,-497 59.1214,-458.12 109.535,-439.429 155.532,-430.593"/>
<polygon fill="none" stroke="#404040" points="155.609,-430.579 160.826,-425.601 167.427,-428.502 162.21,-433.481 155.609,-430.579"/>
<text text-anchor="middle" x="98" y="-610" font-family="Helvetica,sans-Serif" font-size="10.00"> +ConductionVelocity</text>
<text text-anchor="middle" x="98" y="-599" font-family="Helvetica,sans-Serif" font-size="10.00">+OdeTimeStep</text>
<text text-anchor="middle" x="98" y="-588" font-family="Helvetica,sans-Serif" font-size="10.00">+LastDifference</text>
<text text-anchor="middle" x="98" y="-577" font-family="Helvetica,sans-Serif" font-size="10.00">+AbsoluteStimulus</text>
<text text-anchor="middle" x="98" y="-566" font-family="Helvetica,sans-Serif" font-size="10.00">+Apd90ThirdQn</text>
<text text-anchor="middle" x="98" y="-555" font-family="Helvetica,sans-Serif" font-size="10.00">+NeumannStimulus</text>
<text text-anchor="middle" x="98" y="-544" font-family="Helvetica,sans-Serif" font-size="10.00">+RelativeConvergenceCriterion</text>
<text text-anchor="middle" x="98" y="-533" font-family="Helvetica,sans-Serif" font-size="10.00">#mMeshWidth</text>
<text text-anchor="middle" x="98" y="-522" font-family="Helvetica,sans-Serif" font-size="10.00">+Apd90FirstQn</text>
<text text-anchor="middle" x="98" y="-511" font-family="Helvetica,sans-Serif" font-size="10.00">+PdeTimeStep</text>
<text text-anchor="middle" x="98" y="-500" font-family="Helvetica,sans-Serif" font-size="10.00">...</text>
</g>
<!-- Node5 -->
<g id="node5" class="node"><title>Node5</title>
<g id="a_node5"><a xlink:href="classbool.html" target="_top" xlink:title="{bool\n||}">
<polygon fill="white" stroke="black" points="165,-636.5 165,-693.5 200,-693.5 200,-636.5 165,-636.5"/>
<text text-anchor="middle" x="182.5" y="-681.5" font-family="Helvetica,sans-Serif" font-size="10.00">bool</text>
<polyline fill="none" stroke="black" points="165,-674.5 200,-674.5 "/>
<text text-anchor="middle" x="182.5" y="-662.5" font-family="Helvetica,sans-Serif" font-size="10.00"> </text>
<polyline fill="none" stroke="black" points="165,-655.5 200,-655.5 "/>
<text text-anchor="middle" x="182.5" y="-643.5" font-family="Helvetica,sans-Serif" font-size="10.00"> </text>
</a>
</g>
</g>
<!-- Node5&#45;&gt;Node3 -->
<g id="edge4" class="edge"><title>Node5&#45;&gt;Node3</title>
<path fill="none" stroke="#404040" d="M176.415,-636.392C170.246,-602.174 164.103,-542.784 183.5,-497 184.64,-494.309 185.932,-491.667 187.351,-489.078"/>
<polygon fill="none" stroke="#404040" points="187.46,-488.905 187.267,-481.696 193.846,-478.745 194.039,-485.954 187.46,-488.905"/>
<text text-anchor="middle" x="248.5" y="-571.5" font-family="Helvetica,sans-Serif" font-size="10.00"> +SimulateFullActionPotential</text>
<text text-anchor="middle" x="248.5" y="-560.5" font-family="Helvetica,sans-Serif" font-size="10.00">+PopulatedResult</text>
<text text-anchor="middle" x="248.5" y="-549.5" font-family="Helvetica,sans-Serif" font-size="10.00">+FixedResult</text>
<text text-anchor="middle" x="248.5" y="-538.5" font-family="Helvetica,sans-Serif" font-size="10.00">+Converged</text>
</g>
<!-- Node6 -->
<g id="node6" class="node"><title>Node6</title>
<polygon fill="white" stroke="#bfbfbf" points="281,-636.5 281,-693.5 390,-693.5 390,-636.5 281,-636.5"/>
<text text-anchor="middle" x="335.5" y="-681.5" font-family="Helvetica,sans-Serif" font-size="10.00">enum StimulusType_</text>
<polyline fill="none" stroke="#bfbfbf" points="281,-674.5 390,-674.5 "/>
<text text-anchor="middle" x="335.5" y="-662.5" font-family="Helvetica,sans-Serif" font-size="10.00"> </text>
<polyline fill="none" stroke="#bfbfbf" points="281,-655.5 390,-655.5 "/>
<text text-anchor="middle" x="335.5" y="-643.5" font-family="Helvetica,sans-Serif" font-size="10.00"> </text>
</g>
<!-- Node6&#45;&gt;Node3 -->
<g id="edge5" class="edge"><title>Node6&#45;&gt;Node3</title>
<path fill="none" stroke="#404040" d="M336.072,-636.311C335.84,-602.268 332.359,-543.314 313.5,-497 312.474,-494.481 311.341,-491.972 310.119,-489.482"/>
<polygon fill="none" stroke="#404040" points="309.995,-489.254 303.612,-485.9 304.252,-478.718 310.636,-482.072 309.995,-489.254"/>
<text text-anchor="middle" x="359.5" y="-555" font-family="Helvetica,sans-Serif" font-size="10.00"> +Stimulus</text>
</g>
<!-- Node7 -->
<g id="node7" class="node"><title>Node7</title>
<g id="a_node7"><a xlink:href="classunsigned.html" target="_top" xlink:title="{unsigned\n||}">
<polygon fill="white" stroke="black" points="408.5,-636.5 408.5,-693.5 464.5,-693.5 464.5,-636.5 408.5,-636.5"/>
<text text-anchor="middle" x="436.5" y="-681.5" font-family="Helvetica,sans-Serif" font-size="10.00">unsigned</text>
<polyline fill="none" stroke="black" points="408.5,-674.5 464.5,-674.5 "/>
<text text-anchor="middle" x="436.5" y="-662.5" font-family="Helvetica,sans-Serif" font-size="10.00"> </text>
<polyline fill="none" stroke="black" points="408.5,-655.5 464.5,-655.5 "/>
<text text-anchor="middle" x="436.5" y="-643.5" font-family="Helvetica,sans-Serif" font-size="10.00"> </text>
</a>
</g>
</g>
<!-- Node7&#45;&gt;Node3 -->
<g id="edge6" class="edge"><title>Node7&#45;&gt;Node3</title>
<path fill="none" stroke="#404040" d="M434.677,-636.267C431.03,-600.567 420.113,-538.237 387.5,-497 379.685,-487.118 370.151,-478.33 359.84,-470.579"/>
<polygon fill="none" stroke="#404040" points="359.554,-470.377 352.346,-470.189 349.747,-463.463 356.955,-463.651 359.554,-470.377"/>
<text text-anchor="middle" x="460" y="-555" font-family="Helvetica,sans-Serif" font-size="10.00"> +MeshNum</text>
</g>
</g>
</svg>
