<?xml version="1.0" encoding="UTF-8" standalone="no"?>
<!DOCTYPE svg PUBLIC "-//W3C//DTD SVG 1.1//EN"
 "http://www.w3.org/Graphics/SVG/1.1/DTD/svg11.dtd">
<!-- Generated by graphviz version 2.38.0 (20140413.2041)
 -->
<!-- Title: BuskeAdhesiveForce&lt; DIM &gt; Pages: 1 -->
<svg width="392pt" height="895pt"
 viewBox="0.00 0.00 392.00 895.00" xmlns="http://www.w3.org/2000/svg" xmlns:xlink="http://www.w3.org/1999/xlink">
<g id="graph0" class="graph" transform="scale(1 1) rotate(0) translate(4 891)">
<title>BuskeAdhesiveForce&lt; DIM &gt;</title>
<polygon fill="white" stroke="none" points="-4,4 -4,-891 388,-891 388,4 -4,4"/>
<!-- Node1 -->
<g id="node1" class="node"><title>Node1</title>
<polygon fill="#bfbfbf" stroke="black" points="61.5,-0.5 61.5,-134.5 225.5,-134.5 225.5,-0.5 61.5,-0.5"/>
<text text-anchor="start" x="69.5" y="-122.5" font-family="Helvetica,sans-Serif" font-size="10.00">BuskeAdhesiveForce</text>
<text text-anchor="middle" x="143.5" y="-111.5" font-family="Helvetica,sans-Serif" font-size="10.00">&lt; DIM &gt;</text>
<polyline fill="none" stroke="black" points="61.5,-104.5 225.5,-104.5 "/>
<text text-anchor="start" x="69.5" y="-92.5" font-family="Helvetica,sans-Serif" font-size="10.00">&#45; mAdhesionEnergyParameter</text>
<polyline fill="none" stroke="black" points="61.5,-85.5 225.5,-85.5 "/>
<text text-anchor="start" x="69.5" y="-73.5" font-family="Helvetica,sans-Serif" font-size="10.00">+ BuskeAdhesiveForce()</text>
<text text-anchor="start" x="69.5" y="-62.5" font-family="Helvetica,sans-Serif" font-size="10.00">+ GetAdhesionEnergyParameter()</text>
<text text-anchor="start" x="69.5" y="-51.5" font-family="Helvetica,sans-Serif" font-size="10.00">+ SetAdhesionEnergyParameter()</text>
<text text-anchor="start" x="69.5" y="-40.5" font-family="Helvetica,sans-Serif" font-size="10.00">+ CalculateForceBetweenNodes()</text>
<text text-anchor="start" x="69.5" y="-29.5" font-family="Helvetica,sans-Serif" font-size="10.00">+ GetMagnitudeOfForce()</text>
<text text-anchor="start" x="69.5" y="-18.5" font-family="Helvetica,sans-Serif" font-size="10.00">+ OutputForceParameters()</text>
<text text-anchor="start" x="69.5" y="-7.5" font-family="Helvetica,sans-Serif" font-size="10.00">&#45; serialize()</text>
</g>
<!-- Node2 -->
<g id="node2" class="node"><title>Node2</title>
<g id="a_node2"><a xlink:href="classAbstractTwoBodyInteractionForce.html" target="_top" xlink:title="{AbstractTwoBodyInteraction\lForce\&lt; DIM \&gt;\n|# mUseCutOffLength\l# mMechanicsCutOffLength\l|+ AbstractTwoBodyInteraction\lForce()\l+ GetUseCutOffLength()\l+ SetCutOffLength()\l+ GetCutOffLength()\l+ CalculateForceBetweenNodes()\l+ AddForceContribution()\l+ OutputForceParameters()\l+ WriteDataToVisualizerSetupFile()\l&#45; serialize()\l}">
<polygon fill="white" stroke="black" points="58,-172.5 58,-350.5 229,-350.5 229,-172.5 58,-172.5"/>
<text text-anchor="start" x="66" y="-338.5" font-family="Helvetica,sans-Serif" font-size="10.00">AbstractTwoBodyInteraction</text>
<text text-anchor="middle" x="143.5" y="-327.5" font-family="Helvetica,sans-Serif" font-size="10.00">Force&lt; DIM &gt;</text>
<polyline fill="none" stroke="black" points="58,-320.5 229,-320.5 "/>
<text text-anchor="start" x="66" y="-308.5" font-family="Helvetica,sans-Serif" font-size="10.00"># mUseCutOffLength</text>
<text text-anchor="start" x="66" y="-297.5" font-family="Helvetica,sans-Serif" font-size="10.00"># mMechanicsCutOffLength</text>
<polyline fill="none" stroke="black" points="58,-290.5 229,-290.5 "/>
<text text-anchor="start" x="66" y="-278.5" font-family="Helvetica,sans-Serif" font-size="10.00">+ AbstractTwoBodyInteraction</text>
<text text-anchor="start" x="66" y="-267.5" font-family="Helvetica,sans-Serif" font-size="10.00">Force()</text>
<text text-anchor="start" x="66" y="-256.5" font-family="Helvetica,sans-Serif" font-size="10.00">+ GetUseCutOffLength()</text>
<text text-anchor="start" x="66" y="-245.5" font-family="Helvetica,sans-Serif" font-size="10.00">+ SetCutOffLength()</text>
<text text-anchor="start" x="66" y="-234.5" font-family="Helvetica,sans-Serif" font-size="10.00">+ GetCutOffLength()</text>
<text text-anchor="start" x="66" y="-223.5" font-family="Helvetica,sans-Serif" font-size="10.00">+ CalculateForceBetweenNodes()</text>
<text text-anchor="start" x="66" y="-212.5" font-family="Helvetica,sans-Serif" font-size="10.00">+ AddForceContribution()</text>
<text text-anchor="start" x="66" y="-201.5" font-family="Helvetica,sans-Serif" font-size="10.00">+ OutputForceParameters()</text>
<text text-anchor="start" x="66" y="-190.5" font-family="Helvetica,sans-Serif" font-size="10.00">+ WriteDataToVisualizerSetupFile()</text>
<text text-anchor="start" x="66" y="-179.5" font-family="Helvetica,sans-Serif" font-size="10.00">&#45; serialize()</text>
</a>
</g>
</g>
<!-- Node2&#45;&gt;Node1 -->
<g id="edge1" class="edge"><title>Node2&#45;&gt;Node1</title>
<path fill="none" stroke="midnightblue" d="M143.5,-162.211C143.5,-152.846 143.5,-143.511 143.5,-134.561"/>
<polygon fill="none" stroke="midnightblue" points="140,-162.367 143.5,-172.367 147,-162.367 140,-162.367"/>
</g>
<!-- Node3 -->
<g id="node3" class="node"><title>Node3</title>
<g id="a_node3"><a xlink:href="classAbstractForce.html" target="_top" xlink:title="{AbstractForce\&lt; ELEMENT\l_DIM, ELEMENT_DIM \&gt;\n||+ AbstractForce()\l+ ~AbstractForce()\l+ AddForceContribution()\l+ OutputForceInfo()\l+ OutputForceParameters()\l+ WriteDataToVisualizerSetupFile()\l&#45; serialize()\l}">
<polygon fill="white" stroke="black" points="0,-420.5 0,-554.5 171,-554.5 171,-420.5 0,-420.5"/>
<text text-anchor="start" x="8" y="-542.5" font-family="Helvetica,sans-Serif" font-size="10.00">AbstractForce&lt; ELEMENT</text>
<text text-anchor="middle" x="85.5" y="-531.5" font-family="Helvetica,sans-Serif" font-size="10.00">_DIM, ELEMENT_DIM &gt;</text>
<polyline fill="none" stroke="black" points="0,-524.5 171,-524.5 "/>
<text text-anchor="middle" x="85.5" y="-512.5" font-family="Helvetica,sans-Serif" font-size="10.00"> </text>
<polyline fill="none" stroke="black" points="0,-505.5 171,-505.5 "/>
<text text-anchor="start" x="8" y="-493.5" font-family="Helvetica,sans-Serif" font-size="10.00">+ AbstractForce()</text>
<text text-anchor="start" x="8" y="-482.5" font-family="Helvetica,sans-Serif" font-size="10.00">+ ~AbstractForce()</text>
<text text-anchor="start" x="8" y="-471.5" font-family="Helvetica,sans-Serif" font-size="10.00">+ AddForceContribution()</text>
<text text-anchor="start" x="8" y="-460.5" font-family="Helvetica,sans-Serif" font-size="10.00">+ OutputForceInfo()</text>
<text text-anchor="start" x="8" y="-449.5" font-family="Helvetica,sans-Serif" font-size="10.00">+ OutputForceParameters()</text>
<text text-anchor="start" x="8" y="-438.5" font-family="Helvetica,sans-Serif" font-size="10.00">+ WriteDataToVisualizerSetupFile()</text>
<text text-anchor="start" x="8" y="-427.5" font-family="Helvetica,sans-Serif" font-size="10.00">&#45; serialize()</text>
</a>
</g>
</g>
<!-- Node3&#45;&gt;Node2 -->
<g id="edge2" class="edge"><title>Node3&#45;&gt;Node2</title>
<path fill="none" stroke="midnightblue" d="M105.225,-410.322C110.194,-391.13 115.569,-370.37 120.677,-350.645"/>
<polygon fill="none" stroke="midnightblue" points="101.785,-409.644 102.666,-420.202 108.561,-411.398 101.785,-409.644"/>
</g>
<!-- Node4 -->
<g id="node4" class="node"><title>Node4</title>
<g id="a_node4"><a xlink:href="classIdentifiable.html" target="_top" xlink:title="{Identifiable\n||+ ~Identifiable()\l+ GetIdentifier()\l&#45; TidyTemplatedExportIdentifier()\l}">
<polygon fill="white" stroke="black" points="40,-807.5 40,-886.5 199,-886.5 199,-807.5 40,-807.5"/>
<text text-anchor="middle" x="119.5" y="-874.5" font-family="Helvetica,sans-Serif" font-size="10.00">Identifiable</text>
<polyline fill="none" stroke="black" points="40,-867.5 199,-867.5 "/>
<text text-anchor="middle" x="119.5" y="-855.5" font-family="Helvetica,sans-Serif" font-size="10.00"> </text>
<polyline fill="none" stroke="black" points="40,-848.5 199,-848.5 "/>
<text text-anchor="start" x="48" y="-836.5" font-family="Helvetica,sans-Serif" font-size="10.00">+ ~Identifiable()</text>
<text text-anchor="start" x="48" y="-825.5" font-family="Helvetica,sans-Serif" font-size="10.00">+ GetIdentifier()</text>
<text text-anchor="start" x="48" y="-814.5" font-family="Helvetica,sans-Serif" font-size="10.00">&#45; TidyTemplatedExportIdentifier()</text>
</a>
</g>
</g>
<!-- Node4&#45;&gt;Node3 -->
<g id="edge3" class="edge"><title>Node4&#45;&gt;Node3</title>
<path fill="none" stroke="midnightblue" d="M108.959,-797.436C107.26,-788.352 105.675,-778.913 104.5,-770 94.829,-696.671 89.9563,-611.909 87.5862,-554.714"/>
<polygon fill="none" stroke="midnightblue" points="105.57,-798.344 110.911,-807.494 112.442,-797.011 105.57,-798.344"/>
</g>
<!-- Node5 -->
<g id="node5" class="node"><title>Node5</title>
<g id="a_node5"><a xlink:href="classAbstractForce.html" target="_top" xlink:title="{AbstractForce\&lt; ELEMENT\l_DIM, SPACE_DIM \&gt;\n||+ AbstractForce()\l+ ~AbstractForce()\l+ AddForceContribution()\l+ OutputForceInfo()\l+ OutputForceParameters()\l+ WriteDataToVisualizerSetupFile()\l&#45; serialize()\l}">
<polygon fill="white" stroke="black" points="114,-635.5 114,-769.5 285,-769.5 285,-635.5 114,-635.5"/>
<text text-anchor="start" x="122" y="-757.5" font-family="Helvetica,sans-Serif" font-size="10.00">AbstractForce&lt; ELEMENT</text>
<text text-anchor="middle" x="199.5" y="-746.5" font-family="Helvetica,sans-Serif" font-size="10.00">_DIM, SPACE_DIM &gt;</text>
<polyline fill="none" stroke="black" points="114,-739.5 285,-739.5 "/>
<text text-anchor="middle" x="199.5" y="-727.5" font-family="Helvetica,sans-Serif" font-size="10.00"> </text>
<polyline fill="none" stroke="black" points="114,-720.5 285,-720.5 "/>
<text text-anchor="start" x="122" y="-708.5" font-family="Helvetica,sans-Serif" font-size="10.00">+ AbstractForce()</text>
<text text-anchor="start" x="122" y="-697.5" font-family="Helvetica,sans-Serif" font-size="10.00">+ ~AbstractForce()</text>
<text text-anchor="start" x="122" y="-686.5" font-family="Helvetica,sans-Serif" font-size="10.00">+ AddForceContribution()</text>
<text text-anchor="start" x="122" y="-675.5" font-family="Helvetica,sans-Serif" font-size="10.00">+ OutputForceInfo()</text>
<text text-anchor="start" x="122" y="-664.5" font-family="Helvetica,sans-Serif" font-size="10.00">+ OutputForceParameters()</text>
<text text-anchor="start" x="122" y="-653.5" font-family="Helvetica,sans-Serif" font-size="10.00">+ WriteDataToVisualizerSetupFile()</text>
<text text-anchor="start" x="122" y="-642.5" font-family="Helvetica,sans-Serif" font-size="10.00">&#45; serialize()</text>
</a>
</g>
</g>
<!-- Node4&#45;&gt;Node5 -->
<g id="edge5" class="edge"><title>Node4&#45;&gt;Node5</title>
<path fill="none" stroke="midnightblue" d="M146.058,-798.694C151.304,-789.349 156.899,-779.383 162.419,-769.55"/>
<polygon fill="none" stroke="midnightblue" points="142.993,-797.004 141.149,-807.437 149.096,-800.431 142.993,-797.004"/>
</g>
<!-- Node5&#45;&gt;Node3 -->
<g id="edge4" class="edge"><title>Node5&#45;&gt;Node3</title>
<path fill="none" stroke="orange" d="M132.316,-626.652C130.261,-623.458 128.312,-620.235 126.5,-617 115.741,-597.796 107.355,-575.37 101.051,-554.677"/>
<polygon fill="orange" stroke="orange" points="129.482,-628.709 137.983,-635.033 135.281,-624.788 129.482,-628.709"/>
<text text-anchor="start" x="126.5" y="-609" font-family="Helvetica,sans-Serif" font-size="10.00"> &lt; ELEMENT_DIM, ELEMENT</text>
<text text-anchor="middle" x="195" y="-598" font-family="Helvetica,sans-Serif" font-size="10.00">_DIM &gt;</text>
</g>
<!-- Node6 -->
<g id="node6" class="node"><title>Node6</title>
<g id="a_node6"><a xlink:href="classAbstractTwoBodyInteractionForce.html" target="_top" xlink:title="{AbstractTwoBodyInteraction\lForce\&lt; ELEMENT_DIM, SPACE_DIM \&gt;\n|# mUseCutOffLength\l# mMechanicsCutOffLength\l|+ AbstractTwoBodyInteraction\lForce()\l+ GetUseCutOffLength()\l+ SetCutOffLength()\l+ GetCutOffLength()\l+ CalculateForceBetweenNodes()\l+ AddForceContribution()\l+ OutputForceParameters()\l+ WriteDataToVisualizerSetupFile()\l&#45; serialize()\l}">
<polygon fill="white" stroke="black" points="189,-398.5 189,-576.5 384,-576.5 384,-398.5 189,-398.5"/>
<text text-anchor="start" x="197" y="-564.5" font-family="Helvetica,sans-Serif" font-size="10.00">AbstractTwoBodyInteraction</text>
<text text-anchor="middle" x="286.5" y="-553.5" font-family="Helvetica,sans-Serif" font-size="10.00">Force&lt; ELEMENT_DIM, SPACE_DIM &gt;</text>
<polyline fill="none" stroke="black" points="189,-546.5 384,-546.5 "/>
<text text-anchor="start" x="197" y="-534.5" font-family="Helvetica,sans-Serif" font-size="10.00"># mUseCutOffLength</text>
<text text-anchor="start" x="197" y="-523.5" font-family="Helvetica,sans-Serif" font-size="10.00"># mMechanicsCutOffLength</text>
<polyline fill="none" stroke="black" points="189,-516.5 384,-516.5 "/>
<text text-anchor="start" x="197" y="-504.5" font-family="Helvetica,sans-Serif" font-size="10.00">+ AbstractTwoBodyInteraction</text>
<text text-anchor="start" x="197" y="-493.5" font-family="Helvetica,sans-Serif" font-size="10.00">Force()</text>
<text text-anchor="start" x="197" y="-482.5" font-family="Helvetica,sans-Serif" font-size="10.00">+ GetUseCutOffLength()</text>
<text text-anchor="start" x="197" y="-471.5" font-family="Helvetica,sans-Serif" font-size="10.00">+ SetCutOffLength()</text>
<text text-anchor="start" x="197" y="-460.5" font-family="Helvetica,sans-Serif" font-size="10.00">+ GetCutOffLength()</text>
<text text-anchor="start" x="197" y="-449.5" font-family="Helvetica,sans-Serif" font-size="10.00">+ CalculateForceBetweenNodes()</text>
<text text-anchor="start" x="197" y="-438.5" font-family="Helvetica,sans-Serif" font-size="10.00">+ AddForceContribution()</text>
<text text-anchor="start" x="197" y="-427.5" font-family="Helvetica,sans-Serif" font-size="10.00">+ OutputForceParameters()</text>
<text text-anchor="start" x="197" y="-416.5" font-family="Helvetica,sans-Serif" font-size="10.00">+ WriteDataToVisualizerSetupFile()</text>
<text text-anchor="start" x="197" y="-405.5" font-family="Helvetica,sans-Serif" font-size="10.00">&#45; serialize()</text>
</a>
</g>
</g>
<!-- Node5&#45;&gt;Node6 -->
<g id="edge7" class="edge"><title>Node5&#45;&gt;Node6</title>
<path fill="none" stroke="midnightblue" d="M262.865,-626.533C264.545,-623.385 266.1,-620.203 267.5,-617 273.011,-604.396 276.975,-590.502 279.815,-576.65"/>
<polygon fill="none" stroke="midnightblue" points="259.773,-624.89 257.827,-635.304 265.843,-628.377 259.773,-624.89"/>
</g>
<!-- Node6&#45;&gt;Node2 -->
<g id="edge6" class="edge"><title>Node6&#45;&gt;Node2</title>
<path fill="none" stroke="orange" d="M224.76,-389.788C216.452,-376.775 207.966,-363.482 199.761,-350.629"/>
<polygon fill="orange" stroke="orange" points="221.857,-391.745 230.188,-398.291 227.757,-387.979 221.857,-391.745"/>
<text text-anchor="middle" x="235.5" y="-372" font-family="Helvetica,sans-Serif" font-size="10.00"> &lt; DIM &gt;</text>
</g>
</g>
</svg>
