<?xml version="1.0" encoding="UTF-8" standalone="no"?>
<!DOCTYPE svg PUBLIC "-//W3C//DTD SVG 1.1//EN"
 "http://www.w3.org/Graphics/SVG/1.1/DTD/svg11.dtd">
<!-- Generated by graphviz version 2.38.0 (20140413.2041)
 -->
<!-- Title: NonPhysiologicalContractionModel Pages: 1 -->
<svg width="320pt" height="540pt"
 viewBox="0.00 0.00 319.50 540.00" xmlns="http://www.w3.org/2000/svg" xmlns:xlink="http://www.w3.org/1999/xlink">
<g id="graph0" class="graph" transform="scale(1 1) rotate(0) translate(4 536)">
<title>NonPhysiologicalContractionModel</title>
<polygon fill="white" stroke="none" points="-4,4 -4,-536 315.5,-536 315.5,4 -4,4"/>
<!-- Node1 -->
<g id="node1" class="node"><title>Node1</title>
<polygon fill="#bfbfbf" stroke="black" points="115.5,-0.5 115.5,-134.5 267.5,-134.5 267.5,-0.5 115.5,-0.5"/>
<text text-anchor="start" x="123.5" y="-122.5" font-family="Helvetica,sans-Serif" font-size="10.00">NonPhysiologicalContraction</text>
<text text-anchor="middle" x="191.5" y="-111.5" font-family="Helvetica,sans-Serif" font-size="10.00">Model</text>
<polyline fill="none" stroke="black" points="115.5,-104.5 267.5,-104.5 "/>
<text text-anchor="middle" x="191.5" y="-92.5" font-family="Helvetica,sans-Serif" font-size="10.00"> </text>
<polyline fill="none" stroke="black" points="115.5,-85.5 267.5,-85.5 "/>
<text text-anchor="start" x="123.5" y="-73.5" font-family="Helvetica,sans-Serif" font-size="10.00">+ NonPhysiologicalContraction</text>
<text text-anchor="start" x="123.5" y="-62.5" font-family="Helvetica,sans-Serif" font-size="10.00">Model()</text>
<text text-anchor="start" x="123.5" y="-51.5" font-family="Helvetica,sans-Serif" font-size="10.00">+ SetInputParameters()</text>
<text text-anchor="start" x="123.5" y="-40.5" font-family="Helvetica,sans-Serif" font-size="10.00">+ SetStretchAndStretchRate()</text>
<text text-anchor="start" x="123.5" y="-29.5" font-family="Helvetica,sans-Serif" font-size="10.00">+ GetActiveTension()</text>
<text text-anchor="start" x="123.5" y="-18.5" font-family="Helvetica,sans-Serif" font-size="10.00">+ IsStretchDependent()</text>
<text text-anchor="start" x="123.5" y="-7.5" font-family="Helvetica,sans-Serif" font-size="10.00">+ IsStretchRateDependent()</text>
</g>
<!-- Node2 -->
<g id="node2" class="node"><title>Node2</title>
<g id="a_node2"><a xlink:href="classAbstractAlgebraicContractionModel.html" target="_top" xlink:title="{AbstractAlgebraicContraction\lModel\n||+ AbstractAlgebraicContraction\lModel()\l+ RunDoNotUpdate()\l+ RunAndUpdate()\l+ GetNextActiveTension()\l+ UpdateStateVariables()\l}">
<polygon fill="white" stroke="black" points="2,-182.5 2,-305.5 155,-305.5 155,-182.5 2,-182.5"/>
<text text-anchor="start" x="10" y="-293.5" font-family="Helvetica,sans-Serif" font-size="10.00">AbstractAlgebraicContraction</text>
<text text-anchor="middle" x="78.5" y="-282.5" font-family="Helvetica,sans-Serif" font-size="10.00">Model</text>
<polyline fill="none" stroke="black" points="2,-275.5 155,-275.5 "/>
<text text-anchor="middle" x="78.5" y="-263.5" font-family="Helvetica,sans-Serif" font-size="10.00"> </text>
<polyline fill="none" stroke="black" points="2,-256.5 155,-256.5 "/>
<text text-anchor="start" x="10" y="-244.5" font-family="Helvetica,sans-Serif" font-size="10.00">+ AbstractAlgebraicContraction</text>
<text text-anchor="start" x="10" y="-233.5" font-family="Helvetica,sans-Serif" font-size="10.00">Model()</text>
<text text-anchor="start" x="10" y="-222.5" font-family="Helvetica,sans-Serif" font-size="10.00">+ RunDoNotUpdate()</text>
<text text-anchor="start" x="10" y="-211.5" font-family="Helvetica,sans-Serif" font-size="10.00">+ RunAndUpdate()</text>
<text text-anchor="start" x="10" y="-200.5" font-family="Helvetica,sans-Serif" font-size="10.00">+ GetNextActiveTension()</text>
<text text-anchor="start" x="10" y="-189.5" font-family="Helvetica,sans-Serif" font-size="10.00">+ UpdateStateVariables()</text>
</a>
</g>
</g>
<!-- Node2&#45;&gt;Node1 -->
<g id="edge1" class="edge"><title>Node2&#45;&gt;Node1</title>
<path fill="none" stroke="midnightblue" d="M123.169,-174.02C131.577,-161.036 140.351,-147.487 148.7,-134.594"/>
<polygon fill="none" stroke="midnightblue" points="120.203,-172.162 117.705,-182.458 126.078,-175.967 120.203,-172.162"/>
</g>
<!-- Node3 -->
<g id="node3" class="node"><title>Node3</title>
<g id="a_node3"><a xlink:href="classAbstractContractionModel.html" target="_top" xlink:title="{AbstractContractionModel\n||+ AbstractContractionModel()\l+ ~AbstractContractionModel()\l+ IsStretchDependent()\l+ IsStretchRateDependent()\l+ SetInputParameters()\l+ SetStretchAndStretchRate()\l+ SetStretch()\l+ RunDoNotUpdate()\l+ RunAndUpdate()\l+ UpdateStateVariables()\l+ GetActiveTension()\l+ GetNextActiveTension()\l}">
<polygon fill="white" stroke="black" points="0,-353.5 0,-531.5 151,-531.5 151,-353.5 0,-353.5"/>
<text text-anchor="middle" x="75.5" y="-519.5" font-family="Helvetica,sans-Serif" font-size="10.00">AbstractContractionModel</text>
<polyline fill="none" stroke="black" points="0,-512.5 151,-512.5 "/>
<text text-anchor="middle" x="75.5" y="-500.5" font-family="Helvetica,sans-Serif" font-size="10.00"> </text>
<polyline fill="none" stroke="black" points="0,-493.5 151,-493.5 "/>
<text text-anchor="start" x="8" y="-481.5" font-family="Helvetica,sans-Serif" font-size="10.00">+ AbstractContractionModel()</text>
<text text-anchor="start" x="8" y="-470.5" font-family="Helvetica,sans-Serif" font-size="10.00">+ ~AbstractContractionModel()</text>
<text text-anchor="start" x="8" y="-459.5" font-family="Helvetica,sans-Serif" font-size="10.00">+ IsStretchDependent()</text>
<text text-anchor="start" x="8" y="-448.5" font-family="Helvetica,sans-Serif" font-size="10.00">+ IsStretchRateDependent()</text>
<text text-anchor="start" x="8" y="-437.5" font-family="Helvetica,sans-Serif" font-size="10.00">+ SetInputParameters()</text>
<text text-anchor="start" x="8" y="-426.5" font-family="Helvetica,sans-Serif" font-size="10.00">+ SetStretchAndStretchRate()</text>
<text text-anchor="start" x="8" y="-415.5" font-family="Helvetica,sans-Serif" font-size="10.00">+ SetStretch()</text>
<text text-anchor="start" x="8" y="-404.5" font-family="Helvetica,sans-Serif" font-size="10.00">+ RunDoNotUpdate()</text>
<text text-anchor="start" x="8" y="-393.5" font-family="Helvetica,sans-Serif" font-size="10.00">+ RunAndUpdate()</text>
<text text-anchor="start" x="8" y="-382.5" font-family="Helvetica,sans-Serif" font-size="10.00">+ UpdateStateVariables()</text>
<text text-anchor="start" x="8" y="-371.5" font-family="Helvetica,sans-Serif" font-size="10.00">+ GetActiveTension()</text>
<text text-anchor="start" x="8" y="-360.5" font-family="Helvetica,sans-Serif" font-size="10.00">+ GetNextActiveTension()</text>
</a>
</g>
</g>
<!-- Node3&#45;&gt;Node2 -->
<g id="edge2" class="edge"><title>Node3&#45;&gt;Node2</title>
<path fill="none" stroke="midnightblue" d="M77.0027,-343.075C77.1978,-330.296 77.3928,-317.52 77.5746,-305.613"/>
<polygon fill="none" stroke="midnightblue" points="73.4996,-343.256 76.8464,-353.309 80.4988,-343.363 73.4996,-343.256"/>
</g>
<!-- Node4 -->
<g id="node4" class="node"><title>Node4</title>
<g id="a_node4"><a xlink:href="classdouble.html" target="_top" xlink:title="{double\n||}">
<polygon fill="white" stroke="black" points="169,-414 169,-471 214,-471 214,-414 169,-414"/>
<text text-anchor="middle" x="191.5" y="-459" font-family="Helvetica,sans-Serif" font-size="10.00">double</text>
<polyline fill="none" stroke="black" points="169,-452 214,-452 "/>
<text text-anchor="middle" x="191.5" y="-440" font-family="Helvetica,sans-Serif" font-size="10.00"> </text>
<polyline fill="none" stroke="black" points="169,-433 214,-433 "/>
<text text-anchor="middle" x="191.5" y="-421" font-family="Helvetica,sans-Serif" font-size="10.00"> </text>
</a>
</g>
</g>
<!-- Node4&#45;&gt;Node1 -->
<g id="edge4" class="edge"><title>Node4&#45;&gt;Node1</title>
<path fill="none" stroke="#404040" d="M191.5,-413.769C191.5,-357.987 191.5,-230.422 191.5,-146.946"/>
<polygon fill="none" stroke="#404040" points="191.5,-146.709 187.5,-140.709 191.5,-134.709 195.5,-140.709 191.5,-146.709"/>
<text text-anchor="middle" x="214.5" y="-241.5" font-family="Helvetica,sans-Serif" font-size="10.00"> &#45;mStretch</text>
</g>
<!-- Node4&#45;&gt;Node2 -->
<g id="edge3" class="edge"><title>Node4&#45;&gt;Node2</title>
<path fill="none" stroke="#404040" d="M185.432,-413.847C180.493,-395.467 172.223,-371.416 159.5,-353 152.513,-342.886 146.653,-344.2 138.5,-335 133.145,-328.956 127.896,-322.404 122.868,-315.684"/>
<polygon fill="none" stroke="#404040" points="122.717,-315.475 115.957,-312.964 115.674,-305.758 122.434,-308.269 122.717,-315.475"/>
<text text-anchor="middle" x="158" y="-327" font-family="Helvetica,sans-Serif" font-size="10.00"> #mTime</text>
</g>
<!-- Node5 -->
<g id="node5" class="node"><title>Node5</title>
<g id="a_node5"><a xlink:href="classunsigned.html" target="_top" xlink:title="{unsigned\n||}">
<polygon fill="white" stroke="black" points="255.5,-215.5 255.5,-272.5 311.5,-272.5 311.5,-215.5 255.5,-215.5"/>
<text text-anchor="middle" x="283.5" y="-260.5" font-family="Helvetica,sans-Serif" font-size="10.00">unsigned</text>
<polyline fill="none" stroke="black" points="255.5,-253.5 311.5,-253.5 "/>
<text text-anchor="middle" x="283.5" y="-241.5" font-family="Helvetica,sans-Serif" font-size="10.00"> </text>
<polyline fill="none" stroke="black" points="255.5,-234.5 311.5,-234.5 "/>
<text text-anchor="middle" x="283.5" y="-222.5" font-family="Helvetica,sans-Serif" font-size="10.00"> </text>
</a>
</g>
</g>
<!-- Node5&#45;&gt;Node1 -->
<g id="edge5" class="edge"><title>Node5&#45;&gt;Node1</title>
<path fill="none" stroke="#404040" d="M268.922,-215.35C258.992,-196.514 245.319,-170.58 232.224,-145.742"/>
<polygon fill="none" stroke="#404040" points="232.059,-145.429 225.722,-141.987 226.462,-134.814 232.799,-138.256 232.059,-145.429"/>
<text text-anchor="middle" x="262" y="-156" font-family="Helvetica,sans-Serif" font-size="10.00"> &#45;mOption</text>
</g>
</g>
</svg>
