<?xml version="1.0" encoding="UTF-8" standalone="no"?>
<!DOCTYPE svg PUBLIC "-//W3C//DTD SVG 1.1//EN"
 "http://www.w3.org/Graphics/SVG/1.1/DTD/svg11.dtd">
<!-- Generated by graphviz version 2.38.0 (20140413.2041)
 -->
<!-- Title: ShovingCaBasedDivisionRule&lt; SPACE_DIM &gt; Pages: 1 -->
<svg width="178pt" height="441pt"
 viewBox="0.00 0.00 178.00 441.00" xmlns="http://www.w3.org/2000/svg" xmlns:xlink="http://www.w3.org/1999/xlink">
<g id="graph0" class="graph" transform="scale(1 1) rotate(0) translate(4 437)">
<title>ShovingCaBasedDivisionRule&lt; SPACE_DIM &gt;</title>
<polygon fill="white" stroke="none" points="-4,4 -4,-437 174,-437 174,4 -4,4"/>
<!-- Node1 -->
<g id="node1" class="node"><title>Node1</title>
<polygon fill="#bfbfbf" stroke="black" points="0.5,-0.5 0.5,-123.5 169.5,-123.5 169.5,-0.5 0.5,-0.5"/>
<text text-anchor="start" x="8.5" y="-111.5" font-family="Helvetica,sans-Serif" font-size="10.00">ShovingCaBasedDivisionRule</text>
<text text-anchor="middle" x="85" y="-100.5" font-family="Helvetica,sans-Serif" font-size="10.00">&lt; SPACE_DIM &gt;</text>
<polyline fill="none" stroke="black" points="0.5,-93.5 169.5,-93.5 "/>
<text text-anchor="middle" x="85" y="-81.5" font-family="Helvetica,sans-Serif" font-size="10.00"> </text>
<polyline fill="none" stroke="black" points="0.5,-74.5 169.5,-74.5 "/>
<text text-anchor="start" x="8.5" y="-62.5" font-family="Helvetica,sans-Serif" font-size="10.00">+ ShovingCaBasedDivisionRule()</text>
<text text-anchor="start" x="8.5" y="-51.5" font-family="Helvetica,sans-Serif" font-size="10.00">+ ~ShovingCaBasedDivisionRule()</text>
<text text-anchor="start" x="8.5" y="-40.5" font-family="Helvetica,sans-Serif" font-size="10.00">+ IsNodeOnBoundary()</text>
<text text-anchor="start" x="8.5" y="-29.5" font-family="Helvetica,sans-Serif" font-size="10.00">+ IsRoomToDivide()</text>
<text text-anchor="start" x="8.5" y="-18.5" font-family="Helvetica,sans-Serif" font-size="10.00">+ CalculateDaughterNodeIndex()</text>
<text text-anchor="start" x="8.5" y="-7.5" font-family="Helvetica,sans-Serif" font-size="10.00">&#45; serialize()</text>
</g>
<!-- Node2 -->
<g id="node2" class="node"><title>Node2</title>
<g id="a_node2"><a xlink:href="classAbstractCaBasedDivisionRule.html" target="_top" xlink:title="{AbstractCaBasedDivisionRule\l\&lt; SPACE_DIM \&gt;\n||+ AbstractCaBasedDivisionRule()\l+ ~AbstractCaBasedDivisionRule()\l+ IsRoomToDivide()\l+ CalculateDaughterNodeIndex()\l+ OutputCellCaBasedDivision\lRuleInfo()\l# OutputCellCaBasedDivision\lRuleParameters()\l&#45; serialize()\l}">
<polygon fill="white" stroke="black" points="0,-160.5 0,-316.5 170,-316.5 170,-160.5 0,-160.5"/>
<text text-anchor="start" x="8" y="-304.5" font-family="Helvetica,sans-Serif" font-size="10.00">AbstractCaBasedDivisionRule</text>
<text text-anchor="middle" x="85" y="-293.5" font-family="Helvetica,sans-Serif" font-size="10.00">&lt; SPACE_DIM &gt;</text>
<polyline fill="none" stroke="black" points="0,-286.5 170,-286.5 "/>
<text text-anchor="middle" x="85" y="-274.5" font-family="Helvetica,sans-Serif" font-size="10.00"> </text>
<polyline fill="none" stroke="black" points="0,-267.5 170,-267.5 "/>
<text text-anchor="start" x="8" y="-255.5" font-family="Helvetica,sans-Serif" font-size="10.00">+ AbstractCaBasedDivisionRule()</text>
<text text-anchor="start" x="8" y="-244.5" font-family="Helvetica,sans-Serif" font-size="10.00">+ ~AbstractCaBasedDivisionRule()</text>
<text text-anchor="start" x="8" y="-233.5" font-family="Helvetica,sans-Serif" font-size="10.00">+ IsRoomToDivide()</text>
<text text-anchor="start" x="8" y="-222.5" font-family="Helvetica,sans-Serif" font-size="10.00">+ CalculateDaughterNodeIndex()</text>
<text text-anchor="start" x="8" y="-211.5" font-family="Helvetica,sans-Serif" font-size="10.00">+ OutputCellCaBasedDivision</text>
<text text-anchor="start" x="8" y="-200.5" font-family="Helvetica,sans-Serif" font-size="10.00">RuleInfo()</text>
<text text-anchor="start" x="8" y="-189.5" font-family="Helvetica,sans-Serif" font-size="10.00"># OutputCellCaBasedDivision</text>
<text text-anchor="start" x="8" y="-178.5" font-family="Helvetica,sans-Serif" font-size="10.00">RuleParameters()</text>
<text text-anchor="start" x="8" y="-167.5" font-family="Helvetica,sans-Serif" font-size="10.00">&#45; serialize()</text>
</a>
</g>
</g>
<!-- Node2&#45;&gt;Node1 -->
<g id="edge1" class="edge"><title>Node2&#45;&gt;Node1</title>
<path fill="none" stroke="midnightblue" d="M85,-150.302C85,-141.291 85,-132.28 85,-123.653"/>
<polygon fill="none" stroke="midnightblue" points="81.5001,-150.454 85,-160.454 88.5001,-150.454 81.5001,-150.454"/>
</g>
<!-- Node3 -->
<g id="node3" class="node"><title>Node3</title>
<g id="a_node3"><a xlink:href="classIdentifiable.html" target="_top" xlink:title="{Identifiable\n||+ ~Identifiable()\l+ GetIdentifier()\l&#45; TidyTemplatedExportIdentifier()\l}">
<polygon fill="white" stroke="black" points="5.5,-353.5 5.5,-432.5 164.5,-432.5 164.5,-353.5 5.5,-353.5"/>
<text text-anchor="middle" x="85" y="-420.5" font-family="Helvetica,sans-Serif" font-size="10.00">Identifiable</text>
<polyline fill="none" stroke="black" points="5.5,-413.5 164.5,-413.5 "/>
<text text-anchor="middle" x="85" y="-401.5" font-family="Helvetica,sans-Serif" font-size="10.00"> </text>
<polyline fill="none" stroke="black" points="5.5,-394.5 164.5,-394.5 "/>
<text text-anchor="start" x="13.5" y="-382.5" font-family="Helvetica,sans-Serif" font-size="10.00">+ ~Identifiable()</text>
<text text-anchor="start" x="13.5" y="-371.5" font-family="Helvetica,sans-Serif" font-size="10.00">+ GetIdentifier()</text>
<text text-anchor="start" x="13.5" y="-360.5" font-family="Helvetica,sans-Serif" font-size="10.00">&#45; TidyTemplatedExportIdentifier()</text>
</a>
</g>
</g>
<!-- Node3&#45;&gt;Node2 -->
<g id="edge2" class="edge"><title>Node3&#45;&gt;Node2</title>
<path fill="none" stroke="midnightblue" d="M85,-343.08C85,-334.607 85,-325.615 85,-316.608"/>
<polygon fill="none" stroke="midnightblue" points="81.5001,-343.123 85,-353.123 88.5001,-343.123 81.5001,-343.123"/>
</g>
</g>
</svg>
