<?xml version="1.0" encoding="UTF-8" standalone="no"?>
<!DOCTYPE svg PUBLIC "-//W3C//DTD SVG 1.1//EN"
 "http://www.w3.org/Graphics/SVG/1.1/DTD/svg11.dtd">
<!-- Generated by graphviz version 2.38.0 (20140413.2041)
 -->
<!-- Title: boost::random::normal_distribution_v165&lt; RealType &gt;::param_type Pages: 1 -->
<svg width="159pt" height="292pt"
 viewBox="0.00 0.00 159.00 292.00" xmlns="http://www.w3.org/2000/svg" xmlns:xlink="http://www.w3.org/1999/xlink">
<g id="graph0" class="graph" transform="scale(1 1) rotate(0) translate(4 288)">
<title>boost::random::normal_distribution_v165&lt; RealType &gt;::param_type</title>
<polygon fill="white" stroke="none" points="-4,4 -4,-288 155,-288 155,4 -4,4"/>
<!-- Node1 -->
<g id="node1" class="node"><title>Node1</title>
<polygon fill="#bfbfbf" stroke="black" points="0,-0.5 0,-167.5 151,-167.5 151,-0.5 0,-0.5"/>
<text text-anchor="start" x="8" y="-155.5" font-family="Helvetica,sans-Serif" font-size="10.00">boost::random::normal</text>
<text text-anchor="start" x="8" y="-144.5" font-family="Helvetica,sans-Serif" font-size="10.00">_distribution_v165&lt; RealType</text>
<text text-anchor="middle" x="75.5" y="-133.5" font-family="Helvetica,sans-Serif" font-size="10.00"> &gt;::param_type</text>
<polyline fill="none" stroke="black" points="0,-126.5 151,-126.5 "/>
<text text-anchor="middle" x="75.5" y="-114.5" font-family="Helvetica,sans-Serif" font-size="10.00"> </text>
<polyline fill="none" stroke="black" points="0,-107.5 151,-107.5 "/>
<text text-anchor="start" x="8" y="-95.5" font-family="Helvetica,sans-Serif" font-size="10.00">+ param_type()</text>
<text text-anchor="start" x="8" y="-84.5" font-family="Helvetica,sans-Serif" font-size="10.00">+ mean()</text>
<text text-anchor="start" x="8" y="-73.5" font-family="Helvetica,sans-Serif" font-size="10.00">+ sigma()</text>
<text text-anchor="start" x="8" y="-62.5" font-family="Helvetica,sans-Serif" font-size="10.00">+ BOOST_RANDOM_DETAIL</text>
<text text-anchor="start" x="8" y="-51.5" font-family="Helvetica,sans-Serif" font-size="10.00">_OSTREAM_OPERATOR()</text>
<text text-anchor="start" x="8" y="-40.5" font-family="Helvetica,sans-Serif" font-size="10.00">+ BOOST_RANDOM_DETAIL</text>
<text text-anchor="start" x="8" y="-29.5" font-family="Helvetica,sans-Serif" font-size="10.00">_ISTREAM_OPERATOR()</text>
<text text-anchor="start" x="8" y="-18.5" font-family="Helvetica,sans-Serif" font-size="10.00">+ BOOST_RANDOM_DETAIL</text>
<text text-anchor="start" x="8" y="-7.5" font-family="Helvetica,sans-Serif" font-size="10.00">_EQUALITY_OPERATOR()</text>
</g>
<!-- Node2 -->
<g id="node2" class="node"><title>Node2</title>
<polygon fill="white" stroke="#bfbfbf" points="46,-226.5 46,-283.5 105,-283.5 105,-226.5 46,-226.5"/>
<text text-anchor="middle" x="75.5" y="-271.5" font-family="Helvetica,sans-Serif" font-size="10.00">RealType</text>
<polyline fill="none" stroke="#bfbfbf" points="46,-264.5 105,-264.5 "/>
<text text-anchor="middle" x="75.5" y="-252.5" font-family="Helvetica,sans-Serif" font-size="10.00"> </text>
<polyline fill="none" stroke="#bfbfbf" points="46,-245.5 105,-245.5 "/>
<text text-anchor="middle" x="75.5" y="-233.5" font-family="Helvetica,sans-Serif" font-size="10.00"> </text>
</g>
<!-- Node2&#45;&gt;Node1 -->
<g id="edge1" class="edge"><title>Node2&#45;&gt;Node1</title>
<path fill="none" stroke="#404040" d="M75.5,-226.471C75.5,-213.45 75.5,-197.052 75.5,-180.075"/>
<polygon fill="none" stroke="#404040" points="75.5001,-179.65 71.5,-173.65 75.5,-167.65 79.5,-173.65 75.5001,-179.65"/>
<text text-anchor="middle" x="93.5" y="-200" font-family="Helvetica,sans-Serif" font-size="10.00"> &#45;_mean</text>
<text text-anchor="middle" x="93.5" y="-189" font-family="Helvetica,sans-Serif" font-size="10.00">&#45;_sigma</text>
</g>
</g>
</svg>
