<?xml version="1.0" encoding="UTF-8" standalone="no"?>
<!DOCTYPE svg PUBLIC "-//W3C//DTD SVG 1.1//EN"
 "http://www.w3.org/Graphics/SVG/1.1/DTD/svg11.dtd">
<!-- Generated by graphviz version 2.38.0 (20140413.2041)
 -->
<!-- Title: GaussianQuadratureRule&lt; ELEMENT_DIM &gt; Pages: 1 -->
<svg width="634pt" height="336pt"
 viewBox="0.00 0.00 634.00 336.00" xmlns="http://www.w3.org/2000/svg" xmlns:xlink="http://www.w3.org/1999/xlink">
<g id="graph0" class="graph" transform="scale(1 1) rotate(0) translate(4 332)">
<title>GaussianQuadratureRule&lt; ELEMENT_DIM &gt;</title>
<polygon fill="white" stroke="none" points="-4,4 -4,-332 630,-332 630,4 -4,4"/>
<!-- Node1 -->
<g id="node1" class="node"><title>Node1</title>
<polygon fill="#bfbfbf" stroke="black" points="244,-171.5 244,-327.5 385,-327.5 385,-171.5 244,-171.5"/>
<text text-anchor="start" x="252" y="-315.5" font-family="Helvetica,sans-Serif" font-size="10.00">GaussianQuadratureRule</text>
<text text-anchor="middle" x="314.5" y="-304.5" font-family="Helvetica,sans-Serif" font-size="10.00">&lt; ELEMENT_DIM &gt;</text>
<polyline fill="none" stroke="black" points="244,-297.5 385,-297.5 "/>
<text text-anchor="start" x="252" y="-285.5" font-family="Helvetica,sans-Serif" font-size="10.00">&#45; mNumQuadPoints</text>
<text text-anchor="start" x="252" y="-274.5" font-family="Helvetica,sans-Serif" font-size="10.00">&#45; mPoints</text>
<text text-anchor="start" x="252" y="-263.5" font-family="Helvetica,sans-Serif" font-size="10.00">&#45; mWeights</text>
<polyline fill="none" stroke="black" points="244,-256.5 385,-256.5 "/>
<text text-anchor="start" x="252" y="-244.5" font-family="Helvetica,sans-Serif" font-size="10.00">+ GaussianQuadratureRule()</text>
<text text-anchor="start" x="252" y="-233.5" font-family="Helvetica,sans-Serif" font-size="10.00">+ rGetQuadPoint()</text>
<text text-anchor="start" x="252" y="-222.5" font-family="Helvetica,sans-Serif" font-size="10.00">+ GetWeight()</text>
<text text-anchor="start" x="252" y="-211.5" font-family="Helvetica,sans-Serif" font-size="10.00">+ GetNumQuadPoints()</text>
<text text-anchor="start" x="252" y="-200.5" font-family="Helvetica,sans-Serif" font-size="10.00">+ GaussianQuadratureRule()</text>
<text text-anchor="start" x="252" y="-189.5" font-family="Helvetica,sans-Serif" font-size="10.00">+ GaussianQuadratureRule()</text>
<text text-anchor="start" x="252" y="-178.5" font-family="Helvetica,sans-Serif" font-size="10.00">+ GaussianQuadratureRule()</text>
</g>
<!-- Node2 -->
<g id="node2" class="node"><title>Node2</title>
<g id="a_node2"><a xlink:href="classGaussianQuadratureRule.html" target="_top" xlink:title="{GaussianQuadratureRule\l\&lt; DIM \&gt;\n|&#45; mNumQuadPoints\l&#45; mPoints\l&#45; mWeights\l|+ GaussianQuadratureRule()\l+ rGetQuadPoint()\l+ GetWeight()\l+ GetNumQuadPoints()\l}">
<polygon fill="white" stroke="black" points="0,-0.5 0,-123.5 141,-123.5 141,-0.5 0,-0.5"/>
<text text-anchor="start" x="8" y="-111.5" font-family="Helvetica,sans-Serif" font-size="10.00">GaussianQuadratureRule</text>
<text text-anchor="middle" x="70.5" y="-100.5" font-family="Helvetica,sans-Serif" font-size="10.00">&lt; DIM &gt;</text>
<polyline fill="none" stroke="black" points="0,-93.5 141,-93.5 "/>
<text text-anchor="start" x="8" y="-81.5" font-family="Helvetica,sans-Serif" font-size="10.00">&#45; mNumQuadPoints</text>
<text text-anchor="start" x="8" y="-70.5" font-family="Helvetica,sans-Serif" font-size="10.00">&#45; mPoints</text>
<text text-anchor="start" x="8" y="-59.5" font-family="Helvetica,sans-Serif" font-size="10.00">&#45; mWeights</text>
<polyline fill="none" stroke="black" points="0,-52.5 141,-52.5 "/>
<text text-anchor="start" x="8" y="-40.5" font-family="Helvetica,sans-Serif" font-size="10.00">+ GaussianQuadratureRule()</text>
<text text-anchor="start" x="8" y="-29.5" font-family="Helvetica,sans-Serif" font-size="10.00">+ rGetQuadPoint()</text>
<text text-anchor="start" x="8" y="-18.5" font-family="Helvetica,sans-Serif" font-size="10.00">+ GetWeight()</text>
<text text-anchor="start" x="8" y="-7.5" font-family="Helvetica,sans-Serif" font-size="10.00">+ GetNumQuadPoints()</text>
</a>
</g>
</g>
<!-- Node1&#45;&gt;Node2 -->
<g id="edge1" class="edge"><title>Node1&#45;&gt;Node2</title>
<path fill="none" stroke="orange" d="M235.721,-189.337C208.373,-168.725 177.539,-145.403 149.5,-124 146.745,-121.897 143.939,-119.751 141.105,-117.58"/>
<polygon fill="orange" stroke="orange" points="233.618,-192.135 243.711,-195.358 237.831,-186.545 233.618,-192.135"/>
<text text-anchor="middle" x="206.5" y="-145" font-family="Helvetica,sans-Serif" font-size="10.00"> &lt; DIM &gt;</text>
</g>
<!-- Node3 -->
<g id="node3" class="node"><title>Node3</title>
<g id="a_node3"><a xlink:href="classGaussianQuadratureRule.html" target="_top" xlink:title="{GaussianQuadratureRule\&lt; 1 \&gt;\n|&#45; mNumQuadPoints\l&#45; mPoints\l&#45; mWeights\l|+ GaussianQuadratureRule()\l+ rGetQuadPoint()\l+ GetWeight()\l+ GetNumQuadPoints()\l}">
<polygon fill="white" stroke="black" points="159,-6 159,-118 308,-118 308,-6 159,-6"/>
<text text-anchor="middle" x="233.5" y="-106" font-family="Helvetica,sans-Serif" font-size="10.00">GaussianQuadratureRule&lt; 1 &gt;</text>
<polyline fill="none" stroke="black" points="159,-99 308,-99 "/>
<text text-anchor="start" x="167" y="-87" font-family="Helvetica,sans-Serif" font-size="10.00">&#45; mNumQuadPoints</text>
<text text-anchor="start" x="167" y="-76" font-family="Helvetica,sans-Serif" font-size="10.00">&#45; mPoints</text>
<text text-anchor="start" x="167" y="-65" font-family="Helvetica,sans-Serif" font-size="10.00">&#45; mWeights</text>
<polyline fill="none" stroke="black" points="159,-58 308,-58 "/>
<text text-anchor="start" x="167" y="-46" font-family="Helvetica,sans-Serif" font-size="10.00">+ GaussianQuadratureRule()</text>
<text text-anchor="start" x="167" y="-35" font-family="Helvetica,sans-Serif" font-size="10.00">+ rGetQuadPoint()</text>
<text text-anchor="start" x="167" y="-24" font-family="Helvetica,sans-Serif" font-size="10.00">+ GetWeight()</text>
<text text-anchor="start" x="167" y="-13" font-family="Helvetica,sans-Serif" font-size="10.00">+ GetNumQuadPoints()</text>
</a>
</g>
</g>
<!-- Node1&#45;&gt;Node3 -->
<g id="edge2" class="edge"><title>Node1&#45;&gt;Node3</title>
<path fill="none" stroke="orange" d="M276.793,-162.147C270.244,-147.148 263.596,-131.924 257.541,-118.056"/>
<polygon fill="orange" stroke="orange" points="273.643,-163.679 280.852,-171.443 280.058,-160.878 273.643,-163.679"/>
<text text-anchor="middle" x="286" y="-145" font-family="Helvetica,sans-Serif" font-size="10.00"> &lt; 1 &gt;</text>
</g>
<!-- Node4 -->
<g id="node4" class="node"><title>Node4</title>
<g id="a_node4"><a xlink:href="classGaussianQuadratureRule.html" target="_top" xlink:title="{GaussianQuadratureRule\l\&lt; ELEMENT_DIM&#45;1 \&gt;\n|&#45; mNumQuadPoints\l&#45; mPoints\l&#45; mWeights\l|+ GaussianQuadratureRule()\l+ rGetQuadPoint()\l+ GetWeight()\l+ GetNumQuadPoints()\l}">
<polygon fill="white" stroke="black" points="326,-0.5 326,-123.5 467,-123.5 467,-0.5 326,-0.5"/>
<text text-anchor="start" x="334" y="-111.5" font-family="Helvetica,sans-Serif" font-size="10.00">GaussianQuadratureRule</text>
<text text-anchor="middle" x="396.5" y="-100.5" font-family="Helvetica,sans-Serif" font-size="10.00">&lt; ELEMENT_DIM&#45;1 &gt;</text>
<polyline fill="none" stroke="black" points="326,-93.5 467,-93.5 "/>
<text text-anchor="start" x="334" y="-81.5" font-family="Helvetica,sans-Serif" font-size="10.00">&#45; mNumQuadPoints</text>
<text text-anchor="start" x="334" y="-70.5" font-family="Helvetica,sans-Serif" font-size="10.00">&#45; mPoints</text>
<text text-anchor="start" x="334" y="-59.5" font-family="Helvetica,sans-Serif" font-size="10.00">&#45; mWeights</text>
<polyline fill="none" stroke="black" points="326,-52.5 467,-52.5 "/>
<text text-anchor="start" x="334" y="-40.5" font-family="Helvetica,sans-Serif" font-size="10.00">+ GaussianQuadratureRule()</text>
<text text-anchor="start" x="334" y="-29.5" font-family="Helvetica,sans-Serif" font-size="10.00">+ rGetQuadPoint()</text>
<text text-anchor="start" x="334" y="-18.5" font-family="Helvetica,sans-Serif" font-size="10.00">+ GetWeight()</text>
<text text-anchor="start" x="334" y="-7.5" font-family="Helvetica,sans-Serif" font-size="10.00">+ GetNumQuadPoints()</text>
</a>
</g>
</g>
<!-- Node1&#45;&gt;Node4 -->
<g id="edge3" class="edge"><title>Node1&#45;&gt;Node4</title>
<path fill="none" stroke="orange" d="M352.714,-162.052C358.441,-149.096 364.241,-135.976 369.664,-123.708"/>
<polygon fill="orange" stroke="orange" points="349.405,-160.882 348.563,-171.443 355.807,-163.712 349.405,-160.882"/>
<text text-anchor="middle" x="410" y="-145" font-family="Helvetica,sans-Serif" font-size="10.00"> &lt; ELEMENT_DIM&#45;1 &gt;</text>
</g>
<!-- Node5 -->
<g id="node5" class="node"><title>Node5</title>
<g id="a_node5"><a xlink:href="classGaussianQuadratureRule.html" target="_top" xlink:title="{GaussianQuadratureRule\l\&lt; DIM&#45;1 \&gt;\n|&#45; mNumQuadPoints\l&#45; mPoints\l&#45; mWeights\l|+ GaussianQuadratureRule()\l+ rGetQuadPoint()\l+ GetWeight()\l+ GetNumQuadPoints()\l}">
<polygon fill="white" stroke="black" points="485,-0.5 485,-123.5 626,-123.5 626,-0.5 485,-0.5"/>
<text text-anchor="start" x="493" y="-111.5" font-family="Helvetica,sans-Serif" font-size="10.00">GaussianQuadratureRule</text>
<text text-anchor="middle" x="555.5" y="-100.5" font-family="Helvetica,sans-Serif" font-size="10.00">&lt; DIM&#45;1 &gt;</text>
<polyline fill="none" stroke="black" points="485,-93.5 626,-93.5 "/>
<text text-anchor="start" x="493" y="-81.5" font-family="Helvetica,sans-Serif" font-size="10.00">&#45; mNumQuadPoints</text>
<text text-anchor="start" x="493" y="-70.5" font-family="Helvetica,sans-Serif" font-size="10.00">&#45; mPoints</text>
<text text-anchor="start" x="493" y="-59.5" font-family="Helvetica,sans-Serif" font-size="10.00">&#45; mWeights</text>
<polyline fill="none" stroke="black" points="485,-52.5 626,-52.5 "/>
<text text-anchor="start" x="493" y="-40.5" font-family="Helvetica,sans-Serif" font-size="10.00">+ GaussianQuadratureRule()</text>
<text text-anchor="start" x="493" y="-29.5" font-family="Helvetica,sans-Serif" font-size="10.00">+ rGetQuadPoint()</text>
<text text-anchor="start" x="493" y="-18.5" font-family="Helvetica,sans-Serif" font-size="10.00">+ GetWeight()</text>
<text text-anchor="start" x="493" y="-7.5" font-family="Helvetica,sans-Serif" font-size="10.00">+ GetNumQuadPoints()</text>
</a>
</g>
</g>
<!-- Node1&#45;&gt;Node5 -->
<g id="edge4" class="edge"><title>Node1&#45;&gt;Node5</title>
<path fill="none" stroke="orange" d="M393.866,-202.381C417.325,-187.593 442.577,-170.49 464.5,-153 475.616,-144.131 486.862,-134.072 497.478,-123.971"/>
<polygon fill="orange" stroke="orange" points="391.943,-199.456 385.314,-207.721 395.65,-205.394 391.943,-199.456"/>
<text text-anchor="middle" x="499" y="-145" font-family="Helvetica,sans-Serif" font-size="10.00"> &lt; DIM&#45;1 &gt;</text>
</g>
</g>
</svg>
