<?xml version="1.0" encoding="UTF-8" standalone="no"?>
<!DOCTYPE svg PUBLIC "-//W3C//DTD SVG 1.1//EN"
 "http://www.w3.org/Graphics/SVG/1.1/DTD/svg11.dtd">
<!-- Generated by graphviz version 2.38.0 (20140413.2041)
 -->
<!-- Title: UniformSourceParabolicPde&lt; DIM &gt; Pages: 1 -->
<svg width="305pt" height="624pt"
 viewBox="0.00 0.00 304.50 624.00" xmlns="http://www.w3.org/2000/svg" xmlns:xlink="http://www.w3.org/1999/xlink">
<g id="graph0" class="graph" transform="scale(1 1) rotate(0) translate(4 620)">
<title>UniformSourceParabolicPde&lt; DIM &gt;</title>
<polygon fill="white" stroke="none" points="-4,4 -4,-620 300.5,-620 300.5,4 -4,4"/>
<!-- Node1 -->
<g id="node1" class="node"><title>Node1</title>
<polygon fill="#bfbfbf" stroke="black" points="97,-0.5 97,-123.5 276,-123.5 276,-0.5 97,-0.5"/>
<text text-anchor="start" x="105" y="-111.5" font-family="Helvetica,sans-Serif" font-size="10.00">UniformSourceParabolicPde</text>
<text text-anchor="middle" x="186.5" y="-100.5" font-family="Helvetica,sans-Serif" font-size="10.00">&lt; DIM &gt;</text>
<polyline fill="none" stroke="black" points="97,-93.5 276,-93.5 "/>
<text text-anchor="middle" x="186.5" y="-81.5" font-family="Helvetica,sans-Serif" font-size="10.00"> </text>
<polyline fill="none" stroke="black" points="97,-74.5 276,-74.5 "/>
<text text-anchor="start" x="105" y="-62.5" font-family="Helvetica,sans-Serif" font-size="10.00">+ UniformSourceParabolicPde()</text>
<text text-anchor="start" x="105" y="-51.5" font-family="Helvetica,sans-Serif" font-size="10.00">+ GetCoefficient()</text>
<text text-anchor="start" x="105" y="-40.5" font-family="Helvetica,sans-Serif" font-size="10.00">+ ComputeSourceTerm()</text>
<text text-anchor="start" x="105" y="-29.5" font-family="Helvetica,sans-Serif" font-size="10.00">+ ComputeDiffusionTerm()</text>
<text text-anchor="start" x="105" y="-18.5" font-family="Helvetica,sans-Serif" font-size="10.00">+ ComputeDuDtCoefficientFunction()</text>
<text text-anchor="start" x="105" y="-7.5" font-family="Helvetica,sans-Serif" font-size="10.00">&#45; serialize()</text>
</g>
<!-- Node2 -->
<g id="node2" class="node"><title>Node2</title>
<g id="a_node2"><a xlink:href="classAbstractLinearParabolicPde.html" target="_top" xlink:title="{AbstractLinearParabolicPde\l\&lt; DIM, DIM \&gt;\n||+ AbstractLinearParabolicPde()\l+ ~AbstractLinearParabolicPde()\l+ ComputeDuDtCoefficientFunction()\l+ ComputeSourceTerm()\l+ ComputeSourceTermAtNode()\l+ ComputeDiffusionTerm()\l&#45; serialize()\l}">
<polygon fill="white" stroke="black" points="0,-171.5 0,-305.5 179,-305.5 179,-171.5 0,-171.5"/>
<text text-anchor="start" x="8" y="-293.5" font-family="Helvetica,sans-Serif" font-size="10.00">AbstractLinearParabolicPde</text>
<text text-anchor="middle" x="89.5" y="-282.5" font-family="Helvetica,sans-Serif" font-size="10.00">&lt; DIM, DIM &gt;</text>
<polyline fill="none" stroke="black" points="0,-275.5 179,-275.5 "/>
<text text-anchor="middle" x="89.5" y="-263.5" font-family="Helvetica,sans-Serif" font-size="10.00"> </text>
<polyline fill="none" stroke="black" points="0,-256.5 179,-256.5 "/>
<text text-anchor="start" x="8" y="-244.5" font-family="Helvetica,sans-Serif" font-size="10.00">+ AbstractLinearParabolicPde()</text>
<text text-anchor="start" x="8" y="-233.5" font-family="Helvetica,sans-Serif" font-size="10.00">+ ~AbstractLinearParabolicPde()</text>
<text text-anchor="start" x="8" y="-222.5" font-family="Helvetica,sans-Serif" font-size="10.00">+ ComputeDuDtCoefficientFunction()</text>
<text text-anchor="start" x="8" y="-211.5" font-family="Helvetica,sans-Serif" font-size="10.00">+ ComputeSourceTerm()</text>
<text text-anchor="start" x="8" y="-200.5" font-family="Helvetica,sans-Serif" font-size="10.00">+ ComputeSourceTermAtNode()</text>
<text text-anchor="start" x="8" y="-189.5" font-family="Helvetica,sans-Serif" font-size="10.00">+ ComputeDiffusionTerm()</text>
<text text-anchor="start" x="8" y="-178.5" font-family="Helvetica,sans-Serif" font-size="10.00">&#45; serialize()</text>
</a>
</g>
</g>
<!-- Node2&#45;&gt;Node1 -->
<g id="edge1" class="edge"><title>Node2&#45;&gt;Node1</title>
<path fill="none" stroke="midnightblue" d="M131.374,-162.169C138.547,-149.267 145.916,-136.009 152.839,-123.555"/>
<polygon fill="none" stroke="midnightblue" points="128.248,-160.59 126.448,-171.031 134.366,-163.991 128.248,-160.59"/>
</g>
<!-- Node3 -->
<g id="node3" class="node"><title>Node3</title>
<g id="a_node3"><a xlink:href="classAbstractLinearPde.html" target="_top" xlink:title="{AbstractLinearPde\&lt;\l ELEMENT_DIM, SPACE_DIM \&gt;\n||+ AbstractLinearPde()\l+ ~AbstractLinearPde()\l&#45; serialize()\l}">
<polygon fill="white" stroke="black" points="26.5,-525.5 26.5,-615.5 190.5,-615.5 190.5,-525.5 26.5,-525.5"/>
<text text-anchor="start" x="34.5" y="-603.5" font-family="Helvetica,sans-Serif" font-size="10.00">AbstractLinearPde&lt;</text>
<text text-anchor="middle" x="108.5" y="-592.5" font-family="Helvetica,sans-Serif" font-size="10.00"> ELEMENT_DIM, SPACE_DIM &gt;</text>
<polyline fill="none" stroke="black" points="26.5,-585.5 190.5,-585.5 "/>
<text text-anchor="middle" x="108.5" y="-573.5" font-family="Helvetica,sans-Serif" font-size="10.00"> </text>
<polyline fill="none" stroke="black" points="26.5,-566.5 190.5,-566.5 "/>
<text text-anchor="start" x="34.5" y="-554.5" font-family="Helvetica,sans-Serif" font-size="10.00">+ AbstractLinearPde()</text>
<text text-anchor="start" x="34.5" y="-543.5" font-family="Helvetica,sans-Serif" font-size="10.00">+ ~AbstractLinearPde()</text>
<text text-anchor="start" x="34.5" y="-532.5" font-family="Helvetica,sans-Serif" font-size="10.00">&#45; serialize()</text>
</a>
</g>
</g>
<!-- Node3&#45;&gt;Node2 -->
<g id="edge2" class="edge"><title>Node3&#45;&gt;Node2</title>
<path fill="none" stroke="midnightblue" d="M96.425,-515.24C94.8201,-506.185 93.4153,-496.858 92.5,-488 86.1364,-426.414 85.9644,-355.79 87.0421,-305.611"/>
<polygon fill="none" stroke="midnightblue" points="93.0289,-516.121 98.3066,-525.307 99.9098,-514.834 93.0289,-516.121"/>
</g>
<!-- Node4 -->
<g id="node4" class="node"><title>Node4</title>
<g id="a_node4"><a xlink:href="classAbstractLinearParabolicPde.html" target="_top" xlink:title="{AbstractLinearParabolicPde\l\&lt; ELEMENT_DIM, SPACE_DIM \&gt;\n||+ AbstractLinearParabolicPde()\l+ ~AbstractLinearParabolicPde()\l+ ComputeDuDtCoefficientFunction()\l+ ComputeSourceTerm()\l+ ComputeSourceTermAtNode()\l+ ComputeDiffusionTerm()\l&#45; serialize()\l}">
<polygon fill="white" stroke="black" points="102,-353.5 102,-487.5 281,-487.5 281,-353.5 102,-353.5"/>
<text text-anchor="start" x="110" y="-475.5" font-family="Helvetica,sans-Serif" font-size="10.00">AbstractLinearParabolicPde</text>
<text text-anchor="middle" x="191.5" y="-464.5" font-family="Helvetica,sans-Serif" font-size="10.00">&lt; ELEMENT_DIM, SPACE_DIM &gt;</text>
<polyline fill="none" stroke="black" points="102,-457.5 281,-457.5 "/>
<text text-anchor="middle" x="191.5" y="-445.5" font-family="Helvetica,sans-Serif" font-size="10.00"> </text>
<polyline fill="none" stroke="black" points="102,-438.5 281,-438.5 "/>
<text text-anchor="start" x="110" y="-426.5" font-family="Helvetica,sans-Serif" font-size="10.00">+ AbstractLinearParabolicPde()</text>
<text text-anchor="start" x="110" y="-415.5" font-family="Helvetica,sans-Serif" font-size="10.00">+ ~AbstractLinearParabolicPde()</text>
<text text-anchor="start" x="110" y="-404.5" font-family="Helvetica,sans-Serif" font-size="10.00">+ ComputeDuDtCoefficientFunction()</text>
<text text-anchor="start" x="110" y="-393.5" font-family="Helvetica,sans-Serif" font-size="10.00">+ ComputeSourceTerm()</text>
<text text-anchor="start" x="110" y="-382.5" font-family="Helvetica,sans-Serif" font-size="10.00">+ ComputeSourceTermAtNode()</text>
<text text-anchor="start" x="110" y="-371.5" font-family="Helvetica,sans-Serif" font-size="10.00">+ ComputeDiffusionTerm()</text>
<text text-anchor="start" x="110" y="-360.5" font-family="Helvetica,sans-Serif" font-size="10.00">&#45; serialize()</text>
</a>
</g>
</g>
<!-- Node3&#45;&gt;Node4 -->
<g id="edge4" class="edge"><title>Node3&#45;&gt;Node4</title>
<path fill="none" stroke="midnightblue" d="M138.15,-516.631C143.438,-507.201 149.006,-497.272 154.47,-487.53"/>
<polygon fill="none" stroke="midnightblue" points="135.017,-515.062 133.178,-525.496 141.122,-518.486 135.017,-515.062"/>
</g>
<!-- Node4&#45;&gt;Node2 -->
<g id="edge3" class="edge"><title>Node4&#45;&gt;Node2</title>
<path fill="none" stroke="orange" d="M149.087,-344.653C141.782,-331.762 134.234,-318.443 127.068,-305.796"/>
<polygon fill="orange" stroke="orange" points="146.123,-346.522 154.098,-353.497 152.213,-343.071 146.123,-346.522"/>
<text text-anchor="middle" x="177" y="-327" font-family="Helvetica,sans-Serif" font-size="10.00"> &lt; DIM, DIM &gt;</text>
</g>
<!-- Node5 -->
<g id="node5" class="node"><title>Node5</title>
<g id="a_node5"><a xlink:href="classdouble.html" target="_top" xlink:title="{double\n||}">
<polygon fill="white" stroke="black" points="197,-210 197,-267 242,-267 242,-210 197,-210"/>
<text text-anchor="middle" x="219.5" y="-255" font-family="Helvetica,sans-Serif" font-size="10.00">double</text>
<polyline fill="none" stroke="black" points="197,-248 242,-248 "/>
<text text-anchor="middle" x="219.5" y="-236" font-family="Helvetica,sans-Serif" font-size="10.00"> </text>
<polyline fill="none" stroke="black" points="197,-229 242,-229 "/>
<text text-anchor="middle" x="219.5" y="-217" font-family="Helvetica,sans-Serif" font-size="10.00"> </text>
</a>
</g>
</g>
<!-- Node5&#45;&gt;Node1 -->
<g id="edge5" class="edge"><title>Node5&#45;&gt;Node1</title>
<path fill="none" stroke="#404040" d="M214.271,-209.85C210.489,-189.849 205.192,-161.843 200.238,-135.646"/>
<polygon fill="none" stroke="#404040" points="200.222,-135.562 195.177,-130.41 197.993,-123.771 203.038,-128.924 200.222,-135.562"/>
<text text-anchor="middle" x="250" y="-145" font-family="Helvetica,sans-Serif" font-size="10.00"> &#45;mSourceCoefficient</text>
</g>
</g>
</svg>
