<?xml version="1.0" encoding="UTF-8" standalone="no"?>
<!DOCTYPE svg PUBLIC "-//W3C//DTD SVG 1.1//EN"
 "http://www.w3.org/Graphics/SVG/1.1/DTD/svg11.dtd">
<!-- Generated by graphviz version 2.38.0 (20140413.2041)
 -->
<!-- Title: StiffnessMatrixAssembler&lt; ELEMENT_DIM, SPACE_DIM &gt; Pages: 1 -->
<svg width="1076pt" height="1197pt"
 viewBox="0.00 0.00 1075.50 1197.00" xmlns="http://www.w3.org/2000/svg" xmlns:xlink="http://www.w3.org/1999/xlink">
<g id="graph0" class="graph" transform="scale(1 1) rotate(0) translate(4 1193)">
<title>StiffnessMatrixAssembler&lt; ELEMENT_DIM, SPACE_DIM &gt;</title>
<polygon fill="white" stroke="none" points="-4,4 -4,-1193 1071.5,-1193 1071.5,4 -4,4"/>
<!-- Node1 -->
<g id="node1" class="node"><title>Node1</title>
<polygon fill="#bfbfbf" stroke="black" points="736.5,-0.5 736.5,-79.5 906.5,-79.5 906.5,-0.5 736.5,-0.5"/>
<text text-anchor="start" x="744.5" y="-67.5" font-family="Helvetica,sans-Serif" font-size="10.00">StiffnessMatrixAssembler</text>
<text text-anchor="middle" x="821.5" y="-56.5" font-family="Helvetica,sans-Serif" font-size="10.00">&lt; ELEMENT_DIM, SPACE_DIM &gt;</text>
<polyline fill="none" stroke="black" points="736.5,-49.5 906.5,-49.5 "/>
<text text-anchor="middle" x="821.5" y="-37.5" font-family="Helvetica,sans-Serif" font-size="10.00"> </text>
<polyline fill="none" stroke="black" points="736.5,-30.5 906.5,-30.5 "/>
<text text-anchor="start" x="744.5" y="-18.5" font-family="Helvetica,sans-Serif" font-size="10.00">+ ComputeMatrixTerm()</text>
<text text-anchor="start" x="744.5" y="-7.5" font-family="Helvetica,sans-Serif" font-size="10.00">+ StiffnessMatrixAssembler()</text>
</g>
<!-- Node2 -->
<g id="node2" class="node"><title>Node2</title>
<g id="a_node2"><a xlink:href="classAbstractFeVolumeIntegralAssembler.html" target="_top" xlink:title="{AbstractFeVolumeIntegral\lAssembler\&lt; ELEMENT_DIM,\l SPACE_DIM, 1, false, true,\l NORMAL \&gt;\n||+ AbstractFeVolumeIntegral\lAssembler()\l+ ~AbstractFeVolumeIntegral\lAssembler()\l# ComputeTransformedBasisFunction\lDerivatives()\l# DoAssemble()\l# ComputeMatrixTerm()\l# ComputeVectorTerm()\l# AssembleOnElement()\l# ElementAssemblyCriterion()\l}">
<polygon fill="white" stroke="black" points="730.5,-117.5 730.5,-317.5 912.5,-317.5 912.5,-117.5 730.5,-117.5"/>
<text text-anchor="start" x="738.5" y="-305.5" font-family="Helvetica,sans-Serif" font-size="10.00">AbstractFeVolumeIntegral</text>
<text text-anchor="start" x="738.5" y="-294.5" font-family="Helvetica,sans-Serif" font-size="10.00">Assembler&lt; ELEMENT_DIM,</text>
<text text-anchor="start" x="738.5" y="-283.5" font-family="Helvetica,sans-Serif" font-size="10.00"> SPACE_DIM, 1, false, true,</text>
<text text-anchor="middle" x="821.5" y="-272.5" font-family="Helvetica,sans-Serif" font-size="10.00"> NORMAL &gt;</text>
<polyline fill="none" stroke="black" points="730.5,-265.5 912.5,-265.5 "/>
<text text-anchor="middle" x="821.5" y="-253.5" font-family="Helvetica,sans-Serif" font-size="10.00"> </text>
<polyline fill="none" stroke="black" points="730.5,-246.5 912.5,-246.5 "/>
<text text-anchor="start" x="738.5" y="-234.5" font-family="Helvetica,sans-Serif" font-size="10.00">+ AbstractFeVolumeIntegral</text>
<text text-anchor="start" x="738.5" y="-223.5" font-family="Helvetica,sans-Serif" font-size="10.00">Assembler()</text>
<text text-anchor="start" x="738.5" y="-212.5" font-family="Helvetica,sans-Serif" font-size="10.00">+ ~AbstractFeVolumeIntegral</text>
<text text-anchor="start" x="738.5" y="-201.5" font-family="Helvetica,sans-Serif" font-size="10.00">Assembler()</text>
<text text-anchor="start" x="738.5" y="-190.5" font-family="Helvetica,sans-Serif" font-size="10.00"># ComputeTransformedBasisFunction</text>
<text text-anchor="start" x="738.5" y="-179.5" font-family="Helvetica,sans-Serif" font-size="10.00">Derivatives()</text>
<text text-anchor="start" x="738.5" y="-168.5" font-family="Helvetica,sans-Serif" font-size="10.00"># DoAssemble()</text>
<text text-anchor="start" x="738.5" y="-157.5" font-family="Helvetica,sans-Serif" font-size="10.00"># ComputeMatrixTerm()</text>
<text text-anchor="start" x="738.5" y="-146.5" font-family="Helvetica,sans-Serif" font-size="10.00"># ComputeVectorTerm()</text>
<text text-anchor="start" x="738.5" y="-135.5" font-family="Helvetica,sans-Serif" font-size="10.00"># AssembleOnElement()</text>
<text text-anchor="start" x="738.5" y="-124.5" font-family="Helvetica,sans-Serif" font-size="10.00"># ElementAssemblyCriterion()</text>
</a>
</g>
</g>
<!-- Node2&#45;&gt;Node1 -->
<g id="edge1" class="edge"><title>Node2&#45;&gt;Node1</title>
<path fill="none" stroke="midnightblue" d="M821.5,-107.216C821.5,-97.4891 821.5,-88.1387 821.5,-79.6839"/>
<polygon fill="none" stroke="midnightblue" points="818,-107.466 821.5,-117.466 825,-107.466 818,-107.466"/>
</g>
<!-- Node3 -->
<g id="node3" class="node"><title>Node3</title>
<g id="a_node3"><a xlink:href="classAbstractFeAssemblerCommon.html" target="_top" xlink:title="{AbstractFeAssemblerCommon\l\&lt; ELEMENT_DIM, SPACE_DIM,\l PROBLEM_DIM, CAN_ASSEMBLE\l_VECTOR, CAN_ASSEMBLE_MATRIX,\l INTERPOLATION_LEVEL \&gt;\n||+ AbstractFeAssemblerCommon()\l+ SetCurrentSolution()\l+ ~AbstractFeAssemblerCommon()\l# GetCurrentSolutionOrGuess\lValue()\l# ResetInterpolatedQuantities()\l# IncrementInterpolatedQuantities()\l# IncrementInterpolatedGradient\lQuantities()\l}">
<polygon fill="white" stroke="black" points="497,-646.5 497,-835.5 694,-835.5 694,-646.5 497,-646.5"/>
<text text-anchor="start" x="505" y="-823.5" font-family="Helvetica,sans-Serif" font-size="10.00">AbstractFeAssemblerCommon</text>
<text text-anchor="start" x="505" y="-812.5" font-family="Helvetica,sans-Serif" font-size="10.00">&lt; ELEMENT_DIM, SPACE_DIM,</text>
<text text-anchor="start" x="505" y="-801.5" font-family="Helvetica,sans-Serif" font-size="10.00"> PROBLEM_DIM, CAN_ASSEMBLE</text>
<text text-anchor="start" x="505" y="-790.5" font-family="Helvetica,sans-Serif" font-size="10.00">_VECTOR, CAN_ASSEMBLE_MATRIX,</text>
<text text-anchor="middle" x="595.5" y="-779.5" font-family="Helvetica,sans-Serif" font-size="10.00"> INTERPOLATION_LEVEL &gt;</text>
<polyline fill="none" stroke="black" points="497,-772.5 694,-772.5 "/>
<text text-anchor="middle" x="595.5" y="-760.5" font-family="Helvetica,sans-Serif" font-size="10.00"> </text>
<polyline fill="none" stroke="black" points="497,-753.5 694,-753.5 "/>
<text text-anchor="start" x="505" y="-741.5" font-family="Helvetica,sans-Serif" font-size="10.00">+ AbstractFeAssemblerCommon()</text>
<text text-anchor="start" x="505" y="-730.5" font-family="Helvetica,sans-Serif" font-size="10.00">+ SetCurrentSolution()</text>
<text text-anchor="start" x="505" y="-719.5" font-family="Helvetica,sans-Serif" font-size="10.00">+ ~AbstractFeAssemblerCommon()</text>
<text text-anchor="start" x="505" y="-708.5" font-family="Helvetica,sans-Serif" font-size="10.00"># GetCurrentSolutionOrGuess</text>
<text text-anchor="start" x="505" y="-697.5" font-family="Helvetica,sans-Serif" font-size="10.00">Value()</text>
<text text-anchor="start" x="505" y="-686.5" font-family="Helvetica,sans-Serif" font-size="10.00"># ResetInterpolatedQuantities()</text>
<text text-anchor="start" x="505" y="-675.5" font-family="Helvetica,sans-Serif" font-size="10.00"># IncrementInterpolatedQuantities()</text>
<text text-anchor="start" x="505" y="-664.5" font-family="Helvetica,sans-Serif" font-size="10.00"># IncrementInterpolatedGradient</text>
<text text-anchor="start" x="505" y="-653.5" font-family="Helvetica,sans-Serif" font-size="10.00">Quantities()</text>
</a>
</g>
</g>
<!-- Node3&#45;&gt;Node2 -->
<g id="edge2" class="edge"><title>Node3&#45;&gt;Node2</title>
<path fill="none" stroke="midnightblue" d="M573.949,-636.071C564.023,-562.574 561.777,-463.845 600.5,-387 628.02,-332.388 682.465,-290.548 730.426,-262.221"/>
<polygon fill="none" stroke="midnightblue" points="570.526,-636.861 575.397,-646.27 577.456,-635.877 570.526,-636.861"/>
</g>
<!-- Node16 -->
<g id="node16" class="node"><title>Node16</title>
<g id="a_node16"><a xlink:href="classAbstractFeVolumeIntegralAssembler.html" target="_top" xlink:title="{AbstractFeVolumeIntegral\lAssembler\&lt; ELEMENT_DIM,\l SPACE_DIM, PROBLEM_DIM,\l CAN_ASSEMBLE_VECTOR, CAN\l_ASSEMBLE_MATRIX, INTERPOLATION_LEVEL \&gt;\n||+ AbstractFeVolumeIntegral\lAssembler()\l+ ~AbstractFeVolumeIntegral\lAssembler()\l# ComputeTransformedBasisFunction\lDerivatives()\l# DoAssemble()\l# ComputeMatrixTerm()\l# ComputeVectorTerm()\l# AssembleOnElement()\l# ElementAssemblyCriterion()\l}">
<polygon fill="white" stroke="black" points="610,-387.5 610,-598.5 861,-598.5 861,-387.5 610,-387.5"/>
<text text-anchor="start" x="618" y="-586.5" font-family="Helvetica,sans-Serif" font-size="10.00">AbstractFeVolumeIntegral</text>
<text text-anchor="start" x="618" y="-575.5" font-family="Helvetica,sans-Serif" font-size="10.00">Assembler&lt; ELEMENT_DIM,</text>
<text text-anchor="start" x="618" y="-564.5" font-family="Helvetica,sans-Serif" font-size="10.00"> SPACE_DIM, PROBLEM_DIM,</text>
<text text-anchor="start" x="618" y="-553.5" font-family="Helvetica,sans-Serif" font-size="10.00"> CAN_ASSEMBLE_VECTOR, CAN</text>
<text text-anchor="middle" x="735.5" y="-542.5" font-family="Helvetica,sans-Serif" font-size="10.00">_ASSEMBLE_MATRIX, INTERPOLATION_LEVEL &gt;</text>
<polyline fill="none" stroke="black" points="610,-535.5 861,-535.5 "/>
<text text-anchor="middle" x="735.5" y="-523.5" font-family="Helvetica,sans-Serif" font-size="10.00"> </text>
<polyline fill="none" stroke="black" points="610,-516.5 861,-516.5 "/>
<text text-anchor="start" x="618" y="-504.5" font-family="Helvetica,sans-Serif" font-size="10.00">+ AbstractFeVolumeIntegral</text>
<text text-anchor="start" x="618" y="-493.5" font-family="Helvetica,sans-Serif" font-size="10.00">Assembler()</text>
<text text-anchor="start" x="618" y="-482.5" font-family="Helvetica,sans-Serif" font-size="10.00">+ ~AbstractFeVolumeIntegral</text>
<text text-anchor="start" x="618" y="-471.5" font-family="Helvetica,sans-Serif" font-size="10.00">Assembler()</text>
<text text-anchor="start" x="618" y="-460.5" font-family="Helvetica,sans-Serif" font-size="10.00"># ComputeTransformedBasisFunction</text>
<text text-anchor="start" x="618" y="-449.5" font-family="Helvetica,sans-Serif" font-size="10.00">Derivatives()</text>
<text text-anchor="start" x="618" y="-438.5" font-family="Helvetica,sans-Serif" font-size="10.00"># DoAssemble()</text>
<text text-anchor="start" x="618" y="-427.5" font-family="Helvetica,sans-Serif" font-size="10.00"># ComputeMatrixTerm()</text>
<text text-anchor="start" x="618" y="-416.5" font-family="Helvetica,sans-Serif" font-size="10.00"># ComputeVectorTerm()</text>
<text text-anchor="start" x="618" y="-405.5" font-family="Helvetica,sans-Serif" font-size="10.00"># AssembleOnElement()</text>
<text text-anchor="start" x="618" y="-394.5" font-family="Helvetica,sans-Serif" font-size="10.00"># ElementAssemblyCriterion()</text>
</a>
</g>
</g>
<!-- Node3&#45;&gt;Node16 -->
<g id="edge17" class="edge"><title>Node3&#45;&gt;Node16</title>
<path fill="none" stroke="midnightblue" d="M653.862,-637.45C661.181,-624.59 668.674,-611.423 676.009,-598.534"/>
<polygon fill="none" stroke="midnightblue" points="650.732,-635.874 648.827,-646.296 656.815,-639.336 650.732,-635.874"/>
</g>
<!-- Node4 -->
<g id="node4" class="node"><title>Node4</title>
<g id="a_node4"><a xlink:href="classAbstractFeAssemblerInterface.html" target="_top" xlink:title="{AbstractFeAssemblerInterface\l\&lt; CAN_ASSEMBLE_VECTOR, CAN\l_ASSEMBLE_MATRIX \&gt;\n||+ AbstractFeAssemblerInterface()\l+ SetMatrixToAssemble()\l+ SetVectorToAssemble()\l+ Assemble()\l+ AssembleMatrix()\l+ AssembleVector()\l+ ~AbstractFeAssemblerInterface()\l# DoAssemble()\l}">
<polygon fill="white" stroke="black" points="225.5,-894.5 225.5,-1050.5 407.5,-1050.5 407.5,-894.5 225.5,-894.5"/>
<text text-anchor="start" x="233.5" y="-1038.5" font-family="Helvetica,sans-Serif" font-size="10.00">AbstractFeAssemblerInterface</text>
<text text-anchor="start" x="233.5" y="-1027.5" font-family="Helvetica,sans-Serif" font-size="10.00">&lt; CAN_ASSEMBLE_VECTOR, CAN</text>
<text text-anchor="middle" x="316.5" y="-1016.5" font-family="Helvetica,sans-Serif" font-size="10.00">_ASSEMBLE_MATRIX &gt;</text>
<polyline fill="none" stroke="black" points="225.5,-1009.5 407.5,-1009.5 "/>
<text text-anchor="middle" x="316.5" y="-997.5" font-family="Helvetica,sans-Serif" font-size="10.00"> </text>
<polyline fill="none" stroke="black" points="225.5,-990.5 407.5,-990.5 "/>
<text text-anchor="start" x="233.5" y="-978.5" font-family="Helvetica,sans-Serif" font-size="10.00">+ AbstractFeAssemblerInterface()</text>
<text text-anchor="start" x="233.5" y="-967.5" font-family="Helvetica,sans-Serif" font-size="10.00">+ SetMatrixToAssemble()</text>
<text text-anchor="start" x="233.5" y="-956.5" font-family="Helvetica,sans-Serif" font-size="10.00">+ SetVectorToAssemble()</text>
<text text-anchor="start" x="233.5" y="-945.5" font-family="Helvetica,sans-Serif" font-size="10.00">+ Assemble()</text>
<text text-anchor="start" x="233.5" y="-934.5" font-family="Helvetica,sans-Serif" font-size="10.00">+ AssembleMatrix()</text>
<text text-anchor="start" x="233.5" y="-923.5" font-family="Helvetica,sans-Serif" font-size="10.00">+ AssembleVector()</text>
<text text-anchor="start" x="233.5" y="-912.5" font-family="Helvetica,sans-Serif" font-size="10.00">+ ~AbstractFeAssemblerInterface()</text>
<text text-anchor="start" x="233.5" y="-901.5" font-family="Helvetica,sans-Serif" font-size="10.00"># DoAssemble()</text>
</a>
</g>
</g>
<!-- Node4&#45;&gt;Node3 -->
<g id="edge3" class="edge"><title>Node4&#45;&gt;Node3</title>
<path fill="none" stroke="midnightblue" d="M415.592,-889.989C441.94,-868.315 470.393,-844.911 496.724,-823.251"/>
<polygon fill="none" stroke="midnightblue" points="413.354,-887.297 407.855,-896.353 417.801,-892.703 413.354,-887.297"/>
</g>
<!-- Node5 -->
<g id="node5" class="node"><title>Node5</title>
<polygon fill="white" stroke="#bfbfbf" points="0,-1131.5 0,-1188.5 71,-1188.5 71,-1131.5 0,-1131.5"/>
<text text-anchor="middle" x="35.5" y="-1176.5" font-family="Helvetica,sans-Serif" font-size="10.00">noncopyable</text>
<polyline fill="none" stroke="#bfbfbf" points="0,-1169.5 71,-1169.5 "/>
<text text-anchor="middle" x="35.5" y="-1157.5" font-family="Helvetica,sans-Serif" font-size="10.00"> </text>
<polyline fill="none" stroke="#bfbfbf" points="0,-1150.5 71,-1150.5 "/>
<text text-anchor="middle" x="35.5" y="-1138.5" font-family="Helvetica,sans-Serif" font-size="10.00"> </text>
</g>
<!-- Node5&#45;&gt;Node4 -->
<g id="edge4" class="edge"><title>Node5&#45;&gt;Node4</title>
<path fill="none" stroke="#8b1a1a" d="M56.7723,-1122.71C68.714,-1104.74 84.9388,-1083.78 103.5,-1069 139.478,-1040.34 185.423,-1018.32 225.424,-1002.69"/>
<polygon fill="none" stroke="#8b1a1a" points="53.7421,-1120.95 51.2626,-1131.25 59.6245,-1124.74 53.7421,-1120.95"/>
</g>
<!-- Node6 -->
<g id="node6" class="node"><title>Node6</title>
<g id="a_node6"><a xlink:href="classbool.html" target="_top" xlink:title="{bool\n||}">
<polygon fill="white" stroke="black" points="89,-1131.5 89,-1188.5 124,-1188.5 124,-1131.5 89,-1131.5"/>
<text text-anchor="middle" x="106.5" y="-1176.5" font-family="Helvetica,sans-Serif" font-size="10.00">bool</text>
<polyline fill="none" stroke="black" points="89,-1169.5 124,-1169.5 "/>
<text text-anchor="middle" x="106.5" y="-1157.5" font-family="Helvetica,sans-Serif" font-size="10.00"> </text>
<polyline fill="none" stroke="black" points="89,-1150.5 124,-1150.5 "/>
<text text-anchor="middle" x="106.5" y="-1138.5" font-family="Helvetica,sans-Serif" font-size="10.00"> </text>
</a>
</g>
</g>
<!-- Node6&#45;&gt;Node4 -->
<g id="edge5" class="edge"><title>Node6&#45;&gt;Node4</title>
<path fill="none" stroke="#404040" d="M105.154,-1131.25C105.615,-1112.01 109.149,-1086.76 122.5,-1069 145.2,-1038.81 180.027,-1017.59 213.942,-1002.97"/>
<polygon fill="none" stroke="#404040" points="214.293,-1002.82 218.319,-996.84 225.39,-998.256 221.364,-1004.24 214.293,-1002.82"/>
<text text-anchor="middle" x="189.5" y="-1105" font-family="Helvetica,sans-Serif" font-size="10.00"> #mAssembleVector</text>
<text text-anchor="middle" x="189.5" y="-1094" font-family="Helvetica,sans-Serif" font-size="10.00">#mZeroVectorBeforeAssembly</text>
<text text-anchor="middle" x="189.5" y="-1083" font-family="Helvetica,sans-Serif" font-size="10.00">#mAssembleMatrix</text>
<text text-anchor="middle" x="189.5" y="-1072" font-family="Helvetica,sans-Serif" font-size="10.00">#mZeroMatrixBeforeAssembly</text>
</g>
<!-- Node7 -->
<g id="node7" class="node"><title>Node7</title>
<g id="a_node7"><a xlink:href="classMat.html" target="_top" xlink:title="{Mat\n||}">
<polygon fill="white" stroke="black" points="247,-1131.5 247,-1188.5 280,-1188.5 280,-1131.5 247,-1131.5"/>
<text text-anchor="middle" x="263.5" y="-1176.5" font-family="Helvetica,sans-Serif" font-size="10.00">Mat</text>
<polyline fill="none" stroke="black" points="247,-1169.5 280,-1169.5 "/>
<text text-anchor="middle" x="263.5" y="-1157.5" font-family="Helvetica,sans-Serif" font-size="10.00"> </text>
<polyline fill="none" stroke="black" points="247,-1150.5 280,-1150.5 "/>
<text text-anchor="middle" x="263.5" y="-1138.5" font-family="Helvetica,sans-Serif" font-size="10.00"> </text>
</a>
</g>
</g>
<!-- Node7&#45;&gt;Node4 -->
<g id="edge6" class="edge"><title>Node7&#45;&gt;Node4</title>
<path fill="none" stroke="#404040" d="M260.395,-1131.37C259.194,-1113.33 259.182,-1089.41 264.5,-1069 265.098,-1066.71 265.762,-1064.41 266.485,-1062.11"/>
<polygon fill="none" stroke="#404040" points="266.537,-1061.96 264.775,-1054.97 270.552,-1050.65 272.314,-1057.65 266.537,-1061.96"/>
<text text-anchor="middle" x="314" y="-1088.5" font-family="Helvetica,sans-Serif" font-size="10.00"> #mMatrixToAssemble</text>
</g>
<!-- Node8 -->
<g id="node8" class="node"><title>Node8</title>
<g id="a_node8"><a xlink:href="classPetscInt.html" target="_top" xlink:title="{PetscInt\n||}">
<polygon fill="white" stroke="black" points="359,-1131.5 359,-1188.5 412,-1188.5 412,-1131.5 359,-1131.5"/>
<text text-anchor="middle" x="385.5" y="-1176.5" font-family="Helvetica,sans-Serif" font-size="10.00">PetscInt</text>
<polyline fill="none" stroke="black" points="359,-1169.5 412,-1169.5 "/>
<text text-anchor="middle" x="385.5" y="-1157.5" font-family="Helvetica,sans-Serif" font-size="10.00"> </text>
<polyline fill="none" stroke="black" points="359,-1150.5 412,-1150.5 "/>
<text text-anchor="middle" x="385.5" y="-1138.5" font-family="Helvetica,sans-Serif" font-size="10.00"> </text>
</a>
</g>
</g>
<!-- Node8&#45;&gt;Node4 -->
<g id="edge7" class="edge"><title>Node8&#45;&gt;Node4</title>
<path fill="none" stroke="#404040" d="M380.372,-1131.37C376.629,-1113.32 370.916,-1089.41 363.5,-1069 362.637,-1066.63 361.732,-1064.23 360.793,-1061.83"/>
<polygon fill="none" stroke="#404040" points="360.718,-1061.65 354.741,-1057.61 356.166,-1050.54 362.143,-1054.58 360.718,-1061.65"/>
<text text-anchor="middle" x="427.5" y="-1094" font-family="Helvetica,sans-Serif" font-size="10.00"> #mOwnershipRangeHi</text>
<text text-anchor="middle" x="427.5" y="-1083" font-family="Helvetica,sans-Serif" font-size="10.00">#mOwnershipRangeLo</text>
</g>
<!-- Node9 -->
<g id="node9" class="node"><title>Node9</title>
<g id="a_node9"><a xlink:href="classVec.html" target="_top" xlink:title="{Vec\n||}">
<polygon fill="white" stroke="black" points="554.5,-1131.5 554.5,-1188.5 588.5,-1188.5 588.5,-1131.5 554.5,-1131.5"/>
<text text-anchor="middle" x="571.5" y="-1176.5" font-family="Helvetica,sans-Serif" font-size="10.00">Vec</text>
<polyline fill="none" stroke="black" points="554.5,-1169.5 588.5,-1169.5 "/>
<text text-anchor="middle" x="571.5" y="-1157.5" font-family="Helvetica,sans-Serif" font-size="10.00"> </text>
<polyline fill="none" stroke="black" points="554.5,-1150.5 588.5,-1150.5 "/>
<text text-anchor="middle" x="571.5" y="-1138.5" font-family="Helvetica,sans-Serif" font-size="10.00"> </text>
</a>
</g>
</g>
<!-- Node9&#45;&gt;Node4 -->
<g id="edge8" class="edge"><title>Node9&#45;&gt;Node4</title>
<path fill="none" stroke="#404040" d="M554.447,-1149.56C540.574,-1141.26 521.129,-1128.16 507.5,-1113 492.465,-1096.27 498.361,-1084.95 482.5,-1069 463.997,-1050.4 441.128,-1034.19 418.342,-1020.67"/>
<polygon fill="none" stroke="#404040" points="418.291,-1020.64 411.095,-1021.11 407.895,-1014.64 415.091,-1014.17 418.291,-1020.64"/>
<text text-anchor="middle" x="557.5" y="-1088.5" font-family="Helvetica,sans-Serif" font-size="10.00"> #mVectorToAssemble</text>
</g>
<!-- Node10 -->
<g id="node10" class="node"><title>Node10</title>
<g id="a_node10"><a xlink:href="classReplicatableVector.html" target="_top" xlink:title="{ReplicatableVector\n||+ ReplicatableVector()\l+ ReplicatableVector()\l+ ReplicatableVector()\l+ ~ReplicatableVector()\l+ GetSize()\l+ Resize()\l+ operator[]()\l+ Replicate()\l+ ReplicatePetscVector()\l&#45; RemovePetscContext()\l}">
<polygon fill="white" stroke="black" points="654,-894.5 654,-1050.5 781,-1050.5 781,-894.5 654,-894.5"/>
<text text-anchor="middle" x="717.5" y="-1038.5" font-family="Helvetica,sans-Serif" font-size="10.00">ReplicatableVector</text>
<polyline fill="none" stroke="black" points="654,-1031.5 781,-1031.5 "/>
<text text-anchor="middle" x="717.5" y="-1019.5" font-family="Helvetica,sans-Serif" font-size="10.00"> </text>
<polyline fill="none" stroke="black" points="654,-1012.5 781,-1012.5 "/>
<text text-anchor="start" x="662" y="-1000.5" font-family="Helvetica,sans-Serif" font-size="10.00">+ ReplicatableVector()</text>
<text text-anchor="start" x="662" y="-989.5" font-family="Helvetica,sans-Serif" font-size="10.00">+ ReplicatableVector()</text>
<text text-anchor="start" x="662" y="-978.5" font-family="Helvetica,sans-Serif" font-size="10.00">+ ReplicatableVector()</text>
<text text-anchor="start" x="662" y="-967.5" font-family="Helvetica,sans-Serif" font-size="10.00">+ ~ReplicatableVector()</text>
<text text-anchor="start" x="662" y="-956.5" font-family="Helvetica,sans-Serif" font-size="10.00">+ GetSize()</text>
<text text-anchor="start" x="662" y="-945.5" font-family="Helvetica,sans-Serif" font-size="10.00">+ Resize()</text>
<text text-anchor="start" x="662" y="-934.5" font-family="Helvetica,sans-Serif" font-size="10.00">+ operator[]()</text>
<text text-anchor="start" x="662" y="-923.5" font-family="Helvetica,sans-Serif" font-size="10.00">+ Replicate()</text>
<text text-anchor="start" x="662" y="-912.5" font-family="Helvetica,sans-Serif" font-size="10.00">+ ReplicatePetscVector()</text>
<text text-anchor="start" x="662" y="-901.5" font-family="Helvetica,sans-Serif" font-size="10.00">&#45; RemovePetscContext()</text>
</a>
</g>
</g>
<!-- Node9&#45;&gt;Node10 -->
<g id="edge13" class="edge"><title>Node9&#45;&gt;Node10</title>
<path fill="none" stroke="#404040" d="M588.524,-1139.99C595.737,-1131.79 604.155,-1122.03 611.5,-1113 625.183,-1096.17 639.466,-1077.9 652.954,-1060.29"/>
<polygon fill="none" stroke="#404040" points="653.077,-1060.13 653.537,-1052.93 660.357,-1050.59 659.897,-1057.79 653.077,-1060.13"/>
<text text-anchor="middle" x="675" y="-1088.5" font-family="Helvetica,sans-Serif" font-size="10.00"> &#45;mReplicated</text>
</g>
<!-- Node10&#45;&gt;Node3 -->
<g id="edge9" class="edge"><title>Node10&#45;&gt;Node3</title>
<path fill="none" stroke="#404040" d="M676.536,-894.441C668.303,-878.952 659.521,-862.433 650.89,-846.197"/>
<polygon fill="none" stroke="#404040" points="650.881,-846.179 644.532,-842.759 645.248,-835.583 651.596,-839.003 650.881,-846.179"/>
<text text-anchor="start" x="664.5" y="-868" font-family="Helvetica,sans-Serif" font-size="10.00"> #mCurrentSolutionOrGuess</text>
<text text-anchor="middle" x="726.5" y="-857" font-family="Helvetica,sans-Serif" font-size="10.00">Replicated</text>
</g>
<!-- Node11 -->
<g id="node11" class="node"><title>Node11</title>
<g id="a_node11"><a xlink:href="classdouble.html" target="_top" xlink:title="{double\n||}">
<polygon fill="white" stroke="black" points="690,-1131.5 690,-1188.5 735,-1188.5 735,-1131.5 690,-1131.5"/>
<text text-anchor="middle" x="712.5" y="-1176.5" font-family="Helvetica,sans-Serif" font-size="10.00">double</text>
<polyline fill="none" stroke="black" points="690,-1169.5 735,-1169.5 "/>
<text text-anchor="middle" x="712.5" y="-1157.5" font-family="Helvetica,sans-Serif" font-size="10.00"> </text>
<polyline fill="none" stroke="black" points="690,-1150.5 735,-1150.5 "/>
<text text-anchor="middle" x="712.5" y="-1138.5" font-family="Helvetica,sans-Serif" font-size="10.00"> </text>
</a>
</g>
</g>
<!-- Node11&#45;&gt;Node10 -->
<g id="edge10" class="edge"><title>Node11&#45;&gt;Node10</title>
<path fill="none" stroke="#404040" d="M713.249,-1131.23C713.743,-1112.9 714.42,-1087.77 715.089,-1062.96"/>
<polygon fill="none" stroke="#404040" points="715.092,-1062.83 711.255,-1056.72 715.416,-1050.83 719.252,-1056.94 715.092,-1062.83"/>
<text text-anchor="middle" x="736" y="-1088.5" font-family="Helvetica,sans-Serif" font-size="10.00"> &#45;mpData</text>
</g>
<!-- Node12 -->
<g id="node12" class="node"><title>Node12</title>
<polygon fill="white" stroke="#bfbfbf" points="753,-1131.5 753,-1188.5 818,-1188.5 818,-1131.5 753,-1131.5"/>
<text text-anchor="middle" x="785.5" y="-1176.5" font-family="Helvetica,sans-Serif" font-size="10.00">VecScatter</text>
<polyline fill="none" stroke="#bfbfbf" points="753,-1169.5 818,-1169.5 "/>
<text text-anchor="middle" x="785.5" y="-1157.5" font-family="Helvetica,sans-Serif" font-size="10.00"> </text>
<polyline fill="none" stroke="#bfbfbf" points="753,-1150.5 818,-1150.5 "/>
<text text-anchor="middle" x="785.5" y="-1138.5" font-family="Helvetica,sans-Serif" font-size="10.00"> </text>
</g>
<!-- Node12&#45;&gt;Node10 -->
<g id="edge11" class="edge"><title>Node12&#45;&gt;Node10</title>
<path fill="none" stroke="#404040" d="M779.014,-1131.49C774.49,-1113.49 767.945,-1089.59 760.5,-1069 759.655,-1066.66 758.777,-1064.3 757.873,-1061.93"/>
<polygon fill="none" stroke="#404040" points="757.868,-1061.92 751.947,-1057.8 753.47,-1050.75 759.391,-1054.87 757.868,-1061.92"/>
<text text-anchor="middle" x="793" y="-1088.5" font-family="Helvetica,sans-Serif" font-size="10.00"> &#45;mToAll</text>
</g>
<!-- Node13 -->
<g id="node13" class="node"><title>Node13</title>
<g id="a_node13"><a xlink:href="classunsigned.html" target="_top" xlink:title="{unsigned\n||}">
<polygon fill="white" stroke="black" points="836.5,-1131.5 836.5,-1188.5 892.5,-1188.5 892.5,-1131.5 836.5,-1131.5"/>
<text text-anchor="middle" x="864.5" y="-1176.5" font-family="Helvetica,sans-Serif" font-size="10.00">unsigned</text>
<polyline fill="none" stroke="black" points="836.5,-1169.5 892.5,-1169.5 "/>
<text text-anchor="middle" x="864.5" y="-1157.5" font-family="Helvetica,sans-Serif" font-size="10.00"> </text>
<polyline fill="none" stroke="black" points="836.5,-1150.5 892.5,-1150.5 "/>
<text text-anchor="middle" x="864.5" y="-1138.5" font-family="Helvetica,sans-Serif" font-size="10.00"> </text>
</a>
</g>
</g>
<!-- Node13&#45;&gt;Node10 -->
<g id="edge12" class="edge"><title>Node13&#45;&gt;Node10</title>
<path fill="none" stroke="#404040" d="M852.122,-1131.33C843.218,-1112.84 830.22,-1088.43 815.5,-1069 807.701,-1058.71 798.795,-1048.48 789.604,-1038.75"/>
<polygon fill="none" stroke="#404040" points="789.453,-1038.6 782.406,-1037.07 781.107,-1029.98 788.154,-1031.5 789.453,-1038.6"/>
<text text-anchor="middle" x="859.5" y="-1088.5" font-family="Helvetica,sans-Serif" font-size="10.00"> &#45;mSize</text>
</g>
<!-- Node14 -->
<g id="node14" class="node"><title>Node14</title>
<polygon fill="white" stroke="#bfbfbf" points="941.5,-707 941.5,-775 1067.5,-775 1067.5,-707 941.5,-707"/>
<text text-anchor="start" x="949.5" y="-763" font-family="Helvetica,sans-Serif" font-size="10.00">GaussianQuadratureRule</text>
<text text-anchor="middle" x="1004.5" y="-752" font-family="Helvetica,sans-Serif" font-size="10.00">&lt; ELEMENT_DIM &gt; *</text>
<polyline fill="none" stroke="#bfbfbf" points="941.5,-745 1067.5,-745 "/>
<text text-anchor="middle" x="1004.5" y="-733" font-family="Helvetica,sans-Serif" font-size="10.00"> </text>
<polyline fill="none" stroke="#bfbfbf" points="941.5,-726 1067.5,-726 "/>
<text text-anchor="middle" x="1004.5" y="-714" font-family="Helvetica,sans-Serif" font-size="10.00"> </text>
</g>
<!-- Node14&#45;&gt;Node2 -->
<g id="edge14" class="edge"><title>Node14&#45;&gt;Node2</title>
<path fill="none" stroke="#404040" d="M1004.51,-706.914C1003.41,-642.64 995.434,-497.516 948.5,-387 939.882,-366.708 928.297,-346.644 915.617,-327.822"/>
<polygon fill="none" stroke="#404040" points="915.511,-327.67 908.808,-325.011 908.684,-317.801 915.387,-320.46 915.511,-327.67"/>
<text text-anchor="middle" x="1029.5" y="-490.5" font-family="Helvetica,sans-Serif" font-size="10.00"> #mpQuadRule</text>
</g>
<!-- Node14&#45;&gt;Node16 -->
<g id="edge18" class="edge"><title>Node14&#45;&gt;Node16</title>
<path fill="none" stroke="#404040" d="M969.504,-706.748C950.391,-688.677 926.249,-665.998 904.5,-646 890.668,-633.281 876.135,-620.036 861.639,-606.898"/>
<polygon fill="none" stroke="#404040" points="861.522,-606.792 854.389,-605.731 852.625,-598.738 859.758,-599.8 861.522,-606.792"/>
<text text-anchor="middle" x="914.5" y="-620" font-family="Helvetica,sans-Serif" font-size="10.00"> #mpQuadRule</text>
</g>
<!-- Node15 -->
<g id="node15" class="node"><title>Node15</title>
<polygon fill="white" stroke="#bfbfbf" points="719,-707 719,-775 896,-775 896,-707 719,-707"/>
<text text-anchor="start" x="727" y="-763" font-family="Helvetica,sans-Serif" font-size="10.00">AbstractTetrahedralMesh</text>
<text text-anchor="middle" x="807.5" y="-752" font-family="Helvetica,sans-Serif" font-size="10.00">&lt; ELEMENT_DIM, SPACE_DIM &gt; *</text>
<polyline fill="none" stroke="#bfbfbf" points="719,-745 896,-745 "/>
<text text-anchor="middle" x="807.5" y="-733" font-family="Helvetica,sans-Serif" font-size="10.00"> </text>
<polyline fill="none" stroke="#bfbfbf" points="719,-726 896,-726 "/>
<text text-anchor="middle" x="807.5" y="-714" font-family="Helvetica,sans-Serif" font-size="10.00"> </text>
</g>
<!-- Node15&#45;&gt;Node2 -->
<g id="edge15" class="edge"><title>Node15&#45;&gt;Node2</title>
<path fill="none" stroke="#404040" d="M826.026,-706.99C840.659,-679.137 860.124,-637.726 869.5,-599 897.043,-485.232 911.638,-449.622 883.5,-336 882.928,-333.691 882.302,-331.378 881.626,-329.064"/>
<polygon fill="none" stroke="#404040" points="881.579,-328.918 875.918,-324.452 877.863,-317.508 883.524,-321.975 881.579,-328.918"/>
<text text-anchor="middle" x="921.5" y="-490.5" font-family="Helvetica,sans-Serif" font-size="10.00"> #mpMesh</text>
</g>
<!-- Node15&#45;&gt;Node16 -->
<g id="edge19" class="edge"><title>Node15&#45;&gt;Node16</title>
<path fill="none" stroke="#404040" d="M797.79,-706.823C790.461,-681.785 779.937,-645.828 769.62,-610.576"/>
<polygon fill="none" stroke="#404040" points="769.504,-610.182 763.98,-605.547 766.134,-598.665 771.658,-603.3 769.504,-610.182"/>
<text text-anchor="middle" x="797.5" y="-620" font-family="Helvetica,sans-Serif" font-size="10.00"> #mpMesh</text>
</g>
<!-- Node16&#45;&gt;Node2 -->
<g id="edge16" class="edge"><title>Node16&#45;&gt;Node2</title>
<path fill="none" stroke="orange" d="M748.711,-377.044C751.626,-363.051 755.177,-349.086 759.5,-336 761.49,-329.977 763.767,-323.893 766.248,-317.829"/>
<polygon fill="orange" stroke="orange" points="745.204,-376.738 746.699,-387.227 752.071,-378.095 745.204,-376.738"/>
<text text-anchor="start" x="759.5" y="-361" font-family="Helvetica,sans-Serif" font-size="10.00"> &lt; ELEMENT_DIM, SPACE</text>
<text text-anchor="start" x="759.5" y="-350" font-family="Helvetica,sans-Serif" font-size="10.00">_DIM, 1, false, true,</text>
<text text-anchor="middle" x="821.5" y="-339" font-family="Helvetica,sans-Serif" font-size="10.00"> NORMAL &gt;</text>
</g>
</g>
</svg>
