<?xml version="1.0" encoding="UTF-8" standalone="no"?>
<!DOCTYPE svg PUBLIC "-//W3C//DTD SVG 1.1//EN"
 "http://www.w3.org/Graphics/SVG/1.1/DTD/svg11.dtd">
<!-- Generated by graphviz version 2.38.0 (20140413.2041)
 -->
<!-- Title: GaussianQuadratureRule&lt; ELEMENT_DIM &gt; Pages: 1 -->
<svg width="328pt" height="259pt"
 viewBox="0.00 0.00 328.00 259.00" xmlns="http://www.w3.org/2000/svg" xmlns:xlink="http://www.w3.org/1999/xlink">
<g id="graph0" class="graph" transform="scale(1 1) rotate(0) translate(4 255)">
<title>GaussianQuadratureRule&lt; ELEMENT_DIM &gt;</title>
<polygon fill="white" stroke="none" points="-4,4 -4,-255 324,-255 324,4 -4,4"/>
<!-- Node1 -->
<g id="node1" class="node"><title>Node1</title>
<polygon fill="#bfbfbf" stroke="black" points="95.5,-0.5 95.5,-134.5 236.5,-134.5 236.5,-0.5 95.5,-0.5"/>
<text text-anchor="start" x="103.5" y="-122.5" font-family="Helvetica,sans-Serif" font-size="10.00">GaussianQuadratureRule</text>
<text text-anchor="middle" x="166" y="-111.5" font-family="Helvetica,sans-Serif" font-size="10.00">&lt; ELEMENT_DIM &gt;</text>
<polyline fill="none" stroke="black" points="95.5,-104.5 236.5,-104.5 "/>
<text text-anchor="middle" x="166" y="-92.5" font-family="Helvetica,sans-Serif" font-size="10.00"> </text>
<polyline fill="none" stroke="black" points="95.5,-85.5 236.5,-85.5 "/>
<text text-anchor="start" x="103.5" y="-73.5" font-family="Helvetica,sans-Serif" font-size="10.00">+ GaussianQuadratureRule()</text>
<text text-anchor="start" x="103.5" y="-62.5" font-family="Helvetica,sans-Serif" font-size="10.00">+ rGetQuadPoint()</text>
<text text-anchor="start" x="103.5" y="-51.5" font-family="Helvetica,sans-Serif" font-size="10.00">+ GetWeight()</text>
<text text-anchor="start" x="103.5" y="-40.5" font-family="Helvetica,sans-Serif" font-size="10.00">+ GetNumQuadPoints()</text>
<text text-anchor="start" x="103.5" y="-29.5" font-family="Helvetica,sans-Serif" font-size="10.00">+ GaussianQuadratureRule()</text>
<text text-anchor="start" x="103.5" y="-18.5" font-family="Helvetica,sans-Serif" font-size="10.00">+ GaussianQuadratureRule()</text>
<text text-anchor="start" x="103.5" y="-7.5" font-family="Helvetica,sans-Serif" font-size="10.00">+ GaussianQuadratureRule()</text>
</g>
<!-- Node2 -->
<g id="node2" class="node"><title>Node2</title>
<polygon fill="white" stroke="#bfbfbf" points="0,-188 0,-245 90,-245 90,-188 0,-188"/>
<text text-anchor="middle" x="45" y="-233" font-family="Helvetica,sans-Serif" font-size="10.00">vector&lt; double &gt;</text>
<polyline fill="none" stroke="#bfbfbf" points="0,-226 90,-226 "/>
<text text-anchor="middle" x="45" y="-214" font-family="Helvetica,sans-Serif" font-size="10.00"> </text>
<polyline fill="none" stroke="#bfbfbf" points="0,-207 90,-207 "/>
<text text-anchor="middle" x="45" y="-195" font-family="Helvetica,sans-Serif" font-size="10.00"> </text>
</g>
<!-- Node2&#45;&gt;Node1 -->
<g id="edge1" class="edge"><title>Node2&#45;&gt;Node1</title>
<path fill="none" stroke="#404040" d="M67.7592,-187.85C78.0205,-175.384 90.6934,-159.988 103.487,-144.446"/>
<polygon fill="none" stroke="#404040" points="103.821,-144.04 104.546,-136.865 111.447,-134.775 110.722,-141.95 103.821,-144.04"/>
<text text-anchor="middle" x="120.5" y="-156" font-family="Helvetica,sans-Serif" font-size="10.00"> &#45;mWeights</text>
</g>
<!-- Node3 -->
<g id="node3" class="node"><title>Node3</title>
<polygon fill="white" stroke="#bfbfbf" points="108.5,-182.5 108.5,-250.5 223.5,-250.5 223.5,-182.5 108.5,-182.5"/>
<text text-anchor="start" x="116.5" y="-238.5" font-family="Helvetica,sans-Serif" font-size="10.00">vector&lt; ChastePoint</text>
<text text-anchor="middle" x="166" y="-227.5" font-family="Helvetica,sans-Serif" font-size="10.00">&lt; ELEMENT_DIM &gt; &gt;</text>
<polyline fill="none" stroke="#bfbfbf" points="108.5,-220.5 223.5,-220.5 "/>
<text text-anchor="middle" x="166" y="-208.5" font-family="Helvetica,sans-Serif" font-size="10.00"> </text>
<polyline fill="none" stroke="#bfbfbf" points="108.5,-201.5 223.5,-201.5 "/>
<text text-anchor="middle" x="166" y="-189.5" font-family="Helvetica,sans-Serif" font-size="10.00"> </text>
</g>
<!-- Node3&#45;&gt;Node1 -->
<g id="edge2" class="edge"><title>Node3&#45;&gt;Node1</title>
<path fill="none" stroke="#404040" d="M166,-182.143C166,-171.597 166,-159.46 166,-147.13"/>
<polygon fill="none" stroke="#404040" points="166,-146.787 162,-140.787 166,-134.787 170,-140.787 166,-146.787"/>
<text text-anchor="middle" x="187.5" y="-156" font-family="Helvetica,sans-Serif" font-size="10.00"> &#45;mPoints</text>
</g>
<!-- Node4 -->
<g id="node4" class="node"><title>Node4</title>
<g id="a_node4"><a xlink:href="classunsigned.html" target="_top" xlink:title="{unsigned\n||}">
<polygon fill="white" stroke="black" points="241,-188 241,-245 297,-245 297,-188 241,-188"/>
<text text-anchor="middle" x="269" y="-233" font-family="Helvetica,sans-Serif" font-size="10.00">unsigned</text>
<polyline fill="none" stroke="black" points="241,-226 297,-226 "/>
<text text-anchor="middle" x="269" y="-214" font-family="Helvetica,sans-Serif" font-size="10.00"> </text>
<polyline fill="none" stroke="black" points="241,-207 297,-207 "/>
<text text-anchor="middle" x="269" y="-195" font-family="Helvetica,sans-Serif" font-size="10.00"> </text>
</a>
</g>
</g>
<!-- Node4&#45;&gt;Node1 -->
<g id="edge3" class="edge"><title>Node4&#45;&gt;Node1</title>
<path fill="none" stroke="#404040" d="M249.626,-187.85C240.974,-175.502 230.307,-160.278 219.522,-144.886"/>
<polygon fill="none" stroke="#404040" points="219.324,-144.603 212.605,-141.984 212.438,-134.775 219.156,-137.393 219.324,-144.603"/>
<text text-anchor="middle" x="276.5" y="-156" font-family="Helvetica,sans-Serif" font-size="10.00"> &#45;mNumQuadPoints</text>
</g>
</g>
</svg>
