<?xml version="1.0" encoding="UTF-8" standalone="no"?>
<!DOCTYPE svg PUBLIC "-//W3C//DTD SVG 1.1//EN"
 "http://www.w3.org/Graphics/SVG/1.1/DTD/svg11.dtd">
<!-- Generated by graphviz version 2.38.0 (20140413.2041)
 -->
<!-- Title: FixedModifier Pages: 1 -->
<svg width="180pt" height="248pt"
 viewBox="0.00 0.00 180.00 248.00" xmlns="http://www.w3.org/2000/svg" xmlns:xlink="http://www.w3.org/1999/xlink">
<g id="graph0" class="graph" transform="scale(1 1) rotate(0) translate(4 244)">
<title>FixedModifier</title>
<polygon fill="white" stroke="none" points="-4,4 -4,-244 176,-244 176,4 -4,4"/>
<!-- Node1 -->
<g id="node1" class="node"><title>Node1</title>
<polygon fill="#bfbfbf" stroke="black" points="53.5,-0.5 53.5,-101.5 149.5,-101.5 149.5,-0.5 53.5,-0.5"/>
<text text-anchor="middle" x="101.5" y="-89.5" font-family="Helvetica,sans-Serif" font-size="10.00">FixedModifier</text>
<polyline fill="none" stroke="black" points="53.5,-82.5 149.5,-82.5 "/>
<text text-anchor="middle" x="101.5" y="-70.5" font-family="Helvetica,sans-Serif" font-size="10.00"> </text>
<polyline fill="none" stroke="black" points="53.5,-63.5 149.5,-63.5 "/>
<text text-anchor="start" x="61.5" y="-51.5" font-family="Helvetica,sans-Serif" font-size="10.00">+ FixedModifier()</text>
<text text-anchor="start" x="61.5" y="-40.5" font-family="Helvetica,sans-Serif" font-size="10.00">+ ~FixedModifier()</text>
<text text-anchor="start" x="61.5" y="-29.5" font-family="Helvetica,sans-Serif" font-size="10.00">+ Calc()</text>
<text text-anchor="start" x="61.5" y="-18.5" font-family="Helvetica,sans-Serif" font-size="10.00">&#45; serialize()</text>
<text text-anchor="start" x="61.5" y="-7.5" font-family="Helvetica,sans-Serif" font-size="10.00">&#45; FixedModifier()</text>
</g>
<!-- Node2 -->
<g id="node2" class="node"><title>Node2</title>
<g id="a_node2"><a xlink:href="classAbstractModifier.html" target="_top" xlink:title="{AbstractModifier\n||+ AbstractModifier()\l+ ~AbstractModifier()\l+ Calc()\l&#45; serialize()\l}">
<polygon fill="white" stroke="black" points="0,-149.5 0,-239.5 109,-239.5 109,-149.5 0,-149.5"/>
<text text-anchor="middle" x="54.5" y="-227.5" font-family="Helvetica,sans-Serif" font-size="10.00">AbstractModifier</text>
<polyline fill="none" stroke="black" points="0,-220.5 109,-220.5 "/>
<text text-anchor="middle" x="54.5" y="-208.5" font-family="Helvetica,sans-Serif" font-size="10.00"> </text>
<polyline fill="none" stroke="black" points="0,-201.5 109,-201.5 "/>
<text text-anchor="start" x="8" y="-189.5" font-family="Helvetica,sans-Serif" font-size="10.00">+ AbstractModifier()</text>
<text text-anchor="start" x="8" y="-178.5" font-family="Helvetica,sans-Serif" font-size="10.00">+ ~AbstractModifier()</text>
<text text-anchor="start" x="8" y="-167.5" font-family="Helvetica,sans-Serif" font-size="10.00">+ Calc()</text>
<text text-anchor="start" x="8" y="-156.5" font-family="Helvetica,sans-Serif" font-size="10.00">&#45; serialize()</text>
</a>
</g>
</g>
<!-- Node2&#45;&gt;Node1 -->
<g id="edge1" class="edge"><title>Node2&#45;&gt;Node1</title>
<path fill="none" stroke="midnightblue" d="M72.483,-139.36C76.6012,-126.961 80.9589,-113.842 85.0106,-101.644"/>
<polygon fill="none" stroke="midnightblue" points="69.0729,-138.523 69.2421,-149.117 75.716,-140.73 69.0729,-138.523"/>
</g>
<!-- Node3 -->
<g id="node3" class="node"><title>Node3</title>
<g id="a_node3"><a xlink:href="classdouble.html" target="_top" xlink:title="{double\n||}">
<polygon fill="white" stroke="black" points="127,-166 127,-223 172,-223 172,-166 127,-166"/>
<text text-anchor="middle" x="149.5" y="-211" font-family="Helvetica,sans-Serif" font-size="10.00">double</text>
<polyline fill="none" stroke="black" points="127,-204 172,-204 "/>
<text text-anchor="middle" x="149.5" y="-192" font-family="Helvetica,sans-Serif" font-size="10.00"> </text>
<polyline fill="none" stroke="black" points="127,-185 172,-185 "/>
<text text-anchor="middle" x="149.5" y="-173" font-family="Helvetica,sans-Serif" font-size="10.00"> </text>
</a>
</g>
</g>
<!-- Node3&#45;&gt;Node1 -->
<g id="edge2" class="edge"><title>Node3&#45;&gt;Node1</title>
<path fill="none" stroke="#404040" d="M140.131,-165.881C135.027,-150.834 128.494,-131.576 122.259,-113.195"/>
<polygon fill="none" stroke="#404040" points="122.182,-112.968 116.466,-108.571 118.327,-101.604 124.042,-106.001 122.182,-112.968"/>
<text text-anchor="middle" x="146.5" y="-123" font-family="Helvetica,sans-Serif" font-size="10.00"> &#45;mValue</text>
</g>
</g>
</svg>
