<?xml version="1.0" encoding="UTF-8" standalone="no"?>
<!DOCTYPE svg PUBLIC "-//W3C//DTD SVG 1.1//EN"
 "http://www.w3.org/Graphics/SVG/1.1/DTD/svg11.dtd">
<!-- Generated by graphviz version 2.38.0 (20140413.2041)
 -->
<!-- Title: AbstractNonlinearAssemblerSolverHybrid&lt; ELEMENT_DIM, SPACE_DIM, PROBLEM_DIM &gt; Pages: 1 -->
<svg width="904pt" height="1328pt"
 viewBox="0.00 0.00 903.50 1328.00" xmlns="http://www.w3.org/2000/svg" xmlns:xlink="http://www.w3.org/1999/xlink">
<g id="graph0" class="graph" transform="scale(1 1) rotate(0) translate(4 1324)">
<title>AbstractNonlinearAssemblerSolverHybrid&lt; ELEMENT_DIM, SPACE_DIM, PROBLEM_DIM &gt;</title>
<polygon fill="white" stroke="none" points="-4,4 -4,-1324 899.5,-1324 899.5,4 -4,4"/>
<!-- Node1 -->
<g id="node1" class="node"><title>Node1</title>
<polygon fill="#bfbfbf" stroke="black" points="322.5,-0.5 322.5,-189.5 488.5,-189.5 488.5,-0.5 322.5,-0.5"/>
<text text-anchor="start" x="330.5" y="-177.5" font-family="Helvetica,sans-Serif" font-size="10.00">AbstractNonlinearAssembler</text>
<text text-anchor="start" x="330.5" y="-166.5" font-family="Helvetica,sans-Serif" font-size="10.00">SolverHybrid&lt; ELEMENT_DIM,</text>
<text text-anchor="middle" x="405.5" y="-155.5" font-family="Helvetica,sans-Serif" font-size="10.00"> SPACE_DIM, PROBLEM_DIM &gt;</text>
<polyline fill="none" stroke="black" points="322.5,-148.5 488.5,-148.5 "/>
<text text-anchor="middle" x="405.5" y="-136.5" font-family="Helvetica,sans-Serif" font-size="10.00"> </text>
<polyline fill="none" stroke="black" points="322.5,-129.5 488.5,-129.5 "/>
<text text-anchor="start" x="330.5" y="-117.5" font-family="Helvetica,sans-Serif" font-size="10.00">+ ComputeResidual()</text>
<text text-anchor="start" x="330.5" y="-106.5" font-family="Helvetica,sans-Serif" font-size="10.00">+ ComputeJacobian()</text>
<text text-anchor="start" x="330.5" y="-95.5" font-family="Helvetica,sans-Serif" font-size="10.00">+ AbstractNonlinearAssembler</text>
<text text-anchor="start" x="330.5" y="-84.5" font-family="Helvetica,sans-Serif" font-size="10.00">SolverHybrid()</text>
<text text-anchor="start" x="330.5" y="-73.5" font-family="Helvetica,sans-Serif" font-size="10.00">+ ~AbstractNonlinearAssembler</text>
<text text-anchor="start" x="330.5" y="-62.5" font-family="Helvetica,sans-Serif" font-size="10.00">SolverHybrid()</text>
<text text-anchor="start" x="330.5" y="-51.5" font-family="Helvetica,sans-Serif" font-size="10.00">+ Solve()</text>
<text text-anchor="start" x="330.5" y="-40.5" font-family="Helvetica,sans-Serif" font-size="10.00">+ SetNonlinearSolver()</text>
<text text-anchor="start" x="330.5" y="-29.5" font-family="Helvetica,sans-Serif" font-size="10.00">+ VerifyJacobian()</text>
<text text-anchor="start" x="330.5" y="-18.5" font-family="Helvetica,sans-Serif" font-size="10.00"># ApplyDirichletConditions()</text>
<text text-anchor="start" x="330.5" y="-7.5" font-family="Helvetica,sans-Serif" font-size="10.00"># ComputeJacobianNumerically()</text>
</g>
<!-- Node2 -->
<g id="node2" class="node"><title>Node2</title>
<g id="a_node2"><a xlink:href="classAbstractFeVolumeIntegralAssembler.html" target="_top" xlink:title="{AbstractFeVolumeIntegral\lAssembler\&lt; ELEMENT_DIM,\l SPACE_DIM, PROBLEM_DIM,\l true, true, NONLINEAR \&gt;\n||+ AbstractFeVolumeIntegral\lAssembler()\l+ ~AbstractFeVolumeIntegral\lAssembler()\l# ComputeTransformedBasisFunction\lDerivatives()\l# DoAssemble()\l# ComputeMatrixTerm()\l# ComputeVectorTerm()\l# AssembleOnElement()\l# ElementAssemblyCriterion()\l}">
<polygon fill="white" stroke="black" points="179.5,-237.5 179.5,-437.5 361.5,-437.5 361.5,-237.5 179.5,-237.5"/>
<text text-anchor="start" x="187.5" y="-425.5" font-family="Helvetica,sans-Serif" font-size="10.00">AbstractFeVolumeIntegral</text>
<text text-anchor="start" x="187.5" y="-414.5" font-family="Helvetica,sans-Serif" font-size="10.00">Assembler&lt; ELEMENT_DIM,</text>
<text text-anchor="start" x="187.5" y="-403.5" font-family="Helvetica,sans-Serif" font-size="10.00"> SPACE_DIM, PROBLEM_DIM,</text>
<text text-anchor="middle" x="270.5" y="-392.5" font-family="Helvetica,sans-Serif" font-size="10.00"> true, true, NONLINEAR &gt;</text>
<polyline fill="none" stroke="black" points="179.5,-385.5 361.5,-385.5 "/>
<text text-anchor="middle" x="270.5" y="-373.5" font-family="Helvetica,sans-Serif" font-size="10.00"> </text>
<polyline fill="none" stroke="black" points="179.5,-366.5 361.5,-366.5 "/>
<text text-anchor="start" x="187.5" y="-354.5" font-family="Helvetica,sans-Serif" font-size="10.00">+ AbstractFeVolumeIntegral</text>
<text text-anchor="start" x="187.5" y="-343.5" font-family="Helvetica,sans-Serif" font-size="10.00">Assembler()</text>
<text text-anchor="start" x="187.5" y="-332.5" font-family="Helvetica,sans-Serif" font-size="10.00">+ ~AbstractFeVolumeIntegral</text>
<text text-anchor="start" x="187.5" y="-321.5" font-family="Helvetica,sans-Serif" font-size="10.00">Assembler()</text>
<text text-anchor="start" x="187.5" y="-310.5" font-family="Helvetica,sans-Serif" font-size="10.00"># ComputeTransformedBasisFunction</text>
<text text-anchor="start" x="187.5" y="-299.5" font-family="Helvetica,sans-Serif" font-size="10.00">Derivatives()</text>
<text text-anchor="start" x="187.5" y="-288.5" font-family="Helvetica,sans-Serif" font-size="10.00"># DoAssemble()</text>
<text text-anchor="start" x="187.5" y="-277.5" font-family="Helvetica,sans-Serif" font-size="10.00"># ComputeMatrixTerm()</text>
<text text-anchor="start" x="187.5" y="-266.5" font-family="Helvetica,sans-Serif" font-size="10.00"># ComputeVectorTerm()</text>
<text text-anchor="start" x="187.5" y="-255.5" font-family="Helvetica,sans-Serif" font-size="10.00"># AssembleOnElement()</text>
<text text-anchor="start" x="187.5" y="-244.5" font-family="Helvetica,sans-Serif" font-size="10.00"># ElementAssemblyCriterion()</text>
</a>
</g>
</g>
<!-- Node2&#45;&gt;Node1 -->
<g id="edge1" class="edge"><title>Node2&#45;&gt;Node1</title>
<path fill="none" stroke="midnightblue" d="M331.199,-228.366C338.466,-215.421 345.839,-202.286 352.976,-189.57"/>
<polygon fill="none" stroke="midnightblue" points="328.032,-226.858 326.189,-237.291 334.136,-230.284 328.032,-226.858"/>
</g>
<!-- Node3 -->
<g id="node3" class="node"><title>Node3</title>
<g id="a_node3"><a xlink:href="classAbstractFeAssemblerCommon.html" target="_top" xlink:title="{AbstractFeAssemblerCommon\l\&lt; ELEMENT_DIM, SPACE_DIM,\l PROBLEM_DIM, CAN_ASSEMBLE\l_VECTOR, CAN_ASSEMBLE_MATRIX,\l INTERPOLATION_LEVEL \&gt;\n||+ AbstractFeAssemblerCommon()\l+ SetCurrentSolution()\l+ ~AbstractFeAssemblerCommon()\l# GetCurrentSolutionOrGuess\lValue()\l# ResetInterpolatedQuantities()\l# IncrementInterpolatedQuantities()\l# IncrementInterpolatedGradient\lQuantities()\l}">
<polygon fill="white" stroke="black" points="307,-777.5 307,-966.5 504,-966.5 504,-777.5 307,-777.5"/>
<text text-anchor="start" x="315" y="-954.5" font-family="Helvetica,sans-Serif" font-size="10.00">AbstractFeAssemblerCommon</text>
<text text-anchor="start" x="315" y="-943.5" font-family="Helvetica,sans-Serif" font-size="10.00">&lt; ELEMENT_DIM, SPACE_DIM,</text>
<text text-anchor="start" x="315" y="-932.5" font-family="Helvetica,sans-Serif" font-size="10.00"> PROBLEM_DIM, CAN_ASSEMBLE</text>
<text text-anchor="start" x="315" y="-921.5" font-family="Helvetica,sans-Serif" font-size="10.00">_VECTOR, CAN_ASSEMBLE_MATRIX,</text>
<text text-anchor="middle" x="405.5" y="-910.5" font-family="Helvetica,sans-Serif" font-size="10.00"> INTERPOLATION_LEVEL &gt;</text>
<polyline fill="none" stroke="black" points="307,-903.5 504,-903.5 "/>
<text text-anchor="middle" x="405.5" y="-891.5" font-family="Helvetica,sans-Serif" font-size="10.00"> </text>
<polyline fill="none" stroke="black" points="307,-884.5 504,-884.5 "/>
<text text-anchor="start" x="315" y="-872.5" font-family="Helvetica,sans-Serif" font-size="10.00">+ AbstractFeAssemblerCommon()</text>
<text text-anchor="start" x="315" y="-861.5" font-family="Helvetica,sans-Serif" font-size="10.00">+ SetCurrentSolution()</text>
<text text-anchor="start" x="315" y="-850.5" font-family="Helvetica,sans-Serif" font-size="10.00">+ ~AbstractFeAssemblerCommon()</text>
<text text-anchor="start" x="315" y="-839.5" font-family="Helvetica,sans-Serif" font-size="10.00"># GetCurrentSolutionOrGuess</text>
<text text-anchor="start" x="315" y="-828.5" font-family="Helvetica,sans-Serif" font-size="10.00">Value()</text>
<text text-anchor="start" x="315" y="-817.5" font-family="Helvetica,sans-Serif" font-size="10.00"># ResetInterpolatedQuantities()</text>
<text text-anchor="start" x="315" y="-806.5" font-family="Helvetica,sans-Serif" font-size="10.00"># IncrementInterpolatedQuantities()</text>
<text text-anchor="start" x="315" y="-795.5" font-family="Helvetica,sans-Serif" font-size="10.00"># IncrementInterpolatedGradient</text>
<text text-anchor="start" x="315" y="-784.5" font-family="Helvetica,sans-Serif" font-size="10.00">Quantities()</text>
</a>
</g>
</g>
<!-- Node3&#45;&gt;Node2 -->
<g id="edge2" class="edge"><title>Node3&#45;&gt;Node2</title>
<path fill="none" stroke="midnightblue" d="M317.472,-768.698C307.499,-752.869 298.706,-736.08 292.5,-719 259.395,-627.89 256.975,-516.449 260.962,-437.784"/>
<polygon fill="none" stroke="midnightblue" points="314.739,-770.914 323.126,-777.388 320.606,-767.097 314.739,-770.914"/>
</g>
<!-- Node16 -->
<g id="node16" class="node"><title>Node16</title>
<g id="a_node16"><a xlink:href="classAbstractFeVolumeIntegralAssembler.html" target="_top" xlink:title="{AbstractFeVolumeIntegral\lAssembler\&lt; ELEMENT_DIM,\l SPACE_DIM, PROBLEM_DIM,\l CAN_ASSEMBLE_VECTOR, CAN\l_ASSEMBLE_MATRIX, INTERPOLATION_LEVEL \&gt;\n||+ AbstractFeVolumeIntegral\lAssembler()\l+ ~AbstractFeVolumeIntegral\lAssembler()\l# ComputeTransformedBasisFunction\lDerivatives()\l# DoAssemble()\l# ComputeMatrixTerm()\l# ComputeVectorTerm()\l# AssembleOnElement()\l# ElementAssemblyCriterion()\l}">
<polygon fill="white" stroke="black" points="302,-507.5 302,-718.5 553,-718.5 553,-507.5 302,-507.5"/>
<text text-anchor="start" x="310" y="-706.5" font-family="Helvetica,sans-Serif" font-size="10.00">AbstractFeVolumeIntegral</text>
<text text-anchor="start" x="310" y="-695.5" font-family="Helvetica,sans-Serif" font-size="10.00">Assembler&lt; ELEMENT_DIM,</text>
<text text-anchor="start" x="310" y="-684.5" font-family="Helvetica,sans-Serif" font-size="10.00"> SPACE_DIM, PROBLEM_DIM,</text>
<text text-anchor="start" x="310" y="-673.5" font-family="Helvetica,sans-Serif" font-size="10.00"> CAN_ASSEMBLE_VECTOR, CAN</text>
<text text-anchor="middle" x="427.5" y="-662.5" font-family="Helvetica,sans-Serif" font-size="10.00">_ASSEMBLE_MATRIX, INTERPOLATION_LEVEL &gt;</text>
<polyline fill="none" stroke="black" points="302,-655.5 553,-655.5 "/>
<text text-anchor="middle" x="427.5" y="-643.5" font-family="Helvetica,sans-Serif" font-size="10.00"> </text>
<polyline fill="none" stroke="black" points="302,-636.5 553,-636.5 "/>
<text text-anchor="start" x="310" y="-624.5" font-family="Helvetica,sans-Serif" font-size="10.00">+ AbstractFeVolumeIntegral</text>
<text text-anchor="start" x="310" y="-613.5" font-family="Helvetica,sans-Serif" font-size="10.00">Assembler()</text>
<text text-anchor="start" x="310" y="-602.5" font-family="Helvetica,sans-Serif" font-size="10.00">+ ~AbstractFeVolumeIntegral</text>
<text text-anchor="start" x="310" y="-591.5" font-family="Helvetica,sans-Serif" font-size="10.00">Assembler()</text>
<text text-anchor="start" x="310" y="-580.5" font-family="Helvetica,sans-Serif" font-size="10.00"># ComputeTransformedBasisFunction</text>
<text text-anchor="start" x="310" y="-569.5" font-family="Helvetica,sans-Serif" font-size="10.00">Derivatives()</text>
<text text-anchor="start" x="310" y="-558.5" font-family="Helvetica,sans-Serif" font-size="10.00"># DoAssemble()</text>
<text text-anchor="start" x="310" y="-547.5" font-family="Helvetica,sans-Serif" font-size="10.00"># ComputeMatrixTerm()</text>
<text text-anchor="start" x="310" y="-536.5" font-family="Helvetica,sans-Serif" font-size="10.00"># ComputeVectorTerm()</text>
<text text-anchor="start" x="310" y="-525.5" font-family="Helvetica,sans-Serif" font-size="10.00"># AssembleOnElement()</text>
<text text-anchor="start" x="310" y="-514.5" font-family="Helvetica,sans-Serif" font-size="10.00"># ElementAssemblyCriterion()</text>
</a>
</g>
</g>
<!-- Node3&#45;&gt;Node16 -->
<g id="edge17" class="edge"><title>Node3&#45;&gt;Node16</title>
<path fill="none" stroke="midnightblue" d="M414.394,-767.103C415.758,-751.166 417.167,-734.703 418.533,-718.747"/>
<polygon fill="none" stroke="midnightblue" points="410.87,-767.228 413.505,-777.49 417.845,-767.825 410.87,-767.228"/>
</g>
<!-- Node4 -->
<g id="node4" class="node"><title>Node4</title>
<g id="a_node4"><a xlink:href="classAbstractFeAssemblerInterface.html" target="_top" xlink:title="{AbstractFeAssemblerInterface\l\&lt; CAN_ASSEMBLE_VECTOR, CAN\l_ASSEMBLE_MATRIX \&gt;\n||+ AbstractFeAssemblerInterface()\l+ SetMatrixToAssemble()\l+ SetVectorToAssemble()\l+ Assemble()\l+ AssembleMatrix()\l+ AssembleVector()\l+ ~AbstractFeAssemblerInterface()\l# DoAssemble()\l}">
<polygon fill="white" stroke="black" points="280.5,-1025.5 280.5,-1181.5 462.5,-1181.5 462.5,-1025.5 280.5,-1025.5"/>
<text text-anchor="start" x="288.5" y="-1169.5" font-family="Helvetica,sans-Serif" font-size="10.00">AbstractFeAssemblerInterface</text>
<text text-anchor="start" x="288.5" y="-1158.5" font-family="Helvetica,sans-Serif" font-size="10.00">&lt; CAN_ASSEMBLE_VECTOR, CAN</text>
<text text-anchor="middle" x="371.5" y="-1147.5" font-family="Helvetica,sans-Serif" font-size="10.00">_ASSEMBLE_MATRIX &gt;</text>
<polyline fill="none" stroke="black" points="280.5,-1140.5 462.5,-1140.5 "/>
<text text-anchor="middle" x="371.5" y="-1128.5" font-family="Helvetica,sans-Serif" font-size="10.00"> </text>
<polyline fill="none" stroke="black" points="280.5,-1121.5 462.5,-1121.5 "/>
<text text-anchor="start" x="288.5" y="-1109.5" font-family="Helvetica,sans-Serif" font-size="10.00">+ AbstractFeAssemblerInterface()</text>
<text text-anchor="start" x="288.5" y="-1098.5" font-family="Helvetica,sans-Serif" font-size="10.00">+ SetMatrixToAssemble()</text>
<text text-anchor="start" x="288.5" y="-1087.5" font-family="Helvetica,sans-Serif" font-size="10.00">+ SetVectorToAssemble()</text>
<text text-anchor="start" x="288.5" y="-1076.5" font-family="Helvetica,sans-Serif" font-size="10.00">+ Assemble()</text>
<text text-anchor="start" x="288.5" y="-1065.5" font-family="Helvetica,sans-Serif" font-size="10.00">+ AssembleMatrix()</text>
<text text-anchor="start" x="288.5" y="-1054.5" font-family="Helvetica,sans-Serif" font-size="10.00">+ AssembleVector()</text>
<text text-anchor="start" x="288.5" y="-1043.5" font-family="Helvetica,sans-Serif" font-size="10.00">+ ~AbstractFeAssemblerInterface()</text>
<text text-anchor="start" x="288.5" y="-1032.5" font-family="Helvetica,sans-Serif" font-size="10.00"># DoAssemble()</text>
</a>
</g>
</g>
<!-- Node4&#45;&gt;Node3 -->
<g id="edge3" class="edge"><title>Node4&#45;&gt;Node3</title>
<path fill="none" stroke="midnightblue" d="M382.242,-1015.18C383.615,-1005 385.049,-994.764 386.5,-985 387.384,-979.05 388.327,-972.928 389.303,-966.76"/>
<polygon fill="none" stroke="midnightblue" points="378.742,-1014.95 380.892,-1025.33 385.681,-1015.88 378.742,-1014.95"/>
</g>
<!-- Node5 -->
<g id="node5" class="node"><title>Node5</title>
<polygon fill="white" stroke="#bfbfbf" points="146,-1262.5 146,-1319.5 217,-1319.5 217,-1262.5 146,-1262.5"/>
<text text-anchor="middle" x="181.5" y="-1307.5" font-family="Helvetica,sans-Serif" font-size="10.00">noncopyable</text>
<polyline fill="none" stroke="#bfbfbf" points="146,-1300.5 217,-1300.5 "/>
<text text-anchor="middle" x="181.5" y="-1288.5" font-family="Helvetica,sans-Serif" font-size="10.00"> </text>
<polyline fill="none" stroke="#bfbfbf" points="146,-1281.5 217,-1281.5 "/>
<text text-anchor="middle" x="181.5" y="-1269.5" font-family="Helvetica,sans-Serif" font-size="10.00"> </text>
</g>
<!-- Node5&#45;&gt;Node4 -->
<g id="edge4" class="edge"><title>Node5&#45;&gt;Node4</title>
<path fill="none" stroke="#8b1a1a" d="M206.361,-1254.1C218.993,-1236.94 235.113,-1216.57 251.5,-1200 260.486,-1190.91 270.322,-1181.88 280.372,-1173.19"/>
<polygon fill="none" stroke="#8b1a1a" points="203.495,-1252.09 200.454,-1262.24 209.16,-1256.2 203.495,-1252.09"/>
</g>
<!-- Node6 -->
<g id="node6" class="node"><title>Node6</title>
<g id="a_node6"><a xlink:href="classbool.html" target="_top" xlink:title="{bool\n||}">
<polygon fill="white" stroke="black" points="0,-1262.5 0,-1319.5 35,-1319.5 35,-1262.5 0,-1262.5"/>
<text text-anchor="middle" x="17.5" y="-1307.5" font-family="Helvetica,sans-Serif" font-size="10.00">bool</text>
<polyline fill="none" stroke="black" points="0,-1300.5 35,-1300.5 "/>
<text text-anchor="middle" x="17.5" y="-1288.5" font-family="Helvetica,sans-Serif" font-size="10.00"> </text>
<polyline fill="none" stroke="black" points="0,-1281.5 35,-1281.5 "/>
<text text-anchor="middle" x="17.5" y="-1269.5" font-family="Helvetica,sans-Serif" font-size="10.00"> </text>
</a>
</g>
</g>
<!-- Node6&#45;&gt;Node1 -->
<g id="edge22" class="edge"><title>Node6&#45;&gt;Node1</title>
<path fill="none" stroke="#404040" d="M13.3848,-1262.42C8.35358,-1226.25 0.5,-1160.77 0.5,-1104.5 0.5,-1104.5 0.5,-1104.5 0.5,-336.5 0.5,-193.204 190.259,-133.396 309.996,-109.921"/>
<polygon fill="none" stroke="#404040" points="310.285,-109.867 315.434,-104.818 322.075,-107.629 316.926,-112.678 310.285,-109.867"/>
<text text-anchor="middle" x="68.5" y="-751" font-family="Helvetica,sans-Serif" font-size="10.00"> #mWeAllocatedSolverMemory</text>
<text text-anchor="middle" x="68.5" y="-740" font-family="Helvetica,sans-Serif" font-size="10.00">#mUseAnalyticalJacobian</text>
</g>
<!-- Node6&#45;&gt;Node4 -->
<g id="edge5" class="edge"><title>Node6&#45;&gt;Node4</title>
<path fill="none" stroke="#404040" d="M29.7401,-1262.35C39.8833,-1242.4 56.0967,-1216.22 77.5,-1200 133.14,-1157.84 208.142,-1133.87 268.465,-1120.49"/>
<polygon fill="none" stroke="#404040" points="268.59,-1120.46 273.62,-1115.29 280.324,-1117.95 275.294,-1123.11 268.59,-1120.46"/>
<text text-anchor="middle" x="144.5" y="-1236" font-family="Helvetica,sans-Serif" font-size="10.00"> #mAssembleVector</text>
<text text-anchor="middle" x="144.5" y="-1225" font-family="Helvetica,sans-Serif" font-size="10.00">#mZeroVectorBeforeAssembly</text>
<text text-anchor="middle" x="144.5" y="-1214" font-family="Helvetica,sans-Serif" font-size="10.00">#mAssembleMatrix</text>
<text text-anchor="middle" x="144.5" y="-1203" font-family="Helvetica,sans-Serif" font-size="10.00">#mZeroMatrixBeforeAssembly</text>
</g>
<!-- Node7 -->
<g id="node7" class="node"><title>Node7</title>
<g id="a_node7"><a xlink:href="classMat.html" target="_top" xlink:title="{Mat\n||}">
<polygon fill="white" stroke="black" points="235,-1262.5 235,-1319.5 268,-1319.5 268,-1262.5 235,-1262.5"/>
<text text-anchor="middle" x="251.5" y="-1307.5" font-family="Helvetica,sans-Serif" font-size="10.00">Mat</text>
<polyline fill="none" stroke="black" points="235,-1300.5 268,-1300.5 "/>
<text text-anchor="middle" x="251.5" y="-1288.5" font-family="Helvetica,sans-Serif" font-size="10.00"> </text>
<polyline fill="none" stroke="black" points="235,-1281.5 268,-1281.5 "/>
<text text-anchor="middle" x="251.5" y="-1269.5" font-family="Helvetica,sans-Serif" font-size="10.00"> </text>
</a>
</g>
</g>
<!-- Node7&#45;&gt;Node4 -->
<g id="edge6" class="edge"><title>Node7&#45;&gt;Node4</title>
<path fill="none" stroke="#404040" d="M252.671,-1262.1C254.475,-1243.51 258.884,-1219.08 269.5,-1200 271.104,-1197.12 272.825,-1194.27 274.646,-1191.47"/>
<polygon fill="none" stroke="#404040" points="274.749,-1191.32 274.926,-1184.11 281.649,-1181.5 281.472,-1188.71 274.749,-1191.32"/>
<text text-anchor="middle" x="319" y="-1219.5" font-family="Helvetica,sans-Serif" font-size="10.00"> #mMatrixToAssemble</text>
</g>
<!-- Node8 -->
<g id="node8" class="node"><title>Node8</title>
<g id="a_node8"><a xlink:href="classPetscInt.html" target="_top" xlink:title="{PetscInt\n||}">
<polygon fill="white" stroke="black" points="346,-1262.5 346,-1319.5 399,-1319.5 399,-1262.5 346,-1262.5"/>
<text text-anchor="middle" x="372.5" y="-1307.5" font-family="Helvetica,sans-Serif" font-size="10.00">PetscInt</text>
<polyline fill="none" stroke="black" points="346,-1300.5 399,-1300.5 "/>
<text text-anchor="middle" x="372.5" y="-1288.5" font-family="Helvetica,sans-Serif" font-size="10.00"> </text>
<polyline fill="none" stroke="black" points="346,-1281.5 399,-1281.5 "/>
<text text-anchor="middle" x="372.5" y="-1269.5" font-family="Helvetica,sans-Serif" font-size="10.00"> </text>
</a>
</g>
</g>
<!-- Node8&#45;&gt;Node4 -->
<g id="edge7" class="edge"><title>Node8&#45;&gt;Node4</title>
<path fill="none" stroke="#404040" d="M372.35,-1262.23C372.251,-1243.9 372.116,-1218.77 371.982,-1193.96"/>
<polygon fill="none" stroke="#404040" points="371.982,-1193.83 367.949,-1187.85 371.917,-1181.83 375.949,-1187.81 371.982,-1193.83"/>
<text text-anchor="middle" x="423.5" y="-1225" font-family="Helvetica,sans-Serif" font-size="10.00"> #mOwnershipRangeHi</text>
<text text-anchor="middle" x="423.5" y="-1214" font-family="Helvetica,sans-Serif" font-size="10.00">#mOwnershipRangeLo</text>
</g>
<!-- Node9 -->
<g id="node9" class="node"><title>Node9</title>
<g id="a_node9"><a xlink:href="classVec.html" target="_top" xlink:title="{Vec\n||}">
<polygon fill="white" stroke="black" points="541.5,-1262.5 541.5,-1319.5 575.5,-1319.5 575.5,-1262.5 541.5,-1262.5"/>
<text text-anchor="middle" x="558.5" y="-1307.5" font-family="Helvetica,sans-Serif" font-size="10.00">Vec</text>
<polyline fill="none" stroke="black" points="541.5,-1300.5 575.5,-1300.5 "/>
<text text-anchor="middle" x="558.5" y="-1288.5" font-family="Helvetica,sans-Serif" font-size="10.00"> </text>
<polyline fill="none" stroke="black" points="541.5,-1281.5 575.5,-1281.5 "/>
<text text-anchor="middle" x="558.5" y="-1269.5" font-family="Helvetica,sans-Serif" font-size="10.00"> </text>
</a>
</g>
</g>
<!-- Node9&#45;&gt;Node4 -->
<g id="edge8" class="edge"><title>Node9&#45;&gt;Node4</title>
<path fill="none" stroke="#404040" d="M541.287,-1281.1C527.129,-1273.03 507.368,-1259.99 494.5,-1244 481.146,-1227.41 487.838,-1217.36 475.5,-1200 473.368,-1197 471.128,-1194.02 468.801,-1191.08"/>
<polygon fill="none" stroke="#404040" points="468.754,-1191.02 461.845,-1188.95 461.094,-1181.78 468.003,-1183.85 468.754,-1191.02"/>
<text text-anchor="middle" x="544.5" y="-1219.5" font-family="Helvetica,sans-Serif" font-size="10.00"> #mVectorToAssemble</text>
</g>
<!-- Node10 -->
<g id="node10" class="node"><title>Node10</title>
<g id="a_node10"><a xlink:href="classReplicatableVector.html" target="_top" xlink:title="{ReplicatableVector\n||+ ReplicatableVector()\l+ ReplicatableVector()\l+ ReplicatableVector()\l+ ~ReplicatableVector()\l+ GetSize()\l+ Resize()\l+ operator[]()\l+ Replicate()\l+ ReplicatePetscVector()\l&#45; RemovePetscContext()\l}">
<polygon fill="white" stroke="black" points="641,-1025.5 641,-1181.5 768,-1181.5 768,-1025.5 641,-1025.5"/>
<text text-anchor="middle" x="704.5" y="-1169.5" font-family="Helvetica,sans-Serif" font-size="10.00">ReplicatableVector</text>
<polyline fill="none" stroke="black" points="641,-1162.5 768,-1162.5 "/>
<text text-anchor="middle" x="704.5" y="-1150.5" font-family="Helvetica,sans-Serif" font-size="10.00"> </text>
<polyline fill="none" stroke="black" points="641,-1143.5 768,-1143.5 "/>
<text text-anchor="start" x="649" y="-1131.5" font-family="Helvetica,sans-Serif" font-size="10.00">+ ReplicatableVector()</text>
<text text-anchor="start" x="649" y="-1120.5" font-family="Helvetica,sans-Serif" font-size="10.00">+ ReplicatableVector()</text>
<text text-anchor="start" x="649" y="-1109.5" font-family="Helvetica,sans-Serif" font-size="10.00">+ ReplicatableVector()</text>
<text text-anchor="start" x="649" y="-1098.5" font-family="Helvetica,sans-Serif" font-size="10.00">+ ~ReplicatableVector()</text>
<text text-anchor="start" x="649" y="-1087.5" font-family="Helvetica,sans-Serif" font-size="10.00">+ GetSize()</text>
<text text-anchor="start" x="649" y="-1076.5" font-family="Helvetica,sans-Serif" font-size="10.00">+ Resize()</text>
<text text-anchor="start" x="649" y="-1065.5" font-family="Helvetica,sans-Serif" font-size="10.00">+ operator[]()</text>
<text text-anchor="start" x="649" y="-1054.5" font-family="Helvetica,sans-Serif" font-size="10.00">+ Replicate()</text>
<text text-anchor="start" x="649" y="-1043.5" font-family="Helvetica,sans-Serif" font-size="10.00">+ ReplicatePetscVector()</text>
<text text-anchor="start" x="649" y="-1032.5" font-family="Helvetica,sans-Serif" font-size="10.00">&#45; RemovePetscContext()</text>
</a>
</g>
</g>
<!-- Node9&#45;&gt;Node10 -->
<g id="edge13" class="edge"><title>Node9&#45;&gt;Node10</title>
<path fill="none" stroke="#404040" d="M575.524,-1270.99C582.737,-1262.79 591.155,-1253.03 598.5,-1244 603.222,-1238.19 619.982,-1216.23 638.826,-1191.39"/>
<polygon fill="none" stroke="#404040" points="638.879,-1191.32 639.317,-1184.13 646.129,-1181.76 645.691,-1188.96 638.879,-1191.32"/>
<text text-anchor="middle" x="661" y="-1219.5" font-family="Helvetica,sans-Serif" font-size="10.00"> &#45;mReplicated</text>
</g>
<!-- Node10&#45;&gt;Node3 -->
<g id="edge9" class="edge"><title>Node10&#45;&gt;Node3</title>
<path fill="none" stroke="#404040" d="M640.965,-1059.37C603.533,-1033.43 555.609,-999.274 514.5,-967 514.178,-966.747 513.855,-966.493 513.532,-966.239"/>
<polygon fill="none" stroke="#404040" points="513.47,-966.19 506.285,-965.578 504.085,-958.711 511.27,-959.322 513.47,-966.19"/>
<text text-anchor="start" x="566.5" y="-999" font-family="Helvetica,sans-Serif" font-size="10.00"> #mCurrentSolutionOrGuess</text>
<text text-anchor="middle" x="628.5" y="-988" font-family="Helvetica,sans-Serif" font-size="10.00">Replicated</text>
</g>
<!-- Node11 -->
<g id="node11" class="node"><title>Node11</title>
<g id="a_node11"><a xlink:href="classdouble.html" target="_top" xlink:title="{double\n||}">
<polygon fill="white" stroke="black" points="820,-1262.5 820,-1319.5 865,-1319.5 865,-1262.5 820,-1262.5"/>
<text text-anchor="middle" x="842.5" y="-1307.5" font-family="Helvetica,sans-Serif" font-size="10.00">double</text>
<polyline fill="none" stroke="black" points="820,-1300.5 865,-1300.5 "/>
<text text-anchor="middle" x="842.5" y="-1288.5" font-family="Helvetica,sans-Serif" font-size="10.00"> </text>
<polyline fill="none" stroke="black" points="820,-1281.5 865,-1281.5 "/>
<text text-anchor="middle" x="842.5" y="-1269.5" font-family="Helvetica,sans-Serif" font-size="10.00"> </text>
</a>
</g>
</g>
<!-- Node11&#45;&gt;Node10 -->
<g id="edge10" class="edge"><title>Node11&#45;&gt;Node10</title>
<path fill="none" stroke="#404040" d="M830.008,-1262.11C821.218,-1243.74 808.549,-1219.56 794.5,-1200 788.878,-1192.17 782.657,-1184.32 776.188,-1176.68"/>
<polygon fill="none" stroke="#404040" points="776.059,-1176.53 769.106,-1174.61 768.198,-1167.46 775.15,-1169.37 776.059,-1176.53"/>
<text text-anchor="middle" x="841" y="-1219.5" font-family="Helvetica,sans-Serif" font-size="10.00"> &#45;mpData</text>
</g>
<!-- Node12 -->
<g id="node12" class="node"><title>Node12</title>
<polygon fill="white" stroke="#bfbfbf" points="662,-1262.5 662,-1319.5 727,-1319.5 727,-1262.5 662,-1262.5"/>
<text text-anchor="middle" x="694.5" y="-1307.5" font-family="Helvetica,sans-Serif" font-size="10.00">VecScatter</text>
<polyline fill="none" stroke="#bfbfbf" points="662,-1300.5 727,-1300.5 "/>
<text text-anchor="middle" x="694.5" y="-1288.5" font-family="Helvetica,sans-Serif" font-size="10.00"> </text>
<polyline fill="none" stroke="#bfbfbf" points="662,-1281.5 727,-1281.5 "/>
<text text-anchor="middle" x="694.5" y="-1269.5" font-family="Helvetica,sans-Serif" font-size="10.00"> </text>
</g>
<!-- Node12&#45;&gt;Node10 -->
<g id="edge11" class="edge"><title>Node12&#45;&gt;Node10</title>
<path fill="none" stroke="#404040" d="M695.997,-1262.23C696.985,-1243.9 698.34,-1218.77 699.677,-1193.96"/>
<polygon fill="none" stroke="#404040" points="699.685,-1193.82 696.014,-1187.61 700.331,-1181.83 704.002,-1188.04 699.685,-1193.82"/>
<text text-anchor="middle" x="718" y="-1219.5" font-family="Helvetica,sans-Serif" font-size="10.00"> &#45;mToAll</text>
</g>
<!-- Node13 -->
<g id="node13" class="node"><title>Node13</title>
<g id="a_node13"><a xlink:href="classunsigned.html" target="_top" xlink:title="{unsigned\n||}">
<polygon fill="white" stroke="black" points="745.5,-1262.5 745.5,-1319.5 801.5,-1319.5 801.5,-1262.5 745.5,-1262.5"/>
<text text-anchor="middle" x="773.5" y="-1307.5" font-family="Helvetica,sans-Serif" font-size="10.00">unsigned</text>
<polyline fill="none" stroke="black" points="745.5,-1300.5 801.5,-1300.5 "/>
<text text-anchor="middle" x="773.5" y="-1288.5" font-family="Helvetica,sans-Serif" font-size="10.00"> </text>
<polyline fill="none" stroke="black" points="745.5,-1281.5 801.5,-1281.5 "/>
<text text-anchor="middle" x="773.5" y="-1269.5" font-family="Helvetica,sans-Serif" font-size="10.00"> </text>
</a>
</g>
</g>
<!-- Node13&#45;&gt;Node10 -->
<g id="edge12" class="edge"><title>Node13&#45;&gt;Node10</title>
<path fill="none" stroke="#404040" d="M763.454,-1262.4C756.949,-1244.58 748.272,-1220.9 740.5,-1200 739.632,-1197.66 738.75,-1195.3 737.859,-1192.91"/>
<polygon fill="none" stroke="#404040" points="737.841,-1192.86 731.993,-1188.64 733.639,-1181.62 739.487,-1185.84 737.841,-1192.86"/>
<text text-anchor="middle" x="773.5" y="-1219.5" font-family="Helvetica,sans-Serif" font-size="10.00"> &#45;mSize</text>
</g>
<!-- Node14 -->
<g id="node14" class="node"><title>Node14</title>
<polygon fill="white" stroke="#bfbfbf" points="523.5,-838 523.5,-906 649.5,-906 649.5,-838 523.5,-838"/>
<text text-anchor="start" x="531.5" y="-894" font-family="Helvetica,sans-Serif" font-size="10.00">GaussianQuadratureRule</text>
<text text-anchor="middle" x="586.5" y="-883" font-family="Helvetica,sans-Serif" font-size="10.00">&lt; ELEMENT_DIM &gt; *</text>
<polyline fill="none" stroke="#bfbfbf" points="523.5,-876 649.5,-876 "/>
<text text-anchor="middle" x="586.5" y="-864" font-family="Helvetica,sans-Serif" font-size="10.00"> </text>
<polyline fill="none" stroke="#bfbfbf" points="523.5,-857 649.5,-857 "/>
<text text-anchor="middle" x="586.5" y="-845" font-family="Helvetica,sans-Serif" font-size="10.00"> </text>
</g>
<!-- Node14&#45;&gt;Node2 -->
<g id="edge14" class="edge"><title>Node14&#45;&gt;Node2</title>
<path fill="none" stroke="#404040" d="M593.199,-837.906C605.014,-770.535 622.892,-614.73 561.5,-507 541.724,-472.296 524.623,-470.743 487.5,-456 441.946,-437.908 420.48,-458.493 372.711,-438.317"/>
<polygon fill="none" stroke="#404040" points="372.619,-438.274 365.489,-439.353 361.751,-433.186 368.881,-432.107 372.619,-438.274"/>
<text text-anchor="middle" x="638.5" y="-610.5" font-family="Helvetica,sans-Serif" font-size="10.00"> #mpQuadRule</text>
</g>
<!-- Node14&#45;&gt;Node16 -->
<g id="edge18" class="edge"><title>Node14&#45;&gt;Node16</title>
<path fill="none" stroke="#404040" d="M562.468,-837.695C546.87,-815.684 526.38,-786.015 509.5,-759 503.529,-749.443 497.475,-739.437 491.504,-729.339"/>
<polygon fill="none" stroke="#404040" points="491.391,-729.146 484.904,-725.996 485.317,-718.797 491.803,-721.947 491.391,-729.146"/>
<text text-anchor="middle" x="542.5" y="-745.5" font-family="Helvetica,sans-Serif" font-size="10.00"> #mpQuadRule</text>
</g>
<!-- Node15 -->
<g id="node15" class="node"><title>Node15</title>
<polygon fill="white" stroke="#bfbfbf" points="111,-838 111,-906 288,-906 288,-838 111,-838"/>
<text text-anchor="start" x="119" y="-894" font-family="Helvetica,sans-Serif" font-size="10.00">AbstractTetrahedralMesh</text>
<text text-anchor="middle" x="199.5" y="-883" font-family="Helvetica,sans-Serif" font-size="10.00">&lt; ELEMENT_DIM, SPACE_DIM &gt; *</text>
<polyline fill="none" stroke="#bfbfbf" points="111,-876 288,-876 "/>
<text text-anchor="middle" x="199.5" y="-864" font-family="Helvetica,sans-Serif" font-size="10.00"> </text>
<polyline fill="none" stroke="#bfbfbf" points="111,-857 288,-857 "/>
<text text-anchor="middle" x="199.5" y="-845" font-family="Helvetica,sans-Serif" font-size="10.00"> </text>
</g>
<!-- Node15&#45;&gt;Node1 -->
<g id="edge21" class="edge"><title>Node15&#45;&gt;Node1</title>
<path fill="none" stroke="#404040" d="M186.38,-837.798C149.444,-738.547 54.5699,-438.523 170.5,-237 200.947,-184.073 259.924,-148.777 311.176,-126.736"/>
<polygon fill="none" stroke="#404040" points="311.24,-126.709 315.242,-120.71 322.318,-122.096 318.317,-128.095 311.24,-126.709"/>
<text text-anchor="middle" x="138.5" y="-470" font-family="Helvetica,sans-Serif" font-size="10.00"> #mpMesh</text>
</g>
<!-- Node15&#45;&gt;Node2 -->
<g id="edge15" class="edge"><title>Node15&#45;&gt;Node2</title>
<path fill="none" stroke="#404040" d="M197.617,-837.775C194.659,-773.345 191.341,-627.188 213.5,-507 216.978,-488.137 222.123,-468.509 227.922,-449.597"/>
<polygon fill="none" stroke="#404040" points="227.994,-449.37 225.987,-442.444 231.608,-437.928 233.615,-444.854 227.994,-449.37"/>
<text text-anchor="middle" x="236.5" y="-610.5" font-family="Helvetica,sans-Serif" font-size="10.00"> #mpMesh</text>
</g>
<!-- Node15&#45;&gt;Node16 -->
<g id="edge19" class="edge"><title>Node15&#45;&gt;Node16</title>
<path fill="none" stroke="#404040" d="M228.84,-837.928C253.775,-809.822 291.089,-767.761 326.669,-727.656"/>
<polygon fill="none" stroke="#404040" points="326.742,-727.574 327.732,-720.431 334.706,-718.597 333.716,-725.74 326.742,-727.574"/>
<text text-anchor="middle" x="336.5" y="-745.5" font-family="Helvetica,sans-Serif" font-size="10.00"> #mpMesh</text>
</g>
<!-- Node16&#45;&gt;Node2 -->
<g id="edge16" class="edge"><title>Node16&#45;&gt;Node2</title>
<path fill="none" stroke="orange" d="M362.351,-498.509C350.748,-478.295 338.743,-457.382 327.392,-437.608"/>
<polygon fill="orange" stroke="orange" points="359.459,-500.5 367.473,-507.431 365.53,-497.016 359.459,-500.5"/>
<text text-anchor="start" x="354.5" y="-481" font-family="Helvetica,sans-Serif" font-size="10.00"> &lt; ELEMENT_DIM, SPACE</text>
<text text-anchor="start" x="354.5" y="-470" font-family="Helvetica,sans-Serif" font-size="10.00">_DIM, PROBLEM_DIM, true,</text>
<text text-anchor="middle" x="419" y="-459" font-family="Helvetica,sans-Serif" font-size="10.00"> true, NONLINEAR &gt;</text>
</g>
<!-- Node17 -->
<g id="node17" class="node"><title>Node17</title>
<g id="a_node17"><a xlink:href="classAbstractNonlinearSolver.html" target="_top" xlink:title="{AbstractNonlinearSolver\n||+ Solve()\l+ ~AbstractNonlinearSolver()\l}">
<polygon fill="white" stroke="black" points="380,-303.5 380,-371.5 523,-371.5 523,-303.5 380,-303.5"/>
<text text-anchor="middle" x="451.5" y="-359.5" font-family="Helvetica,sans-Serif" font-size="10.00">AbstractNonlinearSolver</text>
<polyline fill="none" stroke="black" points="380,-352.5 523,-352.5 "/>
<text text-anchor="middle" x="451.5" y="-340.5" font-family="Helvetica,sans-Serif" font-size="10.00"> </text>
<polyline fill="none" stroke="black" points="380,-333.5 523,-333.5 "/>
<text text-anchor="start" x="388" y="-321.5" font-family="Helvetica,sans-Serif" font-size="10.00">+ Solve()</text>
<text text-anchor="start" x="388" y="-310.5" font-family="Helvetica,sans-Serif" font-size="10.00">+ ~AbstractNonlinearSolver()</text>
</a>
</g>
</g>
<!-- Node17&#45;&gt;Node1 -->
<g id="edge20" class="edge"><title>Node17&#45;&gt;Node1</title>
<path fill="none" stroke="#404040" d="M445.152,-303.312C440.093,-276.86 432.716,-238.292 425.694,-201.577"/>
<polygon fill="none" stroke="#404040" points="425.684,-201.526 420.628,-196.385 423.429,-189.74 428.485,-194.882 425.684,-201.526"/>
<text text-anchor="middle" x="453.5" y="-211" font-family="Helvetica,sans-Serif" font-size="10.00"> #mpSolver</text>
</g>
<!-- Node18 -->
<g id="node18" class="node"><title>Node18</title>
<g id="a_node18"><a xlink:href="classNaturalNeumannSurfaceTermAssembler_3_01ELEMENT__DIM_00_01SPACE__DIM_00_01PROBLEM__DIM_01_4.html" target="_top" xlink:title="{NaturalNeumannSurfaceTerm\lAssembler\&lt; ELEMENT_DIM,\l SPACE_DIM, PROBLEM_DIM \&gt;\n||}">
<polygon fill="white" stroke="black" points="541.5,-298 541.5,-377 707.5,-377 707.5,-298 541.5,-298"/>
<text text-anchor="start" x="549.5" y="-365" font-family="Helvetica,sans-Serif" font-size="10.00">NaturalNeumannSurfaceTerm</text>
<text text-anchor="start" x="549.5" y="-354" font-family="Helvetica,sans-Serif" font-size="10.00">Assembler&lt; ELEMENT_DIM,</text>
<text text-anchor="middle" x="624.5" y="-343" font-family="Helvetica,sans-Serif" font-size="10.00"> SPACE_DIM, PROBLEM_DIM &gt;</text>
<polyline fill="none" stroke="black" points="541.5,-336 707.5,-336 "/>
<text text-anchor="middle" x="624.5" y="-324" font-family="Helvetica,sans-Serif" font-size="10.00"> </text>
<polyline fill="none" stroke="black" points="541.5,-317 707.5,-317 "/>
<text text-anchor="middle" x="624.5" y="-305" font-family="Helvetica,sans-Serif" font-size="10.00"> </text>
</a>
</g>
</g>
<!-- Node18&#45;&gt;Node1 -->
<g id="edge23" class="edge"><title>Node18&#45;&gt;Node1</title>
<path fill="none" stroke="#404040" d="M589.314,-297.86C564.29,-270.379 529.462,-232.132 496.845,-196.313"/>
<polygon fill="none" stroke="#404040" points="496.687,-196.14 489.69,-194.396 488.608,-187.267 495.605,-189.01 496.687,-196.14"/>
<text text-anchor="middle" x="601.5" y="-211" font-family="Helvetica,sans-Serif" font-size="10.00"> #mpNeumannSurfaceTermsAssembler</text>
</g>
<!-- Node19 -->
<g id="node19" class="node"><title>Node19</title>
<polygon fill="white" stroke="#bfbfbf" points="731.5,-298 731.5,-377 895.5,-377 895.5,-298 731.5,-298"/>
<text text-anchor="start" x="739.5" y="-365" font-family="Helvetica,sans-Serif" font-size="10.00">BoundaryConditionsContainer</text>
<text text-anchor="start" x="739.5" y="-354" font-family="Helvetica,sans-Serif" font-size="10.00">&lt; ELEMENT_DIM, SPACE_DIM,</text>
<text text-anchor="middle" x="813.5" y="-343" font-family="Helvetica,sans-Serif" font-size="10.00"> PROBLEM_DIM &gt; *</text>
<polyline fill="none" stroke="#bfbfbf" points="731.5,-336 895.5,-336 "/>
<text text-anchor="middle" x="813.5" y="-324" font-family="Helvetica,sans-Serif" font-size="10.00"> </text>
<polyline fill="none" stroke="#bfbfbf" points="731.5,-317 895.5,-317 "/>
<text text-anchor="middle" x="813.5" y="-305" font-family="Helvetica,sans-Serif" font-size="10.00"> </text>
</g>
<!-- Node19&#45;&gt;Node1 -->
<g id="edge24" class="edge"><title>Node19&#45;&gt;Node1</title>
<path fill="none" stroke="#404040" d="M784.507,-297.847C761.787,-269.776 727.997,-232.558 691.5,-208 633.037,-168.661 558.724,-140.092 500.502,-121.656"/>
<polygon fill="none" stroke="#404040" points="500.167,-121.552 493.25,-123.591 488.708,-117.99 495.625,-115.952 500.167,-121.552"/>
<text text-anchor="middle" x="758.5" y="-211" font-family="Helvetica,sans-Serif" font-size="10.00"> #mpBoundaryConditions</text>
</g>
</g>
</svg>
