<?xml version="1.0" encoding="UTF-8" standalone="no"?>
<!DOCTYPE svg PUBLIC "-//W3C//DTD SVG 1.1//EN"
 "http://www.w3.org/Graphics/SVG/1.1/DTD/svg11.dtd">
<!-- Generated by graphviz version 2.38.0 (20140413.2041)
 -->
<!-- Title: FibreWriter&lt; DIM &gt; Pages: 1 -->
<svg width="363pt" height="463pt"
 viewBox="0.00 0.00 362.70 463.00" xmlns="http://www.w3.org/2000/svg" xmlns:xlink="http://www.w3.org/1999/xlink">
<g id="graph0" class="graph" transform="scale(1 1) rotate(0) translate(4 459)">
<title>FibreWriter&lt; DIM &gt;</title>
<polygon fill="white" stroke="none" points="-4,4 -4,-459 358.699,-459 358.699,4 -4,4"/>
<!-- Node1 -->
<g id="node1" class="node"><title>Node1</title>
<polygon fill="#bfbfbf" stroke="black" points="112.699,-0.5 112.699,-112.5 252.699,-112.5 252.699,-0.5 112.699,-0.5"/>
<text text-anchor="middle" x="182.699" y="-100.5" font-family="Helvetica,sans-Serif" font-size="10.00">FibreWriter&lt; DIM &gt;</text>
<polyline fill="none" stroke="black" points="112.699,-93.5 252.699,-93.5 "/>
<text text-anchor="middle" x="182.699" y="-81.5" font-family="Helvetica,sans-Serif" font-size="10.00"> </text>
<polyline fill="none" stroke="black" points="112.699,-74.5 252.699,-74.5 "/>
<text text-anchor="start" x="120.699" y="-62.5" font-family="Helvetica,sans-Serif" font-size="10.00">+ FibreWriter()</text>
<text text-anchor="start" x="120.699" y="-51.5" font-family="Helvetica,sans-Serif" font-size="10.00">+ ~FibreWriter()</text>
<text text-anchor="start" x="120.699" y="-40.5" font-family="Helvetica,sans-Serif" font-size="10.00">+ WriteAllAxi()</text>
<text text-anchor="start" x="120.699" y="-29.5" font-family="Helvetica,sans-Serif" font-size="10.00">+ WriteAllOrtho()</text>
<text text-anchor="start" x="120.699" y="-18.5" font-family="Helvetica,sans-Serif" font-size="10.00">+ SetWriteFileAsBinary()</text>
<text text-anchor="start" x="120.699" y="-7.5" font-family="Helvetica,sans-Serif" font-size="10.00">&#45; OpenFileAndWriteHeader()</text>
</g>
<!-- Node2 -->
<g id="node2" class="node"><title>Node2</title>
<g id="a_node2"><a xlink:href="classOutputFileHandler.html" target="_top" xlink:title="{OutputFileHandler\n||+ OutputFileHandler()\l+ OutputFileHandler()\l+ GetOutputDirectoryFullPath()\l+ GetRelativePath()\l+ SetArchiveDirectory()\l+ OpenOutputFile()\l+ OpenOutputFile()\l+ CopyFileTo()\l+ FindFile()\l+ GetChasteTestOutputDirectory()\l&#45; CommonConstructor()\l&#45; MakeFoldersAndReturnFullPath()\l&#45; AddTrailingSlash()\l}">
<polygon fill="white" stroke="black" points="101.199,-160.5 101.199,-349.5 268.199,-349.5 268.199,-160.5 101.199,-160.5"/>
<text text-anchor="middle" x="184.699" y="-337.5" font-family="Helvetica,sans-Serif" font-size="10.00">OutputFileHandler</text>
<polyline fill="none" stroke="black" points="101.199,-330.5 268.199,-330.5 "/>
<text text-anchor="middle" x="184.699" y="-318.5" font-family="Helvetica,sans-Serif" font-size="10.00"> </text>
<polyline fill="none" stroke="black" points="101.199,-311.5 268.199,-311.5 "/>
<text text-anchor="start" x="109.199" y="-299.5" font-family="Helvetica,sans-Serif" font-size="10.00">+ OutputFileHandler()</text>
<text text-anchor="start" x="109.199" y="-288.5" font-family="Helvetica,sans-Serif" font-size="10.00">+ OutputFileHandler()</text>
<text text-anchor="start" x="109.199" y="-277.5" font-family="Helvetica,sans-Serif" font-size="10.00">+ GetOutputDirectoryFullPath()</text>
<text text-anchor="start" x="109.199" y="-266.5" font-family="Helvetica,sans-Serif" font-size="10.00">+ GetRelativePath()</text>
<text text-anchor="start" x="109.199" y="-255.5" font-family="Helvetica,sans-Serif" font-size="10.00">+ SetArchiveDirectory()</text>
<text text-anchor="start" x="109.199" y="-244.5" font-family="Helvetica,sans-Serif" font-size="10.00">+ OpenOutputFile()</text>
<text text-anchor="start" x="109.199" y="-233.5" font-family="Helvetica,sans-Serif" font-size="10.00">+ OpenOutputFile()</text>
<text text-anchor="start" x="109.199" y="-222.5" font-family="Helvetica,sans-Serif" font-size="10.00">+ CopyFileTo()</text>
<text text-anchor="start" x="109.199" y="-211.5" font-family="Helvetica,sans-Serif" font-size="10.00">+ FindFile()</text>
<text text-anchor="start" x="109.199" y="-200.5" font-family="Helvetica,sans-Serif" font-size="10.00">+ GetChasteTestOutputDirectory()</text>
<text text-anchor="start" x="109.199" y="-189.5" font-family="Helvetica,sans-Serif" font-size="10.00">&#45; CommonConstructor()</text>
<text text-anchor="start" x="109.199" y="-178.5" font-family="Helvetica,sans-Serif" font-size="10.00">&#45; MakeFoldersAndReturnFullPath()</text>
<text text-anchor="start" x="109.199" y="-167.5" font-family="Helvetica,sans-Serif" font-size="10.00">&#45; AddTrailingSlash()</text>
</a>
</g>
</g>
<!-- Node2&#45;&gt;Node1 -->
<g id="edge1" class="edge"><title>Node2&#45;&gt;Node1</title>
<path fill="none" stroke="#404040" d="M183.746,-160.354C183.624,-148.376 183.502,-136.307 183.385,-124.861"/>
<polygon fill="none" stroke="#404040" points="183.384,-124.718 179.323,-118.759 183.261,-112.718 187.322,-118.677 183.384,-124.718"/>
<text text-anchor="middle" x="233.199" y="-134" font-family="Helvetica,sans-Serif" font-size="10.00"> &#45;mpOutputFileHandler</text>
</g>
<!-- Node3 -->
<g id="node3" class="node"><title>Node3</title>
<polygon fill="white" stroke="#bfbfbf" points="86.1995,-397.5 86.1995,-454.5 127.199,-454.5 127.199,-397.5 86.1995,-397.5"/>
<text text-anchor="middle" x="106.699" y="-442.5" font-family="Helvetica,sans-Serif" font-size="10.00">string</text>
<polyline fill="none" stroke="#bfbfbf" points="86.1995,-435.5 127.199,-435.5 "/>
<text text-anchor="middle" x="106.699" y="-423.5" font-family="Helvetica,sans-Serif" font-size="10.00"> </text>
<polyline fill="none" stroke="#bfbfbf" points="86.1995,-416.5 127.199,-416.5 "/>
<text text-anchor="middle" x="106.699" y="-404.5" font-family="Helvetica,sans-Serif" font-size="10.00"> </text>
</g>
<!-- Node3&#45;&gt;Node1 -->
<g id="edge5" class="edge"><title>Node3&#45;&gt;Node1</title>
<path fill="none" stroke="#404040" d="M86.0162,-412.512C66.8206,-399.589 39.4917,-377.455 27.6995,-350 -5.62625,-272.41 -12.2852,-234.378 27.6995,-160 43.8895,-129.884 73.2407,-107.136 102.081,-90.8168"/>
<polygon fill="none" stroke="#404040" points="102.103,-90.8045 105.477,-84.4311 112.657,-85.0936 109.284,-91.4671 102.103,-90.8045"/>
<text text-anchor="middle" x="59.6995" y="-252.5" font-family="Helvetica,sans-Serif" font-size="10.00"> &#45;mBaseName</text>
</g>
<!-- Node3&#45;&gt;Node2 -->
<g id="edge2" class="edge"><title>Node3&#45;&gt;Node2</title>
<path fill="none" stroke="#404040" d="M103.992,-397.22C103.902,-387.755 104.741,-377.237 107.699,-368 108.473,-365.586 109.316,-363.177 110.223,-360.778"/>
<polygon fill="none" stroke="#404040" points="110.258,-360.694 108.893,-353.614 114.904,-349.63 116.269,-356.711 110.258,-360.694"/>
<text text-anchor="middle" x="135.199" y="-371" font-family="Helvetica,sans-Serif" font-size="10.00"> &#45;mDirectory</text>
</g>
<!-- Node3&#45;&gt;Node2 -->
<g id="edge3" class="edge"><title>Node3&#45;&gt;Node2</title>
<path fill="none" stroke="#404040" d="M127.201,-413.346C139.455,-405.289 154.239,-393.437 162.699,-379 166.024,-373.327 168.87,-367.272 171.303,-361.007"/>
<polygon fill="none" stroke="#404040" points="171.346,-360.883 169.518,-353.908 175.253,-349.537 177.082,-356.513 171.346,-360.883"/>
<text text-anchor="middle" x="211.699" y="-371" font-family="Helvetica,sans-Serif" font-size="10.00"> +SIG_FILE_NAME</text>
</g>
<!-- Node4 -->
<g id="node4" class="node"><title>Node4</title>
<g id="a_node4"><a xlink:href="classbool.html" target="_top" xlink:title="{bool\n||}">
<polygon fill="white" stroke="black" points="287.199,-226.5 287.199,-283.5 322.199,-283.5 322.199,-226.5 287.199,-226.5"/>
<text text-anchor="middle" x="304.699" y="-271.5" font-family="Helvetica,sans-Serif" font-size="10.00">bool</text>
<polyline fill="none" stroke="black" points="287.199,-264.5 322.199,-264.5 "/>
<text text-anchor="middle" x="304.699" y="-252.5" font-family="Helvetica,sans-Serif" font-size="10.00"> </text>
<polyline fill="none" stroke="black" points="287.199,-245.5 322.199,-245.5 "/>
<text text-anchor="middle" x="304.699" y="-233.5" font-family="Helvetica,sans-Serif" font-size="10.00"> </text>
</a>
</g>
</g>
<!-- Node4&#45;&gt;Node1 -->
<g id="edge4" class="edge"><title>Node4&#45;&gt;Node1</title>
<path fill="none" stroke="#404040" d="M305.456,-226.265C304.925,-199.875 300.761,-160.003 282.699,-131 277.072,-121.964 269.892,-113.678 261.969,-106.189"/>
<polygon fill="none" stroke="#404040" points="261.758,-106.004 254.611,-105.042 252.75,-98.0753 259.897,-99.0368 261.758,-106.004"/>
<text text-anchor="middle" x="321.199" y="-134" font-family="Helvetica,sans-Serif" font-size="10.00"> &#45;mFileIsBinary</text>
</g>
</g>
</svg>
