<?xml version="1.0" encoding="UTF-8" standalone="no"?>
<!DOCTYPE svg PUBLIC "-//W3C//DTD SVG 1.1//EN"
 "http://www.w3.org/Graphics/SVG/1.1/DTD/svg11.dtd">
<!-- Generated by graphviz version 2.38.0 (20140413.2041)
 -->
<!-- Title: Element&lt; ELEMENT_DIM, SPACE_DIM &gt; Pages: 1 -->
<svg width="409pt" height="823pt"
 viewBox="0.00 0.00 408.50 823.00" xmlns="http://www.w3.org/2000/svg" xmlns:xlink="http://www.w3.org/1999/xlink">
<g id="graph0" class="graph" transform="scale(1 1) rotate(0) translate(4 819)">
<title>Element&lt; ELEMENT_DIM, SPACE_DIM &gt;</title>
<polygon fill="white" stroke="none" points="-4,4 -4,-819 404.5,-819 404.5,4 -4,4"/>
<!-- Node1 -->
<g id="node1" class="node"><title>Node1</title>
<polygon fill="#bfbfbf" stroke="black" points="116,-0.5 116,-222.5 283,-222.5 283,-0.5 116,-0.5"/>
<text text-anchor="start" x="124" y="-210.5" font-family="Helvetica,sans-Serif" font-size="10.00">Element&lt; ELEMENT_DIM,</text>
<text text-anchor="middle" x="199.5" y="-199.5" font-family="Helvetica,sans-Serif" font-size="10.00"> SPACE_DIM &gt;</text>
<polyline fill="none" stroke="black" points="116,-192.5 283,-192.5 "/>
<text text-anchor="middle" x="199.5" y="-180.5" font-family="Helvetica,sans-Serif" font-size="10.00"> </text>
<polyline fill="none" stroke="black" points="116,-173.5 283,-173.5 "/>
<text text-anchor="start" x="124" y="-161.5" font-family="Helvetica,sans-Serif" font-size="10.00">+ Element()</text>
<text text-anchor="start" x="124" y="-150.5" font-family="Helvetica,sans-Serif" font-size="10.00">+ Element()</text>
<text text-anchor="start" x="124" y="-139.5" font-family="Helvetica,sans-Serif" font-size="10.00">+ RegisterWithNodes()</text>
<text text-anchor="start" x="124" y="-128.5" font-family="Helvetica,sans-Serif" font-size="10.00">+ MarkAsDeleted()</text>
<text text-anchor="start" x="124" y="-117.5" font-family="Helvetica,sans-Serif" font-size="10.00">+ UpdateNode()</text>
<text text-anchor="start" x="124" y="-106.5" font-family="Helvetica,sans-Serif" font-size="10.00">+ ResetIndex()</text>
<text text-anchor="start" x="124" y="-95.5" font-family="Helvetica,sans-Serif" font-size="10.00">+ CalculateCircumsphere()</text>
<text text-anchor="start" x="124" y="-84.5" font-family="Helvetica,sans-Serif" font-size="10.00">+ CalculateCircumsphereVolume()</text>
<text text-anchor="start" x="124" y="-73.5" font-family="Helvetica,sans-Serif" font-size="10.00">+ CalculateQuality()</text>
<text text-anchor="start" x="124" y="-62.5" font-family="Helvetica,sans-Serif" font-size="10.00">+ CalculateMinMaxEdgeLengths()</text>
<text text-anchor="start" x="124" y="-51.5" font-family="Helvetica,sans-Serif" font-size="10.00">+ CalculateInterpolationWeights()</text>
<text text-anchor="start" x="124" y="-40.5" font-family="Helvetica,sans-Serif" font-size="10.00">+ CalculateInterpolationWeights</text>
<text text-anchor="start" x="124" y="-29.5" font-family="Helvetica,sans-Serif" font-size="10.00">WithProjection()</text>
<text text-anchor="start" x="124" y="-18.5" font-family="Helvetica,sans-Serif" font-size="10.00">+ CalculateXi()</text>
<text text-anchor="start" x="124" y="-7.5" font-family="Helvetica,sans-Serif" font-size="10.00">+ IncludesPoint()</text>
</g>
<!-- Node2 -->
<g id="node2" class="node"><title>Node2</title>
<g id="a_node2"><a xlink:href="classAbstractTetrahedralElement.html" target="_top" xlink:title="{AbstractTetrahedralElement\l\&lt; ELEMENT_DIM, SPACE_DIM \&gt;\n||+ AbstractTetrahedralElement()\l+ AbstractTetrahedralElement()\l+ ~AbstractTetrahedralElement()\l+ CalculateCentroid()\l+ CalculateJacobian()\l+ CalculateWeightedDirection()\l+ CalculateNormal()\l+ CalculateInverseJacobian()\l+ GetVolume()\l+ GetStiffnessMatrixGlobal\lIndices()\l# RefreshJacobian()\l}">
<polygon fill="white" stroke="black" points="114.5,-260.5 114.5,-449.5 284.5,-449.5 284.5,-260.5 114.5,-260.5"/>
<text text-anchor="start" x="122.5" y="-437.5" font-family="Helvetica,sans-Serif" font-size="10.00">AbstractTetrahedralElement</text>
<text text-anchor="middle" x="199.5" y="-426.5" font-family="Helvetica,sans-Serif" font-size="10.00">&lt; ELEMENT_DIM, SPACE_DIM &gt;</text>
<polyline fill="none" stroke="black" points="114.5,-419.5 284.5,-419.5 "/>
<text text-anchor="middle" x="199.5" y="-407.5" font-family="Helvetica,sans-Serif" font-size="10.00"> </text>
<polyline fill="none" stroke="black" points="114.5,-400.5 284.5,-400.5 "/>
<text text-anchor="start" x="122.5" y="-388.5" font-family="Helvetica,sans-Serif" font-size="10.00">+ AbstractTetrahedralElement()</text>
<text text-anchor="start" x="122.5" y="-377.5" font-family="Helvetica,sans-Serif" font-size="10.00">+ AbstractTetrahedralElement()</text>
<text text-anchor="start" x="122.5" y="-366.5" font-family="Helvetica,sans-Serif" font-size="10.00">+ ~AbstractTetrahedralElement()</text>
<text text-anchor="start" x="122.5" y="-355.5" font-family="Helvetica,sans-Serif" font-size="10.00">+ CalculateCentroid()</text>
<text text-anchor="start" x="122.5" y="-344.5" font-family="Helvetica,sans-Serif" font-size="10.00">+ CalculateJacobian()</text>
<text text-anchor="start" x="122.5" y="-333.5" font-family="Helvetica,sans-Serif" font-size="10.00">+ CalculateWeightedDirection()</text>
<text text-anchor="start" x="122.5" y="-322.5" font-family="Helvetica,sans-Serif" font-size="10.00">+ CalculateNormal()</text>
<text text-anchor="start" x="122.5" y="-311.5" font-family="Helvetica,sans-Serif" font-size="10.00">+ CalculateInverseJacobian()</text>
<text text-anchor="start" x="122.5" y="-300.5" font-family="Helvetica,sans-Serif" font-size="10.00">+ GetVolume()</text>
<text text-anchor="start" x="122.5" y="-289.5" font-family="Helvetica,sans-Serif" font-size="10.00">+ GetStiffnessMatrixGlobal</text>
<text text-anchor="start" x="122.5" y="-278.5" font-family="Helvetica,sans-Serif" font-size="10.00">Indices()</text>
<text text-anchor="start" x="122.5" y="-267.5" font-family="Helvetica,sans-Serif" font-size="10.00"># RefreshJacobian()</text>
</a>
</g>
</g>
<!-- Node2&#45;&gt;Node1 -->
<g id="edge1" class="edge"><title>Node2&#45;&gt;Node1</title>
<path fill="none" stroke="midnightblue" d="M199.5,-250.092C199.5,-241.005 199.5,-231.789 199.5,-222.654"/>
<polygon fill="none" stroke="midnightblue" points="196,-250.284 199.5,-260.284 203,-250.284 196,-250.284"/>
</g>
<!-- Node3 -->
<g id="node3" class="node"><title>Node3</title>
<g id="a_node3"><a xlink:href="classAbstractElement.html" target="_top" xlink:title="{AbstractElement\&lt; ELEMENT\l_DIM, SPACE_DIM \&gt;\n||+ AbstractElement()\l+ AbstractElement()\l+ ~AbstractElement()\l+ UpdateNode()\l+ ReplaceNode()\l+ MarkAsDeleted()\l+ RegisterWithNodes()\l+ GetNodeLocation()\l+ GetNodeLocation()\l+ GetNodeGlobalIndex()\land 14 more...\l# ConstructElementAttributes()\l}">
<polygon fill="white" stroke="black" points="123.5,-487.5 123.5,-676.5 275.5,-676.5 275.5,-487.5 123.5,-487.5"/>
<text text-anchor="start" x="131.5" y="-664.5" font-family="Helvetica,sans-Serif" font-size="10.00">AbstractElement&lt; ELEMENT</text>
<text text-anchor="middle" x="199.5" y="-653.5" font-family="Helvetica,sans-Serif" font-size="10.00">_DIM, SPACE_DIM &gt;</text>
<polyline fill="none" stroke="black" points="123.5,-646.5 275.5,-646.5 "/>
<text text-anchor="middle" x="199.5" y="-634.5" font-family="Helvetica,sans-Serif" font-size="10.00"> </text>
<polyline fill="none" stroke="black" points="123.5,-627.5 275.5,-627.5 "/>
<text text-anchor="start" x="131.5" y="-615.5" font-family="Helvetica,sans-Serif" font-size="10.00">+ AbstractElement()</text>
<text text-anchor="start" x="131.5" y="-604.5" font-family="Helvetica,sans-Serif" font-size="10.00">+ AbstractElement()</text>
<text text-anchor="start" x="131.5" y="-593.5" font-family="Helvetica,sans-Serif" font-size="10.00">+ ~AbstractElement()</text>
<text text-anchor="start" x="131.5" y="-582.5" font-family="Helvetica,sans-Serif" font-size="10.00">+ UpdateNode()</text>
<text text-anchor="start" x="131.5" y="-571.5" font-family="Helvetica,sans-Serif" font-size="10.00">+ ReplaceNode()</text>
<text text-anchor="start" x="131.5" y="-560.5" font-family="Helvetica,sans-Serif" font-size="10.00">+ MarkAsDeleted()</text>
<text text-anchor="start" x="131.5" y="-549.5" font-family="Helvetica,sans-Serif" font-size="10.00">+ RegisterWithNodes()</text>
<text text-anchor="start" x="131.5" y="-538.5" font-family="Helvetica,sans-Serif" font-size="10.00">+ GetNodeLocation()</text>
<text text-anchor="start" x="131.5" y="-527.5" font-family="Helvetica,sans-Serif" font-size="10.00">+ GetNodeLocation()</text>
<text text-anchor="start" x="131.5" y="-516.5" font-family="Helvetica,sans-Serif" font-size="10.00">+ GetNodeGlobalIndex()</text>
<text text-anchor="start" x="131.5" y="-505.5" font-family="Helvetica,sans-Serif" font-size="10.00">and 14 more...</text>
<text text-anchor="start" x="131.5" y="-494.5" font-family="Helvetica,sans-Serif" font-size="10.00"># ConstructElementAttributes()</text>
</a>
</g>
</g>
<!-- Node3&#45;&gt;Node2 -->
<g id="edge2" class="edge"><title>Node3&#45;&gt;Node2</title>
<path fill="none" stroke="midnightblue" d="M199.5,-476.964C199.5,-467.849 199.5,-458.661 199.5,-449.639"/>
<polygon fill="none" stroke="midnightblue" points="196,-477.209 199.5,-487.209 203,-477.209 196,-477.209"/>
</g>
<!-- Node4 -->
<g id="node4" class="node"><title>Node4</title>
<polygon fill="white" stroke="#bfbfbf" points="0,-741 0,-809 119,-809 119,-741 0,-741"/>
<text text-anchor="start" x="8" y="-797" font-family="Helvetica,sans-Serif" font-size="10.00">vector&lt; Node&lt; SPACE</text>
<text text-anchor="middle" x="59.5" y="-786" font-family="Helvetica,sans-Serif" font-size="10.00">_DIM &gt; * &gt;</text>
<polyline fill="none" stroke="#bfbfbf" points="0,-779 119,-779 "/>
<text text-anchor="middle" x="59.5" y="-767" font-family="Helvetica,sans-Serif" font-size="10.00"> </text>
<polyline fill="none" stroke="#bfbfbf" points="0,-760 119,-760 "/>
<text text-anchor="middle" x="59.5" y="-748" font-family="Helvetica,sans-Serif" font-size="10.00"> </text>
</g>
<!-- Node4&#45;&gt;Node3 -->
<g id="edge3" class="edge"><title>Node4&#45;&gt;Node3</title>
<path fill="none" stroke="#404040" d="M79.8833,-740.847C88.9453,-726.531 99.9364,-709.723 110.5,-695 112.536,-692.162 114.617,-689.298 116.732,-686.42"/>
<polygon fill="none" stroke="#404040" points="116.878,-686.223 117.246,-679.022 124.036,-676.592 123.667,-683.794 116.878,-686.223"/>
<text text-anchor="middle" x="133.5" y="-703.5" font-family="Helvetica,sans-Serif" font-size="10.00"> #mNodes</text>
</g>
<!-- Node5 -->
<g id="node5" class="node"><title>Node5</title>
<g id="a_node5"><a xlink:href="classbool.html" target="_top" xlink:title="{bool\n||}">
<polygon fill="white" stroke="black" points="137,-746.5 137,-803.5 172,-803.5 172,-746.5 137,-746.5"/>
<text text-anchor="middle" x="154.5" y="-791.5" font-family="Helvetica,sans-Serif" font-size="10.00">bool</text>
<polyline fill="none" stroke="black" points="137,-784.5 172,-784.5 "/>
<text text-anchor="middle" x="154.5" y="-772.5" font-family="Helvetica,sans-Serif" font-size="10.00"> </text>
<polyline fill="none" stroke="black" points="137,-765.5 172,-765.5 "/>
<text text-anchor="middle" x="154.5" y="-753.5" font-family="Helvetica,sans-Serif" font-size="10.00"> </text>
</a>
</g>
</g>
<!-- Node5&#45;&gt;Node3 -->
<g id="edge4" class="edge"><title>Node5&#45;&gt;Node3</title>
<path fill="none" stroke="#404040" d="M156.303,-746.362C157.635,-731.098 159.866,-711.868 163.5,-695 163.964,-692.847 164.452,-690.677 164.963,-688.496"/>
<polygon fill="none" stroke="#404040" points="164.99,-688.387 162.555,-681.599 167.885,-676.742 170.319,-683.529 164.99,-688.387"/>
<text text-anchor="middle" x="195.5" y="-709" font-family="Helvetica,sans-Serif" font-size="10.00"> #mOwnership</text>
<text text-anchor="middle" x="195.5" y="-698" font-family="Helvetica,sans-Serif" font-size="10.00">#mIsDeleted</text>
</g>
<!-- Node6 -->
<g id="node6" class="node"><title>Node6</title>
<polygon fill="white" stroke="#bfbfbf" points="190,-735.5 190,-814.5 321,-814.5 321,-735.5 190,-735.5"/>
<text text-anchor="start" x="198" y="-802.5" font-family="Helvetica,sans-Serif" font-size="10.00">ElementAttributes&lt;</text>
<text text-anchor="start" x="198" y="-791.5" font-family="Helvetica,sans-Serif" font-size="10.00"> ELEMENT_DIM, SPACE</text>
<text text-anchor="middle" x="255.5" y="-780.5" font-family="Helvetica,sans-Serif" font-size="10.00">_DIM &gt; *</text>
<polyline fill="none" stroke="#bfbfbf" points="190,-773.5 321,-773.5 "/>
<text text-anchor="middle" x="255.5" y="-761.5" font-family="Helvetica,sans-Serif" font-size="10.00"> </text>
<polyline fill="none" stroke="#bfbfbf" points="190,-754.5 321,-754.5 "/>
<text text-anchor="middle" x="255.5" y="-742.5" font-family="Helvetica,sans-Serif" font-size="10.00"> </text>
</g>
<!-- Node6&#45;&gt;Node3 -->
<g id="edge5" class="edge"><title>Node6&#45;&gt;Node3</title>
<path fill="none" stroke="#404040" d="M244.168,-735.348C240.117,-721.532 235.334,-705.219 230.43,-688.494"/>
<polygon fill="none" stroke="#404040" points="230.399,-688.389 224.873,-683.757 227.023,-676.874 232.55,-681.506 230.399,-688.389"/>
<text text-anchor="middle" x="287.5" y="-703.5" font-family="Helvetica,sans-Serif" font-size="10.00"> #mpElementAttributes</text>
</g>
<!-- Node7 -->
<g id="node7" class="node"><title>Node7</title>
<g id="a_node7"><a xlink:href="classunsigned.html" target="_top" xlink:title="{unsigned\n||}">
<polygon fill="white" stroke="black" points="344.5,-746.5 344.5,-803.5 400.5,-803.5 400.5,-746.5 344.5,-746.5"/>
<text text-anchor="middle" x="372.5" y="-791.5" font-family="Helvetica,sans-Serif" font-size="10.00">unsigned</text>
<polyline fill="none" stroke="black" points="344.5,-784.5 400.5,-784.5 "/>
<text text-anchor="middle" x="372.5" y="-772.5" font-family="Helvetica,sans-Serif" font-size="10.00"> </text>
<polyline fill="none" stroke="black" points="344.5,-765.5 400.5,-765.5 "/>
<text text-anchor="middle" x="372.5" y="-753.5" font-family="Helvetica,sans-Serif" font-size="10.00"> </text>
</a>
</g>
</g>
<!-- Node7&#45;&gt;Node3 -->
<g id="edge6" class="edge"><title>Node7&#45;&gt;Node3</title>
<path fill="none" stroke="#404040" d="M365.545,-746.231C360.61,-730.203 352.827,-710.262 341.5,-695 325.993,-674.104 305.644,-655 285.213,-638.717"/>
<polygon fill="none" stroke="#404040" points="285.001,-638.553 277.809,-638.036 275.519,-631.198 282.712,-631.715 285.001,-638.553"/>
<text text-anchor="middle" x="375" y="-703.5" font-family="Helvetica,sans-Serif" font-size="10.00"> #mIndex</text>
</g>
</g>
</svg>
