<?xml version="1.0" encoding="UTF-8" standalone="no"?>
<!DOCTYPE svg PUBLIC "-//W3C//DTD SVG 1.1//EN"
 "http://www.w3.org/Graphics/SVG/1.1/DTD/svg11.dtd">
<!-- Generated by graphviz version 2.38.0 (20140413.2041)
 -->
<!-- Title: CorriasBuistICCModified Pages: 1 -->
<svg width="845pt" height="1841pt"
 viewBox="0.00 0.00 845.00 1841.00" xmlns="http://www.w3.org/2000/svg" xmlns:xlink="http://www.w3.org/1999/xlink">
<g id="graph0" class="graph" transform="scale(1 1) rotate(0) translate(4 1837)">
<title>CorriasBuistICCModified</title>
<polygon fill="white" stroke="none" points="-4,4 -4,-1837 841,-1837 841,4 -4,4"/>
<!-- Node1 -->
<g id="node1" class="node"><title>Node1</title>
<polygon fill="#bfbfbf" stroke="black" points="0,-0.5 0,-277.5 173,-277.5 173,-0.5 0,-0.5"/>
<text text-anchor="middle" x="86.5" y="-265.5" font-family="Helvetica,sans-Serif" font-size="10.00">CorriasBuistICCModified</text>
<polyline fill="none" stroke="black" points="0,-258.5 173,-258.5 "/>
<text text-anchor="start" x="8" y="-246.5" font-family="Helvetica,sans-Serif" font-size="10.00">&#45; mFractionOfVDDRInPU</text>
<text text-anchor="start" x="8" y="-235.5" font-family="Helvetica,sans-Serif" font-size="10.00">&#45; mIP3Concentration</text>
<text text-anchor="start" x="8" y="-224.5" font-family="Helvetica,sans-Serif" font-size="10.00">&#45; mScaleFactorSerca</text>
<text text-anchor="start" x="8" y="-213.5" font-family="Helvetica,sans-Serif" font-size="10.00">&#45; mScaleFactorCarbonMonoxide</text>
<text text-anchor="start" x="8" y="-202.5" font-family="Helvetica,sans-Serif" font-size="10.00">&#45; Ca_o</text>
<text text-anchor="start" x="8" y="-191.5" font-family="Helvetica,sans-Serif" font-size="10.00">&#45; K_o</text>
<text text-anchor="start" x="8" y="-180.5" font-family="Helvetica,sans-Serif" font-size="10.00">&#45; Na_o</text>
<text text-anchor="start" x="8" y="-169.5" font-family="Helvetica,sans-Serif" font-size="10.00">&#45; R</text>
<text text-anchor="start" x="8" y="-158.5" font-family="Helvetica,sans-Serif" font-size="10.00">&#45; T</text>
<text text-anchor="start" x="8" y="-147.5" font-family="Helvetica,sans-Serif" font-size="10.00">&#45; F</text>
<text text-anchor="start" x="8" y="-136.5" font-family="Helvetica,sans-Serif" font-size="10.00">and 71 more...</text>
<polyline fill="none" stroke="black" points="0,-129.5 173,-129.5 "/>
<text text-anchor="start" x="8" y="-117.5" font-family="Helvetica,sans-Serif" font-size="10.00">+ CorriasBuistICCModified()</text>
<text text-anchor="start" x="8" y="-106.5" font-family="Helvetica,sans-Serif" font-size="10.00">+ ~CorriasBuistICCModified()</text>
<text text-anchor="start" x="8" y="-95.5" font-family="Helvetica,sans-Serif" font-size="10.00">+ VerifyStateVariables()</text>
<text text-anchor="start" x="8" y="-84.5" font-family="Helvetica,sans-Serif" font-size="10.00">+ GetIIonic()</text>
<text text-anchor="start" x="8" y="-73.5" font-family="Helvetica,sans-Serif" font-size="10.00">+ EvaluateYDerivatives()</text>
<text text-anchor="start" x="8" y="-62.5" font-family="Helvetica,sans-Serif" font-size="10.00">+ SetFractionOfVDDRInPU()</text>
<text text-anchor="start" x="8" y="-51.5" font-family="Helvetica,sans-Serif" font-size="10.00">+ SetIP3Concentration()</text>
<text text-anchor="start" x="8" y="-40.5" font-family="Helvetica,sans-Serif" font-size="10.00">+ SetSercaPumpScaleFactor()</text>
<text text-anchor="start" x="8" y="-29.5" font-family="Helvetica,sans-Serif" font-size="10.00">+ SetCarbonMonoxideScaleFactor()</text>
<text text-anchor="start" x="8" y="-18.5" font-family="Helvetica,sans-Serif" font-size="10.00">+ GetCarbonMonoxideScaleFactor()</text>
<text text-anchor="start" x="8" y="-7.5" font-family="Helvetica,sans-Serif" font-size="10.00">&#45; serialize()</text>
</g>
<!-- Node2 -->
<g id="node2" class="node"><title>Node2</title>
<g id="a_node2"><a xlink:href="classAbstractCardiacCell.html" target="_top" xlink:title="{AbstractCardiacCell\n||+ AbstractCardiacCell()\l+ ~AbstractCardiacCell()\l+ Init()\l+ SetTimestep()\l+ SolveAndUpdateState()\l+ Compute()\l+ ComputeExceptVoltage()\l+ SetVoltage()\l+ GetVoltage()\l+ GetNumberOfStateVariables()\land 16 more...\l&#45; serialize()\l&#45; CheckForArchiveFix()\l}">
<polygon fill="white" stroke="black" points="117.5,-315.5 117.5,-504.5 273.5,-504.5 273.5,-315.5 117.5,-315.5"/>
<text text-anchor="middle" x="195.5" y="-492.5" font-family="Helvetica,sans-Serif" font-size="10.00">AbstractCardiacCell</text>
<polyline fill="none" stroke="black" points="117.5,-485.5 273.5,-485.5 "/>
<text text-anchor="middle" x="195.5" y="-473.5" font-family="Helvetica,sans-Serif" font-size="10.00"> </text>
<polyline fill="none" stroke="black" points="117.5,-466.5 273.5,-466.5 "/>
<text text-anchor="start" x="125.5" y="-454.5" font-family="Helvetica,sans-Serif" font-size="10.00">+ AbstractCardiacCell()</text>
<text text-anchor="start" x="125.5" y="-443.5" font-family="Helvetica,sans-Serif" font-size="10.00">+ ~AbstractCardiacCell()</text>
<text text-anchor="start" x="125.5" y="-432.5" font-family="Helvetica,sans-Serif" font-size="10.00">+ Init()</text>
<text text-anchor="start" x="125.5" y="-421.5" font-family="Helvetica,sans-Serif" font-size="10.00">+ SetTimestep()</text>
<text text-anchor="start" x="125.5" y="-410.5" font-family="Helvetica,sans-Serif" font-size="10.00">+ SolveAndUpdateState()</text>
<text text-anchor="start" x="125.5" y="-399.5" font-family="Helvetica,sans-Serif" font-size="10.00">+ Compute()</text>
<text text-anchor="start" x="125.5" y="-388.5" font-family="Helvetica,sans-Serif" font-size="10.00">+ ComputeExceptVoltage()</text>
<text text-anchor="start" x="125.5" y="-377.5" font-family="Helvetica,sans-Serif" font-size="10.00">+ SetVoltage()</text>
<text text-anchor="start" x="125.5" y="-366.5" font-family="Helvetica,sans-Serif" font-size="10.00">+ GetVoltage()</text>
<text text-anchor="start" x="125.5" y="-355.5" font-family="Helvetica,sans-Serif" font-size="10.00">+ GetNumberOfStateVariables()</text>
<text text-anchor="start" x="125.5" y="-344.5" font-family="Helvetica,sans-Serif" font-size="10.00">and 16 more...</text>
<text text-anchor="start" x="125.5" y="-333.5" font-family="Helvetica,sans-Serif" font-size="10.00">&#45; serialize()</text>
<text text-anchor="start" x="125.5" y="-322.5" font-family="Helvetica,sans-Serif" font-size="10.00">&#45; CheckForArchiveFix()</text>
</a>
</g>
</g>
<!-- Node2&#45;&gt;Node1 -->
<g id="edge1" class="edge"><title>Node2&#45;&gt;Node1</title>
<path fill="none" stroke="midnightblue" d="M153.692,-305.823C149.977,-296.655 146.179,-287.281 142.372,-277.886"/>
<polygon fill="none" stroke="midnightblue" points="150.531,-307.341 157.53,-315.294 157.018,-304.712 150.531,-307.341"/>
</g>
<!-- Node3 -->
<g id="node3" class="node"><title>Node3</title>
<g id="a_node3"><a xlink:href="classAbstractCardiacCellInterface.html" target="_top" xlink:title="{AbstractCardiacCellInterface\n||+ AbstractCardiacCellInterface()\l+ ~AbstractCardiacCellInterface()\l+ SetTimestep()\l+ GetNumberOfStateVariables()\l+ GetNumberOfParameters()\l+ GetStdVecStateVariables()\l+ rGetStateVariableNames()\l+ SetStateVariables()\l+ SetStateVariable()\l+ SetStateVariable()\land 28 more...\l&#45; serialize()\l}">
<polygon fill="white" stroke="black" points="234.5,-662.5 234.5,-840.5 398.5,-840.5 398.5,-662.5 234.5,-662.5"/>
<text text-anchor="middle" x="316.5" y="-828.5" font-family="Helvetica,sans-Serif" font-size="10.00">AbstractCardiacCellInterface</text>
<polyline fill="none" stroke="black" points="234.5,-821.5 398.5,-821.5 "/>
<text text-anchor="middle" x="316.5" y="-809.5" font-family="Helvetica,sans-Serif" font-size="10.00"> </text>
<polyline fill="none" stroke="black" points="234.5,-802.5 398.5,-802.5 "/>
<text text-anchor="start" x="242.5" y="-790.5" font-family="Helvetica,sans-Serif" font-size="10.00">+ AbstractCardiacCellInterface()</text>
<text text-anchor="start" x="242.5" y="-779.5" font-family="Helvetica,sans-Serif" font-size="10.00">+ ~AbstractCardiacCellInterface()</text>
<text text-anchor="start" x="242.5" y="-768.5" font-family="Helvetica,sans-Serif" font-size="10.00">+ SetTimestep()</text>
<text text-anchor="start" x="242.5" y="-757.5" font-family="Helvetica,sans-Serif" font-size="10.00">+ GetNumberOfStateVariables()</text>
<text text-anchor="start" x="242.5" y="-746.5" font-family="Helvetica,sans-Serif" font-size="10.00">+ GetNumberOfParameters()</text>
<text text-anchor="start" x="242.5" y="-735.5" font-family="Helvetica,sans-Serif" font-size="10.00">+ GetStdVecStateVariables()</text>
<text text-anchor="start" x="242.5" y="-724.5" font-family="Helvetica,sans-Serif" font-size="10.00">+ rGetStateVariableNames()</text>
<text text-anchor="start" x="242.5" y="-713.5" font-family="Helvetica,sans-Serif" font-size="10.00">+ SetStateVariables()</text>
<text text-anchor="start" x="242.5" y="-702.5" font-family="Helvetica,sans-Serif" font-size="10.00">+ SetStateVariable()</text>
<text text-anchor="start" x="242.5" y="-691.5" font-family="Helvetica,sans-Serif" font-size="10.00">+ SetStateVariable()</text>
<text text-anchor="start" x="242.5" y="-680.5" font-family="Helvetica,sans-Serif" font-size="10.00">and 28 more...</text>
<text text-anchor="start" x="242.5" y="-669.5" font-family="Helvetica,sans-Serif" font-size="10.00">&#45; serialize()</text>
</a>
</g>
</g>
<!-- Node3&#45;&gt;Node2 -->
<g id="edge2" class="edge"><title>Node3&#45;&gt;Node2</title>
<path fill="none" stroke="midnightblue" d="M281.638,-652.684C265.022,-606.065 245.242,-550.565 228.829,-504.513"/>
<polygon fill="none" stroke="midnightblue" points="278.37,-653.942 285.025,-662.187 284.964,-651.592 278.37,-653.942"/>
</g>
<!-- Node4 -->
<g id="node4" class="node"><title>Node4</title>
<polygon fill="white" stroke="#bfbfbf" points="189.5,-1015 189.5,-1083 329.5,-1083 329.5,-1015 189.5,-1015"/>
<text text-anchor="start" x="197.5" y="-1071" font-family="Helvetica,sans-Serif" font-size="10.00">shared_ptr&lt; AbstractIvpOde</text>
<text text-anchor="middle" x="259.5" y="-1060" font-family="Helvetica,sans-Serif" font-size="10.00">Solver &gt;</text>
<polyline fill="none" stroke="#bfbfbf" points="189.5,-1053 329.5,-1053 "/>
<text text-anchor="middle" x="259.5" y="-1041" font-family="Helvetica,sans-Serif" font-size="10.00"> </text>
<polyline fill="none" stroke="#bfbfbf" points="189.5,-1034 329.5,-1034 "/>
<text text-anchor="middle" x="259.5" y="-1022" font-family="Helvetica,sans-Serif" font-size="10.00"> </text>
</g>
<!-- Node4&#45;&gt;Node3 -->
<g id="edge3" class="edge"><title>Node4&#45;&gt;Node3</title>
<path fill="none" stroke="#404040" d="M259.489,-1014.79C260.124,-976.695 263.179,-912.595 275.5,-859 276.024,-856.719 276.588,-854.422 277.185,-852.115"/>
<polygon fill="none" stroke="#404040" points="277.195,-852.081 274.964,-845.224 280.436,-840.527 282.666,-847.384 277.195,-852.081"/>
<text text-anchor="middle" x="309.5" y="-884" font-family="Helvetica,sans-Serif" font-size="10.00"> #mpOdeSolver</text>
</g>
<!-- Node5 -->
<g id="node5" class="node"><title>Node5</title>
<g id="a_node5"><a xlink:href="classdouble.html" target="_top" xlink:title="{double\n||}">
<polygon fill="white" stroke="black" points="122,-1020.5 122,-1077.5 167,-1077.5 167,-1020.5 122,-1020.5"/>
<text text-anchor="middle" x="144.5" y="-1065.5" font-family="Helvetica,sans-Serif" font-size="10.00">double</text>
<polyline fill="none" stroke="black" points="122,-1058.5 167,-1058.5 "/>
<text text-anchor="middle" x="144.5" y="-1046.5" font-family="Helvetica,sans-Serif" font-size="10.00"> </text>
<polyline fill="none" stroke="black" points="122,-1039.5 167,-1039.5 "/>
<text text-anchor="middle" x="144.5" y="-1027.5" font-family="Helvetica,sans-Serif" font-size="10.00"> </text>
</a>
</g>
</g>
<!-- Node5&#45;&gt;Node1 -->
<g id="edge19" class="edge"><title>Node5&#45;&gt;Node1</title>
<path fill="none" stroke="#404040" d="M139.228,-1020.22C127.129,-954.913 97.6358,-786.369 87.5,-644 79.0361,-525.114 79.296,-390.055 81.3925,-289.69"/>
<polygon fill="none" stroke="#404040" points="81.3938,-289.623 77.5263,-283.537 81.6568,-277.626 85.5243,-283.713 81.3938,-289.623"/>
<text text-anchor="middle" x="131" y="-636" font-family="Helvetica,sans-Serif" font-size="10.00"> &#45;T_correction_BK</text>
<text text-anchor="middle" x="131" y="-625" font-family="Helvetica,sans-Serif" font-size="10.00">&#45;NaPerm_o_Kperm</text>
<text text-anchor="middle" x="131" y="-614" font-family="Helvetica,sans-Serif" font-size="10.00">&#45;J_max_PMCA_PU</text>
<text text-anchor="middle" x="131" y="-603" font-family="Helvetica,sans-Serif" font-size="10.00">&#45;Cl_o</text>
<text text-anchor="middle" x="131" y="-592" font-family="Helvetica,sans-Serif" font-size="10.00">&#45;Jmax_uni</text>
<text text-anchor="middle" x="131" y="-581" font-family="Helvetica,sans-Serif" font-size="10.00">&#45;Jmax_serca</text>
<text text-anchor="middle" x="131" y="-570" font-family="Helvetica,sans-Serif" font-size="10.00">&#45;Jmax_NaCa</text>
<text text-anchor="middle" x="131" y="-559" font-family="Helvetica,sans-Serif" font-size="10.00">&#45;fm</text>
<text text-anchor="middle" x="131" y="-548" font-family="Helvetica,sans-Serif" font-size="10.00">&#45;tau_f_Ltype</text>
<text text-anchor="middle" x="131" y="-537" font-family="Helvetica,sans-Serif" font-size="10.00">&#45;b</text>
<text text-anchor="middle" x="131" y="-526" font-family="Helvetica,sans-Serif" font-size="10.00">...</text>
</g>
<!-- Node5&#45;&gt;Node2 -->
<g id="edge18" class="edge"><title>Node5&#45;&gt;Node2</title>
<path fill="none" stroke="#404040" d="M146.724,-1020.22C153.633,-933.925 174.98,-667.3 187.018,-516.944"/>
<polygon fill="none" stroke="#404040" points="187.053,-516.507 183.544,-510.207 188.01,-504.546 191.519,-510.846 187.053,-516.507"/>
<text text-anchor="middle" x="189.5" y="-749" font-family="Helvetica,sans-Serif" font-size="10.00"> #mDt</text>
</g>
<!-- Node5&#45;&gt;Node3 -->
<g id="edge4" class="edge"><title>Node5&#45;&gt;Node3</title>
<path fill="none" stroke="#404040" d="M145.699,-1020.28C148.517,-981.5 157.947,-910.079 189.5,-859 199.114,-843.436 211.785,-829.035 225.402,-816.178"/>
<polygon fill="none" stroke="#404040" points="225.578,-816.019 227.333,-809.025 234.465,-807.956 232.709,-814.95 225.578,-816.019"/>
<text text-anchor="middle" x="226.5" y="-884" font-family="Helvetica,sans-Serif" font-size="10.00"> #mFixedVoltage</text>
</g>
<!-- Node6 -->
<g id="node6" class="node"><title>Node6</title>
<polygon fill="white" stroke="#bfbfbf" points="385.5,-1015 385.5,-1083 531.5,-1083 531.5,-1015 385.5,-1015"/>
<text text-anchor="start" x="393.5" y="-1071" font-family="Helvetica,sans-Serif" font-size="10.00">shared_ptr&lt; AbstractStimulus</text>
<text text-anchor="middle" x="458.5" y="-1060" font-family="Helvetica,sans-Serif" font-size="10.00">Function &gt;</text>
<polyline fill="none" stroke="#bfbfbf" points="385.5,-1053 531.5,-1053 "/>
<text text-anchor="middle" x="458.5" y="-1041" font-family="Helvetica,sans-Serif" font-size="10.00"> </text>
<polyline fill="none" stroke="#bfbfbf" points="385.5,-1034 531.5,-1034 "/>
<text text-anchor="middle" x="458.5" y="-1022" font-family="Helvetica,sans-Serif" font-size="10.00"> </text>
</g>
<!-- Node6&#45;&gt;Node3 -->
<g id="edge5" class="edge"><title>Node6&#45;&gt;Node3</title>
<path fill="none" stroke="#404040" d="M441.212,-1014.99C427.295,-988.046 407.488,-948.874 391.5,-914 380.458,-889.915 379.428,-883.137 368.5,-859 367.397,-856.563 366.271,-854.099 365.129,-851.617"/>
<polygon fill="none" stroke="#404040" points="365.088,-851.528 358.931,-847.774 360.028,-840.647 366.185,-844.401 365.088,-851.528"/>
<text text-anchor="middle" x="447" y="-884" font-family="Helvetica,sans-Serif" font-size="10.00"> #mpIntracellularStimulus</text>
</g>
<!-- Node7 -->
<g id="node7" class="node"><title>Node7</title>
<g id="a_node7"><a xlink:href="classbool.html" target="_top" xlink:title="{bool\n||}">
<polygon fill="white" stroke="black" points="596,-1020.5 596,-1077.5 631,-1077.5 631,-1020.5 596,-1020.5"/>
<text text-anchor="middle" x="613.5" y="-1065.5" font-family="Helvetica,sans-Serif" font-size="10.00">bool</text>
<polyline fill="none" stroke="black" points="596,-1058.5 631,-1058.5 "/>
<text text-anchor="middle" x="613.5" y="-1046.5" font-family="Helvetica,sans-Serif" font-size="10.00"> </text>
<polyline fill="none" stroke="black" points="596,-1039.5 631,-1039.5 "/>
<text text-anchor="middle" x="613.5" y="-1027.5" font-family="Helvetica,sans-Serif" font-size="10.00"> </text>
</a>
</g>
</g>
<!-- Node7&#45;&gt;Node3 -->
<g id="edge6" class="edge"><title>Node7&#45;&gt;Node3</title>
<path fill="none" stroke="#404040" d="M598.771,-1020.45C585.156,-996.083 563.591,-960.146 540.5,-932 533.122,-923.007 527.802,-923.777 521.5,-914 507.489,-892.262 518.996,-878.918 502.5,-859 477.977,-829.39 442.952,-806.334 409.896,-789.364"/>
<polygon fill="none" stroke="#404040" points="409.526,-789.18 402.373,-790.093 398.779,-783.841 405.932,-782.928 409.526,-789.18"/>
<text text-anchor="start" x="521.5" y="-906" font-family="Helvetica,sans-Serif" font-size="10.00"> #mHasDefaultStimulusFrom</text>
<text text-anchor="middle" x="585" y="-895" font-family="Helvetica,sans-Serif" font-size="10.00">CellML</text>
<text text-anchor="start" x="521.5" y="-884" font-family="Helvetica,sans-Serif" font-size="10.00">#mSetVoltageDerivativeTo</text>
<text text-anchor="middle" x="585" y="-873" font-family="Helvetica,sans-Serif" font-size="10.00">Zero</text>
<text text-anchor="middle" x="585" y="-862" font-family="Helvetica,sans-Serif" font-size="10.00">#mIsUsedInTissue</text>
</g>
<!-- Node9 -->
<g id="node9" class="node"><title>Node9</title>
<g id="a_node9"><a xlink:href="classAbstractOdeSystem.html" target="_top" xlink:title="{AbstractOdeSystem\n||+ AbstractOdeSystem()\l+ ~AbstractOdeSystem()\l+ EvaluateYDerivatives()\l+ CalculateStoppingEvent()\l+ CalculateRootFunction()\l+ GetUseAnalyticJacobian()\l+ rGetConstStateVariables()\l&#45; save()\l&#45; load()\l}">
<polygon fill="white" stroke="black" points="604.5,-679 604.5,-824 744.5,-824 744.5,-679 604.5,-679"/>
<text text-anchor="middle" x="674.5" y="-812" font-family="Helvetica,sans-Serif" font-size="10.00">AbstractOdeSystem</text>
<polyline fill="none" stroke="black" points="604.5,-805 744.5,-805 "/>
<text text-anchor="middle" x="674.5" y="-793" font-family="Helvetica,sans-Serif" font-size="10.00"> </text>
<polyline fill="none" stroke="black" points="604.5,-786 744.5,-786 "/>
<text text-anchor="start" x="612.5" y="-774" font-family="Helvetica,sans-Serif" font-size="10.00">+ AbstractOdeSystem()</text>
<text text-anchor="start" x="612.5" y="-763" font-family="Helvetica,sans-Serif" font-size="10.00">+ ~AbstractOdeSystem()</text>
<text text-anchor="start" x="612.5" y="-752" font-family="Helvetica,sans-Serif" font-size="10.00">+ EvaluateYDerivatives()</text>
<text text-anchor="start" x="612.5" y="-741" font-family="Helvetica,sans-Serif" font-size="10.00">+ CalculateStoppingEvent()</text>
<text text-anchor="start" x="612.5" y="-730" font-family="Helvetica,sans-Serif" font-size="10.00">+ CalculateRootFunction()</text>
<text text-anchor="start" x="612.5" y="-719" font-family="Helvetica,sans-Serif" font-size="10.00">+ GetUseAnalyticJacobian()</text>
<text text-anchor="start" x="612.5" y="-708" font-family="Helvetica,sans-Serif" font-size="10.00">+ rGetConstStateVariables()</text>
<text text-anchor="start" x="612.5" y="-697" font-family="Helvetica,sans-Serif" font-size="10.00">&#45; save()</text>
<text text-anchor="start" x="612.5" y="-686" font-family="Helvetica,sans-Serif" font-size="10.00">&#45; load()</text>
</a>
</g>
</g>
<!-- Node7&#45;&gt;Node9 -->
<g id="edge17" class="edge"><title>Node7&#45;&gt;Node9</title>
<path fill="none" stroke="#404040" d="M622.857,-1020.33C631.636,-993.446 644.571,-951.328 652.5,-914 657.831,-888.905 662.145,-861.328 665.494,-836.176"/>
<polygon fill="none" stroke="#404040" points="665.524,-835.945 662.325,-829.482 667.061,-824.044 670.259,-830.507 665.524,-835.945"/>
<text text-anchor="middle" x="717" y="-884" font-family="Helvetica,sans-Serif" font-size="10.00"> #mUseAnalyticJacobian</text>
</g>
<!-- Node8 -->
<g id="node8" class="node"><title>Node8</title>
<g id="a_node8"><a xlink:href="classunsigned.html" target="_top" xlink:title="{unsigned\n||}">
<polygon fill="white" stroke="black" points="354.5,-1770 354.5,-1827 410.5,-1827 410.5,-1770 354.5,-1770"/>
<text text-anchor="middle" x="382.5" y="-1815" font-family="Helvetica,sans-Serif" font-size="10.00">unsigned</text>
<polyline fill="none" stroke="black" points="354.5,-1808 410.5,-1808 "/>
<text text-anchor="middle" x="382.5" y="-1796" font-family="Helvetica,sans-Serif" font-size="10.00"> </text>
<polyline fill="none" stroke="black" points="354.5,-1789 410.5,-1789 "/>
<text text-anchor="middle" x="382.5" y="-1777" font-family="Helvetica,sans-Serif" font-size="10.00"> </text>
</a>
</g>
</g>
<!-- Node8&#45;&gt;Node3 -->
<g id="edge7" class="edge"><title>Node8&#45;&gt;Node3</title>
<path fill="none" stroke="#404040" d="M376.256,-1769.91C368.851,-1734.73 357.5,-1671.92 357.5,-1617.5 357.5,-1617.5 357.5,-1617.5 357.5,-1048 357.5,-963.77 357.012,-942.139 343.5,-859 343.148,-856.835 342.773,-854.649 342.378,-852.45"/>
<polygon fill="none" stroke="#404040" points="342.363,-852.369 337.299,-847.234 340.091,-840.586 345.155,-845.72 342.363,-852.369"/>
<text text-anchor="middle" x="394.5" y="-1338.5" font-family="Helvetica,sans-Serif" font-size="10.00"> #mVoltageIndex</text>
</g>
<!-- Node11 -->
<g id="node11" class="node"><title>Node11</title>
<g id="a_node11"><a xlink:href="classAbstractUntemplatedParameterisedSystem.html" target="_top" xlink:title="{AbstractUntemplatedParameterised\lSystem\n||+ AbstractUntemplatedParameterised\lSystem()\l+ ~AbstractUntemplatedParameterised\lSystem()\l+ GetSystemInformation()\l+ GetSystemName()\l+ GetNumberOfAttributes()\l+ HasAttribute()\l+ GetAttribute()\l+ GetNumberOfStateVariables()\l+ rGetStateVariableNames()\l+ rGetStateVariableUnits()\land 20 more...\l}">
<polygon fill="white" stroke="black" points="480,-1516.5 480,-1716.5 667,-1716.5 667,-1516.5 480,-1516.5"/>
<text text-anchor="start" x="488" y="-1704.5" font-family="Helvetica,sans-Serif" font-size="10.00">AbstractUntemplatedParameterised</text>
<text text-anchor="middle" x="573.5" y="-1693.5" font-family="Helvetica,sans-Serif" font-size="10.00">System</text>
<polyline fill="none" stroke="black" points="480,-1686.5 667,-1686.5 "/>
<text text-anchor="middle" x="573.5" y="-1674.5" font-family="Helvetica,sans-Serif" font-size="10.00"> </text>
<polyline fill="none" stroke="black" points="480,-1667.5 667,-1667.5 "/>
<text text-anchor="start" x="488" y="-1655.5" font-family="Helvetica,sans-Serif" font-size="10.00">+ AbstractUntemplatedParameterised</text>
<text text-anchor="start" x="488" y="-1644.5" font-family="Helvetica,sans-Serif" font-size="10.00">System()</text>
<text text-anchor="start" x="488" y="-1633.5" font-family="Helvetica,sans-Serif" font-size="10.00">+ ~AbstractUntemplatedParameterised</text>
<text text-anchor="start" x="488" y="-1622.5" font-family="Helvetica,sans-Serif" font-size="10.00">System()</text>
<text text-anchor="start" x="488" y="-1611.5" font-family="Helvetica,sans-Serif" font-size="10.00">+ GetSystemInformation()</text>
<text text-anchor="start" x="488" y="-1600.5" font-family="Helvetica,sans-Serif" font-size="10.00">+ GetSystemName()</text>
<text text-anchor="start" x="488" y="-1589.5" font-family="Helvetica,sans-Serif" font-size="10.00">+ GetNumberOfAttributes()</text>
<text text-anchor="start" x="488" y="-1578.5" font-family="Helvetica,sans-Serif" font-size="10.00">+ HasAttribute()</text>
<text text-anchor="start" x="488" y="-1567.5" font-family="Helvetica,sans-Serif" font-size="10.00">+ GetAttribute()</text>
<text text-anchor="start" x="488" y="-1556.5" font-family="Helvetica,sans-Serif" font-size="10.00">+ GetNumberOfStateVariables()</text>
<text text-anchor="start" x="488" y="-1545.5" font-family="Helvetica,sans-Serif" font-size="10.00">+ rGetStateVariableNames()</text>
<text text-anchor="start" x="488" y="-1534.5" font-family="Helvetica,sans-Serif" font-size="10.00">+ rGetStateVariableUnits()</text>
<text text-anchor="start" x="488" y="-1523.5" font-family="Helvetica,sans-Serif" font-size="10.00">and 20 more...</text>
</a>
</g>
</g>
<!-- Node8&#45;&gt;Node11 -->
<g id="edge12" class="edge"><title>Node8&#45;&gt;Node11</title>
<path fill="none" stroke="#404040" d="M407.162,-1769.78C417.837,-1758.45 430.783,-1745.56 443.5,-1735 454.598,-1725.79 459.268,-1726.05 470.5,-1717 470.597,-1716.92 470.694,-1716.84 470.79,-1716.77"/>
<polygon fill="none" stroke="#404040" points="470.574,-1716.95 472.652,-1710.04 479.826,-1709.3 477.747,-1716.21 470.574,-1716.95"/>
<text text-anchor="middle" x="506.5" y="-1738" font-family="Helvetica,sans-Serif" font-size="10.00"> #mNumberOfStateVariables</text>
</g>
<!-- Node9&#45;&gt;Node2 -->
<g id="edge8" class="edge"><title>Node9&#45;&gt;Node2</title>
<path fill="none" stroke="midnightblue" d="M596.167,-694.98C507.176,-631.906 362.798,-529.576 273.815,-466.507"/>
<polygon fill="none" stroke="midnightblue" points="594.154,-697.843 604.336,-700.77 598.202,-692.132 594.154,-697.843"/>
</g>
<!-- Node10 -->
<g id="node10" class="node"><title>Node10</title>
<g id="a_node10"><a xlink:href="classAbstractParameterisedSystem.html" target="_top" xlink:title="{AbstractParameterisedSystem\l\&lt; std::vector\&lt; double \&gt; \&gt;\n||+ AbstractParameterisedSystem()\l+ rGetStateVariables()\l+ GetStateVariables()\l+ SetStateVariables()\l+ GetStateVariable()\l+ GetStateVariable()\l+ SetStateVariable()\l+ SetStateVariable()\l+ VerifyStateVariables()\l+ SetDefaultInitialConditions()\land 13 more...\l# DumpState()\l# DumpState()\l# DumpState()\l# CheckParametersOnLoad()\l&#45; GetStateMessage()\l}">
<polygon fill="white" stroke="black" points="672,-932.5 672,-1165.5 837,-1165.5 837,-932.5 672,-932.5"/>
<text text-anchor="start" x="680" y="-1153.5" font-family="Helvetica,sans-Serif" font-size="10.00">AbstractParameterisedSystem</text>
<text text-anchor="middle" x="754.5" y="-1142.5" font-family="Helvetica,sans-Serif" font-size="10.00">&lt; std::vector&lt; double &gt; &gt;</text>
<polyline fill="none" stroke="black" points="672,-1135.5 837,-1135.5 "/>
<text text-anchor="middle" x="754.5" y="-1123.5" font-family="Helvetica,sans-Serif" font-size="10.00"> </text>
<polyline fill="none" stroke="black" points="672,-1116.5 837,-1116.5 "/>
<text text-anchor="start" x="680" y="-1104.5" font-family="Helvetica,sans-Serif" font-size="10.00">+ AbstractParameterisedSystem()</text>
<text text-anchor="start" x="680" y="-1093.5" font-family="Helvetica,sans-Serif" font-size="10.00">+ rGetStateVariables()</text>
<text text-anchor="start" x="680" y="-1082.5" font-family="Helvetica,sans-Serif" font-size="10.00">+ GetStateVariables()</text>
<text text-anchor="start" x="680" y="-1071.5" font-family="Helvetica,sans-Serif" font-size="10.00">+ SetStateVariables()</text>
<text text-anchor="start" x="680" y="-1060.5" font-family="Helvetica,sans-Serif" font-size="10.00">+ GetStateVariable()</text>
<text text-anchor="start" x="680" y="-1049.5" font-family="Helvetica,sans-Serif" font-size="10.00">+ GetStateVariable()</text>
<text text-anchor="start" x="680" y="-1038.5" font-family="Helvetica,sans-Serif" font-size="10.00">+ SetStateVariable()</text>
<text text-anchor="start" x="680" y="-1027.5" font-family="Helvetica,sans-Serif" font-size="10.00">+ SetStateVariable()</text>
<text text-anchor="start" x="680" y="-1016.5" font-family="Helvetica,sans-Serif" font-size="10.00">+ VerifyStateVariables()</text>
<text text-anchor="start" x="680" y="-1005.5" font-family="Helvetica,sans-Serif" font-size="10.00">+ SetDefaultInitialConditions()</text>
<text text-anchor="start" x="680" y="-994.5" font-family="Helvetica,sans-Serif" font-size="10.00">and 13 more...</text>
<text text-anchor="start" x="680" y="-983.5" font-family="Helvetica,sans-Serif" font-size="10.00"># DumpState()</text>
<text text-anchor="start" x="680" y="-972.5" font-family="Helvetica,sans-Serif" font-size="10.00"># DumpState()</text>
<text text-anchor="start" x="680" y="-961.5" font-family="Helvetica,sans-Serif" font-size="10.00"># DumpState()</text>
<text text-anchor="start" x="680" y="-950.5" font-family="Helvetica,sans-Serif" font-size="10.00"># CheckParametersOnLoad()</text>
<text text-anchor="start" x="680" y="-939.5" font-family="Helvetica,sans-Serif" font-size="10.00">&#45; GetStateMessage()</text>
</a>
</g>
</g>
<!-- Node10&#45;&gt;Node9 -->
<g id="edge9" class="edge"><title>Node10&#45;&gt;Node9</title>
<path fill="none" stroke="midnightblue" d="M785.418,-921.966C785.953,-900.464 783.365,-878.723 775.5,-859 768.563,-841.603 757.283,-825.417 744.727,-811.18"/>
<polygon fill="none" stroke="midnightblue" points="781.913,-922.001 784.938,-932.155 788.905,-922.331 781.913,-922.001"/>
</g>
<!-- Node11&#45;&gt;Node10 -->
<g id="edge10" class="edge"><title>Node11&#45;&gt;Node10</title>
<path fill="none" stroke="midnightblue" d="M674.771,-1538.06C698.447,-1514.91 720.969,-1487.7 735.5,-1458 779.991,-1367.08 780.771,-1250.69 772.756,-1165.51"/>
<polygon fill="none" stroke="midnightblue" points="672.204,-1535.67 667.394,-1545.11 677.041,-1540.73 672.204,-1535.67"/>
</g>
<!-- Node14 -->
<g id="node14" class="node"><title>Node14</title>
<g id="a_node14"><a xlink:href="classAbstractParameterisedSystem.html" target="_top" xlink:title="{AbstractParameterisedSystem\l\&lt; VECTOR \&gt;\n||+ AbstractParameterisedSystem()\l+ rGetStateVariables()\l+ GetStateVariables()\l+ SetStateVariables()\l+ GetStateVariable()\l+ GetStateVariable()\l+ SetStateVariable()\l+ SetStateVariable()\l+ VerifyStateVariables()\l+ SetDefaultInitialConditions()\land 13 more...\l# DumpState()\l# DumpState()\l# DumpState()\l# CheckParametersOnLoad()\l&#45; GetStateMessage()\l}">
<polygon fill="white" stroke="black" points="453,-1224.5 453,-1457.5 618,-1457.5 618,-1224.5 453,-1224.5"/>
<text text-anchor="start" x="461" y="-1445.5" font-family="Helvetica,sans-Serif" font-size="10.00">AbstractParameterisedSystem</text>
<text text-anchor="middle" x="535.5" y="-1434.5" font-family="Helvetica,sans-Serif" font-size="10.00">&lt; VECTOR &gt;</text>
<polyline fill="none" stroke="black" points="453,-1427.5 618,-1427.5 "/>
<text text-anchor="middle" x="535.5" y="-1415.5" font-family="Helvetica,sans-Serif" font-size="10.00"> </text>
<polyline fill="none" stroke="black" points="453,-1408.5 618,-1408.5 "/>
<text text-anchor="start" x="461" y="-1396.5" font-family="Helvetica,sans-Serif" font-size="10.00">+ AbstractParameterisedSystem()</text>
<text text-anchor="start" x="461" y="-1385.5" font-family="Helvetica,sans-Serif" font-size="10.00">+ rGetStateVariables()</text>
<text text-anchor="start" x="461" y="-1374.5" font-family="Helvetica,sans-Serif" font-size="10.00">+ GetStateVariables()</text>
<text text-anchor="start" x="461" y="-1363.5" font-family="Helvetica,sans-Serif" font-size="10.00">+ SetStateVariables()</text>
<text text-anchor="start" x="461" y="-1352.5" font-family="Helvetica,sans-Serif" font-size="10.00">+ GetStateVariable()</text>
<text text-anchor="start" x="461" y="-1341.5" font-family="Helvetica,sans-Serif" font-size="10.00">+ GetStateVariable()</text>
<text text-anchor="start" x="461" y="-1330.5" font-family="Helvetica,sans-Serif" font-size="10.00">+ SetStateVariable()</text>
<text text-anchor="start" x="461" y="-1319.5" font-family="Helvetica,sans-Serif" font-size="10.00">+ SetStateVariable()</text>
<text text-anchor="start" x="461" y="-1308.5" font-family="Helvetica,sans-Serif" font-size="10.00">+ VerifyStateVariables()</text>
<text text-anchor="start" x="461" y="-1297.5" font-family="Helvetica,sans-Serif" font-size="10.00">+ SetDefaultInitialConditions()</text>
<text text-anchor="start" x="461" y="-1286.5" font-family="Helvetica,sans-Serif" font-size="10.00">and 13 more...</text>
<text text-anchor="start" x="461" y="-1275.5" font-family="Helvetica,sans-Serif" font-size="10.00"># DumpState()</text>
<text text-anchor="start" x="461" y="-1264.5" font-family="Helvetica,sans-Serif" font-size="10.00"># DumpState()</text>
<text text-anchor="start" x="461" y="-1253.5" font-family="Helvetica,sans-Serif" font-size="10.00"># DumpState()</text>
<text text-anchor="start" x="461" y="-1242.5" font-family="Helvetica,sans-Serif" font-size="10.00"># CheckParametersOnLoad()</text>
<text text-anchor="start" x="461" y="-1231.5" font-family="Helvetica,sans-Serif" font-size="10.00">&#45; GetStateMessage()</text>
</a>
</g>
</g>
<!-- Node11&#45;&gt;Node14 -->
<g id="edge15" class="edge"><title>Node11&#45;&gt;Node14</title>
<path fill="none" stroke="midnightblue" d="M558.346,-1506.43C556.111,-1490.35 553.802,-1473.73 551.55,-1457.52"/>
<polygon fill="none" stroke="midnightblue" points="554.884,-1506.95 559.727,-1516.37 561.818,-1505.99 554.884,-1506.95"/>
</g>
<!-- Node12 -->
<g id="node12" class="node"><title>Node12</title>
<polygon fill="white" stroke="#bfbfbf" points="493.5,-1764.5 493.5,-1832.5 653.5,-1832.5 653.5,-1764.5 493.5,-1764.5"/>
<text text-anchor="start" x="501.5" y="-1820.5" font-family="Helvetica,sans-Serif" font-size="10.00">shared_ptr&lt; AbstractOdeSystem</text>
<text text-anchor="middle" x="573.5" y="-1809.5" font-family="Helvetica,sans-Serif" font-size="10.00">Information &gt;</text>
<polyline fill="none" stroke="#bfbfbf" points="493.5,-1802.5 653.5,-1802.5 "/>
<text text-anchor="middle" x="573.5" y="-1790.5" font-family="Helvetica,sans-Serif" font-size="10.00"> </text>
<polyline fill="none" stroke="#bfbfbf" points="493.5,-1783.5 653.5,-1783.5 "/>
<text text-anchor="middle" x="573.5" y="-1771.5" font-family="Helvetica,sans-Serif" font-size="10.00"> </text>
</g>
<!-- Node12&#45;&gt;Node11 -->
<g id="edge11" class="edge"><title>Node12&#45;&gt;Node11</title>
<path fill="none" stroke="#404040" d="M573.5,-1764.49C573.5,-1753.92 573.5,-1741.57 573.5,-1728.6"/>
<polygon fill="none" stroke="#404040" points="573.5,-1728.55 569.5,-1722.55 573.5,-1716.55 577.5,-1722.55 573.5,-1728.55"/>
<text text-anchor="middle" x="610" y="-1738" font-family="Helvetica,sans-Serif" font-size="10.00"> #mpSystemInfo</text>
</g>
<!-- Node13 -->
<g id="node13" class="node"><title>Node13</title>
<polygon fill="white" stroke="#bfbfbf" points="636.5,-1312.5 636.5,-1369.5 726.5,-1369.5 726.5,-1312.5 636.5,-1312.5"/>
<text text-anchor="middle" x="681.5" y="-1357.5" font-family="Helvetica,sans-Serif" font-size="10.00">vector&lt; double &gt;</text>
<polyline fill="none" stroke="#bfbfbf" points="636.5,-1350.5 726.5,-1350.5 "/>
<text text-anchor="middle" x="681.5" y="-1338.5" font-family="Helvetica,sans-Serif" font-size="10.00"> </text>
<polyline fill="none" stroke="#bfbfbf" points="636.5,-1331.5 726.5,-1331.5 "/>
<text text-anchor="middle" x="681.5" y="-1319.5" font-family="Helvetica,sans-Serif" font-size="10.00"> </text>
</g>
<!-- Node13&#45;&gt;Node10 -->
<g id="edge13" class="edge"><title>Node13&#45;&gt;Node10</title>
<path fill="none" stroke="#404040" d="M677.725,-1312.44C674.302,-1280.86 671.322,-1227.83 682.5,-1184 683.087,-1181.7 683.723,-1179.39 684.401,-1177.08"/>
<polygon fill="none" stroke="#404040" points="684.438,-1176.97 682.484,-1170.03 688.139,-1165.56 690.093,-1172.5 684.438,-1176.97"/>
<text text-anchor="middle" x="723" y="-1198" font-family="Helvetica,sans-Serif" font-size="10.00"> #mStateVariables</text>
<text text-anchor="middle" x="723" y="-1187" font-family="Helvetica,sans-Serif" font-size="10.00">#mParameters</text>
</g>
<!-- Node14&#45;&gt;Node10 -->
<g id="edge14" class="edge"><title>Node14&#45;&gt;Node10</title>
<path fill="none" stroke="orange" d="M540.528,-1214.78C545.016,-1203.46 551.173,-1192.92 559.5,-1184 584.37,-1157.36 607.614,-1183.65 639.5,-1166 650.665,-1159.82 661.458,-1152.23 671.665,-1143.91"/>
<polygon fill="orange" stroke="orange" points="537.141,-1213.86 537.138,-1224.45 543.747,-1216.17 537.141,-1213.86"/>
<text text-anchor="middle" x="617" y="-1192.5" font-family="Helvetica,sans-Serif" font-size="10.00"> &lt; std::vector&lt; double &gt; &gt;</text>
</g>
<!-- Node15 -->
<g id="node15" class="node"><title>Node15</title>
<polygon fill="white" stroke="#bfbfbf" points="403,-1588 403,-1645 462,-1645 462,-1588 403,-1588"/>
<text text-anchor="middle" x="432.5" y="-1633" font-family="Helvetica,sans-Serif" font-size="10.00">VECTOR</text>
<polyline fill="none" stroke="#bfbfbf" points="403,-1626 462,-1626 "/>
<text text-anchor="middle" x="432.5" y="-1614" font-family="Helvetica,sans-Serif" font-size="10.00"> </text>
<polyline fill="none" stroke="#bfbfbf" points="403,-1607 462,-1607 "/>
<text text-anchor="middle" x="432.5" y="-1595" font-family="Helvetica,sans-Serif" font-size="10.00"> </text>
</g>
<!-- Node15&#45;&gt;Node14 -->
<g id="edge16" class="edge"><title>Node15&#45;&gt;Node14</title>
<path fill="none" stroke="#404040" d="M438.1,-1588C444.293,-1559.49 455.303,-1513.89 469.5,-1476 470.388,-1473.63 471.305,-1471.24 472.247,-1468.85"/>
<polygon fill="none" stroke="#404040" points="472.305,-1468.7 470.857,-1461.64 476.821,-1457.59 478.269,-1464.65 472.305,-1468.7"/>
<text text-anchor="middle" x="510" y="-1490" font-family="Helvetica,sans-Serif" font-size="10.00"> #mStateVariables</text>
<text text-anchor="middle" x="510" y="-1479" font-family="Helvetica,sans-Serif" font-size="10.00">#mParameters</text>
</g>
</g>
</svg>
