<?xml version="1.0" encoding="UTF-8" standalone="no"?>
<!DOCTYPE svg PUBLIC "-//W3C//DTD SVG 1.1//EN"
 "http://www.w3.org/Graphics/SVG/1.1/DTD/svg11.dtd">
<!-- Generated by graphviz version 2.38.0 (20140413.2041)
 -->
<!-- Title: CellwiseSourceEllipticPde&lt; DIM &gt; Pages: 1 -->
<svg width="2029pt" height="1091pt"
 viewBox="0.00 0.00 2028.50 1091.00" xmlns="http://www.w3.org/2000/svg" xmlns:xlink="http://www.w3.org/1999/xlink">
<g id="graph0" class="graph" transform="scale(1 1) rotate(0) translate(4 1087)">
<title>CellwiseSourceEllipticPde&lt; DIM &gt;</title>
<polygon fill="white" stroke="none" points="-4,4 -4,-1087 2024.5,-1087 2024.5,4 -4,4"/>
<!-- Node1 -->
<g id="node1" class="node"><title>Node1</title>
<polygon fill="#bfbfbf" stroke="black" points="485,-0.5 485,-156.5 684,-156.5 684,-0.5 485,-0.5"/>
<text text-anchor="start" x="493" y="-144.5" font-family="Helvetica,sans-Serif" font-size="10.00">CellwiseSourceEllipticPde</text>
<text text-anchor="middle" x="584.5" y="-133.5" font-family="Helvetica,sans-Serif" font-size="10.00">&lt; DIM &gt;</text>
<polyline fill="none" stroke="black" points="485,-126.5 684,-126.5 "/>
<text text-anchor="middle" x="584.5" y="-114.5" font-family="Helvetica,sans-Serif" font-size="10.00"> </text>
<polyline fill="none" stroke="black" points="485,-107.5 684,-107.5 "/>
<text text-anchor="start" x="493" y="-95.5" font-family="Helvetica,sans-Serif" font-size="10.00">+ CellwiseSourceEllipticPde()</text>
<text text-anchor="start" x="493" y="-84.5" font-family="Helvetica,sans-Serif" font-size="10.00">+ rGetCellPopulation()</text>
<text text-anchor="start" x="493" y="-73.5" font-family="Helvetica,sans-Serif" font-size="10.00">+ GetCoefficient()</text>
<text text-anchor="start" x="493" y="-62.5" font-family="Helvetica,sans-Serif" font-size="10.00">+ ComputeConstantInUSourceTerm()</text>
<text text-anchor="start" x="493" y="-51.5" font-family="Helvetica,sans-Serif" font-size="10.00">+ ComputeLinearInUCoeffInSourceTerm()</text>
<text text-anchor="start" x="493" y="-40.5" font-family="Helvetica,sans-Serif" font-size="10.00">+ ComputeLinearInUCoeffInSource</text>
<text text-anchor="start" x="493" y="-29.5" font-family="Helvetica,sans-Serif" font-size="10.00">TermAtNode()</text>
<text text-anchor="start" x="493" y="-18.5" font-family="Helvetica,sans-Serif" font-size="10.00">+ ComputeDiffusionTerm()</text>
<text text-anchor="start" x="493" y="-7.5" font-family="Helvetica,sans-Serif" font-size="10.00">&#45; serialize()</text>
</g>
<!-- Node2 -->
<g id="node2" class="node"><title>Node2</title>
<g id="a_node2"><a xlink:href="classAbstractLinearEllipticPde.html" target="_top" xlink:title="{AbstractLinearEllipticPde\l\&lt; DIM, DIM \&gt;\n||+ AbstractLinearEllipticPde()\l+ ~AbstractLinearEllipticPde()\l+ ComputeConstantInUSourceTerm()\l+ ComputeLinearInUCoeffInSourceTerm()\l+ ComputeDiffusionTerm()\l+ ComputeConstantInUSource\lTermAtNode()\l+ ComputeLinearInUCoeffInSource\lTermAtNode()\l&#45; serialize()\l}">
<polygon fill="white" stroke="black" points="128,-265 128,-432 327,-432 327,-265 128,-265"/>
<text text-anchor="start" x="136" y="-420" font-family="Helvetica,sans-Serif" font-size="10.00">AbstractLinearEllipticPde</text>
<text text-anchor="middle" x="227.5" y="-409" font-family="Helvetica,sans-Serif" font-size="10.00">&lt; DIM, DIM &gt;</text>
<polyline fill="none" stroke="black" points="128,-402 327,-402 "/>
<text text-anchor="middle" x="227.5" y="-390" font-family="Helvetica,sans-Serif" font-size="10.00"> </text>
<polyline fill="none" stroke="black" points="128,-383 327,-383 "/>
<text text-anchor="start" x="136" y="-371" font-family="Helvetica,sans-Serif" font-size="10.00">+ AbstractLinearEllipticPde()</text>
<text text-anchor="start" x="136" y="-360" font-family="Helvetica,sans-Serif" font-size="10.00">+ ~AbstractLinearEllipticPde()</text>
<text text-anchor="start" x="136" y="-349" font-family="Helvetica,sans-Serif" font-size="10.00">+ ComputeConstantInUSourceTerm()</text>
<text text-anchor="start" x="136" y="-338" font-family="Helvetica,sans-Serif" font-size="10.00">+ ComputeLinearInUCoeffInSourceTerm()</text>
<text text-anchor="start" x="136" y="-327" font-family="Helvetica,sans-Serif" font-size="10.00">+ ComputeDiffusionTerm()</text>
<text text-anchor="start" x="136" y="-316" font-family="Helvetica,sans-Serif" font-size="10.00">+ ComputeConstantInUSource</text>
<text text-anchor="start" x="136" y="-305" font-family="Helvetica,sans-Serif" font-size="10.00">TermAtNode()</text>
<text text-anchor="start" x="136" y="-294" font-family="Helvetica,sans-Serif" font-size="10.00">+ ComputeLinearInUCoeffInSource</text>
<text text-anchor="start" x="136" y="-283" font-family="Helvetica,sans-Serif" font-size="10.00">TermAtNode()</text>
<text text-anchor="start" x="136" y="-272" font-family="Helvetica,sans-Serif" font-size="10.00">&#45; serialize()</text>
</a>
</g>
</g>
<!-- Node2&#45;&gt;Node1 -->
<g id="edge1" class="edge"><title>Node2&#45;&gt;Node1</title>
<path fill="none" stroke="midnightblue" d="M335.576,-266.367C383.055,-230.725 438.451,-189.139 484.914,-154.259"/>
<polygon fill="none" stroke="midnightblue" points="333.315,-263.688 327.419,-272.491 337.518,-269.286 333.315,-263.688"/>
</g>
<!-- Node3 -->
<g id="node3" class="node"><title>Node3</title>
<g id="a_node3"><a xlink:href="classAbstractLinearPde.html" target="_top" xlink:title="{AbstractLinearPde\&lt;\l ELEMENT_DIM, SPACE_DIM \&gt;\n||+ AbstractLinearPde()\l+ ~AbstractLinearPde()\l&#45; serialize()\l}">
<polygon fill="white" stroke="black" points="17.5,-887.5 17.5,-977.5 181.5,-977.5 181.5,-887.5 17.5,-887.5"/>
<text text-anchor="start" x="25.5" y="-965.5" font-family="Helvetica,sans-Serif" font-size="10.00">AbstractLinearPde&lt;</text>
<text text-anchor="middle" x="99.5" y="-954.5" font-family="Helvetica,sans-Serif" font-size="10.00"> ELEMENT_DIM, SPACE_DIM &gt;</text>
<polyline fill="none" stroke="black" points="17.5,-947.5 181.5,-947.5 "/>
<text text-anchor="middle" x="99.5" y="-935.5" font-family="Helvetica,sans-Serif" font-size="10.00"> </text>
<polyline fill="none" stroke="black" points="17.5,-928.5 181.5,-928.5 "/>
<text text-anchor="start" x="25.5" y="-916.5" font-family="Helvetica,sans-Serif" font-size="10.00">+ AbstractLinearPde()</text>
<text text-anchor="start" x="25.5" y="-905.5" font-family="Helvetica,sans-Serif" font-size="10.00">+ ~AbstractLinearPde()</text>
<text text-anchor="start" x="25.5" y="-894.5" font-family="Helvetica,sans-Serif" font-size="10.00">&#45; serialize()</text>
</a>
</g>
</g>
<!-- Node3&#45;&gt;Node2 -->
<g id="edge2" class="edge"><title>Node3&#45;&gt;Node2</title>
<path fill="none" stroke="midnightblue" d="M169.401,-880.362C184.621,-865.596 198.767,-848.213 207.5,-829 266.023,-700.242 255.728,-531.411 242.148,-432.264"/>
<polygon fill="none" stroke="midnightblue" points="166.786,-878.016 161.863,-887.398 171.562,-883.133 166.786,-878.016"/>
</g>
<!-- Node4 -->
<g id="node4" class="node"><title>Node4</title>
<g id="a_node4"><a xlink:href="classAbstractLinearEllipticPde.html" target="_top" xlink:title="{AbstractLinearEllipticPde\l\&lt; ELEMENT_DIM, SPACE_DIM \&gt;\n||+ AbstractLinearEllipticPde()\l+ ~AbstractLinearEllipticPde()\l+ ComputeConstantInUSourceTerm()\l+ ComputeLinearInUCoeffInSourceTerm()\l+ ComputeDiffusionTerm()\l+ ComputeConstantInUSource\lTermAtNode()\l+ ComputeLinearInUCoeffInSource\lTermAtNode()\l&#45; serialize()\l}">
<polygon fill="white" stroke="black" points="0,-601 0,-768 199,-768 199,-601 0,-601"/>
<text text-anchor="start" x="8" y="-756" font-family="Helvetica,sans-Serif" font-size="10.00">AbstractLinearEllipticPde</text>
<text text-anchor="middle" x="99.5" y="-745" font-family="Helvetica,sans-Serif" font-size="10.00">&lt; ELEMENT_DIM, SPACE_DIM &gt;</text>
<polyline fill="none" stroke="black" points="0,-738 199,-738 "/>
<text text-anchor="middle" x="99.5" y="-726" font-family="Helvetica,sans-Serif" font-size="10.00"> </text>
<polyline fill="none" stroke="black" points="0,-719 199,-719 "/>
<text text-anchor="start" x="8" y="-707" font-family="Helvetica,sans-Serif" font-size="10.00">+ AbstractLinearEllipticPde()</text>
<text text-anchor="start" x="8" y="-696" font-family="Helvetica,sans-Serif" font-size="10.00">+ ~AbstractLinearEllipticPde()</text>
<text text-anchor="start" x="8" y="-685" font-family="Helvetica,sans-Serif" font-size="10.00">+ ComputeConstantInUSourceTerm()</text>
<text text-anchor="start" x="8" y="-674" font-family="Helvetica,sans-Serif" font-size="10.00">+ ComputeLinearInUCoeffInSourceTerm()</text>
<text text-anchor="start" x="8" y="-663" font-family="Helvetica,sans-Serif" font-size="10.00">+ ComputeDiffusionTerm()</text>
<text text-anchor="start" x="8" y="-652" font-family="Helvetica,sans-Serif" font-size="10.00">+ ComputeConstantInUSource</text>
<text text-anchor="start" x="8" y="-641" font-family="Helvetica,sans-Serif" font-size="10.00">TermAtNode()</text>
<text text-anchor="start" x="8" y="-630" font-family="Helvetica,sans-Serif" font-size="10.00">+ ComputeLinearInUCoeffInSource</text>
<text text-anchor="start" x="8" y="-619" font-family="Helvetica,sans-Serif" font-size="10.00">TermAtNode()</text>
<text text-anchor="start" x="8" y="-608" font-family="Helvetica,sans-Serif" font-size="10.00">&#45; serialize()</text>
</a>
</g>
</g>
<!-- Node3&#45;&gt;Node4 -->
<g id="edge4" class="edge"><title>Node3&#45;&gt;Node4</title>
<path fill="none" stroke="midnightblue" d="M99.5,-877.194C99.5,-845.221 99.5,-804.133 99.5,-768.202"/>
<polygon fill="none" stroke="midnightblue" points="96.0001,-877.236 99.5,-887.236 103,-877.236 96.0001,-877.236"/>
</g>
<!-- Node4&#45;&gt;Node2 -->
<g id="edge3" class="edge"><title>Node4&#45;&gt;Node2</title>
<path fill="none" stroke="orange" d="M122.502,-590.998C129.889,-564.823 138.723,-536.521 148.5,-511 158.55,-484.767 171.297,-457.019 183.604,-432.063"/>
<polygon fill="orange" stroke="orange" points="119.051,-590.343 119.742,-600.915 125.795,-592.22 119.051,-590.343"/>
<text text-anchor="middle" x="181" y="-514" font-family="Helvetica,sans-Serif" font-size="10.00"> &lt; DIM, DIM &gt;</text>
</g>
<!-- Node5 -->
<g id="node5" class="node"><title>Node5</title>
<g id="a_node5"><a xlink:href="classdouble.html" target="_top" xlink:title="{double\n||}">
<polygon fill="white" stroke="black" points="562,-320 562,-377 607,-377 607,-320 562,-320"/>
<text text-anchor="middle" x="584.5" y="-365" font-family="Helvetica,sans-Serif" font-size="10.00">double</text>
<polyline fill="none" stroke="black" points="562,-358 607,-358 "/>
<text text-anchor="middle" x="584.5" y="-346" font-family="Helvetica,sans-Serif" font-size="10.00"> </text>
<polyline fill="none" stroke="black" points="562,-339 607,-339 "/>
<text text-anchor="middle" x="584.5" y="-327" font-family="Helvetica,sans-Serif" font-size="10.00"> </text>
</a>
</g>
</g>
<!-- Node5&#45;&gt;Node1 -->
<g id="edge5" class="edge"><title>Node5&#45;&gt;Node1</title>
<path fill="none" stroke="#404040" d="M584.5,-319.829C584.5,-284.406 584.5,-221.316 584.5,-168.665"/>
<polygon fill="none" stroke="#404040" points="584.5,-168.569 580.5,-162.569 584.5,-156.569 588.5,-162.569 584.5,-168.569"/>
<text text-anchor="middle" x="632" y="-178" font-family="Helvetica,sans-Serif" font-size="10.00"> #mSourceCoefficient</text>
</g>
<!-- Node6 -->
<g id="node6" class="node"><title>Node6</title>
<g id="a_node6"><a xlink:href="classAbstractCellPopulation.html" target="_top" xlink:title="{AbstractCellPopulation\l\&lt; DIM, DIM \&gt;\n||+ AbstractCellPopulation()\l+ ~AbstractCellPopulation()\l+ InitialiseCells()\l+ SetDataOnAllCells()\l+ rGetMesh()\l+ GetTetrahedralMeshForPde\lModifier()\l+ IsPdeNodeAssociatedWithNon\lApoptoticCell()\l+ GetCellDataItemAtPdeNode()\l+ rGetCells()\l+ GetNumNodes()\land 55 more...\l# Validate()\l# WriteVtkResultsToFile()\l# AbstractCellPopulation()\l# AcceptCellWritersAcrossPopulation()\l&#45; serialize()\l&#45; OpenRoundRobinWritersFiles\lForAppend()\l&#45; CloseRoundRobinWritersFiles()\l}">
<polygon fill="white" stroke="black" points="900,-204.5 900,-492.5 1087,-492.5 1087,-204.5 900,-204.5"/>
<text text-anchor="start" x="908" y="-480.5" font-family="Helvetica,sans-Serif" font-size="10.00">AbstractCellPopulation</text>
<text text-anchor="middle" x="993.5" y="-469.5" font-family="Helvetica,sans-Serif" font-size="10.00">&lt; DIM, DIM &gt;</text>
<polyline fill="none" stroke="black" points="900,-462.5 1087,-462.5 "/>
<text text-anchor="middle" x="993.5" y="-450.5" font-family="Helvetica,sans-Serif" font-size="10.00"> </text>
<polyline fill="none" stroke="black" points="900,-443.5 1087,-443.5 "/>
<text text-anchor="start" x="908" y="-431.5" font-family="Helvetica,sans-Serif" font-size="10.00">+ AbstractCellPopulation()</text>
<text text-anchor="start" x="908" y="-420.5" font-family="Helvetica,sans-Serif" font-size="10.00">+ ~AbstractCellPopulation()</text>
<text text-anchor="start" x="908" y="-409.5" font-family="Helvetica,sans-Serif" font-size="10.00">+ InitialiseCells()</text>
<text text-anchor="start" x="908" y="-398.5" font-family="Helvetica,sans-Serif" font-size="10.00">+ SetDataOnAllCells()</text>
<text text-anchor="start" x="908" y="-387.5" font-family="Helvetica,sans-Serif" font-size="10.00">+ rGetMesh()</text>
<text text-anchor="start" x="908" y="-376.5" font-family="Helvetica,sans-Serif" font-size="10.00">+ GetTetrahedralMeshForPde</text>
<text text-anchor="start" x="908" y="-365.5" font-family="Helvetica,sans-Serif" font-size="10.00">Modifier()</text>
<text text-anchor="start" x="908" y="-354.5" font-family="Helvetica,sans-Serif" font-size="10.00">+ IsPdeNodeAssociatedWithNon</text>
<text text-anchor="start" x="908" y="-343.5" font-family="Helvetica,sans-Serif" font-size="10.00">ApoptoticCell()</text>
<text text-anchor="start" x="908" y="-332.5" font-family="Helvetica,sans-Serif" font-size="10.00">+ GetCellDataItemAtPdeNode()</text>
<text text-anchor="start" x="908" y="-321.5" font-family="Helvetica,sans-Serif" font-size="10.00">+ rGetCells()</text>
<text text-anchor="start" x="908" y="-310.5" font-family="Helvetica,sans-Serif" font-size="10.00">+ GetNumNodes()</text>
<text text-anchor="start" x="908" y="-299.5" font-family="Helvetica,sans-Serif" font-size="10.00">and 55 more...</text>
<text text-anchor="start" x="908" y="-288.5" font-family="Helvetica,sans-Serif" font-size="10.00"># Validate()</text>
<text text-anchor="start" x="908" y="-277.5" font-family="Helvetica,sans-Serif" font-size="10.00"># WriteVtkResultsToFile()</text>
<text text-anchor="start" x="908" y="-266.5" font-family="Helvetica,sans-Serif" font-size="10.00"># AbstractCellPopulation()</text>
<text text-anchor="start" x="908" y="-255.5" font-family="Helvetica,sans-Serif" font-size="10.00"># AcceptCellWritersAcrossPopulation()</text>
<text text-anchor="start" x="908" y="-244.5" font-family="Helvetica,sans-Serif" font-size="10.00">&#45; serialize()</text>
<text text-anchor="start" x="908" y="-233.5" font-family="Helvetica,sans-Serif" font-size="10.00">&#45; OpenRoundRobinWritersFiles</text>
<text text-anchor="start" x="908" y="-222.5" font-family="Helvetica,sans-Serif" font-size="10.00">ForAppend()</text>
<text text-anchor="start" x="908" y="-211.5" font-family="Helvetica,sans-Serif" font-size="10.00">&#45; CloseRoundRobinWritersFiles()</text>
</a>
</g>
</g>
<!-- Node6&#45;&gt;Node1 -->
<g id="edge6" class="edge"><title>Node6&#45;&gt;Node1</title>
<path fill="none" stroke="#404040" d="M899.924,-286.183C838.706,-246.07 758.473,-193.497 694.248,-151.413"/>
<polygon fill="none" stroke="#404040" points="694.12,-151.329 686.909,-151.387 684.083,-144.752 691.294,-144.695 694.12,-151.329"/>
<text text-anchor="middle" x="782" y="-178" font-family="Helvetica,sans-Serif" font-size="10.00"> #mrCellPopulation</text>
</g>
<!-- Node7 -->
<g id="node7" class="node"><title>Node7</title>
<g id="a_node7"><a xlink:href="classIdentifiable.html" target="_top" xlink:title="{Identifiable\n||+ ~Identifiable()\l+ GetIdentifier()\l&#45; TidyTemplatedExportIdentifier()\l}">
<polygon fill="white" stroke="black" points="1661,-893 1661,-972 1820,-972 1820,-893 1661,-893"/>
<text text-anchor="middle" x="1740.5" y="-960" font-family="Helvetica,sans-Serif" font-size="10.00">Identifiable</text>
<polyline fill="none" stroke="black" points="1661,-953 1820,-953 "/>
<text text-anchor="middle" x="1740.5" y="-941" font-family="Helvetica,sans-Serif" font-size="10.00"> </text>
<polyline fill="none" stroke="black" points="1661,-934 1820,-934 "/>
<text text-anchor="start" x="1669" y="-922" font-family="Helvetica,sans-Serif" font-size="10.00">+ ~Identifiable()</text>
<text text-anchor="start" x="1669" y="-911" font-family="Helvetica,sans-Serif" font-size="10.00">+ GetIdentifier()</text>
<text text-anchor="start" x="1669" y="-900" font-family="Helvetica,sans-Serif" font-size="10.00">&#45; TidyTemplatedExportIdentifier()</text>
</a>
</g>
</g>
<!-- Node7&#45;&gt;Node6 -->
<g id="edge7" class="edge"><title>Node7&#45;&gt;Node6</title>
<path fill="none" stroke="midnightblue" d="M1770.54,-883.797C1779.44,-867.112 1788,-847.831 1792.5,-829 1822.38,-704.078 1872.1,-640.807 1792.5,-540 1705.4,-429.689 1278.69,-376.308 1087.02,-357.589"/>
<polygon fill="none" stroke="midnightblue" points="1767.35,-882.333 1765.59,-892.78 1773.48,-885.713 1767.35,-882.333"/>
</g>
<!-- Node20 -->
<g id="node20" class="node"><title>Node20</title>
<g id="a_node20"><a xlink:href="classAbstractCellPopulation.html" target="_top" xlink:title="{AbstractCellPopulation\l\&lt; ELEMENT_DIM, SPACE_DIM \&gt;\n||+ AbstractCellPopulation()\l+ ~AbstractCellPopulation()\l+ InitialiseCells()\l+ SetDataOnAllCells()\l+ rGetMesh()\l+ GetTetrahedralMeshForPde\lModifier()\l+ IsPdeNodeAssociatedWithNon\lApoptoticCell()\l+ GetCellDataItemAtPdeNode()\l+ rGetCells()\l+ GetNumNodes()\land 55 more...\l# Validate()\l# WriteVtkResultsToFile()\l# AbstractCellPopulation()\l# AcceptCellWritersAcrossPopulation()\l&#45; serialize()\l&#45; OpenRoundRobinWritersFiles\lForAppend()\l&#45; CloseRoundRobinWritersFiles()\l}">
<polygon fill="white" stroke="black" points="1044,-540.5 1044,-828.5 1231,-828.5 1231,-540.5 1044,-540.5"/>
<text text-anchor="start" x="1052" y="-816.5" font-family="Helvetica,sans-Serif" font-size="10.00">AbstractCellPopulation</text>
<text text-anchor="middle" x="1137.5" y="-805.5" font-family="Helvetica,sans-Serif" font-size="10.00">&lt; ELEMENT_DIM, SPACE_DIM &gt;</text>
<polyline fill="none" stroke="black" points="1044,-798.5 1231,-798.5 "/>
<text text-anchor="middle" x="1137.5" y="-786.5" font-family="Helvetica,sans-Serif" font-size="10.00"> </text>
<polyline fill="none" stroke="black" points="1044,-779.5 1231,-779.5 "/>
<text text-anchor="start" x="1052" y="-767.5" font-family="Helvetica,sans-Serif" font-size="10.00">+ AbstractCellPopulation()</text>
<text text-anchor="start" x="1052" y="-756.5" font-family="Helvetica,sans-Serif" font-size="10.00">+ ~AbstractCellPopulation()</text>
<text text-anchor="start" x="1052" y="-745.5" font-family="Helvetica,sans-Serif" font-size="10.00">+ InitialiseCells()</text>
<text text-anchor="start" x="1052" y="-734.5" font-family="Helvetica,sans-Serif" font-size="10.00">+ SetDataOnAllCells()</text>
<text text-anchor="start" x="1052" y="-723.5" font-family="Helvetica,sans-Serif" font-size="10.00">+ rGetMesh()</text>
<text text-anchor="start" x="1052" y="-712.5" font-family="Helvetica,sans-Serif" font-size="10.00">+ GetTetrahedralMeshForPde</text>
<text text-anchor="start" x="1052" y="-701.5" font-family="Helvetica,sans-Serif" font-size="10.00">Modifier()</text>
<text text-anchor="start" x="1052" y="-690.5" font-family="Helvetica,sans-Serif" font-size="10.00">+ IsPdeNodeAssociatedWithNon</text>
<text text-anchor="start" x="1052" y="-679.5" font-family="Helvetica,sans-Serif" font-size="10.00">ApoptoticCell()</text>
<text text-anchor="start" x="1052" y="-668.5" font-family="Helvetica,sans-Serif" font-size="10.00">+ GetCellDataItemAtPdeNode()</text>
<text text-anchor="start" x="1052" y="-657.5" font-family="Helvetica,sans-Serif" font-size="10.00">+ rGetCells()</text>
<text text-anchor="start" x="1052" y="-646.5" font-family="Helvetica,sans-Serif" font-size="10.00">+ GetNumNodes()</text>
<text text-anchor="start" x="1052" y="-635.5" font-family="Helvetica,sans-Serif" font-size="10.00">and 55 more...</text>
<text text-anchor="start" x="1052" y="-624.5" font-family="Helvetica,sans-Serif" font-size="10.00"># Validate()</text>
<text text-anchor="start" x="1052" y="-613.5" font-family="Helvetica,sans-Serif" font-size="10.00"># WriteVtkResultsToFile()</text>
<text text-anchor="start" x="1052" y="-602.5" font-family="Helvetica,sans-Serif" font-size="10.00"># AbstractCellPopulation()</text>
<text text-anchor="start" x="1052" y="-591.5" font-family="Helvetica,sans-Serif" font-size="10.00"># AcceptCellWritersAcrossPopulation()</text>
<text text-anchor="start" x="1052" y="-580.5" font-family="Helvetica,sans-Serif" font-size="10.00">&#45; serialize()</text>
<text text-anchor="start" x="1052" y="-569.5" font-family="Helvetica,sans-Serif" font-size="10.00">&#45; OpenRoundRobinWritersFiles</text>
<text text-anchor="start" x="1052" y="-558.5" font-family="Helvetica,sans-Serif" font-size="10.00">ForAppend()</text>
<text text-anchor="start" x="1052" y="-547.5" font-family="Helvetica,sans-Serif" font-size="10.00">&#45; CloseRoundRobinWritersFiles()</text>
</a>
</g>
</g>
<!-- Node7&#45;&gt;Node20 -->
<g id="edge21" class="edge"><title>Node7&#45;&gt;Node20</title>
<path fill="none" stroke="midnightblue" d="M1725.57,-883.67C1718.71,-869.483 1709.01,-855.483 1695.5,-847 1653.12,-820.389 1289.82,-852.232 1245.5,-829 1240.53,-826.394 1235.72,-823.446 1231.08,-820.215"/>
<polygon fill="none" stroke="midnightblue" points="1722.43,-885.229 1729.67,-892.963 1728.83,-882.402 1722.43,-885.229"/>
</g>
<!-- Node8 -->
<g id="node8" class="node"><title>Node8</title>
<polygon fill="white" stroke="#bfbfbf" points="1839.5,-898.5 1839.5,-966.5 1971.5,-966.5 1971.5,-898.5 1839.5,-898.5"/>
<text text-anchor="start" x="1847.5" y="-954.5" font-family="Helvetica,sans-Serif" font-size="10.00">c_vector&lt; double, SPACE</text>
<text text-anchor="middle" x="1905.5" y="-943.5" font-family="Helvetica,sans-Serif" font-size="10.00">_DIM &gt;</text>
<polyline fill="none" stroke="#bfbfbf" points="1839.5,-936.5 1971.5,-936.5 "/>
<text text-anchor="middle" x="1905.5" y="-924.5" font-family="Helvetica,sans-Serif" font-size="10.00"> </text>
<polyline fill="none" stroke="#bfbfbf" points="1839.5,-917.5 1971.5,-917.5 "/>
<text text-anchor="middle" x="1905.5" y="-905.5" font-family="Helvetica,sans-Serif" font-size="10.00"> </text>
</g>
<!-- Node8&#45;&gt;Node6 -->
<g id="edge8" class="edge"><title>Node8&#45;&gt;Node6</title>
<path fill="none" stroke="#404040" d="M1907.36,-898.281C1909.74,-826.318 1906.28,-653.389 1828.5,-540 1746.5,-420.457 1304.98,-372.501 1099.2,-356.433"/>
<polygon fill="none" stroke="#404040" points="1099.15,-356.429 1092.86,-359.958 1087.18,-355.51 1093.47,-351.982 1099.15,-356.429"/>
<text text-anchor="middle" x="1934.5" y="-682" font-family="Helvetica,sans-Serif" font-size="10.00"> #mCentroid</text>
</g>
<!-- Node8&#45;&gt;Node20 -->
<g id="edge22" class="edge"><title>Node8&#45;&gt;Node20</title>
<path fill="none" stroke="#404040" d="M1850.72,-898.287C1815.06,-878.778 1766.73,-856.194 1720.5,-847 1668.7,-836.699 1292.3,-853.471 1245.5,-829 1244.1,-828.269 1242.72,-827.51 1241.34,-826.726"/>
<polygon fill="none" stroke="#404040" points="1241.22,-826.646 1234.01,-826.817 1231.08,-820.229 1238.29,-820.057 1241.22,-826.646"/>
<text text-anchor="middle" x="1816.5" y="-855.5" font-family="Helvetica,sans-Serif" font-size="10.00"> #mCentroid</text>
</g>
<!-- Node9 -->
<g id="node9" class="node"><title>Node9</title>
<polygon fill="white" stroke="#bfbfbf" points="1878.5,-1025.5 1878.5,-1082.5 1932.5,-1082.5 1932.5,-1025.5 1878.5,-1025.5"/>
<text text-anchor="middle" x="1905.5" y="-1070.5" font-family="Helvetica,sans-Serif" font-size="10.00">c_vector</text>
<polyline fill="none" stroke="#bfbfbf" points="1878.5,-1063.5 1932.5,-1063.5 "/>
<text text-anchor="middle" x="1905.5" y="-1051.5" font-family="Helvetica,sans-Serif" font-size="10.00"> </text>
<polyline fill="none" stroke="#bfbfbf" points="1878.5,-1044.5 1932.5,-1044.5 "/>
<text text-anchor="middle" x="1905.5" y="-1032.5" font-family="Helvetica,sans-Serif" font-size="10.00"> </text>
</g>
<!-- Node9&#45;&gt;Node8 -->
<g id="edge9" class="edge"><title>Node9&#45;&gt;Node8</title>
<path fill="none" stroke="orange" d="M1905.5,-1014.95C1905.5,-999.399 1905.5,-981.585 1905.5,-966.589"/>
<polygon fill="orange" stroke="orange" points="1902,-1015.28 1905.5,-1025.28 1909,-1015.28 1902,-1015.28"/>
<text text-anchor="middle" x="1963" y="-999" font-family="Helvetica,sans-Serif" font-size="10.00"> &lt; double, SPACE_DIM &gt;</text>
</g>
<!-- Node10 -->
<g id="node10" class="node"><title>Node10</title>
<polygon fill="white" stroke="#bfbfbf" points="728,-904 728,-961 805,-961 805,-904 728,-904"/>
<text text-anchor="middle" x="766.5" y="-949" font-family="Helvetica,sans-Serif" font-size="10.00">list&lt; CellPtr &gt;</text>
<polyline fill="none" stroke="#bfbfbf" points="728,-942 805,-942 "/>
<text text-anchor="middle" x="766.5" y="-930" font-family="Helvetica,sans-Serif" font-size="10.00"> </text>
<polyline fill="none" stroke="#bfbfbf" points="728,-923 805,-923 "/>
<text text-anchor="middle" x="766.5" y="-911" font-family="Helvetica,sans-Serif" font-size="10.00"> </text>
</g>
<!-- Node10&#45;&gt;Node6 -->
<g id="edge10" class="edge"><title>Node10&#45;&gt;Node6</title>
<path fill="none" stroke="#404040" d="M754.029,-903.965C725.783,-837.242 664.129,-663.331 727.5,-540 761.409,-474.007 829.965,-425.763 888.984,-394.337"/>
<polygon fill="none" stroke="#404040" points="889.239,-394.205 892.714,-387.886 899.883,-388.664 896.408,-394.982 889.239,-394.205"/>
<text text-anchor="middle" x="747.5" y="-682" font-family="Helvetica,sans-Serif" font-size="10.00"> #mCells</text>
</g>
<!-- Node10&#45;&gt;Node20 -->
<g id="edge23" class="edge"><title>Node10&#45;&gt;Node20</title>
<path fill="none" stroke="#404040" d="M788.145,-903.921C805.231,-884.36 830.897,-859.453 859.5,-847 929.162,-816.672 963.398,-866.459 1029.5,-829 1030.87,-828.222 1032.23,-827.418 1033.58,-826.591"/>
<polygon fill="none" stroke="#404040" points="1033.73,-826.492 1036.48,-819.825 1043.69,-819.797 1040.94,-826.464 1033.73,-826.492"/>
<text text-anchor="middle" x="879.5" y="-855.5" font-family="Helvetica,sans-Serif" font-size="10.00"> #mCells</text>
</g>
<!-- Node11 -->
<g id="node11" class="node"><title>Node11</title>
<polygon fill="white" stroke="#bfbfbf" points="199.5,-887.5 199.5,-977.5 351.5,-977.5 351.5,-887.5 199.5,-887.5"/>
<text text-anchor="start" x="207.5" y="-965.5" font-family="Helvetica,sans-Serif" font-size="10.00">vector&lt; boost::shared</text>
<text text-anchor="start" x="207.5" y="-954.5" font-family="Helvetica,sans-Serif" font-size="10.00">_ptr&lt; AbstractCellPopulation</text>
<text text-anchor="start" x="207.5" y="-943.5" font-family="Helvetica,sans-Serif" font-size="10.00">CountWriter&lt; ELEMENT_DIM,</text>
<text text-anchor="middle" x="275.5" y="-932.5" font-family="Helvetica,sans-Serif" font-size="10.00"> SPACE_DIM &gt; &gt; &gt;</text>
<polyline fill="none" stroke="#bfbfbf" points="199.5,-925.5 351.5,-925.5 "/>
<text text-anchor="middle" x="275.5" y="-913.5" font-family="Helvetica,sans-Serif" font-size="10.00"> </text>
<polyline fill="none" stroke="#bfbfbf" points="199.5,-906.5 351.5,-906.5 "/>
<text text-anchor="middle" x="275.5" y="-894.5" font-family="Helvetica,sans-Serif" font-size="10.00"> </text>
</g>
<!-- Node11&#45;&gt;Node6 -->
<g id="edge11" class="edge"><title>Node11&#45;&gt;Node6</title>
<path fill="none" stroke="#404040" d="M268.208,-887.266C257.603,-806.173 248.298,-633.47 341.5,-540 428.742,-452.507 496.301,-525.522 615.5,-493 709.865,-467.254 813.497,-427.019 888.348,-395.697"/>
<polygon fill="none" stroke="#404040" points="888.581,-395.599 892.561,-389.585 899.642,-390.947 895.662,-396.96 888.581,-395.599"/>
<text text-anchor="middle" x="410.5" y="-682" font-family="Helvetica,sans-Serif" font-size="10.00"> #mCellPopulationCountWriters</text>
</g>
<!-- Node11&#45;&gt;Node20 -->
<g id="edge24" class="edge"><title>Node11&#45;&gt;Node20</title>
<path fill="none" stroke="#404040" d="M348.586,-887.308C379.236,-871.234 415.962,-855.045 451.5,-847 514.168,-832.813 972.46,-858.578 1029.5,-829 1030.9,-828.273 1032.29,-827.519 1033.66,-826.739"/>
<polygon fill="none" stroke="#404040" points="1033.79,-826.661 1036.74,-820.081 1043.95,-820.272 1041,-826.853 1033.79,-826.661"/>
<text text-anchor="middle" x="520.5" y="-855.5" font-family="Helvetica,sans-Serif" font-size="10.00"> #mCellPopulationCountWriters</text>
</g>
<!-- Node12 -->
<g id="node12" class="node"><title>Node12</title>
<polygon fill="white" stroke="#bfbfbf" points="369.5,-893 369.5,-972 557.5,-972 557.5,-893 369.5,-893"/>
<text text-anchor="start" x="377.5" y="-960" font-family="Helvetica,sans-Serif" font-size="10.00">vector&lt; boost::shared</text>
<text text-anchor="start" x="377.5" y="-949" font-family="Helvetica,sans-Serif" font-size="10.00">_ptr&lt; AbstractCellWriter</text>
<text text-anchor="middle" x="463.5" y="-938" font-family="Helvetica,sans-Serif" font-size="10.00">&lt; ELEMENT_DIM, SPACE_DIM &gt; &gt; &gt;</text>
<polyline fill="none" stroke="#bfbfbf" points="369.5,-931 557.5,-931 "/>
<text text-anchor="middle" x="463.5" y="-919" font-family="Helvetica,sans-Serif" font-size="10.00"> </text>
<polyline fill="none" stroke="#bfbfbf" points="369.5,-912 557.5,-912 "/>
<text text-anchor="middle" x="463.5" y="-900" font-family="Helvetica,sans-Serif" font-size="10.00"> </text>
</g>
<!-- Node12&#45;&gt;Node6 -->
<g id="edge12" class="edge"><title>Node12&#45;&gt;Node6</title>
<path fill="none" stroke="#404040" d="M470.585,-892.967C488.553,-795.601 534.875,-546.907 540.5,-540 563.765,-511.433 761.872,-434.687 888.284,-387.785"/>
<polygon fill="none" stroke="#404040" points="888.653,-387.648 892.89,-381.814 899.906,-383.482 895.668,-389.316 888.653,-387.648"/>
<text text-anchor="middle" x="573.5" y="-682" font-family="Helvetica,sans-Serif" font-size="10.00"> #mCellWriters</text>
</g>
<!-- Node12&#45;&gt;Node20 -->
<g id="edge25" class="edge"><title>Node12&#45;&gt;Node20</title>
<path fill="none" stroke="#404040" d="M536.207,-892.87C572.499,-875.541 617.699,-856.82 660.5,-847 740.518,-828.641 956.954,-867.433 1029.5,-829 1030.89,-828.261 1032.28,-827.495 1033.65,-826.704"/>
<polygon fill="none" stroke="#404040" points="1033.78,-826.621 1036.68,-820.019 1043.89,-820.159 1040.99,-826.76 1033.78,-826.621"/>
<text text-anchor="middle" x="693.5" y="-855.5" font-family="Helvetica,sans-Serif" font-size="10.00"> #mCellWriters</text>
</g>
<!-- Node13 -->
<g id="node13" class="node"><title>Node13</title>
<polygon fill="white" stroke="#bfbfbf" points="575.5,-898.5 575.5,-966.5 709.5,-966.5 709.5,-898.5 575.5,-898.5"/>
<text text-anchor="start" x="583.5" y="-954.5" font-family="Helvetica,sans-Serif" font-size="10.00">AbstractMesh&lt; ELEMENT</text>
<text text-anchor="middle" x="642.5" y="-943.5" font-family="Helvetica,sans-Serif" font-size="10.00">_DIM, SPACE_DIM &gt; &amp;</text>
<polyline fill="none" stroke="#bfbfbf" points="575.5,-936.5 709.5,-936.5 "/>
<text text-anchor="middle" x="642.5" y="-924.5" font-family="Helvetica,sans-Serif" font-size="10.00"> </text>
<polyline fill="none" stroke="#bfbfbf" points="575.5,-917.5 709.5,-917.5 "/>
<text text-anchor="middle" x="642.5" y="-905.5" font-family="Helvetica,sans-Serif" font-size="10.00"> </text>
</g>
<!-- Node13&#45;&gt;Node6 -->
<g id="edge13" class="edge"><title>Node13&#45;&gt;Node6</title>
<path fill="none" stroke="#404040" d="M633.156,-898.333C615.057,-826.843 582.802,-655.373 652.5,-540 703.969,-454.803 808.519,-404.677 888.361,-377.414"/>
<polygon fill="none" stroke="#404040" points="888.567,-377.346 892.996,-371.656 899.953,-373.556 895.523,-379.246 888.567,-377.346"/>
<text text-anchor="middle" x="674.5" y="-682" font-family="Helvetica,sans-Serif" font-size="10.00"> #mrMesh</text>
</g>
<!-- Node13&#45;&gt;Node20 -->
<g id="edge26" class="edge"><title>Node13&#45;&gt;Node20</title>
<path fill="none" stroke="#404040" d="M683.583,-898.341C709.048,-879.762 743.327,-858.146 777.5,-847 830.875,-829.591 980.189,-855.841 1029.5,-829 1030.89,-828.245 1032.26,-827.464 1033.62,-826.659"/>
<polygon fill="none" stroke="#404040" points="1033.76,-826.57 1036.6,-819.941 1043.81,-820.014 1040.97,-826.642 1033.76,-826.57"/>
<text text-anchor="middle" x="799.5" y="-855.5" font-family="Helvetica,sans-Serif" font-size="10.00"> #mrMesh</text>
</g>
<!-- Node14 -->
<g id="node14" class="node"><title>Node14</title>
<polygon fill="white" stroke="#bfbfbf" points="1108.5,-887.5 1108.5,-977.5 1272.5,-977.5 1272.5,-887.5 1108.5,-887.5"/>
<text text-anchor="start" x="1116.5" y="-965.5" font-family="Helvetica,sans-Serif" font-size="10.00">vector&lt; boost::shared</text>
<text text-anchor="start" x="1116.5" y="-954.5" font-family="Helvetica,sans-Serif" font-size="10.00">_ptr&lt; AbstractCellPopulation</text>
<text text-anchor="start" x="1116.5" y="-943.5" font-family="Helvetica,sans-Serif" font-size="10.00">Writer&lt; ELEMENT_DIM, SPACE</text>
<text text-anchor="middle" x="1190.5" y="-932.5" font-family="Helvetica,sans-Serif" font-size="10.00">_DIM &gt; &gt; &gt;</text>
<polyline fill="none" stroke="#bfbfbf" points="1108.5,-925.5 1272.5,-925.5 "/>
<text text-anchor="middle" x="1190.5" y="-913.5" font-family="Helvetica,sans-Serif" font-size="10.00"> </text>
<polyline fill="none" stroke="#bfbfbf" points="1108.5,-906.5 1272.5,-906.5 "/>
<text text-anchor="middle" x="1190.5" y="-894.5" font-family="Helvetica,sans-Serif" font-size="10.00"> </text>
</g>
<!-- Node14&#45;&gt;Node6 -->
<g id="edge14" class="edge"><title>Node14&#45;&gt;Node6</title>
<path fill="none" stroke="#404040" d="M1242.91,-887.158C1247.16,-881.481 1250.83,-875.4 1253.5,-869 1257.5,-859.392 1293.02,-643.118 1239.5,-540 1208.65,-480.556 1149.98,-434.008 1097.67,-401.807"/>
<polygon fill="none" stroke="#404040" points="1097.59,-401.753 1090.38,-402.082 1087.31,-395.558 1094.51,-395.23 1097.59,-401.753"/>
<text text-anchor="middle" x="1325.5" y="-682" font-family="Helvetica,sans-Serif" font-size="10.00"> #mCellPopulationWriters</text>
</g>
<!-- Node14&#45;&gt;Node20 -->
<g id="edge27" class="edge"><title>Node14&#45;&gt;Node20</title>
<path fill="none" stroke="#404040" d="M1150.66,-887.471C1146.97,-881.578 1143.77,-875.362 1141.5,-869 1138.26,-859.934 1135.73,-850.452 1133.78,-840.778"/>
<polygon fill="none" stroke="#404040" points="1133.77,-840.717 1128.79,-835.5 1131.69,-828.898 1136.67,-834.115 1133.77,-840.717"/>
<text text-anchor="middle" x="1197.5" y="-855.5" font-family="Helvetica,sans-Serif" font-size="10.00"> #mCellPopulationWriters</text>
</g>
<!-- Node15 -->
<g id="node15" class="node"><title>Node15</title>
<polygon fill="white" stroke="#bfbfbf" points="1312,-898.5 1312,-966.5 1415,-966.5 1415,-898.5 1312,-898.5"/>
<text text-anchor="start" x="1320" y="-954.5" font-family="Helvetica,sans-Serif" font-size="10.00">map&lt; unsigned, std</text>
<text text-anchor="middle" x="1363.5" y="-943.5" font-family="Helvetica,sans-Serif" font-size="10.00">::set&lt; CellPtr &gt; &gt;</text>
<polyline fill="none" stroke="#bfbfbf" points="1312,-936.5 1415,-936.5 "/>
<text text-anchor="middle" x="1363.5" y="-924.5" font-family="Helvetica,sans-Serif" font-size="10.00"> </text>
<polyline fill="none" stroke="#bfbfbf" points="1312,-917.5 1415,-917.5 "/>
<text text-anchor="middle" x="1363.5" y="-905.5" font-family="Helvetica,sans-Serif" font-size="10.00"> </text>
</g>
<!-- Node15&#45;&gt;Node6 -->
<g id="edge15" class="edge"><title>Node15&#45;&gt;Node6</title>
<path fill="none" stroke="#404040" d="M1377.18,-898.456C1404.48,-826.838 1457.19,-654.546 1385.5,-540 1323.23,-440.509 1192.5,-391.645 1099.14,-368.583"/>
<polygon fill="none" stroke="#404040" points="1099.04,-368.56 1092.28,-371.052 1087.37,-365.764 1094.14,-363.272 1099.04,-368.56"/>
<text text-anchor="middle" x="1467.5" y="-682" font-family="Helvetica,sans-Serif" font-size="10.00"> #mLocationCellMap</text>
</g>
<!-- Node15&#45;&gt;Node20 -->
<g id="edge28" class="edge"><title>Node15&#45;&gt;Node20</title>
<path fill="none" stroke="#404040" d="M1321.15,-898.396C1297.76,-879.23 1268.82,-854.008 1245.5,-829 1243.41,-826.755 1241.32,-824.47 1239.23,-822.153"/>
<polygon fill="none" stroke="#404040" points="1239.14,-822.059 1232.18,-820.207 1231.2,-813.062 1238.17,-814.913 1239.14,-822.059"/>
<text text-anchor="middle" x="1331.5" y="-855.5" font-family="Helvetica,sans-Serif" font-size="10.00"> #mLocationCellMap</text>
</g>
<!-- Node16 -->
<g id="node16" class="node"><title>Node16</title>
<g id="a_node16"><a xlink:href="classbool.html" target="_top" xlink:title="{bool\n||}">
<polygon fill="white" stroke="black" points="1605,-904 1605,-961 1640,-961 1640,-904 1605,-904"/>
<text text-anchor="middle" x="1622.5" y="-949" font-family="Helvetica,sans-Serif" font-size="10.00">bool</text>
<polyline fill="none" stroke="black" points="1605,-942 1640,-942 "/>
<text text-anchor="middle" x="1622.5" y="-930" font-family="Helvetica,sans-Serif" font-size="10.00"> </text>
<polyline fill="none" stroke="black" points="1605,-923 1640,-923 "/>
<text text-anchor="middle" x="1622.5" y="-911" font-family="Helvetica,sans-Serif" font-size="10.00"> </text>
</a>
</g>
</g>
<!-- Node16&#45;&gt;Node6 -->
<g id="edge16" class="edge"><title>Node16&#45;&gt;Node6</title>
<path fill="none" stroke="#404040" d="M1636.71,-903.986C1640.85,-897.809 1645.81,-891.7 1651.5,-887 1667.78,-873.538 1683.72,-886.542 1695.5,-869 1700.95,-860.882 1700.25,-855.545 1695.5,-847 1688.13,-833.743 1674.96,-841.591 1666.5,-829 1593.84,-720.865 1703.52,-637.838 1617.5,-540 1548.98,-462.069 1258.89,-398.106 1099.5,-368.038"/>
<polygon fill="none" stroke="#404040" points="1099.11,-367.965 1092.47,-370.793 1087.31,-365.757 1093.94,-362.929 1099.11,-367.965"/>
<text text-anchor="start" x="1666.5" y="-687.5" font-family="Helvetica,sans-Serif" font-size="10.00"> #mOutputResultsForChaste</text>
<text text-anchor="middle" x="1729.5" y="-676.5" font-family="Helvetica,sans-Serif" font-size="10.00">Visualizer</text>
</g>
<!-- Node16&#45;&gt;Node20 -->
<g id="edge29" class="edge"><title>Node16&#45;&gt;Node20</title>
<path fill="none" stroke="#404040" d="M1605.92,-903.703C1601.45,-897.677 1596.24,-891.707 1590.5,-887 1557.28,-859.753 1544.14,-857.557 1502.5,-847 1447,-832.932 1295.8,-856.336 1245.5,-829 1244.11,-828.246 1242.74,-827.466 1241.38,-826.661"/>
<polygon fill="none" stroke="#404040" points="1241.24,-826.573 1234.03,-826.649 1231.19,-820.023 1238.4,-819.946 1241.24,-826.573"/>
<text text-anchor="start" x="1565.5" y="-861" font-family="Helvetica,sans-Serif" font-size="10.00"> #mOutputResultsForChaste</text>
<text text-anchor="middle" x="1628.5" y="-850" font-family="Helvetica,sans-Serif" font-size="10.00">Visualizer</text>
</g>
<!-- Node17 -->
<g id="node17" class="node"><title>Node17</title>
<polygon fill="white" stroke="#bfbfbf" points="823,-898.5 823,-966.5 948,-966.5 948,-898.5 823,-898.5"/>
<text text-anchor="start" x="831" y="-954.5" font-family="Helvetica,sans-Serif" font-size="10.00">shared_ptr&lt; CellProperty</text>
<text text-anchor="middle" x="885.5" y="-943.5" font-family="Helvetica,sans-Serif" font-size="10.00">Registry &gt;</text>
<polyline fill="none" stroke="#bfbfbf" points="823,-936.5 948,-936.5 "/>
<text text-anchor="middle" x="885.5" y="-924.5" font-family="Helvetica,sans-Serif" font-size="10.00"> </text>
<polyline fill="none" stroke="#bfbfbf" points="823,-917.5 948,-917.5 "/>
<text text-anchor="middle" x="885.5" y="-905.5" font-family="Helvetica,sans-Serif" font-size="10.00"> </text>
</g>
<!-- Node17&#45;&gt;Node6 -->
<g id="edge17" class="edge"><title>Node17&#45;&gt;Node6</title>
<path fill="none" stroke="#404040" d="M850.054,-898.054C833.049,-879.541 814.46,-855.042 805.5,-829 763.713,-707.543 756.739,-658.829 805.5,-540 823.474,-496.198 856.924,-457.085 890.682,-425.867"/>
<polygon fill="none" stroke="#404040" points="890.827,-425.736 892.595,-418.746 899.729,-417.689 897.96,-424.68 890.827,-425.736"/>
<text text-anchor="middle" x="862" y="-682" font-family="Helvetica,sans-Serif" font-size="10.00"> #mpCellPropertyRegistry</text>
</g>
<!-- Node17&#45;&gt;Node20 -->
<g id="edge30" class="edge"><title>Node17&#45;&gt;Node20</title>
<path fill="none" stroke="#404040" d="M890.758,-898.317C895.334,-880.447 903.824,-859.553 919.5,-847 958.169,-816.034 987.11,-854.636 1029.5,-829 1030.89,-828.16 1032.26,-827.296 1033.63,-826.407"/>
<polygon fill="none" stroke="#404040" points="1034.07,-826.096 1036.65,-819.362 1043.86,-819.152 1041.28,-825.887 1034.07,-826.096"/>
<text text-anchor="middle" x="976" y="-855.5" font-family="Helvetica,sans-Serif" font-size="10.00"> #mpCellPropertyRegistry</text>
</g>
<!-- Node18 -->
<g id="node18" class="node"><title>Node18</title>
<polygon fill="white" stroke="#bfbfbf" points="966.5,-904 966.5,-961 1088.5,-961 1088.5,-904 966.5,-904"/>
<text text-anchor="middle" x="1027.5" y="-949" font-family="Helvetica,sans-Serif" font-size="10.00">map&lt; Cell *, unsigned &gt;</text>
<polyline fill="none" stroke="#bfbfbf" points="966.5,-942 1088.5,-942 "/>
<text text-anchor="middle" x="1027.5" y="-930" font-family="Helvetica,sans-Serif" font-size="10.00"> </text>
<polyline fill="none" stroke="#bfbfbf" points="966.5,-923 1088.5,-923 "/>
<text text-anchor="middle" x="1027.5" y="-911" font-family="Helvetica,sans-Serif" font-size="10.00"> </text>
</g>
<!-- Node18&#45;&gt;Node6 -->
<g id="edge18" class="edge"><title>Node18&#45;&gt;Node6</title>
<path fill="none" stroke="#404040" d="M996.316,-903.979C977.336,-885.05 954.818,-858.139 944.5,-829 907.597,-724.787 921.834,-600.431 944.255,-504.478"/>
<polygon fill="none" stroke="#404040" points="944.299,-504.292 941.81,-497.525 947.1,-492.624 949.589,-499.392 944.299,-504.292"/>
<text text-anchor="middle" x="989.5" y="-682" font-family="Helvetica,sans-Serif" font-size="10.00"> #mCellLocationMap</text>
</g>
<!-- Node18&#45;&gt;Node20 -->
<g id="edge31" class="edge"><title>Node18&#45;&gt;Node20</title>
<path fill="none" stroke="#404040" d="M1029.9,-903.831C1031.97,-887.008 1035.74,-865.31 1042.5,-847 1043.38,-844.616 1044.3,-842.227 1045.24,-839.836"/>
<polygon fill="none" stroke="#404040" points="1045.29,-839.718 1043.9,-832.643 1049.89,-828.637 1051.29,-835.712 1045.29,-839.718"/>
<text text-anchor="middle" x="1087.5" y="-855.5" font-family="Helvetica,sans-Serif" font-size="10.00"> #mCellLocationMap</text>
</g>
<!-- Node19 -->
<g id="node19" class="node"><title>Node19</title>
<polygon fill="white" stroke="#bfbfbf" points="1443.5,-904 1443.5,-961 1581.5,-961 1581.5,-904 1443.5,-904"/>
<text text-anchor="middle" x="1512.5" y="-949" font-family="Helvetica,sans-Serif" font-size="10.00">shared_ptr&lt; std::ofstream &gt;</text>
<polyline fill="none" stroke="#bfbfbf" points="1443.5,-942 1581.5,-942 "/>
<text text-anchor="middle" x="1512.5" y="-930" font-family="Helvetica,sans-Serif" font-size="10.00"> </text>
<polyline fill="none" stroke="#bfbfbf" points="1443.5,-923 1581.5,-923 "/>
<text text-anchor="middle" x="1512.5" y="-911" font-family="Helvetica,sans-Serif" font-size="10.00"> </text>
</g>
<!-- Node19&#45;&gt;Node6 -->
<g id="edge19" class="edge"><title>Node19&#45;&gt;Node6</title>
<path fill="none" stroke="#404040" d="M1516.81,-903.784C1528.52,-824.457 1557.43,-598.469 1516.5,-540 1422.31,-405.447 1222.65,-365.589 1099.09,-353.995"/>
<polygon fill="none" stroke="#404040" points="1098.96,-353.984 1092.63,-357.44 1087.01,-352.928 1093.34,-349.471 1098.96,-353.984"/>
<text text-anchor="middle" x="1576" y="-682" font-family="Helvetica,sans-Serif" font-size="10.00"> #mpVtkMetaFile</text>
</g>
<!-- Node19&#45;&gt;Node20 -->
<g id="edge32" class="edge"><title>Node19&#45;&gt;Node20</title>
<path fill="none" stroke="#404040" d="M1478.6,-903.854C1453.17,-884.658 1416.65,-860.238 1380.5,-847 1323.66,-826.188 1297.75,-859.553 1245.5,-829 1244.1,-828.181 1242.71,-827.336 1241.34,-826.467"/>
<polygon fill="none" stroke="#404040" points="1240.9,-826.167 1233.69,-826.045 1231.03,-819.342 1238.24,-819.465 1240.9,-826.167"/>
<text text-anchor="middle" x="1461" y="-855.5" font-family="Helvetica,sans-Serif" font-size="10.00"> #mpVtkMetaFile</text>
</g>
<!-- Node20&#45;&gt;Node6 -->
<g id="edge20" class="edge"><title>Node20&#45;&gt;Node6</title>
<path fill="none" stroke="orange" d="M1071.79,-531.086C1066.26,-518.26 1060.68,-505.319 1055.18,-492.568"/>
<polygon fill="orange" stroke="orange" points="1068.63,-532.603 1075.8,-540.4 1075.06,-529.832 1068.63,-532.603"/>
<text text-anchor="middle" x="1098" y="-514" font-family="Helvetica,sans-Serif" font-size="10.00"> &lt; DIM, DIM &gt;</text>
</g>
</g>
</svg>
