<?xml version="1.0" encoding="UTF-8" standalone="no"?>
<!DOCTYPE svg PUBLIC "-//W3C//DTD SVG 1.1//EN"
 "http://www.w3.org/Graphics/SVG/1.1/DTD/svg11.dtd">
<!-- Generated by graphviz version 2.38.0 (20140413.2041)
 -->
<!-- Title: AbstractOneStepIvpOdeSolver Pages: 1 -->
<svg width="1217pt" height="827pt"
 viewBox="0.00 0.00 1216.50 827.00" xmlns="http://www.w3.org/2000/svg" xmlns:xlink="http://www.w3.org/1999/xlink">
<g id="graph0" class="graph" transform="scale(1 1) rotate(0) translate(4 823)">
<title>AbstractOneStepIvpOdeSolver</title>
<polygon fill="white" stroke="none" points="-4,4 -4,-823 1212.5,-823 1212.5,4 -4,4"/>
<!-- Node1 -->
<g id="node1" class="node"><title>Node1</title>
<polygon fill="#bfbfbf" stroke="black" points="527,-408.5 527,-520.5 699,-520.5 699,-408.5 527,-408.5"/>
<text text-anchor="middle" x="613" y="-508.5" font-family="Helvetica,sans-Serif" font-size="10.00">AbstractOneStepIvpOdeSolver</text>
<polyline fill="none" stroke="black" points="527,-501.5 699,-501.5 "/>
<text text-anchor="start" x="535" y="-489.5" font-family="Helvetica,sans-Serif" font-size="10.00">&#45; mWorkingMemory</text>
<polyline fill="none" stroke="black" points="527,-482.5 699,-482.5 "/>
<text text-anchor="start" x="535" y="-470.5" font-family="Helvetica,sans-Serif" font-size="10.00">+ Solve()</text>
<text text-anchor="start" x="535" y="-459.5" font-family="Helvetica,sans-Serif" font-size="10.00">+ Solve()</text>
<text text-anchor="start" x="535" y="-448.5" font-family="Helvetica,sans-Serif" font-size="10.00">+ ~AbstractOneStepIvpOdeSolver()</text>
<text text-anchor="start" x="535" y="-437.5" font-family="Helvetica,sans-Serif" font-size="10.00"># InternalSolve()</text>
<text text-anchor="start" x="535" y="-426.5" font-family="Helvetica,sans-Serif" font-size="10.00"># CalculateNextYValue()</text>
<text text-anchor="start" x="535" y="-415.5" font-family="Helvetica,sans-Serif" font-size="10.00">&#45; serialize()</text>
</g>
<!-- Node4 -->
<g id="node4" class="node"><title>Node4</title>
<g id="a_node4"><a xlink:href="classBackwardEulerIvpOdeSolver.html" target="_top" xlink:title="{BackwardEulerIvpOdeSolver\n|&#45; mSizeOfOdeSystem\l&#45; mNumericalJacobianEpsilon\l&#45; mForceUseOfNumericalJacobian\l&#45; mResidual\l&#45; mJacobian\l&#45; mUpdate\l|+ BackwardEulerIvpOdeSolver()\l+ ~BackwardEulerIvpOdeSolver()\l+ SetEpsilonForNumericalJacobian()\l+ ForceUseOfNumericalJacobian()\l+ GetSystemSize()\l# CalculateNextYValue()\l&#45; serialize()\l&#45; ComputeResidual()\l&#45; ComputeJacobian()\l&#45; SolveLinearSystem()\l&#45; ComputeNorm()\l&#45; ComputeNumericalJacobian()\l}">
<polygon fill="white" stroke="black" points="0,-138.5 0,-371.5 176,-371.5 176,-138.5 0,-138.5"/>
<text text-anchor="middle" x="88" y="-359.5" font-family="Helvetica,sans-Serif" font-size="10.00">BackwardEulerIvpOdeSolver</text>
<polyline fill="none" stroke="black" points="0,-352.5 176,-352.5 "/>
<text text-anchor="start" x="8" y="-340.5" font-family="Helvetica,sans-Serif" font-size="10.00">&#45; mSizeOfOdeSystem</text>
<text text-anchor="start" x="8" y="-329.5" font-family="Helvetica,sans-Serif" font-size="10.00">&#45; mNumericalJacobianEpsilon</text>
<text text-anchor="start" x="8" y="-318.5" font-family="Helvetica,sans-Serif" font-size="10.00">&#45; mForceUseOfNumericalJacobian</text>
<text text-anchor="start" x="8" y="-307.5" font-family="Helvetica,sans-Serif" font-size="10.00">&#45; mResidual</text>
<text text-anchor="start" x="8" y="-296.5" font-family="Helvetica,sans-Serif" font-size="10.00">&#45; mJacobian</text>
<text text-anchor="start" x="8" y="-285.5" font-family="Helvetica,sans-Serif" font-size="10.00">&#45; mUpdate</text>
<polyline fill="none" stroke="black" points="0,-278.5 176,-278.5 "/>
<text text-anchor="start" x="8" y="-266.5" font-family="Helvetica,sans-Serif" font-size="10.00">+ BackwardEulerIvpOdeSolver()</text>
<text text-anchor="start" x="8" y="-255.5" font-family="Helvetica,sans-Serif" font-size="10.00">+ ~BackwardEulerIvpOdeSolver()</text>
<text text-anchor="start" x="8" y="-244.5" font-family="Helvetica,sans-Serif" font-size="10.00">+ SetEpsilonForNumericalJacobian()</text>
<text text-anchor="start" x="8" y="-233.5" font-family="Helvetica,sans-Serif" font-size="10.00">+ ForceUseOfNumericalJacobian()</text>
<text text-anchor="start" x="8" y="-222.5" font-family="Helvetica,sans-Serif" font-size="10.00">+ GetSystemSize()</text>
<text text-anchor="start" x="8" y="-211.5" font-family="Helvetica,sans-Serif" font-size="10.00"># CalculateNextYValue()</text>
<text text-anchor="start" x="8" y="-200.5" font-family="Helvetica,sans-Serif" font-size="10.00">&#45; serialize()</text>
<text text-anchor="start" x="8" y="-189.5" font-family="Helvetica,sans-Serif" font-size="10.00">&#45; ComputeResidual()</text>
<text text-anchor="start" x="8" y="-178.5" font-family="Helvetica,sans-Serif" font-size="10.00">&#45; ComputeJacobian()</text>
<text text-anchor="start" x="8" y="-167.5" font-family="Helvetica,sans-Serif" font-size="10.00">&#45; SolveLinearSystem()</text>
<text text-anchor="start" x="8" y="-156.5" font-family="Helvetica,sans-Serif" font-size="10.00">&#45; ComputeNorm()</text>
<text text-anchor="start" x="8" y="-145.5" font-family="Helvetica,sans-Serif" font-size="10.00">&#45; ComputeNumericalJacobian()</text>
</a>
</g>
</g>
<!-- Node1&#45;&gt;Node4 -->
<g id="edge3" class="edge"><title>Node1&#45;&gt;Node4</title>
<path fill="none" stroke="midnightblue" d="M516.64,-460.875C425.058,-454.43 286.482,-434.101 184,-372 181.317,-370.374 178.675,-368.646 176.075,-366.829"/>
<polygon fill="none" stroke="midnightblue" points="516.528,-464.375 526.737,-461.543 516.99,-457.39 516.528,-464.375"/>
</g>
<!-- Node5 -->
<g id="node5" class="node"><title>Node5</title>
<g id="a_node5"><a xlink:href="classEulerIvpOdeSolver.html" target="_top" xlink:title="{EulerIvpOdeSolver\n||+ EulerIvpOdeSolver()\l+ ~EulerIvpOdeSolver()\l# CalculateNextYValue()\l&#45; serialize()\l}">
<polygon fill="white" stroke="black" points="193.5,-210 193.5,-300 318.5,-300 318.5,-210 193.5,-210"/>
<text text-anchor="middle" x="256" y="-288" font-family="Helvetica,sans-Serif" font-size="10.00">EulerIvpOdeSolver</text>
<polyline fill="none" stroke="black" points="193.5,-281 318.5,-281 "/>
<text text-anchor="middle" x="256" y="-269" font-family="Helvetica,sans-Serif" font-size="10.00"> </text>
<polyline fill="none" stroke="black" points="193.5,-262 318.5,-262 "/>
<text text-anchor="start" x="201.5" y="-250" font-family="Helvetica,sans-Serif" font-size="10.00">+ EulerIvpOdeSolver()</text>
<text text-anchor="start" x="201.5" y="-239" font-family="Helvetica,sans-Serif" font-size="10.00">+ ~EulerIvpOdeSolver()</text>
<text text-anchor="start" x="201.5" y="-228" font-family="Helvetica,sans-Serif" font-size="10.00"># CalculateNextYValue()</text>
<text text-anchor="start" x="201.5" y="-217" font-family="Helvetica,sans-Serif" font-size="10.00">&#45; serialize()</text>
</a>
</g>
</g>
<!-- Node1&#45;&gt;Node5 -->
<g id="edge4" class="edge"><title>Node1&#45;&gt;Node5</title>
<path fill="none" stroke="midnightblue" d="M516.901,-450.237C457.238,-438.036 381.767,-414.998 327,-372 303.228,-353.336 285.478,-324.336 273.671,-300.002"/>
<polygon fill="none" stroke="midnightblue" points="516.223,-453.671 526.712,-452.176 517.58,-446.804 516.223,-453.671"/>
</g>
<!-- Node7 -->
<g id="node7" class="node"><title>Node7</title>
<g id="a_node7"><a xlink:href="classGRL1IvpOdeSolver.html" target="_top" xlink:title="{GRL1IvpOdeSolver\n|&#45; mEvalF\l&#45; mPartialF\l&#45; mTemp\l|+ GRL1IvpOdeSolver()\l# CalculateNextYValue()\l&#45; serialize()\l}">
<polygon fill="white" stroke="black" points="336.5,-204.5 336.5,-305.5 461.5,-305.5 461.5,-204.5 336.5,-204.5"/>
<text text-anchor="middle" x="399" y="-293.5" font-family="Helvetica,sans-Serif" font-size="10.00">GRL1IvpOdeSolver</text>
<polyline fill="none" stroke="black" points="336.5,-286.5 461.5,-286.5 "/>
<text text-anchor="start" x="344.5" y="-274.5" font-family="Helvetica,sans-Serif" font-size="10.00">&#45; mEvalF</text>
<text text-anchor="start" x="344.5" y="-263.5" font-family="Helvetica,sans-Serif" font-size="10.00">&#45; mPartialF</text>
<text text-anchor="start" x="344.5" y="-252.5" font-family="Helvetica,sans-Serif" font-size="10.00">&#45; mTemp</text>
<polyline fill="none" stroke="black" points="336.5,-245.5 461.5,-245.5 "/>
<text text-anchor="start" x="344.5" y="-233.5" font-family="Helvetica,sans-Serif" font-size="10.00">+ GRL1IvpOdeSolver()</text>
<text text-anchor="start" x="344.5" y="-222.5" font-family="Helvetica,sans-Serif" font-size="10.00"># CalculateNextYValue()</text>
<text text-anchor="start" x="344.5" y="-211.5" font-family="Helvetica,sans-Serif" font-size="10.00">&#45; serialize()</text>
</a>
</g>
</g>
<!-- Node1&#45;&gt;Node7 -->
<g id="edge6" class="edge"><title>Node1&#45;&gt;Node7</title>
<path fill="none" stroke="midnightblue" d="M518.488,-411.698C501.275,-399.934 484.273,-386.561 470,-372 451.157,-352.777 435.017,-327.672 422.909,-305.735"/>
<polygon fill="none" stroke="midnightblue" points="516.684,-414.702 526.944,-417.342 520.57,-408.879 516.684,-414.702"/>
</g>
<!-- Node8 -->
<g id="node8" class="node"><title>Node8</title>
<g id="a_node8"><a xlink:href="classGRL2IvpOdeSolver.html" target="_top" xlink:title="{GRL2IvpOdeSolver\n|&#45; mEvalF\l&#45; mPartialF\l&#45; mTemp\l&#45; mYinit\l|+ GRL2IvpOdeSolver()\l# CalculateNextYValue()\l&#45; serialize()\l}">
<polygon fill="white" stroke="black" points="479.5,-199 479.5,-311 604.5,-311 604.5,-199 479.5,-199"/>
<text text-anchor="middle" x="542" y="-299" font-family="Helvetica,sans-Serif" font-size="10.00">GRL2IvpOdeSolver</text>
<polyline fill="none" stroke="black" points="479.5,-292 604.5,-292 "/>
<text text-anchor="start" x="487.5" y="-280" font-family="Helvetica,sans-Serif" font-size="10.00">&#45; mEvalF</text>
<text text-anchor="start" x="487.5" y="-269" font-family="Helvetica,sans-Serif" font-size="10.00">&#45; mPartialF</text>
<text text-anchor="start" x="487.5" y="-258" font-family="Helvetica,sans-Serif" font-size="10.00">&#45; mTemp</text>
<text text-anchor="start" x="487.5" y="-247" font-family="Helvetica,sans-Serif" font-size="10.00">&#45; mYinit</text>
<polyline fill="none" stroke="black" points="479.5,-240 604.5,-240 "/>
<text text-anchor="start" x="487.5" y="-228" font-family="Helvetica,sans-Serif" font-size="10.00">+ GRL2IvpOdeSolver()</text>
<text text-anchor="start" x="487.5" y="-217" font-family="Helvetica,sans-Serif" font-size="10.00"># CalculateNextYValue()</text>
<text text-anchor="start" x="487.5" y="-206" font-family="Helvetica,sans-Serif" font-size="10.00">&#45; serialize()</text>
</a>
</g>
</g>
<!-- Node1&#45;&gt;Node8 -->
<g id="edge7" class="edge"><title>Node1&#45;&gt;Node8</title>
<path fill="none" stroke="midnightblue" d="M590.835,-398.723C581.242,-370.686 570.128,-338.205 560.928,-311.319"/>
<polygon fill="none" stroke="midnightblue" points="587.611,-400.11 594.16,-408.439 594.234,-397.844 587.611,-400.11"/>
</g>
<!-- Node9 -->
<g id="node9" class="node"><title>Node9</title>
<g id="a_node9"><a xlink:href="classHeunIvpOdeSolver.html" target="_top" xlink:title="{HeunIvpOdeSolver\n||+ HeunIvpOdeSolver()\l# CalculateNextYValue()\l&#45; serialize()\l}">
<polygon fill="white" stroke="black" points="622.5,-215.5 622.5,-294.5 747.5,-294.5 747.5,-215.5 622.5,-215.5"/>
<text text-anchor="middle" x="685" y="-282.5" font-family="Helvetica,sans-Serif" font-size="10.00">HeunIvpOdeSolver</text>
<polyline fill="none" stroke="black" points="622.5,-275.5 747.5,-275.5 "/>
<text text-anchor="middle" x="685" y="-263.5" font-family="Helvetica,sans-Serif" font-size="10.00"> </text>
<polyline fill="none" stroke="black" points="622.5,-256.5 747.5,-256.5 "/>
<text text-anchor="start" x="630.5" y="-244.5" font-family="Helvetica,sans-Serif" font-size="10.00">+ HeunIvpOdeSolver()</text>
<text text-anchor="start" x="630.5" y="-233.5" font-family="Helvetica,sans-Serif" font-size="10.00"># CalculateNextYValue()</text>
<text text-anchor="start" x="630.5" y="-222.5" font-family="Helvetica,sans-Serif" font-size="10.00">&#45; serialize()</text>
</a>
</g>
</g>
<!-- Node1&#45;&gt;Node9 -->
<g id="edge8" class="edge"><title>Node1&#45;&gt;Node9</title>
<path fill="none" stroke="midnightblue" d="M635.389,-398.976C647.267,-364.743 661.464,-323.83 671.621,-294.557"/>
<polygon fill="none" stroke="midnightblue" points="632.077,-397.844 632.106,-408.439 638.69,-400.139 632.077,-397.844"/>
</g>
<!-- Node10 -->
<g id="node10" class="node"><title>Node10</title>
<g id="a_node10"><a xlink:href="classRKC21IvpOdeSolver.html" target="_top" xlink:title="{RKC21IvpOdeSolver\n||+ RKC21IvpOdeSolver()\l# CalculateNextYValue()\l&#45; serialize()\l}">
<polygon fill="white" stroke="black" points="765.5,-215.5 765.5,-294.5 890.5,-294.5 890.5,-215.5 765.5,-215.5"/>
<text text-anchor="middle" x="828" y="-282.5" font-family="Helvetica,sans-Serif" font-size="10.00">RKC21IvpOdeSolver</text>
<polyline fill="none" stroke="black" points="765.5,-275.5 890.5,-275.5 "/>
<text text-anchor="middle" x="828" y="-263.5" font-family="Helvetica,sans-Serif" font-size="10.00"> </text>
<polyline fill="none" stroke="black" points="765.5,-256.5 890.5,-256.5 "/>
<text text-anchor="start" x="773.5" y="-244.5" font-family="Helvetica,sans-Serif" font-size="10.00">+ RKC21IvpOdeSolver()</text>
<text text-anchor="start" x="773.5" y="-233.5" font-family="Helvetica,sans-Serif" font-size="10.00"># CalculateNextYValue()</text>
<text text-anchor="start" x="773.5" y="-222.5" font-family="Helvetica,sans-Serif" font-size="10.00">&#45; serialize()</text>
</a>
</g>
</g>
<!-- Node1&#45;&gt;Node10 -->
<g id="edge9" class="edge"><title>Node1&#45;&gt;Node10</title>
<path fill="none" stroke="midnightblue" d="M707.76,-411.407C724.87,-399.703 741.77,-386.426 756,-372 778.304,-349.387 796.986,-318.665 809.726,-294.518"/>
<polygon fill="none" stroke="midnightblue" points="705.724,-408.559 699.355,-417.025 709.614,-414.378 705.724,-408.559"/>
</g>
<!-- Node11 -->
<g id="node11" class="node"><title>Node11</title>
<g id="a_node11"><a xlink:href="classRungeKutta2IvpOdeSolver.html" target="_top" xlink:title="{RungeKutta2IvpOdeSolver\n||+ RungeKutta2IvpOdeSolver()\l# CalculateNextYValue()\l&#45; serialize()\l}">
<polygon fill="white" stroke="black" points="909,-215.5 909,-294.5 1057,-294.5 1057,-215.5 909,-215.5"/>
<text text-anchor="middle" x="983" y="-282.5" font-family="Helvetica,sans-Serif" font-size="10.00">RungeKutta2IvpOdeSolver</text>
<polyline fill="none" stroke="black" points="909,-275.5 1057,-275.5 "/>
<text text-anchor="middle" x="983" y="-263.5" font-family="Helvetica,sans-Serif" font-size="10.00"> </text>
<polyline fill="none" stroke="black" points="909,-256.5 1057,-256.5 "/>
<text text-anchor="start" x="917" y="-244.5" font-family="Helvetica,sans-Serif" font-size="10.00">+ RungeKutta2IvpOdeSolver()</text>
<text text-anchor="start" x="917" y="-233.5" font-family="Helvetica,sans-Serif" font-size="10.00"># CalculateNextYValue()</text>
<text text-anchor="start" x="917" y="-222.5" font-family="Helvetica,sans-Serif" font-size="10.00">&#45; serialize()</text>
</a>
</g>
</g>
<!-- Node1&#45;&gt;Node11 -->
<g id="edge10" class="edge"><title>Node1&#45;&gt;Node11</title>
<path fill="none" stroke="midnightblue" d="M709.395,-448.724C768.703,-435.966 843.841,-412.876 900,-372 927.529,-351.963 949.43,-319.985 963.808,-294.675"/>
<polygon fill="none" stroke="midnightblue" points="708.343,-445.368 699.268,-450.836 709.772,-452.221 708.343,-445.368"/>
</g>
<!-- Node12 -->
<g id="node12" class="node"><title>Node12</title>
<g id="a_node12"><a xlink:href="classRungeKutta4IvpOdeSolver.html" target="_top" xlink:title="{RungeKutta4IvpOdeSolver\n|&#45; k1\l&#45; k2\l&#45; k3\l&#45; k4\l&#45; yki\l|# CalculateNextYValue()\l&#45; serialize()\l}">
<polygon fill="white" stroke="black" points="1075.5,-199 1075.5,-311 1208.5,-311 1208.5,-199 1075.5,-199"/>
<text text-anchor="middle" x="1142" y="-299" font-family="Helvetica,sans-Serif" font-size="10.00">RungeKutta4IvpOdeSolver</text>
<polyline fill="none" stroke="black" points="1075.5,-292 1208.5,-292 "/>
<text text-anchor="start" x="1083.5" y="-280" font-family="Helvetica,sans-Serif" font-size="10.00">&#45; k1</text>
<text text-anchor="start" x="1083.5" y="-269" font-family="Helvetica,sans-Serif" font-size="10.00">&#45; k2</text>
<text text-anchor="start" x="1083.5" y="-258" font-family="Helvetica,sans-Serif" font-size="10.00">&#45; k3</text>
<text text-anchor="start" x="1083.5" y="-247" font-family="Helvetica,sans-Serif" font-size="10.00">&#45; k4</text>
<text text-anchor="start" x="1083.5" y="-236" font-family="Helvetica,sans-Serif" font-size="10.00">&#45; yki</text>
<polyline fill="none" stroke="black" points="1075.5,-229 1208.5,-229 "/>
<text text-anchor="start" x="1083.5" y="-217" font-family="Helvetica,sans-Serif" font-size="10.00"># CalculateNextYValue()</text>
<text text-anchor="start" x="1083.5" y="-206" font-family="Helvetica,sans-Serif" font-size="10.00">&#45; serialize()</text>
</a>
</g>
</g>
<!-- Node1&#45;&gt;Node12 -->
<g id="edge11" class="edge"><title>Node1&#45;&gt;Node12</title>
<path fill="none" stroke="midnightblue" d="M709.716,-452.797C824.929,-438.548 1009,-410.582 1066,-372 1088.13,-357.019 1105.36,-333.221 1117.77,-311.069"/>
<polygon fill="none" stroke="midnightblue" points="708.979,-449.361 699.478,-454.05 709.829,-456.31 708.979,-449.361"/>
</g>
<!-- Node2 -->
<g id="node2" class="node"><title>Node2</title>
<g id="a_node2"><a xlink:href="classAbstractIvpOdeSolver.html" target="_top" xlink:title="{AbstractIvpOdeSolver\n|# mStoppingEventOccurred\l# mStoppingTime\l|+ Solve()\l+ Solve()\l+ SolveAndUpdateStateVariable()\l+ StoppingEventOccurred()\l+ GetStoppingTime()\l+ AbstractIvpOdeSolver()\l+ ~AbstractIvpOdeSolver()\l&#45; serialize()\l}">
<polygon fill="white" stroke="black" points="531,-557.5 531,-702.5 695,-702.5 695,-557.5 531,-557.5"/>
<text text-anchor="middle" x="613" y="-690.5" font-family="Helvetica,sans-Serif" font-size="10.00">AbstractIvpOdeSolver</text>
<polyline fill="none" stroke="black" points="531,-683.5 695,-683.5 "/>
<text text-anchor="start" x="539" y="-671.5" font-family="Helvetica,sans-Serif" font-size="10.00"># mStoppingEventOccurred</text>
<text text-anchor="start" x="539" y="-660.5" font-family="Helvetica,sans-Serif" font-size="10.00"># mStoppingTime</text>
<polyline fill="none" stroke="black" points="531,-653.5 695,-653.5 "/>
<text text-anchor="start" x="539" y="-641.5" font-family="Helvetica,sans-Serif" font-size="10.00">+ Solve()</text>
<text text-anchor="start" x="539" y="-630.5" font-family="Helvetica,sans-Serif" font-size="10.00">+ Solve()</text>
<text text-anchor="start" x="539" y="-619.5" font-family="Helvetica,sans-Serif" font-size="10.00">+ SolveAndUpdateStateVariable()</text>
<text text-anchor="start" x="539" y="-608.5" font-family="Helvetica,sans-Serif" font-size="10.00">+ StoppingEventOccurred()</text>
<text text-anchor="start" x="539" y="-597.5" font-family="Helvetica,sans-Serif" font-size="10.00">+ GetStoppingTime()</text>
<text text-anchor="start" x="539" y="-586.5" font-family="Helvetica,sans-Serif" font-size="10.00">+ AbstractIvpOdeSolver()</text>
<text text-anchor="start" x="539" y="-575.5" font-family="Helvetica,sans-Serif" font-size="10.00">+ ~AbstractIvpOdeSolver()</text>
<text text-anchor="start" x="539" y="-564.5" font-family="Helvetica,sans-Serif" font-size="10.00">&#45; serialize()</text>
</a>
</g>
</g>
<!-- Node2&#45;&gt;Node1 -->
<g id="edge1" class="edge"><title>Node2&#45;&gt;Node1</title>
<path fill="none" stroke="midnightblue" d="M613,-547.247C613,-538.335 613,-529.422 613,-520.934"/>
<polygon fill="none" stroke="midnightblue" points="609.5,-547.286 613,-557.287 616.5,-547.287 609.5,-547.286"/>
</g>
<!-- Node3 -->
<g id="node3" class="node"><title>Node3</title>
<g id="a_node3"><a xlink:href="classIdentifiable.html" target="_top" xlink:title="{Identifiable\n||+ ~Identifiable()\l+ GetIdentifier()\l&#45; TidyTemplatedExportIdentifier()\l}">
<polygon fill="white" stroke="black" points="533.5,-739.5 533.5,-818.5 692.5,-818.5 692.5,-739.5 533.5,-739.5"/>
<text text-anchor="middle" x="613" y="-806.5" font-family="Helvetica,sans-Serif" font-size="10.00">Identifiable</text>
<polyline fill="none" stroke="black" points="533.5,-799.5 692.5,-799.5 "/>
<text text-anchor="middle" x="613" y="-787.5" font-family="Helvetica,sans-Serif" font-size="10.00"> </text>
<polyline fill="none" stroke="black" points="533.5,-780.5 692.5,-780.5 "/>
<text text-anchor="start" x="541.5" y="-768.5" font-family="Helvetica,sans-Serif" font-size="10.00">+ ~Identifiable()</text>
<text text-anchor="start" x="541.5" y="-757.5" font-family="Helvetica,sans-Serif" font-size="10.00">+ GetIdentifier()</text>
<text text-anchor="start" x="541.5" y="-746.5" font-family="Helvetica,sans-Serif" font-size="10.00">&#45; TidyTemplatedExportIdentifier()</text>
</a>
</g>
</g>
<!-- Node3&#45;&gt;Node2 -->
<g id="edge2" class="edge"><title>Node3&#45;&gt;Node2</title>
<path fill="none" stroke="midnightblue" d="M613,-729.243C613,-720.699 613,-711.651 613,-702.64"/>
<polygon fill="none" stroke="midnightblue" points="609.5,-729.377 613,-739.377 616.5,-729.378 609.5,-729.377"/>
</g>
<!-- Node6 -->
<g id="node6" class="node"><title>Node6</title>
<g id="a_node6"><a xlink:href="classMockEulerIvpOdeSolver.html" target="_top" xlink:title="{MockEulerIvpOdeSolver\n|&#45; mCallCount\l|+ MockEulerIvpOdeSolver()\l+ GetCallCount()\l+ ~MockEulerIvpOdeSolver()\l# InternalSolve()\l&#45; serialize()\l}">
<polygon fill="white" stroke="black" points="184.5,-0.5 184.5,-101.5 327.5,-101.5 327.5,-0.5 184.5,-0.5"/>
<text text-anchor="middle" x="256" y="-89.5" font-family="Helvetica,sans-Serif" font-size="10.00">MockEulerIvpOdeSolver</text>
<polyline fill="none" stroke="black" points="184.5,-82.5 327.5,-82.5 "/>
<text text-anchor="start" x="192.5" y="-70.5" font-family="Helvetica,sans-Serif" font-size="10.00">&#45; mCallCount</text>
<polyline fill="none" stroke="black" points="184.5,-63.5 327.5,-63.5 "/>
<text text-anchor="start" x="192.5" y="-51.5" font-family="Helvetica,sans-Serif" font-size="10.00">+ MockEulerIvpOdeSolver()</text>
<text text-anchor="start" x="192.5" y="-40.5" font-family="Helvetica,sans-Serif" font-size="10.00">+ GetCallCount()</text>
<text text-anchor="start" x="192.5" y="-29.5" font-family="Helvetica,sans-Serif" font-size="10.00">+ ~MockEulerIvpOdeSolver()</text>
<text text-anchor="start" x="192.5" y="-18.5" font-family="Helvetica,sans-Serif" font-size="10.00"># InternalSolve()</text>
<text text-anchor="start" x="192.5" y="-7.5" font-family="Helvetica,sans-Serif" font-size="10.00">&#45; serialize()</text>
</a>
</g>
</g>
<!-- Node5&#45;&gt;Node6 -->
<g id="edge5" class="edge"><title>Node5&#45;&gt;Node6</title>
<path fill="none" stroke="midnightblue" d="M256,-199.616C256,-169.078 256,-131.258 256,-101.545"/>
<polygon fill="none" stroke="midnightblue" points="252.5,-199.67 256,-209.67 259.5,-199.67 252.5,-199.67"/>
</g>
</g>
</svg>
