<?xml version="1.0" encoding="UTF-8" standalone="no"?>
<!DOCTYPE svg PUBLIC "-//W3C//DTD SVG 1.1//EN"
 "http://www.w3.org/Graphics/SVG/1.1/DTD/svg11.dtd">
<!-- Generated by graphviz version 2.38.0 (20140413.2041)
 -->
<!-- Title: boost::random::exponential_distribution_v165&lt; RealType &gt; Pages: 1 -->
<svg width="168pt" height="369pt"
 viewBox="0.00 0.00 168.00 369.00" xmlns="http://www.w3.org/2000/svg" xmlns:xlink="http://www.w3.org/1999/xlink">
<g id="graph0" class="graph" transform="scale(1 1) rotate(0) translate(4 365)">
<title>boost::random::exponential_distribution_v165&lt; RealType &gt;</title>
<polygon fill="white" stroke="none" points="-4,4 -4,-365 164,-365 164,4 -4,4"/>
<!-- Node1 -->
<g id="node1" class="node"><title>Node1</title>
<polygon fill="#bfbfbf" stroke="black" points="0,-0.5 0,-255.5 160,-255.5 160,-0.5 0,-0.5"/>
<text text-anchor="start" x="8" y="-243.5" font-family="Helvetica,sans-Serif" font-size="10.00">boost::random::exponential</text>
<text text-anchor="middle" x="80" y="-232.5" font-family="Helvetica,sans-Serif" font-size="10.00">_distribution_v165&lt; RealType &gt;</text>
<polyline fill="none" stroke="black" points="0,-225.5 160,-225.5 "/>
<text text-anchor="middle" x="80" y="-213.5" font-family="Helvetica,sans-Serif" font-size="10.00"> </text>
<polyline fill="none" stroke="black" points="0,-206.5 160,-206.5 "/>
<text text-anchor="start" x="8" y="-194.5" font-family="Helvetica,sans-Serif" font-size="10.00">+ exponential_distribution_v165()</text>
<text text-anchor="start" x="8" y="-183.5" font-family="Helvetica,sans-Serif" font-size="10.00">+ exponential_distribution_v165()</text>
<text text-anchor="start" x="8" y="-172.5" font-family="Helvetica,sans-Serif" font-size="10.00">+ lambda()</text>
<text text-anchor="start" x="8" y="-161.5" font-family="Helvetica,sans-Serif" font-size="10.00">+ BOOST_PREVENT_MACRO</text>
<text text-anchor="start" x="8" y="-150.5" font-family="Helvetica,sans-Serif" font-size="10.00">_SUBSTITUTION()</text>
<text text-anchor="start" x="8" y="-139.5" font-family="Helvetica,sans-Serif" font-size="10.00">+ BOOST_PREVENT_MACRO</text>
<text text-anchor="start" x="8" y="-128.5" font-family="Helvetica,sans-Serif" font-size="10.00">_SUBSTITUTION()</text>
<text text-anchor="start" x="8" y="-117.5" font-family="Helvetica,sans-Serif" font-size="10.00">+ param()</text>
<text text-anchor="start" x="8" y="-106.5" font-family="Helvetica,sans-Serif" font-size="10.00">+ param()</text>
<text text-anchor="start" x="8" y="-95.5" font-family="Helvetica,sans-Serif" font-size="10.00">+ reset()</text>
<text text-anchor="start" x="8" y="-84.5" font-family="Helvetica,sans-Serif" font-size="10.00">+ operator()()</text>
<text text-anchor="start" x="8" y="-73.5" font-family="Helvetica,sans-Serif" font-size="10.00">+ operator()()</text>
<text text-anchor="start" x="8" y="-62.5" font-family="Helvetica,sans-Serif" font-size="10.00">+ BOOST_RANDOM_DETAIL</text>
<text text-anchor="start" x="8" y="-51.5" font-family="Helvetica,sans-Serif" font-size="10.00">_OSTREAM_OPERATOR()</text>
<text text-anchor="start" x="8" y="-40.5" font-family="Helvetica,sans-Serif" font-size="10.00">+ BOOST_RANDOM_DETAIL</text>
<text text-anchor="start" x="8" y="-29.5" font-family="Helvetica,sans-Serif" font-size="10.00">_ISTREAM_OPERATOR()</text>
<text text-anchor="start" x="8" y="-18.5" font-family="Helvetica,sans-Serif" font-size="10.00">+ BOOST_RANDOM_DETAIL</text>
<text text-anchor="start" x="8" y="-7.5" font-family="Helvetica,sans-Serif" font-size="10.00">_EQUALITY_OPERATOR()</text>
</g>
<!-- Node2 -->
<g id="node2" class="node"><title>Node2</title>
<polygon fill="white" stroke="#bfbfbf" points="50.5,-303.5 50.5,-360.5 109.5,-360.5 109.5,-303.5 50.5,-303.5"/>
<text text-anchor="middle" x="80" y="-348.5" font-family="Helvetica,sans-Serif" font-size="10.00">RealType</text>
<polyline fill="none" stroke="#bfbfbf" points="50.5,-341.5 109.5,-341.5 "/>
<text text-anchor="middle" x="80" y="-329.5" font-family="Helvetica,sans-Serif" font-size="10.00"> </text>
<polyline fill="none" stroke="#bfbfbf" points="50.5,-322.5 109.5,-322.5 "/>
<text text-anchor="middle" x="80" y="-310.5" font-family="Helvetica,sans-Serif" font-size="10.00"> </text>
</g>
<!-- Node2&#45;&gt;Node1 -->
<g id="edge1" class="edge"><title>Node2&#45;&gt;Node1</title>
<path fill="none" stroke="#404040" d="M80,-303.336C80,-293.326 80,-281.231 80,-268.133"/>
<polygon fill="none" stroke="#404040" points="80.0001,-267.853 76,-261.853 80,-255.853 84,-261.853 80.0001,-267.853"/>
<text text-anchor="middle" x="101.5" y="-277" font-family="Helvetica,sans-Serif" font-size="10.00"> &#45;_lambda</text>
</g>
</g>
</svg>
