<?xml version="1.0" encoding="UTF-8" standalone="no"?>
<!DOCTYPE svg PUBLIC "-//W3C//DTD SVG 1.1//EN"
 "http://www.w3.org/Graphics/SVG/1.1/DTD/svg11.dtd">
<!-- Generated by graphviz version 2.38.0 (20140413.2041)
 -->
<!-- Title: TysonNovak2001OdeSystem Pages: 1 -->
<svg width="454pt" height="1632pt"
 viewBox="0.00 0.00 453.50 1632.00" xmlns="http://www.w3.org/2000/svg" xmlns:xlink="http://www.w3.org/1999/xlink">
<g id="graph0" class="graph" transform="scale(1 1) rotate(0) translate(4 1628)">
<title>TysonNovak2001OdeSystem</title>
<polygon fill="white" stroke="none" points="-4,4 -4,-1628 449.5,-1628 449.5,4 -4,4"/>
<!-- Node1 -->
<g id="node1" class="node"><title>Node1</title>
<polygon fill="#bfbfbf" stroke="black" points="41,-0.5 41,-244.5 207,-244.5 207,-0.5 41,-0.5"/>
<text text-anchor="middle" x="124" y="-232.5" font-family="Helvetica,sans-Serif" font-size="10.00">TysonNovak2001OdeSystem</text>
<polyline fill="none" stroke="black" points="41,-225.5 207,-225.5 "/>
<text text-anchor="start" x="49" y="-213.5" font-family="Helvetica,sans-Serif" font-size="10.00">&#45; mK2d</text>
<text text-anchor="start" x="49" y="-202.5" font-family="Helvetica,sans-Serif" font-size="10.00">&#45; mK2ddd</text>
<text text-anchor="start" x="49" y="-191.5" font-family="Helvetica,sans-Serif" font-size="10.00">&#45; mCycB_threshold</text>
<text text-anchor="start" x="49" y="-180.5" font-family="Helvetica,sans-Serif" font-size="10.00">&#45; mK3d</text>
<text text-anchor="start" x="49" y="-169.5" font-family="Helvetica,sans-Serif" font-size="10.00">&#45; mK4d</text>
<text text-anchor="start" x="49" y="-158.5" font-family="Helvetica,sans-Serif" font-size="10.00">&#45; mK4</text>
<text text-anchor="start" x="49" y="-147.5" font-family="Helvetica,sans-Serif" font-size="10.00">&#45; mJ3</text>
<text text-anchor="start" x="49" y="-136.5" font-family="Helvetica,sans-Serif" font-size="10.00">&#45; mJ4</text>
<text text-anchor="start" x="49" y="-125.5" font-family="Helvetica,sans-Serif" font-size="10.00">&#45; mK5dd</text>
<text text-anchor="start" x="49" y="-114.5" font-family="Helvetica,sans-Serif" font-size="10.00">&#45; mK6</text>
<text text-anchor="start" x="49" y="-103.5" font-family="Helvetica,sans-Serif" font-size="10.00">and 17 more...</text>
<polyline fill="none" stroke="black" points="41,-96.5 207,-96.5 "/>
<text text-anchor="start" x="49" y="-84.5" font-family="Helvetica,sans-Serif" font-size="10.00">+ TysonNovak2001OdeSystem()</text>
<text text-anchor="start" x="49" y="-73.5" font-family="Helvetica,sans-Serif" font-size="10.00">+ ~TysonNovak2001OdeSystem()</text>
<text text-anchor="start" x="49" y="-62.5" font-family="Helvetica,sans-Serif" font-size="10.00">+ Init()</text>
<text text-anchor="start" x="49" y="-51.5" font-family="Helvetica,sans-Serif" font-size="10.00">+ EvaluateYDerivatives()</text>
<text text-anchor="start" x="49" y="-40.5" font-family="Helvetica,sans-Serif" font-size="10.00">+ CalculateStoppingEvent()</text>
<text text-anchor="start" x="49" y="-29.5" font-family="Helvetica,sans-Serif" font-size="10.00">+ CalculateRootFunction()</text>
<text text-anchor="start" x="49" y="-18.5" font-family="Helvetica,sans-Serif" font-size="10.00">+ AnalyticJacobian()</text>
<text text-anchor="start" x="49" y="-7.5" font-family="Helvetica,sans-Serif" font-size="10.00">&#45; serialize()</text>
</g>
<!-- Node2 -->
<g id="node2" class="node"><title>Node2</title>
<g id="a_node2"><a xlink:href="classAbstractOdeSystemWithAnalyticJacobian.html" target="_top" xlink:title="{AbstractOdeSystemWithAnalytic\lJacobian\n||+ AbstractOdeSystemWithAnalytic\lJacobian()\l+ AnalyticJacobian()\l}">
<polygon fill="white" stroke="black" points="39,-402.5 39,-492.5 209,-492.5 209,-402.5 39,-402.5"/>
<text text-anchor="start" x="47" y="-480.5" font-family="Helvetica,sans-Serif" font-size="10.00">AbstractOdeSystemWithAnalytic</text>
<text text-anchor="middle" x="124" y="-469.5" font-family="Helvetica,sans-Serif" font-size="10.00">Jacobian</text>
<polyline fill="none" stroke="black" points="39,-462.5 209,-462.5 "/>
<text text-anchor="middle" x="124" y="-450.5" font-family="Helvetica,sans-Serif" font-size="10.00"> </text>
<polyline fill="none" stroke="black" points="39,-443.5 209,-443.5 "/>
<text text-anchor="start" x="47" y="-431.5" font-family="Helvetica,sans-Serif" font-size="10.00">+ AbstractOdeSystemWithAnalytic</text>
<text text-anchor="start" x="47" y="-420.5" font-family="Helvetica,sans-Serif" font-size="10.00">Jacobian()</text>
<text text-anchor="start" x="47" y="-409.5" font-family="Helvetica,sans-Serif" font-size="10.00">+ AnalyticJacobian()</text>
</a>
</g>
</g>
<!-- Node2&#45;&gt;Node1 -->
<g id="edge1" class="edge"><title>Node2&#45;&gt;Node1</title>
<path fill="none" stroke="midnightblue" d="M124,-392.136C124,-351.882 124,-295.451 124,-244.695"/>
<polygon fill="none" stroke="midnightblue" points="120.5,-392.265 124,-402.265 127.5,-392.266 120.5,-392.265"/>
</g>
<!-- Node3 -->
<g id="node3" class="node"><title>Node3</title>
<g id="a_node3"><a xlink:href="classAbstractOdeSystem.html" target="_top" xlink:title="{AbstractOdeSystem\n||+ AbstractOdeSystem()\l+ ~AbstractOdeSystem()\l+ EvaluateYDerivatives()\l+ CalculateStoppingEvent()\l+ CalculateRootFunction()\l+ GetUseAnalyticJacobian()\l+ rGetConstStateVariables()\l&#45; save()\l&#45; load()\l}">
<polygon fill="white" stroke="black" points="54,-530.5 54,-675.5 194,-675.5 194,-530.5 54,-530.5"/>
<text text-anchor="middle" x="124" y="-663.5" font-family="Helvetica,sans-Serif" font-size="10.00">AbstractOdeSystem</text>
<polyline fill="none" stroke="black" points="54,-656.5 194,-656.5 "/>
<text text-anchor="middle" x="124" y="-644.5" font-family="Helvetica,sans-Serif" font-size="10.00"> </text>
<polyline fill="none" stroke="black" points="54,-637.5 194,-637.5 "/>
<text text-anchor="start" x="62" y="-625.5" font-family="Helvetica,sans-Serif" font-size="10.00">+ AbstractOdeSystem()</text>
<text text-anchor="start" x="62" y="-614.5" font-family="Helvetica,sans-Serif" font-size="10.00">+ ~AbstractOdeSystem()</text>
<text text-anchor="start" x="62" y="-603.5" font-family="Helvetica,sans-Serif" font-size="10.00">+ EvaluateYDerivatives()</text>
<text text-anchor="start" x="62" y="-592.5" font-family="Helvetica,sans-Serif" font-size="10.00">+ CalculateStoppingEvent()</text>
<text text-anchor="start" x="62" y="-581.5" font-family="Helvetica,sans-Serif" font-size="10.00">+ CalculateRootFunction()</text>
<text text-anchor="start" x="62" y="-570.5" font-family="Helvetica,sans-Serif" font-size="10.00">+ GetUseAnalyticJacobian()</text>
<text text-anchor="start" x="62" y="-559.5" font-family="Helvetica,sans-Serif" font-size="10.00">+ rGetConstStateVariables()</text>
<text text-anchor="start" x="62" y="-548.5" font-family="Helvetica,sans-Serif" font-size="10.00">&#45; save()</text>
<text text-anchor="start" x="62" y="-537.5" font-family="Helvetica,sans-Serif" font-size="10.00">&#45; load()</text>
</a>
</g>
</g>
<!-- Node3&#45;&gt;Node2 -->
<g id="edge2" class="edge"><title>Node3&#45;&gt;Node2</title>
<path fill="none" stroke="midnightblue" d="M124,-519.984C124,-510.589 124,-501.3 124,-492.683"/>
<polygon fill="none" stroke="midnightblue" points="120.5,-520.194 124,-530.194 127.5,-520.194 120.5,-520.194"/>
</g>
<!-- Node4 -->
<g id="node4" class="node"><title>Node4</title>
<g id="a_node4"><a xlink:href="classAbstractParameterisedSystem.html" target="_top" xlink:title="{AbstractParameterisedSystem\l\&lt; std::vector\&lt; double \&gt; \&gt;\n||+ AbstractParameterisedSystem()\l+ rGetStateVariables()\l+ GetStateVariables()\l+ SetStateVariables()\l+ GetStateVariable()\l+ GetStateVariable()\l+ SetStateVariable()\l+ SetStateVariable()\l+ VerifyStateVariables()\l+ SetDefaultInitialConditions()\land 13 more...\l# DumpState()\l# DumpState()\l# DumpState()\l# CheckParametersOnLoad()\l&#45; GetStateMessage()\l}">
<polygon fill="white" stroke="black" points="134.5,-723.5 134.5,-956.5 299.5,-956.5 299.5,-723.5 134.5,-723.5"/>
<text text-anchor="start" x="142.5" y="-944.5" font-family="Helvetica,sans-Serif" font-size="10.00">AbstractParameterisedSystem</text>
<text text-anchor="middle" x="217" y="-933.5" font-family="Helvetica,sans-Serif" font-size="10.00">&lt; std::vector&lt; double &gt; &gt;</text>
<polyline fill="none" stroke="black" points="134.5,-926.5 299.5,-926.5 "/>
<text text-anchor="middle" x="217" y="-914.5" font-family="Helvetica,sans-Serif" font-size="10.00"> </text>
<polyline fill="none" stroke="black" points="134.5,-907.5 299.5,-907.5 "/>
<text text-anchor="start" x="142.5" y="-895.5" font-family="Helvetica,sans-Serif" font-size="10.00">+ AbstractParameterisedSystem()</text>
<text text-anchor="start" x="142.5" y="-884.5" font-family="Helvetica,sans-Serif" font-size="10.00">+ rGetStateVariables()</text>
<text text-anchor="start" x="142.5" y="-873.5" font-family="Helvetica,sans-Serif" font-size="10.00">+ GetStateVariables()</text>
<text text-anchor="start" x="142.5" y="-862.5" font-family="Helvetica,sans-Serif" font-size="10.00">+ SetStateVariables()</text>
<text text-anchor="start" x="142.5" y="-851.5" font-family="Helvetica,sans-Serif" font-size="10.00">+ GetStateVariable()</text>
<text text-anchor="start" x="142.5" y="-840.5" font-family="Helvetica,sans-Serif" font-size="10.00">+ GetStateVariable()</text>
<text text-anchor="start" x="142.5" y="-829.5" font-family="Helvetica,sans-Serif" font-size="10.00">+ SetStateVariable()</text>
<text text-anchor="start" x="142.5" y="-818.5" font-family="Helvetica,sans-Serif" font-size="10.00">+ SetStateVariable()</text>
<text text-anchor="start" x="142.5" y="-807.5" font-family="Helvetica,sans-Serif" font-size="10.00">+ VerifyStateVariables()</text>
<text text-anchor="start" x="142.5" y="-796.5" font-family="Helvetica,sans-Serif" font-size="10.00">+ SetDefaultInitialConditions()</text>
<text text-anchor="start" x="142.5" y="-785.5" font-family="Helvetica,sans-Serif" font-size="10.00">and 13 more...</text>
<text text-anchor="start" x="142.5" y="-774.5" font-family="Helvetica,sans-Serif" font-size="10.00"># DumpState()</text>
<text text-anchor="start" x="142.5" y="-763.5" font-family="Helvetica,sans-Serif" font-size="10.00"># DumpState()</text>
<text text-anchor="start" x="142.5" y="-752.5" font-family="Helvetica,sans-Serif" font-size="10.00"># DumpState()</text>
<text text-anchor="start" x="142.5" y="-741.5" font-family="Helvetica,sans-Serif" font-size="10.00"># CheckParametersOnLoad()</text>
<text text-anchor="start" x="142.5" y="-730.5" font-family="Helvetica,sans-Serif" font-size="10.00">&#45; GetStateMessage()</text>
</a>
</g>
</g>
<!-- Node4&#45;&gt;Node3 -->
<g id="edge3" class="edge"><title>Node4&#45;&gt;Node3</title>
<path fill="none" stroke="midnightblue" d="M209.916,-713.45C207.985,-706.764 205.699,-700.238 203,-694 200.276,-687.703 196.941,-681.534 193.199,-675.565"/>
<polygon fill="none" stroke="midnightblue" points="206.586,-714.551 212.498,-723.343 213.36,-712.784 206.586,-714.551"/>
</g>
<!-- Node5 -->
<g id="node5" class="node"><title>Node5</title>
<g id="a_node5"><a xlink:href="classAbstractUntemplatedParameterisedSystem.html" target="_top" xlink:title="{AbstractUntemplatedParameterised\lSystem\n||+ AbstractUntemplatedParameterised\lSystem()\l+ ~AbstractUntemplatedParameterised\lSystem()\l+ GetSystemInformation()\l+ GetSystemName()\l+ GetNumberOfAttributes()\l+ HasAttribute()\l+ GetAttribute()\l+ GetNumberOfStateVariables()\l+ rGetStateVariableNames()\l+ rGetStateVariableUnits()\land 20 more...\l}">
<polygon fill="white" stroke="black" points="87.5,-1307.5 87.5,-1507.5 274.5,-1507.5 274.5,-1307.5 87.5,-1307.5"/>
<text text-anchor="start" x="95.5" y="-1495.5" font-family="Helvetica,sans-Serif" font-size="10.00">AbstractUntemplatedParameterised</text>
<text text-anchor="middle" x="181" y="-1484.5" font-family="Helvetica,sans-Serif" font-size="10.00">System</text>
<polyline fill="none" stroke="black" points="87.5,-1477.5 274.5,-1477.5 "/>
<text text-anchor="middle" x="181" y="-1465.5" font-family="Helvetica,sans-Serif" font-size="10.00"> </text>
<polyline fill="none" stroke="black" points="87.5,-1458.5 274.5,-1458.5 "/>
<text text-anchor="start" x="95.5" y="-1446.5" font-family="Helvetica,sans-Serif" font-size="10.00">+ AbstractUntemplatedParameterised</text>
<text text-anchor="start" x="95.5" y="-1435.5" font-family="Helvetica,sans-Serif" font-size="10.00">System()</text>
<text text-anchor="start" x="95.5" y="-1424.5" font-family="Helvetica,sans-Serif" font-size="10.00">+ ~AbstractUntemplatedParameterised</text>
<text text-anchor="start" x="95.5" y="-1413.5" font-family="Helvetica,sans-Serif" font-size="10.00">System()</text>
<text text-anchor="start" x="95.5" y="-1402.5" font-family="Helvetica,sans-Serif" font-size="10.00">+ GetSystemInformation()</text>
<text text-anchor="start" x="95.5" y="-1391.5" font-family="Helvetica,sans-Serif" font-size="10.00">+ GetSystemName()</text>
<text text-anchor="start" x="95.5" y="-1380.5" font-family="Helvetica,sans-Serif" font-size="10.00">+ GetNumberOfAttributes()</text>
<text text-anchor="start" x="95.5" y="-1369.5" font-family="Helvetica,sans-Serif" font-size="10.00">+ HasAttribute()</text>
<text text-anchor="start" x="95.5" y="-1358.5" font-family="Helvetica,sans-Serif" font-size="10.00">+ GetAttribute()</text>
<text text-anchor="start" x="95.5" y="-1347.5" font-family="Helvetica,sans-Serif" font-size="10.00">+ GetNumberOfStateVariables()</text>
<text text-anchor="start" x="95.5" y="-1336.5" font-family="Helvetica,sans-Serif" font-size="10.00">+ rGetStateVariableNames()</text>
<text text-anchor="start" x="95.5" y="-1325.5" font-family="Helvetica,sans-Serif" font-size="10.00">+ rGetStateVariableUnits()</text>
<text text-anchor="start" x="95.5" y="-1314.5" font-family="Helvetica,sans-Serif" font-size="10.00">and 20 more...</text>
</a>
</g>
</g>
<!-- Node5&#45;&gt;Node4 -->
<g id="edge4" class="edge"><title>Node5&#45;&gt;Node4</title>
<path fill="none" stroke="midnightblue" d="M164.608,-1297.44C155.514,-1218.57 148.647,-1109.67 163,-1015 165.892,-995.924 170.472,-976.059 175.771,-956.865"/>
<polygon fill="none" stroke="midnightblue" points="161.135,-1297.87 165.786,-1307.39 168.087,-1297.05 161.135,-1297.87"/>
</g>
<!-- Node9 -->
<g id="node9" class="node"><title>Node9</title>
<g id="a_node9"><a xlink:href="classAbstractParameterisedSystem.html" target="_top" xlink:title="{AbstractParameterisedSystem\l\&lt; VECTOR \&gt;\n||+ AbstractParameterisedSystem()\l+ rGetStateVariables()\l+ GetStateVariables()\l+ SetStateVariables()\l+ GetStateVariable()\l+ GetStateVariable()\l+ SetStateVariable()\l+ SetStateVariable()\l+ VerifyStateVariables()\l+ SetDefaultInitialConditions()\land 13 more...\l# DumpState()\l# DumpState()\l# DumpState()\l# CheckParametersOnLoad()\l&#45; GetStateMessage()\l}">
<polygon fill="white" stroke="black" points="280.5,-1015.5 280.5,-1248.5 445.5,-1248.5 445.5,-1015.5 280.5,-1015.5"/>
<text text-anchor="start" x="288.5" y="-1236.5" font-family="Helvetica,sans-Serif" font-size="10.00">AbstractParameterisedSystem</text>
<text text-anchor="middle" x="363" y="-1225.5" font-family="Helvetica,sans-Serif" font-size="10.00">&lt; VECTOR &gt;</text>
<polyline fill="none" stroke="black" points="280.5,-1218.5 445.5,-1218.5 "/>
<text text-anchor="middle" x="363" y="-1206.5" font-family="Helvetica,sans-Serif" font-size="10.00"> </text>
<polyline fill="none" stroke="black" points="280.5,-1199.5 445.5,-1199.5 "/>
<text text-anchor="start" x="288.5" y="-1187.5" font-family="Helvetica,sans-Serif" font-size="10.00">+ AbstractParameterisedSystem()</text>
<text text-anchor="start" x="288.5" y="-1176.5" font-family="Helvetica,sans-Serif" font-size="10.00">+ rGetStateVariables()</text>
<text text-anchor="start" x="288.5" y="-1165.5" font-family="Helvetica,sans-Serif" font-size="10.00">+ GetStateVariables()</text>
<text text-anchor="start" x="288.5" y="-1154.5" font-family="Helvetica,sans-Serif" font-size="10.00">+ SetStateVariables()</text>
<text text-anchor="start" x="288.5" y="-1143.5" font-family="Helvetica,sans-Serif" font-size="10.00">+ GetStateVariable()</text>
<text text-anchor="start" x="288.5" y="-1132.5" font-family="Helvetica,sans-Serif" font-size="10.00">+ GetStateVariable()</text>
<text text-anchor="start" x="288.5" y="-1121.5" font-family="Helvetica,sans-Serif" font-size="10.00">+ SetStateVariable()</text>
<text text-anchor="start" x="288.5" y="-1110.5" font-family="Helvetica,sans-Serif" font-size="10.00">+ SetStateVariable()</text>
<text text-anchor="start" x="288.5" y="-1099.5" font-family="Helvetica,sans-Serif" font-size="10.00">+ VerifyStateVariables()</text>
<text text-anchor="start" x="288.5" y="-1088.5" font-family="Helvetica,sans-Serif" font-size="10.00">+ SetDefaultInitialConditions()</text>
<text text-anchor="start" x="288.5" y="-1077.5" font-family="Helvetica,sans-Serif" font-size="10.00">and 13 more...</text>
<text text-anchor="start" x="288.5" y="-1066.5" font-family="Helvetica,sans-Serif" font-size="10.00"># DumpState()</text>
<text text-anchor="start" x="288.5" y="-1055.5" font-family="Helvetica,sans-Serif" font-size="10.00"># DumpState()</text>
<text text-anchor="start" x="288.5" y="-1044.5" font-family="Helvetica,sans-Serif" font-size="10.00"># DumpState()</text>
<text text-anchor="start" x="288.5" y="-1033.5" font-family="Helvetica,sans-Serif" font-size="10.00"># CheckParametersOnLoad()</text>
<text text-anchor="start" x="288.5" y="-1022.5" font-family="Helvetica,sans-Serif" font-size="10.00">&#45; GetStateMessage()</text>
</a>
</g>
</g>
<!-- Node5&#45;&gt;Node9 -->
<g id="edge9" class="edge"><title>Node5&#45;&gt;Node9</title>
<path fill="none" stroke="midnightblue" d="M252.669,-1298.8C263.656,-1282.29 275.037,-1265.19 286.13,-1248.52"/>
<polygon fill="none" stroke="midnightblue" points="249.59,-1297.11 246.964,-1307.37 255.417,-1300.99 249.59,-1297.11"/>
</g>
<!-- Node6 -->
<g id="node6" class="node"><title>Node6</title>
<polygon fill="white" stroke="#bfbfbf" points="113,-1555.5 113,-1623.5 273,-1623.5 273,-1555.5 113,-1555.5"/>
<text text-anchor="start" x="121" y="-1611.5" font-family="Helvetica,sans-Serif" font-size="10.00">shared_ptr&lt; AbstractOdeSystem</text>
<text text-anchor="middle" x="193" y="-1600.5" font-family="Helvetica,sans-Serif" font-size="10.00">Information &gt;</text>
<polyline fill="none" stroke="#bfbfbf" points="113,-1593.5 273,-1593.5 "/>
<text text-anchor="middle" x="193" y="-1581.5" font-family="Helvetica,sans-Serif" font-size="10.00"> </text>
<polyline fill="none" stroke="#bfbfbf" points="113,-1574.5 273,-1574.5 "/>
<text text-anchor="middle" x="193" y="-1562.5" font-family="Helvetica,sans-Serif" font-size="10.00"> </text>
</g>
<!-- Node6&#45;&gt;Node5 -->
<g id="edge5" class="edge"><title>Node6&#45;&gt;Node5</title>
<path fill="none" stroke="#404040" d="M190.799,-1555.49C190.094,-1544.92 189.271,-1532.57 188.407,-1519.6"/>
<polygon fill="none" stroke="#404040" points="188.402,-1519.52 184.011,-1513.8 187.603,-1507.55 191.994,-1513.27 188.402,-1519.52"/>
<text text-anchor="middle" x="226.5" y="-1529" font-family="Helvetica,sans-Serif" font-size="10.00"> #mpSystemInfo</text>
</g>
<!-- Node7 -->
<g id="node7" class="node"><title>Node7</title>
<g id="a_node7"><a xlink:href="classunsigned.html" target="_top" xlink:title="{unsigned\n||}">
<polygon fill="white" stroke="black" points="0,-1561 0,-1618 56,-1618 56,-1561 0,-1561"/>
<text text-anchor="middle" x="28" y="-1606" font-family="Helvetica,sans-Serif" font-size="10.00">unsigned</text>
<polyline fill="none" stroke="black" points="0,-1599 56,-1599 "/>
<text text-anchor="middle" x="28" y="-1587" font-family="Helvetica,sans-Serif" font-size="10.00"> </text>
<polyline fill="none" stroke="black" points="0,-1580 56,-1580 "/>
<text text-anchor="middle" x="28" y="-1568" font-family="Helvetica,sans-Serif" font-size="10.00"> </text>
</a>
</g>
</g>
<!-- Node7&#45;&gt;Node1 -->
<g id="edge13" class="edge"><title>Node7&#45;&gt;Node1</title>
<path fill="none" stroke="#404040" d="M23.754,-1560.82C18.7188,-1525.55 11,-1462.65 11,-1408.5 11,-1408.5 11,-1408.5 11,-446.5 11,-381.475 31.6564,-313.009 55.3059,-255.93"/>
<polygon fill="none" stroke="#404040" points="55.3939,-255.722 54.0484,-248.637 60.0704,-244.671 61.4159,-251.755 55.3939,-255.722"/>
<text text-anchor="middle" x="22" y="-837.5" font-family="Helvetica,sans-Serif" font-size="10.00"> &#45;mN</text>
</g>
<!-- Node7&#45;&gt;Node5 -->
<g id="edge6" class="edge"><title>Node7&#45;&gt;Node5</title>
<path fill="none" stroke="#404040" d="M39.7225,-1560.91C45.1269,-1549.6 52.1007,-1536.68 60,-1526 65.9432,-1517.96 72.4532,-1509.98 79.2731,-1502.18"/>
<polygon fill="none" stroke="#404040" points="79.3932,-1502.04 80.4221,-1494.9 87.4061,-1493.11 86.3773,-1500.25 79.3932,-1502.04"/>
<text text-anchor="middle" x="123" y="-1529" font-family="Helvetica,sans-Serif" font-size="10.00"> #mNumberOfStateVariables</text>
</g>
<!-- Node8 -->
<g id="node8" class="node"><title>Node8</title>
<polygon fill="white" stroke="#bfbfbf" points="172,-1103.5 172,-1160.5 262,-1160.5 262,-1103.5 172,-1103.5"/>
<text text-anchor="middle" x="217" y="-1148.5" font-family="Helvetica,sans-Serif" font-size="10.00">vector&lt; double &gt;</text>
<polyline fill="none" stroke="#bfbfbf" points="172,-1141.5 262,-1141.5 "/>
<text text-anchor="middle" x="217" y="-1129.5" font-family="Helvetica,sans-Serif" font-size="10.00"> </text>
<polyline fill="none" stroke="#bfbfbf" points="172,-1122.5 262,-1122.5 "/>
<text text-anchor="middle" x="217" y="-1110.5" font-family="Helvetica,sans-Serif" font-size="10.00"> </text>
</g>
<!-- Node8&#45;&gt;Node4 -->
<g id="edge7" class="edge"><title>Node8&#45;&gt;Node4</title>
<path fill="none" stroke="#404040" d="M217,-1103.46C217,-1072.24 217,-1019.14 217,-968.829"/>
<polygon fill="none" stroke="#404040" points="217,-968.797 213,-962.797 217,-956.797 221,-962.797 217,-968.797"/>
<text text-anchor="middle" x="257.5" y="-989" font-family="Helvetica,sans-Serif" font-size="10.00"> #mStateVariables</text>
<text text-anchor="middle" x="257.5" y="-978" font-family="Helvetica,sans-Serif" font-size="10.00">#mParameters</text>
</g>
<!-- Node9&#45;&gt;Node4 -->
<g id="edge8" class="edge"><title>Node9&#45;&gt;Node4</title>
<path fill="none" stroke="orange" d="M316.604,-1005.97C311.924,-995.381 307.032,-984.931 302,-975 298.949,-968.979 295.704,-962.884 292.329,-956.782"/>
<polygon fill="orange" stroke="orange" points="313.465,-1007.53 320.661,-1015.31 319.885,-1004.74 313.465,-1007.53"/>
<text text-anchor="middle" x="369.5" y="-983.5" font-family="Helvetica,sans-Serif" font-size="10.00"> &lt; std::vector&lt; double &gt; &gt;</text>
</g>
<!-- Node10 -->
<g id="node10" class="node"><title>Node10</title>
<polygon fill="white" stroke="#bfbfbf" points="333.5,-1379 333.5,-1436 392.5,-1436 392.5,-1379 333.5,-1379"/>
<text text-anchor="middle" x="363" y="-1424" font-family="Helvetica,sans-Serif" font-size="10.00">VECTOR</text>
<polyline fill="none" stroke="#bfbfbf" points="333.5,-1417 392.5,-1417 "/>
<text text-anchor="middle" x="363" y="-1405" font-family="Helvetica,sans-Serif" font-size="10.00"> </text>
<polyline fill="none" stroke="#bfbfbf" points="333.5,-1398 392.5,-1398 "/>
<text text-anchor="middle" x="363" y="-1386" font-family="Helvetica,sans-Serif" font-size="10.00"> </text>
</g>
<!-- Node10&#45;&gt;Node9 -->
<g id="edge10" class="edge"><title>Node10&#45;&gt;Node9</title>
<path fill="none" stroke="#404040" d="M363,-1378.77C363,-1350.66 363,-1305.1 363,-1260.8"/>
<polygon fill="none" stroke="#404040" points="363,-1260.66 359,-1254.66 363,-1248.66 367,-1254.66 363,-1260.66"/>
<text text-anchor="middle" x="403.5" y="-1281" font-family="Helvetica,sans-Serif" font-size="10.00"> #mStateVariables</text>
<text text-anchor="middle" x="403.5" y="-1270" font-family="Helvetica,sans-Serif" font-size="10.00">#mParameters</text>
</g>
<!-- Node11 -->
<g id="node11" class="node"><title>Node11</title>
<g id="a_node11"><a xlink:href="classbool.html" target="_top" xlink:title="{bool\n||}">
<polygon fill="white" stroke="black" points="75.5,-811.5 75.5,-868.5 110.5,-868.5 110.5,-811.5 75.5,-811.5"/>
<text text-anchor="middle" x="93" y="-856.5" font-family="Helvetica,sans-Serif" font-size="10.00">bool</text>
<polyline fill="none" stroke="black" points="75.5,-849.5 110.5,-849.5 "/>
<text text-anchor="middle" x="93" y="-837.5" font-family="Helvetica,sans-Serif" font-size="10.00"> </text>
<polyline fill="none" stroke="black" points="75.5,-830.5 110.5,-830.5 "/>
<text text-anchor="middle" x="93" y="-818.5" font-family="Helvetica,sans-Serif" font-size="10.00"> </text>
</a>
</g>
</g>
<!-- Node11&#45;&gt;Node3 -->
<g id="edge11" class="edge"><title>Node11&#45;&gt;Node3</title>
<path fill="none" stroke="#404040" d="M90.6247,-811.252C88.7088,-781.904 87.3081,-734.357 94,-694 94.3583,-691.839 94.7602,-689.661 95.2004,-687.471"/>
<polygon fill="none" stroke="#404040" points="95.2158,-687.403 92.6521,-680.663 97.8875,-675.704 100.451,-682.444 95.2158,-687.403"/>
<text text-anchor="middle" x="148.5" y="-697" font-family="Helvetica,sans-Serif" font-size="10.00"> #mUseAnalyticJacobian</text>
</g>
<!-- Node12 -->
<g id="node12" class="node"><title>Node12</title>
<g id="a_node12"><a xlink:href="classdouble.html" target="_top" xlink:title="{double\n||}">
<polygon fill="white" stroke="black" points="227.5,-419 227.5,-476 272.5,-476 272.5,-419 227.5,-419"/>
<text text-anchor="middle" x="250" y="-464" font-family="Helvetica,sans-Serif" font-size="10.00">double</text>
<polyline fill="none" stroke="black" points="227.5,-457 272.5,-457 "/>
<text text-anchor="middle" x="250" y="-445" font-family="Helvetica,sans-Serif" font-size="10.00"> </text>
<polyline fill="none" stroke="black" points="227.5,-438 272.5,-438 "/>
<text text-anchor="middle" x="250" y="-426" font-family="Helvetica,sans-Serif" font-size="10.00"> </text>
</a>
</g>
</g>
<!-- Node12&#45;&gt;Node1 -->
<g id="edge12" class="edge"><title>Node12&#45;&gt;Node1</title>
<path fill="none" stroke="#404040" d="M239.257,-418.961C225.111,-382.697 199.257,-316.42 175.615,-255.815"/>
<polygon fill="none" stroke="#404040" points="175.591,-255.753 169.684,-251.617 171.23,-244.574 177.137,-248.71 175.591,-255.753"/>
<text text-anchor="middle" x="243" y="-376" font-family="Helvetica,sans-Serif" font-size="10.00"> &#45;mK15d</text>
<text text-anchor="middle" x="243" y="-365" font-family="Helvetica,sans-Serif" font-size="10.00">&#45;mMu</text>
<text text-anchor="middle" x="243" y="-354" font-family="Helvetica,sans-Serif" font-size="10.00">&#45;mK15dd</text>
<text text-anchor="middle" x="243" y="-343" font-family="Helvetica,sans-Serif" font-size="10.00">&#45;mK16dd</text>
<text text-anchor="middle" x="243" y="-332" font-family="Helvetica,sans-Serif" font-size="10.00">&#45;mK12d</text>
<text text-anchor="middle" x="243" y="-321" font-family="Helvetica,sans-Serif" font-size="10.00">&#45;mK1</text>
<text text-anchor="middle" x="243" y="-310" font-family="Helvetica,sans-Serif" font-size="10.00">&#45;mK2dd</text>
<text text-anchor="middle" x="243" y="-299" font-family="Helvetica,sans-Serif" font-size="10.00">&#45;mKeq</text>
<text text-anchor="middle" x="243" y="-288" font-family="Helvetica,sans-Serif" font-size="10.00">&#45;mK3dd</text>
<text text-anchor="middle" x="243" y="-277" font-family="Helvetica,sans-Serif" font-size="10.00">&#45;mK5d</text>
<text text-anchor="middle" x="243" y="-266" font-family="Helvetica,sans-Serif" font-size="10.00">...</text>
</g>
</g>
</svg>
