<?xml version="1.0" encoding="UTF-8" standalone="no"?>
<!DOCTYPE svg PUBLIC "-//W3C//DTD SVG 1.1//EN"
 "http://www.w3.org/Graphics/SVG/1.1/DTD/svg11.dtd">
<!-- Generated by graphviz version 2.38.0 (20140413.2041)
 -->
<!-- Title: FakeBathContractionModel Pages: 1 -->
<svg width="222pt" height="508pt"
 viewBox="0.00 0.00 222.00 508.00" xmlns="http://www.w3.org/2000/svg" xmlns:xlink="http://www.w3.org/1999/xlink">
<g id="graph0" class="graph" transform="scale(1 1) rotate(0) translate(4 504)">
<title>FakeBathContractionModel</title>
<polygon fill="white" stroke="none" points="-4,4 -4,-504 218,-504 218,4 -4,4"/>
<!-- Node1 -->
<g id="node1" class="node"><title>Node1</title>
<polygon fill="#bfbfbf" stroke="black" points="58.5,-0.5 58.5,-112.5 208.5,-112.5 208.5,-0.5 58.5,-0.5"/>
<text text-anchor="middle" x="133.5" y="-100.5" font-family="Helvetica,sans-Serif" font-size="10.00">FakeBathContractionModel</text>
<polyline fill="none" stroke="black" points="58.5,-93.5 208.5,-93.5 "/>
<text text-anchor="middle" x="133.5" y="-81.5" font-family="Helvetica,sans-Serif" font-size="10.00"> </text>
<polyline fill="none" stroke="black" points="58.5,-74.5 208.5,-74.5 "/>
<text text-anchor="start" x="66.5" y="-62.5" font-family="Helvetica,sans-Serif" font-size="10.00">+ FakeBathContractionModel()</text>
<text text-anchor="start" x="66.5" y="-51.5" font-family="Helvetica,sans-Serif" font-size="10.00">+ SetInputParameters()</text>
<text text-anchor="start" x="66.5" y="-40.5" font-family="Helvetica,sans-Serif" font-size="10.00">+ SetStretchAndStretchRate()</text>
<text text-anchor="start" x="66.5" y="-29.5" font-family="Helvetica,sans-Serif" font-size="10.00">+ GetActiveTension()</text>
<text text-anchor="start" x="66.5" y="-18.5" font-family="Helvetica,sans-Serif" font-size="10.00">+ IsStretchDependent()</text>
<text text-anchor="start" x="66.5" y="-7.5" font-family="Helvetica,sans-Serif" font-size="10.00">+ IsStretchRateDependent()</text>
</g>
<!-- Node2 -->
<g id="node2" class="node"><title>Node2</title>
<g id="a_node2"><a xlink:href="classAbstractAlgebraicContractionModel.html" target="_top" xlink:title="{AbstractAlgebraicContraction\lModel\n||+ AbstractAlgebraicContraction\lModel()\l+ RunDoNotUpdate()\l+ RunAndUpdate()\l+ GetNextActiveTension()\l+ UpdateStateVariables()\l}">
<polygon fill="white" stroke="black" points="57,-150.5 57,-273.5 210,-273.5 210,-150.5 57,-150.5"/>
<text text-anchor="start" x="65" y="-261.5" font-family="Helvetica,sans-Serif" font-size="10.00">AbstractAlgebraicContraction</text>
<text text-anchor="middle" x="133.5" y="-250.5" font-family="Helvetica,sans-Serif" font-size="10.00">Model</text>
<polyline fill="none" stroke="black" points="57,-243.5 210,-243.5 "/>
<text text-anchor="middle" x="133.5" y="-231.5" font-family="Helvetica,sans-Serif" font-size="10.00"> </text>
<polyline fill="none" stroke="black" points="57,-224.5 210,-224.5 "/>
<text text-anchor="start" x="65" y="-212.5" font-family="Helvetica,sans-Serif" font-size="10.00">+ AbstractAlgebraicContraction</text>
<text text-anchor="start" x="65" y="-201.5" font-family="Helvetica,sans-Serif" font-size="10.00">Model()</text>
<text text-anchor="start" x="65" y="-190.5" font-family="Helvetica,sans-Serif" font-size="10.00">+ RunDoNotUpdate()</text>
<text text-anchor="start" x="65" y="-179.5" font-family="Helvetica,sans-Serif" font-size="10.00">+ RunAndUpdate()</text>
<text text-anchor="start" x="65" y="-168.5" font-family="Helvetica,sans-Serif" font-size="10.00">+ GetNextActiveTension()</text>
<text text-anchor="start" x="65" y="-157.5" font-family="Helvetica,sans-Serif" font-size="10.00">+ UpdateStateVariables()</text>
</a>
</g>
</g>
<!-- Node2&#45;&gt;Node1 -->
<g id="edge1" class="edge"><title>Node2&#45;&gt;Node1</title>
<path fill="none" stroke="midnightblue" d="M133.5,-140.055C133.5,-130.886 133.5,-121.605 133.5,-112.741"/>
<polygon fill="none" stroke="midnightblue" points="130,-140.333 133.5,-150.333 137,-140.333 130,-140.333"/>
</g>
<!-- Node3 -->
<g id="node3" class="node"><title>Node3</title>
<g id="a_node3"><a xlink:href="classAbstractContractionModel.html" target="_top" xlink:title="{AbstractContractionModel\n||+ AbstractContractionModel()\l+ ~AbstractContractionModel()\l+ IsStretchDependent()\l+ IsStretchRateDependent()\l+ SetInputParameters()\l+ SetStretchAndStretchRate()\l+ SetStretch()\l+ RunDoNotUpdate()\l+ RunAndUpdate()\l+ UpdateStateVariables()\l+ GetActiveTension()\l+ GetNextActiveTension()\l}">
<polygon fill="white" stroke="black" points="0,-321.5 0,-499.5 151,-499.5 151,-321.5 0,-321.5"/>
<text text-anchor="middle" x="75.5" y="-487.5" font-family="Helvetica,sans-Serif" font-size="10.00">AbstractContractionModel</text>
<polyline fill="none" stroke="black" points="0,-480.5 151,-480.5 "/>
<text text-anchor="middle" x="75.5" y="-468.5" font-family="Helvetica,sans-Serif" font-size="10.00"> </text>
<polyline fill="none" stroke="black" points="0,-461.5 151,-461.5 "/>
<text text-anchor="start" x="8" y="-449.5" font-family="Helvetica,sans-Serif" font-size="10.00">+ AbstractContractionModel()</text>
<text text-anchor="start" x="8" y="-438.5" font-family="Helvetica,sans-Serif" font-size="10.00">+ ~AbstractContractionModel()</text>
<text text-anchor="start" x="8" y="-427.5" font-family="Helvetica,sans-Serif" font-size="10.00">+ IsStretchDependent()</text>
<text text-anchor="start" x="8" y="-416.5" font-family="Helvetica,sans-Serif" font-size="10.00">+ IsStretchRateDependent()</text>
<text text-anchor="start" x="8" y="-405.5" font-family="Helvetica,sans-Serif" font-size="10.00">+ SetInputParameters()</text>
<text text-anchor="start" x="8" y="-394.5" font-family="Helvetica,sans-Serif" font-size="10.00">+ SetStretchAndStretchRate()</text>
<text text-anchor="start" x="8" y="-383.5" font-family="Helvetica,sans-Serif" font-size="10.00">+ SetStretch()</text>
<text text-anchor="start" x="8" y="-372.5" font-family="Helvetica,sans-Serif" font-size="10.00">+ RunDoNotUpdate()</text>
<text text-anchor="start" x="8" y="-361.5" font-family="Helvetica,sans-Serif" font-size="10.00">+ RunAndUpdate()</text>
<text text-anchor="start" x="8" y="-350.5" font-family="Helvetica,sans-Serif" font-size="10.00">+ UpdateStateVariables()</text>
<text text-anchor="start" x="8" y="-339.5" font-family="Helvetica,sans-Serif" font-size="10.00">+ GetActiveTension()</text>
<text text-anchor="start" x="8" y="-328.5" font-family="Helvetica,sans-Serif" font-size="10.00">+ GetNextActiveTension()</text>
</a>
</g>
</g>
<!-- Node3&#45;&gt;Node2 -->
<g id="edge2" class="edge"><title>Node3&#45;&gt;Node2</title>
<path fill="none" stroke="midnightblue" d="M104.439,-311.455C108.249,-298.549 112.06,-285.638 115.609,-273.613"/>
<polygon fill="none" stroke="midnightblue" points="101.005,-310.727 101.531,-321.309 107.719,-312.709 101.005,-310.727"/>
</g>
<!-- Node4 -->
<g id="node4" class="node"><title>Node4</title>
<g id="a_node4"><a xlink:href="classdouble.html" target="_top" xlink:title="{double\n||}">
<polygon fill="white" stroke="black" points="169,-382 169,-439 214,-439 214,-382 169,-382"/>
<text text-anchor="middle" x="191.5" y="-427" font-family="Helvetica,sans-Serif" font-size="10.00">double</text>
<polyline fill="none" stroke="black" points="169,-420 214,-420 "/>
<text text-anchor="middle" x="191.5" y="-408" font-family="Helvetica,sans-Serif" font-size="10.00"> </text>
<polyline fill="none" stroke="black" points="169,-401 214,-401 "/>
<text text-anchor="middle" x="191.5" y="-389" font-family="Helvetica,sans-Serif" font-size="10.00"> </text>
</a>
</g>
</g>
<!-- Node4&#45;&gt;Node2 -->
<g id="edge3" class="edge"><title>Node4&#45;&gt;Node2</title>
<path fill="none" stroke="#404040" d="M183.313,-381.763C175.939,-356.78 164.77,-318.94 154.875,-285.418"/>
<polygon fill="none" stroke="#404040" points="154.834,-285.279 149.299,-280.656 151.437,-273.769 156.972,-278.392 154.834,-285.279"/>
<text text-anchor="middle" x="178" y="-295" font-family="Helvetica,sans-Serif" font-size="10.00"> #mTime</text>
</g>
</g>
</svg>
