<?xml version="1.0" encoding="UTF-8" standalone="no"?>
<!DOCTYPE svg PUBLIC "-//W3C//DTD SVG 1.1//EN"
 "http://www.w3.org/Graphics/SVG/1.1/DTD/svg11.dtd">
<!-- Generated by graphviz version 2.38.0 (20140413.2041)
 -->
<!-- Title: CellBasedEllipticPdeSolver&lt; DIM &gt; Pages: 1 -->
<svg width="554pt" height="1974pt"
 viewBox="0.00 0.00 553.50 1974.00" xmlns="http://www.w3.org/2000/svg" xmlns:xlink="http://www.w3.org/1999/xlink">
<g id="graph0" class="graph" transform="scale(1 1) rotate(0) translate(4 1970)">
<title>CellBasedEllipticPdeSolver&lt; DIM &gt;</title>
<polygon fill="white" stroke="none" points="-4,4 -4,-1970 549.5,-1970 549.5,4 -4,4"/>
<!-- Node1 -->
<g id="node1" class="node"><title>Node1</title>
<polygon fill="#bfbfbf" stroke="black" points="176,-0.5 176,-145.5 346,-145.5 346,-0.5 176,-0.5"/>
<text text-anchor="start" x="184" y="-133.5" font-family="Helvetica,sans-Serif" font-size="10.00">CellBasedEllipticPdeSolver</text>
<text text-anchor="middle" x="261" y="-122.5" font-family="Helvetica,sans-Serif" font-size="10.00">&lt; DIM &gt;</text>
<polyline fill="none" stroke="black" points="176,-115.5 346,-115.5 "/>
<text text-anchor="start" x="184" y="-103.5" font-family="Helvetica,sans-Serif" font-size="10.00">&#45; mConstantInUSourceTerm</text>
<text text-anchor="start" x="184" y="-92.5" font-family="Helvetica,sans-Serif" font-size="10.00">&#45; mLinearInUCoeffInSourceTerm</text>
<polyline fill="none" stroke="black" points="176,-85.5 346,-85.5 "/>
<text text-anchor="start" x="184" y="-73.5" font-family="Helvetica,sans-Serif" font-size="10.00">+ CellBasedEllipticPdeSolver()</text>
<text text-anchor="start" x="184" y="-62.5" font-family="Helvetica,sans-Serif" font-size="10.00">+ ~CellBasedEllipticPdeSolver()</text>
<text text-anchor="start" x="184" y="-51.5" font-family="Helvetica,sans-Serif" font-size="10.00"># ComputeVectorTerm()</text>
<text text-anchor="start" x="184" y="-40.5" font-family="Helvetica,sans-Serif" font-size="10.00"># ComputeMatrixTerm()</text>
<text text-anchor="start" x="184" y="-29.5" font-family="Helvetica,sans-Serif" font-size="10.00"># ResetInterpolatedQuantities()</text>
<text text-anchor="start" x="184" y="-18.5" font-family="Helvetica,sans-Serif" font-size="10.00"># IncrementInterpolatedQuantities()</text>
<text text-anchor="start" x="184" y="-7.5" font-family="Helvetica,sans-Serif" font-size="10.00"># InitialiseForSolve()</text>
</g>
<!-- Node2 -->
<g id="node2" class="node"><title>Node2</title>
<g id="a_node2"><a xlink:href="classSimpleLinearEllipticSolver.html" target="_top" xlink:title="{SimpleLinearEllipticSolver\l\&lt; DIM, DIM \&gt;\n|# mpEllipticPde\l|+ SimpleLinearEllipticSolver()\l+ InitialiseForSolve()\l# ComputeMatrixTerm()\l# ComputeVectorTerm()\l# SetupLinearSystem()\l}">
<polygon fill="white" stroke="black" points="188.5,-183.5 188.5,-295.5 333.5,-295.5 333.5,-183.5 188.5,-183.5"/>
<text text-anchor="start" x="196.5" y="-283.5" font-family="Helvetica,sans-Serif" font-size="10.00">SimpleLinearEllipticSolver</text>
<text text-anchor="middle" x="261" y="-272.5" font-family="Helvetica,sans-Serif" font-size="10.00">&lt; DIM, DIM &gt;</text>
<polyline fill="none" stroke="black" points="188.5,-265.5 333.5,-265.5 "/>
<text text-anchor="start" x="196.5" y="-253.5" font-family="Helvetica,sans-Serif" font-size="10.00"># mpEllipticPde</text>
<polyline fill="none" stroke="black" points="188.5,-246.5 333.5,-246.5 "/>
<text text-anchor="start" x="196.5" y="-234.5" font-family="Helvetica,sans-Serif" font-size="10.00">+ SimpleLinearEllipticSolver()</text>
<text text-anchor="start" x="196.5" y="-223.5" font-family="Helvetica,sans-Serif" font-size="10.00">+ InitialiseForSolve()</text>
<text text-anchor="start" x="196.5" y="-212.5" font-family="Helvetica,sans-Serif" font-size="10.00"># ComputeMatrixTerm()</text>
<text text-anchor="start" x="196.5" y="-201.5" font-family="Helvetica,sans-Serif" font-size="10.00"># ComputeVectorTerm()</text>
<text text-anchor="start" x="196.5" y="-190.5" font-family="Helvetica,sans-Serif" font-size="10.00"># SetupLinearSystem()</text>
</a>
</g>
</g>
<!-- Node2&#45;&gt;Node1 -->
<g id="edge1" class="edge"><title>Node2&#45;&gt;Node1</title>
<path fill="none" stroke="midnightblue" d="M261,-173.219C261,-164.191 261,-154.877 261,-145.74"/>
<polygon fill="none" stroke="midnightblue" points="257.5,-173.266 261,-183.266 264.5,-173.266 257.5,-173.266"/>
</g>
<!-- Node3 -->
<g id="node3" class="node"><title>Node3</title>
<g id="a_node3"><a xlink:href="classAbstractAssemblerSolverHybrid.html" target="_top" xlink:title="{AbstractAssemblerSolverHybrid\l\&lt; ELEMENT_DIM, SPACE_DIM,\l 1, NORMAL \&gt;\n|# mNaturalNeumannSurfaceTerm\lAssembler\l# mpBoundaryConditions\l|+ AbstractAssemblerSolverHybrid()\l+ ~AbstractAssemblerSolver\lHybrid()\l+ SetupGivenLinearSystem()\l}">
<polygon fill="white" stroke="black" points="74.5,-493.5 74.5,-627.5 245.5,-627.5 245.5,-493.5 74.5,-493.5"/>
<text text-anchor="start" x="82.5" y="-615.5" font-family="Helvetica,sans-Serif" font-size="10.00">AbstractAssemblerSolverHybrid</text>
<text text-anchor="start" x="82.5" y="-604.5" font-family="Helvetica,sans-Serif" font-size="10.00">&lt; ELEMENT_DIM, SPACE_DIM,</text>
<text text-anchor="middle" x="160" y="-593.5" font-family="Helvetica,sans-Serif" font-size="10.00"> 1, NORMAL &gt;</text>
<polyline fill="none" stroke="black" points="74.5,-586.5 245.5,-586.5 "/>
<text text-anchor="start" x="82.5" y="-574.5" font-family="Helvetica,sans-Serif" font-size="10.00"># mNaturalNeumannSurfaceTerm</text>
<text text-anchor="start" x="82.5" y="-563.5" font-family="Helvetica,sans-Serif" font-size="10.00">Assembler</text>
<text text-anchor="start" x="82.5" y="-552.5" font-family="Helvetica,sans-Serif" font-size="10.00"># mpBoundaryConditions</text>
<polyline fill="none" stroke="black" points="74.5,-545.5 245.5,-545.5 "/>
<text text-anchor="start" x="82.5" y="-533.5" font-family="Helvetica,sans-Serif" font-size="10.00">+ AbstractAssemblerSolverHybrid()</text>
<text text-anchor="start" x="82.5" y="-522.5" font-family="Helvetica,sans-Serif" font-size="10.00">+ ~AbstractAssemblerSolver</text>
<text text-anchor="start" x="82.5" y="-511.5" font-family="Helvetica,sans-Serif" font-size="10.00">Hybrid()</text>
<text text-anchor="start" x="82.5" y="-500.5" font-family="Helvetica,sans-Serif" font-size="10.00">+ SetupGivenLinearSystem()</text>
</a>
</g>
</g>
<!-- Node3&#45;&gt;Node2 -->
<g id="edge2" class="edge"><title>Node3&#45;&gt;Node2</title>
<path fill="none" stroke="midnightblue" d="M149.762,-483.031C147.119,-440.319 149.054,-387.004 167,-343 174.021,-325.785 185.323,-309.653 197.694,-295.509"/>
<polygon fill="none" stroke="midnightblue" points="146.277,-483.363 150.48,-493.088 153.259,-482.864 146.277,-483.363"/>
</g>
<!-- Node13 -->
<g id="node13" class="node"><title>Node13</title>
<g id="a_node13"><a xlink:href="classSimpleLinearEllipticSolver.html" target="_top" xlink:title="{SimpleLinearEllipticSolver\l\&lt; ELEMENT_DIM, SPACE_DIM \&gt;\n|# mpEllipticPde\l|+ SimpleLinearEllipticSolver()\l+ InitialiseForSolve()\l# ComputeMatrixTerm()\l# ComputeVectorTerm()\l# SetupLinearSystem()\l}">
<polygon fill="white" stroke="black" points="176,-343.5 176,-455.5 346,-455.5 346,-343.5 176,-343.5"/>
<text text-anchor="start" x="184" y="-443.5" font-family="Helvetica,sans-Serif" font-size="10.00">SimpleLinearEllipticSolver</text>
<text text-anchor="middle" x="261" y="-432.5" font-family="Helvetica,sans-Serif" font-size="10.00">&lt; ELEMENT_DIM, SPACE_DIM &gt;</text>
<polyline fill="none" stroke="black" points="176,-425.5 346,-425.5 "/>
<text text-anchor="start" x="184" y="-413.5" font-family="Helvetica,sans-Serif" font-size="10.00"># mpEllipticPde</text>
<polyline fill="none" stroke="black" points="176,-406.5 346,-406.5 "/>
<text text-anchor="start" x="184" y="-394.5" font-family="Helvetica,sans-Serif" font-size="10.00">+ SimpleLinearEllipticSolver()</text>
<text text-anchor="start" x="184" y="-383.5" font-family="Helvetica,sans-Serif" font-size="10.00">+ InitialiseForSolve()</text>
<text text-anchor="start" x="184" y="-372.5" font-family="Helvetica,sans-Serif" font-size="10.00"># ComputeMatrixTerm()</text>
<text text-anchor="start" x="184" y="-361.5" font-family="Helvetica,sans-Serif" font-size="10.00"># ComputeVectorTerm()</text>
<text text-anchor="start" x="184" y="-350.5" font-family="Helvetica,sans-Serif" font-size="10.00"># SetupLinearSystem()</text>
</a>
</g>
</g>
<!-- Node3&#45;&gt;Node13 -->
<g id="edge17" class="edge"><title>Node3&#45;&gt;Node13</title>
<path fill="none" stroke="midnightblue" d="M207.369,-484.929C213.558,-475.186 219.81,-465.343 225.752,-455.99"/>
<polygon fill="none" stroke="midnightblue" points="204.363,-483.133 201.956,-493.451 210.272,-486.887 204.363,-483.133"/>
</g>
<!-- Node4 -->
<g id="node4" class="node"><title>Node4</title>
<g id="a_node4"><a xlink:href="classAbstractFeVolumeIntegralAssembler.html" target="_top" xlink:title="{AbstractFeVolumeIntegral\lAssembler\&lt; ELEMENT_DIM,\l SPACE_DIM, PROBLEM_DIM,\l true, true, INTERPOLATION\l_LEVEL \&gt;\n|# mpMesh\l# mpQuadRule\l|+ AbstractFeVolumeIntegral\lAssembler()\l+ ~AbstractFeVolumeIntegral\lAssembler()\l# ComputeTransformedBasisFunction\lDerivatives()\l# DoAssemble()\l# ComputeMatrixTerm()\l# ComputeVectorTerm()\l# AssembleOnElement()\l# ElementAssemblyCriterion()\l}">
<polygon fill="white" stroke="black" points="0,-858.5 0,-1080.5 182,-1080.5 182,-858.5 0,-858.5"/>
<text text-anchor="start" x="8" y="-1068.5" font-family="Helvetica,sans-Serif" font-size="10.00">AbstractFeVolumeIntegral</text>
<text text-anchor="start" x="8" y="-1057.5" font-family="Helvetica,sans-Serif" font-size="10.00">Assembler&lt; ELEMENT_DIM,</text>
<text text-anchor="start" x="8" y="-1046.5" font-family="Helvetica,sans-Serif" font-size="10.00"> SPACE_DIM, PROBLEM_DIM,</text>
<text text-anchor="start" x="8" y="-1035.5" font-family="Helvetica,sans-Serif" font-size="10.00"> true, true, INTERPOLATION</text>
<text text-anchor="middle" x="91" y="-1024.5" font-family="Helvetica,sans-Serif" font-size="10.00">_LEVEL &gt;</text>
<polyline fill="none" stroke="black" points="0,-1017.5 182,-1017.5 "/>
<text text-anchor="start" x="8" y="-1005.5" font-family="Helvetica,sans-Serif" font-size="10.00"># mpMesh</text>
<text text-anchor="start" x="8" y="-994.5" font-family="Helvetica,sans-Serif" font-size="10.00"># mpQuadRule</text>
<polyline fill="none" stroke="black" points="0,-987.5 182,-987.5 "/>
<text text-anchor="start" x="8" y="-975.5" font-family="Helvetica,sans-Serif" font-size="10.00">+ AbstractFeVolumeIntegral</text>
<text text-anchor="start" x="8" y="-964.5" font-family="Helvetica,sans-Serif" font-size="10.00">Assembler()</text>
<text text-anchor="start" x="8" y="-953.5" font-family="Helvetica,sans-Serif" font-size="10.00">+ ~AbstractFeVolumeIntegral</text>
<text text-anchor="start" x="8" y="-942.5" font-family="Helvetica,sans-Serif" font-size="10.00">Assembler()</text>
<text text-anchor="start" x="8" y="-931.5" font-family="Helvetica,sans-Serif" font-size="10.00"># ComputeTransformedBasisFunction</text>
<text text-anchor="start" x="8" y="-920.5" font-family="Helvetica,sans-Serif" font-size="10.00">Derivatives()</text>
<text text-anchor="start" x="8" y="-909.5" font-family="Helvetica,sans-Serif" font-size="10.00"># DoAssemble()</text>
<text text-anchor="start" x="8" y="-898.5" font-family="Helvetica,sans-Serif" font-size="10.00"># ComputeMatrixTerm()</text>
<text text-anchor="start" x="8" y="-887.5" font-family="Helvetica,sans-Serif" font-size="10.00"># ComputeVectorTerm()</text>
<text text-anchor="start" x="8" y="-876.5" font-family="Helvetica,sans-Serif" font-size="10.00"># AssembleOnElement()</text>
<text text-anchor="start" x="8" y="-865.5" font-family="Helvetica,sans-Serif" font-size="10.00"># ElementAssemblyCriterion()</text>
</a>
</g>
</g>
<!-- Node4&#45;&gt;Node3 -->
<g id="edge3" class="edge"><title>Node4&#45;&gt;Node3</title>
<path fill="none" stroke="midnightblue" d="M60.6478,-848.36C52.9443,-797.221 51.0056,-737.594 68,-686 74.8106,-665.324 86.5218,-645.267 99.3506,-627.509"/>
<polygon fill="none" stroke="midnightblue" points="57.229,-849.146 62.2615,-858.47 64.1415,-848.043 57.229,-849.146"/>
</g>
<!-- Node9 -->
<g id="node9" class="node"><title>Node9</title>
<g id="a_node9"><a xlink:href="classAbstractAssemblerSolverHybrid.html" target="_top" xlink:title="{AbstractAssemblerSolverHybrid\l\&lt; ELEMENT_DIM, SPACE_DIM,\l PROBLEM_DIM, INTERPOLATION_LEVEL \&gt;\n|# mNaturalNeumannSurfaceTerm\lAssembler\l# mpBoundaryConditions\l|+ AbstractAssemblerSolverHybrid()\l+ ~AbstractAssemblerSolver\lHybrid()\l+ SetupGivenLinearSystem()\l}">
<polygon fill="white" stroke="black" points="77,-686.5 77,-820.5 301,-820.5 301,-686.5 77,-686.5"/>
<text text-anchor="start" x="85" y="-808.5" font-family="Helvetica,sans-Serif" font-size="10.00">AbstractAssemblerSolverHybrid</text>
<text text-anchor="start" x="85" y="-797.5" font-family="Helvetica,sans-Serif" font-size="10.00">&lt; ELEMENT_DIM, SPACE_DIM,</text>
<text text-anchor="middle" x="189" y="-786.5" font-family="Helvetica,sans-Serif" font-size="10.00"> PROBLEM_DIM, INTERPOLATION_LEVEL &gt;</text>
<polyline fill="none" stroke="black" points="77,-779.5 301,-779.5 "/>
<text text-anchor="start" x="85" y="-767.5" font-family="Helvetica,sans-Serif" font-size="10.00"># mNaturalNeumannSurfaceTerm</text>
<text text-anchor="start" x="85" y="-756.5" font-family="Helvetica,sans-Serif" font-size="10.00">Assembler</text>
<text text-anchor="start" x="85" y="-745.5" font-family="Helvetica,sans-Serif" font-size="10.00"># mpBoundaryConditions</text>
<polyline fill="none" stroke="black" points="77,-738.5 301,-738.5 "/>
<text text-anchor="start" x="85" y="-726.5" font-family="Helvetica,sans-Serif" font-size="10.00">+ AbstractAssemblerSolverHybrid()</text>
<text text-anchor="start" x="85" y="-715.5" font-family="Helvetica,sans-Serif" font-size="10.00">+ ~AbstractAssemblerSolver</text>
<text text-anchor="start" x="85" y="-704.5" font-family="Helvetica,sans-Serif" font-size="10.00">Hybrid()</text>
<text text-anchor="start" x="85" y="-693.5" font-family="Helvetica,sans-Serif" font-size="10.00">+ SetupGivenLinearSystem()</text>
</a>
</g>
</g>
<!-- Node4&#45;&gt;Node9 -->
<g id="edge10" class="edge"><title>Node4&#45;&gt;Node9</title>
<path fill="none" stroke="midnightblue" d="M145.719,-849.011C150.172,-839.288 154.56,-829.705 158.735,-820.588"/>
<polygon fill="none" stroke="midnightblue" points="142.417,-847.816 141.435,-858.366 148.781,-850.731 142.417,-847.816"/>
</g>
<!-- Node5 -->
<g id="node5" class="node"><title>Node5</title>
<g id="a_node5"><a xlink:href="classAbstractFeAssemblerCommon.html" target="_top" xlink:title="{AbstractFeAssemblerCommon\l\&lt; ELEMENT_DIM, SPACE_DIM,\l PROBLEM_DIM, CAN_ASSEMBLE\l_VECTOR, CAN_ASSEMBLE_MATRIX,\l INTERPOLATION_LEVEL \&gt;\n|# mCurrentSolutionOrGuessReplicated\l|+ AbstractFeAssemblerCommon()\l+ SetCurrentSolution()\l+ ~AbstractFeAssemblerCommon()\l# GetCurrentSolutionOrGuess\lValue()\l# ResetInterpolatedQuantities()\l# IncrementInterpolatedQuantities()\l# IncrementInterpolatedGradient\lQuantities()\l}">
<polygon fill="white" stroke="black" points="123.5,-1410.5 123.5,-1599.5 320.5,-1599.5 320.5,-1410.5 123.5,-1410.5"/>
<text text-anchor="start" x="131.5" y="-1587.5" font-family="Helvetica,sans-Serif" font-size="10.00">AbstractFeAssemblerCommon</text>
<text text-anchor="start" x="131.5" y="-1576.5" font-family="Helvetica,sans-Serif" font-size="10.00">&lt; ELEMENT_DIM, SPACE_DIM,</text>
<text text-anchor="start" x="131.5" y="-1565.5" font-family="Helvetica,sans-Serif" font-size="10.00"> PROBLEM_DIM, CAN_ASSEMBLE</text>
<text text-anchor="start" x="131.5" y="-1554.5" font-family="Helvetica,sans-Serif" font-size="10.00">_VECTOR, CAN_ASSEMBLE_MATRIX,</text>
<text text-anchor="middle" x="222" y="-1543.5" font-family="Helvetica,sans-Serif" font-size="10.00"> INTERPOLATION_LEVEL &gt;</text>
<polyline fill="none" stroke="black" points="123.5,-1536.5 320.5,-1536.5 "/>
<text text-anchor="start" x="131.5" y="-1524.5" font-family="Helvetica,sans-Serif" font-size="10.00"># mCurrentSolutionOrGuessReplicated</text>
<polyline fill="none" stroke="black" points="123.5,-1517.5 320.5,-1517.5 "/>
<text text-anchor="start" x="131.5" y="-1505.5" font-family="Helvetica,sans-Serif" font-size="10.00">+ AbstractFeAssemblerCommon()</text>
<text text-anchor="start" x="131.5" y="-1494.5" font-family="Helvetica,sans-Serif" font-size="10.00">+ SetCurrentSolution()</text>
<text text-anchor="start" x="131.5" y="-1483.5" font-family="Helvetica,sans-Serif" font-size="10.00">+ ~AbstractFeAssemblerCommon()</text>
<text text-anchor="start" x="131.5" y="-1472.5" font-family="Helvetica,sans-Serif" font-size="10.00"># GetCurrentSolutionOrGuess</text>
<text text-anchor="start" x="131.5" y="-1461.5" font-family="Helvetica,sans-Serif" font-size="10.00">Value()</text>
<text text-anchor="start" x="131.5" y="-1450.5" font-family="Helvetica,sans-Serif" font-size="10.00"># ResetInterpolatedQuantities()</text>
<text text-anchor="start" x="131.5" y="-1439.5" font-family="Helvetica,sans-Serif" font-size="10.00"># IncrementInterpolatedQuantities()</text>
<text text-anchor="start" x="131.5" y="-1428.5" font-family="Helvetica,sans-Serif" font-size="10.00"># IncrementInterpolatedGradient</text>
<text text-anchor="start" x="131.5" y="-1417.5" font-family="Helvetica,sans-Serif" font-size="10.00">Quantities()</text>
</a>
</g>
</g>
<!-- Node5&#45;&gt;Node4 -->
<g id="edge4" class="edge"><title>Node5&#45;&gt;Node4</title>
<path fill="none" stroke="midnightblue" d="M116.4,-1419.66C104.477,-1405.41 94.0858,-1389.75 87,-1373 47.7246,-1280.16 53.9808,-1164.15 66.9267,-1080.56"/>
<polygon fill="none" stroke="midnightblue" points="113.963,-1422.2 123.17,-1427.44 119.241,-1417.6 113.963,-1422.2"/>
</g>
<!-- Node8 -->
<g id="node8" class="node"><title>Node8</title>
<g id="a_node8"><a xlink:href="classAbstractFeVolumeIntegralAssembler.html" target="_top" xlink:title="{AbstractFeVolumeIntegral\lAssembler\&lt; ELEMENT_DIM,\l SPACE_DIM, PROBLEM_DIM,\l CAN_ASSEMBLE_VECTOR, CAN\l_ASSEMBLE_MATRIX, INTERPOLATION_LEVEL \&gt;\n|# mpMesh\l# mpQuadRule\l|+ AbstractFeVolumeIntegral\lAssembler()\l+ ~AbstractFeVolumeIntegral\lAssembler()\l# ComputeTransformedBasisFunction\lDerivatives()\l# DoAssemble()\l# ComputeMatrixTerm()\l# ComputeVectorTerm()\l# AssembleOnElement()\l# ElementAssemblyCriterion()\l}">
<polygon fill="white" stroke="black" points="96.5,-1150.5 96.5,-1372.5 347.5,-1372.5 347.5,-1150.5 96.5,-1150.5"/>
<text text-anchor="start" x="104.5" y="-1360.5" font-family="Helvetica,sans-Serif" font-size="10.00">AbstractFeVolumeIntegral</text>
<text text-anchor="start" x="104.5" y="-1349.5" font-family="Helvetica,sans-Serif" font-size="10.00">Assembler&lt; ELEMENT_DIM,</text>
<text text-anchor="start" x="104.5" y="-1338.5" font-family="Helvetica,sans-Serif" font-size="10.00"> SPACE_DIM, PROBLEM_DIM,</text>
<text text-anchor="start" x="104.5" y="-1327.5" font-family="Helvetica,sans-Serif" font-size="10.00"> CAN_ASSEMBLE_VECTOR, CAN</text>
<text text-anchor="middle" x="222" y="-1316.5" font-family="Helvetica,sans-Serif" font-size="10.00">_ASSEMBLE_MATRIX, INTERPOLATION_LEVEL &gt;</text>
<polyline fill="none" stroke="black" points="96.5,-1309.5 347.5,-1309.5 "/>
<text text-anchor="start" x="104.5" y="-1297.5" font-family="Helvetica,sans-Serif" font-size="10.00"># mpMesh</text>
<text text-anchor="start" x="104.5" y="-1286.5" font-family="Helvetica,sans-Serif" font-size="10.00"># mpQuadRule</text>
<polyline fill="none" stroke="black" points="96.5,-1279.5 347.5,-1279.5 "/>
<text text-anchor="start" x="104.5" y="-1267.5" font-family="Helvetica,sans-Serif" font-size="10.00">+ AbstractFeVolumeIntegral</text>
<text text-anchor="start" x="104.5" y="-1256.5" font-family="Helvetica,sans-Serif" font-size="10.00">Assembler()</text>
<text text-anchor="start" x="104.5" y="-1245.5" font-family="Helvetica,sans-Serif" font-size="10.00">+ ~AbstractFeVolumeIntegral</text>
<text text-anchor="start" x="104.5" y="-1234.5" font-family="Helvetica,sans-Serif" font-size="10.00">Assembler()</text>
<text text-anchor="start" x="104.5" y="-1223.5" font-family="Helvetica,sans-Serif" font-size="10.00"># ComputeTransformedBasisFunction</text>
<text text-anchor="start" x="104.5" y="-1212.5" font-family="Helvetica,sans-Serif" font-size="10.00">Derivatives()</text>
<text text-anchor="start" x="104.5" y="-1201.5" font-family="Helvetica,sans-Serif" font-size="10.00"># DoAssemble()</text>
<text text-anchor="start" x="104.5" y="-1190.5" font-family="Helvetica,sans-Serif" font-size="10.00"># ComputeMatrixTerm()</text>
<text text-anchor="start" x="104.5" y="-1179.5" font-family="Helvetica,sans-Serif" font-size="10.00"># ComputeVectorTerm()</text>
<text text-anchor="start" x="104.5" y="-1168.5" font-family="Helvetica,sans-Serif" font-size="10.00"># AssembleOnElement()</text>
<text text-anchor="start" x="104.5" y="-1157.5" font-family="Helvetica,sans-Serif" font-size="10.00"># ElementAssemblyCriterion()</text>
</a>
</g>
</g>
<!-- Node5&#45;&gt;Node8 -->
<g id="edge8" class="edge"><title>Node5&#45;&gt;Node8</title>
<path fill="none" stroke="midnightblue" d="M222,-1400.09C222,-1391.01 222,-1381.79 222,-1372.65"/>
<polygon fill="none" stroke="midnightblue" points="218.5,-1400.28 222,-1410.28 225.5,-1400.28 218.5,-1400.28"/>
</g>
<!-- Node6 -->
<g id="node6" class="node"><title>Node6</title>
<g id="a_node6"><a xlink:href="classAbstractFeAssemblerInterface.html" target="_top" xlink:title="{AbstractFeAssemblerInterface\l\&lt; CAN_ASSEMBLE_VECTOR, CAN\l_ASSEMBLE_MATRIX \&gt;\n|# mVectorToAssemble\l# mMatrixToAssemble\l# mAssembleMatrix\l# mAssembleVector\l# mZeroMatrixBeforeAssembly\l# mZeroVectorBeforeAssembly\l# mOwnershipRangeLo\l# mOwnershipRangeHi\l|+ AbstractFeAssemblerInterface()\l+ SetMatrixToAssemble()\l+ SetVectorToAssemble()\l+ Assemble()\l+ AssembleMatrix()\l+ AssembleVector()\l+ ~AbstractFeAssemblerInterface()\l# DoAssemble()\l}">
<polygon fill="white" stroke="black" points="157,-1637.5 157,-1870.5 339,-1870.5 339,-1637.5 157,-1637.5"/>
<text text-anchor="start" x="165" y="-1858.5" font-family="Helvetica,sans-Serif" font-size="10.00">AbstractFeAssemblerInterface</text>
<text text-anchor="start" x="165" y="-1847.5" font-family="Helvetica,sans-Serif" font-size="10.00">&lt; CAN_ASSEMBLE_VECTOR, CAN</text>
<text text-anchor="middle" x="248" y="-1836.5" font-family="Helvetica,sans-Serif" font-size="10.00">_ASSEMBLE_MATRIX &gt;</text>
<polyline fill="none" stroke="black" points="157,-1829.5 339,-1829.5 "/>
<text text-anchor="start" x="165" y="-1817.5" font-family="Helvetica,sans-Serif" font-size="10.00"># mVectorToAssemble</text>
<text text-anchor="start" x="165" y="-1806.5" font-family="Helvetica,sans-Serif" font-size="10.00"># mMatrixToAssemble</text>
<text text-anchor="start" x="165" y="-1795.5" font-family="Helvetica,sans-Serif" font-size="10.00"># mAssembleMatrix</text>
<text text-anchor="start" x="165" y="-1784.5" font-family="Helvetica,sans-Serif" font-size="10.00"># mAssembleVector</text>
<text text-anchor="start" x="165" y="-1773.5" font-family="Helvetica,sans-Serif" font-size="10.00"># mZeroMatrixBeforeAssembly</text>
<text text-anchor="start" x="165" y="-1762.5" font-family="Helvetica,sans-Serif" font-size="10.00"># mZeroVectorBeforeAssembly</text>
<text text-anchor="start" x="165" y="-1751.5" font-family="Helvetica,sans-Serif" font-size="10.00"># mOwnershipRangeLo</text>
<text text-anchor="start" x="165" y="-1740.5" font-family="Helvetica,sans-Serif" font-size="10.00"># mOwnershipRangeHi</text>
<polyline fill="none" stroke="black" points="157,-1733.5 339,-1733.5 "/>
<text text-anchor="start" x="165" y="-1721.5" font-family="Helvetica,sans-Serif" font-size="10.00">+ AbstractFeAssemblerInterface()</text>
<text text-anchor="start" x="165" y="-1710.5" font-family="Helvetica,sans-Serif" font-size="10.00">+ SetMatrixToAssemble()</text>
<text text-anchor="start" x="165" y="-1699.5" font-family="Helvetica,sans-Serif" font-size="10.00">+ SetVectorToAssemble()</text>
<text text-anchor="start" x="165" y="-1688.5" font-family="Helvetica,sans-Serif" font-size="10.00">+ Assemble()</text>
<text text-anchor="start" x="165" y="-1677.5" font-family="Helvetica,sans-Serif" font-size="10.00">+ AssembleMatrix()</text>
<text text-anchor="start" x="165" y="-1666.5" font-family="Helvetica,sans-Serif" font-size="10.00">+ AssembleVector()</text>
<text text-anchor="start" x="165" y="-1655.5" font-family="Helvetica,sans-Serif" font-size="10.00">+ ~AbstractFeAssemblerInterface()</text>
<text text-anchor="start" x="165" y="-1644.5" font-family="Helvetica,sans-Serif" font-size="10.00"># DoAssemble()</text>
</a>
</g>
</g>
<!-- Node6&#45;&gt;Node5 -->
<g id="edge5" class="edge"><title>Node6&#45;&gt;Node5</title>
<path fill="none" stroke="midnightblue" d="M234.772,-1627.34C233.79,-1618.01 232.81,-1608.7 231.854,-1599.61"/>
<polygon fill="none" stroke="midnightblue" points="231.31,-1627.88 235.837,-1637.46 238.271,-1627.14 231.31,-1627.88"/>
</g>
<!-- Node7 -->
<g id="node7" class="node"><title>Node7</title>
<polygon fill="white" stroke="#bfbfbf" points="302.5,-1908.5 302.5,-1965.5 373.5,-1965.5 373.5,-1908.5 302.5,-1908.5"/>
<text text-anchor="middle" x="338" y="-1953.5" font-family="Helvetica,sans-Serif" font-size="10.00">noncopyable</text>
<polyline fill="none" stroke="#bfbfbf" points="302.5,-1946.5 373.5,-1946.5 "/>
<text text-anchor="middle" x="338" y="-1934.5" font-family="Helvetica,sans-Serif" font-size="10.00"> </text>
<polyline fill="none" stroke="#bfbfbf" points="302.5,-1927.5 373.5,-1927.5 "/>
<text text-anchor="middle" x="338" y="-1915.5" font-family="Helvetica,sans-Serif" font-size="10.00"> </text>
</g>
<!-- Node7&#45;&gt;Node6 -->
<g id="edge6" class="edge"><title>Node7&#45;&gt;Node6</title>
<path fill="none" stroke="#8b1a1a" d="M319.663,-1899.12C315.344,-1890.44 310.513,-1880.72 305.454,-1870.55"/>
<polygon fill="none" stroke="#8b1a1a" points="316.548,-1900.72 324.135,-1908.12 322.816,-1897.6 316.548,-1900.72"/>
</g>
<!-- Node11 -->
<g id="node11" class="node"><title>Node11</title>
<g id="a_node11"><a xlink:href="classAbstractLinearPdeSolver.html" target="_top" xlink:title="{AbstractLinearPdeSolver\l\&lt; ELEMENT_DIM, SPACE_DIM,\l PROBLEM_DIM \&gt;\n|# mpLinearSystem\l# mpMesh\l|+ AbstractLinearPdeSolver()\l+ ~AbstractLinearPdeSolver()\l+ InitialiseForSolve()\l+ PrepareForSetupLinearSystem()\l+ FinaliseLinearSystem()\l+ FollowingSolveLinearSystem()\l+ SetupLinearSystem()\l+ GetLinearSystem()\l}">
<polygon fill="white" stroke="black" points="293.5,-886 293.5,-1053 458.5,-1053 458.5,-886 293.5,-886"/>
<text text-anchor="start" x="301.5" y="-1041" font-family="Helvetica,sans-Serif" font-size="10.00">AbstractLinearPdeSolver</text>
<text text-anchor="start" x="301.5" y="-1030" font-family="Helvetica,sans-Serif" font-size="10.00">&lt; ELEMENT_DIM, SPACE_DIM,</text>
<text text-anchor="middle" x="376" y="-1019" font-family="Helvetica,sans-Serif" font-size="10.00"> PROBLEM_DIM &gt;</text>
<polyline fill="none" stroke="black" points="293.5,-1012 458.5,-1012 "/>
<text text-anchor="start" x="301.5" y="-1000" font-family="Helvetica,sans-Serif" font-size="10.00"># mpLinearSystem</text>
<text text-anchor="start" x="301.5" y="-989" font-family="Helvetica,sans-Serif" font-size="10.00"># mpMesh</text>
<polyline fill="none" stroke="black" points="293.5,-982 458.5,-982 "/>
<text text-anchor="start" x="301.5" y="-970" font-family="Helvetica,sans-Serif" font-size="10.00">+ AbstractLinearPdeSolver()</text>
<text text-anchor="start" x="301.5" y="-959" font-family="Helvetica,sans-Serif" font-size="10.00">+ ~AbstractLinearPdeSolver()</text>
<text text-anchor="start" x="301.5" y="-948" font-family="Helvetica,sans-Serif" font-size="10.00">+ InitialiseForSolve()</text>
<text text-anchor="start" x="301.5" y="-937" font-family="Helvetica,sans-Serif" font-size="10.00">+ PrepareForSetupLinearSystem()</text>
<text text-anchor="start" x="301.5" y="-926" font-family="Helvetica,sans-Serif" font-size="10.00">+ FinaliseLinearSystem()</text>
<text text-anchor="start" x="301.5" y="-915" font-family="Helvetica,sans-Serif" font-size="10.00">+ FollowingSolveLinearSystem()</text>
<text text-anchor="start" x="301.5" y="-904" font-family="Helvetica,sans-Serif" font-size="10.00">+ SetupLinearSystem()</text>
<text text-anchor="start" x="301.5" y="-893" font-family="Helvetica,sans-Serif" font-size="10.00">+ GetLinearSystem()</text>
</a>
</g>
</g>
<!-- Node7&#45;&gt;Node11 -->
<g id="edge13" class="edge"><title>Node7&#45;&gt;Node11</title>
<path fill="none" stroke="#8b1a1a" d="M350.511,-1898.81C361.584,-1862.55 376,-1805.63 376,-1755 376,-1755 376,-1755 376,-1260.5 376,-1190.52 376,-1111.04 376,-1053"/>
<polygon fill="none" stroke="#8b1a1a" points="347.135,-1897.88 347.491,-1908.47 353.816,-1899.97 347.135,-1897.88"/>
</g>
<!-- Node8&#45;&gt;Node4 -->
<g id="edge7" class="edge"><title>Node8&#45;&gt;Node4</title>
<path fill="none" stroke="orange" d="M168.166,-1141.33C159.143,-1121.35 149.814,-1100.7 140.896,-1080.96"/>
<polygon fill="orange" stroke="orange" points="164.981,-1142.78 172.288,-1150.45 171.361,-1139.9 164.981,-1142.78"/>
<text text-anchor="start" x="161" y="-1124" font-family="Helvetica,sans-Serif" font-size="10.00"> &lt; ELEMENT_DIM, SPACE</text>
<text text-anchor="start" x="161" y="-1113" font-family="Helvetica,sans-Serif" font-size="10.00">_DIM, PROBLEM_DIM, true,</text>
<text text-anchor="middle" x="237" y="-1102" font-family="Helvetica,sans-Serif" font-size="10.00"> true, INTERPOLATION_LEVEL &gt;</text>
</g>
<!-- Node9&#45;&gt;Node3 -->
<g id="edge9" class="edge"><title>Node9&#45;&gt;Node3</title>
<path fill="none" stroke="orange" d="M177.434,-676.322C174.988,-660.217 172.427,-643.347 170.044,-627.649"/>
<polygon fill="orange" stroke="orange" points="173.977,-676.872 178.939,-686.234 180.898,-675.821 173.977,-676.872"/>
<text text-anchor="start" x="176" y="-660" font-family="Helvetica,sans-Serif" font-size="10.00"> &lt; ELEMENT_DIM, SPACE</text>
<text text-anchor="middle" x="238" y="-649" font-family="Helvetica,sans-Serif" font-size="10.00">_DIM, 1, NORMAL &gt;</text>
</g>
<!-- Node10 -->
<g id="node10" class="node"><title>Node10</title>
<g id="a_node10"><a xlink:href="classAbstractStaticLinearPdeSolver.html" target="_top" xlink:title="{AbstractStaticLinearPdeSolver\l\&lt; ELEMENT_DIM, SPACE_DIM, 1 \&gt;\n||+ AbstractStaticLinearPdeSolver()\l+ Solve()\l}">
<polygon fill="white" stroke="black" points="277,-521 277,-600 459,-600 459,-521 277,-521"/>
<text text-anchor="start" x="285" y="-588" font-family="Helvetica,sans-Serif" font-size="10.00">AbstractStaticLinearPdeSolver</text>
<text text-anchor="middle" x="368" y="-577" font-family="Helvetica,sans-Serif" font-size="10.00">&lt; ELEMENT_DIM, SPACE_DIM, 1 &gt;</text>
<polyline fill="none" stroke="black" points="277,-570 459,-570 "/>
<text text-anchor="middle" x="368" y="-558" font-family="Helvetica,sans-Serif" font-size="10.00"> </text>
<polyline fill="none" stroke="black" points="277,-551 459,-551 "/>
<text text-anchor="start" x="285" y="-539" font-family="Helvetica,sans-Serif" font-size="10.00">+ AbstractStaticLinearPdeSolver()</text>
<text text-anchor="start" x="285" y="-528" font-family="Helvetica,sans-Serif" font-size="10.00">+ Solve()</text>
</a>
</g>
</g>
<!-- Node10&#45;&gt;Node2 -->
<g id="edge11" class="edge"><title>Node10&#45;&gt;Node2</title>
<path fill="none" stroke="midnightblue" d="M373.754,-510.59C377.093,-465.384 377.014,-397.214 355,-343 348.051,-325.886 336.861,-309.847 324.585,-295.769"/>
<polygon fill="none" stroke="midnightblue" points="370.253,-510.466 372.921,-520.719 377.229,-511.04 370.253,-510.466"/>
</g>
<!-- Node10&#45;&gt;Node13 -->
<g id="edge18" class="edge"><title>Node10&#45;&gt;Node13</title>
<path fill="none" stroke="midnightblue" d="M336.099,-512.096C324.125,-494.302 310.416,-473.931 298.016,-455.505"/>
<polygon fill="none" stroke="midnightblue" points="333.338,-514.262 341.825,-520.604 339.145,-510.354 333.338,-514.262"/>
</g>
<!-- Node11&#45;&gt;Node10 -->
<g id="edge12" class="edge"><title>Node11&#45;&gt;Node10</title>
<path fill="none" stroke="midnightblue" d="M372.542,-875.811C371.953,-857.64 371.403,-838.723 371,-821 369.219,-742.624 368.473,-650.908 368.178,-600.194"/>
<polygon fill="none" stroke="midnightblue" points="369.044,-875.938 372.872,-885.817 376.04,-875.707 369.044,-875.938"/>
</g>
<!-- Node12 -->
<g id="node12" class="node"><title>Node12</title>
<g id="a_node12"><a xlink:href="classAbstractStaticLinearPdeSolver.html" target="_top" xlink:title="{AbstractStaticLinearPdeSolver\l\&lt; ELEMENT_DIM, SPACE_DIM,\l PROBLEM_DIM \&gt;\n||+ AbstractStaticLinearPdeSolver()\l+ Solve()\l}">
<polygon fill="white" stroke="black" points="380.5,-708.5 380.5,-798.5 545.5,-798.5 545.5,-708.5 380.5,-708.5"/>
<text text-anchor="start" x="388.5" y="-786.5" font-family="Helvetica,sans-Serif" font-size="10.00">AbstractStaticLinearPdeSolver</text>
<text text-anchor="start" x="388.5" y="-775.5" font-family="Helvetica,sans-Serif" font-size="10.00">&lt; ELEMENT_DIM, SPACE_DIM,</text>
<text text-anchor="middle" x="463" y="-764.5" font-family="Helvetica,sans-Serif" font-size="10.00"> PROBLEM_DIM &gt;</text>
<polyline fill="none" stroke="black" points="380.5,-757.5 545.5,-757.5 "/>
<text text-anchor="middle" x="463" y="-745.5" font-family="Helvetica,sans-Serif" font-size="10.00"> </text>
<polyline fill="none" stroke="black" points="380.5,-738.5 545.5,-738.5 "/>
<text text-anchor="start" x="388.5" y="-726.5" font-family="Helvetica,sans-Serif" font-size="10.00">+ AbstractStaticLinearPdeSolver()</text>
<text text-anchor="start" x="388.5" y="-715.5" font-family="Helvetica,sans-Serif" font-size="10.00">+ Solve()</text>
</a>
</g>
</g>
<!-- Node11&#45;&gt;Node12 -->
<g id="edge15" class="edge"><title>Node11&#45;&gt;Node12</title>
<path fill="none" stroke="midnightblue" d="M413.48,-876.308C424.42,-849.397 435.879,-821.212 445.015,-798.74"/>
<polygon fill="none" stroke="midnightblue" points="410.16,-875.18 409.636,-885.762 416.645,-877.816 410.16,-875.18"/>
</g>
<!-- Node12&#45;&gt;Node10 -->
<g id="edge14" class="edge"><title>Node12&#45;&gt;Node10</title>
<path fill="none" stroke="orange" d="M436.45,-699.121C420.795,-667.646 401.344,-628.539 387.182,-600.065"/>
<polygon fill="orange" stroke="orange" points="433.379,-700.806 440.966,-708.201 439.647,-697.688 433.379,-700.806"/>
<text text-anchor="start" x="418" y="-660" font-family="Helvetica,sans-Serif" font-size="10.00"> &lt; ELEMENT_DIM, SPACE</text>
<text text-anchor="middle" x="480" y="-649" font-family="Helvetica,sans-Serif" font-size="10.00">_DIM, 1 &gt;</text>
</g>
<!-- Node13&#45;&gt;Node2 -->
<g id="edge16" class="edge"><title>Node13&#45;&gt;Node2</title>
<path fill="none" stroke="orange" d="M261,-332.974C261,-320.592 261,-307.756 261,-295.73"/>
<polygon fill="orange" stroke="orange" points="257.5,-333.239 261,-343.239 264.5,-333.239 257.5,-333.239"/>
<text text-anchor="middle" x="293.5" y="-317" font-family="Helvetica,sans-Serif" font-size="10.00"> &lt; DIM, DIM &gt;</text>
</g>
</g>
</svg>
