<?xml version="1.0" encoding="UTF-8" standalone="no"?>
<!DOCTYPE svg PUBLIC "-//W3C//DTD SVG 1.1//EN"
 "http://www.w3.org/Graphics/SVG/1.1/DTD/svg11.dtd">
<!-- Generated by graphviz version 2.38.0 (20140413.2041)
 -->
<!-- Title: StochasticOxygenBasedCellCycleModel Pages: 1 -->
<svg width="1126pt" height="1385pt"
 viewBox="0.00 0.00 1125.50 1385.00" xmlns="http://www.w3.org/2000/svg" xmlns:xlink="http://www.w3.org/1999/xlink">
<g id="graph0" class="graph" transform="scale(1 1) rotate(0) translate(4 1381)">
<title>StochasticOxygenBasedCellCycleModel</title>
<polygon fill="white" stroke="none" points="-4,4 -4,-1381 1121.5,-1381 1121.5,4 -4,4"/>
<!-- Node1 -->
<g id="node1" class="node"><title>Node1</title>
<polygon fill="#bfbfbf" stroke="black" points="869.5,-0.5 869.5,-189.5 1049.5,-189.5 1049.5,-0.5 869.5,-0.5"/>
<text text-anchor="start" x="877.5" y="-177.5" font-family="Helvetica,sans-Serif" font-size="10.00">StochasticOxygenBasedCell</text>
<text text-anchor="middle" x="959.5" y="-166.5" font-family="Helvetica,sans-Serif" font-size="10.00">CycleModel</text>
<polyline fill="none" stroke="black" points="869.5,-159.5 1049.5,-159.5 "/>
<text text-anchor="middle" x="959.5" y="-147.5" font-family="Helvetica,sans-Serif" font-size="10.00"> </text>
<polyline fill="none" stroke="black" points="869.5,-140.5 1049.5,-140.5 "/>
<text text-anchor="start" x="877.5" y="-128.5" font-family="Helvetica,sans-Serif" font-size="10.00">+ StochasticOxygenBasedCell</text>
<text text-anchor="start" x="877.5" y="-117.5" font-family="Helvetica,sans-Serif" font-size="10.00">CycleModel()</text>
<text text-anchor="start" x="877.5" y="-106.5" font-family="Helvetica,sans-Serif" font-size="10.00">+ InitialiseDaughterCell()</text>
<text text-anchor="start" x="877.5" y="-95.5" font-family="Helvetica,sans-Serif" font-size="10.00">+ Initialise()</text>
<text text-anchor="start" x="877.5" y="-84.5" font-family="Helvetica,sans-Serif" font-size="10.00">+ ResetForDivision()</text>
<text text-anchor="start" x="877.5" y="-73.5" font-family="Helvetica,sans-Serif" font-size="10.00">+ GetG2Duration()</text>
<text text-anchor="start" x="877.5" y="-62.5" font-family="Helvetica,sans-Serif" font-size="10.00">+ CreateCellCycleModel()</text>
<text text-anchor="start" x="877.5" y="-51.5" font-family="Helvetica,sans-Serif" font-size="10.00">+ OutputCellCycleModelParameters()</text>
<text text-anchor="start" x="877.5" y="-40.5" font-family="Helvetica,sans-Serif" font-size="10.00"># StochasticOxygenBasedCell</text>
<text text-anchor="start" x="877.5" y="-29.5" font-family="Helvetica,sans-Serif" font-size="10.00">CycleModel()</text>
<text text-anchor="start" x="877.5" y="-18.5" font-family="Helvetica,sans-Serif" font-size="10.00">&#45; serialize()</text>
<text text-anchor="start" x="877.5" y="-7.5" font-family="Helvetica,sans-Serif" font-size="10.00">&#45; GenerateStochasticG2Duration()</text>
</g>
<!-- Node2 -->
<g id="node2" class="node"><title>Node2</title>
<g id="a_node2"><a xlink:href="classSimpleOxygenBasedCellCycleModel.html" target="_top" xlink:title="{SimpleOxygenBasedCellCycle\lModel\n||+ SimpleOxygenBasedCellCycle\lModel()\l+ UpdateCellCyclePhase()\l+ UpdateHypoxicDuration()\l+ GetCurrentHypoxicDuration()\l+ GetCurrentHypoxiaOnsetTime()\l+ CreateCellCycleModel()\l+ GetHypoxicConcentration()\l+ SetHypoxicConcentration()\l+ GetQuiescentConcentration()\l+ SetQuiescentConcentration()\l+ GetCriticalHypoxicDuration()\l+ SetCriticalHypoxicDuration()\l+ SetCurrentHypoxiaOnsetTime()\l+ OutputCellCycleModelParameters()\l# SimpleOxygenBasedCellCycle\lModel()\l&#45; serialize()\l}">
<polygon fill="white" stroke="black" points="755.5,-227.5 755.5,-482.5 935.5,-482.5 935.5,-227.5 755.5,-227.5"/>
<text text-anchor="start" x="763.5" y="-470.5" font-family="Helvetica,sans-Serif" font-size="10.00">SimpleOxygenBasedCellCycle</text>
<text text-anchor="middle" x="845.5" y="-459.5" font-family="Helvetica,sans-Serif" font-size="10.00">Model</text>
<polyline fill="none" stroke="black" points="755.5,-452.5 935.5,-452.5 "/>
<text text-anchor="middle" x="845.5" y="-440.5" font-family="Helvetica,sans-Serif" font-size="10.00"> </text>
<polyline fill="none" stroke="black" points="755.5,-433.5 935.5,-433.5 "/>
<text text-anchor="start" x="763.5" y="-421.5" font-family="Helvetica,sans-Serif" font-size="10.00">+ SimpleOxygenBasedCellCycle</text>
<text text-anchor="start" x="763.5" y="-410.5" font-family="Helvetica,sans-Serif" font-size="10.00">Model()</text>
<text text-anchor="start" x="763.5" y="-399.5" font-family="Helvetica,sans-Serif" font-size="10.00">+ UpdateCellCyclePhase()</text>
<text text-anchor="start" x="763.5" y="-388.5" font-family="Helvetica,sans-Serif" font-size="10.00">+ UpdateHypoxicDuration()</text>
<text text-anchor="start" x="763.5" y="-377.5" font-family="Helvetica,sans-Serif" font-size="10.00">+ GetCurrentHypoxicDuration()</text>
<text text-anchor="start" x="763.5" y="-366.5" font-family="Helvetica,sans-Serif" font-size="10.00">+ GetCurrentHypoxiaOnsetTime()</text>
<text text-anchor="start" x="763.5" y="-355.5" font-family="Helvetica,sans-Serif" font-size="10.00">+ CreateCellCycleModel()</text>
<text text-anchor="start" x="763.5" y="-344.5" font-family="Helvetica,sans-Serif" font-size="10.00">+ GetHypoxicConcentration()</text>
<text text-anchor="start" x="763.5" y="-333.5" font-family="Helvetica,sans-Serif" font-size="10.00">+ SetHypoxicConcentration()</text>
<text text-anchor="start" x="763.5" y="-322.5" font-family="Helvetica,sans-Serif" font-size="10.00">+ GetQuiescentConcentration()</text>
<text text-anchor="start" x="763.5" y="-311.5" font-family="Helvetica,sans-Serif" font-size="10.00">+ SetQuiescentConcentration()</text>
<text text-anchor="start" x="763.5" y="-300.5" font-family="Helvetica,sans-Serif" font-size="10.00">+ GetCriticalHypoxicDuration()</text>
<text text-anchor="start" x="763.5" y="-289.5" font-family="Helvetica,sans-Serif" font-size="10.00">+ SetCriticalHypoxicDuration()</text>
<text text-anchor="start" x="763.5" y="-278.5" font-family="Helvetica,sans-Serif" font-size="10.00">+ SetCurrentHypoxiaOnsetTime()</text>
<text text-anchor="start" x="763.5" y="-267.5" font-family="Helvetica,sans-Serif" font-size="10.00">+ OutputCellCycleModelParameters()</text>
<text text-anchor="start" x="763.5" y="-256.5" font-family="Helvetica,sans-Serif" font-size="10.00"># SimpleOxygenBasedCellCycle</text>
<text text-anchor="start" x="763.5" y="-245.5" font-family="Helvetica,sans-Serif" font-size="10.00">Model()</text>
<text text-anchor="start" x="763.5" y="-234.5" font-family="Helvetica,sans-Serif" font-size="10.00">&#45; serialize()</text>
</a>
</g>
</g>
<!-- Node2&#45;&gt;Node1 -->
<g id="edge1" class="edge"><title>Node2&#45;&gt;Node1</title>
<path fill="none" stroke="midnightblue" d="M905.548,-218.103C909.767,-208.553 913.965,-199.054 918.047,-189.815"/>
<polygon fill="none" stroke="midnightblue" points="902.338,-216.706 901.498,-227.267 908.741,-219.535 902.338,-216.706"/>
</g>
<!-- Node3 -->
<g id="node3" class="node"><title>Node3</title>
<g id="a_node3"><a xlink:href="classAbstractSimplePhaseBasedCellCycleModel.html" target="_top" xlink:title="{AbstractSimplePhaseBased\lCellCycleModel\n||+ AbstractSimplePhaseBased\lCellCycleModel()\l+ ~AbstractSimplePhaseBased\lCellCycleModel()\l+ ResetForDivision()\l+ UpdateCellCyclePhase()\l+ InitialiseDaughterCell()\l+ Initialise()\l+ OutputCellCycleModelParameters()\l# SetG1Duration()\l# AbstractSimplePhaseBased\lCellCycleModel()\l&#45; serialize()\l}">
<polygon fill="white" stroke="black" points="633.5,-520.5 633.5,-720.5 813.5,-720.5 813.5,-520.5 633.5,-520.5"/>
<text text-anchor="start" x="641.5" y="-708.5" font-family="Helvetica,sans-Serif" font-size="10.00">AbstractSimplePhaseBased</text>
<text text-anchor="middle" x="723.5" y="-697.5" font-family="Helvetica,sans-Serif" font-size="10.00">CellCycleModel</text>
<polyline fill="none" stroke="black" points="633.5,-690.5 813.5,-690.5 "/>
<text text-anchor="middle" x="723.5" y="-678.5" font-family="Helvetica,sans-Serif" font-size="10.00"> </text>
<polyline fill="none" stroke="black" points="633.5,-671.5 813.5,-671.5 "/>
<text text-anchor="start" x="641.5" y="-659.5" font-family="Helvetica,sans-Serif" font-size="10.00">+ AbstractSimplePhaseBased</text>
<text text-anchor="start" x="641.5" y="-648.5" font-family="Helvetica,sans-Serif" font-size="10.00">CellCycleModel()</text>
<text text-anchor="start" x="641.5" y="-637.5" font-family="Helvetica,sans-Serif" font-size="10.00">+ ~AbstractSimplePhaseBased</text>
<text text-anchor="start" x="641.5" y="-626.5" font-family="Helvetica,sans-Serif" font-size="10.00">CellCycleModel()</text>
<text text-anchor="start" x="641.5" y="-615.5" font-family="Helvetica,sans-Serif" font-size="10.00">+ ResetForDivision()</text>
<text text-anchor="start" x="641.5" y="-604.5" font-family="Helvetica,sans-Serif" font-size="10.00">+ UpdateCellCyclePhase()</text>
<text text-anchor="start" x="641.5" y="-593.5" font-family="Helvetica,sans-Serif" font-size="10.00">+ InitialiseDaughterCell()</text>
<text text-anchor="start" x="641.5" y="-582.5" font-family="Helvetica,sans-Serif" font-size="10.00">+ Initialise()</text>
<text text-anchor="start" x="641.5" y="-571.5" font-family="Helvetica,sans-Serif" font-size="10.00">+ OutputCellCycleModelParameters()</text>
<text text-anchor="start" x="641.5" y="-560.5" font-family="Helvetica,sans-Serif" font-size="10.00"># SetG1Duration()</text>
<text text-anchor="start" x="641.5" y="-549.5" font-family="Helvetica,sans-Serif" font-size="10.00"># AbstractSimplePhaseBased</text>
<text text-anchor="start" x="641.5" y="-538.5" font-family="Helvetica,sans-Serif" font-size="10.00">CellCycleModel()</text>
<text text-anchor="start" x="641.5" y="-527.5" font-family="Helvetica,sans-Serif" font-size="10.00">&#45; serialize()</text>
</a>
</g>
</g>
<!-- Node3&#45;&gt;Node2 -->
<g id="edge2" class="edge"><title>Node3&#45;&gt;Node2</title>
<path fill="none" stroke="midnightblue" d="M773.736,-510.999C778.051,-501.679 782.44,-492.2 786.813,-482.754"/>
<polygon fill="none" stroke="midnightblue" points="770.475,-509.712 769.449,-520.257 776.827,-512.653 770.475,-509.712"/>
</g>
<!-- Node4 -->
<g id="node4" class="node"><title>Node4</title>
<g id="a_node4"><a xlink:href="classAbstractPhaseBasedCellCycleModel.html" target="_top" xlink:title="{AbstractPhaseBasedCellCycle\lModel\n||+ AbstractPhaseBasedCellCycle\lModel()\l+ ~AbstractPhaseBasedCellCycle\lModel()\l+ ReadyToDivide()\l+ ResetForDivision()\l+ UpdateCellCyclePhase()\l+ GetCurrentCellCyclePhase()\l+ GetG1Duration()\l+ GetStemCellG1Duration()\l+ GetTransitCellG1Duration()\l+ GetSG2MDuration()\land 13 more...\l# AbstractPhaseBasedCellCycle\lModel()\l&#45; serialize()\l}">
<polygon fill="white" stroke="black" points="556,-768.5 556,-1001.5 723,-1001.5 723,-768.5 556,-768.5"/>
<text text-anchor="start" x="564" y="-989.5" font-family="Helvetica,sans-Serif" font-size="10.00">AbstractPhaseBasedCellCycle</text>
<text text-anchor="middle" x="639.5" y="-978.5" font-family="Helvetica,sans-Serif" font-size="10.00">Model</text>
<polyline fill="none" stroke="black" points="556,-971.5 723,-971.5 "/>
<text text-anchor="middle" x="639.5" y="-959.5" font-family="Helvetica,sans-Serif" font-size="10.00"> </text>
<polyline fill="none" stroke="black" points="556,-952.5 723,-952.5 "/>
<text text-anchor="start" x="564" y="-940.5" font-family="Helvetica,sans-Serif" font-size="10.00">+ AbstractPhaseBasedCellCycle</text>
<text text-anchor="start" x="564" y="-929.5" font-family="Helvetica,sans-Serif" font-size="10.00">Model()</text>
<text text-anchor="start" x="564" y="-918.5" font-family="Helvetica,sans-Serif" font-size="10.00">+ ~AbstractPhaseBasedCellCycle</text>
<text text-anchor="start" x="564" y="-907.5" font-family="Helvetica,sans-Serif" font-size="10.00">Model()</text>
<text text-anchor="start" x="564" y="-896.5" font-family="Helvetica,sans-Serif" font-size="10.00">+ ReadyToDivide()</text>
<text text-anchor="start" x="564" y="-885.5" font-family="Helvetica,sans-Serif" font-size="10.00">+ ResetForDivision()</text>
<text text-anchor="start" x="564" y="-874.5" font-family="Helvetica,sans-Serif" font-size="10.00">+ UpdateCellCyclePhase()</text>
<text text-anchor="start" x="564" y="-863.5" font-family="Helvetica,sans-Serif" font-size="10.00">+ GetCurrentCellCyclePhase()</text>
<text text-anchor="start" x="564" y="-852.5" font-family="Helvetica,sans-Serif" font-size="10.00">+ GetG1Duration()</text>
<text text-anchor="start" x="564" y="-841.5" font-family="Helvetica,sans-Serif" font-size="10.00">+ GetStemCellG1Duration()</text>
<text text-anchor="start" x="564" y="-830.5" font-family="Helvetica,sans-Serif" font-size="10.00">+ GetTransitCellG1Duration()</text>
<text text-anchor="start" x="564" y="-819.5" font-family="Helvetica,sans-Serif" font-size="10.00">+ GetSG2MDuration()</text>
<text text-anchor="start" x="564" y="-808.5" font-family="Helvetica,sans-Serif" font-size="10.00">and 13 more...</text>
<text text-anchor="start" x="564" y="-797.5" font-family="Helvetica,sans-Serif" font-size="10.00"># AbstractPhaseBasedCellCycle</text>
<text text-anchor="start" x="564" y="-786.5" font-family="Helvetica,sans-Serif" font-size="10.00">Model()</text>
<text text-anchor="start" x="564" y="-775.5" font-family="Helvetica,sans-Serif" font-size="10.00">&#45; serialize()</text>
</a>
</g>
</g>
<!-- Node4&#45;&gt;Node3 -->
<g id="edge3" class="edge"><title>Node4&#45;&gt;Node3</title>
<path fill="none" stroke="midnightblue" d="M679.587,-758.728C683.678,-745.943 687.794,-733.082 691.778,-720.632"/>
<polygon fill="none" stroke="midnightblue" points="676.18,-757.891 676.466,-768.482 682.847,-760.024 676.18,-757.891"/>
</g>
<!-- Node5 -->
<g id="node5" class="node"><title>Node5</title>
<g id="a_node5"><a xlink:href="classAbstractCellCycleModel.html" target="_top" xlink:title="{AbstractCellCycleModel\n||+ AbstractCellCycleModel()\l+ ~AbstractCellCycleModel()\l+ SetCell()\l+ Initialise()\l+ InitialiseDaughterCell()\l+ GetCell()\l+ SetBirthTime()\l+ SetDimension()\l+ GetDimension()\l+ GetBirthTime()\land 9 more...\l# AbstractCellCycleModel()\l&#45; serialize()\l&#45; operator=()\l}">
<polygon fill="white" stroke="black" points="282,-1049.5 282,-1249.5 425,-1249.5 425,-1049.5 282,-1049.5"/>
<text text-anchor="middle" x="353.5" y="-1237.5" font-family="Helvetica,sans-Serif" font-size="10.00">AbstractCellCycleModel</text>
<polyline fill="none" stroke="black" points="282,-1230.5 425,-1230.5 "/>
<text text-anchor="middle" x="353.5" y="-1218.5" font-family="Helvetica,sans-Serif" font-size="10.00"> </text>
<polyline fill="none" stroke="black" points="282,-1211.5 425,-1211.5 "/>
<text text-anchor="start" x="290" y="-1199.5" font-family="Helvetica,sans-Serif" font-size="10.00">+ AbstractCellCycleModel()</text>
<text text-anchor="start" x="290" y="-1188.5" font-family="Helvetica,sans-Serif" font-size="10.00">+ ~AbstractCellCycleModel()</text>
<text text-anchor="start" x="290" y="-1177.5" font-family="Helvetica,sans-Serif" font-size="10.00">+ SetCell()</text>
<text text-anchor="start" x="290" y="-1166.5" font-family="Helvetica,sans-Serif" font-size="10.00">+ Initialise()</text>
<text text-anchor="start" x="290" y="-1155.5" font-family="Helvetica,sans-Serif" font-size="10.00">+ InitialiseDaughterCell()</text>
<text text-anchor="start" x="290" y="-1144.5" font-family="Helvetica,sans-Serif" font-size="10.00">+ GetCell()</text>
<text text-anchor="start" x="290" y="-1133.5" font-family="Helvetica,sans-Serif" font-size="10.00">+ SetBirthTime()</text>
<text text-anchor="start" x="290" y="-1122.5" font-family="Helvetica,sans-Serif" font-size="10.00">+ SetDimension()</text>
<text text-anchor="start" x="290" y="-1111.5" font-family="Helvetica,sans-Serif" font-size="10.00">+ GetDimension()</text>
<text text-anchor="start" x="290" y="-1100.5" font-family="Helvetica,sans-Serif" font-size="10.00">+ GetBirthTime()</text>
<text text-anchor="start" x="290" y="-1089.5" font-family="Helvetica,sans-Serif" font-size="10.00">and 9 more...</text>
<text text-anchor="start" x="290" y="-1078.5" font-family="Helvetica,sans-Serif" font-size="10.00"># AbstractCellCycleModel()</text>
<text text-anchor="start" x="290" y="-1067.5" font-family="Helvetica,sans-Serif" font-size="10.00">&#45; serialize()</text>
<text text-anchor="start" x="290" y="-1056.5" font-family="Helvetica,sans-Serif" font-size="10.00">&#45; operator=()</text>
</a>
</g>
</g>
<!-- Node5&#45;&gt;Node4 -->
<g id="edge4" class="edge"><title>Node5&#45;&gt;Node4</title>
<path fill="none" stroke="midnightblue" d="M432.858,-1075.66C471.174,-1040.49 517.15,-998.297 555.996,-962.643"/>
<polygon fill="none" stroke="midnightblue" points="430.301,-1073.26 425.301,-1082.6 435.035,-1078.42 430.301,-1073.26"/>
</g>
<!-- Node6 -->
<g id="node6" class="node"><title>Node6</title>
<g id="a_node6"><a xlink:href="classIdentifiable.html" target="_top" xlink:title="{Identifiable\n||+ ~Identifiable()\l+ GetIdentifier()\l&#45; TidyTemplatedExportIdentifier()\l}">
<polygon fill="white" stroke="black" points="0,-1297.5 0,-1376.5 159,-1376.5 159,-1297.5 0,-1297.5"/>
<text text-anchor="middle" x="79.5" y="-1364.5" font-family="Helvetica,sans-Serif" font-size="10.00">Identifiable</text>
<polyline fill="none" stroke="black" points="0,-1357.5 159,-1357.5 "/>
<text text-anchor="middle" x="79.5" y="-1345.5" font-family="Helvetica,sans-Serif" font-size="10.00"> </text>
<polyline fill="none" stroke="black" points="0,-1338.5 159,-1338.5 "/>
<text text-anchor="start" x="8" y="-1326.5" font-family="Helvetica,sans-Serif" font-size="10.00">+ ~Identifiable()</text>
<text text-anchor="start" x="8" y="-1315.5" font-family="Helvetica,sans-Serif" font-size="10.00">+ GetIdentifier()</text>
<text text-anchor="start" x="8" y="-1304.5" font-family="Helvetica,sans-Serif" font-size="10.00">&#45; TidyTemplatedExportIdentifier()</text>
</a>
</g>
</g>
<!-- Node6&#45;&gt;Node5 -->
<g id="edge5" class="edge"><title>Node6&#45;&gt;Node5</title>
<path fill="none" stroke="midnightblue" d="M144.95,-1291.69C186.185,-1263.77 239.443,-1227.72 281.817,-1199.03"/>
<polygon fill="none" stroke="midnightblue" points="142.924,-1288.83 136.606,-1297.34 146.849,-1294.63 142.924,-1288.83"/>
</g>
<!-- Node7 -->
<g id="node7" class="node"><title>Node7</title>
<g id="a_node7"><a xlink:href="classdouble.html" target="_top" xlink:title="{double\n||}">
<polygon fill="white" stroke="black" points="684,-1308.5 684,-1365.5 729,-1365.5 729,-1308.5 684,-1308.5"/>
<text text-anchor="middle" x="706.5" y="-1353.5" font-family="Helvetica,sans-Serif" font-size="10.00">double</text>
<polyline fill="none" stroke="black" points="684,-1346.5 729,-1346.5 "/>
<text text-anchor="middle" x="706.5" y="-1334.5" font-family="Helvetica,sans-Serif" font-size="10.00"> </text>
<polyline fill="none" stroke="black" points="684,-1327.5 729,-1327.5 "/>
<text text-anchor="middle" x="706.5" y="-1315.5" font-family="Helvetica,sans-Serif" font-size="10.00"> </text>
</a>
</g>
</g>
<!-- Node7&#45;&gt;Node1 -->
<g id="edge13" class="edge"><title>Node7&#45;&gt;Node1</title>
<path fill="none" stroke="#404040" d="M729.049,-1333.1C798.817,-1322.73 1006.5,-1280.93 1006.5,-1150.5 1006.5,-1150.5 1006.5,-1150.5 1006.5,-354 1006.5,-303.322 997.614,-247.937 987.57,-201.52"/>
<polygon fill="none" stroke="#404040" points="987.527,-201.326 982.322,-196.336 984.926,-189.611 990.131,-194.602 987.527,-201.326"/>
<text text-anchor="middle" x="1062" y="-742" font-family="Helvetica,sans-Serif" font-size="10.00"> &#45;mStochasticG2Duration</text>
</g>
<!-- Node7&#45;&gt;Node2 -->
<g id="edge12" class="edge"><title>Node7&#45;&gt;Node2</title>
<path fill="none" stroke="#404040" d="M729.346,-1325.98C756.744,-1312.71 801.917,-1286.66 825.5,-1250 849.905,-1212.07 845.5,-1195.61 845.5,-1150.5 845.5,-1150.5 845.5,-1150.5 845.5,-619.5 845.5,-578.992 845.5,-534.98 845.5,-494.736"/>
<polygon fill="none" stroke="#404040" points="845.5,-494.656 841.5,-488.656 845.5,-482.656 849.5,-488.656 845.5,-494.656"/>
<text text-anchor="middle" x="912" y="-904.5" font-family="Helvetica,sans-Serif" font-size="10.00"> #mCurrentHypoxiaOnsetTime</text>
<text text-anchor="middle" x="912" y="-893.5" font-family="Helvetica,sans-Serif" font-size="10.00">#mCurrentHypoxicDuration</text>
<text text-anchor="middle" x="912" y="-882.5" font-family="Helvetica,sans-Serif" font-size="10.00">#mQuiescentConcentration</text>
<text text-anchor="middle" x="912" y="-871.5" font-family="Helvetica,sans-Serif" font-size="10.00">#mHypoxicConcentration</text>
<text text-anchor="middle" x="912" y="-860.5" font-family="Helvetica,sans-Serif" font-size="10.00">#mCriticalHypoxicDuration</text>
</g>
<!-- Node7&#45;&gt;Node4 -->
<g id="edge10" class="edge"><title>Node7&#45;&gt;Node4</title>
<path fill="none" stroke="#404040" d="M683.909,-1328.58C653.342,-1317.18 600.044,-1292.12 577.5,-1250 538.667,-1177.44 554.375,-1086.11 579.687,-1013.09"/>
<polygon fill="none" stroke="#404040" points="579.78,-1012.83 578.037,-1005.83 583.825,-1001.53 585.569,-1008.53 579.78,-1012.83"/>
<text text-anchor="middle" x="633" y="-1180" font-family="Helvetica,sans-Serif" font-size="10.00"> #mSDuration</text>
<text text-anchor="middle" x="633" y="-1169" font-family="Helvetica,sans-Serif" font-size="10.00">#mStemCellG1Duration</text>
<text text-anchor="middle" x="633" y="-1158" font-family="Helvetica,sans-Serif" font-size="10.00">#mMDuration</text>
<text text-anchor="middle" x="633" y="-1147" font-family="Helvetica,sans-Serif" font-size="10.00">#mMinimumGapDuration</text>
<text text-anchor="middle" x="633" y="-1136" font-family="Helvetica,sans-Serif" font-size="10.00">#mTransitCellG1Duration</text>
<text text-anchor="middle" x="633" y="-1125" font-family="Helvetica,sans-Serif" font-size="10.00">#mG2Duration</text>
<text text-anchor="middle" x="633" y="-1114" font-family="Helvetica,sans-Serif" font-size="10.00">#mG1Duration</text>
</g>
<!-- Node7&#45;&gt;Node5 -->
<g id="edge6" class="edge"><title>Node7&#45;&gt;Node5</title>
<path fill="none" stroke="#404040" d="M683.96,-1333.43C643.907,-1328.13 558.614,-1313.45 495.5,-1279 474.057,-1267.29 453.226,-1251.72 434.421,-1235.47"/>
<polygon fill="none" stroke="#404040" points="434.344,-1235.4 427.2,-1234.42 425.358,-1227.45 432.502,-1228.43 434.344,-1235.4"/>
<text text-anchor="middle" x="525" y="-1271" font-family="Helvetica,sans-Serif" font-size="10.00"> #mBirthTime</text>
</g>
<!-- Node8 -->
<g id="node8" class="node"><title>Node8</title>
<polygon fill="white" stroke="#bfbfbf" points="176.5,-1308.5 176.5,-1365.5 274.5,-1365.5 274.5,-1308.5 176.5,-1308.5"/>
<text text-anchor="middle" x="225.5" y="-1353.5" font-family="Helvetica,sans-Serif" font-size="10.00">shared_ptr&lt; Cell &gt;</text>
<polyline fill="none" stroke="#bfbfbf" points="176.5,-1346.5 274.5,-1346.5 "/>
<text text-anchor="middle" x="225.5" y="-1334.5" font-family="Helvetica,sans-Serif" font-size="10.00"> </text>
<polyline fill="none" stroke="#bfbfbf" points="176.5,-1327.5 274.5,-1327.5 "/>
<text text-anchor="middle" x="225.5" y="-1315.5" font-family="Helvetica,sans-Serif" font-size="10.00"> </text>
</g>
<!-- Node8&#45;&gt;Node5 -->
<g id="edge7" class="edge"><title>Node8&#45;&gt;Node5</title>
<path fill="none" stroke="#404040" d="M235.657,-1308.31C240.828,-1295.61 247.677,-1280.61 255.5,-1268 261.259,-1258.72 267.697,-1249.39 274.447,-1240.26"/>
<polygon fill="none" stroke="#404040" points="274.632,-1240.01 275.066,-1232.82 281.877,-1230.45 281.443,-1237.65 274.632,-1240.01"/>
<text text-anchor="middle" x="275.5" y="-1271" font-family="Helvetica,sans-Serif" font-size="10.00"> #mpCell</text>
</g>
<!-- Node9 -->
<g id="node9" class="node"><title>Node9</title>
<g id="a_node9"><a xlink:href="classbool.html" target="_top" xlink:title="{bool\n||}">
<polygon fill="white" stroke="black" points="293,-1308.5 293,-1365.5 328,-1365.5 328,-1308.5 293,-1308.5"/>
<text text-anchor="middle" x="310.5" y="-1353.5" font-family="Helvetica,sans-Serif" font-size="10.00">bool</text>
<polyline fill="none" stroke="black" points="293,-1346.5 328,-1346.5 "/>
<text text-anchor="middle" x="310.5" y="-1334.5" font-family="Helvetica,sans-Serif" font-size="10.00"> </text>
<polyline fill="none" stroke="black" points="293,-1327.5 328,-1327.5 "/>
<text text-anchor="middle" x="310.5" y="-1315.5" font-family="Helvetica,sans-Serif" font-size="10.00"> </text>
</a>
</g>
</g>
<!-- Node9&#45;&gt;Node5 -->
<g id="edge8" class="edge"><title>Node9&#45;&gt;Node5</title>
<path fill="none" stroke="#404040" d="M301.971,-1308.39C299.281,-1295.98 297.665,-1281.18 300.5,-1268 300.994,-1265.7 301.537,-1263.4 302.123,-1261.09"/>
<polygon fill="none" stroke="#404040" points="302.131,-1261.06 299.916,-1254.2 305.399,-1249.51 307.614,-1256.38 302.131,-1261.06"/>
<text text-anchor="middle" x="343" y="-1271" font-family="Helvetica,sans-Serif" font-size="10.00"> #mReadyToDivide</text>
</g>
<!-- Node10 -->
<g id="node10" class="node"><title>Node10</title>
<g id="a_node10"><a xlink:href="classunsigned.html" target="_top" xlink:title="{unsigned\n||}">
<polygon fill="white" stroke="black" points="379.5,-1308.5 379.5,-1365.5 435.5,-1365.5 435.5,-1308.5 379.5,-1308.5"/>
<text text-anchor="middle" x="407.5" y="-1353.5" font-family="Helvetica,sans-Serif" font-size="10.00">unsigned</text>
<polyline fill="none" stroke="black" points="379.5,-1346.5 435.5,-1346.5 "/>
<text text-anchor="middle" x="407.5" y="-1334.5" font-family="Helvetica,sans-Serif" font-size="10.00"> </text>
<polyline fill="none" stroke="black" points="379.5,-1327.5 435.5,-1327.5 "/>
<text text-anchor="middle" x="407.5" y="-1315.5" font-family="Helvetica,sans-Serif" font-size="10.00"> </text>
</a>
</g>
</g>
<!-- Node10&#45;&gt;Node5 -->
<g id="edge9" class="edge"><title>Node10&#45;&gt;Node5</title>
<path fill="none" stroke="#404040" d="M399.416,-1308.23C395.602,-1295.13 390.777,-1278.55 385.697,-1261.1"/>
<polygon fill="none" stroke="#404040" points="385.684,-1261.06 380.166,-1256.41 382.33,-1249.54 387.847,-1254.18 385.684,-1261.06"/>
<text text-anchor="middle" x="422.5" y="-1271" font-family="Helvetica,sans-Serif" font-size="10.00"> #mDimension</text>
</g>
<!-- Node11 -->
<g id="node11" class="node"><title>Node11</title>
<polygon fill="white" stroke="#bfbfbf" points="698,-1121 698,-1178 817,-1178 817,-1121 698,-1121"/>
<text text-anchor="middle" x="757.5" y="-1166" font-family="Helvetica,sans-Serif" font-size="10.00">enum CellCyclePhase_</text>
<polyline fill="none" stroke="#bfbfbf" points="698,-1159 817,-1159 "/>
<text text-anchor="middle" x="757.5" y="-1147" font-family="Helvetica,sans-Serif" font-size="10.00"> </text>
<polyline fill="none" stroke="#bfbfbf" points="698,-1140 817,-1140 "/>
<text text-anchor="middle" x="757.5" y="-1128" font-family="Helvetica,sans-Serif" font-size="10.00"> </text>
</g>
<!-- Node11&#45;&gt;Node4 -->
<g id="edge11" class="edge"><title>Node11&#45;&gt;Node4</title>
<path fill="none" stroke="#404040" d="M745.095,-1120.9C733.333,-1094.74 714.788,-1053.48 696.5,-1012.8"/>
<polygon fill="none" stroke="#404040" points="696.401,-1012.58 690.293,-1008.75 691.481,-1001.64 697.59,-1005.47 696.401,-1012.58"/>
<text text-anchor="middle" x="762.5" y="-1023" font-family="Helvetica,sans-Serif" font-size="10.00"> #mCurrentCellCyclePhase</text>
</g>
</g>
</svg>
