<?xml version="1.0" encoding="UTF-8" standalone="no"?>
<!DOCTYPE svg PUBLIC "-//W3C//DTD SVG 1.1//EN"
 "http://www.w3.org/Graphics/SVG/1.1/DTD/svg11.dtd">
<!-- Generated by graphviz version 2.38.0 (20140413.2041)
 -->
<!-- Title: StepSizeException Pages: 1 -->
<svg width="364pt" height="215pt"
 viewBox="0.00 0.00 364.00 215.00" xmlns="http://www.w3.org/2000/svg" xmlns:xlink="http://www.w3.org/1999/xlink">
<g id="graph0" class="graph" transform="scale(1 1) rotate(0) translate(4 211)">
<title>StepSizeException</title>
<polygon fill="white" stroke="none" points="-4,4 -4,-211 360,-211 360,4 -4,4"/>
<!-- Node1 -->
<g id="node1" class="node"><title>Node1</title>
<polygon fill="#bfbfbf" stroke="black" points="114,-0.5 114,-101.5 248,-101.5 248,-0.5 114,-0.5"/>
<text text-anchor="middle" x="181" y="-89.5" font-family="Helvetica,sans-Serif" font-size="10.00">StepSizeException</text>
<polyline fill="none" stroke="black" points="114,-82.5 248,-82.5 "/>
<text text-anchor="middle" x="181" y="-70.5" font-family="Helvetica,sans-Serif" font-size="10.00"> </text>
<polyline fill="none" stroke="black" points="114,-63.5 248,-63.5 "/>
<text text-anchor="start" x="122" y="-51.5" font-family="Helvetica,sans-Serif" font-size="10.00">+ StepSizeException()</text>
<text text-anchor="start" x="122" y="-40.5" font-family="Helvetica,sans-Serif" font-size="10.00">+ what()</text>
<text text-anchor="start" x="122" y="-29.5" font-family="Helvetica,sans-Serif" font-size="10.00">+ ~StepSizeException()</text>
<text text-anchor="start" x="122" y="-18.5" font-family="Helvetica,sans-Serif" font-size="10.00">+ GetSuggestedNewStep()</text>
<text text-anchor="start" x="122" y="-7.5" font-family="Helvetica,sans-Serif" font-size="10.00">+ IsTerminal()</text>
</g>
<!-- Node2 -->
<g id="node2" class="node"><title>Node2</title>
<polygon fill="white" stroke="#bfbfbf" points="0,-149.5 0,-206.5 78,-206.5 78,-149.5 0,-149.5"/>
<text text-anchor="middle" x="39" y="-194.5" font-family="Helvetica,sans-Serif" font-size="10.00">std::exception</text>
<polyline fill="none" stroke="#bfbfbf" points="0,-187.5 78,-187.5 "/>
<text text-anchor="middle" x="39" y="-175.5" font-family="Helvetica,sans-Serif" font-size="10.00"> </text>
<polyline fill="none" stroke="#bfbfbf" points="0,-168.5 78,-168.5 "/>
<text text-anchor="middle" x="39" y="-156.5" font-family="Helvetica,sans-Serif" font-size="10.00"> </text>
</g>
<!-- Node2&#45;&gt;Node1 -->
<g id="edge1" class="edge"><title>Node2&#45;&gt;Node1</title>
<path fill="none" stroke="midnightblue" d="M78.2478,-142.451C92.6083,-129.81 109.151,-115.247 124.709,-101.552"/>
<polygon fill="none" stroke="midnightblue" points="75.7079,-140.024 70.5144,-149.258 80.3331,-145.278 75.7079,-140.024"/>
</g>
<!-- Node3 -->
<g id="node3" class="node"><title>Node3</title>
<g id="a_node3"><a xlink:href="classdouble.html" target="_top" xlink:title="{double\n||}">
<polygon fill="white" stroke="black" points="96.5,-149.5 96.5,-206.5 141.5,-206.5 141.5,-149.5 96.5,-149.5"/>
<text text-anchor="middle" x="119" y="-194.5" font-family="Helvetica,sans-Serif" font-size="10.00">double</text>
<polyline fill="none" stroke="black" points="96.5,-187.5 141.5,-187.5 "/>
<text text-anchor="middle" x="119" y="-175.5" font-family="Helvetica,sans-Serif" font-size="10.00"> </text>
<polyline fill="none" stroke="black" points="96.5,-168.5 141.5,-168.5 "/>
<text text-anchor="middle" x="119" y="-156.5" font-family="Helvetica,sans-Serif" font-size="10.00"> </text>
</a>
</g>
</g>
<!-- Node3&#45;&gt;Node1 -->
<g id="edge2" class="edge"><title>Node3&#45;&gt;Node1</title>
<path fill="none" stroke="#404040" d="M115.624,-149.27C115.456,-139.71 116.417,-129.12 120,-120 121.052,-117.322 122.261,-114.683 123.6,-112.089"/>
<polygon fill="none" stroke="#404040" points="123.638,-112.025 123.262,-104.824 129.764,-101.707 130.141,-108.908 123.638,-112.025"/>
<text text-anchor="middle" x="171" y="-123" font-family="Helvetica,sans-Serif" font-size="10.00"> &#45;mSuggestedNewStep</text>
</g>
<!-- Node4 -->
<g id="node4" class="node"><title>Node4</title>
<g id="a_node4"><a xlink:href="classbool.html" target="_top" xlink:title="{bool\n||}">
<polygon fill="white" stroke="black" points="226.5,-149.5 226.5,-206.5 261.5,-206.5 261.5,-149.5 226.5,-149.5"/>
<text text-anchor="middle" x="244" y="-194.5" font-family="Helvetica,sans-Serif" font-size="10.00">bool</text>
<polyline fill="none" stroke="black" points="226.5,-187.5 261.5,-187.5 "/>
<text text-anchor="middle" x="244" y="-175.5" font-family="Helvetica,sans-Serif" font-size="10.00"> </text>
<polyline fill="none" stroke="black" points="226.5,-168.5 261.5,-168.5 "/>
<text text-anchor="middle" x="244" y="-156.5" font-family="Helvetica,sans-Serif" font-size="10.00"> </text>
</a>
</g>
</g>
<!-- Node4&#45;&gt;Node1 -->
<g id="edge3" class="edge"><title>Node4&#45;&gt;Node1</title>
<path fill="none" stroke="#404040" d="M234.429,-149.332C230.868,-139.877 226.573,-129.335 222,-120 220.746,-117.441 219.428,-114.852 218.063,-112.254"/>
<polygon fill="none" stroke="#404040" points="217.988,-112.115 211.603,-108.764 212.241,-101.581 218.626,-104.932 217.988,-112.115"/>
<text text-anchor="middle" x="257.5" y="-123" font-family="Helvetica,sans-Serif" font-size="10.00"> &#45;mIsTerminal</text>
</g>
<!-- Node5 -->
<g id="node5" class="node"><title>Node5</title>
<polygon fill="white" stroke="#bfbfbf" points="307.5,-149.5 307.5,-206.5 348.5,-206.5 348.5,-149.5 307.5,-149.5"/>
<text text-anchor="middle" x="328" y="-194.5" font-family="Helvetica,sans-Serif" font-size="10.00">string</text>
<polyline fill="none" stroke="#bfbfbf" points="307.5,-187.5 348.5,-187.5 "/>
<text text-anchor="middle" x="328" y="-175.5" font-family="Helvetica,sans-Serif" font-size="10.00"> </text>
<polyline fill="none" stroke="#bfbfbf" points="307.5,-168.5 348.5,-168.5 "/>
<text text-anchor="middle" x="328" y="-156.5" font-family="Helvetica,sans-Serif" font-size="10.00"> </text>
</g>
<!-- Node5&#45;&gt;Node1 -->
<g id="edge4" class="edge"><title>Node5&#45;&gt;Node1</title>
<path fill="none" stroke="#404040" d="M313.99,-149.329C308.087,-139.347 300.583,-128.466 292,-120 281.944,-110.081 270.182,-100.952 258.147,-92.8186"/>
<polygon fill="none" stroke="#404040" points="258.065,-92.7656 250.855,-92.8491 248.004,-86.2253 255.215,-86.1417 258.065,-92.7656"/>
<text text-anchor="middle" x="328.5" y="-123" font-family="Helvetica,sans-Serif" font-size="10.00"> &#45;mMessage</text>
</g>
</g>
</svg>
