<?xml version="1.0" encoding="UTF-8" standalone="no"?>
<!DOCTYPE svg PUBLIC "-//W3C//DTD SVG 1.1//EN"
 "http://www.w3.org/Graphics/SVG/1.1/DTD/svg11.dtd">
<!-- Generated by graphviz version 2.38.0 (20140413.2041)
 -->
<!-- Title: HeartGeometryInformation&lt; SPACE_DIM &gt; Pages: 1 -->
<svg width="1584pt" height="1625pt"
 viewBox="0.00 0.00 1584.00 1625.00" xmlns="http://www.w3.org/2000/svg" xmlns:xlink="http://www.w3.org/1999/xlink">
<g id="graph0" class="graph" transform="scale(1 1) rotate(0) translate(4 1621)">
<title>HeartGeometryInformation&lt; SPACE_DIM &gt;</title>
<polygon fill="white" stroke="none" points="-4,4 -4,-1621 1580,-1621 1580,4 -4,4"/>
<!-- Node1 -->
<g id="node1" class="node"><title>Node1</title>
<polygon fill="#bfbfbf" stroke="black" points="270,-0.5 270,-233.5 442,-233.5 442,-0.5 270,-0.5"/>
<text text-anchor="start" x="278" y="-221.5" font-family="Helvetica,sans-Serif" font-size="10.00">HeartGeometryInformation</text>
<text text-anchor="middle" x="356" y="-210.5" font-family="Helvetica,sans-Serif" font-size="10.00">&lt; SPACE_DIM &gt;</text>
<polyline fill="none" stroke="black" points="270,-203.5 442,-203.5 "/>
<text text-anchor="middle" x="356" y="-191.5" font-family="Helvetica,sans-Serif" font-size="10.00"> </text>
<polyline fill="none" stroke="black" points="270,-184.5 442,-184.5 "/>
<text text-anchor="start" x="278" y="-172.5" font-family="Helvetica,sans-Serif" font-size="10.00">+ HeartGeometryInformation()</text>
<text text-anchor="start" x="278" y="-161.5" font-family="Helvetica,sans-Serif" font-size="10.00">+ HeartGeometryInformation()</text>
<text text-anchor="start" x="278" y="-150.5" font-family="Helvetica,sans-Serif" font-size="10.00">+ HeartGeometryInformation()</text>
<text text-anchor="start" x="278" y="-139.5" font-family="Helvetica,sans-Serif" font-size="10.00">+ GetHeartRegion()</text>
<text text-anchor="start" x="278" y="-128.5" font-family="Helvetica,sans-Serif" font-size="10.00">+ rGetDistanceMapEpicardium()</text>
<text text-anchor="start" x="278" y="-117.5" font-family="Helvetica,sans-Serif" font-size="10.00">+ rGetDistanceMapEndocardium()</text>
<text text-anchor="start" x="278" y="-106.5" font-family="Helvetica,sans-Serif" font-size="10.00">+ rGetDistanceMapRightVentricle()</text>
<text text-anchor="start" x="278" y="-95.5" font-family="Helvetica,sans-Serif" font-size="10.00">+ rGetDistanceMapLeftVentricle()</text>
<text text-anchor="start" x="278" y="-84.5" font-family="Helvetica,sans-Serif" font-size="10.00">+ rGetNodesOnEpiSurface()</text>
<text text-anchor="start" x="278" y="-73.5" font-family="Helvetica,sans-Serif" font-size="10.00">+ rGetNodesOnEndoSurface()</text>
<text text-anchor="start" x="278" y="-62.5" font-family="Helvetica,sans-Serif" font-size="10.00">and 10 more...</text>
<text text-anchor="start" x="278" y="-51.5" font-family="Helvetica,sans-Serif" font-size="10.00">&#45; GetNodesAtSurface()</text>
<text text-anchor="start" x="278" y="-40.5" font-family="Helvetica,sans-Serif" font-size="10.00">&#45; ProcessLine()</text>
<text text-anchor="start" x="278" y="-29.5" font-family="Helvetica,sans-Serif" font-size="10.00">&#45; GetDistanceToEndo()</text>
<text text-anchor="start" x="278" y="-18.5" font-family="Helvetica,sans-Serif" font-size="10.00">&#45; GetDistanceToEpi()</text>
<text text-anchor="start" x="278" y="-7.5" font-family="Helvetica,sans-Serif" font-size="10.00">&#45; CalculateBoundingBoxOfSurface()</text>
</g>
<!-- Node2 -->
<g id="node2" class="node"><title>Node2</title>
<polygon fill="white" stroke="#bfbfbf" points="0,-402.5 0,-459.5 90,-459.5 90,-402.5 0,-402.5"/>
<text text-anchor="middle" x="45" y="-447.5" font-family="Helvetica,sans-Serif" font-size="10.00">vector&lt; double &gt;</text>
<polyline fill="none" stroke="#bfbfbf" points="0,-440.5 90,-440.5 "/>
<text text-anchor="middle" x="45" y="-428.5" font-family="Helvetica,sans-Serif" font-size="10.00"> </text>
<polyline fill="none" stroke="#bfbfbf" points="0,-421.5 90,-421.5 "/>
<text text-anchor="middle" x="45" y="-409.5" font-family="Helvetica,sans-Serif" font-size="10.00"> </text>
</g>
<!-- Node2&#45;&gt;Node1 -->
<g id="edge1" class="edge"><title>Node2&#45;&gt;Node1</title>
<path fill="none" stroke="#404040" d="M37.9205,-402.203C30.0592,-364.606 22.1866,-297.072 53,-252 99.413,-184.109 188.497,-150.255 258.111,-133.595"/>
<polygon fill="none" stroke="#404040" points="258.288,-133.554 263.243,-128.314 269.985,-130.873 265.031,-136.112 258.288,-133.554"/>
<text text-anchor="middle" x="109.5" y="-288" font-family="Helvetica,sans-Serif" font-size="10.00"> &#45;mDistMapRightVentricle</text>
<text text-anchor="middle" x="109.5" y="-277" font-family="Helvetica,sans-Serif" font-size="10.00">&#45;mDistMapEndocardium</text>
<text text-anchor="middle" x="109.5" y="-266" font-family="Helvetica,sans-Serif" font-size="10.00">&#45;mDistMapLeftVentricle</text>
<text text-anchor="middle" x="109.5" y="-255" font-family="Helvetica,sans-Serif" font-size="10.00">&#45;mDistMapEpicardium</text>
</g>
<!-- Node3 -->
<g id="node3" class="node"><title>Node3</title>
<g id="a_node3"><a xlink:href="classdouble.html" target="_top" xlink:title="{double\n||}">
<polygon fill="white" stroke="black" points="158.5,-402.5 158.5,-459.5 203.5,-459.5 203.5,-402.5 158.5,-402.5"/>
<text text-anchor="middle" x="181" y="-447.5" font-family="Helvetica,sans-Serif" font-size="10.00">double</text>
<polyline fill="none" stroke="black" points="158.5,-440.5 203.5,-440.5 "/>
<text text-anchor="middle" x="181" y="-428.5" font-family="Helvetica,sans-Serif" font-size="10.00"> </text>
<polyline fill="none" stroke="black" points="158.5,-421.5 203.5,-421.5 "/>
<text text-anchor="middle" x="181" y="-409.5" font-family="Helvetica,sans-Serif" font-size="10.00"> </text>
</a>
</g>
</g>
<!-- Node3&#45;&gt;Node1 -->
<g id="edge2" class="edge"><title>Node3&#45;&gt;Node1</title>
<path fill="none" stroke="#404040" d="M174.025,-402.37C166.337,-365.844 157.987,-300.457 182,-252 198.883,-217.93 229.018,-190.069 259.517,-168.75"/>
<polygon fill="none" stroke="#404040" points="259.91,-168.486 262.645,-161.813 269.856,-161.772 267.121,-168.444 259.91,-168.486"/>
<text text-anchor="middle" x="238.5" y="-277" font-family="Helvetica,sans-Serif" font-size="10.00"> &#45;RIGHT_SEPTUM_SIZE</text>
<text text-anchor="middle" x="238.5" y="-266" font-family="Helvetica,sans-Serif" font-size="10.00">&#45;LEFT_SEPTUM_SIZE</text>
</g>
<!-- Node4 -->
<g id="node4" class="node"><title>Node4</title>
<polygon fill="white" stroke="#bfbfbf" points="507.5,-1559.5 507.5,-1616.5 608.5,-1616.5 608.5,-1559.5 507.5,-1559.5"/>
<text text-anchor="middle" x="558" y="-1604.5" font-family="Helvetica,sans-Serif" font-size="10.00">vector&lt; unsigned &gt;</text>
<polyline fill="none" stroke="#bfbfbf" points="507.5,-1597.5 608.5,-1597.5 "/>
<text text-anchor="middle" x="558" y="-1585.5" font-family="Helvetica,sans-Serif" font-size="10.00"> </text>
<polyline fill="none" stroke="#bfbfbf" points="507.5,-1578.5 608.5,-1578.5 "/>
<text text-anchor="middle" x="558" y="-1566.5" font-family="Helvetica,sans-Serif" font-size="10.00"> </text>
</g>
<!-- Node4&#45;&gt;Node1 -->
<g id="edge3" class="edge"><title>Node4&#45;&gt;Node1</title>
<path fill="none" stroke="#404040" d="M507.135,-1577.54C453.74,-1564.81 371.614,-1536.72 328,-1479 296.505,-1437.32 309,-1415.24 309,-1363 309,-1363 309,-1363 309,-430 309,-368.887 317.926,-301.785 327.999,-245.52"/>
<polygon fill="none" stroke="#404040" points="328.004,-245.489 325.149,-238.867 330.163,-233.685 333.018,-240.306 328.004,-245.489"/>
<text text-anchor="middle" x="344.5" y="-916" font-family="Helvetica,sans-Serif" font-size="10.00"> &#45;mEndoSurface</text>
<text text-anchor="middle" x="344.5" y="-905" font-family="Helvetica,sans-Serif" font-size="10.00">&#45;mLVSurface</text>
<text text-anchor="middle" x="344.5" y="-894" font-family="Helvetica,sans-Serif" font-size="10.00">&#45;mEpiSurface</text>
<text text-anchor="middle" x="344.5" y="-883" font-family="Helvetica,sans-Serif" font-size="10.00">&#45;mRVSurface</text>
</g>
<!-- Node7 -->
<g id="node7" class="node"><title>Node7</title>
<g id="a_node7"><a xlink:href="classAbstractMesh.html" target="_top" xlink:title="{AbstractMesh\&lt; ELEMENT\l_DIM, SPACE_DIM \&gt;\n||+ GetNodeIteratorBegin()\l+ GetNodeIteratorEnd()\l+ AbstractMesh()\l+ ~AbstractMesh()\l+ GetNumNodes()\l+ GetNumBoundaryNodes()\l+ GetNumAllNodes()\l+ GetNumNodeAttributes()\l+ GetNode()\l+ GetNodeOrHaloNode()\land 28 more...\l# SetElementOwnerships()\l# CalculateBoundingBox()\l&#45; SolveNodeMapping()\l&#45; serialize()\l}">
<polygon fill="white" stroke="black" points="665,-964.5 665,-1186.5 803,-1186.5 803,-964.5 665,-964.5"/>
<text text-anchor="start" x="673" y="-1174.5" font-family="Helvetica,sans-Serif" font-size="10.00">AbstractMesh&lt; ELEMENT</text>
<text text-anchor="middle" x="734" y="-1163.5" font-family="Helvetica,sans-Serif" font-size="10.00">_DIM, SPACE_DIM &gt;</text>
<polyline fill="none" stroke="black" points="665,-1156.5 803,-1156.5 "/>
<text text-anchor="middle" x="734" y="-1144.5" font-family="Helvetica,sans-Serif" font-size="10.00"> </text>
<polyline fill="none" stroke="black" points="665,-1137.5 803,-1137.5 "/>
<text text-anchor="start" x="673" y="-1125.5" font-family="Helvetica,sans-Serif" font-size="10.00">+ GetNodeIteratorBegin()</text>
<text text-anchor="start" x="673" y="-1114.5" font-family="Helvetica,sans-Serif" font-size="10.00">+ GetNodeIteratorEnd()</text>
<text text-anchor="start" x="673" y="-1103.5" font-family="Helvetica,sans-Serif" font-size="10.00">+ AbstractMesh()</text>
<text text-anchor="start" x="673" y="-1092.5" font-family="Helvetica,sans-Serif" font-size="10.00">+ ~AbstractMesh()</text>
<text text-anchor="start" x="673" y="-1081.5" font-family="Helvetica,sans-Serif" font-size="10.00">+ GetNumNodes()</text>
<text text-anchor="start" x="673" y="-1070.5" font-family="Helvetica,sans-Serif" font-size="10.00">+ GetNumBoundaryNodes()</text>
<text text-anchor="start" x="673" y="-1059.5" font-family="Helvetica,sans-Serif" font-size="10.00">+ GetNumAllNodes()</text>
<text text-anchor="start" x="673" y="-1048.5" font-family="Helvetica,sans-Serif" font-size="10.00">+ GetNumNodeAttributes()</text>
<text text-anchor="start" x="673" y="-1037.5" font-family="Helvetica,sans-Serif" font-size="10.00">+ GetNode()</text>
<text text-anchor="start" x="673" y="-1026.5" font-family="Helvetica,sans-Serif" font-size="10.00">+ GetNodeOrHaloNode()</text>
<text text-anchor="start" x="673" y="-1015.5" font-family="Helvetica,sans-Serif" font-size="10.00">and 28 more...</text>
<text text-anchor="start" x="673" y="-1004.5" font-family="Helvetica,sans-Serif" font-size="10.00"># SetElementOwnerships()</text>
<text text-anchor="start" x="673" y="-993.5" font-family="Helvetica,sans-Serif" font-size="10.00"># CalculateBoundingBox()</text>
<text text-anchor="start" x="673" y="-982.5" font-family="Helvetica,sans-Serif" font-size="10.00">&#45; SolveNodeMapping()</text>
<text text-anchor="start" x="673" y="-971.5" font-family="Helvetica,sans-Serif" font-size="10.00">&#45; serialize()</text>
</a>
</g>
</g>
<!-- Node4&#45;&gt;Node7 -->
<g id="edge14" class="edge"><title>Node4&#45;&gt;Node7</title>
<path fill="none" stroke="#404040" d="M555.043,-1559.29C547.916,-1487.21 532.794,-1295.9 567,-1245 578.1,-1228.48 591.132,-1237.56 608,-1227 631.249,-1212.44 636.44,-1207.2 655,-1187 655.628,-1186.32 656.256,-1185.63 656.883,-1184.93"/>
<polygon fill="none" stroke="#404040" points="657.081,-1184.71 658.018,-1177.56 664.979,-1175.67 664.041,-1182.82 657.081,-1184.71"/>
<text text-anchor="middle" x="613.5" y="-1359.5" font-family="Helvetica,sans-Serif" font-size="10.00"> #mNodePermutation</text>
</g>
<!-- Node9 -->
<g id="node9" class="node"><title>Node9</title>
<g id="a_node9"><a xlink:href="classDistributedVectorFactory.html" target="_top" xlink:title="{DistributedVectorFactory\n||+ DistributedVectorFactory()\l+ DistributedVectorFactory()\l+ DistributedVectorFactory()\l+ DistributedVectorFactory()\l+ ~DistributedVectorFactory()\l+ CreateVec()\l+ CreateVec()\l+ CreateDistributedVector()\l+ IsGlobalIndexLocal()\l+ GetLocalOwnership()\land 8 more...\l+ SetCheckNumberOfProcesses\lOnLoad()\l+ CheckNumberOfProcessesOnLoad()\l&#45; CheckForPetsc()\l&#45; CalculateOwnership()\l&#45; serialize()\l}">
<polygon fill="white" stroke="black" points="758.5,-1245.5 758.5,-1478.5 943.5,-1478.5 943.5,-1245.5 758.5,-1245.5"/>
<text text-anchor="middle" x="851" y="-1466.5" font-family="Helvetica,sans-Serif" font-size="10.00">DistributedVectorFactory</text>
<polyline fill="none" stroke="black" points="758.5,-1459.5 943.5,-1459.5 "/>
<text text-anchor="middle" x="851" y="-1447.5" font-family="Helvetica,sans-Serif" font-size="10.00"> </text>
<polyline fill="none" stroke="black" points="758.5,-1440.5 943.5,-1440.5 "/>
<text text-anchor="start" x="766.5" y="-1428.5" font-family="Helvetica,sans-Serif" font-size="10.00">+ DistributedVectorFactory()</text>
<text text-anchor="start" x="766.5" y="-1417.5" font-family="Helvetica,sans-Serif" font-size="10.00">+ DistributedVectorFactory()</text>
<text text-anchor="start" x="766.5" y="-1406.5" font-family="Helvetica,sans-Serif" font-size="10.00">+ DistributedVectorFactory()</text>
<text text-anchor="start" x="766.5" y="-1395.5" font-family="Helvetica,sans-Serif" font-size="10.00">+ DistributedVectorFactory()</text>
<text text-anchor="start" x="766.5" y="-1384.5" font-family="Helvetica,sans-Serif" font-size="10.00">+ ~DistributedVectorFactory()</text>
<text text-anchor="start" x="766.5" y="-1373.5" font-family="Helvetica,sans-Serif" font-size="10.00">+ CreateVec()</text>
<text text-anchor="start" x="766.5" y="-1362.5" font-family="Helvetica,sans-Serif" font-size="10.00">+ CreateVec()</text>
<text text-anchor="start" x="766.5" y="-1351.5" font-family="Helvetica,sans-Serif" font-size="10.00">+ CreateDistributedVector()</text>
<text text-anchor="start" x="766.5" y="-1340.5" font-family="Helvetica,sans-Serif" font-size="10.00">+ IsGlobalIndexLocal()</text>
<text text-anchor="start" x="766.5" y="-1329.5" font-family="Helvetica,sans-Serif" font-size="10.00">+ GetLocalOwnership()</text>
<text text-anchor="start" x="766.5" y="-1318.5" font-family="Helvetica,sans-Serif" font-size="10.00">and 8 more...</text>
<text text-anchor="start" x="766.5" y="-1307.5" font-family="Helvetica,sans-Serif" font-size="10.00">+ SetCheckNumberOfProcesses</text>
<text text-anchor="start" x="766.5" y="-1296.5" font-family="Helvetica,sans-Serif" font-size="10.00">OnLoad()</text>
<text text-anchor="start" x="766.5" y="-1285.5" font-family="Helvetica,sans-Serif" font-size="10.00">+ CheckNumberOfProcessesOnLoad()</text>
<text text-anchor="start" x="766.5" y="-1274.5" font-family="Helvetica,sans-Serif" font-size="10.00">&#45; CheckForPetsc()</text>
<text text-anchor="start" x="766.5" y="-1263.5" font-family="Helvetica,sans-Serif" font-size="10.00">&#45; CalculateOwnership()</text>
<text text-anchor="start" x="766.5" y="-1252.5" font-family="Helvetica,sans-Serif" font-size="10.00">&#45; serialize()</text>
</a>
</g>
</g>
<!-- Node4&#45;&gt;Node9 -->
<g id="edge10" class="edge"><title>Node4&#45;&gt;Node9</title>
<path fill="none" stroke="#404040" d="M608.751,-1564.13C649.005,-1544.67 705.531,-1514.3 749,-1479 749.098,-1478.92 749.195,-1478.84 749.293,-1478.76"/>
<polygon fill="none" stroke="#404040" points="749.161,-1478.87 751.149,-1471.94 758.312,-1471.11 756.324,-1478.04 749.161,-1478.87"/>
<text text-anchor="middle" x="754" y="-1516.5" font-family="Helvetica,sans-Serif" font-size="10.00"> &#45;mGlobalLows</text>
</g>
<!-- Node5 -->
<g id="node5" class="node"><title>Node5</title>
<polygon fill="white" stroke="#bfbfbf" points="337.5,-402.5 337.5,-459.5 468.5,-459.5 468.5,-402.5 337.5,-402.5"/>
<text text-anchor="middle" x="403" y="-447.5" font-family="Helvetica,sans-Serif" font-size="10.00">vector&lt; HeartLayerType &gt;</text>
<polyline fill="none" stroke="#bfbfbf" points="337.5,-440.5 468.5,-440.5 "/>
<text text-anchor="middle" x="403" y="-428.5" font-family="Helvetica,sans-Serif" font-size="10.00"> </text>
<polyline fill="none" stroke="#bfbfbf" points="337.5,-421.5 468.5,-421.5 "/>
<text text-anchor="middle" x="403" y="-409.5" font-family="Helvetica,sans-Serif" font-size="10.00"> </text>
</g>
<!-- Node5&#45;&gt;Node1 -->
<g id="edge4" class="edge"><title>Node5&#45;&gt;Node1</title>
<path fill="none" stroke="#404040" d="M398.829,-402.312C393.511,-367.012 383.957,-303.589 375.22,-245.588"/>
<polygon fill="none" stroke="#404040" points="375.215,-245.555 370.366,-240.218 373.427,-233.689 378.277,-239.026 375.215,-245.555"/>
<text text-anchor="middle" x="432.5" y="-271.5" font-family="Helvetica,sans-Serif" font-size="10.00"> &#45;mLayerForEachNode</text>
</g>
<!-- Node6 -->
<g id="node6" class="node"><title>Node6</title>
<g id="a_node6"><a xlink:href="classAbstractTetrahedralMesh.html" target="_top" xlink:title="{AbstractTetrahedralMesh\l\&lt; SPACE_DIM, SPACE_DIM \&gt;\n||+ GetElementIteratorBegin()\l+ GetElementIteratorEnd()\l+ AbstractTetrahedralMesh()\l+ ~AbstractTetrahedralMesh()\l+ GetNumElements()\l+ GetNumLocalElements()\l+ GetNumBoundaryElements()\l+ GetNumLocalBoundaryElements()\l+ GetNumAllElements()\l+ GetNumAllBoundaryElements()\land 25 more...\l# SetElementOwnerships()\l&#45; SolveElementMapping()\l&#45; SolveBoundaryElementMapping()\l&#45; save()\l&#45; load()\l}">
<polygon fill="white" stroke="black" points="553,-314.5 553,-547.5 727,-547.5 727,-314.5 553,-314.5"/>
<text text-anchor="start" x="561" y="-535.5" font-family="Helvetica,sans-Serif" font-size="10.00">AbstractTetrahedralMesh</text>
<text text-anchor="middle" x="640" y="-524.5" font-family="Helvetica,sans-Serif" font-size="10.00">&lt; SPACE_DIM, SPACE_DIM &gt;</text>
<polyline fill="none" stroke="black" points="553,-517.5 727,-517.5 "/>
<text text-anchor="middle" x="640" y="-505.5" font-family="Helvetica,sans-Serif" font-size="10.00"> </text>
<polyline fill="none" stroke="black" points="553,-498.5 727,-498.5 "/>
<text text-anchor="start" x="561" y="-486.5" font-family="Helvetica,sans-Serif" font-size="10.00">+ GetElementIteratorBegin()</text>
<text text-anchor="start" x="561" y="-475.5" font-family="Helvetica,sans-Serif" font-size="10.00">+ GetElementIteratorEnd()</text>
<text text-anchor="start" x="561" y="-464.5" font-family="Helvetica,sans-Serif" font-size="10.00">+ AbstractTetrahedralMesh()</text>
<text text-anchor="start" x="561" y="-453.5" font-family="Helvetica,sans-Serif" font-size="10.00">+ ~AbstractTetrahedralMesh()</text>
<text text-anchor="start" x="561" y="-442.5" font-family="Helvetica,sans-Serif" font-size="10.00">+ GetNumElements()</text>
<text text-anchor="start" x="561" y="-431.5" font-family="Helvetica,sans-Serif" font-size="10.00">+ GetNumLocalElements()</text>
<text text-anchor="start" x="561" y="-420.5" font-family="Helvetica,sans-Serif" font-size="10.00">+ GetNumBoundaryElements()</text>
<text text-anchor="start" x="561" y="-409.5" font-family="Helvetica,sans-Serif" font-size="10.00">+ GetNumLocalBoundaryElements()</text>
<text text-anchor="start" x="561" y="-398.5" font-family="Helvetica,sans-Serif" font-size="10.00">+ GetNumAllElements()</text>
<text text-anchor="start" x="561" y="-387.5" font-family="Helvetica,sans-Serif" font-size="10.00">+ GetNumAllBoundaryElements()</text>
<text text-anchor="start" x="561" y="-376.5" font-family="Helvetica,sans-Serif" font-size="10.00">and 25 more...</text>
<text text-anchor="start" x="561" y="-365.5" font-family="Helvetica,sans-Serif" font-size="10.00"># SetElementOwnerships()</text>
<text text-anchor="start" x="561" y="-354.5" font-family="Helvetica,sans-Serif" font-size="10.00">&#45; SolveElementMapping()</text>
<text text-anchor="start" x="561" y="-343.5" font-family="Helvetica,sans-Serif" font-size="10.00">&#45; SolveBoundaryElementMapping()</text>
<text text-anchor="start" x="561" y="-332.5" font-family="Helvetica,sans-Serif" font-size="10.00">&#45; save()</text>
<text text-anchor="start" x="561" y="-321.5" font-family="Helvetica,sans-Serif" font-size="10.00">&#45; load()</text>
</a>
</g>
</g>
<!-- Node6&#45;&gt;Node1 -->
<g id="edge5" class="edge"><title>Node6&#45;&gt;Node1</title>
<path fill="none" stroke="#404040" d="M552.628,-326.993C531.114,-302.194 507.947,-275.952 486,-252 474.613,-239.573 462.489,-226.666 450.396,-213.986"/>
<polygon fill="none" stroke="#404040" points="450.335,-213.923 443.297,-212.353 442.039,-205.253 449.077,-206.822 450.335,-213.923"/>
<text text-anchor="middle" x="547" y="-271.5" font-family="Helvetica,sans-Serif" font-size="10.00"> &#45;mpMesh</text>
</g>
<!-- Node7&#45;&gt;Node6 -->
<g id="edge6" class="edge"><title>Node7&#45;&gt;Node6</title>
<path fill="none" stroke="midnightblue" d="M785.155,-954.845C798.22,-918.628 810.424,-878.291 817,-840 834.604,-737.501 838.825,-707.684 817,-606 806.103,-555.232 766.249,-513.705 727.111,-483.969"/>
<polygon fill="none" stroke="midnightblue" points="781.79,-953.857 781.636,-964.451 788.362,-956.266 781.79,-953.857"/>
</g>
<!-- Node16 -->
<g id="node16" class="node"><title>Node16</title>
<g id="a_node16"><a xlink:href="classAbstractTetrahedralMesh.html" target="_top" xlink:title="{AbstractTetrahedralMesh\l\&lt; ELEMENT_DIM, SPACE_DIM \&gt;\n||+ GetElementIteratorBegin()\l+ GetElementIteratorEnd()\l+ AbstractTetrahedralMesh()\l+ ~AbstractTetrahedralMesh()\l+ GetNumElements()\l+ GetNumLocalElements()\l+ GetNumBoundaryElements()\l+ GetNumLocalBoundaryElements()\l+ GetNumAllElements()\l+ GetNumAllBoundaryElements()\land 25 more...\l# SetElementOwnerships()\l&#45; SolveElementMapping()\l&#45; SolveBoundaryElementMapping()\l&#45; save()\l&#45; load()\l}">
<polygon fill="white" stroke="black" points="634,-606.5 634,-839.5 808,-839.5 808,-606.5 634,-606.5"/>
<text text-anchor="start" x="642" y="-827.5" font-family="Helvetica,sans-Serif" font-size="10.00">AbstractTetrahedralMesh</text>
<text text-anchor="middle" x="721" y="-816.5" font-family="Helvetica,sans-Serif" font-size="10.00">&lt; ELEMENT_DIM, SPACE_DIM &gt;</text>
<polyline fill="none" stroke="black" points="634,-809.5 808,-809.5 "/>
<text text-anchor="middle" x="721" y="-797.5" font-family="Helvetica,sans-Serif" font-size="10.00"> </text>
<polyline fill="none" stroke="black" points="634,-790.5 808,-790.5 "/>
<text text-anchor="start" x="642" y="-778.5" font-family="Helvetica,sans-Serif" font-size="10.00">+ GetElementIteratorBegin()</text>
<text text-anchor="start" x="642" y="-767.5" font-family="Helvetica,sans-Serif" font-size="10.00">+ GetElementIteratorEnd()</text>
<text text-anchor="start" x="642" y="-756.5" font-family="Helvetica,sans-Serif" font-size="10.00">+ AbstractTetrahedralMesh()</text>
<text text-anchor="start" x="642" y="-745.5" font-family="Helvetica,sans-Serif" font-size="10.00">+ ~AbstractTetrahedralMesh()</text>
<text text-anchor="start" x="642" y="-734.5" font-family="Helvetica,sans-Serif" font-size="10.00">+ GetNumElements()</text>
<text text-anchor="start" x="642" y="-723.5" font-family="Helvetica,sans-Serif" font-size="10.00">+ GetNumLocalElements()</text>
<text text-anchor="start" x="642" y="-712.5" font-family="Helvetica,sans-Serif" font-size="10.00">+ GetNumBoundaryElements()</text>
<text text-anchor="start" x="642" y="-701.5" font-family="Helvetica,sans-Serif" font-size="10.00">+ GetNumLocalBoundaryElements()</text>
<text text-anchor="start" x="642" y="-690.5" font-family="Helvetica,sans-Serif" font-size="10.00">+ GetNumAllElements()</text>
<text text-anchor="start" x="642" y="-679.5" font-family="Helvetica,sans-Serif" font-size="10.00">+ GetNumAllBoundaryElements()</text>
<text text-anchor="start" x="642" y="-668.5" font-family="Helvetica,sans-Serif" font-size="10.00">and 25 more...</text>
<text text-anchor="start" x="642" y="-657.5" font-family="Helvetica,sans-Serif" font-size="10.00"># SetElementOwnerships()</text>
<text text-anchor="start" x="642" y="-646.5" font-family="Helvetica,sans-Serif" font-size="10.00">&#45; SolveElementMapping()</text>
<text text-anchor="start" x="642" y="-635.5" font-family="Helvetica,sans-Serif" font-size="10.00">&#45; SolveBoundaryElementMapping()</text>
<text text-anchor="start" x="642" y="-624.5" font-family="Helvetica,sans-Serif" font-size="10.00">&#45; save()</text>
<text text-anchor="start" x="642" y="-613.5" font-family="Helvetica,sans-Serif" font-size="10.00">&#45; load()</text>
</a>
</g>
</g>
<!-- Node7&#45;&gt;Node16 -->
<g id="edge21" class="edge"><title>Node7&#45;&gt;Node16</title>
<path fill="none" stroke="midnightblue" d="M729.522,-953.756C728.151,-916.789 726.646,-876.228 725.288,-839.611"/>
<polygon fill="none" stroke="midnightblue" points="726.036,-954.217 729.905,-964.081 733.031,-953.958 726.036,-954.217"/>
</g>
<!-- Node8 -->
<g id="node8" class="node"><title>Node8</title>
<polygon fill="white" stroke="#bfbfbf" points="669.5,-1333.5 669.5,-1390.5 740.5,-1390.5 740.5,-1333.5 669.5,-1333.5"/>
<text text-anchor="middle" x="705" y="-1378.5" font-family="Helvetica,sans-Serif" font-size="10.00">noncopyable</text>
<polyline fill="none" stroke="#bfbfbf" points="669.5,-1371.5 740.5,-1371.5 "/>
<text text-anchor="middle" x="705" y="-1359.5" font-family="Helvetica,sans-Serif" font-size="10.00"> </text>
<polyline fill="none" stroke="#bfbfbf" points="669.5,-1352.5 740.5,-1352.5 "/>
<text text-anchor="middle" x="705" y="-1340.5" font-family="Helvetica,sans-Serif" font-size="10.00"> </text>
</g>
<!-- Node8&#45;&gt;Node7 -->
<g id="edge7" class="edge"><title>Node8&#45;&gt;Node7</title>
<path fill="none" stroke="#8b1a1a" d="M708.845,-1323.28C712.395,-1288.46 717.846,-1234.98 722.767,-1186.7"/>
<polygon fill="none" stroke="#8b1a1a" points="705.339,-1323.16 707.807,-1333.46 712.303,-1323.87 705.339,-1323.16"/>
</g>
<!-- Node9&#45;&gt;Node7 -->
<g id="edge8" class="edge"><title>Node9&#45;&gt;Node7</title>
<path fill="none" stroke="#404040" d="M803.412,-1245.28C796.997,-1229.69 790.401,-1213.65 783.947,-1197.95"/>
<polygon fill="none" stroke="#404040" points="783.841,-1197.7 777.86,-1193.67 779.277,-1186.6 785.259,-1190.62 783.841,-1197.7"/>
<text text-anchor="middle" x="858.5" y="-1213.5" font-family="Helvetica,sans-Serif" font-size="10.00"> #mpDistributedVectorFactory</text>
</g>
<!-- Node9&#45;&gt;Node9 -->
<g id="edge9" class="edge"><title>Node9&#45;&gt;Node9</title>
<path fill="none" stroke="#404040" d="M943.701,-1385.36C954.485,-1381.05 961.5,-1373.26 961.5,-1362 961.5,-1354.96 958.76,-1349.28 954.072,-1344.95"/>
<polygon fill="none" stroke="#404040" points="953.95,-1344.88 946.745,-1345.17 943.701,-1338.64 950.907,-1338.34 953.95,-1344.88"/>
<text text-anchor="middle" x="1004.5" y="-1359.5" font-family="Helvetica,sans-Serif" font-size="10.00"> &#45;mpOriginalFactory</text>
</g>
<!-- Node10 -->
<g id="node10" class="node"><title>Node10</title>
<g id="a_node10"><a xlink:href="classbool.html" target="_top" xlink:title="{bool\n||}">
<polygon fill="white" stroke="black" points="1157.5,-1559.5 1157.5,-1616.5 1192.5,-1616.5 1192.5,-1559.5 1157.5,-1559.5"/>
<text text-anchor="middle" x="1175" y="-1604.5" font-family="Helvetica,sans-Serif" font-size="10.00">bool</text>
<polyline fill="none" stroke="black" points="1157.5,-1597.5 1192.5,-1597.5 "/>
<text text-anchor="middle" x="1175" y="-1585.5" font-family="Helvetica,sans-Serif" font-size="10.00"> </text>
<polyline fill="none" stroke="black" points="1157.5,-1578.5 1192.5,-1578.5 "/>
<text text-anchor="middle" x="1175" y="-1566.5" font-family="Helvetica,sans-Serif" font-size="10.00"> </text>
</a>
</g>
</g>
<!-- Node10&#45;&gt;Node6 -->
<g id="edge17" class="edge"><title>Node10&#45;&gt;Node6</title>
<path fill="none" stroke="#404040" d="M1192.7,-1578.3C1207.9,-1570.19 1229.71,-1556.96 1245,-1541 1302.64,-1480.8 1304,-1446.34 1304,-1363 1304,-1363 1304,-1363 1304,-722 1304,-478.557 924.535,-437.453 739.33,-431.889"/>
<polygon fill="none" stroke="#404040" points="739.143,-431.884 733.039,-435.723 727.148,-431.566 733.252,-427.726 739.143,-431.884"/>
<text text-anchor="middle" x="1342" y="-1073" font-family="Helvetica,sans-Serif" font-size="10.00"> #mMeshIsLinear</text>
</g>
<!-- Node10&#45;&gt;Node7 -->
<g id="edge15" class="edge"><title>Node10&#45;&gt;Node7</title>
<path fill="none" stroke="#404040" d="M1157.31,-1567.93C1139.41,-1547.52 1112.4,-1513.41 1098,-1479 1057.23,-1381.6 1119.35,-1330.21 1057,-1245 998.237,-1164.69 889.703,-1119.45 814.77,-1096.51"/>
<polygon fill="none" stroke="#404040" points="814.545,-1096.44 807.653,-1098.56 803.045,-1093.02 809.937,-1090.9 814.545,-1096.44"/>
<text text-anchor="middle" x="1175" y="-1359.5" font-family="Helvetica,sans-Serif" font-size="10.00"> #mMeshChangesDuringSimulation</text>
</g>
<!-- Node10&#45;&gt;Node9 -->
<g id="edge11" class="edge"><title>Node10&#45;&gt;Node9</title>
<path fill="none" stroke="#404040" d="M1157.21,-1585.78C1106.99,-1582.03 965.552,-1569.13 930,-1541 912.694,-1527.31 899.077,-1509.03 888.394,-1489.39"/>
<polygon fill="none" stroke="#404040" points="888.383,-1489.37 882.088,-1485.85 882.913,-1478.68 889.209,-1482.2 888.383,-1489.37"/>
<text text-anchor="start" x="930" y="-1527.5" font-family="Helvetica,sans-Serif" font-size="10.00"> &#45;msCheckNumberOfProcesses</text>
<text text-anchor="middle" x="1000" y="-1516.5" font-family="Helvetica,sans-Serif" font-size="10.00">OnLoad</text>
<text text-anchor="middle" x="1000" y="-1505.5" font-family="Helvetica,sans-Serif" font-size="10.00">&#45;mPetscStatusKnown</text>
</g>
<!-- Node10&#45;&gt;Node16 -->
<g id="edge22" class="edge"><title>Node10&#45;&gt;Node16</title>
<path fill="none" stroke="#404040" d="M1192.54,-1569.84C1211.43,-1550.01 1240.35,-1515.41 1252,-1479 1283.7,-1379.95 1307.61,-1332.88 1252,-1245 1242.01,-1229.21 1229.22,-1237.84 1214,-1227 1058.19,-1116.02 908.706,-952.843 816,-842.704"/>
<polygon fill="none" stroke="#404040" points="815.751,-842.406 808.831,-840.379 808.04,-833.211 814.961,-835.238 815.751,-842.406"/>
<text text-anchor="middle" x="1252" y="-1213.5" font-family="Helvetica,sans-Serif" font-size="10.00"> #mMeshIsLinear</text>
</g>
<!-- Node11 -->
<g id="node11" class="node"><title>Node11</title>
<g id="a_node11"><a xlink:href="classunsigned.html" target="_top" xlink:title="{unsigned\n||}">
<polygon fill="white" stroke="black" points="1350,-1559.5 1350,-1616.5 1406,-1616.5 1406,-1559.5 1350,-1559.5"/>
<text text-anchor="middle" x="1378" y="-1604.5" font-family="Helvetica,sans-Serif" font-size="10.00">unsigned</text>
<polyline fill="none" stroke="black" points="1350,-1597.5 1406,-1597.5 "/>
<text text-anchor="middle" x="1378" y="-1585.5" font-family="Helvetica,sans-Serif" font-size="10.00"> </text>
<polyline fill="none" stroke="black" points="1350,-1578.5 1406,-1578.5 "/>
<text text-anchor="middle" x="1378" y="-1566.5" font-family="Helvetica,sans-Serif" font-size="10.00"> </text>
</a>
</g>
</g>
<!-- Node11&#45;&gt;Node1 -->
<g id="edge25" class="edge"><title>Node11&#45;&gt;Node1</title>
<path fill="none" stroke="#404040" d="M1386.4,-1559.36C1398.39,-1517.36 1419,-1434.76 1419,-1363 1419,-1363 1419,-1363 1419,-430 1419,-230.022 717.597,-149.061 454.292,-125.713"/>
<polygon fill="none" stroke="#404040" points="454.044,-125.692 447.718,-129.153 442.089,-124.645 448.415,-121.184 454.044,-125.692"/>
<text text-anchor="middle" x="1497.5" y="-938" font-family="Helvetica,sans-Serif" font-size="10.00"> +RIGHT_VENTRICLE_SURFACE</text>
<text text-anchor="middle" x="1497.5" y="-927" font-family="Helvetica,sans-Serif" font-size="10.00">+LEFT_VENTRICLE_SURFACE</text>
<text text-anchor="middle" x="1497.5" y="-916" font-family="Helvetica,sans-Serif" font-size="10.00">+LEFT_VENTRICLE_WALL</text>
<text text-anchor="middle" x="1497.5" y="-905" font-family="Helvetica,sans-Serif" font-size="10.00">&#45;mNumberOfSurfacesProvided</text>
<text text-anchor="middle" x="1497.5" y="-894" font-family="Helvetica,sans-Serif" font-size="10.00">+RIGHT_VENTRICLE_WALL</text>
<text text-anchor="middle" x="1497.5" y="-883" font-family="Helvetica,sans-Serif" font-size="10.00">+LEFT_SEPTUM</text>
<text text-anchor="middle" x="1497.5" y="-872" font-family="Helvetica,sans-Serif" font-size="10.00">+RIGHT_SEPTUM</text>
<text text-anchor="middle" x="1497.5" y="-861" font-family="Helvetica,sans-Serif" font-size="10.00">+UNKNOWN</text>
</g>
<!-- Node11&#45;&gt;Node9 -->
<g id="edge12" class="edge"><title>Node11&#45;&gt;Node9</title>
<path fill="none" stroke="#404040" d="M1349.91,-1579.19C1293.97,-1563.24 1165.15,-1524.57 1062,-1479 1026.03,-1463.11 988.005,-1443.23 954.291,-1424.45"/>
<polygon fill="none" stroke="#404040" points="953.969,-1424.27 946.779,-1424.82 943.505,-1418.39 950.695,-1417.84 953.969,-1424.27"/>
<text text-anchor="middle" x="1256.5" y="-1533" font-family="Helvetica,sans-Serif" font-size="10.00"> &#45;mHi</text>
<text text-anchor="middle" x="1256.5" y="-1522" font-family="Helvetica,sans-Serif" font-size="10.00">&#45;mNumProcs</text>
<text text-anchor="middle" x="1256.5" y="-1511" font-family="Helvetica,sans-Serif" font-size="10.00">&#45;mLo</text>
<text text-anchor="middle" x="1256.5" y="-1500" font-family="Helvetica,sans-Serif" font-size="10.00">&#45;mProblemSize</text>
</g>
<!-- Node12 -->
<g id="node12" class="node"><title>Node12</title>
<polygon fill="white" stroke="#bfbfbf" points="337.5,-1328 337.5,-1396 456.5,-1396 456.5,-1328 337.5,-1328"/>
<text text-anchor="start" x="345.5" y="-1384" font-family="Helvetica,sans-Serif" font-size="10.00">vector&lt; Node&lt; SPACE</text>
<text text-anchor="middle" x="397" y="-1373" font-family="Helvetica,sans-Serif" font-size="10.00">_DIM &gt; * &gt;</text>
<polyline fill="none" stroke="#bfbfbf" points="337.5,-1366 456.5,-1366 "/>
<text text-anchor="middle" x="397" y="-1354" font-family="Helvetica,sans-Serif" font-size="10.00"> </text>
<polyline fill="none" stroke="#bfbfbf" points="337.5,-1347 456.5,-1347 "/>
<text text-anchor="middle" x="397" y="-1335" font-family="Helvetica,sans-Serif" font-size="10.00"> </text>
</g>
<!-- Node12&#45;&gt;Node7 -->
<g id="edge13" class="edge"><title>Node12&#45;&gt;Node7</title>
<path fill="none" stroke="#404040" d="M385.861,-1327.87C376.308,-1292.57 368.411,-1237.4 399,-1205 435.935,-1165.88 586.716,-1209.33 653.735,-1185.71"/>
<polygon fill="none" stroke="#404040" points="653.918,-1185.62 657.745,-1179.51 664.858,-1180.69 661.032,-1186.81 653.918,-1185.62"/>
<text text-anchor="middle" x="442.5" y="-1219" font-family="Helvetica,sans-Serif" font-size="10.00"> #mBoundaryNodes</text>
<text text-anchor="middle" x="442.5" y="-1208" font-family="Helvetica,sans-Serif" font-size="10.00">#mNodes</text>
</g>
<!-- Node13 -->
<g id="node13" class="node"><title>Node13</title>
<polygon fill="white" stroke="#bfbfbf" points="480.5,-1333.5 480.5,-1390.5 521.5,-1390.5 521.5,-1333.5 480.5,-1333.5"/>
<text text-anchor="middle" x="501" y="-1378.5" font-family="Helvetica,sans-Serif" font-size="10.00">string</text>
<polyline fill="none" stroke="#bfbfbf" points="480.5,-1371.5 521.5,-1371.5 "/>
<text text-anchor="middle" x="501" y="-1359.5" font-family="Helvetica,sans-Serif" font-size="10.00"> </text>
<polyline fill="none" stroke="#bfbfbf" points="480.5,-1352.5 521.5,-1352.5 "/>
<text text-anchor="middle" x="501" y="-1340.5" font-family="Helvetica,sans-Serif" font-size="10.00"> </text>
</g>
<!-- Node13&#45;&gt;Node7 -->
<g id="edge16" class="edge"><title>Node13&#45;&gt;Node7</title>
<path fill="none" stroke="#404040" d="M491.393,-1333.45C481.281,-1298.88 470.752,-1239.91 502,-1205 522.914,-1181.63 609.161,-1200.58 653.64,-1185.54"/>
<polygon fill="none" stroke="#404040" points="653.818,-1185.46 657.621,-1179.33 664.739,-1180.49 660.936,-1186.61 653.818,-1185.46"/>
<text text-anchor="middle" x="555" y="-1213.5" font-family="Helvetica,sans-Serif" font-size="10.00"> #mMeshFileBaseName</text>
</g>
<!-- Node14 -->
<g id="node14" class="node"><title>Node14</title>
<polygon fill="white" stroke="#bfbfbf" points="337,-1036 337,-1115 483,-1115 483,-1036 337,-1036"/>
<text text-anchor="start" x="345" y="-1103" font-family="Helvetica,sans-Serif" font-size="10.00">vector&lt; BoundaryElement</text>
<text text-anchor="start" x="345" y="-1092" font-family="Helvetica,sans-Serif" font-size="10.00">&lt; ELEMENT_DIM&#45;1, SPACE</text>
<text text-anchor="middle" x="410" y="-1081" font-family="Helvetica,sans-Serif" font-size="10.00">_DIM &gt; * &gt;</text>
<polyline fill="none" stroke="#bfbfbf" points="337,-1074 483,-1074 "/>
<text text-anchor="middle" x="410" y="-1062" font-family="Helvetica,sans-Serif" font-size="10.00"> </text>
<polyline fill="none" stroke="#bfbfbf" points="337,-1055 483,-1055 "/>
<text text-anchor="middle" x="410" y="-1043" font-family="Helvetica,sans-Serif" font-size="10.00"> </text>
</g>
<!-- Node14&#45;&gt;Node6 -->
<g id="edge18" class="edge"><title>Node14&#45;&gt;Node6</title>
<path fill="none" stroke="#404040" d="M403.881,-1035.88C392.545,-952.425 375.485,-751.084 447,-606 468.606,-562.168 506.481,-524.277 542.99,-495.146"/>
<polygon fill="none" stroke="#404040" points="543.27,-494.929 545.541,-488.084 552.733,-487.549 550.461,-494.393 543.27,-494.929"/>
<text text-anchor="middle" x="497" y="-720.5" font-family="Helvetica,sans-Serif" font-size="10.00"> #mBoundaryElements</text>
</g>
<!-- Node14&#45;&gt;Node16 -->
<g id="edge23" class="edge"><title>Node14&#45;&gt;Node16</title>
<path fill="none" stroke="#404040" d="M419.877,-1035.63C434.559,-986.201 467.074,-901.993 527,-858 560.937,-833.086 583.523,-861.021 620,-840 621.186,-839.317 622.364,-838.614 623.536,-837.894"/>
<polygon fill="none" stroke="#404040" points="623.918,-837.638 626.669,-830.972 633.88,-830.948 631.129,-837.614 623.918,-837.638"/>
<text text-anchor="middle" x="577" y="-899.5" font-family="Helvetica,sans-Serif" font-size="10.00"> #mBoundaryElements</text>
</g>
<!-- Node15 -->
<g id="node15" class="node"><title>Node15</title>
<polygon fill="white" stroke="#bfbfbf" points="501.5,-1041.5 501.5,-1109.5 646.5,-1109.5 646.5,-1041.5 501.5,-1041.5"/>
<text text-anchor="start" x="509.5" y="-1097.5" font-family="Helvetica,sans-Serif" font-size="10.00">vector&lt; Element&lt; ELEMENT</text>
<text text-anchor="middle" x="574" y="-1086.5" font-family="Helvetica,sans-Serif" font-size="10.00">_DIM, SPACE_DIM &gt; * &gt;</text>
<polyline fill="none" stroke="#bfbfbf" points="501.5,-1079.5 646.5,-1079.5 "/>
<text text-anchor="middle" x="574" y="-1067.5" font-family="Helvetica,sans-Serif" font-size="10.00"> </text>
<polyline fill="none" stroke="#bfbfbf" points="501.5,-1060.5 646.5,-1060.5 "/>
<text text-anchor="middle" x="574" y="-1048.5" font-family="Helvetica,sans-Serif" font-size="10.00"> </text>
</g>
<!-- Node15&#45;&gt;Node6 -->
<g id="edge19" class="edge"><title>Node15&#45;&gt;Node6</title>
<path fill="none" stroke="#404040" d="M568.744,-1041.4C557.509,-964.182 534.698,-766.49 567,-606 570.091,-590.645 574.573,-574.956 579.82,-559.594"/>
<polygon fill="none" stroke="#404040" points="579.95,-559.227 578.192,-552.234 583.971,-547.92 585.729,-554.914 579.95,-559.227"/>
<text text-anchor="middle" x="596" y="-720.5" font-family="Helvetica,sans-Serif" font-size="10.00"> #mElements</text>
</g>
<!-- Node15&#45;&gt;Node16 -->
<g id="edge24" class="edge"><title>Node15&#45;&gt;Node16</title>
<path fill="none" stroke="#404040" d="M587.962,-1041.21C606.19,-997.748 639.138,-919.188 667.683,-851.127"/>
<polygon fill="none" stroke="#404040" points="667.765,-850.931 666.397,-843.851 672.406,-839.865 673.774,-846.945 667.765,-850.931"/>
<text text-anchor="middle" x="690" y="-899.5" font-family="Helvetica,sans-Serif" font-size="10.00"> #mElements</text>
</g>
<!-- Node16&#45;&gt;Node6 -->
<g id="edge20" class="edge"><title>Node16&#45;&gt;Node6</title>
<path fill="none" stroke="orange" d="M685.85,-596.154C681.351,-580.046 676.762,-563.617 672.311,-547.682"/>
<polygon fill="orange" stroke="orange" points="682.576,-597.444 688.637,-606.134 689.318,-595.561 682.576,-597.444"/>
<text text-anchor="start" x="683" y="-580" font-family="Helvetica,sans-Serif" font-size="10.00"> &lt; SPACE_DIM, SPACE</text>
<text text-anchor="middle" x="739" y="-569" font-family="Helvetica,sans-Serif" font-size="10.00">_DIM &gt;</text>
</g>
</g>
</svg>
