<?xml version="1.0" encoding="UTF-8" standalone="no"?>
<!DOCTYPE svg PUBLIC "-//W3C//DTD SVG 1.1//EN"
 "http://www.w3.org/Graphics/SVG/1.1/DTD/svg11.dtd">
<!-- Generated by graphviz version 2.38.0 (20140413.2041)
 -->
<!-- Title: AbstractCellProliferativeType Pages: 1 -->
<svg width="696pt" height="524pt"
 viewBox="0.00 0.00 696.00 524.00" xmlns="http://www.w3.org/2000/svg" xmlns:xlink="http://www.w3.org/1999/xlink">
<g id="graph0" class="graph" transform="scale(1 1) rotate(0) translate(4 520)">
<title>AbstractCellProliferativeType</title>
<polygon fill="white" stroke="none" points="-4,4 -4,-520 692,-520 692,4 -4,4"/>
<!-- Node1 -->
<g id="node1" class="node"><title>Node1</title>
<polygon fill="#bfbfbf" stroke="black" points="271.5,-105.5 271.5,-206.5 436.5,-206.5 436.5,-105.5 271.5,-105.5"/>
<text text-anchor="middle" x="354" y="-194.5" font-family="Helvetica,sans-Serif" font-size="10.00">AbstractCellProliferativeType</text>
<polyline fill="none" stroke="black" points="271.5,-187.5 436.5,-187.5 "/>
<text text-anchor="start" x="279.5" y="-175.5" font-family="Helvetica,sans-Serif" font-size="10.00">&#45; mColour</text>
<polyline fill="none" stroke="black" points="271.5,-168.5 436.5,-168.5 "/>
<text text-anchor="start" x="279.5" y="-156.5" font-family="Helvetica,sans-Serif" font-size="10.00">+ AbstractCellProliferativeType()</text>
<text text-anchor="start" x="279.5" y="-145.5" font-family="Helvetica,sans-Serif" font-size="10.00">+ ~AbstractCellProliferativeType()</text>
<text text-anchor="start" x="279.5" y="-134.5" font-family="Helvetica,sans-Serif" font-size="10.00">+ GetColour()</text>
<text text-anchor="start" x="279.5" y="-123.5" font-family="Helvetica,sans-Serif" font-size="10.00">&#45; serialize()</text>
<text text-anchor="start" x="279.5" y="-112.5" font-family="Helvetica,sans-Serif" font-size="10.00">&#45; AbstractCellProliferativeType()</text>
</g>
<!-- Node4 -->
<g id="node4" class="node"><title>Node4</title>
<g id="a_node4"><a xlink:href="classDefaultCellProliferativeType.html" target="_top" xlink:title="{DefaultCellProliferativeType\n||+ DefaultCellProliferativeType()\l&#45; serialize()\l}">
<polygon fill="white" stroke="black" points="0,-0.5 0,-68.5 154,-68.5 154,-0.5 0,-0.5"/>
<text text-anchor="middle" x="77" y="-56.5" font-family="Helvetica,sans-Serif" font-size="10.00">DefaultCellProliferativeType</text>
<polyline fill="none" stroke="black" points="0,-49.5 154,-49.5 "/>
<text text-anchor="middle" x="77" y="-37.5" font-family="Helvetica,sans-Serif" font-size="10.00"> </text>
<polyline fill="none" stroke="black" points="0,-30.5 154,-30.5 "/>
<text text-anchor="start" x="8" y="-18.5" font-family="Helvetica,sans-Serif" font-size="10.00">+ DefaultCellProliferativeType()</text>
<text text-anchor="start" x="8" y="-7.5" font-family="Helvetica,sans-Serif" font-size="10.00">&#45; serialize()</text>
</a>
</g>
</g>
<!-- Node1&#45;&gt;Node4 -->
<g id="edge3" class="edge"><title>Node1&#45;&gt;Node4</title>
<path fill="none" stroke="midnightblue" d="M261.963,-115.294C226.827,-100.137 187.18,-83.0326 153.63,-68.5587"/>
<polygon fill="none" stroke="midnightblue" points="260.698,-118.56 271.266,-119.308 263.471,-112.133 260.698,-118.56"/>
</g>
<!-- Node5 -->
<g id="node5" class="node"><title>Node5</title>
<g id="a_node5"><a xlink:href="classDifferentiatedCellProliferativeType.html" target="_top" xlink:title="{DifferentiatedCellProliferativeType\n||+ DifferentiatedCellProliferativeType()\l&#45; serialize()\l}">
<polygon fill="white" stroke="black" points="172.5,-0.5 172.5,-68.5 353.5,-68.5 353.5,-0.5 172.5,-0.5"/>
<text text-anchor="middle" x="263" y="-56.5" font-family="Helvetica,sans-Serif" font-size="10.00">DifferentiatedCellProliferativeType</text>
<polyline fill="none" stroke="black" points="172.5,-49.5 353.5,-49.5 "/>
<text text-anchor="middle" x="263" y="-37.5" font-family="Helvetica,sans-Serif" font-size="10.00"> </text>
<polyline fill="none" stroke="black" points="172.5,-30.5 353.5,-30.5 "/>
<text text-anchor="start" x="180.5" y="-18.5" font-family="Helvetica,sans-Serif" font-size="10.00">+ DifferentiatedCellProliferativeType()</text>
<text text-anchor="start" x="180.5" y="-7.5" font-family="Helvetica,sans-Serif" font-size="10.00">&#45; serialize()</text>
</a>
</g>
</g>
<!-- Node1&#45;&gt;Node5 -->
<g id="edge4" class="edge"><title>Node1&#45;&gt;Node5</title>
<path fill="none" stroke="midnightblue" d="M309.998,-97.2176C302.582,-87.4784 295.112,-77.6694 288.379,-68.8271"/>
<polygon fill="none" stroke="midnightblue" points="307.355,-99.524 316.198,-105.359 312.924,-95.2831 307.355,-99.524"/>
</g>
<!-- Node6 -->
<g id="node6" class="node"><title>Node6</title>
<g id="a_node6"><a xlink:href="classStemCellProliferativeType.html" target="_top" xlink:title="{StemCellProliferativeType\n||+ StemCellProliferativeType()\l&#45; serialize()\l}">
<polygon fill="white" stroke="black" points="372,-0.5 372,-68.5 518,-68.5 518,-0.5 372,-0.5"/>
<text text-anchor="middle" x="445" y="-56.5" font-family="Helvetica,sans-Serif" font-size="10.00">StemCellProliferativeType</text>
<polyline fill="none" stroke="black" points="372,-49.5 518,-49.5 "/>
<text text-anchor="middle" x="445" y="-37.5" font-family="Helvetica,sans-Serif" font-size="10.00"> </text>
<polyline fill="none" stroke="black" points="372,-30.5 518,-30.5 "/>
<text text-anchor="start" x="380" y="-18.5" font-family="Helvetica,sans-Serif" font-size="10.00">+ StemCellProliferativeType()</text>
<text text-anchor="start" x="380" y="-7.5" font-family="Helvetica,sans-Serif" font-size="10.00">&#45; serialize()</text>
</a>
</g>
</g>
<!-- Node1&#45;&gt;Node6 -->
<g id="edge5" class="edge"><title>Node1&#45;&gt;Node6</title>
<path fill="none" stroke="midnightblue" d="M398.002,-97.2176C405.418,-87.4784 412.888,-77.6694 419.621,-68.8271"/>
<polygon fill="none" stroke="midnightblue" points="395.076,-95.2831 391.802,-105.359 400.645,-99.524 395.076,-95.2831"/>
</g>
<!-- Node7 -->
<g id="node7" class="node"><title>Node7</title>
<g id="a_node7"><a xlink:href="classTransitCellProliferativeType.html" target="_top" xlink:title="{TransitCellProliferativeType\n||+ TransitCellProliferativeType()\l&#45; serialize()\l}">
<polygon fill="white" stroke="black" points="536,-0.5 536,-68.5 688,-68.5 688,-0.5 536,-0.5"/>
<text text-anchor="middle" x="612" y="-56.5" font-family="Helvetica,sans-Serif" font-size="10.00">TransitCellProliferativeType</text>
<polyline fill="none" stroke="black" points="536,-49.5 688,-49.5 "/>
<text text-anchor="middle" x="612" y="-37.5" font-family="Helvetica,sans-Serif" font-size="10.00"> </text>
<polyline fill="none" stroke="black" points="536,-30.5 688,-30.5 "/>
<text text-anchor="start" x="544" y="-18.5" font-family="Helvetica,sans-Serif" font-size="10.00">+ TransitCellProliferativeType()</text>
<text text-anchor="start" x="544" y="-7.5" font-family="Helvetica,sans-Serif" font-size="10.00">&#45; serialize()</text>
</a>
</g>
</g>
<!-- Node1&#45;&gt;Node7 -->
<g id="edge6" class="edge"><title>Node1&#45;&gt;Node7</title>
<path fill="none" stroke="midnightblue" d="M445.823,-112.469C476.979,-98.0387 511.298,-82.1428 540.619,-68.5621"/>
<polygon fill="none" stroke="midnightblue" points="444.3,-109.318 436.697,-116.696 447.242,-115.669 444.3,-109.318"/>
</g>
<!-- Node2 -->
<g id="node2" class="node"><title>Node2</title>
<g id="a_node2"><a xlink:href="classAbstractCellProperty.html" target="_top" xlink:title="{AbstractCellProperty\n|&#45; mCellCount\l|+ AbstractCellProperty()\l+ ~AbstractCellProperty()\l+ IsType()\l+ IsSubType()\l+ IsSame()\l+ IsSame()\l+ IncrementCellCount()\l+ DecrementCellCount()\l+ GetCellCount()\l&#45; serialize()\l}">
<polygon fill="white" stroke="black" points="290,-243.5 290,-399.5 418,-399.5 418,-243.5 290,-243.5"/>
<text text-anchor="middle" x="354" y="-387.5" font-family="Helvetica,sans-Serif" font-size="10.00">AbstractCellProperty</text>
<polyline fill="none" stroke="black" points="290,-380.5 418,-380.5 "/>
<text text-anchor="start" x="298" y="-368.5" font-family="Helvetica,sans-Serif" font-size="10.00">&#45; mCellCount</text>
<polyline fill="none" stroke="black" points="290,-361.5 418,-361.5 "/>
<text text-anchor="start" x="298" y="-349.5" font-family="Helvetica,sans-Serif" font-size="10.00">+ AbstractCellProperty()</text>
<text text-anchor="start" x="298" y="-338.5" font-family="Helvetica,sans-Serif" font-size="10.00">+ ~AbstractCellProperty()</text>
<text text-anchor="start" x="298" y="-327.5" font-family="Helvetica,sans-Serif" font-size="10.00">+ IsType()</text>
<text text-anchor="start" x="298" y="-316.5" font-family="Helvetica,sans-Serif" font-size="10.00">+ IsSubType()</text>
<text text-anchor="start" x="298" y="-305.5" font-family="Helvetica,sans-Serif" font-size="10.00">+ IsSame()</text>
<text text-anchor="start" x="298" y="-294.5" font-family="Helvetica,sans-Serif" font-size="10.00">+ IsSame()</text>
<text text-anchor="start" x="298" y="-283.5" font-family="Helvetica,sans-Serif" font-size="10.00">+ IncrementCellCount()</text>
<text text-anchor="start" x="298" y="-272.5" font-family="Helvetica,sans-Serif" font-size="10.00">+ DecrementCellCount()</text>
<text text-anchor="start" x="298" y="-261.5" font-family="Helvetica,sans-Serif" font-size="10.00">+ GetCellCount()</text>
<text text-anchor="start" x="298" y="-250.5" font-family="Helvetica,sans-Serif" font-size="10.00">&#45; serialize()</text>
</a>
</g>
</g>
<!-- Node2&#45;&gt;Node1 -->
<g id="edge1" class="edge"><title>Node2&#45;&gt;Node1</title>
<path fill="none" stroke="midnightblue" d="M354,-232.897C354,-223.911 354,-215.02 354,-206.661"/>
<polygon fill="none" stroke="midnightblue" points="350.5,-233.059 354,-243.059 357.5,-233.059 350.5,-233.059"/>
</g>
<!-- Node3 -->
<g id="node3" class="node"><title>Node3</title>
<g id="a_node3"><a xlink:href="classIdentifiable.html" target="_top" xlink:title="{Identifiable\n||+ ~Identifiable()\l+ GetIdentifier()\l&#45; TidyTemplatedExportIdentifier()\l}">
<polygon fill="white" stroke="black" points="274.5,-436.5 274.5,-515.5 433.5,-515.5 433.5,-436.5 274.5,-436.5"/>
<text text-anchor="middle" x="354" y="-503.5" font-family="Helvetica,sans-Serif" font-size="10.00">Identifiable</text>
<polyline fill="none" stroke="black" points="274.5,-496.5 433.5,-496.5 "/>
<text text-anchor="middle" x="354" y="-484.5" font-family="Helvetica,sans-Serif" font-size="10.00"> </text>
<polyline fill="none" stroke="black" points="274.5,-477.5 433.5,-477.5 "/>
<text text-anchor="start" x="282.5" y="-465.5" font-family="Helvetica,sans-Serif" font-size="10.00">+ ~Identifiable()</text>
<text text-anchor="start" x="282.5" y="-454.5" font-family="Helvetica,sans-Serif" font-size="10.00">+ GetIdentifier()</text>
<text text-anchor="start" x="282.5" y="-443.5" font-family="Helvetica,sans-Serif" font-size="10.00">&#45; TidyTemplatedExportIdentifier()</text>
</a>
</g>
</g>
<!-- Node3&#45;&gt;Node2 -->
<g id="edge2" class="edge"><title>Node3&#45;&gt;Node2</title>
<path fill="none" stroke="midnightblue" d="M354,-426.08C354,-417.607 354,-408.615 354,-399.608"/>
<polygon fill="none" stroke="midnightblue" points="350.5,-426.123 354,-436.123 357.5,-426.123 350.5,-426.123"/>
</g>
</g>
</svg>
