<?xml version="1.0" encoding="UTF-8" standalone="no"?>
<!DOCTYPE svg PUBLIC "-//W3C//DTD SVG 1.1//EN"
 "http://www.w3.org/Graphics/SVG/1.1/DTD/svg11.dtd">
<!-- Generated by graphviz version 2.38.0 (20140413.2041)
 -->
<!-- Title: StressPerElementWriter&lt; DIM &gt; Pages: 1 -->
<svg width="516pt" height="601pt"
 viewBox="0.00 0.00 516.00 601.00" xmlns="http://www.w3.org/2000/svg" xmlns:xlink="http://www.w3.org/1999/xlink">
<g id="graph0" class="graph" transform="scale(1 1) rotate(0) translate(4 597)">
<title>StressPerElementWriter&lt; DIM &gt;</title>
<polygon fill="white" stroke="none" points="-4,4 -4,-597 512,-597 512,4 -4,4"/>
<!-- Node1 -->
<g id="node1" class="node"><title>Node1</title>
<polygon fill="#bfbfbf" stroke="black" points="331,-0.5 331,-79.5 468,-79.5 468,-0.5 331,-0.5"/>
<text text-anchor="start" x="339" y="-67.5" font-family="Helvetica,sans-Serif" font-size="10.00">StressPerElementWriter</text>
<text text-anchor="middle" x="399.5" y="-56.5" font-family="Helvetica,sans-Serif" font-size="10.00">&lt; DIM &gt;</text>
<polyline fill="none" stroke="black" points="331,-49.5 468,-49.5 "/>
<text text-anchor="middle" x="399.5" y="-37.5" font-family="Helvetica,sans-Serif" font-size="10.00"> </text>
<polyline fill="none" stroke="black" points="331,-30.5 468,-30.5 "/>
<text text-anchor="start" x="339" y="-18.5" font-family="Helvetica,sans-Serif" font-size="10.00">+ StressPerElementWriter()</text>
<text text-anchor="start" x="339" y="-7.5" font-family="Helvetica,sans-Serif" font-size="10.00">+ Visit()</text>
</g>
<!-- Node2 -->
<g id="node2" class="node"><title>Node2</title>
<g id="a_node2"><a xlink:href="classAbstractPerElementWriter.html" target="_top" xlink:title="{AbstractPerElementWriter\l\&lt; DIM, DIM, DIM *DIM \&gt;\n||+ AbstractPerElementWriter()\l+ WriteData()\l+ SetWriteFileAsBinary()\l+ ~AbstractPerElementWriter()\l# Visit()\l# WriteElementOnMaster()\l# WriteHeaderOnMaster()\l# PreWriteCalculations()\l}">
<polygon fill="white" stroke="black" points="202.5,-127.5 202.5,-272.5 354.5,-272.5 354.5,-127.5 202.5,-127.5"/>
<text text-anchor="start" x="210.5" y="-260.5" font-family="Helvetica,sans-Serif" font-size="10.00">AbstractPerElementWriter</text>
<text text-anchor="middle" x="278.5" y="-249.5" font-family="Helvetica,sans-Serif" font-size="10.00">&lt; DIM, DIM, DIM *DIM &gt;</text>
<polyline fill="none" stroke="black" points="202.5,-242.5 354.5,-242.5 "/>
<text text-anchor="middle" x="278.5" y="-230.5" font-family="Helvetica,sans-Serif" font-size="10.00"> </text>
<polyline fill="none" stroke="black" points="202.5,-223.5 354.5,-223.5 "/>
<text text-anchor="start" x="210.5" y="-211.5" font-family="Helvetica,sans-Serif" font-size="10.00">+ AbstractPerElementWriter()</text>
<text text-anchor="start" x="210.5" y="-200.5" font-family="Helvetica,sans-Serif" font-size="10.00">+ WriteData()</text>
<text text-anchor="start" x="210.5" y="-189.5" font-family="Helvetica,sans-Serif" font-size="10.00">+ SetWriteFileAsBinary()</text>
<text text-anchor="start" x="210.5" y="-178.5" font-family="Helvetica,sans-Serif" font-size="10.00">+ ~AbstractPerElementWriter()</text>
<text text-anchor="start" x="210.5" y="-167.5" font-family="Helvetica,sans-Serif" font-size="10.00"># Visit()</text>
<text text-anchor="start" x="210.5" y="-156.5" font-family="Helvetica,sans-Serif" font-size="10.00"># WriteElementOnMaster()</text>
<text text-anchor="start" x="210.5" y="-145.5" font-family="Helvetica,sans-Serif" font-size="10.00"># WriteHeaderOnMaster()</text>
<text text-anchor="start" x="210.5" y="-134.5" font-family="Helvetica,sans-Serif" font-size="10.00"># PreWriteCalculations()</text>
</a>
</g>
</g>
<!-- Node2&#45;&gt;Node1 -->
<g id="edge1" class="edge"><title>Node2&#45;&gt;Node1</title>
<path fill="none" stroke="midnightblue" d="M339.569,-119.257C350.169,-105.416 360.745,-91.6053 369.997,-79.5248"/>
<polygon fill="none" stroke="midnightblue" points="336.637,-117.329 333.336,-127.397 342.194,-121.585 336.637,-117.329"/>
</g>
<!-- Node3 -->
<g id="node3" class="node"><title>Node3</title>
<polygon fill="white" stroke="#bfbfbf" points="0,-524.5 0,-592.5 177,-592.5 177,-524.5 0,-524.5"/>
<text text-anchor="start" x="8" y="-580.5" font-family="Helvetica,sans-Serif" font-size="10.00">AbstractTetrahedralMesh</text>
<text text-anchor="middle" x="88.5" y="-569.5" font-family="Helvetica,sans-Serif" font-size="10.00">&lt; ELEMENT_DIM, SPACE_DIM &gt; *</text>
<polyline fill="none" stroke="#bfbfbf" points="0,-562.5 177,-562.5 "/>
<text text-anchor="middle" x="88.5" y="-550.5" font-family="Helvetica,sans-Serif" font-size="10.00"> </text>
<polyline fill="none" stroke="#bfbfbf" points="0,-543.5 177,-543.5 "/>
<text text-anchor="middle" x="88.5" y="-531.5" font-family="Helvetica,sans-Serif" font-size="10.00"> </text>
</g>
<!-- Node3&#45;&gt;Node2 -->
<g id="edge2" class="edge"><title>Node3&#45;&gt;Node2</title>
<path fill="none" stroke="#404040" d="M78.9951,-524.301C67.1557,-475.97 52.5518,-384.932 88.5,-320 110.548,-280.175 152.107,-251.901 190.748,-232.936"/>
<polygon fill="none" stroke="#404040" points="191.23,-232.709 194.951,-226.532 202.084,-227.59 198.363,-233.767 191.23,-232.709"/>
<text text-anchor="middle" x="111.5" y="-396" font-family="Helvetica,sans-Serif" font-size="10.00"> #mpMesh</text>
</g>
<!-- Node6 -->
<g id="node6" class="node"><title>Node6</title>
<g id="a_node6"><a xlink:href="classAbstractPerElementWriter.html" target="_top" xlink:title="{AbstractPerElementWriter\l\&lt; ELEMENT_DIM, SPACE_DIM,\l DATA_SIZE \&gt;\n||+ AbstractPerElementWriter()\l+ WriteData()\l+ SetWriteFileAsBinary()\l+ ~AbstractPerElementWriter()\l# Visit()\l# WriteElementOnMaster()\l# WriteHeaderOnMaster()\l# PreWriteCalculations()\l}">
<polygon fill="white" stroke="black" points="143.5,-320.5 143.5,-476.5 307.5,-476.5 307.5,-320.5 143.5,-320.5"/>
<text text-anchor="start" x="151.5" y="-464.5" font-family="Helvetica,sans-Serif" font-size="10.00">AbstractPerElementWriter</text>
<text text-anchor="start" x="151.5" y="-453.5" font-family="Helvetica,sans-Serif" font-size="10.00">&lt; ELEMENT_DIM, SPACE_DIM,</text>
<text text-anchor="middle" x="225.5" y="-442.5" font-family="Helvetica,sans-Serif" font-size="10.00"> DATA_SIZE &gt;</text>
<polyline fill="none" stroke="black" points="143.5,-435.5 307.5,-435.5 "/>
<text text-anchor="middle" x="225.5" y="-423.5" font-family="Helvetica,sans-Serif" font-size="10.00"> </text>
<polyline fill="none" stroke="black" points="143.5,-416.5 307.5,-416.5 "/>
<text text-anchor="start" x="151.5" y="-404.5" font-family="Helvetica,sans-Serif" font-size="10.00">+ AbstractPerElementWriter()</text>
<text text-anchor="start" x="151.5" y="-393.5" font-family="Helvetica,sans-Serif" font-size="10.00">+ WriteData()</text>
<text text-anchor="start" x="151.5" y="-382.5" font-family="Helvetica,sans-Serif" font-size="10.00">+ SetWriteFileAsBinary()</text>
<text text-anchor="start" x="151.5" y="-371.5" font-family="Helvetica,sans-Serif" font-size="10.00">+ ~AbstractPerElementWriter()</text>
<text text-anchor="start" x="151.5" y="-360.5" font-family="Helvetica,sans-Serif" font-size="10.00"># Visit()</text>
<text text-anchor="start" x="151.5" y="-349.5" font-family="Helvetica,sans-Serif" font-size="10.00"># WriteElementOnMaster()</text>
<text text-anchor="start" x="151.5" y="-338.5" font-family="Helvetica,sans-Serif" font-size="10.00"># WriteHeaderOnMaster()</text>
<text text-anchor="start" x="151.5" y="-327.5" font-family="Helvetica,sans-Serif" font-size="10.00"># PreWriteCalculations()</text>
</a>
</g>
</g>
<!-- Node3&#45;&gt;Node6 -->
<g id="edge6" class="edge"><title>Node3&#45;&gt;Node6</title>
<path fill="none" stroke="#404040" d="M117.22,-524.378C127.196,-512.872 138.895,-499.38 150.846,-485.597"/>
<polygon fill="none" stroke="#404040" points="150.859,-485.582 151.768,-478.428 158.721,-476.516 157.812,-483.669 150.859,-485.582"/>
<text text-anchor="middle" x="164.5" y="-498" font-family="Helvetica,sans-Serif" font-size="10.00"> #mpMesh</text>
</g>
<!-- Node4 -->
<g id="node4" class="node"><title>Node4</title>
<g id="a_node4"><a xlink:href="classbool.html" target="_top" xlink:title="{bool\n||}">
<polygon fill="white" stroke="black" points="378,-530 378,-587 413,-587 413,-530 378,-530"/>
<text text-anchor="middle" x="395.5" y="-575" font-family="Helvetica,sans-Serif" font-size="10.00">bool</text>
<polyline fill="none" stroke="black" points="378,-568 413,-568 "/>
<text text-anchor="middle" x="395.5" y="-556" font-family="Helvetica,sans-Serif" font-size="10.00"> </text>
<polyline fill="none" stroke="black" points="378,-549 413,-549 "/>
<text text-anchor="middle" x="395.5" y="-537" font-family="Helvetica,sans-Serif" font-size="10.00"> </text>
</a>
</g>
</g>
<!-- Node4&#45;&gt;Node2 -->
<g id="edge3" class="edge"><title>Node4&#45;&gt;Node2</title>
<path fill="none" stroke="#404040" d="M408.313,-529.861C427.676,-483.794 458.695,-389.515 424.5,-320 410.868,-292.288 393.845,-293.834 364.712,-273.402"/>
<polygon fill="none" stroke="#404040" points="364.393,-273.161 357.195,-272.739 354.816,-265.931 362.015,-266.354 364.393,-273.161"/>
<text text-anchor="middle" x="474" y="-396" font-family="Helvetica,sans-Serif" font-size="10.00"> &#45;mFileIsBinary</text>
</g>
<!-- Node4&#45;&gt;Node6 -->
<g id="edge7" class="edge"><title>Node4&#45;&gt;Node6</title>
<path fill="none" stroke="#404040" d="M377.9,-539.134C365.654,-526.511 348.836,-509.481 333.5,-495 328.066,-489.869 322.431,-484.636 316.714,-479.394"/>
<polygon fill="none" stroke="#404040" points="316.552,-479.246 309.423,-478.161 307.683,-471.163 314.812,-472.248 316.552,-479.246"/>
<text text-anchor="middle" x="378" y="-498" font-family="Helvetica,sans-Serif" font-size="10.00"> &#45;mFileIsBinary</text>
</g>
<!-- Node5 -->
<g id="node5" class="node"><title>Node5</title>
<polygon fill="white" stroke="#bfbfbf" points="212.5,-530 212.5,-587 350.5,-587 350.5,-530 212.5,-530"/>
<text text-anchor="middle" x="281.5" y="-575" font-family="Helvetica,sans-Serif" font-size="10.00">shared_ptr&lt; std::ofstream &gt;</text>
<polyline fill="none" stroke="#bfbfbf" points="212.5,-568 350.5,-568 "/>
<text text-anchor="middle" x="281.5" y="-556" font-family="Helvetica,sans-Serif" font-size="10.00"> </text>
<polyline fill="none" stroke="#bfbfbf" points="212.5,-549 350.5,-549 "/>
<text text-anchor="middle" x="281.5" y="-537" font-family="Helvetica,sans-Serif" font-size="10.00"> </text>
</g>
<!-- Node5&#45;&gt;Node2 -->
<g id="edge4" class="edge"><title>Node5&#45;&gt;Node2</title>
<path fill="none" stroke="#404040" d="M314.273,-529.741C320.484,-522.693 326.097,-514.643 329.5,-506 364.51,-417.089 353.86,-383.398 329.5,-291 328.891,-288.688 328.206,-286.373 327.457,-284.062"/>
<polygon fill="none" stroke="#404040" points="327.369,-283.824 321.539,-279.581 323.212,-272.567 329.043,-276.81 327.369,-283.824"/>
<text text-anchor="middle" x="386.5" y="-396" font-family="Helvetica,sans-Serif" font-size="10.00"> #mpMasterFile</text>
</g>
<!-- Node5&#45;&gt;Node6 -->
<g id="edge8" class="edge"><title>Node5&#45;&gt;Node6</title>
<path fill="none" stroke="#404040" d="M270.478,-529.789C267.495,-522.11 264.314,-513.754 261.5,-506 259.41,-500.242 257.292,-494.296 255.183,-488.294"/>
<polygon fill="none" stroke="#404040" points="255.098,-488.049 249.346,-483.698 251.15,-476.716 256.901,-481.067 255.098,-488.049"/>
<text text-anchor="middle" x="295.5" y="-498" font-family="Helvetica,sans-Serif" font-size="10.00"> #mpMasterFile</text>
</g>
<!-- Node6&#45;&gt;Node2 -->
<g id="edge5" class="edge"><title>Node6&#45;&gt;Node2</title>
<path fill="none" stroke="orange" d="M210.667,-309.975C211.328,-303.488 212.552,-297.101 214.5,-291 216.483,-284.79 219.068,-278.642 222.06,-272.649"/>
<polygon fill="orange" stroke="orange" points="207.158,-310.037 210.071,-320.223 214.146,-310.443 207.158,-310.037"/>
<text text-anchor="middle" x="272" y="-294" font-family="Helvetica,sans-Serif" font-size="10.00"> &lt; DIM, DIM, DIM *DIM &gt;</text>
</g>
<!-- Node7 -->
<g id="node7" class="node"><title>Node7</title>
<polygon fill="white" stroke="#bfbfbf" points="373,-166 373,-234 508,-234 508,-166 373,-166"/>
<text text-anchor="start" x="381" y="-222" font-family="Helvetica,sans-Serif" font-size="10.00">AbstractNonlinearElasticity</text>
<text text-anchor="middle" x="440.5" y="-211" font-family="Helvetica,sans-Serif" font-size="10.00">Solver&lt; DIM &gt; *</text>
<polyline fill="none" stroke="#bfbfbf" points="373,-204 508,-204 "/>
<text text-anchor="middle" x="440.5" y="-192" font-family="Helvetica,sans-Serif" font-size="10.00"> </text>
<polyline fill="none" stroke="#bfbfbf" points="373,-185 508,-185 "/>
<text text-anchor="middle" x="440.5" y="-173" font-family="Helvetica,sans-Serif" font-size="10.00"> </text>
</g>
<!-- Node7&#45;&gt;Node1 -->
<g id="edge9" class="edge"><title>Node7&#45;&gt;Node1</title>
<path fill="none" stroke="#404040" d="M431.905,-165.878C426.321,-144.358 418.933,-115.887 412.621,-91.565"/>
<polygon fill="none" stroke="#404040" points="412.543,-91.2617 407.164,-86.4588 409.528,-79.6464 414.907,-84.4493 412.543,-91.2617"/>
<text text-anchor="middle" x="440.5" y="-101" font-family="Helvetica,sans-Serif" font-size="10.00"> &#45;mpSolver</text>
</g>
</g>
</svg>
