<?xml version="1.0" encoding="UTF-8" standalone="no"?>
<!DOCTYPE svg PUBLIC "-//W3C//DTD SVG 1.1//EN"
 "http://www.w3.org/Graphics/SVG/1.1/DTD/svg11.dtd">
<!-- Generated by graphviz version 2.38.0 (20140413.2041)
 -->
<!-- Title: Graphical Class Hierarchy Pages: 1 -->
<svg width="384pt" height="99pt"
 viewBox="0.00 0.00 384.00 98.50" xmlns="http://www.w3.org/2000/svg" xmlns:xlink="http://www.w3.org/1999/xlink">
<g id="graph0" class="graph" transform="scale(1 1) rotate(0) translate(4 94.5)">
<title>Graphical Class Hierarchy</title>
<polygon fill="white" stroke="none" points="-4,4 -4,-94.5 380,-94.5 380,4 -4,4"/>
<!-- Node1 -->
<g id="node1" class="node"><title>Node1</title>
<g id="a_node1"><a xlink:href="classAbstractConductivityTensors.html" target="_top" xlink:title="Forward declaration which is going to be used for friendship. ">
<polygon fill="white" stroke="black" points="0,-27.5 0,-57.5 170,-57.5 170,-27.5 0,-27.5"/>
<text text-anchor="start" x="8" y="-45.5" font-family="Helvetica,sans-Serif" font-size="10.00">AbstractConductivityTensors</text>
<text text-anchor="middle" x="85" y="-34.5" font-family="Helvetica,sans-Serif" font-size="10.00">&lt; ELEMENT_DIM, SPACE_DIM &gt;</text>
</a>
</g>
</g>
<!-- Node2 -->
<g id="node2" class="node"><title>Node2</title>
<g id="a_node2"><a xlink:href="classAxisymmetricConductivityTensors.html" target="_top" xlink:title="AxisymmetricConductivity\lTensors\&lt; ELEMENT_DIM,\l SPACE_DIM \&gt;">
<polygon fill="white" stroke="black" points="223.5,-49 223.5,-90 358.5,-90 358.5,-49 223.5,-49"/>
<text text-anchor="start" x="231.5" y="-78" font-family="Helvetica,sans-Serif" font-size="10.00">AxisymmetricConductivity</text>
<text text-anchor="start" x="231.5" y="-67" font-family="Helvetica,sans-Serif" font-size="10.00">Tensors&lt; ELEMENT_DIM,</text>
<text text-anchor="middle" x="291" y="-56" font-family="Helvetica,sans-Serif" font-size="10.00"> SPACE_DIM &gt;</text>
</a>
</g>
</g>
<!-- Node1&#45;&gt;Node2 -->
<g id="edge1" class="edge"><title>Node1&#45;&gt;Node2</title>
<path fill="none" stroke="midnightblue" d="M180.218,-54.97C194.827,-56.9036 209.651,-58.8656 223.481,-60.696"/>
<polygon fill="midnightblue" stroke="midnightblue" points="180.525,-51.4802 170.152,-53.6378 179.607,-58.4197 180.525,-51.4802"/>
</g>
<!-- Node3 -->
<g id="node3" class="node"><title>Node3</title>
<g id="a_node3"><a xlink:href="classOrthotropicConductivityTensors.html" target="_top" xlink:title="OrthotropicConductivityTensors\l\&lt; ELEMENT_DIM, SPACE_DIM \&gt;">
<polygon fill="white" stroke="black" points="206,-0.5 206,-30.5 376,-30.5 376,-0.5 206,-0.5"/>
<text text-anchor="start" x="214" y="-18.5" font-family="Helvetica,sans-Serif" font-size="10.00">OrthotropicConductivityTensors</text>
<text text-anchor="middle" x="291" y="-7.5" font-family="Helvetica,sans-Serif" font-size="10.00">&lt; ELEMENT_DIM, SPACE_DIM &gt;</text>
</a>
</g>
</g>
<!-- Node1&#45;&gt;Node3 -->
<g id="edge2" class="edge"><title>Node1&#45;&gt;Node3</title>
<path fill="none" stroke="midnightblue" d="M180.124,-30.0424C188.66,-28.9127 197.269,-27.7732 205.712,-26.6558"/>
<polygon fill="midnightblue" stroke="midnightblue" points="179.607,-26.5803 170.152,-31.3622 180.525,-33.5198 179.607,-26.5803"/>
</g>
</g>
</svg>
