<?xml version="1.0" encoding="UTF-8" standalone="no"?>
<!DOCTYPE svg PUBLIC "-//W3C//DTD SVG 1.1//EN"
 "http://www.w3.org/Graphics/SVG/1.1/DTD/svg11.dtd">
<!-- Generated by graphviz version 2.38.0 (20140413.2041)
 -->
<!-- Title: Graphical Class Hierarchy Pages: 1 -->
<svg width="546pt" height="186pt"
 viewBox="0.00 0.00 546.00 186.00" xmlns="http://www.w3.org/2000/svg" xmlns:xlink="http://www.w3.org/1999/xlink">
<g id="graph0" class="graph" transform="scale(1 1) rotate(0) translate(4 182)">
<title>Graphical Class Hierarchy</title>
<polygon fill="white" stroke="none" points="-4,4 -4,-182 542,-182 542,4 -4,4"/>
<!-- Node1 -->
<g id="node1" class="node"><title>Node1</title>
<g id="a_node1"><a xlink:href="classAbstractElement.html" target="_top" xlink:title="AbstractElement\&lt; ELEMENT\l_DIM, SPACE_DIM \&gt;">
<polygon fill="white" stroke="black" points="0,-49.5 0,-79.5 146,-79.5 146,-49.5 0,-49.5"/>
<text text-anchor="start" x="8" y="-67.5" font-family="Helvetica,sans-Serif" font-size="10.00">AbstractElement&lt; ELEMENT</text>
<text text-anchor="middle" x="73" y="-56.5" font-family="Helvetica,sans-Serif" font-size="10.00">_DIM, SPACE_DIM &gt;</text>
</a>
</g>
</g>
<!-- Node2 -->
<g id="node2" class="node"><title>Node2</title>
<g id="a_node2"><a xlink:href="classAbstractTetrahedralElement.html" target="_top" xlink:title="AbstractTetrahedralElement\l\&lt; ELEMENT_DIM, SPACE_DIM \&gt;">
<polygon fill="white" stroke="black" points="182,-98.5 182,-128.5 352,-128.5 352,-98.5 182,-98.5"/>
<text text-anchor="start" x="190" y="-116.5" font-family="Helvetica,sans-Serif" font-size="10.00">AbstractTetrahedralElement</text>
<text text-anchor="middle" x="267" y="-105.5" font-family="Helvetica,sans-Serif" font-size="10.00">&lt; ELEMENT_DIM, SPACE_DIM &gt;</text>
</a>
</g>
</g>
<!-- Node1&#45;&gt;Node2 -->
<g id="edge1" class="edge"><title>Node1&#45;&gt;Node2</title>
<path fill="none" stroke="midnightblue" d="M142.767,-82.0498C163.851,-87.4306 186.845,-93.299 207.2,-98.4938"/>
<polygon fill="midnightblue" stroke="midnightblue" points="143.466,-78.6162 132.911,-79.5346 141.735,-85.3988 143.466,-78.6162"/>
</g>
<!-- Node5 -->
<g id="node5" class="node"><title>Node5</title>
<g id="a_node5"><a xlink:href="classMutableElement.html" target="_top" xlink:title="MutableElement\&lt; ELEMENT\l_DIM, SPACE_DIM \&gt;">
<polygon fill="white" stroke="black" points="195.5,-49.5 195.5,-79.5 338.5,-79.5 338.5,-49.5 195.5,-49.5"/>
<text text-anchor="start" x="203.5" y="-67.5" font-family="Helvetica,sans-Serif" font-size="10.00">MutableElement&lt; ELEMENT</text>
<text text-anchor="middle" x="267" y="-56.5" font-family="Helvetica,sans-Serif" font-size="10.00">_DIM, SPACE_DIM &gt;</text>
</a>
</g>
</g>
<!-- Node1&#45;&gt;Node5 -->
<g id="edge4" class="edge"><title>Node1&#45;&gt;Node5</title>
<path fill="none" stroke="midnightblue" d="M156.386,-64.5C169.4,-64.5 182.756,-64.5 195.469,-64.5"/>
<polygon fill="midnightblue" stroke="midnightblue" points="156.04,-61.0001 146.04,-64.5 156.04,-68.0001 156.04,-61.0001"/>
</g>
<!-- Node7 -->
<g id="node7" class="node"><title>Node7</title>
<g id="a_node7"><a xlink:href="classMutableElement.html" target="_top" xlink:title="MutableElement\&lt; DIM,\l DIM \&gt;">
<polygon fill="white" stroke="black" points="208,-0.5 208,-30.5 326,-30.5 326,-0.5 208,-0.5"/>
<text text-anchor="start" x="216" y="-18.5" font-family="Helvetica,sans-Serif" font-size="10.00">MutableElement&lt; DIM,</text>
<text text-anchor="middle" x="267" y="-7.5" font-family="Helvetica,sans-Serif" font-size="10.00"> DIM &gt;</text>
</a>
</g>
</g>
<!-- Node1&#45;&gt;Node7 -->
<g id="edge6" class="edge"><title>Node1&#45;&gt;Node7</title>
<path fill="none" stroke="midnightblue" d="M142.86,-46.9263C164.147,-41.4937 187.373,-35.5662 207.86,-30.3377"/>
<polygon fill="midnightblue" stroke="midnightblue" points="141.735,-43.6012 132.911,-49.4654 143.466,-50.3838 141.735,-43.6012"/>
</g>
<!-- Node3 -->
<g id="node3" class="node"><title>Node3</title>
<g id="a_node3"><a xlink:href="classBoundaryElement.html" target="_top" xlink:title="BoundaryElement\&lt; ELEMENT\l_DIM, SPACE_DIM \&gt;">
<polygon fill="white" stroke="black" points="388,-147.5 388,-177.5 538,-177.5 538,-147.5 388,-147.5"/>
<text text-anchor="start" x="396" y="-165.5" font-family="Helvetica,sans-Serif" font-size="10.00">BoundaryElement&lt; ELEMENT</text>
<text text-anchor="middle" x="463" y="-154.5" font-family="Helvetica,sans-Serif" font-size="10.00">_DIM, SPACE_DIM &gt;</text>
</a>
</g>
</g>
<!-- Node2&#45;&gt;Node3 -->
<g id="edge2" class="edge"><title>Node2&#45;&gt;Node3</title>
<path fill="none" stroke="midnightblue" d="M337.483,-131.05C358.787,-136.431 382.021,-142.299 402.588,-147.494"/>
<polygon fill="midnightblue" stroke="midnightblue" points="338.077,-127.59 327.525,-128.535 336.363,-134.377 338.077,-127.59"/>
</g>
<!-- Node4 -->
<g id="node4" class="node"><title>Node4</title>
<g id="a_node4"><a xlink:href="classElement.html" target="_top" xlink:title="Element\&lt; ELEMENT_DIM,\l SPACE_DIM \&gt;">
<polygon fill="white" stroke="black" points="395,-98.5 395,-128.5 531,-128.5 531,-98.5 395,-98.5"/>
<text text-anchor="start" x="403" y="-116.5" font-family="Helvetica,sans-Serif" font-size="10.00">Element&lt; ELEMENT_DIM,</text>
<text text-anchor="middle" x="463" y="-105.5" font-family="Helvetica,sans-Serif" font-size="10.00"> SPACE_DIM &gt;</text>
</a>
</g>
</g>
<!-- Node2&#45;&gt;Node4 -->
<g id="edge3" class="edge"><title>Node2&#45;&gt;Node4</title>
<path fill="none" stroke="midnightblue" d="M362.284,-113.5C373.247,-113.5 384.257,-113.5 394.752,-113.5"/>
<polygon fill="midnightblue" stroke="midnightblue" points="362.245,-110 352.245,-113.5 362.245,-117 362.245,-110"/>
</g>
<!-- Node6 -->
<g id="node6" class="node"><title>Node6</title>
<g id="a_node6"><a xlink:href="classVertexElement.html" target="_top" xlink:title="VertexElement\&lt; ELEMENT\l_DIM, SPACE_DIM \&gt;">
<polygon fill="white" stroke="black" points="394.5,-49.5 394.5,-79.5 531.5,-79.5 531.5,-49.5 394.5,-49.5"/>
<text text-anchor="start" x="402.5" y="-67.5" font-family="Helvetica,sans-Serif" font-size="10.00">VertexElement&lt; ELEMENT</text>
<text text-anchor="middle" x="463" y="-56.5" font-family="Helvetica,sans-Serif" font-size="10.00">_DIM, SPACE_DIM &gt;</text>
</a>
</g>
</g>
<!-- Node5&#45;&gt;Node6 -->
<g id="edge5" class="edge"><title>Node5&#45;&gt;Node6</title>
<path fill="none" stroke="midnightblue" d="M348.948,-64.5C364.064,-64.5 379.716,-64.5 394.378,-64.5"/>
<polygon fill="midnightblue" stroke="midnightblue" points="348.587,-61.0001 338.587,-64.5 348.587,-68.0001 348.587,-61.0001"/>
</g>
<!-- Node8 -->
<g id="node8" class="node"><title>Node8</title>
<g id="a_node8"><a xlink:href="classPottsElement.html" target="_top" xlink:title="PottsElement\&lt; DIM \&gt;">
<polygon fill="white" stroke="black" points="406.5,-6 406.5,-25 519.5,-25 519.5,-6 406.5,-6"/>
<text text-anchor="middle" x="463" y="-13" font-family="Helvetica,sans-Serif" font-size="10.00">PottsElement&lt; DIM &gt;</text>
</a>
</g>
</g>
<!-- Node7&#45;&gt;Node8 -->
<g id="edge7" class="edge"><title>Node7&#45;&gt;Node8</title>
<path fill="none" stroke="midnightblue" d="M336.241,-15.5C359.237,-15.5 384.605,-15.5 406.497,-15.5"/>
<polygon fill="midnightblue" stroke="midnightblue" points="336.206,-12.0001 326.206,-15.5 336.206,-19.0001 336.206,-12.0001"/>
</g>
</g>
</svg>
