<?xml version="1.0" encoding="UTF-8" standalone="no"?>
<!DOCTYPE svg PUBLIC "-//W3C//DTD SVG 1.1//EN"
 "http://www.w3.org/Graphics/SVG/1.1/DTD/svg11.dtd">
<!-- Generated by graphviz version 2.38.0 (20140413.2041)
 -->
<!-- Title: Graphical Class Hierarchy Pages: 1 -->
<svg width="262pt" height="110pt"
 viewBox="0.00 0.00 262.00 110.00" xmlns="http://www.w3.org/2000/svg" xmlns:xlink="http://www.w3.org/1999/xlink">
<g id="graph0" class="graph" transform="scale(1 1) rotate(0) translate(4 106)">
<title>Graphical Class Hierarchy</title>
<polygon fill="white" stroke="none" points="-4,4 -4,-106 258,-106 258,4 -4,4"/>
<!-- Node1 -->
<g id="node1" class="node"><title>Node1</title>
<polygon fill="white" stroke="#bfbfbf" points="0,-41.5 0,-60.5 81,-60.5 81,-41.5 0,-41.5"/>
<text text-anchor="middle" x="40.5" y="-48.5" font-family="Helvetica,sans-Serif" font-size="10.00">iterator_facade</text>
</g>
<!-- Node2 -->
<g id="node2" class="node"><title>Node2</title>
<g id="a_node2"><a xlink:href="classAbstractMeshReader_1_1ElementIterator.html" target="_top" xlink:title="AbstractMeshReader\l\&lt; ELEMENT_DIM, SPACE\l_DIM \&gt;::ElementIterator">
<polygon fill="white" stroke="black" points="117,-60.5 117,-101.5 254,-101.5 254,-60.5 117,-60.5"/>
<text text-anchor="start" x="125" y="-89.5" font-family="Helvetica,sans-Serif" font-size="10.00">AbstractMeshReader</text>
<text text-anchor="start" x="125" y="-78.5" font-family="Helvetica,sans-Serif" font-size="10.00">&lt; ELEMENT_DIM, SPACE</text>
<text text-anchor="middle" x="185.5" y="-67.5" font-family="Helvetica,sans-Serif" font-size="10.00">_DIM &gt;::ElementIterator</text>
</a>
</g>
</g>
<!-- Node1&#45;&gt;Node2 -->
<g id="edge1" class="edge"><title>Node1&#45;&gt;Node2</title>
<path fill="none" stroke="midnightblue" d="M91.2207,-61.4309C99.531,-63.1743 108.275,-65.0088 116.942,-66.827"/>
<polygon fill="midnightblue" stroke="midnightblue" points="91.8391,-57.9845 81.3335,-59.3567 90.4018,-64.8354 91.8391,-57.9845"/>
</g>
<!-- Node3 -->
<g id="node3" class="node"><title>Node3</title>
<g id="a_node3"><a xlink:href="classAbstractMeshReader_1_1NodeIterator.html" target="_top" xlink:title="AbstractMeshReader\l\&lt; ELEMENT_DIM, SPACE\l_DIM \&gt;::NodeIterator">
<polygon fill="white" stroke="black" points="117,-0.5 117,-41.5 254,-41.5 254,-0.5 117,-0.5"/>
<text text-anchor="start" x="125" y="-29.5" font-family="Helvetica,sans-Serif" font-size="10.00">AbstractMeshReader</text>
<text text-anchor="start" x="125" y="-18.5" font-family="Helvetica,sans-Serif" font-size="10.00">&lt; ELEMENT_DIM, SPACE</text>
<text text-anchor="middle" x="185.5" y="-7.5" font-family="Helvetica,sans-Serif" font-size="10.00">_DIM &gt;::NodeIterator</text>
</a>
</g>
</g>
<!-- Node1&#45;&gt;Node3 -->
<g id="edge2" class="edge"><title>Node1&#45;&gt;Node3</title>
<path fill="none" stroke="midnightblue" d="M91.2207,-40.5691C99.531,-38.8257 108.275,-36.9912 116.942,-35.173"/>
<polygon fill="midnightblue" stroke="midnightblue" points="90.4018,-37.1646 81.3335,-42.6433 91.8391,-44.0155 90.4018,-37.1646"/>
</g>
</g>
</svg>
