<?xml version="1.0" encoding="UTF-8" standalone="no"?>
<!DOCTYPE svg PUBLIC "-//W3C//DTD SVG 1.1//EN"
 "http://www.w3.org/Graphics/SVG/1.1/DTD/svg11.dtd">
<!-- Generated by graphviz version 2.38.0 (20140413.2041)
 -->
<!-- Title: Graphical Class Hierarchy Pages: 1 -->
<svg width="500pt" height="211pt"
 viewBox="0.00 0.00 500.00 211.00" xmlns="http://www.w3.org/2000/svg" xmlns:xlink="http://www.w3.org/1999/xlink">
<g id="graph0" class="graph" transform="scale(1 1) rotate(0) translate(4 207)">
<title>Graphical Class Hierarchy</title>
<polygon fill="white" stroke="none" points="-4,4 -4,-207 496,-207 496,4 -4,4"/>
<!-- Node1 -->
<g id="node1" class="node"><title>Node1</title>
<g id="a_node1"><a xlink:href="classAbstractStimulusFunction.html" target="_top" xlink:title="AbstractStimulusFunction">
<polygon fill="white" stroke="black" points="0,-76.5 0,-95.5 129,-95.5 129,-76.5 0,-76.5"/>
<text text-anchor="middle" x="64.5" y="-83.5" font-family="Helvetica,sans-Serif" font-size="10.00">AbstractStimulusFunction</text>
</a>
</g>
</g>
<!-- Node2 -->
<g id="node2" class="node"><title>Node2</title>
<g id="a_node2"><a xlink:href="classMultiStimulus.html" target="_top" xlink:title="MultiStimulus">
<polygon fill="white" stroke="black" points="194.5,-164.5 194.5,-183.5 270.5,-183.5 270.5,-164.5 194.5,-164.5"/>
<text text-anchor="middle" x="232.5" y="-171.5" font-family="Helvetica,sans-Serif" font-size="10.00">MultiStimulus</text>
</a>
</g>
</g>
<!-- Node1&#45;&gt;Node2 -->
<g id="edge1" class="edge"><title>Node1&#45;&gt;Node2</title>
<path fill="none" stroke="midnightblue" d="M84.63,-102.139C103.845,-117.63 134.85,-140.721 165,-155 174.224,-159.369 184.654,-162.931 194.472,-165.74"/>
<polygon fill="midnightblue" stroke="midnightblue" points="86.6283,-99.2513 76.6768,-95.6154 82.1889,-104.664 86.6283,-99.2513"/>
</g>
<!-- Node5 -->
<g id="node5" class="node"><title>Node5</title>
<g id="a_node5"><a xlink:href="classPurkinjeVentricularJunctionStimulus.html" target="_top" xlink:title="PurkinjeVentricularJunction\lStimulus">
<polygon fill="white" stroke="black" points="165,-115 165,-145 300,-145 300,-115 165,-115"/>
<text text-anchor="start" x="173" y="-133" font-family="Helvetica,sans-Serif" font-size="10.00">PurkinjeVentricularJunction</text>
<text text-anchor="middle" x="232.5" y="-122" font-family="Helvetica,sans-Serif" font-size="10.00">Stimulus</text>
</a>
</g>
</g>
<!-- Node1&#45;&gt;Node5 -->
<g id="edge4" class="edge"><title>Node1&#45;&gt;Node5</title>
<path fill="none" stroke="midnightblue" d="M111.409,-98.1687C130.985,-103.357 154.025,-109.465 174.662,-114.935"/>
<polygon fill="midnightblue" stroke="midnightblue" points="112.083,-94.7264 101.52,-95.5473 110.289,-101.493 112.083,-94.7264"/>
</g>
<!-- Node6 -->
<g id="node6" class="node"><title>Node6</title>
<g id="a_node6"><a xlink:href="classRegularStimulus.html" target="_top" xlink:title="RegularStimulus">
<polygon fill="white" stroke="black" points="188,-76.5 188,-95.5 277,-95.5 277,-76.5 188,-76.5"/>
<text text-anchor="middle" x="232.5" y="-83.5" font-family="Helvetica,sans-Serif" font-size="10.00">RegularStimulus</text>
</a>
</g>
</g>
<!-- Node1&#45;&gt;Node6 -->
<g id="edge5" class="edge"><title>Node1&#45;&gt;Node6</title>
<path fill="none" stroke="midnightblue" d="M139.405,-86C155.924,-86 172.931,-86 187.763,-86"/>
<polygon fill="midnightblue" stroke="midnightblue" points="139.205,-82.5001 129.205,-86 139.205,-89.5001 139.205,-82.5001"/>
</g>
<!-- Node8 -->
<g id="node8" class="node"><title>Node8</title>
<g id="a_node8"><a xlink:href="classSimpleStimulus.html" target="_top" xlink:title="SimpleStimulus">
<polygon fill="white" stroke="black" points="190,-38.5 190,-57.5 275,-57.5 275,-38.5 190,-38.5"/>
<text text-anchor="middle" x="232.5" y="-45.5" font-family="Helvetica,sans-Serif" font-size="10.00">SimpleStimulus</text>
</a>
</g>
</g>
<!-- Node1&#45;&gt;Node8 -->
<g id="edge7" class="edge"><title>Node1&#45;&gt;Node8</title>
<path fill="none" stroke="midnightblue" d="M117.153,-74.1757C140.556,-68.8184 167.857,-62.5689 189.912,-57.5201"/>
<polygon fill="midnightblue" stroke="midnightblue" points="116.356,-70.7677 107.389,-76.411 117.918,-77.5912 116.356,-70.7677"/>
</g>
<!-- Node9 -->
<g id="node9" class="node"><title>Node9</title>
<g id="a_node9"><a xlink:href="classZeroStimulus.html" target="_top" xlink:title="ZeroStimulus">
<polygon fill="white" stroke="black" points="195.5,-0.5 195.5,-19.5 269.5,-19.5 269.5,-0.5 195.5,-0.5"/>
<text text-anchor="middle" x="232.5" y="-7.5" font-family="Helvetica,sans-Serif" font-size="10.00">ZeroStimulus</text>
</a>
</g>
</g>
<!-- Node1&#45;&gt;Node9 -->
<g id="edge8" class="edge"><title>Node1&#45;&gt;Node9</title>
<path fill="none" stroke="midnightblue" d="M88.316,-70.7991C107.972,-58.2322 137.448,-40.6249 165,-29 174.625,-24.9391 185.388,-21.444 195.404,-18.5991"/>
<polygon fill="midnightblue" stroke="midnightblue" points="86.2479,-67.9686 79.7626,-76.3467 90.057,-73.8415 86.2479,-67.9686"/>
</g>
<!-- Node3 -->
<g id="node3" class="node"><title>Node3</title>
<g id="a_node3"><a xlink:href="classS1S2Stimulus.html" target="_top" xlink:title="S1S2Stimulus">
<polygon fill="white" stroke="black" points="374.5,-183.5 374.5,-202.5 453.5,-202.5 453.5,-183.5 374.5,-183.5"/>
<text text-anchor="middle" x="414" y="-190.5" font-family="Helvetica,sans-Serif" font-size="10.00">S1S2Stimulus</text>
</a>
</g>
</g>
<!-- Node2&#45;&gt;Node3 -->
<g id="edge2" class="edge"><title>Node2&#45;&gt;Node3</title>
<path fill="none" stroke="midnightblue" d="M280.661,-178.992C309.845,-182.081 346.85,-185.998 374.305,-188.904"/>
<polygon fill="midnightblue" stroke="midnightblue" points="281.005,-175.509 270.693,-177.937 280.269,-182.47 281.005,-175.509"/>
</g>
<!-- Node4 -->
<g id="node4" class="node"><title>Node4</title>
<g id="a_node4"><a xlink:href="classSteadyStateRestitutionStimulus.html" target="_top" xlink:title="SteadyStateRestitutionStimulus">
<polygon fill="white" stroke="black" points="336,-145.5 336,-164.5 492,-164.5 492,-145.5 336,-145.5"/>
<text text-anchor="middle" x="414" y="-152.5" font-family="Helvetica,sans-Serif" font-size="10.00">SteadyStateRestitutionStimulus</text>
</a>
</g>
</g>
<!-- Node2&#45;&gt;Node4 -->
<g id="edge3" class="edge"><title>Node2&#45;&gt;Node4</title>
<path fill="none" stroke="midnightblue" d="M280.83,-168.99C297.7,-167.205 317.165,-165.144 335.883,-163.163"/>
<polygon fill="midnightblue" stroke="midnightblue" points="280.269,-165.53 270.693,-170.063 281.005,-172.491 280.269,-165.53"/>
</g>
<!-- Node7 -->
<g id="node7" class="node"><title>Node7</title>
<g id="a_node7"><a xlink:href="classRegularStimulusZeroNetCharge.html" target="_top" xlink:title="RegularStimulusZeroNetCharge">
<polygon fill="white" stroke="black" points="336.5,-76.5 336.5,-95.5 491.5,-95.5 491.5,-76.5 336.5,-76.5"/>
<text text-anchor="middle" x="414" y="-83.5" font-family="Helvetica,sans-Serif" font-size="10.00">RegularStimulusZeroNetCharge</text>
</a>
</g>
</g>
<!-- Node6&#45;&gt;Node7 -->
<g id="edge6" class="edge"><title>Node6&#45;&gt;Node7</title>
<path fill="none" stroke="midnightblue" d="M287.711,-86C303.009,-86 319.949,-86 336.299,-86"/>
<polygon fill="midnightblue" stroke="midnightblue" points="287.411,-82.5001 277.411,-86 287.411,-89.5001 287.411,-82.5001"/>
</g>
</g>
</svg>
