<?xml version="1.0" encoding="UTF-8" standalone="no"?>
<!DOCTYPE svg PUBLIC "-//W3C//DTD SVG 1.1//EN"
 "http://www.w3.org/Graphics/SVG/1.1/DTD/svg11.dtd">
<!-- Generated by graphviz version 2.38.0 (20140413.2041)
 -->
<!-- Title: Graphical Class Hierarchy Pages: 1 -->
<svg width="241pt" height="66pt"
 viewBox="0.00 0.00 241.00 66.00" xmlns="http://www.w3.org/2000/svg" xmlns:xlink="http://www.w3.org/1999/xlink">
<g id="graph0" class="graph" transform="scale(1 1) rotate(0) translate(4 62)">
<title>Graphical Class Hierarchy</title>
<polygon fill="white" stroke="none" points="-4,4 -4,-62 237,-62 237,4 -4,4"/>
<!-- Node1 -->
<g id="node1" class="node"><title>Node1</title>
<g id="a_node1"><a xlink:href="classAbstractHdf5Access.html" target="_top" xlink:title="AbstractHdf5Access">
<polygon fill="white" stroke="black" points="0,-19.5 0,-38.5 107,-38.5 107,-19.5 0,-19.5"/>
<text text-anchor="middle" x="53.5" y="-26.5" font-family="Helvetica,sans-Serif" font-size="10.00">AbstractHdf5Access</text>
</a>
</g>
</g>
<!-- Node2 -->
<g id="node2" class="node"><title>Node2</title>
<g id="a_node2"><a xlink:href="classHdf5DataReader.html" target="_top" xlink:title="Hdf5DataReader">
<polygon fill="white" stroke="black" points="143,-38.5 143,-57.5 233,-57.5 233,-38.5 143,-38.5"/>
<text text-anchor="middle" x="188" y="-45.5" font-family="Helvetica,sans-Serif" font-size="10.00">Hdf5DataReader</text>
</a>
</g>
</g>
<!-- Node1&#45;&gt;Node2 -->
<g id="edge1" class="edge"><title>Node1&#45;&gt;Node2</title>
<path fill="none" stroke="midnightblue" d="M117.341,-38.0112C126,-39.2528 134.736,-40.5056 142.957,-41.6844"/>
<polygon fill="midnightblue" stroke="midnightblue" points="117.644,-34.5189 107.248,-36.5639 116.65,-41.448 117.644,-34.5189"/>
</g>
<!-- Node3 -->
<g id="node3" class="node"><title>Node3</title>
<g id="a_node3"><a xlink:href="classHdf5DataWriter.html" target="_top" xlink:title="Hdf5DataWriter">
<polygon fill="white" stroke="black" points="145.5,-0.5 145.5,-19.5 230.5,-19.5 230.5,-0.5 145.5,-0.5"/>
<text text-anchor="middle" x="188" y="-7.5" font-family="Helvetica,sans-Serif" font-size="10.00">Hdf5DataWriter</text>
</a>
</g>
</g>
<!-- Node1&#45;&gt;Node3 -->
<g id="edge2" class="edge"><title>Node1&#45;&gt;Node3</title>
<path fill="none" stroke="midnightblue" d="M117.176,-20.0125C126.77,-18.6367 136.464,-17.2466 145.451,-15.958"/>
<polygon fill="midnightblue" stroke="midnightblue" points="116.65,-16.552 107.248,-21.4361 117.644,-23.4811 116.65,-16.552"/>
</g>
</g>
</svg>
