<?xml version="1.0" encoding="UTF-8" standalone="no"?>
<!DOCTYPE svg PUBLIC "-//W3C//DTD SVG 1.1//EN"
 "http://www.w3.org/Graphics/SVG/1.1/DTD/svg11.dtd">
<!-- Generated by graphviz version 2.43.0 (0)
 -->
<!-- Title: AbstractSimpleGenerationalCellCycleModel Pages: 1 -->
<svg width="623pt" height="1857pt"
 viewBox="0.00 0.00 623.00 1857.00" xmlns="http://www.w3.org/2000/svg" xmlns:xlink="http://www.w3.org/1999/xlink">
<g id="graph0" class="graph" transform="scale(1 1) rotate(0) translate(4 1853)">
<title>AbstractSimpleGenerationalCellCycleModel</title>
<!-- Node1 -->
<g id="Node000001" class="node">
<title>Node1</title>
<g id="a_Node000001"><a xlink:title=" ">
<polygon fill="#999999" stroke="transparent" points="404,-731 211,-731 211,-473 404,-473 404,-731"/>
<text text-anchor="start" x="239" y="-719" font-family="Helvetica,sans-Serif" font-size="10.00">AbstractSimpleGenerational</text>
<text text-anchor="start" x="270" y="-708" font-family="Helvetica,sans-Serif" font-size="10.00">CellCycleModel</text>
<text text-anchor="start" x="215.5" y="-693" font-family="Helvetica,sans-Serif" font-size="10.00">#</text>
<text text-anchor="start" x="228.5" y="-693" font-family="Helvetica,sans-Serif" font-size="10.00">mGeneration</text>
<text text-anchor="start" x="215.5" y="-678" font-family="Helvetica,sans-Serif" font-size="10.00">#</text>
<text text-anchor="start" x="228.5" y="-678" font-family="Helvetica,sans-Serif" font-size="10.00">mMaxTransitGenerations</text>
<text text-anchor="start" x="215.5" y="-663" font-family="Helvetica,sans-Serif" font-size="10.00">+</text>
<text text-anchor="start" x="228.5" y="-663" font-family="Helvetica,sans-Serif" font-size="10.00">AbstractSimpleGenerational</text>
<text text-anchor="start" x="228.5" y="-652" font-family="Helvetica,sans-Serif" font-size="10.00">CellCycleModel()</text>
<text text-anchor="start" x="215.5" y="-637" font-family="Helvetica,sans-Serif" font-size="10.00">+</text>
<text text-anchor="start" x="228.5" y="-637" font-family="Helvetica,sans-Serif" font-size="10.00">~AbstractSimpleGenerational</text>
<text text-anchor="start" x="228.5" y="-626" font-family="Helvetica,sans-Serif" font-size="10.00">CellCycleModel()</text>
<text text-anchor="start" x="215.5" y="-611" font-family="Helvetica,sans-Serif" font-size="10.00">+</text>
<text text-anchor="start" x="228.5" y="-611" font-family="Helvetica,sans-Serif" font-size="10.00">ResetForDivision()</text>
<text text-anchor="start" x="215.5" y="-596" font-family="Helvetica,sans-Serif" font-size="10.00">+</text>
<text text-anchor="start" x="228.5" y="-596" font-family="Helvetica,sans-Serif" font-size="10.00">InitialiseDaughterCell()</text>
<text text-anchor="start" x="215.5" y="-581" font-family="Helvetica,sans-Serif" font-size="10.00">+</text>
<text text-anchor="start" x="228.5" y="-581" font-family="Helvetica,sans-Serif" font-size="10.00">SetGeneration()</text>
<text text-anchor="start" x="215.5" y="-566" font-family="Helvetica,sans-Serif" font-size="10.00">+</text>
<text text-anchor="start" x="228.5" y="-566" font-family="Helvetica,sans-Serif" font-size="10.00">GetGeneration()</text>
<text text-anchor="start" x="215.5" y="-551" font-family="Helvetica,sans-Serif" font-size="10.00">+</text>
<text text-anchor="start" x="228.5" y="-551" font-family="Helvetica,sans-Serif" font-size="10.00">SetMaxTransitGenerations()</text>
<text text-anchor="start" x="215.5" y="-536" font-family="Helvetica,sans-Serif" font-size="10.00">+</text>
<text text-anchor="start" x="228.5" y="-536" font-family="Helvetica,sans-Serif" font-size="10.00">GetMaxTransitGenerations()</text>
<text text-anchor="start" x="215.5" y="-521" font-family="Helvetica,sans-Serif" font-size="10.00">+</text>
<text text-anchor="start" x="228.5" y="-521" font-family="Helvetica,sans-Serif" font-size="10.00">OutputCellCycleModelParameters()</text>
<text text-anchor="start" x="215.5" y="-506" font-family="Helvetica,sans-Serif" font-size="10.00">#</text>
<text text-anchor="start" x="228.5" y="-506" font-family="Helvetica,sans-Serif" font-size="10.00">AbstractSimpleGenerational</text>
<text text-anchor="start" x="228.5" y="-495" font-family="Helvetica,sans-Serif" font-size="10.00">CellCycleModel()</text>
<text text-anchor="start" x="218" y="-480" font-family="Helvetica,sans-Serif" font-size="10.00">&#45;</text>
<text text-anchor="start" x="228.5" y="-480" font-family="Helvetica,sans-Serif" font-size="10.00">serialize()</text>
<polygon fill="#666666" stroke="#666666" points="211.5,-703 211.5,-703 404.5,-703 404.5,-703 211.5,-703"/>
<polygon fill="#666666" stroke="#666666" points="211.5,-673 211.5,-673 226.5,-673 226.5,-673 211.5,-673"/>
<polygon fill="#666666" stroke="#666666" points="226.5,-673 226.5,-673 404.5,-673 404.5,-673 226.5,-673"/>
<polygon fill="none" stroke="#666666" points="211,-473 211,-731 404,-731 404,-473 211,-473"/>
</a>
</g>
</g>
<!-- Node6 -->
<g id="Node000006" class="node">
<title>Node6</title>
<g id="a_Node000006"><a xlink:href="classExponentialG1GenerationalCellCycleModel.html" target="_top" xlink:title=" ">
<polygon fill="white" stroke="transparent" points="193,-437 0,-437 0,-220 193,-220 193,-437"/>
<text text-anchor="start" x="29.5" y="-424.5" font-family="Helvetica,sans-Serif" font-size="10.00">ExponentialG1Generational</text>
<text text-anchor="start" x="59" y="-413.5" font-family="Helvetica,sans-Serif" font-size="10.00">CellCycleModel</text>
<text text-anchor="start" x="7" y="-398.5" font-family="Helvetica,sans-Serif" font-size="10.00">&#45;</text>
<text text-anchor="start" x="17.5" y="-398.5" font-family="Helvetica,sans-Serif" font-size="10.00">mRate</text>
<text text-anchor="start" x="4.5" y="-383.5" font-family="Helvetica,sans-Serif" font-size="10.00">+</text>
<text text-anchor="start" x="17.5" y="-383.5" font-family="Helvetica,sans-Serif" font-size="10.00">ExponentialG1Generational</text>
<text text-anchor="start" x="17.5" y="-372.5" font-family="Helvetica,sans-Serif" font-size="10.00">CellCycleModel()</text>
<text text-anchor="start" x="4.5" y="-357.5" font-family="Helvetica,sans-Serif" font-size="10.00">+</text>
<text text-anchor="start" x="17.5" y="-357.5" font-family="Helvetica,sans-Serif" font-size="10.00">CreateCellCycleModel()</text>
<text text-anchor="start" x="4.5" y="-342.5" font-family="Helvetica,sans-Serif" font-size="10.00">+</text>
<text text-anchor="start" x="17.5" y="-342.5" font-family="Helvetica,sans-Serif" font-size="10.00">GetRate()</text>
<text text-anchor="start" x="4.5" y="-327.5" font-family="Helvetica,sans-Serif" font-size="10.00">+</text>
<text text-anchor="start" x="17.5" y="-327.5" font-family="Helvetica,sans-Serif" font-size="10.00">SetRate()</text>
<text text-anchor="start" x="4.5" y="-312.5" font-family="Helvetica,sans-Serif" font-size="10.00">+</text>
<text text-anchor="start" x="17.5" y="-312.5" font-family="Helvetica,sans-Serif" font-size="10.00">SetStemCellG1Duration()</text>
<text text-anchor="start" x="4.5" y="-297.5" font-family="Helvetica,sans-Serif" font-size="10.00">+</text>
<text text-anchor="start" x="17.5" y="-297.5" font-family="Helvetica,sans-Serif" font-size="10.00">SetTransitCellG1Duration()</text>
<text text-anchor="start" x="4.5" y="-282.5" font-family="Helvetica,sans-Serif" font-size="10.00">+</text>
<text text-anchor="start" x="17.5" y="-282.5" font-family="Helvetica,sans-Serif" font-size="10.00">OutputCellCycleModelParameters()</text>
<text text-anchor="start" x="4.5" y="-267.5" font-family="Helvetica,sans-Serif" font-size="10.00">#</text>
<text text-anchor="start" x="17.5" y="-267.5" font-family="Helvetica,sans-Serif" font-size="10.00">SetG1Duration()</text>
<text text-anchor="start" x="4.5" y="-252.5" font-family="Helvetica,sans-Serif" font-size="10.00">#</text>
<text text-anchor="start" x="17.5" y="-252.5" font-family="Helvetica,sans-Serif" font-size="10.00">ExponentialG1Generational</text>
<text text-anchor="start" x="17.5" y="-241.5" font-family="Helvetica,sans-Serif" font-size="10.00">CellCycleModel()</text>
<text text-anchor="start" x="7" y="-226.5" font-family="Helvetica,sans-Serif" font-size="10.00">&#45;</text>
<text text-anchor="start" x="17.5" y="-226.5" font-family="Helvetica,sans-Serif" font-size="10.00">serialize()</text>
<polygon fill="#666666" stroke="#666666" points="0.5,-408.5 0.5,-408.5 193.5,-408.5 193.5,-408.5 0.5,-408.5"/>
<polygon fill="#666666" stroke="#666666" points="0.5,-393.5 0.5,-393.5 15.5,-393.5 15.5,-393.5 0.5,-393.5"/>
<polygon fill="#666666" stroke="#666666" points="15.5,-393.5 15.5,-393.5 193.5,-393.5 193.5,-393.5 15.5,-393.5"/>
<polygon fill="none" stroke="#666666" points="0,-220 0,-437 193,-437 193,-220 0,-220"/>
</a>
</g>
</g>
<!-- Node1&#45;&gt;Node6 -->
<g id="edge5_Node000001_Node000006" class="edge">
<title>Node1&#45;&gt;Node6</title>
<g id="a_edge5_Node000001_Node000006"><a xlink:title=" ">
<path fill="none" stroke="#63b8ff" d="M204.66,-468.67C196.42,-458.07 188.16,-447.44 180.08,-437.05"/>
<polygon fill="none" stroke="#63b8ff" points="202.05,-471.02 210.95,-476.77 207.58,-466.73 202.05,-471.02"/>
</a>
</g>
</g>
<!-- Node8 -->
<g id="Node000008" class="node">
<title>Node8</title>
<g id="a_Node000008"><a xlink:href="classFixedG1GenerationalCellCycleModel.html" target="_top" xlink:title=" ">
<polygon fill="white" stroke="transparent" points="404,-399.5 211,-399.5 211,-257.5 404,-257.5 404,-399.5"/>
<text text-anchor="start" x="234" y="-387.5" font-family="Helvetica,sans-Serif" font-size="10.00">FixedG1GenerationalCellCycle</text>
<text text-anchor="start" x="292.5" y="-376.5" font-family="Helvetica,sans-Serif" font-size="10.00">Model</text>
<text text-anchor="start" x="306" y="-361.5" font-family="Helvetica,sans-Serif" font-size="10.00"> </text>
<text text-anchor="start" x="215.5" y="-346.5" font-family="Helvetica,sans-Serif" font-size="10.00">+</text>
<text text-anchor="start" x="228.5" y="-346.5" font-family="Helvetica,sans-Serif" font-size="10.00">FixedG1GenerationalCellCycle</text>
<text text-anchor="start" x="228.5" y="-335.5" font-family="Helvetica,sans-Serif" font-size="10.00">Model()</text>
<text text-anchor="start" x="215.5" y="-320.5" font-family="Helvetica,sans-Serif" font-size="10.00">+</text>
<text text-anchor="start" x="228.5" y="-320.5" font-family="Helvetica,sans-Serif" font-size="10.00">CreateCellCycleModel()</text>
<text text-anchor="start" x="215.5" y="-305.5" font-family="Helvetica,sans-Serif" font-size="10.00">+</text>
<text text-anchor="start" x="228.5" y="-305.5" font-family="Helvetica,sans-Serif" font-size="10.00">OutputCellCycleModelParameters()</text>
<text text-anchor="start" x="215.5" y="-290.5" font-family="Helvetica,sans-Serif" font-size="10.00">#</text>
<text text-anchor="start" x="228.5" y="-290.5" font-family="Helvetica,sans-Serif" font-size="10.00">FixedG1GenerationalCellCycle</text>
<text text-anchor="start" x="228.5" y="-279.5" font-family="Helvetica,sans-Serif" font-size="10.00">Model()</text>
<text text-anchor="start" x="218" y="-264.5" font-family="Helvetica,sans-Serif" font-size="10.00">&#45;</text>
<text text-anchor="start" x="228.5" y="-264.5" font-family="Helvetica,sans-Serif" font-size="10.00">serialize()</text>
<polygon fill="#666666" stroke="#666666" points="211.5,-371.5 211.5,-371.5 404.5,-371.5 404.5,-371.5 211.5,-371.5"/>
<polygon fill="#666666" stroke="#666666" points="211.5,-356.5 211.5,-356.5 404.5,-356.5 404.5,-356.5 211.5,-356.5"/>
<polygon fill="none" stroke="#666666" points="211,-257.5 211,-399.5 404,-399.5 404,-257.5 211,-257.5"/>
</a>
</g>
</g>
<!-- Node1&#45;&gt;Node8 -->
<g id="edge7_Node000001_Node000008" class="edge">
<title>Node1&#45;&gt;Node8</title>
<g id="a_edge7_Node000001_Node000008"><a xlink:title=" ">
<path fill="none" stroke="#63b8ff" d="M307.5,-462.78C307.5,-440.97 307.5,-419.24 307.5,-399.84"/>
<polygon fill="none" stroke="#63b8ff" points="304,-462.8 307.5,-472.8 311,-462.8 304,-462.8"/>
</a>
</g>
</g>
<!-- Node9 -->
<g id="Node000009" class="node">
<title>Node9</title>
<g id="a_Node000009"><a xlink:href="classUniformG1GenerationalCellCycleModel.html" target="_top" xlink:title=" ">
<polygon fill="white" stroke="transparent" points="615,-407 422,-407 422,-250 615,-250 615,-407"/>
<text text-anchor="start" x="451" y="-394.5" font-family="Helvetica,sans-Serif" font-size="10.00">UniformG1GenerationalCell</text>
<text text-anchor="start" x="490" y="-383.5" font-family="Helvetica,sans-Serif" font-size="10.00">CycleModel</text>
<text text-anchor="start" x="517" y="-368.5" font-family="Helvetica,sans-Serif" font-size="10.00"> </text>
<text text-anchor="start" x="426.5" y="-353.5" font-family="Helvetica,sans-Serif" font-size="10.00">+</text>
<text text-anchor="start" x="439.5" y="-353.5" font-family="Helvetica,sans-Serif" font-size="10.00">UniformG1GenerationalCell</text>
<text text-anchor="start" x="439.5" y="-342.5" font-family="Helvetica,sans-Serif" font-size="10.00">CycleModel()</text>
<text text-anchor="start" x="426.5" y="-327.5" font-family="Helvetica,sans-Serif" font-size="10.00">+</text>
<text text-anchor="start" x="439.5" y="-327.5" font-family="Helvetica,sans-Serif" font-size="10.00">CreateCellCycleModel()</text>
<text text-anchor="start" x="426.5" y="-312.5" font-family="Helvetica,sans-Serif" font-size="10.00">+</text>
<text text-anchor="start" x="439.5" y="-312.5" font-family="Helvetica,sans-Serif" font-size="10.00">OutputCellCycleModelParameters()</text>
<text text-anchor="start" x="426.5" y="-297.5" font-family="Helvetica,sans-Serif" font-size="10.00">#</text>
<text text-anchor="start" x="439.5" y="-297.5" font-family="Helvetica,sans-Serif" font-size="10.00">SetG1Duration()</text>
<text text-anchor="start" x="426.5" y="-282.5" font-family="Helvetica,sans-Serif" font-size="10.00">#</text>
<text text-anchor="start" x="439.5" y="-282.5" font-family="Helvetica,sans-Serif" font-size="10.00">UniformG1GenerationalCell</text>
<text text-anchor="start" x="439.5" y="-271.5" font-family="Helvetica,sans-Serif" font-size="10.00">CycleModel()</text>
<text text-anchor="start" x="429" y="-256.5" font-family="Helvetica,sans-Serif" font-size="10.00">&#45;</text>
<text text-anchor="start" x="439.5" y="-256.5" font-family="Helvetica,sans-Serif" font-size="10.00">serialize()</text>
<polygon fill="#666666" stroke="#666666" points="422.5,-378.5 422.5,-378.5 615.5,-378.5 615.5,-378.5 422.5,-378.5"/>
<polygon fill="#666666" stroke="#666666" points="422.5,-363.5 422.5,-363.5 615.5,-363.5 615.5,-363.5 422.5,-363.5"/>
<polygon fill="none" stroke="#666666" points="422,-250 422,-407 615,-407 615,-250 422,-250"/>
</a>
</g>
</g>
<!-- Node1&#45;&gt;Node9 -->
<g id="edge8_Node000001_Node000009" class="edge">
<title>Node1&#45;&gt;Node9</title>
<g id="a_edge8_Node000001_Node000009"><a xlink:title=" ">
<path fill="none" stroke="#63b8ff" d="M410.33,-468.69C426.73,-447.58 443.22,-426.36 458.21,-407.07"/>
<polygon fill="none" stroke="#63b8ff" points="407.42,-466.73 404.05,-476.77 412.95,-471.02 407.42,-466.73"/>
</a>
</g>
</g>
<!-- Node2 -->
<g id="Node000002" class="node">
<title>Node2</title>
<g id="a_Node000002"><a xlink:href="classAbstractSimplePhaseBasedCellCycleModel.html" target="_top" xlink:title=" ">
<polygon fill="white" stroke="transparent" points="404,-995 211,-995 211,-767 404,-767 404,-995"/>
<text text-anchor="start" x="241" y="-983" font-family="Helvetica,sans-Serif" font-size="10.00">AbstractSimplePhaseBased</text>
<text text-anchor="start" x="270" y="-972" font-family="Helvetica,sans-Serif" font-size="10.00">CellCycleModel</text>
<text text-anchor="start" x="306" y="-957" font-family="Helvetica,sans-Serif" font-size="10.00"> </text>
<text text-anchor="start" x="215.5" y="-942" font-family="Helvetica,sans-Serif" font-size="10.00">+</text>
<text text-anchor="start" x="228.5" y="-942" font-family="Helvetica,sans-Serif" font-size="10.00">AbstractSimplePhaseBased</text>
<text text-anchor="start" x="228.5" y="-931" font-family="Helvetica,sans-Serif" font-size="10.00">CellCycleModel()</text>
<text text-anchor="start" x="215.5" y="-916" font-family="Helvetica,sans-Serif" font-size="10.00">+</text>
<text text-anchor="start" x="228.5" y="-916" font-family="Helvetica,sans-Serif" font-size="10.00">~AbstractSimplePhaseBased</text>
<text text-anchor="start" x="228.5" y="-905" font-family="Helvetica,sans-Serif" font-size="10.00">CellCycleModel()</text>
<text text-anchor="start" x="215.5" y="-890" font-family="Helvetica,sans-Serif" font-size="10.00">+</text>
<text text-anchor="start" x="228.5" y="-890" font-family="Helvetica,sans-Serif" font-size="10.00">ResetForDivision()</text>
<text text-anchor="start" x="215.5" y="-875" font-family="Helvetica,sans-Serif" font-size="10.00">+</text>
<text text-anchor="start" x="228.5" y="-875" font-family="Helvetica,sans-Serif" font-size="10.00">UpdateCellCyclePhase()</text>
<text text-anchor="start" x="215.5" y="-860" font-family="Helvetica,sans-Serif" font-size="10.00">+</text>
<text text-anchor="start" x="228.5" y="-860" font-family="Helvetica,sans-Serif" font-size="10.00">InitialiseDaughterCell()</text>
<text text-anchor="start" x="215.5" y="-845" font-family="Helvetica,sans-Serif" font-size="10.00">+</text>
<text text-anchor="start" x="228.5" y="-845" font-family="Helvetica,sans-Serif" font-size="10.00">Initialise()</text>
<text text-anchor="start" x="215.5" y="-830" font-family="Helvetica,sans-Serif" font-size="10.00">+</text>
<text text-anchor="start" x="228.5" y="-830" font-family="Helvetica,sans-Serif" font-size="10.00">OutputCellCycleModelParameters()</text>
<text text-anchor="start" x="215.5" y="-815" font-family="Helvetica,sans-Serif" font-size="10.00">#</text>
<text text-anchor="start" x="228.5" y="-815" font-family="Helvetica,sans-Serif" font-size="10.00">SetG1Duration()</text>
<text text-anchor="start" x="215.5" y="-800" font-family="Helvetica,sans-Serif" font-size="10.00">#</text>
<text text-anchor="start" x="228.5" y="-800" font-family="Helvetica,sans-Serif" font-size="10.00">AbstractSimplePhaseBased</text>
<text text-anchor="start" x="228.5" y="-789" font-family="Helvetica,sans-Serif" font-size="10.00">CellCycleModel()</text>
<text text-anchor="start" x="218" y="-774" font-family="Helvetica,sans-Serif" font-size="10.00">&#45;</text>
<text text-anchor="start" x="228.5" y="-774" font-family="Helvetica,sans-Serif" font-size="10.00">serialize()</text>
<polygon fill="#666666" stroke="#666666" points="211.5,-967 211.5,-967 404.5,-967 404.5,-967 211.5,-967"/>
<polygon fill="#666666" stroke="#666666" points="211.5,-952 211.5,-952 404.5,-952 404.5,-952 211.5,-952"/>
<polygon fill="none" stroke="#666666" points="211,-767 211,-995 404,-995 404,-767 211,-767"/>
</a>
</g>
</g>
<!-- Node2&#45;&gt;Node1 -->
<g id="edge1_Node000001_Node000002" class="edge">
<title>Node2&#45;&gt;Node1</title>
<g id="a_edge1_Node000001_Node000002"><a xlink:title=" ">
<path fill="none" stroke="#63b8ff" d="M307.5,-756.91C307.5,-748.33 307.5,-739.68 307.5,-731.07"/>
<polygon fill="none" stroke="#63b8ff" points="304,-756.93 307.5,-766.93 311,-756.93 304,-756.93"/>
</a>
</g>
</g>
<!-- Node3 -->
<g id="Node000003" class="node">
<title>Node3</title>
<g id="a_Node000003"><a xlink:href="classAbstractPhaseBasedCellCycleModel.html" target="_top" xlink:title=" ">
<polygon fill="white" stroke="transparent" points="395,-1409 220,-1409 220,-1031 395,-1031 395,-1409"/>
<text text-anchor="start" x="235" y="-1397" font-family="Helvetica,sans-Serif" font-size="10.00">AbstractPhaseBasedCellCycle</text>
<text text-anchor="start" x="292.5" y="-1386" font-family="Helvetica,sans-Serif" font-size="10.00">Model</text>
<text text-anchor="start" x="224.5" y="-1371" font-family="Helvetica,sans-Serif" font-size="10.00">#</text>
<text text-anchor="start" x="237.5" y="-1371" font-family="Helvetica,sans-Serif" font-size="10.00">mCurrentCellCyclePhase</text>
<text text-anchor="start" x="224.5" y="-1356" font-family="Helvetica,sans-Serif" font-size="10.00">#</text>
<text text-anchor="start" x="237.5" y="-1356" font-family="Helvetica,sans-Serif" font-size="10.00">mG1Duration</text>
<text text-anchor="start" x="224.5" y="-1341" font-family="Helvetica,sans-Serif" font-size="10.00">#</text>
<text text-anchor="start" x="237.5" y="-1341" font-family="Helvetica,sans-Serif" font-size="10.00">mMinimumGapDuration</text>
<text text-anchor="start" x="224.5" y="-1326" font-family="Helvetica,sans-Serif" font-size="10.00">#</text>
<text text-anchor="start" x="237.5" y="-1326" font-family="Helvetica,sans-Serif" font-size="10.00">mStemCellG1Duration</text>
<text text-anchor="start" x="224.5" y="-1311" font-family="Helvetica,sans-Serif" font-size="10.00">#</text>
<text text-anchor="start" x="237.5" y="-1311" font-family="Helvetica,sans-Serif" font-size="10.00">mTransitCellG1Duration</text>
<text text-anchor="start" x="224.5" y="-1296" font-family="Helvetica,sans-Serif" font-size="10.00">#</text>
<text text-anchor="start" x="237.5" y="-1296" font-family="Helvetica,sans-Serif" font-size="10.00">mSDuration</text>
<text text-anchor="start" x="224.5" y="-1281" font-family="Helvetica,sans-Serif" font-size="10.00">#</text>
<text text-anchor="start" x="237.5" y="-1281" font-family="Helvetica,sans-Serif" font-size="10.00">mG2Duration</text>
<text text-anchor="start" x="224.5" y="-1266" font-family="Helvetica,sans-Serif" font-size="10.00">#</text>
<text text-anchor="start" x="237.5" y="-1266" font-family="Helvetica,sans-Serif" font-size="10.00">mMDuration</text>
<text text-anchor="start" x="224.5" y="-1251" font-family="Helvetica,sans-Serif" font-size="10.00">+</text>
<text text-anchor="start" x="237.5" y="-1251" font-family="Helvetica,sans-Serif" font-size="10.00">AbstractPhaseBasedCellCycle</text>
<text text-anchor="start" x="237.5" y="-1240" font-family="Helvetica,sans-Serif" font-size="10.00">Model()</text>
<text text-anchor="start" x="224.5" y="-1225" font-family="Helvetica,sans-Serif" font-size="10.00">+</text>
<text text-anchor="start" x="237.5" y="-1225" font-family="Helvetica,sans-Serif" font-size="10.00">~AbstractPhaseBasedCellCycle</text>
<text text-anchor="start" x="237.5" y="-1214" font-family="Helvetica,sans-Serif" font-size="10.00">Model()</text>
<text text-anchor="start" x="224.5" y="-1199" font-family="Helvetica,sans-Serif" font-size="10.00">+</text>
<text text-anchor="start" x="237.5" y="-1199" font-family="Helvetica,sans-Serif" font-size="10.00">ReadyToDivide()</text>
<text text-anchor="start" x="224.5" y="-1184" font-family="Helvetica,sans-Serif" font-size="10.00">+</text>
<text text-anchor="start" x="237.5" y="-1184" font-family="Helvetica,sans-Serif" font-size="10.00">ResetForDivision()</text>
<text text-anchor="start" x="224.5" y="-1169" font-family="Helvetica,sans-Serif" font-size="10.00">+</text>
<text text-anchor="start" x="237.5" y="-1169" font-family="Helvetica,sans-Serif" font-size="10.00">UpdateCellCyclePhase()</text>
<text text-anchor="start" x="224.5" y="-1154" font-family="Helvetica,sans-Serif" font-size="10.00">+</text>
<text text-anchor="start" x="237.5" y="-1154" font-family="Helvetica,sans-Serif" font-size="10.00">GetCurrentCellCyclePhase()</text>
<text text-anchor="start" x="224.5" y="-1139" font-family="Helvetica,sans-Serif" font-size="10.00">+</text>
<text text-anchor="start" x="237.5" y="-1139" font-family="Helvetica,sans-Serif" font-size="10.00">GetG1Duration()</text>
<text text-anchor="start" x="224.5" y="-1124" font-family="Helvetica,sans-Serif" font-size="10.00">+</text>
<text text-anchor="start" x="237.5" y="-1124" font-family="Helvetica,sans-Serif" font-size="10.00">GetStemCellG1Duration()</text>
<text text-anchor="start" x="224.5" y="-1109" font-family="Helvetica,sans-Serif" font-size="10.00">+</text>
<text text-anchor="start" x="237.5" y="-1109" font-family="Helvetica,sans-Serif" font-size="10.00">GetTransitCellG1Duration()</text>
<text text-anchor="start" x="224.5" y="-1094" font-family="Helvetica,sans-Serif" font-size="10.00">+</text>
<text text-anchor="start" x="237.5" y="-1094" font-family="Helvetica,sans-Serif" font-size="10.00">GetSG2MDuration()</text>
<text text-anchor="start" x="237.5" y="-1079" font-family="Helvetica,sans-Serif" font-size="10.00">and 13 more...</text>
<text text-anchor="start" x="224.5" y="-1064" font-family="Helvetica,sans-Serif" font-size="10.00">#</text>
<text text-anchor="start" x="237.5" y="-1064" font-family="Helvetica,sans-Serif" font-size="10.00">AbstractPhaseBasedCellCycle</text>
<text text-anchor="start" x="237.5" y="-1053" font-family="Helvetica,sans-Serif" font-size="10.00">Model()</text>
<text text-anchor="start" x="227" y="-1038" font-family="Helvetica,sans-Serif" font-size="10.00">&#45;</text>
<text text-anchor="start" x="237.5" y="-1038" font-family="Helvetica,sans-Serif" font-size="10.00">serialize()</text>
<polygon fill="#666666" stroke="#666666" points="220.5,-1381 220.5,-1381 395.5,-1381 395.5,-1381 220.5,-1381"/>
<polygon fill="#666666" stroke="#666666" points="220.5,-1261 220.5,-1261 235.5,-1261 235.5,-1261 220.5,-1261"/>
<polygon fill="#666666" stroke="#666666" points="235.5,-1261 235.5,-1261 395.5,-1261 395.5,-1261 235.5,-1261"/>
<polygon fill="none" stroke="#666666" points="220,-1031 220,-1409 395,-1409 395,-1031 220,-1031"/>
</a>
</g>
</g>
<!-- Node3&#45;&gt;Node2 -->
<g id="edge2_Node000002_Node000003" class="edge">
<title>Node3&#45;&gt;Node2</title>
<g id="a_edge2_Node000002_Node000003"><a xlink:title=" ">
<path fill="none" stroke="#63b8ff" d="M307.5,-1020.66C307.5,-1012.06 307.5,-1003.56 307.5,-995.27"/>
<polygon fill="none" stroke="#63b8ff" points="304,-1020.79 307.5,-1030.79 311,-1020.79 304,-1020.79"/>
</a>
</g>
</g>
<!-- Node4 -->
<g id="Node000004" class="node">
<title>Node4</title>
<g id="a_Node000004"><a xlink:href="classAbstractCellCycleModel.html" target="_top" xlink:title=" ">
<polygon fill="white" stroke="transparent" points="384.5,-1734 230.5,-1734 230.5,-1445 384.5,-1445 384.5,-1734"/>
<text text-anchor="start" x="249" y="-1721.5" font-family="Helvetica,sans-Serif" font-size="10.00">AbstractCellCycleModel</text>
<text text-anchor="start" x="234.5" y="-1706.5" font-family="Helvetica,sans-Serif" font-size="10.00">#</text>
<text text-anchor="start" x="247.5" y="-1706.5" font-family="Helvetica,sans-Serif" font-size="10.00">mpCell</text>
<text text-anchor="start" x="234.5" y="-1691.5" font-family="Helvetica,sans-Serif" font-size="10.00">#</text>
<text text-anchor="start" x="247.5" y="-1691.5" font-family="Helvetica,sans-Serif" font-size="10.00">mBirthTime</text>
<text text-anchor="start" x="234.5" y="-1676.5" font-family="Helvetica,sans-Serif" font-size="10.00">#</text>
<text text-anchor="start" x="247.5" y="-1676.5" font-family="Helvetica,sans-Serif" font-size="10.00">mReadyToDivide</text>
<text text-anchor="start" x="234.5" y="-1661.5" font-family="Helvetica,sans-Serif" font-size="10.00">#</text>
<text text-anchor="start" x="247.5" y="-1661.5" font-family="Helvetica,sans-Serif" font-size="10.00">mDimension</text>
<text text-anchor="start" x="234.5" y="-1646.5" font-family="Helvetica,sans-Serif" font-size="10.00">+</text>
<text text-anchor="start" x="247.5" y="-1646.5" font-family="Helvetica,sans-Serif" font-size="10.00">AbstractCellCycleModel()</text>
<text text-anchor="start" x="234.5" y="-1631.5" font-family="Helvetica,sans-Serif" font-size="10.00">+</text>
<text text-anchor="start" x="247.5" y="-1631.5" font-family="Helvetica,sans-Serif" font-size="10.00">~AbstractCellCycleModel()</text>
<text text-anchor="start" x="234.5" y="-1616.5" font-family="Helvetica,sans-Serif" font-size="10.00">+</text>
<text text-anchor="start" x="247.5" y="-1616.5" font-family="Helvetica,sans-Serif" font-size="10.00">SetCell()</text>
<text text-anchor="start" x="234.5" y="-1601.5" font-family="Helvetica,sans-Serif" font-size="10.00">+</text>
<text text-anchor="start" x="247.5" y="-1601.5" font-family="Helvetica,sans-Serif" font-size="10.00">Initialise()</text>
<text text-anchor="start" x="234.5" y="-1586.5" font-family="Helvetica,sans-Serif" font-size="10.00">+</text>
<text text-anchor="start" x="247.5" y="-1586.5" font-family="Helvetica,sans-Serif" font-size="10.00">InitialiseDaughterCell()</text>
<text text-anchor="start" x="234.5" y="-1571.5" font-family="Helvetica,sans-Serif" font-size="10.00">+</text>
<text text-anchor="start" x="247.5" y="-1571.5" font-family="Helvetica,sans-Serif" font-size="10.00">GetCell()</text>
<text text-anchor="start" x="234.5" y="-1556.5" font-family="Helvetica,sans-Serif" font-size="10.00">+</text>
<text text-anchor="start" x="247.5" y="-1556.5" font-family="Helvetica,sans-Serif" font-size="10.00">SetBirthTime()</text>
<text text-anchor="start" x="234.5" y="-1541.5" font-family="Helvetica,sans-Serif" font-size="10.00">+</text>
<text text-anchor="start" x="247.5" y="-1541.5" font-family="Helvetica,sans-Serif" font-size="10.00">SetDimension()</text>
<text text-anchor="start" x="234.5" y="-1526.5" font-family="Helvetica,sans-Serif" font-size="10.00">+</text>
<text text-anchor="start" x="247.5" y="-1526.5" font-family="Helvetica,sans-Serif" font-size="10.00">GetDimension()</text>
<text text-anchor="start" x="234.5" y="-1511.5" font-family="Helvetica,sans-Serif" font-size="10.00">+</text>
<text text-anchor="start" x="247.5" y="-1511.5" font-family="Helvetica,sans-Serif" font-size="10.00">GetBirthTime()</text>
<text text-anchor="start" x="247.5" y="-1496.5" font-family="Helvetica,sans-Serif" font-size="10.00">and 9 more...</text>
<text text-anchor="start" x="234.5" y="-1481.5" font-family="Helvetica,sans-Serif" font-size="10.00">#</text>
<text text-anchor="start" x="247.5" y="-1481.5" font-family="Helvetica,sans-Serif" font-size="10.00">AbstractCellCycleModel()</text>
<text text-anchor="start" x="237" y="-1466.5" font-family="Helvetica,sans-Serif" font-size="10.00">&#45;</text>
<text text-anchor="start" x="247.5" y="-1466.5" font-family="Helvetica,sans-Serif" font-size="10.00">serialize()</text>
<text text-anchor="start" x="237" y="-1451.5" font-family="Helvetica,sans-Serif" font-size="10.00">&#45;</text>
<text text-anchor="start" x="247.5" y="-1451.5" font-family="Helvetica,sans-Serif" font-size="10.00">operator=()</text>
<polygon fill="#666666" stroke="#666666" points="230.5,-1716.5 230.5,-1716.5 384.5,-1716.5 384.5,-1716.5 230.5,-1716.5"/>
<polygon fill="#666666" stroke="#666666" points="230.5,-1656.5 230.5,-1656.5 245.5,-1656.5 245.5,-1656.5 230.5,-1656.5"/>
<polygon fill="#666666" stroke="#666666" points="245.5,-1656.5 245.5,-1656.5 384.5,-1656.5 384.5,-1656.5 245.5,-1656.5"/>
<polygon fill="none" stroke="#666666" points="230.5,-1445 230.5,-1734 384.5,-1734 384.5,-1445 230.5,-1445"/>
</a>
</g>
</g>
<!-- Node4&#45;&gt;Node3 -->
<g id="edge3_Node000003_Node000004" class="edge">
<title>Node4&#45;&gt;Node3</title>
<g id="a_edge3_Node000003_Node000004"><a xlink:title=" ">
<path fill="none" stroke="#63b8ff" d="M307.5,-1434.57C307.5,-1426.11 307.5,-1417.57 307.5,-1409.02"/>
<polygon fill="none" stroke="#63b8ff" points="304,-1434.84 307.5,-1444.84 311,-1434.84 304,-1434.84"/>
</a>
</g>
</g>
<!-- Node5 -->
<g id="Node000005" class="node">
<title>Node5</title>
<g id="a_Node000005"><a xlink:href="classIdentifiable.html" target="_top" xlink:title=" ">
<polygon fill="white" stroke="transparent" points="395.5,-1849 219.5,-1849 219.5,-1770 395.5,-1770 395.5,-1849"/>
<text text-anchor="start" x="280" y="-1836.5" font-family="Helvetica,sans-Serif" font-size="10.00">Identifiable</text>
<text text-anchor="start" x="305.5" y="-1821.5" font-family="Helvetica,sans-Serif" font-size="10.00"> </text>
<text text-anchor="start" x="223.5" y="-1806.5" font-family="Helvetica,sans-Serif" font-size="10.00">+</text>
<text text-anchor="start" x="236.5" y="-1806.5" font-family="Helvetica,sans-Serif" font-size="10.00">~Identifiable()</text>
<text text-anchor="start" x="223.5" y="-1791.5" font-family="Helvetica,sans-Serif" font-size="10.00">+</text>
<text text-anchor="start" x="236.5" y="-1791.5" font-family="Helvetica,sans-Serif" font-size="10.00">GetIdentifier()</text>
<text text-anchor="start" x="226" y="-1776.5" font-family="Helvetica,sans-Serif" font-size="10.00">&#45;</text>
<text text-anchor="start" x="236.5" y="-1776.5" font-family="Helvetica,sans-Serif" font-size="10.00">TidyTemplatedExportIdentifier()</text>
<polygon fill="#666666" stroke="#666666" points="219.5,-1831.5 219.5,-1831.5 395.5,-1831.5 395.5,-1831.5 219.5,-1831.5"/>
<polygon fill="#666666" stroke="#666666" points="219.5,-1816.5 219.5,-1816.5 395.5,-1816.5 395.5,-1816.5 219.5,-1816.5"/>
<polygon fill="none" stroke="#666666" points="219.5,-1770 219.5,-1849 395.5,-1849 395.5,-1770 219.5,-1770"/>
</a>
</g>
</g>
<!-- Node5&#45;&gt;Node4 -->
<g id="edge4_Node000004_Node000005" class="edge">
<title>Node5&#45;&gt;Node4</title>
<g id="a_edge4_Node000004_Node000005"><a xlink:title=" ">
<path fill="none" stroke="#63b8ff" d="M307.5,-1759.64C307.5,-1751.63 307.5,-1742.99 307.5,-1734"/>
<polygon fill="none" stroke="#63b8ff" points="304,-1759.78 307.5,-1769.78 311,-1759.78 304,-1759.78"/>
</a>
</g>
</g>
<!-- Node7 -->
<g id="Node000007" class="node">
<title>Node7</title>
<g id="a_Node000007"><a xlink:href="classFixedSequenceCellCycleModel.html" target="_top" xlink:title=" ">
<polygon fill="white" stroke="transparent" points="193,-184 0,-184 0,0 193,0 193,-184"/>
<text text-anchor="start" x="22.5" y="-172" font-family="Helvetica,sans-Serif" font-size="10.00">FixedSequenceCellCycleModel</text>
<text text-anchor="start" x="95" y="-157" font-family="Helvetica,sans-Serif" font-size="10.00"> </text>
<text text-anchor="start" x="4.5" y="-142" font-family="Helvetica,sans-Serif" font-size="10.00">+</text>
<text text-anchor="start" x="17.5" y="-142" font-family="Helvetica,sans-Serif" font-size="10.00">FixedSequenceCellCycleModel()</text>
<text text-anchor="start" x="4.5" y="-127" font-family="Helvetica,sans-Serif" font-size="10.00">+</text>
<text text-anchor="start" x="17.5" y="-127" font-family="Helvetica,sans-Serif" font-size="10.00">CreateCellCycleModel()</text>
<text text-anchor="start" x="4.5" y="-112" font-family="Helvetica,sans-Serif" font-size="10.00">+</text>
<text text-anchor="start" x="17.5" y="-112" font-family="Helvetica,sans-Serif" font-size="10.00">SetRate()</text>
<text text-anchor="start" x="4.5" y="-97" font-family="Helvetica,sans-Serif" font-size="10.00">+</text>
<text text-anchor="start" x="17.5" y="-97" font-family="Helvetica,sans-Serif" font-size="10.00">GetRate()</text>
<text text-anchor="start" x="4.5" y="-82" font-family="Helvetica,sans-Serif" font-size="10.00">+</text>
<text text-anchor="start" x="17.5" y="-82" font-family="Helvetica,sans-Serif" font-size="10.00">SetStemCellG1Duration()</text>
<text text-anchor="start" x="4.5" y="-67" font-family="Helvetica,sans-Serif" font-size="10.00">+</text>
<text text-anchor="start" x="17.5" y="-67" font-family="Helvetica,sans-Serif" font-size="10.00">SetTransitCellG1Duration()</text>
<text text-anchor="start" x="4.5" y="-52" font-family="Helvetica,sans-Serif" font-size="10.00">+</text>
<text text-anchor="start" x="17.5" y="-52" font-family="Helvetica,sans-Serif" font-size="10.00">OutputCellCycleModelParameters()</text>
<text text-anchor="start" x="4.5" y="-37" font-family="Helvetica,sans-Serif" font-size="10.00">#</text>
<text text-anchor="start" x="17.5" y="-37" font-family="Helvetica,sans-Serif" font-size="10.00">SetG1Duration()</text>
<text text-anchor="start" x="4.5" y="-22" font-family="Helvetica,sans-Serif" font-size="10.00">#</text>
<text text-anchor="start" x="17.5" y="-22" font-family="Helvetica,sans-Serif" font-size="10.00">FixedSequenceCellCycleModel()</text>
<text text-anchor="start" x="7" y="-7" font-family="Helvetica,sans-Serif" font-size="10.00">&#45;</text>
<text text-anchor="start" x="17.5" y="-7" font-family="Helvetica,sans-Serif" font-size="10.00">serialize()</text>
<polygon fill="#666666" stroke="#666666" points="0.5,-167 0.5,-167 193.5,-167 193.5,-167 0.5,-167"/>
<polygon fill="#666666" stroke="#666666" points="0.5,-152 0.5,-152 193.5,-152 193.5,-152 0.5,-152"/>
<polygon fill="none" stroke="#666666" points="0,0 0,-184 193,-184 193,0 0,0"/>
</a>
</g>
</g>
<!-- Node6&#45;&gt;Node7 -->
<g id="edge6_Node000006_Node000007" class="edge">
<title>Node6&#45;&gt;Node7</title>
<g id="a_edge6_Node000006_Node000007"><a xlink:title=" ">
<path fill="none" stroke="#63b8ff" d="M96.5,-209.78C96.5,-201.19 96.5,-192.6 96.5,-184.2"/>
<polygon fill="none" stroke="#63b8ff" points="93,-209.86 96.5,-219.86 100,-209.86 93,-209.86"/>
</a>
</g>
</g>
</g>
</svg>
