<?xml version="1.0" encoding="UTF-8" standalone="no"?>
<!DOCTYPE svg PUBLIC "-//W3C//DTD SVG 1.1//EN"
 "http://www.w3.org/Graphics/SVG/1.1/DTD/svg11.dtd">
<!-- Generated by graphviz version 2.43.0 (0)
 -->
<!-- Title: CompressibleExponentialLaw&lt; DIM &gt; Pages: 1 -->
<svg width="661pt" height="739pt"
 viewBox="0.00 0.00 661.00 739.00" xmlns="http://www.w3.org/2000/svg" xmlns:xlink="http://www.w3.org/1999/xlink">
<g id="graph0" class="graph" transform="scale(1 1) rotate(0) translate(4 735)">
<title>CompressibleExponentialLaw&lt; DIM &gt;</title>
<!-- Node1 -->
<g id="Node000001" class="node">
<title>Node1</title>
<g id="a_Node000001"><a xlink:title=" ">
<polygon fill="#999999" stroke="transparent" points="363.5,-120 160.5,-120 160.5,0 363.5,0 363.5,-120"/>
<text text-anchor="start" x="190" y="-108" font-family="Helvetica,sans-Serif" font-size="10.00">CompressibleExponentialLaw</text>
<text text-anchor="start" x="241" y="-97" font-family="Helvetica,sans-Serif" font-size="10.00">&lt; DIM &gt;</text>
<text text-anchor="start" x="260.5" y="-82" font-family="Helvetica,sans-Serif" font-size="10.00"> </text>
<text text-anchor="start" x="165" y="-67" font-family="Helvetica,sans-Serif" font-size="10.00">+</text>
<text text-anchor="start" x="178" y="-67" font-family="Helvetica,sans-Serif" font-size="10.00">CompressibleExponentialLaw()</text>
<text text-anchor="start" x="165" y="-52" font-family="Helvetica,sans-Serif" font-size="10.00">+</text>
<text text-anchor="start" x="178" y="-52" font-family="Helvetica,sans-Serif" font-size="10.00">ComputeStressAndStressDerivative()</text>
<text text-anchor="start" x="165" y="-37" font-family="Helvetica,sans-Serif" font-size="10.00">+</text>
<text text-anchor="start" x="178" y="-37" font-family="Helvetica,sans-Serif" font-size="10.00">GetA()</text>
<text text-anchor="start" x="165" y="-22" font-family="Helvetica,sans-Serif" font-size="10.00">+</text>
<text text-anchor="start" x="178" y="-22" font-family="Helvetica,sans-Serif" font-size="10.00">GetB()</text>
<text text-anchor="start" x="165" y="-7" font-family="Helvetica,sans-Serif" font-size="10.00">+</text>
<text text-anchor="start" x="178" y="-7" font-family="Helvetica,sans-Serif" font-size="10.00">GetCompressibilityParam()</text>
<polygon fill="#666666" stroke="#666666" points="161,-92 161,-92 364,-92 364,-92 161,-92"/>
<polygon fill="#666666" stroke="#666666" points="161,-77 161,-77 364,-77 364,-77 161,-77"/>
<polygon fill="none" stroke="#666666" points="160.5,0 160.5,-120 363.5,-120 363.5,0 160.5,0"/>
</a>
</g>
</g>
<!-- Node2 -->
<g id="Node000002" class="node">
<title>Node2</title>
<g id="a_Node000002"><a xlink:href="classAbstractCompressibleMaterialLaw.html" target="_top" xlink:title=" ">
<polygon fill="white" stroke="transparent" points="258.5,-238 89.5,-238 89.5,-167 258.5,-167 258.5,-238"/>
<text text-anchor="start" x="100.5" y="-225.5" font-family="Helvetica,sans-Serif" font-size="10.00">AbstractCompressibleMaterial</text>
<text text-anchor="start" x="143.5" y="-214.5" font-family="Helvetica,sans-Serif" font-size="10.00">Law&lt; DIM &gt;</text>
<text text-anchor="start" x="172.5" y="-199.5" font-family="Helvetica,sans-Serif" font-size="10.00"> </text>
<text text-anchor="start" x="94" y="-184.5" font-family="Helvetica,sans-Serif" font-size="10.00">+</text>
<text text-anchor="start" x="107" y="-184.5" font-family="Helvetica,sans-Serif" font-size="10.00">AbstractCompressibleMaterial</text>
<text text-anchor="start" x="107" y="-173.5" font-family="Helvetica,sans-Serif" font-size="10.00">Law()</text>
<polygon fill="#666666" stroke="#666666" points="90,-209.5 90,-209.5 259,-209.5 259,-209.5 90,-209.5"/>
<polygon fill="#666666" stroke="#666666" points="90,-194.5 90,-194.5 259,-194.5 259,-194.5 90,-194.5"/>
<polygon fill="none" stroke="#666666" points="89.5,-167 89.5,-238 258.5,-238 258.5,-167 89.5,-167"/>
</a>
</g>
</g>
<!-- Node2&#45;&gt;Node1 -->
<g id="edge1_Node000001_Node000002" class="edge">
<title>Node2&#45;&gt;Node1</title>
<g id="a_edge1_Node000001_Node000002"><a xlink:title=" ">
<path fill="none" stroke="#63b8ff" d="M201.08,-158.26C208.61,-146.24 216.92,-132.98 224.91,-120.21"/>
<polygon fill="none" stroke="#63b8ff" points="198.09,-156.44 195.75,-166.77 204.03,-160.15 198.09,-156.44"/>
</a>
</g>
</g>
<!-- Node3 -->
<g id="Node000003" class="node">
<title>Node3</title>
<g id="a_Node000003"><a xlink:href="classAbstractMaterialLaw.html" target="_top" xlink:title=" ">
<polygon fill="white" stroke="transparent" points="266.5,-528 63.5,-528 63.5,-296 266.5,-296 266.5,-528"/>
<text text-anchor="start" x="115" y="-516" font-family="Helvetica,sans-Serif" font-size="10.00">AbstractMaterialLaw</text>
<text text-anchor="start" x="144" y="-505" font-family="Helvetica,sans-Serif" font-size="10.00">&lt; DIM &gt;</text>
<text text-anchor="start" x="163.5" y="-490" font-family="Helvetica,sans-Serif" font-size="10.00"> </text>
<text text-anchor="start" x="68" y="-475" font-family="Helvetica,sans-Serif" font-size="10.00">+</text>
<text text-anchor="start" x="81" y="-475" font-family="Helvetica,sans-Serif" font-size="10.00">AbstractMaterialLaw()</text>
<text text-anchor="start" x="68" y="-460" font-family="Helvetica,sans-Serif" font-size="10.00">+</text>
<text text-anchor="start" x="81" y="-460" font-family="Helvetica,sans-Serif" font-size="10.00">~AbstractMaterialLaw()</text>
<text text-anchor="start" x="68" y="-445" font-family="Helvetica,sans-Serif" font-size="10.00">+</text>
<text text-anchor="start" x="81" y="-445" font-family="Helvetica,sans-Serif" font-size="10.00">ComputeStressAndStressDerivative()</text>
<text text-anchor="start" x="68" y="-430" font-family="Helvetica,sans-Serif" font-size="10.00">+</text>
<text text-anchor="start" x="81" y="-430" font-family="Helvetica,sans-Serif" font-size="10.00">ComputeCauchyStress()</text>
<text text-anchor="start" x="68" y="-415" font-family="Helvetica,sans-Serif" font-size="10.00">+</text>
<text text-anchor="start" x="81" y="-415" font-family="Helvetica,sans-Serif" font-size="10.00">Compute1stPiolaKirchoffStress()</text>
<text text-anchor="start" x="68" y="-400" font-family="Helvetica,sans-Serif" font-size="10.00">+</text>
<text text-anchor="start" x="81" y="-400" font-family="Helvetica,sans-Serif" font-size="10.00">Compute2ndPiolaKirchoffStress()</text>
<text text-anchor="start" x="68" y="-385" font-family="Helvetica,sans-Serif" font-size="10.00">+</text>
<text text-anchor="start" x="81" y="-385" font-family="Helvetica,sans-Serif" font-size="10.00">ScaleMaterialParameters()</text>
<text text-anchor="start" x="68" y="-370" font-family="Helvetica,sans-Serif" font-size="10.00">+</text>
<text text-anchor="start" x="81" y="-370" font-family="Helvetica,sans-Serif" font-size="10.00">SetChangeOfBasisMatrix()</text>
<text text-anchor="start" x="68" y="-355" font-family="Helvetica,sans-Serif" font-size="10.00">+</text>
<text text-anchor="start" x="81" y="-355" font-family="Helvetica,sans-Serif" font-size="10.00">ResetToNoChangeOfBasisMatrix()</text>
<text text-anchor="start" x="68" y="-340" font-family="Helvetica,sans-Serif" font-size="10.00">#</text>
<text text-anchor="start" x="81" y="-340" font-family="Helvetica,sans-Serif" font-size="10.00">ComputeTransformedDeformation</text>
<text text-anchor="start" x="81" y="-329" font-family="Helvetica,sans-Serif" font-size="10.00">Tensor()</text>
<text text-anchor="start" x="68" y="-314" font-family="Helvetica,sans-Serif" font-size="10.00">#</text>
<text text-anchor="start" x="81" y="-314" font-family="Helvetica,sans-Serif" font-size="10.00">TransformStressAndStress</text>
<text text-anchor="start" x="81" y="-303" font-family="Helvetica,sans-Serif" font-size="10.00">Derivative()</text>
<polygon fill="#666666" stroke="#666666" points="64,-500 64,-500 267,-500 267,-500 64,-500"/>
<polygon fill="#666666" stroke="#666666" points="64,-485 64,-485 267,-485 267,-485 64,-485"/>
<polygon fill="none" stroke="#666666" points="63.5,-296 63.5,-528 266.5,-528 266.5,-296 63.5,-296"/>
</a>
</g>
</g>
<!-- Node3&#45;&gt;Node2 -->
<g id="edge2_Node000002_Node000003" class="edge">
<title>Node3&#45;&gt;Node2</title>
<g id="a_edge2_Node000002_Node000003"><a xlink:title=" ">
<path fill="none" stroke="#63b8ff" d="M170.44,-285.5C171.19,-268.29 171.9,-251.91 172.49,-238.38"/>
<polygon fill="none" stroke="#63b8ff" points="166.94,-285.58 170,-295.72 173.93,-285.88 166.94,-285.58"/>
</a>
</g>
</g>
<!-- Node4 -->
<g id="Node000004" class="node">
<title>Node4</title>
<g id="a_Node000004"><a xlink:title=" ">
<polygon fill="white" stroke="transparent" points="126,-635 0,-635 0,-575 126,-575 126,-635"/>
<text text-anchor="start" x="5" y="-623" font-family="Helvetica,sans-Serif" font-size="10.00">c_matrix&lt; double, DIM,</text>
<text text-anchor="start" x="46" y="-612" font-family="Helvetica,sans-Serif" font-size="10.00"> DIM &gt;</text>
<text text-anchor="start" x="61" y="-597" font-family="Helvetica,sans-Serif" font-size="10.00"> </text>
<text text-anchor="start" x="61" y="-582" font-family="Helvetica,sans-Serif" font-size="10.00"> </text>
<polygon fill="#bfbfbf" stroke="#bfbfbf" points="0,-607 0,-607 126,-607 126,-607 0,-607"/>
<polygon fill="#bfbfbf" stroke="#bfbfbf" points="0,-592 0,-592 126,-592 126,-592 0,-592"/>
<polygon fill="none" stroke="#bfbfbf" points="0,-575 0,-635 126,-635 126,-575 0,-575"/>
</a>
</g>
</g>
<!-- Node4&#45;&gt;Node1 -->
<g id="edge12_Node000001_Node000004" class="edge">
<title>Node4&#45;&gt;Node1</title>
<g id="a_edge12_Node000001_Node000004"><a xlink:title=" ">
<path fill="none" stroke="#63b8ff" d="M54.2,-574.78C33.33,-499.15 -10.91,-294.04 80,-167 97.75,-142.19 123.26,-122.3 149.59,-106.75"/>
<polygon fill="none" stroke="#63b8ff" points="149.66,-106.7 152.91,-100.26 160.1,-100.78 156.86,-107.22 149.66,-106.7"/>
</a>
</g>
<text text-anchor="middle" x="65.5" y="-264.5" font-family="Helvetica,sans-Serif" font-size="10.00" fill="grey"> &#45;mIdentity</text>
</g>
<!-- Node4&#45;&gt;Node3 -->
<g id="edge3_Node000003_Node000004" class="edge">
<title>Node4&#45;&gt;Node3</title>
<g id="a_edge3_Node000003_Node000004"><a xlink:title=" ">
<path fill="none" stroke="#63b8ff" d="M78.49,-574.99C83.99,-564.7 90.58,-552.36 97.63,-539.14"/>
<polygon fill="none" stroke="#63b8ff" points="97.73,-538.97 97.03,-531.79 103.38,-528.38 104.08,-535.56 97.73,-538.97"/>
</a>
</g>
<text text-anchor="middle" x="160.5" y="-549" font-family="Helvetica,sans-Serif" font-size="10.00" fill="grey"> #mpChangeOfBasisMatrix</text>
</g>
<!-- Node5 -->
<g id="Node000005" class="node">
<title>Node5</title>
<g id="a_Node000005"><a xlink:title=" ">
<polygon fill="white" stroke="transparent" points="89.5,-731 36.5,-731 36.5,-682 89.5,-682 89.5,-731"/>
<text text-anchor="start" x="42" y="-718.5" font-family="Helvetica,sans-Serif" font-size="10.00">c_matrix</text>
<text text-anchor="start" x="61.5" y="-703.5" font-family="Helvetica,sans-Serif" font-size="10.00"> </text>
<text text-anchor="start" x="61.5" y="-688.5" font-family="Helvetica,sans-Serif" font-size="10.00"> </text>
<polygon fill="#bfbfbf" stroke="#bfbfbf" points="37,-713.5 37,-713.5 90,-713.5 90,-713.5 37,-713.5"/>
<polygon fill="#bfbfbf" stroke="#bfbfbf" points="37,-698.5 37,-698.5 90,-698.5 90,-698.5 37,-698.5"/>
<polygon fill="none" stroke="#bfbfbf" points="36.5,-682 36.5,-731 89.5,-731 89.5,-682 36.5,-682"/>
</a>
</g>
</g>
<!-- Node5&#45;&gt;Node4 -->
<g id="edge4_Node000004_Node000005" class="edge">
<title>Node5&#45;&gt;Node4</title>
<g id="a_edge4_Node000004_Node000005"><a xlink:title=" ">
<path fill="none" stroke="orange" d="M63,-671.87C63,-659.94 63,-646.62 63,-635.1"/>
<polygon fill="orange" stroke="orange" points="59.5,-671.92 63,-681.92 66.5,-671.92 59.5,-671.92"/>
</a>
</g>
<text text-anchor="middle" x="118" y="-656" font-family="Helvetica,sans-Serif" font-size="10.00" fill="grey"> &lt; double, DIM, DIM &gt;</text>
</g>
<!-- Node6 -->
<g id="Node000006" class="node">
<title>Node6</title>
<g id="a_Node000006"><a xlink:href="classdouble.html" target="_top" xlink:title=" ">
<polygon fill="white" stroke="transparent" points="340,-629.5 296,-629.5 296,-580.5 340,-580.5 340,-629.5"/>
<text text-anchor="start" x="301" y="-617" font-family="Helvetica,sans-Serif" font-size="10.00">double</text>
<text text-anchor="start" x="316" y="-602" font-family="Helvetica,sans-Serif" font-size="10.00"> </text>
<text text-anchor="start" x="316" y="-587" font-family="Helvetica,sans-Serif" font-size="10.00"> </text>
<polygon fill="#bfbfbf" stroke="#bfbfbf" points="296,-612 296,-612 340,-612 340,-612 296,-612"/>
<polygon fill="#bfbfbf" stroke="#bfbfbf" points="296,-597 296,-597 340,-597 340,-597 296,-597"/>
<polygon fill="none" stroke="#bfbfbf" points="296,-580.5 296,-629.5 340,-629.5 340,-580.5 296,-580.5"/>
</a>
</g>
</g>
<!-- Node6&#45;&gt;Node1 -->
<g id="edge5_Node000001_Node000006" class="edge">
<title>Node6&#45;&gt;Node1</title>
<g id="a_edge5_Node000001_Node000006"><a xlink:title=" ">
<path fill="none" stroke="#63b8ff" d="M315.56,-580.32C307.58,-502.96 282.07,-255.59 269.35,-132.28"/>
<polygon fill="none" stroke="#63b8ff" points="269.32,-131.96 264.72,-126.4 268.09,-120.02 272.68,-125.58 269.32,-131.96"/>
</a>
</g>
<text text-anchor="middle" x="345.5" y="-270" font-family="Helvetica,sans-Serif" font-size="10.00" fill="grey"> &#45;mA</text>
<text text-anchor="middle" x="345.5" y="-259" font-family="Helvetica,sans-Serif" font-size="10.00" fill="grey">&#45;mCompressibilityParam</text>
</g>
<!-- Node8 -->
<g id="Node000008" class="node">
<title>Node8</title>
<g id="a_Node000008"><a xlink:title=" ">
<polygon fill="white" stroke="transparent" points="476,-436.5 358,-436.5 358,-387.5 476,-387.5 476,-436.5"/>
<text text-anchor="start" x="363" y="-424" font-family="Helvetica,sans-Serif" font-size="10.00">std::vector&lt; double &gt;</text>
<text text-anchor="start" x="415" y="-409" font-family="Helvetica,sans-Serif" font-size="10.00"> </text>
<text text-anchor="start" x="415" y="-394" font-family="Helvetica,sans-Serif" font-size="10.00"> </text>
<polygon fill="#666666" stroke="#666666" points="358,-419 358,-419 476,-419 476,-419 358,-419"/>
<polygon fill="#666666" stroke="#666666" points="358,-404 358,-404 476,-404 476,-404 358,-404"/>
<polygon fill="none" stroke="#666666" points="358,-387.5 358,-436.5 476,-436.5 476,-387.5 358,-387.5"/>
</a>
</g>
</g>
<!-- Node6&#45;&gt;Node8 -->
<g id="edge8_Node000008_Node000006" class="edge">
<title>Node6&#45;&gt;Node8</title>
<g id="a_edge8_Node000008_Node000006"><a xlink:title=" ">
<path fill="none" stroke="#63b8ff" d="M330.34,-580.2C347.62,-546.85 379.16,-486 399.05,-447.63"/>
<polygon fill="none" stroke="#63b8ff" points="399.3,-447.16 398.5,-439.99 404.82,-436.5 405.61,-443.67 399.3,-447.16"/>
</a>
</g>
<text text-anchor="middle" x="377" y="-549" font-family="Helvetica,sans-Serif" font-size="10.00" fill="grey"> +elements</text>
</g>
<!-- Node7 -->
<g id="Node000007" class="node">
<title>Node7</title>
<g id="a_Node000007"><a xlink:title=" ">
<polygon fill="white" stroke="transparent" points="501.5,-232.5 376.5,-232.5 376.5,-172.5 501.5,-172.5 501.5,-232.5"/>
<text text-anchor="start" x="382" y="-220.5" font-family="Helvetica,sans-Serif" font-size="10.00">std::vector&lt; std::vector</text>
<text text-anchor="start" x="406" y="-209.5" font-family="Helvetica,sans-Serif" font-size="10.00">&lt; double &gt; &gt;</text>
<text text-anchor="start" x="437.5" y="-194.5" font-family="Helvetica,sans-Serif" font-size="10.00"> </text>
<text text-anchor="start" x="437.5" y="-179.5" font-family="Helvetica,sans-Serif" font-size="10.00"> </text>
<polygon fill="#666666" stroke="#666666" points="377,-204.5 377,-204.5 502,-204.5 502,-204.5 377,-204.5"/>
<polygon fill="#666666" stroke="#666666" points="377,-189.5 377,-189.5 502,-189.5 502,-189.5 377,-189.5"/>
<polygon fill="none" stroke="#666666" points="376.5,-172.5 376.5,-232.5 501.5,-232.5 501.5,-172.5 376.5,-172.5"/>
</a>
</g>
</g>
<!-- Node7&#45;&gt;Node1 -->
<g id="edge6_Node000001_Node000007" class="edge">
<title>Node7&#45;&gt;Node1</title>
<g id="a_edge6_Node000001_Node000007"><a xlink:title=" ">
<path fill="none" stroke="#63b8ff" d="M402.33,-172.39C385.97,-159.4 365.96,-143.52 346.23,-127.86"/>
<polygon fill="none" stroke="#63b8ff" points="345.99,-127.67 338.8,-127.07 336.59,-120.21 343.78,-120.81 345.99,-127.67"/>
</a>
</g>
<text text-anchor="middle" x="384" y="-141" font-family="Helvetica,sans-Serif" font-size="10.00" fill="grey"> &#45;mB</text>
</g>
<!-- Node8&#45;&gt;Node7 -->
<g id="edge7_Node000007_Node000008" class="edge">
<title>Node8&#45;&gt;Node7</title>
<g id="a_edge7_Node000007_Node000008"><a xlink:title=" ">
<path fill="none" stroke="#63b8ff" d="M419.52,-387.2C423.2,-352.49 430.09,-287.49 434.62,-244.86"/>
<polygon fill="none" stroke="#63b8ff" points="434.64,-244.6 431.3,-238.21 435.91,-232.67 439.25,-239.06 434.64,-244.6"/>
</a>
</g>
<text text-anchor="middle" x="463" y="-264.5" font-family="Helvetica,sans-Serif" font-size="10.00" fill="grey"> +elements</text>
</g>
<!-- Node9 -->
<g id="Node000009" class="node">
<title>Node9</title>
<g id="a_Node000009"><a xlink:title=" ">
<polygon fill="white" stroke="transparent" points="514.5,-629.5 423.5,-629.5 423.5,-580.5 514.5,-580.5 514.5,-629.5"/>
<text text-anchor="start" x="429" y="-617" font-family="Helvetica,sans-Serif" font-size="10.00">std::vector&lt; T &gt;</text>
<text text-anchor="start" x="467.5" y="-602" font-family="Helvetica,sans-Serif" font-size="10.00"> </text>
<text text-anchor="start" x="467.5" y="-587" font-family="Helvetica,sans-Serif" font-size="10.00"> </text>
<polygon fill="#666666" stroke="#666666" points="424,-612 424,-612 515,-612 515,-612 424,-612"/>
<polygon fill="#666666" stroke="#666666" points="424,-597 424,-597 515,-597 515,-597 424,-597"/>
<polygon fill="none" stroke="#666666" points="423.5,-580.5 423.5,-629.5 514.5,-629.5 514.5,-580.5 423.5,-580.5"/>
</a>
</g>
</g>
<!-- Node9&#45;&gt;Node7 -->
<g id="edge11_Node000007_Node000009" class="edge">
<title>Node9&#45;&gt;Node7</title>
<g id="a_edge11_Node000007_Node000009"><a xlink:title=" ">
<path fill="none" stroke="orange" d="M492.08,-571.6C494.51,-566.88 496.6,-561.95 498,-557 499.33,-552.3 498.02,-550.89 498,-546 497.56,-417.11 548.17,-373.86 496,-256 492.19,-247.39 486.2,-239.56 479.51,-232.73"/>
<polygon fill="orange" stroke="orange" points="489.02,-569.91 487.1,-580.33 495.1,-573.38 489.02,-569.91"/>
</a>
</g>
<text text-anchor="middle" x="586.5" y="-409.5" font-family="Helvetica,sans-Serif" font-size="10.00" fill="grey"> &lt; std::vector&lt; double &gt; &gt;</text>
</g>
<!-- Node9&#45;&gt;Node8 -->
<g id="edge9_Node000008_Node000009" class="edge">
<title>Node9&#45;&gt;Node8</title>
<g id="a_edge9_Node000008_Node000009"><a xlink:title=" ">
<path fill="none" stroke="orange" d="M445.82,-571.43C443.21,-566.74 440.83,-561.86 439,-557 423.77,-516.52 419.07,-465.87 417.63,-436.7"/>
<polygon fill="orange" stroke="orange" points="442.91,-573.38 451.07,-580.14 448.91,-569.77 442.91,-573.38"/>
</a>
</g>
<text text-anchor="middle" x="468.5" y="-549" font-family="Helvetica,sans-Serif" font-size="10.00" fill="grey"> &lt; double &gt;</text>
</g>
<!-- Node10 -->
<g id="Node000010" class="node">
<title>Node10</title>
<g id="a_Node000010"><a xlink:title=" ">
<polygon fill="white" stroke="transparent" points="477.5,-731 460.5,-731 460.5,-682 477.5,-682 477.5,-731"/>
<text text-anchor="start" x="466" y="-718.5" font-family="Helvetica,sans-Serif" font-size="10.00">T</text>
<text text-anchor="start" x="467.5" y="-703.5" font-family="Helvetica,sans-Serif" font-size="10.00"> </text>
<text text-anchor="start" x="467.5" y="-688.5" font-family="Helvetica,sans-Serif" font-size="10.00"> </text>
<polygon fill="#bfbfbf" stroke="#bfbfbf" points="461,-713.5 461,-713.5 478,-713.5 478,-713.5 461,-713.5"/>
<polygon fill="#bfbfbf" stroke="#bfbfbf" points="461,-698.5 461,-698.5 478,-698.5 478,-698.5 461,-698.5"/>
<polygon fill="none" stroke="#bfbfbf" points="460.5,-682 460.5,-731 477.5,-731 477.5,-682 460.5,-682"/>
</a>
</g>
</g>
<!-- Node10&#45;&gt;Node9 -->
<g id="edge10_Node000009_Node000010" class="edge">
<title>Node10&#45;&gt;Node9</title>
<g id="a_edge10_Node000009_Node000010"><a xlink:title=" ">
<path fill="none" stroke="#63b8ff" d="M469,-681.92C469,-669.99 469,-655.25 469,-641.94"/>
<polygon fill="none" stroke="#63b8ff" points="469,-641.76 465,-635.76 469,-629.76 473,-635.76 469,-641.76"/>
</a>
</g>
<text text-anchor="middle" x="498" y="-656" font-family="Helvetica,sans-Serif" font-size="10.00" fill="grey"> +elements</text>
</g>
</g>
</svg>
