<?xml version="1.0" encoding="UTF-8" standalone="no"?>
<!DOCTYPE svg PUBLIC "-//W3C//DTD SVG 1.1//EN"
 "http://www.w3.org/Graphics/SVG/1.1/DTD/svg11.dtd">
<!-- Generated by graphviz version 2.43.0 (0)
 -->
<!-- Title: PottsMeshWriter&lt; SPACE_DIM &gt; Pages: 1 -->
<svg width="198pt" height="943pt"
 viewBox="0.00 0.00 198.00 943.00" xmlns="http://www.w3.org/2000/svg" xmlns:xlink="http://www.w3.org/1999/xlink">
<g id="graph0" class="graph" transform="scale(1 1) rotate(0) translate(4 939)">
<title>PottsMeshWriter&lt; SPACE_DIM &gt;</title>
<!-- Node1 -->
<g id="Node000001" class="node">
<title>Node1</title>
<g id="a_Node000001"><a xlink:title=" ">
<polygon fill="#999999" stroke="transparent" points="153.5,-180 12.5,-180 12.5,0 153.5,0 153.5,-180"/>
<text text-anchor="start" x="21.5" y="-168" font-family="Helvetica,sans-Serif" font-size="10.00">PottsMeshWriter&lt; SPACE</text>
<text text-anchor="start" x="65" y="-157" font-family="Helvetica,sans-Serif" font-size="10.00">_DIM &gt;</text>
<text text-anchor="start" x="19.5" y="-142" font-family="Helvetica,sans-Serif" font-size="10.00">&#45;</text>
<text text-anchor="start" x="30" y="-142" font-family="Helvetica,sans-Serif" font-size="10.00">mpMesh</text>
<text text-anchor="start" x="19.5" y="-127" font-family="Helvetica,sans-Serif" font-size="10.00">&#45;</text>
<text text-anchor="start" x="30" y="-127" font-family="Helvetica,sans-Serif" font-size="10.00">mpIters</text>
<text text-anchor="start" x="19.5" y="-112" font-family="Helvetica,sans-Serif" font-size="10.00">&#45;</text>
<text text-anchor="start" x="30" y="-112" font-family="Helvetica,sans-Serif" font-size="10.00">mpNodeMap</text>
<text text-anchor="start" x="19.5" y="-97" font-family="Helvetica,sans-Serif" font-size="10.00">&#45;</text>
<text text-anchor="start" x="30" y="-97" font-family="Helvetica,sans-Serif" font-size="10.00">mNodeMapCurrentIndex</text>
<text text-anchor="start" x="17" y="-82" font-family="Helvetica,sans-Serif" font-size="10.00">+</text>
<text text-anchor="start" x="30" y="-82" font-family="Helvetica,sans-Serif" font-size="10.00">PottsMeshWriter()</text>
<text text-anchor="start" x="17" y="-67" font-family="Helvetica,sans-Serif" font-size="10.00">+</text>
<text text-anchor="start" x="30" y="-67" font-family="Helvetica,sans-Serif" font-size="10.00">~PottsMeshWriter()</text>
<text text-anchor="start" x="17" y="-52" font-family="Helvetica,sans-Serif" font-size="10.00">+</text>
<text text-anchor="start" x="30" y="-52" font-family="Helvetica,sans-Serif" font-size="10.00">WriteFilesUsingMesh()</text>
<text text-anchor="start" x="17" y="-37" font-family="Helvetica,sans-Serif" font-size="10.00">+</text>
<text text-anchor="start" x="30" y="-37" font-family="Helvetica,sans-Serif" font-size="10.00">GetNextNode()</text>
<text text-anchor="start" x="17" y="-22" font-family="Helvetica,sans-Serif" font-size="10.00">+</text>
<text text-anchor="start" x="30" y="-22" font-family="Helvetica,sans-Serif" font-size="10.00">GetNextElement()</text>
<text text-anchor="start" x="17" y="-7" font-family="Helvetica,sans-Serif" font-size="10.00">+</text>
<text text-anchor="start" x="30" y="-7" font-family="Helvetica,sans-Serif" font-size="10.00">WriteFiles()</text>
<polygon fill="#666666" stroke="#666666" points="13,-152 13,-152 154,-152 154,-152 13,-152"/>
<polygon fill="#666666" stroke="#666666" points="13,-92 13,-92 28,-92 28,-92 13,-92"/>
<polygon fill="#666666" stroke="#666666" points="28,-92 28,-92 154,-92 154,-92 28,-92"/>
<polygon fill="none" stroke="#666666" points="12.5,0 12.5,-180 153.5,-180 153.5,0 12.5,0"/>
</a>
</g>
</g>
<!-- Node2 -->
<g id="Node000002" class="node">
<title>Node2</title>
<g id="a_Node000002"><a xlink:href="classAbstractMeshWriter.html" target="_top" xlink:title=" ">
<polygon fill="white" stroke="transparent" points="166,-547 0,-547 0,-217 166,-217 166,-547"/>
<text text-anchor="start" x="13" y="-535" font-family="Helvetica,sans-Serif" font-size="10.00">AbstractMeshWriter</text>
<text text-anchor="start" x="13" y="-524" font-family="Helvetica,sans-Serif" font-size="10.00">&lt; SPACE_DIM, SPACE_DIM &gt;</text>
<text text-anchor="start" x="4" y="-509" font-family="Helvetica,sans-Serif" font-size="10.00">#</text>
<text text-anchor="start" x="17" y="-509" font-family="Helvetica,sans-Serif" font-size="10.00">mpOutputFileHandler</text>
<text text-anchor="start" x="4" y="-494" font-family="Helvetica,sans-Serif" font-size="10.00">#</text>
<text text-anchor="start" x="17" y="-494" font-family="Helvetica,sans-Serif" font-size="10.00">mBaseName</text>
<text text-anchor="start" x="4" y="-479" font-family="Helvetica,sans-Serif" font-size="10.00">#</text>
<text text-anchor="start" x="17" y="-479" font-family="Helvetica,sans-Serif" font-size="10.00">mpMeshReader</text>
<text text-anchor="start" x="4" y="-464" font-family="Helvetica,sans-Serif" font-size="10.00">#</text>
<text text-anchor="start" x="17" y="-464" font-family="Helvetica,sans-Serif" font-size="10.00">mNumNodes</text>
<text text-anchor="start" x="4" y="-449" font-family="Helvetica,sans-Serif" font-size="10.00">#</text>
<text text-anchor="start" x="17" y="-449" font-family="Helvetica,sans-Serif" font-size="10.00">mNumElements</text>
<text text-anchor="start" x="4" y="-434" font-family="Helvetica,sans-Serif" font-size="10.00">#</text>
<text text-anchor="start" x="17" y="-434" font-family="Helvetica,sans-Serif" font-size="10.00">mNumBoundaryElements</text>
<text text-anchor="start" x="4" y="-419" font-family="Helvetica,sans-Serif" font-size="10.00">#</text>
<text text-anchor="start" x="17" y="-419" font-family="Helvetica,sans-Serif" font-size="10.00">mNumCableElements</text>
<text text-anchor="start" x="4" y="-404" font-family="Helvetica,sans-Serif" font-size="10.00">+</text>
<text text-anchor="start" x="17" y="-404" font-family="Helvetica,sans-Serif" font-size="10.00">AbstractMeshWriter()</text>
<text text-anchor="start" x="4" y="-389" font-family="Helvetica,sans-Serif" font-size="10.00">+</text>
<text text-anchor="start" x="17" y="-389" font-family="Helvetica,sans-Serif" font-size="10.00">~AbstractMeshWriter()</text>
<text text-anchor="start" x="4" y="-374" font-family="Helvetica,sans-Serif" font-size="10.00">+</text>
<text text-anchor="start" x="17" y="-374" font-family="Helvetica,sans-Serif" font-size="10.00">GetOutputDirectory()</text>
<text text-anchor="start" x="4" y="-359" font-family="Helvetica,sans-Serif" font-size="10.00">+</text>
<text text-anchor="start" x="17" y="-359" font-family="Helvetica,sans-Serif" font-size="10.00">GetNumNodes()</text>
<text text-anchor="start" x="4" y="-344" font-family="Helvetica,sans-Serif" font-size="10.00">+</text>
<text text-anchor="start" x="17" y="-344" font-family="Helvetica,sans-Serif" font-size="10.00">GetNumElements()</text>
<text text-anchor="start" x="4" y="-329" font-family="Helvetica,sans-Serif" font-size="10.00">+</text>
<text text-anchor="start" x="17" y="-329" font-family="Helvetica,sans-Serif" font-size="10.00">GetNumBoundaryFaces()</text>
<text text-anchor="start" x="4" y="-314" font-family="Helvetica,sans-Serif" font-size="10.00">+</text>
<text text-anchor="start" x="17" y="-314" font-family="Helvetica,sans-Serif" font-size="10.00">GetNumCableElements()</text>
<text text-anchor="start" x="4" y="-299" font-family="Helvetica,sans-Serif" font-size="10.00">+</text>
<text text-anchor="start" x="17" y="-299" font-family="Helvetica,sans-Serif" font-size="10.00">GetNextNode()</text>
<text text-anchor="start" x="4" y="-284" font-family="Helvetica,sans-Serif" font-size="10.00">+</text>
<text text-anchor="start" x="17" y="-284" font-family="Helvetica,sans-Serif" font-size="10.00">GetNextElement()</text>
<text text-anchor="start" x="4" y="-269" font-family="Helvetica,sans-Serif" font-size="10.00">+</text>
<text text-anchor="start" x="17" y="-269" font-family="Helvetica,sans-Serif" font-size="10.00">GetNextBoundaryElement()</text>
<text text-anchor="start" x="4" y="-254" font-family="Helvetica,sans-Serif" font-size="10.00">+</text>
<text text-anchor="start" x="17" y="-254" font-family="Helvetica,sans-Serif" font-size="10.00">GetNextCableElement()</text>
<text text-anchor="start" x="4" y="-239" font-family="Helvetica,sans-Serif" font-size="10.00">+</text>
<text text-anchor="start" x="17" y="-239" font-family="Helvetica,sans-Serif" font-size="10.00">WriteFiles()</text>
<text text-anchor="start" x="4" y="-224" font-family="Helvetica,sans-Serif" font-size="10.00">+</text>
<text text-anchor="start" x="17" y="-224" font-family="Helvetica,sans-Serif" font-size="10.00">WriteFilesUsingMeshReader()</text>
<polygon fill="#666666" stroke="#666666" points="0,-519 0,-519 166,-519 166,-519 0,-519"/>
<polygon fill="#666666" stroke="#666666" points="0,-414 0,-414 15,-414 15,-414 0,-414"/>
<polygon fill="#666666" stroke="#666666" points="15,-414 15,-414 166,-414 166,-414 15,-414"/>
<polygon fill="none" stroke="#666666" points="0,-217 0,-547 166,-547 166,-217 0,-217"/>
</a>
</g>
</g>
<!-- Node2&#45;&gt;Node1 -->
<g id="edge1_Node000001_Node000002" class="edge">
<title>Node2&#45;&gt;Node1</title>
<g id="a_edge1_Node000001_Node000002"><a xlink:title=" ">
<path fill="none" stroke="#63b8ff" d="M83,-206.68C83,-197.65 83,-188.79 83,-180.22"/>
<polygon fill="none" stroke="#63b8ff" points="79.5,-206.93 83,-216.93 86.5,-206.93 79.5,-206.93"/>
</a>
</g>
</g>
<!-- Node3 -->
<g id="Node000003" class="node">
<title>Node3</title>
<g id="a_Node000003"><a xlink:href="classAbstractMeshWriter.html" target="_top" xlink:title=" ">
<polygon fill="white" stroke="transparent" points="166,-935 0,-935 0,-605 166,-605 166,-935"/>
<text text-anchor="start" x="5.5" y="-923" font-family="Helvetica,sans-Serif" font-size="10.00">AbstractMeshWriter</text>
<text text-anchor="start" x="5.5" y="-912" font-family="Helvetica,sans-Serif" font-size="10.00">&lt; ELEMENT_DIM, SPACE_DIM &gt;</text>
<text text-anchor="start" x="4" y="-897" font-family="Helvetica,sans-Serif" font-size="10.00">#</text>
<text text-anchor="start" x="17" y="-897" font-family="Helvetica,sans-Serif" font-size="10.00">mpOutputFileHandler</text>
<text text-anchor="start" x="4" y="-882" font-family="Helvetica,sans-Serif" font-size="10.00">#</text>
<text text-anchor="start" x="17" y="-882" font-family="Helvetica,sans-Serif" font-size="10.00">mBaseName</text>
<text text-anchor="start" x="4" y="-867" font-family="Helvetica,sans-Serif" font-size="10.00">#</text>
<text text-anchor="start" x="17" y="-867" font-family="Helvetica,sans-Serif" font-size="10.00">mpMeshReader</text>
<text text-anchor="start" x="4" y="-852" font-family="Helvetica,sans-Serif" font-size="10.00">#</text>
<text text-anchor="start" x="17" y="-852" font-family="Helvetica,sans-Serif" font-size="10.00">mNumNodes</text>
<text text-anchor="start" x="4" y="-837" font-family="Helvetica,sans-Serif" font-size="10.00">#</text>
<text text-anchor="start" x="17" y="-837" font-family="Helvetica,sans-Serif" font-size="10.00">mNumElements</text>
<text text-anchor="start" x="4" y="-822" font-family="Helvetica,sans-Serif" font-size="10.00">#</text>
<text text-anchor="start" x="17" y="-822" font-family="Helvetica,sans-Serif" font-size="10.00">mNumBoundaryElements</text>
<text text-anchor="start" x="4" y="-807" font-family="Helvetica,sans-Serif" font-size="10.00">#</text>
<text text-anchor="start" x="17" y="-807" font-family="Helvetica,sans-Serif" font-size="10.00">mNumCableElements</text>
<text text-anchor="start" x="4" y="-792" font-family="Helvetica,sans-Serif" font-size="10.00">+</text>
<text text-anchor="start" x="17" y="-792" font-family="Helvetica,sans-Serif" font-size="10.00">AbstractMeshWriter()</text>
<text text-anchor="start" x="4" y="-777" font-family="Helvetica,sans-Serif" font-size="10.00">+</text>
<text text-anchor="start" x="17" y="-777" font-family="Helvetica,sans-Serif" font-size="10.00">~AbstractMeshWriter()</text>
<text text-anchor="start" x="4" y="-762" font-family="Helvetica,sans-Serif" font-size="10.00">+</text>
<text text-anchor="start" x="17" y="-762" font-family="Helvetica,sans-Serif" font-size="10.00">GetOutputDirectory()</text>
<text text-anchor="start" x="4" y="-747" font-family="Helvetica,sans-Serif" font-size="10.00">+</text>
<text text-anchor="start" x="17" y="-747" font-family="Helvetica,sans-Serif" font-size="10.00">GetNumNodes()</text>
<text text-anchor="start" x="4" y="-732" font-family="Helvetica,sans-Serif" font-size="10.00">+</text>
<text text-anchor="start" x="17" y="-732" font-family="Helvetica,sans-Serif" font-size="10.00">GetNumElements()</text>
<text text-anchor="start" x="4" y="-717" font-family="Helvetica,sans-Serif" font-size="10.00">+</text>
<text text-anchor="start" x="17" y="-717" font-family="Helvetica,sans-Serif" font-size="10.00">GetNumBoundaryFaces()</text>
<text text-anchor="start" x="4" y="-702" font-family="Helvetica,sans-Serif" font-size="10.00">+</text>
<text text-anchor="start" x="17" y="-702" font-family="Helvetica,sans-Serif" font-size="10.00">GetNumCableElements()</text>
<text text-anchor="start" x="4" y="-687" font-family="Helvetica,sans-Serif" font-size="10.00">+</text>
<text text-anchor="start" x="17" y="-687" font-family="Helvetica,sans-Serif" font-size="10.00">GetNextNode()</text>
<text text-anchor="start" x="4" y="-672" font-family="Helvetica,sans-Serif" font-size="10.00">+</text>
<text text-anchor="start" x="17" y="-672" font-family="Helvetica,sans-Serif" font-size="10.00">GetNextElement()</text>
<text text-anchor="start" x="4" y="-657" font-family="Helvetica,sans-Serif" font-size="10.00">+</text>
<text text-anchor="start" x="17" y="-657" font-family="Helvetica,sans-Serif" font-size="10.00">GetNextBoundaryElement()</text>
<text text-anchor="start" x="4" y="-642" font-family="Helvetica,sans-Serif" font-size="10.00">+</text>
<text text-anchor="start" x="17" y="-642" font-family="Helvetica,sans-Serif" font-size="10.00">GetNextCableElement()</text>
<text text-anchor="start" x="4" y="-627" font-family="Helvetica,sans-Serif" font-size="10.00">+</text>
<text text-anchor="start" x="17" y="-627" font-family="Helvetica,sans-Serif" font-size="10.00">WriteFiles()</text>
<text text-anchor="start" x="4" y="-612" font-family="Helvetica,sans-Serif" font-size="10.00">+</text>
<text text-anchor="start" x="17" y="-612" font-family="Helvetica,sans-Serif" font-size="10.00">WriteFilesUsingMeshReader()</text>
<polygon fill="#666666" stroke="#666666" points="0,-907 0,-907 166,-907 166,-907 0,-907"/>
<polygon fill="#666666" stroke="#666666" points="0,-802 0,-802 15,-802 15,-802 0,-802"/>
<polygon fill="#666666" stroke="#666666" points="15,-802 15,-802 166,-802 166,-802 15,-802"/>
<polygon fill="none" stroke="#666666" points="0,-605 0,-935 166,-935 166,-605 0,-605"/>
</a>
</g>
</g>
<!-- Node3&#45;&gt;Node2 -->
<g id="edge2_Node000002_Node000003" class="edge">
<title>Node3&#45;&gt;Node2</title>
<g id="a_edge2_Node000002_Node000003"><a xlink:title=" ">
<path fill="none" stroke="orange" d="M83,-594.42C83,-578.68 83,-562.76 83,-547.11"/>
<polygon fill="orange" stroke="orange" points="79.5,-594.74 83,-604.74 86.5,-594.74 79.5,-594.74"/>
</a>
</g>
<text text-anchor="start" x="83" y="-579" font-family="Helvetica,sans-Serif" font-size="10.00" fill="grey"> &lt; SPACE_DIM, SPACE</text>
<text text-anchor="middle" x="136.5" y="-568" font-family="Helvetica,sans-Serif" font-size="10.00" fill="grey">_DIM &gt;</text>
</g>
</g>
</svg>
