<?xml version="1.0" encoding="UTF-8" standalone="no"?>
<!DOCTYPE svg PUBLIC "-//W3C//DTD SVG 1.1//EN"
 "http://www.w3.org/Graphics/SVG/1.1/DTD/svg11.dtd">
<!-- Generated by graphviz version 2.43.0 (0)
 -->
<!-- Title: CellwiseSourceEllipticPde&lt; DIM &gt; Pages: 1 -->
<svg width="290pt" height="998pt"
 viewBox="0.00 0.00 290.00 998.00" xmlns="http://www.w3.org/2000/svg" xmlns:xlink="http://www.w3.org/1999/xlink">
<g id="graph0" class="graph" transform="scale(1 1) rotate(0) translate(4 994)">
<title>CellwiseSourceEllipticPde&lt; DIM &gt;</title>
<!-- Node1 -->
<g id="Node000001" class="node">
<title>Node1</title>
<g id="a_Node000001"><a xlink:title=" ">
<polygon fill="#999999" stroke="transparent" points="180,-213 0,-213 0,0 180,0 180,-213"/>
<text text-anchor="start" x="27" y="-200.5" font-family="Helvetica,sans-Serif" font-size="10.00">CellwiseSourceEllipticPde</text>
<text text-anchor="start" x="68.5" y="-189.5" font-family="Helvetica,sans-Serif" font-size="10.00">&lt; DIM &gt;</text>
<text text-anchor="start" x="4" y="-174.5" font-family="Helvetica,sans-Serif" font-size="10.00">#</text>
<text text-anchor="start" x="17" y="-174.5" font-family="Helvetica,sans-Serif" font-size="10.00">mrCellPopulation</text>
<text text-anchor="start" x="4" y="-159.5" font-family="Helvetica,sans-Serif" font-size="10.00">#</text>
<text text-anchor="start" x="17" y="-159.5" font-family="Helvetica,sans-Serif" font-size="10.00">mSourceCoefficient</text>
<text text-anchor="start" x="4" y="-144.5" font-family="Helvetica,sans-Serif" font-size="10.00">+</text>
<text text-anchor="start" x="17" y="-144.5" font-family="Helvetica,sans-Serif" font-size="10.00">CellwiseSourceEllipticPde()</text>
<text text-anchor="start" x="4" y="-129.5" font-family="Helvetica,sans-Serif" font-size="10.00">+</text>
<text text-anchor="start" x="17" y="-129.5" font-family="Helvetica,sans-Serif" font-size="10.00">rGetCellPopulation()</text>
<text text-anchor="start" x="4" y="-114.5" font-family="Helvetica,sans-Serif" font-size="10.00">+</text>
<text text-anchor="start" x="17" y="-114.5" font-family="Helvetica,sans-Serif" font-size="10.00">GetCoefficient()</text>
<text text-anchor="start" x="4" y="-99.5" font-family="Helvetica,sans-Serif" font-size="10.00">+</text>
<text text-anchor="start" x="17" y="-99.5" font-family="Helvetica,sans-Serif" font-size="10.00">ComputeConstantInUSource</text>
<text text-anchor="start" x="17" y="-88.5" font-family="Helvetica,sans-Serif" font-size="10.00">Term()</text>
<text text-anchor="start" x="4" y="-73.5" font-family="Helvetica,sans-Serif" font-size="10.00">+</text>
<text text-anchor="start" x="17" y="-73.5" font-family="Helvetica,sans-Serif" font-size="10.00">ComputeLinearInUCoeffInSource</text>
<text text-anchor="start" x="17" y="-62.5" font-family="Helvetica,sans-Serif" font-size="10.00">Term()</text>
<text text-anchor="start" x="4" y="-47.5" font-family="Helvetica,sans-Serif" font-size="10.00">+</text>
<text text-anchor="start" x="17" y="-47.5" font-family="Helvetica,sans-Serif" font-size="10.00">ComputeLinearInUCoeffInSource</text>
<text text-anchor="start" x="17" y="-36.5" font-family="Helvetica,sans-Serif" font-size="10.00">TermAtNode()</text>
<text text-anchor="start" x="4" y="-21.5" font-family="Helvetica,sans-Serif" font-size="10.00">+</text>
<text text-anchor="start" x="17" y="-21.5" font-family="Helvetica,sans-Serif" font-size="10.00">ComputeDiffusionTerm()</text>
<text text-anchor="start" x="6.5" y="-6.5" font-family="Helvetica,sans-Serif" font-size="10.00">&#45;</text>
<text text-anchor="start" x="17" y="-6.5" font-family="Helvetica,sans-Serif" font-size="10.00">serialize()</text>
<polygon fill="#666666" stroke="#666666" points="0,-184.5 0,-184.5 180,-184.5 180,-184.5 0,-184.5"/>
<polygon fill="#666666" stroke="#666666" points="0,-154.5 0,-154.5 15,-154.5 15,-154.5 0,-154.5"/>
<polygon fill="#666666" stroke="#666666" points="15,-154.5 15,-154.5 180,-154.5 180,-154.5 15,-154.5"/>
<polygon fill="none" stroke="#666666" points="0,0 0,-213 180,-213 180,0 0,0"/>
</a>
</g>
</g>
<!-- Node2 -->
<g id="Node000002" class="node">
<title>Node2</title>
<g id="a_Node000002"><a xlink:href="classAbstractLinearEllipticPde.html" target="_top" xlink:title=" ">
<polygon fill="white" stroke="transparent" points="180,-459 0,-459 0,-250 180,-250 180,-459"/>
<text text-anchor="start" x="29" y="-446.5" font-family="Helvetica,sans-Serif" font-size="10.00">AbstractLinearEllipticPde</text>
<text text-anchor="start" x="56" y="-435.5" font-family="Helvetica,sans-Serif" font-size="10.00">&lt; DIM, DIM &gt;</text>
<text text-anchor="start" x="88" y="-420.5" font-family="Helvetica,sans-Serif" font-size="10.00"> </text>
<text text-anchor="start" x="4" y="-405.5" font-family="Helvetica,sans-Serif" font-size="10.00">+</text>
<text text-anchor="start" x="17" y="-405.5" font-family="Helvetica,sans-Serif" font-size="10.00">AbstractLinearEllipticPde()</text>
<text text-anchor="start" x="4" y="-390.5" font-family="Helvetica,sans-Serif" font-size="10.00">+</text>
<text text-anchor="start" x="17" y="-390.5" font-family="Helvetica,sans-Serif" font-size="10.00">~AbstractLinearEllipticPde()</text>
<text text-anchor="start" x="4" y="-375.5" font-family="Helvetica,sans-Serif" font-size="10.00">+</text>
<text text-anchor="start" x="17" y="-375.5" font-family="Helvetica,sans-Serif" font-size="10.00">ComputeConstantInUSource</text>
<text text-anchor="start" x="17" y="-364.5" font-family="Helvetica,sans-Serif" font-size="10.00">Term()</text>
<text text-anchor="start" x="4" y="-349.5" font-family="Helvetica,sans-Serif" font-size="10.00">+</text>
<text text-anchor="start" x="17" y="-349.5" font-family="Helvetica,sans-Serif" font-size="10.00">ComputeLinearInUCoeffInSource</text>
<text text-anchor="start" x="17" y="-338.5" font-family="Helvetica,sans-Serif" font-size="10.00">Term()</text>
<text text-anchor="start" x="4" y="-323.5" font-family="Helvetica,sans-Serif" font-size="10.00">+</text>
<text text-anchor="start" x="17" y="-323.5" font-family="Helvetica,sans-Serif" font-size="10.00">ComputeDiffusionTerm()</text>
<text text-anchor="start" x="4" y="-308.5" font-family="Helvetica,sans-Serif" font-size="10.00">+</text>
<text text-anchor="start" x="17" y="-308.5" font-family="Helvetica,sans-Serif" font-size="10.00">ComputeConstantInUSource</text>
<text text-anchor="start" x="17" y="-297.5" font-family="Helvetica,sans-Serif" font-size="10.00">TermAtNode()</text>
<text text-anchor="start" x="4" y="-282.5" font-family="Helvetica,sans-Serif" font-size="10.00">+</text>
<text text-anchor="start" x="17" y="-282.5" font-family="Helvetica,sans-Serif" font-size="10.00">ComputeLinearInUCoeffInSource</text>
<text text-anchor="start" x="17" y="-271.5" font-family="Helvetica,sans-Serif" font-size="10.00">TermAtNode()</text>
<text text-anchor="start" x="6.5" y="-256.5" font-family="Helvetica,sans-Serif" font-size="10.00">&#45;</text>
<text text-anchor="start" x="17" y="-256.5" font-family="Helvetica,sans-Serif" font-size="10.00">serialize()</text>
<polygon fill="#666666" stroke="#666666" points="0,-430.5 0,-430.5 180,-430.5 180,-430.5 0,-430.5"/>
<polygon fill="#666666" stroke="#666666" points="0,-415.5 0,-415.5 180,-415.5 180,-415.5 0,-415.5"/>
<polygon fill="none" stroke="#666666" points="0,-250 0,-459 180,-459 180,-250 0,-250"/>
</a>
</g>
</g>
<!-- Node2&#45;&gt;Node1 -->
<g id="edge1_Node000001_Node000002" class="edge">
<title>Node2&#45;&gt;Node1</title>
<g id="a_edge1_Node000001_Node000002"><a xlink:title=" ">
<path fill="none" stroke="#63b8ff" d="M90,-239.64C90,-230.89 90,-222.06 90,-213.36"/>
<polygon fill="none" stroke="#63b8ff" points="86.5,-239.89 90,-249.89 93.5,-239.89 86.5,-239.89"/>
</a>
</g>
</g>
<!-- Node3 -->
<g id="Node000003" class="node">
<title>Node3</title>
<g id="a_Node000003"><a xlink:href="classAbstractLinearPde.html" target="_top" xlink:title=" ">
<polygon fill="white" stroke="transparent" points="164.5,-842 7.5,-842 7.5,-752 164.5,-752 164.5,-842"/>
<text text-anchor="start" x="13" y="-830" font-family="Helvetica,sans-Serif" font-size="10.00">AbstractLinearPde&lt;</text>
<text text-anchor="start" x="13" y="-819" font-family="Helvetica,sans-Serif" font-size="10.00"> ELEMENT_DIM, SPACE_DIM &gt;</text>
<text text-anchor="start" x="84.5" y="-804" font-family="Helvetica,sans-Serif" font-size="10.00"> </text>
<text text-anchor="start" x="19.5" y="-789" font-family="Helvetica,sans-Serif" font-size="10.00">+</text>
<text text-anchor="start" x="40" y="-789" font-family="Helvetica,sans-Serif" font-size="10.00">AbstractLinearPde()</text>
<text text-anchor="start" x="19.5" y="-774" font-family="Helvetica,sans-Serif" font-size="10.00">+</text>
<text text-anchor="start" x="40" y="-774" font-family="Helvetica,sans-Serif" font-size="10.00">~AbstractLinearPde()</text>
<text text-anchor="start" x="22" y="-759" font-family="Helvetica,sans-Serif" font-size="10.00">&#45;</text>
<text text-anchor="start" x="40" y="-759" font-family="Helvetica,sans-Serif" font-size="10.00">serialize()</text>
<polygon fill="#666666" stroke="#666666" points="8,-814 8,-814 165,-814 165,-814 8,-814"/>
<polygon fill="#666666" stroke="#666666" points="8,-799 8,-799 165,-799 165,-799 8,-799"/>
<polygon fill="none" stroke="#666666" points="7.5,-752 7.5,-842 164.5,-842 164.5,-752 7.5,-752"/>
</a>
</g>
</g>
<!-- Node3&#45;&gt;Node2 -->
<g id="edge2_Node000002_Node000003" class="edge">
<title>Node3&#45;&gt;Node2</title>
<g id="a_edge2_Node000002_Node000003"><a xlink:title=" ">
<path fill="none" stroke="#63b8ff" d="M86.5,-741.36C87.13,-671.13 88.25,-547.74 89.06,-459.39"/>
<polygon fill="none" stroke="#63b8ff" points="82.99,-741.71 86.4,-751.75 89.99,-741.78 82.99,-741.71"/>
</a>
</g>
</g>
<!-- Node5 -->
<g id="Node000005" class="node">
<title>Node5</title>
<g id="a_Node000005"><a xlink:href="classAbstractLinearEllipticPde.html" target="_top" xlink:title=" ">
<polygon fill="white" stroke="transparent" points="282,-715 102,-715 102,-506 282,-506 282,-715"/>
<text text-anchor="start" x="114.5" y="-702.5" font-family="Helvetica,sans-Serif" font-size="10.00">AbstractLinearEllipticPde</text>
<text text-anchor="start" x="114.5" y="-691.5" font-family="Helvetica,sans-Serif" font-size="10.00">&lt; ELEMENT_DIM, SPACE_DIM &gt;</text>
<text text-anchor="start" x="190" y="-676.5" font-family="Helvetica,sans-Serif" font-size="10.00"> </text>
<text text-anchor="start" x="106" y="-661.5" font-family="Helvetica,sans-Serif" font-size="10.00">+</text>
<text text-anchor="start" x="119" y="-661.5" font-family="Helvetica,sans-Serif" font-size="10.00">AbstractLinearEllipticPde()</text>
<text text-anchor="start" x="106" y="-646.5" font-family="Helvetica,sans-Serif" font-size="10.00">+</text>
<text text-anchor="start" x="119" y="-646.5" font-family="Helvetica,sans-Serif" font-size="10.00">~AbstractLinearEllipticPde()</text>
<text text-anchor="start" x="106" y="-631.5" font-family="Helvetica,sans-Serif" font-size="10.00">+</text>
<text text-anchor="start" x="119" y="-631.5" font-family="Helvetica,sans-Serif" font-size="10.00">ComputeConstantInUSource</text>
<text text-anchor="start" x="119" y="-620.5" font-family="Helvetica,sans-Serif" font-size="10.00">Term()</text>
<text text-anchor="start" x="106" y="-605.5" font-family="Helvetica,sans-Serif" font-size="10.00">+</text>
<text text-anchor="start" x="119" y="-605.5" font-family="Helvetica,sans-Serif" font-size="10.00">ComputeLinearInUCoeffInSource</text>
<text text-anchor="start" x="119" y="-594.5" font-family="Helvetica,sans-Serif" font-size="10.00">Term()</text>
<text text-anchor="start" x="106" y="-579.5" font-family="Helvetica,sans-Serif" font-size="10.00">+</text>
<text text-anchor="start" x="119" y="-579.5" font-family="Helvetica,sans-Serif" font-size="10.00">ComputeDiffusionTerm()</text>
<text text-anchor="start" x="106" y="-564.5" font-family="Helvetica,sans-Serif" font-size="10.00">+</text>
<text text-anchor="start" x="119" y="-564.5" font-family="Helvetica,sans-Serif" font-size="10.00">ComputeConstantInUSource</text>
<text text-anchor="start" x="119" y="-553.5" font-family="Helvetica,sans-Serif" font-size="10.00">TermAtNode()</text>
<text text-anchor="start" x="106" y="-538.5" font-family="Helvetica,sans-Serif" font-size="10.00">+</text>
<text text-anchor="start" x="119" y="-538.5" font-family="Helvetica,sans-Serif" font-size="10.00">ComputeLinearInUCoeffInSource</text>
<text text-anchor="start" x="119" y="-527.5" font-family="Helvetica,sans-Serif" font-size="10.00">TermAtNode()</text>
<text text-anchor="start" x="108.5" y="-512.5" font-family="Helvetica,sans-Serif" font-size="10.00">&#45;</text>
<text text-anchor="start" x="119" y="-512.5" font-family="Helvetica,sans-Serif" font-size="10.00">serialize()</text>
<polygon fill="#666666" stroke="#666666" points="102,-686.5 102,-686.5 282,-686.5 282,-686.5 102,-686.5"/>
<polygon fill="#666666" stroke="#666666" points="102,-671.5 102,-671.5 282,-671.5 282,-671.5 102,-671.5"/>
<polygon fill="none" stroke="#666666" points="102,-506 102,-715 282,-715 282,-506 102,-506"/>
</a>
</g>
</g>
<!-- Node3&#45;&gt;Node5 -->
<g id="edge5_Node000005_Node000003" class="edge">
<title>Node3&#45;&gt;Node5</title>
<g id="a_edge5_Node000005_Node000003"><a xlink:title=" ">
<path fill="none" stroke="#63b8ff" d="M116.5,-742.91C121.54,-734.15 126.9,-724.81 132.36,-715.31"/>
<polygon fill="none" stroke="#63b8ff" points="113.34,-741.39 111.39,-751.81 119.41,-744.88 113.34,-741.39"/>
</a>
</g>
</g>
<!-- Node4 -->
<g id="Node000004" class="node">
<title>Node4</title>
<g id="a_Node000004"><a xlink:href="classAbstractLinearPde.html" target="_top" xlink:title=" ">
<polygon fill="white" stroke="transparent" points="164.5,-990 7.5,-990 7.5,-900 164.5,-900 164.5,-990"/>
<text text-anchor="start" x="13" y="-978" font-family="Helvetica,sans-Serif" font-size="10.00">AbstractLinearPde&lt;</text>
<text text-anchor="start" x="13" y="-967" font-family="Helvetica,sans-Serif" font-size="10.00"> ELEMENT_DIM, SPACE_DIM &gt;</text>
<text text-anchor="start" x="84.5" y="-952" font-family="Helvetica,sans-Serif" font-size="10.00"> </text>
<text text-anchor="start" x="19.5" y="-937" font-family="Helvetica,sans-Serif" font-size="10.00">+</text>
<text text-anchor="start" x="40" y="-937" font-family="Helvetica,sans-Serif" font-size="10.00">AbstractLinearPde()</text>
<text text-anchor="start" x="19.5" y="-922" font-family="Helvetica,sans-Serif" font-size="10.00">+</text>
<text text-anchor="start" x="40" y="-922" font-family="Helvetica,sans-Serif" font-size="10.00">~AbstractLinearPde()</text>
<text text-anchor="start" x="22" y="-907" font-family="Helvetica,sans-Serif" font-size="10.00">&#45;</text>
<text text-anchor="start" x="40" y="-907" font-family="Helvetica,sans-Serif" font-size="10.00">serialize()</text>
<polygon fill="#666666" stroke="#666666" points="8,-962 8,-962 165,-962 165,-962 8,-962"/>
<polygon fill="#666666" stroke="#666666" points="8,-947 8,-947 165,-947 165,-947 8,-947"/>
<polygon fill="none" stroke="#666666" points="7.5,-900 7.5,-990 164.5,-990 164.5,-900 7.5,-900"/>
</a>
</g>
</g>
<!-- Node4&#45;&gt;Node3 -->
<g id="edge3_Node000003_Node000004" class="edge">
<title>Node4&#45;&gt;Node3</title>
<g id="a_edge3_Node000003_Node000004"><a xlink:title=" ">
<path fill="none" stroke="orange" d="M86,-889.69C86,-873.99 86,-857.05 86,-842.05"/>
<polygon fill="orange" stroke="orange" points="82.5,-889.8 86,-899.8 89.5,-889.8 82.5,-889.8"/>
</a>
</g>
<text text-anchor="start" x="86" y="-874" font-family="Helvetica,sans-Serif" font-size="10.00" fill="grey"> &lt; ELEMENT_DIM, SPACE</text>
<text text-anchor="middle" x="147" y="-863" font-family="Helvetica,sans-Serif" font-size="10.00" fill="grey">_DIM &gt;</text>
</g>
<!-- Node5&#45;&gt;Node2 -->
<g id="edge4_Node000002_Node000005" class="edge">
<title>Node5&#45;&gt;Node2</title>
<g id="a_edge4_Node000002_Node000005"><a xlink:title=" ">
<path fill="none" stroke="orange" d="M146.59,-496.41C141.62,-484.04 136.58,-471.5 131.67,-459.26"/>
<polygon fill="orange" stroke="orange" points="143.39,-497.85 150.37,-505.82 149.89,-495.24 143.39,-497.85"/>
</a>
</g>
<text text-anchor="middle" x="176.5" y="-480" font-family="Helvetica,sans-Serif" font-size="10.00" fill="grey"> &lt; DIM, DIM &gt;</text>
</g>
</g>
</svg>
