<?xml version="1.0" encoding="UTF-8" standalone="no"?>
<!DOCTYPE svg PUBLIC "-//W3C//DTD SVG 1.1//EN"
 "http://www.w3.org/Graphics/SVG/1.1/DTD/svg11.dtd">
<!-- Generated by graphviz version 2.43.0 (0)
 -->
<!-- Title: PetscSetup Pages: 1 -->
<svg width="128pt" height="187pt"
 viewBox="0.00 0.00 128.00 187.00" xmlns="http://www.w3.org/2000/svg" xmlns:xlink="http://www.w3.org/1999/xlink">
<g id="graph0" class="graph" transform="scale(1 1) rotate(0) translate(4 183)">
<title>PetscSetup</title>
<!-- Node1 -->
<g id="Node000001" class="node">
<title>Node1</title>
<g id="a_Node000001"><a xlink:title=" ">
<polygon fill="#999999" stroke="transparent" points="112,-94 8,-94 8,0 112,0 112,-94"/>
<text text-anchor="start" x="32.5" y="-82" font-family="Helvetica,sans-Serif" font-size="10.00">PetscSetup</text>
<text text-anchor="start" x="58" y="-67" font-family="Helvetica,sans-Serif" font-size="10.00"> </text>
<text text-anchor="start" x="12" y="-52" font-family="Helvetica,sans-Serif" font-size="10.00">+</text>
<text text-anchor="start" x="25" y="-52" font-family="Helvetica,sans-Serif" font-size="10.00">setUpWorld()</text>
<text text-anchor="start" x="12" y="-37" font-family="Helvetica,sans-Serif" font-size="10.00">+</text>
<text text-anchor="start" x="25" y="-37" font-family="Helvetica,sans-Serif" font-size="10.00">tearDownWorld()</text>
<text text-anchor="start" x="12" y="-22" font-family="Helvetica,sans-Serif" font-size="10.00">+</text>
<text text-anchor="start" x="25" y="-22" font-family="Helvetica,sans-Serif" font-size="10.00">setUpWorld()</text>
<text text-anchor="start" x="12" y="-7" font-family="Helvetica,sans-Serif" font-size="10.00">+</text>
<text text-anchor="start" x="25" y="-7" font-family="Helvetica,sans-Serif" font-size="10.00">tearDownWorld()</text>
<polygon fill="#666666" stroke="#666666" points="8,-77 8,-77 112,-77 112,-77 8,-77"/>
<polygon fill="#666666" stroke="#666666" points="8,-62 8,-62 112,-62 112,-62 8,-62"/>
<polygon fill="none" stroke="#666666" points="8,0 8,-94 112,-94 112,0 8,0"/>
</a>
</g>
</g>
<!-- Node2 -->
<g id="Node000002" class="node">
<title>Node2</title>
<g id="a_Node000002"><a xlink:title=" ">
<polygon fill="white" stroke="transparent" points="120,-179 0,-179 0,-130 120,-130 120,-179"/>
<text text-anchor="start" x="5" y="-166.5" font-family="Helvetica,sans-Serif" font-size="10.00">CxxTest::GlobalFixture</text>
<text text-anchor="start" x="58" y="-151.5" font-family="Helvetica,sans-Serif" font-size="10.00"> </text>
<text text-anchor="start" x="58" y="-136.5" font-family="Helvetica,sans-Serif" font-size="10.00"> </text>
<polygon fill="#bfbfbf" stroke="#bfbfbf" points="0,-161.5 0,-161.5 120,-161.5 120,-161.5 0,-161.5"/>
<polygon fill="#bfbfbf" stroke="#bfbfbf" points="0,-146.5 0,-146.5 120,-146.5 120,-146.5 0,-146.5"/>
<polygon fill="none" stroke="#bfbfbf" points="0,-130 0,-179 120,-179 120,-130 0,-130"/>
</a>
</g>
</g>
<!-- Node2&#45;&gt;Node1 -->
<g id="edge1_Node000001_Node000002" class="edge">
<title>Node2&#45;&gt;Node1</title>
<g id="a_edge1_Node000001_Node000002"><a xlink:title=" ">
<path fill="none" stroke="#63b8ff" d="M53.65,-119.61C53.29,-111.48 53.17,-102.66 53.3,-94.08"/>
<polygon fill="none" stroke="#63b8ff" points="50.17,-120.05 54.26,-129.82 57.16,-119.63 50.17,-120.05"/>
</a>
</g>
</g>
<!-- Node2&#45;&gt;Node1 -->
<g id="edge2_Node000001_Node000002" class="edge">
<title>Node2&#45;&gt;Node1</title>
<g id="a_edge2_Node000001_Node000002"><a xlink:title=" ">
<path fill="none" stroke="#63b8ff" d="M66.35,-119.61C66.71,-111.48 66.83,-102.66 66.7,-94.08"/>
<polygon fill="none" stroke="#63b8ff" points="62.84,-119.63 65.74,-129.82 69.83,-120.05 62.84,-119.63"/>
</a>
</g>
</g>
</g>
</svg>
