<?xml version="1.0" encoding="UTF-8" standalone="no"?>
<!DOCTYPE svg PUBLIC "-//W3C//DTD SVG 1.1//EN"
 "http://www.w3.org/Graphics/SVG/1.1/DTD/svg11.dtd">
<!-- Generated by graphviz version 2.43.0 (0)
 -->
<!-- Title: CommandLineArguments Pages: 1 -->
<svg width="325pt" height="444pt"
 viewBox="0.00 0.00 324.50 444.00" xmlns="http://www.w3.org/2000/svg" xmlns:xlink="http://www.w3.org/1999/xlink">
<g id="graph0" class="graph" transform="scale(1 1) rotate(0) translate(4 440)">
<title>CommandLineArguments</title>
<!-- Node1 -->
<g id="Node000001" class="node">
<title>Node1</title>
<g id="a_Node000001"><a xlink:title=" ">
<polygon fill="#999999" stroke="transparent" points="234.5,-340 37.5,-340 37.5,0 234.5,0 234.5,-340"/>
<text text-anchor="start" x="74.5" y="-328" font-family="Helvetica,sans-Serif" font-size="10.00">CommandLineArguments</text>
<text text-anchor="start" x="134.5" y="-313" font-family="Helvetica,sans-Serif" font-size="10.00"> </text>
<text text-anchor="start" x="42" y="-298" font-family="Helvetica,sans-Serif" font-size="10.00">+</text>
<text text-anchor="start" x="55" y="-298" font-family="Helvetica,sans-Serif" font-size="10.00">OptionExists()</text>
<text text-anchor="start" x="42" y="-283" font-family="Helvetica,sans-Serif" font-size="10.00">+</text>
<text text-anchor="start" x="55" y="-283" font-family="Helvetica,sans-Serif" font-size="10.00">GetNumberOfArgumentsForOption()</text>
<text text-anchor="start" x="42" y="-268" font-family="Helvetica,sans-Serif" font-size="10.00">+</text>
<text text-anchor="start" x="55" y="-268" font-family="Helvetica,sans-Serif" font-size="10.00">GetValueCorrespondingToOption()</text>
<text text-anchor="start" x="42" y="-253" font-family="Helvetica,sans-Serif" font-size="10.00">+</text>
<text text-anchor="start" x="55" y="-253" font-family="Helvetica,sans-Serif" font-size="10.00">GetDoubleCorrespondingTo</text>
<text text-anchor="start" x="55" y="-242" font-family="Helvetica,sans-Serif" font-size="10.00">Option()</text>
<text text-anchor="start" x="42" y="-227" font-family="Helvetica,sans-Serif" font-size="10.00">+</text>
<text text-anchor="start" x="55" y="-227" font-family="Helvetica,sans-Serif" font-size="10.00">GetIntCorrespondingToOption()</text>
<text text-anchor="start" x="42" y="-212" font-family="Helvetica,sans-Serif" font-size="10.00">+</text>
<text text-anchor="start" x="55" y="-212" font-family="Helvetica,sans-Serif" font-size="10.00">GetUnsignedCorresponding</text>
<text text-anchor="start" x="55" y="-201" font-family="Helvetica,sans-Serif" font-size="10.00">ToOption()</text>
<text text-anchor="start" x="42" y="-186" font-family="Helvetica,sans-Serif" font-size="10.00">+</text>
<text text-anchor="start" x="55" y="-186" font-family="Helvetica,sans-Serif" font-size="10.00">GetStringCorrespondingTo</text>
<text text-anchor="start" x="55" y="-175" font-family="Helvetica,sans-Serif" font-size="10.00">Option()</text>
<text text-anchor="start" x="42" y="-160" font-family="Helvetica,sans-Serif" font-size="10.00">+</text>
<text text-anchor="start" x="55" y="-160" font-family="Helvetica,sans-Serif" font-size="10.00">GetStringsCorrespondingTo</text>
<text text-anchor="start" x="55" y="-149" font-family="Helvetica,sans-Serif" font-size="10.00">Option()</text>
<text text-anchor="start" x="42" y="-134" font-family="Helvetica,sans-Serif" font-size="10.00">+</text>
<text text-anchor="start" x="55" y="-134" font-family="Helvetica,sans-Serif" font-size="10.00">GetDoublesCorrespondingTo</text>
<text text-anchor="start" x="55" y="-123" font-family="Helvetica,sans-Serif" font-size="10.00">Option()</text>
<text text-anchor="start" x="42" y="-108" font-family="Helvetica,sans-Serif" font-size="10.00">+</text>
<text text-anchor="start" x="55" y="-108" font-family="Helvetica,sans-Serif" font-size="10.00">GetIntsCorrespondingToOption()</text>
<text text-anchor="start" x="42" y="-93" font-family="Helvetica,sans-Serif" font-size="10.00">+</text>
<text text-anchor="start" x="55" y="-93" font-family="Helvetica,sans-Serif" font-size="10.00">GetUnsignedsCorresponding</text>
<text text-anchor="start" x="55" y="-82" font-family="Helvetica,sans-Serif" font-size="10.00">ToOption()</text>
<text text-anchor="start" x="42" y="-67" font-family="Helvetica,sans-Serif" font-size="10.00">+</text>
<text text-anchor="start" x="55" y="-67" font-family="Helvetica,sans-Serif" font-size="10.00">GetBoolCorrespondingToOption()</text>
<text text-anchor="start" x="42" y="-52" font-family="Helvetica,sans-Serif" font-size="10.00">+</text>
<text text-anchor="start" x="55" y="-52" font-family="Helvetica,sans-Serif" font-size="10.00">Instance()</text>
<text text-anchor="start" x="44.5" y="-37" font-family="Helvetica,sans-Serif" font-size="10.00">&#45;</text>
<text text-anchor="start" x="55" y="-37" font-family="Helvetica,sans-Serif" font-size="10.00">CommandLineArguments()</text>
<text text-anchor="start" x="44.5" y="-22" font-family="Helvetica,sans-Serif" font-size="10.00">&#45;</text>
<text text-anchor="start" x="55" y="-22" font-family="Helvetica,sans-Serif" font-size="10.00">GetIndexForArgument()</text>
<text text-anchor="start" x="44.5" y="-7" font-family="Helvetica,sans-Serif" font-size="10.00">&#45;</text>
<text text-anchor="start" x="55" y="-7" font-family="Helvetica,sans-Serif" font-size="10.00">TestOptionFormat()</text>
<polygon fill="#666666" stroke="#666666" points="38,-323 38,-323 235,-323 235,-323 38,-323"/>
<polygon fill="#666666" stroke="#666666" points="38,-308 38,-308 235,-308 235,-308 38,-308"/>
<polygon fill="none" stroke="#666666" points="37.5,0 37.5,-340 234.5,-340 234.5,0 37.5,0"/>
</a>
</g>
</g>
<!-- Node1&#45;&gt;Node1 -->
<g id="edge2_Node000001_Node000001" class="edge">
<title>Node1&#45;&gt;Node1</title>
<g id="a_edge2_Node000001_Node000001"><a xlink:title=" ">
<path fill="none" stroke="#63b8ff" d="M234.59,-200.28C245.47,-194.53 252.5,-184.44 252.5,-170 252.5,-160.53 249.47,-152.92 244.32,-147.19"/>
<polygon fill="none" stroke="#63b8ff" points="244.11,-147.03 236.91,-146.54 234.59,-139.72 241.79,-140.2 244.11,-147.03"/>
</a>
</g>
<text text-anchor="middle" x="284.5" y="-167.5" font-family="Helvetica,sans-Serif" font-size="10.00" fill="grey"> &#45;mpInstance</text>
</g>
<!-- Node2 -->
<g id="Node000002" class="node">
<title>Node2</title>
<g id="a_Node000002"><a xlink:title=" ">
<polygon fill="white" stroke="transparent" points="106,-436 0,-436 0,-387 106,-387 106,-436"/>
<text text-anchor="start" x="5" y="-423.5" font-family="Helvetica,sans-Serif" font-size="10.00">boost::noncopyable</text>
<text text-anchor="start" x="51" y="-408.5" font-family="Helvetica,sans-Serif" font-size="10.00"> </text>
<text text-anchor="start" x="51" y="-393.5" font-family="Helvetica,sans-Serif" font-size="10.00"> </text>
<polygon fill="#bfbfbf" stroke="#bfbfbf" points="0,-418.5 0,-418.5 106,-418.5 106,-418.5 0,-418.5"/>
<polygon fill="#bfbfbf" stroke="#bfbfbf" points="0,-403.5 0,-403.5 106,-403.5 106,-403.5 0,-403.5"/>
<polygon fill="none" stroke="#bfbfbf" points="0,-387 0,-436 106,-436 106,-387 0,-387"/>
</a>
</g>
</g>
<!-- Node2&#45;&gt;Node1 -->
<g id="edge1_Node000001_Node000002" class="edge">
<title>Node2&#45;&gt;Node1</title>
<g id="a_edge1_Node000001_Node000002"><a xlink:title=" ">
<path fill="none" stroke="#8b1a1a" d="M64.59,-377.06C68.28,-366.4 72.65,-353.79 77.38,-340.14"/>
<polygon fill="none" stroke="#8b1a1a" points="61.23,-376.07 61.26,-386.66 67.84,-378.36 61.23,-376.07"/>
</a>
</g>
</g>
<!-- Node3 -->
<g id="Node000003" class="node">
<title>Node3</title>
<g id="a_Node000003"><a xlink:title=" ">
<polygon fill="white" stroke="transparent" points="147.5,-436 124.5,-436 124.5,-387 147.5,-387 147.5,-436"/>
<text text-anchor="start" x="130" y="-423.5" font-family="Helvetica,sans-Serif" font-size="10.00">int</text>
<text text-anchor="start" x="134.5" y="-408.5" font-family="Helvetica,sans-Serif" font-size="10.00"> </text>
<text text-anchor="start" x="134.5" y="-393.5" font-family="Helvetica,sans-Serif" font-size="10.00"> </text>
<polygon fill="#bfbfbf" stroke="#bfbfbf" points="125,-418.5 125,-418.5 148,-418.5 148,-418.5 125,-418.5"/>
<polygon fill="#bfbfbf" stroke="#bfbfbf" points="125,-403.5 125,-403.5 148,-403.5 148,-403.5 125,-403.5"/>
<polygon fill="none" stroke="#bfbfbf" points="124.5,-387 124.5,-436 147.5,-436 147.5,-387 124.5,-387"/>
</a>
</g>
</g>
<!-- Node3&#45;&gt;Node1 -->
<g id="edge3_Node000001_Node000003" class="edge">
<title>Node3&#45;&gt;Node1</title>
<g id="a_edge3_Node000001_Node000003"><a xlink:title=" ">
<path fill="none" stroke="#63b8ff" d="M136,-386.66C136,-377.24 136,-365.53 136,-352.48"/>
<polygon fill="none" stroke="#63b8ff" points="136,-352.14 132,-346.14 136,-340.14 140,-346.14 136,-352.14"/>
</a>
</g>
<text text-anchor="middle" x="158" y="-361" font-family="Helvetica,sans-Serif" font-size="10.00" fill="grey"> +p_argc</text>
</g>
<!-- Node4 -->
<g id="Node000004" class="node">
<title>Node4</title>
<g id="a_Node000004"><a xlink:title=" ">
<polygon fill="white" stroke="transparent" points="228,-436 178,-436 178,-387 228,-387 228,-436"/>
<text text-anchor="start" x="183" y="-423.5" font-family="Helvetica,sans-Serif" font-size="10.00">char ***</text>
<text text-anchor="start" x="201" y="-408.5" font-family="Helvetica,sans-Serif" font-size="10.00"> </text>
<text text-anchor="start" x="201" y="-393.5" font-family="Helvetica,sans-Serif" font-size="10.00"> </text>
<polygon fill="#bfbfbf" stroke="#bfbfbf" points="178,-418.5 178,-418.5 228,-418.5 228,-418.5 178,-418.5"/>
<polygon fill="#bfbfbf" stroke="#bfbfbf" points="178,-403.5 178,-403.5 228,-403.5 228,-403.5 178,-403.5"/>
<polygon fill="none" stroke="#bfbfbf" points="178,-387 178,-436 228,-436 228,-387 178,-387"/>
</a>
</g>
</g>
<!-- Node4&#45;&gt;Node1 -->
<g id="edge4_Node000001_Node000004" class="edge">
<title>Node4&#45;&gt;Node1</title>
<g id="a_edge4_Node000001_Node000004"><a xlink:title=" ">
<path fill="none" stroke="#63b8ff" d="M196.33,-386.66C193.67,-377.14 190.35,-365.29 186.66,-352.08"/>
<polygon fill="none" stroke="#63b8ff" points="186.55,-351.7 181.08,-347 183.32,-340.14 188.79,-344.84 186.55,-351.7"/>
</a>
</g>
<text text-anchor="middle" x="212.5" y="-361" font-family="Helvetica,sans-Serif" font-size="10.00" fill="grey"> +p_argv</text>
</g>
</g>
</svg>
