<?xml version="1.0" encoding="UTF-8" standalone="no"?>
<!DOCTYPE svg PUBLIC "-//W3C//DTD SVG 1.1//EN"
 "http://www.w3.org/Graphics/SVG/1.1/DTD/svg11.dtd">
<!-- Generated by graphviz version 2.43.0 (0)
 -->
<!-- Title: TargetAreaLinearGrowthModifier&lt; DIM &gt; Pages: 1 -->
<svg width="323pt" height="1105pt"
 viewBox="0.00 0.00 323.00 1105.00" xmlns="http://www.w3.org/2000/svg" xmlns:xlink="http://www.w3.org/1999/xlink">
<g id="graph0" class="graph" transform="scale(1 1) rotate(0) translate(4 1101)">
<title>TargetAreaLinearGrowthModifier&lt; DIM &gt;</title>
<!-- Node1 -->
<g id="Node000001" class="node">
<title>Node1</title>
<g id="a_Node000001"><a xlink:title=" ">
<polygon fill="#999999" stroke="transparent" points="195,-206 0,-206 0,0 195,0 195,-206"/>
<text text-anchor="start" x="19" y="-194" font-family="Helvetica,sans-Serif" font-size="10.00">TargetAreaLinearGrowthModifier</text>
<text text-anchor="start" x="76.5" y="-183" font-family="Helvetica,sans-Serif" font-size="10.00">&lt; DIM &gt;</text>
<text text-anchor="start" x="7" y="-168" font-family="Helvetica,sans-Serif" font-size="10.00">&#45;</text>
<text text-anchor="start" x="17.5" y="-168" font-family="Helvetica,sans-Serif" font-size="10.00">mAgeToStartGrowing</text>
<text text-anchor="start" x="7" y="-153" font-family="Helvetica,sans-Serif" font-size="10.00">&#45;</text>
<text text-anchor="start" x="17.5" y="-153" font-family="Helvetica,sans-Serif" font-size="10.00">mGrowthRate</text>
<text text-anchor="start" x="4.5" y="-138" font-family="Helvetica,sans-Serif" font-size="10.00">+</text>
<text text-anchor="start" x="17.5" y="-138" font-family="Helvetica,sans-Serif" font-size="10.00">TargetAreaLinearGrowthModifier()</text>
<text text-anchor="start" x="4.5" y="-123" font-family="Helvetica,sans-Serif" font-size="10.00">+</text>
<text text-anchor="start" x="17.5" y="-123" font-family="Helvetica,sans-Serif" font-size="10.00">~TargetAreaLinearGrowthModifier()</text>
<text text-anchor="start" x="4.5" y="-108" font-family="Helvetica,sans-Serif" font-size="10.00">+</text>
<text text-anchor="start" x="17.5" y="-108" font-family="Helvetica,sans-Serif" font-size="10.00">UpdateTargetAreaOfCell()</text>
<text text-anchor="start" x="4.5" y="-93" font-family="Helvetica,sans-Serif" font-size="10.00">+</text>
<text text-anchor="start" x="17.5" y="-93" font-family="Helvetica,sans-Serif" font-size="10.00">GetAgeToStartGrowing()</text>
<text text-anchor="start" x="4.5" y="-78" font-family="Helvetica,sans-Serif" font-size="10.00">+</text>
<text text-anchor="start" x="17.5" y="-78" font-family="Helvetica,sans-Serif" font-size="10.00">SetAgeToStartGrowing()</text>
<text text-anchor="start" x="4.5" y="-63" font-family="Helvetica,sans-Serif" font-size="10.00">+</text>
<text text-anchor="start" x="17.5" y="-63" font-family="Helvetica,sans-Serif" font-size="10.00">GetGrowthRate()</text>
<text text-anchor="start" x="4.5" y="-48" font-family="Helvetica,sans-Serif" font-size="10.00">+</text>
<text text-anchor="start" x="17.5" y="-48" font-family="Helvetica,sans-Serif" font-size="10.00">SetGrowthRate()</text>
<text text-anchor="start" x="4.5" y="-33" font-family="Helvetica,sans-Serif" font-size="10.00">+</text>
<text text-anchor="start" x="17.5" y="-33" font-family="Helvetica,sans-Serif" font-size="10.00">OutputSimulationModifier</text>
<text text-anchor="start" x="17.5" y="-22" font-family="Helvetica,sans-Serif" font-size="10.00">Parameters()</text>
<text text-anchor="start" x="7" y="-7" font-family="Helvetica,sans-Serif" font-size="10.00">&#45;</text>
<text text-anchor="start" x="17.5" y="-7" font-family="Helvetica,sans-Serif" font-size="10.00">serialize()</text>
<polygon fill="#666666" stroke="#666666" points="0.5,-178 0.5,-178 195.5,-178 195.5,-178 0.5,-178"/>
<polygon fill="#666666" stroke="#666666" points="0.5,-148 0.5,-148 15.5,-148 15.5,-148 0.5,-148"/>
<polygon fill="#666666" stroke="#666666" points="15.5,-148 15.5,-148 195.5,-148 195.5,-148 15.5,-148"/>
<polygon fill="none" stroke="#666666" points="0,0 0,-206 195,-206 195,0 0,0"/>
</a>
</g>
</g>
<!-- Node2 -->
<g id="Node000002" class="node">
<title>Node2</title>
<g id="a_Node000002"><a xlink:href="classAbstractTargetAreaModifier.html" target="_top" xlink:title=" ">
<polygon fill="white" stroke="transparent" points="182.5,-449 12.5,-449 12.5,-243 182.5,-243 182.5,-449"/>
<text text-anchor="start" x="31" y="-437" font-family="Helvetica,sans-Serif" font-size="10.00">AbstractTargetAreaModifier</text>
<text text-anchor="start" x="76" y="-426" font-family="Helvetica,sans-Serif" font-size="10.00">&lt; DIM &gt;</text>
<text text-anchor="start" x="16.5" y="-411" font-family="Helvetica,sans-Serif" font-size="10.00">#</text>
<text text-anchor="start" x="29.5" y="-411" font-family="Helvetica,sans-Serif" font-size="10.00">mReferenceTargetArea</text>
<text text-anchor="start" x="16.5" y="-396" font-family="Helvetica,sans-Serif" font-size="10.00">+</text>
<text text-anchor="start" x="29.5" y="-396" font-family="Helvetica,sans-Serif" font-size="10.00">AbstractTargetAreaModifier()</text>
<text text-anchor="start" x="16.5" y="-381" font-family="Helvetica,sans-Serif" font-size="10.00">+</text>
<text text-anchor="start" x="29.5" y="-381" font-family="Helvetica,sans-Serif" font-size="10.00">~AbstractTargetAreaModifier()</text>
<text text-anchor="start" x="16.5" y="-366" font-family="Helvetica,sans-Serif" font-size="10.00">+</text>
<text text-anchor="start" x="29.5" y="-366" font-family="Helvetica,sans-Serif" font-size="10.00">UpdateAtEndOfTimeStep()</text>
<text text-anchor="start" x="16.5" y="-351" font-family="Helvetica,sans-Serif" font-size="10.00">+</text>
<text text-anchor="start" x="29.5" y="-351" font-family="Helvetica,sans-Serif" font-size="10.00">SetupSolve()</text>
<text text-anchor="start" x="16.5" y="-336" font-family="Helvetica,sans-Serif" font-size="10.00">+</text>
<text text-anchor="start" x="29.5" y="-336" font-family="Helvetica,sans-Serif" font-size="10.00">GetReferenceTargetArea()</text>
<text text-anchor="start" x="16.5" y="-321" font-family="Helvetica,sans-Serif" font-size="10.00">+</text>
<text text-anchor="start" x="29.5" y="-321" font-family="Helvetica,sans-Serif" font-size="10.00">SetReferenceTargetArea()</text>
<text text-anchor="start" x="16.5" y="-306" font-family="Helvetica,sans-Serif" font-size="10.00">+</text>
<text text-anchor="start" x="29.5" y="-306" font-family="Helvetica,sans-Serif" font-size="10.00">UpdateTargetAreas()</text>
<text text-anchor="start" x="16.5" y="-291" font-family="Helvetica,sans-Serif" font-size="10.00">+</text>
<text text-anchor="start" x="29.5" y="-291" font-family="Helvetica,sans-Serif" font-size="10.00">UpdateTargetAreaOfCell()</text>
<text text-anchor="start" x="16.5" y="-276" font-family="Helvetica,sans-Serif" font-size="10.00">+</text>
<text text-anchor="start" x="29.5" y="-276" font-family="Helvetica,sans-Serif" font-size="10.00">OutputSimulationModifier</text>
<text text-anchor="start" x="29.5" y="-265" font-family="Helvetica,sans-Serif" font-size="10.00">Parameters()</text>
<text text-anchor="start" x="19" y="-250" font-family="Helvetica,sans-Serif" font-size="10.00">&#45;</text>
<text text-anchor="start" x="29.5" y="-250" font-family="Helvetica,sans-Serif" font-size="10.00">serialize()</text>
<polygon fill="#666666" stroke="#666666" points="12.5,-421 12.5,-421 182.5,-421 182.5,-421 12.5,-421"/>
<polygon fill="#666666" stroke="#666666" points="12.5,-406 12.5,-406 27.5,-406 27.5,-406 12.5,-406"/>
<polygon fill="#666666" stroke="#666666" points="27.5,-406 27.5,-406 182.5,-406 182.5,-406 27.5,-406"/>
<polygon fill="none" stroke="#666666" points="12.5,-243 12.5,-449 182.5,-449 182.5,-243 12.5,-243"/>
</a>
</g>
</g>
<!-- Node2&#45;&gt;Node1 -->
<g id="edge1_Node000001_Node000002" class="edge">
<title>Node2&#45;&gt;Node1</title>
<g id="a_edge1_Node000001_Node000002"><a xlink:title=" ">
<path fill="none" stroke="#63b8ff" d="M97.5,-232.57C97.5,-223.83 97.5,-215.03 97.5,-206.36"/>
<polygon fill="none" stroke="#63b8ff" points="94,-232.79 97.5,-242.79 101,-232.79 94,-232.79"/>
</a>
</g>
</g>
<!-- Node3 -->
<g id="Node000003" class="node">
<title>Node3</title>
<g id="a_Node000003"><a xlink:href="classAbstractCellBasedSimulationModifier.html" target="_top" xlink:title=" ">
<polygon fill="white" stroke="transparent" points="189.5,-710 5.5,-710 5.5,-486 189.5,-486 189.5,-710"/>
<text text-anchor="start" x="26.5" y="-698" font-family="Helvetica,sans-Serif" font-size="10.00">AbstractCellBasedSimulation</text>
<text text-anchor="start" x="43.5" y="-687" font-family="Helvetica,sans-Serif" font-size="10.00">Modifier&lt; DIM, DIM &gt;</text>
<text text-anchor="start" x="95.5" y="-672" font-family="Helvetica,sans-Serif" font-size="10.00"> </text>
<text text-anchor="start" x="9.5" y="-657" font-family="Helvetica,sans-Serif" font-size="10.00">+</text>
<text text-anchor="start" x="22.5" y="-657" font-family="Helvetica,sans-Serif" font-size="10.00">AbstractCellBasedSimulation</text>
<text text-anchor="start" x="22.5" y="-646" font-family="Helvetica,sans-Serif" font-size="10.00">Modifier()</text>
<text text-anchor="start" x="9.5" y="-631" font-family="Helvetica,sans-Serif" font-size="10.00">+</text>
<text text-anchor="start" x="22.5" y="-631" font-family="Helvetica,sans-Serif" font-size="10.00">~AbstractCellBasedSimulation</text>
<text text-anchor="start" x="22.5" y="-620" font-family="Helvetica,sans-Serif" font-size="10.00">Modifier()</text>
<text text-anchor="start" x="9.5" y="-605" font-family="Helvetica,sans-Serif" font-size="10.00">+</text>
<text text-anchor="start" x="22.5" y="-605" font-family="Helvetica,sans-Serif" font-size="10.00">UpdateAtEndOfTimeStep()</text>
<text text-anchor="start" x="9.5" y="-590" font-family="Helvetica,sans-Serif" font-size="10.00">+</text>
<text text-anchor="start" x="22.5" y="-590" font-family="Helvetica,sans-Serif" font-size="10.00">UpdateAtEndOfOutputTimeStep()</text>
<text text-anchor="start" x="9.5" y="-575" font-family="Helvetica,sans-Serif" font-size="10.00">+</text>
<text text-anchor="start" x="22.5" y="-575" font-family="Helvetica,sans-Serif" font-size="10.00">SetupSolve()</text>
<text text-anchor="start" x="9.5" y="-560" font-family="Helvetica,sans-Serif" font-size="10.00">+</text>
<text text-anchor="start" x="22.5" y="-560" font-family="Helvetica,sans-Serif" font-size="10.00">UpdateAtEndOfSolve()</text>
<text text-anchor="start" x="9.5" y="-545" font-family="Helvetica,sans-Serif" font-size="10.00">+</text>
<text text-anchor="start" x="22.5" y="-545" font-family="Helvetica,sans-Serif" font-size="10.00">OutputSimulationModifier</text>
<text text-anchor="start" x="22.5" y="-534" font-family="Helvetica,sans-Serif" font-size="10.00">Info()</text>
<text text-anchor="start" x="9.5" y="-519" font-family="Helvetica,sans-Serif" font-size="10.00">+</text>
<text text-anchor="start" x="22.5" y="-519" font-family="Helvetica,sans-Serif" font-size="10.00">OutputSimulationModifier</text>
<text text-anchor="start" x="22.5" y="-508" font-family="Helvetica,sans-Serif" font-size="10.00">Parameters()</text>
<text text-anchor="start" x="12" y="-493" font-family="Helvetica,sans-Serif" font-size="10.00">&#45;</text>
<text text-anchor="start" x="22.5" y="-493" font-family="Helvetica,sans-Serif" font-size="10.00">serialize()</text>
<polygon fill="#666666" stroke="#666666" points="5.5,-682 5.5,-682 189.5,-682 189.5,-682 5.5,-682"/>
<polygon fill="#666666" stroke="#666666" points="5.5,-667 5.5,-667 189.5,-667 189.5,-667 5.5,-667"/>
<polygon fill="none" stroke="#666666" points="5.5,-486 5.5,-710 189.5,-710 189.5,-486 5.5,-486"/>
</a>
</g>
</g>
<!-- Node3&#45;&gt;Node2 -->
<g id="edge2_Node000002_Node000003" class="edge">
<title>Node3&#45;&gt;Node2</title>
<g id="a_edge2_Node000002_Node000003"><a xlink:title=" ">
<path fill="none" stroke="#63b8ff" d="M97.5,-475.8C97.5,-466.85 97.5,-457.87 97.5,-449.05"/>
<polygon fill="none" stroke="#63b8ff" points="94,-475.89 97.5,-485.89 101,-475.89 94,-475.89"/>
</a>
</g>
</g>
<!-- Node4 -->
<g id="Node000004" class="node">
<title>Node4</title>
<g id="a_Node000004"><a xlink:href="classIdentifiable.html" target="_top" xlink:title=" ">
<polygon fill="white" stroke="transparent" points="181.5,-1097 5.5,-1097 5.5,-1018 181.5,-1018 181.5,-1097"/>
<text text-anchor="start" x="66" y="-1084.5" font-family="Helvetica,sans-Serif" font-size="10.00">Identifiable</text>
<text text-anchor="start" x="91.5" y="-1069.5" font-family="Helvetica,sans-Serif" font-size="10.00"> </text>
<text text-anchor="start" x="9.5" y="-1054.5" font-family="Helvetica,sans-Serif" font-size="10.00">+</text>
<text text-anchor="start" x="22.5" y="-1054.5" font-family="Helvetica,sans-Serif" font-size="10.00">~Identifiable()</text>
<text text-anchor="start" x="9.5" y="-1039.5" font-family="Helvetica,sans-Serif" font-size="10.00">+</text>
<text text-anchor="start" x="22.5" y="-1039.5" font-family="Helvetica,sans-Serif" font-size="10.00">GetIdentifier()</text>
<text text-anchor="start" x="12" y="-1024.5" font-family="Helvetica,sans-Serif" font-size="10.00">&#45;</text>
<text text-anchor="start" x="22.5" y="-1024.5" font-family="Helvetica,sans-Serif" font-size="10.00">TidyTemplatedExportIdentifier()</text>
<polygon fill="#666666" stroke="#666666" points="5.5,-1079.5 5.5,-1079.5 181.5,-1079.5 181.5,-1079.5 5.5,-1079.5"/>
<polygon fill="#666666" stroke="#666666" points="5.5,-1064.5 5.5,-1064.5 181.5,-1064.5 181.5,-1064.5 5.5,-1064.5"/>
<polygon fill="none" stroke="#666666" points="5.5,-1018 5.5,-1097 181.5,-1097 181.5,-1018 5.5,-1018"/>
</a>
</g>
</g>
<!-- Node4&#45;&gt;Node3 -->
<g id="edge3_Node000003_Node000004" class="edge">
<title>Node4&#45;&gt;Node3</title>
<g id="a_edge3_Node000003_Node000004"><a xlink:title=" ">
<path fill="none" stroke="#63b8ff" d="M93.93,-1007.53C94.54,-937.02 95.7,-804.96 96.53,-710.05"/>
<polygon fill="none" stroke="#63b8ff" points="90.43,-1007.86 93.84,-1017.89 97.42,-1007.92 90.43,-1007.86"/>
</a>
</g>
</g>
<!-- Node5 -->
<g id="Node000005" class="node">
<title>Node5</title>
<g id="a_Node000005"><a xlink:href="classAbstractCellBasedSimulationModifier.html" target="_top" xlink:title=" ">
<polygon fill="white" stroke="transparent" points="315,-981 110,-981 110,-757 315,-757 315,-981"/>
<text text-anchor="start" x="115.5" y="-969" font-family="Helvetica,sans-Serif" font-size="10.00">AbstractCellBasedSimulation</text>
<text text-anchor="start" x="115.5" y="-958" font-family="Helvetica,sans-Serif" font-size="10.00">Modifier&lt; ELEMENT_DIM, SPACE_DIM &gt;</text>
<text text-anchor="start" x="211" y="-943" font-family="Helvetica,sans-Serif" font-size="10.00"> </text>
<text text-anchor="start" x="119.5" y="-928" font-family="Helvetica,sans-Serif" font-size="10.00">+</text>
<text text-anchor="start" x="137.5" y="-928" font-family="Helvetica,sans-Serif" font-size="10.00">AbstractCellBasedSimulation</text>
<text text-anchor="start" x="137.5" y="-917" font-family="Helvetica,sans-Serif" font-size="10.00">Modifier()</text>
<text text-anchor="start" x="119.5" y="-902" font-family="Helvetica,sans-Serif" font-size="10.00">+</text>
<text text-anchor="start" x="137.5" y="-902" font-family="Helvetica,sans-Serif" font-size="10.00">~AbstractCellBasedSimulation</text>
<text text-anchor="start" x="137.5" y="-891" font-family="Helvetica,sans-Serif" font-size="10.00">Modifier()</text>
<text text-anchor="start" x="119.5" y="-876" font-family="Helvetica,sans-Serif" font-size="10.00">+</text>
<text text-anchor="start" x="137.5" y="-876" font-family="Helvetica,sans-Serif" font-size="10.00">UpdateAtEndOfTimeStep()</text>
<text text-anchor="start" x="119.5" y="-861" font-family="Helvetica,sans-Serif" font-size="10.00">+</text>
<text text-anchor="start" x="137.5" y="-861" font-family="Helvetica,sans-Serif" font-size="10.00">UpdateAtEndOfOutputTimeStep()</text>
<text text-anchor="start" x="119.5" y="-846" font-family="Helvetica,sans-Serif" font-size="10.00">+</text>
<text text-anchor="start" x="137.5" y="-846" font-family="Helvetica,sans-Serif" font-size="10.00">SetupSolve()</text>
<text text-anchor="start" x="119.5" y="-831" font-family="Helvetica,sans-Serif" font-size="10.00">+</text>
<text text-anchor="start" x="137.5" y="-831" font-family="Helvetica,sans-Serif" font-size="10.00">UpdateAtEndOfSolve()</text>
<text text-anchor="start" x="119.5" y="-816" font-family="Helvetica,sans-Serif" font-size="10.00">+</text>
<text text-anchor="start" x="137.5" y="-816" font-family="Helvetica,sans-Serif" font-size="10.00">OutputSimulationModifier</text>
<text text-anchor="start" x="137.5" y="-805" font-family="Helvetica,sans-Serif" font-size="10.00">Info()</text>
<text text-anchor="start" x="119.5" y="-790" font-family="Helvetica,sans-Serif" font-size="10.00">+</text>
<text text-anchor="start" x="137.5" y="-790" font-family="Helvetica,sans-Serif" font-size="10.00">OutputSimulationModifier</text>
<text text-anchor="start" x="137.5" y="-779" font-family="Helvetica,sans-Serif" font-size="10.00">Parameters()</text>
<text text-anchor="start" x="122" y="-764" font-family="Helvetica,sans-Serif" font-size="10.00">&#45;</text>
<text text-anchor="start" x="137.5" y="-764" font-family="Helvetica,sans-Serif" font-size="10.00">serialize()</text>
<polygon fill="#666666" stroke="#666666" points="110.5,-953 110.5,-953 315.5,-953 315.5,-953 110.5,-953"/>
<polygon fill="#666666" stroke="#666666" points="110.5,-938 110.5,-938 315.5,-938 315.5,-938 110.5,-938"/>
<polygon fill="none" stroke="#666666" points="110,-757 110,-981 315,-981 315,-757 110,-757"/>
</a>
</g>
</g>
<!-- Node4&#45;&gt;Node5 -->
<g id="edge5_Node000005_Node000004" class="edge">
<title>Node4&#45;&gt;Node5</title>
<g id="a_edge5_Node000005_Node000004"><a xlink:title=" ">
<path fill="none" stroke="#63b8ff" d="M123.59,-1009.34C129.19,-1000.56 135.26,-991.06 141.5,-981.28"/>
<polygon fill="none" stroke="#63b8ff" points="120.59,-1007.54 118.16,-1017.86 126.49,-1011.31 120.59,-1007.54"/>
</a>
</g>
</g>
<!-- Node5&#45;&gt;Node3 -->
<g id="edge4_Node000003_Node000005" class="edge">
<title>Node5&#45;&gt;Node3</title>
<g id="a_edge4_Node000003_Node000005"><a xlink:title=" ">
<path fill="none" stroke="orange" d="M160.88,-747.27C155.62,-734.95 150.29,-722.48 145.07,-710.27"/>
<polygon fill="orange" stroke="orange" points="157.75,-748.83 164.89,-756.65 164.18,-746.07 157.75,-748.83"/>
</a>
</g>
<text text-anchor="middle" x="190" y="-731" font-family="Helvetica,sans-Serif" font-size="10.00" fill="grey"> &lt; DIM, DIM &gt;</text>
</g>
</g>
</svg>
