<?xml version="1.0" encoding="UTF-8" standalone="no"?>
<!DOCTYPE svg PUBLIC "-//W3C//DTD SVG 1.1//EN"
 "http://www.w3.org/Graphics/SVG/1.1/DTD/svg11.dtd">
<!-- Generated by graphviz version 2.43.0 (0)
 -->
<!-- Title: OdeSystemInformation&lt; ODE_SYSTEM &gt; Pages: 1 -->
<svg width="673pt" height="919pt"
 viewBox="0.00 0.00 673.46 919.00" xmlns="http://www.w3.org/2000/svg" xmlns:xlink="http://www.w3.org/1999/xlink">
<g id="graph0" class="graph" transform="scale(1 1) rotate(0) translate(4 915)">
<title>OdeSystemInformation&lt; ODE_SYSTEM &gt;</title>
<!-- Node1 -->
<g id="Node000001" class="node">
<title>Node1</title>
<g id="a_Node000001"><a xlink:title=" ">
<polygon fill="#999999" stroke="transparent" points="530.46,-285 388.46,-285 388.46,0 530.46,0 530.46,-285"/>
<text text-anchor="start" x="402.46" y="-272.5" font-family="Helvetica,sans-Serif" font-size="10.00">OdeSystemInformation</text>
<text text-anchor="start" x="415.46" y="-261.5" font-family="Helvetica,sans-Serif" font-size="10.00">&lt; ODE_SYSTEM &gt;</text>
<text text-anchor="start" x="457.46" y="-246.5" font-family="Helvetica,sans-Serif" font-size="10.00"> </text>
<text text-anchor="start" x="392.46" y="-231.5" font-family="Helvetica,sans-Serif" font-size="10.00">+</text>
<text text-anchor="start" x="405.46" y="-231.5" font-family="Helvetica,sans-Serif" font-size="10.00">Instance()</text>
<text text-anchor="start" x="392.46" y="-216.5" font-family="Helvetica,sans-Serif" font-size="10.00">#</text>
<text text-anchor="start" x="405.46" y="-216.5" font-family="Helvetica,sans-Serif" font-size="10.00">OdeSystemInformation()</text>
<text text-anchor="start" x="392.46" y="-201.5" font-family="Helvetica,sans-Serif" font-size="10.00">#</text>
<text text-anchor="start" x="405.46" y="-201.5" font-family="Helvetica,sans-Serif" font-size="10.00">OdeSystemInformation()</text>
<text text-anchor="start" x="392.46" y="-186.5" font-family="Helvetica,sans-Serif" font-size="10.00">#</text>
<text text-anchor="start" x="405.46" y="-186.5" font-family="Helvetica,sans-Serif" font-size="10.00">operator=()</text>
<text text-anchor="start" x="392.46" y="-171.5" font-family="Helvetica,sans-Serif" font-size="10.00">#</text>
<text text-anchor="start" x="405.46" y="-171.5" font-family="Helvetica,sans-Serif" font-size="10.00">Initialise()</text>
<text text-anchor="start" x="392.46" y="-156.5" font-family="Helvetica,sans-Serif" font-size="10.00">#</text>
<text text-anchor="start" x="405.46" y="-156.5" font-family="Helvetica,sans-Serif" font-size="10.00">Initialise()</text>
<text text-anchor="start" x="392.46" y="-141.5" font-family="Helvetica,sans-Serif" font-size="10.00">#</text>
<text text-anchor="start" x="405.46" y="-141.5" font-family="Helvetica,sans-Serif" font-size="10.00">Initialise()</text>
<text text-anchor="start" x="392.46" y="-126.5" font-family="Helvetica,sans-Serif" font-size="10.00">#</text>
<text text-anchor="start" x="405.46" y="-126.5" font-family="Helvetica,sans-Serif" font-size="10.00">Initialise()</text>
<text text-anchor="start" x="392.46" y="-111.5" font-family="Helvetica,sans-Serif" font-size="10.00">#</text>
<text text-anchor="start" x="405.46" y="-111.5" font-family="Helvetica,sans-Serif" font-size="10.00">Initialise()</text>
<text text-anchor="start" x="392.46" y="-96.5" font-family="Helvetica,sans-Serif" font-size="10.00">#</text>
<text text-anchor="start" x="405.46" y="-96.5" font-family="Helvetica,sans-Serif" font-size="10.00">Initialise()</text>
<text text-anchor="start" x="392.46" y="-81.5" font-family="Helvetica,sans-Serif" font-size="10.00">#</text>
<text text-anchor="start" x="405.46" y="-81.5" font-family="Helvetica,sans-Serif" font-size="10.00">Initialise()</text>
<text text-anchor="start" x="392.46" y="-66.5" font-family="Helvetica,sans-Serif" font-size="10.00">#</text>
<text text-anchor="start" x="405.46" y="-66.5" font-family="Helvetica,sans-Serif" font-size="10.00">Initialise()</text>
<text text-anchor="start" x="392.46" y="-51.5" font-family="Helvetica,sans-Serif" font-size="10.00">#</text>
<text text-anchor="start" x="405.46" y="-51.5" font-family="Helvetica,sans-Serif" font-size="10.00">Initialise()</text>
<text text-anchor="start" x="392.46" y="-36.5" font-family="Helvetica,sans-Serif" font-size="10.00">#</text>
<text text-anchor="start" x="405.46" y="-36.5" font-family="Helvetica,sans-Serif" font-size="10.00">Initialise()</text>
<text text-anchor="start" x="392.46" y="-21.5" font-family="Helvetica,sans-Serif" font-size="10.00">#</text>
<text text-anchor="start" x="405.46" y="-21.5" font-family="Helvetica,sans-Serif" font-size="10.00">Initialise()</text>
<text text-anchor="start" x="392.46" y="-6.5" font-family="Helvetica,sans-Serif" font-size="10.00">#</text>
<text text-anchor="start" x="405.46" y="-6.5" font-family="Helvetica,sans-Serif" font-size="10.00">Initialise()</text>
<polygon fill="#666666" stroke="#666666" points="388.46,-256.5 388.46,-256.5 530.46,-256.5 530.46,-256.5 388.46,-256.5"/>
<polygon fill="#666666" stroke="#666666" points="388.46,-241.5 388.46,-241.5 530.46,-241.5 530.46,-241.5 388.46,-241.5"/>
<polygon fill="none" stroke="#666666" points="388.46,0 388.46,-285 530.46,-285 530.46,0 388.46,0"/>
</a>
</g>
</g>
<!-- Node2 -->
<g id="Node000002" class="node">
<title>Node2</title>
<g id="a_Node000002"><a xlink:href="classAbstractOdeSystemInformation.html" target="_top" xlink:title=" ">
<polygon fill="white" stroke="transparent" points="451.96,-546 260.96,-546 260.96,-332 451.96,-332 451.96,-546"/>
<text text-anchor="start" x="279.96" y="-534" font-family="Helvetica,sans-Serif" font-size="10.00">AbstractOdeSystemInformation</text>
<text text-anchor="start" x="354.96" y="-519" font-family="Helvetica,sans-Serif" font-size="10.00"> </text>
<text text-anchor="start" x="265.46" y="-504" font-family="Helvetica,sans-Serif" font-size="10.00">+</text>
<text text-anchor="start" x="278.46" y="-504" font-family="Helvetica,sans-Serif" font-size="10.00">AbstractOdeSystemInformation()</text>
<text text-anchor="start" x="265.46" y="-489" font-family="Helvetica,sans-Serif" font-size="10.00">+</text>
<text text-anchor="start" x="278.46" y="-489" font-family="Helvetica,sans-Serif" font-size="10.00">~AbstractOdeSystemInformation()</text>
<text text-anchor="start" x="265.46" y="-474" font-family="Helvetica,sans-Serif" font-size="10.00">+</text>
<text text-anchor="start" x="278.46" y="-474" font-family="Helvetica,sans-Serif" font-size="10.00">GetSystemName()</text>
<text text-anchor="start" x="265.46" y="-459" font-family="Helvetica,sans-Serif" font-size="10.00">+</text>
<text text-anchor="start" x="278.46" y="-459" font-family="Helvetica,sans-Serif" font-size="10.00">GetFreeVariableName()</text>
<text text-anchor="start" x="265.46" y="-444" font-family="Helvetica,sans-Serif" font-size="10.00">+</text>
<text text-anchor="start" x="278.46" y="-444" font-family="Helvetica,sans-Serif" font-size="10.00">GetFreeVariableUnits()</text>
<text text-anchor="start" x="265.46" y="-429" font-family="Helvetica,sans-Serif" font-size="10.00">+</text>
<text text-anchor="start" x="278.46" y="-429" font-family="Helvetica,sans-Serif" font-size="10.00">SetDefaultInitialConditions()</text>
<text text-anchor="start" x="265.46" y="-414" font-family="Helvetica,sans-Serif" font-size="10.00">+</text>
<text text-anchor="start" x="278.46" y="-414" font-family="Helvetica,sans-Serif" font-size="10.00">SetDefaultInitialCondition()</text>
<text text-anchor="start" x="265.46" y="-399" font-family="Helvetica,sans-Serif" font-size="10.00">+</text>
<text text-anchor="start" x="278.46" y="-399" font-family="Helvetica,sans-Serif" font-size="10.00">GetInitialConditions()</text>
<text text-anchor="start" x="265.46" y="-384" font-family="Helvetica,sans-Serif" font-size="10.00">+</text>
<text text-anchor="start" x="278.46" y="-384" font-family="Helvetica,sans-Serif" font-size="10.00">rGetStateVariableNames()</text>
<text text-anchor="start" x="265.46" y="-369" font-family="Helvetica,sans-Serif" font-size="10.00">+</text>
<text text-anchor="start" x="278.46" y="-369" font-family="Helvetica,sans-Serif" font-size="10.00">rGetStateVariableUnits()</text>
<text text-anchor="start" x="278.46" y="-354" font-family="Helvetica,sans-Serif" font-size="10.00">and 21 more...</text>
<text text-anchor="start" x="265.46" y="-339" font-family="Helvetica,sans-Serif" font-size="10.00">#</text>
<text text-anchor="start" x="278.46" y="-339" font-family="Helvetica,sans-Serif" font-size="10.00">Initialise()</text>
<polygon fill="#666666" stroke="#666666" points="261.46,-529 261.46,-529 452.46,-529 452.46,-529 261.46,-529"/>
<polygon fill="#666666" stroke="#666666" points="261.46,-514 261.46,-514 452.46,-514 452.46,-514 261.46,-514"/>
<polygon fill="none" stroke="#666666" points="260.96,-332 260.96,-546 451.96,-546 451.96,-332 260.96,-332"/>
</a>
</g>
</g>
<!-- Node2&#45;&gt;Node1 -->
<g id="edge1_Node000001_Node000002" class="edge">
<title>Node2&#45;&gt;Node1</title>
<g id="a_edge1_Node000001_Node000002"><a xlink:title=" ">
<path fill="none" stroke="#63b8ff" d="M397.03,-322.01C401.27,-309.87 405.62,-297.42 409.96,-285.04"/>
<polygon fill="none" stroke="#63b8ff" points="393.64,-321.08 393.64,-331.68 400.25,-323.39 393.64,-321.08"/>
</a>
</g>
</g>
<!-- Node3 -->
<g id="Node000003" class="node">
<title>Node3</title>
<g id="a_Node000003"><a xlink:title=" ">
<polygon fill="white" stroke="transparent" points="131.96,-804 72.96,-804 72.96,-755 131.96,-755 131.96,-804"/>
<text text-anchor="start" x="78.46" y="-791.5" font-family="Helvetica,sans-Serif" font-size="10.00">std::string</text>
<text text-anchor="start" x="100.96" y="-776.5" font-family="Helvetica,sans-Serif" font-size="10.00"> </text>
<text text-anchor="start" x="100.96" y="-761.5" font-family="Helvetica,sans-Serif" font-size="10.00"> </text>
<polygon fill="#666666" stroke="#666666" points="73.46,-786.5 73.46,-786.5 132.46,-786.5 132.46,-786.5 73.46,-786.5"/>
<polygon fill="#666666" stroke="#666666" points="73.46,-771.5 73.46,-771.5 132.46,-771.5 132.46,-771.5 73.46,-771.5"/>
<polygon fill="none" stroke="#666666" points="72.96,-755 72.96,-804 131.96,-804 131.96,-755 72.96,-755"/>
</a>
</g>
</g>
<!-- Node3&#45;&gt;Node2 -->
<g id="edge2_Node000002_Node000003" class="edge">
<title>Node3&#45;&gt;Node2</title>
<g id="a_edge2_Node000002_Node000003"><a xlink:title=" ">
<path fill="none" stroke="#63b8ff" d="M72.54,-765.07C50.63,-753.43 22.53,-734.31 9.46,-708 -2.41,-684.12 -3.69,-671.2 9.46,-648 60.46,-557.97 167.68,-502.67 249.52,-471.95"/>
<polygon fill="none" stroke="#63b8ff" points="249.62,-471.91 253.88,-466.09 260.89,-467.78 256.63,-473.6 249.62,-471.91"/>
</a>
</g>
<text text-anchor="middle" x="65.46" y="-686.5" font-family="Helvetica,sans-Serif" font-size="10.00" fill="grey"> #mFreeVariableName</text>
<text text-anchor="middle" x="65.46" y="-675.5" font-family="Helvetica,sans-Serif" font-size="10.00" fill="grey">#mFreeVariableUnits</text>
<text text-anchor="middle" x="65.46" y="-664.5" font-family="Helvetica,sans-Serif" font-size="10.00" fill="grey">#mSystemName</text>
</g>
<!-- Node5 -->
<g id="Node000005" class="node">
<title>Node5</title>
<g id="a_Node000005"><a xlink:title=" ">
<polygon fill="white" stroke="transparent" points="264.46,-702.5 130.46,-702.5 130.46,-653.5 264.46,-653.5 264.46,-702.5"/>
<text text-anchor="start" x="135.46" y="-690" font-family="Helvetica,sans-Serif" font-size="10.00">std::vector&lt; std::string &gt;</text>
<text text-anchor="start" x="195.46" y="-675" font-family="Helvetica,sans-Serif" font-size="10.00"> </text>
<text text-anchor="start" x="195.46" y="-660" font-family="Helvetica,sans-Serif" font-size="10.00"> </text>
<polygon fill="#666666" stroke="#666666" points="130.46,-685 130.46,-685 264.46,-685 264.46,-685 130.46,-685"/>
<polygon fill="#666666" stroke="#666666" points="130.46,-670 130.46,-670 264.46,-670 264.46,-670 130.46,-670"/>
<polygon fill="none" stroke="#666666" points="130.46,-653.5 130.46,-702.5 264.46,-702.5 264.46,-653.5 130.46,-653.5"/>
</a>
</g>
</g>
<!-- Node3&#45;&gt;Node5 -->
<g id="edge5_Node000005_Node000003" class="edge">
<title>Node3&#45;&gt;Node5</title>
<g id="a_edge5_Node000005_Node000003"><a xlink:title=" ">
<path fill="none" stroke="#63b8ff" d="M114.25,-754.96C119.66,-745.4 126.62,-734.6 134.46,-726 139.52,-720.44 145.33,-715.09 151.32,-710.13"/>
<polygon fill="none" stroke="#63b8ff" points="151.38,-710.08 153.62,-703.23 160.81,-702.66 158.56,-709.52 151.38,-710.08"/>
</a>
</g>
<text text-anchor="middle" x="163.46" y="-729" font-family="Helvetica,sans-Serif" font-size="10.00" fill="grey"> +elements</text>
</g>
<!-- Node8 -->
<g id="Node000008" class="node">
<title>Node8</title>
<g id="a_Node000008"><a xlink:title=" ">
<polygon fill="white" stroke="transparent" points="546.46,-708 430.46,-708 430.46,-648 546.46,-648 546.46,-708"/>
<text text-anchor="start" x="435.46" y="-696" font-family="Helvetica,sans-Serif" font-size="10.00">std::map&lt; std::string,</text>
<text text-anchor="start" x="464.46" y="-685" font-family="Helvetica,sans-Serif" font-size="10.00"> double &gt;</text>
<text text-anchor="start" x="486.46" y="-670" font-family="Helvetica,sans-Serif" font-size="10.00"> </text>
<text text-anchor="start" x="486.46" y="-655" font-family="Helvetica,sans-Serif" font-size="10.00"> </text>
<polygon fill="#666666" stroke="#666666" points="430.46,-680 430.46,-680 546.46,-680 546.46,-680 430.46,-680"/>
<polygon fill="#666666" stroke="#666666" points="430.46,-665 430.46,-665 546.46,-665 546.46,-665 430.46,-665"/>
<polygon fill="none" stroke="#666666" points="430.46,-648 430.46,-708 546.46,-708 546.46,-648 430.46,-648"/>
</a>
</g>
</g>
<!-- Node3&#45;&gt;Node8 -->
<g id="edge9_Node000008_Node000003" class="edge">
<title>Node3&#45;&gt;Node8</title>
<g id="a_edge9_Node000008_Node000003"><a xlink:title=" ">
<path fill="none" stroke="#63b8ff" d="M131.97,-772.63C157.07,-767.71 194.07,-760.6 226.46,-755 277.43,-746.18 292.69,-754.25 341.46,-737 350.66,-733.75 351.49,-729.85 360.46,-726 383.38,-716.15 392.66,-717.17 418.79,-708.67"/>
<polygon fill="none" stroke="#63b8ff" points="418.82,-708.66 423.18,-702.91 430.16,-704.73 425.8,-710.47 418.82,-708.66"/>
</a>
</g>
<text text-anchor="middle" x="377.46" y="-729" font-family="Helvetica,sans-Serif" font-size="10.00" fill="grey"> +keys</text>
</g>
<!-- Node4 -->
<g id="Node000004" class="node">
<title>Node4</title>
<g id="a_Node000004"><a xlink:title=" ">
<polygon fill="white" stroke="transparent" points="151.46,-911 53.46,-911 53.46,-851 151.46,-851 151.46,-911"/>
<text text-anchor="start" x="58.46" y="-899" font-family="Helvetica,sans-Serif" font-size="10.00">std::basic_string&lt;</text>
<text text-anchor="start" x="83.96" y="-888" font-family="Helvetica,sans-Serif" font-size="10.00"> Char &gt;</text>
<text text-anchor="start" x="100.46" y="-873" font-family="Helvetica,sans-Serif" font-size="10.00"> </text>
<text text-anchor="start" x="100.46" y="-858" font-family="Helvetica,sans-Serif" font-size="10.00"> </text>
<polygon fill="#666666" stroke="#666666" points="53.46,-883 53.46,-883 151.46,-883 151.46,-883 53.46,-883"/>
<polygon fill="#666666" stroke="#666666" points="53.46,-868 53.46,-868 151.46,-868 151.46,-868 53.46,-868"/>
<polygon fill="none" stroke="#666666" points="53.46,-851 53.46,-911 151.46,-911 151.46,-851 53.46,-851"/>
</a>
</g>
</g>
<!-- Node4&#45;&gt;Node3 -->
<g id="edge3_Node000003_Node000004" class="edge">
<title>Node4&#45;&gt;Node3</title>
<g id="a_edge3_Node000003_Node000004"><a xlink:title=" ">
<path fill="none" stroke="#63b8ff" d="M102.46,-840.8C102.46,-828.38 102.46,-815.03 102.46,-804.06"/>
<polygon fill="none" stroke="#63b8ff" points="98.96,-840.95 102.46,-850.95 105.96,-840.95 98.96,-840.95"/>
</a>
</g>
</g>
<!-- Node5&#45;&gt;Node2 -->
<g id="edge4_Node000002_Node000005" class="edge">
<title>Node5&#45;&gt;Node2</title>
<g id="a_edge4_Node000002_Node000005"><a xlink:title=" ">
<path fill="none" stroke="#63b8ff" d="M196.4,-653.44C196.35,-629.48 199.11,-592.01 214.46,-564 224.18,-546.24 237.5,-529.83 252.11,-515.14"/>
<polygon fill="none" stroke="#63b8ff" points="252.21,-515.04 253.74,-507.99 260.84,-506.7 259.31,-513.74 252.21,-515.04"/>
</a>
</g>
<text text-anchor="middle" x="282.46" y="-622" font-family="Helvetica,sans-Serif" font-size="10.00" fill="grey"> #mDerivedQuantityNames</text>
<text text-anchor="middle" x="282.46" y="-611" font-family="Helvetica,sans-Serif" font-size="10.00" fill="grey">#mDerivedQuantityUnits</text>
<text text-anchor="middle" x="282.46" y="-600" font-family="Helvetica,sans-Serif" font-size="10.00" fill="grey">#mParameterNames</text>
<text text-anchor="middle" x="282.46" y="-589" font-family="Helvetica,sans-Serif" font-size="10.00" fill="grey">#mParameterUnits</text>
<text text-anchor="middle" x="282.46" y="-578" font-family="Helvetica,sans-Serif" font-size="10.00" fill="grey">#mVariableNames</text>
<text text-anchor="middle" x="282.46" y="-567" font-family="Helvetica,sans-Serif" font-size="10.00" fill="grey">#mVariableUnits</text>
</g>
<!-- Node6 -->
<g id="Node000006" class="node">
<title>Node6</title>
<g id="a_Node000006"><a xlink:title=" ">
<polygon fill="white" stroke="transparent" points="326.96,-804 235.96,-804 235.96,-755 326.96,-755 326.96,-804"/>
<text text-anchor="start" x="241.46" y="-791.5" font-family="Helvetica,sans-Serif" font-size="10.00">std::vector&lt; T &gt;</text>
<text text-anchor="start" x="279.96" y="-776.5" font-family="Helvetica,sans-Serif" font-size="10.00"> </text>
<text text-anchor="start" x="279.96" y="-761.5" font-family="Helvetica,sans-Serif" font-size="10.00"> </text>
<polygon fill="#666666" stroke="#666666" points="236.46,-786.5 236.46,-786.5 327.46,-786.5 327.46,-786.5 236.46,-786.5"/>
<polygon fill="#666666" stroke="#666666" points="236.46,-771.5 236.46,-771.5 327.46,-771.5 327.46,-771.5 236.46,-771.5"/>
<polygon fill="none" stroke="#666666" points="235.96,-755 235.96,-804 326.96,-804 326.96,-755 235.96,-755"/>
</a>
</g>
</g>
<!-- Node6&#45;&gt;Node5 -->
<g id="edge6_Node000005_Node000006" class="edge">
<title>Node6&#45;&gt;Node5</title>
<g id="a_edge6_Node000005_Node000006"><a xlink:title=" ">
<path fill="none" stroke="orange" d="M226.59,-760.34C216.32,-754.48 206.83,-746.85 200.46,-737 193.99,-727.01 192.85,-713.91 193.5,-702.68"/>
<polygon fill="orange" stroke="orange" points="225.25,-763.59 235.75,-765.05 228.46,-757.37 225.25,-763.59"/>
</a>
</g>
<text text-anchor="middle" x="237.96" y="-729" font-family="Helvetica,sans-Serif" font-size="10.00" fill="grey"> &lt; std::string &gt;</text>
</g>
<!-- Node12 -->
<g id="Node000012" class="node">
<title>Node12</title>
<g id="a_Node000012"><a xlink:title=" ">
<polygon fill="white" stroke="transparent" points="412.46,-702.5 294.46,-702.5 294.46,-653.5 412.46,-653.5 412.46,-702.5"/>
<text text-anchor="start" x="299.46" y="-690" font-family="Helvetica,sans-Serif" font-size="10.00">std::vector&lt; double &gt;</text>
<text text-anchor="start" x="351.46" y="-675" font-family="Helvetica,sans-Serif" font-size="10.00"> </text>
<text text-anchor="start" x="351.46" y="-660" font-family="Helvetica,sans-Serif" font-size="10.00"> </text>
<polygon fill="#666666" stroke="#666666" points="294.46,-685 294.46,-685 412.46,-685 412.46,-685 294.46,-685"/>
<polygon fill="#666666" stroke="#666666" points="294.46,-670 294.46,-670 412.46,-670 412.46,-670 294.46,-670"/>
<polygon fill="none" stroke="#666666" points="294.46,-653.5 294.46,-702.5 412.46,-702.5 412.46,-653.5 294.46,-653.5"/>
</a>
</g>
</g>
<!-- Node6&#45;&gt;Node12 -->
<g id="edge16_Node000012_Node000006" class="edge">
<title>Node6&#45;&gt;Node12</title>
<g id="a_edge16_Node000012_Node000006"><a xlink:title=" ">
<path fill="none" stroke="orange" d="M277.39,-744.73C277.88,-738.21 279.35,-731.66 282.46,-726 287.51,-716.8 295.23,-709.09 303.73,-702.75"/>
<polygon fill="orange" stroke="orange" points="273.89,-744.78 277.32,-754.8 280.89,-744.82 273.89,-744.78"/>
</a>
</g>
<text text-anchor="middle" x="311.96" y="-729" font-family="Helvetica,sans-Serif" font-size="10.00" fill="grey"> &lt; double &gt;</text>
</g>
<!-- Node7 -->
<g id="Node000007" class="node">
<title>Node7</title>
<g id="a_Node000007"><a xlink:title=" ">
<polygon fill="white" stroke="transparent" points="385.96,-905.5 368.96,-905.5 368.96,-856.5 385.96,-856.5 385.96,-905.5"/>
<text text-anchor="start" x="374.46" y="-893" font-family="Helvetica,sans-Serif" font-size="10.00">T</text>
<text text-anchor="start" x="375.96" y="-878" font-family="Helvetica,sans-Serif" font-size="10.00"> </text>
<text text-anchor="start" x="375.96" y="-863" font-family="Helvetica,sans-Serif" font-size="10.00"> </text>
<polygon fill="#bfbfbf" stroke="#bfbfbf" points="369.46,-888 369.46,-888 386.46,-888 386.46,-888 369.46,-888"/>
<polygon fill="#bfbfbf" stroke="#bfbfbf" points="369.46,-873 369.46,-873 386.46,-873 386.46,-873 369.46,-873"/>
<polygon fill="none" stroke="#bfbfbf" points="368.96,-856.5 368.96,-905.5 385.96,-905.5 385.96,-856.5 368.96,-856.5"/>
</a>
</g>
</g>
<!-- Node7&#45;&gt;Node6 -->
<g id="edge7_Node000006_Node000007" class="edge">
<title>Node7&#45;&gt;Node6</title>
<g id="a_edge7_Node000006_Node000007"><a xlink:title=" ">
<path fill="none" stroke="#63b8ff" d="M368.94,-871.17C356.47,-858.24 332.59,-833.49 312.92,-813.11"/>
<polygon fill="none" stroke="#63b8ff" points="312.85,-813.04 305.81,-811.5 304.52,-804.4 311.57,-805.94 312.85,-813.04"/>
</a>
</g>
<text text-anchor="middle" x="358.46" y="-825" font-family="Helvetica,sans-Serif" font-size="10.00" fill="grey"> +elements</text>
</g>
<!-- Node10 -->
<g id="Node000010" class="node">
<title>Node10</title>
<g id="a_Node000010"><a xlink:title=" ">
<polygon fill="white" stroke="transparent" points="610.96,-804 515.96,-804 515.96,-755 610.96,-755 610.96,-804"/>
<text text-anchor="start" x="521.46" y="-791.5" font-family="Helvetica,sans-Serif" font-size="10.00">std::map&lt; K, T &gt;</text>
<text text-anchor="start" x="561.96" y="-776.5" font-family="Helvetica,sans-Serif" font-size="10.00"> </text>
<text text-anchor="start" x="561.96" y="-761.5" font-family="Helvetica,sans-Serif" font-size="10.00"> </text>
<polygon fill="#666666" stroke="#666666" points="516.46,-786.5 516.46,-786.5 611.46,-786.5 611.46,-786.5 516.46,-786.5"/>
<polygon fill="#666666" stroke="#666666" points="516.46,-771.5 516.46,-771.5 611.46,-771.5 611.46,-771.5 516.46,-771.5"/>
<polygon fill="none" stroke="#666666" points="515.96,-755 515.96,-804 610.96,-804 610.96,-755 515.96,-755"/>
</a>
</g>
</g>
<!-- Node7&#45;&gt;Node10 -->
<g id="edge13_Node000010_Node000007" class="edge">
<title>Node7&#45;&gt;Node10</title>
<g id="a_edge13_Node000010_Node000007"><a xlink:title=" ">
<path fill="none" stroke="#63b8ff" d="M386.43,-875.2C408.17,-863.57 465.09,-833.12 508.57,-809.86"/>
<polygon fill="none" stroke="#63b8ff" points="508.72,-809.78 512.12,-803.42 519.3,-804.12 515.9,-810.48 508.72,-809.78"/>
</a>
</g>
<text text-anchor="middle" x="511.46" y="-825" font-family="Helvetica,sans-Serif" font-size="10.00" fill="grey"> +elements</text>
</g>
<!-- Node8&#45;&gt;Node2 -->
<g id="edge8_Node000002_Node000008" class="edge">
<title>Node8&#45;&gt;Node2</title>
<g id="a_edge8_Node000002_Node000008"><a xlink:title=" ">
<path fill="none" stroke="#63b8ff" d="M484.95,-647.87C481.26,-624.27 474.02,-590.66 460.46,-564 459.22,-561.56 457.92,-559.12 456.57,-556.7"/>
<polygon fill="none" stroke="#63b8ff" points="456.44,-556.47 449.95,-553.32 450.36,-546.12 456.85,-549.27 456.44,-556.47"/>
</a>
</g>
<text text-anchor="middle" x="517.46" y="-594.5" font-family="Helvetica,sans-Serif" font-size="10.00" fill="grey"> #mAttributes</text>
</g>
<!-- Node9 -->
<g id="Node000009" class="node">
<title>Node9</title>
<g id="a_Node000009"><a xlink:href="classdouble.html" target="_top" xlink:title=" ">
<polygon fill="white" stroke="transparent" points="460.46,-804 416.46,-804 416.46,-755 460.46,-755 460.46,-804"/>
<text text-anchor="start" x="421.46" y="-791.5" font-family="Helvetica,sans-Serif" font-size="10.00">double</text>
<text text-anchor="start" x="436.46" y="-776.5" font-family="Helvetica,sans-Serif" font-size="10.00"> </text>
<text text-anchor="start" x="436.46" y="-761.5" font-family="Helvetica,sans-Serif" font-size="10.00"> </text>
<polygon fill="#bfbfbf" stroke="#bfbfbf" points="416.46,-786.5 416.46,-786.5 460.46,-786.5 460.46,-786.5 416.46,-786.5"/>
<polygon fill="#bfbfbf" stroke="#bfbfbf" points="416.46,-771.5 416.46,-771.5 460.46,-771.5 460.46,-771.5 416.46,-771.5"/>
<polygon fill="none" stroke="#bfbfbf" points="416.46,-755 416.46,-804 460.46,-804 460.46,-755 416.46,-755"/>
</a>
</g>
</g>
<!-- Node9&#45;&gt;Node8 -->
<g id="edge10_Node000008_Node000009" class="edge">
<title>Node9&#45;&gt;Node8</title>
<g id="a_edge10_Node000008_Node000009"><a xlink:title=" ">
<path fill="none" stroke="#63b8ff" d="M460.5,-761.13C467.65,-754.36 474.9,-746.05 479.46,-737 482.1,-731.76 484.01,-725.94 485.38,-720.07"/>
<polygon fill="none" stroke="#63b8ff" points="485.4,-719.93 482.51,-713.32 487.5,-708.11 490.39,-714.72 485.4,-719.93"/>
</a>
</g>
<text text-anchor="middle" x="513.46" y="-729" font-family="Helvetica,sans-Serif" font-size="10.00" fill="grey"> +elements</text>
</g>
<!-- Node9&#45;&gt;Node12 -->
<g id="edge15_Node000012_Node000009" class="edge">
<title>Node9&#45;&gt;Node12</title>
<g id="a_edge15_Node000012_Node000009"><a xlink:title=" ">
<path fill="none" stroke="#63b8ff" d="M421.29,-754.8C414.41,-745.62 406.28,-735.14 398.46,-726 394.43,-721.29 390.07,-716.44 385.69,-711.73"/>
<polygon fill="none" stroke="#63b8ff" points="385.59,-711.63 378.56,-710.02 377.35,-702.91 384.38,-704.52 385.59,-711.63"/>
</a>
</g>
<text text-anchor="middle" x="436.46" y="-729" font-family="Helvetica,sans-Serif" font-size="10.00" fill="grey"> +elements</text>
</g>
<!-- Node10&#45;&gt;Node8 -->
<g id="edge11_Node000008_Node000010" class="edge">
<title>Node10&#45;&gt;Node8</title>
<g id="a_edge11_Node000008_Node000010"><a xlink:title=" ">
<path fill="none" stroke="orange" d="M555.91,-745.28C553.52,-738.56 550.43,-731.78 546.46,-726 542.06,-719.59 536.53,-713.6 530.66,-708.19"/>
<polygon fill="orange" stroke="orange" points="552.61,-746.46 558.92,-754.97 559.29,-744.38 552.61,-746.46"/>
</a>
</g>
<text text-anchor="middle" x="608.46" y="-729" font-family="Helvetica,sans-Serif" font-size="10.00" fill="grey"> &lt; std::string, double &gt;</text>
</g>
<!-- Node11 -->
<g id="Node000011" class="node">
<title>Node11</title>
<g id="a_Node000011"><a xlink:title=" ">
<polygon fill="white" stroke="transparent" points="571.96,-905.5 554.96,-905.5 554.96,-856.5 571.96,-856.5 571.96,-905.5"/>
<text text-anchor="start" x="560.46" y="-893" font-family="Helvetica,sans-Serif" font-size="10.00">K</text>
<text text-anchor="start" x="561.96" y="-878" font-family="Helvetica,sans-Serif" font-size="10.00"> </text>
<text text-anchor="start" x="561.96" y="-863" font-family="Helvetica,sans-Serif" font-size="10.00"> </text>
<polygon fill="#bfbfbf" stroke="#bfbfbf" points="555.46,-888 555.46,-888 572.46,-888 572.46,-888 555.46,-888"/>
<polygon fill="#bfbfbf" stroke="#bfbfbf" points="555.46,-873 555.46,-873 572.46,-873 572.46,-873 555.46,-873"/>
<polygon fill="none" stroke="#bfbfbf" points="554.96,-856.5 554.96,-905.5 571.96,-905.5 571.96,-856.5 554.96,-856.5"/>
</a>
</g>
</g>
<!-- Node11&#45;&gt;Node10 -->
<g id="edge12_Node000010_Node000011" class="edge">
<title>Node11&#45;&gt;Node10</title>
<g id="a_edge12_Node000010_Node000011"><a xlink:title=" ">
<path fill="none" stroke="#63b8ff" d="M563.46,-856.42C563.46,-844.49 563.46,-829.75 563.46,-816.44"/>
<polygon fill="none" stroke="#63b8ff" points="563.46,-816.26 559.46,-810.26 563.46,-804.26 567.46,-810.26 563.46,-816.26"/>
</a>
</g>
<text text-anchor="middle" x="580.46" y="-825" font-family="Helvetica,sans-Serif" font-size="10.00" fill="grey"> +keys</text>
</g>
<!-- Node12&#45;&gt;Node2 -->
<g id="edge14_Node000002_Node000012" class="edge">
<title>Node12&#45;&gt;Node2</title>
<g id="a_edge14_Node000002_Node000012"><a xlink:title=" ">
<path fill="none" stroke="#63b8ff" d="M353.76,-653.41C354.04,-630.69 354.5,-594.53 354.96,-558.39"/>
<polygon fill="none" stroke="#63b8ff" points="354.96,-558.15 351.04,-552.1 355.11,-546.15 359.04,-552.2 354.96,-558.15"/>
</a>
</g>
<text text-anchor="middle" x="405.96" y="-594.5" font-family="Helvetica,sans-Serif" font-size="10.00" fill="grey"> #mInitialConditions</text>
</g>
<!-- Node13 -->
<g id="Node000013" class="node">
<title>Node13</title>
<g id="a_Node000013"><a xlink:href="classbool.html" target="_top" xlink:title=" ">
<polygon fill="white" stroke="transparent" points="596.46,-702.5 564.46,-702.5 564.46,-653.5 596.46,-653.5 596.46,-702.5"/>
<text text-anchor="start" x="569.46" y="-690" font-family="Helvetica,sans-Serif" font-size="10.00">bool</text>
<text text-anchor="start" x="578.46" y="-675" font-family="Helvetica,sans-Serif" font-size="10.00"> </text>
<text text-anchor="start" x="578.46" y="-660" font-family="Helvetica,sans-Serif" font-size="10.00"> </text>
<polygon fill="#bfbfbf" stroke="#bfbfbf" points="564.46,-685 564.46,-685 596.46,-685 596.46,-685 564.46,-685"/>
<polygon fill="#bfbfbf" stroke="#bfbfbf" points="564.46,-670 564.46,-670 596.46,-670 596.46,-670 564.46,-670"/>
<polygon fill="none" stroke="#bfbfbf" points="564.46,-653.5 564.46,-702.5 596.46,-702.5 596.46,-653.5 564.46,-653.5"/>
</a>
</g>
</g>
<!-- Node13&#45;&gt;Node2 -->
<g id="edge17_Node000002_Node000013" class="edge">
<title>Node13&#45;&gt;Node2</title>
<g id="a_edge17_Node000002_Node000013"><a xlink:title=" ">
<path fill="none" stroke="#63b8ff" d="M582.48,-653.09C583.25,-627.39 580.11,-587.14 556.46,-564 528.2,-536.36 503.65,-561.41 462.97,-545.63"/>
<polygon fill="none" stroke="#63b8ff" points="462.85,-545.58 455.72,-546.68 451.97,-540.52 459.09,-539.42 462.85,-545.58"/>
</a>
</g>
<text text-anchor="middle" x="616.46" y="-594.5" font-family="Helvetica,sans-Serif" font-size="10.00" fill="grey"> #mInitialised</text>
</g>
<!-- Node14 -->
<g id="Node000014" class="node">
<title>Node14</title>
<g id="a_Node000014"><a xlink:title=" ">
<polygon fill="white" stroke="transparent" points="656.96,-469 469.96,-469 469.96,-409 656.96,-409 656.96,-469"/>
<text text-anchor="start" x="475.46" y="-457" font-family="Helvetica,sans-Serif" font-size="10.00">shared_ptr&lt; OdeSystemInformation</text>
<text text-anchor="start" x="513.96" y="-446" font-family="Helvetica,sans-Serif" font-size="10.00">&lt; ODE_SYSTEM &gt; &gt;</text>
<text text-anchor="start" x="561.96" y="-431" font-family="Helvetica,sans-Serif" font-size="10.00"> </text>
<text text-anchor="start" x="561.96" y="-416" font-family="Helvetica,sans-Serif" font-size="10.00"> </text>
<polygon fill="#bfbfbf" stroke="#bfbfbf" points="470.46,-441 470.46,-441 657.46,-441 657.46,-441 470.46,-441"/>
<polygon fill="#bfbfbf" stroke="#bfbfbf" points="470.46,-426 470.46,-426 657.46,-426 657.46,-426 470.46,-426"/>
<polygon fill="none" stroke="#bfbfbf" points="469.96,-409 469.96,-469 656.96,-469 656.96,-409 469.96,-409"/>
</a>
</g>
</g>
<!-- Node14&#45;&gt;Node1 -->
<g id="edge18_Node000001_Node000014" class="edge">
<title>Node14&#45;&gt;Node1</title>
<g id="a_edge18_Node000001_Node000014"><a xlink:title=" ">
<path fill="none" stroke="#63b8ff" d="M553.2,-408.96C543.68,-381.98 528.71,-339.6 513.51,-296.56"/>
<polygon fill="none" stroke="#63b8ff" points="513.43,-296.33 507.66,-292.01 509.43,-285.02 515.2,-289.34 513.43,-296.33"/>
</a>
</g>
<text text-anchor="middle" x="550.46" y="-306" font-family="Helvetica,sans-Serif" font-size="10.00" fill="grey"> &#45;mpInstance</text>
</g>
</g>
</svg>
