<?xml version="1.0" encoding="UTF-8" standalone="no"?>
<!DOCTYPE svg PUBLIC "-//W3C//DTD SVG 1.1//EN"
 "http://www.w3.org/Graphics/SVG/1.1/DTD/svg11.dtd">
<!-- Generated by graphviz version 2.43.0 (0)
 -->
<!-- Title: BuskeElasticForce&lt; DIM &gt; Pages: 1 -->
<svg width="308pt" height="990pt"
 viewBox="0.00 0.00 307.50 990.00" xmlns="http://www.w3.org/2000/svg" xmlns:xlink="http://www.w3.org/1999/xlink">
<g id="graph0" class="graph" transform="scale(1 1) rotate(0) translate(4 986)">
<title>BuskeElasticForce&lt; DIM &gt;</title>
<!-- Node1 -->
<g id="Node000001" class="node">
<title>Node1</title>
<g id="a_Node000001"><a xlink:title=" ">
<polygon fill="#999999" stroke="transparent" points="192,-150 0,-150 0,0 192,0 192,-150"/>
<text text-anchor="start" x="47.5" y="-138" font-family="Helvetica,sans-Serif" font-size="10.00">BuskeElasticForce&lt;</text>
<text text-anchor="start" x="79" y="-127" font-family="Helvetica,sans-Serif" font-size="10.00"> DIM &gt;</text>
<text text-anchor="start" x="6.5" y="-112" font-family="Helvetica,sans-Serif" font-size="10.00">&#45;</text>
<text text-anchor="start" x="17" y="-112" font-family="Helvetica,sans-Serif" font-size="10.00">mDeformationEnergyParameter</text>
<text text-anchor="start" x="4" y="-97" font-family="Helvetica,sans-Serif" font-size="10.00">+</text>
<text text-anchor="start" x="17" y="-97" font-family="Helvetica,sans-Serif" font-size="10.00">BuskeElasticForce()</text>
<text text-anchor="start" x="4" y="-82" font-family="Helvetica,sans-Serif" font-size="10.00">+</text>
<text text-anchor="start" x="17" y="-82" font-family="Helvetica,sans-Serif" font-size="10.00">GetDeformationEnergyParameter()</text>
<text text-anchor="start" x="4" y="-67" font-family="Helvetica,sans-Serif" font-size="10.00">+</text>
<text text-anchor="start" x="17" y="-67" font-family="Helvetica,sans-Serif" font-size="10.00">SetDeformationEnergyParameter()</text>
<text text-anchor="start" x="4" y="-52" font-family="Helvetica,sans-Serif" font-size="10.00">+</text>
<text text-anchor="start" x="17" y="-52" font-family="Helvetica,sans-Serif" font-size="10.00">CalculateForceBetweenNodes()</text>
<text text-anchor="start" x="4" y="-37" font-family="Helvetica,sans-Serif" font-size="10.00">+</text>
<text text-anchor="start" x="17" y="-37" font-family="Helvetica,sans-Serif" font-size="10.00">GetMagnitudeOfForce()</text>
<text text-anchor="start" x="4" y="-22" font-family="Helvetica,sans-Serif" font-size="10.00">+</text>
<text text-anchor="start" x="17" y="-22" font-family="Helvetica,sans-Serif" font-size="10.00">OutputForceParameters()</text>
<text text-anchor="start" x="6.5" y="-7" font-family="Helvetica,sans-Serif" font-size="10.00">&#45;</text>
<text text-anchor="start" x="17" y="-7" font-family="Helvetica,sans-Serif" font-size="10.00">serialize()</text>
<polygon fill="#666666" stroke="#666666" points="0,-122 0,-122 192,-122 192,-122 0,-122"/>
<polygon fill="#666666" stroke="#666666" points="0,-107 0,-107 15,-107 15,-107 0,-107"/>
<polygon fill="#666666" stroke="#666666" points="15,-107 15,-107 192,-107 192,-107 15,-107"/>
<polygon fill="none" stroke="#666666" points="0,0 0,-150 192,-150 192,0 0,0"/>
</a>
</g>
</g>
<!-- Node2 -->
<g id="Node000002" class="node">
<title>Node2</title>
<g id="a_Node000002"><a xlink:href="classAbstractTwoBodyInteractionForce.html" target="_top" xlink:title=" ">
<polygon fill="white" stroke="transparent" points="183.5,-404 8.5,-404 8.5,-187 183.5,-187 183.5,-404"/>
<text text-anchor="start" x="28" y="-391.5" font-family="Helvetica,sans-Serif" font-size="10.00">AbstractTwoBodyInteraction</text>
<text text-anchor="start" x="62" y="-380.5" font-family="Helvetica,sans-Serif" font-size="10.00">Force&lt; DIM &gt;</text>
<text text-anchor="start" x="13" y="-365.5" font-family="Helvetica,sans-Serif" font-size="10.00">#</text>
<text text-anchor="start" x="26" y="-365.5" font-family="Helvetica,sans-Serif" font-size="10.00">mUseCutOffLength</text>
<text text-anchor="start" x="13" y="-350.5" font-family="Helvetica,sans-Serif" font-size="10.00">#</text>
<text text-anchor="start" x="26" y="-350.5" font-family="Helvetica,sans-Serif" font-size="10.00">mMechanicsCutOffLength</text>
<text text-anchor="start" x="13" y="-335.5" font-family="Helvetica,sans-Serif" font-size="10.00">+</text>
<text text-anchor="start" x="26" y="-335.5" font-family="Helvetica,sans-Serif" font-size="10.00">AbstractTwoBodyInteraction</text>
<text text-anchor="start" x="26" y="-324.5" font-family="Helvetica,sans-Serif" font-size="10.00">Force()</text>
<text text-anchor="start" x="13" y="-309.5" font-family="Helvetica,sans-Serif" font-size="10.00">+</text>
<text text-anchor="start" x="26" y="-309.5" font-family="Helvetica,sans-Serif" font-size="10.00">GetUseCutOffLength()</text>
<text text-anchor="start" x="13" y="-294.5" font-family="Helvetica,sans-Serif" font-size="10.00">+</text>
<text text-anchor="start" x="26" y="-294.5" font-family="Helvetica,sans-Serif" font-size="10.00">SetCutOffLength()</text>
<text text-anchor="start" x="13" y="-279.5" font-family="Helvetica,sans-Serif" font-size="10.00">+</text>
<text text-anchor="start" x="26" y="-279.5" font-family="Helvetica,sans-Serif" font-size="10.00">GetCutOffLength()</text>
<text text-anchor="start" x="13" y="-264.5" font-family="Helvetica,sans-Serif" font-size="10.00">+</text>
<text text-anchor="start" x="26" y="-264.5" font-family="Helvetica,sans-Serif" font-size="10.00">CalculateForceBetweenNodes()</text>
<text text-anchor="start" x="13" y="-249.5" font-family="Helvetica,sans-Serif" font-size="10.00">+</text>
<text text-anchor="start" x="26" y="-249.5" font-family="Helvetica,sans-Serif" font-size="10.00">AddForceContribution()</text>
<text text-anchor="start" x="13" y="-234.5" font-family="Helvetica,sans-Serif" font-size="10.00">+</text>
<text text-anchor="start" x="26" y="-234.5" font-family="Helvetica,sans-Serif" font-size="10.00">OutputForceParameters()</text>
<text text-anchor="start" x="13" y="-219.5" font-family="Helvetica,sans-Serif" font-size="10.00">+</text>
<text text-anchor="start" x="26" y="-219.5" font-family="Helvetica,sans-Serif" font-size="10.00">WriteDataToVisualizerSetup</text>
<text text-anchor="start" x="26" y="-208.5" font-family="Helvetica,sans-Serif" font-size="10.00">File()</text>
<text text-anchor="start" x="15.5" y="-193.5" font-family="Helvetica,sans-Serif" font-size="10.00">&#45;</text>
<text text-anchor="start" x="26" y="-193.5" font-family="Helvetica,sans-Serif" font-size="10.00">serialize()</text>
<polygon fill="#666666" stroke="#666666" points="9,-375.5 9,-375.5 184,-375.5 184,-375.5 9,-375.5"/>
<polygon fill="#666666" stroke="#666666" points="9,-345.5 9,-345.5 24,-345.5 24,-345.5 9,-345.5"/>
<polygon fill="#666666" stroke="#666666" points="24,-345.5 24,-345.5 184,-345.5 184,-345.5 24,-345.5"/>
<polygon fill="none" stroke="#666666" points="8.5,-187 8.5,-404 183.5,-404 183.5,-187 8.5,-187"/>
</a>
</g>
</g>
<!-- Node2&#45;&gt;Node1 -->
<g id="edge1_Node000001_Node000002" class="edge">
<title>Node2&#45;&gt;Node1</title>
<g id="a_edge1_Node000001_Node000002"><a xlink:title=" ">
<path fill="none" stroke="#63b8ff" d="M96,-176.7C96,-167.72 96,-158.82 96,-150.24"/>
<polygon fill="none" stroke="#63b8ff" points="92.5,-176.85 96,-186.85 99.5,-176.85 92.5,-176.85"/>
</a>
</g>
</g>
<!-- Node3 -->
<g id="Node000003" class="node">
<title>Node3</title>
<g id="a_Node000003"><a xlink:href="classAbstractForce.html" target="_top" xlink:title=" ">
<polygon fill="white" stroke="transparent" points="170.5,-866 13.5,-866 13.5,-705 170.5,-705 170.5,-866"/>
<text text-anchor="start" x="30.5" y="-853.5" font-family="Helvetica,sans-Serif" font-size="10.00">AbstractForce&lt; ELEMENT</text>
<text text-anchor="start" x="43.5" y="-842.5" font-family="Helvetica,sans-Serif" font-size="10.00">_DIM, SPACE_DIM &gt;</text>
<text text-anchor="start" x="90.5" y="-827.5" font-family="Helvetica,sans-Serif" font-size="10.00"> </text>
<text text-anchor="start" x="18" y="-812.5" font-family="Helvetica,sans-Serif" font-size="10.00">+</text>
<text text-anchor="start" x="31" y="-812.5" font-family="Helvetica,sans-Serif" font-size="10.00">AbstractForce()</text>
<text text-anchor="start" x="18" y="-797.5" font-family="Helvetica,sans-Serif" font-size="10.00">+</text>
<text text-anchor="start" x="31" y="-797.5" font-family="Helvetica,sans-Serif" font-size="10.00">~AbstractForce()</text>
<text text-anchor="start" x="18" y="-782.5" font-family="Helvetica,sans-Serif" font-size="10.00">+</text>
<text text-anchor="start" x="31" y="-782.5" font-family="Helvetica,sans-Serif" font-size="10.00">AddForceContribution()</text>
<text text-anchor="start" x="18" y="-767.5" font-family="Helvetica,sans-Serif" font-size="10.00">+</text>
<text text-anchor="start" x="31" y="-767.5" font-family="Helvetica,sans-Serif" font-size="10.00">OutputForceInfo()</text>
<text text-anchor="start" x="18" y="-752.5" font-family="Helvetica,sans-Serif" font-size="10.00">+</text>
<text text-anchor="start" x="31" y="-752.5" font-family="Helvetica,sans-Serif" font-size="10.00">OutputForceParameters()</text>
<text text-anchor="start" x="18" y="-737.5" font-family="Helvetica,sans-Serif" font-size="10.00">+</text>
<text text-anchor="start" x="31" y="-737.5" font-family="Helvetica,sans-Serif" font-size="10.00">WriteDataToVisualizerSetup</text>
<text text-anchor="start" x="31" y="-726.5" font-family="Helvetica,sans-Serif" font-size="10.00">File()</text>
<text text-anchor="start" x="20.5" y="-711.5" font-family="Helvetica,sans-Serif" font-size="10.00">&#45;</text>
<text text-anchor="start" x="31" y="-711.5" font-family="Helvetica,sans-Serif" font-size="10.00">serialize()</text>
<polygon fill="#666666" stroke="#666666" points="14,-837.5 14,-837.5 171,-837.5 171,-837.5 14,-837.5"/>
<polygon fill="#666666" stroke="#666666" points="14,-822.5 14,-822.5 171,-822.5 171,-822.5 14,-822.5"/>
<polygon fill="none" stroke="#666666" points="13.5,-705 13.5,-866 170.5,-866 170.5,-705 13.5,-705"/>
</a>
</g>
</g>
<!-- Node3&#45;&gt;Node2 -->
<g id="edge2_Node000002_Node000003" class="edge">
<title>Node3&#45;&gt;Node2</title>
<g id="a_edge2_Node000002_Node000003"><a xlink:title=" ">
<path fill="none" stroke="#63b8ff" d="M92.74,-694.68C93.41,-612.67 94.4,-491.28 95.12,-404.11"/>
<polygon fill="none" stroke="#63b8ff" points="89.24,-694.71 92.65,-704.74 96.24,-694.76 89.24,-694.71"/>
</a>
</g>
</g>
<!-- Node5 -->
<g id="Node000005" class="node">
<title>Node5</title>
<g id="a_Node000005"><a xlink:href="classAbstractTwoBodyInteractionForce.html" target="_top" xlink:title=" ">
<polygon fill="white" stroke="transparent" points="299.5,-668 108.5,-668 108.5,-451 299.5,-451 299.5,-668"/>
<text text-anchor="start" x="114" y="-655.5" font-family="Helvetica,sans-Serif" font-size="10.00">AbstractTwoBodyInteraction</text>
<text text-anchor="start" x="114" y="-644.5" font-family="Helvetica,sans-Serif" font-size="10.00">Force&lt; ELEMENT_DIM, SPACE_DIM &gt;</text>
<text text-anchor="start" x="117" y="-629.5" font-family="Helvetica,sans-Serif" font-size="10.00">#</text>
<text text-anchor="start" x="134" y="-629.5" font-family="Helvetica,sans-Serif" font-size="10.00">mUseCutOffLength</text>
<text text-anchor="start" x="117" y="-614.5" font-family="Helvetica,sans-Serif" font-size="10.00">#</text>
<text text-anchor="start" x="134" y="-614.5" font-family="Helvetica,sans-Serif" font-size="10.00">mMechanicsCutOffLength</text>
<text text-anchor="start" x="117" y="-599.5" font-family="Helvetica,sans-Serif" font-size="10.00">+</text>
<text text-anchor="start" x="134" y="-599.5" font-family="Helvetica,sans-Serif" font-size="10.00">AbstractTwoBodyInteraction</text>
<text text-anchor="start" x="134" y="-588.5" font-family="Helvetica,sans-Serif" font-size="10.00">Force()</text>
<text text-anchor="start" x="117" y="-573.5" font-family="Helvetica,sans-Serif" font-size="10.00">+</text>
<text text-anchor="start" x="134" y="-573.5" font-family="Helvetica,sans-Serif" font-size="10.00">GetUseCutOffLength()</text>
<text text-anchor="start" x="117" y="-558.5" font-family="Helvetica,sans-Serif" font-size="10.00">+</text>
<text text-anchor="start" x="134" y="-558.5" font-family="Helvetica,sans-Serif" font-size="10.00">SetCutOffLength()</text>
<text text-anchor="start" x="117" y="-543.5" font-family="Helvetica,sans-Serif" font-size="10.00">+</text>
<text text-anchor="start" x="134" y="-543.5" font-family="Helvetica,sans-Serif" font-size="10.00">GetCutOffLength()</text>
<text text-anchor="start" x="117" y="-528.5" font-family="Helvetica,sans-Serif" font-size="10.00">+</text>
<text text-anchor="start" x="134" y="-528.5" font-family="Helvetica,sans-Serif" font-size="10.00">CalculateForceBetweenNodes()</text>
<text text-anchor="start" x="117" y="-513.5" font-family="Helvetica,sans-Serif" font-size="10.00">+</text>
<text text-anchor="start" x="134" y="-513.5" font-family="Helvetica,sans-Serif" font-size="10.00">AddForceContribution()</text>
<text text-anchor="start" x="117" y="-498.5" font-family="Helvetica,sans-Serif" font-size="10.00">+</text>
<text text-anchor="start" x="134" y="-498.5" font-family="Helvetica,sans-Serif" font-size="10.00">OutputForceParameters()</text>
<text text-anchor="start" x="117" y="-483.5" font-family="Helvetica,sans-Serif" font-size="10.00">+</text>
<text text-anchor="start" x="134" y="-483.5" font-family="Helvetica,sans-Serif" font-size="10.00">WriteDataToVisualizerSetup</text>
<text text-anchor="start" x="134" y="-472.5" font-family="Helvetica,sans-Serif" font-size="10.00">File()</text>
<text text-anchor="start" x="119.5" y="-457.5" font-family="Helvetica,sans-Serif" font-size="10.00">&#45;</text>
<text text-anchor="start" x="134" y="-457.5" font-family="Helvetica,sans-Serif" font-size="10.00">serialize()</text>
<polygon fill="#666666" stroke="#666666" points="109,-639.5 109,-639.5 300,-639.5 300,-639.5 109,-639.5"/>
<polygon fill="#666666" stroke="#666666" points="109,-609.5 109,-609.5 132,-609.5 132,-609.5 109,-609.5"/>
<polygon fill="#666666" stroke="#666666" points="132,-609.5 132,-609.5 300,-609.5 300,-609.5 132,-609.5"/>
<polygon fill="none" stroke="#666666" points="108.5,-451 108.5,-668 299.5,-668 299.5,-451 108.5,-451"/>
</a>
</g>
</g>
<!-- Node3&#45;&gt;Node5 -->
<g id="edge5_Node000005_Node000003" class="edge">
<title>Node3&#45;&gt;Node5</title>
<g id="a_edge5_Node000005_Node000003"><a xlink:title=" ">
<path fill="none" stroke="#63b8ff" d="M136.33,-695.84C140.89,-686.71 145.57,-677.36 150.22,-668.05"/>
<polygon fill="none" stroke="#63b8ff" points="133.14,-694.39 131.8,-704.9 139.41,-697.52 133.14,-694.39"/>
</a>
</g>
</g>
<!-- Node4 -->
<g id="Node000004" class="node">
<title>Node4</title>
<g id="a_Node000004"><a xlink:href="classIdentifiable.html" target="_top" xlink:title=" ">
<polygon fill="white" stroke="transparent" points="180,-982 4,-982 4,-903 180,-903 180,-982"/>
<text text-anchor="start" x="64.5" y="-969.5" font-family="Helvetica,sans-Serif" font-size="10.00">Identifiable</text>
<text text-anchor="start" x="90" y="-954.5" font-family="Helvetica,sans-Serif" font-size="10.00"> </text>
<text text-anchor="start" x="8" y="-939.5" font-family="Helvetica,sans-Serif" font-size="10.00">+</text>
<text text-anchor="start" x="21" y="-939.5" font-family="Helvetica,sans-Serif" font-size="10.00">~Identifiable()</text>
<text text-anchor="start" x="8" y="-924.5" font-family="Helvetica,sans-Serif" font-size="10.00">+</text>
<text text-anchor="start" x="21" y="-924.5" font-family="Helvetica,sans-Serif" font-size="10.00">GetIdentifier()</text>
<text text-anchor="start" x="10.5" y="-909.5" font-family="Helvetica,sans-Serif" font-size="10.00">&#45;</text>
<text text-anchor="start" x="21" y="-909.5" font-family="Helvetica,sans-Serif" font-size="10.00">TidyTemplatedExportIdentifier()</text>
<polygon fill="#666666" stroke="#666666" points="4,-964.5 4,-964.5 180,-964.5 180,-964.5 4,-964.5"/>
<polygon fill="#666666" stroke="#666666" points="4,-949.5 4,-949.5 180,-949.5 180,-949.5 4,-949.5"/>
<polygon fill="none" stroke="#666666" points="4,-903 4,-982 180,-982 180,-903 4,-903"/>
</a>
</g>
</g>
<!-- Node4&#45;&gt;Node3 -->
<g id="edge3_Node000003_Node000004" class="edge">
<title>Node4&#45;&gt;Node3</title>
<g id="a_edge3_Node000003_Node000004"><a xlink:title=" ">
<path fill="none" stroke="#63b8ff" d="M92,-892.73C92,-884.25 92,-875.23 92,-866.17"/>
<polygon fill="none" stroke="#63b8ff" points="88.5,-892.79 92,-902.79 95.5,-892.79 88.5,-892.79"/>
</a>
</g>
</g>
<!-- Node5&#45;&gt;Node2 -->
<g id="edge4_Node000002_Node000005" class="edge">
<title>Node5&#45;&gt;Node2</title>
<g id="a_edge4_Node000002_Node000005"><a xlink:title=" ">
<path fill="none" stroke="orange" d="M155.72,-441.38C150.62,-429 145.45,-416.46 140.4,-404.2"/>
<polygon fill="orange" stroke="orange" points="152.56,-442.89 159.6,-450.8 159.03,-440.22 152.56,-442.89"/>
</a>
</g>
<text text-anchor="middle" x="173" y="-425" font-family="Helvetica,sans-Serif" font-size="10.00" fill="grey"> &lt; DIM &gt;</text>
</g>
</g>
</svg>
