<?xml version="1.0" encoding="UTF-8" standalone="no"?>
<!DOCTYPE svg PUBLIC "-//W3C//DTD SVG 1.1//EN"
 "http://www.w3.org/Graphics/SVG/1.1/DTD/svg11.dtd">
<!-- Generated by graphviz version 2.43.0 (0)
 -->
<!-- Title: AbstractImmersedBoundaryForce&lt; DIM &gt; Pages: 1 -->
<svg width="471pt" height="414pt"
 viewBox="0.00 0.00 471.00 414.00" xmlns="http://www.w3.org/2000/svg" xmlns:xlink="http://www.w3.org/1999/xlink">
<g id="graph0" class="graph" transform="scale(1 1) rotate(0) translate(4 410)">
<title>AbstractImmersedBoundaryForce&lt; DIM &gt;</title>
<!-- Node1 -->
<g id="Node000001" class="node">
<title>Node1</title>
<g id="a_Node000001"><a xlink:title=" ">
<polygon fill="#999999" stroke="transparent" points="298.5,-269 121.5,-269 121.5,0 298.5,0 298.5,-269"/>
<text text-anchor="start" x="142" y="-256.5" font-family="Helvetica,sans-Serif" font-size="10.00">AbstractImmersedBoundary</text>
<text text-anchor="start" x="176" y="-245.5" font-family="Helvetica,sans-Serif" font-size="10.00">Force&lt; DIM &gt;</text>
<text text-anchor="start" x="208.5" y="-230.5" font-family="Helvetica,sans-Serif" font-size="10.00"> </text>
<text text-anchor="start" x="126" y="-215.5" font-family="Helvetica,sans-Serif" font-size="10.00">+</text>
<text text-anchor="start" x="139" y="-215.5" font-family="Helvetica,sans-Serif" font-size="10.00">AbstractImmersedBoundary</text>
<text text-anchor="start" x="139" y="-204.5" font-family="Helvetica,sans-Serif" font-size="10.00">Force()</text>
<text text-anchor="start" x="126" y="-189.5" font-family="Helvetica,sans-Serif" font-size="10.00">+</text>
<text text-anchor="start" x="139" y="-189.5" font-family="Helvetica,sans-Serif" font-size="10.00">~AbstractImmersedBoundary</text>
<text text-anchor="start" x="139" y="-178.5" font-family="Helvetica,sans-Serif" font-size="10.00">Force()</text>
<text text-anchor="start" x="126" y="-163.5" font-family="Helvetica,sans-Serif" font-size="10.00">+</text>
<text text-anchor="start" x="139" y="-163.5" font-family="Helvetica,sans-Serif" font-size="10.00">AddImmersedBoundaryForce</text>
<text text-anchor="start" x="139" y="-152.5" font-family="Helvetica,sans-Serif" font-size="10.00">Contribution()</text>
<text text-anchor="start" x="126" y="-137.5" font-family="Helvetica,sans-Serif" font-size="10.00">+</text>
<text text-anchor="start" x="139" y="-137.5" font-family="Helvetica,sans-Serif" font-size="10.00">OutputImmersedBoundaryForce</text>
<text text-anchor="start" x="139" y="-126.5" font-family="Helvetica,sans-Serif" font-size="10.00">Parameters()</text>
<text text-anchor="start" x="126" y="-111.5" font-family="Helvetica,sans-Serif" font-size="10.00">+</text>
<text text-anchor="start" x="139" y="-111.5" font-family="Helvetica,sans-Serif" font-size="10.00">GetAdditiveNormalNoise()</text>
<text text-anchor="start" x="126" y="-96.5" font-family="Helvetica,sans-Serif" font-size="10.00">+</text>
<text text-anchor="start" x="139" y="-96.5" font-family="Helvetica,sans-Serif" font-size="10.00">SetAdditiveNormalNoise()</text>
<text text-anchor="start" x="126" y="-81.5" font-family="Helvetica,sans-Serif" font-size="10.00">+</text>
<text text-anchor="start" x="139" y="-81.5" font-family="Helvetica,sans-Serif" font-size="10.00">GetNormalNoiseMean()</text>
<text text-anchor="start" x="126" y="-66.5" font-family="Helvetica,sans-Serif" font-size="10.00">+</text>
<text text-anchor="start" x="139" y="-66.5" font-family="Helvetica,sans-Serif" font-size="10.00">SetNormalNoiseMean()</text>
<text text-anchor="start" x="126" y="-51.5" font-family="Helvetica,sans-Serif" font-size="10.00">+</text>
<text text-anchor="start" x="139" y="-51.5" font-family="Helvetica,sans-Serif" font-size="10.00">GetNormalNoiseStdDev()</text>
<text text-anchor="start" x="126" y="-36.5" font-family="Helvetica,sans-Serif" font-size="10.00">+</text>
<text text-anchor="start" x="139" y="-36.5" font-family="Helvetica,sans-Serif" font-size="10.00">SetNormalNoiseStdDev()</text>
<text text-anchor="start" x="126" y="-21.5" font-family="Helvetica,sans-Serif" font-size="10.00">#</text>
<text text-anchor="start" x="139" y="-21.5" font-family="Helvetica,sans-Serif" font-size="10.00">AddNormalNoiseToNodes()</text>
<text text-anchor="start" x="128.5" y="-6.5" font-family="Helvetica,sans-Serif" font-size="10.00">&#45;</text>
<text text-anchor="start" x="139" y="-6.5" font-family="Helvetica,sans-Serif" font-size="10.00">serialize()</text>
<polygon fill="#666666" stroke="#666666" points="122,-240.5 122,-240.5 299,-240.5 299,-240.5 122,-240.5"/>
<polygon fill="#666666" stroke="#666666" points="122,-225.5 122,-225.5 299,-225.5 299,-225.5 122,-225.5"/>
<polygon fill="none" stroke="#666666" points="121.5,0 121.5,-269 298.5,-269 298.5,0 121.5,0"/>
</a>
</g>
</g>
<!-- Node2 -->
<g id="Node000002" class="node">
<title>Node2</title>
<g id="a_Node000002"><a xlink:href="classIdentifiable.html" target="_top" xlink:title=" ">
<polygon fill="white" stroke="transparent" points="176,-406 0,-406 0,-327 176,-327 176,-406"/>
<text text-anchor="start" x="60.5" y="-393.5" font-family="Helvetica,sans-Serif" font-size="10.00">Identifiable</text>
<text text-anchor="start" x="86" y="-378.5" font-family="Helvetica,sans-Serif" font-size="10.00"> </text>
<text text-anchor="start" x="4" y="-363.5" font-family="Helvetica,sans-Serif" font-size="10.00">+</text>
<text text-anchor="start" x="17" y="-363.5" font-family="Helvetica,sans-Serif" font-size="10.00">~Identifiable()</text>
<text text-anchor="start" x="4" y="-348.5" font-family="Helvetica,sans-Serif" font-size="10.00">+</text>
<text text-anchor="start" x="17" y="-348.5" font-family="Helvetica,sans-Serif" font-size="10.00">GetIdentifier()</text>
<text text-anchor="start" x="6.5" y="-333.5" font-family="Helvetica,sans-Serif" font-size="10.00">&#45;</text>
<text text-anchor="start" x="17" y="-333.5" font-family="Helvetica,sans-Serif" font-size="10.00">TidyTemplatedExportIdentifier()</text>
<polygon fill="#666666" stroke="#666666" points="0,-388.5 0,-388.5 176,-388.5 176,-388.5 0,-388.5"/>
<polygon fill="#666666" stroke="#666666" points="0,-373.5 0,-373.5 176,-373.5 176,-373.5 0,-373.5"/>
<polygon fill="none" stroke="#666666" points="0,-327 0,-406 176,-406 176,-327 0,-327"/>
</a>
</g>
</g>
<!-- Node2&#45;&gt;Node1 -->
<g id="edge1_Node000001_Node000002" class="edge">
<title>Node2&#45;&gt;Node1</title>
<g id="a_edge1_Node000001_Node000002"><a xlink:title=" ">
<path fill="none" stroke="#63b8ff" d="M113.43,-317.56C121.1,-303.09 129.94,-286.44 139.08,-269.21"/>
<polygon fill="none" stroke="#63b8ff" points="110.15,-316.27 108.56,-326.74 116.34,-319.55 110.15,-316.27"/>
</a>
</g>
</g>
<!-- Node3 -->
<g id="Node000003" class="node">
<title>Node3</title>
<g id="a_Node000003"><a xlink:href="classbool.html" target="_top" xlink:title=" ">
<polygon fill="white" stroke="transparent" points="226,-391 194,-391 194,-342 226,-342 226,-391"/>
<text text-anchor="start" x="199" y="-378.5" font-family="Helvetica,sans-Serif" font-size="10.00">bool</text>
<text text-anchor="start" x="208" y="-363.5" font-family="Helvetica,sans-Serif" font-size="10.00"> </text>
<text text-anchor="start" x="208" y="-348.5" font-family="Helvetica,sans-Serif" font-size="10.00"> </text>
<polygon fill="#bfbfbf" stroke="#bfbfbf" points="194,-373.5 194,-373.5 226,-373.5 226,-373.5 194,-373.5"/>
<polygon fill="#bfbfbf" stroke="#bfbfbf" points="194,-358.5 194,-358.5 226,-358.5 226,-358.5 194,-358.5"/>
<polygon fill="none" stroke="#bfbfbf" points="194,-342 194,-391 226,-391 226,-342 194,-342"/>
</a>
</g>
</g>
<!-- Node3&#45;&gt;Node1 -->
<g id="edge2_Node000001_Node000003" class="edge">
<title>Node3&#45;&gt;Node1</title>
<g id="a_edge2_Node000001_Node000003"><a xlink:title=" ">
<path fill="none" stroke="#63b8ff" d="M210,-341.75C210,-326.29 210,-304.68 210,-281.23"/>
<polygon fill="none" stroke="#63b8ff" points="210,-281.21 206,-275.21 210,-269.21 214,-275.21 210,-281.21"/>
</a>
</g>
<text text-anchor="middle" x="273" y="-295.5" font-family="Helvetica,sans-Serif" font-size="10.00" fill="grey"> #mAdditiveNormalNoise</text>
</g>
<!-- Node4 -->
<g id="Node000004" class="node">
<title>Node4</title>
<g id="a_Node000004"><a xlink:href="classdouble.html" target="_top" xlink:title=" ">
<polygon fill="white" stroke="transparent" points="381,-391 337,-391 337,-342 381,-342 381,-391"/>
<text text-anchor="start" x="342" y="-378.5" font-family="Helvetica,sans-Serif" font-size="10.00">double</text>
<text text-anchor="start" x="357" y="-363.5" font-family="Helvetica,sans-Serif" font-size="10.00"> </text>
<text text-anchor="start" x="357" y="-348.5" font-family="Helvetica,sans-Serif" font-size="10.00"> </text>
<polygon fill="#bfbfbf" stroke="#bfbfbf" points="337,-373.5 337,-373.5 381,-373.5 381,-373.5 337,-373.5"/>
<polygon fill="#bfbfbf" stroke="#bfbfbf" points="337,-358.5 337,-358.5 381,-358.5 381,-358.5 337,-358.5"/>
<polygon fill="none" stroke="#bfbfbf" points="337,-342 337,-391 381,-391 381,-342 337,-342"/>
</a>
</g>
</g>
<!-- Node4&#45;&gt;Node1 -->
<g id="edge3_Node000001_Node000004" class="edge">
<title>Node4&#45;&gt;Node1</title>
<g id="a_edge3_Node000001_Node000004"><a xlink:title=" ">
<path fill="none" stroke="#63b8ff" d="M355.1,-341.85C351.79,-325.74 346.11,-304.28 337,-287 328.25,-270.41 317.44,-254 305.86,-238.44"/>
<polygon fill="none" stroke="#63b8ff" points="305.84,-238.41 299.02,-236.07 298.56,-228.87 305.38,-231.22 305.84,-238.41"/>
</a>
</g>
<text text-anchor="middle" x="404" y="-301" font-family="Helvetica,sans-Serif" font-size="10.00" fill="grey"> #mNormalNoiseMean</text>
<text text-anchor="middle" x="404" y="-290" font-family="Helvetica,sans-Serif" font-size="10.00" fill="grey">#mNormalNoiseStdDev</text>
</g>
</g>
</svg>
