<?xml version="1.0" encoding="UTF-8" standalone="no"?>
<!DOCTYPE svg PUBLIC "-//W3C//DTD SVG 1.1//EN"
 "http://www.w3.org/Graphics/SVG/1.1/DTD/svg11.dtd">
<!-- Generated by graphviz version 2.43.0 (0)
 -->
<!-- Title: PCBlockDiagonal Pages: 1 -->
<svg width="484pt" height="338pt"
 viewBox="0.00 0.00 483.50 338.00" xmlns="http://www.w3.org/2000/svg" xmlns:xlink="http://www.w3.org/1999/xlink">
<g id="graph0" class="graph" transform="scale(1 1) rotate(0) translate(4 334)">
<title>PCBlockDiagonal</title>
<!-- Node1 -->
<g id="Node000001" class="node">
<title>Node1</title>
<g id="a_Node000001"><a xlink:title=" ">
<polygon fill="#999999" stroke="transparent" points="145,-94 0,-94 0,0 145,0 145,-94"/>
<text text-anchor="start" x="31" y="-82" font-family="Helvetica,sans-Serif" font-size="10.00">PCBlockDiagonal</text>
<text text-anchor="start" x="71" y="-67" font-family="Helvetica,sans-Serif" font-size="10.00"> </text>
<text text-anchor="start" x="4.5" y="-52" font-family="Helvetica,sans-Serif" font-size="10.00">+</text>
<text text-anchor="start" x="17.5" y="-52" font-family="Helvetica,sans-Serif" font-size="10.00">PCBlockDiagonal()</text>
<text text-anchor="start" x="4.5" y="-37" font-family="Helvetica,sans-Serif" font-size="10.00">+</text>
<text text-anchor="start" x="17.5" y="-37" font-family="Helvetica,sans-Serif" font-size="10.00">~PCBlockDiagonal()</text>
<text text-anchor="start" x="7" y="-22" font-family="Helvetica,sans-Serif" font-size="10.00">&#45;</text>
<text text-anchor="start" x="17.5" y="-22" font-family="Helvetica,sans-Serif" font-size="10.00">PCBlockDiagonalCreate()</text>
<text text-anchor="start" x="7" y="-7" font-family="Helvetica,sans-Serif" font-size="10.00">&#45;</text>
<text text-anchor="start" x="17.5" y="-7" font-family="Helvetica,sans-Serif" font-size="10.00">PCBlockDiagonalSetUp()</text>
<polygon fill="#666666" stroke="#666666" points="0.5,-77 0.5,-77 145.5,-77 145.5,-77 0.5,-77"/>
<polygon fill="#666666" stroke="#666666" points="0.5,-62 0.5,-62 145.5,-62 145.5,-62 0.5,-62"/>
<polygon fill="none" stroke="#666666" points="0,0 0,-94 145,-94 145,0 0,0"/>
</a>
</g>
</g>
<!-- Node2 -->
<g id="Node000002" class="node">
<title>Node2</title>
<g id="a_Node000002"><a xlink:href="structPCBlockDiagonal_1_1PCBlockDiagonalContext.html" target="_top" xlink:title=" ">
<polygon fill="white" stroke="transparent" points="269.5,-201 129.5,-201 129.5,-141 269.5,-141 269.5,-201"/>
<text text-anchor="start" x="134.5" y="-189" font-family="Helvetica,sans-Serif" font-size="10.00">PCBlockDiagonal::PCBlock</text>
<text text-anchor="start" x="158.5" y="-178" font-family="Helvetica,sans-Serif" font-size="10.00">DiagonalContext</text>
<text text-anchor="start" x="197.5" y="-163" font-family="Helvetica,sans-Serif" font-size="10.00"> </text>
<text text-anchor="start" x="197.5" y="-148" font-family="Helvetica,sans-Serif" font-size="10.00"> </text>
<polygon fill="#666666" stroke="#666666" points="129.5,-173 129.5,-173 269.5,-173 269.5,-173 129.5,-173"/>
<polygon fill="#666666" stroke="#666666" points="129.5,-158 129.5,-158 269.5,-158 269.5,-158 129.5,-158"/>
<polygon fill="none" stroke="#666666" points="129.5,-141 129.5,-201 269.5,-201 269.5,-141 129.5,-141"/>
</a>
</g>
</g>
<!-- Node2&#45;&gt;Node1 -->
<g id="edge1_Node000001_Node000002" class="edge">
<title>Node2&#45;&gt;Node1</title>
<g id="a_edge1_Node000001_Node000002"><a xlink:title=" ">
<path fill="none" stroke="#63b8ff" d="M169.08,-140.78C157.16,-129.33 143.09,-115.81 129.42,-102.68"/>
<polygon fill="none" stroke="#63b8ff" points="129.18,-102.45 122.08,-101.18 120.53,-94.14 127.62,-95.41 129.18,-102.45"/>
</a>
</g>
<text text-anchor="middle" x="184" y="-115" font-family="Helvetica,sans-Serif" font-size="10.00" fill="grey"> +mPCContext</text>
</g>
<!-- Node3 -->
<g id="Node000003" class="node">
<title>Node3</title>
<g id="a_Node000003"><a xlink:href="classMat.html" target="_top" xlink:title=" ">
<polygon fill="white" stroke="transparent" points="379,-330 350,-330 350,-281 379,-281 379,-330"/>
<text text-anchor="start" x="355.5" y="-317.5" font-family="Helvetica,sans-Serif" font-size="10.00">Mat</text>
<text text-anchor="start" x="363" y="-302.5" font-family="Helvetica,sans-Serif" font-size="10.00"> </text>
<text text-anchor="start" x="363" y="-287.5" font-family="Helvetica,sans-Serif" font-size="10.00"> </text>
<polygon fill="#bfbfbf" stroke="#bfbfbf" points="350.5,-312.5 350.5,-312.5 379.5,-312.5 379.5,-312.5 350.5,-312.5"/>
<polygon fill="#bfbfbf" stroke="#bfbfbf" points="350.5,-297.5 350.5,-297.5 379.5,-297.5 379.5,-297.5 350.5,-297.5"/>
<polygon fill="none" stroke="#bfbfbf" points="350,-281 350,-330 379,-330 379,-281 350,-281"/>
</a>
</g>
</g>
<!-- Node3&#45;&gt;Node2 -->
<g id="edge2_Node000002_Node000003" class="edge">
<title>Node3&#45;&gt;Node2</title>
<g id="a_edge2_Node000002_Node000003"><a xlink:title=" ">
<path fill="none" stroke="#63b8ff" d="M362.79,-280.87C360.2,-261.83 353.72,-235.58 337.5,-219 322.34,-203.5 301.88,-193.11 281.35,-186.14"/>
<polygon fill="none" stroke="#63b8ff" points="281.1,-186.07 274.19,-188.12 269.64,-182.52 276.55,-180.47 281.1,-186.07"/>
</a>
</g>
<text text-anchor="middle" x="417" y="-244" font-family="Helvetica,sans-Serif" font-size="10.00" fill="grey"> +A11_matrix_subblock</text>
<text text-anchor="middle" x="417" y="-233" font-family="Helvetica,sans-Serif" font-size="10.00" fill="grey">+A22_matrix_subblock</text>
</g>
<!-- Node4 -->
<g id="Node000004" class="node">
<title>Node4</title>
<g id="a_Node000004"><a xlink:title=" ">
<polygon fill="white" stroke="transparent" points="48,-330 25,-330 25,-281 48,-281 48,-330"/>
<text text-anchor="start" x="30.5" y="-317.5" font-family="Helvetica,sans-Serif" font-size="10.00">PC</text>
<text text-anchor="start" x="35" y="-302.5" font-family="Helvetica,sans-Serif" font-size="10.00"> </text>
<text text-anchor="start" x="35" y="-287.5" font-family="Helvetica,sans-Serif" font-size="10.00"> </text>
<polygon fill="#bfbfbf" stroke="#bfbfbf" points="25.5,-312.5 25.5,-312.5 48.5,-312.5 48.5,-312.5 25.5,-312.5"/>
<polygon fill="#bfbfbf" stroke="#bfbfbf" points="25.5,-297.5 25.5,-297.5 48.5,-297.5 48.5,-297.5 25.5,-297.5"/>
<polygon fill="none" stroke="#bfbfbf" points="25,-281 25,-330 48,-330 48,-281 25,-281"/>
</a>
</g>
</g>
<!-- Node4&#45;&gt;Node1 -->
<g id="edge6_Node000001_Node000004" class="edge">
<title>Node4&#45;&gt;Node1</title>
<g id="a_edge6_Node000001_Node000004"><a xlink:title=" ">
<path fill="none" stroke="#63b8ff" d="M31.43,-280.88C25.43,-248.78 17.54,-189.8 28.5,-141 31.17,-129.11 35.55,-116.94 40.53,-105.5"/>
<polygon fill="none" stroke="#63b8ff" points="40.65,-105.24 39.52,-98.11 45.67,-94.34 46.79,-101.46 40.65,-105.24"/>
</a>
</g>
<text text-anchor="middle" x="74.5" y="-168.5" font-family="Helvetica,sans-Serif" font-size="10.00" fill="grey"> +mPetscPCObject</text>
</g>
<!-- Node4&#45;&gt;Node2 -->
<g id="edge3_Node000002_Node000004" class="edge">
<title>Node4&#45;&gt;Node2</title>
<g id="a_edge3_Node000002_Node000004"><a xlink:title=" ">
<path fill="none" stroke="#63b8ff" d="M39.17,-280.87C42.5,-261.83 49.94,-235.59 66.5,-219 67.08,-218.42 90.7,-210.01 117.87,-200.47"/>
<polygon fill="none" stroke="#63b8ff" points="117.93,-200.44 122.27,-194.68 129.26,-196.47 124.92,-202.23 117.93,-200.44"/>
</a>
</g>
<text text-anchor="middle" x="104.5" y="-244" font-family="Helvetica,sans-Serif" font-size="10.00" fill="grey"> +PC_amg_A11</text>
<text text-anchor="middle" x="104.5" y="-233" font-family="Helvetica,sans-Serif" font-size="10.00" fill="grey">+PC_amg_A22</text>
</g>
<!-- Node5 -->
<g id="Node000005" class="node">
<title>Node5</title>
<g id="a_Node000005"><a xlink:href="classVec.html" target="_top" xlink:title=" ">
<polygon fill="white" stroke="transparent" points="165.5,-330 137.5,-330 137.5,-281 165.5,-281 165.5,-330"/>
<text text-anchor="start" x="142.5" y="-317.5" font-family="Helvetica,sans-Serif" font-size="10.00">Vec</text>
<text text-anchor="start" x="149.5" y="-302.5" font-family="Helvetica,sans-Serif" font-size="10.00"> </text>
<text text-anchor="start" x="149.5" y="-287.5" font-family="Helvetica,sans-Serif" font-size="10.00"> </text>
<polygon fill="#bfbfbf" stroke="#bfbfbf" points="137.5,-312.5 137.5,-312.5 165.5,-312.5 165.5,-312.5 137.5,-312.5"/>
<polygon fill="#bfbfbf" stroke="#bfbfbf" points="137.5,-297.5 137.5,-297.5 165.5,-297.5 165.5,-297.5 137.5,-297.5"/>
<polygon fill="none" stroke="#bfbfbf" points="137.5,-281 137.5,-330 165.5,-330 165.5,-281 137.5,-281"/>
</a>
</g>
</g>
<!-- Node5&#45;&gt;Node2 -->
<g id="edge4_Node000002_Node000005" class="edge">
<title>Node5&#45;&gt;Node2</title>
<g id="a_edge4_Node000002_Node000005"><a xlink:title=" ">
<path fill="none" stroke="#63b8ff" d="M147.1,-280.67C144.92,-262.95 144.26,-238.56 152.5,-219 153.63,-216.31 155,-213.69 156.55,-211.15"/>
<polygon fill="none" stroke="#63b8ff" points="156.7,-210.95 157,-203.74 163.76,-201.24 163.46,-208.45 156.7,-210.95"/>
</a>
</g>
<text text-anchor="middle" x="191" y="-255" font-family="Helvetica,sans-Serif" font-size="10.00" fill="grey"> +x1_subvector</text>
<text text-anchor="middle" x="191" y="-244" font-family="Helvetica,sans-Serif" font-size="10.00" fill="grey">+x2_subvector</text>
<text text-anchor="middle" x="191" y="-233" font-family="Helvetica,sans-Serif" font-size="10.00" fill="grey">+y1_subvector</text>
<text text-anchor="middle" x="191" y="-222" font-family="Helvetica,sans-Serif" font-size="10.00" fill="grey">+y2_subvector</text>
</g>
<!-- Node6 -->
<g id="Node000006" class="node">
<title>Node6</title>
<g id="a_Node000006"><a xlink:title=" ">
<polygon fill="white" stroke="transparent" points="282.5,-330 220.5,-330 220.5,-281 282.5,-281 282.5,-330"/>
<text text-anchor="start" x="225.5" y="-317.5" font-family="Helvetica,sans-Serif" font-size="10.00">VecScatter</text>
<text text-anchor="start" x="249.5" y="-302.5" font-family="Helvetica,sans-Serif" font-size="10.00"> </text>
<text text-anchor="start" x="249.5" y="-287.5" font-family="Helvetica,sans-Serif" font-size="10.00"> </text>
<polygon fill="#bfbfbf" stroke="#bfbfbf" points="220.5,-312.5 220.5,-312.5 282.5,-312.5 282.5,-312.5 220.5,-312.5"/>
<polygon fill="#bfbfbf" stroke="#bfbfbf" points="220.5,-297.5 220.5,-297.5 282.5,-297.5 282.5,-297.5 220.5,-297.5"/>
<polygon fill="none" stroke="#bfbfbf" points="220.5,-281 220.5,-330 282.5,-330 282.5,-281 220.5,-281"/>
</a>
</g>
</g>
<!-- Node6&#45;&gt;Node2 -->
<g id="edge5_Node000002_Node000006" class="edge">
<title>Node6&#45;&gt;Node2</title>
<g id="a_edge5_Node000002_Node000006"><a xlink:title=" ">
<path fill="none" stroke="#63b8ff" d="M247.53,-280.98C244.08,-263.42 238.24,-239.1 229.5,-219 228.43,-216.55 227.25,-214.08 225.98,-211.62"/>
<polygon fill="none" stroke="#63b8ff" points="225.92,-211.5 219.49,-208.24 220.03,-201.05 226.46,-204.31 225.92,-211.5"/>
</a>
</g>
<text text-anchor="middle" x="288.5" y="-244" font-family="Helvetica,sans-Serif" font-size="10.00" fill="grey"> +A11_scatter_ctx</text>
<text text-anchor="middle" x="288.5" y="-233" font-family="Helvetica,sans-Serif" font-size="10.00" fill="grey">+A22_scatter_ctx</text>
</g>
</g>
</svg>
