<?xml version="1.0" encoding="UTF-8" standalone="no"?>
<!DOCTYPE svg PUBLIC "-//W3C//DTD SVG 1.1//EN"
 "http://www.w3.org/Graphics/SVG/1.1/DTD/svg11.dtd">
<!-- Generated by graphviz version 2.43.0 (0)
 -->
<!-- Title: AbstractNonlinearAssemblerSolverHybrid&lt; ELEMENT_DIM, SPACE_DIM, PROBLEM_DIM &gt; Pages: 1 -->
<svg width="366pt" height="2002pt"
 viewBox="0.00 0.00 365.50 2002.00" xmlns="http://www.w3.org/2000/svg" xmlns:xlink="http://www.w3.org/1999/xlink">
<g id="graph0" class="graph" transform="scale(1 1) rotate(0) translate(4 1998)">
<title>AbstractNonlinearAssemblerSolverHybrid&lt; ELEMENT_DIM, SPACE_DIM, PROBLEM_DIM &gt;</title>
<!-- Node1 -->
<g id="Node000001" class="node">
<title>Node1</title>
<g id="a_Node000001"><a xlink:title=" ">
<polygon fill="#999999" stroke="transparent" points="205,-761 3,-761 3,-473 205,-473 205,-761"/>
<text text-anchor="start" x="30" y="-749" font-family="Helvetica,sans-Serif" font-size="10.00">AbstractNonlinearAssembler</text>
<text text-anchor="start" x="30" y="-738" font-family="Helvetica,sans-Serif" font-size="10.00">SolverHybrid&lt; ELEMENT_DIM,</text>
<text text-anchor="start" x="30" y="-727" font-family="Helvetica,sans-Serif" font-size="10.00"> SPACE_DIM, PROBLEM_DIM &gt;</text>
<text text-anchor="start" x="7" y="-712" font-family="Helvetica,sans-Serif" font-size="10.00">#</text>
<text text-anchor="start" x="20" y="-712" font-family="Helvetica,sans-Serif" font-size="10.00">mpMesh</text>
<text text-anchor="start" x="7" y="-697" font-family="Helvetica,sans-Serif" font-size="10.00">#</text>
<text text-anchor="start" x="20" y="-697" font-family="Helvetica,sans-Serif" font-size="10.00">mpBoundaryConditions</text>
<text text-anchor="start" x="7" y="-682" font-family="Helvetica,sans-Serif" font-size="10.00">#</text>
<text text-anchor="start" x="20" y="-682" font-family="Helvetica,sans-Serif" font-size="10.00">mpSolver</text>
<text text-anchor="start" x="7" y="-667" font-family="Helvetica,sans-Serif" font-size="10.00">#</text>
<text text-anchor="start" x="20" y="-667" font-family="Helvetica,sans-Serif" font-size="10.00">mWeAllocatedSolverMemory</text>
<text text-anchor="start" x="7" y="-652" font-family="Helvetica,sans-Serif" font-size="10.00">#</text>
<text text-anchor="start" x="20" y="-652" font-family="Helvetica,sans-Serif" font-size="10.00">mUseAnalyticalJacobian</text>
<text text-anchor="start" x="7" y="-637" font-family="Helvetica,sans-Serif" font-size="10.00">#</text>
<text text-anchor="start" x="20" y="-637" font-family="Helvetica,sans-Serif" font-size="10.00">mpNeumannSurfaceTermsAssembler</text>
<text text-anchor="start" x="7" y="-622" font-family="Helvetica,sans-Serif" font-size="10.00">+</text>
<text text-anchor="start" x="20" y="-622" font-family="Helvetica,sans-Serif" font-size="10.00">ComputeResidual()</text>
<text text-anchor="start" x="7" y="-607" font-family="Helvetica,sans-Serif" font-size="10.00">+</text>
<text text-anchor="start" x="20" y="-607" font-family="Helvetica,sans-Serif" font-size="10.00">ComputeJacobian()</text>
<text text-anchor="start" x="7" y="-592" font-family="Helvetica,sans-Serif" font-size="10.00">+</text>
<text text-anchor="start" x="20" y="-592" font-family="Helvetica,sans-Serif" font-size="10.00">AbstractNonlinearAssembler</text>
<text text-anchor="start" x="20" y="-581" font-family="Helvetica,sans-Serif" font-size="10.00">SolverHybrid()</text>
<text text-anchor="start" x="7" y="-566" font-family="Helvetica,sans-Serif" font-size="10.00">+</text>
<text text-anchor="start" x="20" y="-566" font-family="Helvetica,sans-Serif" font-size="10.00">~AbstractNonlinearAssembler</text>
<text text-anchor="start" x="20" y="-555" font-family="Helvetica,sans-Serif" font-size="10.00">SolverHybrid()</text>
<text text-anchor="start" x="7" y="-540" font-family="Helvetica,sans-Serif" font-size="10.00">+</text>
<text text-anchor="start" x="20" y="-540" font-family="Helvetica,sans-Serif" font-size="10.00">Solve()</text>
<text text-anchor="start" x="7" y="-525" font-family="Helvetica,sans-Serif" font-size="10.00">+</text>
<text text-anchor="start" x="20" y="-525" font-family="Helvetica,sans-Serif" font-size="10.00">SetNonlinearSolver()</text>
<text text-anchor="start" x="7" y="-510" font-family="Helvetica,sans-Serif" font-size="10.00">+</text>
<text text-anchor="start" x="20" y="-510" font-family="Helvetica,sans-Serif" font-size="10.00">VerifyJacobian()</text>
<text text-anchor="start" x="7" y="-495" font-family="Helvetica,sans-Serif" font-size="10.00">#</text>
<text text-anchor="start" x="20" y="-495" font-family="Helvetica,sans-Serif" font-size="10.00">ApplyDirichletConditions()</text>
<text text-anchor="start" x="7" y="-480" font-family="Helvetica,sans-Serif" font-size="10.00">#</text>
<text text-anchor="start" x="20" y="-480" font-family="Helvetica,sans-Serif" font-size="10.00">ComputeJacobianNumerically()</text>
<polygon fill="#666666" stroke="#666666" points="3,-722 3,-722 205,-722 205,-722 3,-722"/>
<polygon fill="#666666" stroke="#666666" points="3,-632 3,-632 18,-632 18,-632 3,-632"/>
<polygon fill="#666666" stroke="#666666" points="18,-632 18,-632 205,-632 205,-632 18,-632"/>
<polygon fill="none" stroke="#666666" points="3,-473 3,-761 205,-761 205,-473 3,-473"/>
</a>
</g>
</g>
<!-- Node7 -->
<g id="Node000007" class="node">
<title>Node7</title>
<g id="a_Node000007"><a xlink:href="classAbstractNonlinearAssemblerSolverHybrid.html" target="_top" xlink:title=" ">
<polygon fill="white" stroke="transparent" points="205,-415 3,-415 3,-127 205,-127 205,-415"/>
<text text-anchor="start" x="30" y="-403" font-family="Helvetica,sans-Serif" font-size="10.00">AbstractNonlinearAssembler</text>
<text text-anchor="start" x="30" y="-392" font-family="Helvetica,sans-Serif" font-size="10.00">SolverHybrid&lt; ELEMENT_DIM,</text>
<text text-anchor="start" x="63" y="-381" font-family="Helvetica,sans-Serif" font-size="10.00"> SPACE_DIM, 1 &gt;</text>
<text text-anchor="start" x="7" y="-366" font-family="Helvetica,sans-Serif" font-size="10.00">#</text>
<text text-anchor="start" x="20" y="-366" font-family="Helvetica,sans-Serif" font-size="10.00">mpMesh</text>
<text text-anchor="start" x="7" y="-351" font-family="Helvetica,sans-Serif" font-size="10.00">#</text>
<text text-anchor="start" x="20" y="-351" font-family="Helvetica,sans-Serif" font-size="10.00">mpBoundaryConditions</text>
<text text-anchor="start" x="7" y="-336" font-family="Helvetica,sans-Serif" font-size="10.00">#</text>
<text text-anchor="start" x="20" y="-336" font-family="Helvetica,sans-Serif" font-size="10.00">mpSolver</text>
<text text-anchor="start" x="7" y="-321" font-family="Helvetica,sans-Serif" font-size="10.00">#</text>
<text text-anchor="start" x="20" y="-321" font-family="Helvetica,sans-Serif" font-size="10.00">mWeAllocatedSolverMemory</text>
<text text-anchor="start" x="7" y="-306" font-family="Helvetica,sans-Serif" font-size="10.00">#</text>
<text text-anchor="start" x="20" y="-306" font-family="Helvetica,sans-Serif" font-size="10.00">mUseAnalyticalJacobian</text>
<text text-anchor="start" x="7" y="-291" font-family="Helvetica,sans-Serif" font-size="10.00">#</text>
<text text-anchor="start" x="20" y="-291" font-family="Helvetica,sans-Serif" font-size="10.00">mpNeumannSurfaceTermsAssembler</text>
<text text-anchor="start" x="7" y="-276" font-family="Helvetica,sans-Serif" font-size="10.00">+</text>
<text text-anchor="start" x="20" y="-276" font-family="Helvetica,sans-Serif" font-size="10.00">ComputeResidual()</text>
<text text-anchor="start" x="7" y="-261" font-family="Helvetica,sans-Serif" font-size="10.00">+</text>
<text text-anchor="start" x="20" y="-261" font-family="Helvetica,sans-Serif" font-size="10.00">ComputeJacobian()</text>
<text text-anchor="start" x="7" y="-246" font-family="Helvetica,sans-Serif" font-size="10.00">+</text>
<text text-anchor="start" x="20" y="-246" font-family="Helvetica,sans-Serif" font-size="10.00">AbstractNonlinearAssembler</text>
<text text-anchor="start" x="20" y="-235" font-family="Helvetica,sans-Serif" font-size="10.00">SolverHybrid()</text>
<text text-anchor="start" x="7" y="-220" font-family="Helvetica,sans-Serif" font-size="10.00">+</text>
<text text-anchor="start" x="20" y="-220" font-family="Helvetica,sans-Serif" font-size="10.00">~AbstractNonlinearAssembler</text>
<text text-anchor="start" x="20" y="-209" font-family="Helvetica,sans-Serif" font-size="10.00">SolverHybrid()</text>
<text text-anchor="start" x="7" y="-194" font-family="Helvetica,sans-Serif" font-size="10.00">+</text>
<text text-anchor="start" x="20" y="-194" font-family="Helvetica,sans-Serif" font-size="10.00">Solve()</text>
<text text-anchor="start" x="7" y="-179" font-family="Helvetica,sans-Serif" font-size="10.00">+</text>
<text text-anchor="start" x="20" y="-179" font-family="Helvetica,sans-Serif" font-size="10.00">SetNonlinearSolver()</text>
<text text-anchor="start" x="7" y="-164" font-family="Helvetica,sans-Serif" font-size="10.00">+</text>
<text text-anchor="start" x="20" y="-164" font-family="Helvetica,sans-Serif" font-size="10.00">VerifyJacobian()</text>
<text text-anchor="start" x="7" y="-149" font-family="Helvetica,sans-Serif" font-size="10.00">#</text>
<text text-anchor="start" x="20" y="-149" font-family="Helvetica,sans-Serif" font-size="10.00">ApplyDirichletConditions()</text>
<text text-anchor="start" x="7" y="-134" font-family="Helvetica,sans-Serif" font-size="10.00">#</text>
<text text-anchor="start" x="20" y="-134" font-family="Helvetica,sans-Serif" font-size="10.00">ComputeJacobianNumerically()</text>
<polygon fill="#666666" stroke="#666666" points="3,-376 3,-376 205,-376 205,-376 3,-376"/>
<polygon fill="#666666" stroke="#666666" points="3,-286 3,-286 18,-286 18,-286 3,-286"/>
<polygon fill="#666666" stroke="#666666" points="18,-286 18,-286 205,-286 205,-286 18,-286"/>
<polygon fill="none" stroke="#666666" points="3,-127 3,-415 205,-415 205,-127 3,-127"/>
</a>
</g>
</g>
<!-- Node1&#45;&gt;Node7 -->
<g id="edge7_Node000001_Node000007" class="edge">
<title>Node1&#45;&gt;Node7</title>
<g id="a_edge7_Node000001_Node000007"><a xlink:title=" ">
<path fill="none" stroke="orange" d="M104,-462.33C104,-446.64 104,-430.74 104,-415.16"/>
<polygon fill="orange" stroke="orange" points="100.5,-462.6 104,-472.6 107.5,-462.6 100.5,-462.6"/>
</a>
</g>
<text text-anchor="start" x="104" y="-447" font-family="Helvetica,sans-Serif" font-size="10.00" fill="grey"> &lt; ELEMENT_DIM, SPACE</text>
<text text-anchor="middle" x="165" y="-436" font-family="Helvetica,sans-Serif" font-size="10.00" fill="grey">_DIM, 1 &gt;</text>
</g>
<!-- Node2 -->
<g id="Node000002" class="node">
<title>Node2</title>
<g id="a_Node000002"><a xlink:href="classAbstractFeVolumeIntegralAssembler.html" target="_top" xlink:title=" ">
<polygon fill="white" stroke="transparent" points="201,-1033 7,-1033 7,-798 201,-798 201,-1033"/>
<text text-anchor="start" x="34" y="-1020.5" font-family="Helvetica,sans-Serif" font-size="10.00">AbstractFeVolumeIntegral</text>
<text text-anchor="start" x="34" y="-1009.5" font-family="Helvetica,sans-Serif" font-size="10.00">Assembler&lt; ELEMENT_DIM,</text>
<text text-anchor="start" x="34" y="-998.5" font-family="Helvetica,sans-Serif" font-size="10.00"> SPACE_DIM, PROBLEM_DIM,</text>
<text text-anchor="start" x="42" y="-987.5" font-family="Helvetica,sans-Serif" font-size="10.00"> true, true, NONLINEAR &gt;</text>
<text text-anchor="start" x="11" y="-972.5" font-family="Helvetica,sans-Serif" font-size="10.00">#</text>
<text text-anchor="start" x="24" y="-972.5" font-family="Helvetica,sans-Serif" font-size="10.00">mpMesh</text>
<text text-anchor="start" x="11" y="-957.5" font-family="Helvetica,sans-Serif" font-size="10.00">#</text>
<text text-anchor="start" x="24" y="-957.5" font-family="Helvetica,sans-Serif" font-size="10.00">mpQuadRule</text>
<text text-anchor="start" x="11" y="-942.5" font-family="Helvetica,sans-Serif" font-size="10.00">+</text>
<text text-anchor="start" x="24" y="-942.5" font-family="Helvetica,sans-Serif" font-size="10.00">AbstractFeVolumeIntegral</text>
<text text-anchor="start" x="24" y="-931.5" font-family="Helvetica,sans-Serif" font-size="10.00">Assembler()</text>
<text text-anchor="start" x="11" y="-916.5" font-family="Helvetica,sans-Serif" font-size="10.00">+</text>
<text text-anchor="start" x="24" y="-916.5" font-family="Helvetica,sans-Serif" font-size="10.00">~AbstractFeVolumeIntegral</text>
<text text-anchor="start" x="24" y="-905.5" font-family="Helvetica,sans-Serif" font-size="10.00">Assembler()</text>
<text text-anchor="start" x="11" y="-890.5" font-family="Helvetica,sans-Serif" font-size="10.00">#</text>
<text text-anchor="start" x="24" y="-890.5" font-family="Helvetica,sans-Serif" font-size="10.00">ComputeTransformedBasisFunction</text>
<text text-anchor="start" x="24" y="-879.5" font-family="Helvetica,sans-Serif" font-size="10.00">Derivatives()</text>
<text text-anchor="start" x="11" y="-864.5" font-family="Helvetica,sans-Serif" font-size="10.00">#</text>
<text text-anchor="start" x="24" y="-864.5" font-family="Helvetica,sans-Serif" font-size="10.00">DoAssemble()</text>
<text text-anchor="start" x="11" y="-849.5" font-family="Helvetica,sans-Serif" font-size="10.00">#</text>
<text text-anchor="start" x="24" y="-849.5" font-family="Helvetica,sans-Serif" font-size="10.00">ComputeMatrixTerm()</text>
<text text-anchor="start" x="11" y="-834.5" font-family="Helvetica,sans-Serif" font-size="10.00">#</text>
<text text-anchor="start" x="24" y="-834.5" font-family="Helvetica,sans-Serif" font-size="10.00">ComputeVectorTerm()</text>
<text text-anchor="start" x="11" y="-819.5" font-family="Helvetica,sans-Serif" font-size="10.00">#</text>
<text text-anchor="start" x="24" y="-819.5" font-family="Helvetica,sans-Serif" font-size="10.00">AssembleOnElement()</text>
<text text-anchor="start" x="11" y="-804.5" font-family="Helvetica,sans-Serif" font-size="10.00">#</text>
<text text-anchor="start" x="24" y="-804.5" font-family="Helvetica,sans-Serif" font-size="10.00">ElementAssemblyCriterion()</text>
<polygon fill="#666666" stroke="#666666" points="7,-982.5 7,-982.5 201,-982.5 201,-982.5 7,-982.5"/>
<polygon fill="#666666" stroke="#666666" points="7,-952.5 7,-952.5 22,-952.5 22,-952.5 7,-952.5"/>
<polygon fill="#666666" stroke="#666666" points="22,-952.5 22,-952.5 201,-952.5 201,-952.5 22,-952.5"/>
<polygon fill="none" stroke="#666666" points="7,-798 7,-1033 201,-1033 201,-798 7,-798"/>
</a>
</g>
</g>
<!-- Node2&#45;&gt;Node1 -->
<g id="edge1_Node000001_Node000002" class="edge">
<title>Node2&#45;&gt;Node1</title>
<g id="a_edge1_Node000001_Node000002"><a xlink:title=" ">
<path fill="none" stroke="#63b8ff" d="M104,-787.56C104,-778.84 104,-770.03 104,-761.23"/>
<polygon fill="none" stroke="#63b8ff" points="100.5,-787.74 104,-797.74 107.5,-787.74 100.5,-787.74"/>
</a>
</g>
</g>
<!-- Node3 -->
<g id="Node000003" class="node">
<title>Node3</title>
<g id="a_Node000003"><a xlink:href="classAbstractFeAssemblerCommon.html" target="_top" xlink:title=" ">
<polygon fill="white" stroke="transparent" points="200,-1590 0,-1590 0,-1385 200,-1385 200,-1590"/>
<text text-anchor="start" x="12.5" y="-1577.5" font-family="Helvetica,sans-Serif" font-size="10.00">AbstractFeAssemblerCommon</text>
<text text-anchor="start" x="12.5" y="-1566.5" font-family="Helvetica,sans-Serif" font-size="10.00">&lt; ELEMENT_DIM, SPACE_DIM,</text>
<text text-anchor="start" x="12.5" y="-1555.5" font-family="Helvetica,sans-Serif" font-size="10.00"> PROBLEM_DIM, CAN_ASSEMBLE</text>
<text text-anchor="start" x="12.5" y="-1544.5" font-family="Helvetica,sans-Serif" font-size="10.00">_VECTOR, CAN_ASSEMBLE_MATRIX,</text>
<text text-anchor="start" x="36" y="-1533.5" font-family="Helvetica,sans-Serif" font-size="10.00"> INTERPOLATION_LEVEL &gt;</text>
<text text-anchor="start" x="4" y="-1518.5" font-family="Helvetica,sans-Serif" font-size="10.00">#</text>
<text text-anchor="start" x="17" y="-1518.5" font-family="Helvetica,sans-Serif" font-size="10.00">mCurrentSolutionOrGuessReplicated</text>
<text text-anchor="start" x="4" y="-1503.5" font-family="Helvetica,sans-Serif" font-size="10.00">+</text>
<text text-anchor="start" x="17" y="-1503.5" font-family="Helvetica,sans-Serif" font-size="10.00">AbstractFeAssemblerCommon()</text>
<text text-anchor="start" x="4" y="-1488.5" font-family="Helvetica,sans-Serif" font-size="10.00">+</text>
<text text-anchor="start" x="17" y="-1488.5" font-family="Helvetica,sans-Serif" font-size="10.00">SetCurrentSolution()</text>
<text text-anchor="start" x="4" y="-1473.5" font-family="Helvetica,sans-Serif" font-size="10.00">+</text>
<text text-anchor="start" x="17" y="-1473.5" font-family="Helvetica,sans-Serif" font-size="10.00">~AbstractFeAssemblerCommon()</text>
<text text-anchor="start" x="4" y="-1458.5" font-family="Helvetica,sans-Serif" font-size="10.00">#</text>
<text text-anchor="start" x="17" y="-1458.5" font-family="Helvetica,sans-Serif" font-size="10.00">GetCurrentSolutionOrGuess</text>
<text text-anchor="start" x="17" y="-1447.5" font-family="Helvetica,sans-Serif" font-size="10.00">Value()</text>
<text text-anchor="start" x="4" y="-1432.5" font-family="Helvetica,sans-Serif" font-size="10.00">#</text>
<text text-anchor="start" x="17" y="-1432.5" font-family="Helvetica,sans-Serif" font-size="10.00">ResetInterpolatedQuantities()</text>
<text text-anchor="start" x="4" y="-1417.5" font-family="Helvetica,sans-Serif" font-size="10.00">#</text>
<text text-anchor="start" x="17" y="-1417.5" font-family="Helvetica,sans-Serif" font-size="10.00">IncrementInterpolatedQuantities()</text>
<text text-anchor="start" x="4" y="-1402.5" font-family="Helvetica,sans-Serif" font-size="10.00">#</text>
<text text-anchor="start" x="17" y="-1402.5" font-family="Helvetica,sans-Serif" font-size="10.00">IncrementInterpolatedGradient</text>
<text text-anchor="start" x="17" y="-1391.5" font-family="Helvetica,sans-Serif" font-size="10.00">Quantities()</text>
<polygon fill="#666666" stroke="#666666" points="0,-1528.5 0,-1528.5 200,-1528.5 200,-1528.5 0,-1528.5"/>
<polygon fill="#666666" stroke="#666666" points="0,-1513.5 0,-1513.5 15,-1513.5 15,-1513.5 0,-1513.5"/>
<polygon fill="#666666" stroke="#666666" points="15,-1513.5 15,-1513.5 200,-1513.5 200,-1513.5 15,-1513.5"/>
<polygon fill="none" stroke="#666666" points="0,-1385 0,-1590 200,-1590 200,-1385 0,-1385"/>
</a>
</g>
</g>
<!-- Node3&#45;&gt;Node2 -->
<g id="edge2_Node000002_Node000003" class="edge">
<title>Node3&#45;&gt;Node2</title>
<g id="a_edge2_Node000002_Node000003"><a xlink:title=" ">
<path fill="none" stroke="#63b8ff" d="M100.79,-1374.63C101.48,-1276.09 102.48,-1133.08 103.18,-1033.13"/>
<polygon fill="none" stroke="#63b8ff" points="97.28,-1374.9 100.71,-1384.92 104.28,-1374.95 97.28,-1374.9"/>
</a>
</g>
</g>
<!-- Node6 -->
<g id="Node000006" class="node">
<title>Node6</title>
<g id="a_Node000006"><a xlink:href="classAbstractFeVolumeIntegralAssembler.html" target="_top" xlink:title=" ">
<polygon fill="white" stroke="transparent" points="357.5,-1348 116.5,-1348 116.5,-1102 357.5,-1102 357.5,-1348"/>
<text text-anchor="start" x="122" y="-1336" font-family="Helvetica,sans-Serif" font-size="10.00">AbstractFeVolumeIntegral</text>
<text text-anchor="start" x="122" y="-1325" font-family="Helvetica,sans-Serif" font-size="10.00">Assembler&lt; ELEMENT_DIM,</text>
<text text-anchor="start" x="122" y="-1314" font-family="Helvetica,sans-Serif" font-size="10.00"> SPACE_DIM, PROBLEM_DIM,</text>
<text text-anchor="start" x="122" y="-1303" font-family="Helvetica,sans-Serif" font-size="10.00"> CAN_ASSEMBLE_VECTOR, CAN</text>
<text text-anchor="start" x="122" y="-1292" font-family="Helvetica,sans-Serif" font-size="10.00">_ASSEMBLE_MATRIX, INTERPOLATION_LEVEL &gt;</text>
<text text-anchor="start" x="132.5" y="-1277" font-family="Helvetica,sans-Serif" font-size="10.00">#</text>
<text text-anchor="start" x="157" y="-1277" font-family="Helvetica,sans-Serif" font-size="10.00">mpMesh</text>
<text text-anchor="start" x="132.5" y="-1262" font-family="Helvetica,sans-Serif" font-size="10.00">#</text>
<text text-anchor="start" x="157" y="-1262" font-family="Helvetica,sans-Serif" font-size="10.00">mpQuadRule</text>
<text text-anchor="start" x="132.5" y="-1247" font-family="Helvetica,sans-Serif" font-size="10.00">+</text>
<text text-anchor="start" x="157" y="-1247" font-family="Helvetica,sans-Serif" font-size="10.00">AbstractFeVolumeIntegral</text>
<text text-anchor="start" x="157" y="-1236" font-family="Helvetica,sans-Serif" font-size="10.00">Assembler()</text>
<text text-anchor="start" x="132.5" y="-1221" font-family="Helvetica,sans-Serif" font-size="10.00">+</text>
<text text-anchor="start" x="157" y="-1221" font-family="Helvetica,sans-Serif" font-size="10.00">~AbstractFeVolumeIntegral</text>
<text text-anchor="start" x="157" y="-1210" font-family="Helvetica,sans-Serif" font-size="10.00">Assembler()</text>
<text text-anchor="start" x="132.5" y="-1195" font-family="Helvetica,sans-Serif" font-size="10.00">#</text>
<text text-anchor="start" x="157" y="-1195" font-family="Helvetica,sans-Serif" font-size="10.00">ComputeTransformedBasisFunction</text>
<text text-anchor="start" x="157" y="-1184" font-family="Helvetica,sans-Serif" font-size="10.00">Derivatives()</text>
<text text-anchor="start" x="132.5" y="-1169" font-family="Helvetica,sans-Serif" font-size="10.00">#</text>
<text text-anchor="start" x="157" y="-1169" font-family="Helvetica,sans-Serif" font-size="10.00">DoAssemble()</text>
<text text-anchor="start" x="132.5" y="-1154" font-family="Helvetica,sans-Serif" font-size="10.00">#</text>
<text text-anchor="start" x="157" y="-1154" font-family="Helvetica,sans-Serif" font-size="10.00">ComputeMatrixTerm()</text>
<text text-anchor="start" x="132.5" y="-1139" font-family="Helvetica,sans-Serif" font-size="10.00">#</text>
<text text-anchor="start" x="157" y="-1139" font-family="Helvetica,sans-Serif" font-size="10.00">ComputeVectorTerm()</text>
<text text-anchor="start" x="132.5" y="-1124" font-family="Helvetica,sans-Serif" font-size="10.00">#</text>
<text text-anchor="start" x="157" y="-1124" font-family="Helvetica,sans-Serif" font-size="10.00">AssembleOnElement()</text>
<text text-anchor="start" x="132.5" y="-1109" font-family="Helvetica,sans-Serif" font-size="10.00">#</text>
<text text-anchor="start" x="157" y="-1109" font-family="Helvetica,sans-Serif" font-size="10.00">ElementAssemblyCriterion()</text>
<polygon fill="#666666" stroke="#666666" points="117,-1287 117,-1287 358,-1287 358,-1287 117,-1287"/>
<polygon fill="#666666" stroke="#666666" points="117,-1257 117,-1257 155,-1257 155,-1257 117,-1257"/>
<polygon fill="#666666" stroke="#666666" points="155,-1257 155,-1257 358,-1257 358,-1257 155,-1257"/>
<polygon fill="none" stroke="#666666" points="116.5,-1102 116.5,-1348 357.5,-1348 357.5,-1102 116.5,-1102"/>
</a>
</g>
</g>
<!-- Node3&#45;&gt;Node6 -->
<g id="edge6_Node000006_Node000003" class="edge">
<title>Node3&#45;&gt;Node6</title>
<g id="a_edge6_Node000006_Node000003"><a xlink:title=" ">
<path fill="none" stroke="#63b8ff" d="M158.31,-1375.62C163.1,-1366.52 167.95,-1357.3 172.77,-1348.12"/>
<polygon fill="none" stroke="#63b8ff" points="155.11,-1374.18 153.56,-1384.66 161.31,-1377.44 155.11,-1374.18"/>
</a>
</g>
</g>
<!-- Node4 -->
<g id="Node000004" class="node">
<title>Node4</title>
<g id="a_Node000004"><a xlink:href="classAbstractFeAssemblerInterface.html" target="_top" xlink:title=" ">
<polygon fill="white" stroke="transparent" points="192,-1908 8,-1908 8,-1627 192,-1627 192,-1908"/>
<text text-anchor="start" x="19" y="-1895.5" font-family="Helvetica,sans-Serif" font-size="10.00">AbstractFeAssemblerInterface</text>
<text text-anchor="start" x="19" y="-1884.5" font-family="Helvetica,sans-Serif" font-size="10.00">&lt; CAN_ASSEMBLE_VECTOR, CAN</text>
<text text-anchor="start" x="44" y="-1873.5" font-family="Helvetica,sans-Serif" font-size="10.00">_ASSEMBLE_MATRIX &gt;</text>
<text text-anchor="start" x="12" y="-1858.5" font-family="Helvetica,sans-Serif" font-size="10.00">#</text>
<text text-anchor="start" x="25" y="-1858.5" font-family="Helvetica,sans-Serif" font-size="10.00">mVectorToAssemble</text>
<text text-anchor="start" x="12" y="-1843.5" font-family="Helvetica,sans-Serif" font-size="10.00">#</text>
<text text-anchor="start" x="25" y="-1843.5" font-family="Helvetica,sans-Serif" font-size="10.00">mMatrixToAssemble</text>
<text text-anchor="start" x="12" y="-1828.5" font-family="Helvetica,sans-Serif" font-size="10.00">#</text>
<text text-anchor="start" x="25" y="-1828.5" font-family="Helvetica,sans-Serif" font-size="10.00">mAssembleMatrix</text>
<text text-anchor="start" x="12" y="-1813.5" font-family="Helvetica,sans-Serif" font-size="10.00">#</text>
<text text-anchor="start" x="25" y="-1813.5" font-family="Helvetica,sans-Serif" font-size="10.00">mAssembleVector</text>
<text text-anchor="start" x="12" y="-1798.5" font-family="Helvetica,sans-Serif" font-size="10.00">#</text>
<text text-anchor="start" x="25" y="-1798.5" font-family="Helvetica,sans-Serif" font-size="10.00">mZeroMatrixBeforeAssembly</text>
<text text-anchor="start" x="12" y="-1783.5" font-family="Helvetica,sans-Serif" font-size="10.00">#</text>
<text text-anchor="start" x="25" y="-1783.5" font-family="Helvetica,sans-Serif" font-size="10.00">mZeroVectorBeforeAssembly</text>
<text text-anchor="start" x="12" y="-1768.5" font-family="Helvetica,sans-Serif" font-size="10.00">#</text>
<text text-anchor="start" x="25" y="-1768.5" font-family="Helvetica,sans-Serif" font-size="10.00">mOwnershipRangeLo</text>
<text text-anchor="start" x="12" y="-1753.5" font-family="Helvetica,sans-Serif" font-size="10.00">#</text>
<text text-anchor="start" x="25" y="-1753.5" font-family="Helvetica,sans-Serif" font-size="10.00">mOwnershipRangeHi</text>
<text text-anchor="start" x="12" y="-1738.5" font-family="Helvetica,sans-Serif" font-size="10.00">+</text>
<text text-anchor="start" x="25" y="-1738.5" font-family="Helvetica,sans-Serif" font-size="10.00">AbstractFeAssemblerInterface()</text>
<text text-anchor="start" x="12" y="-1723.5" font-family="Helvetica,sans-Serif" font-size="10.00">+</text>
<text text-anchor="start" x="25" y="-1723.5" font-family="Helvetica,sans-Serif" font-size="10.00">SetMatrixToAssemble()</text>
<text text-anchor="start" x="12" y="-1708.5" font-family="Helvetica,sans-Serif" font-size="10.00">+</text>
<text text-anchor="start" x="25" y="-1708.5" font-family="Helvetica,sans-Serif" font-size="10.00">SetVectorToAssemble()</text>
<text text-anchor="start" x="12" y="-1693.5" font-family="Helvetica,sans-Serif" font-size="10.00">+</text>
<text text-anchor="start" x="25" y="-1693.5" font-family="Helvetica,sans-Serif" font-size="10.00">Assemble()</text>
<text text-anchor="start" x="12" y="-1678.5" font-family="Helvetica,sans-Serif" font-size="10.00">+</text>
<text text-anchor="start" x="25" y="-1678.5" font-family="Helvetica,sans-Serif" font-size="10.00">AssembleMatrix()</text>
<text text-anchor="start" x="12" y="-1663.5" font-family="Helvetica,sans-Serif" font-size="10.00">+</text>
<text text-anchor="start" x="25" y="-1663.5" font-family="Helvetica,sans-Serif" font-size="10.00">AssembleVector()</text>
<text text-anchor="start" x="12" y="-1648.5" font-family="Helvetica,sans-Serif" font-size="10.00">+</text>
<text text-anchor="start" x="25" y="-1648.5" font-family="Helvetica,sans-Serif" font-size="10.00">~AbstractFeAssemblerInterface()</text>
<text text-anchor="start" x="12" y="-1633.5" font-family="Helvetica,sans-Serif" font-size="10.00">#</text>
<text text-anchor="start" x="25" y="-1633.5" font-family="Helvetica,sans-Serif" font-size="10.00">DoAssemble()</text>
<polygon fill="#666666" stroke="#666666" points="8,-1868.5 8,-1868.5 192,-1868.5 192,-1868.5 8,-1868.5"/>
<polygon fill="#666666" stroke="#666666" points="8,-1748.5 8,-1748.5 23,-1748.5 23,-1748.5 8,-1748.5"/>
<polygon fill="#666666" stroke="#666666" points="23,-1748.5 23,-1748.5 192,-1748.5 192,-1748.5 23,-1748.5"/>
<polygon fill="none" stroke="#666666" points="8,-1627 8,-1908 192,-1908 192,-1627 8,-1627"/>
</a>
</g>
</g>
<!-- Node4&#45;&gt;Node3 -->
<g id="edge3_Node000003_Node000004" class="edge">
<title>Node4&#45;&gt;Node3</title>
<g id="a_edge3_Node000003_Node000004"><a xlink:title=" ">
<path fill="none" stroke="#63b8ff" d="M100,-1616.6C100,-1607.69 100,-1598.83 100,-1590.18"/>
<polygon fill="none" stroke="#63b8ff" points="96.5,-1616.69 100,-1626.69 103.5,-1616.69 96.5,-1616.69"/>
</a>
</g>
</g>
<!-- Node5 -->
<g id="Node000005" class="node">
<title>Node5</title>
<g id="a_Node000005"><a xlink:title=" ">
<polygon fill="white" stroke="transparent" points="153,-1994 47,-1994 47,-1945 153,-1945 153,-1994"/>
<text text-anchor="start" x="52" y="-1981.5" font-family="Helvetica,sans-Serif" font-size="10.00">boost::noncopyable</text>
<text text-anchor="start" x="98" y="-1966.5" font-family="Helvetica,sans-Serif" font-size="10.00"> </text>
<text text-anchor="start" x="98" y="-1951.5" font-family="Helvetica,sans-Serif" font-size="10.00"> </text>
<polygon fill="#bfbfbf" stroke="#bfbfbf" points="47,-1976.5 47,-1976.5 153,-1976.5 153,-1976.5 47,-1976.5"/>
<polygon fill="#bfbfbf" stroke="#bfbfbf" points="47,-1961.5 47,-1961.5 153,-1961.5 153,-1961.5 47,-1961.5"/>
<polygon fill="none" stroke="#bfbfbf" points="47,-1945 47,-1994 153,-1994 153,-1945 47,-1945"/>
</a>
</g>
</g>
<!-- Node5&#45;&gt;Node4 -->
<g id="edge4_Node000004_Node000005" class="edge">
<title>Node5&#45;&gt;Node4</title>
<g id="a_edge4_Node000004_Node000005"><a xlink:title=" ">
<path fill="none" stroke="#8b1a1a" d="M100,-1934.66C100,-1926.77 100,-1917.87 100,-1908.41"/>
<polygon fill="none" stroke="#8b1a1a" points="96.5,-1934.77 100,-1944.77 103.5,-1934.77 96.5,-1934.77"/>
</a>
</g>
</g>
<!-- Node6&#45;&gt;Node2 -->
<g id="edge5_Node000002_Node000006" class="edge">
<title>Node6&#45;&gt;Node2</title>
<g id="a_edge5_Node000002_Node000006"><a xlink:title=" ">
<path fill="none" stroke="orange" d="M180.05,-1092.33C171.59,-1072.77 162.92,-1052.72 154.6,-1033.49"/>
<polygon fill="orange" stroke="orange" points="176.87,-1093.8 184.05,-1101.58 183.3,-1091.02 176.87,-1093.8"/>
</a>
</g>
<text text-anchor="start" x="174" y="-1076" font-family="Helvetica,sans-Serif" font-size="10.00" fill="grey"> &lt; ELEMENT_DIM, SPACE</text>
<text text-anchor="start" x="174" y="-1065" font-family="Helvetica,sans-Serif" font-size="10.00" fill="grey">_DIM, PROBLEM_DIM, true,</text>
<text text-anchor="middle" x="240" y="-1054" font-family="Helvetica,sans-Serif" font-size="10.00" fill="grey"> true, NONLINEAR &gt;</text>
</g>
<!-- Node8 -->
<g id="Node000008" class="node">
<title>Node8</title>
<g id="a_Node000008"><a xlink:href="classSimpleNonlinearEllipticSolver.html" target="_top" xlink:title=" ">
<polygon fill="white" stroke="transparent" points="191,-90 17,-90 17,0 191,0 191,-90"/>
<text text-anchor="start" x="26.5" y="-78" font-family="Helvetica,sans-Serif" font-size="10.00">SimpleNonlinearEllipticSolver</text>
<text text-anchor="start" x="26.5" y="-67" font-family="Helvetica,sans-Serif" font-size="10.00">&lt; ELEMENT_DIM, SPACE_DIM &gt;</text>
<text text-anchor="start" x="23.5" y="-52" font-family="Helvetica,sans-Serif" font-size="10.00">&#45;</text>
<text text-anchor="start" x="34" y="-52" font-family="Helvetica,sans-Serif" font-size="10.00">mpNonlinearEllipticPde</text>
<text text-anchor="start" x="21" y="-37" font-family="Helvetica,sans-Serif" font-size="10.00">+</text>
<text text-anchor="start" x="34" y="-37" font-family="Helvetica,sans-Serif" font-size="10.00">SimpleNonlinearEllipticSolver()</text>
<text text-anchor="start" x="23.5" y="-22" font-family="Helvetica,sans-Serif" font-size="10.00">&#45;</text>
<text text-anchor="start" x="34" y="-22" font-family="Helvetica,sans-Serif" font-size="10.00">ComputeMatrixTerm()</text>
<text text-anchor="start" x="23.5" y="-7" font-family="Helvetica,sans-Serif" font-size="10.00">&#45;</text>
<text text-anchor="start" x="34" y="-7" font-family="Helvetica,sans-Serif" font-size="10.00">ComputeVectorTerm()</text>
<polygon fill="#666666" stroke="#666666" points="17,-62 17,-62 191,-62 191,-62 17,-62"/>
<polygon fill="#666666" stroke="#666666" points="17,-47 17,-47 32,-47 32,-47 17,-47"/>
<polygon fill="#666666" stroke="#666666" points="32,-47 32,-47 191,-47 191,-47 32,-47"/>
<polygon fill="none" stroke="#666666" points="17,0 17,-90 191,-90 191,0 17,0"/>
</a>
</g>
</g>
<!-- Node7&#45;&gt;Node8 -->
<g id="edge8_Node000007_Node000008" class="edge">
<title>Node7&#45;&gt;Node8</title>
<g id="a_edge8_Node000007_Node000008"><a xlink:title=" ">
<path fill="none" stroke="#63b8ff" d="M104,-116.63C104,-107.34 104,-98.49 104,-90.39"/>
<polygon fill="none" stroke="#63b8ff" points="100.5,-116.87 104,-126.87 107.5,-116.87 100.5,-116.87"/>
</a>
</g>
</g>
</g>
</svg>
