<?xml version="1.0" encoding="UTF-8" standalone="no"?>
<!DOCTYPE svg PUBLIC "-//W3C//DTD SVG 1.1//EN"
 "http://www.w3.org/Graphics/SVG/1.1/DTD/svg11.dtd">
<!-- Generated by graphviz version 2.43.0 (0)
 -->
<!-- Title: OutputDirectoryFifoQueue Pages: 1 -->
<svg width="391pt" height="371pt"
 viewBox="0.00 0.00 391.00 371.00" xmlns="http://www.w3.org/2000/svg" xmlns:xlink="http://www.w3.org/1999/xlink">
<g id="graph0" class="graph" transform="scale(1 1) rotate(0) translate(4 367)">
<title>OutputDirectoryFifoQueue</title>
<!-- Node1 -->
<g id="Node000001" class="node">
<title>Node1</title>
<g id="a_Node000001"><a xlink:title=" ">
<polygon fill="#999999" stroke="transparent" points="294.5,-64 137.5,-64 137.5,0 294.5,0 294.5,-64"/>
<text text-anchor="start" x="152.5" y="-52" font-family="Helvetica,sans-Serif" font-size="10.00">OutputDirectoryFifoQueue</text>
<text text-anchor="start" x="214.5" y="-37" font-family="Helvetica,sans-Serif" font-size="10.00"> </text>
<text text-anchor="start" x="142" y="-22" font-family="Helvetica,sans-Serif" font-size="10.00">+</text>
<text text-anchor="start" x="155" y="-22" font-family="Helvetica,sans-Serif" font-size="10.00">OutputDirectoryFifoQueue()</text>
<text text-anchor="start" x="142" y="-7" font-family="Helvetica,sans-Serif" font-size="10.00">+</text>
<text text-anchor="start" x="155" y="-7" font-family="Helvetica,sans-Serif" font-size="10.00">CreateNextDir()</text>
<polygon fill="#666666" stroke="#666666" points="138,-47 138,-47 295,-47 295,-47 138,-47"/>
<polygon fill="#666666" stroke="#666666" points="138,-32 138,-32 295,-32 295,-32 138,-32"/>
<polygon fill="none" stroke="#666666" points="137.5,0 137.5,-64 294.5,-64 294.5,0 137.5,0"/>
</a>
</g>
</g>
<!-- Node2 -->
<g id="Node000002" class="node">
<title>Node2</title>
<g id="a_Node000002"><a xlink:title=" ">
<polygon fill="white" stroke="transparent" points="208.5,-256 149.5,-256 149.5,-207 208.5,-207 208.5,-256"/>
<text text-anchor="start" x="155" y="-243.5" font-family="Helvetica,sans-Serif" font-size="10.00">std::string</text>
<text text-anchor="start" x="177.5" y="-228.5" font-family="Helvetica,sans-Serif" font-size="10.00"> </text>
<text text-anchor="start" x="177.5" y="-213.5" font-family="Helvetica,sans-Serif" font-size="10.00"> </text>
<polygon fill="#666666" stroke="#666666" points="150,-238.5 150,-238.5 209,-238.5 209,-238.5 150,-238.5"/>
<polygon fill="#666666" stroke="#666666" points="150,-223.5 150,-223.5 209,-223.5 209,-223.5 150,-223.5"/>
<polygon fill="none" stroke="#666666" points="149.5,-207 149.5,-256 208.5,-256 208.5,-207 149.5,-207"/>
</a>
</g>
</g>
<!-- Node2&#45;&gt;Node1 -->
<g id="edge1_Node000001_Node000002" class="edge">
<title>Node2&#45;&gt;Node1</title>
<g id="a_edge1_Node000001_Node000002"><a xlink:title=" ">
<path fill="none" stroke="#63b8ff" d="M194.4,-206.68C197.39,-201.07 200.16,-194.98 202,-189 213.29,-152.22 216.38,-108.43 216.88,-76.63"/>
<polygon fill="none" stroke="#63b8ff" points="216.88,-76.21 212.92,-70.19 216.95,-64.21 220.92,-70.24 216.88,-76.21"/>
</a>
</g>
<text text-anchor="middle" x="259" y="-133" font-family="Helvetica,sans-Serif" font-size="10.00" fill="grey"> &#45;mBaseDirectory</text>
</g>
<!-- Node5 -->
<g id="Node000005" class="node">
<title>Node5</title>
<g id="a_Node000005"><a xlink:title=" ">
<polygon fill="white" stroke="transparent" points="179.5,-160 46.5,-160 46.5,-111 179.5,-111 179.5,-160"/>
<text text-anchor="start" x="52" y="-147.5" font-family="Helvetica,sans-Serif" font-size="10.00">std::queue&lt; std::string &gt;</text>
<text text-anchor="start" x="111.5" y="-132.5" font-family="Helvetica,sans-Serif" font-size="10.00"> </text>
<text text-anchor="start" x="111.5" y="-117.5" font-family="Helvetica,sans-Serif" font-size="10.00"> </text>
<polygon fill="#666666" stroke="#666666" points="47,-142.5 47,-142.5 180,-142.5 180,-142.5 47,-142.5"/>
<polygon fill="#666666" stroke="#666666" points="47,-127.5 47,-127.5 180,-127.5 180,-127.5 47,-127.5"/>
<polygon fill="none" stroke="#666666" points="46.5,-111 46.5,-160 179.5,-160 179.5,-111 46.5,-111"/>
</a>
</g>
</g>
<!-- Node2&#45;&gt;Node5 -->
<g id="edge5_Node000005_Node000002" class="edge">
<title>Node2&#45;&gt;Node5</title>
<g id="a_edge5_Node000005_Node000002"><a xlink:title=" ">
<path fill="none" stroke="#63b8ff" d="M157.94,-206.91C153.16,-201.19 148.25,-195 144,-189 139.84,-183.14 135.71,-176.69 131.88,-170.38"/>
<polygon fill="none" stroke="#63b8ff" points="131.87,-170.36 125.37,-167.23 125.77,-160.03 132.26,-163.16 131.87,-170.36"/>
</a>
</g>
<text text-anchor="middle" x="173" y="-181" font-family="Helvetica,sans-Serif" font-size="10.00" fill="grey"> +elements</text>
</g>
<!-- Node3 -->
<g id="Node000003" class="node">
<title>Node3</title>
<g id="a_Node000003"><a xlink:title=" ">
<polygon fill="white" stroke="transparent" points="228,-363 130,-363 130,-303 228,-303 228,-363"/>
<text text-anchor="start" x="135" y="-351" font-family="Helvetica,sans-Serif" font-size="10.00">std::basic_string&lt;</text>
<text text-anchor="start" x="160.5" y="-340" font-family="Helvetica,sans-Serif" font-size="10.00"> Char &gt;</text>
<text text-anchor="start" x="177" y="-325" font-family="Helvetica,sans-Serif" font-size="10.00"> </text>
<text text-anchor="start" x="177" y="-310" font-family="Helvetica,sans-Serif" font-size="10.00"> </text>
<polygon fill="#666666" stroke="#666666" points="130,-335 130,-335 228,-335 228,-335 130,-335"/>
<polygon fill="#666666" stroke="#666666" points="130,-320 130,-320 228,-320 228,-320 130,-320"/>
<polygon fill="none" stroke="#666666" points="130,-303 130,-363 228,-363 228,-303 130,-303"/>
</a>
</g>
</g>
<!-- Node3&#45;&gt;Node2 -->
<g id="edge2_Node000002_Node000003" class="edge">
<title>Node3&#45;&gt;Node2</title>
<g id="a_edge2_Node000002_Node000003"><a xlink:title=" ">
<path fill="none" stroke="#63b8ff" d="M179,-292.8C179,-280.38 179,-267.03 179,-256.06"/>
<polygon fill="none" stroke="#63b8ff" points="175.5,-292.95 179,-302.95 182.5,-292.95 175.5,-292.95"/>
</a>
</g>
</g>
<!-- Node4 -->
<g id="Node000004" class="node">
<title>Node4</title>
<g id="a_Node000004"><a xlink:href="classunsigned.html" target="_top" xlink:title=" ">
<polygon fill="white" stroke="transparent" points="375.5,-160 320.5,-160 320.5,-111 375.5,-111 375.5,-160"/>
<text text-anchor="start" x="326" y="-147.5" font-family="Helvetica,sans-Serif" font-size="10.00">unsigned</text>
<text text-anchor="start" x="346.5" y="-132.5" font-family="Helvetica,sans-Serif" font-size="10.00"> </text>
<text text-anchor="start" x="346.5" y="-117.5" font-family="Helvetica,sans-Serif" font-size="10.00"> </text>
<polygon fill="#bfbfbf" stroke="#bfbfbf" points="321,-142.5 321,-142.5 376,-142.5 376,-142.5 321,-142.5"/>
<polygon fill="#bfbfbf" stroke="#bfbfbf" points="321,-127.5 321,-127.5 376,-127.5 376,-127.5 321,-127.5"/>
<polygon fill="none" stroke="#bfbfbf" points="320.5,-111 320.5,-160 375.5,-160 375.5,-111 320.5,-111"/>
</a>
</g>
</g>
<!-- Node4&#45;&gt;Node1 -->
<g id="edge3_Node000001_Node000004" class="edge">
<title>Node4&#45;&gt;Node1</title>
<g id="a_edge3_Node000001_Node000004"><a xlink:title=" ">
<path fill="none" stroke="#63b8ff" d="M320.33,-113.22C304.63,-101.15 284.5,-85.67 266.12,-71.54"/>
<polygon fill="none" stroke="#63b8ff" points="265.93,-71.39 258.73,-70.9 256.41,-64.08 263.61,-64.56 265.93,-71.39"/>
</a>
</g>
<text text-anchor="middle" x="338" y="-85" font-family="Helvetica,sans-Serif" font-size="10.00" fill="grey"> &#45;mQueueMaxSize</text>
</g>
<!-- Node5&#45;&gt;Node1 -->
<g id="edge4_Node000001_Node000005" class="edge">
<title>Node5&#45;&gt;Node1</title>
<g id="a_edge4_Node000001_Node000005"><a xlink:title=" ">
<path fill="none" stroke="#63b8ff" d="M128.92,-110.97C135.81,-101.51 144.29,-90.79 153,-82 156.31,-78.66 159.84,-75.35 163.49,-72.11"/>
<polygon fill="none" stroke="#63b8ff" points="163.58,-72.03 165.55,-65.1 172.71,-64.25 170.74,-71.19 163.58,-72.03"/>
</a>
</g>
<text text-anchor="middle" x="177.5" y="-85" font-family="Helvetica,sans-Serif" font-size="10.00" fill="grey"> &#45;mQueue</text>
</g>
<!-- Node6 -->
<g id="Node000006" class="node">
<title>Node6</title>
<g id="a_Node000006"><a xlink:title=" ">
<polygon fill="white" stroke="transparent" points="90,-256 0,-256 0,-207 90,-207 90,-256"/>
<text text-anchor="start" x="5" y="-243.5" font-family="Helvetica,sans-Serif" font-size="10.00">std::queue&lt; T &gt;</text>
<text text-anchor="start" x="43" y="-228.5" font-family="Helvetica,sans-Serif" font-size="10.00"> </text>
<text text-anchor="start" x="43" y="-213.5" font-family="Helvetica,sans-Serif" font-size="10.00"> </text>
<polygon fill="#666666" stroke="#666666" points="0,-238.5 0,-238.5 90,-238.5 90,-238.5 0,-238.5"/>
<polygon fill="#666666" stroke="#666666" points="0,-223.5 0,-223.5 90,-223.5 90,-223.5 0,-223.5"/>
<polygon fill="none" stroke="#666666" points="0,-207 0,-256 90,-256 90,-207 0,-207"/>
</a>
</g>
</g>
<!-- Node6&#45;&gt;Node5 -->
<g id="edge6_Node000005_Node000006" class="edge">
<title>Node6&#45;&gt;Node5</title>
<g id="a_edge6_Node000005_Node000006"><a xlink:title=" ">
<path fill="none" stroke="orange" d="M50.5,-196.75C52.51,-190.19 55.26,-183.61 59,-178 63.39,-171.41 69.19,-165.43 75.35,-160.18"/>
<polygon fill="orange" stroke="orange" points="46.99,-196.36 47.9,-206.91 53.77,-198.09 46.99,-196.36"/>
</a>
</g>
<text text-anchor="middle" x="96.5" y="-181" font-family="Helvetica,sans-Serif" font-size="10.00" fill="grey"> &lt; std::string &gt;</text>
</g>
<!-- Node7 -->
<g id="Node000007" class="node">
<title>Node7</title>
<g id="a_Node000007"><a xlink:title=" ">
<polygon fill="white" stroke="transparent" points="53.5,-357.5 36.5,-357.5 36.5,-308.5 53.5,-308.5 53.5,-357.5"/>
<text text-anchor="start" x="42" y="-345" font-family="Helvetica,sans-Serif" font-size="10.00">T</text>
<text text-anchor="start" x="43.5" y="-330" font-family="Helvetica,sans-Serif" font-size="10.00"> </text>
<text text-anchor="start" x="43.5" y="-315" font-family="Helvetica,sans-Serif" font-size="10.00"> </text>
<polygon fill="#bfbfbf" stroke="#bfbfbf" points="37,-340 37,-340 54,-340 54,-340 37,-340"/>
<polygon fill="#bfbfbf" stroke="#bfbfbf" points="37,-325 37,-325 54,-325 54,-325 37,-325"/>
<polygon fill="none" stroke="#bfbfbf" points="36.5,-308.5 36.5,-357.5 53.5,-357.5 53.5,-308.5 36.5,-308.5"/>
</a>
</g>
</g>
<!-- Node7&#45;&gt;Node6 -->
<g id="edge7_Node000006_Node000007" class="edge">
<title>Node7&#45;&gt;Node6</title>
<g id="a_edge7_Node000006_Node000007"><a xlink:title=" ">
<path fill="none" stroke="#63b8ff" d="M45,-308.42C45,-296.49 45,-281.75 45,-268.44"/>
<polygon fill="none" stroke="#63b8ff" points="45,-268.26 41,-262.26 45,-256.26 49,-262.26 45,-268.26"/>
</a>
</g>
<text text-anchor="middle" x="74" y="-277" font-family="Helvetica,sans-Serif" font-size="10.00" fill="grey"> +elements</text>
</g>
</g>
</svg>
