<?xml version="1.0" encoding="UTF-8" standalone="no"?>
<!DOCTYPE svg PUBLIC "-//W3C//DTD SVG 1.1//EN"
 "http://www.w3.org/Graphics/SVG/1.1/DTD/svg11.dtd">
<!-- Generated by graphviz version 2.43.0 (0)
 -->
<!-- Title: ParabolicGrowingDomainPdeModifier&lt; DIM &gt; Pages: 1 -->
<svg width="318pt" height="1493pt"
 viewBox="0.00 0.00 317.50 1493.00" xmlns="http://www.w3.org/2000/svg" xmlns:xlink="http://www.w3.org/1999/xlink">
<g id="graph0" class="graph" transform="scale(1 1) rotate(0) translate(4 1489)">
<title>ParabolicGrowingDomainPdeModifier&lt; DIM &gt;</title>
<!-- Node1 -->
<g id="Node000001" class="node">
<title>Node1</title>
<g id="a_Node000001"><a xlink:title=" ">
<polygon fill="#999999" stroke="transparent" points="177.5,-209 6.5,-209 6.5,0 177.5,0 177.5,-209"/>
<text text-anchor="start" x="21.5" y="-196.5" font-family="Helvetica,sans-Serif" font-size="10.00">ParabolicGrowingDomainPde</text>
<text text-anchor="start" x="51.5" y="-185.5" font-family="Helvetica,sans-Serif" font-size="10.00">Modifier&lt; DIM &gt;</text>
<text text-anchor="start" x="90.5" y="-170.5" font-family="Helvetica,sans-Serif" font-size="10.00"> </text>
<text text-anchor="start" x="11" y="-155.5" font-family="Helvetica,sans-Serif" font-size="10.00">+</text>
<text text-anchor="start" x="24" y="-155.5" font-family="Helvetica,sans-Serif" font-size="10.00">ParabolicGrowingDomainPde</text>
<text text-anchor="start" x="24" y="-144.5" font-family="Helvetica,sans-Serif" font-size="10.00">Modifier()</text>
<text text-anchor="start" x="11" y="-129.5" font-family="Helvetica,sans-Serif" font-size="10.00">+</text>
<text text-anchor="start" x="24" y="-129.5" font-family="Helvetica,sans-Serif" font-size="10.00">~ParabolicGrowingDomainPde</text>
<text text-anchor="start" x="24" y="-118.5" font-family="Helvetica,sans-Serif" font-size="10.00">Modifier()</text>
<text text-anchor="start" x="11" y="-103.5" font-family="Helvetica,sans-Serif" font-size="10.00">+</text>
<text text-anchor="start" x="24" y="-103.5" font-family="Helvetica,sans-Serif" font-size="10.00">UpdateAtEndOfTimeStep()</text>
<text text-anchor="start" x="11" y="-88.5" font-family="Helvetica,sans-Serif" font-size="10.00">+</text>
<text text-anchor="start" x="24" y="-88.5" font-family="Helvetica,sans-Serif" font-size="10.00">SetupSolve()</text>
<text text-anchor="start" x="11" y="-73.5" font-family="Helvetica,sans-Serif" font-size="10.00">+</text>
<text text-anchor="start" x="24" y="-73.5" font-family="Helvetica,sans-Serif" font-size="10.00">ConstructBoundaryConditions</text>
<text text-anchor="start" x="24" y="-62.5" font-family="Helvetica,sans-Serif" font-size="10.00">Container()</text>
<text text-anchor="start" x="11" y="-47.5" font-family="Helvetica,sans-Serif" font-size="10.00">+</text>
<text text-anchor="start" x="24" y="-47.5" font-family="Helvetica,sans-Serif" font-size="10.00">UpdateSolutionVector()</text>
<text text-anchor="start" x="11" y="-32.5" font-family="Helvetica,sans-Serif" font-size="10.00">+</text>
<text text-anchor="start" x="24" y="-32.5" font-family="Helvetica,sans-Serif" font-size="10.00">OutputSimulationModifier</text>
<text text-anchor="start" x="24" y="-21.5" font-family="Helvetica,sans-Serif" font-size="10.00">Parameters()</text>
<text text-anchor="start" x="13.5" y="-6.5" font-family="Helvetica,sans-Serif" font-size="10.00">&#45;</text>
<text text-anchor="start" x="24" y="-6.5" font-family="Helvetica,sans-Serif" font-size="10.00">serialize()</text>
<polygon fill="#666666" stroke="#666666" points="7,-180.5 7,-180.5 178,-180.5 178,-180.5 7,-180.5"/>
<polygon fill="#666666" stroke="#666666" points="7,-165.5 7,-165.5 178,-165.5 178,-165.5 7,-165.5"/>
<polygon fill="none" stroke="#666666" points="6.5,0 6.5,-209 177.5,-209 177.5,0 6.5,0"/>
</a>
</g>
</g>
<!-- Node2 -->
<g id="Node000002" class="node">
<title>Node2</title>
<g id="a_Node000002"><a xlink:href="classAbstractGrowingDomainPdeModifier.html" target="_top" xlink:title=" ">
<polygon fill="white" stroke="transparent" points="175.5,-414 8.5,-414 8.5,-246 175.5,-246 175.5,-414"/>
<text text-anchor="start" x="23.5" y="-402" font-family="Helvetica,sans-Serif" font-size="10.00">AbstractGrowingDomainPde</text>
<text text-anchor="start" x="51.5" y="-391" font-family="Helvetica,sans-Serif" font-size="10.00">Modifier&lt; DIM &gt;</text>
<text text-anchor="start" x="90.5" y="-376" font-family="Helvetica,sans-Serif" font-size="10.00"> </text>
<text text-anchor="start" x="13" y="-361" font-family="Helvetica,sans-Serif" font-size="10.00">+</text>
<text text-anchor="start" x="26" y="-361" font-family="Helvetica,sans-Serif" font-size="10.00">AbstractGrowingDomainPde</text>
<text text-anchor="start" x="26" y="-350" font-family="Helvetica,sans-Serif" font-size="10.00">Modifier()</text>
<text text-anchor="start" x="13" y="-335" font-family="Helvetica,sans-Serif" font-size="10.00">+</text>
<text text-anchor="start" x="26" y="-335" font-family="Helvetica,sans-Serif" font-size="10.00">~AbstractGrowingDomainPde</text>
<text text-anchor="start" x="26" y="-324" font-family="Helvetica,sans-Serif" font-size="10.00">Modifier()</text>
<text text-anchor="start" x="13" y="-309" font-family="Helvetica,sans-Serif" font-size="10.00">+</text>
<text text-anchor="start" x="26" y="-309" font-family="Helvetica,sans-Serif" font-size="10.00">GenerateFeMesh()</text>
<text text-anchor="start" x="13" y="-294" font-family="Helvetica,sans-Serif" font-size="10.00">+</text>
<text text-anchor="start" x="26" y="-294" font-family="Helvetica,sans-Serif" font-size="10.00">UpdateCellData()</text>
<text text-anchor="start" x="13" y="-279" font-family="Helvetica,sans-Serif" font-size="10.00">+</text>
<text text-anchor="start" x="26" y="-279" font-family="Helvetica,sans-Serif" font-size="10.00">OutputSimulationModifier</text>
<text text-anchor="start" x="26" y="-268" font-family="Helvetica,sans-Serif" font-size="10.00">Parameters()</text>
<text text-anchor="start" x="15.5" y="-253" font-family="Helvetica,sans-Serif" font-size="10.00">&#45;</text>
<text text-anchor="start" x="26" y="-253" font-family="Helvetica,sans-Serif" font-size="10.00">serialize()</text>
<polygon fill="#666666" stroke="#666666" points="9,-386 9,-386 176,-386 176,-386 9,-386"/>
<polygon fill="#666666" stroke="#666666" points="9,-371 9,-371 176,-371 176,-371 9,-371"/>
<polygon fill="none" stroke="#666666" points="8.5,-246 8.5,-414 175.5,-414 175.5,-246 8.5,-246"/>
</a>
</g>
</g>
<!-- Node2&#45;&gt;Node1 -->
<g id="edge1_Node000001_Node000002" class="edge">
<title>Node2&#45;&gt;Node1</title>
<g id="a_edge1_Node000001_Node000002"><a xlink:title=" ">
<path fill="none" stroke="#63b8ff" d="M92,-235.63C92,-226.91 92,-218.04 92,-209.24"/>
<polygon fill="none" stroke="#63b8ff" points="88.5,-235.78 92,-245.78 95.5,-235.78 88.5,-235.78"/>
</a>
</g>
</g>
<!-- Node3 -->
<g id="Node000003" class="node">
<title>Node3</title>
<g id="a_Node000003"><a xlink:href="classAbstractPdeModifier.html" target="_top" xlink:title=" ">
<polygon fill="white" stroke="transparent" points="182,-837 2,-837 2,-451 182,-451 182,-837"/>
<text text-anchor="start" x="42.5" y="-825" font-family="Helvetica,sans-Serif" font-size="10.00">AbstractPdeModifier</text>
<text text-anchor="start" x="70.5" y="-814" font-family="Helvetica,sans-Serif" font-size="10.00">&lt; DIM &gt;</text>
<text text-anchor="start" x="6" y="-799" font-family="Helvetica,sans-Serif" font-size="10.00">#</text>
<text text-anchor="start" x="19" y="-799" font-family="Helvetica,sans-Serif" font-size="10.00">mpPde</text>
<text text-anchor="start" x="6" y="-784" font-family="Helvetica,sans-Serif" font-size="10.00">#</text>
<text text-anchor="start" x="19" y="-784" font-family="Helvetica,sans-Serif" font-size="10.00">mpBoundaryCondition</text>
<text text-anchor="start" x="6" y="-769" font-family="Helvetica,sans-Serif" font-size="10.00">#</text>
<text text-anchor="start" x="19" y="-769" font-family="Helvetica,sans-Serif" font-size="10.00">mIsNeumannBoundaryCondition</text>
<text text-anchor="start" x="6" y="-754" font-family="Helvetica,sans-Serif" font-size="10.00">#</text>
<text text-anchor="start" x="19" y="-754" font-family="Helvetica,sans-Serif" font-size="10.00">mDependentVariableName</text>
<text text-anchor="start" x="6" y="-739" font-family="Helvetica,sans-Serif" font-size="10.00">#</text>
<text text-anchor="start" x="19" y="-739" font-family="Helvetica,sans-Serif" font-size="10.00">mSolution</text>
<text text-anchor="start" x="6" y="-724" font-family="Helvetica,sans-Serif" font-size="10.00">#</text>
<text text-anchor="start" x="19" y="-724" font-family="Helvetica,sans-Serif" font-size="10.00">mpFeMesh</text>
<text text-anchor="start" x="6" y="-709" font-family="Helvetica,sans-Serif" font-size="10.00">#</text>
<text text-anchor="start" x="19" y="-709" font-family="Helvetica,sans-Serif" font-size="10.00">mOutputDirectory</text>
<text text-anchor="start" x="6" y="-694" font-family="Helvetica,sans-Serif" font-size="10.00">#</text>
<text text-anchor="start" x="19" y="-694" font-family="Helvetica,sans-Serif" font-size="10.00">mOutputGradient</text>
<text text-anchor="start" x="6" y="-679" font-family="Helvetica,sans-Serif" font-size="10.00">#</text>
<text text-anchor="start" x="19" y="-679" font-family="Helvetica,sans-Serif" font-size="10.00">mOutputSolutionAtPdeNodes</text>
<text text-anchor="start" x="6" y="-664" font-family="Helvetica,sans-Serif" font-size="10.00">#</text>
<text text-anchor="start" x="19" y="-664" font-family="Helvetica,sans-Serif" font-size="10.00">mpVizPdeSolutionResultsFile</text>
<text text-anchor="start" x="6" y="-649" font-family="Helvetica,sans-Serif" font-size="10.00">#</text>
<text text-anchor="start" x="19" y="-649" font-family="Helvetica,sans-Serif" font-size="10.00">mDeleteFeMesh</text>
<text text-anchor="start" x="6" y="-634" font-family="Helvetica,sans-Serif" font-size="10.00">+</text>
<text text-anchor="start" x="19" y="-634" font-family="Helvetica,sans-Serif" font-size="10.00">AbstractPdeModifier()</text>
<text text-anchor="start" x="6" y="-619" font-family="Helvetica,sans-Serif" font-size="10.00">+</text>
<text text-anchor="start" x="19" y="-619" font-family="Helvetica,sans-Serif" font-size="10.00">~AbstractPdeModifier()</text>
<text text-anchor="start" x="6" y="-604" font-family="Helvetica,sans-Serif" font-size="10.00">+</text>
<text text-anchor="start" x="19" y="-604" font-family="Helvetica,sans-Serif" font-size="10.00">GetPde()</text>
<text text-anchor="start" x="6" y="-589" font-family="Helvetica,sans-Serif" font-size="10.00">+</text>
<text text-anchor="start" x="19" y="-589" font-family="Helvetica,sans-Serif" font-size="10.00">GetBoundaryCondition()</text>
<text text-anchor="start" x="6" y="-574" font-family="Helvetica,sans-Serif" font-size="10.00">+</text>
<text text-anchor="start" x="19" y="-574" font-family="Helvetica,sans-Serif" font-size="10.00">IsNeumannBoundaryCondition()</text>
<text text-anchor="start" x="6" y="-559" font-family="Helvetica,sans-Serif" font-size="10.00">+</text>
<text text-anchor="start" x="19" y="-559" font-family="Helvetica,sans-Serif" font-size="10.00">SetDependentVariableName()</text>
<text text-anchor="start" x="6" y="-544" font-family="Helvetica,sans-Serif" font-size="10.00">+</text>
<text text-anchor="start" x="19" y="-544" font-family="Helvetica,sans-Serif" font-size="10.00">rGetDependentVariableName()</text>
<text text-anchor="start" x="6" y="-529" font-family="Helvetica,sans-Serif" font-size="10.00">+</text>
<text text-anchor="start" x="19" y="-529" font-family="Helvetica,sans-Serif" font-size="10.00">HasAveragedSourcePde()</text>
<text text-anchor="start" x="6" y="-514" font-family="Helvetica,sans-Serif" font-size="10.00">+</text>
<text text-anchor="start" x="19" y="-514" font-family="Helvetica,sans-Serif" font-size="10.00">SetUpSourceTermsForAveraged</text>
<text text-anchor="start" x="19" y="-503" font-family="Helvetica,sans-Serif" font-size="10.00">SourcePde()</text>
<text text-anchor="start" x="6" y="-488" font-family="Helvetica,sans-Serif" font-size="10.00">+</text>
<text text-anchor="start" x="19" y="-488" font-family="Helvetica,sans-Serif" font-size="10.00">GetSolution()</text>
<text text-anchor="start" x="19" y="-473" font-family="Helvetica,sans-Serif" font-size="10.00">and 10 more...</text>
<text text-anchor="start" x="8.5" y="-458" font-family="Helvetica,sans-Serif" font-size="10.00">&#45;</text>
<text text-anchor="start" x="19" y="-458" font-family="Helvetica,sans-Serif" font-size="10.00">serialize()</text>
<polygon fill="#666666" stroke="#666666" points="2,-809 2,-809 182,-809 182,-809 2,-809"/>
<polygon fill="#666666" stroke="#666666" points="2,-644 2,-644 17,-644 17,-644 2,-644"/>
<polygon fill="#666666" stroke="#666666" points="17,-644 17,-644 182,-644 182,-644 17,-644"/>
<polygon fill="none" stroke="#666666" points="2,-451 2,-837 182,-837 182,-451 2,-451"/>
</a>
</g>
</g>
<!-- Node3&#45;&gt;Node2 -->
<g id="edge2_Node000002_Node000003" class="edge">
<title>Node3&#45;&gt;Node2</title>
<g id="a_edge2_Node000002_Node000003"><a xlink:title=" ">
<path fill="none" stroke="#63b8ff" d="M92,-440.72C92,-431.57 92,-422.65 92,-414.11"/>
<polygon fill="none" stroke="#63b8ff" points="88.5,-440.74 92,-450.74 95.5,-440.74 88.5,-440.74"/>
</a>
</g>
</g>
<!-- Node4 -->
<g id="Node000004" class="node">
<title>Node4</title>
<g id="a_Node000004"><a xlink:href="classAbstractCellBasedSimulationModifier.html" target="_top" xlink:title=" ">
<polygon fill="white" stroke="transparent" points="184,-1098 0,-1098 0,-874 184,-874 184,-1098"/>
<text text-anchor="start" x="21" y="-1086" font-family="Helvetica,sans-Serif" font-size="10.00">AbstractCellBasedSimulation</text>
<text text-anchor="start" x="38" y="-1075" font-family="Helvetica,sans-Serif" font-size="10.00">Modifier&lt; DIM, DIM &gt;</text>
<text text-anchor="start" x="90" y="-1060" font-family="Helvetica,sans-Serif" font-size="10.00"> </text>
<text text-anchor="start" x="4" y="-1045" font-family="Helvetica,sans-Serif" font-size="10.00">+</text>
<text text-anchor="start" x="17" y="-1045" font-family="Helvetica,sans-Serif" font-size="10.00">AbstractCellBasedSimulation</text>
<text text-anchor="start" x="17" y="-1034" font-family="Helvetica,sans-Serif" font-size="10.00">Modifier()</text>
<text text-anchor="start" x="4" y="-1019" font-family="Helvetica,sans-Serif" font-size="10.00">+</text>
<text text-anchor="start" x="17" y="-1019" font-family="Helvetica,sans-Serif" font-size="10.00">~AbstractCellBasedSimulation</text>
<text text-anchor="start" x="17" y="-1008" font-family="Helvetica,sans-Serif" font-size="10.00">Modifier()</text>
<text text-anchor="start" x="4" y="-993" font-family="Helvetica,sans-Serif" font-size="10.00">+</text>
<text text-anchor="start" x="17" y="-993" font-family="Helvetica,sans-Serif" font-size="10.00">UpdateAtEndOfTimeStep()</text>
<text text-anchor="start" x="4" y="-978" font-family="Helvetica,sans-Serif" font-size="10.00">+</text>
<text text-anchor="start" x="17" y="-978" font-family="Helvetica,sans-Serif" font-size="10.00">UpdateAtEndOfOutputTimeStep()</text>
<text text-anchor="start" x="4" y="-963" font-family="Helvetica,sans-Serif" font-size="10.00">+</text>
<text text-anchor="start" x="17" y="-963" font-family="Helvetica,sans-Serif" font-size="10.00">SetupSolve()</text>
<text text-anchor="start" x="4" y="-948" font-family="Helvetica,sans-Serif" font-size="10.00">+</text>
<text text-anchor="start" x="17" y="-948" font-family="Helvetica,sans-Serif" font-size="10.00">UpdateAtEndOfSolve()</text>
<text text-anchor="start" x="4" y="-933" font-family="Helvetica,sans-Serif" font-size="10.00">+</text>
<text text-anchor="start" x="17" y="-933" font-family="Helvetica,sans-Serif" font-size="10.00">OutputSimulationModifier</text>
<text text-anchor="start" x="17" y="-922" font-family="Helvetica,sans-Serif" font-size="10.00">Info()</text>
<text text-anchor="start" x="4" y="-907" font-family="Helvetica,sans-Serif" font-size="10.00">+</text>
<text text-anchor="start" x="17" y="-907" font-family="Helvetica,sans-Serif" font-size="10.00">OutputSimulationModifier</text>
<text text-anchor="start" x="17" y="-896" font-family="Helvetica,sans-Serif" font-size="10.00">Parameters()</text>
<text text-anchor="start" x="6.5" y="-881" font-family="Helvetica,sans-Serif" font-size="10.00">&#45;</text>
<text text-anchor="start" x="17" y="-881" font-family="Helvetica,sans-Serif" font-size="10.00">serialize()</text>
<polygon fill="#666666" stroke="#666666" points="0,-1070 0,-1070 184,-1070 184,-1070 0,-1070"/>
<polygon fill="#666666" stroke="#666666" points="0,-1055 0,-1055 184,-1055 184,-1055 0,-1055"/>
<polygon fill="none" stroke="#666666" points="0,-874 0,-1098 184,-1098 184,-874 0,-874"/>
</a>
</g>
</g>
<!-- Node4&#45;&gt;Node3 -->
<g id="edge3_Node000003_Node000004" class="edge">
<title>Node4&#45;&gt;Node3</title>
<g id="a_edge3_Node000003_Node000004"><a xlink:title=" ">
<path fill="none" stroke="#63b8ff" d="M92,-863.61C92,-854.96 92,-846.12 92,-837.21"/>
<polygon fill="none" stroke="#63b8ff" points="88.5,-863.67 92,-873.67 95.5,-863.67 88.5,-863.67"/>
</a>
</g>
</g>
<!-- Node5 -->
<g id="Node000005" class="node">
<title>Node5</title>
<g id="a_Node000005"><a xlink:href="classIdentifiable.html" target="_top" xlink:title=" ">
<polygon fill="white" stroke="transparent" points="176,-1485 0,-1485 0,-1406 176,-1406 176,-1485"/>
<text text-anchor="start" x="60.5" y="-1472.5" font-family="Helvetica,sans-Serif" font-size="10.00">Identifiable</text>
<text text-anchor="start" x="86" y="-1457.5" font-family="Helvetica,sans-Serif" font-size="10.00"> </text>
<text text-anchor="start" x="4" y="-1442.5" font-family="Helvetica,sans-Serif" font-size="10.00">+</text>
<text text-anchor="start" x="17" y="-1442.5" font-family="Helvetica,sans-Serif" font-size="10.00">~Identifiable()</text>
<text text-anchor="start" x="4" y="-1427.5" font-family="Helvetica,sans-Serif" font-size="10.00">+</text>
<text text-anchor="start" x="17" y="-1427.5" font-family="Helvetica,sans-Serif" font-size="10.00">GetIdentifier()</text>
<text text-anchor="start" x="6.5" y="-1412.5" font-family="Helvetica,sans-Serif" font-size="10.00">&#45;</text>
<text text-anchor="start" x="17" y="-1412.5" font-family="Helvetica,sans-Serif" font-size="10.00">TidyTemplatedExportIdentifier()</text>
<polygon fill="#666666" stroke="#666666" points="0,-1467.5 0,-1467.5 176,-1467.5 176,-1467.5 0,-1467.5"/>
<polygon fill="#666666" stroke="#666666" points="0,-1452.5 0,-1452.5 176,-1452.5 176,-1452.5 0,-1452.5"/>
<polygon fill="none" stroke="#666666" points="0,-1406 0,-1485 176,-1485 176,-1406 0,-1406"/>
</a>
</g>
</g>
<!-- Node5&#45;&gt;Node4 -->
<g id="edge4_Node000004_Node000005" class="edge">
<title>Node5&#45;&gt;Node4</title>
<g id="a_edge4_Node000004_Node000005"><a xlink:title=" ">
<path fill="none" stroke="#63b8ff" d="M88.43,-1395.53C89.04,-1325.02 90.2,-1192.96 91.03,-1098.05"/>
<polygon fill="none" stroke="#63b8ff" points="84.93,-1395.86 88.34,-1405.89 91.92,-1395.92 84.93,-1395.86"/>
</a>
</g>
</g>
<!-- Node6 -->
<g id="Node000006" class="node">
<title>Node6</title>
<g id="a_Node000006"><a xlink:href="classAbstractCellBasedSimulationModifier.html" target="_top" xlink:title=" ">
<polygon fill="white" stroke="transparent" points="309.5,-1369 104.5,-1369 104.5,-1145 309.5,-1145 309.5,-1369"/>
<text text-anchor="start" x="110" y="-1357" font-family="Helvetica,sans-Serif" font-size="10.00">AbstractCellBasedSimulation</text>
<text text-anchor="start" x="110" y="-1346" font-family="Helvetica,sans-Serif" font-size="10.00">Modifier&lt; ELEMENT_DIM, SPACE_DIM &gt;</text>
<text text-anchor="start" x="205.5" y="-1331" font-family="Helvetica,sans-Serif" font-size="10.00"> </text>
<text text-anchor="start" x="114" y="-1316" font-family="Helvetica,sans-Serif" font-size="10.00">+</text>
<text text-anchor="start" x="132" y="-1316" font-family="Helvetica,sans-Serif" font-size="10.00">AbstractCellBasedSimulation</text>
<text text-anchor="start" x="132" y="-1305" font-family="Helvetica,sans-Serif" font-size="10.00">Modifier()</text>
<text text-anchor="start" x="114" y="-1290" font-family="Helvetica,sans-Serif" font-size="10.00">+</text>
<text text-anchor="start" x="132" y="-1290" font-family="Helvetica,sans-Serif" font-size="10.00">~AbstractCellBasedSimulation</text>
<text text-anchor="start" x="132" y="-1279" font-family="Helvetica,sans-Serif" font-size="10.00">Modifier()</text>
<text text-anchor="start" x="114" y="-1264" font-family="Helvetica,sans-Serif" font-size="10.00">+</text>
<text text-anchor="start" x="132" y="-1264" font-family="Helvetica,sans-Serif" font-size="10.00">UpdateAtEndOfTimeStep()</text>
<text text-anchor="start" x="114" y="-1249" font-family="Helvetica,sans-Serif" font-size="10.00">+</text>
<text text-anchor="start" x="132" y="-1249" font-family="Helvetica,sans-Serif" font-size="10.00">UpdateAtEndOfOutputTimeStep()</text>
<text text-anchor="start" x="114" y="-1234" font-family="Helvetica,sans-Serif" font-size="10.00">+</text>
<text text-anchor="start" x="132" y="-1234" font-family="Helvetica,sans-Serif" font-size="10.00">SetupSolve()</text>
<text text-anchor="start" x="114" y="-1219" font-family="Helvetica,sans-Serif" font-size="10.00">+</text>
<text text-anchor="start" x="132" y="-1219" font-family="Helvetica,sans-Serif" font-size="10.00">UpdateAtEndOfSolve()</text>
<text text-anchor="start" x="114" y="-1204" font-family="Helvetica,sans-Serif" font-size="10.00">+</text>
<text text-anchor="start" x="132" y="-1204" font-family="Helvetica,sans-Serif" font-size="10.00">OutputSimulationModifier</text>
<text text-anchor="start" x="132" y="-1193" font-family="Helvetica,sans-Serif" font-size="10.00">Info()</text>
<text text-anchor="start" x="114" y="-1178" font-family="Helvetica,sans-Serif" font-size="10.00">+</text>
<text text-anchor="start" x="132" y="-1178" font-family="Helvetica,sans-Serif" font-size="10.00">OutputSimulationModifier</text>
<text text-anchor="start" x="132" y="-1167" font-family="Helvetica,sans-Serif" font-size="10.00">Parameters()</text>
<text text-anchor="start" x="116.5" y="-1152" font-family="Helvetica,sans-Serif" font-size="10.00">&#45;</text>
<text text-anchor="start" x="132" y="-1152" font-family="Helvetica,sans-Serif" font-size="10.00">serialize()</text>
<polygon fill="#666666" stroke="#666666" points="105,-1341 105,-1341 310,-1341 310,-1341 105,-1341"/>
<polygon fill="#666666" stroke="#666666" points="105,-1326 105,-1326 310,-1326 310,-1326 105,-1326"/>
<polygon fill="none" stroke="#666666" points="104.5,-1145 104.5,-1369 309.5,-1369 309.5,-1145 104.5,-1145"/>
</a>
</g>
</g>
<!-- Node5&#45;&gt;Node6 -->
<g id="edge6_Node000006_Node000005" class="edge">
<title>Node5&#45;&gt;Node6</title>
<g id="a_edge6_Node000006_Node000005"><a xlink:title=" ">
<path fill="none" stroke="#63b8ff" d="M118.09,-1397.34C123.69,-1388.56 129.76,-1379.06 136,-1369.28"/>
<polygon fill="none" stroke="#63b8ff" points="115.09,-1395.54 112.66,-1405.86 120.99,-1399.31 115.09,-1395.54"/>
</a>
</g>
</g>
<!-- Node6&#45;&gt;Node4 -->
<g id="edge5_Node000004_Node000006" class="edge">
<title>Node6&#45;&gt;Node4</title>
<g id="a_edge5_Node000004_Node000006"><a xlink:title=" ">
<path fill="none" stroke="orange" d="M155.38,-1135.27C150.12,-1122.95 144.79,-1110.48 139.57,-1098.27"/>
<polygon fill="orange" stroke="orange" points="152.25,-1136.83 159.39,-1144.65 158.68,-1134.07 152.25,-1136.83"/>
</a>
</g>
<text text-anchor="middle" x="184.5" y="-1119" font-family="Helvetica,sans-Serif" font-size="10.00" fill="grey"> &lt; DIM, DIM &gt;</text>
</g>
</g>
</svg>
