<?xml version="1.0" encoding="UTF-8" standalone="no"?>
<!DOCTYPE svg PUBLIC "-//W3C//DTD SVG 1.1//EN"
 "http://www.w3.org/Graphics/SVG/1.1/DTD/svg11.dtd">
<!-- Generated by graphviz version 2.43.0 (0)
 -->
<!-- Title: CryptCentreBasedDivisionRule&lt; ELEMENT_DIM, SPACE_DIM &gt; Pages: 1 -->
<svg width="195pt" height="465pt"
 viewBox="0.00 0.00 195.00 465.00" xmlns="http://www.w3.org/2000/svg" xmlns:xlink="http://www.w3.org/1999/xlink">
<g id="graph0" class="graph" transform="scale(1 1) rotate(0) translate(4 461)">
<title>CryptCentreBasedDivisionRule&lt; ELEMENT_DIM, SPACE_DIM &gt;</title>
<!-- Node1 -->
<g id="Node000001" class="node">
<title>Node1</title>
<g id="a_Node000001"><a xlink:title=" ">
<polygon fill="#999999" stroke="transparent" points="187,-127 0,-127 0,0 187,0 187,-127"/>
<text text-anchor="start" x="5.5" y="-114.5" font-family="Helvetica,sans-Serif" font-size="10.00">CryptCentreBasedDivision</text>
<text text-anchor="start" x="5.5" y="-103.5" font-family="Helvetica,sans-Serif" font-size="10.00">Rule&lt; ELEMENT_DIM, SPACE_DIM &gt;</text>
<text text-anchor="start" x="92" y="-88.5" font-family="Helvetica,sans-Serif" font-size="10.00"> </text>
<text text-anchor="start" x="10" y="-73.5" font-family="Helvetica,sans-Serif" font-size="10.00">+</text>
<text text-anchor="start" x="28.5" y="-73.5" font-family="Helvetica,sans-Serif" font-size="10.00">CryptCentreBasedDivision</text>
<text text-anchor="start" x="28.5" y="-62.5" font-family="Helvetica,sans-Serif" font-size="10.00">Rule()</text>
<text text-anchor="start" x="10" y="-47.5" font-family="Helvetica,sans-Serif" font-size="10.00">+</text>
<text text-anchor="start" x="28.5" y="-47.5" font-family="Helvetica,sans-Serif" font-size="10.00">~CryptCentreBasedDivision</text>
<text text-anchor="start" x="28.5" y="-36.5" font-family="Helvetica,sans-Serif" font-size="10.00">Rule()</text>
<text text-anchor="start" x="10" y="-21.5" font-family="Helvetica,sans-Serif" font-size="10.00">+</text>
<text text-anchor="start" x="28.5" y="-21.5" font-family="Helvetica,sans-Serif" font-size="10.00">CalculateCellDivisionVector()</text>
<text text-anchor="start" x="12.5" y="-6.5" font-family="Helvetica,sans-Serif" font-size="10.00">&#45;</text>
<text text-anchor="start" x="28.5" y="-6.5" font-family="Helvetica,sans-Serif" font-size="10.00">serialize()</text>
<polygon fill="#666666" stroke="#666666" points="0.5,-98.5 0.5,-98.5 187.5,-98.5 187.5,-98.5 0.5,-98.5"/>
<polygon fill="#666666" stroke="#666666" points="0.5,-83.5 0.5,-83.5 187.5,-83.5 187.5,-83.5 0.5,-83.5"/>
<polygon fill="none" stroke="#666666" points="0,0 0,-127 187,-127 187,0 0,0"/>
</a>
</g>
</g>
<!-- Node2 -->
<g id="Node000002" class="node">
<title>Node2</title>
<g id="a_Node000002"><a xlink:href="classAbstractCentreBasedDivisionRule.html" target="_top" xlink:title=" ">
<polygon fill="white" stroke="transparent" points="187,-342 0,-342 0,-163 187,-163 187,-342"/>
<text text-anchor="start" x="5.5" y="-329.5" font-family="Helvetica,sans-Serif" font-size="10.00">AbstractCentreBasedDivision</text>
<text text-anchor="start" x="5.5" y="-318.5" font-family="Helvetica,sans-Serif" font-size="10.00">Rule&lt; ELEMENT_DIM, SPACE_DIM &gt;</text>
<text text-anchor="start" x="92" y="-303.5" font-family="Helvetica,sans-Serif" font-size="10.00"> </text>
<text text-anchor="start" x="7.5" y="-288.5" font-family="Helvetica,sans-Serif" font-size="10.00">+</text>
<text text-anchor="start" x="23.5" y="-288.5" font-family="Helvetica,sans-Serif" font-size="10.00">AbstractCentreBasedDivision</text>
<text text-anchor="start" x="23.5" y="-277.5" font-family="Helvetica,sans-Serif" font-size="10.00">Rule()</text>
<text text-anchor="start" x="7.5" y="-262.5" font-family="Helvetica,sans-Serif" font-size="10.00">+</text>
<text text-anchor="start" x="23.5" y="-262.5" font-family="Helvetica,sans-Serif" font-size="10.00">~AbstractCentreBasedDivision</text>
<text text-anchor="start" x="23.5" y="-251.5" font-family="Helvetica,sans-Serif" font-size="10.00">Rule()</text>
<text text-anchor="start" x="7.5" y="-236.5" font-family="Helvetica,sans-Serif" font-size="10.00">+</text>
<text text-anchor="start" x="23.5" y="-236.5" font-family="Helvetica,sans-Serif" font-size="10.00">CalculateCellDivisionVector()</text>
<text text-anchor="start" x="7.5" y="-221.5" font-family="Helvetica,sans-Serif" font-size="10.00">+</text>
<text text-anchor="start" x="23.5" y="-221.5" font-family="Helvetica,sans-Serif" font-size="10.00">OutputCellCentreBasedDivision</text>
<text text-anchor="start" x="23.5" y="-210.5" font-family="Helvetica,sans-Serif" font-size="10.00">RuleInfo()</text>
<text text-anchor="start" x="7.5" y="-195.5" font-family="Helvetica,sans-Serif" font-size="10.00">#</text>
<text text-anchor="start" x="23.5" y="-195.5" font-family="Helvetica,sans-Serif" font-size="10.00">OutputCellCentreBasedDivision</text>
<text text-anchor="start" x="23.5" y="-184.5" font-family="Helvetica,sans-Serif" font-size="10.00">RuleParameters()</text>
<text text-anchor="start" x="10" y="-169.5" font-family="Helvetica,sans-Serif" font-size="10.00">&#45;</text>
<text text-anchor="start" x="23.5" y="-169.5" font-family="Helvetica,sans-Serif" font-size="10.00">serialize()</text>
<polygon fill="#666666" stroke="#666666" points="0.5,-313.5 0.5,-313.5 187.5,-313.5 187.5,-313.5 0.5,-313.5"/>
<polygon fill="#666666" stroke="#666666" points="0.5,-298.5 0.5,-298.5 187.5,-298.5 187.5,-298.5 0.5,-298.5"/>
<polygon fill="none" stroke="#666666" points="0,-163 0,-342 187,-342 187,-163 0,-163"/>
</a>
</g>
</g>
<!-- Node2&#45;&gt;Node1 -->
<g id="edge1_Node000001_Node000002" class="edge">
<title>Node2&#45;&gt;Node1</title>
<g id="a_edge1_Node000001_Node000002"><a xlink:title=" ">
<path fill="none" stroke="#63b8ff" d="M93.5,-152.73C93.5,-144.04 93.5,-135.42 93.5,-127.16"/>
<polygon fill="none" stroke="#63b8ff" points="90,-152.93 93.5,-162.93 97,-152.93 90,-152.93"/>
</a>
</g>
</g>
<!-- Node3 -->
<g id="Node000003" class="node">
<title>Node3</title>
<g id="a_Node000003"><a xlink:href="classIdentifiable.html" target="_top" xlink:title=" ">
<polygon fill="white" stroke="transparent" points="181.5,-457 5.5,-457 5.5,-378 181.5,-378 181.5,-457"/>
<text text-anchor="start" x="66" y="-444.5" font-family="Helvetica,sans-Serif" font-size="10.00">Identifiable</text>
<text text-anchor="start" x="91.5" y="-429.5" font-family="Helvetica,sans-Serif" font-size="10.00"> </text>
<text text-anchor="start" x="9.5" y="-414.5" font-family="Helvetica,sans-Serif" font-size="10.00">+</text>
<text text-anchor="start" x="22.5" y="-414.5" font-family="Helvetica,sans-Serif" font-size="10.00">~Identifiable()</text>
<text text-anchor="start" x="9.5" y="-399.5" font-family="Helvetica,sans-Serif" font-size="10.00">+</text>
<text text-anchor="start" x="22.5" y="-399.5" font-family="Helvetica,sans-Serif" font-size="10.00">GetIdentifier()</text>
<text text-anchor="start" x="12" y="-384.5" font-family="Helvetica,sans-Serif" font-size="10.00">&#45;</text>
<text text-anchor="start" x="22.5" y="-384.5" font-family="Helvetica,sans-Serif" font-size="10.00">TidyTemplatedExportIdentifier()</text>
<polygon fill="#666666" stroke="#666666" points="5.5,-439.5 5.5,-439.5 181.5,-439.5 181.5,-439.5 5.5,-439.5"/>
<polygon fill="#666666" stroke="#666666" points="5.5,-424.5 5.5,-424.5 181.5,-424.5 181.5,-424.5 5.5,-424.5"/>
<polygon fill="none" stroke="#666666" points="5.5,-378 5.5,-457 181.5,-457 181.5,-378 5.5,-378"/>
</a>
</g>
</g>
<!-- Node3&#45;&gt;Node2 -->
<g id="edge2_Node000002_Node000003" class="edge">
<title>Node3&#45;&gt;Node2</title>
<g id="a_edge2_Node000002_Node000003"><a xlink:title=" ">
<path fill="none" stroke="#63b8ff" d="M93.5,-367.8C93.5,-359.59 93.5,-350.86 93.5,-342.01"/>
<polygon fill="none" stroke="#63b8ff" points="90,-367.87 93.5,-377.87 97,-367.87 90,-367.87"/>
</a>
</g>
</g>
</g>
</svg>
