<?xml version="1.0" encoding="UTF-8" standalone="no"?>
<!DOCTYPE svg PUBLIC "-//W3C//DTD SVG 1.1//EN"
 "http://www.w3.org/Graphics/SVG/1.1/DTD/svg11.dtd">
<!-- Generated by graphviz version 2.43.0 (0)
 -->
<!-- Title: SimpleOxygenBasedCellCycleModel Pages: 1 -->
<svg width="672pt" height="1307pt"
 viewBox="0.00 0.00 671.50 1307.00" xmlns="http://www.w3.org/2000/svg" xmlns:xlink="http://www.w3.org/1999/xlink">
<g id="graph0" class="graph" transform="scale(1 1) rotate(0) translate(4 1303)">
<title>SimpleOxygenBasedCellCycleModel</title>
<!-- Node1 -->
<g id="Node000001" class="node">
<title>Node1</title>
<g id="a_Node000001"><a xlink:title=" ">
<polygon fill="#999999" stroke="transparent" points="193,-307 0,-307 0,0 193,0 193,-307"/>
<text text-anchor="start" x="23" y="-294.5" font-family="Helvetica,sans-Serif" font-size="10.00">SimpleOxygenBasedCellCycle</text>
<text text-anchor="start" x="81.5" y="-283.5" font-family="Helvetica,sans-Serif" font-size="10.00">Model</text>
<text text-anchor="start" x="95" y="-268.5" font-family="Helvetica,sans-Serif" font-size="10.00"> </text>
<text text-anchor="start" x="4.5" y="-253.5" font-family="Helvetica,sans-Serif" font-size="10.00">+</text>
<text text-anchor="start" x="17.5" y="-253.5" font-family="Helvetica,sans-Serif" font-size="10.00">SimpleOxygenBasedCellCycle</text>
<text text-anchor="start" x="17.5" y="-242.5" font-family="Helvetica,sans-Serif" font-size="10.00">Model()</text>
<text text-anchor="start" x="4.5" y="-227.5" font-family="Helvetica,sans-Serif" font-size="10.00">+</text>
<text text-anchor="start" x="17.5" y="-227.5" font-family="Helvetica,sans-Serif" font-size="10.00">UpdateCellCyclePhase()</text>
<text text-anchor="start" x="4.5" y="-212.5" font-family="Helvetica,sans-Serif" font-size="10.00">+</text>
<text text-anchor="start" x="17.5" y="-212.5" font-family="Helvetica,sans-Serif" font-size="10.00">UpdateHypoxicDuration()</text>
<text text-anchor="start" x="4.5" y="-197.5" font-family="Helvetica,sans-Serif" font-size="10.00">+</text>
<text text-anchor="start" x="17.5" y="-197.5" font-family="Helvetica,sans-Serif" font-size="10.00">GetCurrentHypoxicDuration()</text>
<text text-anchor="start" x="4.5" y="-182.5" font-family="Helvetica,sans-Serif" font-size="10.00">+</text>
<text text-anchor="start" x="17.5" y="-182.5" font-family="Helvetica,sans-Serif" font-size="10.00">GetCurrentHypoxiaOnsetTime()</text>
<text text-anchor="start" x="4.5" y="-167.5" font-family="Helvetica,sans-Serif" font-size="10.00">+</text>
<text text-anchor="start" x="17.5" y="-167.5" font-family="Helvetica,sans-Serif" font-size="10.00">CreateCellCycleModel()</text>
<text text-anchor="start" x="4.5" y="-152.5" font-family="Helvetica,sans-Serif" font-size="10.00">+</text>
<text text-anchor="start" x="17.5" y="-152.5" font-family="Helvetica,sans-Serif" font-size="10.00">GetHypoxicConcentration()</text>
<text text-anchor="start" x="4.5" y="-137.5" font-family="Helvetica,sans-Serif" font-size="10.00">+</text>
<text text-anchor="start" x="17.5" y="-137.5" font-family="Helvetica,sans-Serif" font-size="10.00">SetHypoxicConcentration()</text>
<text text-anchor="start" x="4.5" y="-122.5" font-family="Helvetica,sans-Serif" font-size="10.00">+</text>
<text text-anchor="start" x="17.5" y="-122.5" font-family="Helvetica,sans-Serif" font-size="10.00">GetQuiescentConcentration()</text>
<text text-anchor="start" x="4.5" y="-107.5" font-family="Helvetica,sans-Serif" font-size="10.00">+</text>
<text text-anchor="start" x="17.5" y="-107.5" font-family="Helvetica,sans-Serif" font-size="10.00">SetQuiescentConcentration()</text>
<text text-anchor="start" x="4.5" y="-92.5" font-family="Helvetica,sans-Serif" font-size="10.00">+</text>
<text text-anchor="start" x="17.5" y="-92.5" font-family="Helvetica,sans-Serif" font-size="10.00">GetCriticalHypoxicDuration()</text>
<text text-anchor="start" x="4.5" y="-77.5" font-family="Helvetica,sans-Serif" font-size="10.00">+</text>
<text text-anchor="start" x="17.5" y="-77.5" font-family="Helvetica,sans-Serif" font-size="10.00">SetCriticalHypoxicDuration()</text>
<text text-anchor="start" x="4.5" y="-62.5" font-family="Helvetica,sans-Serif" font-size="10.00">+</text>
<text text-anchor="start" x="17.5" y="-62.5" font-family="Helvetica,sans-Serif" font-size="10.00">SetCurrentHypoxiaOnsetTime()</text>
<text text-anchor="start" x="4.5" y="-47.5" font-family="Helvetica,sans-Serif" font-size="10.00">+</text>
<text text-anchor="start" x="17.5" y="-47.5" font-family="Helvetica,sans-Serif" font-size="10.00">OutputCellCycleModelParameters()</text>
<text text-anchor="start" x="4.5" y="-32.5" font-family="Helvetica,sans-Serif" font-size="10.00">#</text>
<text text-anchor="start" x="17.5" y="-32.5" font-family="Helvetica,sans-Serif" font-size="10.00">SimpleOxygenBasedCellCycle</text>
<text text-anchor="start" x="17.5" y="-21.5" font-family="Helvetica,sans-Serif" font-size="10.00">Model()</text>
<text text-anchor="start" x="7" y="-6.5" font-family="Helvetica,sans-Serif" font-size="10.00">&#45;</text>
<text text-anchor="start" x="17.5" y="-6.5" font-family="Helvetica,sans-Serif" font-size="10.00">serialize()</text>
<polygon fill="#666666" stroke="#666666" points="0.5,-278.5 0.5,-278.5 193.5,-278.5 193.5,-278.5 0.5,-278.5"/>
<polygon fill="#666666" stroke="#666666" points="0.5,-263.5 0.5,-263.5 193.5,-263.5 193.5,-263.5 0.5,-263.5"/>
<polygon fill="none" stroke="#666666" points="0,0 0,-307 193,-307 193,0 0,0"/>
</a>
</g>
</g>
<!-- Node2 -->
<g id="Node000002" class="node">
<title>Node2</title>
<g id="a_Node000002"><a xlink:href="classAbstractSimplePhaseBasedCellCycleModel.html" target="_top" xlink:title=" ">
<polygon fill="white" stroke="transparent" points="329,-572 136,-572 136,-344 329,-344 329,-572"/>
<text text-anchor="start" x="166" y="-560" font-family="Helvetica,sans-Serif" font-size="10.00">AbstractSimplePhaseBased</text>
<text text-anchor="start" x="195" y="-549" font-family="Helvetica,sans-Serif" font-size="10.00">CellCycleModel</text>
<text text-anchor="start" x="231" y="-534" font-family="Helvetica,sans-Serif" font-size="10.00"> </text>
<text text-anchor="start" x="140.5" y="-519" font-family="Helvetica,sans-Serif" font-size="10.00">+</text>
<text text-anchor="start" x="153.5" y="-519" font-family="Helvetica,sans-Serif" font-size="10.00">AbstractSimplePhaseBased</text>
<text text-anchor="start" x="153.5" y="-508" font-family="Helvetica,sans-Serif" font-size="10.00">CellCycleModel()</text>
<text text-anchor="start" x="140.5" y="-493" font-family="Helvetica,sans-Serif" font-size="10.00">+</text>
<text text-anchor="start" x="153.5" y="-493" font-family="Helvetica,sans-Serif" font-size="10.00">~AbstractSimplePhaseBased</text>
<text text-anchor="start" x="153.5" y="-482" font-family="Helvetica,sans-Serif" font-size="10.00">CellCycleModel()</text>
<text text-anchor="start" x="140.5" y="-467" font-family="Helvetica,sans-Serif" font-size="10.00">+</text>
<text text-anchor="start" x="153.5" y="-467" font-family="Helvetica,sans-Serif" font-size="10.00">ResetForDivision()</text>
<text text-anchor="start" x="140.5" y="-452" font-family="Helvetica,sans-Serif" font-size="10.00">+</text>
<text text-anchor="start" x="153.5" y="-452" font-family="Helvetica,sans-Serif" font-size="10.00">UpdateCellCyclePhase()</text>
<text text-anchor="start" x="140.5" y="-437" font-family="Helvetica,sans-Serif" font-size="10.00">+</text>
<text text-anchor="start" x="153.5" y="-437" font-family="Helvetica,sans-Serif" font-size="10.00">InitialiseDaughterCell()</text>
<text text-anchor="start" x="140.5" y="-422" font-family="Helvetica,sans-Serif" font-size="10.00">+</text>
<text text-anchor="start" x="153.5" y="-422" font-family="Helvetica,sans-Serif" font-size="10.00">Initialise()</text>
<text text-anchor="start" x="140.5" y="-407" font-family="Helvetica,sans-Serif" font-size="10.00">+</text>
<text text-anchor="start" x="153.5" y="-407" font-family="Helvetica,sans-Serif" font-size="10.00">OutputCellCycleModelParameters()</text>
<text text-anchor="start" x="140.5" y="-392" font-family="Helvetica,sans-Serif" font-size="10.00">#</text>
<text text-anchor="start" x="153.5" y="-392" font-family="Helvetica,sans-Serif" font-size="10.00">SetG1Duration()</text>
<text text-anchor="start" x="140.5" y="-377" font-family="Helvetica,sans-Serif" font-size="10.00">#</text>
<text text-anchor="start" x="153.5" y="-377" font-family="Helvetica,sans-Serif" font-size="10.00">AbstractSimplePhaseBased</text>
<text text-anchor="start" x="153.5" y="-366" font-family="Helvetica,sans-Serif" font-size="10.00">CellCycleModel()</text>
<text text-anchor="start" x="143" y="-351" font-family="Helvetica,sans-Serif" font-size="10.00">&#45;</text>
<text text-anchor="start" x="153.5" y="-351" font-family="Helvetica,sans-Serif" font-size="10.00">serialize()</text>
<polygon fill="#666666" stroke="#666666" points="136.5,-544 136.5,-544 329.5,-544 329.5,-544 136.5,-544"/>
<polygon fill="#666666" stroke="#666666" points="136.5,-529 136.5,-529 329.5,-529 329.5,-529 136.5,-529"/>
<polygon fill="none" stroke="#666666" points="136,-344 136,-572 329,-572 329,-344 136,-344"/>
</a>
</g>
</g>
<!-- Node2&#45;&gt;Node1 -->
<g id="edge1_Node000001_Node000002" class="edge">
<title>Node2&#45;&gt;Node1</title>
<g id="a_edge1_Node000001_Node000002"><a xlink:title=" ">
<path fill="none" stroke="#63b8ff" d="M177.46,-334.59C173.41,-325.57 169.29,-316.4 165.17,-307.23"/>
<polygon fill="none" stroke="#63b8ff" points="174.37,-336.24 181.67,-343.93 180.76,-333.37 174.37,-336.24"/>
</a>
</g>
</g>
<!-- Node3 -->
<g id="Node000003" class="node">
<title>Node3</title>
<g id="a_Node000003"><a xlink:href="classAbstractPhaseBasedCellCycleModel.html" target="_top" xlink:title=" ">
<polygon fill="white" stroke="transparent" points="385,-882 210,-882 210,-609 385,-609 385,-882"/>
<text text-anchor="start" x="225" y="-869.5" font-family="Helvetica,sans-Serif" font-size="10.00">AbstractPhaseBasedCellCycle</text>
<text text-anchor="start" x="282.5" y="-858.5" font-family="Helvetica,sans-Serif" font-size="10.00">Model</text>
<text text-anchor="start" x="296" y="-843.5" font-family="Helvetica,sans-Serif" font-size="10.00"> </text>
<text text-anchor="start" x="214.5" y="-828.5" font-family="Helvetica,sans-Serif" font-size="10.00">+</text>
<text text-anchor="start" x="227.5" y="-828.5" font-family="Helvetica,sans-Serif" font-size="10.00">AbstractPhaseBasedCellCycle</text>
<text text-anchor="start" x="227.5" y="-817.5" font-family="Helvetica,sans-Serif" font-size="10.00">Model()</text>
<text text-anchor="start" x="214.5" y="-802.5" font-family="Helvetica,sans-Serif" font-size="10.00">+</text>
<text text-anchor="start" x="227.5" y="-802.5" font-family="Helvetica,sans-Serif" font-size="10.00">~AbstractPhaseBasedCellCycle</text>
<text text-anchor="start" x="227.5" y="-791.5" font-family="Helvetica,sans-Serif" font-size="10.00">Model()</text>
<text text-anchor="start" x="214.5" y="-776.5" font-family="Helvetica,sans-Serif" font-size="10.00">+</text>
<text text-anchor="start" x="227.5" y="-776.5" font-family="Helvetica,sans-Serif" font-size="10.00">ReadyToDivide()</text>
<text text-anchor="start" x="214.5" y="-761.5" font-family="Helvetica,sans-Serif" font-size="10.00">+</text>
<text text-anchor="start" x="227.5" y="-761.5" font-family="Helvetica,sans-Serif" font-size="10.00">ResetForDivision()</text>
<text text-anchor="start" x="214.5" y="-746.5" font-family="Helvetica,sans-Serif" font-size="10.00">+</text>
<text text-anchor="start" x="227.5" y="-746.5" font-family="Helvetica,sans-Serif" font-size="10.00">UpdateCellCyclePhase()</text>
<text text-anchor="start" x="214.5" y="-731.5" font-family="Helvetica,sans-Serif" font-size="10.00">+</text>
<text text-anchor="start" x="227.5" y="-731.5" font-family="Helvetica,sans-Serif" font-size="10.00">GetCurrentCellCyclePhase()</text>
<text text-anchor="start" x="214.5" y="-716.5" font-family="Helvetica,sans-Serif" font-size="10.00">+</text>
<text text-anchor="start" x="227.5" y="-716.5" font-family="Helvetica,sans-Serif" font-size="10.00">GetG1Duration()</text>
<text text-anchor="start" x="214.5" y="-701.5" font-family="Helvetica,sans-Serif" font-size="10.00">+</text>
<text text-anchor="start" x="227.5" y="-701.5" font-family="Helvetica,sans-Serif" font-size="10.00">GetStemCellG1Duration()</text>
<text text-anchor="start" x="214.5" y="-686.5" font-family="Helvetica,sans-Serif" font-size="10.00">+</text>
<text text-anchor="start" x="227.5" y="-686.5" font-family="Helvetica,sans-Serif" font-size="10.00">GetTransitCellG1Duration()</text>
<text text-anchor="start" x="214.5" y="-671.5" font-family="Helvetica,sans-Serif" font-size="10.00">+</text>
<text text-anchor="start" x="227.5" y="-671.5" font-family="Helvetica,sans-Serif" font-size="10.00">GetSG2MDuration()</text>
<text text-anchor="start" x="227.5" y="-656.5" font-family="Helvetica,sans-Serif" font-size="10.00">and 13 more...</text>
<text text-anchor="start" x="214.5" y="-641.5" font-family="Helvetica,sans-Serif" font-size="10.00">#</text>
<text text-anchor="start" x="227.5" y="-641.5" font-family="Helvetica,sans-Serif" font-size="10.00">AbstractPhaseBasedCellCycle</text>
<text text-anchor="start" x="227.5" y="-630.5" font-family="Helvetica,sans-Serif" font-size="10.00">Model()</text>
<text text-anchor="start" x="217" y="-615.5" font-family="Helvetica,sans-Serif" font-size="10.00">&#45;</text>
<text text-anchor="start" x="227.5" y="-615.5" font-family="Helvetica,sans-Serif" font-size="10.00">serialize()</text>
<polygon fill="#666666" stroke="#666666" points="210.5,-853.5 210.5,-853.5 385.5,-853.5 385.5,-853.5 210.5,-853.5"/>
<polygon fill="#666666" stroke="#666666" points="210.5,-838.5 210.5,-838.5 385.5,-838.5 385.5,-838.5 210.5,-838.5"/>
<polygon fill="none" stroke="#666666" points="210,-609 210,-882 385,-882 385,-609 210,-609"/>
</a>
</g>
</g>
<!-- Node3&#45;&gt;Node2 -->
<g id="edge2_Node000002_Node000003" class="edge">
<title>Node3&#45;&gt;Node2</title>
<g id="a_edge2_Node000002_Node000003"><a xlink:title=" ">
<path fill="none" stroke="#63b8ff" d="M264.4,-599.1C262.35,-590.11 260.31,-581.14 258.3,-572.32"/>
<polygon fill="none" stroke="#63b8ff" points="260.99,-599.88 266.62,-608.86 267.81,-598.33 260.99,-599.88"/>
</a>
</g>
</g>
<!-- Node4 -->
<g id="Node000004" class="node">
<title>Node4</title>
<g id="a_Node000004"><a xlink:href="classAbstractCellCycleModel.html" target="_top" xlink:title=" ">
<polygon fill="white" stroke="transparent" points="529.5,-1173 375.5,-1173 375.5,-929 529.5,-929 529.5,-1173"/>
<text text-anchor="start" x="394" y="-1161" font-family="Helvetica,sans-Serif" font-size="10.00">AbstractCellCycleModel</text>
<text text-anchor="start" x="450.5" y="-1146" font-family="Helvetica,sans-Serif" font-size="10.00"> </text>
<text text-anchor="start" x="379.5" y="-1131" font-family="Helvetica,sans-Serif" font-size="10.00">+</text>
<text text-anchor="start" x="392.5" y="-1131" font-family="Helvetica,sans-Serif" font-size="10.00">AbstractCellCycleModel()</text>
<text text-anchor="start" x="379.5" y="-1116" font-family="Helvetica,sans-Serif" font-size="10.00">+</text>
<text text-anchor="start" x="392.5" y="-1116" font-family="Helvetica,sans-Serif" font-size="10.00">~AbstractCellCycleModel()</text>
<text text-anchor="start" x="379.5" y="-1101" font-family="Helvetica,sans-Serif" font-size="10.00">+</text>
<text text-anchor="start" x="392.5" y="-1101" font-family="Helvetica,sans-Serif" font-size="10.00">SetCell()</text>
<text text-anchor="start" x="379.5" y="-1086" font-family="Helvetica,sans-Serif" font-size="10.00">+</text>
<text text-anchor="start" x="392.5" y="-1086" font-family="Helvetica,sans-Serif" font-size="10.00">Initialise()</text>
<text text-anchor="start" x="379.5" y="-1071" font-family="Helvetica,sans-Serif" font-size="10.00">+</text>
<text text-anchor="start" x="392.5" y="-1071" font-family="Helvetica,sans-Serif" font-size="10.00">InitialiseDaughterCell()</text>
<text text-anchor="start" x="379.5" y="-1056" font-family="Helvetica,sans-Serif" font-size="10.00">+</text>
<text text-anchor="start" x="392.5" y="-1056" font-family="Helvetica,sans-Serif" font-size="10.00">GetCell()</text>
<text text-anchor="start" x="379.5" y="-1041" font-family="Helvetica,sans-Serif" font-size="10.00">+</text>
<text text-anchor="start" x="392.5" y="-1041" font-family="Helvetica,sans-Serif" font-size="10.00">SetBirthTime()</text>
<text text-anchor="start" x="379.5" y="-1026" font-family="Helvetica,sans-Serif" font-size="10.00">+</text>
<text text-anchor="start" x="392.5" y="-1026" font-family="Helvetica,sans-Serif" font-size="10.00">SetDimension()</text>
<text text-anchor="start" x="379.5" y="-1011" font-family="Helvetica,sans-Serif" font-size="10.00">+</text>
<text text-anchor="start" x="392.5" y="-1011" font-family="Helvetica,sans-Serif" font-size="10.00">GetDimension()</text>
<text text-anchor="start" x="379.5" y="-996" font-family="Helvetica,sans-Serif" font-size="10.00">+</text>
<text text-anchor="start" x="392.5" y="-996" font-family="Helvetica,sans-Serif" font-size="10.00">GetBirthTime()</text>
<text text-anchor="start" x="392.5" y="-981" font-family="Helvetica,sans-Serif" font-size="10.00">and 9 more...</text>
<text text-anchor="start" x="379.5" y="-966" font-family="Helvetica,sans-Serif" font-size="10.00">#</text>
<text text-anchor="start" x="392.5" y="-966" font-family="Helvetica,sans-Serif" font-size="10.00">AbstractCellCycleModel()</text>
<text text-anchor="start" x="382" y="-951" font-family="Helvetica,sans-Serif" font-size="10.00">&#45;</text>
<text text-anchor="start" x="392.5" y="-951" font-family="Helvetica,sans-Serif" font-size="10.00">serialize()</text>
<text text-anchor="start" x="382" y="-936" font-family="Helvetica,sans-Serif" font-size="10.00">&#45;</text>
<text text-anchor="start" x="392.5" y="-936" font-family="Helvetica,sans-Serif" font-size="10.00">operator=()</text>
<polygon fill="#666666" stroke="#666666" points="375.5,-1156 375.5,-1156 529.5,-1156 529.5,-1156 375.5,-1156"/>
<polygon fill="#666666" stroke="#666666" points="375.5,-1141 375.5,-1141 529.5,-1141 529.5,-1141 375.5,-1141"/>
<polygon fill="none" stroke="#666666" points="375.5,-929 375.5,-1173 529.5,-1173 529.5,-929 375.5,-929"/>
</a>
</g>
</g>
<!-- Node4&#45;&gt;Node3 -->
<g id="edge3_Node000003_Node000004" class="edge">
<title>Node4&#45;&gt;Node3</title>
<g id="a_edge3_Node000003_Node000004"><a xlink:title=" ">
<path fill="none" stroke="#63b8ff" d="M440.76,-919.02C438.67,-912.48 436.27,-906.1 433.5,-900 421.74,-874.06 404.05,-849.34 385.29,-827.61"/>
<polygon fill="none" stroke="#63b8ff" points="437.42,-920.09 443.59,-928.7 444.14,-918.12 437.42,-920.09"/>
</a>
</g>
</g>
<!-- Node5 -->
<g id="Node000005" class="node">
<title>Node5</title>
<g id="a_Node000005"><a xlink:href="classIdentifiable.html" target="_top" xlink:title=" ">
<polygon fill="white" stroke="transparent" points="362.5,-1299 186.5,-1299 186.5,-1220 362.5,-1220 362.5,-1299"/>
<text text-anchor="start" x="247" y="-1286.5" font-family="Helvetica,sans-Serif" font-size="10.00">Identifiable</text>
<text text-anchor="start" x="272.5" y="-1271.5" font-family="Helvetica,sans-Serif" font-size="10.00"> </text>
<text text-anchor="start" x="190.5" y="-1256.5" font-family="Helvetica,sans-Serif" font-size="10.00">+</text>
<text text-anchor="start" x="203.5" y="-1256.5" font-family="Helvetica,sans-Serif" font-size="10.00">~Identifiable()</text>
<text text-anchor="start" x="190.5" y="-1241.5" font-family="Helvetica,sans-Serif" font-size="10.00">+</text>
<text text-anchor="start" x="203.5" y="-1241.5" font-family="Helvetica,sans-Serif" font-size="10.00">GetIdentifier()</text>
<text text-anchor="start" x="193" y="-1226.5" font-family="Helvetica,sans-Serif" font-size="10.00">&#45;</text>
<text text-anchor="start" x="203.5" y="-1226.5" font-family="Helvetica,sans-Serif" font-size="10.00">TidyTemplatedExportIdentifier()</text>
<polygon fill="#666666" stroke="#666666" points="186.5,-1281.5 186.5,-1281.5 362.5,-1281.5 362.5,-1281.5 186.5,-1281.5"/>
<polygon fill="#666666" stroke="#666666" points="186.5,-1266.5 186.5,-1266.5 362.5,-1266.5 362.5,-1266.5 186.5,-1266.5"/>
<polygon fill="none" stroke="#666666" points="186.5,-1220 186.5,-1299 362.5,-1299 362.5,-1220 186.5,-1220"/>
</a>
</g>
</g>
<!-- Node5&#45;&gt;Node4 -->
<g id="edge4_Node000004_Node000005" class="edge">
<title>Node5&#45;&gt;Node4</title>
<g id="a_edge4_Node000004_Node000005"><a xlink:title=" ">
<path fill="none" stroke="#63b8ff" d="M327.53,-1212.67C340.78,-1200.3 354.6,-1186.57 366.5,-1173 369.47,-1169.61 372.44,-1166.12 375.39,-1162.55"/>
<polygon fill="none" stroke="#63b8ff" points="324.79,-1210.43 319.81,-1219.78 329.53,-1215.58 324.79,-1210.43"/>
</a>
</g>
</g>
<!-- Node6 -->
<g id="Node000006" class="node">
<title>Node6</title>
<g id="a_Node000006"><a xlink:title=" ">
<polygon fill="white" stroke="transparent" points="663.5,-1284 559.5,-1284 559.5,-1235 663.5,-1235 663.5,-1284"/>
<text text-anchor="start" x="564.5" y="-1271.5" font-family="Helvetica,sans-Serif" font-size="10.00">shared_ptr&lt; Cell &gt;</text>
<text text-anchor="start" x="609.5" y="-1256.5" font-family="Helvetica,sans-Serif" font-size="10.00"> </text>
<text text-anchor="start" x="609.5" y="-1241.5" font-family="Helvetica,sans-Serif" font-size="10.00"> </text>
<polygon fill="#bfbfbf" stroke="#bfbfbf" points="559.5,-1266.5 559.5,-1266.5 663.5,-1266.5 663.5,-1266.5 559.5,-1266.5"/>
<polygon fill="#bfbfbf" stroke="#bfbfbf" points="559.5,-1251.5 559.5,-1251.5 663.5,-1251.5 663.5,-1251.5 559.5,-1251.5"/>
<polygon fill="none" stroke="#bfbfbf" points="559.5,-1235 559.5,-1284 663.5,-1284 663.5,-1235 559.5,-1235"/>
</a>
</g>
</g>
<!-- Node6&#45;&gt;Node4 -->
<g id="edge5_Node000004_Node000006" class="edge">
<title>Node6&#45;&gt;Node4</title>
<g id="a_edge5_Node000004_Node000006"><a xlink:title=" ">
<path fill="none" stroke="#63b8ff" d="M599.19,-1234.71C591.98,-1221.47 582.38,-1204.9 572.5,-1191 561.82,-1175.97 549.84,-1160.64 537.69,-1145.91"/>
<polygon fill="none" stroke="#63b8ff" points="537.38,-1145.54 530.47,-1143.5 529.7,-1136.33 536.61,-1138.37 537.38,-1145.54"/>
</a>
</g>
<text text-anchor="middle" x="602.5" y="-1194" font-family="Helvetica,sans-Serif" font-size="10.00" fill="grey"> #mpCell</text>
</g>
<!-- Node7 -->
<g id="Node000007" class="node">
<title>Node7</title>
<g id="a_Node000007"><a xlink:href="classdouble.html" target="_top" xlink:title=" ">
<polygon fill="white" stroke="transparent" points="112.5,-1284 68.5,-1284 68.5,-1235 112.5,-1235 112.5,-1284"/>
<text text-anchor="start" x="73.5" y="-1271.5" font-family="Helvetica,sans-Serif" font-size="10.00">double</text>
<text text-anchor="start" x="88.5" y="-1256.5" font-family="Helvetica,sans-Serif" font-size="10.00"> </text>
<text text-anchor="start" x="88.5" y="-1241.5" font-family="Helvetica,sans-Serif" font-size="10.00"> </text>
<polygon fill="#bfbfbf" stroke="#bfbfbf" points="68.5,-1266.5 68.5,-1266.5 112.5,-1266.5 112.5,-1266.5 68.5,-1266.5"/>
<polygon fill="#bfbfbf" stroke="#bfbfbf" points="68.5,-1251.5 68.5,-1251.5 112.5,-1251.5 112.5,-1251.5 68.5,-1251.5"/>
<polygon fill="none" stroke="#bfbfbf" points="68.5,-1235 68.5,-1284 112.5,-1284 112.5,-1235 68.5,-1235"/>
</a>
</g>
</g>
<!-- Node7&#45;&gt;Node1 -->
<g id="edge11_Node000001_Node000007" class="edge">
<title>Node7&#45;&gt;Node1</title>
<g id="a_edge11_Node000001_Node000007"><a xlink:title=" ">
<path fill="none" stroke="#63b8ff" d="M79.85,-1234.65C72.74,-1217.76 63.75,-1194.4 58.5,-1173 45.58,-1120.37 43.5,-1106.19 43.5,-1052 43.5,-1052 43.5,-1052 43.5,-457 43.5,-411.85 49.3,-363.47 57.06,-318.94"/>
<polygon fill="none" stroke="#63b8ff" points="57.07,-318.91 54.19,-312.29 59.19,-307.1 62.06,-313.71 57.07,-318.91"/>
</a>
</g>
<text text-anchor="middle" x="117.5" y="-765" font-family="Helvetica,sans-Serif" font-size="10.00" fill="grey"> #mCriticalHypoxicDuration</text>
<text text-anchor="middle" x="117.5" y="-754" font-family="Helvetica,sans-Serif" font-size="10.00" fill="grey">#mCurrentHypoxiaOnsetTime</text>
<text text-anchor="middle" x="117.5" y="-743" font-family="Helvetica,sans-Serif" font-size="10.00" fill="grey">#mCurrentHypoxicDuration</text>
<text text-anchor="middle" x="117.5" y="-732" font-family="Helvetica,sans-Serif" font-size="10.00" fill="grey">#mHypoxicConcentration</text>
<text text-anchor="middle" x="117.5" y="-721" font-family="Helvetica,sans-Serif" font-size="10.00" fill="grey">#mQuiescentConcentration</text>
</g>
<!-- Node7&#45;&gt;Node3 -->
<g id="edge10_Node000003_Node000007" class="edge">
<title>Node7&#45;&gt;Node3</title>
<g id="a_edge10_Node000003_Node000007"><a xlink:title=" ">
<path fill="none" stroke="#63b8ff" d="M83.53,-1234.97C67.98,-1177.39 36.52,-1026.96 99.5,-929 125.19,-889.04 158.87,-912.25 195.5,-882 197.33,-880.49 199.15,-878.94 200.95,-877.35"/>
<polygon fill="none" stroke="#63b8ff" points="201.01,-877.29 202.7,-870.28 209.82,-869.14 208.13,-876.15 201.01,-877.29"/>
</a>
</g>
<text text-anchor="middle" x="163" y="-1081.5" font-family="Helvetica,sans-Serif" font-size="10.00" fill="grey"> #mG1Duration</text>
<text text-anchor="middle" x="163" y="-1070.5" font-family="Helvetica,sans-Serif" font-size="10.00" fill="grey">#mG2Duration</text>
<text text-anchor="middle" x="163" y="-1059.5" font-family="Helvetica,sans-Serif" font-size="10.00" fill="grey">#mMDuration</text>
<text text-anchor="middle" x="163" y="-1048.5" font-family="Helvetica,sans-Serif" font-size="10.00" fill="grey">#mMinimumGapDuration</text>
<text text-anchor="middle" x="163" y="-1037.5" font-family="Helvetica,sans-Serif" font-size="10.00" fill="grey">#mSDuration</text>
<text text-anchor="middle" x="163" y="-1026.5" font-family="Helvetica,sans-Serif" font-size="10.00" fill="grey">#mStemCellG1Duration</text>
<text text-anchor="middle" x="163" y="-1015.5" font-family="Helvetica,sans-Serif" font-size="10.00" fill="grey">#mTransitCellG1Duration</text>
</g>
<!-- Node7&#45;&gt;Node4 -->
<g id="edge6_Node000004_Node000007" class="edge">
<title>Node7&#45;&gt;Node4</title>
<g id="a_edge6_Node000004_Node000007"><a xlink:title=" ">
<path fill="none" stroke="#63b8ff" d="M112.78,-1247.92C130.21,-1239.81 155.15,-1228.6 177.5,-1220 215.93,-1205.21 225.57,-1201.08 265.5,-1191 306.34,-1180.69 325.05,-1194.89 365.06,-1172.97"/>
<polygon fill="none" stroke="#63b8ff" points="365.12,-1172.94 368.21,-1166.42 375.41,-1166.78 372.32,-1173.29 365.12,-1172.94"/>
</a>
</g>
<text text-anchor="middle" x="300.5" y="-1194" font-family="Helvetica,sans-Serif" font-size="10.00" fill="grey"> #mBirthTime</text>
</g>
<!-- Node8 -->
<g id="Node000008" class="node">
<title>Node8</title>
<g id="a_Node000008"><a xlink:href="classbool.html" target="_top" xlink:title=" ">
<polygon fill="white" stroke="transparent" points="412.5,-1284 380.5,-1284 380.5,-1235 412.5,-1235 412.5,-1284"/>
<text text-anchor="start" x="385.5" y="-1271.5" font-family="Helvetica,sans-Serif" font-size="10.00">bool</text>
<text text-anchor="start" x="394.5" y="-1256.5" font-family="Helvetica,sans-Serif" font-size="10.00"> </text>
<text text-anchor="start" x="394.5" y="-1241.5" font-family="Helvetica,sans-Serif" font-size="10.00"> </text>
<polygon fill="#bfbfbf" stroke="#bfbfbf" points="380.5,-1266.5 380.5,-1266.5 412.5,-1266.5 412.5,-1266.5 380.5,-1266.5"/>
<polygon fill="#bfbfbf" stroke="#bfbfbf" points="380.5,-1251.5 380.5,-1251.5 412.5,-1251.5 412.5,-1251.5 380.5,-1251.5"/>
<polygon fill="none" stroke="#bfbfbf" points="380.5,-1235 380.5,-1284 412.5,-1284 412.5,-1235 380.5,-1235"/>
</a>
</g>
</g>
<!-- Node8&#45;&gt;Node4 -->
<g id="edge7_Node000004_Node000008" class="edge">
<title>Node8&#45;&gt;Node4</title>
<g id="a_edge7_Node000004_Node000008"><a xlink:title=" ">
<path fill="none" stroke="#63b8ff" d="M394.78,-1234.85C394.34,-1221.8 394.65,-1205.37 397.5,-1191 397.9,-1188.99 398.33,-1186.97 398.78,-1184.94"/>
<polygon fill="none" stroke="#63b8ff" points="398.78,-1184.94 396.32,-1178.16 401.64,-1173.29 404.09,-1180.07 398.78,-1184.94"/>
</a>
</g>
<text text-anchor="middle" x="444.5" y="-1194" font-family="Helvetica,sans-Serif" font-size="10.00" fill="grey"> #mReadyToDivide</text>
</g>
<!-- Node9 -->
<g id="Node000009" class="node">
<title>Node9</title>
<g id="a_Node000009"><a xlink:href="classunsigned.html" target="_top" xlink:title=" ">
<polygon fill="white" stroke="transparent" points="541,-1284 486,-1284 486,-1235 541,-1235 541,-1284"/>
<text text-anchor="start" x="491.5" y="-1271.5" font-family="Helvetica,sans-Serif" font-size="10.00">unsigned</text>
<text text-anchor="start" x="512" y="-1256.5" font-family="Helvetica,sans-Serif" font-size="10.00"> </text>
<text text-anchor="start" x="512" y="-1241.5" font-family="Helvetica,sans-Serif" font-size="10.00"> </text>
<polygon fill="#bfbfbf" stroke="#bfbfbf" points="486.5,-1266.5 486.5,-1266.5 541.5,-1266.5 541.5,-1266.5 486.5,-1266.5"/>
<polygon fill="#bfbfbf" stroke="#bfbfbf" points="486.5,-1251.5 486.5,-1251.5 541.5,-1251.5 541.5,-1251.5 486.5,-1251.5"/>
<polygon fill="none" stroke="#bfbfbf" points="486,-1235 486,-1284 541,-1284 541,-1235 486,-1235"/>
</a>
</g>
</g>
<!-- Node9&#45;&gt;Node4 -->
<g id="edge8_Node000004_Node000009" class="edge">
<title>Node9&#45;&gt;Node4</title>
<g id="a_edge8_Node000004_Node000009"><a xlink:title=" ">
<path fill="none" stroke="#63b8ff" d="M506.5,-1234.81C502.6,-1221.59 497.39,-1203.95 491.74,-1184.84"/>
<polygon fill="none" stroke="#63b8ff" points="491.67,-1184.61 486.14,-1179.99 488.27,-1173.1 493.81,-1177.72 491.67,-1184.61"/>
</a>
</g>
<text text-anchor="middle" x="531.5" y="-1194" font-family="Helvetica,sans-Serif" font-size="10.00" fill="grey"> #mDimension</text>
</g>
<!-- Node10 -->
<g id="Node000010" class="node">
<title>Node10</title>
<g id="a_Node000010"><a xlink:title=" ">
<polygon fill="white" stroke="transparent" points="357.5,-1075.5 235.5,-1075.5 235.5,-1026.5 357.5,-1026.5 357.5,-1075.5"/>
<text text-anchor="start" x="240.5" y="-1063" font-family="Helvetica,sans-Serif" font-size="10.00">enum CellCyclePhase_</text>
<text text-anchor="start" x="294.5" y="-1048" font-family="Helvetica,sans-Serif" font-size="10.00"> </text>
<text text-anchor="start" x="294.5" y="-1033" font-family="Helvetica,sans-Serif" font-size="10.00"> </text>
<polygon fill="#bfbfbf" stroke="#bfbfbf" points="235.5,-1058 235.5,-1058 357.5,-1058 357.5,-1058 235.5,-1058"/>
<polygon fill="#bfbfbf" stroke="#bfbfbf" points="235.5,-1043 235.5,-1043 357.5,-1043 357.5,-1043 235.5,-1043"/>
<polygon fill="none" stroke="#bfbfbf" points="235.5,-1026.5 235.5,-1075.5 357.5,-1075.5 357.5,-1026.5 235.5,-1026.5"/>
</a>
</g>
</g>
<!-- Node10&#45;&gt;Node3 -->
<g id="edge9_Node000003_Node000010" class="edge">
<title>Node10&#45;&gt;Node3</title>
<g id="a_edge9_Node000003_Node000010"><a xlink:title=" ">
<path fill="none" stroke="#63b8ff" d="M296.58,-1026.18C296.67,-997.14 296.84,-945.59 297.01,-894.59"/>
<polygon fill="none" stroke="#63b8ff" points="297.01,-894.35 293.03,-888.33 297.05,-882.35 301.03,-888.36 297.01,-894.35"/>
</a>
</g>
<text text-anchor="middle" x="363" y="-903" font-family="Helvetica,sans-Serif" font-size="10.00" fill="grey"> #mCurrentCellCyclePhase</text>
</g>
</g>
</svg>
