<?xml version="1.0" encoding="UTF-8" standalone="no"?>
<!DOCTYPE svg PUBLIC "-//W3C//DTD SVG 1.1//EN"
 "http://www.w3.org/Graphics/SVG/1.1/DTD/svg11.dtd">
<!-- Generated by graphviz version 2.43.0 (0)
 -->
<!-- Title: ChemotaxisPottsUpdateRule&lt; DIM &gt; Pages: 1 -->
<svg width="200pt" height="555pt"
 viewBox="0.00 0.00 200.00 555.00" xmlns="http://www.w3.org/2000/svg" xmlns:xlink="http://www.w3.org/1999/xlink">
<g id="graph0" class="graph" transform="scale(1 1) rotate(0) translate(4 551)">
<title>ChemotaxisPottsUpdateRule&lt; DIM &gt;</title>
<!-- Node1 -->
<g id="Node000001" class="node">
<title>Node1</title>
<g id="a_Node000001"><a xlink:title=" ">
<polygon fill="#999999" stroke="transparent" points="192,-120 0,-120 0,0 192,0 192,-120"/>
<text text-anchor="start" x="25.5" y="-108" font-family="Helvetica,sans-Serif" font-size="10.00">ChemotaxisPottsUpdateRule</text>
<text text-anchor="start" x="74.5" y="-97" font-family="Helvetica,sans-Serif" font-size="10.00">&lt; DIM &gt;</text>
<text text-anchor="start" x="94" y="-82" font-family="Helvetica,sans-Serif" font-size="10.00"> </text>
<text text-anchor="start" x="4" y="-67" font-family="Helvetica,sans-Serif" font-size="10.00">+</text>
<text text-anchor="start" x="17" y="-67" font-family="Helvetica,sans-Serif" font-size="10.00">ChemotaxisPottsUpdateRule()</text>
<text text-anchor="start" x="4" y="-52" font-family="Helvetica,sans-Serif" font-size="10.00">+</text>
<text text-anchor="start" x="17" y="-52" font-family="Helvetica,sans-Serif" font-size="10.00">~ChemotaxisPottsUpdateRule()</text>
<text text-anchor="start" x="4" y="-37" font-family="Helvetica,sans-Serif" font-size="10.00">+</text>
<text text-anchor="start" x="17" y="-37" font-family="Helvetica,sans-Serif" font-size="10.00">EvaluateHamiltonianContribution()</text>
<text text-anchor="start" x="4" y="-22" font-family="Helvetica,sans-Serif" font-size="10.00">+</text>
<text text-anchor="start" x="17" y="-22" font-family="Helvetica,sans-Serif" font-size="10.00">OutputUpdateRuleParameters()</text>
<text text-anchor="start" x="6.5" y="-7" font-family="Helvetica,sans-Serif" font-size="10.00">&#45;</text>
<text text-anchor="start" x="17" y="-7" font-family="Helvetica,sans-Serif" font-size="10.00">serialize()</text>
<polygon fill="#666666" stroke="#666666" points="0,-92 0,-92 192,-92 192,-92 0,-92"/>
<polygon fill="#666666" stroke="#666666" points="0,-77 0,-77 192,-77 192,-77 0,-77"/>
<polygon fill="none" stroke="#666666" points="0,0 0,-120 192,-120 192,0 0,0"/>
</a>
</g>
</g>
<!-- Node2 -->
<g id="Node000002" class="node">
<title>Node2</title>
<g id="a_Node000002"><a xlink:href="classAbstractPottsUpdateRule.html" target="_top" xlink:title=" ">
<polygon fill="white" stroke="transparent" points="192,-276 0,-276 0,-156 192,-156 192,-276"/>
<text text-anchor="start" x="34.5" y="-264" font-family="Helvetica,sans-Serif" font-size="10.00">AbstractPottsUpdateRule</text>
<text text-anchor="start" x="74.5" y="-253" font-family="Helvetica,sans-Serif" font-size="10.00">&lt; DIM &gt;</text>
<text text-anchor="start" x="94" y="-238" font-family="Helvetica,sans-Serif" font-size="10.00"> </text>
<text text-anchor="start" x="4" y="-223" font-family="Helvetica,sans-Serif" font-size="10.00">+</text>
<text text-anchor="start" x="17" y="-223" font-family="Helvetica,sans-Serif" font-size="10.00">AbstractPottsUpdateRule()</text>
<text text-anchor="start" x="4" y="-208" font-family="Helvetica,sans-Serif" font-size="10.00">+</text>
<text text-anchor="start" x="17" y="-208" font-family="Helvetica,sans-Serif" font-size="10.00">~AbstractPottsUpdateRule()</text>
<text text-anchor="start" x="4" y="-193" font-family="Helvetica,sans-Serif" font-size="10.00">+</text>
<text text-anchor="start" x="17" y="-193" font-family="Helvetica,sans-Serif" font-size="10.00">EvaluateHamiltonianContribution()</text>
<text text-anchor="start" x="4" y="-178" font-family="Helvetica,sans-Serif" font-size="10.00">+</text>
<text text-anchor="start" x="17" y="-178" font-family="Helvetica,sans-Serif" font-size="10.00">OutputUpdateRuleParameters()</text>
<text text-anchor="start" x="6.5" y="-163" font-family="Helvetica,sans-Serif" font-size="10.00">&#45;</text>
<text text-anchor="start" x="17" y="-163" font-family="Helvetica,sans-Serif" font-size="10.00">serialize()</text>
<polygon fill="#666666" stroke="#666666" points="0,-248 0,-248 192,-248 192,-248 0,-248"/>
<polygon fill="#666666" stroke="#666666" points="0,-233 0,-233 192,-233 192,-233 0,-233"/>
<polygon fill="none" stroke="#666666" points="0,-156 0,-276 192,-276 192,-156 0,-156"/>
</a>
</g>
</g>
<!-- Node2&#45;&gt;Node1 -->
<g id="edge1_Node000001_Node000002" class="edge">
<title>Node2&#45;&gt;Node1</title>
<g id="a_edge1_Node000001_Node000002"><a xlink:title=" ">
<path fill="none" stroke="#63b8ff" d="M96,-145.63C96,-137.14 96,-128.52 96,-120.2"/>
<polygon fill="none" stroke="#63b8ff" points="92.5,-145.9 96,-155.9 99.5,-145.9 92.5,-145.9"/>
</a>
</g>
</g>
<!-- Node3 -->
<g id="Node000003" class="node">
<title>Node3</title>
<g id="a_Node000003"><a xlink:href="classAbstractUpdateRule.html" target="_top" xlink:title=" ">
<polygon fill="white" stroke="transparent" points="183.5,-432 8.5,-432 8.5,-312 183.5,-312 183.5,-432"/>
<text text-anchor="start" x="47.5" y="-420" font-family="Helvetica,sans-Serif" font-size="10.00">AbstractUpdateRule</text>
<text text-anchor="start" x="75" y="-409" font-family="Helvetica,sans-Serif" font-size="10.00">&lt; DIM &gt;</text>
<text text-anchor="start" x="94.5" y="-394" font-family="Helvetica,sans-Serif" font-size="10.00"> </text>
<text text-anchor="start" x="13" y="-379" font-family="Helvetica,sans-Serif" font-size="10.00">+</text>
<text text-anchor="start" x="26" y="-379" font-family="Helvetica,sans-Serif" font-size="10.00">AbstractUpdateRule()</text>
<text text-anchor="start" x="13" y="-364" font-family="Helvetica,sans-Serif" font-size="10.00">+</text>
<text text-anchor="start" x="26" y="-364" font-family="Helvetica,sans-Serif" font-size="10.00">~AbstractUpdateRule()</text>
<text text-anchor="start" x="13" y="-349" font-family="Helvetica,sans-Serif" font-size="10.00">+</text>
<text text-anchor="start" x="26" y="-349" font-family="Helvetica,sans-Serif" font-size="10.00">OutputUpdateRuleInfo()</text>
<text text-anchor="start" x="13" y="-334" font-family="Helvetica,sans-Serif" font-size="10.00">+</text>
<text text-anchor="start" x="26" y="-334" font-family="Helvetica,sans-Serif" font-size="10.00">OutputUpdateRuleParameters()</text>
<text text-anchor="start" x="15.5" y="-319" font-family="Helvetica,sans-Serif" font-size="10.00">&#45;</text>
<text text-anchor="start" x="26" y="-319" font-family="Helvetica,sans-Serif" font-size="10.00">serialize()</text>
<polygon fill="#666666" stroke="#666666" points="9,-404 9,-404 184,-404 184,-404 9,-404"/>
<polygon fill="#666666" stroke="#666666" points="9,-389 9,-389 184,-389 184,-389 9,-389"/>
<polygon fill="none" stroke="#666666" points="8.5,-312 8.5,-432 183.5,-432 183.5,-312 8.5,-312"/>
</a>
</g>
</g>
<!-- Node3&#45;&gt;Node2 -->
<g id="edge2_Node000002_Node000003" class="edge">
<title>Node3&#45;&gt;Node2</title>
<g id="a_edge2_Node000002_Node000003"><a xlink:title=" ">
<path fill="none" stroke="#63b8ff" d="M96,-301.63C96,-293.14 96,-284.52 96,-276.2"/>
<polygon fill="none" stroke="#63b8ff" points="92.5,-301.9 96,-311.9 99.5,-301.9 92.5,-301.9"/>
</a>
</g>
</g>
<!-- Node4 -->
<g id="Node000004" class="node">
<title>Node4</title>
<g id="a_Node000004"><a xlink:href="classIdentifiable.html" target="_top" xlink:title=" ">
<polygon fill="white" stroke="transparent" points="184,-547 8,-547 8,-468 184,-468 184,-547"/>
<text text-anchor="start" x="68.5" y="-534.5" font-family="Helvetica,sans-Serif" font-size="10.00">Identifiable</text>
<text text-anchor="start" x="94" y="-519.5" font-family="Helvetica,sans-Serif" font-size="10.00"> </text>
<text text-anchor="start" x="12" y="-504.5" font-family="Helvetica,sans-Serif" font-size="10.00">+</text>
<text text-anchor="start" x="25" y="-504.5" font-family="Helvetica,sans-Serif" font-size="10.00">~Identifiable()</text>
<text text-anchor="start" x="12" y="-489.5" font-family="Helvetica,sans-Serif" font-size="10.00">+</text>
<text text-anchor="start" x="25" y="-489.5" font-family="Helvetica,sans-Serif" font-size="10.00">GetIdentifier()</text>
<text text-anchor="start" x="14.5" y="-474.5" font-family="Helvetica,sans-Serif" font-size="10.00">&#45;</text>
<text text-anchor="start" x="25" y="-474.5" font-family="Helvetica,sans-Serif" font-size="10.00">TidyTemplatedExportIdentifier()</text>
<polygon fill="#666666" stroke="#666666" points="8,-529.5 8,-529.5 184,-529.5 184,-529.5 8,-529.5"/>
<polygon fill="#666666" stroke="#666666" points="8,-514.5 8,-514.5 184,-514.5 184,-514.5 8,-514.5"/>
<polygon fill="none" stroke="#666666" points="8,-468 8,-547 184,-547 184,-468 8,-468"/>
</a>
</g>
</g>
<!-- Node4&#45;&gt;Node3 -->
<g id="edge3_Node000003_Node000004" class="edge">
<title>Node4&#45;&gt;Node3</title>
<g id="a_edge3_Node000003_Node000004"><a xlink:title=" ">
<path fill="none" stroke="#63b8ff" d="M96,-457.64C96,-449.36 96,-440.67 96,-432.15"/>
<polygon fill="none" stroke="#63b8ff" points="92.5,-457.89 96,-467.89 99.5,-457.89 92.5,-457.89"/>
</a>
</g>
</g>
</g>
</svg>
