<?xml version="1.0" encoding="UTF-8" standalone="no"?>
<!DOCTYPE svg PUBLIC "-//W3C//DTD SVG 1.1//EN"
 "http://www.w3.org/Graphics/SVG/1.1/DTD/svg11.dtd">
<!-- Generated by graphviz version 2.43.0 (0)
 -->
<!-- Title: ChemotacticForce&lt; DIM &gt; Pages: 1 -->
<svg width="271pt" height="643pt"
 viewBox="0.00 0.00 270.50 643.00" xmlns="http://www.w3.org/2000/svg" xmlns:xlink="http://www.w3.org/1999/xlink">
<g id="graph0" class="graph" transform="scale(1 1) rotate(0) translate(4 639)">
<title>ChemotacticForce&lt; DIM &gt;</title>
<!-- Node1 -->
<g id="Node000001" class="node">
<title>Node1</title>
<g id="a_Node000001"><a xlink:title=" ">
<polygon fill="#999999" stroke="transparent" points="186,-124 0,-124 0,0 186,0 186,-124"/>
<text text-anchor="start" x="28" y="-112" font-family="Helvetica,sans-Serif" font-size="10.00">ChemotacticForce&lt; DIM &gt;</text>
<text text-anchor="start" x="91" y="-97" font-family="Helvetica,sans-Serif" font-size="10.00"> </text>
<text text-anchor="start" x="4" y="-82" font-family="Helvetica,sans-Serif" font-size="10.00">+</text>
<text text-anchor="start" x="17" y="-82" font-family="Helvetica,sans-Serif" font-size="10.00">ChemotacticForce()</text>
<text text-anchor="start" x="4" y="-67" font-family="Helvetica,sans-Serif" font-size="10.00">+</text>
<text text-anchor="start" x="17" y="-67" font-family="Helvetica,sans-Serif" font-size="10.00">~ChemotacticForce()</text>
<text text-anchor="start" x="4" y="-52" font-family="Helvetica,sans-Serif" font-size="10.00">+</text>
<text text-anchor="start" x="17" y="-52" font-family="Helvetica,sans-Serif" font-size="10.00">AddForceContribution()</text>
<text text-anchor="start" x="4" y="-37" font-family="Helvetica,sans-Serif" font-size="10.00">+</text>
<text text-anchor="start" x="17" y="-37" font-family="Helvetica,sans-Serif" font-size="10.00">OutputForceParameters()</text>
<text text-anchor="start" x="6.5" y="-22" font-family="Helvetica,sans-Serif" font-size="10.00">&#45;</text>
<text text-anchor="start" x="17" y="-22" font-family="Helvetica,sans-Serif" font-size="10.00">GetChemotacticForceMagnitude()</text>
<text text-anchor="start" x="6.5" y="-7" font-family="Helvetica,sans-Serif" font-size="10.00">&#45;</text>
<text text-anchor="start" x="17" y="-7" font-family="Helvetica,sans-Serif" font-size="10.00">serialize()</text>
<polygon fill="#666666" stroke="#666666" points="0,-107 0,-107 186,-107 186,-107 0,-107"/>
<polygon fill="#666666" stroke="#666666" points="0,-92 0,-92 186,-92 186,-92 0,-92"/>
<polygon fill="none" stroke="#666666" points="0,0 0,-124 186,-124 186,0 0,0"/>
</a>
</g>
</g>
<!-- Node2 -->
<g id="Node000002" class="node">
<title>Node2</title>
<g id="a_Node000002"><a xlink:href="classAbstractForce.html" target="_top" xlink:title=" ">
<polygon fill="white" stroke="transparent" points="171.5,-311 14.5,-311 14.5,-161 171.5,-161 171.5,-311"/>
<text text-anchor="start" x="39" y="-299" font-family="Helvetica,sans-Serif" font-size="10.00">AbstractForce&lt; DIM &gt;</text>
<text text-anchor="start" x="91.5" y="-284" font-family="Helvetica,sans-Serif" font-size="10.00"> </text>
<text text-anchor="start" x="19" y="-269" font-family="Helvetica,sans-Serif" font-size="10.00">+</text>
<text text-anchor="start" x="32" y="-269" font-family="Helvetica,sans-Serif" font-size="10.00">AbstractForce()</text>
<text text-anchor="start" x="19" y="-254" font-family="Helvetica,sans-Serif" font-size="10.00">+</text>
<text text-anchor="start" x="32" y="-254" font-family="Helvetica,sans-Serif" font-size="10.00">~AbstractForce()</text>
<text text-anchor="start" x="19" y="-239" font-family="Helvetica,sans-Serif" font-size="10.00">+</text>
<text text-anchor="start" x="32" y="-239" font-family="Helvetica,sans-Serif" font-size="10.00">AddForceContribution()</text>
<text text-anchor="start" x="19" y="-224" font-family="Helvetica,sans-Serif" font-size="10.00">+</text>
<text text-anchor="start" x="32" y="-224" font-family="Helvetica,sans-Serif" font-size="10.00">OutputForceInfo()</text>
<text text-anchor="start" x="19" y="-209" font-family="Helvetica,sans-Serif" font-size="10.00">+</text>
<text text-anchor="start" x="32" y="-209" font-family="Helvetica,sans-Serif" font-size="10.00">OutputForceParameters()</text>
<text text-anchor="start" x="19" y="-194" font-family="Helvetica,sans-Serif" font-size="10.00">+</text>
<text text-anchor="start" x="32" y="-194" font-family="Helvetica,sans-Serif" font-size="10.00">WriteDataToVisualizerSetup</text>
<text text-anchor="start" x="32" y="-183" font-family="Helvetica,sans-Serif" font-size="10.00">File()</text>
<text text-anchor="start" x="21.5" y="-168" font-family="Helvetica,sans-Serif" font-size="10.00">&#45;</text>
<text text-anchor="start" x="32" y="-168" font-family="Helvetica,sans-Serif" font-size="10.00">serialize()</text>
<polygon fill="#666666" stroke="#666666" points="15,-294 15,-294 172,-294 172,-294 15,-294"/>
<polygon fill="#666666" stroke="#666666" points="15,-279 15,-279 172,-279 172,-279 15,-279"/>
<polygon fill="none" stroke="#666666" points="14.5,-161 14.5,-311 171.5,-311 171.5,-161 14.5,-161"/>
</a>
</g>
</g>
<!-- Node2&#45;&gt;Node1 -->
<g id="edge1_Node000001_Node000002" class="edge">
<title>Node2&#45;&gt;Node1</title>
<g id="a_edge1_Node000001_Node000002"><a xlink:title=" ">
<path fill="none" stroke="#63b8ff" d="M93,-150.69C93,-141.69 93,-132.68 93,-124.03"/>
<polygon fill="none" stroke="#63b8ff" points="89.5,-150.81 93,-160.81 96.5,-150.81 89.5,-150.81"/>
</a>
</g>
</g>
<!-- Node3 -->
<g id="Node000003" class="node">
<title>Node3</title>
<g id="a_Node000003"><a xlink:href="classIdentifiable.html" target="_top" xlink:title=" ">
<polygon fill="white" stroke="transparent" points="177,-635 1,-635 1,-556 177,-556 177,-635"/>
<text text-anchor="start" x="61.5" y="-622.5" font-family="Helvetica,sans-Serif" font-size="10.00">Identifiable</text>
<text text-anchor="start" x="87" y="-607.5" font-family="Helvetica,sans-Serif" font-size="10.00"> </text>
<text text-anchor="start" x="5" y="-592.5" font-family="Helvetica,sans-Serif" font-size="10.00">+</text>
<text text-anchor="start" x="18" y="-592.5" font-family="Helvetica,sans-Serif" font-size="10.00">~Identifiable()</text>
<text text-anchor="start" x="5" y="-577.5" font-family="Helvetica,sans-Serif" font-size="10.00">+</text>
<text text-anchor="start" x="18" y="-577.5" font-family="Helvetica,sans-Serif" font-size="10.00">GetIdentifier()</text>
<text text-anchor="start" x="7.5" y="-562.5" font-family="Helvetica,sans-Serif" font-size="10.00">&#45;</text>
<text text-anchor="start" x="18" y="-562.5" font-family="Helvetica,sans-Serif" font-size="10.00">TidyTemplatedExportIdentifier()</text>
<polygon fill="#666666" stroke="#666666" points="1,-617.5 1,-617.5 177,-617.5 177,-617.5 1,-617.5"/>
<polygon fill="#666666" stroke="#666666" points="1,-602.5 1,-602.5 177,-602.5 177,-602.5 1,-602.5"/>
<polygon fill="none" stroke="#666666" points="1,-556 1,-635 177,-635 177,-556 1,-556"/>
</a>
</g>
</g>
<!-- Node3&#45;&gt;Node2 -->
<g id="edge2_Node000002_Node000003" class="edge">
<title>Node3&#45;&gt;Node2</title>
<g id="a_edge2_Node000002_Node000003"><a xlink:title=" ">
<path fill="none" stroke="#63b8ff" d="M89.54,-545.85C90.22,-485.37 91.38,-381.51 92.17,-311.1"/>
<polygon fill="none" stroke="#63b8ff" points="86.04,-545.86 89.43,-555.9 93.04,-545.94 86.04,-545.86"/>
</a>
</g>
</g>
<!-- Node4 -->
<g id="Node000004" class="node">
<title>Node4</title>
<g id="a_Node000004"><a xlink:href="classAbstractForce.html" target="_top" xlink:title=" ">
<polygon fill="white" stroke="transparent" points="262.5,-519 105.5,-519 105.5,-358 262.5,-358 262.5,-519"/>
<text text-anchor="start" x="122.5" y="-506.5" font-family="Helvetica,sans-Serif" font-size="10.00">AbstractForce&lt; ELEMENT</text>
<text text-anchor="start" x="135.5" y="-495.5" font-family="Helvetica,sans-Serif" font-size="10.00">_DIM, SPACE_DIM &gt;</text>
<text text-anchor="start" x="182.5" y="-480.5" font-family="Helvetica,sans-Serif" font-size="10.00"> </text>
<text text-anchor="start" x="110" y="-465.5" font-family="Helvetica,sans-Serif" font-size="10.00">+</text>
<text text-anchor="start" x="123" y="-465.5" font-family="Helvetica,sans-Serif" font-size="10.00">AbstractForce()</text>
<text text-anchor="start" x="110" y="-450.5" font-family="Helvetica,sans-Serif" font-size="10.00">+</text>
<text text-anchor="start" x="123" y="-450.5" font-family="Helvetica,sans-Serif" font-size="10.00">~AbstractForce()</text>
<text text-anchor="start" x="110" y="-435.5" font-family="Helvetica,sans-Serif" font-size="10.00">+</text>
<text text-anchor="start" x="123" y="-435.5" font-family="Helvetica,sans-Serif" font-size="10.00">AddForceContribution()</text>
<text text-anchor="start" x="110" y="-420.5" font-family="Helvetica,sans-Serif" font-size="10.00">+</text>
<text text-anchor="start" x="123" y="-420.5" font-family="Helvetica,sans-Serif" font-size="10.00">OutputForceInfo()</text>
<text text-anchor="start" x="110" y="-405.5" font-family="Helvetica,sans-Serif" font-size="10.00">+</text>
<text text-anchor="start" x="123" y="-405.5" font-family="Helvetica,sans-Serif" font-size="10.00">OutputForceParameters()</text>
<text text-anchor="start" x="110" y="-390.5" font-family="Helvetica,sans-Serif" font-size="10.00">+</text>
<text text-anchor="start" x="123" y="-390.5" font-family="Helvetica,sans-Serif" font-size="10.00">WriteDataToVisualizerSetup</text>
<text text-anchor="start" x="123" y="-379.5" font-family="Helvetica,sans-Serif" font-size="10.00">File()</text>
<text text-anchor="start" x="112.5" y="-364.5" font-family="Helvetica,sans-Serif" font-size="10.00">&#45;</text>
<text text-anchor="start" x="123" y="-364.5" font-family="Helvetica,sans-Serif" font-size="10.00">serialize()</text>
<polygon fill="#666666" stroke="#666666" points="106,-490.5 106,-490.5 263,-490.5 263,-490.5 106,-490.5"/>
<polygon fill="#666666" stroke="#666666" points="106,-475.5 106,-475.5 263,-475.5 263,-475.5 106,-475.5"/>
<polygon fill="none" stroke="#666666" points="105.5,-358 105.5,-519 262.5,-519 262.5,-358 105.5,-358"/>
</a>
</g>
</g>
<!-- Node3&#45;&gt;Node4 -->
<g id="edge4_Node000004_Node000003" class="edge">
<title>Node3&#45;&gt;Node4</title>
<g id="a_edge4_Node000004_Node000003"><a xlink:title=" ">
<path fill="none" stroke="#63b8ff" d="M118.03,-547.13C123.48,-538.24 129.31,-528.73 135.17,-519.17"/>
<polygon fill="none" stroke="#63b8ff" points="114.97,-545.43 112.73,-555.79 120.94,-549.09 114.97,-545.43"/>
</a>
</g>
</g>
<!-- Node4&#45;&gt;Node2 -->
<g id="edge3_Node000002_Node000004" class="edge">
<title>Node4&#45;&gt;Node2</title>
<g id="a_edge3_Node000002_Node000004"><a xlink:title=" ">
<path fill="none" stroke="orange" d="M143.61,-348.5C137.95,-336.05 132.2,-323.36 126.68,-311.22"/>
<polygon fill="orange" stroke="orange" points="140.58,-350.31 147.9,-357.97 146.96,-347.42 140.58,-350.31"/>
</a>
</g>
<text text-anchor="middle" x="161" y="-332" font-family="Helvetica,sans-Serif" font-size="10.00" fill="grey"> &lt; DIM &gt;</text>
</g>
</g>
</svg>
