<?xml version="1.0" encoding="UTF-8" standalone="no"?>
<!DOCTYPE svg PUBLIC "-//W3C//DTD SVG 1.1//EN"
 "http://www.w3.org/Graphics/SVG/1.1/DTD/svg11.dtd">
<!-- Generated by graphviz version 2.43.0 (0)
 -->
<!-- Title: RadialCellDataDistributionWriter&lt; ELEMENT_DIM, SPACE_DIM &gt; Pages: 1 -->
<svg width="429pt" height="1337pt"
 viewBox="0.00 0.00 429.00 1337.00" xmlns="http://www.w3.org/2000/svg" xmlns:xlink="http://www.w3.org/1999/xlink">
<g id="graph0" class="graph" transform="scale(1 1) rotate(0) translate(4 1333)">
<title>RadialCellDataDistributionWriter&lt; ELEMENT_DIM, SPACE_DIM &gt;</title>
<!-- Node1 -->
<g id="Node000001" class="node">
<title>Node1</title>
<g id="a_Node000001"><a xlink:title=" ">
<polygon fill="#999999" stroke="transparent" points="262.5,-251 67.5,-251 67.5,0 262.5,0 262.5,-251"/>
<text text-anchor="start" x="73" y="-238.5" font-family="Helvetica,sans-Serif" font-size="10.00">RadialCellDataDistribution</text>
<text text-anchor="start" x="73" y="-227.5" font-family="Helvetica,sans-Serif" font-size="10.00">Writer&lt; ELEMENT_DIM, SPACE_DIM &gt;</text>
<text text-anchor="start" x="163.5" y="-212.5" font-family="Helvetica,sans-Serif" font-size="10.00"> </text>
<text text-anchor="start" x="83" y="-197.5" font-family="Helvetica,sans-Serif" font-size="10.00">+</text>
<text text-anchor="start" x="107" y="-197.5" font-family="Helvetica,sans-Serif" font-size="10.00">RadialCellDataDistribution</text>
<text text-anchor="start" x="107" y="-186.5" font-family="Helvetica,sans-Serif" font-size="10.00">Writer()</text>
<text text-anchor="start" x="83" y="-171.5" font-family="Helvetica,sans-Serif" font-size="10.00">+</text>
<text text-anchor="start" x="107" y="-171.5" font-family="Helvetica,sans-Serif" font-size="10.00">VisitAnyPopulation()</text>
<text text-anchor="start" x="83" y="-156.5" font-family="Helvetica,sans-Serif" font-size="10.00">+</text>
<text text-anchor="start" x="107" y="-156.5" font-family="Helvetica,sans-Serif" font-size="10.00">Visit()</text>
<text text-anchor="start" x="83" y="-141.5" font-family="Helvetica,sans-Serif" font-size="10.00">+</text>
<text text-anchor="start" x="107" y="-141.5" font-family="Helvetica,sans-Serif" font-size="10.00">Visit()</text>
<text text-anchor="start" x="83" y="-126.5" font-family="Helvetica,sans-Serif" font-size="10.00">+</text>
<text text-anchor="start" x="107" y="-126.5" font-family="Helvetica,sans-Serif" font-size="10.00">Visit()</text>
<text text-anchor="start" x="83" y="-111.5" font-family="Helvetica,sans-Serif" font-size="10.00">+</text>
<text text-anchor="start" x="107" y="-111.5" font-family="Helvetica,sans-Serif" font-size="10.00">Visit()</text>
<text text-anchor="start" x="83" y="-96.5" font-family="Helvetica,sans-Serif" font-size="10.00">+</text>
<text text-anchor="start" x="107" y="-96.5" font-family="Helvetica,sans-Serif" font-size="10.00">Visit()</text>
<text text-anchor="start" x="83" y="-81.5" font-family="Helvetica,sans-Serif" font-size="10.00">+</text>
<text text-anchor="start" x="107" y="-81.5" font-family="Helvetica,sans-Serif" font-size="10.00">Visit()</text>
<text text-anchor="start" x="83" y="-66.5" font-family="Helvetica,sans-Serif" font-size="10.00">+</text>
<text text-anchor="start" x="107" y="-66.5" font-family="Helvetica,sans-Serif" font-size="10.00">SetVariableName()</text>
<text text-anchor="start" x="83" y="-51.5" font-family="Helvetica,sans-Serif" font-size="10.00">+</text>
<text text-anchor="start" x="107" y="-51.5" font-family="Helvetica,sans-Serif" font-size="10.00">GetVariableName()</text>
<text text-anchor="start" x="83" y="-36.5" font-family="Helvetica,sans-Serif" font-size="10.00">+</text>
<text text-anchor="start" x="107" y="-36.5" font-family="Helvetica,sans-Serif" font-size="10.00">SetNumRadialBins()</text>
<text text-anchor="start" x="83" y="-21.5" font-family="Helvetica,sans-Serif" font-size="10.00">+</text>
<text text-anchor="start" x="107" y="-21.5" font-family="Helvetica,sans-Serif" font-size="10.00">GetNumRadialBins()</text>
<text text-anchor="start" x="85.5" y="-6.5" font-family="Helvetica,sans-Serif" font-size="10.00">&#45;</text>
<text text-anchor="start" x="107" y="-6.5" font-family="Helvetica,sans-Serif" font-size="10.00">serialize()</text>
<polygon fill="#666666" stroke="#666666" points="68,-222.5 68,-222.5 263,-222.5 263,-222.5 68,-222.5"/>
<polygon fill="#666666" stroke="#666666" points="68,-207.5 68,-207.5 263,-207.5 263,-207.5 68,-207.5"/>
<polygon fill="none" stroke="#666666" points="67.5,0 67.5,-251 262.5,-251 262.5,0 67.5,0"/>
</a>
</g>
</g>
<!-- Node2 -->
<g id="Node000002" class="node">
<title>Node2</title>
<g id="a_Node000002"><a xlink:href="classAbstractCellPopulationWriter.html" target="_top" xlink:title=" ">
<polygon fill="white" stroke="transparent" points="250,-478 80,-478 80,-298 250,-298 250,-478"/>
<text text-anchor="start" x="87.5" y="-466" font-family="Helvetica,sans-Serif" font-size="10.00">AbstractCellPopulationWriter</text>
<text text-anchor="start" x="87.5" y="-455" font-family="Helvetica,sans-Serif" font-size="10.00">&lt; ELEMENT_DIM, SPACE_DIM &gt;</text>
<text text-anchor="start" x="163" y="-440" font-family="Helvetica,sans-Serif" font-size="10.00"> </text>
<text text-anchor="start" x="84" y="-425" font-family="Helvetica,sans-Serif" font-size="10.00">+</text>
<text text-anchor="start" x="97" y="-425" font-family="Helvetica,sans-Serif" font-size="10.00">AbstractCellPopulationWriter()</text>
<text text-anchor="start" x="84" y="-410" font-family="Helvetica,sans-Serif" font-size="10.00">+</text>
<text text-anchor="start" x="97" y="-410" font-family="Helvetica,sans-Serif" font-size="10.00">WriteHeader()</text>
<text text-anchor="start" x="84" y="-395" font-family="Helvetica,sans-Serif" font-size="10.00">+</text>
<text text-anchor="start" x="97" y="-395" font-family="Helvetica,sans-Serif" font-size="10.00">Visit()</text>
<text text-anchor="start" x="84" y="-380" font-family="Helvetica,sans-Serif" font-size="10.00">+</text>
<text text-anchor="start" x="97" y="-380" font-family="Helvetica,sans-Serif" font-size="10.00">Visit()</text>
<text text-anchor="start" x="84" y="-365" font-family="Helvetica,sans-Serif" font-size="10.00">+</text>
<text text-anchor="start" x="97" y="-365" font-family="Helvetica,sans-Serif" font-size="10.00">Visit()</text>
<text text-anchor="start" x="84" y="-350" font-family="Helvetica,sans-Serif" font-size="10.00">+</text>
<text text-anchor="start" x="97" y="-350" font-family="Helvetica,sans-Serif" font-size="10.00">Visit()</text>
<text text-anchor="start" x="84" y="-335" font-family="Helvetica,sans-Serif" font-size="10.00">+</text>
<text text-anchor="start" x="97" y="-335" font-family="Helvetica,sans-Serif" font-size="10.00">Visit()</text>
<text text-anchor="start" x="84" y="-320" font-family="Helvetica,sans-Serif" font-size="10.00">+</text>
<text text-anchor="start" x="97" y="-320" font-family="Helvetica,sans-Serif" font-size="10.00">Visit()</text>
<text text-anchor="start" x="86.5" y="-305" font-family="Helvetica,sans-Serif" font-size="10.00">&#45;</text>
<text text-anchor="start" x="97" y="-305" font-family="Helvetica,sans-Serif" font-size="10.00">serialize()</text>
<polygon fill="#666666" stroke="#666666" points="80,-450 80,-450 250,-450 250,-450 80,-450"/>
<polygon fill="#666666" stroke="#666666" points="80,-435 80,-435 250,-435 250,-435 80,-435"/>
<polygon fill="none" stroke="#666666" points="80,-298 80,-478 250,-478 250,-298 80,-298"/>
</a>
</g>
</g>
<!-- Node2&#45;&gt;Node1 -->
<g id="edge1_Node000001_Node000002" class="edge">
<title>Node2&#45;&gt;Node1</title>
<g id="a_edge1_Node000001_Node000002"><a xlink:title=" ">
<path fill="none" stroke="#63b8ff" d="M165,-287.39C165,-275.52 165,-263.3 165,-251.14"/>
<polygon fill="none" stroke="#63b8ff" points="161.5,-287.72 165,-297.72 168.5,-287.72 161.5,-287.72"/>
</a>
</g>
</g>
<!-- Node3 -->
<g id="Node000003" class="node">
<title>Node3</title>
<g id="a_Node000003"><a xlink:href="classAbstractCellBasedWriter.html" target="_top" xlink:title=" ">
<polygon fill="white" stroke="transparent" points="253.5,-720 88.5,-720 88.5,-525 253.5,-525 253.5,-720"/>
<text text-anchor="start" x="94" y="-707.5" font-family="Helvetica,sans-Serif" font-size="10.00">AbstractCellBasedWriter</text>
<text text-anchor="start" x="94" y="-696.5" font-family="Helvetica,sans-Serif" font-size="10.00">&lt; ELEMENT_DIM, SPACE_DIM &gt;</text>
<text text-anchor="start" x="169.5" y="-681.5" font-family="Helvetica,sans-Serif" font-size="10.00"> </text>
<text text-anchor="start" x="95" y="-666.5" font-family="Helvetica,sans-Serif" font-size="10.00">+</text>
<text text-anchor="start" x="110" y="-666.5" font-family="Helvetica,sans-Serif" font-size="10.00">AbstractCellBasedWriter()</text>
<text text-anchor="start" x="95" y="-651.5" font-family="Helvetica,sans-Serif" font-size="10.00">+</text>
<text text-anchor="start" x="110" y="-651.5" font-family="Helvetica,sans-Serif" font-size="10.00">~AbstractCellBasedWriter()</text>
<text text-anchor="start" x="95" y="-636.5" font-family="Helvetica,sans-Serif" font-size="10.00">+</text>
<text text-anchor="start" x="110" y="-636.5" font-family="Helvetica,sans-Serif" font-size="10.00">CloseFile()</text>
<text text-anchor="start" x="95" y="-621.5" font-family="Helvetica,sans-Serif" font-size="10.00">+</text>
<text text-anchor="start" x="110" y="-621.5" font-family="Helvetica,sans-Serif" font-size="10.00">OpenOutputFile()</text>
<text text-anchor="start" x="95" y="-606.5" font-family="Helvetica,sans-Serif" font-size="10.00">+</text>
<text text-anchor="start" x="110" y="-606.5" font-family="Helvetica,sans-Serif" font-size="10.00">OpenOutputFileForAppend()</text>
<text text-anchor="start" x="95" y="-591.5" font-family="Helvetica,sans-Serif" font-size="10.00">+</text>
<text text-anchor="start" x="110" y="-591.5" font-family="Helvetica,sans-Serif" font-size="10.00">WriteTimeStamp()</text>
<text text-anchor="start" x="95" y="-576.5" font-family="Helvetica,sans-Serif" font-size="10.00">+</text>
<text text-anchor="start" x="110" y="-576.5" font-family="Helvetica,sans-Serif" font-size="10.00">WriteNewline()</text>
<text text-anchor="start" x="95" y="-561.5" font-family="Helvetica,sans-Serif" font-size="10.00">+</text>
<text text-anchor="start" x="110" y="-561.5" font-family="Helvetica,sans-Serif" font-size="10.00">SetFileName()</text>
<text text-anchor="start" x="95" y="-546.5" font-family="Helvetica,sans-Serif" font-size="10.00">+</text>
<text text-anchor="start" x="110" y="-546.5" font-family="Helvetica,sans-Serif" font-size="10.00">GetFileName()</text>
<text text-anchor="start" x="97.5" y="-531.5" font-family="Helvetica,sans-Serif" font-size="10.00">&#45;</text>
<text text-anchor="start" x="110" y="-531.5" font-family="Helvetica,sans-Serif" font-size="10.00">serialize()</text>
<polygon fill="#666666" stroke="#666666" points="89,-691.5 89,-691.5 254,-691.5 254,-691.5 89,-691.5"/>
<polygon fill="#666666" stroke="#666666" points="89,-676.5 89,-676.5 254,-676.5 254,-676.5 89,-676.5"/>
<polygon fill="none" stroke="#666666" points="88.5,-525 88.5,-720 253.5,-720 253.5,-525 88.5,-525"/>
</a>
</g>
</g>
<!-- Node3&#45;&gt;Node2 -->
<g id="edge2_Node000002_Node000003" class="edge">
<title>Node3&#45;&gt;Node2</title>
<g id="a_edge2_Node000002_Node000003"><a xlink:title=" ">
<path fill="none" stroke="#63b8ff" d="M168.24,-514.71C167.93,-502.5 167.61,-490.15 167.3,-478.21"/>
<polygon fill="none" stroke="#63b8ff" points="164.75,-515.01 168.51,-524.92 171.75,-514.83 164.75,-515.01"/>
</a>
</g>
</g>
<!-- Node4 -->
<g id="Node000004" class="node">
<title>Node4</title>
<g id="a_Node000004"><a xlink:href="classIdentifiable.html" target="_top" xlink:title=" ">
<polygon fill="white" stroke="transparent" points="421,-846 245,-846 245,-767 421,-767 421,-846"/>
<text text-anchor="start" x="305.5" y="-833.5" font-family="Helvetica,sans-Serif" font-size="10.00">Identifiable</text>
<text text-anchor="start" x="331" y="-818.5" font-family="Helvetica,sans-Serif" font-size="10.00"> </text>
<text text-anchor="start" x="249" y="-803.5" font-family="Helvetica,sans-Serif" font-size="10.00">+</text>
<text text-anchor="start" x="262" y="-803.5" font-family="Helvetica,sans-Serif" font-size="10.00">~Identifiable()</text>
<text text-anchor="start" x="249" y="-788.5" font-family="Helvetica,sans-Serif" font-size="10.00">+</text>
<text text-anchor="start" x="262" y="-788.5" font-family="Helvetica,sans-Serif" font-size="10.00">GetIdentifier()</text>
<text text-anchor="start" x="251.5" y="-773.5" font-family="Helvetica,sans-Serif" font-size="10.00">&#45;</text>
<text text-anchor="start" x="262" y="-773.5" font-family="Helvetica,sans-Serif" font-size="10.00">TidyTemplatedExportIdentifier()</text>
<polygon fill="#666666" stroke="#666666" points="245,-828.5 245,-828.5 421,-828.5 421,-828.5 245,-828.5"/>
<polygon fill="#666666" stroke="#666666" points="245,-813.5 245,-813.5 421,-813.5 421,-813.5 245,-813.5"/>
<polygon fill="none" stroke="#666666" points="245,-767 245,-846 421,-846 421,-767 245,-767"/>
</a>
</g>
</g>
<!-- Node4&#45;&gt;Node3 -->
<g id="edge3_Node000003_Node000004" class="edge">
<title>Node4&#45;&gt;Node3</title>
<g id="a_edge3_Node000003_Node000004"><a xlink:title=" ">
<path fill="none" stroke="#63b8ff" d="M291.91,-759.34C280.17,-746.15 266.93,-731.28 253.64,-716.34"/>
<polygon fill="none" stroke="#63b8ff" points="289.38,-761.76 298.64,-766.9 294.61,-757.11 289.38,-761.76"/>
</a>
</g>
</g>
<!-- Node5 -->
<g id="Node000005" class="node">
<title>Node5</title>
<g id="a_Node000005"><a xlink:title=" ">
<polygon fill="white" stroke="transparent" points="78.5,-831 19.5,-831 19.5,-782 78.5,-782 78.5,-831"/>
<text text-anchor="start" x="25" y="-818.5" font-family="Helvetica,sans-Serif" font-size="10.00">std::string</text>
<text text-anchor="start" x="47.5" y="-803.5" font-family="Helvetica,sans-Serif" font-size="10.00"> </text>
<text text-anchor="start" x="47.5" y="-788.5" font-family="Helvetica,sans-Serif" font-size="10.00"> </text>
<polygon fill="#666666" stroke="#666666" points="20,-813.5 20,-813.5 79,-813.5 79,-813.5 20,-813.5"/>
<polygon fill="#666666" stroke="#666666" points="20,-798.5 20,-798.5 79,-798.5 79,-798.5 20,-798.5"/>
<polygon fill="none" stroke="#666666" points="19.5,-782 19.5,-831 78.5,-831 78.5,-782 19.5,-782"/>
</a>
</g>
</g>
<!-- Node5&#45;&gt;Node1 -->
<g id="edge14_Node000001_Node000005" class="edge">
<title>Node5&#45;&gt;Node1</title>
<g id="a_edge14_Node000001_Node000005"><a xlink:title=" ">
<path fill="none" stroke="#63b8ff" d="M46.3,-781.9C38.67,-708.48 20.65,-478.28 71,-298 74.32,-286.1 78.6,-274.13 83.49,-262.33"/>
<polygon fill="none" stroke="#63b8ff" points="83.59,-262.1 82.3,-255 88.36,-251.09 89.64,-258.18 83.59,-262.1"/>
</a>
</g>
<text text-anchor="middle" x="83" y="-499" font-family="Helvetica,sans-Serif" font-size="10.00" fill="grey"> &#45;mVariableName</text>
</g>
<!-- Node5&#45;&gt;Node3 -->
<g id="edge4_Node000003_Node000005" class="edge">
<title>Node5&#45;&gt;Node3</title>
<g id="a_edge4_Node000003_Node000005"><a xlink:title=" ">
<path fill="none" stroke="#63b8ff" d="M64.95,-781.71C74.13,-768 86.4,-749.71 99.32,-730.43"/>
<polygon fill="none" stroke="#63b8ff" points="99.45,-730.24 99.47,-723.03 106.13,-720.27 106.11,-727.49 99.45,-730.24"/>
</a>
</g>
<text text-anchor="middle" x="126" y="-741" font-family="Helvetica,sans-Serif" font-size="10.00" fill="grey"> #mFileName</text>
</g>
<!-- Node6 -->
<g id="Node000006" class="node">
<title>Node6</title>
<g id="a_Node000006"><a xlink:title=" ">
<polygon fill="white" stroke="transparent" points="98,-953 0,-953 0,-893 98,-893 98,-953"/>
<text text-anchor="start" x="5" y="-941" font-family="Helvetica,sans-Serif" font-size="10.00">std::basic_string&lt;</text>
<text text-anchor="start" x="30.5" y="-930" font-family="Helvetica,sans-Serif" font-size="10.00"> Char &gt;</text>
<text text-anchor="start" x="47" y="-915" font-family="Helvetica,sans-Serif" font-size="10.00"> </text>
<text text-anchor="start" x="47" y="-900" font-family="Helvetica,sans-Serif" font-size="10.00"> </text>
<polygon fill="#666666" stroke="#666666" points="0,-925 0,-925 98,-925 98,-925 0,-925"/>
<polygon fill="#666666" stroke="#666666" points="0,-910 0,-910 98,-910 98,-910 0,-910"/>
<polygon fill="none" stroke="#666666" points="0,-893 0,-953 98,-953 98,-893 0,-893"/>
</a>
</g>
</g>
<!-- Node6&#45;&gt;Node5 -->
<g id="edge5_Node000005_Node000006" class="edge">
<title>Node6&#45;&gt;Node5</title>
<g id="a_edge5_Node000005_Node000006"><a xlink:title=" ">
<path fill="none" stroke="#63b8ff" d="M49,-882.54C49,-865.47 49,-846.05 49,-831.24"/>
<polygon fill="none" stroke="#63b8ff" points="45.5,-882.81 49,-892.81 52.5,-882.81 45.5,-882.81"/>
</a>
</g>
</g>
<!-- Node7 -->
<g id="Node000007" class="node">
<title>Node7</title>
<g id="a_Node000007"><a xlink:title=" ">
<polygon fill="white" stroke="transparent" points="227,-836.5 117,-836.5 117,-776.5 227,-776.5 227,-836.5"/>
<text text-anchor="start" x="122" y="-824.5" font-family="Helvetica,sans-Serif" font-size="10.00">std::shared_ptr&lt; std</text>
<text text-anchor="start" x="141" y="-813.5" font-family="Helvetica,sans-Serif" font-size="10.00">::ofstream &gt;</text>
<text text-anchor="start" x="170" y="-798.5" font-family="Helvetica,sans-Serif" font-size="10.00"> </text>
<text text-anchor="start" x="128" y="-783.5" font-family="Helvetica,sans-Serif" font-size="10.00">+</text>
<text text-anchor="start" x="148" y="-783.5" font-family="Helvetica,sans-Serif" font-size="10.00">operator&#45;&gt;()</text>
<polygon fill="#666666" stroke="#666666" points="117,-808.5 117,-808.5 227,-808.5 227,-808.5 117,-808.5"/>
<polygon fill="#666666" stroke="#666666" points="117,-793.5 117,-793.5 227,-793.5 227,-793.5 117,-793.5"/>
<polygon fill="none" stroke="#666666" points="117,-776.5 117,-836.5 227,-836.5 227,-776.5 117,-776.5"/>
</a>
</g>
</g>
<!-- Node7&#45;&gt;Node3 -->
<g id="edge6_Node000003_Node000007" class="edge">
<title>Node7&#45;&gt;Node3</title>
<g id="a_edge6_Node000003_Node000007"><a xlink:title=" ">
<path fill="none" stroke="#63b8ff" d="M171.84,-776.26C171.77,-763.85 171.69,-748.53 171.6,-732.44"/>
<polygon fill="none" stroke="#63b8ff" points="171.6,-732.02 167.56,-726.04 171.53,-720.02 175.56,-726 171.6,-732.02"/>
</a>
</g>
<text text-anchor="middle" x="212" y="-741" font-family="Helvetica,sans-Serif" font-size="10.00" fill="grey"> #mpOutStream</text>
</g>
<!-- Node8 -->
<g id="Node000008" class="node">
<title>Node8</title>
<g id="a_Node000008"><a xlink:title=" ">
<polygon fill="white" stroke="transparent" points="324,-947.5 248,-947.5 248,-898.5 324,-898.5 324,-947.5"/>
<text text-anchor="start" x="253" y="-935" font-family="Helvetica,sans-Serif" font-size="10.00">std::ofstream</text>
<text text-anchor="start" x="284" y="-920" font-family="Helvetica,sans-Serif" font-size="10.00"> </text>
<text text-anchor="start" x="284" y="-905" font-family="Helvetica,sans-Serif" font-size="10.00"> </text>
<polygon fill="#666666" stroke="#666666" points="248,-930 248,-930 324,-930 324,-930 248,-930"/>
<polygon fill="#666666" stroke="#666666" points="248,-915 248,-915 324,-915 324,-915 248,-915"/>
<polygon fill="none" stroke="#666666" points="248,-898.5 248,-947.5 324,-947.5 324,-898.5 248,-898.5"/>
</a>
</g>
</g>
<!-- Node8&#45;&gt;Node7 -->
<g id="edge7_Node000007_Node000008" class="edge">
<title>Node8&#45;&gt;Node7</title>
<g id="a_edge7_Node000007_Node000008"><a xlink:title=" ">
<path fill="none" stroke="#63b8ff" d="M280.86,-898.43C277.5,-887.1 272.17,-873.87 264,-864 263.23,-863.07 248.24,-853.78 230.57,-842.98"/>
<polygon fill="none" stroke="#63b8ff" points="230.2,-842.75 222.99,-843.04 219.95,-836.51 227.16,-836.21 230.2,-842.75"/>
</a>
</g>
<text text-anchor="middle" x="282.5" y="-867" font-family="Helvetica,sans-Serif" font-size="10.00" fill="grey"> +ptr</text>
</g>
<!-- Node9 -->
<g id="Node000009" class="node">
<title>Node9</title>
<g id="a_Node000009"><a xlink:title=" ">
<polygon fill="white" stroke="transparent" points="339.5,-1060 232.5,-1060 232.5,-1000 339.5,-1000 339.5,-1060"/>
<text text-anchor="start" x="238" y="-1048" font-family="Helvetica,sans-Serif" font-size="10.00">std::basic_ofstream</text>
<text text-anchor="start" x="263.5" y="-1037" font-family="Helvetica,sans-Serif" font-size="10.00">&lt; Char &gt;</text>
<text text-anchor="start" x="284.5" y="-1022" font-family="Helvetica,sans-Serif" font-size="10.00"> </text>
<text text-anchor="start" x="284.5" y="-1007" font-family="Helvetica,sans-Serif" font-size="10.00"> </text>
<polygon fill="#666666" stroke="#666666" points="233,-1032 233,-1032 340,-1032 340,-1032 233,-1032"/>
<polygon fill="#666666" stroke="#666666" points="233,-1017 233,-1017 340,-1017 340,-1017 233,-1017"/>
<polygon fill="none" stroke="#666666" points="232.5,-1000 232.5,-1060 339.5,-1060 339.5,-1000 232.5,-1000"/>
</a>
</g>
</g>
<!-- Node9&#45;&gt;Node8 -->
<g id="edge8_Node000008_Node000009" class="edge">
<title>Node9&#45;&gt;Node8</title>
<g id="a_edge8_Node000008_Node000009"><a xlink:title=" ">
<path fill="none" stroke="#63b8ff" d="M286,-989.37C286,-975.37 286,-960.07 286,-947.79"/>
<polygon fill="none" stroke="#63b8ff" points="282.5,-989.75 286,-999.75 289.5,-989.75 282.5,-989.75"/>
</a>
</g>
</g>
<!-- Node10 -->
<g id="Node000010" class="node">
<title>Node10</title>
<g id="a_Node000010"><a xlink:title=" ">
<polygon fill="white" stroke="transparent" points="337.5,-1157 234.5,-1157 234.5,-1097 337.5,-1097 337.5,-1157"/>
<text text-anchor="start" x="240" y="-1145" font-family="Helvetica,sans-Serif" font-size="10.00">std::basic_ostream</text>
<text text-anchor="start" x="263.5" y="-1134" font-family="Helvetica,sans-Serif" font-size="10.00">&lt; Char &gt;</text>
<text text-anchor="start" x="284.5" y="-1119" font-family="Helvetica,sans-Serif" font-size="10.00"> </text>
<text text-anchor="start" x="284.5" y="-1104" font-family="Helvetica,sans-Serif" font-size="10.00"> </text>
<polygon fill="#666666" stroke="#666666" points="235,-1129 235,-1129 338,-1129 338,-1129 235,-1129"/>
<polygon fill="#666666" stroke="#666666" points="235,-1114 235,-1114 338,-1114 338,-1114 235,-1114"/>
<polygon fill="none" stroke="#666666" points="234.5,-1097 234.5,-1157 337.5,-1157 337.5,-1097 234.5,-1097"/>
</a>
</g>
</g>
<!-- Node10&#45;&gt;Node9 -->
<g id="edge9_Node000009_Node000010" class="edge">
<title>Node10&#45;&gt;Node9</title>
<g id="a_edge9_Node000009_Node000010"><a xlink:title=" ">
<path fill="none" stroke="#63b8ff" d="M286,-1086.79C286,-1077.88 286,-1068.57 286,-1060.17"/>
<polygon fill="none" stroke="#63b8ff" points="282.5,-1086.98 286,-1096.98 289.5,-1086.98 282.5,-1086.98"/>
</a>
</g>
</g>
<!-- Node11 -->
<g id="Node000011" class="node">
<title>Node11</title>
<g id="a_Node000011"><a xlink:title=" ">
<polygon fill="white" stroke="transparent" points="347,-1243 225,-1243 225,-1194 347,-1194 347,-1243"/>
<text text-anchor="start" x="230" y="-1230.5" font-family="Helvetica,sans-Serif" font-size="10.00">std::basic_ios&lt; Char &gt;</text>
<text text-anchor="start" x="284" y="-1215.5" font-family="Helvetica,sans-Serif" font-size="10.00"> </text>
<text text-anchor="start" x="284" y="-1200.5" font-family="Helvetica,sans-Serif" font-size="10.00"> </text>
<polygon fill="#666666" stroke="#666666" points="225,-1225.5 225,-1225.5 347,-1225.5 347,-1225.5 225,-1225.5"/>
<polygon fill="#666666" stroke="#666666" points="225,-1210.5 225,-1210.5 347,-1210.5 347,-1210.5 225,-1210.5"/>
<polygon fill="none" stroke="#666666" points="225,-1194 225,-1243 347,-1243 347,-1194 225,-1194"/>
</a>
</g>
</g>
<!-- Node11&#45;&gt;Node10 -->
<g id="edge10_Node000010_Node000011" class="edge">
<title>Node11&#45;&gt;Node10</title>
<g id="a_edge10_Node000010_Node000011"><a xlink:title=" ">
<path fill="none" stroke="#63b8ff" d="M286,-1183.7C286,-1174.95 286,-1165.6 286,-1157.12"/>
<polygon fill="none" stroke="#63b8ff" points="282.5,-1183.98 286,-1193.98 289.5,-1183.98 282.5,-1183.98"/>
</a>
</g>
</g>
<!-- Node12 -->
<g id="Node000012" class="node">
<title>Node12</title>
<g id="a_Node000012"><a xlink:title=" ">
<polygon fill="white" stroke="transparent" points="323,-1329 249,-1329 249,-1280 323,-1280 323,-1329"/>
<text text-anchor="start" x="254" y="-1316.5" font-family="Helvetica,sans-Serif" font-size="10.00">std::ios_base</text>
<text text-anchor="start" x="284" y="-1301.5" font-family="Helvetica,sans-Serif" font-size="10.00"> </text>
<text text-anchor="start" x="284" y="-1286.5" font-family="Helvetica,sans-Serif" font-size="10.00"> </text>
<polygon fill="#666666" stroke="#666666" points="249,-1311.5 249,-1311.5 323,-1311.5 323,-1311.5 249,-1311.5"/>
<polygon fill="#666666" stroke="#666666" points="249,-1296.5 249,-1296.5 323,-1296.5 323,-1296.5 249,-1296.5"/>
<polygon fill="none" stroke="#666666" points="249,-1280 249,-1329 323,-1329 323,-1280 249,-1280"/>
</a>
</g>
</g>
<!-- Node12&#45;&gt;Node11 -->
<g id="edge11_Node000011_Node000012" class="edge">
<title>Node12&#45;&gt;Node11</title>
<g id="a_edge11_Node000011_Node000012"><a xlink:title=" ">
<path fill="none" stroke="#63b8ff" d="M286,-1269.57C286,-1260.69 286,-1251.32 286,-1243.12"/>
<polygon fill="none" stroke="#63b8ff" points="282.5,-1269.65 286,-1279.65 289.5,-1269.65 282.5,-1269.65"/>
</a>
</g>
</g>
<!-- Node13 -->
<g id="Node000013" class="node">
<title>Node13</title>
<g id="a_Node000013"><a xlink:title=" ">
<polygon fill="white" stroke="transparent" points="228,-947.5 116,-947.5 116,-898.5 228,-898.5 228,-947.5"/>
<text text-anchor="start" x="121" y="-935" font-family="Helvetica,sans-Serif" font-size="10.00">std::shared_ptr&lt; T &gt;</text>
<text text-anchor="start" x="170" y="-920" font-family="Helvetica,sans-Serif" font-size="10.00"> </text>
<text text-anchor="start" x="127.5" y="-905" font-family="Helvetica,sans-Serif" font-size="10.00">+</text>
<text text-anchor="start" x="148" y="-905" font-family="Helvetica,sans-Serif" font-size="10.00">operator&#45;&gt;()</text>
<polygon fill="#666666" stroke="#666666" points="116,-930 116,-930 228,-930 228,-930 116,-930"/>
<polygon fill="#666666" stroke="#666666" points="116,-915 116,-915 228,-915 228,-915 116,-915"/>
<polygon fill="none" stroke="#666666" points="116,-898.5 116,-947.5 228,-947.5 228,-898.5 116,-898.5"/>
</a>
</g>
</g>
<!-- Node13&#45;&gt;Node7 -->
<g id="edge12_Node000007_Node000013" class="edge">
<title>Node13&#45;&gt;Node7</title>
<g id="a_edge12_Node000007_Node000013"><a xlink:title=" ">
<path fill="none" stroke="orange" d="M172,-888.09C172,-871.83 172,-852.53 172,-836.89"/>
<polygon fill="orange" stroke="orange" points="168.5,-888.28 172,-898.28 175.5,-888.28 168.5,-888.28"/>
</a>
</g>
<text text-anchor="middle" x="217.5" y="-867" font-family="Helvetica,sans-Serif" font-size="10.00" fill="grey"> &lt; std::ofstream &gt;</text>
</g>
<!-- Node14 -->
<g id="Node000014" class="node">
<title>Node14</title>
<g id="a_Node000014"><a xlink:title=" ">
<polygon fill="white" stroke="transparent" points="180.5,-1054.5 163.5,-1054.5 163.5,-1005.5 180.5,-1005.5 180.5,-1054.5"/>
<text text-anchor="start" x="169" y="-1042" font-family="Helvetica,sans-Serif" font-size="10.00">T</text>
<text text-anchor="start" x="170.5" y="-1027" font-family="Helvetica,sans-Serif" font-size="10.00"> </text>
<text text-anchor="start" x="170.5" y="-1012" font-family="Helvetica,sans-Serif" font-size="10.00"> </text>
<polygon fill="#bfbfbf" stroke="#bfbfbf" points="164,-1037 164,-1037 181,-1037 181,-1037 164,-1037"/>
<polygon fill="#bfbfbf" stroke="#bfbfbf" points="164,-1022 164,-1022 181,-1022 181,-1022 164,-1022"/>
<polygon fill="none" stroke="#bfbfbf" points="163.5,-1005.5 163.5,-1054.5 180.5,-1054.5 180.5,-1005.5 163.5,-1005.5"/>
</a>
</g>
</g>
<!-- Node14&#45;&gt;Node13 -->
<g id="edge13_Node000013_Node000014" class="edge">
<title>Node14&#45;&gt;Node13</title>
<g id="a_edge13_Node000013_Node000014"><a xlink:title=" ">
<path fill="none" stroke="#63b8ff" d="M172,-1005.44C172,-992.02 172,-974.94 172,-959.89"/>
<polygon fill="none" stroke="#63b8ff" points="172,-959.85 168,-953.85 172,-947.85 176,-953.85 172,-959.85"/>
</a>
</g>
<text text-anchor="middle" x="184.5" y="-974" font-family="Helvetica,sans-Serif" font-size="10.00" fill="grey"> +ptr</text>
</g>
<!-- Node15 -->
<g id="Node000015" class="node">
<title>Node15</title>
<g id="a_Node000015"><a xlink:href="classunsigned.html" target="_top" xlink:title=" ">
<polygon fill="white" stroke="transparent" points="323.5,-412.5 268.5,-412.5 268.5,-363.5 323.5,-363.5 323.5,-412.5"/>
<text text-anchor="start" x="274" y="-400" font-family="Helvetica,sans-Serif" font-size="10.00">unsigned</text>
<text text-anchor="start" x="294.5" y="-385" font-family="Helvetica,sans-Serif" font-size="10.00"> </text>
<text text-anchor="start" x="294.5" y="-370" font-family="Helvetica,sans-Serif" font-size="10.00"> </text>
<polygon fill="#bfbfbf" stroke="#bfbfbf" points="269,-395 269,-395 324,-395 324,-395 269,-395"/>
<polygon fill="#bfbfbf" stroke="#bfbfbf" points="269,-380 269,-380 324,-380 324,-380 269,-380"/>
<polygon fill="none" stroke="#bfbfbf" points="268.5,-363.5 268.5,-412.5 323.5,-412.5 323.5,-363.5 268.5,-363.5"/>
</a>
</g>
</g>
<!-- Node15&#45;&gt;Node1 -->
<g id="edge15_Node000001_Node000015" class="edge">
<title>Node15&#45;&gt;Node1</title>
<g id="a_edge15_Node000001_Node000015"><a xlink:title=" ">
<path fill="none" stroke="#63b8ff" d="M286.94,-363.27C279.83,-345.17 269.43,-319.72 259,-298 253.32,-286.16 247.2,-273.99 240.92,-261.85"/>
<polygon fill="none" stroke="#63b8ff" points="240.92,-261.84 234.6,-258.37 235.37,-251.2 241.69,-254.67 240.92,-261.84"/>
</a>
</g>
<text text-anchor="middle" x="295" y="-272" font-family="Helvetica,sans-Serif" font-size="10.00" fill="grey"> &#45;mNumRadialBins</text>
</g>
</g>
</svg>
