<?xml version="1.0" encoding="UTF-8" standalone="no"?>
<!DOCTYPE svg PUBLIC "-//W3C//DTD SVG 1.1//EN"
 "http://www.w3.org/Graphics/SVG/1.1/DTD/svg11.dtd">
<!-- Generated by graphviz version 2.43.0 (0)
 -->
<!-- Title: NagaiHondaDifferentialAdhesionForce&lt; DIM &gt; Pages: 1 -->
<svg width="581pt" height="1292pt"
 viewBox="0.00 0.00 581.00 1292.00" xmlns="http://www.w3.org/2000/svg" xmlns:xlink="http://www.w3.org/1999/xlink">
<g id="graph0" class="graph" transform="scale(1 1) rotate(0) translate(4 1288)">
<title>NagaiHondaDifferentialAdhesionForce&lt; DIM &gt;</title>
<!-- Node1 -->
<g id="Node000001" class="node">
<title>Node1</title>
<g id="a_Node000001"><a xlink:title=" ">
<polygon fill="#999999" stroke="transparent" points="367,-298 149,-298 149,0 367,0 367,-298"/>
<text text-anchor="start" x="178" y="-286" font-family="Helvetica,sans-Serif" font-size="10.00">NagaiHondaDifferentialAdhesion</text>
<text text-anchor="start" x="223.5" y="-275" font-family="Helvetica,sans-Serif" font-size="10.00">Force&lt; DIM &gt;</text>
<text text-anchor="start" x="256" y="-260" font-family="Helvetica,sans-Serif" font-size="10.00"> </text>
<text text-anchor="start" x="153" y="-245" font-family="Helvetica,sans-Serif" font-size="10.00">+</text>
<text text-anchor="start" x="166" y="-245" font-family="Helvetica,sans-Serif" font-size="10.00">NagaiHondaDifferentialAdhesion</text>
<text text-anchor="start" x="166" y="-234" font-family="Helvetica,sans-Serif" font-size="10.00">Force()</text>
<text text-anchor="start" x="153" y="-219" font-family="Helvetica,sans-Serif" font-size="10.00">+</text>
<text text-anchor="start" x="166" y="-219" font-family="Helvetica,sans-Serif" font-size="10.00">~NagaiHondaDifferentialAdhesion</text>
<text text-anchor="start" x="166" y="-208" font-family="Helvetica,sans-Serif" font-size="10.00">Force()</text>
<text text-anchor="start" x="153" y="-193" font-family="Helvetica,sans-Serif" font-size="10.00">+</text>
<text text-anchor="start" x="166" y="-193" font-family="Helvetica,sans-Serif" font-size="10.00">GetAdhesionParameter()</text>
<text text-anchor="start" x="153" y="-178" font-family="Helvetica,sans-Serif" font-size="10.00">+</text>
<text text-anchor="start" x="166" y="-178" font-family="Helvetica,sans-Serif" font-size="10.00">GetNagaiHondaLabelledCell</text>
<text text-anchor="start" x="166" y="-167" font-family="Helvetica,sans-Serif" font-size="10.00">CellAdhesionEnergyParameter()</text>
<text text-anchor="start" x="153" y="-152" font-family="Helvetica,sans-Serif" font-size="10.00">+</text>
<text text-anchor="start" x="166" y="-152" font-family="Helvetica,sans-Serif" font-size="10.00">GetNagaiHondaLabelledCell</text>
<text text-anchor="start" x="166" y="-141" font-family="Helvetica,sans-Serif" font-size="10.00">LabelledCellAdhesionEnergyParameter()</text>
<text text-anchor="start" x="153" y="-126" font-family="Helvetica,sans-Serif" font-size="10.00">+</text>
<text text-anchor="start" x="166" y="-126" font-family="Helvetica,sans-Serif" font-size="10.00">GetNagaiHondaLabelledCell</text>
<text text-anchor="start" x="166" y="-115" font-family="Helvetica,sans-Serif" font-size="10.00">BoundaryAdhesionEnergyParameter()</text>
<text text-anchor="start" x="153" y="-100" font-family="Helvetica,sans-Serif" font-size="10.00">+</text>
<text text-anchor="start" x="166" y="-100" font-family="Helvetica,sans-Serif" font-size="10.00">SetNagaiHondaLabelledCell</text>
<text text-anchor="start" x="166" y="-89" font-family="Helvetica,sans-Serif" font-size="10.00">CellAdhesionEnergyParameter()</text>
<text text-anchor="start" x="153" y="-74" font-family="Helvetica,sans-Serif" font-size="10.00">+</text>
<text text-anchor="start" x="166" y="-74" font-family="Helvetica,sans-Serif" font-size="10.00">SetNagaiHondaLabelledCell</text>
<text text-anchor="start" x="166" y="-63" font-family="Helvetica,sans-Serif" font-size="10.00">LabelledCellAdhesionEnergyParameter()</text>
<text text-anchor="start" x="153" y="-48" font-family="Helvetica,sans-Serif" font-size="10.00">+</text>
<text text-anchor="start" x="166" y="-48" font-family="Helvetica,sans-Serif" font-size="10.00">SetNagaiHondaLabelledCell</text>
<text text-anchor="start" x="166" y="-37" font-family="Helvetica,sans-Serif" font-size="10.00">BoundaryAdhesionEnergyParameter()</text>
<text text-anchor="start" x="153" y="-22" font-family="Helvetica,sans-Serif" font-size="10.00">+</text>
<text text-anchor="start" x="166" y="-22" font-family="Helvetica,sans-Serif" font-size="10.00">OutputForceParameters()</text>
<text text-anchor="start" x="155.5" y="-7" font-family="Helvetica,sans-Serif" font-size="10.00">&#45;</text>
<text text-anchor="start" x="166" y="-7" font-family="Helvetica,sans-Serif" font-size="10.00">serialize()</text>
<polygon fill="#666666" stroke="#666666" points="149,-270 149,-270 367,-270 367,-270 149,-270"/>
<polygon fill="#666666" stroke="#666666" points="149,-255 149,-255 367,-255 367,-255 149,-255"/>
<polygon fill="none" stroke="#666666" points="149,0 149,-298 367,-298 367,0 149,0"/>
</a>
</g>
</g>
<!-- Node2 -->
<g id="Node000002" class="node">
<title>Node2</title>
<g id="a_Node000002"><a xlink:href="classNagaiHondaForce.html" target="_top" xlink:title=" ">
<polygon fill="white" stroke="transparent" points="229.5,-697 20.5,-697 20.5,-335 229.5,-335 229.5,-697"/>
<text text-anchor="start" x="61" y="-685" font-family="Helvetica,sans-Serif" font-size="10.00">NagaiHondaForce&lt; DIM &gt;</text>
<text text-anchor="start" x="123.5" y="-670" font-family="Helvetica,sans-Serif" font-size="10.00"> </text>
<text text-anchor="start" x="25" y="-655" font-family="Helvetica,sans-Serif" font-size="10.00">+</text>
<text text-anchor="start" x="38" y="-655" font-family="Helvetica,sans-Serif" font-size="10.00">NagaiHondaForce()</text>
<text text-anchor="start" x="25" y="-640" font-family="Helvetica,sans-Serif" font-size="10.00">+</text>
<text text-anchor="start" x="38" y="-640" font-family="Helvetica,sans-Serif" font-size="10.00">~NagaiHondaForce()</text>
<text text-anchor="start" x="25" y="-625" font-family="Helvetica,sans-Serif" font-size="10.00">+</text>
<text text-anchor="start" x="38" y="-625" font-family="Helvetica,sans-Serif" font-size="10.00">AddForceContribution()</text>
<text text-anchor="start" x="25" y="-610" font-family="Helvetica,sans-Serif" font-size="10.00">+</text>
<text text-anchor="start" x="38" y="-610" font-family="Helvetica,sans-Serif" font-size="10.00">GetAdhesionParameter()</text>
<text text-anchor="start" x="25" y="-595" font-family="Helvetica,sans-Serif" font-size="10.00">+</text>
<text text-anchor="start" x="38" y="-595" font-family="Helvetica,sans-Serif" font-size="10.00">GetNagaiHondaDeformation</text>
<text text-anchor="start" x="38" y="-584" font-family="Helvetica,sans-Serif" font-size="10.00">EnergyParameter()</text>
<text text-anchor="start" x="25" y="-569" font-family="Helvetica,sans-Serif" font-size="10.00">+</text>
<text text-anchor="start" x="38" y="-569" font-family="Helvetica,sans-Serif" font-size="10.00">GetNagaiHondaMembraneSurface</text>
<text text-anchor="start" x="38" y="-558" font-family="Helvetica,sans-Serif" font-size="10.00">EnergyParameter()</text>
<text text-anchor="start" x="25" y="-543" font-family="Helvetica,sans-Serif" font-size="10.00">+</text>
<text text-anchor="start" x="38" y="-543" font-family="Helvetica,sans-Serif" font-size="10.00">GetNagaiHondaCellCellAdhesion</text>
<text text-anchor="start" x="38" y="-532" font-family="Helvetica,sans-Serif" font-size="10.00">EnergyParameter()</text>
<text text-anchor="start" x="25" y="-517" font-family="Helvetica,sans-Serif" font-size="10.00">+</text>
<text text-anchor="start" x="38" y="-517" font-family="Helvetica,sans-Serif" font-size="10.00">GetNagaiHondaCellBoundary</text>
<text text-anchor="start" x="38" y="-506" font-family="Helvetica,sans-Serif" font-size="10.00">AdhesionEnergyParameter()</text>
<text text-anchor="start" x="25" y="-491" font-family="Helvetica,sans-Serif" font-size="10.00">+</text>
<text text-anchor="start" x="38" y="-491" font-family="Helvetica,sans-Serif" font-size="10.00">GetNagaiHondaTargetAreaParameter()</text>
<text text-anchor="start" x="25" y="-476" font-family="Helvetica,sans-Serif" font-size="10.00">+</text>
<text text-anchor="start" x="38" y="-476" font-family="Helvetica,sans-Serif" font-size="10.00">SetNagaiHondaDeformation</text>
<text text-anchor="start" x="38" y="-465" font-family="Helvetica,sans-Serif" font-size="10.00">EnergyParameter()</text>
<text text-anchor="start" x="25" y="-450" font-family="Helvetica,sans-Serif" font-size="10.00">+</text>
<text text-anchor="start" x="38" y="-450" font-family="Helvetica,sans-Serif" font-size="10.00">SetNagaiHondaMembraneSurface</text>
<text text-anchor="start" x="38" y="-439" font-family="Helvetica,sans-Serif" font-size="10.00">EnergyParameter()</text>
<text text-anchor="start" x="25" y="-424" font-family="Helvetica,sans-Serif" font-size="10.00">+</text>
<text text-anchor="start" x="38" y="-424" font-family="Helvetica,sans-Serif" font-size="10.00">SetNagaiHondaCellCellAdhesion</text>
<text text-anchor="start" x="38" y="-413" font-family="Helvetica,sans-Serif" font-size="10.00">EnergyParameter()</text>
<text text-anchor="start" x="25" y="-398" font-family="Helvetica,sans-Serif" font-size="10.00">+</text>
<text text-anchor="start" x="38" y="-398" font-family="Helvetica,sans-Serif" font-size="10.00">SetNagaiHondaCellBoundary</text>
<text text-anchor="start" x="38" y="-387" font-family="Helvetica,sans-Serif" font-size="10.00">AdhesionEnergyParameter()</text>
<text text-anchor="start" x="25" y="-372" font-family="Helvetica,sans-Serif" font-size="10.00">+</text>
<text text-anchor="start" x="38" y="-372" font-family="Helvetica,sans-Serif" font-size="10.00">SetNagaiHondaTargetAreaParameter()</text>
<text text-anchor="start" x="25" y="-357" font-family="Helvetica,sans-Serif" font-size="10.00">+</text>
<text text-anchor="start" x="38" y="-357" font-family="Helvetica,sans-Serif" font-size="10.00">OutputForceParameters()</text>
<text text-anchor="start" x="27.5" y="-342" font-family="Helvetica,sans-Serif" font-size="10.00">&#45;</text>
<text text-anchor="start" x="38" y="-342" font-family="Helvetica,sans-Serif" font-size="10.00">serialize()</text>
<polygon fill="#666666" stroke="#666666" points="21,-680 21,-680 230,-680 230,-680 21,-680"/>
<polygon fill="#666666" stroke="#666666" points="21,-665 21,-665 230,-665 230,-665 21,-665"/>
<polygon fill="none" stroke="#666666" points="20.5,-335 20.5,-697 229.5,-697 229.5,-335 20.5,-335"/>
</a>
</g>
</g>
<!-- Node2&#45;&gt;Node1 -->
<g id="edge1_Node000001_Node000002" class="edge">
<title>Node2&#45;&gt;Node1</title>
<g id="a_edge1_Node000001_Node000002"><a xlink:title=" ">
<path fill="none" stroke="#63b8ff" d="M194.09,-325.38C197.42,-316.25 200.74,-307.14 204.02,-298.14"/>
<polygon fill="none" stroke="#63b8ff" points="190.76,-324.31 190.62,-334.91 197.34,-326.71 190.76,-324.31"/>
</a>
</g>
</g>
<!-- Node3 -->
<g id="Node000003" class="node">
<title>Node3</title>
<g id="a_Node000003"><a xlink:href="classAbstractForce.html" target="_top" xlink:title=" ">
<polygon fill="white" stroke="transparent" points="170.5,-960 13.5,-960 13.5,-810 170.5,-810 170.5,-960"/>
<text text-anchor="start" x="38" y="-948" font-family="Helvetica,sans-Serif" font-size="10.00">AbstractForce&lt; DIM &gt;</text>
<text text-anchor="start" x="90.5" y="-933" font-family="Helvetica,sans-Serif" font-size="10.00"> </text>
<text text-anchor="start" x="18" y="-918" font-family="Helvetica,sans-Serif" font-size="10.00">+</text>
<text text-anchor="start" x="31" y="-918" font-family="Helvetica,sans-Serif" font-size="10.00">AbstractForce()</text>
<text text-anchor="start" x="18" y="-903" font-family="Helvetica,sans-Serif" font-size="10.00">+</text>
<text text-anchor="start" x="31" y="-903" font-family="Helvetica,sans-Serif" font-size="10.00">~AbstractForce()</text>
<text text-anchor="start" x="18" y="-888" font-family="Helvetica,sans-Serif" font-size="10.00">+</text>
<text text-anchor="start" x="31" y="-888" font-family="Helvetica,sans-Serif" font-size="10.00">AddForceContribution()</text>
<text text-anchor="start" x="18" y="-873" font-family="Helvetica,sans-Serif" font-size="10.00">+</text>
<text text-anchor="start" x="31" y="-873" font-family="Helvetica,sans-Serif" font-size="10.00">OutputForceInfo()</text>
<text text-anchor="start" x="18" y="-858" font-family="Helvetica,sans-Serif" font-size="10.00">+</text>
<text text-anchor="start" x="31" y="-858" font-family="Helvetica,sans-Serif" font-size="10.00">OutputForceParameters()</text>
<text text-anchor="start" x="18" y="-843" font-family="Helvetica,sans-Serif" font-size="10.00">+</text>
<text text-anchor="start" x="31" y="-843" font-family="Helvetica,sans-Serif" font-size="10.00">WriteDataToVisualizerSetup</text>
<text text-anchor="start" x="31" y="-832" font-family="Helvetica,sans-Serif" font-size="10.00">File()</text>
<text text-anchor="start" x="20.5" y="-817" font-family="Helvetica,sans-Serif" font-size="10.00">&#45;</text>
<text text-anchor="start" x="31" y="-817" font-family="Helvetica,sans-Serif" font-size="10.00">serialize()</text>
<polygon fill="#666666" stroke="#666666" points="14,-943 14,-943 171,-943 171,-943 14,-943"/>
<polygon fill="#666666" stroke="#666666" points="14,-928 14,-928 171,-928 171,-928 14,-928"/>
<polygon fill="none" stroke="#666666" points="13.5,-810 13.5,-960 170.5,-960 170.5,-810 13.5,-810"/>
</a>
</g>
</g>
<!-- Node3&#45;&gt;Node2 -->
<g id="edge2_Node000002_Node000003" class="edge">
<title>Node3&#45;&gt;Node2</title>
<g id="a_edge2_Node000002_Node000003"><a xlink:title=" ">
<path fill="none" stroke="#63b8ff" d="M98.76,-799.73C100.99,-772.67 103.54,-742.56 106,-715 106.52,-709.15 107.06,-703.21 107.61,-697.21"/>
<polygon fill="none" stroke="#63b8ff" points="95.26,-799.69 97.92,-809.94 102.23,-800.26 95.26,-799.69"/>
</a>
</g>
</g>
<!-- Node4 -->
<g id="Node000004" class="node">
<title>Node4</title>
<g id="a_Node000004"><a xlink:href="classIdentifiable.html" target="_top" xlink:title=" ">
<polygon fill="white" stroke="transparent" points="176,-1284 0,-1284 0,-1205 176,-1205 176,-1284"/>
<text text-anchor="start" x="60.5" y="-1271.5" font-family="Helvetica,sans-Serif" font-size="10.00">Identifiable</text>
<text text-anchor="start" x="86" y="-1256.5" font-family="Helvetica,sans-Serif" font-size="10.00"> </text>
<text text-anchor="start" x="4" y="-1241.5" font-family="Helvetica,sans-Serif" font-size="10.00">+</text>
<text text-anchor="start" x="17" y="-1241.5" font-family="Helvetica,sans-Serif" font-size="10.00">~Identifiable()</text>
<text text-anchor="start" x="4" y="-1226.5" font-family="Helvetica,sans-Serif" font-size="10.00">+</text>
<text text-anchor="start" x="17" y="-1226.5" font-family="Helvetica,sans-Serif" font-size="10.00">GetIdentifier()</text>
<text text-anchor="start" x="6.5" y="-1211.5" font-family="Helvetica,sans-Serif" font-size="10.00">&#45;</text>
<text text-anchor="start" x="17" y="-1211.5" font-family="Helvetica,sans-Serif" font-size="10.00">TidyTemplatedExportIdentifier()</text>
<polygon fill="#666666" stroke="#666666" points="0,-1266.5 0,-1266.5 176,-1266.5 176,-1266.5 0,-1266.5"/>
<polygon fill="#666666" stroke="#666666" points="0,-1251.5 0,-1251.5 176,-1251.5 176,-1251.5 0,-1251.5"/>
<polygon fill="none" stroke="#666666" points="0,-1205 0,-1284 176,-1284 176,-1205 0,-1205"/>
</a>
</g>
</g>
<!-- Node4&#45;&gt;Node3 -->
<g id="edge3_Node000003_Node000004" class="edge">
<title>Node4&#45;&gt;Node3</title>
<g id="a_edge3_Node000003_Node000004"><a xlink:title=" ">
<path fill="none" stroke="#63b8ff" d="M88.54,-1194.85C89.22,-1134.37 90.38,-1030.51 91.17,-960.1"/>
<polygon fill="none" stroke="#63b8ff" points="85.04,-1194.86 88.43,-1204.9 92.04,-1194.94 85.04,-1194.86"/>
</a>
</g>
</g>
<!-- Node5 -->
<g id="Node000005" class="node">
<title>Node5</title>
<g id="a_Node000005"><a xlink:href="classAbstractForce.html" target="_top" xlink:title=" ">
<polygon fill="white" stroke="transparent" points="261.5,-1168 104.5,-1168 104.5,-1007 261.5,-1007 261.5,-1168"/>
<text text-anchor="start" x="121.5" y="-1155.5" font-family="Helvetica,sans-Serif" font-size="10.00">AbstractForce&lt; ELEMENT</text>
<text text-anchor="start" x="134.5" y="-1144.5" font-family="Helvetica,sans-Serif" font-size="10.00">_DIM, SPACE_DIM &gt;</text>
<text text-anchor="start" x="181.5" y="-1129.5" font-family="Helvetica,sans-Serif" font-size="10.00"> </text>
<text text-anchor="start" x="109" y="-1114.5" font-family="Helvetica,sans-Serif" font-size="10.00">+</text>
<text text-anchor="start" x="122" y="-1114.5" font-family="Helvetica,sans-Serif" font-size="10.00">AbstractForce()</text>
<text text-anchor="start" x="109" y="-1099.5" font-family="Helvetica,sans-Serif" font-size="10.00">+</text>
<text text-anchor="start" x="122" y="-1099.5" font-family="Helvetica,sans-Serif" font-size="10.00">~AbstractForce()</text>
<text text-anchor="start" x="109" y="-1084.5" font-family="Helvetica,sans-Serif" font-size="10.00">+</text>
<text text-anchor="start" x="122" y="-1084.5" font-family="Helvetica,sans-Serif" font-size="10.00">AddForceContribution()</text>
<text text-anchor="start" x="109" y="-1069.5" font-family="Helvetica,sans-Serif" font-size="10.00">+</text>
<text text-anchor="start" x="122" y="-1069.5" font-family="Helvetica,sans-Serif" font-size="10.00">OutputForceInfo()</text>
<text text-anchor="start" x="109" y="-1054.5" font-family="Helvetica,sans-Serif" font-size="10.00">+</text>
<text text-anchor="start" x="122" y="-1054.5" font-family="Helvetica,sans-Serif" font-size="10.00">OutputForceParameters()</text>
<text text-anchor="start" x="109" y="-1039.5" font-family="Helvetica,sans-Serif" font-size="10.00">+</text>
<text text-anchor="start" x="122" y="-1039.5" font-family="Helvetica,sans-Serif" font-size="10.00">WriteDataToVisualizerSetup</text>
<text text-anchor="start" x="122" y="-1028.5" font-family="Helvetica,sans-Serif" font-size="10.00">File()</text>
<text text-anchor="start" x="111.5" y="-1013.5" font-family="Helvetica,sans-Serif" font-size="10.00">&#45;</text>
<text text-anchor="start" x="122" y="-1013.5" font-family="Helvetica,sans-Serif" font-size="10.00">serialize()</text>
<polygon fill="#666666" stroke="#666666" points="105,-1139.5 105,-1139.5 262,-1139.5 262,-1139.5 105,-1139.5"/>
<polygon fill="#666666" stroke="#666666" points="105,-1124.5 105,-1124.5 262,-1124.5 262,-1124.5 105,-1124.5"/>
<polygon fill="none" stroke="#666666" points="104.5,-1007 104.5,-1168 261.5,-1168 261.5,-1007 104.5,-1007"/>
</a>
</g>
</g>
<!-- Node4&#45;&gt;Node5 -->
<g id="edge5_Node000005_Node000004" class="edge">
<title>Node4&#45;&gt;Node5</title>
<g id="a_edge5_Node000005_Node000004"><a xlink:title=" ">
<path fill="none" stroke="#63b8ff" d="M117.03,-1196.13C122.48,-1187.24 128.31,-1177.73 134.17,-1168.17"/>
<polygon fill="none" stroke="#63b8ff" points="113.97,-1194.43 111.73,-1204.79 119.94,-1198.09 113.97,-1194.43"/>
</a>
</g>
</g>
<!-- Node5&#45;&gt;Node3 -->
<g id="edge4_Node000003_Node000005" class="edge">
<title>Node5&#45;&gt;Node3</title>
<g id="a_edge4_Node000003_Node000005"><a xlink:title=" ">
<path fill="none" stroke="orange" d="M142.61,-997.5C136.95,-985.05 131.2,-972.36 125.68,-960.22"/>
<polygon fill="orange" stroke="orange" points="139.58,-999.31 146.9,-1006.97 145.96,-996.42 139.58,-999.31"/>
</a>
</g>
<text text-anchor="middle" x="161" y="-981" font-family="Helvetica,sans-Serif" font-size="10.00" fill="grey"> &lt; DIM &gt;</text>
</g>
<!-- Node6 -->
<g id="Node000006" class="node">
<title>Node6</title>
<g id="a_Node000006"><a xlink:href="classdouble.html" target="_top" xlink:title=" ">
<polygon fill="white" stroke="transparent" points="323,-909.5 279,-909.5 279,-860.5 323,-860.5 323,-909.5"/>
<text text-anchor="start" x="284" y="-897" font-family="Helvetica,sans-Serif" font-size="10.00">double</text>
<text text-anchor="start" x="299" y="-882" font-family="Helvetica,sans-Serif" font-size="10.00"> </text>
<text text-anchor="start" x="299" y="-867" font-family="Helvetica,sans-Serif" font-size="10.00"> </text>
<polygon fill="#bfbfbf" stroke="#bfbfbf" points="279,-892 279,-892 323,-892 323,-892 279,-892"/>
<polygon fill="#bfbfbf" stroke="#bfbfbf" points="279,-877 279,-877 323,-877 323,-877 279,-877"/>
<polygon fill="none" stroke="#bfbfbf" points="279,-860.5 279,-909.5 323,-909.5 323,-860.5 279,-860.5"/>
</a>
</g>
</g>
<!-- Node6&#45;&gt;Node1 -->
<g id="edge7_Node000001_Node000006" class="edge">
<title>Node6&#45;&gt;Node1</title>
<g id="a_edge7_Node000001_Node000006"><a xlink:title=" ">
<path fill="none" stroke="#63b8ff" d="M323.08,-865.85C341.74,-848.96 367.12,-821.95 378,-792 389.68,-759.83 381.57,-749.04 378,-715 363.47,-576.66 329.45,-422.35 301.33,-310"/>
<polygon fill="none" stroke="#63b8ff" points="301.3,-309.87 295.96,-305.02 298.37,-298.23 303.72,-303.07 301.3,-309.87"/>
</a>
</g>
<text text-anchor="start" x="375" y="-541" font-family="Helvetica,sans-Serif" font-size="10.00" fill="grey"> &#45;mNagaiHondaLabelledCell</text>
<text text-anchor="middle" x="474" y="-530" font-family="Helvetica,sans-Serif" font-size="10.00" fill="grey">BoundaryAdhesionEnergyParameter</text>
<text text-anchor="start" x="375" y="-519" font-family="Helvetica,sans-Serif" font-size="10.00" fill="grey">&#45;mNagaiHondaLabelledCellCellAdhesion</text>
<text text-anchor="middle" x="474" y="-508" font-family="Helvetica,sans-Serif" font-size="10.00" fill="grey">EnergyParameter</text>
<text text-anchor="start" x="375" y="-497" font-family="Helvetica,sans-Serif" font-size="10.00" fill="grey">&#45;mNagaiHondaLabelledCellLabelledCell</text>
<text text-anchor="middle" x="474" y="-486" font-family="Helvetica,sans-Serif" font-size="10.00" fill="grey">AdhesionEnergyParameter</text>
</g>
<!-- Node6&#45;&gt;Node2 -->
<g id="edge6_Node000002_Node000006" class="edge">
<title>Node6&#45;&gt;Node2</title>
<g id="a_edge6_Node000002_Node000006"><a xlink:title=" ">
<path fill="none" stroke="#63b8ff" d="M278.89,-868.55C255.05,-852.4 215.6,-827.06 179,-810 156.45,-799.49 140.53,-812.2 126,-792 115.2,-776.98 110.85,-745.86 110.03,-709.76"/>
<polygon fill="none" stroke="#63b8ff" points="110.02,-709.34 105.95,-703.39 109.88,-697.34 113.95,-703.29 110.02,-709.34"/>
</a>
</g>
<text text-anchor="start" x="126" y="-784" font-family="Helvetica,sans-Serif" font-size="10.00" fill="grey"> #mNagaiHondaCellBoundary</text>
<text text-anchor="middle" x="252" y="-773" font-family="Helvetica,sans-Serif" font-size="10.00" fill="grey">AdhesionEnergyParameter</text>
<text text-anchor="start" x="126" y="-762" font-family="Helvetica,sans-Serif" font-size="10.00" fill="grey">#mNagaiHondaCellCellAdhesionEnergy</text>
<text text-anchor="middle" x="252" y="-751" font-family="Helvetica,sans-Serif" font-size="10.00" fill="grey">Parameter</text>
<text text-anchor="middle" x="252" y="-740" font-family="Helvetica,sans-Serif" font-size="10.00" fill="grey">#mNagaiHondaDeformationEnergyParameter</text>
<text text-anchor="middle" x="252" y="-729" font-family="Helvetica,sans-Serif" font-size="10.00" fill="grey">#mNagaiHondaMembraneSurfaceEnergyParameter</text>
<text text-anchor="middle" x="252" y="-718" font-family="Helvetica,sans-Serif" font-size="10.00" fill="grey">#mNagaiHondaTargetAreaParameter</text>
</g>
</g>
</svg>
