<?xml version="1.0" encoding="UTF-8" standalone="no"?>
<!DOCTYPE svg PUBLIC "-//W3C//DTD SVG 1.1//EN"
 "http://www.w3.org/Graphics/SVG/1.1/DTD/svg11.dtd">
<!-- Generated by graphviz version 2.43.0 (0)
 -->
<!-- Title: NaturalNeumannSurfaceTermAssembler&lt; ELEMENT_DIM, SPACE_DIM, PROBLEM_DIM &gt; Pages: 1 -->
<svg width="395pt" height="1434pt"
 viewBox="0.00 0.00 395.00 1434.00" xmlns="http://www.w3.org/2000/svg" xmlns:xlink="http://www.w3.org/1999/xlink">
<g id="graph0" class="graph" transform="scale(1 1) rotate(0) translate(4 1430)">
<title>NaturalNeumannSurfaceTermAssembler&lt; ELEMENT_DIM, SPACE_DIM, PROBLEM_DIM &gt;</title>
<!-- Node1 -->
<g id="Node000001" class="node">
<title>Node1</title>
<g id="a_Node000001"><a xlink:title=" ">
<polygon fill="#999999" stroke="transparent" points="258,-282 92,-282 92,-170 258,-170 258,-282"/>
<text text-anchor="start" x="101" y="-270" font-family="Helvetica,sans-Serif" font-size="10.00">NaturalNeumannSurfaceTerm</text>
<text text-anchor="start" x="101" y="-259" font-family="Helvetica,sans-Serif" font-size="10.00">Assembler&lt; ELEMENT_DIM,</text>
<text text-anchor="start" x="101" y="-248" font-family="Helvetica,sans-Serif" font-size="10.00"> SPACE_DIM, PROBLEM_DIM &gt;</text>
<text text-anchor="start" x="96" y="-233" font-family="Helvetica,sans-Serif" font-size="10.00">#</text>
<text text-anchor="start" x="109" y="-233" font-family="Helvetica,sans-Serif" font-size="10.00">mScaleFactor</text>
<text text-anchor="start" x="96" y="-218" font-family="Helvetica,sans-Serif" font-size="10.00">+</text>
<text text-anchor="start" x="109" y="-218" font-family="Helvetica,sans-Serif" font-size="10.00">NaturalNeumannSurfaceTerm</text>
<text text-anchor="start" x="109" y="-207" font-family="Helvetica,sans-Serif" font-size="10.00">Assembler()</text>
<text text-anchor="start" x="96" y="-192" font-family="Helvetica,sans-Serif" font-size="10.00">+</text>
<text text-anchor="start" x="109" y="-192" font-family="Helvetica,sans-Serif" font-size="10.00">SetScaleFactor()</text>
<text text-anchor="start" x="96" y="-177" font-family="Helvetica,sans-Serif" font-size="10.00">#</text>
<text text-anchor="start" x="109" y="-177" font-family="Helvetica,sans-Serif" font-size="10.00">ComputeVectorSurfaceTerm()</text>
<polygon fill="#666666" stroke="#666666" points="92,-243 92,-243 258,-243 258,-243 92,-243"/>
<polygon fill="#666666" stroke="#666666" points="92,-228 92,-228 107,-228 107,-228 92,-228"/>
<polygon fill="#666666" stroke="#666666" points="107,-228 107,-228 258,-228 258,-228 107,-228"/>
<polygon fill="none" stroke="#666666" points="92,-170 92,-282 258,-282 258,-170 92,-170"/>
</a>
</g>
</g>
<!-- Node7 -->
<g id="Node000007" class="node">
<title>Node7</title>
<g id="a_Node000007"><a xlink:href="classNaturalNeumannSurfaceTermAssembler.html" target="_top" xlink:title=" ">
<polygon fill="white" stroke="transparent" points="166,-112 0,-112 0,0 166,0 166,-112"/>
<text text-anchor="start" x="10.5" y="-100" font-family="Helvetica,sans-Serif" font-size="10.00">NaturalNeumannSurfaceTerm</text>
<text text-anchor="start" x="10.5" y="-89" font-family="Helvetica,sans-Serif" font-size="10.00">Assembler&lt; ELEMENT_DIM,</text>
<text text-anchor="start" x="42" y="-78" font-family="Helvetica,sans-Serif" font-size="10.00"> SPACE_DIM, 2 &gt;</text>
<text text-anchor="start" x="4" y="-63" font-family="Helvetica,sans-Serif" font-size="10.00">#</text>
<text text-anchor="start" x="17" y="-63" font-family="Helvetica,sans-Serif" font-size="10.00">mScaleFactor</text>
<text text-anchor="start" x="4" y="-48" font-family="Helvetica,sans-Serif" font-size="10.00">+</text>
<text text-anchor="start" x="17" y="-48" font-family="Helvetica,sans-Serif" font-size="10.00">NaturalNeumannSurfaceTerm</text>
<text text-anchor="start" x="17" y="-37" font-family="Helvetica,sans-Serif" font-size="10.00">Assembler()</text>
<text text-anchor="start" x="4" y="-22" font-family="Helvetica,sans-Serif" font-size="10.00">+</text>
<text text-anchor="start" x="17" y="-22" font-family="Helvetica,sans-Serif" font-size="10.00">SetScaleFactor()</text>
<text text-anchor="start" x="4" y="-7" font-family="Helvetica,sans-Serif" font-size="10.00">#</text>
<text text-anchor="start" x="17" y="-7" font-family="Helvetica,sans-Serif" font-size="10.00">ComputeVectorSurfaceTerm()</text>
<polygon fill="#666666" stroke="#666666" points="0,-73 0,-73 166,-73 166,-73 0,-73"/>
<polygon fill="#666666" stroke="#666666" points="0,-58 0,-58 15,-58 15,-58 0,-58"/>
<polygon fill="#666666" stroke="#666666" points="15,-58 15,-58 166,-58 166,-58 15,-58"/>
<polygon fill="none" stroke="#666666" points="0,0 0,-112 166,-112 166,0 0,0"/>
</a>
</g>
</g>
<!-- Node1&#45;&gt;Node7 -->
<g id="edge7_Node000001_Node000007" class="edge">
<title>Node1&#45;&gt;Node7</title>
<g id="a_edge7_Node000001_Node000007"><a xlink:title=" ">
<path fill="none" stroke="orange" d="M128.31,-161.09C126.46,-158.05 124.68,-155.01 123,-152 116.03,-139.5 109.51,-125.53 103.83,-112.24"/>
<polygon fill="orange" stroke="orange" points="125.39,-163.02 133.68,-169.62 131.31,-159.29 125.39,-163.02"/>
</a>
</g>
<text text-anchor="start" x="123" y="-144" font-family="Helvetica,sans-Serif" font-size="10.00" fill="grey"> &lt; ELEMENT_DIM, SPACE</text>
<text text-anchor="middle" x="184" y="-133" font-family="Helvetica,sans-Serif" font-size="10.00" fill="grey">_DIM, 2 &gt;</text>
</g>
<!-- Node8 -->
<g id="Node000008" class="node">
<title>Node8</title>
<g id="a_Node000008"><a xlink:href="classNaturalNeumannSurfaceTermAssembler.html" target="_top" xlink:title=" ">
<polygon fill="white" stroke="transparent" points="350,-112 184,-112 184,0 350,0 350,-112"/>
<text text-anchor="start" x="194.5" y="-100" font-family="Helvetica,sans-Serif" font-size="10.00">NaturalNeumannSurfaceTerm</text>
<text text-anchor="start" x="194.5" y="-89" font-family="Helvetica,sans-Serif" font-size="10.00">Assembler&lt; ELEMENT_DIM,</text>
<text text-anchor="start" x="226" y="-78" font-family="Helvetica,sans-Serif" font-size="10.00"> SPACE_DIM, 1 &gt;</text>
<text text-anchor="start" x="188" y="-63" font-family="Helvetica,sans-Serif" font-size="10.00">#</text>
<text text-anchor="start" x="201" y="-63" font-family="Helvetica,sans-Serif" font-size="10.00">mScaleFactor</text>
<text text-anchor="start" x="188" y="-48" font-family="Helvetica,sans-Serif" font-size="10.00">+</text>
<text text-anchor="start" x="201" y="-48" font-family="Helvetica,sans-Serif" font-size="10.00">NaturalNeumannSurfaceTerm</text>
<text text-anchor="start" x="201" y="-37" font-family="Helvetica,sans-Serif" font-size="10.00">Assembler()</text>
<text text-anchor="start" x="188" y="-22" font-family="Helvetica,sans-Serif" font-size="10.00">+</text>
<text text-anchor="start" x="201" y="-22" font-family="Helvetica,sans-Serif" font-size="10.00">SetScaleFactor()</text>
<text text-anchor="start" x="188" y="-7" font-family="Helvetica,sans-Serif" font-size="10.00">#</text>
<text text-anchor="start" x="201" y="-7" font-family="Helvetica,sans-Serif" font-size="10.00">ComputeVectorSurfaceTerm()</text>
<polygon fill="#666666" stroke="#666666" points="184,-73 184,-73 350,-73 350,-73 184,-73"/>
<polygon fill="#666666" stroke="#666666" points="184,-58 184,-58 199,-58 199,-58 184,-58"/>
<polygon fill="#666666" stroke="#666666" points="199,-58 199,-58 350,-58 350,-58 199,-58"/>
<polygon fill="none" stroke="#666666" points="184,0 184,-112 350,-112 350,0 184,0"/>
</a>
</g>
</g>
<!-- Node1&#45;&gt;Node8 -->
<g id="edge8_Node000001_Node000008" class="edge">
<title>Node1&#45;&gt;Node8</title>
<g id="a_edge8_Node000001_Node000008"><a xlink:title=" ">
<path fill="none" stroke="orange" d="M239.15,-161.7C241.26,-158.52 243.22,-155.28 245,-152 251.61,-139.79 256.24,-125.66 259.48,-112.08"/>
<polygon fill="orange" stroke="orange" points="236.21,-159.8 233.27,-169.98 241.92,-163.86 236.21,-159.8"/>
</a>
</g>
<text text-anchor="start" x="254" y="-144" font-family="Helvetica,sans-Serif" font-size="10.00" fill="grey"> &lt; ELEMENT_DIM, SPACE</text>
<text text-anchor="middle" x="315" y="-133" font-family="Helvetica,sans-Serif" font-size="10.00" fill="grey">_DIM, 1 &gt;</text>
</g>
<!-- Node2 -->
<g id="Node000002" class="node">
<title>Node2</title>
<g id="a_Node000002"><a xlink:href="classAbstractFeSurfaceIntegralAssembler.html" target="_top" xlink:title=" ">
<polygon fill="white" stroke="transparent" points="276,-517 74,-517 74,-319 276,-319 276,-517"/>
<text text-anchor="start" x="101" y="-505" font-family="Helvetica,sans-Serif" font-size="10.00">AbstractFeSurfaceIntegral</text>
<text text-anchor="start" x="101" y="-494" font-family="Helvetica,sans-Serif" font-size="10.00">Assembler&lt; ELEMENT_DIM,</text>
<text text-anchor="start" x="101" y="-483" font-family="Helvetica,sans-Serif" font-size="10.00"> SPACE_DIM, PROBLEM_DIM &gt;</text>
<text text-anchor="start" x="78" y="-468" font-family="Helvetica,sans-Serif" font-size="10.00">#</text>
<text text-anchor="start" x="91" y="-468" font-family="Helvetica,sans-Serif" font-size="10.00">mpMesh</text>
<text text-anchor="start" x="78" y="-453" font-family="Helvetica,sans-Serif" font-size="10.00">#</text>
<text text-anchor="start" x="91" y="-453" font-family="Helvetica,sans-Serif" font-size="10.00">mpBoundaryConditions</text>
<text text-anchor="start" x="78" y="-438" font-family="Helvetica,sans-Serif" font-size="10.00">#</text>
<text text-anchor="start" x="91" y="-438" font-family="Helvetica,sans-Serif" font-size="10.00">mpSurfaceQuadRule</text>
<text text-anchor="start" x="78" y="-423" font-family="Helvetica,sans-Serif" font-size="10.00">+</text>
<text text-anchor="start" x="91" y="-423" font-family="Helvetica,sans-Serif" font-size="10.00">AbstractFeSurfaceIntegral</text>
<text text-anchor="start" x="91" y="-412" font-family="Helvetica,sans-Serif" font-size="10.00">Assembler()</text>
<text text-anchor="start" x="78" y="-397" font-family="Helvetica,sans-Serif" font-size="10.00">+</text>
<text text-anchor="start" x="91" y="-397" font-family="Helvetica,sans-Serif" font-size="10.00">~AbstractFeSurfaceIntegral</text>
<text text-anchor="start" x="91" y="-386" font-family="Helvetica,sans-Serif" font-size="10.00">Assembler()</text>
<text text-anchor="start" x="78" y="-371" font-family="Helvetica,sans-Serif" font-size="10.00">+</text>
<text text-anchor="start" x="91" y="-371" font-family="Helvetica,sans-Serif" font-size="10.00">ResetBoundaryConditionsContainer()</text>
<text text-anchor="start" x="78" y="-356" font-family="Helvetica,sans-Serif" font-size="10.00">#</text>
<text text-anchor="start" x="91" y="-356" font-family="Helvetica,sans-Serif" font-size="10.00">ComputeVectorSurfaceTerm()</text>
<text text-anchor="start" x="78" y="-341" font-family="Helvetica,sans-Serif" font-size="10.00">#</text>
<text text-anchor="start" x="91" y="-341" font-family="Helvetica,sans-Serif" font-size="10.00">AssembleOnSurfaceElement()</text>
<text text-anchor="start" x="78" y="-326" font-family="Helvetica,sans-Serif" font-size="10.00">#</text>
<text text-anchor="start" x="91" y="-326" font-family="Helvetica,sans-Serif" font-size="10.00">DoAssemble()</text>
<polygon fill="#666666" stroke="#666666" points="74,-478 74,-478 276,-478 276,-478 74,-478"/>
<polygon fill="#666666" stroke="#666666" points="74,-433 74,-433 89,-433 89,-433 74,-433"/>
<polygon fill="#666666" stroke="#666666" points="89,-433 89,-433 276,-433 276,-433 89,-433"/>
<polygon fill="none" stroke="#666666" points="74,-319 74,-517 276,-517 276,-319 74,-319"/>
</a>
</g>
</g>
<!-- Node2&#45;&gt;Node1 -->
<g id="edge1_Node000001_Node000002" class="edge">
<title>Node2&#45;&gt;Node1</title>
<g id="a_edge1_Node000001_Node000002"><a xlink:title=" ">
<path fill="none" stroke="#63b8ff" d="M175,-308.7C175,-299.68 175,-290.82 175,-282.46"/>
<polygon fill="none" stroke="#63b8ff" points="171.5,-308.94 175,-318.94 178.5,-308.94 171.5,-308.94"/>
</a>
</g>
</g>
<!-- Node3 -->
<g id="Node000003" class="node">
<title>Node3</title>
<g id="a_Node000003"><a xlink:href="classAbstractFeAssemblerCommon.html" target="_top" xlink:title=" ">
<polygon fill="white" stroke="transparent" points="275,-748 75,-748 75,-554 275,-554 275,-748"/>
<text text-anchor="start" x="101" y="-736" font-family="Helvetica,sans-Serif" font-size="10.00">AbstractFeAssemblerCommon</text>
<text text-anchor="start" x="101" y="-725" font-family="Helvetica,sans-Serif" font-size="10.00">&lt; ELEMENT_DIM, SPACE_DIM,</text>
<text text-anchor="start" x="101" y="-714" font-family="Helvetica,sans-Serif" font-size="10.00"> PROBLEM_DIM, true, false,</text>
<text text-anchor="start" x="146" y="-703" font-family="Helvetica,sans-Serif" font-size="10.00"> NORMAL &gt;</text>
<text text-anchor="start" x="79" y="-688" font-family="Helvetica,sans-Serif" font-size="10.00">#</text>
<text text-anchor="start" x="92" y="-688" font-family="Helvetica,sans-Serif" font-size="10.00">mCurrentSolutionOrGuessReplicated</text>
<text text-anchor="start" x="79" y="-673" font-family="Helvetica,sans-Serif" font-size="10.00">+</text>
<text text-anchor="start" x="92" y="-673" font-family="Helvetica,sans-Serif" font-size="10.00">AbstractFeAssemblerCommon()</text>
<text text-anchor="start" x="79" y="-658" font-family="Helvetica,sans-Serif" font-size="10.00">+</text>
<text text-anchor="start" x="92" y="-658" font-family="Helvetica,sans-Serif" font-size="10.00">SetCurrentSolution()</text>
<text text-anchor="start" x="79" y="-643" font-family="Helvetica,sans-Serif" font-size="10.00">+</text>
<text text-anchor="start" x="92" y="-643" font-family="Helvetica,sans-Serif" font-size="10.00">~AbstractFeAssemblerCommon()</text>
<text text-anchor="start" x="79" y="-628" font-family="Helvetica,sans-Serif" font-size="10.00">#</text>
<text text-anchor="start" x="92" y="-628" font-family="Helvetica,sans-Serif" font-size="10.00">GetCurrentSolutionOrGuess</text>
<text text-anchor="start" x="92" y="-617" font-family="Helvetica,sans-Serif" font-size="10.00">Value()</text>
<text text-anchor="start" x="79" y="-602" font-family="Helvetica,sans-Serif" font-size="10.00">#</text>
<text text-anchor="start" x="92" y="-602" font-family="Helvetica,sans-Serif" font-size="10.00">ResetInterpolatedQuantities()</text>
<text text-anchor="start" x="79" y="-587" font-family="Helvetica,sans-Serif" font-size="10.00">#</text>
<text text-anchor="start" x="92" y="-587" font-family="Helvetica,sans-Serif" font-size="10.00">IncrementInterpolatedQuantities()</text>
<text text-anchor="start" x="79" y="-572" font-family="Helvetica,sans-Serif" font-size="10.00">#</text>
<text text-anchor="start" x="92" y="-572" font-family="Helvetica,sans-Serif" font-size="10.00">IncrementInterpolatedGradient</text>
<text text-anchor="start" x="92" y="-561" font-family="Helvetica,sans-Serif" font-size="10.00">Quantities()</text>
<polygon fill="#666666" stroke="#666666" points="75,-698 75,-698 275,-698 275,-698 75,-698"/>
<polygon fill="#666666" stroke="#666666" points="75,-683 75,-683 90,-683 90,-683 75,-683"/>
<polygon fill="#666666" stroke="#666666" points="90,-683 90,-683 275,-683 275,-683 90,-683"/>
<polygon fill="none" stroke="#666666" points="75,-554 75,-748 275,-748 275,-554 75,-554"/>
</a>
</g>
</g>
<!-- Node3&#45;&gt;Node2 -->
<g id="edge2_Node000002_Node000003" class="edge">
<title>Node3&#45;&gt;Node2</title>
<g id="a_edge2_Node000002_Node000003"><a xlink:title=" ">
<path fill="none" stroke="#63b8ff" d="M175,-543.52C175,-534.8 175,-526.02 175,-517.37"/>
<polygon fill="none" stroke="#63b8ff" points="171.5,-543.71 175,-553.71 178.5,-543.71 171.5,-543.71"/>
</a>
</g>
</g>
<!-- Node4 -->
<g id="Node000004" class="node">
<title>Node4</title>
<g id="a_Node000004"><a xlink:href="classAbstractFeAssemblerInterface.html" target="_top" xlink:title=" ">
<polygon fill="white" stroke="transparent" points="263,-1340 79,-1340 79,-1059 263,-1059 263,-1340"/>
<text text-anchor="start" x="90" y="-1327.5" font-family="Helvetica,sans-Serif" font-size="10.00">AbstractFeAssemblerInterface</text>
<text text-anchor="start" x="90" y="-1316.5" font-family="Helvetica,sans-Serif" font-size="10.00">&lt; CAN_ASSEMBLE_VECTOR, CAN</text>
<text text-anchor="start" x="115" y="-1305.5" font-family="Helvetica,sans-Serif" font-size="10.00">_ASSEMBLE_MATRIX &gt;</text>
<text text-anchor="start" x="83" y="-1290.5" font-family="Helvetica,sans-Serif" font-size="10.00">#</text>
<text text-anchor="start" x="96" y="-1290.5" font-family="Helvetica,sans-Serif" font-size="10.00">mVectorToAssemble</text>
<text text-anchor="start" x="83" y="-1275.5" font-family="Helvetica,sans-Serif" font-size="10.00">#</text>
<text text-anchor="start" x="96" y="-1275.5" font-family="Helvetica,sans-Serif" font-size="10.00">mMatrixToAssemble</text>
<text text-anchor="start" x="83" y="-1260.5" font-family="Helvetica,sans-Serif" font-size="10.00">#</text>
<text text-anchor="start" x="96" y="-1260.5" font-family="Helvetica,sans-Serif" font-size="10.00">mAssembleMatrix</text>
<text text-anchor="start" x="83" y="-1245.5" font-family="Helvetica,sans-Serif" font-size="10.00">#</text>
<text text-anchor="start" x="96" y="-1245.5" font-family="Helvetica,sans-Serif" font-size="10.00">mAssembleVector</text>
<text text-anchor="start" x="83" y="-1230.5" font-family="Helvetica,sans-Serif" font-size="10.00">#</text>
<text text-anchor="start" x="96" y="-1230.5" font-family="Helvetica,sans-Serif" font-size="10.00">mZeroMatrixBeforeAssembly</text>
<text text-anchor="start" x="83" y="-1215.5" font-family="Helvetica,sans-Serif" font-size="10.00">#</text>
<text text-anchor="start" x="96" y="-1215.5" font-family="Helvetica,sans-Serif" font-size="10.00">mZeroVectorBeforeAssembly</text>
<text text-anchor="start" x="83" y="-1200.5" font-family="Helvetica,sans-Serif" font-size="10.00">#</text>
<text text-anchor="start" x="96" y="-1200.5" font-family="Helvetica,sans-Serif" font-size="10.00">mOwnershipRangeLo</text>
<text text-anchor="start" x="83" y="-1185.5" font-family="Helvetica,sans-Serif" font-size="10.00">#</text>
<text text-anchor="start" x="96" y="-1185.5" font-family="Helvetica,sans-Serif" font-size="10.00">mOwnershipRangeHi</text>
<text text-anchor="start" x="83" y="-1170.5" font-family="Helvetica,sans-Serif" font-size="10.00">+</text>
<text text-anchor="start" x="96" y="-1170.5" font-family="Helvetica,sans-Serif" font-size="10.00">AbstractFeAssemblerInterface()</text>
<text text-anchor="start" x="83" y="-1155.5" font-family="Helvetica,sans-Serif" font-size="10.00">+</text>
<text text-anchor="start" x="96" y="-1155.5" font-family="Helvetica,sans-Serif" font-size="10.00">SetMatrixToAssemble()</text>
<text text-anchor="start" x="83" y="-1140.5" font-family="Helvetica,sans-Serif" font-size="10.00">+</text>
<text text-anchor="start" x="96" y="-1140.5" font-family="Helvetica,sans-Serif" font-size="10.00">SetVectorToAssemble()</text>
<text text-anchor="start" x="83" y="-1125.5" font-family="Helvetica,sans-Serif" font-size="10.00">+</text>
<text text-anchor="start" x="96" y="-1125.5" font-family="Helvetica,sans-Serif" font-size="10.00">Assemble()</text>
<text text-anchor="start" x="83" y="-1110.5" font-family="Helvetica,sans-Serif" font-size="10.00">+</text>
<text text-anchor="start" x="96" y="-1110.5" font-family="Helvetica,sans-Serif" font-size="10.00">AssembleMatrix()</text>
<text text-anchor="start" x="83" y="-1095.5" font-family="Helvetica,sans-Serif" font-size="10.00">+</text>
<text text-anchor="start" x="96" y="-1095.5" font-family="Helvetica,sans-Serif" font-size="10.00">AssembleVector()</text>
<text text-anchor="start" x="83" y="-1080.5" font-family="Helvetica,sans-Serif" font-size="10.00">+</text>
<text text-anchor="start" x="96" y="-1080.5" font-family="Helvetica,sans-Serif" font-size="10.00">~AbstractFeAssemblerInterface()</text>
<text text-anchor="start" x="83" y="-1065.5" font-family="Helvetica,sans-Serif" font-size="10.00">#</text>
<text text-anchor="start" x="96" y="-1065.5" font-family="Helvetica,sans-Serif" font-size="10.00">DoAssemble()</text>
<polygon fill="#666666" stroke="#666666" points="79,-1300.5 79,-1300.5 263,-1300.5 263,-1300.5 79,-1300.5"/>
<polygon fill="#666666" stroke="#666666" points="79,-1180.5 79,-1180.5 94,-1180.5 94,-1180.5 79,-1180.5"/>
<polygon fill="#666666" stroke="#666666" points="94,-1180.5 94,-1180.5 263,-1180.5 263,-1180.5 94,-1180.5"/>
<polygon fill="none" stroke="#666666" points="79,-1059 79,-1340 263,-1340 263,-1059 79,-1059"/>
</a>
</g>
</g>
<!-- Node4&#45;&gt;Node3 -->
<g id="edge3_Node000003_Node000004" class="edge">
<title>Node4&#45;&gt;Node3</title>
<g id="a_edge3_Node000003_Node000004"><a xlink:title=" ">
<path fill="none" stroke="#63b8ff" d="M172.1,-1048.75C172.8,-952.94 173.69,-831.46 174.3,-748.32"/>
<polygon fill="none" stroke="#63b8ff" points="168.6,-1048.8 172.02,-1058.83 175.6,-1048.85 168.6,-1048.8"/>
</a>
</g>
</g>
<!-- Node6 -->
<g id="Node000006" class="node">
<title>Node6</title>
<g id="a_Node000006"><a xlink:href="classAbstractFeAssemblerCommon.html" target="_top" xlink:title=" ">
<polygon fill="white" stroke="transparent" points="387,-1022 187,-1022 187,-817 387,-817 387,-1022"/>
<text text-anchor="start" x="199.5" y="-1009.5" font-family="Helvetica,sans-Serif" font-size="10.00">AbstractFeAssemblerCommon</text>
<text text-anchor="start" x="199.5" y="-998.5" font-family="Helvetica,sans-Serif" font-size="10.00">&lt; ELEMENT_DIM, SPACE_DIM,</text>
<text text-anchor="start" x="199.5" y="-987.5" font-family="Helvetica,sans-Serif" font-size="10.00"> PROBLEM_DIM, CAN_ASSEMBLE</text>
<text text-anchor="start" x="199.5" y="-976.5" font-family="Helvetica,sans-Serif" font-size="10.00">_VECTOR, CAN_ASSEMBLE_MATRIX,</text>
<text text-anchor="start" x="223" y="-965.5" font-family="Helvetica,sans-Serif" font-size="10.00"> INTERPOLATION_LEVEL &gt;</text>
<text text-anchor="start" x="191" y="-950.5" font-family="Helvetica,sans-Serif" font-size="10.00">#</text>
<text text-anchor="start" x="204" y="-950.5" font-family="Helvetica,sans-Serif" font-size="10.00">mCurrentSolutionOrGuessReplicated</text>
<text text-anchor="start" x="191" y="-935.5" font-family="Helvetica,sans-Serif" font-size="10.00">+</text>
<text text-anchor="start" x="204" y="-935.5" font-family="Helvetica,sans-Serif" font-size="10.00">AbstractFeAssemblerCommon()</text>
<text text-anchor="start" x="191" y="-920.5" font-family="Helvetica,sans-Serif" font-size="10.00">+</text>
<text text-anchor="start" x="204" y="-920.5" font-family="Helvetica,sans-Serif" font-size="10.00">SetCurrentSolution()</text>
<text text-anchor="start" x="191" y="-905.5" font-family="Helvetica,sans-Serif" font-size="10.00">+</text>
<text text-anchor="start" x="204" y="-905.5" font-family="Helvetica,sans-Serif" font-size="10.00">~AbstractFeAssemblerCommon()</text>
<text text-anchor="start" x="191" y="-890.5" font-family="Helvetica,sans-Serif" font-size="10.00">#</text>
<text text-anchor="start" x="204" y="-890.5" font-family="Helvetica,sans-Serif" font-size="10.00">GetCurrentSolutionOrGuess</text>
<text text-anchor="start" x="204" y="-879.5" font-family="Helvetica,sans-Serif" font-size="10.00">Value()</text>
<text text-anchor="start" x="191" y="-864.5" font-family="Helvetica,sans-Serif" font-size="10.00">#</text>
<text text-anchor="start" x="204" y="-864.5" font-family="Helvetica,sans-Serif" font-size="10.00">ResetInterpolatedQuantities()</text>
<text text-anchor="start" x="191" y="-849.5" font-family="Helvetica,sans-Serif" font-size="10.00">#</text>
<text text-anchor="start" x="204" y="-849.5" font-family="Helvetica,sans-Serif" font-size="10.00">IncrementInterpolatedQuantities()</text>
<text text-anchor="start" x="191" y="-834.5" font-family="Helvetica,sans-Serif" font-size="10.00">#</text>
<text text-anchor="start" x="204" y="-834.5" font-family="Helvetica,sans-Serif" font-size="10.00">IncrementInterpolatedGradient</text>
<text text-anchor="start" x="204" y="-823.5" font-family="Helvetica,sans-Serif" font-size="10.00">Quantities()</text>
<polygon fill="#666666" stroke="#666666" points="187,-960.5 187,-960.5 387,-960.5 387,-960.5 187,-960.5"/>
<polygon fill="#666666" stroke="#666666" points="187,-945.5 187,-945.5 202,-945.5 202,-945.5 187,-945.5"/>
<polygon fill="#666666" stroke="#666666" points="202,-945.5 202,-945.5 387,-945.5 387,-945.5 202,-945.5"/>
<polygon fill="none" stroke="#666666" points="187,-817 187,-1022 387,-1022 387,-817 187,-817"/>
</a>
</g>
</g>
<!-- Node4&#45;&gt;Node6 -->
<g id="edge6_Node000006_Node000004" class="edge">
<title>Node4&#45;&gt;Node6</title>
<g id="a_edge6_Node000006_Node000004"><a xlink:title=" ">
<path fill="none" stroke="#63b8ff" d="M233.31,-1049.18C237.11,-1040.07 240.88,-1031.02 244.57,-1022.18"/>
<polygon fill="none" stroke="#63b8ff" points="229.96,-1048.11 229.34,-1058.69 236.42,-1050.8 229.96,-1048.11"/>
</a>
</g>
</g>
<!-- Node5 -->
<g id="Node000005" class="node">
<title>Node5</title>
<g id="a_Node000005"><a xlink:title=" ">
<polygon fill="white" stroke="transparent" points="224,-1426 118,-1426 118,-1377 224,-1377 224,-1426"/>
<text text-anchor="start" x="123" y="-1413.5" font-family="Helvetica,sans-Serif" font-size="10.00">boost::noncopyable</text>
<text text-anchor="start" x="169" y="-1398.5" font-family="Helvetica,sans-Serif" font-size="10.00"> </text>
<text text-anchor="start" x="169" y="-1383.5" font-family="Helvetica,sans-Serif" font-size="10.00"> </text>
<polygon fill="#bfbfbf" stroke="#bfbfbf" points="118,-1408.5 118,-1408.5 224,-1408.5 224,-1408.5 118,-1408.5"/>
<polygon fill="#bfbfbf" stroke="#bfbfbf" points="118,-1393.5 118,-1393.5 224,-1393.5 224,-1393.5 118,-1393.5"/>
<polygon fill="none" stroke="#bfbfbf" points="118,-1377 118,-1426 224,-1426 224,-1377 118,-1377"/>
</a>
</g>
</g>
<!-- Node5&#45;&gt;Node4 -->
<g id="edge4_Node000004_Node000005" class="edge">
<title>Node5&#45;&gt;Node4</title>
<g id="a_edge4_Node000004_Node000005"><a xlink:title=" ">
<path fill="none" stroke="#8b1a1a" d="M171,-1366.66C171,-1358.77 171,-1349.87 171,-1340.41"/>
<polygon fill="none" stroke="#8b1a1a" points="167.5,-1366.77 171,-1376.77 174.5,-1366.77 167.5,-1366.77"/>
</a>
</g>
</g>
<!-- Node6&#45;&gt;Node3 -->
<g id="edge5_Node000003_Node000006" class="edge">
<title>Node6&#45;&gt;Node3</title>
<g id="a_edge5_Node000003_Node000006"><a xlink:title=" ">
<path fill="none" stroke="orange" d="M240.43,-807.69C232.16,-788.01 223.6,-767.65 215.51,-748.4"/>
<polygon fill="orange" stroke="orange" points="237.24,-809.12 244.34,-816.99 243.69,-806.41 237.24,-809.12"/>
</a>
</g>
<text text-anchor="start" x="234" y="-791" font-family="Helvetica,sans-Serif" font-size="10.00" fill="grey"> &lt; ELEMENT_DIM, SPACE</text>
<text text-anchor="start" x="234" y="-780" font-family="Helvetica,sans-Serif" font-size="10.00" fill="grey">_DIM, PROBLEM_DIM, true,</text>
<text text-anchor="middle" x="300" y="-769" font-family="Helvetica,sans-Serif" font-size="10.00" fill="grey"> false, NORMAL &gt;</text>
</g>
</g>
</svg>
