<?xml version="1.0" encoding="UTF-8" standalone="no"?>
<!DOCTYPE svg PUBLIC "-//W3C//DTD SVG 1.1//EN"
 "http://www.w3.org/Graphics/SVG/1.1/DTD/svg11.dtd">
<!-- Generated by graphviz version 2.43.0 (0)
 -->
<!-- Title: ChastePoint&lt; DIM &gt; Pages: 1 -->
<svg width="160pt" height="384pt"
 viewBox="0.00 0.00 159.50 384.00" xmlns="http://www.w3.org/2000/svg" xmlns:xlink="http://www.w3.org/1999/xlink">
<g id="graph0" class="graph" transform="scale(1 1) rotate(0) translate(4 380)">
<title>ChastePoint&lt; DIM &gt;</title>
<!-- Node1 -->
<g id="Node000001" class="node">
<title>Node1</title>
<g id="a_Node000001"><a xlink:title=" ">
<polygon fill="#999999" stroke="transparent" points="122,-184 11,-184 11,0 122,0 122,-184"/>
<text text-anchor="start" x="16.5" y="-172" font-family="Helvetica,sans-Serif" font-size="10.00">ChastePoint&lt; DIM &gt;</text>
<text text-anchor="start" x="65" y="-157" font-family="Helvetica,sans-Serif" font-size="10.00"> </text>
<text text-anchor="start" x="17" y="-142" font-family="Helvetica,sans-Serif" font-size="10.00">+</text>
<text text-anchor="start" x="31.5" y="-142" font-family="Helvetica,sans-Serif" font-size="10.00">ChastePoint()</text>
<text text-anchor="start" x="17" y="-127" font-family="Helvetica,sans-Serif" font-size="10.00">+</text>
<text text-anchor="start" x="31.5" y="-127" font-family="Helvetica,sans-Serif" font-size="10.00">ChastePoint()</text>
<text text-anchor="start" x="17" y="-112" font-family="Helvetica,sans-Serif" font-size="10.00">+</text>
<text text-anchor="start" x="31.5" y="-112" font-family="Helvetica,sans-Serif" font-size="10.00">ChastePoint()</text>
<text text-anchor="start" x="17" y="-97" font-family="Helvetica,sans-Serif" font-size="10.00">+</text>
<text text-anchor="start" x="31.5" y="-97" font-family="Helvetica,sans-Serif" font-size="10.00">rGetLocation()</text>
<text text-anchor="start" x="17" y="-82" font-family="Helvetica,sans-Serif" font-size="10.00">+</text>
<text text-anchor="start" x="31.5" y="-82" font-family="Helvetica,sans-Serif" font-size="10.00">rGetLocation()</text>
<text text-anchor="start" x="17" y="-67" font-family="Helvetica,sans-Serif" font-size="10.00">+</text>
<text text-anchor="start" x="31.5" y="-67" font-family="Helvetica,sans-Serif" font-size="10.00">operator[]()</text>
<text text-anchor="start" x="17" y="-52" font-family="Helvetica,sans-Serif" font-size="10.00">+</text>
<text text-anchor="start" x="31.5" y="-52" font-family="Helvetica,sans-Serif" font-size="10.00">GetWithDefault()</text>
<text text-anchor="start" x="17" y="-37" font-family="Helvetica,sans-Serif" font-size="10.00">+</text>
<text text-anchor="start" x="31.5" y="-37" font-family="Helvetica,sans-Serif" font-size="10.00">SetCoordinate()</text>
<text text-anchor="start" x="17" y="-22" font-family="Helvetica,sans-Serif" font-size="10.00">+</text>
<text text-anchor="start" x="31.5" y="-22" font-family="Helvetica,sans-Serif" font-size="10.00">IsSamePoint()</text>
<text text-anchor="start" x="19.5" y="-7" font-family="Helvetica,sans-Serif" font-size="10.00">&#45;</text>
<text text-anchor="start" x="31.5" y="-7" font-family="Helvetica,sans-Serif" font-size="10.00">serialize()</text>
<polygon fill="#666666" stroke="#666666" points="11.5,-167 11.5,-167 122.5,-167 122.5,-167 11.5,-167"/>
<polygon fill="#666666" stroke="#666666" points="11.5,-152 11.5,-152 122.5,-152 122.5,-152 11.5,-152"/>
<polygon fill="none" stroke="#666666" points="11,0 11,-184 122,-184 122,0 11,0"/>
</a>
</g>
</g>
<!-- Node2 -->
<g id="Node000002" class="node">
<title>Node2</title>
<g id="a_Node000002"><a xlink:title=" ">
<polygon fill="white" stroke="transparent" points="133,-280 0,-280 0,-231 133,-231 133,-280"/>
<text text-anchor="start" x="5.5" y="-267.5" font-family="Helvetica,sans-Serif" font-size="10.00">c_vector&lt; double, DIM &gt;</text>
<text text-anchor="start" x="65" y="-252.5" font-family="Helvetica,sans-Serif" font-size="10.00"> </text>
<text text-anchor="start" x="65" y="-237.5" font-family="Helvetica,sans-Serif" font-size="10.00"> </text>
<polygon fill="#bfbfbf" stroke="#bfbfbf" points="0.5,-262.5 0.5,-262.5 133.5,-262.5 133.5,-262.5 0.5,-262.5"/>
<polygon fill="#bfbfbf" stroke="#bfbfbf" points="0.5,-247.5 0.5,-247.5 133.5,-247.5 133.5,-247.5 0.5,-247.5"/>
<polygon fill="none" stroke="#bfbfbf" points="0,-231 0,-280 133,-280 133,-231 0,-231"/>
</a>
</g>
</g>
<!-- Node2&#45;&gt;Node1 -->
<g id="edge1_Node000001_Node000002" class="edge">
<title>Node2&#45;&gt;Node1</title>
<g id="a_edge1_Node000001_Node000002"><a xlink:title=" ">
<path fill="none" stroke="#63b8ff" d="M66.5,-230.67C66.5,-221.03 66.5,-209.18 66.5,-196.53"/>
<polygon fill="none" stroke="#63b8ff" points="66.5,-196.19 62.5,-190.19 66.5,-184.19 70.5,-190.19 66.5,-196.19"/>
</a>
</g>
<text text-anchor="middle" x="95.5" y="-205" font-family="Helvetica,sans-Serif" font-size="10.00" fill="grey"> &#45;mLocation</text>
</g>
<!-- Node3 -->
<g id="Node000003" class="node">
<title>Node3</title>
<g id="a_Node000003"><a xlink:title=" ">
<polygon fill="white" stroke="transparent" points="92.5,-376 40.5,-376 40.5,-327 92.5,-327 92.5,-376"/>
<text text-anchor="start" x="45.5" y="-363.5" font-family="Helvetica,sans-Serif" font-size="10.00">c_vector</text>
<text text-anchor="start" x="64.5" y="-348.5" font-family="Helvetica,sans-Serif" font-size="10.00"> </text>
<text text-anchor="start" x="64.5" y="-333.5" font-family="Helvetica,sans-Serif" font-size="10.00"> </text>
<polygon fill="#bfbfbf" stroke="#bfbfbf" points="40.5,-358.5 40.5,-358.5 92.5,-358.5 92.5,-358.5 40.5,-358.5"/>
<polygon fill="#bfbfbf" stroke="#bfbfbf" points="40.5,-343.5 40.5,-343.5 92.5,-343.5 92.5,-343.5 40.5,-343.5"/>
<polygon fill="none" stroke="#bfbfbf" points="40.5,-327 40.5,-376 92.5,-376 92.5,-327 40.5,-327"/>
</a>
</g>
</g>
<!-- Node3&#45;&gt;Node2 -->
<g id="edge2_Node000002_Node000003" class="edge">
<title>Node3&#45;&gt;Node2</title>
<g id="a_edge2_Node000002_Node000003"><a xlink:title=" ">
<path fill="none" stroke="orange" d="M66.5,-316.6C66.5,-304.54 66.5,-291.23 66.5,-280.21"/>
<polygon fill="orange" stroke="orange" points="63,-316.78 66.5,-326.78 70,-316.78 63,-316.78"/>
</a>
</g>
<text text-anchor="middle" x="109" y="-301" font-family="Helvetica,sans-Serif" font-size="10.00" fill="grey"> &lt; double, DIM &gt;</text>
</g>
</g>
</svg>
