<?xml version="1.0" encoding="UTF-8" standalone="no"?>
<!DOCTYPE svg PUBLIC "-//W3C//DTD SVG 1.1//EN"
 "http://www.w3.org/Graphics/SVG/1.1/DTD/svg11.dtd">
<!-- Generated by graphviz version 2.43.0 (0)
 -->
<!-- Title: NodeAttributes&lt; SPACE_DIM &gt; Pages: 1 -->
<svg width="675pt" height="543pt"
 viewBox="0.00 0.00 674.95 543.00" xmlns="http://www.w3.org/2000/svg" xmlns:xlink="http://www.w3.org/1999/xlink">
<g id="graph0" class="graph" transform="scale(1 1) rotate(0) translate(4 539)">
<title>NodeAttributes&lt; SPACE_DIM &gt;</title>
<!-- Node1 -->
<g id="Node000001" class="node">
<title>Node1</title>
<g id="a_Node000001"><a xlink:title=" ">
<polygon fill="#999999" stroke="transparent" points="399.45,-225 228.45,-225 228.45,0 399.45,0 399.45,-225"/>
<text text-anchor="start" x="256.45" y="-212.5" font-family="Helvetica,sans-Serif" font-size="10.00">NodeAttributes&lt; SPACE</text>
<text text-anchor="start" x="295.95" y="-201.5" font-family="Helvetica,sans-Serif" font-size="10.00">_DIM &gt;</text>
<text text-anchor="start" x="312.45" y="-186.5" font-family="Helvetica,sans-Serif" font-size="10.00"> </text>
<text text-anchor="start" x="232.95" y="-171.5" font-family="Helvetica,sans-Serif" font-size="10.00">+</text>
<text text-anchor="start" x="245.95" y="-171.5" font-family="Helvetica,sans-Serif" font-size="10.00">NodeAttributes()</text>
<text text-anchor="start" x="232.95" y="-156.5" font-family="Helvetica,sans-Serif" font-size="10.00">+</text>
<text text-anchor="start" x="245.95" y="-156.5" font-family="Helvetica,sans-Serif" font-size="10.00">rGetAttributes()</text>
<text text-anchor="start" x="232.95" y="-141.5" font-family="Helvetica,sans-Serif" font-size="10.00">+</text>
<text text-anchor="start" x="245.95" y="-141.5" font-family="Helvetica,sans-Serif" font-size="10.00">AddAttribute()</text>
<text text-anchor="start" x="232.95" y="-126.5" font-family="Helvetica,sans-Serif" font-size="10.00">+</text>
<text text-anchor="start" x="245.95" y="-126.5" font-family="Helvetica,sans-Serif" font-size="10.00">GetRegion()</text>
<text text-anchor="start" x="232.95" y="-111.5" font-family="Helvetica,sans-Serif" font-size="10.00">+</text>
<text text-anchor="start" x="245.95" y="-111.5" font-family="Helvetica,sans-Serif" font-size="10.00">SetRegion()</text>
<text text-anchor="start" x="232.95" y="-96.5" font-family="Helvetica,sans-Serif" font-size="10.00">+</text>
<text text-anchor="start" x="245.95" y="-96.5" font-family="Helvetica,sans-Serif" font-size="10.00">rGetAppliedForce()</text>
<text text-anchor="start" x="232.95" y="-81.5" font-family="Helvetica,sans-Serif" font-size="10.00">+</text>
<text text-anchor="start" x="245.95" y="-81.5" font-family="Helvetica,sans-Serif" font-size="10.00">AddAppliedForceContribution()</text>
<text text-anchor="start" x="232.95" y="-66.5" font-family="Helvetica,sans-Serif" font-size="10.00">+</text>
<text text-anchor="start" x="245.95" y="-66.5" font-family="Helvetica,sans-Serif" font-size="10.00">ClearAppliedForce()</text>
<text text-anchor="start" x="232.95" y="-51.5" font-family="Helvetica,sans-Serif" font-size="10.00">+</text>
<text text-anchor="start" x="245.95" y="-51.5" font-family="Helvetica,sans-Serif" font-size="10.00">AddNeighbour()</text>
<text text-anchor="start" x="232.95" y="-36.5" font-family="Helvetica,sans-Serif" font-size="10.00">+</text>
<text text-anchor="start" x="245.95" y="-36.5" font-family="Helvetica,sans-Serif" font-size="10.00">ClearNeighbours()</text>
<text text-anchor="start" x="245.95" y="-21.5" font-family="Helvetica,sans-Serif" font-size="10.00">and 9 more...</text>
<text text-anchor="start" x="235.45" y="-6.5" font-family="Helvetica,sans-Serif" font-size="10.00">&#45;</text>
<text text-anchor="start" x="245.95" y="-6.5" font-family="Helvetica,sans-Serif" font-size="10.00">serialize()</text>
<polygon fill="#666666" stroke="#666666" points="228.95,-196.5 228.95,-196.5 399.95,-196.5 399.95,-196.5 228.95,-196.5"/>
<polygon fill="#666666" stroke="#666666" points="228.95,-181.5 228.95,-181.5 399.95,-181.5 399.95,-181.5 228.95,-181.5"/>
<polygon fill="none" stroke="#666666" points="228.45,0 228.45,-225 399.45,-225 399.45,0 228.45,0"/>
</a>
</g>
</g>
<!-- Node2 -->
<g id="Node000002" class="node">
<title>Node2</title>
<g id="a_Node000002"><a xlink:title=" ">
<polygon fill="white" stroke="transparent" points="186.95,-337.5 68.95,-337.5 68.95,-288.5 186.95,-288.5 186.95,-337.5"/>
<text text-anchor="start" x="73.95" y="-325" font-family="Helvetica,sans-Serif" font-size="10.00">std::vector&lt; double &gt;</text>
<text text-anchor="start" x="125.95" y="-310" font-family="Helvetica,sans-Serif" font-size="10.00"> </text>
<text text-anchor="start" x="125.95" y="-295" font-family="Helvetica,sans-Serif" font-size="10.00"> </text>
<polygon fill="#666666" stroke="#666666" points="68.95,-320 68.95,-320 186.95,-320 186.95,-320 68.95,-320"/>
<polygon fill="#666666" stroke="#666666" points="68.95,-305 68.95,-305 186.95,-305 186.95,-305 68.95,-305"/>
<polygon fill="none" stroke="#666666" points="68.95,-288.5 68.95,-337.5 186.95,-337.5 186.95,-288.5 68.95,-288.5"/>
</a>
</g>
</g>
<!-- Node2&#45;&gt;Node1 -->
<g id="edge1_Node000001_Node000002" class="edge">
<title>Node2&#45;&gt;Node1</title>
<g id="a_edge1_Node000001_Node000002"><a xlink:title=" ">
<path fill="none" stroke="#63b8ff" d="M147.09,-288.28C158.18,-274.78 172.56,-257.69 185.95,-243 196.75,-231.16 208.29,-218.93 219.86,-206.93"/>
<polygon fill="none" stroke="#63b8ff" points="219.92,-206.86 221.22,-199.77 228.27,-198.24 226.97,-205.33 219.92,-206.86"/>
</a>
</g>
<text text-anchor="middle" x="218.45" y="-251.5" font-family="Helvetica,sans-Serif" font-size="10.00" fill="grey"> &#45;mAttributes</text>
</g>
<!-- Node3 -->
<g id="Node000003" class="node">
<title>Node3</title>
<g id="a_Node000003"><a xlink:href="classdouble.html" target="_top" xlink:title=" ">
<polygon fill="white" stroke="transparent" points="51.95,-439 7.95,-439 7.95,-390 51.95,-390 51.95,-439"/>
<text text-anchor="start" x="12.95" y="-426.5" font-family="Helvetica,sans-Serif" font-size="10.00">double</text>
<text text-anchor="start" x="27.95" y="-411.5" font-family="Helvetica,sans-Serif" font-size="10.00"> </text>
<text text-anchor="start" x="27.95" y="-396.5" font-family="Helvetica,sans-Serif" font-size="10.00"> </text>
<polygon fill="#bfbfbf" stroke="#bfbfbf" points="7.95,-421.5 7.95,-421.5 51.95,-421.5 51.95,-421.5 7.95,-421.5"/>
<polygon fill="#bfbfbf" stroke="#bfbfbf" points="7.95,-406.5 7.95,-406.5 51.95,-406.5 51.95,-406.5 7.95,-406.5"/>
<polygon fill="none" stroke="#bfbfbf" points="7.95,-390 7.95,-439 51.95,-439 51.95,-390 7.95,-390"/>
</a>
</g>
</g>
<!-- Node3&#45;&gt;Node1 -->
<g id="edge8_Node000001_Node000003" class="edge">
<title>Node3&#45;&gt;Node1</title>
<g id="a_edge8_Node000001_Node000003"><a xlink:title=" ">
<path fill="none" stroke="#63b8ff" d="M17.57,-389.61C5.16,-362.03 -9.55,-316.2 9.95,-283 54.24,-207.61 145.58,-163.29 216.64,-139.01"/>
<polygon fill="none" stroke="#63b8ff" points="216.91,-138.92 221.35,-133.23 228.3,-135.14 223.87,-140.82 216.91,-138.92"/>
</a>
</g>
<text text-anchor="middle" x="34.95" y="-310.5" font-family="Helvetica,sans-Serif" font-size="10.00" fill="grey"> &#45;mRadius</text>
</g>
<!-- Node3&#45;&gt;Node2 -->
<g id="edge2_Node000002_Node000003" class="edge">
<title>Node3&#45;&gt;Node2</title>
<g id="a_edge2_Node000002_Node000003"><a xlink:title=" ">
<path fill="none" stroke="#63b8ff" d="M42.68,-389.97C48.46,-380.41 55.83,-369.61 63.95,-361 69.17,-355.47 75.1,-350.14 81.21,-345.19"/>
<polygon fill="none" stroke="#63b8ff" points="81.36,-345.07 83.67,-338.23 90.86,-337.73 88.56,-344.56 81.36,-345.07"/>
</a>
</g>
<text text-anchor="middle" x="92.95" y="-364" font-family="Helvetica,sans-Serif" font-size="10.00" fill="grey"> +elements</text>
</g>
<!-- Node4 -->
<g id="Node000004" class="node">
<title>Node4</title>
<g id="a_Node000004"><a xlink:title=" ">
<polygon fill="white" stroke="transparent" points="179.45,-439 88.45,-439 88.45,-390 179.45,-390 179.45,-439"/>
<text text-anchor="start" x="93.95" y="-426.5" font-family="Helvetica,sans-Serif" font-size="10.00">std::vector&lt; T &gt;</text>
<text text-anchor="start" x="132.45" y="-411.5" font-family="Helvetica,sans-Serif" font-size="10.00"> </text>
<text text-anchor="start" x="132.45" y="-396.5" font-family="Helvetica,sans-Serif" font-size="10.00"> </text>
<polygon fill="#666666" stroke="#666666" points="88.95,-421.5 88.95,-421.5 179.95,-421.5 179.95,-421.5 88.95,-421.5"/>
<polygon fill="#666666" stroke="#666666" points="88.95,-406.5 88.95,-406.5 179.95,-406.5 179.95,-406.5 88.95,-406.5"/>
<polygon fill="none" stroke="#666666" points="88.45,-390 88.45,-439 179.45,-439 179.45,-390 88.45,-390"/>
</a>
</g>
</g>
<!-- Node4&#45;&gt;Node2 -->
<g id="edge3_Node000002_Node000004" class="edge">
<title>Node4&#45;&gt;Node2</title>
<g id="a_edge3_Node000002_Node000004"><a xlink:title=" ">
<path fill="none" stroke="orange" d="M126.91,-379.83C126.52,-377.19 126.2,-374.56 125.95,-372 124.88,-360.77 125.13,-348.26 125.75,-337.75"/>
<polygon fill="orange" stroke="orange" points="123.49,-380.63 128.6,-389.91 130.39,-379.47 123.49,-380.63"/>
</a>
</g>
<text text-anchor="middle" x="155.45" y="-364" font-family="Helvetica,sans-Serif" font-size="10.00" fill="grey"> &lt; double &gt;</text>
</g>
<!-- Node9 -->
<g id="Node000009" class="node">
<title>Node9</title>
<g id="a_Node000009"><a xlink:title=" ">
<polygon fill="white" stroke="transparent" points="334.45,-337.5 205.45,-337.5 205.45,-288.5 334.45,-288.5 334.45,-337.5"/>
<text text-anchor="start" x="210.95" y="-325" font-family="Helvetica,sans-Serif" font-size="10.00">std::vector&lt; unsigned &gt;</text>
<text text-anchor="start" x="268.45" y="-310" font-family="Helvetica,sans-Serif" font-size="10.00"> </text>
<text text-anchor="start" x="268.45" y="-295" font-family="Helvetica,sans-Serif" font-size="10.00"> </text>
<polygon fill="#666666" stroke="#666666" points="205.95,-320 205.95,-320 334.95,-320 334.95,-320 205.95,-320"/>
<polygon fill="#666666" stroke="#666666" points="205.95,-305 205.95,-305 334.95,-305 334.95,-305 205.95,-305"/>
<polygon fill="none" stroke="#666666" points="205.45,-288.5 205.45,-337.5 334.45,-337.5 334.45,-288.5 205.45,-288.5"/>
</a>
</g>
</g>
<!-- Node4&#45;&gt;Node9 -->
<g id="edge11_Node000009_Node000004" class="edge">
<title>Node4&#45;&gt;Node9</title>
<g id="a_edge11_Node000009_Node000004"><a xlink:title=" ">
<path fill="none" stroke="orange" d="M174.27,-384C194.44,-369.25 218.52,-351.63 237.48,-337.76"/>
<polygon fill="orange" stroke="orange" points="172.19,-381.19 166.18,-389.92 176.32,-386.84 172.19,-381.19"/>
</a>
</g>
<text text-anchor="middle" x="236.95" y="-364" font-family="Helvetica,sans-Serif" font-size="10.00" fill="grey"> &lt; unsigned &gt;</text>
</g>
<!-- Node5 -->
<g id="Node000005" class="node">
<title>Node5</title>
<g id="a_Node000005"><a xlink:title=" ">
<polygon fill="white" stroke="transparent" points="142.45,-535 125.45,-535 125.45,-486 142.45,-486 142.45,-535"/>
<text text-anchor="start" x="130.95" y="-522.5" font-family="Helvetica,sans-Serif" font-size="10.00">T</text>
<text text-anchor="start" x="132.45" y="-507.5" font-family="Helvetica,sans-Serif" font-size="10.00"> </text>
<text text-anchor="start" x="132.45" y="-492.5" font-family="Helvetica,sans-Serif" font-size="10.00"> </text>
<polygon fill="#bfbfbf" stroke="#bfbfbf" points="125.95,-517.5 125.95,-517.5 142.95,-517.5 142.95,-517.5 125.95,-517.5"/>
<polygon fill="#bfbfbf" stroke="#bfbfbf" points="125.95,-502.5 125.95,-502.5 142.95,-502.5 142.95,-502.5 125.95,-502.5"/>
<polygon fill="none" stroke="#bfbfbf" points="125.45,-486 125.45,-535 142.45,-535 142.45,-486 125.45,-486"/>
</a>
</g>
</g>
<!-- Node5&#45;&gt;Node4 -->
<g id="edge4_Node000004_Node000005" class="edge">
<title>Node5&#45;&gt;Node4</title>
<g id="a_edge4_Node000004_Node000005"><a xlink:title=" ">
<path fill="none" stroke="#63b8ff" d="M133.95,-485.78C133.95,-475.32 133.95,-462.79 133.95,-451.23"/>
<polygon fill="none" stroke="#63b8ff" points="133.95,-451.21 129.95,-445.21 133.95,-439.21 137.95,-445.21 133.95,-451.21"/>
</a>
</g>
<text text-anchor="middle" x="162.95" y="-460" font-family="Helvetica,sans-Serif" font-size="10.00" fill="grey"> +elements</text>
</g>
<!-- Node6 -->
<g id="Node000006" class="node">
<title>Node6</title>
<g id="a_Node000006"><a xlink:href="classunsigned.html" target="_top" xlink:title=" ">
<polygon fill="white" stroke="transparent" points="363.45,-439 308.45,-439 308.45,-390 363.45,-390 363.45,-439"/>
<text text-anchor="start" x="313.95" y="-426.5" font-family="Helvetica,sans-Serif" font-size="10.00">unsigned</text>
<text text-anchor="start" x="334.45" y="-411.5" font-family="Helvetica,sans-Serif" font-size="10.00"> </text>
<text text-anchor="start" x="334.45" y="-396.5" font-family="Helvetica,sans-Serif" font-size="10.00"> </text>
<polygon fill="#bfbfbf" stroke="#bfbfbf" points="308.95,-421.5 308.95,-421.5 363.95,-421.5 363.95,-421.5 308.95,-421.5"/>
<polygon fill="#bfbfbf" stroke="#bfbfbf" points="308.95,-406.5 308.95,-406.5 363.95,-406.5 363.95,-406.5 308.95,-406.5"/>
<polygon fill="none" stroke="#bfbfbf" points="308.45,-390 308.45,-439 363.45,-439 363.45,-390 308.45,-390"/>
</a>
</g>
</g>
<!-- Node6&#45;&gt;Node1 -->
<g id="edge5_Node000001_Node000006" class="edge">
<title>Node6&#45;&gt;Node1</title>
<g id="a_edge5_Node000001_Node000006"><a xlink:title=" ">
<path fill="none" stroke="#63b8ff" d="M351.75,-389.79C354.72,-384.18 357.39,-378.06 358.95,-372 373.31,-316.49 368.5,-299.53 358.95,-243 358.63,-241.07 358.28,-239.14 357.9,-237.2"/>
<polygon fill="none" stroke="#63b8ff" points="357.85,-236.94 352.68,-231.91 355.33,-225.2 360.5,-230.23 357.85,-236.94"/>
</a>
</g>
<text text-anchor="middle" x="393.45" y="-310.5" font-family="Helvetica,sans-Serif" font-size="10.00" fill="grey"> &#45;mRegion</text>
</g>
<!-- Node6&#45;&gt;Node9 -->
<g id="edge10_Node000009_Node000006" class="edge">
<title>Node6&#45;&gt;Node9</title>
<g id="a_edge10_Node000009_Node000006"><a xlink:title=" ">
<path fill="none" stroke="#63b8ff" d="M314.34,-389.59C309.69,-384 304.97,-377.93 300.95,-372 295.94,-364.61 291.11,-356.33 286.8,-348.39"/>
<polygon fill="none" stroke="#63b8ff" points="286.67,-348.14 280.34,-344.68 281.1,-337.51 287.43,-340.97 286.67,-348.14"/>
</a>
</g>
<text text-anchor="middle" x="329.95" y="-364" font-family="Helvetica,sans-Serif" font-size="10.00" fill="grey"> +elements</text>
</g>
<!-- Node7 -->
<g id="Node000007" class="node">
<title>Node7</title>
<g id="a_Node000007"><a xlink:title=" ">
<polygon fill="white" stroke="transparent" points="575.45,-343 442.45,-343 442.45,-283 575.45,-283 575.45,-343"/>
<text text-anchor="start" x="447.95" y="-331" font-family="Helvetica,sans-Serif" font-size="10.00">c_vector&lt; double, SPACE</text>
<text text-anchor="start" x="490.95" y="-320" font-family="Helvetica,sans-Serif" font-size="10.00">_DIM &gt;</text>
<text text-anchor="start" x="507.45" y="-305" font-family="Helvetica,sans-Serif" font-size="10.00"> </text>
<text text-anchor="start" x="507.45" y="-290" font-family="Helvetica,sans-Serif" font-size="10.00"> </text>
<polygon fill="#bfbfbf" stroke="#bfbfbf" points="442.95,-315 442.95,-315 575.95,-315 575.95,-315 442.95,-315"/>
<polygon fill="#bfbfbf" stroke="#bfbfbf" points="442.95,-300 442.95,-300 575.95,-300 575.95,-300 442.95,-300"/>
<polygon fill="none" stroke="#bfbfbf" points="442.45,-283 442.45,-343 575.45,-343 575.45,-283 442.45,-283"/>
</a>
</g>
</g>
<!-- Node7&#45;&gt;Node1 -->
<g id="edge6_Node000001_Node000007" class="edge">
<title>Node7&#45;&gt;Node1</title>
<g id="a_edge6_Node000001_Node000007"><a xlink:title=" ">
<path fill="none" stroke="#63b8ff" d="M480.18,-282.71C460.96,-263.15 434.5,-236.22 408.34,-209.58"/>
<polygon fill="none" stroke="#63b8ff" points="408.28,-209.52 401.22,-208.04 399.87,-200.96 406.93,-202.43 408.28,-209.52"/>
</a>
</g>
<text text-anchor="middle" x="500.95" y="-251.5" font-family="Helvetica,sans-Serif" font-size="10.00" fill="grey"> &#45;mAppliedForce</text>
</g>
<!-- Node8 -->
<g id="Node000008" class="node">
<title>Node8</title>
<g id="a_Node000008"><a xlink:title=" ">
<polygon fill="white" stroke="transparent" points="534.95,-439 482.95,-439 482.95,-390 534.95,-390 534.95,-439"/>
<text text-anchor="start" x="487.95" y="-426.5" font-family="Helvetica,sans-Serif" font-size="10.00">c_vector</text>
<text text-anchor="start" x="506.95" y="-411.5" font-family="Helvetica,sans-Serif" font-size="10.00"> </text>
<text text-anchor="start" x="506.95" y="-396.5" font-family="Helvetica,sans-Serif" font-size="10.00"> </text>
<polygon fill="#bfbfbf" stroke="#bfbfbf" points="482.95,-421.5 482.95,-421.5 534.95,-421.5 534.95,-421.5 482.95,-421.5"/>
<polygon fill="#bfbfbf" stroke="#bfbfbf" points="482.95,-406.5 482.95,-406.5 534.95,-406.5 534.95,-406.5 482.95,-406.5"/>
<polygon fill="none" stroke="#bfbfbf" points="482.95,-390 482.95,-439 534.95,-439 534.95,-390 482.95,-390"/>
</a>
</g>
</g>
<!-- Node8&#45;&gt;Node7 -->
<g id="edge7_Node000007_Node000008" class="edge">
<title>Node8&#45;&gt;Node7</title>
<g id="a_edge7_Node000007_Node000008"><a xlink:title=" ">
<path fill="none" stroke="orange" d="M508.95,-379.87C508.95,-367.94 508.95,-354.62 508.95,-343.1"/>
<polygon fill="orange" stroke="orange" points="505.45,-379.92 508.95,-389.92 512.45,-379.92 505.45,-379.92"/>
</a>
</g>
<text text-anchor="middle" x="569.45" y="-364" font-family="Helvetica,sans-Serif" font-size="10.00" fill="grey"> &lt; double, SPACE_DIM &gt;</text>
</g>
<!-- Node9&#45;&gt;Node1 -->
<g id="edge9_Node000001_Node000009" class="edge">
<title>Node9&#45;&gt;Node1</title>
<g id="a_edge9_Node000001_Node000009"><a xlink:title=" ">
<path fill="none" stroke="#63b8ff" d="M260.85,-288.32C256.89,-274.98 253.79,-258.03 256.95,-243 257.38,-240.98 257.84,-238.94 258.33,-236.91"/>
<polygon fill="none" stroke="#63b8ff" points="258.35,-236.81 256.04,-229.98 261.46,-225.22 263.77,-232.05 258.35,-236.81"/>
</a>
</g>
<text text-anchor="middle" x="307.95" y="-251.5" font-family="Helvetica,sans-Serif" font-size="10.00" fill="grey"> &#45;mNeighbourIndices</text>
</g>
<!-- Node10 -->
<g id="Node000010" class="node">
<title>Node10</title>
<g id="a_Node000010"><a xlink:href="classbool.html" target="_top" xlink:title=" ">
<polygon fill="white" stroke="transparent" points="625.95,-337.5 593.95,-337.5 593.95,-288.5 625.95,-288.5 625.95,-337.5"/>
<text text-anchor="start" x="598.95" y="-325" font-family="Helvetica,sans-Serif" font-size="10.00">bool</text>
<text text-anchor="start" x="607.95" y="-310" font-family="Helvetica,sans-Serif" font-size="10.00"> </text>
<text text-anchor="start" x="607.95" y="-295" font-family="Helvetica,sans-Serif" font-size="10.00"> </text>
<polygon fill="#bfbfbf" stroke="#bfbfbf" points="593.95,-320 593.95,-320 625.95,-320 625.95,-320 593.95,-320"/>
<polygon fill="#bfbfbf" stroke="#bfbfbf" points="593.95,-305 593.95,-305 625.95,-305 625.95,-305 593.95,-305"/>
<polygon fill="none" stroke="#bfbfbf" points="593.95,-288.5 593.95,-337.5 625.95,-337.5 625.95,-288.5 593.95,-288.5"/>
</a>
</g>
</g>
<!-- Node10&#45;&gt;Node1 -->
<g id="edge12_Node000001_Node000010" class="edge">
<title>Node10&#45;&gt;Node1</title>
<g id="a_edge12_Node000001_Node000010"><a xlink:title=" ">
<path fill="none" stroke="#63b8ff" d="M593.85,-291.53C581.54,-276.8 563.58,-257.11 544.95,-243 503.39,-211.53 453.33,-182.53 410.45,-159.99"/>
<polygon fill="none" stroke="#63b8ff" points="410.36,-159.94 403.19,-160.71 399.71,-154.4 406.88,-153.62 410.36,-159.94"/>
</a>
</g>
<text text-anchor="middle" x="617.45" y="-257" font-family="Helvetica,sans-Serif" font-size="10.00" fill="grey"> &#45;mIsParticle</text>
<text text-anchor="middle" x="617.45" y="-246" font-family="Helvetica,sans-Serif" font-size="10.00" fill="grey">&#45;mNeighboursSetUp</text>
</g>
</g>
</svg>
