<?xml version="1.0" encoding="UTF-8" standalone="no"?>
<!DOCTYPE svg PUBLIC "-//W3C//DTD SVG 1.1//EN"
 "http://www.w3.org/Graphics/SVG/1.1/DTD/svg11.dtd">
<!-- Generated by graphviz version 2.43.0 (0)
 -->
<!-- Title: AbstractFeAssemblerInterface&lt; CAN_ASSEMBLE_VECTOR, CAN_ASSEMBLE_MATRIX &gt; Pages: 1 -->
<svg width="700pt" height="313pt"
 viewBox="0.00 0.00 700.00 313.00" xmlns="http://www.w3.org/2000/svg" xmlns:xlink="http://www.w3.org/1999/xlink">
<g id="graph0" class="graph" transform="scale(1 1) rotate(0) translate(4 309)">
<title>AbstractFeAssemblerInterface&lt; CAN_ASSEMBLE_VECTOR, CAN_ASSEMBLE_MATRIX &gt;</title>
<!-- Node1 -->
<g id="Node000001" class="node">
<title>Node1</title>
<g id="a_Node000001"><a xlink:title=" ">
<polygon fill="#999999" stroke="transparent" points="364,-176 180,-176 180,0 364,0 364,-176"/>
<text text-anchor="start" x="191" y="-164" font-family="Helvetica,sans-Serif" font-size="10.00">AbstractFeAssemblerInterface</text>
<text text-anchor="start" x="191" y="-153" font-family="Helvetica,sans-Serif" font-size="10.00">&lt; CAN_ASSEMBLE_VECTOR, CAN</text>
<text text-anchor="start" x="216" y="-142" font-family="Helvetica,sans-Serif" font-size="10.00">_ASSEMBLE_MATRIX &gt;</text>
<text text-anchor="start" x="270" y="-127" font-family="Helvetica,sans-Serif" font-size="10.00"> </text>
<text text-anchor="start" x="184" y="-112" font-family="Helvetica,sans-Serif" font-size="10.00">+</text>
<text text-anchor="start" x="197" y="-112" font-family="Helvetica,sans-Serif" font-size="10.00">AbstractFeAssemblerInterface()</text>
<text text-anchor="start" x="184" y="-97" font-family="Helvetica,sans-Serif" font-size="10.00">+</text>
<text text-anchor="start" x="197" y="-97" font-family="Helvetica,sans-Serif" font-size="10.00">SetMatrixToAssemble()</text>
<text text-anchor="start" x="184" y="-82" font-family="Helvetica,sans-Serif" font-size="10.00">+</text>
<text text-anchor="start" x="197" y="-82" font-family="Helvetica,sans-Serif" font-size="10.00">SetVectorToAssemble()</text>
<text text-anchor="start" x="184" y="-67" font-family="Helvetica,sans-Serif" font-size="10.00">+</text>
<text text-anchor="start" x="197" y="-67" font-family="Helvetica,sans-Serif" font-size="10.00">Assemble()</text>
<text text-anchor="start" x="184" y="-52" font-family="Helvetica,sans-Serif" font-size="10.00">+</text>
<text text-anchor="start" x="197" y="-52" font-family="Helvetica,sans-Serif" font-size="10.00">AssembleMatrix()</text>
<text text-anchor="start" x="184" y="-37" font-family="Helvetica,sans-Serif" font-size="10.00">+</text>
<text text-anchor="start" x="197" y="-37" font-family="Helvetica,sans-Serif" font-size="10.00">AssembleVector()</text>
<text text-anchor="start" x="184" y="-22" font-family="Helvetica,sans-Serif" font-size="10.00">+</text>
<text text-anchor="start" x="197" y="-22" font-family="Helvetica,sans-Serif" font-size="10.00">~AbstractFeAssemblerInterface()</text>
<text text-anchor="start" x="184" y="-7" font-family="Helvetica,sans-Serif" font-size="10.00">#</text>
<text text-anchor="start" x="197" y="-7" font-family="Helvetica,sans-Serif" font-size="10.00">DoAssemble()</text>
<polygon fill="#666666" stroke="#666666" points="180,-137 180,-137 364,-137 364,-137 180,-137"/>
<polygon fill="#666666" stroke="#666666" points="180,-122 180,-122 364,-122 364,-122 180,-122"/>
<polygon fill="none" stroke="#666666" points="180,0 180,-176 364,-176 364,0 180,0"/>
</a>
</g>
</g>
<!-- Node2 -->
<g id="Node000002" class="node">
<title>Node2</title>
<g id="a_Node000002"><a xlink:title=" ">
<polygon fill="white" stroke="transparent" points="106,-305 0,-305 0,-256 106,-256 106,-305"/>
<text text-anchor="start" x="5" y="-292.5" font-family="Helvetica,sans-Serif" font-size="10.00">boost::noncopyable</text>
<text text-anchor="start" x="51" y="-277.5" font-family="Helvetica,sans-Serif" font-size="10.00"> </text>
<text text-anchor="start" x="51" y="-262.5" font-family="Helvetica,sans-Serif" font-size="10.00"> </text>
<polygon fill="#bfbfbf" stroke="#bfbfbf" points="0,-287.5 0,-287.5 106,-287.5 106,-287.5 0,-287.5"/>
<polygon fill="#bfbfbf" stroke="#bfbfbf" points="0,-272.5 0,-272.5 106,-272.5 106,-272.5 0,-272.5"/>
<polygon fill="none" stroke="#bfbfbf" points="0,-256 0,-305 106,-305 106,-256 0,-256"/>
</a>
</g>
</g>
<!-- Node2&#45;&gt;Node1 -->
<g id="edge1_Node000001_Node000002" class="edge">
<title>Node2&#45;&gt;Node1</title>
<g id="a_edge1_Node000001_Node000002"><a xlink:title=" ">
<path fill="none" stroke="#8b1a1a" d="M82.43,-248.56C98.68,-231.92 119.46,-211.32 139,-194 151.88,-182.58 165.81,-170.9 179.65,-159.67"/>
<polygon fill="none" stroke="#8b1a1a" points="79.76,-246.29 75.31,-255.91 84.78,-251.17 79.76,-246.29"/>
</a>
</g>
</g>
<!-- Node3 -->
<g id="Node000003" class="node">
<title>Node3</title>
<g id="a_Node000003"><a xlink:href="classVec.html" target="_top" xlink:title=" ">
<polygon fill="white" stroke="transparent" points="152,-305 124,-305 124,-256 152,-256 152,-305"/>
<text text-anchor="start" x="129" y="-292.5" font-family="Helvetica,sans-Serif" font-size="10.00">Vec</text>
<text text-anchor="start" x="136" y="-277.5" font-family="Helvetica,sans-Serif" font-size="10.00"> </text>
<text text-anchor="start" x="136" y="-262.5" font-family="Helvetica,sans-Serif" font-size="10.00"> </text>
<polygon fill="#bfbfbf" stroke="#bfbfbf" points="124,-287.5 124,-287.5 152,-287.5 152,-287.5 124,-287.5"/>
<polygon fill="#bfbfbf" stroke="#bfbfbf" points="124,-272.5 124,-272.5 152,-272.5 152,-272.5 124,-272.5"/>
<polygon fill="none" stroke="#bfbfbf" points="124,-256 124,-305 152,-305 152,-256 124,-256"/>
</a>
</g>
</g>
<!-- Node3&#45;&gt;Node1 -->
<g id="edge2_Node000001_Node000003" class="edge">
<title>Node3&#45;&gt;Node1</title>
<g id="a_edge2_Node000001_Node000003"><a xlink:title=" ">
<path fill="none" stroke="#63b8ff" d="M139.39,-255.98C141.33,-237.98 145.95,-213.08 157,-194 161.38,-186.44 166.48,-179.11 172.06,-172.09"/>
<polygon fill="none" stroke="#63b8ff" points="172.22,-171.89 173.01,-164.72 179.93,-162.69 179.14,-169.86 172.22,-171.89"/>
</a>
</g>
<text text-anchor="middle" x="212.5" y="-213.5" font-family="Helvetica,sans-Serif" font-size="10.00" fill="grey"> #mVectorToAssemble</text>
</g>
<!-- Node4 -->
<g id="Node000004" class="node">
<title>Node4</title>
<g id="a_Node000004"><a xlink:href="classMat.html" target="_top" xlink:title=" ">
<polygon fill="white" stroke="transparent" points="286.5,-305 257.5,-305 257.5,-256 286.5,-256 286.5,-305"/>
<text text-anchor="start" x="263" y="-292.5" font-family="Helvetica,sans-Serif" font-size="10.00">Mat</text>
<text text-anchor="start" x="270.5" y="-277.5" font-family="Helvetica,sans-Serif" font-size="10.00"> </text>
<text text-anchor="start" x="270.5" y="-262.5" font-family="Helvetica,sans-Serif" font-size="10.00"> </text>
<polygon fill="#bfbfbf" stroke="#bfbfbf" points="258,-287.5 258,-287.5 287,-287.5 287,-287.5 258,-287.5"/>
<polygon fill="#bfbfbf" stroke="#bfbfbf" points="258,-272.5 258,-272.5 287,-272.5 287,-272.5 258,-272.5"/>
<polygon fill="none" stroke="#bfbfbf" points="257.5,-256 257.5,-305 286.5,-305 286.5,-256 257.5,-256"/>
</a>
</g>
</g>
<!-- Node4&#45;&gt;Node1 -->
<g id="edge3_Node000001_Node000004" class="edge">
<title>Node4&#45;&gt;Node1</title>
<g id="a_edge3_Node000001_Node000004"><a xlink:title=" ">
<path fill="none" stroke="#63b8ff" d="M272,-255.76C272,-238.37 272,-213.48 272,-188.21"/>
<polygon fill="none" stroke="#63b8ff" points="272,-188.21 268,-182.21 272,-176.21 276,-182.21 272,-188.21"/>
</a>
</g>
<text text-anchor="middle" x="328" y="-213.5" font-family="Helvetica,sans-Serif" font-size="10.00" fill="grey"> #mMatrixToAssemble</text>
</g>
<!-- Node5 -->
<g id="Node000005" class="node">
<title>Node5</title>
<g id="a_Node000005"><a xlink:href="classbool.html" target="_top" xlink:title=" ">
<polygon fill="white" stroke="transparent" points="423,-305 391,-305 391,-256 423,-256 423,-305"/>
<text text-anchor="start" x="396" y="-292.5" font-family="Helvetica,sans-Serif" font-size="10.00">bool</text>
<text text-anchor="start" x="405" y="-277.5" font-family="Helvetica,sans-Serif" font-size="10.00"> </text>
<text text-anchor="start" x="405" y="-262.5" font-family="Helvetica,sans-Serif" font-size="10.00"> </text>
<polygon fill="#bfbfbf" stroke="#bfbfbf" points="391,-287.5 391,-287.5 423,-287.5 423,-287.5 391,-287.5"/>
<polygon fill="#bfbfbf" stroke="#bfbfbf" points="391,-272.5 391,-272.5 423,-272.5 423,-272.5 391,-272.5"/>
<polygon fill="none" stroke="#bfbfbf" points="391,-256 391,-305 423,-305 423,-256 391,-256"/>
</a>
</g>
</g>
<!-- Node5&#45;&gt;Node1 -->
<g id="edge4_Node000001_Node000005" class="edge">
<title>Node5&#45;&gt;Node1</title>
<g id="a_edge4_Node000001_Node000005"><a xlink:title=" ">
<path fill="none" stroke="#63b8ff" d="M404.59,-255.99C401.92,-237.99 396.37,-213.1 385,-194 381.09,-187.43 376.65,-181.02 371.84,-174.82"/>
<polygon fill="none" stroke="#63b8ff" points="371.6,-174.53 364.71,-172.42 364,-165.24 370.9,-167.35 371.6,-174.53"/>
</a>
</g>
<text text-anchor="middle" x="476.5" y="-230" font-family="Helvetica,sans-Serif" font-size="10.00" fill="grey"> #mAssembleMatrix</text>
<text text-anchor="middle" x="476.5" y="-219" font-family="Helvetica,sans-Serif" font-size="10.00" fill="grey">#mAssembleVector</text>
<text text-anchor="middle" x="476.5" y="-208" font-family="Helvetica,sans-Serif" font-size="10.00" fill="grey">#mZeroMatrixBeforeAssembly</text>
<text text-anchor="middle" x="476.5" y="-197" font-family="Helvetica,sans-Serif" font-size="10.00" fill="grey">#mZeroVectorBeforeAssembly</text>
</g>
<!-- Node6 -->
<g id="Node000006" class="node">
<title>Node6</title>
<g id="a_Node000006"><a xlink:href="classPetscInt.html" target="_top" xlink:title=" ">
<polygon fill="white" stroke="transparent" points="608,-305 558,-305 558,-256 608,-256 608,-305"/>
<text text-anchor="start" x="563" y="-292.5" font-family="Helvetica,sans-Serif" font-size="10.00">PetscInt</text>
<text text-anchor="start" x="581" y="-277.5" font-family="Helvetica,sans-Serif" font-size="10.00"> </text>
<text text-anchor="start" x="581" y="-262.5" font-family="Helvetica,sans-Serif" font-size="10.00"> </text>
<polygon fill="#bfbfbf" stroke="#bfbfbf" points="558,-287.5 558,-287.5 608,-287.5 608,-287.5 558,-287.5"/>
<polygon fill="#bfbfbf" stroke="#bfbfbf" points="558,-272.5 558,-272.5 608,-272.5 608,-272.5 558,-272.5"/>
<polygon fill="none" stroke="#bfbfbf" points="558,-256 558,-305 608,-305 608,-256 558,-256"/>
</a>
</g>
</g>
<!-- Node6&#45;&gt;Node1 -->
<g id="edge5_Node000001_Node000006" class="edge">
<title>Node6&#45;&gt;Node1</title>
<g id="a_edge5_Node000001_Node000006"><a xlink:title=" ">
<path fill="none" stroke="#63b8ff" d="M581.49,-255.99C579.07,-237.02 572.87,-210.81 557,-194 509.75,-143.94 436.58,-117.63 376.21,-103.87"/>
<polygon fill="none" stroke="#63b8ff" points="376.04,-103.83 369.33,-106.46 364.31,-101.28 371.03,-98.65 376.04,-103.83"/>
</a>
</g>
<text text-anchor="middle" x="634.5" y="-219" font-family="Helvetica,sans-Serif" font-size="10.00" fill="grey"> #mOwnershipRangeHi</text>
<text text-anchor="middle" x="634.5" y="-208" font-family="Helvetica,sans-Serif" font-size="10.00" fill="grey">#mOwnershipRangeLo</text>
</g>
</g>
</svg>
