<?xml version="1.0" encoding="UTF-8" standalone="no"?>
<!DOCTYPE svg PUBLIC "-//W3C//DTD SVG 1.1//EN"
 "http://www.w3.org/Graphics/SVG/1.1/DTD/svg11.dtd">
<!-- Generated by graphviz version 2.43.0 (0)
 -->
<!-- Title: RungeKutta4IvpOdeSolver Pages: 1 -->
<svg width="628pt" height="656pt"
 viewBox="0.00 0.00 628.00 656.00" xmlns="http://www.w3.org/2000/svg" xmlns:xlink="http://www.w3.org/1999/xlink">
<g id="graph0" class="graph" transform="scale(1 1) rotate(0) translate(4 652)">
<title>RungeKutta4IvpOdeSolver</title>
<!-- Node1 -->
<g id="Node000001" class="node">
<title>Node1</title>
<g id="a_Node000001"><a xlink:title=" ">
<polygon fill="#999999" stroke="transparent" points="486,-64 348,-64 348,0 486,0 486,-64"/>
<text text-anchor="start" x="353" y="-52" font-family="Helvetica,sans-Serif" font-size="10.00">RungeKutta4IvpOdeSolver</text>
<text text-anchor="start" x="415" y="-37" font-family="Helvetica,sans-Serif" font-size="10.00"> </text>
<text text-anchor="start" x="353.5" y="-22" font-family="Helvetica,sans-Serif" font-size="10.00">#</text>
<text text-anchor="start" x="368" y="-22" font-family="Helvetica,sans-Serif" font-size="10.00">CalculateNextYValue()</text>
<text text-anchor="start" x="356" y="-7" font-family="Helvetica,sans-Serif" font-size="10.00">&#45;</text>
<text text-anchor="start" x="368" y="-7" font-family="Helvetica,sans-Serif" font-size="10.00">serialize()</text>
<polygon fill="#666666" stroke="#666666" points="348,-47 348,-47 486,-47 486,-47 348,-47"/>
<polygon fill="#666666" stroke="#666666" points="348,-32 348,-32 486,-32 486,-32 348,-32"/>
<polygon fill="none" stroke="#666666" points="348,0 348,-64 486,-64 486,0 348,0"/>
</a>
</g>
</g>
<!-- Node2 -->
<g id="Node000002" class="node">
<title>Node2</title>
<g id="a_Node000002"><a xlink:href="classAbstractOneStepIvpOdeSolver.html" target="_top" xlink:title=" ">
<polygon fill="white" stroke="transparent" points="445,-225 261,-225 261,-101 445,-101 445,-225"/>
<text text-anchor="start" x="279" y="-213" font-family="Helvetica,sans-Serif" font-size="10.00">AbstractOneStepIvpOdeSolver</text>
<text text-anchor="start" x="351" y="-198" font-family="Helvetica,sans-Serif" font-size="10.00"> </text>
<text text-anchor="start" x="265" y="-183" font-family="Helvetica,sans-Serif" font-size="10.00">+</text>
<text text-anchor="start" x="278" y="-183" font-family="Helvetica,sans-Serif" font-size="10.00">Solve()</text>
<text text-anchor="start" x="265" y="-168" font-family="Helvetica,sans-Serif" font-size="10.00">+</text>
<text text-anchor="start" x="278" y="-168" font-family="Helvetica,sans-Serif" font-size="10.00">Solve()</text>
<text text-anchor="start" x="265" y="-153" font-family="Helvetica,sans-Serif" font-size="10.00">+</text>
<text text-anchor="start" x="278" y="-153" font-family="Helvetica,sans-Serif" font-size="10.00">~AbstractOneStepIvpOdeSolver()</text>
<text text-anchor="start" x="265" y="-138" font-family="Helvetica,sans-Serif" font-size="10.00">#</text>
<text text-anchor="start" x="278" y="-138" font-family="Helvetica,sans-Serif" font-size="10.00">InternalSolve()</text>
<text text-anchor="start" x="265" y="-123" font-family="Helvetica,sans-Serif" font-size="10.00">#</text>
<text text-anchor="start" x="278" y="-123" font-family="Helvetica,sans-Serif" font-size="10.00">CalculateNextYValue()</text>
<text text-anchor="start" x="267.5" y="-108" font-family="Helvetica,sans-Serif" font-size="10.00">&#45;</text>
<text text-anchor="start" x="278" y="-108" font-family="Helvetica,sans-Serif" font-size="10.00">serialize()</text>
<polygon fill="#666666" stroke="#666666" points="261,-208 261,-208 445,-208 445,-208 261,-208"/>
<polygon fill="#666666" stroke="#666666" points="261,-193 261,-193 445,-193 445,-193 261,-193"/>
<polygon fill="none" stroke="#666666" points="261,-101 261,-225 445,-225 445,-101 261,-101"/>
</a>
</g>
</g>
<!-- Node2&#45;&gt;Node1 -->
<g id="edge1_Node000001_Node000002" class="edge">
<title>Node2&#45;&gt;Node1</title>
<g id="a_edge1_Node000001_Node000002"><a xlink:title=" ">
<path fill="none" stroke="#63b8ff" d="M387.77,-91.92C392.61,-82.17 397.36,-72.59 401.58,-64.08"/>
<polygon fill="none" stroke="#63b8ff" points="384.62,-90.39 383.31,-100.9 390.89,-93.5 384.62,-90.39"/>
</a>
</g>
</g>
<!-- Node3 -->
<g id="Node000003" class="node">
<title>Node3</title>
<g id="a_Node000003"><a xlink:href="classAbstractIvpOdeSolver.html" target="_top" xlink:title=" ">
<polygon fill="white" stroke="transparent" points="350.5,-426 175.5,-426 175.5,-272 350.5,-272 350.5,-426"/>
<text text-anchor="start" x="210.5" y="-414" font-family="Helvetica,sans-Serif" font-size="10.00">AbstractIvpOdeSolver</text>
<text text-anchor="start" x="261.5" y="-399" font-family="Helvetica,sans-Serif" font-size="10.00"> </text>
<text text-anchor="start" x="180" y="-384" font-family="Helvetica,sans-Serif" font-size="10.00">+</text>
<text text-anchor="start" x="193" y="-384" font-family="Helvetica,sans-Serif" font-size="10.00">Solve()</text>
<text text-anchor="start" x="180" y="-369" font-family="Helvetica,sans-Serif" font-size="10.00">+</text>
<text text-anchor="start" x="193" y="-369" font-family="Helvetica,sans-Serif" font-size="10.00">Solve()</text>
<text text-anchor="start" x="180" y="-354" font-family="Helvetica,sans-Serif" font-size="10.00">+</text>
<text text-anchor="start" x="193" y="-354" font-family="Helvetica,sans-Serif" font-size="10.00">SolveAndUpdateStateVariable()</text>
<text text-anchor="start" x="180" y="-339" font-family="Helvetica,sans-Serif" font-size="10.00">+</text>
<text text-anchor="start" x="193" y="-339" font-family="Helvetica,sans-Serif" font-size="10.00">StoppingEventOccurred()</text>
<text text-anchor="start" x="180" y="-324" font-family="Helvetica,sans-Serif" font-size="10.00">+</text>
<text text-anchor="start" x="193" y="-324" font-family="Helvetica,sans-Serif" font-size="10.00">GetStoppingTime()</text>
<text text-anchor="start" x="180" y="-309" font-family="Helvetica,sans-Serif" font-size="10.00">+</text>
<text text-anchor="start" x="193" y="-309" font-family="Helvetica,sans-Serif" font-size="10.00">AbstractIvpOdeSolver()</text>
<text text-anchor="start" x="180" y="-294" font-family="Helvetica,sans-Serif" font-size="10.00">+</text>
<text text-anchor="start" x="193" y="-294" font-family="Helvetica,sans-Serif" font-size="10.00">~AbstractIvpOdeSolver()</text>
<text text-anchor="start" x="182.5" y="-279" font-family="Helvetica,sans-Serif" font-size="10.00">&#45;</text>
<text text-anchor="start" x="193" y="-279" font-family="Helvetica,sans-Serif" font-size="10.00">serialize()</text>
<polygon fill="#666666" stroke="#666666" points="176,-409 176,-409 351,-409 351,-409 176,-409"/>
<polygon fill="#666666" stroke="#666666" points="176,-394 176,-394 351,-394 351,-394 176,-394"/>
<polygon fill="none" stroke="#666666" points="175.5,-272 175.5,-426 350.5,-426 350.5,-272 175.5,-272"/>
</a>
</g>
</g>
<!-- Node3&#45;&gt;Node2 -->
<g id="edge2_Node000002_Node000003" class="edge">
<title>Node3&#45;&gt;Node2</title>
<g id="a_edge2_Node000002_Node000003"><a xlink:title=" ">
<path fill="none" stroke="#63b8ff" d="M304.73,-262.68C310.91,-250.05 317.17,-237.25 323.04,-225.25"/>
<polygon fill="none" stroke="#63b8ff" points="301.51,-261.31 300.26,-271.83 307.79,-264.39 301.51,-261.31"/>
</a>
</g>
</g>
<!-- Node4 -->
<g id="Node000004" class="node">
<title>Node4</title>
<g id="a_Node000004"><a xlink:href="classIdentifiable.html" target="_top" xlink:title=" ">
<polygon fill="white" stroke="transparent" points="176,-552 0,-552 0,-473 176,-473 176,-552"/>
<text text-anchor="start" x="60.5" y="-539.5" font-family="Helvetica,sans-Serif" font-size="10.00">Identifiable</text>
<text text-anchor="start" x="86" y="-524.5" font-family="Helvetica,sans-Serif" font-size="10.00"> </text>
<text text-anchor="start" x="4" y="-509.5" font-family="Helvetica,sans-Serif" font-size="10.00">+</text>
<text text-anchor="start" x="17" y="-509.5" font-family="Helvetica,sans-Serif" font-size="10.00">~Identifiable()</text>
<text text-anchor="start" x="4" y="-494.5" font-family="Helvetica,sans-Serif" font-size="10.00">+</text>
<text text-anchor="start" x="17" y="-494.5" font-family="Helvetica,sans-Serif" font-size="10.00">GetIdentifier()</text>
<text text-anchor="start" x="6.5" y="-479.5" font-family="Helvetica,sans-Serif" font-size="10.00">&#45;</text>
<text text-anchor="start" x="17" y="-479.5" font-family="Helvetica,sans-Serif" font-size="10.00">TidyTemplatedExportIdentifier()</text>
<polygon fill="#666666" stroke="#666666" points="0,-534.5 0,-534.5 176,-534.5 176,-534.5 0,-534.5"/>
<polygon fill="#666666" stroke="#666666" points="0,-519.5 0,-519.5 176,-519.5 176,-519.5 0,-519.5"/>
<polygon fill="none" stroke="#666666" points="0,-473 0,-552 176,-552 176,-473 0,-473"/>
</a>
</g>
</g>
<!-- Node4&#45;&gt;Node3 -->
<g id="edge3_Node000003_Node000004" class="edge">
<title>Node4&#45;&gt;Node3</title>
<g id="a_edge3_Node000003_Node000004"><a xlink:title=" ">
<path fill="none" stroke="#63b8ff" d="M137.63,-465.7C151.03,-453.33 165.91,-439.6 180.59,-426.06"/>
<polygon fill="none" stroke="#63b8ff" points="134.89,-463.46 129.92,-472.82 139.64,-468.61 134.89,-463.46"/>
</a>
</g>
</g>
<!-- Node5 -->
<g id="Node000005" class="node">
<title>Node5</title>
<g id="a_Node000005"><a xlink:href="classbool.html" target="_top" xlink:title=" ">
<polygon fill="white" stroke="transparent" points="226,-537 194,-537 194,-488 226,-488 226,-537"/>
<text text-anchor="start" x="199" y="-524.5" font-family="Helvetica,sans-Serif" font-size="10.00">bool</text>
<text text-anchor="start" x="208" y="-509.5" font-family="Helvetica,sans-Serif" font-size="10.00"> </text>
<text text-anchor="start" x="208" y="-494.5" font-family="Helvetica,sans-Serif" font-size="10.00"> </text>
<polygon fill="#bfbfbf" stroke="#bfbfbf" points="194,-519.5 194,-519.5 226,-519.5 226,-519.5 194,-519.5"/>
<polygon fill="#bfbfbf" stroke="#bfbfbf" points="194,-504.5 194,-504.5 226,-504.5 226,-504.5 194,-504.5"/>
<polygon fill="none" stroke="#bfbfbf" points="194,-488 194,-537 226,-537 226,-488 194,-488"/>
</a>
</g>
</g>
<!-- Node5&#45;&gt;Node3 -->
<g id="edge4_Node000003_Node000005" class="edge">
<title>Node5&#45;&gt;Node3</title>
<g id="a_edge4_Node000003_Node000005"><a xlink:title=" ">
<path fill="none" stroke="#63b8ff" d="M207.57,-488C206.9,-474.85 207.2,-458.27 211,-444 211.57,-441.86 212.2,-439.72 212.88,-437.58"/>
<polygon fill="none" stroke="#63b8ff" points="212.92,-437.47 211.18,-430.47 216.97,-426.18 218.71,-433.18 212.92,-437.47"/>
</a>
</g>
<text text-anchor="middle" x="279" y="-447" font-family="Helvetica,sans-Serif" font-size="10.00" fill="grey"> #mStoppingEventOccurred</text>
</g>
<!-- Node6 -->
<g id="Node000006" class="node">
<title>Node6</title>
<g id="a_Node000006"><a xlink:href="classdouble.html" target="_top" xlink:title=" ">
<polygon fill="white" stroke="transparent" points="444,-537 400,-537 400,-488 444,-488 444,-537"/>
<text text-anchor="start" x="405" y="-524.5" font-family="Helvetica,sans-Serif" font-size="10.00">double</text>
<text text-anchor="start" x="420" y="-509.5" font-family="Helvetica,sans-Serif" font-size="10.00"> </text>
<text text-anchor="start" x="420" y="-494.5" font-family="Helvetica,sans-Serif" font-size="10.00"> </text>
<polygon fill="#bfbfbf" stroke="#bfbfbf" points="400,-519.5 400,-519.5 444,-519.5 444,-519.5 400,-519.5"/>
<polygon fill="#bfbfbf" stroke="#bfbfbf" points="400,-504.5 400,-504.5 444,-504.5 444,-504.5 400,-504.5"/>
<polygon fill="none" stroke="#bfbfbf" points="400,-488 400,-537 444,-537 444,-488 400,-488"/>
</a>
</g>
</g>
<!-- Node6&#45;&gt;Node3 -->
<g id="edge5_Node000003_Node000006" class="edge">
<title>Node6&#45;&gt;Node3</title>
<g id="a_edge5_Node000003_Node000006"><a xlink:title=" ">
<path fill="none" stroke="#63b8ff" d="M399.9,-489.25C389.58,-478.86 377.15,-466.31 366,-455 359.51,-448.42 352.79,-441.59 346.04,-434.73"/>
<polygon fill="none" stroke="#63b8ff" points="345.91,-434.59 338.85,-433.12 337.5,-426.04 344.55,-427.51 345.91,-434.59"/>
</a>
</g>
<text text-anchor="middle" x="410.5" y="-447" font-family="Helvetica,sans-Serif" font-size="10.00" fill="grey"> #mStoppingTime</text>
</g>
<!-- Node7 -->
<g id="Node000007" class="node">
<title>Node7</title>
<g id="a_Node000007"><a xlink:title=" ">
<polygon fill="white" stroke="transparent" points="540,-373.5 422,-373.5 422,-324.5 540,-324.5 540,-373.5"/>
<text text-anchor="start" x="427" y="-361" font-family="Helvetica,sans-Serif" font-size="10.00">std::vector&lt; double &gt;</text>
<text text-anchor="start" x="479" y="-346" font-family="Helvetica,sans-Serif" font-size="10.00"> </text>
<text text-anchor="start" x="479" y="-331" font-family="Helvetica,sans-Serif" font-size="10.00"> </text>
<polygon fill="#666666" stroke="#666666" points="422,-356 422,-356 540,-356 540,-356 422,-356"/>
<polygon fill="#666666" stroke="#666666" points="422,-341 422,-341 540,-341 540,-341 422,-341"/>
<polygon fill="none" stroke="#666666" points="422,-324.5 422,-373.5 540,-373.5 540,-324.5 422,-324.5"/>
</a>
</g>
</g>
<!-- Node6&#45;&gt;Node7 -->
<g id="edge7_Node000007_Node000006" class="edge">
<title>Node6&#45;&gt;Node7</title>
<g id="a_edge7_Node000007_Node000006"><a xlink:title=" ">
<path fill="none" stroke="#63b8ff" d="M440.32,-487.86C447.08,-478.14 454.24,-466.48 459,-455 468.16,-432.92 473.66,-406.58 476.88,-385.81"/>
<polygon fill="none" stroke="#63b8ff" points="476.91,-385.56 473.79,-379.06 478.59,-373.68 481.71,-380.18 476.91,-385.56"/>
</a>
</g>
<text text-anchor="middle" x="493" y="-447" font-family="Helvetica,sans-Serif" font-size="10.00" fill="grey"> +elements</text>
</g>
<!-- Node7&#45;&gt;Node1 -->
<g id="edge10_Node000001_Node000007" class="edge">
<title>Node7&#45;&gt;Node1</title>
<g id="a_edge10_Node000001_Node000007"><a xlink:title=" ">
<path fill="none" stroke="#63b8ff" d="M481.42,-324.23C481.57,-279.46 478.76,-180.04 454,-101 451.23,-92.17 447.28,-83.17 442.98,-74.74"/>
<polygon fill="none" stroke="#63b8ff" points="442.9,-74.59 436.53,-71.21 437.19,-64.03 443.56,-67.41 442.9,-74.59"/>
</a>
</g>
<text text-anchor="middle" x="486.5" y="-182.5" font-family="Helvetica,sans-Serif" font-size="10.00" fill="grey"> &#45;k1</text>
<text text-anchor="middle" x="486.5" y="-171.5" font-family="Helvetica,sans-Serif" font-size="10.00" fill="grey">&#45;k2</text>
<text text-anchor="middle" x="486.5" y="-160.5" font-family="Helvetica,sans-Serif" font-size="10.00" fill="grey">&#45;k3</text>
<text text-anchor="middle" x="486.5" y="-149.5" font-family="Helvetica,sans-Serif" font-size="10.00" fill="grey">&#45;k4</text>
<text text-anchor="middle" x="486.5" y="-138.5" font-family="Helvetica,sans-Serif" font-size="10.00" fill="grey">&#45;yki</text>
</g>
<!-- Node7&#45;&gt;Node2 -->
<g id="edge6_Node000002_Node000007" class="edge">
<title>Node7&#45;&gt;Node2</title>
<g id="a_edge6_Node000002_Node000007"><a xlink:title=" ">
<path fill="none" stroke="#63b8ff" d="M441.28,-324.41C416.87,-307.81 387.09,-283.35 370,-254 366.88,-248.64 364.31,-242.83 362.21,-236.82"/>
<polygon fill="none" stroke="#63b8ff" points="362.14,-236.59 356.59,-231.99 358.7,-225.1 364.25,-229.7 362.14,-236.59"/>
</a>
</g>
<text text-anchor="middle" x="418.5" y="-246" font-family="Helvetica,sans-Serif" font-size="10.00" fill="grey"> &#45;mWorkingMemory</text>
</g>
<!-- Node8 -->
<g id="Node000008" class="node">
<title>Node8</title>
<g id="a_Node000008"><a xlink:title=" ">
<polygon fill="white" stroke="transparent" points="607.5,-537 516.5,-537 516.5,-488 607.5,-488 607.5,-537"/>
<text text-anchor="start" x="522" y="-524.5" font-family="Helvetica,sans-Serif" font-size="10.00">std::vector&lt; T &gt;</text>
<text text-anchor="start" x="560.5" y="-509.5" font-family="Helvetica,sans-Serif" font-size="10.00"> </text>
<text text-anchor="start" x="560.5" y="-494.5" font-family="Helvetica,sans-Serif" font-size="10.00"> </text>
<polygon fill="#666666" stroke="#666666" points="517,-519.5 517,-519.5 608,-519.5 608,-519.5 517,-519.5"/>
<polygon fill="#666666" stroke="#666666" points="517,-504.5 517,-504.5 608,-504.5 608,-504.5 517,-504.5"/>
<polygon fill="none" stroke="#666666" points="516.5,-488 516.5,-537 607.5,-537 607.5,-488 516.5,-488"/>
</a>
</g>
</g>
<!-- Node8&#45;&gt;Node7 -->
<g id="edge8_Node000007_Node000008" class="edge">
<title>Node8&#45;&gt;Node7</title>
<g id="a_edge8_Node000007_Node000008"><a xlink:title=" ">
<path fill="none" stroke="orange" d="M545.45,-478.51C529.82,-447.34 506.75,-401.34 492.87,-373.66"/>
<polygon fill="orange" stroke="orange" points="542.44,-480.3 550.05,-487.67 548.69,-477.16 542.44,-480.3"/>
</a>
</g>
<text text-anchor="middle" x="563.5" y="-447" font-family="Helvetica,sans-Serif" font-size="10.00" fill="grey"> &lt; double &gt;</text>
</g>
<!-- Node9 -->
<g id="Node000009" class="node">
<title>Node9</title>
<g id="a_Node000009"><a xlink:title=" ">
<polygon fill="white" stroke="transparent" points="570.5,-648 553.5,-648 553.5,-599 570.5,-599 570.5,-648"/>
<text text-anchor="start" x="559" y="-635.5" font-family="Helvetica,sans-Serif" font-size="10.00">T</text>
<text text-anchor="start" x="560.5" y="-620.5" font-family="Helvetica,sans-Serif" font-size="10.00"> </text>
<text text-anchor="start" x="560.5" y="-605.5" font-family="Helvetica,sans-Serif" font-size="10.00"> </text>
<polygon fill="#bfbfbf" stroke="#bfbfbf" points="554,-630.5 554,-630.5 571,-630.5 571,-630.5 554,-630.5"/>
<polygon fill="#bfbfbf" stroke="#bfbfbf" points="554,-615.5 554,-615.5 571,-615.5 571,-615.5 554,-615.5"/>
<polygon fill="none" stroke="#bfbfbf" points="553.5,-599 553.5,-648 570.5,-648 570.5,-599 553.5,-599"/>
</a>
</g>
</g>
<!-- Node9&#45;&gt;Node8 -->
<g id="edge9_Node000008_Node000009" class="edge">
<title>Node9&#45;&gt;Node8</title>
<g id="a_edge9_Node000008_Node000009"><a xlink:title=" ">
<path fill="none" stroke="#63b8ff" d="M562,-598.85C562,-584.42 562,-565.7 562,-549.46"/>
<polygon fill="none" stroke="#63b8ff" points="562,-549.11 558,-543.11 562,-537.11 566,-543.11 562,-549.11"/>
</a>
</g>
<text text-anchor="middle" x="591" y="-573" font-family="Helvetica,sans-Serif" font-size="10.00" fill="grey"> +elements</text>
</g>
</g>
</svg>
