<?xml version="1.0" encoding="UTF-8" standalone="no"?>
<!DOCTYPE svg PUBLIC "-//W3C//DTD SVG 1.1//EN"
 "http://www.w3.org/Graphics/SVG/1.1/DTD/svg11.dtd">
<!-- Generated by graphviz version 2.43.0 (0)
 -->
<!-- Title: StemCellProliferativeType Pages: 1 -->
<svg width="184pt" height="585pt"
 viewBox="0.00 0.00 184.00 585.00" xmlns="http://www.w3.org/2000/svg" xmlns:xlink="http://www.w3.org/1999/xlink">
<g id="graph0" class="graph" transform="scale(1 1) rotate(0) translate(4 581)">
<title>StemCellProliferativeType</title>
<!-- Node1 -->
<g id="Node000001" class="node">
<title>Node1</title>
<g id="a_Node000001"><a xlink:title=" ">
<polygon fill="#999999" stroke="transparent" points="166,-64 10,-64 10,0 166,0 166,-64"/>
<text text-anchor="start" x="24.5" y="-52" font-family="Helvetica,sans-Serif" font-size="10.00">StemCellProliferativeType</text>
<text text-anchor="start" x="86" y="-37" font-family="Helvetica,sans-Serif" font-size="10.00"> </text>
<text text-anchor="start" x="14" y="-22" font-family="Helvetica,sans-Serif" font-size="10.00">+</text>
<text text-anchor="start" x="27" y="-22" font-family="Helvetica,sans-Serif" font-size="10.00">StemCellProliferativeType()</text>
<text text-anchor="start" x="16.5" y="-7" font-family="Helvetica,sans-Serif" font-size="10.00">&#45;</text>
<text text-anchor="start" x="27" y="-7" font-family="Helvetica,sans-Serif" font-size="10.00">serialize()</text>
<polygon fill="#666666" stroke="#666666" points="10,-47 10,-47 166,-47 166,-47 10,-47"/>
<polygon fill="#666666" stroke="#666666" points="10,-32 10,-32 166,-32 166,-32 10,-32"/>
<polygon fill="none" stroke="#666666" points="10,0 10,-64 166,-64 166,0 10,0"/>
</a>
</g>
</g>
<!-- Node2 -->
<g id="Node000002" class="node">
<title>Node2</title>
<g id="a_Node000002"><a xlink:href="classAbstractCellProliferativeType.html" target="_top" xlink:title=" ">
<polygon fill="white" stroke="transparent" points="164,-242 12,-242 12,-100 164,-100 164,-242"/>
<text text-anchor="start" x="17" y="-230" font-family="Helvetica,sans-Serif" font-size="10.00">AbstractCellProliferativeType</text>
<text text-anchor="start" x="19" y="-215" font-family="Helvetica,sans-Serif" font-size="10.00">&#45;</text>
<text text-anchor="start" x="30" y="-215" font-family="Helvetica,sans-Serif" font-size="10.00">mColour</text>
<text text-anchor="start" x="16.5" y="-200" font-family="Helvetica,sans-Serif" font-size="10.00">+</text>
<text text-anchor="start" x="30" y="-200" font-family="Helvetica,sans-Serif" font-size="10.00">AbstractCellProliferative</text>
<text text-anchor="start" x="30" y="-189" font-family="Helvetica,sans-Serif" font-size="10.00">Type()</text>
<text text-anchor="start" x="16.5" y="-174" font-family="Helvetica,sans-Serif" font-size="10.00">+</text>
<text text-anchor="start" x="30" y="-174" font-family="Helvetica,sans-Serif" font-size="10.00">~AbstractCellProliferative</text>
<text text-anchor="start" x="30" y="-163" font-family="Helvetica,sans-Serif" font-size="10.00">Type()</text>
<text text-anchor="start" x="16.5" y="-148" font-family="Helvetica,sans-Serif" font-size="10.00">+</text>
<text text-anchor="start" x="30" y="-148" font-family="Helvetica,sans-Serif" font-size="10.00">GetColour()</text>
<text text-anchor="start" x="19" y="-133" font-family="Helvetica,sans-Serif" font-size="10.00">&#45;</text>
<text text-anchor="start" x="30" y="-133" font-family="Helvetica,sans-Serif" font-size="10.00">serialize()</text>
<text text-anchor="start" x="19" y="-118" font-family="Helvetica,sans-Serif" font-size="10.00">&#45;</text>
<text text-anchor="start" x="30" y="-118" font-family="Helvetica,sans-Serif" font-size="10.00">AbstractCellProliferative</text>
<text text-anchor="start" x="30" y="-107" font-family="Helvetica,sans-Serif" font-size="10.00">Type()</text>
<polygon fill="#666666" stroke="#666666" points="12,-225 12,-225 164,-225 164,-225 12,-225"/>
<polygon fill="#666666" stroke="#666666" points="12,-210 12,-210 28,-210 28,-210 12,-210"/>
<polygon fill="#666666" stroke="#666666" points="28,-210 28,-210 164,-210 164,-210 28,-210"/>
<polygon fill="none" stroke="#666666" points="12,-100 12,-242 164,-242 164,-100 12,-100"/>
</a>
</g>
</g>
<!-- Node2&#45;&gt;Node1 -->
<g id="edge1_Node000001_Node000002" class="edge">
<title>Node2&#45;&gt;Node1</title>
<g id="a_edge1_Node000001_Node000002"><a xlink:title=" ">
<path fill="none" stroke="#63b8ff" d="M88,-89.68C88,-80.72 88,-72.02 88,-64.25"/>
<polygon fill="none" stroke="#63b8ff" points="84.5,-89.89 88,-99.89 91.5,-89.89 84.5,-89.89"/>
</a>
</g>
</g>
<!-- Node3 -->
<g id="Node000003" class="node">
<title>Node3</title>
<g id="a_Node000003"><a xlink:href="classAbstractCellProperty.html" target="_top" xlink:title=" ">
<polygon fill="white" stroke="transparent" points="157,-462 19,-462 19,-278 157,-278 157,-462"/>
<text text-anchor="start" x="37.5" y="-450" font-family="Helvetica,sans-Serif" font-size="10.00">AbstractCellProperty</text>
<text text-anchor="start" x="25.5" y="-435" font-family="Helvetica,sans-Serif" font-size="10.00">&#45;</text>
<text text-anchor="start" x="36" y="-435" font-family="Helvetica,sans-Serif" font-size="10.00">mCellCount</text>
<text text-anchor="start" x="23" y="-420" font-family="Helvetica,sans-Serif" font-size="10.00">+</text>
<text text-anchor="start" x="36" y="-420" font-family="Helvetica,sans-Serif" font-size="10.00">AbstractCellProperty()</text>
<text text-anchor="start" x="23" y="-405" font-family="Helvetica,sans-Serif" font-size="10.00">+</text>
<text text-anchor="start" x="36" y="-405" font-family="Helvetica,sans-Serif" font-size="10.00">~AbstractCellProperty()</text>
<text text-anchor="start" x="23" y="-390" font-family="Helvetica,sans-Serif" font-size="10.00">+</text>
<text text-anchor="start" x="36" y="-390" font-family="Helvetica,sans-Serif" font-size="10.00">IsType()</text>
<text text-anchor="start" x="23" y="-375" font-family="Helvetica,sans-Serif" font-size="10.00">+</text>
<text text-anchor="start" x="36" y="-375" font-family="Helvetica,sans-Serif" font-size="10.00">IsSubType()</text>
<text text-anchor="start" x="23" y="-360" font-family="Helvetica,sans-Serif" font-size="10.00">+</text>
<text text-anchor="start" x="36" y="-360" font-family="Helvetica,sans-Serif" font-size="10.00">IsSame()</text>
<text text-anchor="start" x="23" y="-345" font-family="Helvetica,sans-Serif" font-size="10.00">+</text>
<text text-anchor="start" x="36" y="-345" font-family="Helvetica,sans-Serif" font-size="10.00">IsSame()</text>
<text text-anchor="start" x="23" y="-330" font-family="Helvetica,sans-Serif" font-size="10.00">+</text>
<text text-anchor="start" x="36" y="-330" font-family="Helvetica,sans-Serif" font-size="10.00">IncrementCellCount()</text>
<text text-anchor="start" x="23" y="-315" font-family="Helvetica,sans-Serif" font-size="10.00">+</text>
<text text-anchor="start" x="36" y="-315" font-family="Helvetica,sans-Serif" font-size="10.00">DecrementCellCount()</text>
<text text-anchor="start" x="23" y="-300" font-family="Helvetica,sans-Serif" font-size="10.00">+</text>
<text text-anchor="start" x="36" y="-300" font-family="Helvetica,sans-Serif" font-size="10.00">GetCellCount()</text>
<text text-anchor="start" x="25.5" y="-285" font-family="Helvetica,sans-Serif" font-size="10.00">&#45;</text>
<text text-anchor="start" x="36" y="-285" font-family="Helvetica,sans-Serif" font-size="10.00">serialize()</text>
<polygon fill="#666666" stroke="#666666" points="19,-445 19,-445 157,-445 157,-445 19,-445"/>
<polygon fill="#666666" stroke="#666666" points="19,-430 19,-430 34,-430 34,-430 19,-430"/>
<polygon fill="#666666" stroke="#666666" points="34,-430 34,-430 157,-430 157,-430 34,-430"/>
<polygon fill="none" stroke="#666666" points="19,-278 19,-462 157,-462 157,-278 19,-278"/>
</a>
</g>
</g>
<!-- Node3&#45;&gt;Node2 -->
<g id="edge2_Node000002_Node000003" class="edge">
<title>Node3&#45;&gt;Node2</title>
<g id="a_edge2_Node000002_Node000003"><a xlink:title=" ">
<path fill="none" stroke="#63b8ff" d="M88,-267.85C88,-259.21 88,-250.6 88,-242.28"/>
<polygon fill="none" stroke="#63b8ff" points="84.5,-268 88,-278 91.5,-268 84.5,-268"/>
</a>
</g>
</g>
<!-- Node4 -->
<g id="Node000004" class="node">
<title>Node4</title>
<g id="a_Node000004"><a xlink:href="classIdentifiable.html" target="_top" xlink:title=" ">
<polygon fill="white" stroke="transparent" points="176,-577 0,-577 0,-498 176,-498 176,-577"/>
<text text-anchor="start" x="60.5" y="-564.5" font-family="Helvetica,sans-Serif" font-size="10.00">Identifiable</text>
<text text-anchor="start" x="86" y="-549.5" font-family="Helvetica,sans-Serif" font-size="10.00"> </text>
<text text-anchor="start" x="4" y="-534.5" font-family="Helvetica,sans-Serif" font-size="10.00">+</text>
<text text-anchor="start" x="17" y="-534.5" font-family="Helvetica,sans-Serif" font-size="10.00">~Identifiable()</text>
<text text-anchor="start" x="4" y="-519.5" font-family="Helvetica,sans-Serif" font-size="10.00">+</text>
<text text-anchor="start" x="17" y="-519.5" font-family="Helvetica,sans-Serif" font-size="10.00">GetIdentifier()</text>
<text text-anchor="start" x="6.5" y="-504.5" font-family="Helvetica,sans-Serif" font-size="10.00">&#45;</text>
<text text-anchor="start" x="17" y="-504.5" font-family="Helvetica,sans-Serif" font-size="10.00">TidyTemplatedExportIdentifier()</text>
<polygon fill="#666666" stroke="#666666" points="0,-559.5 0,-559.5 176,-559.5 176,-559.5 0,-559.5"/>
<polygon fill="#666666" stroke="#666666" points="0,-544.5 0,-544.5 176,-544.5 176,-544.5 0,-544.5"/>
<polygon fill="none" stroke="#666666" points="0,-498 0,-577 176,-577 176,-498 0,-498"/>
</a>
</g>
</g>
<!-- Node4&#45;&gt;Node3 -->
<g id="edge3_Node000003_Node000004" class="edge">
<title>Node4&#45;&gt;Node3</title>
<g id="a_edge3_Node000003_Node000004"><a xlink:title=" ">
<path fill="none" stroke="#63b8ff" d="M88,-487.47C88,-479.44 88,-470.9 88,-462.24"/>
<polygon fill="none" stroke="#63b8ff" points="84.5,-487.7 88,-497.7 91.5,-487.7 84.5,-487.7"/>
</a>
</g>
</g>
</g>
</svg>
