<?xml version="1.0" encoding="UTF-8" standalone="no"?>
<!DOCTYPE svg PUBLIC "-//W3C//DTD SVG 1.1//EN"
 "http://www.w3.org/Graphics/SVG/1.1/DTD/svg11.dtd">
<!-- Generated by graphviz version 2.43.0 (0)
 -->
<!-- Title: GmshMeshReader&lt; ELEMENT_DIM, SPACE_DIM &gt; Pages: 1 -->
<svg width="695pt" height="1056pt"
 viewBox="0.00 0.00 695.00 1056.00" xmlns="http://www.w3.org/2000/svg" xmlns:xlink="http://www.w3.org/1999/xlink">
<g id="graph0" class="graph" transform="scale(1 1) rotate(0) translate(4 1052)">
<title>GmshMeshReader&lt; ELEMENT_DIM, SPACE_DIM &gt;</title>
<!-- Node1 -->
<g id="Node000001" class="node">
<title>Node1</title>
<g id="a_Node000001"><a xlink:title=" ">
<polygon fill="#999999" stroke="transparent" points="414,-315 228,-315 228,0 414,0 414,-315"/>
<text text-anchor="start" x="247.5" y="-302.5" font-family="Helvetica,sans-Serif" font-size="10.00">GmshMeshReader&lt; ELEMENT</text>
<text text-anchor="start" x="272" y="-291.5" font-family="Helvetica,sans-Serif" font-size="10.00">_DIM, SPACE_DIM &gt;</text>
<text text-anchor="start" x="234.5" y="-276.5" font-family="Helvetica,sans-Serif" font-size="10.00">&#45;</text>
<text text-anchor="start" x="245" y="-276.5" font-family="Helvetica,sans-Serif" font-size="10.00">mTotalNumElementsAndFaces</text>
<text text-anchor="start" x="234.5" y="-261.5" font-family="Helvetica,sans-Serif" font-size="10.00">&#45;</text>
<text text-anchor="start" x="245" y="-261.5" font-family="Helvetica,sans-Serif" font-size="10.00">mOrderOfElements</text>
<text text-anchor="start" x="232" y="-246.5" font-family="Helvetica,sans-Serif" font-size="10.00">+</text>
<text text-anchor="start" x="245" y="-246.5" font-family="Helvetica,sans-Serif" font-size="10.00">GmshMeshReader()</text>
<text text-anchor="start" x="232" y="-231.5" font-family="Helvetica,sans-Serif" font-size="10.00">+</text>
<text text-anchor="start" x="245" y="-231.5" font-family="Helvetica,sans-Serif" font-size="10.00">~GmshMeshReader()</text>
<text text-anchor="start" x="232" y="-216.5" font-family="Helvetica,sans-Serif" font-size="10.00">+</text>
<text text-anchor="start" x="245" y="-216.5" font-family="Helvetica,sans-Serif" font-size="10.00">GetNumElements()</text>
<text text-anchor="start" x="232" y="-201.5" font-family="Helvetica,sans-Serif" font-size="10.00">+</text>
<text text-anchor="start" x="245" y="-201.5" font-family="Helvetica,sans-Serif" font-size="10.00">GetNumNodes()</text>
<text text-anchor="start" x="232" y="-186.5" font-family="Helvetica,sans-Serif" font-size="10.00">+</text>
<text text-anchor="start" x="245" y="-186.5" font-family="Helvetica,sans-Serif" font-size="10.00">GetNumFaces()</text>
<text text-anchor="start" x="232" y="-171.5" font-family="Helvetica,sans-Serif" font-size="10.00">+</text>
<text text-anchor="start" x="245" y="-171.5" font-family="Helvetica,sans-Serif" font-size="10.00">GetNumCableElements()</text>
<text text-anchor="start" x="232" y="-156.5" font-family="Helvetica,sans-Serif" font-size="10.00">+</text>
<text text-anchor="start" x="245" y="-156.5" font-family="Helvetica,sans-Serif" font-size="10.00">GetNumElementAttributes()</text>
<text text-anchor="start" x="232" y="-141.5" font-family="Helvetica,sans-Serif" font-size="10.00">+</text>
<text text-anchor="start" x="245" y="-141.5" font-family="Helvetica,sans-Serif" font-size="10.00">GetNumFaceAttributes()</text>
<text text-anchor="start" x="232" y="-126.5" font-family="Helvetica,sans-Serif" font-size="10.00">+</text>
<text text-anchor="start" x="245" y="-126.5" font-family="Helvetica,sans-Serif" font-size="10.00">GetNumCableElementAttributes()</text>
<text text-anchor="start" x="232" y="-111.5" font-family="Helvetica,sans-Serif" font-size="10.00">+</text>
<text text-anchor="start" x="245" y="-111.5" font-family="Helvetica,sans-Serif" font-size="10.00">GetOrderOfElements()</text>
<text text-anchor="start" x="245" y="-96.5" font-family="Helvetica,sans-Serif" font-size="10.00">and 10 more...</text>
<text text-anchor="start" x="234.5" y="-81.5" font-family="Helvetica,sans-Serif" font-size="10.00">&#45;</text>
<text text-anchor="start" x="245" y="-81.5" font-family="Helvetica,sans-Serif" font-size="10.00">ReadHeaders()</text>
<text text-anchor="start" x="234.5" y="-66.5" font-family="Helvetica,sans-Serif" font-size="10.00">&#45;</text>
<text text-anchor="start" x="245" y="-66.5" font-family="Helvetica,sans-Serif" font-size="10.00">ReadNodeHeader()</text>
<text text-anchor="start" x="234.5" y="-51.5" font-family="Helvetica,sans-Serif" font-size="10.00">&#45;</text>
<text text-anchor="start" x="245" y="-51.5" font-family="Helvetica,sans-Serif" font-size="10.00">ReadElementHeader()</text>
<text text-anchor="start" x="234.5" y="-36.5" font-family="Helvetica,sans-Serif" font-size="10.00">&#45;</text>
<text text-anchor="start" x="245" y="-36.5" font-family="Helvetica,sans-Serif" font-size="10.00">ReadFaceHeader()</text>
<text text-anchor="start" x="234.5" y="-21.5" font-family="Helvetica,sans-Serif" font-size="10.00">&#45;</text>
<text text-anchor="start" x="245" y="-21.5" font-family="Helvetica,sans-Serif" font-size="10.00">OpenFiles()</text>
<text text-anchor="start" x="234.5" y="-6.5" font-family="Helvetica,sans-Serif" font-size="10.00">&#45;</text>
<text text-anchor="start" x="245" y="-6.5" font-family="Helvetica,sans-Serif" font-size="10.00">CloseFiles()</text>
<polygon fill="#666666" stroke="#666666" points="228,-286.5 228,-286.5 414,-286.5 414,-286.5 228,-286.5"/>
<polygon fill="#666666" stroke="#666666" points="228,-256.5 228,-256.5 243,-256.5 243,-256.5 228,-256.5"/>
<polygon fill="#666666" stroke="#666666" points="243,-256.5 243,-256.5 414,-256.5 414,-256.5 243,-256.5"/>
<polygon fill="none" stroke="#666666" points="228,0 228,-315 414,-315 414,0 228,0"/>
</a>
</g>
</g>
<!-- Node2 -->
<g id="Node000002" class="node">
<title>Node2</title>
<g id="a_Node000002"><a xlink:href="classAbstractMeshReader.html" target="_top" xlink:title=" ">
<polygon fill="white" stroke="transparent" points="186,-682 0,-682 0,-472 186,-472 186,-682"/>
<text text-anchor="start" x="15.5" y="-670" font-family="Helvetica,sans-Serif" font-size="10.00">AbstractMeshReader</text>
<text text-anchor="start" x="15.5" y="-659" font-family="Helvetica,sans-Serif" font-size="10.00">&lt; ELEMENT_DIM, SPACE_DIM &gt;</text>
<text text-anchor="start" x="91" y="-644" font-family="Helvetica,sans-Serif" font-size="10.00"> </text>
<text text-anchor="start" x="4" y="-629" font-family="Helvetica,sans-Serif" font-size="10.00">+</text>
<text text-anchor="start" x="17" y="-629" font-family="Helvetica,sans-Serif" font-size="10.00">~AbstractMeshReader()</text>
<text text-anchor="start" x="4" y="-614" font-family="Helvetica,sans-Serif" font-size="10.00">+</text>
<text text-anchor="start" x="17" y="-614" font-family="Helvetica,sans-Serif" font-size="10.00">GetNumElements()</text>
<text text-anchor="start" x="4" y="-599" font-family="Helvetica,sans-Serif" font-size="10.00">+</text>
<text text-anchor="start" x="17" y="-599" font-family="Helvetica,sans-Serif" font-size="10.00">GetNumNodes()</text>
<text text-anchor="start" x="4" y="-584" font-family="Helvetica,sans-Serif" font-size="10.00">+</text>
<text text-anchor="start" x="17" y="-584" font-family="Helvetica,sans-Serif" font-size="10.00">GetNumFaces()</text>
<text text-anchor="start" x="4" y="-569" font-family="Helvetica,sans-Serif" font-size="10.00">+</text>
<text text-anchor="start" x="17" y="-569" font-family="Helvetica,sans-Serif" font-size="10.00">GetNumCableElements()</text>
<text text-anchor="start" x="4" y="-554" font-family="Helvetica,sans-Serif" font-size="10.00">+</text>
<text text-anchor="start" x="17" y="-554" font-family="Helvetica,sans-Serif" font-size="10.00">GetNumElementAttributes()</text>
<text text-anchor="start" x="4" y="-539" font-family="Helvetica,sans-Serif" font-size="10.00">+</text>
<text text-anchor="start" x="17" y="-539" font-family="Helvetica,sans-Serif" font-size="10.00">GetNumFaceAttributes()</text>
<text text-anchor="start" x="4" y="-524" font-family="Helvetica,sans-Serif" font-size="10.00">+</text>
<text text-anchor="start" x="17" y="-524" font-family="Helvetica,sans-Serif" font-size="10.00">GetNumCableElementAttributes()</text>
<text text-anchor="start" x="4" y="-509" font-family="Helvetica,sans-Serif" font-size="10.00">+</text>
<text text-anchor="start" x="17" y="-509" font-family="Helvetica,sans-Serif" font-size="10.00">GetNodeAttributes()</text>
<text text-anchor="start" x="4" y="-494" font-family="Helvetica,sans-Serif" font-size="10.00">+</text>
<text text-anchor="start" x="17" y="-494" font-family="Helvetica,sans-Serif" font-size="10.00">GetNumEdges()</text>
<text text-anchor="start" x="17" y="-479" font-family="Helvetica,sans-Serif" font-size="10.00">and 25 more...</text>
<polygon fill="#666666" stroke="#666666" points="0,-654 0,-654 186,-654 186,-654 0,-654"/>
<polygon fill="#666666" stroke="#666666" points="0,-639 0,-639 186,-639 186,-639 0,-639"/>
<polygon fill="none" stroke="#666666" points="0,-472 0,-682 186,-682 186,-472 0,-472"/>
</a>
</g>
</g>
<!-- Node2&#45;&gt;Node1 -->
<g id="edge1_Node000001_Node000002" class="edge">
<title>Node2&#45;&gt;Node1</title>
<g id="a_edge1_Node000001_Node000002"><a xlink:title=" ">
<path fill="none" stroke="#63b8ff" d="M154.71,-463.01C179.53,-417.55 208.58,-364.35 235.4,-315.25"/>
<polygon fill="none" stroke="#63b8ff" points="151.52,-461.54 149.8,-471.99 157.66,-464.89 151.52,-461.54"/>
</a>
</g>
</g>
<!-- Node3 -->
<g id="Node000003" class="node">
<title>Node3</title>
<g id="a_Node000003"><a xlink:title=" ">
<polygon fill="white" stroke="transparent" points="263.5,-601.5 204.5,-601.5 204.5,-552.5 263.5,-552.5 263.5,-601.5"/>
<text text-anchor="start" x="210" y="-589" font-family="Helvetica,sans-Serif" font-size="10.00">std::string</text>
<text text-anchor="start" x="232.5" y="-574" font-family="Helvetica,sans-Serif" font-size="10.00"> </text>
<text text-anchor="start" x="232.5" y="-559" font-family="Helvetica,sans-Serif" font-size="10.00"> </text>
<polygon fill="#666666" stroke="#666666" points="205,-584 205,-584 264,-584 264,-584 205,-584"/>
<polygon fill="#666666" stroke="#666666" points="205,-569 205,-569 264,-569 264,-569 205,-569"/>
<polygon fill="none" stroke="#666666" points="204.5,-552.5 204.5,-601.5 263.5,-601.5 263.5,-552.5 204.5,-552.5"/>
</a>
</g>
</g>
<!-- Node3&#45;&gt;Node1 -->
<g id="edge2_Node000001_Node000003" class="edge">
<title>Node3&#45;&gt;Node1</title>
<g id="a_edge2_Node000001_Node000003"><a xlink:title=" ">
<path fill="none" stroke="#63b8ff" d="M233.24,-552.18C232.36,-508.25 232.93,-411.73 251,-333 251.46,-330.98 251.95,-328.95 252.45,-326.91"/>
<polygon fill="none" stroke="#63b8ff" points="252.48,-326.81 250.14,-319.99 255.53,-315.2 257.87,-322.02 252.48,-326.81"/>
</a>
</g>
<text text-anchor="middle" x="283" y="-391" font-family="Helvetica,sans-Serif" font-size="10.00" fill="grey"> &#45;mFileName</text>
</g>
<!-- Node4 -->
<g id="Node000004" class="node">
<title>Node4</title>
<g id="a_Node000004"><a xlink:title=" ">
<polygon fill="white" stroke="transparent" points="278,-779 180,-779 180,-719 278,-719 278,-779"/>
<text text-anchor="start" x="185" y="-767" font-family="Helvetica,sans-Serif" font-size="10.00">std::basic_string&lt;</text>
<text text-anchor="start" x="210.5" y="-756" font-family="Helvetica,sans-Serif" font-size="10.00"> Char &gt;</text>
<text text-anchor="start" x="227" y="-741" font-family="Helvetica,sans-Serif" font-size="10.00"> </text>
<text text-anchor="start" x="227" y="-726" font-family="Helvetica,sans-Serif" font-size="10.00"> </text>
<polygon fill="#666666" stroke="#666666" points="180,-751 180,-751 278,-751 278,-751 180,-751"/>
<polygon fill="#666666" stroke="#666666" points="180,-736 180,-736 278,-736 278,-736 180,-736"/>
<polygon fill="none" stroke="#666666" points="180,-719 180,-779 278,-779 278,-719 180,-719"/>
</a>
</g>
</g>
<!-- Node4&#45;&gt;Node3 -->
<g id="edge3_Node000003_Node000004" class="edge">
<title>Node4&#45;&gt;Node3</title>
<g id="a_edge3_Node000003_Node000004"><a xlink:title=" ">
<path fill="none" stroke="#63b8ff" d="M230.16,-708.53C231.13,-675.44 232.49,-629.28 233.3,-601.65"/>
<polygon fill="none" stroke="#63b8ff" points="226.66,-708.68 229.86,-718.78 233.65,-708.88 226.66,-708.68"/>
</a>
</g>
</g>
<!-- Node5 -->
<g id="Node000005" class="node">
<title>Node5</title>
<g id="a_Node000005"><a xlink:title=" ">
<polygon fill="white" stroke="transparent" points="368.5,-601.5 295.5,-601.5 295.5,-552.5 368.5,-552.5 368.5,-601.5"/>
<text text-anchor="start" x="301" y="-589" font-family="Helvetica,sans-Serif" font-size="10.00">std::ifstream</text>
<text text-anchor="start" x="330.5" y="-574" font-family="Helvetica,sans-Serif" font-size="10.00"> </text>
<text text-anchor="start" x="330.5" y="-559" font-family="Helvetica,sans-Serif" font-size="10.00"> </text>
<polygon fill="#666666" stroke="#666666" points="296,-584 296,-584 369,-584 369,-584 296,-584"/>
<polygon fill="#666666" stroke="#666666" points="296,-569 296,-569 369,-569 369,-569 296,-569"/>
<polygon fill="none" stroke="#666666" points="295.5,-552.5 295.5,-601.5 368.5,-601.5 368.5,-552.5 295.5,-552.5"/>
</a>
</g>
</g>
<!-- Node5&#45;&gt;Node1 -->
<g id="edge4_Node000001_Node000005" class="edge">
<title>Node5&#45;&gt;Node1</title>
<g id="a_edge4_Node000001_Node000005"><a xlink:title=" ">
<path fill="none" stroke="#63b8ff" d="M329.49,-552.19C327.04,-527.62 323.46,-488.18 322,-454 320.26,-413.06 319.5,-368.91 319.29,-327.53"/>
<polygon fill="none" stroke="#63b8ff" points="319.29,-327.36 315.27,-321.38 319.24,-315.36 323.27,-321.35 319.29,-327.36"/>
</a>
</g>
<text text-anchor="middle" x="359.5" y="-402" font-family="Helvetica,sans-Serif" font-size="10.00" fill="grey"> &#45;mElementFile</text>
<text text-anchor="middle" x="359.5" y="-391" font-family="Helvetica,sans-Serif" font-size="10.00" fill="grey">&#45;mFaceFile</text>
<text text-anchor="middle" x="359.5" y="-380" font-family="Helvetica,sans-Serif" font-size="10.00" fill="grey">&#45;mNodeFile</text>
</g>
<!-- Node6 -->
<g id="Node000006" class="node">
<title>Node6</title>
<g id="a_Node000006"><a xlink:title=" ">
<polygon fill="white" stroke="transparent" points="400,-779 296,-779 296,-719 400,-719 400,-779"/>
<text text-anchor="start" x="301" y="-767" font-family="Helvetica,sans-Serif" font-size="10.00">std::basic_ifstream</text>
<text text-anchor="start" x="325" y="-756" font-family="Helvetica,sans-Serif" font-size="10.00">&lt; Char &gt;</text>
<text text-anchor="start" x="346" y="-741" font-family="Helvetica,sans-Serif" font-size="10.00"> </text>
<text text-anchor="start" x="346" y="-726" font-family="Helvetica,sans-Serif" font-size="10.00"> </text>
<polygon fill="#666666" stroke="#666666" points="296,-751 296,-751 400,-751 400,-751 296,-751"/>
<polygon fill="#666666" stroke="#666666" points="296,-736 296,-736 400,-736 400,-736 296,-736"/>
<polygon fill="none" stroke="#666666" points="296,-719 296,-779 400,-779 400,-719 296,-719"/>
</a>
</g>
</g>
<!-- Node6&#45;&gt;Node5 -->
<g id="edge5_Node000005_Node000006" class="edge">
<title>Node6&#45;&gt;Node5</title>
<g id="a_edge5_Node000005_Node000006"><a xlink:title=" ">
<path fill="none" stroke="#63b8ff" d="M344.29,-708.53C341.17,-675.44 336.83,-629.28 334.23,-601.65"/>
<polygon fill="none" stroke="#63b8ff" points="340.83,-709.15 345.25,-718.78 347.8,-708.49 340.83,-709.15"/>
</a>
</g>
</g>
<!-- Node7 -->
<g id="Node000007" class="node">
<title>Node7</title>
<g id="a_Node000007"><a xlink:title=" ">
<polygon fill="white" stroke="transparent" points="398,-876 298,-876 298,-816 398,-816 398,-876"/>
<text text-anchor="start" x="303" y="-864" font-family="Helvetica,sans-Serif" font-size="10.00">std::basic_istream</text>
<text text-anchor="start" x="325" y="-853" font-family="Helvetica,sans-Serif" font-size="10.00">&lt; Char &gt;</text>
<text text-anchor="start" x="346" y="-838" font-family="Helvetica,sans-Serif" font-size="10.00"> </text>
<text text-anchor="start" x="346" y="-823" font-family="Helvetica,sans-Serif" font-size="10.00"> </text>
<polygon fill="#666666" stroke="#666666" points="298,-848 298,-848 398,-848 398,-848 298,-848"/>
<polygon fill="#666666" stroke="#666666" points="298,-833 298,-833 398,-833 398,-833 298,-833"/>
<polygon fill="none" stroke="#666666" points="298,-816 298,-876 398,-876 398,-816 298,-816"/>
</a>
</g>
</g>
<!-- Node7&#45;&gt;Node6 -->
<g id="edge6_Node000006_Node000007" class="edge">
<title>Node7&#45;&gt;Node6</title>
<g id="a_edge6_Node000006_Node000007"><a xlink:title=" ">
<path fill="none" stroke="#63b8ff" d="M348,-805.79C348,-796.88 348,-787.57 348,-779.17"/>
<polygon fill="none" stroke="#63b8ff" points="344.5,-805.98 348,-815.98 351.5,-805.98 344.5,-805.98"/>
</a>
</g>
</g>
<!-- Node8 -->
<g id="Node000008" class="node">
<title>Node8</title>
<g id="a_Node000008"><a xlink:title=" ">
<polygon fill="white" stroke="transparent" points="409,-962 287,-962 287,-913 409,-913 409,-962"/>
<text text-anchor="start" x="292" y="-949.5" font-family="Helvetica,sans-Serif" font-size="10.00">std::basic_ios&lt; Char &gt;</text>
<text text-anchor="start" x="346" y="-934.5" font-family="Helvetica,sans-Serif" font-size="10.00"> </text>
<text text-anchor="start" x="346" y="-919.5" font-family="Helvetica,sans-Serif" font-size="10.00"> </text>
<polygon fill="#666666" stroke="#666666" points="287,-944.5 287,-944.5 409,-944.5 409,-944.5 287,-944.5"/>
<polygon fill="#666666" stroke="#666666" points="287,-929.5 287,-929.5 409,-929.5 409,-929.5 287,-929.5"/>
<polygon fill="none" stroke="#666666" points="287,-913 287,-962 409,-962 409,-913 287,-913"/>
</a>
</g>
</g>
<!-- Node8&#45;&gt;Node7 -->
<g id="edge7_Node000007_Node000008" class="edge">
<title>Node8&#45;&gt;Node7</title>
<g id="a_edge7_Node000007_Node000008"><a xlink:title=" ">
<path fill="none" stroke="#63b8ff" d="M348,-902.7C348,-893.95 348,-884.6 348,-876.12"/>
<polygon fill="none" stroke="#63b8ff" points="344.5,-902.98 348,-912.98 351.5,-902.98 344.5,-902.98"/>
</a>
</g>
</g>
<!-- Node9 -->
<g id="Node000009" class="node">
<title>Node9</title>
<g id="a_Node000009"><a xlink:title=" ">
<polygon fill="white" stroke="transparent" points="385,-1048 311,-1048 311,-999 385,-999 385,-1048"/>
<text text-anchor="start" x="316" y="-1035.5" font-family="Helvetica,sans-Serif" font-size="10.00">std::ios_base</text>
<text text-anchor="start" x="346" y="-1020.5" font-family="Helvetica,sans-Serif" font-size="10.00"> </text>
<text text-anchor="start" x="346" y="-1005.5" font-family="Helvetica,sans-Serif" font-size="10.00"> </text>
<polygon fill="#666666" stroke="#666666" points="311,-1030.5 311,-1030.5 385,-1030.5 385,-1030.5 311,-1030.5"/>
<polygon fill="#666666" stroke="#666666" points="311,-1015.5 311,-1015.5 385,-1015.5 385,-1015.5 311,-1015.5"/>
<polygon fill="none" stroke="#666666" points="311,-999 311,-1048 385,-1048 385,-999 311,-999"/>
</a>
</g>
</g>
<!-- Node9&#45;&gt;Node8 -->
<g id="edge8_Node000008_Node000009" class="edge">
<title>Node9&#45;&gt;Node8</title>
<g id="a_edge8_Node000008_Node000009"><a xlink:title=" ">
<path fill="none" stroke="#63b8ff" d="M348,-988.57C348,-979.69 348,-970.32 348,-962.12"/>
<polygon fill="none" stroke="#63b8ff" points="344.5,-988.65 348,-998.65 351.5,-988.65 344.5,-988.65"/>
</a>
</g>
</g>
<!-- Node10 -->
<g id="Node000010" class="node">
<title>Node10</title>
<g id="a_Node000010"><a xlink:href="classdouble.html" target="_top" xlink:title=" ">
<polygon fill="white" stroke="transparent" points="441,-601.5 397,-601.5 397,-552.5 441,-552.5 441,-601.5"/>
<text text-anchor="start" x="402" y="-589" font-family="Helvetica,sans-Serif" font-size="10.00">double</text>
<text text-anchor="start" x="417" y="-574" font-family="Helvetica,sans-Serif" font-size="10.00"> </text>
<text text-anchor="start" x="417" y="-559" font-family="Helvetica,sans-Serif" font-size="10.00"> </text>
<polygon fill="#bfbfbf" stroke="#bfbfbf" points="397,-584 397,-584 441,-584 441,-584 397,-584"/>
<polygon fill="#bfbfbf" stroke="#bfbfbf" points="397,-569 397,-569 441,-569 441,-569 397,-569"/>
<polygon fill="none" stroke="#bfbfbf" points="397,-552.5 397,-601.5 441,-601.5 441,-552.5 397,-552.5"/>
</a>
</g>
</g>
<!-- Node10&#45;&gt;Node1 -->
<g id="edge9_Node000001_Node000010" class="edge">
<title>Node10&#45;&gt;Node1</title>
<g id="a_edge9_Node000001_Node000010"><a xlink:title=" ">
<path fill="none" stroke="#63b8ff" d="M419.34,-552.46C419.44,-508.58 417.11,-411.59 397,-333 396.48,-330.96 395.94,-328.92 395.38,-326.87"/>
<polygon fill="none" stroke="#63b8ff" points="395.3,-326.63 389.79,-321.98 391.95,-315.11 397.47,-319.75 395.3,-326.63"/>
</a>
</g>
<text text-anchor="middle" x="461" y="-391" font-family="Helvetica,sans-Serif" font-size="10.00" fill="grey"> &#45;mVersionNumber</text>
</g>
<!-- Node11 -->
<g id="Node000011" class="node">
<title>Node11</title>
<g id="a_Node000011"><a xlink:href="classunsigned.html" target="_top" xlink:title=" ">
<polygon fill="white" stroke="transparent" points="561.5,-601.5 506.5,-601.5 506.5,-552.5 561.5,-552.5 561.5,-601.5"/>
<text text-anchor="start" x="512" y="-589" font-family="Helvetica,sans-Serif" font-size="10.00">unsigned</text>
<text text-anchor="start" x="532.5" y="-574" font-family="Helvetica,sans-Serif" font-size="10.00"> </text>
<text text-anchor="start" x="532.5" y="-559" font-family="Helvetica,sans-Serif" font-size="10.00"> </text>
<polygon fill="#bfbfbf" stroke="#bfbfbf" points="507,-584 507,-584 562,-584 562,-584 507,-584"/>
<polygon fill="#bfbfbf" stroke="#bfbfbf" points="507,-569 507,-569 562,-569 562,-569 507,-569"/>
<polygon fill="none" stroke="#bfbfbf" points="506.5,-552.5 506.5,-601.5 561.5,-601.5 561.5,-552.5 506.5,-552.5"/>
</a>
</g>
</g>
<!-- Node11&#45;&gt;Node1 -->
<g id="edge10_Node000001_Node000011" class="edge">
<title>Node11&#45;&gt;Node1</title>
<g id="a_edge10_Node000001_Node000011"><a xlink:title=" ">
<path fill="none" stroke="#63b8ff" d="M537.12,-552.4C541.98,-507.16 547.39,-406.24 511,-333 490.87,-292.49 457.05,-256.78 423.47,-228.39"/>
<polygon fill="none" stroke="#63b8ff" points="423.27,-228.22 416.1,-227.49 414.02,-220.58 421.19,-221.32 423.27,-228.22"/>
</a>
</g>
<text text-anchor="middle" x="613" y="-446" font-family="Helvetica,sans-Serif" font-size="10.00" fill="grey"> &#45;mDataSize</text>
<text text-anchor="middle" x="613" y="-435" font-family="Helvetica,sans-Serif" font-size="10.00" fill="grey">&#45;mFileType</text>
<text text-anchor="middle" x="613" y="-424" font-family="Helvetica,sans-Serif" font-size="10.00" fill="grey">&#45;mNodesPerBoundaryElement</text>
<text text-anchor="middle" x="613" y="-413" font-family="Helvetica,sans-Serif" font-size="10.00" fill="grey">&#45;mNodesPerElement</text>
<text text-anchor="middle" x="613" y="-402" font-family="Helvetica,sans-Serif" font-size="10.00" fill="grey">&#45;mNumElementAttributes</text>
<text text-anchor="middle" x="613" y="-391" font-family="Helvetica,sans-Serif" font-size="10.00" fill="grey">&#45;mNumElements</text>
<text text-anchor="middle" x="613" y="-380" font-family="Helvetica,sans-Serif" font-size="10.00" fill="grey">&#45;mNumFaceAttributes</text>
<text text-anchor="middle" x="613" y="-369" font-family="Helvetica,sans-Serif" font-size="10.00" fill="grey">&#45;mNumFaces</text>
<text text-anchor="middle" x="613" y="-358" font-family="Helvetica,sans-Serif" font-size="10.00" fill="grey">&#45;mNumNodes</text>
<text text-anchor="middle" x="613" y="-347" font-family="Helvetica,sans-Serif" font-size="10.00" fill="grey">&#45;mOrderOfBoundaryElements</text>
<text text-anchor="middle" x="613" y="-336" font-family="Helvetica,sans-Serif" font-size="10.00" fill="grey">...</text>
</g>
</g>
</svg>
