<?xml version="1.0" encoding="UTF-8" standalone="no"?>
<!DOCTYPE svg PUBLIC "-//W3C//DTD SVG 1.1//EN"
 "http://www.w3.org/Graphics/SVG/1.1/DTD/svg11.dtd">
<!-- Generated by graphviz version 2.43.0 (0)
 -->
<!-- Title: CellPropertyCollection Pages: 1 -->
<svg width="514pt" height="860pt"
 viewBox="0.00 0.00 514.00 860.00" xmlns="http://www.w3.org/2000/svg" xmlns:xlink="http://www.w3.org/1999/xlink">
<g id="graph0" class="graph" transform="scale(1 1) rotate(0) translate(4 856)">
<title>CellPropertyCollection</title>
<!-- Node1 -->
<g id="Node000001" class="node">
<title>Node1</title>
<g id="a_Node000001"><a xlink:title=" ">
<polygon fill="#999999" stroke="transparent" points="171.5,-274 24.5,-274 24.5,0 171.5,0 171.5,-274"/>
<text text-anchor="start" x="44" y="-262" font-family="Helvetica,sans-Serif" font-size="10.00">CellPropertyCollection</text>
<text text-anchor="start" x="96.5" y="-247" font-family="Helvetica,sans-Serif" font-size="10.00"> </text>
<text text-anchor="start" x="29" y="-232" font-family="Helvetica,sans-Serif" font-size="10.00">+</text>
<text text-anchor="start" x="42" y="-232" font-family="Helvetica,sans-Serif" font-size="10.00">CellPropertyCollection()</text>
<text text-anchor="start" x="29" y="-217" font-family="Helvetica,sans-Serif" font-size="10.00">+</text>
<text text-anchor="start" x="42" y="-217" font-family="Helvetica,sans-Serif" font-size="10.00">AddProperty()</text>
<text text-anchor="start" x="29" y="-202" font-family="Helvetica,sans-Serif" font-size="10.00">+</text>
<text text-anchor="start" x="42" y="-202" font-family="Helvetica,sans-Serif" font-size="10.00">GetCellPropertyRegistry()</text>
<text text-anchor="start" x="29" y="-187" font-family="Helvetica,sans-Serif" font-size="10.00">+</text>
<text text-anchor="start" x="42" y="-187" font-family="Helvetica,sans-Serif" font-size="10.00">SetCellPropertyRegistry()</text>
<text text-anchor="start" x="29" y="-172" font-family="Helvetica,sans-Serif" font-size="10.00">+</text>
<text text-anchor="start" x="42" y="-172" font-family="Helvetica,sans-Serif" font-size="10.00">HasProperty()</text>
<text text-anchor="start" x="29" y="-157" font-family="Helvetica,sans-Serif" font-size="10.00">+</text>
<text text-anchor="start" x="42" y="-157" font-family="Helvetica,sans-Serif" font-size="10.00">HasProperty()</text>
<text text-anchor="start" x="29" y="-142" font-family="Helvetica,sans-Serif" font-size="10.00">+</text>
<text text-anchor="start" x="42" y="-142" font-family="Helvetica,sans-Serif" font-size="10.00">HasPropertyType()</text>
<text text-anchor="start" x="29" y="-127" font-family="Helvetica,sans-Serif" font-size="10.00">+</text>
<text text-anchor="start" x="42" y="-127" font-family="Helvetica,sans-Serif" font-size="10.00">RemoveProperty()</text>
<text text-anchor="start" x="29" y="-112" font-family="Helvetica,sans-Serif" font-size="10.00">+</text>
<text text-anchor="start" x="42" y="-112" font-family="Helvetica,sans-Serif" font-size="10.00">RemoveProperty()</text>
<text text-anchor="start" x="29" y="-97" font-family="Helvetica,sans-Serif" font-size="10.00">+</text>
<text text-anchor="start" x="42" y="-97" font-family="Helvetica,sans-Serif" font-size="10.00">GetSize()</text>
<text text-anchor="start" x="29" y="-82" font-family="Helvetica,sans-Serif" font-size="10.00">+</text>
<text text-anchor="start" x="42" y="-82" font-family="Helvetica,sans-Serif" font-size="10.00">Begin()</text>
<text text-anchor="start" x="29" y="-67" font-family="Helvetica,sans-Serif" font-size="10.00">+</text>
<text text-anchor="start" x="42" y="-67" font-family="Helvetica,sans-Serif" font-size="10.00">End()</text>
<text text-anchor="start" x="29" y="-52" font-family="Helvetica,sans-Serif" font-size="10.00">+</text>
<text text-anchor="start" x="42" y="-52" font-family="Helvetica,sans-Serif" font-size="10.00">GetProperty()</text>
<text text-anchor="start" x="29" y="-37" font-family="Helvetica,sans-Serif" font-size="10.00">+</text>
<text text-anchor="start" x="42" y="-37" font-family="Helvetica,sans-Serif" font-size="10.00">GetProperties()</text>
<text text-anchor="start" x="29" y="-22" font-family="Helvetica,sans-Serif" font-size="10.00">+</text>
<text text-anchor="start" x="42" y="-22" font-family="Helvetica,sans-Serif" font-size="10.00">GetPropertiesType()</text>
<text text-anchor="start" x="31.5" y="-7" font-family="Helvetica,sans-Serif" font-size="10.00">&#45;</text>
<text text-anchor="start" x="42" y="-7" font-family="Helvetica,sans-Serif" font-size="10.00">serialize()</text>
<polygon fill="#666666" stroke="#666666" points="25,-257 25,-257 172,-257 172,-257 25,-257"/>
<polygon fill="#666666" stroke="#666666" points="25,-242 25,-242 172,-242 172,-242 25,-242"/>
<polygon fill="none" stroke="#666666" points="24.5,0 24.5,-274 171.5,-274 171.5,0 24.5,0"/>
</a>
</g>
</g>
<!-- Node2 -->
<g id="Node000002" class="node">
<title>Node2</title>
<g id="a_Node000002"><a xlink:title=" ">
<polygon fill="white" stroke="transparent" points="164,-632.5 0,-632.5 0,-572.5 164,-572.5 164,-632.5"/>
<text text-anchor="start" x="5" y="-620.5" font-family="Helvetica,sans-Serif" font-size="10.00">std::set&lt; boost::shared</text>
<text text-anchor="start" x="5" y="-609.5" font-family="Helvetica,sans-Serif" font-size="10.00">_ptr&lt; AbstractCellProperty &gt; &gt;</text>
<text text-anchor="start" x="80" y="-594.5" font-family="Helvetica,sans-Serif" font-size="10.00"> </text>
<text text-anchor="start" x="80" y="-579.5" font-family="Helvetica,sans-Serif" font-size="10.00"> </text>
<polygon fill="#666666" stroke="#666666" points="0,-604.5 0,-604.5 164,-604.5 164,-604.5 0,-604.5"/>
<polygon fill="#666666" stroke="#666666" points="0,-589.5 0,-589.5 164,-589.5 164,-589.5 0,-589.5"/>
<polygon fill="none" stroke="#666666" points="0,-572.5 0,-632.5 164,-632.5 164,-572.5 0,-572.5"/>
</a>
</g>
</g>
<!-- Node2&#45;&gt;Node1 -->
<g id="edge1_Node000001_Node000002" class="edge">
<title>Node2&#45;&gt;Node1</title>
<g id="a_edge1_Node000001_Node000002"><a xlink:title=" ">
<path fill="none" stroke="#63b8ff" d="M83.01,-572.15C84.96,-515.69 89.35,-388.45 92.88,-286.24"/>
<polygon fill="none" stroke="#63b8ff" points="92.88,-286.21 89.09,-280.08 93.3,-274.22 97.09,-280.35 92.88,-286.21"/>
</a>
</g>
<text text-anchor="middle" x="125.5" y="-418" font-family="Helvetica,sans-Serif" font-size="10.00" fill="grey"> &#45;mProperties</text>
</g>
<!-- Node3 -->
<g id="Node000003" class="node">
<title>Node3</title>
<g id="a_Node000003"><a xlink:title=" ">
<polygon fill="white" stroke="transparent" points="305.5,-756 172.5,-756 172.5,-696 305.5,-696 305.5,-756"/>
<text text-anchor="start" x="178" y="-744" font-family="Helvetica,sans-Serif" font-size="10.00">shared_ptr&lt; AbstractCell</text>
<text text-anchor="start" x="213" y="-733" font-family="Helvetica,sans-Serif" font-size="10.00">Property &gt;</text>
<text text-anchor="start" x="237.5" y="-718" font-family="Helvetica,sans-Serif" font-size="10.00"> </text>
<text text-anchor="start" x="237.5" y="-703" font-family="Helvetica,sans-Serif" font-size="10.00"> </text>
<polygon fill="#bfbfbf" stroke="#bfbfbf" points="173,-728 173,-728 306,-728 306,-728 173,-728"/>
<polygon fill="#bfbfbf" stroke="#bfbfbf" points="173,-713 173,-713 306,-713 306,-713 173,-713"/>
<polygon fill="none" stroke="#bfbfbf" points="172.5,-696 172.5,-756 305.5,-756 305.5,-696 172.5,-696"/>
</a>
</g>
</g>
<!-- Node3&#45;&gt;Node2 -->
<g id="edge2_Node000002_Node000003" class="edge">
<title>Node3&#45;&gt;Node2</title>
<g id="a_edge2_Node000002_Node000003"><a xlink:title=" ">
<path fill="none" stroke="#63b8ff" d="M233.69,-695.87C229.92,-682.29 223.57,-666.79 213,-656 210.96,-653.91 192.25,-646.09 169.57,-637.1"/>
<polygon fill="none" stroke="#63b8ff" points="169.35,-637.01 162.3,-638.53 158.18,-632.61 165.23,-631.09 169.35,-637.01"/>
</a>
</g>
<text text-anchor="middle" x="244" y="-664.5" font-family="Helvetica,sans-Serif" font-size="10.00" fill="grey"> +keys</text>
</g>
<!-- Node7 -->
<g id="Node000007" class="node">
<title>Node7</title>
<g id="a_Node000007"><a xlink:title=" ">
<polygon fill="white" stroke="transparent" points="439.5,-638 300.5,-638 300.5,-567 439.5,-567 439.5,-638"/>
<text text-anchor="start" x="306" y="-625.5" font-family="Helvetica,sans-Serif" font-size="10.00">std::vector&lt; boost</text>
<text text-anchor="start" x="306" y="-614.5" font-family="Helvetica,sans-Serif" font-size="10.00">::shared_ptr&lt; AbstractCell</text>
<text text-anchor="start" x="338.5" y="-603.5" font-family="Helvetica,sans-Serif" font-size="10.00">Property &gt; &gt;</text>
<text text-anchor="start" x="368.5" y="-588.5" font-family="Helvetica,sans-Serif" font-size="10.00"> </text>
<text text-anchor="start" x="368.5" y="-573.5" font-family="Helvetica,sans-Serif" font-size="10.00"> </text>
<polygon fill="#666666" stroke="#666666" points="301,-598.5 301,-598.5 440,-598.5 440,-598.5 301,-598.5"/>
<polygon fill="#666666" stroke="#666666" points="301,-583.5 301,-583.5 440,-583.5 440,-583.5 301,-583.5"/>
<polygon fill="none" stroke="#666666" points="300.5,-567 300.5,-638 439.5,-638 439.5,-567 300.5,-567"/>
</a>
</g>
</g>
<!-- Node3&#45;&gt;Node7 -->
<g id="edge8_Node000007_Node000003" class="edge">
<title>Node3&#45;&gt;Node7</title>
<g id="a_edge8_Node000007_Node000003"><a xlink:title=" ">
<path fill="none" stroke="#63b8ff" d="M267.86,-695.68C280.33,-683.25 295.19,-668.72 309,-656 312.48,-652.79 316.12,-649.51 319.79,-646.23"/>
<polygon fill="none" stroke="#63b8ff" points="319.97,-646.07 321.83,-639.11 328.98,-638.14 327.12,-645.11 319.97,-646.07"/>
</a>
</g>
<text text-anchor="middle" x="338" y="-664.5" font-family="Helvetica,sans-Serif" font-size="10.00" fill="grey"> +elements</text>
</g>
<!-- Node4 -->
<g id="Node000004" class="node">
<title>Node4</title>
<g id="a_Node000004"><a xlink:title=" ">
<polygon fill="white" stroke="transparent" points="115,-750.5 39,-750.5 39,-701.5 115,-701.5 115,-750.5"/>
<text text-anchor="start" x="44" y="-738" font-family="Helvetica,sans-Serif" font-size="10.00">std::set&lt; K &gt;</text>
<text text-anchor="start" x="75" y="-723" font-family="Helvetica,sans-Serif" font-size="10.00"> </text>
<text text-anchor="start" x="75" y="-708" font-family="Helvetica,sans-Serif" font-size="10.00"> </text>
<polygon fill="#666666" stroke="#666666" points="39,-733 39,-733 115,-733 115,-733 39,-733"/>
<polygon fill="#666666" stroke="#666666" points="39,-718 39,-718 115,-718 115,-718 39,-718"/>
<polygon fill="none" stroke="#666666" points="39,-701.5 39,-750.5 115,-750.5 115,-701.5 39,-701.5"/>
</a>
</g>
</g>
<!-- Node4&#45;&gt;Node2 -->
<g id="edge3_Node000002_Node000004" class="edge">
<title>Node4&#45;&gt;Node2</title>
<g id="a_edge3_Node000002_Node000004"><a xlink:title=" ">
<path fill="none" stroke="orange" d="M77.08,-691.12C77.21,-679.93 77.48,-667.43 78,-656 78.34,-648.42 78.88,-640.24 79.46,-632.64"/>
<polygon fill="orange" stroke="orange" points="73.57,-691.33 76.98,-701.36 80.57,-691.39 73.57,-691.33"/>
</a>
</g>
<text text-anchor="start" x="78" y="-670" font-family="Helvetica,sans-Serif" font-size="10.00" fill="grey"> &lt; boost::shared_ptr</text>
<text text-anchor="middle" x="145.5" y="-659" font-family="Helvetica,sans-Serif" font-size="10.00" fill="grey">&lt; AbstractCellProperty &gt; &gt;</text>
</g>
<!-- Node5 -->
<g id="Node000005" class="node">
<title>Node5</title>
<g id="a_Node000005"><a xlink:title=" ">
<polygon fill="white" stroke="transparent" points="85.5,-852 68.5,-852 68.5,-803 85.5,-803 85.5,-852"/>
<text text-anchor="start" x="74" y="-839.5" font-family="Helvetica,sans-Serif" font-size="10.00">K</text>
<text text-anchor="start" x="75.5" y="-824.5" font-family="Helvetica,sans-Serif" font-size="10.00"> </text>
<text text-anchor="start" x="75.5" y="-809.5" font-family="Helvetica,sans-Serif" font-size="10.00"> </text>
<polygon fill="#bfbfbf" stroke="#bfbfbf" points="69,-834.5 69,-834.5 86,-834.5 86,-834.5 69,-834.5"/>
<polygon fill="#bfbfbf" stroke="#bfbfbf" points="69,-819.5 69,-819.5 86,-819.5 86,-819.5 69,-819.5"/>
<polygon fill="none" stroke="#bfbfbf" points="68.5,-803 68.5,-852 85.5,-852 85.5,-803 68.5,-803"/>
</a>
</g>
</g>
<!-- Node5&#45;&gt;Node4 -->
<g id="edge4_Node000004_Node000005" class="edge">
<title>Node5&#45;&gt;Node4</title>
<g id="a_edge4_Node000004_Node000005"><a xlink:title=" ">
<path fill="none" stroke="#63b8ff" d="M77,-802.92C77,-790.99 77,-776.25 77,-762.94"/>
<polygon fill="none" stroke="#63b8ff" points="77,-762.76 73,-756.76 77,-750.76 81,-756.76 77,-762.76"/>
</a>
</g>
<text text-anchor="middle" x="94" y="-777" font-family="Helvetica,sans-Serif" font-size="10.00" fill="grey"> +keys</text>
</g>
<!-- Node6 -->
<g id="Node000006" class="node">
<title>Node6</title>
<g id="a_Node000006"><a xlink:href="classCellPropertyRegistry.html" target="_top" xlink:title=" ">
<polygon fill="white" stroke="transparent" points="326.5,-520 167.5,-520 167.5,-321 326.5,-321 326.5,-520"/>
<text text-anchor="start" x="197" y="-507.5" font-family="Helvetica,sans-Serif" font-size="10.00">CellPropertyRegistry</text>
<text text-anchor="start" x="245.5" y="-492.5" font-family="Helvetica,sans-Serif" font-size="10.00"> </text>
<text text-anchor="start" x="172" y="-477.5" font-family="Helvetica,sans-Serif" font-size="10.00">+</text>
<text text-anchor="start" x="185" y="-477.5" font-family="Helvetica,sans-Serif" font-size="10.00">Get()</text>
<text text-anchor="start" x="172" y="-462.5" font-family="Helvetica,sans-Serif" font-size="10.00">+</text>
<text text-anchor="start" x="185" y="-462.5" font-family="Helvetica,sans-Serif" font-size="10.00">rGetAllCellProperties()</text>
<text text-anchor="start" x="172" y="-447.5" font-family="Helvetica,sans-Serif" font-size="10.00">+</text>
<text text-anchor="start" x="185" y="-447.5" font-family="Helvetica,sans-Serif" font-size="10.00">Clear()</text>
<text text-anchor="start" x="172" y="-432.5" font-family="Helvetica,sans-Serif" font-size="10.00">+</text>
<text text-anchor="start" x="185" y="-432.5" font-family="Helvetica,sans-Serif" font-size="10.00">TakeOwnership()</text>
<text text-anchor="start" x="172" y="-417.5" font-family="Helvetica,sans-Serif" font-size="10.00">+</text>
<text text-anchor="start" x="185" y="-417.5" font-family="Helvetica,sans-Serif" font-size="10.00">SpecifyOrdering()</text>
<text text-anchor="start" x="172" y="-402.5" font-family="Helvetica,sans-Serif" font-size="10.00">+</text>
<text text-anchor="start" x="185" y="-402.5" font-family="Helvetica,sans-Serif" font-size="10.00">HasOrderingBeenSpecified()</text>
<text text-anchor="start" x="172" y="-387.5" font-family="Helvetica,sans-Serif" font-size="10.00">+</text>
<text text-anchor="start" x="185" y="-387.5" font-family="Helvetica,sans-Serif" font-size="10.00">Instance()</text>
<text text-anchor="start" x="174.5" y="-372.5" font-family="Helvetica,sans-Serif" font-size="10.00">&#45;</text>
<text text-anchor="start" x="185" y="-372.5" font-family="Helvetica,sans-Serif" font-size="10.00">CellPropertyRegistry()</text>
<text text-anchor="start" x="174.5" y="-357.5" font-family="Helvetica,sans-Serif" font-size="10.00">&#45;</text>
<text text-anchor="start" x="185" y="-357.5" font-family="Helvetica,sans-Serif" font-size="10.00">CellPropertyRegistry()</text>
<text text-anchor="start" x="174.5" y="-342.5" font-family="Helvetica,sans-Serif" font-size="10.00">&#45;</text>
<text text-anchor="start" x="185" y="-342.5" font-family="Helvetica,sans-Serif" font-size="10.00">operator=()</text>
<text text-anchor="start" x="174.5" y="-327.5" font-family="Helvetica,sans-Serif" font-size="10.00">&#45;</text>
<text text-anchor="start" x="185" y="-327.5" font-family="Helvetica,sans-Serif" font-size="10.00">serialize()</text>
<polygon fill="#666666" stroke="#666666" points="168,-502.5 168,-502.5 327,-502.5 327,-502.5 168,-502.5"/>
<polygon fill="#666666" stroke="#666666" points="168,-487.5 168,-487.5 327,-487.5 327,-487.5 168,-487.5"/>
<polygon fill="none" stroke="#666666" points="167.5,-321 167.5,-520 326.5,-520 326.5,-321 167.5,-321"/>
</a>
</g>
</g>
<!-- Node6&#45;&gt;Node1 -->
<g id="edge5_Node000001_Node000006" class="edge">
<title>Node6&#45;&gt;Node1</title>
<g id="a_edge5_Node000001_Node000006"><a xlink:title=" ">
<path fill="none" stroke="#63b8ff" d="M194.68,-320.65C188.52,-309.01 182.13,-296.95 175.72,-284.83"/>
<polygon fill="none" stroke="#63b8ff" points="175.69,-284.77 169.35,-281.34 170.08,-274.17 176.42,-277.6 175.69,-284.77"/>
</a>
</g>
<text text-anchor="middle" x="243" y="-295" font-family="Helvetica,sans-Serif" font-size="10.00" fill="grey"> &#45;mpCellPropertyRegistry</text>
</g>
<!-- Node6&#45;&gt;Node6 -->
<g id="edge6_Node000006_Node000006" class="edge">
<title>Node6&#45;&gt;Node6</title>
<g id="a_edge6_Node000006_Node000006"><a xlink:title=" ">
<path fill="none" stroke="#63b8ff" d="M326.57,-440.79C337.33,-437.39 344.5,-430.63 344.5,-420.5 344.5,-414.33 341.84,-409.41 337.32,-405.73"/>
<polygon fill="none" stroke="#63b8ff" points="337.24,-405.69 330.08,-406.51 326.57,-400.21 333.74,-399.39 337.24,-405.69"/>
</a>
</g>
<text text-anchor="middle" x="376.5" y="-418" font-family="Helvetica,sans-Serif" font-size="10.00" fill="grey"> &#45;mpInstance</text>
</g>
<!-- Node7&#45;&gt;Node6 -->
<g id="edge7_Node000006_Node000007" class="edge">
<title>Node7&#45;&gt;Node6</title>
<g id="a_edge7_Node000006_Node000007"><a xlink:title=" ">
<path fill="none" stroke="#63b8ff" d="M360.65,-566.84C357.34,-557.17 353.14,-546.89 348,-538 343.72,-530.59 338.93,-523.21 333.83,-515.98"/>
<polygon fill="none" stroke="#63b8ff" points="333.78,-515.9 327.01,-513.42 326.7,-506.21 333.47,-508.7 333.78,-515.9"/>
</a>
</g>
<text text-anchor="middle" x="395.5" y="-541" font-family="Helvetica,sans-Serif" font-size="10.00" fill="grey"> &#45;mCellProperties</text>
</g>
<!-- Node8 -->
<g id="Node000008" class="node">
<title>Node8</title>
<g id="a_Node000008"><a xlink:title=" ">
<polygon fill="white" stroke="transparent" points="418.5,-750.5 327.5,-750.5 327.5,-701.5 418.5,-701.5 418.5,-750.5"/>
<text text-anchor="start" x="333" y="-738" font-family="Helvetica,sans-Serif" font-size="10.00">std::vector&lt; T &gt;</text>
<text text-anchor="start" x="371.5" y="-723" font-family="Helvetica,sans-Serif" font-size="10.00"> </text>
<text text-anchor="start" x="371.5" y="-708" font-family="Helvetica,sans-Serif" font-size="10.00"> </text>
<polygon fill="#666666" stroke="#666666" points="328,-733 328,-733 419,-733 419,-733 328,-733"/>
<polygon fill="#666666" stroke="#666666" points="328,-718 328,-718 419,-718 419,-718 328,-718"/>
<polygon fill="none" stroke="#666666" points="327.5,-701.5 327.5,-750.5 418.5,-750.5 418.5,-701.5 327.5,-701.5"/>
</a>
</g>
</g>
<!-- Node8&#45;&gt;Node7 -->
<g id="edge9_Node000007_Node000008" class="edge">
<title>Node8&#45;&gt;Node7</title>
<g id="a_edge9_Node000007_Node000008"><a xlink:title=" ">
<path fill="none" stroke="orange" d="M372.16,-691C371.75,-674.52 371.27,-654.76 370.86,-638.2"/>
<polygon fill="orange" stroke="orange" points="368.67,-691.37 372.41,-701.29 375.67,-691.2 368.67,-691.37"/>
</a>
</g>
<text text-anchor="start" x="371" y="-670" font-family="Helvetica,sans-Serif" font-size="10.00" fill="grey"> &lt; boost::shared_ptr</text>
<text text-anchor="middle" x="438.5" y="-659" font-family="Helvetica,sans-Serif" font-size="10.00" fill="grey">&lt; AbstractCellProperty &gt; &gt;</text>
</g>
<!-- Node9 -->
<g id="Node000009" class="node">
<title>Node9</title>
<g id="a_Node000009"><a xlink:title=" ">
<polygon fill="white" stroke="transparent" points="381.5,-852 364.5,-852 364.5,-803 381.5,-803 381.5,-852"/>
<text text-anchor="start" x="370" y="-839.5" font-family="Helvetica,sans-Serif" font-size="10.00">T</text>
<text text-anchor="start" x="371.5" y="-824.5" font-family="Helvetica,sans-Serif" font-size="10.00"> </text>
<text text-anchor="start" x="371.5" y="-809.5" font-family="Helvetica,sans-Serif" font-size="10.00"> </text>
<polygon fill="#bfbfbf" stroke="#bfbfbf" points="365,-834.5 365,-834.5 382,-834.5 382,-834.5 365,-834.5"/>
<polygon fill="#bfbfbf" stroke="#bfbfbf" points="365,-819.5 365,-819.5 382,-819.5 382,-819.5 365,-819.5"/>
<polygon fill="none" stroke="#bfbfbf" points="364.5,-803 364.5,-852 381.5,-852 381.5,-803 364.5,-803"/>
</a>
</g>
</g>
<!-- Node9&#45;&gt;Node8 -->
<g id="edge10_Node000008_Node000009" class="edge">
<title>Node9&#45;&gt;Node8</title>
<g id="a_edge10_Node000008_Node000009"><a xlink:title=" ">
<path fill="none" stroke="#63b8ff" d="M373,-802.92C373,-790.99 373,-776.25 373,-762.94"/>
<polygon fill="none" stroke="#63b8ff" points="373,-762.76 369,-756.76 373,-750.76 377,-756.76 373,-762.76"/>
</a>
</g>
<text text-anchor="middle" x="402" y="-777" font-family="Helvetica,sans-Serif" font-size="10.00" fill="grey"> +elements</text>
</g>
<!-- Node10 -->
<g id="Node000010" class="node">
<title>Node10</title>
<g id="a_Node000010"><a xlink:href="classbool.html" target="_top" xlink:title=" ">
<polygon fill="white" stroke="transparent" points="216,-627 184,-627 184,-578 216,-578 216,-627"/>
<text text-anchor="start" x="189" y="-614.5" font-family="Helvetica,sans-Serif" font-size="10.00">bool</text>
<text text-anchor="start" x="198" y="-599.5" font-family="Helvetica,sans-Serif" font-size="10.00"> </text>
<text text-anchor="start" x="198" y="-584.5" font-family="Helvetica,sans-Serif" font-size="10.00"> </text>
<polygon fill="#bfbfbf" stroke="#bfbfbf" points="184,-609.5 184,-609.5 216,-609.5 216,-609.5 184,-609.5"/>
<polygon fill="#bfbfbf" stroke="#bfbfbf" points="184,-594.5 184,-594.5 216,-594.5 216,-594.5 184,-594.5"/>
<polygon fill="none" stroke="#bfbfbf" points="184,-578 184,-627 216,-627 216,-578 184,-578"/>
</a>
</g>
</g>
<!-- Node10&#45;&gt;Node6 -->
<g id="edge11_Node000006_Node000010" class="edge">
<title>Node10&#45;&gt;Node6</title>
<g id="a_edge11_Node000006_Node000010"><a xlink:title=" ">
<path fill="none" stroke="#63b8ff" d="M198.37,-577.77C198.04,-565.74 198.42,-550.98 201,-538 201.4,-535.98 201.83,-533.96 202.3,-531.92"/>
<polygon fill="none" stroke="#63b8ff" points="202.31,-531.87 199.91,-525.07 205.26,-520.24 207.66,-527.04 202.31,-531.87"/>
</a>
</g>
<text text-anchor="middle" x="274.5" y="-541" font-family="Helvetica,sans-Serif" font-size="10.00" fill="grey"> &#45;mOrderingHasBeenSpecified</text>
</g>
</g>
</svg>
