<?xml version="1.0" encoding="UTF-8" standalone="no"?>
<!DOCTYPE svg PUBLIC "-//W3C//DTD SVG 1.1//EN"
 "http://www.w3.org/Graphics/SVG/1.1/DTD/svg11.dtd">
<!-- Generated by graphviz version 2.43.0 (0)
 -->
<!-- Title: CML_noble_varghese_kohl_noble_1998_basic_with_sac Pages: 1 -->
<svg width="477pt" height="1803pt"
 viewBox="0.00 0.00 477.00 1803.00" xmlns="http://www.w3.org/2000/svg" xmlns:xlink="http://www.w3.org/1999/xlink">
<g id="graph0" class="graph" transform="scale(1 1) rotate(0) translate(4 1799)">
<title>CML_noble_varghese_kohl_noble_1998_basic_with_sac</title>
<!-- Node1 -->
<g id="Node000001" class="node">
<title>Node1</title>
<g id="a_Node000001"><a xlink:title=" ">
<polygon fill="#999999" stroke="transparent" points="213,-220 0,-220 0,0 213,0 213,-220"/>
<text text-anchor="start" x="48" y="-208" font-family="Helvetica,sans-Serif" font-size="10.00">CML_noble_varghese</text>
<text text-anchor="start" x="48" y="-197" font-family="Helvetica,sans-Serif" font-size="10.00">_kohl_noble_1998_basic</text>
<text text-anchor="start" x="82.5" y="-186" font-family="Helvetica,sans-Serif" font-size="10.00">_with_sac</text>
<text text-anchor="start" x="7" y="-171" font-family="Helvetica,sans-Serif" font-size="10.00">&#45;</text>
<text text-anchor="start" x="17.5" y="-171" font-family="Helvetica,sans-Serif" font-size="10.00">mStretch</text>
<text text-anchor="start" x="4.5" y="-156" font-family="Helvetica,sans-Serif" font-size="10.00">+</text>
<text text-anchor="start" x="17.5" y="-156" font-family="Helvetica,sans-Serif" font-size="10.00">CML_noble_varghese</text>
<text text-anchor="start" x="17.5" y="-145" font-family="Helvetica,sans-Serif" font-size="10.00">_kohl_noble_1998_basic</text>
<text text-anchor="start" x="17.5" y="-134" font-family="Helvetica,sans-Serif" font-size="10.00">_with_sac()</text>
<text text-anchor="start" x="4.5" y="-119" font-family="Helvetica,sans-Serif" font-size="10.00">+</text>
<text text-anchor="start" x="17.5" y="-119" font-family="Helvetica,sans-Serif" font-size="10.00">~CML_noble_varghese</text>
<text text-anchor="start" x="17.5" y="-108" font-family="Helvetica,sans-Serif" font-size="10.00">_kohl_noble_1998_basic</text>
<text text-anchor="start" x="17.5" y="-97" font-family="Helvetica,sans-Serif" font-size="10.00">_with_sac()</text>
<text text-anchor="start" x="4.5" y="-82" font-family="Helvetica,sans-Serif" font-size="10.00">+</text>
<text text-anchor="start" x="17.5" y="-82" font-family="Helvetica,sans-Serif" font-size="10.00">GetIIonic()</text>
<text text-anchor="start" x="4.5" y="-67" font-family="Helvetica,sans-Serif" font-size="10.00">+</text>
<text text-anchor="start" x="17.5" y="-67" font-family="Helvetica,sans-Serif" font-size="10.00">EvaluateYDerivatives()</text>
<text text-anchor="start" x="4.5" y="-52" font-family="Helvetica,sans-Serif" font-size="10.00">+</text>
<text text-anchor="start" x="17.5" y="-52" font-family="Helvetica,sans-Serif" font-size="10.00">SetStretch()</text>
<text text-anchor="start" x="4.5" y="-37" font-family="Helvetica,sans-Serif" font-size="10.00">+</text>
<text text-anchor="start" x="17.5" y="-37" font-family="Helvetica,sans-Serif" font-size="10.00">GetStretch()</text>
<text text-anchor="start" x="4.5" y="-22" font-family="Helvetica,sans-Serif" font-size="10.00">+</text>
<text text-anchor="start" x="17.5" y="-22" font-family="Helvetica,sans-Serif" font-size="10.00">GetIntracellularCalciumConcentration()</text>
<text text-anchor="start" x="7" y="-7" font-family="Helvetica,sans-Serif" font-size="10.00">&#45;</text>
<text text-anchor="start" x="17.5" y="-7" font-family="Helvetica,sans-Serif" font-size="10.00">serialize()</text>
<polygon fill="#666666" stroke="#666666" points="0.5,-181 0.5,-181 213.5,-181 213.5,-181 0.5,-181"/>
<polygon fill="#666666" stroke="#666666" points="0.5,-166 0.5,-166 15.5,-166 15.5,-166 0.5,-166"/>
<polygon fill="#666666" stroke="#666666" points="15.5,-166 15.5,-166 213.5,-166 213.5,-166 15.5,-166"/>
<polygon fill="none" stroke="#666666" points="0,0 0,-220 213,-220 213,0 0,0"/>
</a>
</g>
</g>
<!-- Node2 -->
<g id="Node000002" class="node">
<title>Node2</title>
<g id="a_Node000002"><a xlink:href="classAbstractCardiacCell.html" target="_top" xlink:title=" ">
<polygon fill="white" stroke="transparent" points="190,-486 23,-486 23,-257 190,-257 190,-486"/>
<text text-anchor="start" x="58.5" y="-473.5" font-family="Helvetica,sans-Serif" font-size="10.00">AbstractCardiacCell</text>
<text text-anchor="start" x="27.5" y="-458.5" font-family="Helvetica,sans-Serif" font-size="10.00">#</text>
<text text-anchor="start" x="40.5" y="-458.5" font-family="Helvetica,sans-Serif" font-size="10.00">mDt</text>
<text text-anchor="start" x="27.5" y="-443.5" font-family="Helvetica,sans-Serif" font-size="10.00">+</text>
<text text-anchor="start" x="40.5" y="-443.5" font-family="Helvetica,sans-Serif" font-size="10.00">AbstractCardiacCell()</text>
<text text-anchor="start" x="27.5" y="-428.5" font-family="Helvetica,sans-Serif" font-size="10.00">+</text>
<text text-anchor="start" x="40.5" y="-428.5" font-family="Helvetica,sans-Serif" font-size="10.00">~AbstractCardiacCell()</text>
<text text-anchor="start" x="27.5" y="-413.5" font-family="Helvetica,sans-Serif" font-size="10.00">+</text>
<text text-anchor="start" x="40.5" y="-413.5" font-family="Helvetica,sans-Serif" font-size="10.00">Init()</text>
<text text-anchor="start" x="27.5" y="-398.5" font-family="Helvetica,sans-Serif" font-size="10.00">+</text>
<text text-anchor="start" x="40.5" y="-398.5" font-family="Helvetica,sans-Serif" font-size="10.00">SetTimestep()</text>
<text text-anchor="start" x="27.5" y="-383.5" font-family="Helvetica,sans-Serif" font-size="10.00">+</text>
<text text-anchor="start" x="40.5" y="-383.5" font-family="Helvetica,sans-Serif" font-size="10.00">SolveAndUpdateState()</text>
<text text-anchor="start" x="27.5" y="-368.5" font-family="Helvetica,sans-Serif" font-size="10.00">+</text>
<text text-anchor="start" x="40.5" y="-368.5" font-family="Helvetica,sans-Serif" font-size="10.00">Compute()</text>
<text text-anchor="start" x="27.5" y="-353.5" font-family="Helvetica,sans-Serif" font-size="10.00">+</text>
<text text-anchor="start" x="40.5" y="-353.5" font-family="Helvetica,sans-Serif" font-size="10.00">ComputeExceptVoltage()</text>
<text text-anchor="start" x="27.5" y="-338.5" font-family="Helvetica,sans-Serif" font-size="10.00">+</text>
<text text-anchor="start" x="40.5" y="-338.5" font-family="Helvetica,sans-Serif" font-size="10.00">SetVoltage()</text>
<text text-anchor="start" x="27.5" y="-323.5" font-family="Helvetica,sans-Serif" font-size="10.00">+</text>
<text text-anchor="start" x="40.5" y="-323.5" font-family="Helvetica,sans-Serif" font-size="10.00">GetVoltage()</text>
<text text-anchor="start" x="27.5" y="-308.5" font-family="Helvetica,sans-Serif" font-size="10.00">+</text>
<text text-anchor="start" x="40.5" y="-308.5" font-family="Helvetica,sans-Serif" font-size="10.00">GetNumberOfStateVariables()</text>
<text text-anchor="start" x="40.5" y="-293.5" font-family="Helvetica,sans-Serif" font-size="10.00">and 16 more...</text>
<text text-anchor="start" x="30" y="-278.5" font-family="Helvetica,sans-Serif" font-size="10.00">&#45;</text>
<text text-anchor="start" x="40.5" y="-278.5" font-family="Helvetica,sans-Serif" font-size="10.00">serialize()</text>
<text text-anchor="start" x="30" y="-263.5" font-family="Helvetica,sans-Serif" font-size="10.00">&#45;</text>
<text text-anchor="start" x="40.5" y="-263.5" font-family="Helvetica,sans-Serif" font-size="10.00">CheckForArchiveFix()</text>
<polygon fill="#666666" stroke="#666666" points="23.5,-468.5 23.5,-468.5 190.5,-468.5 190.5,-468.5 23.5,-468.5"/>
<polygon fill="#666666" stroke="#666666" points="23.5,-453.5 23.5,-453.5 38.5,-453.5 38.5,-453.5 23.5,-453.5"/>
<polygon fill="#666666" stroke="#666666" points="38.5,-453.5 38.5,-453.5 190.5,-453.5 190.5,-453.5 38.5,-453.5"/>
<polygon fill="none" stroke="#666666" points="23,-257 23,-486 190,-486 190,-257 23,-257"/>
</a>
</g>
</g>
<!-- Node2&#45;&gt;Node1 -->
<g id="edge1_Node000001_Node000002" class="edge">
<title>Node2&#45;&gt;Node1</title>
<g id="a_edge1_Node000001_Node000002"><a xlink:title=" ">
<path fill="none" stroke="#63b8ff" d="M106.5,-246.42C106.5,-237.66 106.5,-228.86 106.5,-220.19"/>
<polygon fill="none" stroke="#63b8ff" points="103,-246.68 106.5,-256.68 110,-246.68 103,-246.68"/>
</a>
</g>
</g>
<!-- Node3 -->
<g id="Node000003" class="node">
<title>Node3</title>
<g id="a_Node000003"><a xlink:href="classAbstractCardiacCellInterface.html" target="_top" xlink:title=" ">
<polygon fill="white" stroke="transparent" points="188,-827 1,-827 1,-523 188,-523 188,-827"/>
<text text-anchor="start" x="25" y="-815" font-family="Helvetica,sans-Serif" font-size="10.00">AbstractCardiacCellInterface</text>
<text text-anchor="start" x="5.5" y="-800" font-family="Helvetica,sans-Serif" font-size="10.00">#</text>
<text text-anchor="start" x="18.5" y="-800" font-family="Helvetica,sans-Serif" font-size="10.00">mVoltageIndex</text>
<text text-anchor="start" x="5.5" y="-785" font-family="Helvetica,sans-Serif" font-size="10.00">#</text>
<text text-anchor="start" x="18.5" y="-785" font-family="Helvetica,sans-Serif" font-size="10.00">mpOdeSolver</text>
<text text-anchor="start" x="5.5" y="-770" font-family="Helvetica,sans-Serif" font-size="10.00">#</text>
<text text-anchor="start" x="18.5" y="-770" font-family="Helvetica,sans-Serif" font-size="10.00">mpIntracellularStimulus</text>
<text text-anchor="start" x="5.5" y="-755" font-family="Helvetica,sans-Serif" font-size="10.00">#</text>
<text text-anchor="start" x="18.5" y="-755" font-family="Helvetica,sans-Serif" font-size="10.00">mSetVoltageDerivativeToZero</text>
<text text-anchor="start" x="5.5" y="-740" font-family="Helvetica,sans-Serif" font-size="10.00">#</text>
<text text-anchor="start" x="18.5" y="-740" font-family="Helvetica,sans-Serif" font-size="10.00">mIsUsedInTissue</text>
<text text-anchor="start" x="5.5" y="-725" font-family="Helvetica,sans-Serif" font-size="10.00">#</text>
<text text-anchor="start" x="18.5" y="-725" font-family="Helvetica,sans-Serif" font-size="10.00">mHasDefaultStimulusFromCellML</text>
<text text-anchor="start" x="5.5" y="-710" font-family="Helvetica,sans-Serif" font-size="10.00">#</text>
<text text-anchor="start" x="18.5" y="-710" font-family="Helvetica,sans-Serif" font-size="10.00">mFixedVoltage</text>
<text text-anchor="start" x="5.5" y="-695" font-family="Helvetica,sans-Serif" font-size="10.00">+</text>
<text text-anchor="start" x="18.5" y="-695" font-family="Helvetica,sans-Serif" font-size="10.00">AbstractCardiacCellInterface()</text>
<text text-anchor="start" x="5.5" y="-680" font-family="Helvetica,sans-Serif" font-size="10.00">+</text>
<text text-anchor="start" x="18.5" y="-680" font-family="Helvetica,sans-Serif" font-size="10.00">~AbstractCardiacCellInterface()</text>
<text text-anchor="start" x="5.5" y="-665" font-family="Helvetica,sans-Serif" font-size="10.00">+</text>
<text text-anchor="start" x="18.5" y="-665" font-family="Helvetica,sans-Serif" font-size="10.00">SetTimestep()</text>
<text text-anchor="start" x="5.5" y="-650" font-family="Helvetica,sans-Serif" font-size="10.00">+</text>
<text text-anchor="start" x="18.5" y="-650" font-family="Helvetica,sans-Serif" font-size="10.00">GetNumberOfStateVariables()</text>
<text text-anchor="start" x="5.5" y="-635" font-family="Helvetica,sans-Serif" font-size="10.00">+</text>
<text text-anchor="start" x="18.5" y="-635" font-family="Helvetica,sans-Serif" font-size="10.00">GetNumberOfParameters()</text>
<text text-anchor="start" x="5.5" y="-620" font-family="Helvetica,sans-Serif" font-size="10.00">+</text>
<text text-anchor="start" x="18.5" y="-620" font-family="Helvetica,sans-Serif" font-size="10.00">GetStdVecStateVariables()</text>
<text text-anchor="start" x="5.5" y="-605" font-family="Helvetica,sans-Serif" font-size="10.00">+</text>
<text text-anchor="start" x="18.5" y="-605" font-family="Helvetica,sans-Serif" font-size="10.00">rGetStateVariableNames()</text>
<text text-anchor="start" x="5.5" y="-590" font-family="Helvetica,sans-Serif" font-size="10.00">+</text>
<text text-anchor="start" x="18.5" y="-590" font-family="Helvetica,sans-Serif" font-size="10.00">SetStateVariables()</text>
<text text-anchor="start" x="5.5" y="-575" font-family="Helvetica,sans-Serif" font-size="10.00">+</text>
<text text-anchor="start" x="18.5" y="-575" font-family="Helvetica,sans-Serif" font-size="10.00">SetStateVariable()</text>
<text text-anchor="start" x="5.5" y="-560" font-family="Helvetica,sans-Serif" font-size="10.00">+</text>
<text text-anchor="start" x="18.5" y="-560" font-family="Helvetica,sans-Serif" font-size="10.00">SetStateVariable()</text>
<text text-anchor="start" x="18.5" y="-545" font-family="Helvetica,sans-Serif" font-size="10.00">and 28 more...</text>
<text text-anchor="start" x="8" y="-530" font-family="Helvetica,sans-Serif" font-size="10.00">&#45;</text>
<text text-anchor="start" x="18.5" y="-530" font-family="Helvetica,sans-Serif" font-size="10.00">serialize()</text>
<polygon fill="#666666" stroke="#666666" points="1.5,-810 1.5,-810 188.5,-810 188.5,-810 1.5,-810"/>
<polygon fill="#666666" stroke="#666666" points="1.5,-705 1.5,-705 16.5,-705 16.5,-705 1.5,-705"/>
<polygon fill="#666666" stroke="#666666" points="16.5,-705 16.5,-705 188.5,-705 188.5,-705 16.5,-705"/>
<polygon fill="none" stroke="#666666" points="1,-523 1,-827 188,-827 188,-523 1,-523"/>
</a>
</g>
</g>
<!-- Node3&#45;&gt;Node2 -->
<g id="edge2_Node000002_Node000003" class="edge">
<title>Node3&#45;&gt;Node2</title>
<g id="a_edge2_Node000002_Node000003"><a xlink:title=" ">
<path fill="none" stroke="#63b8ff" d="M100.92,-512.69C101.28,-503.74 101.63,-494.85 101.98,-486.13"/>
<polygon fill="none" stroke="#63b8ff" points="97.42,-512.68 100.52,-522.81 104.41,-512.96 97.42,-512.68"/>
</a>
</g>
</g>
<!-- Node4 -->
<g id="Node000004" class="node">
<title>Node4</title>
<g id="a_Node000004"><a xlink:href="classAbstractOdeSystem.html" target="_top" xlink:title=" ">
<polygon fill="white" stroke="transparent" points="354.5,-759.5 206.5,-759.5 206.5,-590.5 354.5,-590.5 354.5,-759.5"/>
<text text-anchor="start" x="232" y="-747" font-family="Helvetica,sans-Serif" font-size="10.00">AbstractOdeSystem</text>
<text text-anchor="start" x="210.5" y="-732" font-family="Helvetica,sans-Serif" font-size="10.00">#</text>
<text text-anchor="start" x="223.5" y="-732" font-family="Helvetica,sans-Serif" font-size="10.00">mUseAnalyticJacobian</text>
<text text-anchor="start" x="210.5" y="-717" font-family="Helvetica,sans-Serif" font-size="10.00">+</text>
<text text-anchor="start" x="223.5" y="-717" font-family="Helvetica,sans-Serif" font-size="10.00">AbstractOdeSystem()</text>
<text text-anchor="start" x="210.5" y="-702" font-family="Helvetica,sans-Serif" font-size="10.00">+</text>
<text text-anchor="start" x="223.5" y="-702" font-family="Helvetica,sans-Serif" font-size="10.00">~AbstractOdeSystem()</text>
<text text-anchor="start" x="210.5" y="-687" font-family="Helvetica,sans-Serif" font-size="10.00">+</text>
<text text-anchor="start" x="223.5" y="-687" font-family="Helvetica,sans-Serif" font-size="10.00">EvaluateYDerivatives()</text>
<text text-anchor="start" x="210.5" y="-672" font-family="Helvetica,sans-Serif" font-size="10.00">+</text>
<text text-anchor="start" x="223.5" y="-672" font-family="Helvetica,sans-Serif" font-size="10.00">CalculateStoppingEvent()</text>
<text text-anchor="start" x="210.5" y="-657" font-family="Helvetica,sans-Serif" font-size="10.00">+</text>
<text text-anchor="start" x="223.5" y="-657" font-family="Helvetica,sans-Serif" font-size="10.00">CalculateRootFunction()</text>
<text text-anchor="start" x="210.5" y="-642" font-family="Helvetica,sans-Serif" font-size="10.00">+</text>
<text text-anchor="start" x="223.5" y="-642" font-family="Helvetica,sans-Serif" font-size="10.00">GetUseAnalyticJacobian()</text>
<text text-anchor="start" x="210.5" y="-627" font-family="Helvetica,sans-Serif" font-size="10.00">+</text>
<text text-anchor="start" x="223.5" y="-627" font-family="Helvetica,sans-Serif" font-size="10.00">rGetConstStateVariables()</text>
<text text-anchor="start" x="213" y="-612" font-family="Helvetica,sans-Serif" font-size="10.00">&#45;</text>
<text text-anchor="start" x="223.5" y="-612" font-family="Helvetica,sans-Serif" font-size="10.00">save()</text>
<text text-anchor="start" x="213" y="-597" font-family="Helvetica,sans-Serif" font-size="10.00">&#45;</text>
<text text-anchor="start" x="223.5" y="-597" font-family="Helvetica,sans-Serif" font-size="10.00">load()</text>
<polygon fill="#666666" stroke="#666666" points="206.5,-742 206.5,-742 354.5,-742 354.5,-742 206.5,-742"/>
<polygon fill="#666666" stroke="#666666" points="206.5,-727 206.5,-727 221.5,-727 221.5,-727 206.5,-727"/>
<polygon fill="#666666" stroke="#666666" points="221.5,-727 221.5,-727 354.5,-727 354.5,-727 221.5,-727"/>
<polygon fill="none" stroke="#666666" points="206.5,-590.5 206.5,-759.5 354.5,-759.5 354.5,-590.5 206.5,-590.5"/>
</a>
</g>
</g>
<!-- Node4&#45;&gt;Node2 -->
<g id="edge3_Node000002_Node000004" class="edge">
<title>Node4&#45;&gt;Node2</title>
<g id="a_edge3_Node000002_Node000004"><a xlink:title=" ">
<path fill="none" stroke="#63b8ff" d="M229.61,-581.44C218.79,-562.07 207.36,-541.81 196.5,-523 189.58,-511 182.27,-498.51 174.94,-486.09"/>
<polygon fill="none" stroke="#63b8ff" points="226.6,-583.24 234.53,-590.27 232.72,-579.83 226.6,-583.24"/>
</a>
</g>
</g>
<!-- Node5 -->
<g id="Node000005" class="node">
<title>Node5</title>
<g id="a_Node000005"><a xlink:href="classAbstractParameterisedSystem.html" target="_top" xlink:title=" ">
<polygon fill="white" stroke="transparent" points="369,-1164 192,-1164 192,-864 369,-864 369,-1164"/>
<text text-anchor="start" x="207" y="-1152" font-family="Helvetica,sans-Serif" font-size="10.00">AbstractParameterisedSystem</text>
<text text-anchor="start" x="216" y="-1141" font-family="Helvetica,sans-Serif" font-size="10.00">&lt; std::vector&lt; double &gt; &gt;</text>
<text text-anchor="start" x="196.5" y="-1126" font-family="Helvetica,sans-Serif" font-size="10.00">#</text>
<text text-anchor="start" x="209.5" y="-1126" font-family="Helvetica,sans-Serif" font-size="10.00">mStateVariables</text>
<text text-anchor="start" x="196.5" y="-1111" font-family="Helvetica,sans-Serif" font-size="10.00">#</text>
<text text-anchor="start" x="209.5" y="-1111" font-family="Helvetica,sans-Serif" font-size="10.00">mParameters</text>
<text text-anchor="start" x="196.5" y="-1096" font-family="Helvetica,sans-Serif" font-size="10.00">+</text>
<text text-anchor="start" x="209.5" y="-1096" font-family="Helvetica,sans-Serif" font-size="10.00">AbstractParameterisedSystem()</text>
<text text-anchor="start" x="196.5" y="-1081" font-family="Helvetica,sans-Serif" font-size="10.00">+</text>
<text text-anchor="start" x="209.5" y="-1081" font-family="Helvetica,sans-Serif" font-size="10.00">rGetStateVariables()</text>
<text text-anchor="start" x="196.5" y="-1066" font-family="Helvetica,sans-Serif" font-size="10.00">+</text>
<text text-anchor="start" x="209.5" y="-1066" font-family="Helvetica,sans-Serif" font-size="10.00">GetStateVariables()</text>
<text text-anchor="start" x="196.5" y="-1051" font-family="Helvetica,sans-Serif" font-size="10.00">+</text>
<text text-anchor="start" x="209.5" y="-1051" font-family="Helvetica,sans-Serif" font-size="10.00">SetStateVariables()</text>
<text text-anchor="start" x="196.5" y="-1036" font-family="Helvetica,sans-Serif" font-size="10.00">+</text>
<text text-anchor="start" x="209.5" y="-1036" font-family="Helvetica,sans-Serif" font-size="10.00">GetStateVariable()</text>
<text text-anchor="start" x="196.5" y="-1021" font-family="Helvetica,sans-Serif" font-size="10.00">+</text>
<text text-anchor="start" x="209.5" y="-1021" font-family="Helvetica,sans-Serif" font-size="10.00">GetStateVariable()</text>
<text text-anchor="start" x="196.5" y="-1006" font-family="Helvetica,sans-Serif" font-size="10.00">+</text>
<text text-anchor="start" x="209.5" y="-1006" font-family="Helvetica,sans-Serif" font-size="10.00">SetStateVariable()</text>
<text text-anchor="start" x="196.5" y="-991" font-family="Helvetica,sans-Serif" font-size="10.00">+</text>
<text text-anchor="start" x="209.5" y="-991" font-family="Helvetica,sans-Serif" font-size="10.00">SetStateVariable()</text>
<text text-anchor="start" x="196.5" y="-976" font-family="Helvetica,sans-Serif" font-size="10.00">+</text>
<text text-anchor="start" x="209.5" y="-976" font-family="Helvetica,sans-Serif" font-size="10.00">VerifyStateVariables()</text>
<text text-anchor="start" x="196.5" y="-961" font-family="Helvetica,sans-Serif" font-size="10.00">+</text>
<text text-anchor="start" x="209.5" y="-961" font-family="Helvetica,sans-Serif" font-size="10.00">SetDefaultInitialConditions()</text>
<text text-anchor="start" x="209.5" y="-946" font-family="Helvetica,sans-Serif" font-size="10.00">and 13 more...</text>
<text text-anchor="start" x="196.5" y="-931" font-family="Helvetica,sans-Serif" font-size="10.00">#</text>
<text text-anchor="start" x="209.5" y="-931" font-family="Helvetica,sans-Serif" font-size="10.00">DumpState()</text>
<text text-anchor="start" x="196.5" y="-916" font-family="Helvetica,sans-Serif" font-size="10.00">#</text>
<text text-anchor="start" x="209.5" y="-916" font-family="Helvetica,sans-Serif" font-size="10.00">DumpState()</text>
<text text-anchor="start" x="196.5" y="-901" font-family="Helvetica,sans-Serif" font-size="10.00">#</text>
<text text-anchor="start" x="209.5" y="-901" font-family="Helvetica,sans-Serif" font-size="10.00">DumpState()</text>
<text text-anchor="start" x="196.5" y="-886" font-family="Helvetica,sans-Serif" font-size="10.00">#</text>
<text text-anchor="start" x="209.5" y="-886" font-family="Helvetica,sans-Serif" font-size="10.00">CheckParametersOnLoad()</text>
<text text-anchor="start" x="199" y="-871" font-family="Helvetica,sans-Serif" font-size="10.00">&#45;</text>
<text text-anchor="start" x="209.5" y="-871" font-family="Helvetica,sans-Serif" font-size="10.00">GetStateMessage()</text>
<polygon fill="#666666" stroke="#666666" points="192.5,-1136 192.5,-1136 369.5,-1136 369.5,-1136 192.5,-1136"/>
<polygon fill="#666666" stroke="#666666" points="192.5,-1106 192.5,-1106 207.5,-1106 207.5,-1106 192.5,-1106"/>
<polygon fill="#666666" stroke="#666666" points="207.5,-1106 207.5,-1106 369.5,-1106 369.5,-1106 207.5,-1106"/>
<polygon fill="none" stroke="#666666" points="192,-864 192,-1164 369,-1164 369,-864 192,-864"/>
</a>
</g>
</g>
<!-- Node5&#45;&gt;Node4 -->
<g id="edge4_Node000004_Node000005" class="edge">
<title>Node5&#45;&gt;Node4</title>
<g id="a_edge4_Node000004_Node000005"><a xlink:title=" ">
<path fill="none" stroke="#63b8ff" d="M280.5,-853.64C280.5,-821.1 280.5,-788.11 280.5,-759.54"/>
<polygon fill="none" stroke="#63b8ff" points="277,-853.72 280.5,-863.72 284,-853.72 277,-853.72"/>
</a>
</g>
</g>
<!-- Node6 -->
<g id="Node000006" class="node">
<title>Node6</title>
<g id="a_Node000006"><a xlink:href="classAbstractUntemplatedParameterisedSystem.html" target="_top" xlink:title=" ">
<polygon fill="white" stroke="transparent" points="379,-1795 174,-1795 174,-1548 379,-1548 379,-1795"/>
<text text-anchor="start" x="189.5" y="-1782.5" font-family="Helvetica,sans-Serif" font-size="10.00">AbstractUntemplatedParameterised</text>
<text text-anchor="start" x="258.5" y="-1771.5" font-family="Helvetica,sans-Serif" font-size="10.00">System</text>
<text text-anchor="start" x="178.5" y="-1756.5" font-family="Helvetica,sans-Serif" font-size="10.00">#</text>
<text text-anchor="start" x="191.5" y="-1756.5" font-family="Helvetica,sans-Serif" font-size="10.00">mNumberOfStateVariables</text>
<text text-anchor="start" x="178.5" y="-1741.5" font-family="Helvetica,sans-Serif" font-size="10.00">#</text>
<text text-anchor="start" x="191.5" y="-1741.5" font-family="Helvetica,sans-Serif" font-size="10.00">mpSystemInfo</text>
<text text-anchor="start" x="178.5" y="-1726.5" font-family="Helvetica,sans-Serif" font-size="10.00">+</text>
<text text-anchor="start" x="191.5" y="-1726.5" font-family="Helvetica,sans-Serif" font-size="10.00">AbstractUntemplatedParameterised</text>
<text text-anchor="start" x="191.5" y="-1715.5" font-family="Helvetica,sans-Serif" font-size="10.00">System()</text>
<text text-anchor="start" x="178.5" y="-1700.5" font-family="Helvetica,sans-Serif" font-size="10.00">+</text>
<text text-anchor="start" x="191.5" y="-1700.5" font-family="Helvetica,sans-Serif" font-size="10.00">~AbstractUntemplatedParameterised</text>
<text text-anchor="start" x="191.5" y="-1689.5" font-family="Helvetica,sans-Serif" font-size="10.00">System()</text>
<text text-anchor="start" x="178.5" y="-1674.5" font-family="Helvetica,sans-Serif" font-size="10.00">+</text>
<text text-anchor="start" x="191.5" y="-1674.5" font-family="Helvetica,sans-Serif" font-size="10.00">GetSystemInformation()</text>
<text text-anchor="start" x="178.5" y="-1659.5" font-family="Helvetica,sans-Serif" font-size="10.00">+</text>
<text text-anchor="start" x="191.5" y="-1659.5" font-family="Helvetica,sans-Serif" font-size="10.00">GetSystemName()</text>
<text text-anchor="start" x="178.5" y="-1644.5" font-family="Helvetica,sans-Serif" font-size="10.00">+</text>
<text text-anchor="start" x="191.5" y="-1644.5" font-family="Helvetica,sans-Serif" font-size="10.00">GetNumberOfAttributes()</text>
<text text-anchor="start" x="178.5" y="-1629.5" font-family="Helvetica,sans-Serif" font-size="10.00">+</text>
<text text-anchor="start" x="191.5" y="-1629.5" font-family="Helvetica,sans-Serif" font-size="10.00">HasAttribute()</text>
<text text-anchor="start" x="178.5" y="-1614.5" font-family="Helvetica,sans-Serif" font-size="10.00">+</text>
<text text-anchor="start" x="191.5" y="-1614.5" font-family="Helvetica,sans-Serif" font-size="10.00">GetAttribute()</text>
<text text-anchor="start" x="178.5" y="-1599.5" font-family="Helvetica,sans-Serif" font-size="10.00">+</text>
<text text-anchor="start" x="191.5" y="-1599.5" font-family="Helvetica,sans-Serif" font-size="10.00">GetNumberOfStateVariables()</text>
<text text-anchor="start" x="178.5" y="-1584.5" font-family="Helvetica,sans-Serif" font-size="10.00">+</text>
<text text-anchor="start" x="191.5" y="-1584.5" font-family="Helvetica,sans-Serif" font-size="10.00">rGetStateVariableNames()</text>
<text text-anchor="start" x="178.5" y="-1569.5" font-family="Helvetica,sans-Serif" font-size="10.00">+</text>
<text text-anchor="start" x="191.5" y="-1569.5" font-family="Helvetica,sans-Serif" font-size="10.00">rGetStateVariableUnits()</text>
<text text-anchor="start" x="191.5" y="-1554.5" font-family="Helvetica,sans-Serif" font-size="10.00">and 20 more...</text>
<polygon fill="#666666" stroke="#666666" points="174.5,-1766.5 174.5,-1766.5 379.5,-1766.5 379.5,-1766.5 174.5,-1766.5"/>
<polygon fill="#666666" stroke="#666666" points="174.5,-1736.5 174.5,-1736.5 189.5,-1736.5 189.5,-1736.5 174.5,-1736.5"/>
<polygon fill="#666666" stroke="#666666" points="189.5,-1736.5 189.5,-1736.5 379.5,-1736.5 379.5,-1736.5 189.5,-1736.5"/>
<polygon fill="none" stroke="#666666" points="174,-1548 174,-1795 379,-1795 379,-1548 174,-1548"/>
</a>
</g>
</g>
<!-- Node6&#45;&gt;Node5 -->
<g id="edge5_Node000005_Node000006" class="edge">
<title>Node6&#45;&gt;Node5</title>
<g id="a_edge5_Node000005_Node000006"><a xlink:title=" ">
<path fill="none" stroke="#63b8ff" d="M277.31,-1537.97C277.97,-1429.72 278.9,-1276.77 279.59,-1164.23"/>
<polygon fill="none" stroke="#63b8ff" points="273.81,-1537.95 277.25,-1547.97 280.81,-1538 273.81,-1537.95"/>
</a>
</g>
</g>
<!-- Node7 -->
<g id="Node000007" class="node">
<title>Node7</title>
<g id="a_Node000007"><a xlink:href="classAbstractParameterisedSystem.html" target="_top" xlink:title=" ">
<polygon fill="white" stroke="transparent" points="469,-1511 292,-1511 292,-1211 469,-1211 469,-1511"/>
<text text-anchor="start" x="307" y="-1499" font-family="Helvetica,sans-Serif" font-size="10.00">AbstractParameterisedSystem</text>
<text text-anchor="start" x="349.5" y="-1488" font-family="Helvetica,sans-Serif" font-size="10.00">&lt; VECTOR &gt;</text>
<text text-anchor="start" x="296.5" y="-1473" font-family="Helvetica,sans-Serif" font-size="10.00">#</text>
<text text-anchor="start" x="309.5" y="-1473" font-family="Helvetica,sans-Serif" font-size="10.00">mStateVariables</text>
<text text-anchor="start" x="296.5" y="-1458" font-family="Helvetica,sans-Serif" font-size="10.00">#</text>
<text text-anchor="start" x="309.5" y="-1458" font-family="Helvetica,sans-Serif" font-size="10.00">mParameters</text>
<text text-anchor="start" x="296.5" y="-1443" font-family="Helvetica,sans-Serif" font-size="10.00">+</text>
<text text-anchor="start" x="309.5" y="-1443" font-family="Helvetica,sans-Serif" font-size="10.00">AbstractParameterisedSystem()</text>
<text text-anchor="start" x="296.5" y="-1428" font-family="Helvetica,sans-Serif" font-size="10.00">+</text>
<text text-anchor="start" x="309.5" y="-1428" font-family="Helvetica,sans-Serif" font-size="10.00">rGetStateVariables()</text>
<text text-anchor="start" x="296.5" y="-1413" font-family="Helvetica,sans-Serif" font-size="10.00">+</text>
<text text-anchor="start" x="309.5" y="-1413" font-family="Helvetica,sans-Serif" font-size="10.00">GetStateVariables()</text>
<text text-anchor="start" x="296.5" y="-1398" font-family="Helvetica,sans-Serif" font-size="10.00">+</text>
<text text-anchor="start" x="309.5" y="-1398" font-family="Helvetica,sans-Serif" font-size="10.00">SetStateVariables()</text>
<text text-anchor="start" x="296.5" y="-1383" font-family="Helvetica,sans-Serif" font-size="10.00">+</text>
<text text-anchor="start" x="309.5" y="-1383" font-family="Helvetica,sans-Serif" font-size="10.00">GetStateVariable()</text>
<text text-anchor="start" x="296.5" y="-1368" font-family="Helvetica,sans-Serif" font-size="10.00">+</text>
<text text-anchor="start" x="309.5" y="-1368" font-family="Helvetica,sans-Serif" font-size="10.00">GetStateVariable()</text>
<text text-anchor="start" x="296.5" y="-1353" font-family="Helvetica,sans-Serif" font-size="10.00">+</text>
<text text-anchor="start" x="309.5" y="-1353" font-family="Helvetica,sans-Serif" font-size="10.00">SetStateVariable()</text>
<text text-anchor="start" x="296.5" y="-1338" font-family="Helvetica,sans-Serif" font-size="10.00">+</text>
<text text-anchor="start" x="309.5" y="-1338" font-family="Helvetica,sans-Serif" font-size="10.00">SetStateVariable()</text>
<text text-anchor="start" x="296.5" y="-1323" font-family="Helvetica,sans-Serif" font-size="10.00">+</text>
<text text-anchor="start" x="309.5" y="-1323" font-family="Helvetica,sans-Serif" font-size="10.00">VerifyStateVariables()</text>
<text text-anchor="start" x="296.5" y="-1308" font-family="Helvetica,sans-Serif" font-size="10.00">+</text>
<text text-anchor="start" x="309.5" y="-1308" font-family="Helvetica,sans-Serif" font-size="10.00">SetDefaultInitialConditions()</text>
<text text-anchor="start" x="309.5" y="-1293" font-family="Helvetica,sans-Serif" font-size="10.00">and 13 more...</text>
<text text-anchor="start" x="296.5" y="-1278" font-family="Helvetica,sans-Serif" font-size="10.00">#</text>
<text text-anchor="start" x="309.5" y="-1278" font-family="Helvetica,sans-Serif" font-size="10.00">DumpState()</text>
<text text-anchor="start" x="296.5" y="-1263" font-family="Helvetica,sans-Serif" font-size="10.00">#</text>
<text text-anchor="start" x="309.5" y="-1263" font-family="Helvetica,sans-Serif" font-size="10.00">DumpState()</text>
<text text-anchor="start" x="296.5" y="-1248" font-family="Helvetica,sans-Serif" font-size="10.00">#</text>
<text text-anchor="start" x="309.5" y="-1248" font-family="Helvetica,sans-Serif" font-size="10.00">DumpState()</text>
<text text-anchor="start" x="296.5" y="-1233" font-family="Helvetica,sans-Serif" font-size="10.00">#</text>
<text text-anchor="start" x="309.5" y="-1233" font-family="Helvetica,sans-Serif" font-size="10.00">CheckParametersOnLoad()</text>
<text text-anchor="start" x="299" y="-1218" font-family="Helvetica,sans-Serif" font-size="10.00">&#45;</text>
<text text-anchor="start" x="309.5" y="-1218" font-family="Helvetica,sans-Serif" font-size="10.00">GetStateMessage()</text>
<polygon fill="#666666" stroke="#666666" points="292.5,-1483 292.5,-1483 469.5,-1483 469.5,-1483 292.5,-1483"/>
<polygon fill="#666666" stroke="#666666" points="292.5,-1453 292.5,-1453 307.5,-1453 307.5,-1453 292.5,-1453"/>
<polygon fill="#666666" stroke="#666666" points="307.5,-1453 307.5,-1453 469.5,-1453 469.5,-1453 307.5,-1453"/>
<polygon fill="none" stroke="#666666" points="292,-1211 292,-1511 469,-1511 469,-1211 292,-1211"/>
</a>
</g>
</g>
<!-- Node6&#45;&gt;Node7 -->
<g id="edge7_Node000007_Node000006" class="edge">
<title>Node6&#45;&gt;Node7</title>
<g id="a_edge7_Node000007_Node000006"><a xlink:title=" ">
<path fill="none" stroke="#63b8ff" d="M321.15,-1538.06C324.15,-1529.15 327.19,-1520.14 330.22,-1511.16"/>
<polygon fill="none" stroke="#63b8ff" points="317.78,-1537.09 317.9,-1547.69 324.41,-1539.33 317.78,-1537.09"/>
</a>
</g>
</g>
<!-- Node7&#45;&gt;Node5 -->
<g id="edge6_Node000005_Node000007" class="edge">
<title>Node7&#45;&gt;Node5</title>
<g id="a_edge6_Node000005_Node000007"><a xlink:title=" ">
<path fill="none" stroke="orange" d="M334.44,-1201.1C330.88,-1188.81 327.29,-1176.43 323.75,-1164.21"/>
<polygon fill="orange" stroke="orange" points="331.15,-1202.3 337.29,-1210.94 337.87,-1200.36 331.15,-1202.3"/>
</a>
</g>
<text text-anchor="middle" x="397" y="-1185" font-family="Helvetica,sans-Serif" font-size="10.00" fill="grey"> &lt; std::vector&lt; double &gt; &gt;</text>
</g>
</g>
</svg>
