<?xml version="1.0" encoding="UTF-8" standalone="no"?>
<!DOCTYPE svg PUBLIC "-//W3C//DTD SVG 1.1//EN"
 "http://www.w3.org/Graphics/SVG/1.1/DTD/svg11.dtd">
<!-- Generated by graphviz version 2.43.0 (0)
 -->
<!-- Title: VonMisesVertexBasedDivisionRule&lt; SPACE_DIM &gt; Pages: 1 -->
<svg width="329pt" height="548pt"
 viewBox="0.00 0.00 329.00 548.00" xmlns="http://www.w3.org/2000/svg" xmlns:xlink="http://www.w3.org/1999/xlink">
<g id="graph0" class="graph" transform="scale(1 1) rotate(0) translate(4 544)">
<title>VonMisesVertexBasedDivisionRule&lt; SPACE_DIM &gt;</title>
<!-- Node1 -->
<g id="Node000001" class="node">
<title>Node1</title>
<g id="a_Node000001"><a xlink:title=" ">
<polygon fill="#999999" stroke="transparent" points="241,-187 63,-187 63,0 241,0 241,-187"/>
<text text-anchor="start" x="78" y="-174.5" font-family="Helvetica,sans-Serif" font-size="10.00">VonMisesVertexBasedDivision</text>
<text text-anchor="start" x="102" y="-163.5" font-family="Helvetica,sans-Serif" font-size="10.00">Rule&lt; SPACE_DIM &gt;</text>
<text text-anchor="start" x="150" y="-148.5" font-family="Helvetica,sans-Serif" font-size="10.00"> </text>
<text text-anchor="start" x="67" y="-133.5" font-family="Helvetica,sans-Serif" font-size="10.00">+</text>
<text text-anchor="start" x="80" y="-133.5" font-family="Helvetica,sans-Serif" font-size="10.00">VonMisesVertexBasedDivision</text>
<text text-anchor="start" x="80" y="-122.5" font-family="Helvetica,sans-Serif" font-size="10.00">Rule()</text>
<text text-anchor="start" x="67" y="-107.5" font-family="Helvetica,sans-Serif" font-size="10.00">+</text>
<text text-anchor="start" x="80" y="-107.5" font-family="Helvetica,sans-Serif" font-size="10.00">~VonMisesVertexBasedDivision</text>
<text text-anchor="start" x="80" y="-96.5" font-family="Helvetica,sans-Serif" font-size="10.00">Rule()</text>
<text text-anchor="start" x="67" y="-81.5" font-family="Helvetica,sans-Serif" font-size="10.00">+</text>
<text text-anchor="start" x="80" y="-81.5" font-family="Helvetica,sans-Serif" font-size="10.00">GetMeanParameter()</text>
<text text-anchor="start" x="67" y="-66.5" font-family="Helvetica,sans-Serif" font-size="10.00">+</text>
<text text-anchor="start" x="80" y="-66.5" font-family="Helvetica,sans-Serif" font-size="10.00">GetConcentrationParameter()</text>
<text text-anchor="start" x="67" y="-51.5" font-family="Helvetica,sans-Serif" font-size="10.00">+</text>
<text text-anchor="start" x="80" y="-51.5" font-family="Helvetica,sans-Serif" font-size="10.00">SetMeanParameter()</text>
<text text-anchor="start" x="67" y="-36.5" font-family="Helvetica,sans-Serif" font-size="10.00">+</text>
<text text-anchor="start" x="80" y="-36.5" font-family="Helvetica,sans-Serif" font-size="10.00">SetConcentrationParameter()</text>
<text text-anchor="start" x="67" y="-21.5" font-family="Helvetica,sans-Serif" font-size="10.00">+</text>
<text text-anchor="start" x="80" y="-21.5" font-family="Helvetica,sans-Serif" font-size="10.00">CalculateCellDivisionVector()</text>
<text text-anchor="start" x="69.5" y="-6.5" font-family="Helvetica,sans-Serif" font-size="10.00">&#45;</text>
<text text-anchor="start" x="80" y="-6.5" font-family="Helvetica,sans-Serif" font-size="10.00">serialize()</text>
<polygon fill="#666666" stroke="#666666" points="63,-158.5 63,-158.5 241,-158.5 241,-158.5 63,-158.5"/>
<polygon fill="#666666" stroke="#666666" points="63,-143.5 63,-143.5 241,-143.5 241,-143.5 63,-143.5"/>
<polygon fill="none" stroke="#666666" points="63,0 63,-187 241,-187 241,0 63,0"/>
</a>
</g>
</g>
<!-- Node2 -->
<g id="Node000002" class="node">
<title>Node2</title>
<g id="a_Node000002"><a xlink:href="classAbstractVertexBasedDivisionRule.html" target="_top" xlink:title=" ">
<polygon fill="white" stroke="transparent" points="175.5,-424 0.5,-424 0.5,-245 175.5,-245 175.5,-424"/>
<text text-anchor="start" x="17.5" y="-411.5" font-family="Helvetica,sans-Serif" font-size="10.00">AbstractVertexBasedDivision</text>
<text text-anchor="start" x="38.5" y="-400.5" font-family="Helvetica,sans-Serif" font-size="10.00">Rule&lt; SPACE_DIM &gt;</text>
<text text-anchor="start" x="86.5" y="-385.5" font-family="Helvetica,sans-Serif" font-size="10.00"> </text>
<text text-anchor="start" x="5" y="-370.5" font-family="Helvetica,sans-Serif" font-size="10.00">+</text>
<text text-anchor="start" x="18" y="-370.5" font-family="Helvetica,sans-Serif" font-size="10.00">AbstractVertexBasedDivision</text>
<text text-anchor="start" x="18" y="-359.5" font-family="Helvetica,sans-Serif" font-size="10.00">Rule()</text>
<text text-anchor="start" x="5" y="-344.5" font-family="Helvetica,sans-Serif" font-size="10.00">+</text>
<text text-anchor="start" x="18" y="-344.5" font-family="Helvetica,sans-Serif" font-size="10.00">~AbstractVertexBasedDivision</text>
<text text-anchor="start" x="18" y="-333.5" font-family="Helvetica,sans-Serif" font-size="10.00">Rule()</text>
<text text-anchor="start" x="5" y="-318.5" font-family="Helvetica,sans-Serif" font-size="10.00">+</text>
<text text-anchor="start" x="18" y="-318.5" font-family="Helvetica,sans-Serif" font-size="10.00">CalculateCellDivisionVector()</text>
<text text-anchor="start" x="5" y="-303.5" font-family="Helvetica,sans-Serif" font-size="10.00">+</text>
<text text-anchor="start" x="18" y="-303.5" font-family="Helvetica,sans-Serif" font-size="10.00">OutputCellVertexBasedDivision</text>
<text text-anchor="start" x="18" y="-292.5" font-family="Helvetica,sans-Serif" font-size="10.00">RuleInfo()</text>
<text text-anchor="start" x="5" y="-277.5" font-family="Helvetica,sans-Serif" font-size="10.00">#</text>
<text text-anchor="start" x="18" y="-277.5" font-family="Helvetica,sans-Serif" font-size="10.00">OutputCellVertexBasedDivision</text>
<text text-anchor="start" x="18" y="-266.5" font-family="Helvetica,sans-Serif" font-size="10.00">RuleParameters()</text>
<text text-anchor="start" x="7.5" y="-251.5" font-family="Helvetica,sans-Serif" font-size="10.00">&#45;</text>
<text text-anchor="start" x="18" y="-251.5" font-family="Helvetica,sans-Serif" font-size="10.00">serialize()</text>
<polygon fill="#666666" stroke="#666666" points="1,-395.5 1,-395.5 176,-395.5 176,-395.5 1,-395.5"/>
<polygon fill="#666666" stroke="#666666" points="1,-380.5 1,-380.5 176,-380.5 176,-380.5 1,-380.5"/>
<polygon fill="none" stroke="#666666" points="0.5,-245 0.5,-424 175.5,-424 175.5,-245 0.5,-245"/>
</a>
</g>
</g>
<!-- Node2&#45;&gt;Node1 -->
<g id="edge1_Node000001_Node000002" class="edge">
<title>Node2&#45;&gt;Node1</title>
<g id="a_edge1_Node000001_Node000002"><a xlink:title=" ">
<path fill="none" stroke="#63b8ff" d="M114.37,-235.03C118.62,-219.15 123.01,-202.75 127.23,-187.01"/>
<polygon fill="none" stroke="#63b8ff" points="110.95,-234.28 111.74,-244.84 117.71,-236.09 110.95,-234.28"/>
</a>
</g>
</g>
<!-- Node3 -->
<g id="Node000003" class="node">
<title>Node3</title>
<g id="a_Node000003"><a xlink:href="classIdentifiable.html" target="_top" xlink:title=" ">
<polygon fill="white" stroke="transparent" points="176,-540 0,-540 0,-461 176,-461 176,-540"/>
<text text-anchor="start" x="60.5" y="-527.5" font-family="Helvetica,sans-Serif" font-size="10.00">Identifiable</text>
<text text-anchor="start" x="86" y="-512.5" font-family="Helvetica,sans-Serif" font-size="10.00"> </text>
<text text-anchor="start" x="4" y="-497.5" font-family="Helvetica,sans-Serif" font-size="10.00">+</text>
<text text-anchor="start" x="17" y="-497.5" font-family="Helvetica,sans-Serif" font-size="10.00">~Identifiable()</text>
<text text-anchor="start" x="4" y="-482.5" font-family="Helvetica,sans-Serif" font-size="10.00">+</text>
<text text-anchor="start" x="17" y="-482.5" font-family="Helvetica,sans-Serif" font-size="10.00">GetIdentifier()</text>
<text text-anchor="start" x="6.5" y="-467.5" font-family="Helvetica,sans-Serif" font-size="10.00">&#45;</text>
<text text-anchor="start" x="17" y="-467.5" font-family="Helvetica,sans-Serif" font-size="10.00">TidyTemplatedExportIdentifier()</text>
<polygon fill="#666666" stroke="#666666" points="0,-522.5 0,-522.5 176,-522.5 176,-522.5 0,-522.5"/>
<polygon fill="#666666" stroke="#666666" points="0,-507.5 0,-507.5 176,-507.5 176,-507.5 0,-507.5"/>
<polygon fill="none" stroke="#666666" points="0,-461 0,-540 176,-540 176,-461 0,-461"/>
</a>
</g>
</g>
<!-- Node3&#45;&gt;Node2 -->
<g id="edge2_Node000002_Node000003" class="edge">
<title>Node3&#45;&gt;Node2</title>
<g id="a_edge2_Node000002_Node000003"><a xlink:title=" ">
<path fill="none" stroke="#63b8ff" d="M88,-450.41C88,-442.08 88,-433.21 88,-424.23"/>
<polygon fill="none" stroke="#63b8ff" points="84.5,-450.63 88,-460.63 91.5,-450.63 84.5,-450.63"/>
</a>
</g>
</g>
<!-- Node4 -->
<g id="Node000004" class="node">
<title>Node4</title>
<g id="a_Node000004"><a xlink:href="classdouble.html" target="_top" xlink:title=" ">
<polygon fill="white" stroke="transparent" points="238,-359 194,-359 194,-310 238,-310 238,-359"/>
<text text-anchor="start" x="199" y="-346.5" font-family="Helvetica,sans-Serif" font-size="10.00">double</text>
<text text-anchor="start" x="214" y="-331.5" font-family="Helvetica,sans-Serif" font-size="10.00"> </text>
<text text-anchor="start" x="214" y="-316.5" font-family="Helvetica,sans-Serif" font-size="10.00"> </text>
<polygon fill="#bfbfbf" stroke="#bfbfbf" points="194,-341.5 194,-341.5 238,-341.5 238,-341.5 194,-341.5"/>
<polygon fill="#bfbfbf" stroke="#bfbfbf" points="194,-326.5 194,-326.5 238,-326.5 238,-326.5 194,-326.5"/>
<polygon fill="none" stroke="#bfbfbf" points="194,-310 194,-359 238,-359 238,-310 194,-310"/>
</a>
</g>
</g>
<!-- Node4&#45;&gt;Node1 -->
<g id="edge3_Node000001_Node000004" class="edge">
<title>Node4&#45;&gt;Node1</title>
<g id="a_edge3_Node000001_Node000004"><a xlink:title=" ">
<path fill="none" stroke="#63b8ff" d="M209.63,-309.71C202.65,-283.65 190.98,-240.06 179.96,-198.9"/>
<polygon fill="none" stroke="#63b8ff" points="179.9,-198.68 174.48,-193.92 176.79,-187.09 182.21,-191.85 179.9,-198.68"/>
</a>
</g>
<text text-anchor="middle" x="253" y="-219" font-family="Helvetica,sans-Serif" font-size="10.00" fill="grey"> &#45;mConcentrationParameter</text>
<text text-anchor="middle" x="253" y="-208" font-family="Helvetica,sans-Serif" font-size="10.00" fill="grey">&#45;mMeanParameter</text>
</g>
</g>
</svg>
