<?xml version="1.0" encoding="UTF-8" standalone="no"?>
<!DOCTYPE svg PUBLIC "-//W3C//DTD SVG 1.1//EN"
 "http://www.w3.org/Graphics/SVG/1.1/DTD/svg11.dtd">
<!-- Generated by graphviz version 2.43.0 (0)
 -->
<!-- Title: LuoRudySpiralWaveCellFactory Pages: 1 -->
<svg width="921pt" height="748pt"
 viewBox="0.00 0.00 920.50 748.00" xmlns="http://www.w3.org/2000/svg" xmlns:xlink="http://www.w3.org/1999/xlink">
<g id="graph0" class="graph" transform="scale(1 1) rotate(0) translate(4 744)">
<title>LuoRudySpiralWaveCellFactory</title>
<!-- Node1 -->
<g id="Node000001" class="node">
<title>Node1</title>
<g id="a_Node000001"><a xlink:title=" ">
<polygon fill="#999999" stroke="transparent" points="774.5,-75 594.5,-75 594.5,0 774.5,0 774.5,-75"/>
<text text-anchor="start" x="609" y="-62.5" font-family="Helvetica,sans-Serif" font-size="10.00">LuoRudySpiralWaveCellFactory</text>
<text text-anchor="start" x="682.5" y="-47.5" font-family="Helvetica,sans-Serif" font-size="10.00"> </text>
<text text-anchor="start" x="598.5" y="-32.5" font-family="Helvetica,sans-Serif" font-size="10.00">+</text>
<text text-anchor="start" x="611.5" y="-32.5" font-family="Helvetica,sans-Serif" font-size="10.00">LuoRudySpiralWaveCellFactory()</text>
<text text-anchor="start" x="598.5" y="-17.5" font-family="Helvetica,sans-Serif" font-size="10.00">+</text>
<text text-anchor="start" x="611.5" y="-17.5" font-family="Helvetica,sans-Serif" font-size="10.00">CreateCardiacCellForTissue</text>
<text text-anchor="start" x="611.5" y="-6.5" font-family="Helvetica,sans-Serif" font-size="10.00">Node()</text>
<polygon fill="#666666" stroke="#666666" points="594.5,-57.5 594.5,-57.5 774.5,-57.5 774.5,-57.5 594.5,-57.5"/>
<polygon fill="#666666" stroke="#666666" points="594.5,-42.5 594.5,-42.5 774.5,-42.5 774.5,-42.5 594.5,-42.5"/>
<polygon fill="none" stroke="#666666" points="594.5,0 594.5,-75 774.5,-75 774.5,0 594.5,0"/>
</a>
</g>
</g>
<!-- Node2 -->
<g id="Node000002" class="node">
<title>Node2</title>
<g id="a_Node000002"><a xlink:href="classAbstractCardiacCellFactory.html" target="_top" xlink:title=" ">
<polygon fill="white" stroke="transparent" points="499,-354 320,-354 320,-133 499,-133 499,-354"/>
<text text-anchor="start" x="330" y="-341.5" font-family="Helvetica,sans-Serif" font-size="10.00">AbstractCardiacCellFactory&lt; 2 &gt;</text>
<text text-anchor="start" x="408" y="-326.5" font-family="Helvetica,sans-Serif" font-size="10.00"> </text>
<text text-anchor="start" x="324.5" y="-311.5" font-family="Helvetica,sans-Serif" font-size="10.00">+</text>
<text text-anchor="start" x="337.5" y="-311.5" font-family="Helvetica,sans-Serif" font-size="10.00">CreateCardiacCellForNode()</text>
<text text-anchor="start" x="324.5" y="-296.5" font-family="Helvetica,sans-Serif" font-size="10.00">+</text>
<text text-anchor="start" x="337.5" y="-296.5" font-family="Helvetica,sans-Serif" font-size="10.00">CreateCardiacCellForTissue</text>
<text text-anchor="start" x="337.5" y="-285.5" font-family="Helvetica,sans-Serif" font-size="10.00">Node()</text>
<text text-anchor="start" x="324.5" y="-270.5" font-family="Helvetica,sans-Serif" font-size="10.00">+</text>
<text text-anchor="start" x="337.5" y="-270.5" font-family="Helvetica,sans-Serif" font-size="10.00">FinaliseCellCreation()</text>
<text text-anchor="start" x="324.5" y="-255.5" font-family="Helvetica,sans-Serif" font-size="10.00">+</text>
<text text-anchor="start" x="337.5" y="-255.5" font-family="Helvetica,sans-Serif" font-size="10.00">FillInCellularTransmural</text>
<text text-anchor="start" x="337.5" y="-244.5" font-family="Helvetica,sans-Serif" font-size="10.00">Areas()</text>
<text text-anchor="start" x="324.5" y="-229.5" font-family="Helvetica,sans-Serif" font-size="10.00">+</text>
<text text-anchor="start" x="337.5" y="-229.5" font-family="Helvetica,sans-Serif" font-size="10.00">GetNumberOfCells()</text>
<text text-anchor="start" x="324.5" y="-214.5" font-family="Helvetica,sans-Serif" font-size="10.00">+</text>
<text text-anchor="start" x="337.5" y="-214.5" font-family="Helvetica,sans-Serif" font-size="10.00">AbstractCardiacCellFactory()</text>
<text text-anchor="start" x="324.5" y="-199.5" font-family="Helvetica,sans-Serif" font-size="10.00">+</text>
<text text-anchor="start" x="337.5" y="-199.5" font-family="Helvetica,sans-Serif" font-size="10.00">~AbstractCardiacCellFactory()</text>
<text text-anchor="start" x="324.5" y="-184.5" font-family="Helvetica,sans-Serif" font-size="10.00">+</text>
<text text-anchor="start" x="337.5" y="-184.5" font-family="Helvetica,sans-Serif" font-size="10.00">SetMesh()</text>
<text text-anchor="start" x="324.5" y="-169.5" font-family="Helvetica,sans-Serif" font-size="10.00">+</text>
<text text-anchor="start" x="337.5" y="-169.5" font-family="Helvetica,sans-Serif" font-size="10.00">GetMesh()</text>
<text text-anchor="start" x="324.5" y="-154.5" font-family="Helvetica,sans-Serif" font-size="10.00">+</text>
<text text-anchor="start" x="337.5" y="-154.5" font-family="Helvetica,sans-Serif" font-size="10.00">SetHeartGeometryInformation()</text>
<text text-anchor="start" x="324.5" y="-139.5" font-family="Helvetica,sans-Serif" font-size="10.00">+</text>
<text text-anchor="start" x="337.5" y="-139.5" font-family="Helvetica,sans-Serif" font-size="10.00">GetHeartGeometryInformation()</text>
<polygon fill="#666666" stroke="#666666" points="320.5,-336.5 320.5,-336.5 499.5,-336.5 499.5,-336.5 320.5,-336.5"/>
<polygon fill="#666666" stroke="#666666" points="320.5,-321.5 320.5,-321.5 499.5,-321.5 499.5,-321.5 320.5,-321.5"/>
<polygon fill="none" stroke="#666666" points="320,-133 320,-354 499,-354 499,-133 320,-133"/>
</a>
</g>
</g>
<!-- Node2&#45;&gt;Node1 -->
<g id="edge1_Node000001_Node000002" class="edge">
<title>Node2&#45;&gt;Node1</title>
<g id="a_edge1_Node000001_Node000002"><a xlink:title=" ">
<path fill="none" stroke="#63b8ff" d="M506.97,-133.41C507.15,-133.28 507.32,-133.14 507.5,-133 536,-110.63 570.55,-90.84 601.54,-75.22"/>
<polygon fill="none" stroke="#63b8ff" points="504.63,-130.81 499.12,-139.86 509.07,-136.22 504.63,-130.81"/>
</a>
</g>
</g>
<!-- Node3 -->
<g id="Node000003" class="node">
<title>Node3</title>
<g id="a_Node000003"><a xlink:title=" ">
<polygon fill="white" stroke="transparent" points="348,-740 175,-740 175,-680 348,-680 348,-740"/>
<text text-anchor="start" x="180.5" y="-728" font-family="Helvetica,sans-Serif" font-size="10.00">AbstractTetrahedralMesh</text>
<text text-anchor="start" x="180.5" y="-717" font-family="Helvetica,sans-Serif" font-size="10.00">&lt; ELEMENT_DIM, SPACE_DIM &gt; *</text>
<text text-anchor="start" x="260" y="-702" font-family="Helvetica,sans-Serif" font-size="10.00"> </text>
<text text-anchor="start" x="260" y="-687" font-family="Helvetica,sans-Serif" font-size="10.00"> </text>
<polygon fill="#bfbfbf" stroke="#bfbfbf" points="175.5,-712 175.5,-712 348.5,-712 348.5,-712 175.5,-712"/>
<polygon fill="#bfbfbf" stroke="#bfbfbf" points="175.5,-697 175.5,-697 348.5,-697 348.5,-697 175.5,-697"/>
<polygon fill="none" stroke="#bfbfbf" points="175,-680 175,-740 348,-740 348,-680 175,-680"/>
</a>
</g>
</g>
<!-- Node3&#45;&gt;Node2 -->
<g id="edge2_Node000002_Node000003" class="edge">
<title>Node3&#45;&gt;Node2</title>
<g id="a_edge2_Node000002_Node000003"><a xlink:title=" ">
<path fill="none" stroke="#63b8ff" d="M254.57,-679.64C242.72,-623.25 223.34,-496.89 261.5,-401 272.56,-373.21 291.15,-347.51 311.5,-325.3"/>
<polygon fill="none" stroke="#63b8ff" points="311.74,-325.05 312.96,-317.94 319.99,-316.33 318.77,-323.44 311.74,-325.05"/>
</a>
</g>
<text text-anchor="middle" x="286" y="-514.5" font-family="Helvetica,sans-Serif" font-size="10.00" fill="grey"> &#45;mpMesh</text>
</g>
<!-- Node7 -->
<g id="Node000007" class="node">
<title>Node7</title>
<g id="a_Node000007"><a xlink:href="classAbstractCardiacCellFactory.html" target="_top" xlink:title=" ">
<polygon fill="white" stroke="transparent" points="499,-633 320,-633 320,-401 499,-401 499,-633"/>
<text text-anchor="start" x="332.5" y="-621" font-family="Helvetica,sans-Serif" font-size="10.00">AbstractCardiacCellFactory</text>
<text text-anchor="start" x="332.5" y="-610" font-family="Helvetica,sans-Serif" font-size="10.00">&lt; ELEMENT_DIM, SPACE_DIM &gt;</text>
<text text-anchor="start" x="408" y="-595" font-family="Helvetica,sans-Serif" font-size="10.00"> </text>
<text text-anchor="start" x="324.5" y="-580" font-family="Helvetica,sans-Serif" font-size="10.00">+</text>
<text text-anchor="start" x="337.5" y="-580" font-family="Helvetica,sans-Serif" font-size="10.00">CreateCardiacCellForNode()</text>
<text text-anchor="start" x="324.5" y="-565" font-family="Helvetica,sans-Serif" font-size="10.00">+</text>
<text text-anchor="start" x="337.5" y="-565" font-family="Helvetica,sans-Serif" font-size="10.00">CreateCardiacCellForTissue</text>
<text text-anchor="start" x="337.5" y="-554" font-family="Helvetica,sans-Serif" font-size="10.00">Node()</text>
<text text-anchor="start" x="324.5" y="-539" font-family="Helvetica,sans-Serif" font-size="10.00">+</text>
<text text-anchor="start" x="337.5" y="-539" font-family="Helvetica,sans-Serif" font-size="10.00">FinaliseCellCreation()</text>
<text text-anchor="start" x="324.5" y="-524" font-family="Helvetica,sans-Serif" font-size="10.00">+</text>
<text text-anchor="start" x="337.5" y="-524" font-family="Helvetica,sans-Serif" font-size="10.00">FillInCellularTransmural</text>
<text text-anchor="start" x="337.5" y="-513" font-family="Helvetica,sans-Serif" font-size="10.00">Areas()</text>
<text text-anchor="start" x="324.5" y="-498" font-family="Helvetica,sans-Serif" font-size="10.00">+</text>
<text text-anchor="start" x="337.5" y="-498" font-family="Helvetica,sans-Serif" font-size="10.00">GetNumberOfCells()</text>
<text text-anchor="start" x="324.5" y="-483" font-family="Helvetica,sans-Serif" font-size="10.00">+</text>
<text text-anchor="start" x="337.5" y="-483" font-family="Helvetica,sans-Serif" font-size="10.00">AbstractCardiacCellFactory()</text>
<text text-anchor="start" x="324.5" y="-468" font-family="Helvetica,sans-Serif" font-size="10.00">+</text>
<text text-anchor="start" x="337.5" y="-468" font-family="Helvetica,sans-Serif" font-size="10.00">~AbstractCardiacCellFactory()</text>
<text text-anchor="start" x="324.5" y="-453" font-family="Helvetica,sans-Serif" font-size="10.00">+</text>
<text text-anchor="start" x="337.5" y="-453" font-family="Helvetica,sans-Serif" font-size="10.00">SetMesh()</text>
<text text-anchor="start" x="324.5" y="-438" font-family="Helvetica,sans-Serif" font-size="10.00">+</text>
<text text-anchor="start" x="337.5" y="-438" font-family="Helvetica,sans-Serif" font-size="10.00">GetMesh()</text>
<text text-anchor="start" x="324.5" y="-423" font-family="Helvetica,sans-Serif" font-size="10.00">+</text>
<text text-anchor="start" x="337.5" y="-423" font-family="Helvetica,sans-Serif" font-size="10.00">SetHeartGeometryInformation()</text>
<text text-anchor="start" x="324.5" y="-408" font-family="Helvetica,sans-Serif" font-size="10.00">+</text>
<text text-anchor="start" x="337.5" y="-408" font-family="Helvetica,sans-Serif" font-size="10.00">GetHeartGeometryInformation()</text>
<polygon fill="#666666" stroke="#666666" points="320.5,-605 320.5,-605 499.5,-605 499.5,-605 320.5,-605"/>
<polygon fill="#666666" stroke="#666666" points="320.5,-590 320.5,-590 499.5,-590 499.5,-590 320.5,-590"/>
<polygon fill="none" stroke="#666666" points="320,-401 320,-633 499,-633 499,-401 320,-401"/>
</a>
</g>
</g>
<!-- Node3&#45;&gt;Node7 -->
<g id="edge7_Node000007_Node000003" class="edge">
<title>Node3&#45;&gt;Node7</title>
<g id="a_edge7_Node000007_Node000003"><a xlink:title=" ">
<path fill="none" stroke="#63b8ff" d="M283.98,-679.99C292.19,-669.39 302.08,-656.62 312.67,-642.96"/>
<polygon fill="none" stroke="#63b8ff" points="312.74,-642.87 313.26,-635.67 320.09,-633.38 319.58,-640.57 312.74,-642.87"/>
</a>
</g>
<text text-anchor="middle" x="330" y="-654" font-family="Helvetica,sans-Serif" font-size="10.00" fill="grey"> &#45;mpMesh</text>
</g>
<!-- Node4 -->
<g id="Node000004" class="node">
<title>Node4</title>
<g id="a_Node000004"><a xlink:title=" ">
<polygon fill="white" stroke="transparent" points="143,-740 0,-740 0,-680 143,-680 143,-740"/>
<text text-anchor="start" x="5.5" y="-728" font-family="Helvetica,sans-Serif" font-size="10.00">HeartGeometryInformation</text>
<text text-anchor="start" x="28.5" y="-717" font-family="Helvetica,sans-Serif" font-size="10.00">&lt; SPACE_DIM &gt; *</text>
<text text-anchor="start" x="70" y="-702" font-family="Helvetica,sans-Serif" font-size="10.00"> </text>
<text text-anchor="start" x="70" y="-687" font-family="Helvetica,sans-Serif" font-size="10.00"> </text>
<polygon fill="#bfbfbf" stroke="#bfbfbf" points="0.5,-712 0.5,-712 143.5,-712 143.5,-712 0.5,-712"/>
<polygon fill="#bfbfbf" stroke="#bfbfbf" points="0.5,-697 0.5,-697 143.5,-697 143.5,-697 0.5,-697"/>
<polygon fill="none" stroke="#bfbfbf" points="0,-680 0,-740 143,-740 143,-680 0,-680"/>
</a>
</g>
</g>
<!-- Node4&#45;&gt;Node2 -->
<g id="edge3_Node000002_Node000004" class="edge">
<title>Node4&#45;&gt;Node2</title>
<g id="a_edge3_Node000002_Node000004"><a xlink:title=" ">
<path fill="none" stroke="#63b8ff" d="M62.95,-679.76C47.74,-621.37 22.6,-488.42 79.5,-401 130.25,-323.03 231.22,-283.03 308.18,-263.08"/>
<polygon fill="none" stroke="#63b8ff" points="308.19,-263.08 313.04,-257.74 319.83,-260.17 314.98,-265.5 308.19,-263.08"/>
</a>
</g>
<text text-anchor="middle" x="157.5" y="-514.5" font-family="Helvetica,sans-Serif" font-size="10.00" fill="grey"> &#45;mpHeartGeometryInformation</text>
</g>
<!-- Node4&#45;&gt;Node7 -->
<g id="edge8_Node000007_Node000004" class="edge">
<title>Node4&#45;&gt;Node7</title>
<g id="a_edge8_Node000007_Node000004"><a xlink:title=" ">
<path fill="none" stroke="#63b8ff" d="M98.9,-679.92C110.89,-669.01 125.8,-657.65 141.5,-651 209.02,-622.4 240.21,-666.37 305.5,-633 306.88,-632.29 308.25,-631.56 309.62,-630.8"/>
<polygon fill="none" stroke="#63b8ff" points="309.63,-630.79 312.66,-624.25 319.87,-624.53 316.84,-631.07 309.63,-630.79"/>
</a>
</g>
<text text-anchor="middle" x="219.5" y="-654" font-family="Helvetica,sans-Serif" font-size="10.00" fill="grey"> &#45;mpHeartGeometryInformation</text>
</g>
<!-- Node5 -->
<g id="Node000005" class="node">
<title>Node5</title>
<g id="a_Node000005"><a xlink:title=" ">
<polygon fill="white" stroke="transparent" points="740.5,-734.5 590.5,-734.5 590.5,-685.5 740.5,-685.5 740.5,-734.5"/>
<text text-anchor="start" x="595.5" y="-722" font-family="Helvetica,sans-Serif" font-size="10.00">shared_ptr&lt; ZeroStimulus &gt;</text>
<text text-anchor="start" x="663.5" y="-707" font-family="Helvetica,sans-Serif" font-size="10.00"> </text>
<text text-anchor="start" x="663.5" y="-692" font-family="Helvetica,sans-Serif" font-size="10.00"> </text>
<polygon fill="#bfbfbf" stroke="#bfbfbf" points="590.5,-717 590.5,-717 740.5,-717 740.5,-717 590.5,-717"/>
<polygon fill="#bfbfbf" stroke="#bfbfbf" points="590.5,-702 590.5,-702 740.5,-702 740.5,-702 590.5,-702"/>
<polygon fill="none" stroke="#bfbfbf" points="590.5,-685.5 590.5,-734.5 740.5,-734.5 740.5,-685.5 590.5,-685.5"/>
</a>
</g>
</g>
<!-- Node5&#45;&gt;Node2 -->
<g id="edge4_Node000002_Node000005" class="edge">
<title>Node5&#45;&gt;Node2</title>
<g id="a_edge4_Node000002_Node000005"><a xlink:title=" ">
<path fill="none" stroke="#63b8ff" d="M668,-685.13C672.55,-629 676.1,-486.88 607.5,-401 579.07,-365.4 551.22,-380.65 509.33,-354.49"/>
<polygon fill="none" stroke="#63b8ff" points="509.16,-354.38 501.95,-354.28 499.27,-347.58 506.49,-347.68 509.16,-354.38"/>
</a>
</g>
<text text-anchor="middle" x="716" y="-514.5" font-family="Helvetica,sans-Serif" font-size="10.00" fill="grey"> #mpZeroStimulus</text>
</g>
<!-- Node5&#45;&gt;Node7 -->
<g id="edge9_Node000007_Node000005" class="edge">
<title>Node5&#45;&gt;Node7</title>
<g id="a_edge9_Node000007_Node000005"><a xlink:title=" ">
<path fill="none" stroke="#63b8ff" d="M616.56,-685.3C601.43,-677.91 584.75,-669.68 569.5,-662 544.47,-649.39 535.7,-650.11 513.5,-633 511.85,-631.73 510.21,-630.43 508.57,-629.11"/>
<polygon fill="none" stroke="#63b8ff" points="508.44,-628.99 501.27,-628.19 499.26,-621.26 506.42,-622.07 508.44,-628.99"/>
</a>
</g>
<text text-anchor="middle" x="616" y="-654" font-family="Helvetica,sans-Serif" font-size="10.00" fill="grey"> #mpZeroStimulus</text>
</g>
<!-- Node6 -->
<g id="Node000006" class="node">
<title>Node6</title>
<g id="a_Node000006"><a xlink:title=" ">
<polygon fill="white" stroke="transparent" points="554,-740 405,-740 405,-680 554,-680 554,-740"/>
<text text-anchor="start" x="410.5" y="-728" font-family="Helvetica,sans-Serif" font-size="10.00">shared_ptr&lt; AbstractIvpOde</text>
<text text-anchor="start" x="458.5" y="-717" font-family="Helvetica,sans-Serif" font-size="10.00">Solver &gt;</text>
<text text-anchor="start" x="478" y="-702" font-family="Helvetica,sans-Serif" font-size="10.00"> </text>
<text text-anchor="start" x="478" y="-687" font-family="Helvetica,sans-Serif" font-size="10.00"> </text>
<polygon fill="#bfbfbf" stroke="#bfbfbf" points="405.5,-712 405.5,-712 554.5,-712 554.5,-712 405.5,-712"/>
<polygon fill="#bfbfbf" stroke="#bfbfbf" points="405.5,-697 405.5,-697 554.5,-697 554.5,-697 405.5,-697"/>
<polygon fill="none" stroke="#bfbfbf" points="405,-680 405,-740 554,-740 554,-680 405,-680"/>
</a>
</g>
</g>
<!-- Node6&#45;&gt;Node2 -->
<g id="edge5_Node000002_Node000006" class="edge">
<title>Node6&#45;&gt;Node2</title>
<g id="a_edge5_Node000002_Node000006"><a xlink:title=" ">
<path fill="none" stroke="#63b8ff" d="M511.13,-679.86C515.37,-674.36 519.08,-668.34 521.5,-662 562.93,-553.47 542.68,-511.71 507.5,-401 503.71,-389.08 498.8,-377.15 493.2,-365.5"/>
<polygon fill="none" stroke="#63b8ff" points="493.02,-365.15 486.75,-361.58 487.63,-354.43 493.89,-357.99 493.02,-365.15"/>
</a>
</g>
<text text-anchor="middle" x="574.5" y="-514.5" font-family="Helvetica,sans-Serif" font-size="10.00" fill="grey"> #mpSolver</text>
</g>
<!-- Node6&#45;&gt;Node7 -->
<g id="edge10_Node000007_Node000006" class="edge">
<title>Node6&#45;&gt;Node7</title>
<g id="a_edge10_Node000007_Node000006"><a xlink:title=" ">
<path fill="none" stroke="#63b8ff" d="M468.87,-679.99C465.17,-669.9 460.75,-657.85 456.02,-644.93"/>
<polygon fill="none" stroke="#63b8ff" points="455.92,-644.65 450.1,-640.39 451.79,-633.38 457.61,-637.64 455.92,-644.65"/>
</a>
</g>
<text text-anchor="middle" x="490.5" y="-654" font-family="Helvetica,sans-Serif" font-size="10.00" fill="grey"> #mpSolver</text>
</g>
<!-- Node7&#45;&gt;Node2 -->
<g id="edge6_Node000002_Node000007" class="edge">
<title>Node7&#45;&gt;Node2</title>
<g id="a_edge6_Node000002_Node000007"><a xlink:title=" ">
<path fill="none" stroke="orange" d="M409.5,-390.67C409.5,-378.49 409.5,-366.2 409.5,-354.2"/>
<polygon fill="orange" stroke="orange" points="406,-390.86 409.5,-400.86 413,-390.86 406,-390.86"/>
</a>
</g>
<text text-anchor="middle" x="425.5" y="-375" font-family="Helvetica,sans-Serif" font-size="10.00" fill="grey"> &lt; 2 &gt;</text>
</g>
<!-- Node8 -->
<g id="Node000008" class="node">
<title>Node8</title>
<g id="a_Node000008"><a xlink:title=" ">
<polygon fill="white" stroke="transparent" points="678,-268 517,-268 517,-219 678,-219 678,-268"/>
<text text-anchor="start" x="522.5" y="-255.5" font-family="Helvetica,sans-Serif" font-size="10.00">shared_ptr&lt; SimpleStimulus &gt;</text>
<text text-anchor="start" x="596" y="-240.5" font-family="Helvetica,sans-Serif" font-size="10.00"> </text>
<text text-anchor="start" x="596" y="-225.5" font-family="Helvetica,sans-Serif" font-size="10.00"> </text>
<polygon fill="#bfbfbf" stroke="#bfbfbf" points="517.5,-250.5 517.5,-250.5 678.5,-250.5 678.5,-250.5 517.5,-250.5"/>
<polygon fill="#bfbfbf" stroke="#bfbfbf" points="517.5,-235.5 517.5,-235.5 678.5,-235.5 678.5,-235.5 517.5,-235.5"/>
<polygon fill="none" stroke="#bfbfbf" points="517,-219 517,-268 678,-268 678,-219 517,-219"/>
</a>
</g>
</g>
<!-- Node8&#45;&gt;Node1 -->
<g id="edge11_Node000001_Node000008" class="edge">
<title>Node8&#45;&gt;Node1</title>
<g id="a_edge11_Node000001_Node000008"><a xlink:title=" ">
<path fill="none" stroke="#63b8ff" d="M607.65,-218.7C621.42,-186.42 646.32,-128.03 664.05,-86.46"/>
<polygon fill="none" stroke="#63b8ff" points="664.13,-86.26 662.81,-79.17 668.84,-75.22 670.17,-82.31 664.13,-86.26"/>
</a>
</g>
<text text-anchor="middle" x="699.5" y="-107" font-family="Helvetica,sans-Serif" font-size="10.00" fill="grey"> &#45;mpS1Stimulus</text>
<text text-anchor="middle" x="699.5" y="-96" font-family="Helvetica,sans-Serif" font-size="10.00" fill="grey">&#45;mpS2Stimulus</text>
</g>
<!-- Node9 -->
<g id="Node000009" class="node">
<title>Node9</title>
<g id="a_Node000009"><a xlink:title=" ">
<polygon fill="white" stroke="transparent" points="848.5,-268 696.5,-268 696.5,-219 848.5,-219 848.5,-268"/>
<text text-anchor="start" x="701.5" y="-255.5" font-family="Helvetica,sans-Serif" font-size="10.00">shared_ptr&lt; MultiStimulus &gt;</text>
<text text-anchor="start" x="770.5" y="-240.5" font-family="Helvetica,sans-Serif" font-size="10.00"> </text>
<text text-anchor="start" x="770.5" y="-225.5" font-family="Helvetica,sans-Serif" font-size="10.00"> </text>
<polygon fill="#bfbfbf" stroke="#bfbfbf" points="696.5,-250.5 696.5,-250.5 848.5,-250.5 848.5,-250.5 696.5,-250.5"/>
<polygon fill="#bfbfbf" stroke="#bfbfbf" points="696.5,-235.5 696.5,-235.5 848.5,-235.5 848.5,-235.5 696.5,-235.5"/>
<polygon fill="none" stroke="#bfbfbf" points="696.5,-219 696.5,-268 848.5,-268 848.5,-219 696.5,-219"/>
</a>
</g>
</g>
<!-- Node9&#45;&gt;Node1 -->
<g id="edge12_Node000001_Node000009" class="edge">
<title>Node9&#45;&gt;Node1</title>
<g id="a_edge12_Node000001_Node000009"><a xlink:title=" ">
<path fill="none" stroke="#63b8ff" d="M772.14,-218.97C770.73,-188.17 764.94,-133.38 742.5,-93 740.92,-90.15 739.14,-87.37 737.2,-84.66"/>
<polygon fill="none" stroke="#63b8ff" points="737.14,-84.58 730.27,-82.39 729.64,-75.2 736.51,-77.39 737.14,-84.58"/>
</a>
</g>
<text text-anchor="middle" x="794.5" y="-101.5" font-family="Helvetica,sans-Serif" font-size="10.00" fill="grey"> &#45;mpBothStimulus</text>
</g>
<!-- Node10 -->
<g id="Node000010" class="node">
<title>Node10</title>
<g id="a_Node000010"><a xlink:href="classdouble.html" target="_top" xlink:title=" ">
<polygon fill="white" stroke="transparent" points="910.5,-268 866.5,-268 866.5,-219 910.5,-219 910.5,-268"/>
<text text-anchor="start" x="871.5" y="-255.5" font-family="Helvetica,sans-Serif" font-size="10.00">double</text>
<text text-anchor="start" x="886.5" y="-240.5" font-family="Helvetica,sans-Serif" font-size="10.00"> </text>
<text text-anchor="start" x="886.5" y="-225.5" font-family="Helvetica,sans-Serif" font-size="10.00"> </text>
<polygon fill="#bfbfbf" stroke="#bfbfbf" points="866.5,-250.5 866.5,-250.5 910.5,-250.5 910.5,-250.5 866.5,-250.5"/>
<polygon fill="#bfbfbf" stroke="#bfbfbf" points="866.5,-235.5 866.5,-235.5 910.5,-235.5 910.5,-235.5 866.5,-235.5"/>
<polygon fill="none" stroke="#bfbfbf" points="866.5,-219 866.5,-268 910.5,-268 910.5,-219 866.5,-219"/>
</a>
</g>
</g>
<!-- Node10&#45;&gt;Node1 -->
<g id="edge13_Node000001_Node000010" class="edge">
<title>Node10&#45;&gt;Node1</title>
<g id="a_edge13_Node000001_Node000010"><a xlink:title=" ">
<path fill="none" stroke="#63b8ff" d="M887.95,-218.99C885.89,-186.16 877.23,-126.82 842.5,-93 826.89,-77.8 806.84,-66.83 786.3,-58.91"/>
<polygon fill="none" stroke="#63b8ff" points="786.17,-58.86 779.17,-60.61 774.87,-54.82 781.86,-53.07 786.17,-58.86"/>
</a>
</g>
<text text-anchor="middle" x="885" y="-107" font-family="Helvetica,sans-Serif" font-size="10.00" fill="grey"> &#45;mXExtent</text>
<text text-anchor="middle" x="885" y="-96" font-family="Helvetica,sans-Serif" font-size="10.00" fill="grey">&#45;mYExtent</text>
</g>
</g>
</svg>
