<?xml version="1.0" encoding="UTF-8" standalone="no"?>
<!DOCTYPE svg PUBLIC "-//W3C//DTD SVG 1.1//EN"
 "http://www.w3.org/Graphics/SVG/1.1/DTD/svg11.dtd">
<!-- Generated by graphviz version 2.43.0 (0)
 -->
<!-- Title: Nash2004ContractionModel Pages: 1 -->
<svg width="371pt" height="1579pt"
 viewBox="0.00 0.00 370.50 1579.00" xmlns="http://www.w3.org/2000/svg" xmlns:xlink="http://www.w3.org/1999/xlink">
<g id="graph0" class="graph" transform="scale(1 1) rotate(0) translate(4 1575)">
<title>Nash2004ContractionModel</title>
<!-- Node1 -->
<g id="Node000001" class="node">
<title>Node1</title>
<g id="a_Node000001"><a xlink:title=" ">
<polygon fill="#999999" stroke="transparent" points="318.5,-184 154.5,-184 154.5,0 318.5,0 318.5,-184"/>
<text text-anchor="start" x="168.5" y="-172" font-family="Helvetica,sans-Serif" font-size="10.00">Nash2004ContractionModel</text>
<text text-anchor="start" x="161" y="-157" font-family="Helvetica,sans-Serif" font-size="10.00">&#45;</text>
<text text-anchor="start" x="171.5" y="-157" font-family="Helvetica,sans-Serif" font-size="10.00">mScaledVoltage</text>
<text text-anchor="start" x="161" y="-142" font-family="Helvetica,sans-Serif" font-size="10.00">&#45;</text>
<text text-anchor="start" x="171.5" y="-142" font-family="Helvetica,sans-Serif" font-size="10.00">kTa</text>
<text text-anchor="start" x="161" y="-127" font-family="Helvetica,sans-Serif" font-size="10.00">&#45;</text>
<text text-anchor="start" x="171.5" y="-127" font-family="Helvetica,sans-Serif" font-size="10.00">e0ByT0</text>
<text text-anchor="start" x="158.5" y="-112" font-family="Helvetica,sans-Serif" font-size="10.00">+</text>
<text text-anchor="start" x="171.5" y="-112" font-family="Helvetica,sans-Serif" font-size="10.00">Nash2004ContractionModel()</text>
<text text-anchor="start" x="158.5" y="-97" font-family="Helvetica,sans-Serif" font-size="10.00">+</text>
<text text-anchor="start" x="171.5" y="-97" font-family="Helvetica,sans-Serif" font-size="10.00">EvaluateYDerivatives()</text>
<text text-anchor="start" x="158.5" y="-82" font-family="Helvetica,sans-Serif" font-size="10.00">+</text>
<text text-anchor="start" x="171.5" y="-82" font-family="Helvetica,sans-Serif" font-size="10.00">SetInputParameters()</text>
<text text-anchor="start" x="158.5" y="-67" font-family="Helvetica,sans-Serif" font-size="10.00">+</text>
<text text-anchor="start" x="171.5" y="-67" font-family="Helvetica,sans-Serif" font-size="10.00">SetStretchAndStretchRate()</text>
<text text-anchor="start" x="158.5" y="-52" font-family="Helvetica,sans-Serif" font-size="10.00">+</text>
<text text-anchor="start" x="171.5" y="-52" font-family="Helvetica,sans-Serif" font-size="10.00">GetActiveTension()</text>
<text text-anchor="start" x="158.5" y="-37" font-family="Helvetica,sans-Serif" font-size="10.00">+</text>
<text text-anchor="start" x="171.5" y="-37" font-family="Helvetica,sans-Serif" font-size="10.00">GetNextActiveTension()</text>
<text text-anchor="start" x="158.5" y="-22" font-family="Helvetica,sans-Serif" font-size="10.00">+</text>
<text text-anchor="start" x="171.5" y="-22" font-family="Helvetica,sans-Serif" font-size="10.00">IsStretchDependent()</text>
<text text-anchor="start" x="158.5" y="-7" font-family="Helvetica,sans-Serif" font-size="10.00">+</text>
<text text-anchor="start" x="171.5" y="-7" font-family="Helvetica,sans-Serif" font-size="10.00">IsStretchRateDependent()</text>
<polygon fill="#666666" stroke="#666666" points="154.5,-167 154.5,-167 318.5,-167 318.5,-167 154.5,-167"/>
<polygon fill="#666666" stroke="#666666" points="154.5,-122 154.5,-122 169.5,-122 169.5,-122 154.5,-122"/>
<polygon fill="#666666" stroke="#666666" points="169.5,-122 169.5,-122 318.5,-122 318.5,-122 169.5,-122"/>
<polygon fill="none" stroke="#666666" points="154.5,0 154.5,-184 318.5,-184 318.5,0 154.5,0"/>
</a>
</g>
</g>
<!-- Node2 -->
<g id="Node000002" class="node">
<title>Node2</title>
<g id="a_Node000002"><a xlink:href="classAbstractOdeBasedContractionModel.html" target="_top" xlink:title=" ">
<polygon fill="white" stroke="transparent" points="320.5,-352 152.5,-352 152.5,-221 320.5,-221 320.5,-352"/>
<text text-anchor="start" x="163" y="-339.5" font-family="Helvetica,sans-Serif" font-size="10.00">AbstractOdeBasedContraction</text>
<text text-anchor="start" x="221" y="-328.5" font-family="Helvetica,sans-Serif" font-size="10.00">Model</text>
<text text-anchor="start" x="156.5" y="-313.5" font-family="Helvetica,sans-Serif" font-size="10.00">#</text>
<text text-anchor="start" x="169.5" y="-313.5" font-family="Helvetica,sans-Serif" font-size="10.00">mTemporaryStateVariables</text>
<text text-anchor="start" x="156.5" y="-298.5" font-family="Helvetica,sans-Serif" font-size="10.00">#</text>
<text text-anchor="start" x="169.5" y="-298.5" font-family="Helvetica,sans-Serif" font-size="10.00">mTime</text>
<text text-anchor="start" x="156.5" y="-283.5" font-family="Helvetica,sans-Serif" font-size="10.00">+</text>
<text text-anchor="start" x="169.5" y="-283.5" font-family="Helvetica,sans-Serif" font-size="10.00">AbstractOdeBasedContraction</text>
<text text-anchor="start" x="169.5" y="-272.5" font-family="Helvetica,sans-Serif" font-size="10.00">Model()</text>
<text text-anchor="start" x="156.5" y="-257.5" font-family="Helvetica,sans-Serif" font-size="10.00">+</text>
<text text-anchor="start" x="169.5" y="-257.5" font-family="Helvetica,sans-Serif" font-size="10.00">RunDoNotUpdate()</text>
<text text-anchor="start" x="156.5" y="-242.5" font-family="Helvetica,sans-Serif" font-size="10.00">+</text>
<text text-anchor="start" x="169.5" y="-242.5" font-family="Helvetica,sans-Serif" font-size="10.00">UpdateStateVariables()</text>
<text text-anchor="start" x="156.5" y="-227.5" font-family="Helvetica,sans-Serif" font-size="10.00">+</text>
<text text-anchor="start" x="169.5" y="-227.5" font-family="Helvetica,sans-Serif" font-size="10.00">RunAndUpdate()</text>
<polygon fill="#666666" stroke="#666666" points="152.5,-323.5 152.5,-323.5 320.5,-323.5 320.5,-323.5 152.5,-323.5"/>
<polygon fill="#666666" stroke="#666666" points="152.5,-293.5 152.5,-293.5 167.5,-293.5 167.5,-293.5 152.5,-293.5"/>
<polygon fill="#666666" stroke="#666666" points="167.5,-293.5 167.5,-293.5 320.5,-293.5 320.5,-293.5 167.5,-293.5"/>
<polygon fill="none" stroke="#666666" points="152.5,-221 152.5,-352 320.5,-352 320.5,-221 152.5,-221"/>
</a>
</g>
</g>
<!-- Node2&#45;&gt;Node1 -->
<g id="edge1_Node000001_Node000002" class="edge">
<title>Node2&#45;&gt;Node1</title>
<g id="a_edge1_Node000001_Node000002"><a xlink:title=" ">
<path fill="none" stroke="#63b8ff" d="M236.5,-210.76C236.5,-202.04 236.5,-193.07 236.5,-184.16"/>
<polygon fill="none" stroke="#63b8ff" points="233,-210.86 236.5,-220.86 240,-210.86 233,-210.86"/>
</a>
</g>
</g>
<!-- Node3 -->
<g id="Node000003" class="node">
<title>Node3</title>
<g id="a_Node000003"><a xlink:href="classAbstractOdeSystem.html" target="_top" xlink:title=" ">
<polygon fill="white" stroke="transparent" points="180.5,-580.5 32.5,-580.5 32.5,-411.5 180.5,-411.5 180.5,-580.5"/>
<text text-anchor="start" x="58" y="-568" font-family="Helvetica,sans-Serif" font-size="10.00">AbstractOdeSystem</text>
<text text-anchor="start" x="36.5" y="-553" font-family="Helvetica,sans-Serif" font-size="10.00">#</text>
<text text-anchor="start" x="49.5" y="-553" font-family="Helvetica,sans-Serif" font-size="10.00">mUseAnalyticJacobian</text>
<text text-anchor="start" x="36.5" y="-538" font-family="Helvetica,sans-Serif" font-size="10.00">+</text>
<text text-anchor="start" x="49.5" y="-538" font-family="Helvetica,sans-Serif" font-size="10.00">AbstractOdeSystem()</text>
<text text-anchor="start" x="36.5" y="-523" font-family="Helvetica,sans-Serif" font-size="10.00">+</text>
<text text-anchor="start" x="49.5" y="-523" font-family="Helvetica,sans-Serif" font-size="10.00">~AbstractOdeSystem()</text>
<text text-anchor="start" x="36.5" y="-508" font-family="Helvetica,sans-Serif" font-size="10.00">+</text>
<text text-anchor="start" x="49.5" y="-508" font-family="Helvetica,sans-Serif" font-size="10.00">EvaluateYDerivatives()</text>
<text text-anchor="start" x="36.5" y="-493" font-family="Helvetica,sans-Serif" font-size="10.00">+</text>
<text text-anchor="start" x="49.5" y="-493" font-family="Helvetica,sans-Serif" font-size="10.00">CalculateStoppingEvent()</text>
<text text-anchor="start" x="36.5" y="-478" font-family="Helvetica,sans-Serif" font-size="10.00">+</text>
<text text-anchor="start" x="49.5" y="-478" font-family="Helvetica,sans-Serif" font-size="10.00">CalculateRootFunction()</text>
<text text-anchor="start" x="36.5" y="-463" font-family="Helvetica,sans-Serif" font-size="10.00">+</text>
<text text-anchor="start" x="49.5" y="-463" font-family="Helvetica,sans-Serif" font-size="10.00">GetUseAnalyticJacobian()</text>
<text text-anchor="start" x="36.5" y="-448" font-family="Helvetica,sans-Serif" font-size="10.00">+</text>
<text text-anchor="start" x="49.5" y="-448" font-family="Helvetica,sans-Serif" font-size="10.00">rGetConstStateVariables()</text>
<text text-anchor="start" x="39" y="-433" font-family="Helvetica,sans-Serif" font-size="10.00">&#45;</text>
<text text-anchor="start" x="49.5" y="-433" font-family="Helvetica,sans-Serif" font-size="10.00">save()</text>
<text text-anchor="start" x="39" y="-418" font-family="Helvetica,sans-Serif" font-size="10.00">&#45;</text>
<text text-anchor="start" x="49.5" y="-418" font-family="Helvetica,sans-Serif" font-size="10.00">load()</text>
<polygon fill="#666666" stroke="#666666" points="32.5,-563 32.5,-563 180.5,-563 180.5,-563 32.5,-563"/>
<polygon fill="#666666" stroke="#666666" points="32.5,-548 32.5,-548 47.5,-548 47.5,-548 32.5,-548"/>
<polygon fill="#666666" stroke="#666666" points="47.5,-548 47.5,-548 180.5,-548 180.5,-548 47.5,-548"/>
<polygon fill="none" stroke="#666666" points="32.5,-411.5 32.5,-580.5 180.5,-580.5 180.5,-411.5 32.5,-411.5"/>
</a>
</g>
</g>
<!-- Node3&#45;&gt;Node2 -->
<g id="edge2_Node000002_Node000003" class="edge">
<title>Node3&#45;&gt;Node2</title>
<g id="a_edge2_Node000002_Node000003"><a xlink:title=" ">
<path fill="none" stroke="#63b8ff" d="M164.38,-402.61C175.08,-385.53 186.04,-368.04 196.09,-352.01"/>
<polygon fill="none" stroke="#63b8ff" points="161.16,-401.17 158.81,-411.5 167.09,-404.88 161.16,-401.17"/>
</a>
</g>
</g>
<!-- Node4 -->
<g id="Node000004" class="node">
<title>Node4</title>
<g id="a_Node000004"><a xlink:href="classAbstractParameterisedSystem.html" target="_top" xlink:title=" ">
<polygon fill="white" stroke="transparent" points="195,-940 18,-940 18,-640 195,-640 195,-940"/>
<text text-anchor="start" x="33" y="-928" font-family="Helvetica,sans-Serif" font-size="10.00">AbstractParameterisedSystem</text>
<text text-anchor="start" x="42" y="-917" font-family="Helvetica,sans-Serif" font-size="10.00">&lt; std::vector&lt; double &gt; &gt;</text>
<text text-anchor="start" x="22.5" y="-902" font-family="Helvetica,sans-Serif" font-size="10.00">#</text>
<text text-anchor="start" x="35.5" y="-902" font-family="Helvetica,sans-Serif" font-size="10.00">mStateVariables</text>
<text text-anchor="start" x="22.5" y="-887" font-family="Helvetica,sans-Serif" font-size="10.00">#</text>
<text text-anchor="start" x="35.5" y="-887" font-family="Helvetica,sans-Serif" font-size="10.00">mParameters</text>
<text text-anchor="start" x="22.5" y="-872" font-family="Helvetica,sans-Serif" font-size="10.00">+</text>
<text text-anchor="start" x="35.5" y="-872" font-family="Helvetica,sans-Serif" font-size="10.00">AbstractParameterisedSystem()</text>
<text text-anchor="start" x="22.5" y="-857" font-family="Helvetica,sans-Serif" font-size="10.00">+</text>
<text text-anchor="start" x="35.5" y="-857" font-family="Helvetica,sans-Serif" font-size="10.00">rGetStateVariables()</text>
<text text-anchor="start" x="22.5" y="-842" font-family="Helvetica,sans-Serif" font-size="10.00">+</text>
<text text-anchor="start" x="35.5" y="-842" font-family="Helvetica,sans-Serif" font-size="10.00">GetStateVariables()</text>
<text text-anchor="start" x="22.5" y="-827" font-family="Helvetica,sans-Serif" font-size="10.00">+</text>
<text text-anchor="start" x="35.5" y="-827" font-family="Helvetica,sans-Serif" font-size="10.00">SetStateVariables()</text>
<text text-anchor="start" x="22.5" y="-812" font-family="Helvetica,sans-Serif" font-size="10.00">+</text>
<text text-anchor="start" x="35.5" y="-812" font-family="Helvetica,sans-Serif" font-size="10.00">GetStateVariable()</text>
<text text-anchor="start" x="22.5" y="-797" font-family="Helvetica,sans-Serif" font-size="10.00">+</text>
<text text-anchor="start" x="35.5" y="-797" font-family="Helvetica,sans-Serif" font-size="10.00">GetStateVariable()</text>
<text text-anchor="start" x="22.5" y="-782" font-family="Helvetica,sans-Serif" font-size="10.00">+</text>
<text text-anchor="start" x="35.5" y="-782" font-family="Helvetica,sans-Serif" font-size="10.00">SetStateVariable()</text>
<text text-anchor="start" x="22.5" y="-767" font-family="Helvetica,sans-Serif" font-size="10.00">+</text>
<text text-anchor="start" x="35.5" y="-767" font-family="Helvetica,sans-Serif" font-size="10.00">SetStateVariable()</text>
<text text-anchor="start" x="22.5" y="-752" font-family="Helvetica,sans-Serif" font-size="10.00">+</text>
<text text-anchor="start" x="35.5" y="-752" font-family="Helvetica,sans-Serif" font-size="10.00">VerifyStateVariables()</text>
<text text-anchor="start" x="22.5" y="-737" font-family="Helvetica,sans-Serif" font-size="10.00">+</text>
<text text-anchor="start" x="35.5" y="-737" font-family="Helvetica,sans-Serif" font-size="10.00">SetDefaultInitialConditions()</text>
<text text-anchor="start" x="35.5" y="-722" font-family="Helvetica,sans-Serif" font-size="10.00">and 13 more...</text>
<text text-anchor="start" x="22.5" y="-707" font-family="Helvetica,sans-Serif" font-size="10.00">#</text>
<text text-anchor="start" x="35.5" y="-707" font-family="Helvetica,sans-Serif" font-size="10.00">DumpState()</text>
<text text-anchor="start" x="22.5" y="-692" font-family="Helvetica,sans-Serif" font-size="10.00">#</text>
<text text-anchor="start" x="35.5" y="-692" font-family="Helvetica,sans-Serif" font-size="10.00">DumpState()</text>
<text text-anchor="start" x="22.5" y="-677" font-family="Helvetica,sans-Serif" font-size="10.00">#</text>
<text text-anchor="start" x="35.5" y="-677" font-family="Helvetica,sans-Serif" font-size="10.00">DumpState()</text>
<text text-anchor="start" x="22.5" y="-662" font-family="Helvetica,sans-Serif" font-size="10.00">#</text>
<text text-anchor="start" x="35.5" y="-662" font-family="Helvetica,sans-Serif" font-size="10.00">CheckParametersOnLoad()</text>
<text text-anchor="start" x="25" y="-647" font-family="Helvetica,sans-Serif" font-size="10.00">&#45;</text>
<text text-anchor="start" x="35.5" y="-647" font-family="Helvetica,sans-Serif" font-size="10.00">GetStateMessage()</text>
<polygon fill="#666666" stroke="#666666" points="18.5,-912 18.5,-912 195.5,-912 195.5,-912 18.5,-912"/>
<polygon fill="#666666" stroke="#666666" points="18.5,-882 18.5,-882 33.5,-882 33.5,-882 18.5,-882"/>
<polygon fill="#666666" stroke="#666666" points="33.5,-882 33.5,-882 195.5,-882 195.5,-882 33.5,-882"/>
<polygon fill="none" stroke="#666666" points="18,-640 18,-940 195,-940 195,-640 18,-640"/>
</a>
</g>
</g>
<!-- Node4&#45;&gt;Node3 -->
<g id="edge3_Node000003_Node000004" class="edge">
<title>Node4&#45;&gt;Node3</title>
<g id="a_edge3_Node000003_Node000004"><a xlink:title=" ">
<path fill="none" stroke="#63b8ff" d="M106.5,-629.18C106.5,-612.51 106.5,-596.08 106.5,-580.77"/>
<polygon fill="none" stroke="#63b8ff" points="103,-629.58 106.5,-639.58 110,-629.58 103,-629.58"/>
</a>
</g>
</g>
<!-- Node5 -->
<g id="Node000005" class="node">
<title>Node5</title>
<g id="a_Node000005"><a xlink:href="classAbstractUntemplatedParameterisedSystem.html" target="_top" xlink:title=" ">
<polygon fill="white" stroke="transparent" points="205,-1571 0,-1571 0,-1324 205,-1324 205,-1571"/>
<text text-anchor="start" x="15.5" y="-1558.5" font-family="Helvetica,sans-Serif" font-size="10.00">AbstractUntemplatedParameterised</text>
<text text-anchor="start" x="84.5" y="-1547.5" font-family="Helvetica,sans-Serif" font-size="10.00">System</text>
<text text-anchor="start" x="4.5" y="-1532.5" font-family="Helvetica,sans-Serif" font-size="10.00">#</text>
<text text-anchor="start" x="17.5" y="-1532.5" font-family="Helvetica,sans-Serif" font-size="10.00">mNumberOfStateVariables</text>
<text text-anchor="start" x="4.5" y="-1517.5" font-family="Helvetica,sans-Serif" font-size="10.00">#</text>
<text text-anchor="start" x="17.5" y="-1517.5" font-family="Helvetica,sans-Serif" font-size="10.00">mpSystemInfo</text>
<text text-anchor="start" x="4.5" y="-1502.5" font-family="Helvetica,sans-Serif" font-size="10.00">+</text>
<text text-anchor="start" x="17.5" y="-1502.5" font-family="Helvetica,sans-Serif" font-size="10.00">AbstractUntemplatedParameterised</text>
<text text-anchor="start" x="17.5" y="-1491.5" font-family="Helvetica,sans-Serif" font-size="10.00">System()</text>
<text text-anchor="start" x="4.5" y="-1476.5" font-family="Helvetica,sans-Serif" font-size="10.00">+</text>
<text text-anchor="start" x="17.5" y="-1476.5" font-family="Helvetica,sans-Serif" font-size="10.00">~AbstractUntemplatedParameterised</text>
<text text-anchor="start" x="17.5" y="-1465.5" font-family="Helvetica,sans-Serif" font-size="10.00">System()</text>
<text text-anchor="start" x="4.5" y="-1450.5" font-family="Helvetica,sans-Serif" font-size="10.00">+</text>
<text text-anchor="start" x="17.5" y="-1450.5" font-family="Helvetica,sans-Serif" font-size="10.00">GetSystemInformation()</text>
<text text-anchor="start" x="4.5" y="-1435.5" font-family="Helvetica,sans-Serif" font-size="10.00">+</text>
<text text-anchor="start" x="17.5" y="-1435.5" font-family="Helvetica,sans-Serif" font-size="10.00">GetSystemName()</text>
<text text-anchor="start" x="4.5" y="-1420.5" font-family="Helvetica,sans-Serif" font-size="10.00">+</text>
<text text-anchor="start" x="17.5" y="-1420.5" font-family="Helvetica,sans-Serif" font-size="10.00">GetNumberOfAttributes()</text>
<text text-anchor="start" x="4.5" y="-1405.5" font-family="Helvetica,sans-Serif" font-size="10.00">+</text>
<text text-anchor="start" x="17.5" y="-1405.5" font-family="Helvetica,sans-Serif" font-size="10.00">HasAttribute()</text>
<text text-anchor="start" x="4.5" y="-1390.5" font-family="Helvetica,sans-Serif" font-size="10.00">+</text>
<text text-anchor="start" x="17.5" y="-1390.5" font-family="Helvetica,sans-Serif" font-size="10.00">GetAttribute()</text>
<text text-anchor="start" x="4.5" y="-1375.5" font-family="Helvetica,sans-Serif" font-size="10.00">+</text>
<text text-anchor="start" x="17.5" y="-1375.5" font-family="Helvetica,sans-Serif" font-size="10.00">GetNumberOfStateVariables()</text>
<text text-anchor="start" x="4.5" y="-1360.5" font-family="Helvetica,sans-Serif" font-size="10.00">+</text>
<text text-anchor="start" x="17.5" y="-1360.5" font-family="Helvetica,sans-Serif" font-size="10.00">rGetStateVariableNames()</text>
<text text-anchor="start" x="4.5" y="-1345.5" font-family="Helvetica,sans-Serif" font-size="10.00">+</text>
<text text-anchor="start" x="17.5" y="-1345.5" font-family="Helvetica,sans-Serif" font-size="10.00">rGetStateVariableUnits()</text>
<text text-anchor="start" x="17.5" y="-1330.5" font-family="Helvetica,sans-Serif" font-size="10.00">and 20 more...</text>
<polygon fill="#666666" stroke="#666666" points="0.5,-1542.5 0.5,-1542.5 205.5,-1542.5 205.5,-1542.5 0.5,-1542.5"/>
<polygon fill="#666666" stroke="#666666" points="0.5,-1512.5 0.5,-1512.5 15.5,-1512.5 15.5,-1512.5 0.5,-1512.5"/>
<polygon fill="#666666" stroke="#666666" points="15.5,-1512.5 15.5,-1512.5 205.5,-1512.5 205.5,-1512.5 15.5,-1512.5"/>
<polygon fill="none" stroke="#666666" points="0,-1324 0,-1571 205,-1571 205,-1324 0,-1324"/>
</a>
</g>
</g>
<!-- Node5&#45;&gt;Node4 -->
<g id="edge4_Node000004_Node000005" class="edge">
<title>Node5&#45;&gt;Node4</title>
<g id="a_edge4_Node000004_Node000005"><a xlink:title=" ">
<path fill="none" stroke="#63b8ff" d="M103.31,-1313.97C103.97,-1205.72 104.9,-1052.77 105.59,-940.23"/>
<polygon fill="none" stroke="#63b8ff" points="99.81,-1313.95 103.25,-1323.97 106.81,-1314 99.81,-1313.95"/>
</a>
</g>
</g>
<!-- Node6 -->
<g id="Node000006" class="node">
<title>Node6</title>
<g id="a_Node000006"><a xlink:href="classAbstractParameterisedSystem.html" target="_top" xlink:title=" ">
<polygon fill="white" stroke="transparent" points="295,-1287 118,-1287 118,-987 295,-987 295,-1287"/>
<text text-anchor="start" x="133" y="-1275" font-family="Helvetica,sans-Serif" font-size="10.00">AbstractParameterisedSystem</text>
<text text-anchor="start" x="175.5" y="-1264" font-family="Helvetica,sans-Serif" font-size="10.00">&lt; VECTOR &gt;</text>
<text text-anchor="start" x="122.5" y="-1249" font-family="Helvetica,sans-Serif" font-size="10.00">#</text>
<text text-anchor="start" x="135.5" y="-1249" font-family="Helvetica,sans-Serif" font-size="10.00">mStateVariables</text>
<text text-anchor="start" x="122.5" y="-1234" font-family="Helvetica,sans-Serif" font-size="10.00">#</text>
<text text-anchor="start" x="135.5" y="-1234" font-family="Helvetica,sans-Serif" font-size="10.00">mParameters</text>
<text text-anchor="start" x="122.5" y="-1219" font-family="Helvetica,sans-Serif" font-size="10.00">+</text>
<text text-anchor="start" x="135.5" y="-1219" font-family="Helvetica,sans-Serif" font-size="10.00">AbstractParameterisedSystem()</text>
<text text-anchor="start" x="122.5" y="-1204" font-family="Helvetica,sans-Serif" font-size="10.00">+</text>
<text text-anchor="start" x="135.5" y="-1204" font-family="Helvetica,sans-Serif" font-size="10.00">rGetStateVariables()</text>
<text text-anchor="start" x="122.5" y="-1189" font-family="Helvetica,sans-Serif" font-size="10.00">+</text>
<text text-anchor="start" x="135.5" y="-1189" font-family="Helvetica,sans-Serif" font-size="10.00">GetStateVariables()</text>
<text text-anchor="start" x="122.5" y="-1174" font-family="Helvetica,sans-Serif" font-size="10.00">+</text>
<text text-anchor="start" x="135.5" y="-1174" font-family="Helvetica,sans-Serif" font-size="10.00">SetStateVariables()</text>
<text text-anchor="start" x="122.5" y="-1159" font-family="Helvetica,sans-Serif" font-size="10.00">+</text>
<text text-anchor="start" x="135.5" y="-1159" font-family="Helvetica,sans-Serif" font-size="10.00">GetStateVariable()</text>
<text text-anchor="start" x="122.5" y="-1144" font-family="Helvetica,sans-Serif" font-size="10.00">+</text>
<text text-anchor="start" x="135.5" y="-1144" font-family="Helvetica,sans-Serif" font-size="10.00">GetStateVariable()</text>
<text text-anchor="start" x="122.5" y="-1129" font-family="Helvetica,sans-Serif" font-size="10.00">+</text>
<text text-anchor="start" x="135.5" y="-1129" font-family="Helvetica,sans-Serif" font-size="10.00">SetStateVariable()</text>
<text text-anchor="start" x="122.5" y="-1114" font-family="Helvetica,sans-Serif" font-size="10.00">+</text>
<text text-anchor="start" x="135.5" y="-1114" font-family="Helvetica,sans-Serif" font-size="10.00">SetStateVariable()</text>
<text text-anchor="start" x="122.5" y="-1099" font-family="Helvetica,sans-Serif" font-size="10.00">+</text>
<text text-anchor="start" x="135.5" y="-1099" font-family="Helvetica,sans-Serif" font-size="10.00">VerifyStateVariables()</text>
<text text-anchor="start" x="122.5" y="-1084" font-family="Helvetica,sans-Serif" font-size="10.00">+</text>
<text text-anchor="start" x="135.5" y="-1084" font-family="Helvetica,sans-Serif" font-size="10.00">SetDefaultInitialConditions()</text>
<text text-anchor="start" x="135.5" y="-1069" font-family="Helvetica,sans-Serif" font-size="10.00">and 13 more...</text>
<text text-anchor="start" x="122.5" y="-1054" font-family="Helvetica,sans-Serif" font-size="10.00">#</text>
<text text-anchor="start" x="135.5" y="-1054" font-family="Helvetica,sans-Serif" font-size="10.00">DumpState()</text>
<text text-anchor="start" x="122.5" y="-1039" font-family="Helvetica,sans-Serif" font-size="10.00">#</text>
<text text-anchor="start" x="135.5" y="-1039" font-family="Helvetica,sans-Serif" font-size="10.00">DumpState()</text>
<text text-anchor="start" x="122.5" y="-1024" font-family="Helvetica,sans-Serif" font-size="10.00">#</text>
<text text-anchor="start" x="135.5" y="-1024" font-family="Helvetica,sans-Serif" font-size="10.00">DumpState()</text>
<text text-anchor="start" x="122.5" y="-1009" font-family="Helvetica,sans-Serif" font-size="10.00">#</text>
<text text-anchor="start" x="135.5" y="-1009" font-family="Helvetica,sans-Serif" font-size="10.00">CheckParametersOnLoad()</text>
<text text-anchor="start" x="125" y="-994" font-family="Helvetica,sans-Serif" font-size="10.00">&#45;</text>
<text text-anchor="start" x="135.5" y="-994" font-family="Helvetica,sans-Serif" font-size="10.00">GetStateMessage()</text>
<polygon fill="#666666" stroke="#666666" points="118.5,-1259 118.5,-1259 295.5,-1259 295.5,-1259 118.5,-1259"/>
<polygon fill="#666666" stroke="#666666" points="118.5,-1229 118.5,-1229 133.5,-1229 133.5,-1229 118.5,-1229"/>
<polygon fill="#666666" stroke="#666666" points="133.5,-1229 133.5,-1229 295.5,-1229 295.5,-1229 133.5,-1229"/>
<polygon fill="none" stroke="#666666" points="118,-987 118,-1287 295,-1287 295,-987 118,-987"/>
</a>
</g>
</g>
<!-- Node5&#45;&gt;Node6 -->
<g id="edge6_Node000006_Node000005" class="edge">
<title>Node5&#45;&gt;Node6</title>
<g id="a_edge6_Node000006_Node000005"><a xlink:title=" ">
<path fill="none" stroke="#63b8ff" d="M147.15,-1314.06C150.15,-1305.15 153.19,-1296.14 156.22,-1287.16"/>
<polygon fill="none" stroke="#63b8ff" points="143.78,-1313.09 143.9,-1323.69 150.41,-1315.33 143.78,-1313.09"/>
</a>
</g>
</g>
<!-- Node6&#45;&gt;Node4 -->
<g id="edge5_Node000004_Node000006" class="edge">
<title>Node6&#45;&gt;Node4</title>
<g id="a_edge5_Node000004_Node000006"><a xlink:title=" ">
<path fill="none" stroke="orange" d="M160.44,-977.1C156.88,-964.81 153.29,-952.43 149.75,-940.21"/>
<polygon fill="orange" stroke="orange" points="157.15,-978.3 163.29,-986.94 163.87,-976.36 157.15,-978.3"/>
</a>
</g>
<text text-anchor="middle" x="223" y="-961" font-family="Helvetica,sans-Serif" font-size="10.00" fill="grey"> &lt; std::vector&lt; double &gt; &gt;</text>
</g>
<!-- Node7 -->
<g id="Node000007" class="node">
<title>Node7</title>
<g id="a_Node000007"><a xlink:href="classAbstractContractionModel.html" target="_top" xlink:title=" ">
<polygon fill="white" stroke="transparent" points="362.5,-603 198.5,-603 198.5,-389 362.5,-389 362.5,-603"/>
<text text-anchor="start" x="217" y="-591" font-family="Helvetica,sans-Serif" font-size="10.00">AbstractContractionModel</text>
<text text-anchor="start" x="278.5" y="-576" font-family="Helvetica,sans-Serif" font-size="10.00"> </text>
<text text-anchor="start" x="202.5" y="-561" font-family="Helvetica,sans-Serif" font-size="10.00">+</text>
<text text-anchor="start" x="215.5" y="-561" font-family="Helvetica,sans-Serif" font-size="10.00">AbstractContractionModel()</text>
<text text-anchor="start" x="202.5" y="-546" font-family="Helvetica,sans-Serif" font-size="10.00">+</text>
<text text-anchor="start" x="215.5" y="-546" font-family="Helvetica,sans-Serif" font-size="10.00">~AbstractContractionModel()</text>
<text text-anchor="start" x="202.5" y="-531" font-family="Helvetica,sans-Serif" font-size="10.00">+</text>
<text text-anchor="start" x="215.5" y="-531" font-family="Helvetica,sans-Serif" font-size="10.00">IsStretchDependent()</text>
<text text-anchor="start" x="202.5" y="-516" font-family="Helvetica,sans-Serif" font-size="10.00">+</text>
<text text-anchor="start" x="215.5" y="-516" font-family="Helvetica,sans-Serif" font-size="10.00">IsStretchRateDependent()</text>
<text text-anchor="start" x="202.5" y="-501" font-family="Helvetica,sans-Serif" font-size="10.00">+</text>
<text text-anchor="start" x="215.5" y="-501" font-family="Helvetica,sans-Serif" font-size="10.00">SetInputParameters()</text>
<text text-anchor="start" x="202.5" y="-486" font-family="Helvetica,sans-Serif" font-size="10.00">+</text>
<text text-anchor="start" x="215.5" y="-486" font-family="Helvetica,sans-Serif" font-size="10.00">SetStretchAndStretchRate()</text>
<text text-anchor="start" x="202.5" y="-471" font-family="Helvetica,sans-Serif" font-size="10.00">+</text>
<text text-anchor="start" x="215.5" y="-471" font-family="Helvetica,sans-Serif" font-size="10.00">SetStretch()</text>
<text text-anchor="start" x="202.5" y="-456" font-family="Helvetica,sans-Serif" font-size="10.00">+</text>
<text text-anchor="start" x="215.5" y="-456" font-family="Helvetica,sans-Serif" font-size="10.00">RunDoNotUpdate()</text>
<text text-anchor="start" x="202.5" y="-441" font-family="Helvetica,sans-Serif" font-size="10.00">+</text>
<text text-anchor="start" x="215.5" y="-441" font-family="Helvetica,sans-Serif" font-size="10.00">RunAndUpdate()</text>
<text text-anchor="start" x="202.5" y="-426" font-family="Helvetica,sans-Serif" font-size="10.00">+</text>
<text text-anchor="start" x="215.5" y="-426" font-family="Helvetica,sans-Serif" font-size="10.00">UpdateStateVariables()</text>
<text text-anchor="start" x="202.5" y="-411" font-family="Helvetica,sans-Serif" font-size="10.00">+</text>
<text text-anchor="start" x="215.5" y="-411" font-family="Helvetica,sans-Serif" font-size="10.00">GetActiveTension()</text>
<text text-anchor="start" x="202.5" y="-396" font-family="Helvetica,sans-Serif" font-size="10.00">+</text>
<text text-anchor="start" x="215.5" y="-396" font-family="Helvetica,sans-Serif" font-size="10.00">GetNextActiveTension()</text>
<polygon fill="#666666" stroke="#666666" points="198.5,-586 198.5,-586 362.5,-586 362.5,-586 198.5,-586"/>
<polygon fill="#666666" stroke="#666666" points="198.5,-571 198.5,-571 362.5,-571 362.5,-571 198.5,-571"/>
<polygon fill="none" stroke="#666666" points="198.5,-389 198.5,-603 362.5,-603 362.5,-389 198.5,-389"/>
</a>
</g>
</g>
<!-- Node7&#45;&gt;Node2 -->
<g id="edge7_Node000002_Node000007" class="edge">
<title>Node7&#45;&gt;Node2</title>
<g id="a_edge7_Node000002_Node000007"><a xlink:title=" ">
<path fill="none" stroke="#63b8ff" d="M255.87,-378.83C253.92,-369.66 252.01,-360.62 250.18,-352.01"/>
<polygon fill="none" stroke="#63b8ff" points="252.49,-379.76 257.98,-388.82 259.33,-378.31 252.49,-379.76"/>
</a>
</g>
</g>
</g>
</svg>
