<?xml version="1.0" encoding="UTF-8" standalone="no"?>
<!DOCTYPE svg PUBLIC "-//W3C//DTD SVG 1.1//EN"
 "http://www.w3.org/Graphics/SVG/1.1/DTD/svg11.dtd">
<!-- Generated by graphviz version 2.43.0 (0)
 -->
<!-- Title: CellwiseDataGradient&lt; DIM &gt; Pages: 1 -->
<svg width="286pt" height="393pt"
 viewBox="0.00 0.00 285.50 393.00" xmlns="http://www.w3.org/2000/svg" xmlns:xlink="http://www.w3.org/1999/xlink">
<g id="graph0" class="graph" transform="scale(1 1) rotate(0) translate(4 389)">
<title>CellwiseDataGradient&lt; DIM &gt;</title>
<!-- Node1 -->
<g id="Node000001" class="node">
<title>Node1</title>
<g id="a_Node000001"><a xlink:title=" ">
<polygon fill="#999999" stroke="transparent" points="189,-75 72,-75 72,0 189,0 189,-75"/>
<text text-anchor="start" x="77.5" y="-62.5" font-family="Helvetica,sans-Serif" font-size="10.00">CellwiseDataGradient</text>
<text text-anchor="start" x="109.5" y="-51.5" font-family="Helvetica,sans-Serif" font-size="10.00">&lt; DIM &gt;</text>
<text text-anchor="start" x="129" y="-36.5" font-family="Helvetica,sans-Serif" font-size="10.00"> </text>
<text text-anchor="start" x="79.5" y="-21.5" font-family="Helvetica,sans-Serif" font-size="10.00">+</text>
<text text-anchor="start" x="95.5" y="-21.5" font-family="Helvetica,sans-Serif" font-size="10.00">SetupGradients()</text>
<text text-anchor="start" x="79.5" y="-6.5" font-family="Helvetica,sans-Serif" font-size="10.00">+</text>
<text text-anchor="start" x="95.5" y="-6.5" font-family="Helvetica,sans-Serif" font-size="10.00">rGetGradient()</text>
<polygon fill="#666666" stroke="#666666" points="72.5,-46.5 72.5,-46.5 189.5,-46.5 189.5,-46.5 72.5,-46.5"/>
<polygon fill="#666666" stroke="#666666" points="72.5,-31.5 72.5,-31.5 189.5,-31.5 189.5,-31.5 72.5,-31.5"/>
<polygon fill="none" stroke="#666666" points="72,0 72,-75 189,-75 189,0 72,0"/>
</a>
</g>
</g>
<!-- Node2 -->
<g id="Node000002" class="node">
<title>Node2</title>
<g id="a_Node000002"><a xlink:title=" ">
<polygon fill="white" stroke="transparent" points="188,-182 73,-182 73,-122 188,-122 188,-182"/>
<text text-anchor="start" x="78.5" y="-170" font-family="Helvetica,sans-Serif" font-size="10.00">std::vector&lt; c_vector</text>
<text text-anchor="start" x="84.5" y="-159" font-family="Helvetica,sans-Serif" font-size="10.00">&lt; double, DIM &gt; &gt;</text>
<text text-anchor="start" x="129" y="-144" font-family="Helvetica,sans-Serif" font-size="10.00"> </text>
<text text-anchor="start" x="129" y="-129" font-family="Helvetica,sans-Serif" font-size="10.00"> </text>
<polygon fill="#666666" stroke="#666666" points="73.5,-154 73.5,-154 188.5,-154 188.5,-154 73.5,-154"/>
<polygon fill="#666666" stroke="#666666" points="73.5,-139 73.5,-139 188.5,-139 188.5,-139 73.5,-139"/>
<polygon fill="none" stroke="#666666" points="73,-122 73,-182 188,-182 188,-122 73,-122"/>
</a>
</g>
</g>
<!-- Node2&#45;&gt;Node1 -->
<g id="edge1_Node000001_Node000002" class="edge">
<title>Node2&#45;&gt;Node1</title>
<g id="a_edge1_Node000001_Node000002"><a xlink:title=" ">
<path fill="none" stroke="#63b8ff" d="M130.5,-121.74C130.5,-111.31 130.5,-99.27 130.5,-87.64"/>
<polygon fill="none" stroke="#63b8ff" points="130.5,-87.28 126.5,-81.28 130.5,-75.28 134.5,-81.28 130.5,-87.28"/>
</a>
</g>
<text text-anchor="middle" x="162.5" y="-96" font-family="Helvetica,sans-Serif" font-size="10.00" fill="grey"> &#45;mGradients</text>
</g>
<!-- Node3 -->
<g id="Node000003" class="node">
<title>Node3</title>
<g id="a_Node000003"><a xlink:title=" ">
<polygon fill="white" stroke="transparent" points="133,-289 0,-289 0,-240 133,-240 133,-289"/>
<text text-anchor="start" x="5.5" y="-276.5" font-family="Helvetica,sans-Serif" font-size="10.00">c_vector&lt; double, DIM &gt;</text>
<text text-anchor="start" x="65" y="-261.5" font-family="Helvetica,sans-Serif" font-size="10.00"> </text>
<text text-anchor="start" x="65" y="-246.5" font-family="Helvetica,sans-Serif" font-size="10.00"> </text>
<polygon fill="#bfbfbf" stroke="#bfbfbf" points="0.5,-271.5 0.5,-271.5 133.5,-271.5 133.5,-271.5 0.5,-271.5"/>
<polygon fill="#bfbfbf" stroke="#bfbfbf" points="0.5,-256.5 0.5,-256.5 133.5,-256.5 133.5,-256.5 0.5,-256.5"/>
<polygon fill="none" stroke="#bfbfbf" points="0,-240 0,-289 133,-289 133,-240 0,-240"/>
</a>
</g>
</g>
<!-- Node3&#45;&gt;Node2 -->
<g id="edge2_Node000002_Node000003" class="edge">
<title>Node3&#45;&gt;Node2</title>
<g id="a_edge2_Node000002_Node000003"><a xlink:title=" ">
<path fill="none" stroke="#63b8ff" d="M80.23,-239.79C88.17,-226.09 98.36,-208.49 107.49,-192.72"/>
<polygon fill="none" stroke="#63b8ff" points="107.59,-192.56 107.13,-185.36 113.6,-182.17 114.06,-189.37 107.59,-192.56"/>
</a>
</g>
<text text-anchor="middle" x="131.5" y="-208.5" font-family="Helvetica,sans-Serif" font-size="10.00" fill="grey"> +elements</text>
</g>
<!-- Node4 -->
<g id="Node000004" class="node">
<title>Node4</title>
<g id="a_Node000004"><a xlink:title=" ">
<polygon fill="white" stroke="transparent" points="92.5,-385 40.5,-385 40.5,-336 92.5,-336 92.5,-385"/>
<text text-anchor="start" x="45.5" y="-372.5" font-family="Helvetica,sans-Serif" font-size="10.00">c_vector</text>
<text text-anchor="start" x="64.5" y="-357.5" font-family="Helvetica,sans-Serif" font-size="10.00"> </text>
<text text-anchor="start" x="64.5" y="-342.5" font-family="Helvetica,sans-Serif" font-size="10.00"> </text>
<polygon fill="#bfbfbf" stroke="#bfbfbf" points="40.5,-367.5 40.5,-367.5 92.5,-367.5 92.5,-367.5 40.5,-367.5"/>
<polygon fill="#bfbfbf" stroke="#bfbfbf" points="40.5,-352.5 40.5,-352.5 92.5,-352.5 92.5,-352.5 40.5,-352.5"/>
<polygon fill="none" stroke="#bfbfbf" points="40.5,-336 40.5,-385 92.5,-385 92.5,-336 40.5,-336"/>
</a>
</g>
</g>
<!-- Node4&#45;&gt;Node3 -->
<g id="edge3_Node000003_Node000004" class="edge">
<title>Node4&#45;&gt;Node3</title>
<g id="a_edge3_Node000003_Node000004"><a xlink:title=" ">
<path fill="none" stroke="orange" d="M66.5,-325.6C66.5,-313.54 66.5,-300.23 66.5,-289.21"/>
<polygon fill="orange" stroke="orange" points="63,-325.78 66.5,-335.78 70,-325.78 63,-325.78"/>
</a>
</g>
<text text-anchor="middle" x="109" y="-310" font-family="Helvetica,sans-Serif" font-size="10.00" fill="grey"> &lt; double, DIM &gt;</text>
</g>
<!-- Node5 -->
<g id="Node000005" class="node">
<title>Node5</title>
<g id="a_Node000005"><a xlink:title=" ">
<polygon fill="white" stroke="transparent" points="242,-289 151,-289 151,-240 242,-240 242,-289"/>
<text text-anchor="start" x="156.5" y="-276.5" font-family="Helvetica,sans-Serif" font-size="10.00">std::vector&lt; T &gt;</text>
<text text-anchor="start" x="195" y="-261.5" font-family="Helvetica,sans-Serif" font-size="10.00"> </text>
<text text-anchor="start" x="195" y="-246.5" font-family="Helvetica,sans-Serif" font-size="10.00"> </text>
<polygon fill="#666666" stroke="#666666" points="151.5,-271.5 151.5,-271.5 242.5,-271.5 242.5,-271.5 151.5,-271.5"/>
<polygon fill="#666666" stroke="#666666" points="151.5,-256.5 151.5,-256.5 242.5,-256.5 242.5,-256.5 151.5,-256.5"/>
<polygon fill="none" stroke="#666666" points="151,-240 151,-289 242,-289 242,-240 151,-240"/>
</a>
</g>
</g>
<!-- Node5&#45;&gt;Node2 -->
<g id="edge4_Node000002_Node000005" class="edge">
<title>Node5&#45;&gt;Node2</title>
<g id="a_edge4_Node000002_Node000005"><a xlink:title=" ">
<path fill="none" stroke="orange" d="M179.16,-230.87C173.68,-220.87 167.48,-209.9 161.5,-200 157.96,-194.14 154.04,-187.98 150.21,-182.1"/>
<polygon fill="orange" stroke="orange" points="176.12,-232.61 183.97,-239.72 182.27,-229.27 176.12,-232.61"/>
</a>
</g>
<text text-anchor="start" x="174.5" y="-214" font-family="Helvetica,sans-Serif" font-size="10.00" fill="grey"> &lt; c_vector&lt; double,</text>
<text text-anchor="middle" x="226" y="-203" font-family="Helvetica,sans-Serif" font-size="10.00" fill="grey"> DIM &gt; &gt;</text>
</g>
<!-- Node6 -->
<g id="Node000006" class="node">
<title>Node6</title>
<g id="a_Node000006"><a xlink:title=" ">
<polygon fill="white" stroke="transparent" points="205,-385 188,-385 188,-336 205,-336 205,-385"/>
<text text-anchor="start" x="193.5" y="-372.5" font-family="Helvetica,sans-Serif" font-size="10.00">T</text>
<text text-anchor="start" x="195" y="-357.5" font-family="Helvetica,sans-Serif" font-size="10.00"> </text>
<text text-anchor="start" x="195" y="-342.5" font-family="Helvetica,sans-Serif" font-size="10.00"> </text>
<polygon fill="#bfbfbf" stroke="#bfbfbf" points="188.5,-367.5 188.5,-367.5 205.5,-367.5 205.5,-367.5 188.5,-367.5"/>
<polygon fill="#bfbfbf" stroke="#bfbfbf" points="188.5,-352.5 188.5,-352.5 205.5,-352.5 205.5,-352.5 188.5,-352.5"/>
<polygon fill="none" stroke="#bfbfbf" points="188,-336 188,-385 205,-385 205,-336 188,-336"/>
</a>
</g>
</g>
<!-- Node6&#45;&gt;Node5 -->
<g id="edge5_Node000005_Node000006" class="edge">
<title>Node6&#45;&gt;Node5</title>
<g id="a_edge5_Node000005_Node000006"><a xlink:title=" ">
<path fill="none" stroke="#63b8ff" d="M196.5,-335.78C196.5,-325.32 196.5,-312.79 196.5,-301.23"/>
<polygon fill="none" stroke="#63b8ff" points="196.5,-301.21 192.5,-295.21 196.5,-289.21 200.5,-295.21 196.5,-301.21"/>
</a>
</g>
<text text-anchor="middle" x="225.5" y="-310" font-family="Helvetica,sans-Serif" font-size="10.00" fill="grey"> +elements</text>
</g>
</g>
</svg>
