<?xml version="1.0" encoding="UTF-8" standalone="no"?>
<!DOCTYPE svg PUBLIC "-//W3C//DTD SVG 1.1//EN"
 "http://www.w3.org/Graphics/SVG/1.1/DTD/svg11.dtd">
<!-- Generated by graphviz version 2.43.0 (0)
 -->
<!-- Title: Graphical Class Hierarchy Pages: 1 -->
<svg width="579pt" height="226pt"
 viewBox="0.00 0.00 579.00 226.00" xmlns="http://www.w3.org/2000/svg" xmlns:xlink="http://www.w3.org/1999/xlink">
<g id="graph0" class="graph" transform="scale(1 1) rotate(0) translate(4 222)">
<title>Graphical Class Hierarchy</title>
<!-- Node0 -->
<g id="Node000000" class="node">
<title>Node0</title>
<g id="a_Node000000"><a xlink:href="classAbstractUntemplatedConvergenceTester.html" target="_top" xlink:title=" ">
<polygon fill="white" stroke="#666666" points="185,-123.5 0,-123.5 0,-93.5 185,-93.5 185,-123.5"/>
<text text-anchor="start" x="8" y="-111.5" font-family="Helvetica,sans-Serif" font-size="10.00">AbstractUntemplatedConvergence</text>
<text text-anchor="middle" x="92.5" y="-100.5" font-family="Helvetica,sans-Serif" font-size="10.00">Tester</text>
</a>
</g>
</g>
<!-- Node1 -->
<g id="Node000001" class="node">
<title>Node1</title>
<g id="a_Node000001"><a xlink:href="classAbstractConvergenceTester.html" target="_top" xlink:title=" ">
<polygon fill="white" stroke="#666666" points="378,-129 221,-129 221,-88 378,-88 378,-129"/>
<text text-anchor="start" x="229" y="-117" font-family="Helvetica,sans-Serif" font-size="10.00">AbstractConvergenceTester</text>
<text text-anchor="start" x="229" y="-106" font-family="Helvetica,sans-Serif" font-size="10.00">&lt; CELL, CARDIAC_PROBLEM,</text>
<text text-anchor="middle" x="299.5" y="-95" font-family="Helvetica,sans-Serif" font-size="10.00"> DIM, PROBLEM_DIM &gt;</text>
</a>
</g>
</g>
<!-- Node0&#45;&gt;Node1 -->
<g id="edge352_Node000000_Node000001" class="edge">
<title>Node0&#45;&gt;Node1</title>
<g id="a_edge352_Node000000_Node000001"><a xlink:title=" ">
<path fill="none" stroke="#63b8ff" d="M195.31,-108.5C203.94,-108.5 212.57,-108.5 220.96,-108.5"/>
<polygon fill="#63b8ff" stroke="#63b8ff" points="195.21,-105 185.21,-108.5 195.21,-112 195.21,-105"/>
</a>
</g>
</g>
<!-- Node2 -->
<g id="Node000002" class="node">
<title>Node2</title>
<g id="a_Node000002"><a xlink:href="classOdeConvergenceTester.html" target="_top" xlink:title=" ">
<polygon fill="white" stroke="#666666" points="571,-218 414,-218 414,-177 571,-177 571,-218"/>
<text text-anchor="start" x="422" y="-206" font-family="Helvetica,sans-Serif" font-size="10.00">OdeConvergenceTester</text>
<text text-anchor="start" x="422" y="-195" font-family="Helvetica,sans-Serif" font-size="10.00">&lt; CELL, CARDIAC_PROBLEM,</text>
<text text-anchor="middle" x="492.5" y="-184" font-family="Helvetica,sans-Serif" font-size="10.00"> DIM, PROBLEM_DIM &gt;</text>
</a>
</g>
</g>
<!-- Node1&#45;&gt;Node2 -->
<g id="edge353_Node000001_Node000002" class="edge">
<title>Node1&#45;&gt;Node2</title>
<g id="a_edge353_Node000001_Node000002"><a xlink:title=" ">
<path fill="none" stroke="#63b8ff" d="M345.3,-133.89C365.92,-145.13 390.89,-158.12 414,-168.5 420.42,-171.38 427.22,-174.23 434.03,-176.94"/>
<polygon fill="#63b8ff" stroke="#63b8ff" points="346.91,-130.78 336.46,-129.03 343.54,-136.91 346.91,-130.78"/>
</a>
</g>
</g>
<!-- Node3 -->
<g id="Node000003" class="node">
<title>Node3</title>
<g id="a_Node000003"><a xlink:href="classOdePdeConvergenceTester.html" target="_top" xlink:title=" ">
<polygon fill="white" stroke="#666666" points="571,-159 414,-159 414,-118 571,-118 571,-159"/>
<text text-anchor="start" x="422" y="-147" font-family="Helvetica,sans-Serif" font-size="10.00">OdePdeConvergenceTester</text>
<text text-anchor="start" x="422" y="-136" font-family="Helvetica,sans-Serif" font-size="10.00">&lt; CELL, CARDIAC_PROBLEM,</text>
<text text-anchor="middle" x="492.5" y="-125" font-family="Helvetica,sans-Serif" font-size="10.00"> DIM, PROBLEM_DIM &gt;</text>
</a>
</g>
</g>
<!-- Node1&#45;&gt;Node3 -->
<g id="edge354_Node000001_Node000003" class="edge">
<title>Node1&#45;&gt;Node3</title>
<g id="a_edge354_Node000001_Node000003"><a xlink:title=" ">
<path fill="none" stroke="#63b8ff" d="M388.19,-122.27C396.76,-123.62 405.42,-124.98 413.88,-126.31"/>
<polygon fill="#63b8ff" stroke="#63b8ff" points="388.61,-118.8 378.19,-120.7 387.52,-125.71 388.61,-118.8"/>
</a>
</g>
</g>
<!-- Node4 -->
<g id="Node000004" class="node">
<title>Node4</title>
<g id="a_Node000004"><a xlink:href="classPdeConvergenceTester.html" target="_top" xlink:title=" ">
<polygon fill="white" stroke="#666666" points="571,-100 414,-100 414,-59 571,-59 571,-100"/>
<text text-anchor="start" x="422" y="-88" font-family="Helvetica,sans-Serif" font-size="10.00">PdeConvergenceTester</text>
<text text-anchor="start" x="422" y="-77" font-family="Helvetica,sans-Serif" font-size="10.00">&lt; CELL, CARDIAC_PROBLEM,</text>
<text text-anchor="middle" x="492.5" y="-66" font-family="Helvetica,sans-Serif" font-size="10.00"> DIM, PROBLEM_DIM &gt;</text>
</a>
</g>
</g>
<!-- Node1&#45;&gt;Node4 -->
<g id="edge355_Node000001_Node000004" class="edge">
<title>Node1&#45;&gt;Node4</title>
<g id="a_edge355_Node000001_Node000004"><a xlink:title=" ">
<path fill="none" stroke="#63b8ff" d="M388.19,-95.19C396.76,-93.88 405.42,-92.57 413.88,-91.28"/>
<polygon fill="#63b8ff" stroke="#63b8ff" points="387.55,-91.74 378.19,-96.7 388.6,-98.66 387.55,-91.74"/>
</a>
</g>
</g>
<!-- Node5 -->
<g id="Node000005" class="node">
<title>Node5</title>
<g id="a_Node000005"><a xlink:href="classSpaceConvergenceTester.html" target="_top" xlink:title=" ">
<polygon fill="white" stroke="#666666" points="571,-41 414,-41 414,0 571,0 571,-41"/>
<text text-anchor="start" x="422" y="-29" font-family="Helvetica,sans-Serif" font-size="10.00">SpaceConvergenceTester</text>
<text text-anchor="start" x="422" y="-18" font-family="Helvetica,sans-Serif" font-size="10.00">&lt; CELL, CARDIAC_PROBLEM,</text>
<text text-anchor="middle" x="492.5" y="-7" font-family="Helvetica,sans-Serif" font-size="10.00"> DIM, PROBLEM_DIM &gt;</text>
</a>
</g>
</g>
<!-- Node1&#45;&gt;Node5 -->
<g id="edge356_Node000001_Node000005" class="edge">
<title>Node1&#45;&gt;Node5</title>
<g id="a_edge356_Node000001_Node000005"><a xlink:title=" ">
<path fill="none" stroke="#63b8ff" d="M347.39,-83.17C367.64,-72.58 391.76,-60.46 414,-50.5 421.11,-47.32 428.67,-44.14 436.17,-41.11"/>
<polygon fill="#63b8ff" stroke="#63b8ff" points="345.6,-80.15 338.38,-87.91 348.85,-86.35 345.6,-80.15"/>
</a>
</g>
</g>
</g>
</svg>
