<?xml version="1.0" encoding="UTF-8" standalone="no"?>
<!DOCTYPE svg PUBLIC "-//W3C//DTD SVG 1.1//EN"
 "http://www.w3.org/Graphics/SVG/1.1/DTD/svg11.dtd">
<!-- Generated by graphviz version 2.43.0 (0)
 -->
<!-- Title: Graphical Class Hierarchy Pages: 1 -->
<svg width="805pt" height="494pt"
 viewBox="0.00 0.00 805.00 494.00" xmlns="http://www.w3.org/2000/svg" xmlns:xlink="http://www.w3.org/1999/xlink">
<g id="graph0" class="graph" transform="scale(1 1) rotate(0) translate(4 490)">
<title>Graphical Class Hierarchy</title>
<!-- Node0 -->
<g id="Node000000" class="node">
<title>Node0</title>
<g id="a_Node000000"><a xlink:href="classAbstractHdf5Converter.html" target="_top" xlink:title=" ">
<polygon fill="white" stroke="#666666" points="589,-390 418,-390 418,-360 589,-360 589,-390"/>
<text text-anchor="start" x="426" y="-378" font-family="Helvetica,sans-Serif" font-size="10.00">AbstractHdf5Converter</text>
<text text-anchor="middle" x="503.5" y="-367" font-family="Helvetica,sans-Serif" font-size="10.00">&lt; ELEMENT_DIM, SPACE_DIM &gt;</text>
</a>
</g>
</g>
<!-- Node1 -->
<g id="Node000001" class="node">
<title>Node1</title>
<g id="a_Node000001"><a xlink:href="classHdf5ToCmguiConverter.html" target="_top" xlink:title=" ">
<polygon fill="white" stroke="#666666" points="796.5,-390 625.5,-390 625.5,-360 796.5,-360 796.5,-390"/>
<text text-anchor="start" x="633.5" y="-378" font-family="Helvetica,sans-Serif" font-size="10.00">Hdf5ToCmguiConverter</text>
<text text-anchor="middle" x="711" y="-367" font-family="Helvetica,sans-Serif" font-size="10.00">&lt; ELEMENT_DIM, SPACE_DIM &gt;</text>
</a>
</g>
</g>
<!-- Node0&#45;&gt;Node1 -->
<g id="edge276_Node000000_Node000001" class="edge">
<title>Node0&#45;&gt;Node1</title>
<g id="a_edge276_Node000000_Node000001"><a xlink:title=" ">
<path fill="none" stroke="#63b8ff" d="M599.41,-375C608.09,-375 616.84,-375 625.42,-375"/>
<polygon fill="#63b8ff" stroke="#63b8ff" points="599.27,-371.5 589.27,-375 599.27,-378.5 599.27,-371.5"/>
</a>
</g>
</g>
<!-- Node2 -->
<g id="Node000002" class="node">
<title>Node2</title>
<g id="a_Node000002"><a xlink:href="classHdf5ToMeshalyzerConverter.html" target="_top" xlink:title=" ">
<polygon fill="white" stroke="#666666" points="796.5,-342 625.5,-342 625.5,-312 796.5,-312 796.5,-342"/>
<text text-anchor="start" x="633.5" y="-330" font-family="Helvetica,sans-Serif" font-size="10.00">Hdf5ToMeshalyzerConverter</text>
<text text-anchor="middle" x="711" y="-319" font-family="Helvetica,sans-Serif" font-size="10.00">&lt; ELEMENT_DIM, SPACE_DIM &gt;</text>
</a>
</g>
</g>
<!-- Node0&#45;&gt;Node2 -->
<g id="edge277_Node000000_Node000002" class="edge">
<title>Node0&#45;&gt;Node2</title>
<g id="a_edge277_Node000000_Node000002"><a xlink:title=" ">
<path fill="none" stroke="#63b8ff" d="M578.88,-357.63C600.78,-352.51 624.56,-346.96 645.77,-342"/>
<polygon fill="#63b8ff" stroke="#63b8ff" points="577.9,-354.26 568.96,-359.94 579.49,-361.08 577.9,-354.26"/>
</a>
</g>
</g>
<!-- Node3 -->
<g id="Node000003" class="node">
<title>Node3</title>
<g id="a_Node000003"><a xlink:href="classHdf5ToTxtConverter.html" target="_top" xlink:title=" ">
<polygon fill="white" stroke="#666666" points="796.5,-486 625.5,-486 625.5,-456 796.5,-456 796.5,-486"/>
<text text-anchor="start" x="633.5" y="-474" font-family="Helvetica,sans-Serif" font-size="10.00">Hdf5ToTxtConverter</text>
<text text-anchor="middle" x="711" y="-463" font-family="Helvetica,sans-Serif" font-size="10.00">&lt; ELEMENT_DIM, SPACE_DIM &gt;</text>
</a>
</g>
</g>
<!-- Node0&#45;&gt;Node3 -->
<g id="edge278_Node000000_Node000003" class="edge">
<title>Node0&#45;&gt;Node3</title>
<g id="a_edge278_Node000000_Node000003"><a xlink:title=" ">
<path fill="none" stroke="#63b8ff" d="M534.31,-395.85C558,-411.65 592.45,-432.97 625,-447 632.6,-450.28 640.78,-453.24 648.95,-455.87"/>
<polygon fill="#63b8ff" stroke="#63b8ff" points="536.03,-392.78 525.78,-390.08 532.11,-398.58 536.03,-392.78"/>
</a>
</g>
</g>
<!-- Node4 -->
<g id="Node000004" class="node">
<title>Node4</title>
<g id="a_Node000004"><a xlink:href="classHdf5ToVtkConverter.html" target="_top" xlink:title=" ">
<polygon fill="white" stroke="#666666" points="796.5,-438 625.5,-438 625.5,-408 796.5,-408 796.5,-438"/>
<text text-anchor="start" x="633.5" y="-426" font-family="Helvetica,sans-Serif" font-size="10.00">Hdf5ToVtkConverter</text>
<text text-anchor="middle" x="711" y="-415" font-family="Helvetica,sans-Serif" font-size="10.00">&lt; ELEMENT_DIM, SPACE_DIM &gt;</text>
</a>
</g>
</g>
<!-- Node0&#45;&gt;Node4 -->
<g id="edge279_Node000000_Node000004" class="edge">
<title>Node0&#45;&gt;Node4</title>
<g id="a_edge279_Node000000_Node000004"><a xlink:title=" ">
<path fill="none" stroke="#63b8ff" d="M578.88,-392.37C600.78,-397.49 624.56,-403.04 645.77,-408"/>
<polygon fill="#63b8ff" stroke="#63b8ff" points="579.49,-388.92 568.96,-390.06 577.9,-395.74 579.49,-388.92"/>
</a>
</g>
</g>
<!-- Node5 -->
<g id="Node000005" class="node">
<title>Node5</title>
<g id="a_Node000005"><a xlink:href="classHdf5ToXdmfConverter.html" target="_top" xlink:title=" ">
<polygon fill="white" stroke="#666666" points="796.5,-294 625.5,-294 625.5,-264 796.5,-264 796.5,-294"/>
<text text-anchor="start" x="633.5" y="-282" font-family="Helvetica,sans-Serif" font-size="10.00">Hdf5ToXdmfConverter</text>
<text text-anchor="middle" x="711" y="-271" font-family="Helvetica,sans-Serif" font-size="10.00">&lt; ELEMENT_DIM, SPACE_DIM &gt;</text>
</a>
</g>
</g>
<!-- Node0&#45;&gt;Node5 -->
<g id="edge280_Node000000_Node000005" class="edge">
<title>Node0&#45;&gt;Node5</title>
<g id="a_edge280_Node000000_Node000005"><a xlink:title=" ">
<path fill="none" stroke="#63b8ff" d="M534.31,-354.15C558,-338.35 592.45,-317.03 625,-303 632.6,-299.72 640.78,-296.76 648.95,-294.13"/>
<polygon fill="#63b8ff" stroke="#63b8ff" points="532.11,-351.42 525.78,-359.92 536.03,-357.22 532.11,-351.42"/>
</a>
</g>
</g>
<!-- Node14 -->
<g id="Node000014" class="node">
<title>Node14</title>
<g id="a_Node000014"><a xlink:href="classAbstractMeshWriter.html" target="_top" xlink:title=" ">
<polygon fill="white" stroke="#666666" points="171,-102 0,-102 0,-72 171,-72 171,-102"/>
<text text-anchor="start" x="8" y="-90" font-family="Helvetica,sans-Serif" font-size="10.00">AbstractMeshWriter</text>
<text text-anchor="middle" x="85.5" y="-79" font-family="Helvetica,sans-Serif" font-size="10.00">&lt; ELEMENT_DIM, SPACE_DIM &gt;</text>
</a>
</g>
</g>
<!-- Node7 -->
<g id="Node000007" class="node">
<title>Node7</title>
<g id="a_Node000007"><a xlink:href="classAbstractTetrahedralMeshWriter.html" target="_top" xlink:title=" ">
<polygon fill="white" stroke="#666666" points="380,-174 209,-174 209,-144 380,-144 380,-174"/>
<text text-anchor="start" x="217" y="-162" font-family="Helvetica,sans-Serif" font-size="10.00">AbstractTetrahedralMeshWriter</text>
<text text-anchor="middle" x="294.5" y="-151" font-family="Helvetica,sans-Serif" font-size="10.00">&lt; ELEMENT_DIM, SPACE_DIM &gt;</text>
</a>
</g>
</g>
<!-- Node14&#45;&gt;Node7 -->
<g id="edge281_Node000014_Node000007" class="edge">
<title>Node14&#45;&gt;Node7</title>
<g id="a_edge281_Node000014_Node000007"><a xlink:title=" ">
<path fill="none" stroke="#63b8ff" d="M130.78,-105.97C153.37,-115.31 181.42,-126.38 207,-135 216.3,-138.13 226.27,-141.18 236,-143.99"/>
<polygon fill="#63b8ff" stroke="#63b8ff" points="132.03,-102.7 121.45,-102.09 129.34,-109.17 132.03,-102.7"/>
</a>
</g>
</g>
<!-- Node15 -->
<g id="Node000015" class="node">
<title>Node15</title>
<g id="a_Node000015"><a xlink:href="classImmersedBoundaryMeshWriter.html" target="_top" xlink:title=" ">
<polygon fill="white" stroke="#666666" points="380,-126 209,-126 209,-96 380,-96 380,-126"/>
<text text-anchor="start" x="217" y="-114" font-family="Helvetica,sans-Serif" font-size="10.00">ImmersedBoundaryMeshWriter</text>
<text text-anchor="middle" x="294.5" y="-103" font-family="Helvetica,sans-Serif" font-size="10.00">&lt; ELEMENT_DIM, SPACE_DIM &gt;</text>
</a>
</g>
</g>
<!-- Node14&#45;&gt;Node15 -->
<g id="edge290_Node000014_Node000015" class="edge">
<title>Node14&#45;&gt;Node15</title>
<g id="a_edge290_Node000014_Node000015"><a xlink:title=" ">
<path fill="none" stroke="#63b8ff" d="M181.23,-97.98C190.44,-99.05 199.74,-100.13 208.84,-101.18"/>
<polygon fill="#63b8ff" stroke="#63b8ff" points="181.63,-94.51 171.29,-96.83 180.82,-101.46 181.63,-94.51"/>
</a>
</g>
</g>
<!-- Node16 -->
<g id="Node000016" class="node">
<title>Node16</title>
<g id="a_Node000016"><a xlink:href="classTrapezoidEdgeVertexMeshWriter.html" target="_top" xlink:title=" ">
<polygon fill="white" stroke="#666666" points="382,-78 207,-78 207,-48 382,-48 382,-78"/>
<text text-anchor="start" x="215" y="-66" font-family="Helvetica,sans-Serif" font-size="10.00">TrapezoidEdgeVertexMeshWriter</text>
<text text-anchor="middle" x="294.5" y="-55" font-family="Helvetica,sans-Serif" font-size="10.00">&lt; ELEMENT_DIM, SPACE_DIM &gt;</text>
</a>
</g>
</g>
<!-- Node14&#45;&gt;Node16 -->
<g id="edge291_Node000014_Node000016" class="edge">
<title>Node14&#45;&gt;Node16</title>
<g id="a_edge291_Node000014_Node000016"><a xlink:title=" ">
<path fill="none" stroke="#63b8ff" d="M181.25,-76.01C189.77,-75.03 198.38,-74.03 206.83,-73.05"/>
<polygon fill="#63b8ff" stroke="#63b8ff" points="180.82,-72.54 171.29,-77.17 181.63,-79.49 180.82,-72.54"/>
</a>
</g>
</g>
<!-- Node17 -->
<g id="Node000017" class="node">
<title>Node17</title>
<g id="a_Node000017"><a xlink:href="classVertexMeshWriter.html" target="_top" xlink:title=" ">
<polygon fill="white" stroke="#666666" points="375,-30 214,-30 214,0 375,0 375,-30"/>
<text text-anchor="start" x="222" y="-18" font-family="Helvetica,sans-Serif" font-size="10.00">VertexMeshWriter&lt; ELEMENT</text>
<text text-anchor="middle" x="294.5" y="-7" font-family="Helvetica,sans-Serif" font-size="10.00">_DIM, SPACE_DIM &gt;</text>
</a>
</g>
</g>
<!-- Node14&#45;&gt;Node17 -->
<g id="edge292_Node000014_Node000017" class="edge">
<title>Node14&#45;&gt;Node17</title>
<g id="a_edge292_Node000014_Node000017"><a xlink:title=" ">
<path fill="none" stroke="#63b8ff" d="M130.78,-68.03C153.37,-58.69 181.42,-47.62 207,-39 216.3,-35.87 226.27,-32.82 236,-30.01"/>
<polygon fill="#63b8ff" stroke="#63b8ff" points="129.34,-64.83 121.45,-71.91 132.03,-71.3 129.34,-64.83"/>
</a>
</g>
</g>
<!-- Node8 -->
<g id="Node000008" class="node">
<title>Node8</title>
<g id="a_Node000008"><a xlink:href="classCmguiMeshWriter.html" target="_top" xlink:title=" ">
<polygon fill="white" stroke="#666666" points="572.5,-246 434.5,-246 434.5,-216 572.5,-216 572.5,-246"/>
<text text-anchor="start" x="442.5" y="-234" font-family="Helvetica,sans-Serif" font-size="10.00">CmguiMeshWriter&lt; DIM,</text>
<text text-anchor="middle" x="503.5" y="-223" font-family="Helvetica,sans-Serif" font-size="10.00"> DIM &gt;</text>
</a>
</g>
</g>
<!-- Node7&#45;&gt;Node8 -->
<g id="edge282_Node000007_Node000008" class="edge">
<title>Node7&#45;&gt;Node8</title>
<g id="a_edge282_Node000007_Node000008"><a xlink:title=" ">
<path fill="none" stroke="#63b8ff" d="M340.82,-177.97C363.75,-187.26 392.15,-198.29 418,-207 427.1,-210.07 436.85,-213.08 446.36,-215.88"/>
<polygon fill="#63b8ff" stroke="#63b8ff" points="341.93,-174.64 331.34,-174.1 339.28,-181.12 341.93,-174.64"/>
</a>
</g>
</g>
<!-- Node10 -->
<g id="Node000010" class="node">
<title>Node10</title>
<g id="a_Node000010"><a xlink:href="classCmguiMeshWriter.html" target="_top" xlink:title=" ">
<polygon fill="white" stroke="#666666" points="584,-198 423,-198 423,-168 584,-168 584,-198"/>
<text text-anchor="start" x="431" y="-186" font-family="Helvetica,sans-Serif" font-size="10.00">CmguiMeshWriter&lt; ELEMENT</text>
<text text-anchor="middle" x="503.5" y="-175" font-family="Helvetica,sans-Serif" font-size="10.00">_DIM, SPACE_DIM &gt;</text>
</a>
</g>
</g>
<!-- Node7&#45;&gt;Node10 -->
<g id="edge284_Node000007_Node000010" class="edge">
<title>Node7&#45;&gt;Node10</title>
<g id="a_edge284_Node000007_Node000010"><a xlink:title=" ">
<path fill="none" stroke="#63b8ff" d="M390.25,-169.99C401.14,-171.25 412.17,-172.53 422.84,-173.76"/>
<polygon fill="#63b8ff" stroke="#63b8ff" points="390.63,-166.51 380.29,-168.83 389.82,-173.46 390.63,-166.51"/>
</a>
</g>
</g>
<!-- Node11 -->
<g id="Node000011" class="node">
<title>Node11</title>
<g id="a_Node000011"><a xlink:href="classMeshalyzerMeshWriter.html" target="_top" xlink:title=" ">
<polygon fill="white" stroke="#666666" points="589,-150 418,-150 418,-120 589,-120 589,-150"/>
<text text-anchor="start" x="426" y="-138" font-family="Helvetica,sans-Serif" font-size="10.00">MeshalyzerMeshWriter</text>
<text text-anchor="middle" x="503.5" y="-127" font-family="Helvetica,sans-Serif" font-size="10.00">&lt; ELEMENT_DIM, SPACE_DIM &gt;</text>
</a>
</g>
</g>
<!-- Node7&#45;&gt;Node11 -->
<g id="edge285_Node000007_Node000011" class="edge">
<title>Node7&#45;&gt;Node11</title>
<g id="a_edge285_Node000007_Node000011"><a xlink:title=" ">
<path fill="none" stroke="#63b8ff" d="M390.23,-148.02C399.44,-146.95 408.74,-145.87 417.84,-144.82"/>
<polygon fill="#63b8ff" stroke="#63b8ff" points="389.82,-144.54 380.29,-149.17 390.63,-151.49 389.82,-144.54"/>
</a>
</g>
</g>
<!-- Node12 -->
<g id="Node000012" class="node">
<title>Node12</title>
<g id="a_Node000012"><a xlink:href="classTrianglesMeshWriter.html" target="_top" xlink:title=" ">
<polygon fill="white" stroke="#666666" points="589,-102 418,-102 418,-72 589,-72 589,-102"/>
<text text-anchor="start" x="426" y="-90" font-family="Helvetica,sans-Serif" font-size="10.00">TrianglesMeshWriter</text>
<text text-anchor="middle" x="503.5" y="-79" font-family="Helvetica,sans-Serif" font-size="10.00">&lt; ELEMENT_DIM, SPACE_DIM &gt;</text>
</a>
</g>
</g>
<!-- Node7&#45;&gt;Node12 -->
<g id="edge286_Node000007_Node000012" class="edge">
<title>Node7&#45;&gt;Node12</title>
<g id="a_edge286_Node000007_Node000012"><a xlink:title=" ">
<path fill="none" stroke="#63b8ff" d="M368.38,-140.61C373.05,-138.87 377.62,-137 382,-135 399.48,-127 400.54,-119.06 418,-111 425.2,-107.68 432.96,-104.71 440.76,-102.1"/>
<polygon fill="#63b8ff" stroke="#63b8ff" points="366.99,-137.39 358.71,-143.99 369.3,-144 366.99,-137.39"/>
</a>
</g>
</g>
<!-- Node13 -->
<g id="Node000013" class="node">
<title>Node13</title>
<g id="a_Node000013"><a xlink:href="classVtkMeshWriter.html" target="_top" xlink:title=" ">
<polygon fill="white" stroke="#666666" points="576.5,-54 430.5,-54 430.5,-24 576.5,-24 576.5,-54"/>
<text text-anchor="start" x="438.5" y="-42" font-family="Helvetica,sans-Serif" font-size="10.00">VtkMeshWriter&lt; ELEMENT</text>
<text text-anchor="middle" x="503.5" y="-31" font-family="Helvetica,sans-Serif" font-size="10.00">_DIM, SPACE_DIM &gt;</text>
</a>
</g>
</g>
<!-- Node7&#45;&gt;Node13 -->
<g id="edge287_Node000007_Node000013" class="edge">
<title>Node7&#45;&gt;Node13</title>
<g id="a_edge287_Node000007_Node000013"><a xlink:title=" ">
<path fill="none" stroke="#63b8ff" d="M377.08,-138.69C378.78,-137.53 380.42,-136.3 382,-135 409.62,-112.26 390.45,-85.83 418,-63 422.11,-59.59 426.68,-56.67 431.5,-54.16"/>
<polygon fill="#63b8ff" stroke="#63b8ff" points="374.99,-135.86 368.18,-143.98 378.56,-141.88 374.99,-135.86"/>
</a>
</g>
</g>
<!-- Node6 -->
<g id="Node000006" class="node">
<title>Node6</title>
<g id="a_Node000006"><a xlink:href="classXdmfMeshWriter.html" target="_top" xlink:title=" ">
<polygon fill="white" stroke="#666666" points="581.5,-294 425.5,-294 425.5,-264 581.5,-264 581.5,-294"/>
<text text-anchor="start" x="433.5" y="-282" font-family="Helvetica,sans-Serif" font-size="10.00">XdmfMeshWriter&lt; ELEMENT</text>
<text text-anchor="middle" x="503.5" y="-271" font-family="Helvetica,sans-Serif" font-size="10.00">_DIM, SPACE_DIM &gt;</text>
</a>
</g>
</g>
<!-- Node7&#45;&gt;Node6 -->
<g id="edge288_Node000007_Node000006" class="edge">
<title>Node7&#45;&gt;Node6</title>
<g id="a_edge288_Node000007_Node000006"><a xlink:title=" ">
<path fill="none" stroke="#63b8ff" d="M318.04,-181.14C341.29,-202.83 379.49,-235.4 418,-255 424.66,-258.39 431.87,-261.36 439.17,-263.95"/>
<polygon fill="#63b8ff" stroke="#63b8ff" points="320.42,-178.57 310.75,-174.23 315.6,-183.65 320.42,-178.57"/>
</a>
</g>
</g>
<!-- Node9 -->
<g id="Node000009" class="node">
<title>Node9</title>
<g id="a_Node000009"><a xlink:href="classCmguiDeformedSolutionsWriter.html" target="_top" xlink:title=" ">
<polygon fill="white" stroke="#666666" points="797,-246 625,-246 625,-216 797,-216 797,-246"/>
<text text-anchor="start" x="633" y="-234" font-family="Helvetica,sans-Serif" font-size="10.00">CmguiDeformedSolutionsWriter</text>
<text text-anchor="middle" x="711" y="-223" font-family="Helvetica,sans-Serif" font-size="10.00">&lt; DIM &gt;</text>
</a>
</g>
</g>
<!-- Node8&#45;&gt;Node9 -->
<g id="edge283_Node000008_Node000009" class="edge">
<title>Node8&#45;&gt;Node9</title>
<g id="a_edge283_Node000008_Node000009"><a xlink:title=" ">
<path fill="none" stroke="#63b8ff" d="M582.98,-231C596.67,-231 610.97,-231 624.84,-231"/>
<polygon fill="#63b8ff" stroke="#63b8ff" points="582.64,-227.5 572.64,-231 582.64,-234.5 582.64,-227.5"/>
</a>
</g>
</g>
<!-- Node6&#45;&gt;Node5 -->
<g id="edge289_Node000006_Node000005" class="edge">
<title>Node6&#45;&gt;Node5</title>
<g id="a_edge289_Node000006_Node000005"><a xlink:title=" ">
<path fill="none" stroke="#63b8ff" d="M591.72,-279C602.82,-279 614.17,-279 625.23,-279"/>
<polygon fill="#63b8ff" stroke="#63b8ff" points="591.61,-275.5 581.61,-279 591.61,-282.5 591.61,-275.5"/>
</a>
</g>
</g>
</g>
</svg>
