<?xml version="1.0" encoding="UTF-8" standalone="no"?>
<!DOCTYPE svg PUBLIC "-//W3C//DTD SVG 1.1//EN"
 "http://www.w3.org/Graphics/SVG/1.1/DTD/svg11.dtd">
<!-- Generated by graphviz version 2.43.0 (0)
 -->
<!-- Title: CellCycleTimesGenerator Pages: 1 -->
<svg width="581pt" height="573pt"
 viewBox="0.00 0.00 581.00 573.00" xmlns="http://www.w3.org/2000/svg" xmlns:xlink="http://www.w3.org/1999/xlink">
<g id="graph0" class="graph" transform="scale(1 1) rotate(0) translate(4 569)">
<title>CellCycleTimesGenerator</title>
<!-- Node1 -->
<g id="Node000001" class="node">
<title>Node1</title>
<g id="a_Node000001"><a xlink:title=" ">
<polygon fill="#999999" stroke="transparent" points="394,-184 202,-184 202,0 394,0 394,-184"/>
<text text-anchor="start" x="235.5" y="-172" font-family="Helvetica,sans-Serif" font-size="10.00">CellCycleTimesGenerator</text>
<text text-anchor="start" x="296" y="-157" font-family="Helvetica,sans-Serif" font-size="10.00"> </text>
<text text-anchor="start" x="206" y="-142" font-family="Helvetica,sans-Serif" font-size="10.00">+</text>
<text text-anchor="start" x="219" y="-142" font-family="Helvetica,sans-Serif" font-size="10.00">SetRandomSeed()</text>
<text text-anchor="start" x="206" y="-127" font-family="Helvetica,sans-Serif" font-size="10.00">+</text>
<text text-anchor="start" x="219" y="-127" font-family="Helvetica,sans-Serif" font-size="10.00">GetRandomSeed()</text>
<text text-anchor="start" x="206" y="-112" font-family="Helvetica,sans-Serif" font-size="10.00">+</text>
<text text-anchor="start" x="219" y="-112" font-family="Helvetica,sans-Serif" font-size="10.00">SetRate()</text>
<text text-anchor="start" x="206" y="-97" font-family="Helvetica,sans-Serif" font-size="10.00">+</text>
<text text-anchor="start" x="219" y="-97" font-family="Helvetica,sans-Serif" font-size="10.00">GetRate()</text>
<text text-anchor="start" x="206" y="-82" font-family="Helvetica,sans-Serif" font-size="10.00">+</text>
<text text-anchor="start" x="219" y="-82" font-family="Helvetica,sans-Serif" font-size="10.00">GenerateCellCycleTimeSequence()</text>
<text text-anchor="start" x="206" y="-67" font-family="Helvetica,sans-Serif" font-size="10.00">+</text>
<text text-anchor="start" x="219" y="-67" font-family="Helvetica,sans-Serif" font-size="10.00">GetNextCellCycleTime()</text>
<text text-anchor="start" x="206" y="-52" font-family="Helvetica,sans-Serif" font-size="10.00">+</text>
<text text-anchor="start" x="219" y="-52" font-family="Helvetica,sans-Serif" font-size="10.00">Instance()</text>
<text text-anchor="start" x="206" y="-37" font-family="Helvetica,sans-Serif" font-size="10.00">+</text>
<text text-anchor="start" x="219" y="-37" font-family="Helvetica,sans-Serif" font-size="10.00">Destroy()</text>
<text text-anchor="start" x="206" y="-22" font-family="Helvetica,sans-Serif" font-size="10.00">#</text>
<text text-anchor="start" x="219" y="-22" font-family="Helvetica,sans-Serif" font-size="10.00">CellCycleTimesGenerator()</text>
<text text-anchor="start" x="208.5" y="-7" font-family="Helvetica,sans-Serif" font-size="10.00">&#45;</text>
<text text-anchor="start" x="219" y="-7" font-family="Helvetica,sans-Serif" font-size="10.00">serialize()</text>
<polygon fill="#666666" stroke="#666666" points="202,-167 202,-167 394,-167 394,-167 202,-167"/>
<polygon fill="#666666" stroke="#666666" points="202,-152 202,-152 394,-152 394,-152 202,-152"/>
<polygon fill="none" stroke="#666666" points="202,0 202,-184 394,-184 394,0 202,0"/>
</a>
</g>
</g>
<!-- Node1&#45;&gt;Node1 -->
<g id="edge5_Node000001_Node000001" class="edge">
<title>Node1&#45;&gt;Node1</title>
<g id="a_edge5_Node000001_Node000001"><a xlink:title=" ">
<path fill="none" stroke="#63b8ff" d="M394.06,-111.07C404.94,-107.5 412,-101.14 412,-92 412,-86.43 409.38,-81.89 404.87,-78.39"/>
<polygon fill="none" stroke="#63b8ff" points="404.77,-78.34 397.61,-79.21 394.06,-72.93 401.22,-72.07 404.77,-78.34"/>
</a>
</g>
<text text-anchor="middle" x="444" y="-89.5" font-family="Helvetica,sans-Serif" font-size="10.00" fill="grey"> &#45;mpInstance</text>
</g>
<!-- Node2 -->
<g id="Node000002" class="node">
<title>Node2</title>
<g id="a_Node000002"><a xlink:href="classSerializableSingleton.html" target="_top" xlink:title=" ">
<polygon fill="white" stroke="transparent" points="158,-332 0,-332 0,-242 158,-242 158,-332"/>
<text text-anchor="start" x="5" y="-320" font-family="Helvetica,sans-Serif" font-size="10.00">SerializableSingleton</text>
<text text-anchor="start" x="5" y="-309" font-family="Helvetica,sans-Serif" font-size="10.00">&lt; CellCycleTimesGenerator &gt;</text>
<text text-anchor="start" x="77" y="-294" font-family="Helvetica,sans-Serif" font-size="10.00"> </text>
<text text-anchor="start" x="6.5" y="-279" font-family="Helvetica,sans-Serif" font-size="10.00">+</text>
<text text-anchor="start" x="22" y="-279" font-family="Helvetica,sans-Serif" font-size="10.00">GetSerializationWrapper()</text>
<text text-anchor="start" x="9" y="-264" font-family="Helvetica,sans-Serif" font-size="10.00">&#45;</text>
<text text-anchor="start" x="22" y="-264" font-family="Helvetica,sans-Serif" font-size="10.00">save()</text>
<text text-anchor="start" x="9" y="-249" font-family="Helvetica,sans-Serif" font-size="10.00">&#45;</text>
<text text-anchor="start" x="22" y="-249" font-family="Helvetica,sans-Serif" font-size="10.00">load()</text>
<polygon fill="#666666" stroke="#666666" points="0,-304 0,-304 158,-304 158,-304 0,-304"/>
<polygon fill="#666666" stroke="#666666" points="0,-289 0,-289 158,-289 158,-289 0,-289"/>
<polygon fill="none" stroke="#666666" points="0,-242 0,-332 158,-332 158,-242 0,-242"/>
</a>
</g>
</g>
<!-- Node2&#45;&gt;Node1 -->
<g id="edge1_Node000001_Node000002" class="edge">
<title>Node2&#45;&gt;Node1</title>
<g id="a_edge1_Node000001_Node000002"><a xlink:title=" ">
<path fill="none" stroke="#63b8ff" d="M136.73,-235.12C156.64,-217.58 179.52,-197.42 201.67,-177.9"/>
<polygon fill="none" stroke="#63b8ff" points="134.16,-232.73 128.97,-241.96 138.79,-237.98 134.16,-232.73"/>
</a>
</g>
</g>
<!-- Node3 -->
<g id="Node000003" class="node">
<title>Node3</title>
<g id="a_Node000003"><a xlink:title=" ">
<polygon fill="white" stroke="transparent" points="140,-565 34,-565 34,-516 140,-516 140,-565"/>
<text text-anchor="start" x="39" y="-552.5" font-family="Helvetica,sans-Serif" font-size="10.00">boost::noncopyable</text>
<text text-anchor="start" x="85" y="-537.5" font-family="Helvetica,sans-Serif" font-size="10.00"> </text>
<text text-anchor="start" x="85" y="-522.5" font-family="Helvetica,sans-Serif" font-size="10.00"> </text>
<polygon fill="#bfbfbf" stroke="#bfbfbf" points="34,-547.5 34,-547.5 140,-547.5 140,-547.5 34,-547.5"/>
<polygon fill="#bfbfbf" stroke="#bfbfbf" points="34,-532.5 34,-532.5 140,-532.5 140,-532.5 34,-532.5"/>
<polygon fill="none" stroke="#bfbfbf" points="34,-516 34,-565 140,-565 140,-516 34,-516"/>
</a>
</g>
</g>
<!-- Node3&#45;&gt;Node2 -->
<g id="edge2_Node000002_Node000003" class="edge">
<title>Node3&#45;&gt;Node2</title>
<g id="a_edge2_Node000002_Node000003"><a xlink:title=" ">
<path fill="none" stroke="#8b1a1a" d="M79.47,-505.69C77.24,-494.12 75.1,-481.05 74,-469 69.75,-422.51 72.11,-369.05 74.85,-332.35"/>
<polygon fill="none" stroke="#8b1a1a" points="76.11,-506.72 81.52,-515.83 82.97,-505.33 76.11,-506.72"/>
</a>
</g>
</g>
<!-- Node4 -->
<g id="Node000004" class="node">
<title>Node4</title>
<g id="a_Node000004"><a xlink:href="classSerializableSingleton.html" target="_top" xlink:title=" ">
<polygon fill="white" stroke="transparent" points="231,-469 83,-469 83,-379 231,-379 231,-469"/>
<text text-anchor="start" x="99" y="-457" font-family="Helvetica,sans-Serif" font-size="10.00">SerializableSingleton</text>
<text text-anchor="start" x="99" y="-446" font-family="Helvetica,sans-Serif" font-size="10.00">&lt; SINGLETON_CLASS &gt;</text>
<text text-anchor="start" x="155" y="-431" font-family="Helvetica,sans-Serif" font-size="10.00"> </text>
<text text-anchor="start" x="87" y="-416" font-family="Helvetica,sans-Serif" font-size="10.00">+</text>
<text text-anchor="start" x="100" y="-416" font-family="Helvetica,sans-Serif" font-size="10.00">GetSerializationWrapper()</text>
<text text-anchor="start" x="89.5" y="-401" font-family="Helvetica,sans-Serif" font-size="10.00">&#45;</text>
<text text-anchor="start" x="100" y="-401" font-family="Helvetica,sans-Serif" font-size="10.00">save()</text>
<text text-anchor="start" x="89.5" y="-386" font-family="Helvetica,sans-Serif" font-size="10.00">&#45;</text>
<text text-anchor="start" x="100" y="-386" font-family="Helvetica,sans-Serif" font-size="10.00">load()</text>
<polygon fill="#666666" stroke="#666666" points="83,-441 83,-441 231,-441 231,-441 83,-441"/>
<polygon fill="#666666" stroke="#666666" points="83,-426 83,-426 231,-426 231,-426 83,-426"/>
<polygon fill="none" stroke="#666666" points="83,-379 83,-469 231,-469 231,-379 83,-379"/>
</a>
</g>
</g>
<!-- Node3&#45;&gt;Node4 -->
<g id="edge4_Node000004_Node000003" class="edge">
<title>Node3&#45;&gt;Node4</title>
<g id="a_edge4_Node000004_Node000003"><a xlink:title=" ">
<path fill="none" stroke="#8b1a1a" d="M106.79,-507.12C114.02,-495.3 122.32,-481.72 130.07,-469.06"/>
<polygon fill="none" stroke="#8b1a1a" points="103.73,-505.42 101.5,-515.78 109.71,-509.07 103.73,-505.42"/>
</a>
</g>
</g>
<!-- Node4&#45;&gt;Node2 -->
<g id="edge3_Node000002_Node000004" class="edge">
<title>Node4&#45;&gt;Node2</title>
<g id="a_edge3_Node000002_Node000004"><a xlink:title=" ">
<path fill="none" stroke="orange" d="M126.31,-369.88C119.12,-357.44 111.54,-344.31 104.6,-332.3"/>
<polygon fill="orange" stroke="orange" points="123.43,-371.89 131.46,-378.8 129.49,-368.39 123.43,-371.89"/>
</a>
</g>
<text text-anchor="middle" x="196.5" y="-353" font-family="Helvetica,sans-Serif" font-size="10.00" fill="grey"> &lt; CellCycleTimesGenerator &gt;</text>
</g>
<!-- Node5 -->
<g id="Node000005" class="node">
<title>Node5</title>
<g id="a_Node000005"><a xlink:href="classunsigned.html" target="_top" xlink:title=" ">
<polygon fill="white" stroke="transparent" points="230.5,-311.5 175.5,-311.5 175.5,-262.5 230.5,-262.5 230.5,-311.5"/>
<text text-anchor="start" x="181" y="-299" font-family="Helvetica,sans-Serif" font-size="10.00">unsigned</text>
<text text-anchor="start" x="201.5" y="-284" font-family="Helvetica,sans-Serif" font-size="10.00"> </text>
<text text-anchor="start" x="201.5" y="-269" font-family="Helvetica,sans-Serif" font-size="10.00"> </text>
<polygon fill="#bfbfbf" stroke="#bfbfbf" points="176,-294 176,-294 231,-294 231,-294 176,-294"/>
<polygon fill="#bfbfbf" stroke="#bfbfbf" points="176,-279 176,-279 231,-279 231,-279 176,-279"/>
<polygon fill="none" stroke="#bfbfbf" points="175.5,-262.5 175.5,-311.5 230.5,-311.5 230.5,-262.5 175.5,-262.5"/>
</a>
</g>
</g>
<!-- Node5&#45;&gt;Node1 -->
<g id="edge6_Node000001_Node000005" class="edge">
<title>Node5&#45;&gt;Node1</title>
<g id="a_edge6_Node000001_Node000005"><a xlink:title=" ">
<path fill="none" stroke="#63b8ff" d="M199.06,-262.39C197.16,-245.1 196.67,-221.37 204,-202 204.9,-199.63 205.87,-197.27 206.92,-194.93"/>
<polygon fill="none" stroke="#63b8ff" points="206.94,-194.89 206.03,-187.73 212.28,-184.14 213.19,-191.29 206.94,-194.89"/>
</a>
</g>
<text text-anchor="middle" x="244" y="-216" font-family="Helvetica,sans-Serif" font-size="10.00" fill="grey"> &#45;mCurrentIndex</text>
<text text-anchor="middle" x="244" y="-205" font-family="Helvetica,sans-Serif" font-size="10.00" fill="grey">&#45;mRandomSeed</text>
</g>
<!-- Node6 -->
<g id="Node000006" class="node">
<title>Node6</title>
<g id="a_Node000006"><a xlink:title=" ">
<polygon fill="white" stroke="transparent" points="474,-311.5 356,-311.5 356,-262.5 474,-262.5 474,-311.5"/>
<text text-anchor="start" x="361" y="-299" font-family="Helvetica,sans-Serif" font-size="10.00">std::vector&lt; double &gt;</text>
<text text-anchor="start" x="413" y="-284" font-family="Helvetica,sans-Serif" font-size="10.00"> </text>
<text text-anchor="start" x="413" y="-269" font-family="Helvetica,sans-Serif" font-size="10.00"> </text>
<polygon fill="#666666" stroke="#666666" points="356,-294 356,-294 474,-294 474,-294 356,-294"/>
<polygon fill="#666666" stroke="#666666" points="356,-279 356,-279 474,-279 474,-279 356,-279"/>
<polygon fill="none" stroke="#666666" points="356,-262.5 356,-311.5 474,-311.5 474,-262.5 356,-262.5"/>
</a>
</g>
</g>
<!-- Node6&#45;&gt;Node1 -->
<g id="edge7_Node000001_Node000006" class="edge">
<title>Node6&#45;&gt;Node1</title>
<g id="a_edge7_Node000001_Node000006"><a xlink:title=" ">
<path fill="none" stroke="#63b8ff" d="M400.65,-262.33C390.14,-244.99 375.08,-220.15 359.73,-194.82"/>
<polygon fill="none" stroke="#63b8ff" points="359.59,-194.6 353.06,-191.55 353.37,-184.34 359.9,-187.4 359.59,-194.6"/>
</a>
</g>
<text text-anchor="middle" x="423.5" y="-210.5" font-family="Helvetica,sans-Serif" font-size="10.00" fill="grey"> &#45;mCellCycleTimes</text>
</g>
<!-- Node7 -->
<g id="Node000007" class="node">
<title>Node7</title>
<g id="a_Node000007"><a xlink:href="classdouble.html" target="_top" xlink:title=" ">
<polygon fill="white" stroke="transparent" points="336,-448.5 292,-448.5 292,-399.5 336,-399.5 336,-448.5"/>
<text text-anchor="start" x="297" y="-436" font-family="Helvetica,sans-Serif" font-size="10.00">double</text>
<text text-anchor="start" x="312" y="-421" font-family="Helvetica,sans-Serif" font-size="10.00"> </text>
<text text-anchor="start" x="312" y="-406" font-family="Helvetica,sans-Serif" font-size="10.00"> </text>
<polygon fill="#bfbfbf" stroke="#bfbfbf" points="292,-431 292,-431 336,-431 336,-431 292,-431"/>
<polygon fill="#bfbfbf" stroke="#bfbfbf" points="292,-416 292,-416 336,-416 336,-416 292,-416"/>
<polygon fill="none" stroke="#bfbfbf" points="292,-399.5 292,-448.5 336,-448.5 336,-399.5 292,-399.5"/>
</a>
</g>
</g>
<!-- Node7&#45;&gt;Node1 -->
<g id="edge11_Node000001_Node000007" class="edge">
<title>Node7&#45;&gt;Node1</title>
<g id="a_edge11_Node000001_Node000007"><a xlink:title=" ">
<path fill="none" stroke="#63b8ff" d="M311.93,-399.45C310.38,-381.09 308.31,-354.94 307,-332 304.46,-287.57 302.46,-238.46 301.01,-196.36"/>
<polygon fill="none" stroke="#63b8ff" points="301,-196.11 296.8,-190.25 300.59,-184.12 304.79,-189.98 301,-196.11"/>
</a>
</g>
<text text-anchor="middle" x="327" y="-284.5" font-family="Helvetica,sans-Serif" font-size="10.00" fill="grey"> &#45;mRate</text>
</g>
<!-- Node7&#45;&gt;Node6 -->
<g id="edge8_Node000006_Node000007" class="edge">
<title>Node7&#45;&gt;Node6</title>
<g id="a_edge8_Node000006_Node000007"><a xlink:title=" ">
<path fill="none" stroke="#63b8ff" d="M324.47,-399.27C331.54,-384.45 341.62,-365.35 353,-350 360.7,-339.62 370.1,-329.31 379.24,-320.16"/>
<polygon fill="none" stroke="#63b8ff" points="379.25,-320.15 380.77,-313.1 387.86,-311.78 386.34,-318.83 379.25,-320.15"/>
</a>
</g>
<text text-anchor="middle" x="382" y="-353" font-family="Helvetica,sans-Serif" font-size="10.00" fill="grey"> +elements</text>
</g>
<!-- Node8 -->
<g id="Node000008" class="node">
<title>Node8</title>
<g id="a_Node000008"><a xlink:title=" ">
<polygon fill="white" stroke="transparent" points="460.5,-448.5 369.5,-448.5 369.5,-399.5 460.5,-399.5 460.5,-448.5"/>
<text text-anchor="start" x="375" y="-436" font-family="Helvetica,sans-Serif" font-size="10.00">std::vector&lt; T &gt;</text>
<text text-anchor="start" x="413.5" y="-421" font-family="Helvetica,sans-Serif" font-size="10.00"> </text>
<text text-anchor="start" x="413.5" y="-406" font-family="Helvetica,sans-Serif" font-size="10.00"> </text>
<polygon fill="#666666" stroke="#666666" points="370,-431 370,-431 461,-431 461,-431 370,-431"/>
<polygon fill="#666666" stroke="#666666" points="370,-416 370,-416 461,-416 461,-416 370,-416"/>
<polygon fill="none" stroke="#666666" points="369.5,-399.5 369.5,-448.5 460.5,-448.5 460.5,-399.5 369.5,-399.5"/>
</a>
</g>
</g>
<!-- Node8&#45;&gt;Node6 -->
<g id="edge9_Node000006_Node000008" class="edge">
<title>Node8&#45;&gt;Node6</title>
<g id="a_edge9_Node000006_Node000008"><a xlink:title=" ">
<path fill="none" stroke="orange" d="M415,-389.33C415,-365.17 415,-333.21 415,-311.7"/>
<polygon fill="orange" stroke="orange" points="411.5,-389.48 415,-399.48 418.5,-389.48 411.5,-389.48"/>
</a>
</g>
<text text-anchor="middle" x="444.5" y="-353" font-family="Helvetica,sans-Serif" font-size="10.00" fill="grey"> &lt; double &gt;</text>
</g>
<!-- Node9 -->
<g id="Node000009" class="node">
<title>Node9</title>
<g id="a_Node000009"><a xlink:title=" ">
<polygon fill="white" stroke="transparent" points="423.5,-565 406.5,-565 406.5,-516 423.5,-516 423.5,-565"/>
<text text-anchor="start" x="412" y="-552.5" font-family="Helvetica,sans-Serif" font-size="10.00">T</text>
<text text-anchor="start" x="413.5" y="-537.5" font-family="Helvetica,sans-Serif" font-size="10.00"> </text>
<text text-anchor="start" x="413.5" y="-522.5" font-family="Helvetica,sans-Serif" font-size="10.00"> </text>
<polygon fill="#bfbfbf" stroke="#bfbfbf" points="407,-547.5 407,-547.5 424,-547.5 424,-547.5 407,-547.5"/>
<polygon fill="#bfbfbf" stroke="#bfbfbf" points="407,-532.5 407,-532.5 424,-532.5 424,-532.5 407,-532.5"/>
<polygon fill="none" stroke="#bfbfbf" points="406.5,-516 406.5,-565 423.5,-565 423.5,-516 406.5,-516"/>
</a>
</g>
</g>
<!-- Node9&#45;&gt;Node8 -->
<g id="edge10_Node000008_Node000009" class="edge">
<title>Node9&#45;&gt;Node8</title>
<g id="a_edge10_Node000008_Node000009"><a xlink:title=" ">
<path fill="none" stroke="#63b8ff" d="M415,-515.78C415,-499.89 415,-478.68 415,-460.75"/>
<polygon fill="none" stroke="#63b8ff" points="415,-460.69 411,-454.69 415,-448.69 419,-454.69 415,-460.69"/>
</a>
</g>
<text text-anchor="middle" x="444" y="-490" font-family="Helvetica,sans-Serif" font-size="10.00" fill="grey"> +elements</text>
</g>
<!-- Node10 -->
<g id="Node000010" class="node">
<title>Node10</title>
<g id="a_Node000010"><a xlink:href="classbool.html" target="_top" xlink:title=" ">
<polygon fill="white" stroke="transparent" points="524,-311.5 492,-311.5 492,-262.5 524,-262.5 524,-311.5"/>
<text text-anchor="start" x="497" y="-299" font-family="Helvetica,sans-Serif" font-size="10.00">bool</text>
<text text-anchor="start" x="506" y="-284" font-family="Helvetica,sans-Serif" font-size="10.00"> </text>
<text text-anchor="start" x="506" y="-269" font-family="Helvetica,sans-Serif" font-size="10.00"> </text>
<polygon fill="#bfbfbf" stroke="#bfbfbf" points="492,-294 492,-294 524,-294 524,-294 492,-294"/>
<polygon fill="#bfbfbf" stroke="#bfbfbf" points="492,-279 492,-279 524,-279 524,-279 492,-279"/>
<polygon fill="none" stroke="#bfbfbf" points="492,-262.5 492,-311.5 524,-311.5 524,-262.5 492,-262.5"/>
</a>
</g>
</g>
<!-- Node10&#45;&gt;Node1 -->
<g id="edge12_Node000001_Node000010" class="edge">
<title>Node10&#45;&gt;Node1</title>
<g id="a_edge12_Node000001_Node000010"><a xlink:title=" ">
<path fill="none" stroke="#63b8ff" d="M502.66,-262.16C497.66,-244.07 488.7,-219.44 474,-202 454.86,-179.3 429.74,-159.9 404.5,-144.03"/>
<polygon fill="none" stroke="#63b8ff" points="404.32,-143.92 397.12,-144.21 394.08,-137.67 401.28,-137.38 404.32,-143.92"/>
</a>
</g>
<text text-anchor="middle" x="530" y="-210.5" font-family="Helvetica,sans-Serif" font-size="10.00" fill="grey"> &#45;mVectorCreated</text>
</g>
</g>
</svg>
