<?xml version="1.0" encoding="UTF-8" standalone="no"?>
<!DOCTYPE svg PUBLIC "-//W3C//DTD SVG 1.1//EN"
 "http://www.w3.org/Graphics/SVG/1.1/DTD/svg11.dtd">
<!-- Generated by graphviz version 2.43.0 (0)
 -->
<!-- Title: LinearParabolicPdeSystemWithCoupledOdeSystemSolver&lt; ELEMENT_DIM, SPACE_DIM, PROBLEM_DIM &gt; Pages: 1 -->
<svg width="415pt" height="2287pt"
 viewBox="0.00 0.00 414.60 2287.00" xmlns="http://www.w3.org/2000/svg" xmlns:xlink="http://www.w3.org/1999/xlink">
<g id="graph0" class="graph" transform="scale(1 1) rotate(0) translate(4 2283)">
<title>LinearParabolicPdeSystemWithCoupledOdeSystemSolver&lt; ELEMENT_DIM, SPACE_DIM, PROBLEM_DIM &gt;</title>
<!-- Node1 -->
<g id="Node000001" class="node">
<title>Node1</title>
<g id="a_Node000001"><a xlink:title=" ">
<polygon fill="#999999" stroke="transparent" points="340.6,-434 152.6,-434 152.6,0 340.6,0 340.6,-434"/>
<text text-anchor="start" x="171.6" y="-422" font-family="Helvetica,sans-Serif" font-size="10.00">LinearParabolicPdeSystem</text>
<text text-anchor="start" x="171.6" y="-411" font-family="Helvetica,sans-Serif" font-size="10.00">WithCoupledOdeSystemSolver</text>
<text text-anchor="start" x="171.6" y="-400" font-family="Helvetica,sans-Serif" font-size="10.00">&lt; ELEMENT_DIM, SPACE_DIM,</text>
<text text-anchor="start" x="203.1" y="-389" font-family="Helvetica,sans-Serif" font-size="10.00"> PROBLEM_DIM &gt;</text>
<text text-anchor="start" x="159.1" y="-374" font-family="Helvetica,sans-Serif" font-size="10.00">&#45;</text>
<text text-anchor="start" x="169.6" y="-374" font-family="Helvetica,sans-Serif" font-size="10.00">mpMesh</text>
<text text-anchor="start" x="159.1" y="-359" font-family="Helvetica,sans-Serif" font-size="10.00">&#45;</text>
<text text-anchor="start" x="169.6" y="-359" font-family="Helvetica,sans-Serif" font-size="10.00">mpPdeSystem</text>
<text text-anchor="start" x="159.1" y="-344" font-family="Helvetica,sans-Serif" font-size="10.00">&#45;</text>
<text text-anchor="start" x="169.6" y="-344" font-family="Helvetica,sans-Serif" font-size="10.00">mOdeSystemsAtNodes</text>
<text text-anchor="start" x="159.1" y="-329" font-family="Helvetica,sans-Serif" font-size="10.00">&#45;</text>
<text text-anchor="start" x="169.6" y="-329" font-family="Helvetica,sans-Serif" font-size="10.00">mInterpolatedOdeStateVariables</text>
<text text-anchor="start" x="159.1" y="-314" font-family="Helvetica,sans-Serif" font-size="10.00">&#45;</text>
<text text-anchor="start" x="169.6" y="-314" font-family="Helvetica,sans-Serif" font-size="10.00">mpOdeSolver</text>
<text text-anchor="start" x="159.1" y="-299" font-family="Helvetica,sans-Serif" font-size="10.00">&#45;</text>
<text text-anchor="start" x="169.6" y="-299" font-family="Helvetica,sans-Serif" font-size="10.00">mSamplingTimeStep</text>
<text text-anchor="start" x="159.1" y="-284" font-family="Helvetica,sans-Serif" font-size="10.00">&#45;</text>
<text text-anchor="start" x="169.6" y="-284" font-family="Helvetica,sans-Serif" font-size="10.00">mOdeSystemsPresent</text>
<text text-anchor="start" x="159.1" y="-269" font-family="Helvetica,sans-Serif" font-size="10.00">&#45;</text>
<text text-anchor="start" x="169.6" y="-269" font-family="Helvetica,sans-Serif" font-size="10.00">mpVtkMetaFile</text>
<text text-anchor="start" x="159.1" y="-254" font-family="Helvetica,sans-Serif" font-size="10.00">&#45;</text>
<text text-anchor="start" x="169.6" y="-254" font-family="Helvetica,sans-Serif" font-size="10.00">mClearOutputDirectory</text>
<text text-anchor="start" x="156.6" y="-239" font-family="Helvetica,sans-Serif" font-size="10.00">+</text>
<text text-anchor="start" x="169.6" y="-239" font-family="Helvetica,sans-Serif" font-size="10.00">LinearParabolicPdeSystem</text>
<text text-anchor="start" x="169.6" y="-228" font-family="Helvetica,sans-Serif" font-size="10.00">WithCoupledOdeSystemSolver()</text>
<text text-anchor="start" x="156.6" y="-213" font-family="Helvetica,sans-Serif" font-size="10.00">+</text>
<text text-anchor="start" x="169.6" y="-213" font-family="Helvetica,sans-Serif" font-size="10.00">~LinearParabolicPdeSystem</text>
<text text-anchor="start" x="169.6" y="-202" font-family="Helvetica,sans-Serif" font-size="10.00">WithCoupledOdeSystemSolver()</text>
<text text-anchor="start" x="156.6" y="-187" font-family="Helvetica,sans-Serif" font-size="10.00">+</text>
<text text-anchor="start" x="169.6" y="-187" font-family="Helvetica,sans-Serif" font-size="10.00">PrepareForSetupLinearSystem()</text>
<text text-anchor="start" x="156.6" y="-172" font-family="Helvetica,sans-Serif" font-size="10.00">+</text>
<text text-anchor="start" x="169.6" y="-172" font-family="Helvetica,sans-Serif" font-size="10.00">SetOutputDirectory()</text>
<text text-anchor="start" x="156.6" y="-157" font-family="Helvetica,sans-Serif" font-size="10.00">+</text>
<text text-anchor="start" x="169.6" y="-157" font-family="Helvetica,sans-Serif" font-size="10.00">SetSamplingTimeStep()</text>
<text text-anchor="start" x="156.6" y="-142" font-family="Helvetica,sans-Serif" font-size="10.00">+</text>
<text text-anchor="start" x="169.6" y="-142" font-family="Helvetica,sans-Serif" font-size="10.00">SolveAndWriteResultsToFile()</text>
<text text-anchor="start" x="156.6" y="-127" font-family="Helvetica,sans-Serif" font-size="10.00">+</text>
<text text-anchor="start" x="169.6" y="-127" font-family="Helvetica,sans-Serif" font-size="10.00">WriteVtkResultsToFile()</text>
<text text-anchor="start" x="156.6" y="-112" font-family="Helvetica,sans-Serif" font-size="10.00">+</text>
<text text-anchor="start" x="169.6" y="-112" font-family="Helvetica,sans-Serif" font-size="10.00">GetOdeSystemAtNode()</text>
<text text-anchor="start" x="159.1" y="-97" font-family="Helvetica,sans-Serif" font-size="10.00">&#45;</text>
<text text-anchor="start" x="169.6" y="-97" font-family="Helvetica,sans-Serif" font-size="10.00">WriteVtkResultsToFile()</text>
<text text-anchor="start" x="159.1" y="-82" font-family="Helvetica,sans-Serif" font-size="10.00">&#45;</text>
<text text-anchor="start" x="169.6" y="-82" font-family="Helvetica,sans-Serif" font-size="10.00">ComputeMatrixTerm()</text>
<text text-anchor="start" x="159.1" y="-67" font-family="Helvetica,sans-Serif" font-size="10.00">&#45;</text>
<text text-anchor="start" x="169.6" y="-67" font-family="Helvetica,sans-Serif" font-size="10.00">ComputeVectorTerm()</text>
<text text-anchor="start" x="159.1" y="-52" font-family="Helvetica,sans-Serif" font-size="10.00">&#45;</text>
<text text-anchor="start" x="169.6" y="-52" font-family="Helvetica,sans-Serif" font-size="10.00">ResetInterpolatedQuantities()</text>
<text text-anchor="start" x="159.1" y="-37" font-family="Helvetica,sans-Serif" font-size="10.00">&#45;</text>
<text text-anchor="start" x="169.6" y="-37" font-family="Helvetica,sans-Serif" font-size="10.00">IncrementInterpolatedQuantities()</text>
<text text-anchor="start" x="159.1" y="-22" font-family="Helvetica,sans-Serif" font-size="10.00">&#45;</text>
<text text-anchor="start" x="169.6" y="-22" font-family="Helvetica,sans-Serif" font-size="10.00">InitialiseForSolve()</text>
<text text-anchor="start" x="159.1" y="-7" font-family="Helvetica,sans-Serif" font-size="10.00">&#45;</text>
<text text-anchor="start" x="169.6" y="-7" font-family="Helvetica,sans-Serif" font-size="10.00">SetupLinearSystem()</text>
<polygon fill="#666666" stroke="#666666" points="152.6,-384 152.6,-384 340.6,-384 340.6,-384 152.6,-384"/>
<polygon fill="#666666" stroke="#666666" points="152.6,-249 152.6,-249 167.6,-249 167.6,-249 152.6,-249"/>
<polygon fill="#666666" stroke="#666666" points="167.6,-249 167.6,-249 340.6,-249 340.6,-249 167.6,-249"/>
<polygon fill="none" stroke="#666666" points="152.6,0 152.6,-434 340.6,-434 340.6,0 152.6,0"/>
</a>
</g>
</g>
<!-- Node2 -->
<g id="Node000002" class="node">
<title>Node2</title>
<g id="a_Node000002"><a xlink:href="classAbstractAssemblerSolverHybrid.html" target="_top" xlink:title=" ">
<polygon fill="white" stroke="transparent" points="282.6,-609 66.6,-609 66.6,-471 282.6,-471 282.6,-609"/>
<text text-anchor="start" x="71.6" y="-597" font-family="Helvetica,sans-Serif" font-size="10.00">AbstractAssemblerSolverHybrid</text>
<text text-anchor="start" x="71.6" y="-586" font-family="Helvetica,sans-Serif" font-size="10.00">&lt; ELEMENT_DIM, SPACE_DIM,</text>
<text text-anchor="start" x="71.6" y="-575" font-family="Helvetica,sans-Serif" font-size="10.00"> PROBLEM_DIM, INTERPOLATION_LEVEL &gt;</text>
<text text-anchor="start" x="78.6" y="-560" font-family="Helvetica,sans-Serif" font-size="10.00">#</text>
<text text-anchor="start" x="99.6" y="-560" font-family="Helvetica,sans-Serif" font-size="10.00">mNaturalNeumannSurfaceTerm</text>
<text text-anchor="start" x="99.6" y="-549" font-family="Helvetica,sans-Serif" font-size="10.00">Assembler</text>
<text text-anchor="start" x="78.6" y="-534" font-family="Helvetica,sans-Serif" font-size="10.00">#</text>
<text text-anchor="start" x="99.6" y="-534" font-family="Helvetica,sans-Serif" font-size="10.00">mpBoundaryConditions</text>
<text text-anchor="start" x="78.6" y="-519" font-family="Helvetica,sans-Serif" font-size="10.00">+</text>
<text text-anchor="start" x="99.6" y="-519" font-family="Helvetica,sans-Serif" font-size="10.00">AbstractAssemblerSolverHybrid()</text>
<text text-anchor="start" x="78.6" y="-504" font-family="Helvetica,sans-Serif" font-size="10.00">+</text>
<text text-anchor="start" x="99.6" y="-504" font-family="Helvetica,sans-Serif" font-size="10.00">~AbstractAssemblerSolver</text>
<text text-anchor="start" x="99.6" y="-493" font-family="Helvetica,sans-Serif" font-size="10.00">Hybrid()</text>
<text text-anchor="start" x="78.6" y="-478" font-family="Helvetica,sans-Serif" font-size="10.00">+</text>
<text text-anchor="start" x="99.6" y="-478" font-family="Helvetica,sans-Serif" font-size="10.00">SetupGivenLinearSystem()</text>
<polygon fill="#666666" stroke="#666666" points="66.6,-570 66.6,-570 282.6,-570 282.6,-570 66.6,-570"/>
<polygon fill="#666666" stroke="#666666" points="66.6,-529 66.6,-529 97.6,-529 97.6,-529 66.6,-529"/>
<polygon fill="#666666" stroke="#666666" points="97.6,-529 97.6,-529 282.6,-529 282.6,-529 97.6,-529"/>
<polygon fill="none" stroke="#666666" points="66.6,-471 66.6,-609 282.6,-609 282.6,-471 66.6,-471"/>
</a>
</g>
</g>
<!-- Node2&#45;&gt;Node1 -->
<g id="edge1_Node000001_Node000002" class="edge">
<title>Node2&#45;&gt;Node1</title>
<g id="a_edge1_Node000001_Node000002"><a xlink:title=" ">
<path fill="none" stroke="#63b8ff" d="M192.08,-461.08C194,-452.52 196.02,-443.53 198.1,-434.25"/>
<polygon fill="none" stroke="#63b8ff" points="188.65,-460.4 189.87,-470.92 195.48,-461.93 188.65,-460.4"/>
</a>
</g>
</g>
<!-- Node3 -->
<g id="Node000003" class="node">
<title>Node3</title>
<g id="a_Node000003"><a xlink:href="classAbstractFeVolumeIntegralAssembler.html" target="_top" xlink:title=" ">
<polygon fill="white" stroke="transparent" points="246.6,-892 52.6,-892 52.6,-646 246.6,-646 246.6,-892"/>
<text text-anchor="start" x="79.6" y="-880" font-family="Helvetica,sans-Serif" font-size="10.00">AbstractFeVolumeIntegral</text>
<text text-anchor="start" x="79.6" y="-869" font-family="Helvetica,sans-Serif" font-size="10.00">Assembler&lt; ELEMENT_DIM,</text>
<text text-anchor="start" x="79.6" y="-858" font-family="Helvetica,sans-Serif" font-size="10.00"> SPACE_DIM, PROBLEM_DIM,</text>
<text text-anchor="start" x="79.6" y="-847" font-family="Helvetica,sans-Serif" font-size="10.00"> true, true, INTERPOLATION</text>
<text text-anchor="start" x="126.6" y="-836" font-family="Helvetica,sans-Serif" font-size="10.00">_LEVEL &gt;</text>
<text text-anchor="start" x="56.6" y="-821" font-family="Helvetica,sans-Serif" font-size="10.00">#</text>
<text text-anchor="start" x="69.6" y="-821" font-family="Helvetica,sans-Serif" font-size="10.00">mpMesh</text>
<text text-anchor="start" x="56.6" y="-806" font-family="Helvetica,sans-Serif" font-size="10.00">#</text>
<text text-anchor="start" x="69.6" y="-806" font-family="Helvetica,sans-Serif" font-size="10.00">mpQuadRule</text>
<text text-anchor="start" x="56.6" y="-791" font-family="Helvetica,sans-Serif" font-size="10.00">+</text>
<text text-anchor="start" x="69.6" y="-791" font-family="Helvetica,sans-Serif" font-size="10.00">AbstractFeVolumeIntegral</text>
<text text-anchor="start" x="69.6" y="-780" font-family="Helvetica,sans-Serif" font-size="10.00">Assembler()</text>
<text text-anchor="start" x="56.6" y="-765" font-family="Helvetica,sans-Serif" font-size="10.00">+</text>
<text text-anchor="start" x="69.6" y="-765" font-family="Helvetica,sans-Serif" font-size="10.00">~AbstractFeVolumeIntegral</text>
<text text-anchor="start" x="69.6" y="-754" font-family="Helvetica,sans-Serif" font-size="10.00">Assembler()</text>
<text text-anchor="start" x="56.6" y="-739" font-family="Helvetica,sans-Serif" font-size="10.00">#</text>
<text text-anchor="start" x="69.6" y="-739" font-family="Helvetica,sans-Serif" font-size="10.00">ComputeTransformedBasisFunction</text>
<text text-anchor="start" x="69.6" y="-728" font-family="Helvetica,sans-Serif" font-size="10.00">Derivatives()</text>
<text text-anchor="start" x="56.6" y="-713" font-family="Helvetica,sans-Serif" font-size="10.00">#</text>
<text text-anchor="start" x="69.6" y="-713" font-family="Helvetica,sans-Serif" font-size="10.00">DoAssemble()</text>
<text text-anchor="start" x="56.6" y="-698" font-family="Helvetica,sans-Serif" font-size="10.00">#</text>
<text text-anchor="start" x="69.6" y="-698" font-family="Helvetica,sans-Serif" font-size="10.00">ComputeMatrixTerm()</text>
<text text-anchor="start" x="56.6" y="-683" font-family="Helvetica,sans-Serif" font-size="10.00">#</text>
<text text-anchor="start" x="69.6" y="-683" font-family="Helvetica,sans-Serif" font-size="10.00">ComputeVectorTerm()</text>
<text text-anchor="start" x="56.6" y="-668" font-family="Helvetica,sans-Serif" font-size="10.00">#</text>
<text text-anchor="start" x="69.6" y="-668" font-family="Helvetica,sans-Serif" font-size="10.00">AssembleOnElement()</text>
<text text-anchor="start" x="56.6" y="-653" font-family="Helvetica,sans-Serif" font-size="10.00">#</text>
<text text-anchor="start" x="69.6" y="-653" font-family="Helvetica,sans-Serif" font-size="10.00">ElementAssemblyCriterion()</text>
<polygon fill="#666666" stroke="#666666" points="52.6,-831 52.6,-831 246.6,-831 246.6,-831 52.6,-831"/>
<polygon fill="#666666" stroke="#666666" points="52.6,-801 52.6,-801 67.6,-801 67.6,-801 52.6,-801"/>
<polygon fill="#666666" stroke="#666666" points="67.6,-801 67.6,-801 246.6,-801 246.6,-801 67.6,-801"/>
<polygon fill="none" stroke="#666666" points="52.6,-646 52.6,-892 246.6,-892 246.6,-646 52.6,-646"/>
</a>
</g>
</g>
<!-- Node3&#45;&gt;Node2 -->
<g id="edge2_Node000002_Node000003" class="edge">
<title>Node3&#45;&gt;Node2</title>
<g id="a_edge2_Node000002_Node000003"><a xlink:title=" ">
<path fill="none" stroke="#63b8ff" d="M164.15,-635.87C165.16,-626.71 166.15,-617.72 167.1,-609.14"/>
<polygon fill="none" stroke="#63b8ff" points="160.67,-635.54 163.05,-645.86 167.63,-636.31 160.67,-635.54"/>
</a>
</g>
</g>
<!-- Node4 -->
<g id="Node000004" class="node">
<title>Node4</title>
<g id="a_Node000004"><a xlink:href="classAbstractFeAssemblerCommon.html" target="_top" xlink:title=" ">
<polygon fill="white" stroke="transparent" points="220.6,-1875 20.6,-1875 20.6,-1670 220.6,-1670 220.6,-1875"/>
<text text-anchor="start" x="33.1" y="-1862.5" font-family="Helvetica,sans-Serif" font-size="10.00">AbstractFeAssemblerCommon</text>
<text text-anchor="start" x="33.1" y="-1851.5" font-family="Helvetica,sans-Serif" font-size="10.00">&lt; ELEMENT_DIM, SPACE_DIM,</text>
<text text-anchor="start" x="33.1" y="-1840.5" font-family="Helvetica,sans-Serif" font-size="10.00"> PROBLEM_DIM, CAN_ASSEMBLE</text>
<text text-anchor="start" x="33.1" y="-1829.5" font-family="Helvetica,sans-Serif" font-size="10.00">_VECTOR, CAN_ASSEMBLE_MATRIX,</text>
<text text-anchor="start" x="56.6" y="-1818.5" font-family="Helvetica,sans-Serif" font-size="10.00"> INTERPOLATION_LEVEL &gt;</text>
<text text-anchor="start" x="24.6" y="-1803.5" font-family="Helvetica,sans-Serif" font-size="10.00">#</text>
<text text-anchor="start" x="37.6" y="-1803.5" font-family="Helvetica,sans-Serif" font-size="10.00">mCurrentSolutionOrGuessReplicated</text>
<text text-anchor="start" x="24.6" y="-1788.5" font-family="Helvetica,sans-Serif" font-size="10.00">+</text>
<text text-anchor="start" x="37.6" y="-1788.5" font-family="Helvetica,sans-Serif" font-size="10.00">AbstractFeAssemblerCommon()</text>
<text text-anchor="start" x="24.6" y="-1773.5" font-family="Helvetica,sans-Serif" font-size="10.00">+</text>
<text text-anchor="start" x="37.6" y="-1773.5" font-family="Helvetica,sans-Serif" font-size="10.00">SetCurrentSolution()</text>
<text text-anchor="start" x="24.6" y="-1758.5" font-family="Helvetica,sans-Serif" font-size="10.00">+</text>
<text text-anchor="start" x="37.6" y="-1758.5" font-family="Helvetica,sans-Serif" font-size="10.00">~AbstractFeAssemblerCommon()</text>
<text text-anchor="start" x="24.6" y="-1743.5" font-family="Helvetica,sans-Serif" font-size="10.00">#</text>
<text text-anchor="start" x="37.6" y="-1743.5" font-family="Helvetica,sans-Serif" font-size="10.00">GetCurrentSolutionOrGuess</text>
<text text-anchor="start" x="37.6" y="-1732.5" font-family="Helvetica,sans-Serif" font-size="10.00">Value()</text>
<text text-anchor="start" x="24.6" y="-1717.5" font-family="Helvetica,sans-Serif" font-size="10.00">#</text>
<text text-anchor="start" x="37.6" y="-1717.5" font-family="Helvetica,sans-Serif" font-size="10.00">ResetInterpolatedQuantities()</text>
<text text-anchor="start" x="24.6" y="-1702.5" font-family="Helvetica,sans-Serif" font-size="10.00">#</text>
<text text-anchor="start" x="37.6" y="-1702.5" font-family="Helvetica,sans-Serif" font-size="10.00">IncrementInterpolatedQuantities()</text>
<text text-anchor="start" x="24.6" y="-1687.5" font-family="Helvetica,sans-Serif" font-size="10.00">#</text>
<text text-anchor="start" x="37.6" y="-1687.5" font-family="Helvetica,sans-Serif" font-size="10.00">IncrementInterpolatedGradient</text>
<text text-anchor="start" x="37.6" y="-1676.5" font-family="Helvetica,sans-Serif" font-size="10.00">Quantities()</text>
<polygon fill="#666666" stroke="#666666" points="20.6,-1813.5 20.6,-1813.5 220.6,-1813.5 220.6,-1813.5 20.6,-1813.5"/>
<polygon fill="#666666" stroke="#666666" points="20.6,-1798.5 20.6,-1798.5 35.6,-1798.5 35.6,-1798.5 20.6,-1798.5"/>
<polygon fill="#666666" stroke="#666666" points="35.6,-1798.5 35.6,-1798.5 220.6,-1798.5 220.6,-1798.5 35.6,-1798.5"/>
<polygon fill="none" stroke="#666666" points="20.6,-1670 20.6,-1875 220.6,-1875 220.6,-1670 20.6,-1670"/>
</a>
</g>
</g>
<!-- Node4&#45;&gt;Node3 -->
<g id="edge3_Node000003_Node000004" class="edge">
<title>Node4&#45;&gt;Node3</title>
<g id="a_edge3_Node000003_Node000004"><a xlink:title=" ">
<path fill="none" stroke="#63b8ff" d="M81.3,-1660.12C31.4,-1501.73 -40.32,-1203.72 29.6,-961 36.38,-937.48 47,-914.06 59.18,-892.09"/>
<polygon fill="none" stroke="#63b8ff" points="78.04,-1661.41 84.41,-1669.88 84.71,-1659.29 78.04,-1661.41"/>
</a>
</g>
</g>
<!-- Node7 -->
<g id="Node000007" class="node">
<title>Node7</title>
<g id="a_Node000007"><a xlink:href="classAbstractFeVolumeIntegralAssembler.html" target="_top" xlink:title=" ">
<polygon fill="white" stroke="transparent" points="280.1,-1207 39.1,-1207 39.1,-961 280.1,-961 280.1,-1207"/>
<text text-anchor="start" x="44.6" y="-1195" font-family="Helvetica,sans-Serif" font-size="10.00">AbstractFeVolumeIntegral</text>
<text text-anchor="start" x="44.6" y="-1184" font-family="Helvetica,sans-Serif" font-size="10.00">Assembler&lt; ELEMENT_DIM,</text>
<text text-anchor="start" x="44.6" y="-1173" font-family="Helvetica,sans-Serif" font-size="10.00"> SPACE_DIM, PROBLEM_DIM,</text>
<text text-anchor="start" x="44.6" y="-1162" font-family="Helvetica,sans-Serif" font-size="10.00"> CAN_ASSEMBLE_VECTOR, CAN</text>
<text text-anchor="start" x="44.6" y="-1151" font-family="Helvetica,sans-Serif" font-size="10.00">_ASSEMBLE_MATRIX, INTERPOLATION_LEVEL &gt;</text>
<text text-anchor="start" x="55.1" y="-1136" font-family="Helvetica,sans-Serif" font-size="10.00">#</text>
<text text-anchor="start" x="79.6" y="-1136" font-family="Helvetica,sans-Serif" font-size="10.00">mpMesh</text>
<text text-anchor="start" x="55.1" y="-1121" font-family="Helvetica,sans-Serif" font-size="10.00">#</text>
<text text-anchor="start" x="79.6" y="-1121" font-family="Helvetica,sans-Serif" font-size="10.00">mpQuadRule</text>
<text text-anchor="start" x="55.1" y="-1106" font-family="Helvetica,sans-Serif" font-size="10.00">+</text>
<text text-anchor="start" x="79.6" y="-1106" font-family="Helvetica,sans-Serif" font-size="10.00">AbstractFeVolumeIntegral</text>
<text text-anchor="start" x="79.6" y="-1095" font-family="Helvetica,sans-Serif" font-size="10.00">Assembler()</text>
<text text-anchor="start" x="55.1" y="-1080" font-family="Helvetica,sans-Serif" font-size="10.00">+</text>
<text text-anchor="start" x="79.6" y="-1080" font-family="Helvetica,sans-Serif" font-size="10.00">~AbstractFeVolumeIntegral</text>
<text text-anchor="start" x="79.6" y="-1069" font-family="Helvetica,sans-Serif" font-size="10.00">Assembler()</text>
<text text-anchor="start" x="55.1" y="-1054" font-family="Helvetica,sans-Serif" font-size="10.00">#</text>
<text text-anchor="start" x="79.6" y="-1054" font-family="Helvetica,sans-Serif" font-size="10.00">ComputeTransformedBasisFunction</text>
<text text-anchor="start" x="79.6" y="-1043" font-family="Helvetica,sans-Serif" font-size="10.00">Derivatives()</text>
<text text-anchor="start" x="55.1" y="-1028" font-family="Helvetica,sans-Serif" font-size="10.00">#</text>
<text text-anchor="start" x="79.6" y="-1028" font-family="Helvetica,sans-Serif" font-size="10.00">DoAssemble()</text>
<text text-anchor="start" x="55.1" y="-1013" font-family="Helvetica,sans-Serif" font-size="10.00">#</text>
<text text-anchor="start" x="79.6" y="-1013" font-family="Helvetica,sans-Serif" font-size="10.00">ComputeMatrixTerm()</text>
<text text-anchor="start" x="55.1" y="-998" font-family="Helvetica,sans-Serif" font-size="10.00">#</text>
<text text-anchor="start" x="79.6" y="-998" font-family="Helvetica,sans-Serif" font-size="10.00">ComputeVectorTerm()</text>
<text text-anchor="start" x="55.1" y="-983" font-family="Helvetica,sans-Serif" font-size="10.00">#</text>
<text text-anchor="start" x="79.6" y="-983" font-family="Helvetica,sans-Serif" font-size="10.00">AssembleOnElement()</text>
<text text-anchor="start" x="55.1" y="-968" font-family="Helvetica,sans-Serif" font-size="10.00">#</text>
<text text-anchor="start" x="79.6" y="-968" font-family="Helvetica,sans-Serif" font-size="10.00">ElementAssemblyCriterion()</text>
<polygon fill="#666666" stroke="#666666" points="39.6,-1146 39.6,-1146 280.6,-1146 280.6,-1146 39.6,-1146"/>
<polygon fill="#666666" stroke="#666666" points="39.6,-1116 39.6,-1116 77.6,-1116 77.6,-1116 39.6,-1116"/>
<polygon fill="#666666" stroke="#666666" points="77.6,-1116 77.6,-1116 280.6,-1116 280.6,-1116 77.6,-1116"/>
<polygon fill="none" stroke="#666666" points="39.1,-961 39.1,-1207 280.1,-1207 280.1,-961 39.1,-961"/>
</a>
</g>
</g>
<!-- Node4&#45;&gt;Node7 -->
<g id="edge7_Node000007_Node000004" class="edge">
<title>Node4&#45;&gt;Node7</title>
<g id="a_edge7_Node000007_Node000004"><a xlink:title=" ">
<path fill="none" stroke="#63b8ff" d="M126.96,-1659.54C134.02,-1535.28 145.38,-1335.4 152.66,-1207.17"/>
<polygon fill="none" stroke="#63b8ff" points="123.45,-1659.65 126.38,-1669.84 130.44,-1660.05 123.45,-1659.65"/>
</a>
</g>
</g>
<!-- Node5 -->
<g id="Node000005" class="node">
<title>Node5</title>
<g id="a_Node000005"><a xlink:href="classAbstractFeAssemblerInterface.html" target="_top" xlink:title=" ">
<polygon fill="white" stroke="transparent" points="212.6,-2193 28.6,-2193 28.6,-1912 212.6,-1912 212.6,-2193"/>
<text text-anchor="start" x="39.6" y="-2180.5" font-family="Helvetica,sans-Serif" font-size="10.00">AbstractFeAssemblerInterface</text>
<text text-anchor="start" x="39.6" y="-2169.5" font-family="Helvetica,sans-Serif" font-size="10.00">&lt; CAN_ASSEMBLE_VECTOR, CAN</text>
<text text-anchor="start" x="64.6" y="-2158.5" font-family="Helvetica,sans-Serif" font-size="10.00">_ASSEMBLE_MATRIX &gt;</text>
<text text-anchor="start" x="32.6" y="-2143.5" font-family="Helvetica,sans-Serif" font-size="10.00">#</text>
<text text-anchor="start" x="45.6" y="-2143.5" font-family="Helvetica,sans-Serif" font-size="10.00">mVectorToAssemble</text>
<text text-anchor="start" x="32.6" y="-2128.5" font-family="Helvetica,sans-Serif" font-size="10.00">#</text>
<text text-anchor="start" x="45.6" y="-2128.5" font-family="Helvetica,sans-Serif" font-size="10.00">mMatrixToAssemble</text>
<text text-anchor="start" x="32.6" y="-2113.5" font-family="Helvetica,sans-Serif" font-size="10.00">#</text>
<text text-anchor="start" x="45.6" y="-2113.5" font-family="Helvetica,sans-Serif" font-size="10.00">mAssembleMatrix</text>
<text text-anchor="start" x="32.6" y="-2098.5" font-family="Helvetica,sans-Serif" font-size="10.00">#</text>
<text text-anchor="start" x="45.6" y="-2098.5" font-family="Helvetica,sans-Serif" font-size="10.00">mAssembleVector</text>
<text text-anchor="start" x="32.6" y="-2083.5" font-family="Helvetica,sans-Serif" font-size="10.00">#</text>
<text text-anchor="start" x="45.6" y="-2083.5" font-family="Helvetica,sans-Serif" font-size="10.00">mZeroMatrixBeforeAssembly</text>
<text text-anchor="start" x="32.6" y="-2068.5" font-family="Helvetica,sans-Serif" font-size="10.00">#</text>
<text text-anchor="start" x="45.6" y="-2068.5" font-family="Helvetica,sans-Serif" font-size="10.00">mZeroVectorBeforeAssembly</text>
<text text-anchor="start" x="32.6" y="-2053.5" font-family="Helvetica,sans-Serif" font-size="10.00">#</text>
<text text-anchor="start" x="45.6" y="-2053.5" font-family="Helvetica,sans-Serif" font-size="10.00">mOwnershipRangeLo</text>
<text text-anchor="start" x="32.6" y="-2038.5" font-family="Helvetica,sans-Serif" font-size="10.00">#</text>
<text text-anchor="start" x="45.6" y="-2038.5" font-family="Helvetica,sans-Serif" font-size="10.00">mOwnershipRangeHi</text>
<text text-anchor="start" x="32.6" y="-2023.5" font-family="Helvetica,sans-Serif" font-size="10.00">+</text>
<text text-anchor="start" x="45.6" y="-2023.5" font-family="Helvetica,sans-Serif" font-size="10.00">AbstractFeAssemblerInterface()</text>
<text text-anchor="start" x="32.6" y="-2008.5" font-family="Helvetica,sans-Serif" font-size="10.00">+</text>
<text text-anchor="start" x="45.6" y="-2008.5" font-family="Helvetica,sans-Serif" font-size="10.00">SetMatrixToAssemble()</text>
<text text-anchor="start" x="32.6" y="-1993.5" font-family="Helvetica,sans-Serif" font-size="10.00">+</text>
<text text-anchor="start" x="45.6" y="-1993.5" font-family="Helvetica,sans-Serif" font-size="10.00">SetVectorToAssemble()</text>
<text text-anchor="start" x="32.6" y="-1978.5" font-family="Helvetica,sans-Serif" font-size="10.00">+</text>
<text text-anchor="start" x="45.6" y="-1978.5" font-family="Helvetica,sans-Serif" font-size="10.00">Assemble()</text>
<text text-anchor="start" x="32.6" y="-1963.5" font-family="Helvetica,sans-Serif" font-size="10.00">+</text>
<text text-anchor="start" x="45.6" y="-1963.5" font-family="Helvetica,sans-Serif" font-size="10.00">AssembleMatrix()</text>
<text text-anchor="start" x="32.6" y="-1948.5" font-family="Helvetica,sans-Serif" font-size="10.00">+</text>
<text text-anchor="start" x="45.6" y="-1948.5" font-family="Helvetica,sans-Serif" font-size="10.00">AssembleVector()</text>
<text text-anchor="start" x="32.6" y="-1933.5" font-family="Helvetica,sans-Serif" font-size="10.00">+</text>
<text text-anchor="start" x="45.6" y="-1933.5" font-family="Helvetica,sans-Serif" font-size="10.00">~AbstractFeAssemblerInterface()</text>
<text text-anchor="start" x="32.6" y="-1918.5" font-family="Helvetica,sans-Serif" font-size="10.00">#</text>
<text text-anchor="start" x="45.6" y="-1918.5" font-family="Helvetica,sans-Serif" font-size="10.00">DoAssemble()</text>
<polygon fill="#666666" stroke="#666666" points="28.6,-2153.5 28.6,-2153.5 212.6,-2153.5 212.6,-2153.5 28.6,-2153.5"/>
<polygon fill="#666666" stroke="#666666" points="28.6,-2033.5 28.6,-2033.5 43.6,-2033.5 43.6,-2033.5 28.6,-2033.5"/>
<polygon fill="#666666" stroke="#666666" points="43.6,-2033.5 43.6,-2033.5 212.6,-2033.5 212.6,-2033.5 43.6,-2033.5"/>
<polygon fill="none" stroke="#666666" points="28.6,-1912 28.6,-2193 212.6,-2193 212.6,-1912 28.6,-1912"/>
</a>
</g>
</g>
<!-- Node5&#45;&gt;Node4 -->
<g id="edge4_Node000004_Node000005" class="edge">
<title>Node5&#45;&gt;Node4</title>
<g id="a_edge4_Node000004_Node000005"><a xlink:title=" ">
<path fill="none" stroke="#63b8ff" d="M120.6,-1901.6C120.6,-1892.69 120.6,-1883.83 120.6,-1875.18"/>
<polygon fill="none" stroke="#63b8ff" points="117.1,-1901.69 120.6,-1911.69 124.1,-1901.69 117.1,-1901.69"/>
</a>
</g>
</g>
<!-- Node6 -->
<g id="Node000006" class="node">
<title>Node6</title>
<g id="a_Node000006"><a xlink:title=" ">
<polygon fill="white" stroke="transparent" points="271.6,-2279 165.6,-2279 165.6,-2230 271.6,-2230 271.6,-2279"/>
<text text-anchor="start" x="170.6" y="-2266.5" font-family="Helvetica,sans-Serif" font-size="10.00">boost::noncopyable</text>
<text text-anchor="start" x="216.6" y="-2251.5" font-family="Helvetica,sans-Serif" font-size="10.00"> </text>
<text text-anchor="start" x="216.6" y="-2236.5" font-family="Helvetica,sans-Serif" font-size="10.00"> </text>
<polygon fill="#bfbfbf" stroke="#bfbfbf" points="165.6,-2261.5 165.6,-2261.5 271.6,-2261.5 271.6,-2261.5 165.6,-2261.5"/>
<polygon fill="#bfbfbf" stroke="#bfbfbf" points="165.6,-2246.5 165.6,-2246.5 271.6,-2246.5 271.6,-2246.5 165.6,-2246.5"/>
<polygon fill="none" stroke="#bfbfbf" points="165.6,-2230 165.6,-2279 271.6,-2279 271.6,-2230 165.6,-2230"/>
</a>
</g>
</g>
<!-- Node6&#45;&gt;Node5 -->
<g id="edge5_Node000005_Node000006" class="edge">
<title>Node6&#45;&gt;Node5</title>
<g id="a_edge5_Node000005_Node000006"><a xlink:title=" ">
<path fill="none" stroke="#8b1a1a" d="M202.55,-2220.73C198.55,-2212.57 194.01,-2203.3 189.16,-2193.41"/>
<polygon fill="none" stroke="#8b1a1a" points="199.43,-2222.33 206.98,-2229.77 205.72,-2219.25 199.43,-2222.33"/>
</a>
</g>
</g>
<!-- Node9 -->
<g id="Node000009" class="node">
<title>Node9</title>
<g id="a_Node000009"><a xlink:href="classAbstractLinearPdeSolver.html" target="_top" xlink:title=" ">
<polygon fill="white" stroke="transparent" points="406.6,-2148 230.6,-2148 230.6,-1957 406.6,-1957 406.6,-2148"/>
<text text-anchor="start" x="245.1" y="-2135.5" font-family="Helvetica,sans-Serif" font-size="10.00">AbstractLinearPdeSolver</text>
<text text-anchor="start" x="245.1" y="-2124.5" font-family="Helvetica,sans-Serif" font-size="10.00">&lt; ELEMENT_DIM, SPACE_DIM,</text>
<text text-anchor="start" x="275.1" y="-2113.5" font-family="Helvetica,sans-Serif" font-size="10.00"> PROBLEM_DIM &gt;</text>
<text text-anchor="start" x="234.6" y="-2098.5" font-family="Helvetica,sans-Serif" font-size="10.00">#</text>
<text text-anchor="start" x="247.6" y="-2098.5" font-family="Helvetica,sans-Serif" font-size="10.00">mpLinearSystem</text>
<text text-anchor="start" x="234.6" y="-2083.5" font-family="Helvetica,sans-Serif" font-size="10.00">#</text>
<text text-anchor="start" x="247.6" y="-2083.5" font-family="Helvetica,sans-Serif" font-size="10.00">mpMesh</text>
<text text-anchor="start" x="234.6" y="-2068.5" font-family="Helvetica,sans-Serif" font-size="10.00">+</text>
<text text-anchor="start" x="247.6" y="-2068.5" font-family="Helvetica,sans-Serif" font-size="10.00">AbstractLinearPdeSolver()</text>
<text text-anchor="start" x="234.6" y="-2053.5" font-family="Helvetica,sans-Serif" font-size="10.00">+</text>
<text text-anchor="start" x="247.6" y="-2053.5" font-family="Helvetica,sans-Serif" font-size="10.00">~AbstractLinearPdeSolver()</text>
<text text-anchor="start" x="234.6" y="-2038.5" font-family="Helvetica,sans-Serif" font-size="10.00">+</text>
<text text-anchor="start" x="247.6" y="-2038.5" font-family="Helvetica,sans-Serif" font-size="10.00">InitialiseForSolve()</text>
<text text-anchor="start" x="234.6" y="-2023.5" font-family="Helvetica,sans-Serif" font-size="10.00">+</text>
<text text-anchor="start" x="247.6" y="-2023.5" font-family="Helvetica,sans-Serif" font-size="10.00">PrepareForSetupLinearSystem()</text>
<text text-anchor="start" x="234.6" y="-2008.5" font-family="Helvetica,sans-Serif" font-size="10.00">+</text>
<text text-anchor="start" x="247.6" y="-2008.5" font-family="Helvetica,sans-Serif" font-size="10.00">FinaliseLinearSystem()</text>
<text text-anchor="start" x="234.6" y="-1993.5" font-family="Helvetica,sans-Serif" font-size="10.00">+</text>
<text text-anchor="start" x="247.6" y="-1993.5" font-family="Helvetica,sans-Serif" font-size="10.00">FollowingSolveLinearSystem()</text>
<text text-anchor="start" x="234.6" y="-1978.5" font-family="Helvetica,sans-Serif" font-size="10.00">+</text>
<text text-anchor="start" x="247.6" y="-1978.5" font-family="Helvetica,sans-Serif" font-size="10.00">SetupLinearSystem()</text>
<text text-anchor="start" x="234.6" y="-1963.5" font-family="Helvetica,sans-Serif" font-size="10.00">+</text>
<text text-anchor="start" x="247.6" y="-1963.5" font-family="Helvetica,sans-Serif" font-size="10.00">GetLinearSystem()</text>
<polygon fill="#666666" stroke="#666666" points="230.6,-2108.5 230.6,-2108.5 406.6,-2108.5 406.6,-2108.5 230.6,-2108.5"/>
<polygon fill="#666666" stroke="#666666" points="230.6,-2078.5 230.6,-2078.5 245.6,-2078.5 245.6,-2078.5 230.6,-2078.5"/>
<polygon fill="#666666" stroke="#666666" points="245.6,-2078.5 245.6,-2078.5 406.6,-2078.5 406.6,-2078.5 245.6,-2078.5"/>
<polygon fill="none" stroke="#666666" points="230.6,-1957 230.6,-2148 406.6,-2148 406.6,-1957 230.6,-1957"/>
</a>
</g>
</g>
<!-- Node6&#45;&gt;Node9 -->
<g id="edge10_Node000009_Node000006" class="edge">
<title>Node6&#45;&gt;Node9</title>
<g id="a_edge10_Node000009_Node000006"><a xlink:title=" ">
<path fill="none" stroke="#8b1a1a" d="M235.06,-2220.59C244.98,-2200.74 258.18,-2174.35 271.14,-2148.42"/>
<polygon fill="none" stroke="#8b1a1a" points="231.81,-2219.26 230.47,-2229.77 238.07,-2222.39 231.81,-2219.26"/>
</a>
</g>
</g>
<!-- Node7&#45;&gt;Node3 -->
<g id="edge6_Node000003_Node000007" class="edge">
<title>Node7&#45;&gt;Node3</title>
<g id="a_edge6_Node000003_Node000007"><a xlink:title=" ">
<path fill="none" stroke="orange" d="M150.89,-950.74C150.79,-948.14 150.69,-945.56 150.6,-943 150.03,-926.64 149.66,-909.41 149.42,-892.41"/>
<polygon fill="orange" stroke="orange" points="147.4,-951.01 151.33,-960.85 154.4,-950.71 147.4,-951.01"/>
</a>
</g>
<text text-anchor="start" x="150.6" y="-935" font-family="Helvetica,sans-Serif" font-size="10.00" fill="grey"> &lt; ELEMENT_DIM, SPACE</text>
<text text-anchor="start" x="150.6" y="-924" font-family="Helvetica,sans-Serif" font-size="10.00" fill="grey">_DIM, PROBLEM_DIM, true,</text>
<text text-anchor="middle" x="227.6" y="-913" font-family="Helvetica,sans-Serif" font-size="10.00" fill="grey"> true, INTERPOLATION_LEVEL &gt;</text>
</g>
<!-- Node8 -->
<g id="Node000008" class="node">
<title>Node8</title>
<g id="a_Node000008"><a xlink:href="classAbstractDynamicLinearPdeSolver.html" target="_top" xlink:title=" ">
<polygon fill="white" stroke="transparent" points="403.1,-1652 234.1,-1652 234.1,-1225 403.1,-1225 403.1,-1652"/>
<text text-anchor="start" x="244.1" y="-1639.5" font-family="Helvetica,sans-Serif" font-size="10.00">AbstractDynamicLinearPde</text>
<text text-anchor="start" x="244.1" y="-1628.5" font-family="Helvetica,sans-Serif" font-size="10.00">Solver&lt; ELEMENT_DIM, SPACE</text>
<text text-anchor="start" x="261.6" y="-1617.5" font-family="Helvetica,sans-Serif" font-size="10.00">_DIM, PROBLEM_DIM &gt;</text>
<text text-anchor="start" x="238.6" y="-1602.5" font-family="Helvetica,sans-Serif" font-size="10.00">#</text>
<text text-anchor="start" x="251.6" y="-1602.5" font-family="Helvetica,sans-Serif" font-size="10.00">mTstart</text>
<text text-anchor="start" x="238.6" y="-1587.5" font-family="Helvetica,sans-Serif" font-size="10.00">#</text>
<text text-anchor="start" x="251.6" y="-1587.5" font-family="Helvetica,sans-Serif" font-size="10.00">mTend</text>
<text text-anchor="start" x="238.6" y="-1572.5" font-family="Helvetica,sans-Serif" font-size="10.00">#</text>
<text text-anchor="start" x="251.6" y="-1572.5" font-family="Helvetica,sans-Serif" font-size="10.00">mTimesSet</text>
<text text-anchor="start" x="238.6" y="-1557.5" font-family="Helvetica,sans-Serif" font-size="10.00">#</text>
<text text-anchor="start" x="251.6" y="-1557.5" font-family="Helvetica,sans-Serif" font-size="10.00">mInitialCondition</text>
<text text-anchor="start" x="238.6" y="-1542.5" font-family="Helvetica,sans-Serif" font-size="10.00">#</text>
<text text-anchor="start" x="251.6" y="-1542.5" font-family="Helvetica,sans-Serif" font-size="10.00">mMatrixIsAssembled</text>
<text text-anchor="start" x="238.6" y="-1527.5" font-family="Helvetica,sans-Serif" font-size="10.00">#</text>
<text text-anchor="start" x="251.6" y="-1527.5" font-family="Helvetica,sans-Serif" font-size="10.00">mMatrixIsConstant</text>
<text text-anchor="start" x="238.6" y="-1512.5" font-family="Helvetica,sans-Serif" font-size="10.00">#</text>
<text text-anchor="start" x="251.6" y="-1512.5" font-family="Helvetica,sans-Serif" font-size="10.00">mIdealTimeStep</text>
<text text-anchor="start" x="238.6" y="-1497.5" font-family="Helvetica,sans-Serif" font-size="10.00">#</text>
<text text-anchor="start" x="251.6" y="-1497.5" font-family="Helvetica,sans-Serif" font-size="10.00">mLastWorkingTimeStep</text>
<text text-anchor="start" x="238.6" y="-1482.5" font-family="Helvetica,sans-Serif" font-size="10.00">#</text>
<text text-anchor="start" x="251.6" y="-1482.5" font-family="Helvetica,sans-Serif" font-size="10.00">mpTimeAdaptivityController</text>
<text text-anchor="start" x="238.6" y="-1467.5" font-family="Helvetica,sans-Serif" font-size="10.00">#</text>
<text text-anchor="start" x="251.6" y="-1467.5" font-family="Helvetica,sans-Serif" font-size="10.00">mOutputToVtk</text>
<text text-anchor="start" x="251.6" y="-1452.5" font-family="Helvetica,sans-Serif" font-size="10.00">and 7 more...</text>
<text text-anchor="start" x="238.6" y="-1437.5" font-family="Helvetica,sans-Serif" font-size="10.00">+</text>
<text text-anchor="start" x="251.6" y="-1437.5" font-family="Helvetica,sans-Serif" font-size="10.00">AbstractDynamicLinearPde</text>
<text text-anchor="start" x="251.6" y="-1426.5" font-family="Helvetica,sans-Serif" font-size="10.00">Solver()</text>
<text text-anchor="start" x="238.6" y="-1411.5" font-family="Helvetica,sans-Serif" font-size="10.00">+</text>
<text text-anchor="start" x="251.6" y="-1411.5" font-family="Helvetica,sans-Serif" font-size="10.00">SetTimes()</text>
<text text-anchor="start" x="238.6" y="-1396.5" font-family="Helvetica,sans-Serif" font-size="10.00">+</text>
<text text-anchor="start" x="251.6" y="-1396.5" font-family="Helvetica,sans-Serif" font-size="10.00">SetTimeStep()</text>
<text text-anchor="start" x="238.6" y="-1381.5" font-family="Helvetica,sans-Serif" font-size="10.00">+</text>
<text text-anchor="start" x="251.6" y="-1381.5" font-family="Helvetica,sans-Serif" font-size="10.00">SetInitialCondition()</text>
<text text-anchor="start" x="238.6" y="-1366.5" font-family="Helvetica,sans-Serif" font-size="10.00">+</text>
<text text-anchor="start" x="251.6" y="-1366.5" font-family="Helvetica,sans-Serif" font-size="10.00">Solve()</text>
<text text-anchor="start" x="238.6" y="-1351.5" font-family="Helvetica,sans-Serif" font-size="10.00">+</text>
<text text-anchor="start" x="251.6" y="-1351.5" font-family="Helvetica,sans-Serif" font-size="10.00">SetMatrixIsNotAssembled()</text>
<text text-anchor="start" x="238.6" y="-1336.5" font-family="Helvetica,sans-Serif" font-size="10.00">+</text>
<text text-anchor="start" x="251.6" y="-1336.5" font-family="Helvetica,sans-Serif" font-size="10.00">SetTimeAdaptivityController()</text>
<text text-anchor="start" x="238.6" y="-1321.5" font-family="Helvetica,sans-Serif" font-size="10.00">+</text>
<text text-anchor="start" x="251.6" y="-1321.5" font-family="Helvetica,sans-Serif" font-size="10.00">SetOutputToVtk()</text>
<text text-anchor="start" x="238.6" y="-1306.5" font-family="Helvetica,sans-Serif" font-size="10.00">+</text>
<text text-anchor="start" x="251.6" y="-1306.5" font-family="Helvetica,sans-Serif" font-size="10.00">SetOutputToParallelVtk()</text>
<text text-anchor="start" x="238.6" y="-1291.5" font-family="Helvetica,sans-Serif" font-size="10.00">+</text>
<text text-anchor="start" x="251.6" y="-1291.5" font-family="Helvetica,sans-Serif" font-size="10.00">SetOutputToTxt()</text>
<text text-anchor="start" x="238.6" y="-1276.5" font-family="Helvetica,sans-Serif" font-size="10.00">+</text>
<text text-anchor="start" x="251.6" y="-1276.5" font-family="Helvetica,sans-Serif" font-size="10.00">SetOutputDirectoryAndPrefix()</text>
<text text-anchor="start" x="238.6" y="-1261.5" font-family="Helvetica,sans-Serif" font-size="10.00">+</text>
<text text-anchor="start" x="251.6" y="-1261.5" font-family="Helvetica,sans-Serif" font-size="10.00">SetPrintingTimestepMultiple()</text>
<text text-anchor="start" x="238.6" y="-1246.5" font-family="Helvetica,sans-Serif" font-size="10.00">#</text>
<text text-anchor="start" x="251.6" y="-1246.5" font-family="Helvetica,sans-Serif" font-size="10.00">InitialiseHdf5Writer()</text>
<text text-anchor="start" x="238.6" y="-1231.5" font-family="Helvetica,sans-Serif" font-size="10.00">#</text>
<text text-anchor="start" x="251.6" y="-1231.5" font-family="Helvetica,sans-Serif" font-size="10.00">WriteOneStep()</text>
<polygon fill="#666666" stroke="#666666" points="234.6,-1612.5 234.6,-1612.5 403.6,-1612.5 403.6,-1612.5 234.6,-1612.5"/>
<polygon fill="#666666" stroke="#666666" points="234.6,-1447.5 234.6,-1447.5 249.6,-1447.5 249.6,-1447.5 234.6,-1447.5"/>
<polygon fill="#666666" stroke="#666666" points="249.6,-1447.5 249.6,-1447.5 403.6,-1447.5 403.6,-1447.5 249.6,-1447.5"/>
<polygon fill="none" stroke="#666666" points="234.1,-1225 234.1,-1652 403.1,-1652 403.1,-1225 234.1,-1225"/>
</a>
</g>
</g>
<!-- Node8&#45;&gt;Node1 -->
<g id="edge8_Node000001_Node000008" class="edge">
<title>Node8&#45;&gt;Node1</title>
<g id="a_edge8_Node000001_Node000008"><a xlink:title=" ">
<path fill="none" stroke="#63b8ff" d="M318.6,-1214.47C318.6,-1125.23 318.6,-1021.49 318.6,-927.5 318.6,-927.5 318.6,-927.5 318.6,-539 318.6,-504.73 314.65,-468.89 308.59,-434.1"/>
<polygon fill="none" stroke="#63b8ff" points="315.1,-1214.72 318.6,-1224.72 322.1,-1214.72 315.1,-1214.72"/>
</a>
</g>
</g>
<!-- Node9&#45;&gt;Node8 -->
<g id="edge9_Node000008_Node000009" class="edge">
<title>Node9&#45;&gt;Node8</title>
<g id="a_edge9_Node000008_Node000009"><a xlink:title=" ">
<path fill="none" stroke="#63b8ff" d="M318.6,-1946.72C318.6,-1866.06 318.6,-1751.9 318.6,-1652.3"/>
<polygon fill="none" stroke="#63b8ff" points="315.1,-1946.88 318.6,-1956.88 322.1,-1946.88 315.1,-1946.88"/>
</a>
</g>
</g>
</g>
</svg>
