<?xml version="1.0" encoding="UTF-8" standalone="no"?>
<!DOCTYPE svg PUBLIC "-//W3C//DTD SVG 1.1//EN"
 "http://www.w3.org/Graphics/SVG/1.1/DTD/svg11.dtd">
<!-- Generated by graphviz version 2.43.0 (0)
 -->
<!-- Title: AbstractTetrahedralElement&lt; ELEMENT_DIM, SPACE_DIM &gt; Pages: 1 -->
<svg width="471pt" height="812pt"
 viewBox="0.00 0.00 471.00 812.00" xmlns="http://www.w3.org/2000/svg" xmlns:xlink="http://www.w3.org/1999/xlink">
<g id="graph0" class="graph" transform="scale(1 1) rotate(0) translate(4 808)">
<title>AbstractTetrahedralElement&lt; ELEMENT_DIM, SPACE_DIM &gt;</title>
<!-- Node1 -->
<g id="Node000001" class="node">
<title>Node1</title>
<g id="a_Node000001"><a xlink:title=" ">
<polygon fill="#999999" stroke="transparent" points="322.5,-221 149.5,-221 149.5,0 322.5,0 322.5,-221"/>
<text text-anchor="start" x="159" y="-208.5" font-family="Helvetica,sans-Serif" font-size="10.00">AbstractTetrahedralElement</text>
<text text-anchor="start" x="159" y="-197.5" font-family="Helvetica,sans-Serif" font-size="10.00">&lt; ELEMENT_DIM, SPACE_DIM &gt;</text>
<text text-anchor="start" x="234.5" y="-182.5" font-family="Helvetica,sans-Serif" font-size="10.00"> </text>
<text text-anchor="start" x="154" y="-167.5" font-family="Helvetica,sans-Serif" font-size="10.00">+</text>
<text text-anchor="start" x="167" y="-167.5" font-family="Helvetica,sans-Serif" font-size="10.00">AbstractTetrahedralElement()</text>
<text text-anchor="start" x="154" y="-152.5" font-family="Helvetica,sans-Serif" font-size="10.00">+</text>
<text text-anchor="start" x="167" y="-152.5" font-family="Helvetica,sans-Serif" font-size="10.00">AbstractTetrahedralElement()</text>
<text text-anchor="start" x="154" y="-137.5" font-family="Helvetica,sans-Serif" font-size="10.00">+</text>
<text text-anchor="start" x="167" y="-137.5" font-family="Helvetica,sans-Serif" font-size="10.00">~AbstractTetrahedralElement()</text>
<text text-anchor="start" x="154" y="-122.5" font-family="Helvetica,sans-Serif" font-size="10.00">+</text>
<text text-anchor="start" x="167" y="-122.5" font-family="Helvetica,sans-Serif" font-size="10.00">CalculateCentroid()</text>
<text text-anchor="start" x="154" y="-107.5" font-family="Helvetica,sans-Serif" font-size="10.00">+</text>
<text text-anchor="start" x="167" y="-107.5" font-family="Helvetica,sans-Serif" font-size="10.00">CalculateJacobian()</text>
<text text-anchor="start" x="154" y="-92.5" font-family="Helvetica,sans-Serif" font-size="10.00">+</text>
<text text-anchor="start" x="167" y="-92.5" font-family="Helvetica,sans-Serif" font-size="10.00">CalculateWeightedDirection()</text>
<text text-anchor="start" x="154" y="-77.5" font-family="Helvetica,sans-Serif" font-size="10.00">+</text>
<text text-anchor="start" x="167" y="-77.5" font-family="Helvetica,sans-Serif" font-size="10.00">CalculateNormal()</text>
<text text-anchor="start" x="154" y="-62.5" font-family="Helvetica,sans-Serif" font-size="10.00">+</text>
<text text-anchor="start" x="167" y="-62.5" font-family="Helvetica,sans-Serif" font-size="10.00">CalculateInverseJacobian()</text>
<text text-anchor="start" x="154" y="-47.5" font-family="Helvetica,sans-Serif" font-size="10.00">+</text>
<text text-anchor="start" x="167" y="-47.5" font-family="Helvetica,sans-Serif" font-size="10.00">GetVolume()</text>
<text text-anchor="start" x="154" y="-32.5" font-family="Helvetica,sans-Serif" font-size="10.00">+</text>
<text text-anchor="start" x="167" y="-32.5" font-family="Helvetica,sans-Serif" font-size="10.00">GetStiffnessMatrixGlobal</text>
<text text-anchor="start" x="167" y="-21.5" font-family="Helvetica,sans-Serif" font-size="10.00">Indices()</text>
<text text-anchor="start" x="154" y="-6.5" font-family="Helvetica,sans-Serif" font-size="10.00">#</text>
<text text-anchor="start" x="167" y="-6.5" font-family="Helvetica,sans-Serif" font-size="10.00">RefreshJacobian()</text>
<polygon fill="#666666" stroke="#666666" points="150,-192.5 150,-192.5 323,-192.5 323,-192.5 150,-192.5"/>
<polygon fill="#666666" stroke="#666666" points="150,-177.5 150,-177.5 323,-177.5 323,-177.5 150,-177.5"/>
<polygon fill="none" stroke="#666666" points="149.5,0 149.5,-221 322.5,-221 322.5,0 149.5,0"/>
</a>
</g>
</g>
<!-- Node2 -->
<g id="Node000002" class="node">
<title>Node2</title>
<g id="a_Node000002"><a xlink:href="classAbstractElement.html" target="_top" xlink:title=" ">
<polygon fill="white" stroke="transparent" points="318,-483 154,-483 154,-258 318,-258 318,-483"/>
<text text-anchor="start" x="166.5" y="-470.5" font-family="Helvetica,sans-Serif" font-size="10.00">AbstractElement&lt; ELEMENT</text>
<text text-anchor="start" x="187" y="-459.5" font-family="Helvetica,sans-Serif" font-size="10.00">_DIM, SPACE_DIM &gt;</text>
<text text-anchor="start" x="234" y="-444.5" font-family="Helvetica,sans-Serif" font-size="10.00"> </text>
<text text-anchor="start" x="158" y="-429.5" font-family="Helvetica,sans-Serif" font-size="10.00">+</text>
<text text-anchor="start" x="171" y="-429.5" font-family="Helvetica,sans-Serif" font-size="10.00">AbstractElement()</text>
<text text-anchor="start" x="158" y="-414.5" font-family="Helvetica,sans-Serif" font-size="10.00">+</text>
<text text-anchor="start" x="171" y="-414.5" font-family="Helvetica,sans-Serif" font-size="10.00">AbstractElement()</text>
<text text-anchor="start" x="158" y="-399.5" font-family="Helvetica,sans-Serif" font-size="10.00">+</text>
<text text-anchor="start" x="171" y="-399.5" font-family="Helvetica,sans-Serif" font-size="10.00">~AbstractElement()</text>
<text text-anchor="start" x="158" y="-384.5" font-family="Helvetica,sans-Serif" font-size="10.00">+</text>
<text text-anchor="start" x="171" y="-384.5" font-family="Helvetica,sans-Serif" font-size="10.00">UpdateNode()</text>
<text text-anchor="start" x="158" y="-369.5" font-family="Helvetica,sans-Serif" font-size="10.00">+</text>
<text text-anchor="start" x="171" y="-369.5" font-family="Helvetica,sans-Serif" font-size="10.00">ReplaceNode()</text>
<text text-anchor="start" x="158" y="-354.5" font-family="Helvetica,sans-Serif" font-size="10.00">+</text>
<text text-anchor="start" x="171" y="-354.5" font-family="Helvetica,sans-Serif" font-size="10.00">MarkAsDeleted()</text>
<text text-anchor="start" x="158" y="-339.5" font-family="Helvetica,sans-Serif" font-size="10.00">+</text>
<text text-anchor="start" x="171" y="-339.5" font-family="Helvetica,sans-Serif" font-size="10.00">RegisterWithNodes()</text>
<text text-anchor="start" x="158" y="-324.5" font-family="Helvetica,sans-Serif" font-size="10.00">+</text>
<text text-anchor="start" x="171" y="-324.5" font-family="Helvetica,sans-Serif" font-size="10.00">GetNodeLocation()</text>
<text text-anchor="start" x="158" y="-309.5" font-family="Helvetica,sans-Serif" font-size="10.00">+</text>
<text text-anchor="start" x="171" y="-309.5" font-family="Helvetica,sans-Serif" font-size="10.00">GetNodeLocation()</text>
<text text-anchor="start" x="158" y="-294.5" font-family="Helvetica,sans-Serif" font-size="10.00">+</text>
<text text-anchor="start" x="171" y="-294.5" font-family="Helvetica,sans-Serif" font-size="10.00">GetNodeGlobalIndex()</text>
<text text-anchor="start" x="171" y="-279.5" font-family="Helvetica,sans-Serif" font-size="10.00">and 14 more...</text>
<text text-anchor="start" x="158" y="-264.5" font-family="Helvetica,sans-Serif" font-size="10.00">#</text>
<text text-anchor="start" x="171" y="-264.5" font-family="Helvetica,sans-Serif" font-size="10.00">ConstructElementAttributes()</text>
<polygon fill="#666666" stroke="#666666" points="154,-454.5 154,-454.5 318,-454.5 318,-454.5 154,-454.5"/>
<polygon fill="#666666" stroke="#666666" points="154,-439.5 154,-439.5 318,-439.5 318,-439.5 154,-439.5"/>
<polygon fill="none" stroke="#666666" points="154,-258 154,-483 318,-483 318,-258 154,-258"/>
</a>
</g>
</g>
<!-- Node2&#45;&gt;Node1 -->
<g id="edge1_Node000001_Node000002" class="edge">
<title>Node2&#45;&gt;Node1</title>
<g id="a_edge1_Node000001_Node000002"><a xlink:title=" ">
<path fill="none" stroke="#63b8ff" d="M236,-247.57C236,-238.8 236,-229.99 236,-221.29"/>
<polygon fill="none" stroke="#63b8ff" points="232.5,-247.84 236,-257.84 239.5,-247.84 232.5,-247.84"/>
</a>
</g>
</g>
<!-- Node3 -->
<g id="Node000003" class="node">
<title>Node3</title>
<g id="a_Node000003"><a xlink:title=" ">
<polygon fill="white" stroke="transparent" points="154.5,-606.5 47.5,-606.5 47.5,-546.5 154.5,-546.5 154.5,-606.5"/>
<text text-anchor="start" x="53" y="-594.5" font-family="Helvetica,sans-Serif" font-size="10.00">std::vector&lt; Node&lt;</text>
<text text-anchor="start" x="56.5" y="-583.5" font-family="Helvetica,sans-Serif" font-size="10.00"> SPACE_DIM &gt; * &gt;</text>
<text text-anchor="start" x="99.5" y="-568.5" font-family="Helvetica,sans-Serif" font-size="10.00"> </text>
<text text-anchor="start" x="99.5" y="-553.5" font-family="Helvetica,sans-Serif" font-size="10.00"> </text>
<polygon fill="#666666" stroke="#666666" points="48,-578.5 48,-578.5 155,-578.5 155,-578.5 48,-578.5"/>
<polygon fill="#666666" stroke="#666666" points="48,-563.5 48,-563.5 155,-563.5 155,-563.5 48,-563.5"/>
<polygon fill="none" stroke="#666666" points="47.5,-546.5 47.5,-606.5 154.5,-606.5 154.5,-546.5 47.5,-546.5"/>
</a>
</g>
</g>
<!-- Node3&#45;&gt;Node2 -->
<g id="edge2_Node000002_Node000003" class="edge">
<title>Node3&#45;&gt;Node2</title>
<g id="a_edge2_Node000002_Node000003"><a xlink:title=" ">
<path fill="none" stroke="#63b8ff" d="M116.43,-546.41C124.08,-532.46 133.65,-515.64 143,-501 144.57,-498.54 146.17,-496.06 147.79,-493.57"/>
<polygon fill="none" stroke="#63b8ff" points="147.97,-493.3 147.94,-486.09 154.58,-483.29 154.61,-490.5 147.97,-493.3"/>
</a>
</g>
<text text-anchor="middle" x="169" y="-509.5" font-family="Helvetica,sans-Serif" font-size="10.00" fill="grey"> #mNodes</text>
</g>
<!-- Node4 -->
<g id="Node000004" class="node">
<title>Node4</title>
<g id="a_Node000004"><a xlink:title=" ">
<polygon fill="white" stroke="transparent" points="122,-708 0,-708 0,-659 122,-659 122,-708"/>
<text text-anchor="start" x="5" y="-695.5" font-family="Helvetica,sans-Serif" font-size="10.00">Node&lt; SPACE_DIM &gt; *</text>
<text text-anchor="start" x="59" y="-680.5" font-family="Helvetica,sans-Serif" font-size="10.00"> </text>
<text text-anchor="start" x="59" y="-665.5" font-family="Helvetica,sans-Serif" font-size="10.00"> </text>
<polygon fill="#bfbfbf" stroke="#bfbfbf" points="0,-690.5 0,-690.5 122,-690.5 122,-690.5 0,-690.5"/>
<polygon fill="#bfbfbf" stroke="#bfbfbf" points="0,-675.5 0,-675.5 122,-675.5 122,-675.5 0,-675.5"/>
<polygon fill="none" stroke="#bfbfbf" points="0,-659 0,-708 122,-708 122,-659 0,-659"/>
</a>
</g>
</g>
<!-- Node4&#45;&gt;Node3 -->
<g id="edge3_Node000003_Node000004" class="edge">
<title>Node4&#45;&gt;Node3</title>
<g id="a_edge3_Node000003_Node000004"><a xlink:title=" ">
<path fill="none" stroke="#63b8ff" d="M69.98,-658.94C74.58,-646.84 80.33,-631.77 85.61,-617.89"/>
<polygon fill="none" stroke="#63b8ff" points="85.64,-617.82 84.04,-610.79 89.91,-606.61 91.51,-613.64 85.64,-617.82"/>
</a>
</g>
<text text-anchor="middle" x="110" y="-633" font-family="Helvetica,sans-Serif" font-size="10.00" fill="grey"> +elements</text>
</g>
<!-- Node5 -->
<g id="Node000005" class="node">
<title>Node5</title>
<g id="a_Node000005"><a xlink:title=" ">
<polygon fill="white" stroke="transparent" points="231.5,-708 140.5,-708 140.5,-659 231.5,-659 231.5,-708"/>
<text text-anchor="start" x="146" y="-695.5" font-family="Helvetica,sans-Serif" font-size="10.00">std::vector&lt; T &gt;</text>
<text text-anchor="start" x="184.5" y="-680.5" font-family="Helvetica,sans-Serif" font-size="10.00"> </text>
<text text-anchor="start" x="184.5" y="-665.5" font-family="Helvetica,sans-Serif" font-size="10.00"> </text>
<polygon fill="#666666" stroke="#666666" points="141,-690.5 141,-690.5 232,-690.5 232,-690.5 141,-690.5"/>
<polygon fill="#666666" stroke="#666666" points="141,-675.5 141,-675.5 232,-675.5 232,-675.5 141,-675.5"/>
<polygon fill="none" stroke="#666666" points="140.5,-659 140.5,-708 231.5,-708 231.5,-659 140.5,-659"/>
</a>
</g>
</g>
<!-- Node5&#45;&gt;Node3 -->
<g id="edge4_Node000003_Node000005" class="edge">
<title>Node5&#45;&gt;Node3</title>
<g id="a_edge4_Node000003_Node000005"><a xlink:title=" ">
<path fill="none" stroke="orange" d="M160.47,-650.96C149.07,-636.88 135.72,-620.39 124.56,-606.61"/>
<polygon fill="orange" stroke="orange" points="157.91,-653.37 166.92,-658.94 163.35,-648.96 157.91,-653.37"/>
</a>
</g>
<text text-anchor="middle" x="220" y="-633" font-family="Helvetica,sans-Serif" font-size="10.00" fill="grey"> &lt; Node&lt; SPACE_DIM &gt; * &gt;</text>
</g>
<!-- Node6 -->
<g id="Node000006" class="node">
<title>Node6</title>
<g id="a_Node000006"><a xlink:title=" ">
<polygon fill="white" stroke="transparent" points="194.5,-804 177.5,-804 177.5,-755 194.5,-755 194.5,-804"/>
<text text-anchor="start" x="183" y="-791.5" font-family="Helvetica,sans-Serif" font-size="10.00">T</text>
<text text-anchor="start" x="184.5" y="-776.5" font-family="Helvetica,sans-Serif" font-size="10.00"> </text>
<text text-anchor="start" x="184.5" y="-761.5" font-family="Helvetica,sans-Serif" font-size="10.00"> </text>
<polygon fill="#bfbfbf" stroke="#bfbfbf" points="178,-786.5 178,-786.5 195,-786.5 195,-786.5 178,-786.5"/>
<polygon fill="#bfbfbf" stroke="#bfbfbf" points="178,-771.5 178,-771.5 195,-771.5 195,-771.5 178,-771.5"/>
<polygon fill="none" stroke="#bfbfbf" points="177.5,-755 177.5,-804 194.5,-804 194.5,-755 177.5,-755"/>
</a>
</g>
</g>
<!-- Node6&#45;&gt;Node5 -->
<g id="edge5_Node000005_Node000006" class="edge">
<title>Node6&#45;&gt;Node5</title>
<g id="a_edge5_Node000005_Node000006"><a xlink:title=" ">
<path fill="none" stroke="#63b8ff" d="M186,-754.78C186,-744.32 186,-731.79 186,-720.23"/>
<polygon fill="none" stroke="#63b8ff" points="186,-720.21 182,-714.21 186,-708.21 190,-714.21 186,-720.21"/>
</a>
</g>
<text text-anchor="middle" x="215" y="-729" font-family="Helvetica,sans-Serif" font-size="10.00" fill="grey"> +elements</text>
</g>
<!-- Node7 -->
<g id="Node000007" class="node">
<title>Node7</title>
<g id="a_Node000007"><a xlink:href="classunsigned.html" target="_top" xlink:title=" ">
<polygon fill="white" stroke="transparent" points="227.5,-601 172.5,-601 172.5,-552 227.5,-552 227.5,-601"/>
<text text-anchor="start" x="178" y="-588.5" font-family="Helvetica,sans-Serif" font-size="10.00">unsigned</text>
<text text-anchor="start" x="198.5" y="-573.5" font-family="Helvetica,sans-Serif" font-size="10.00"> </text>
<text text-anchor="start" x="198.5" y="-558.5" font-family="Helvetica,sans-Serif" font-size="10.00"> </text>
<polygon fill="#bfbfbf" stroke="#bfbfbf" points="173,-583.5 173,-583.5 228,-583.5 228,-583.5 173,-583.5"/>
<polygon fill="#bfbfbf" stroke="#bfbfbf" points="173,-568.5 173,-568.5 228,-568.5 228,-568.5 173,-568.5"/>
<polygon fill="none" stroke="#bfbfbf" points="172.5,-552 172.5,-601 227.5,-601 227.5,-552 172.5,-552"/>
</a>
</g>
</g>
<!-- Node7&#45;&gt;Node2 -->
<g id="edge6_Node000002_Node000007" class="edge">
<title>Node7&#45;&gt;Node2</title>
<g id="a_edge6_Node000002_Node000007"><a xlink:title=" ">
<path fill="none" stroke="#63b8ff" d="M198.82,-551.9C198.45,-537.19 198.64,-517.91 201,-501 201.27,-499.07 201.56,-497.13 201.87,-495.18"/>
<polygon fill="none" stroke="#63b8ff" points="201.91,-494.92 199,-488.32 203.97,-483.1 206.88,-489.69 201.91,-494.92"/>
</a>
</g>
<text text-anchor="middle" x="225.5" y="-509.5" font-family="Helvetica,sans-Serif" font-size="10.00" fill="grey"> #mIndex</text>
</g>
<!-- Node8 -->
<g id="Node000008" class="node">
<title>Node8</title>
<g id="a_Node000008"><a xlink:href="classbool.html" target="_top" xlink:title=" ">
<polygon fill="white" stroke="transparent" points="288,-601 256,-601 256,-552 288,-552 288,-601"/>
<text text-anchor="start" x="261" y="-588.5" font-family="Helvetica,sans-Serif" font-size="10.00">bool</text>
<text text-anchor="start" x="270" y="-573.5" font-family="Helvetica,sans-Serif" font-size="10.00"> </text>
<text text-anchor="start" x="270" y="-558.5" font-family="Helvetica,sans-Serif" font-size="10.00"> </text>
<polygon fill="#bfbfbf" stroke="#bfbfbf" points="256,-583.5 256,-583.5 288,-583.5 288,-583.5 256,-583.5"/>
<polygon fill="#bfbfbf" stroke="#bfbfbf" points="256,-568.5 256,-568.5 288,-568.5 288,-568.5 256,-568.5"/>
<polygon fill="none" stroke="#bfbfbf" points="256,-552 256,-601 288,-601 288,-552 256,-552"/>
</a>
</g>
</g>
<!-- Node8&#45;&gt;Node2 -->
<g id="edge7_Node000002_Node000008" class="edge">
<title>Node8&#45;&gt;Node2</title>
<g id="a_edge7_Node000002_Node000008"><a xlink:title=" ">
<path fill="none" stroke="#63b8ff" d="M267.8,-551.7C265.2,-536.98 261.65,-516.83 257.85,-495.32"/>
<polygon fill="none" stroke="#63b8ff" points="257.81,-495.07 252.82,-489.86 255.72,-483.25 260.7,-488.47 257.81,-495.07"/>
</a>
</g>
<text text-anchor="middle" x="297" y="-515" font-family="Helvetica,sans-Serif" font-size="10.00" fill="grey"> #mIsDeleted</text>
<text text-anchor="middle" x="297" y="-504" font-family="Helvetica,sans-Serif" font-size="10.00" fill="grey">#mOwnership</text>
</g>
<!-- Node9 -->
<g id="Node000009" class="node">
<title>Node9</title>
<g id="a_Node000009"><a xlink:title=" ">
<polygon fill="white" stroke="transparent" points="427.5,-612 306.5,-612 306.5,-541 427.5,-541 427.5,-612"/>
<text text-anchor="start" x="312" y="-599.5" font-family="Helvetica,sans-Serif" font-size="10.00">ElementAttributes&lt;</text>
<text text-anchor="start" x="312" y="-588.5" font-family="Helvetica,sans-Serif" font-size="10.00"> ELEMENT_DIM, SPACE</text>
<text text-anchor="start" x="345" y="-577.5" font-family="Helvetica,sans-Serif" font-size="10.00">_DIM &gt; *</text>
<text text-anchor="start" x="365.5" y="-562.5" font-family="Helvetica,sans-Serif" font-size="10.00"> </text>
<text text-anchor="start" x="365.5" y="-547.5" font-family="Helvetica,sans-Serif" font-size="10.00"> </text>
<polygon fill="#bfbfbf" stroke="#bfbfbf" points="307,-572.5 307,-572.5 428,-572.5 428,-572.5 307,-572.5"/>
<polygon fill="#bfbfbf" stroke="#bfbfbf" points="307,-557.5 307,-557.5 428,-557.5 428,-557.5 307,-557.5"/>
<polygon fill="none" stroke="#bfbfbf" points="306.5,-541 306.5,-612 427.5,-612 427.5,-541 306.5,-541"/>
</a>
</g>
</g>
<!-- Node9&#45;&gt;Node2 -->
<g id="edge8_Node000002_Node000009" class="edge">
<title>Node9&#45;&gt;Node2</title>
<g id="a_edge8_Node000002_Node000009"><a xlink:title=" ">
<path fill="none" stroke="#63b8ff" d="M354.78,-540.85C349.68,-527.98 343.24,-513.48 336,-501 332.48,-494.94 328.72,-488.85 324.78,-482.78"/>
<polygon fill="none" stroke="#63b8ff" points="324.66,-482.6 318,-479.82 318.01,-472.61 324.66,-475.39 324.66,-482.6"/>
</a>
</g>
<text text-anchor="middle" x="405" y="-509.5" font-family="Helvetica,sans-Serif" font-size="10.00" fill="grey"> #mpElementAttributes</text>
</g>
</g>
</svg>
