<?xml version="1.0" encoding="UTF-8" standalone="no"?>
<!DOCTYPE svg PUBLIC "-//W3C//DTD SVG 1.1//EN"
 "http://www.w3.org/Graphics/SVG/1.1/DTD/svg11.dtd">
<!-- Generated by graphviz version 2.43.0 (0)
 -->
<!-- Title: MechanicsEventHandler Pages: 1 -->
<svg width="539pt" height="1230pt"
 viewBox="0.00 0.00 539.00 1230.00" xmlns="http://www.w3.org/2000/svg" xmlns:xlink="http://www.w3.org/1999/xlink">
<g id="graph0" class="graph" transform="scale(1 1) rotate(0) translate(4 1226)">
<title>MechanicsEventHandler</title>
<!-- Node1 -->
<g id="Node000001" class="node">
<title>Node1</title>
<g id="a_Node000001"><a xlink:title=" ">
<polygon fill="#999999" stroke="transparent" points="432,-49 304,-49 304,0 432,0 432,-49"/>
<text text-anchor="start" x="309" y="-36.5" font-family="Helvetica,sans-Serif" font-size="10.00">MechanicsEventHandler</text>
<text text-anchor="start" x="366" y="-21.5" font-family="Helvetica,sans-Serif" font-size="10.00"> </text>
<text text-anchor="start" x="366" y="-6.5" font-family="Helvetica,sans-Serif" font-size="10.00"> </text>
<polygon fill="#666666" stroke="#666666" points="304,-31.5 304,-31.5 432,-31.5 432,-31.5 304,-31.5"/>
<polygon fill="#666666" stroke="#666666" points="304,-16.5 304,-16.5 432,-16.5 432,-16.5 304,-16.5"/>
<polygon fill="none" stroke="#666666" points="304,0 304,-49 432,-49 432,0 304,0"/>
</a>
</g>
</g>
<!-- Node2 -->
<g id="Node000002" class="node">
<title>Node2</title>
<g id="a_Node000002"><a xlink:href="classGenericEventHandler.html" target="_top" xlink:title=" ">
<polygon fill="white" stroke="transparent" points="380,-486 196,-486 196,-96 380,-96 380,-486"/>
<text text-anchor="start" x="211.5" y="-474" font-family="Helvetica,sans-Serif" font-size="10.00">GenericEventHandler</text>
<text text-anchor="start" x="211.5" y="-463" font-family="Helvetica,sans-Serif" font-size="10.00">&lt; 7, MechanicsEventHandler &gt;</text>
<text text-anchor="start" x="286" y="-448" font-family="Helvetica,sans-Serif" font-size="10.00"> </text>
<text text-anchor="start" x="200" y="-433" font-family="Helvetica,sans-Serif" font-size="10.00">+</text>
<text text-anchor="start" x="213" y="-433" font-family="Helvetica,sans-Serif" font-size="10.00">Instance()</text>
<text text-anchor="start" x="200" y="-418" font-family="Helvetica,sans-Serif" font-size="10.00">+</text>
<text text-anchor="start" x="213" y="-418" font-family="Helvetica,sans-Serif" font-size="10.00">Reset()</text>
<text text-anchor="start" x="200" y="-403" font-family="Helvetica,sans-Serif" font-size="10.00">+</text>
<text text-anchor="start" x="213" y="-403" font-family="Helvetica,sans-Serif" font-size="10.00">BeginEvent()</text>
<text text-anchor="start" x="200" y="-388" font-family="Helvetica,sans-Serif" font-size="10.00">+</text>
<text text-anchor="start" x="213" y="-388" font-family="Helvetica,sans-Serif" font-size="10.00">EndEvent()</text>
<text text-anchor="start" x="200" y="-373" font-family="Helvetica,sans-Serif" font-size="10.00">+</text>
<text text-anchor="start" x="213" y="-373" font-family="Helvetica,sans-Serif" font-size="10.00">GetElapsedTime()</text>
<text text-anchor="start" x="200" y="-358" font-family="Helvetica,sans-Serif" font-size="10.00">+</text>
<text text-anchor="start" x="213" y="-358" font-family="Helvetica,sans-Serif" font-size="10.00">Report()</text>
<text text-anchor="start" x="200" y="-343" font-family="Helvetica,sans-Serif" font-size="10.00">+</text>
<text text-anchor="start" x="213" y="-343" font-family="Helvetica,sans-Serif" font-size="10.00">Headings()</text>
<text text-anchor="start" x="200" y="-328" font-family="Helvetica,sans-Serif" font-size="10.00">+</text>
<text text-anchor="start" x="213" y="-328" font-family="Helvetica,sans-Serif" font-size="10.00">Enable()</text>
<text text-anchor="start" x="200" y="-313" font-family="Helvetica,sans-Serif" font-size="10.00">+</text>
<text text-anchor="start" x="213" y="-313" font-family="Helvetica,sans-Serif" font-size="10.00">Disable()</text>
<text text-anchor="start" x="200" y="-298" font-family="Helvetica,sans-Serif" font-size="10.00">+</text>
<text text-anchor="start" x="213" y="-298" font-family="Helvetica,sans-Serif" font-size="10.00">IsEnabled()</text>
<text text-anchor="start" x="200" y="-283" font-family="Helvetica,sans-Serif" font-size="10.00">#</text>
<text text-anchor="start" x="213" y="-283" font-family="Helvetica,sans-Serif" font-size="10.00">GenericEventHandler()</text>
<text text-anchor="start" x="202.5" y="-268" font-family="Helvetica,sans-Serif" font-size="10.00">&#45;</text>
<text text-anchor="start" x="213" y="-268" font-family="Helvetica,sans-Serif" font-size="10.00">ConvertWallTimeToMilliseconds()</text>
<text text-anchor="start" x="202.5" y="-253" font-family="Helvetica,sans-Serif" font-size="10.00">&#45;</text>
<text text-anchor="start" x="213" y="-253" font-family="Helvetica,sans-Serif" font-size="10.00">ConvertWallTimeToSeconds()</text>
<text text-anchor="start" x="202.5" y="-238" font-family="Helvetica,sans-Serif" font-size="10.00">&#45;</text>
<text text-anchor="start" x="213" y="-238" font-family="Helvetica,sans-Serif" font-size="10.00">ResetImpl()</text>
<text text-anchor="start" x="202.5" y="-223" font-family="Helvetica,sans-Serif" font-size="10.00">&#45;</text>
<text text-anchor="start" x="213" y="-223" font-family="Helvetica,sans-Serif" font-size="10.00">BeginEventImpl()</text>
<text text-anchor="start" x="202.5" y="-208" font-family="Helvetica,sans-Serif" font-size="10.00">&#45;</text>
<text text-anchor="start" x="213" y="-208" font-family="Helvetica,sans-Serif" font-size="10.00">EndEventImpl()</text>
<text text-anchor="start" x="202.5" y="-193" font-family="Helvetica,sans-Serif" font-size="10.00">&#45;</text>
<text text-anchor="start" x="213" y="-193" font-family="Helvetica,sans-Serif" font-size="10.00">GetElapsedTimeImpl()</text>
<text text-anchor="start" x="202.5" y="-178" font-family="Helvetica,sans-Serif" font-size="10.00">&#45;</text>
<text text-anchor="start" x="213" y="-178" font-family="Helvetica,sans-Serif" font-size="10.00">ReportImpl()</text>
<text text-anchor="start" x="202.5" y="-163" font-family="Helvetica,sans-Serif" font-size="10.00">&#45;</text>
<text text-anchor="start" x="213" y="-163" font-family="Helvetica,sans-Serif" font-size="10.00">HeadingsImpl()</text>
<text text-anchor="start" x="202.5" y="-148" font-family="Helvetica,sans-Serif" font-size="10.00">&#45;</text>
<text text-anchor="start" x="213" y="-148" font-family="Helvetica,sans-Serif" font-size="10.00">EnableImpl()</text>
<text text-anchor="start" x="202.5" y="-133" font-family="Helvetica,sans-Serif" font-size="10.00">&#45;</text>
<text text-anchor="start" x="213" y="-133" font-family="Helvetica,sans-Serif" font-size="10.00">DisableImpl()</text>
<text text-anchor="start" x="202.5" y="-118" font-family="Helvetica,sans-Serif" font-size="10.00">&#45;</text>
<text text-anchor="start" x="213" y="-118" font-family="Helvetica,sans-Serif" font-size="10.00">IsEnabledImpl()</text>
<text text-anchor="start" x="202.5" y="-103" font-family="Helvetica,sans-Serif" font-size="10.00">&#45;</text>
<text text-anchor="start" x="213" y="-103" font-family="Helvetica,sans-Serif" font-size="10.00">MilliSleep()</text>
<polygon fill="#666666" stroke="#666666" points="196,-458 196,-458 380,-458 380,-458 196,-458"/>
<polygon fill="#666666" stroke="#666666" points="196,-443 196,-443 380,-443 380,-443 196,-443"/>
<polygon fill="none" stroke="#666666" points="196,-96 196,-486 380,-486 380,-96 196,-96"/>
</a>
</g>
</g>
<!-- Node2&#45;&gt;Node1 -->
<g id="edge1_Node000001_Node000002" class="edge">
<title>Node2&#45;&gt;Node1</title>
<g id="a_edge1_Node000001_Node000002"><a xlink:title=" ">
<path fill="none" stroke="#63b8ff" d="M349.79,-85.72C354.04,-71.66 357.82,-59.17 360.81,-49.26"/>
<polygon fill="none" stroke="#63b8ff" points="346.32,-85.1 346.77,-95.69 353.02,-87.13 346.32,-85.1"/>
</a>
</g>
</g>
<!-- Node3 -->
<g id="Node000003" class="node">
<title>Node3</title>
<g id="a_Node000003"><a xlink:title=" ">
<polygon fill="white" stroke="transparent" points="147,-1030 29,-1030 29,-981 147,-981 147,-1030"/>
<text text-anchor="start" x="34" y="-1017.5" font-family="Helvetica,sans-Serif" font-size="10.00">std::vector&lt; double &gt;</text>
<text text-anchor="start" x="86" y="-1002.5" font-family="Helvetica,sans-Serif" font-size="10.00"> </text>
<text text-anchor="start" x="86" y="-987.5" font-family="Helvetica,sans-Serif" font-size="10.00"> </text>
<polygon fill="#666666" stroke="#666666" points="29,-1012.5 29,-1012.5 147,-1012.5 147,-1012.5 29,-1012.5"/>
<polygon fill="#666666" stroke="#666666" points="29,-997.5 29,-997.5 147,-997.5 147,-997.5 29,-997.5"/>
<polygon fill="none" stroke="#666666" points="29,-981 29,-1030 147,-1030 147,-981 29,-981"/>
</a>
</g>
</g>
<!-- Node3&#45;&gt;Node2 -->
<g id="edge2_Node000002_Node000003" class="edge">
<title>Node3&#45;&gt;Node2</title>
<g id="a_edge2_Node000002_Node000003"><a xlink:title=" ">
<path fill="none" stroke="#63b8ff" d="M81.96,-980.94C65.05,-910.28 22.18,-695.05 82,-533 103.53,-474.67 146.17,-420.89 187.1,-379"/>
<polygon fill="none" stroke="#63b8ff" points="187.34,-378.76 188.73,-371.69 195.8,-370.25 194.41,-377.32 187.34,-378.76"/>
</a>
</g>
<text text-anchor="middle" x="113.5" y="-725.5" font-family="Helvetica,sans-Serif" font-size="10.00" fill="grey"> &#45;mWallTime</text>
</g>
<!-- Node9 -->
<g id="Node000009" class="node">
<title>Node9</title>
<g id="a_Node000009"><a xlink:href="classGenericEventHandler.html" target="_top" xlink:title=" ">
<polygon fill="white" stroke="transparent" points="338,-923 154,-923 154,-533 338,-533 338,-923"/>
<text text-anchor="start" x="171" y="-911" font-family="Helvetica,sans-Serif" font-size="10.00">GenericEventHandler</text>
<text text-anchor="start" x="171" y="-900" font-family="Helvetica,sans-Serif" font-size="10.00">&lt; NUM_EVENTS, CONCRETE &gt;</text>
<text text-anchor="start" x="244" y="-885" font-family="Helvetica,sans-Serif" font-size="10.00"> </text>
<text text-anchor="start" x="158" y="-870" font-family="Helvetica,sans-Serif" font-size="10.00">+</text>
<text text-anchor="start" x="171" y="-870" font-family="Helvetica,sans-Serif" font-size="10.00">Instance()</text>
<text text-anchor="start" x="158" y="-855" font-family="Helvetica,sans-Serif" font-size="10.00">+</text>
<text text-anchor="start" x="171" y="-855" font-family="Helvetica,sans-Serif" font-size="10.00">Reset()</text>
<text text-anchor="start" x="158" y="-840" font-family="Helvetica,sans-Serif" font-size="10.00">+</text>
<text text-anchor="start" x="171" y="-840" font-family="Helvetica,sans-Serif" font-size="10.00">BeginEvent()</text>
<text text-anchor="start" x="158" y="-825" font-family="Helvetica,sans-Serif" font-size="10.00">+</text>
<text text-anchor="start" x="171" y="-825" font-family="Helvetica,sans-Serif" font-size="10.00">EndEvent()</text>
<text text-anchor="start" x="158" y="-810" font-family="Helvetica,sans-Serif" font-size="10.00">+</text>
<text text-anchor="start" x="171" y="-810" font-family="Helvetica,sans-Serif" font-size="10.00">GetElapsedTime()</text>
<text text-anchor="start" x="158" y="-795" font-family="Helvetica,sans-Serif" font-size="10.00">+</text>
<text text-anchor="start" x="171" y="-795" font-family="Helvetica,sans-Serif" font-size="10.00">Report()</text>
<text text-anchor="start" x="158" y="-780" font-family="Helvetica,sans-Serif" font-size="10.00">+</text>
<text text-anchor="start" x="171" y="-780" font-family="Helvetica,sans-Serif" font-size="10.00">Headings()</text>
<text text-anchor="start" x="158" y="-765" font-family="Helvetica,sans-Serif" font-size="10.00">+</text>
<text text-anchor="start" x="171" y="-765" font-family="Helvetica,sans-Serif" font-size="10.00">Enable()</text>
<text text-anchor="start" x="158" y="-750" font-family="Helvetica,sans-Serif" font-size="10.00">+</text>
<text text-anchor="start" x="171" y="-750" font-family="Helvetica,sans-Serif" font-size="10.00">Disable()</text>
<text text-anchor="start" x="158" y="-735" font-family="Helvetica,sans-Serif" font-size="10.00">+</text>
<text text-anchor="start" x="171" y="-735" font-family="Helvetica,sans-Serif" font-size="10.00">IsEnabled()</text>
<text text-anchor="start" x="158" y="-720" font-family="Helvetica,sans-Serif" font-size="10.00">#</text>
<text text-anchor="start" x="171" y="-720" font-family="Helvetica,sans-Serif" font-size="10.00">GenericEventHandler()</text>
<text text-anchor="start" x="160.5" y="-705" font-family="Helvetica,sans-Serif" font-size="10.00">&#45;</text>
<text text-anchor="start" x="171" y="-705" font-family="Helvetica,sans-Serif" font-size="10.00">ConvertWallTimeToMilliseconds()</text>
<text text-anchor="start" x="160.5" y="-690" font-family="Helvetica,sans-Serif" font-size="10.00">&#45;</text>
<text text-anchor="start" x="171" y="-690" font-family="Helvetica,sans-Serif" font-size="10.00">ConvertWallTimeToSeconds()</text>
<text text-anchor="start" x="160.5" y="-675" font-family="Helvetica,sans-Serif" font-size="10.00">&#45;</text>
<text text-anchor="start" x="171" y="-675" font-family="Helvetica,sans-Serif" font-size="10.00">ResetImpl()</text>
<text text-anchor="start" x="160.5" y="-660" font-family="Helvetica,sans-Serif" font-size="10.00">&#45;</text>
<text text-anchor="start" x="171" y="-660" font-family="Helvetica,sans-Serif" font-size="10.00">BeginEventImpl()</text>
<text text-anchor="start" x="160.5" y="-645" font-family="Helvetica,sans-Serif" font-size="10.00">&#45;</text>
<text text-anchor="start" x="171" y="-645" font-family="Helvetica,sans-Serif" font-size="10.00">EndEventImpl()</text>
<text text-anchor="start" x="160.5" y="-630" font-family="Helvetica,sans-Serif" font-size="10.00">&#45;</text>
<text text-anchor="start" x="171" y="-630" font-family="Helvetica,sans-Serif" font-size="10.00">GetElapsedTimeImpl()</text>
<text text-anchor="start" x="160.5" y="-615" font-family="Helvetica,sans-Serif" font-size="10.00">&#45;</text>
<text text-anchor="start" x="171" y="-615" font-family="Helvetica,sans-Serif" font-size="10.00">ReportImpl()</text>
<text text-anchor="start" x="160.5" y="-600" font-family="Helvetica,sans-Serif" font-size="10.00">&#45;</text>
<text text-anchor="start" x="171" y="-600" font-family="Helvetica,sans-Serif" font-size="10.00">HeadingsImpl()</text>
<text text-anchor="start" x="160.5" y="-585" font-family="Helvetica,sans-Serif" font-size="10.00">&#45;</text>
<text text-anchor="start" x="171" y="-585" font-family="Helvetica,sans-Serif" font-size="10.00">EnableImpl()</text>
<text text-anchor="start" x="160.5" y="-570" font-family="Helvetica,sans-Serif" font-size="10.00">&#45;</text>
<text text-anchor="start" x="171" y="-570" font-family="Helvetica,sans-Serif" font-size="10.00">DisableImpl()</text>
<text text-anchor="start" x="160.5" y="-555" font-family="Helvetica,sans-Serif" font-size="10.00">&#45;</text>
<text text-anchor="start" x="171" y="-555" font-family="Helvetica,sans-Serif" font-size="10.00">IsEnabledImpl()</text>
<text text-anchor="start" x="160.5" y="-540" font-family="Helvetica,sans-Serif" font-size="10.00">&#45;</text>
<text text-anchor="start" x="171" y="-540" font-family="Helvetica,sans-Serif" font-size="10.00">MilliSleep()</text>
<polygon fill="#666666" stroke="#666666" points="154,-895 154,-895 338,-895 338,-895 154,-895"/>
<polygon fill="#666666" stroke="#666666" points="154,-880 154,-880 338,-880 338,-880 154,-880"/>
<polygon fill="none" stroke="#666666" points="154,-533 154,-923 338,-923 338,-533 154,-533"/>
</a>
</g>
</g>
<!-- Node3&#45;&gt;Node9 -->
<g id="edge11_Node000009_Node000003" class="edge">
<title>Node3&#45;&gt;Node9</title>
<g id="a_edge11_Node000009_Node000003"><a xlink:title=" ">
<path fill="none" stroke="#63b8ff" d="M103.68,-980.87C114.23,-964.74 128.3,-942.79 140,-923 142.58,-918.63 145.18,-914.2 147.79,-909.72"/>
<polygon fill="none" stroke="#63b8ff" points="147.87,-909.57 147.41,-902.38 153.88,-899.18 154.34,-906.38 147.87,-909.57"/>
</a>
</g>
<text text-anchor="middle" x="161.5" y="-949.5" font-family="Helvetica,sans-Serif" font-size="10.00" fill="grey"> &#45;mWallTime</text>
</g>
<!-- Node4 -->
<g id="Node000004" class="node">
<title>Node4</title>
<g id="a_Node000004"><a xlink:href="classdouble.html" target="_top" xlink:title=" ">
<polygon fill="white" stroke="transparent" points="44,-1126 0,-1126 0,-1077 44,-1077 44,-1126"/>
<text text-anchor="start" x="5" y="-1113.5" font-family="Helvetica,sans-Serif" font-size="10.00">double</text>
<text text-anchor="start" x="20" y="-1098.5" font-family="Helvetica,sans-Serif" font-size="10.00"> </text>
<text text-anchor="start" x="20" y="-1083.5" font-family="Helvetica,sans-Serif" font-size="10.00"> </text>
<polygon fill="#bfbfbf" stroke="#bfbfbf" points="0,-1108.5 0,-1108.5 44,-1108.5 44,-1108.5 0,-1108.5"/>
<polygon fill="#bfbfbf" stroke="#bfbfbf" points="0,-1093.5 0,-1093.5 44,-1093.5 44,-1093.5 0,-1093.5"/>
<polygon fill="none" stroke="#bfbfbf" points="0,-1077 0,-1126 44,-1126 44,-1077 0,-1077"/>
</a>
</g>
</g>
<!-- Node4&#45;&gt;Node3 -->
<g id="edge3_Node000003_Node000004" class="edge">
<title>Node4&#45;&gt;Node3</title>
<g id="a_edge3_Node000003_Node000004"><a xlink:title=" ">
<path fill="none" stroke="#63b8ff" d="M25.53,-1076.98C27.75,-1067.42 31.31,-1056.63 37,-1048 39.17,-1044.71 41.68,-1041.56 44.4,-1038.56"/>
<polygon fill="none" stroke="#63b8ff" points="44.5,-1038.46 45.98,-1031.4 53.06,-1030.06 51.58,-1037.11 44.5,-1038.46"/>
</a>
</g>
<text text-anchor="middle" x="66" y="-1051" font-family="Helvetica,sans-Serif" font-size="10.00" fill="grey"> +elements</text>
</g>
<!-- Node5 -->
<g id="Node000005" class="node">
<title>Node5</title>
<g id="a_Node000005"><a xlink:title=" ">
<polygon fill="white" stroke="transparent" points="192.5,-1126 101.5,-1126 101.5,-1077 192.5,-1077 192.5,-1126"/>
<text text-anchor="start" x="107" y="-1113.5" font-family="Helvetica,sans-Serif" font-size="10.00">std::vector&lt; T &gt;</text>
<text text-anchor="start" x="145.5" y="-1098.5" font-family="Helvetica,sans-Serif" font-size="10.00"> </text>
<text text-anchor="start" x="145.5" y="-1083.5" font-family="Helvetica,sans-Serif" font-size="10.00"> </text>
<polygon fill="#666666" stroke="#666666" points="102,-1108.5 102,-1108.5 193,-1108.5 193,-1108.5 102,-1108.5"/>
<polygon fill="#666666" stroke="#666666" points="102,-1093.5 102,-1093.5 193,-1093.5 193,-1093.5 102,-1093.5"/>
<polygon fill="none" stroke="#666666" points="101.5,-1077 101.5,-1126 192.5,-1126 192.5,-1077 101.5,-1077"/>
</a>
</g>
</g>
<!-- Node5&#45;&gt;Node3 -->
<g id="edge4_Node000003_Node000005" class="edge">
<title>Node5&#45;&gt;Node3</title>
<g id="a_edge4_Node000003_Node000005"><a xlink:title=" ">
<path fill="none" stroke="orange" d="M111.55,-1069.41C108.77,-1066.07 106.19,-1062.58 104,-1059 98.63,-1050.22 94.94,-1039.51 92.47,-1030.05"/>
<polygon fill="orange" stroke="orange" points="109.02,-1071.82 118.34,-1076.87 114.2,-1067.12 109.02,-1071.82"/>
</a>
</g>
<text text-anchor="middle" x="133.5" y="-1051" font-family="Helvetica,sans-Serif" font-size="10.00" fill="grey"> &lt; double &gt;</text>
</g>
<!-- Node7 -->
<g id="Node000007" class="node">
<title>Node7</title>
<g id="a_Node000007"><a xlink:title=" ">
<polygon fill="white" stroke="transparent" points="427,-1030 321,-1030 321,-981 427,-981 427,-1030"/>
<text text-anchor="start" x="326" y="-1017.5" font-family="Helvetica,sans-Serif" font-size="10.00">std::vector&lt; bool &gt;</text>
<text text-anchor="start" x="372" y="-1002.5" font-family="Helvetica,sans-Serif" font-size="10.00"> </text>
<text text-anchor="start" x="372" y="-987.5" font-family="Helvetica,sans-Serif" font-size="10.00"> </text>
<polygon fill="#666666" stroke="#666666" points="321,-1012.5 321,-1012.5 427,-1012.5 427,-1012.5 321,-1012.5"/>
<polygon fill="#666666" stroke="#666666" points="321,-997.5 321,-997.5 427,-997.5 427,-997.5 321,-997.5"/>
<polygon fill="none" stroke="#666666" points="321,-981 321,-1030 427,-1030 427,-981 321,-981"/>
</a>
</g>
</g>
<!-- Node5&#45;&gt;Node7 -->
<g id="edge8_Node000007_Node000005" class="edge">
<title>Node5&#45;&gt;Node7</title>
<g id="a_edge8_Node000007_Node000005"><a xlink:title=" ">
<path fill="none" stroke="orange" d="M202.07,-1077.7C238.17,-1062.75 285.13,-1043.3 320.84,-1028.51"/>
<polygon fill="orange" stroke="orange" points="200.56,-1074.53 192.66,-1081.59 203.24,-1081 200.56,-1074.53"/>
</a>
</g>
<text text-anchor="middle" x="291.5" y="-1051" font-family="Helvetica,sans-Serif" font-size="10.00" fill="grey"> &lt; bool &gt;</text>
</g>
<!-- Node6 -->
<g id="Node000006" class="node">
<title>Node6</title>
<g id="a_Node000006"><a xlink:title=" ">
<polygon fill="white" stroke="transparent" points="155.5,-1222 138.5,-1222 138.5,-1173 155.5,-1173 155.5,-1222"/>
<text text-anchor="start" x="144" y="-1209.5" font-family="Helvetica,sans-Serif" font-size="10.00">T</text>
<text text-anchor="start" x="145.5" y="-1194.5" font-family="Helvetica,sans-Serif" font-size="10.00"> </text>
<text text-anchor="start" x="145.5" y="-1179.5" font-family="Helvetica,sans-Serif" font-size="10.00"> </text>
<polygon fill="#bfbfbf" stroke="#bfbfbf" points="139,-1204.5 139,-1204.5 156,-1204.5 156,-1204.5 139,-1204.5"/>
<polygon fill="#bfbfbf" stroke="#bfbfbf" points="139,-1189.5 139,-1189.5 156,-1189.5 156,-1189.5 139,-1189.5"/>
<polygon fill="none" stroke="#bfbfbf" points="138.5,-1173 138.5,-1222 155.5,-1222 155.5,-1173 138.5,-1173"/>
</a>
</g>
</g>
<!-- Node6&#45;&gt;Node5 -->
<g id="edge5_Node000005_Node000006" class="edge">
<title>Node6&#45;&gt;Node5</title>
<g id="a_edge5_Node000005_Node000006"><a xlink:title=" ">
<path fill="none" stroke="#63b8ff" d="M147,-1172.78C147,-1162.32 147,-1149.79 147,-1138.23"/>
<polygon fill="none" stroke="#63b8ff" points="147,-1138.21 143,-1132.21 147,-1126.21 151,-1132.21 147,-1138.21"/>
</a>
</g>
<text text-anchor="middle" x="176" y="-1147" font-family="Helvetica,sans-Serif" font-size="10.00" fill="grey"> +elements</text>
</g>
<!-- Node7&#45;&gt;Node2 -->
<g id="edge6_Node000002_Node000007" class="edge">
<title>Node7&#45;&gt;Node2</title>
<g id="a_edge6_Node000002_Node000007"><a xlink:title=" ">
<path fill="none" stroke="#63b8ff" d="M375.82,-980.79C380.85,-908.53 392.5,-684.95 360,-504 359.63,-501.96 359.25,-499.92 358.85,-497.86"/>
<polygon fill="none" stroke="#63b8ff" points="358.84,-497.81 353.71,-492.75 356.42,-486.06 361.55,-491.13 358.84,-497.81"/>
</a>
</g>
<text text-anchor="middle" x="416.5" y="-725.5" font-family="Helvetica,sans-Serif" font-size="10.00" fill="grey"> &#45;mHasBegun</text>
</g>
<!-- Node7&#45;&gt;Node9 -->
<g id="edge12_Node000009_Node000007" class="edge">
<title>Node7&#45;&gt;Node9</title>
<g id="a_edge12_Node000009_Node000007"><a xlink:title=" ">
<path fill="none" stroke="#63b8ff" d="M320.93,-986C310.33,-980.12 300.25,-972.58 293,-963 286.25,-954.08 280.4,-944.44 275.34,-934.34"/>
<polygon fill="none" stroke="#63b8ff" points="275.22,-934.07 269.06,-930.32 270.15,-923.2 276.31,-926.95 275.22,-934.07"/>
</a>
</g>
<text text-anchor="middle" x="326.5" y="-949.5" font-family="Helvetica,sans-Serif" font-size="10.00" fill="grey"> &#45;mHasBegun</text>
</g>
<!-- Node8 -->
<g id="Node000008" class="node">
<title>Node8</title>
<g id="a_Node000008"><a xlink:href="classbool.html" target="_top" xlink:title=" ">
<polygon fill="white" stroke="transparent" points="390,-1126 358,-1126 358,-1077 390,-1077 390,-1126"/>
<text text-anchor="start" x="363" y="-1113.5" font-family="Helvetica,sans-Serif" font-size="10.00">bool</text>
<text text-anchor="start" x="372" y="-1098.5" font-family="Helvetica,sans-Serif" font-size="10.00"> </text>
<text text-anchor="start" x="372" y="-1083.5" font-family="Helvetica,sans-Serif" font-size="10.00"> </text>
<polygon fill="#bfbfbf" stroke="#bfbfbf" points="358,-1108.5 358,-1108.5 390,-1108.5 390,-1108.5 358,-1108.5"/>
<polygon fill="#bfbfbf" stroke="#bfbfbf" points="358,-1093.5 358,-1093.5 390,-1093.5 390,-1093.5 358,-1093.5"/>
<polygon fill="none" stroke="#bfbfbf" points="358,-1077 358,-1126 390,-1126 390,-1077 358,-1077"/>
</a>
</g>
</g>
<!-- Node8&#45;&gt;Node2 -->
<g id="edge9_Node000002_Node000008" class="edge">
<title>Node8&#45;&gt;Node2</title>
<g id="a_edge9_Node000002_Node000008"><a xlink:title=" ">
<path fill="none" stroke="#63b8ff" d="M390.11,-1094.31C404.64,-1087.82 425.33,-1076.16 436,-1059 503.39,-950.61 512.71,-647.89 454,-533 437.78,-501.25 412.3,-512.98 389,-486 388.63,-485.57 388.26,-485.14 387.89,-484.7"/>
<polygon fill="none" stroke="#63b8ff" points="387.84,-484.65 380.94,-482.54 380.24,-475.36 387.13,-477.47 387.84,-484.65"/>
</a>
</g>
<text text-anchor="middle" x="503" y="-955" font-family="Helvetica,sans-Serif" font-size="10.00" fill="grey"> &#45;mEnabled</text>
<text text-anchor="middle" x="503" y="-944" font-family="Helvetica,sans-Serif" font-size="10.00" fill="grey">&#45;mInUse</text>
</g>
<!-- Node8&#45;&gt;Node7 -->
<g id="edge7_Node000007_Node000008" class="edge">
<title>Node8&#45;&gt;Node7</title>
<g id="a_edge7_Node000007_Node000008"><a xlink:title=" ">
<path fill="none" stroke="#63b8ff" d="M374,-1076.78C374,-1066.32 374,-1053.79 374,-1042.23"/>
<polygon fill="none" stroke="#63b8ff" points="374,-1042.21 370,-1036.21 374,-1030.21 378,-1036.21 374,-1042.21"/>
</a>
</g>
<text text-anchor="middle" x="403" y="-1051" font-family="Helvetica,sans-Serif" font-size="10.00" fill="grey"> +elements</text>
</g>
<!-- Node8&#45;&gt;Node9 -->
<g id="edge13_Node000009_Node000008" class="edge">
<title>Node8&#45;&gt;Node9</title>
<g id="a_edge13_Node000009_Node000008"><a xlink:title=" ">
<path fill="none" stroke="#63b8ff" d="M357.84,-1096.27C331.18,-1088.34 278.66,-1068.44 256,-1030 239.21,-1001.52 230.1,-968.74 225.91,-935.53"/>
<polygon fill="none" stroke="#63b8ff" points="225.87,-935.21 221.25,-929.68 224.58,-923.28 229.2,-928.82 225.87,-935.21"/>
</a>
</g>
<text text-anchor="middle" x="284" y="-1008.5" font-family="Helvetica,sans-Serif" font-size="10.00" fill="grey"> &#45;mEnabled</text>
<text text-anchor="middle" x="284" y="-997.5" font-family="Helvetica,sans-Serif" font-size="10.00" fill="grey">&#45;mInUse</text>
</g>
<!-- Node9&#45;&gt;Node2 -->
<g id="edge10_Node000002_Node000009" class="edge">
<title>Node9&#45;&gt;Node2</title>
<g id="a_edge10_Node000002_Node000009"><a xlink:title=" ">
<path fill="none" stroke="orange" d="M201.35,-522.92C201.94,-516.54 202.81,-510.22 204,-504 205.13,-498.07 206.43,-492.09 207.86,-486.1"/>
<polygon fill="orange" stroke="orange" points="197.85,-522.78 200.64,-533 204.83,-523.26 197.85,-522.78"/>
</a>
</g>
<text text-anchor="middle" x="282" y="-507" font-family="Helvetica,sans-Serif" font-size="10.00" fill="grey"> &lt; 7, MechanicsEventHandler &gt;</text>
</g>
<!-- Node10 -->
<g id="Node000010" class="node">
<title>Node10</title>
<g id="a_Node000010"><a xlink:title=" ">
<polygon fill="white" stroke="transparent" points="497.5,-315.5 398.5,-315.5 398.5,-266.5 497.5,-266.5 497.5,-315.5"/>
<text text-anchor="start" x="404" y="-303" font-family="Helvetica,sans-Serif" font-size="10.00">static const char *</text>
<text text-anchor="start" x="446.5" y="-288" font-family="Helvetica,sans-Serif" font-size="10.00"> </text>
<text text-anchor="start" x="446.5" y="-273" font-family="Helvetica,sans-Serif" font-size="10.00"> </text>
<polygon fill="#bfbfbf" stroke="#bfbfbf" points="399,-298 399,-298 498,-298 498,-298 399,-298"/>
<polygon fill="#bfbfbf" stroke="#bfbfbf" points="399,-283 399,-283 498,-283 498,-283 399,-283"/>
<polygon fill="none" stroke="#bfbfbf" points="398.5,-266.5 398.5,-315.5 497.5,-315.5 497.5,-266.5 398.5,-266.5"/>
</a>
</g>
</g>
<!-- Node10&#45;&gt;Node1 -->
<g id="edge14_Node000001_Node000010" class="edge">
<title>Node10&#45;&gt;Node1</title>
<g id="a_edge14_Node000001_Node000010"><a xlink:title=" ">
<path fill="none" stroke="#63b8ff" d="M440.76,-266.06C426.6,-219.24 395.18,-115.38 378.65,-60.71"/>
<polygon fill="none" stroke="#63b8ff" points="378.64,-60.68 373.07,-56.1 375.17,-49.19 380.73,-53.78 378.64,-60.68"/>
</a>
</g>
<text text-anchor="middle" x="418.5" y="-70" font-family="Helvetica,sans-Serif" font-size="10.00" fill="grey"> +EventName</text>
</g>
</g>
</svg>
