<?xml version="1.0" encoding="UTF-8" standalone="no"?>
<!DOCTYPE svg PUBLIC "-//W3C//DTD SVG 1.1//EN"
 "http://www.w3.org/Graphics/SVG/1.1/DTD/svg11.dtd">
<!-- Generated by graphviz version 2.43.0 (0)
 -->
<!-- Title: AbstractUntemplatedConvergenceTester Pages: 1 -->
<svg width="519pt" height="326pt"
 viewBox="0.00 0.00 519.00 326.00" xmlns="http://www.w3.org/2000/svg" xmlns:xlink="http://www.w3.org/1999/xlink">
<g id="graph0" class="graph" transform="scale(1 1) rotate(0) translate(4 322)">
<title>AbstractUntemplatedConvergenceTester</title>
<!-- Node1 -->
<g id="Node000001" class="node">
<title>Node1</title>
<g id="a_Node000001"><a xlink:title=" ">
<polygon fill="#999999" stroke="transparent" points="341,-112 143,-112 143,0 341,0 341,-112"/>
<text text-anchor="start" x="157.5" y="-100" font-family="Helvetica,sans-Serif" font-size="10.00">AbstractUntemplatedConvergence</text>
<text text-anchor="start" x="227" y="-89" font-family="Helvetica,sans-Serif" font-size="10.00">Tester</text>
<text text-anchor="start" x="240" y="-74" font-family="Helvetica,sans-Serif" font-size="10.00"> </text>
<text text-anchor="start" x="147" y="-59" font-family="Helvetica,sans-Serif" font-size="10.00">+</text>
<text text-anchor="start" x="160" y="-59" font-family="Helvetica,sans-Serif" font-size="10.00">AbstractUntemplatedConvergence</text>
<text text-anchor="start" x="160" y="-48" font-family="Helvetica,sans-Serif" font-size="10.00">Tester()</text>
<text text-anchor="start" x="147" y="-33" font-family="Helvetica,sans-Serif" font-size="10.00">+</text>
<text text-anchor="start" x="160" y="-33" font-family="Helvetica,sans-Serif" font-size="10.00">Converge()</text>
<text text-anchor="start" x="147" y="-18" font-family="Helvetica,sans-Serif" font-size="10.00">+</text>
<text text-anchor="start" x="160" y="-18" font-family="Helvetica,sans-Serif" font-size="10.00">~AbstractUntemplatedConvergence</text>
<text text-anchor="start" x="160" y="-7" font-family="Helvetica,sans-Serif" font-size="10.00">Tester()</text>
<polygon fill="#666666" stroke="#666666" points="143,-84 143,-84 341,-84 341,-84 143,-84"/>
<polygon fill="#666666" stroke="#666666" points="143,-69 143,-69 341,-69 341,-69 143,-69"/>
<polygon fill="none" stroke="#666666" points="143,0 143,-112 341,-112 341,0 143,0"/>
</a>
</g>
</g>
<!-- Node2 -->
<g id="Node000002" class="node">
<title>Node2</title>
<g id="a_Node000002"><a xlink:href="classdouble.html" target="_top" xlink:title=" ">
<polygon fill="white" stroke="transparent" points="44,-318 0,-318 0,-269 44,-269 44,-318"/>
<text text-anchor="start" x="5" y="-305.5" font-family="Helvetica,sans-Serif" font-size="10.00">double</text>
<text text-anchor="start" x="20" y="-290.5" font-family="Helvetica,sans-Serif" font-size="10.00"> </text>
<text text-anchor="start" x="20" y="-275.5" font-family="Helvetica,sans-Serif" font-size="10.00"> </text>
<polygon fill="#bfbfbf" stroke="#bfbfbf" points="0,-300.5 0,-300.5 44,-300.5 44,-300.5 0,-300.5"/>
<polygon fill="#bfbfbf" stroke="#bfbfbf" points="0,-285.5 0,-285.5 44,-285.5 44,-285.5 0,-285.5"/>
<polygon fill="none" stroke="#bfbfbf" points="0,-269 0,-318 44,-318 44,-269 0,-269"/>
</a>
</g>
</g>
<!-- Node2&#45;&gt;Node1 -->
<g id="edge1_Node000001_Node000002" class="edge">
<title>Node2&#45;&gt;Node1</title>
<g id="a_edge1_Node000001_Node000002"><a xlink:title=" ">
<path fill="none" stroke="#63b8ff" d="M16.36,-268.73C9.69,-234.34 3.04,-170.43 34,-130 57.41,-99.43 94.55,-81.61 131,-71.25"/>
<polygon fill="none" stroke="#63b8ff" points="131.2,-71.2 135.98,-65.8 142.8,-68.14 138.02,-73.53 131.2,-71.2"/>
</a>
</g>
<text text-anchor="middle" x="111.5" y="-243" font-family="Helvetica,sans-Serif" font-size="10.00" fill="grey"> #mMeshWidth</text>
<text text-anchor="middle" x="111.5" y="-232" font-family="Helvetica,sans-Serif" font-size="10.00" fill="grey">+AbsoluteStimulus</text>
<text text-anchor="middle" x="111.5" y="-221" font-family="Helvetica,sans-Serif" font-size="10.00" fill="grey">+Apd90FirstQn</text>
<text text-anchor="middle" x="111.5" y="-210" font-family="Helvetica,sans-Serif" font-size="10.00" fill="grey">+Apd90ThirdQn</text>
<text text-anchor="middle" x="111.5" y="-199" font-family="Helvetica,sans-Serif" font-size="10.00" fill="grey">+ConductionVelocity</text>
<text text-anchor="middle" x="111.5" y="-188" font-family="Helvetica,sans-Serif" font-size="10.00" fill="grey">+LastDifference</text>
<text text-anchor="middle" x="111.5" y="-177" font-family="Helvetica,sans-Serif" font-size="10.00" fill="grey">+NeumannStimulus</text>
<text text-anchor="middle" x="111.5" y="-166" font-family="Helvetica,sans-Serif" font-size="10.00" fill="grey">+OdeTimeStep</text>
<text text-anchor="middle" x="111.5" y="-155" font-family="Helvetica,sans-Serif" font-size="10.00" fill="grey">+PdeTimeStep</text>
<text text-anchor="middle" x="111.5" y="-144" font-family="Helvetica,sans-Serif" font-size="10.00" fill="grey">+RelativeConvergenceCriterion</text>
<text text-anchor="middle" x="111.5" y="-133" font-family="Helvetica,sans-Serif" font-size="10.00" fill="grey">...</text>
</g>
<!-- Node3 -->
<g id="Node000003" class="node">
<title>Node3</title>
<g id="a_Node000003"><a xlink:href="classunsigned.html" target="_top" xlink:title=" ">
<polygon fill="white" stroke="transparent" points="227.5,-318 172.5,-318 172.5,-269 227.5,-269 227.5,-318"/>
<text text-anchor="start" x="178" y="-305.5" font-family="Helvetica,sans-Serif" font-size="10.00">unsigned</text>
<text text-anchor="start" x="198.5" y="-290.5" font-family="Helvetica,sans-Serif" font-size="10.00"> </text>
<text text-anchor="start" x="198.5" y="-275.5" font-family="Helvetica,sans-Serif" font-size="10.00"> </text>
<polygon fill="#bfbfbf" stroke="#bfbfbf" points="173,-300.5 173,-300.5 228,-300.5 228,-300.5 173,-300.5"/>
<polygon fill="#bfbfbf" stroke="#bfbfbf" points="173,-285.5 173,-285.5 228,-285.5 228,-285.5 173,-285.5"/>
<polygon fill="none" stroke="#bfbfbf" points="172.5,-269 172.5,-318 227.5,-318 227.5,-269 172.5,-269"/>
</a>
</g>
</g>
<!-- Node3&#45;&gt;Node1 -->
<g id="edge2_Node000001_Node000003" class="edge">
<title>Node3&#45;&gt;Node1</title>
<g id="a_edge2_Node000001_Node000003"><a xlink:title=" ">
<path fill="none" stroke="#63b8ff" d="M196.51,-268.87C192.58,-236.81 188.29,-178 201,-130 201.56,-127.88 202.2,-125.75 202.9,-123.63"/>
<polygon fill="none" stroke="#63b8ff" points="202.92,-123.58 201.34,-116.55 207.23,-112.38 208.81,-119.41 202.92,-123.58"/>
</a>
</g>
<text text-anchor="middle" x="231.5" y="-188" font-family="Helvetica,sans-Serif" font-size="10.00" fill="grey"> +MeshNum</text>
</g>
<!-- Node4 -->
<g id="Node000004" class="node">
<title>Node4</title>
<g id="a_Node000004"><a xlink:href="classbool.html" target="_top" xlink:title=" ">
<polygon fill="white" stroke="transparent" points="300,-318 268,-318 268,-269 300,-269 300,-318"/>
<text text-anchor="start" x="273" y="-305.5" font-family="Helvetica,sans-Serif" font-size="10.00">bool</text>
<text text-anchor="start" x="282" y="-290.5" font-family="Helvetica,sans-Serif" font-size="10.00"> </text>
<text text-anchor="start" x="282" y="-275.5" font-family="Helvetica,sans-Serif" font-size="10.00"> </text>
<polygon fill="#bfbfbf" stroke="#bfbfbf" points="268,-300.5 268,-300.5 300,-300.5 300,-300.5 268,-300.5"/>
<polygon fill="#bfbfbf" stroke="#bfbfbf" points="268,-285.5 268,-285.5 300,-285.5 300,-285.5 268,-285.5"/>
<polygon fill="none" stroke="#bfbfbf" points="268,-269 268,-318 300,-318 300,-269 268,-269"/>
</a>
</g>
</g>
<!-- Node4&#45;&gt;Node1 -->
<g id="edge3_Node000001_Node000004" class="edge">
<title>Node4&#45;&gt;Node1</title>
<g id="a_edge3_Node000001_Node000004"><a xlink:title=" ">
<path fill="none" stroke="#63b8ff" d="M281.8,-268.92C278.61,-237.16 271.97,-178.96 262,-130 261.59,-128.01 261.16,-125.99 260.72,-123.96"/>
<polygon fill="none" stroke="#63b8ff" points="260.7,-123.9 255.44,-118.97 257.96,-112.22 263.22,-117.14 260.7,-123.9"/>
</a>
</g>
<text text-anchor="middle" x="351" y="-204.5" font-family="Helvetica,sans-Serif" font-size="10.00" fill="grey"> +Converged</text>
<text text-anchor="middle" x="351" y="-193.5" font-family="Helvetica,sans-Serif" font-size="10.00" fill="grey">+FixedResult</text>
<text text-anchor="middle" x="351" y="-182.5" font-family="Helvetica,sans-Serif" font-size="10.00" fill="grey">+PopulatedResult</text>
<text text-anchor="middle" x="351" y="-171.5" font-family="Helvetica,sans-Serif" font-size="10.00" fill="grey">+SimulateFullActionPotential</text>
</g>
<!-- Node5 -->
<g id="Node000005" class="node">
<title>Node5</title>
<g id="a_Node000005"><a xlink:title=" ">
<polygon fill="white" stroke="transparent" points="507,-318 395,-318 395,-269 507,-269 507,-318"/>
<text text-anchor="start" x="400" y="-305.5" font-family="Helvetica,sans-Serif" font-size="10.00">enum StimulusType_</text>
<text text-anchor="start" x="449" y="-290.5" font-family="Helvetica,sans-Serif" font-size="10.00"> </text>
<text text-anchor="start" x="449" y="-275.5" font-family="Helvetica,sans-Serif" font-size="10.00"> </text>
<polygon fill="#bfbfbf" stroke="#bfbfbf" points="395,-300.5 395,-300.5 507,-300.5 507,-300.5 395,-300.5"/>
<polygon fill="#bfbfbf" stroke="#bfbfbf" points="395,-285.5 395,-285.5 507,-285.5 507,-285.5 395,-285.5"/>
<polygon fill="none" stroke="#bfbfbf" points="395,-269 395,-318 507,-318 507,-269 395,-269"/>
</a>
</g>
</g>
<!-- Node5&#45;&gt;Node1 -->
<g id="edge4_Node000001_Node000005" class="edge">
<title>Node5&#45;&gt;Node1</title>
<g id="a_edge4_Node000001_Node000005"><a xlink:title=" ">
<path fill="none" stroke="#63b8ff" d="M454.32,-268.96C457.8,-234.57 459,-170.32 427,-130 408.32,-106.47 380.97,-90.5 353,-79.67"/>
<polygon fill="none" stroke="#63b8ff" points="352.71,-79.56 345.7,-81.28 341.42,-75.48 348.43,-73.76 352.71,-79.56"/>
</a>
</g>
<text text-anchor="middle" x="483.5" y="-188" font-family="Helvetica,sans-Serif" font-size="10.00" fill="grey"> +Stimulus</text>
</g>
</g>
</svg>
