<?xml version="1.0" encoding="UTF-8" standalone="no"?>
<!DOCTYPE svg PUBLIC "-//W3C//DTD SVG 1.1//EN"
 "http://www.w3.org/Graphics/SVG/1.1/DTD/svg11.dtd">
<!-- Generated by graphviz version 2.43.0 (0)
 -->
<!-- Title: AbstractFeVolumeIntegralAssembler&lt; ELEMENT_DIM, SPACE_DIM, PROBLEM_DIM, CAN_ASSEMBLE_VECTOR, CAN_ASSEMBLE_MATRIX, INTERPOLATION_LEVEL &gt; Pages: 1 -->
<svg width="926pt" height="862pt"
 viewBox="0.00 0.00 926.00 862.00" xmlns="http://www.w3.org/2000/svg" xmlns:xlink="http://www.w3.org/1999/xlink">
<g id="graph0" class="graph" transform="scale(1 1) rotate(0) translate(4 858)">
<title>AbstractFeVolumeIntegralAssembler&lt; ELEMENT_DIM, SPACE_DIM, PROBLEM_DIM, CAN_ASSEMBLE_VECTOR, CAN_ASSEMBLE_MATRIX, INTERPOLATION_LEVEL &gt;</title>
<!-- Node1 -->
<g id="Node000001" class="node">
<title>Node1</title>
<g id="a_Node000001"><a xlink:title=" ">
<polygon fill="#999999" stroke="transparent" points="633.5,-231 392.5,-231 392.5,0 633.5,0 633.5,-231"/>
<text text-anchor="start" x="398" y="-218.5" font-family="Helvetica,sans-Serif" font-size="10.00">AbstractFeVolumeIntegral</text>
<text text-anchor="start" x="398" y="-207.5" font-family="Helvetica,sans-Serif" font-size="10.00">Assembler&lt; ELEMENT_DIM,</text>
<text text-anchor="start" x="398" y="-196.5" font-family="Helvetica,sans-Serif" font-size="10.00"> SPACE_DIM, PROBLEM_DIM,</text>
<text text-anchor="start" x="398" y="-185.5" font-family="Helvetica,sans-Serif" font-size="10.00"> CAN_ASSEMBLE_VECTOR, CAN</text>
<text text-anchor="start" x="398" y="-174.5" font-family="Helvetica,sans-Serif" font-size="10.00">_ASSEMBLE_MATRIX, INTERPOLATION_LEVEL &gt;</text>
<text text-anchor="start" x="511.5" y="-159.5" font-family="Helvetica,sans-Serif" font-size="10.00"> </text>
<text text-anchor="start" x="408.5" y="-144.5" font-family="Helvetica,sans-Serif" font-size="10.00">+</text>
<text text-anchor="start" x="433" y="-144.5" font-family="Helvetica,sans-Serif" font-size="10.00">AbstractFeVolumeIntegral</text>
<text text-anchor="start" x="433" y="-133.5" font-family="Helvetica,sans-Serif" font-size="10.00">Assembler()</text>
<text text-anchor="start" x="408.5" y="-118.5" font-family="Helvetica,sans-Serif" font-size="10.00">+</text>
<text text-anchor="start" x="433" y="-118.5" font-family="Helvetica,sans-Serif" font-size="10.00">~AbstractFeVolumeIntegral</text>
<text text-anchor="start" x="433" y="-107.5" font-family="Helvetica,sans-Serif" font-size="10.00">Assembler()</text>
<text text-anchor="start" x="408.5" y="-92.5" font-family="Helvetica,sans-Serif" font-size="10.00">#</text>
<text text-anchor="start" x="433" y="-92.5" font-family="Helvetica,sans-Serif" font-size="10.00">ComputeTransformedBasisFunction</text>
<text text-anchor="start" x="433" y="-81.5" font-family="Helvetica,sans-Serif" font-size="10.00">Derivatives()</text>
<text text-anchor="start" x="408.5" y="-66.5" font-family="Helvetica,sans-Serif" font-size="10.00">#</text>
<text text-anchor="start" x="433" y="-66.5" font-family="Helvetica,sans-Serif" font-size="10.00">DoAssemble()</text>
<text text-anchor="start" x="408.5" y="-51.5" font-family="Helvetica,sans-Serif" font-size="10.00">#</text>
<text text-anchor="start" x="433" y="-51.5" font-family="Helvetica,sans-Serif" font-size="10.00">ComputeMatrixTerm()</text>
<text text-anchor="start" x="408.5" y="-36.5" font-family="Helvetica,sans-Serif" font-size="10.00">#</text>
<text text-anchor="start" x="433" y="-36.5" font-family="Helvetica,sans-Serif" font-size="10.00">ComputeVectorTerm()</text>
<text text-anchor="start" x="408.5" y="-21.5" font-family="Helvetica,sans-Serif" font-size="10.00">#</text>
<text text-anchor="start" x="433" y="-21.5" font-family="Helvetica,sans-Serif" font-size="10.00">AssembleOnElement()</text>
<text text-anchor="start" x="408.5" y="-6.5" font-family="Helvetica,sans-Serif" font-size="10.00">#</text>
<text text-anchor="start" x="433" y="-6.5" font-family="Helvetica,sans-Serif" font-size="10.00">ElementAssemblyCriterion()</text>
<polygon fill="#666666" stroke="#666666" points="393,-169.5 393,-169.5 634,-169.5 634,-169.5 393,-169.5"/>
<polygon fill="#666666" stroke="#666666" points="393,-154.5 393,-154.5 634,-154.5 634,-154.5 393,-154.5"/>
<polygon fill="none" stroke="#666666" points="392.5,0 392.5,-231 633.5,-231 633.5,0 392.5,0"/>
</a>
</g>
</g>
<!-- Node2 -->
<g id="Node000002" class="node">
<title>Node2</title>
<g id="a_Node000002"><a xlink:href="classAbstractFeAssemblerCommon.html" target="_top" xlink:title=" ">
<polygon fill="white" stroke="transparent" points="408,-483 220,-483 220,-278 408,-278 408,-483"/>
<text text-anchor="start" x="226.5" y="-470.5" font-family="Helvetica,sans-Serif" font-size="10.00">AbstractFeAssemblerCommon</text>
<text text-anchor="start" x="226.5" y="-459.5" font-family="Helvetica,sans-Serif" font-size="10.00">&lt; ELEMENT_DIM, SPACE_DIM,</text>
<text text-anchor="start" x="226.5" y="-448.5" font-family="Helvetica,sans-Serif" font-size="10.00"> PROBLEM_DIM, CAN_ASSEMBLE</text>
<text text-anchor="start" x="226.5" y="-437.5" font-family="Helvetica,sans-Serif" font-size="10.00">_VECTOR, CAN_ASSEMBLE_MATRIX,</text>
<text text-anchor="start" x="250" y="-426.5" font-family="Helvetica,sans-Serif" font-size="10.00"> INTERPOLATION_LEVEL &gt;</text>
<text text-anchor="start" x="312" y="-411.5" font-family="Helvetica,sans-Serif" font-size="10.00"> </text>
<text text-anchor="start" x="224" y="-396.5" font-family="Helvetica,sans-Serif" font-size="10.00">+</text>
<text text-anchor="start" x="237" y="-396.5" font-family="Helvetica,sans-Serif" font-size="10.00">AbstractFeAssemblerCommon()</text>
<text text-anchor="start" x="224" y="-381.5" font-family="Helvetica,sans-Serif" font-size="10.00">+</text>
<text text-anchor="start" x="237" y="-381.5" font-family="Helvetica,sans-Serif" font-size="10.00">SetCurrentSolution()</text>
<text text-anchor="start" x="224" y="-366.5" font-family="Helvetica,sans-Serif" font-size="10.00">+</text>
<text text-anchor="start" x="237" y="-366.5" font-family="Helvetica,sans-Serif" font-size="10.00">~AbstractFeAssemblerCommon()</text>
<text text-anchor="start" x="224" y="-351.5" font-family="Helvetica,sans-Serif" font-size="10.00">#</text>
<text text-anchor="start" x="237" y="-351.5" font-family="Helvetica,sans-Serif" font-size="10.00">GetCurrentSolutionOrGuess</text>
<text text-anchor="start" x="237" y="-340.5" font-family="Helvetica,sans-Serif" font-size="10.00">Value()</text>
<text text-anchor="start" x="224" y="-325.5" font-family="Helvetica,sans-Serif" font-size="10.00">#</text>
<text text-anchor="start" x="237" y="-325.5" font-family="Helvetica,sans-Serif" font-size="10.00">ResetInterpolatedQuantities()</text>
<text text-anchor="start" x="224" y="-310.5" font-family="Helvetica,sans-Serif" font-size="10.00">#</text>
<text text-anchor="start" x="237" y="-310.5" font-family="Helvetica,sans-Serif" font-size="10.00">IncrementInterpolatedQuantities()</text>
<text text-anchor="start" x="224" y="-295.5" font-family="Helvetica,sans-Serif" font-size="10.00">#</text>
<text text-anchor="start" x="237" y="-295.5" font-family="Helvetica,sans-Serif" font-size="10.00">IncrementInterpolatedGradient</text>
<text text-anchor="start" x="237" y="-284.5" font-family="Helvetica,sans-Serif" font-size="10.00">Quantities()</text>
<polygon fill="#666666" stroke="#666666" points="220,-421.5 220,-421.5 408,-421.5 408,-421.5 220,-421.5"/>
<polygon fill="#666666" stroke="#666666" points="220,-406.5 220,-406.5 408,-406.5 408,-406.5 220,-406.5"/>
<polygon fill="none" stroke="#666666" points="220,-278 220,-483 408,-483 408,-278 220,-278"/>
</a>
</g>
</g>
<!-- Node2&#45;&gt;Node1 -->
<g id="edge1_Node000001_Node000002" class="edge">
<title>Node2&#45;&gt;Node1</title>
<g id="a_edge1_Node000001_Node000002"><a xlink:title=" ">
<path fill="none" stroke="#63b8ff" d="M397.23,-269.51C406.85,-256.79 416.67,-243.81 426.34,-231.03"/>
<polygon fill="none" stroke="#63b8ff" points="394.18,-267.73 390.94,-277.82 399.76,-271.95 394.18,-267.73"/>
</a>
</g>
</g>
<!-- Node3 -->
<g id="Node000003" class="node">
<title>Node3</title>
<g id="a_Node000003"><a xlink:href="classAbstractFeAssemblerInterface.html" target="_top" xlink:title=" ">
<polygon fill="white" stroke="transparent" points="614,-721 430,-721 430,-545 614,-545 614,-721"/>
<text text-anchor="start" x="441" y="-709" font-family="Helvetica,sans-Serif" font-size="10.00">AbstractFeAssemblerInterface</text>
<text text-anchor="start" x="441" y="-698" font-family="Helvetica,sans-Serif" font-size="10.00">&lt; CAN_ASSEMBLE_VECTOR, CAN</text>
<text text-anchor="start" x="466" y="-687" font-family="Helvetica,sans-Serif" font-size="10.00">_ASSEMBLE_MATRIX &gt;</text>
<text text-anchor="start" x="520" y="-672" font-family="Helvetica,sans-Serif" font-size="10.00"> </text>
<text text-anchor="start" x="434" y="-657" font-family="Helvetica,sans-Serif" font-size="10.00">+</text>
<text text-anchor="start" x="447" y="-657" font-family="Helvetica,sans-Serif" font-size="10.00">AbstractFeAssemblerInterface()</text>
<text text-anchor="start" x="434" y="-642" font-family="Helvetica,sans-Serif" font-size="10.00">+</text>
<text text-anchor="start" x="447" y="-642" font-family="Helvetica,sans-Serif" font-size="10.00">SetMatrixToAssemble()</text>
<text text-anchor="start" x="434" y="-627" font-family="Helvetica,sans-Serif" font-size="10.00">+</text>
<text text-anchor="start" x="447" y="-627" font-family="Helvetica,sans-Serif" font-size="10.00">SetVectorToAssemble()</text>
<text text-anchor="start" x="434" y="-612" font-family="Helvetica,sans-Serif" font-size="10.00">+</text>
<text text-anchor="start" x="447" y="-612" font-family="Helvetica,sans-Serif" font-size="10.00">Assemble()</text>
<text text-anchor="start" x="434" y="-597" font-family="Helvetica,sans-Serif" font-size="10.00">+</text>
<text text-anchor="start" x="447" y="-597" font-family="Helvetica,sans-Serif" font-size="10.00">AssembleMatrix()</text>
<text text-anchor="start" x="434" y="-582" font-family="Helvetica,sans-Serif" font-size="10.00">+</text>
<text text-anchor="start" x="447" y="-582" font-family="Helvetica,sans-Serif" font-size="10.00">AssembleVector()</text>
<text text-anchor="start" x="434" y="-567" font-family="Helvetica,sans-Serif" font-size="10.00">+</text>
<text text-anchor="start" x="447" y="-567" font-family="Helvetica,sans-Serif" font-size="10.00">~AbstractFeAssemblerInterface()</text>
<text text-anchor="start" x="434" y="-552" font-family="Helvetica,sans-Serif" font-size="10.00">#</text>
<text text-anchor="start" x="447" y="-552" font-family="Helvetica,sans-Serif" font-size="10.00">DoAssemble()</text>
<polygon fill="#666666" stroke="#666666" points="430,-682 430,-682 614,-682 614,-682 430,-682"/>
<polygon fill="#666666" stroke="#666666" points="430,-667 430,-667 614,-667 614,-667 430,-667"/>
<polygon fill="none" stroke="#666666" points="430,-545 430,-721 614,-721 614,-545 430,-545"/>
</a>
</g>
</g>
<!-- Node3&#45;&gt;Node2 -->
<g id="edge2_Node000002_Node000003" class="edge">
<title>Node3&#45;&gt;Node2</title>
<g id="a_edge2_Node000002_Node000003"><a xlink:title=" ">
<path fill="none" stroke="#63b8ff" d="M442.9,-536.74C428.32,-519.18 413.05,-500.79 398.33,-483.06"/>
<polygon fill="none" stroke="#63b8ff" points="440.46,-539.28 449.54,-544.74 445.85,-534.81 440.46,-539.28"/>
</a>
</g>
</g>
<!-- Node4 -->
<g id="Node000004" class="node">
<title>Node4</title>
<g id="a_Node000004"><a xlink:title=" ">
<polygon fill="white" stroke="transparent" points="623,-854 517,-854 517,-805 623,-805 623,-854"/>
<text text-anchor="start" x="522" y="-841.5" font-family="Helvetica,sans-Serif" font-size="10.00">boost::noncopyable</text>
<text text-anchor="start" x="568" y="-826.5" font-family="Helvetica,sans-Serif" font-size="10.00"> </text>
<text text-anchor="start" x="568" y="-811.5" font-family="Helvetica,sans-Serif" font-size="10.00"> </text>
<polygon fill="#bfbfbf" stroke="#bfbfbf" points="517,-836.5 517,-836.5 623,-836.5 623,-836.5 517,-836.5"/>
<polygon fill="#bfbfbf" stroke="#bfbfbf" points="517,-821.5 517,-821.5 623,-821.5 623,-821.5 517,-821.5"/>
<polygon fill="none" stroke="#bfbfbf" points="517,-805 517,-854 623,-854 623,-805 517,-805"/>
</a>
</g>
</g>
<!-- Node4&#45;&gt;Node3 -->
<g id="edge3_Node000003_Node000004" class="edge">
<title>Node4&#45;&gt;Node3</title>
<g id="a_edge3_Node000003_Node000004"><a xlink:title=" ">
<path fill="none" stroke="#8b1a1a" d="M575.09,-794.59C576.48,-778.74 576.72,-759.73 573,-743 571.39,-735.76 569.25,-728.43 566.75,-721.18"/>
<polygon fill="none" stroke="#8b1a1a" points="571.56,-794.67 573.98,-804.98 578.52,-795.41 571.56,-794.67"/>
</a>
</g>
</g>
<!-- Node5 -->
<g id="Node000005" class="node">
<title>Node5</title>
<g id="a_Node000005"><a xlink:href="classVec.html" target="_top" xlink:title=" ">
<polygon fill="white" stroke="transparent" points="291,-854 263,-854 263,-805 291,-805 291,-854"/>
<text text-anchor="start" x="268" y="-841.5" font-family="Helvetica,sans-Serif" font-size="10.00">Vec</text>
<text text-anchor="start" x="275" y="-826.5" font-family="Helvetica,sans-Serif" font-size="10.00"> </text>
<text text-anchor="start" x="275" y="-811.5" font-family="Helvetica,sans-Serif" font-size="10.00"> </text>
<polygon fill="#bfbfbf" stroke="#bfbfbf" points="263,-836.5 263,-836.5 291,-836.5 291,-836.5 263,-836.5"/>
<polygon fill="#bfbfbf" stroke="#bfbfbf" points="263,-821.5 263,-821.5 291,-821.5 291,-821.5 263,-821.5"/>
<polygon fill="none" stroke="#bfbfbf" points="263,-805 263,-854 291,-854 291,-805 263,-805"/>
</a>
</g>
</g>
<!-- Node5&#45;&gt;Node3 -->
<g id="edge4_Node000003_Node000005" class="edge">
<title>Node5&#45;&gt;Node3</title>
<g id="a_edge4_Node000003_Node000005"><a xlink:title=" ">
<path fill="none" stroke="#63b8ff" d="M291.21,-805.59C305.02,-783.76 325.43,-752.82 336,-743 360.55,-720.2 390.67,-700.02 419.46,-683.42"/>
<polygon fill="none" stroke="#63b8ff" points="419.55,-683.37 422.81,-676.93 430,-677.46 426.74,-683.9 419.55,-683.37"/>
</a>
</g>
<text text-anchor="middle" x="391.5" y="-762.5" font-family="Helvetica,sans-Serif" font-size="10.00" fill="grey"> #mVectorToAssemble</text>
</g>
<!-- Node9 -->
<g id="Node000009" class="node">
<title>Node9</title>
<g id="a_Node000009"><a xlink:href="classReplicatableVector.html" target="_top" xlink:title=" ">
<polygon fill="white" stroke="transparent" points="238,-725 104,-725 104,-541 238,-541 238,-725"/>
<text text-anchor="start" x="125" y="-713" font-family="Helvetica,sans-Serif" font-size="10.00">ReplicatableVector</text>
<text text-anchor="start" x="169" y="-698" font-family="Helvetica,sans-Serif" font-size="10.00"> </text>
<text text-anchor="start" x="108" y="-683" font-family="Helvetica,sans-Serif" font-size="10.00">+</text>
<text text-anchor="start" x="121" y="-683" font-family="Helvetica,sans-Serif" font-size="10.00">ReplicatableVector()</text>
<text text-anchor="start" x="108" y="-668" font-family="Helvetica,sans-Serif" font-size="10.00">+</text>
<text text-anchor="start" x="121" y="-668" font-family="Helvetica,sans-Serif" font-size="10.00">ReplicatableVector()</text>
<text text-anchor="start" x="108" y="-653" font-family="Helvetica,sans-Serif" font-size="10.00">+</text>
<text text-anchor="start" x="121" y="-653" font-family="Helvetica,sans-Serif" font-size="10.00">ReplicatableVector()</text>
<text text-anchor="start" x="108" y="-638" font-family="Helvetica,sans-Serif" font-size="10.00">+</text>
<text text-anchor="start" x="121" y="-638" font-family="Helvetica,sans-Serif" font-size="10.00">~ReplicatableVector()</text>
<text text-anchor="start" x="108" y="-623" font-family="Helvetica,sans-Serif" font-size="10.00">+</text>
<text text-anchor="start" x="121" y="-623" font-family="Helvetica,sans-Serif" font-size="10.00">GetSize()</text>
<text text-anchor="start" x="108" y="-608" font-family="Helvetica,sans-Serif" font-size="10.00">+</text>
<text text-anchor="start" x="121" y="-608" font-family="Helvetica,sans-Serif" font-size="10.00">Resize()</text>
<text text-anchor="start" x="108" y="-593" font-family="Helvetica,sans-Serif" font-size="10.00">+</text>
<text text-anchor="start" x="121" y="-593" font-family="Helvetica,sans-Serif" font-size="10.00">operator[]()</text>
<text text-anchor="start" x="108" y="-578" font-family="Helvetica,sans-Serif" font-size="10.00">+</text>
<text text-anchor="start" x="121" y="-578" font-family="Helvetica,sans-Serif" font-size="10.00">Replicate()</text>
<text text-anchor="start" x="108" y="-563" font-family="Helvetica,sans-Serif" font-size="10.00">+</text>
<text text-anchor="start" x="121" y="-563" font-family="Helvetica,sans-Serif" font-size="10.00">ReplicatePetscVector()</text>
<text text-anchor="start" x="110.5" y="-548" font-family="Helvetica,sans-Serif" font-size="10.00">&#45;</text>
<text text-anchor="start" x="121" y="-548" font-family="Helvetica,sans-Serif" font-size="10.00">RemovePetscContext()</text>
<polygon fill="#666666" stroke="#666666" points="104,-708 104,-708 238,-708 238,-708 104,-708"/>
<polygon fill="#666666" stroke="#666666" points="104,-693 104,-693 238,-693 238,-693 104,-693"/>
<polygon fill="none" stroke="#666666" points="104,-541 104,-725 238,-725 238,-541 104,-541"/>
</a>
</g>
</g>
<!-- Node5&#45;&gt;Node9 -->
<g id="edge12_Node000009_Node000005" class="edge">
<title>Node5&#45;&gt;Node9</title>
<g id="a_edge12_Node000009_Node000005"><a xlink:title=" ">
<path fill="none" stroke="#63b8ff" d="M262.85,-818.21C253.1,-810.52 240.43,-799.26 232,-787 225.38,-777.37 216.76,-758.29 208.1,-736.77"/>
<polygon fill="none" stroke="#63b8ff" points="207.99,-736.5 202.07,-732.39 203.58,-725.34 209.51,-729.45 207.99,-736.5"/>
</a>
</g>
<text text-anchor="middle" x="266.5" y="-762.5" font-family="Helvetica,sans-Serif" font-size="10.00" fill="grey"> &#45;mReplicated</text>
</g>
<!-- Node6 -->
<g id="Node000006" class="node">
<title>Node6</title>
<g id="a_Node000006"><a xlink:href="classMat.html" target="_top" xlink:title=" ">
<polygon fill="white" stroke="transparent" points="670.5,-854 641.5,-854 641.5,-805 670.5,-805 670.5,-854"/>
<text text-anchor="start" x="647" y="-841.5" font-family="Helvetica,sans-Serif" font-size="10.00">Mat</text>
<text text-anchor="start" x="654.5" y="-826.5" font-family="Helvetica,sans-Serif" font-size="10.00"> </text>
<text text-anchor="start" x="654.5" y="-811.5" font-family="Helvetica,sans-Serif" font-size="10.00"> </text>
<polygon fill="#bfbfbf" stroke="#bfbfbf" points="642,-836.5 642,-836.5 671,-836.5 671,-836.5 642,-836.5"/>
<polygon fill="#bfbfbf" stroke="#bfbfbf" points="642,-821.5 642,-821.5 671,-821.5 671,-821.5 642,-821.5"/>
<polygon fill="none" stroke="#bfbfbf" points="641.5,-805 641.5,-854 670.5,-854 670.5,-805 641.5,-805"/>
</a>
</g>
</g>
<!-- Node6&#45;&gt;Node3 -->
<g id="edge5_Node000003_Node000006" class="edge">
<title>Node6&#45;&gt;Node3</title>
<g id="a_edge5_Node000003_Node000006"><a xlink:title=" ">
<path fill="none" stroke="#63b8ff" d="M641.4,-807.31C628.54,-788.64 608.83,-760.03 589.1,-731.39"/>
<polygon fill="none" stroke="#63b8ff" points="588.94,-731.16 582.24,-728.49 582.13,-721.28 588.83,-723.95 588.94,-731.16"/>
</a>
</g>
<text text-anchor="middle" x="683" y="-762.5" font-family="Helvetica,sans-Serif" font-size="10.00" fill="grey"> #mMatrixToAssemble</text>
</g>
<!-- Node7 -->
<g id="Node000007" class="node">
<title>Node7</title>
<g id="a_Node000007"><a xlink:href="classbool.html" target="_top" xlink:title=" ">
<polygon fill="white" stroke="transparent" points="789,-854 757,-854 757,-805 789,-805 789,-854"/>
<text text-anchor="start" x="762" y="-841.5" font-family="Helvetica,sans-Serif" font-size="10.00">bool</text>
<text text-anchor="start" x="771" y="-826.5" font-family="Helvetica,sans-Serif" font-size="10.00"> </text>
<text text-anchor="start" x="771" y="-811.5" font-family="Helvetica,sans-Serif" font-size="10.00"> </text>
<polygon fill="#bfbfbf" stroke="#bfbfbf" points="757,-836.5 757,-836.5 789,-836.5 789,-836.5 757,-836.5"/>
<polygon fill="#bfbfbf" stroke="#bfbfbf" points="757,-821.5 757,-821.5 789,-821.5 789,-821.5 757,-821.5"/>
<polygon fill="none" stroke="#bfbfbf" points="757,-805 757,-854 789,-854 789,-805 757,-805"/>
</a>
</g>
</g>
<!-- Node7&#45;&gt;Node3 -->
<g id="edge6_Node000003_Node000007" class="edge">
<title>Node7&#45;&gt;Node3</title>
<g id="a_edge6_Node000003_Node000007"><a xlink:title=" ">
<path fill="none" stroke="#63b8ff" d="M769.73,-804.99C766.05,-786.28 758.44,-760.43 743,-743 711.81,-707.8 666.66,-682.73 625.29,-665.59"/>
<polygon fill="none" stroke="#63b8ff" points="625.16,-665.53 618.1,-667.01 614.02,-661.07 621.08,-659.59 625.16,-665.53"/>
</a>
</g>
<text text-anchor="middle" x="841.5" y="-779" font-family="Helvetica,sans-Serif" font-size="10.00" fill="grey"> #mAssembleMatrix</text>
<text text-anchor="middle" x="841.5" y="-768" font-family="Helvetica,sans-Serif" font-size="10.00" fill="grey">#mAssembleVector</text>
<text text-anchor="middle" x="841.5" y="-757" font-family="Helvetica,sans-Serif" font-size="10.00" fill="grey">#mZeroMatrixBeforeAssembly</text>
<text text-anchor="middle" x="841.5" y="-746" font-family="Helvetica,sans-Serif" font-size="10.00" fill="grey">#mZeroVectorBeforeAssembly</text>
</g>
<!-- Node8 -->
<g id="Node000008" class="node">
<title>Node8</title>
<g id="a_Node000008"><a xlink:href="classPetscInt.html" target="_top" xlink:title=" ">
<polygon fill="white" stroke="transparent" points="482,-854 432,-854 432,-805 482,-805 482,-854"/>
<text text-anchor="start" x="437" y="-841.5" font-family="Helvetica,sans-Serif" font-size="10.00">PetscInt</text>
<text text-anchor="start" x="455" y="-826.5" font-family="Helvetica,sans-Serif" font-size="10.00"> </text>
<text text-anchor="start" x="455" y="-811.5" font-family="Helvetica,sans-Serif" font-size="10.00"> </text>
<polygon fill="#bfbfbf" stroke="#bfbfbf" points="432,-836.5 432,-836.5 482,-836.5 482,-836.5 432,-836.5"/>
<polygon fill="#bfbfbf" stroke="#bfbfbf" points="432,-821.5 432,-821.5 482,-821.5 482,-821.5 432,-821.5"/>
<polygon fill="none" stroke="#bfbfbf" points="432,-805 432,-854 482,-854 482,-805 432,-805"/>
</a>
</g>
</g>
<!-- Node8&#45;&gt;Node3 -->
<g id="edge7_Node000003_Node000008" class="edge">
<title>Node8&#45;&gt;Node3</title>
<g id="a_edge7_Node000003_Node000008"><a xlink:title=" ">
<path fill="none" stroke="#63b8ff" d="M452.29,-804.8C449.75,-787.36 448.19,-763.28 454,-743 455.01,-739.47 456.17,-735.94 457.46,-732.43"/>
<polygon fill="none" stroke="#63b8ff" points="457.47,-732.41 456.02,-725.35 461.99,-721.3 463.44,-728.36 457.47,-732.41"/>
</a>
</g>
<text text-anchor="middle" x="511.5" y="-768" font-family="Helvetica,sans-Serif" font-size="10.00" fill="grey"> #mOwnershipRangeHi</text>
<text text-anchor="middle" x="511.5" y="-757" font-family="Helvetica,sans-Serif" font-size="10.00" fill="grey">#mOwnershipRangeLo</text>
</g>
<!-- Node9&#45;&gt;Node2 -->
<g id="edge8_Node000002_Node000009" class="edge">
<title>Node9&#45;&gt;Node2</title>
<g id="a_edge8_Node000002_Node000009"><a xlink:title=" ">
<path fill="none" stroke="#63b8ff" d="M223.03,-540.86C231.73,-525.62 240.84,-509.67 249.79,-493.98"/>
<polygon fill="none" stroke="#63b8ff" points="250.01,-493.59 249.51,-486.4 255.96,-483.17 256.46,-490.36 250.01,-493.59"/>
</a>
</g>
<text text-anchor="start" x="243" y="-515" font-family="Helvetica,sans-Serif" font-size="10.00" fill="grey"> #mCurrentSolutionOrGuess</text>
<text text-anchor="middle" x="312.5" y="-504" font-family="Helvetica,sans-Serif" font-size="10.00" fill="grey">Replicated</text>
</g>
<!-- Node10 -->
<g id="Node000010" class="node">
<title>Node10</title>
<g id="a_Node000010"><a xlink:href="classdouble.html" target="_top" xlink:title=" ">
<polygon fill="white" stroke="transparent" points="124,-854 80,-854 80,-805 124,-805 124,-854"/>
<text text-anchor="start" x="85" y="-841.5" font-family="Helvetica,sans-Serif" font-size="10.00">double</text>
<text text-anchor="start" x="100" y="-826.5" font-family="Helvetica,sans-Serif" font-size="10.00"> </text>
<text text-anchor="start" x="100" y="-811.5" font-family="Helvetica,sans-Serif" font-size="10.00"> </text>
<polygon fill="#bfbfbf" stroke="#bfbfbf" points="80,-836.5 80,-836.5 124,-836.5 124,-836.5 80,-836.5"/>
<polygon fill="#bfbfbf" stroke="#bfbfbf" points="80,-821.5 80,-821.5 124,-821.5 124,-821.5 80,-821.5"/>
<polygon fill="none" stroke="#bfbfbf" points="80,-805 80,-854 124,-854 124,-805 80,-805"/>
</a>
</g>
</g>
<!-- Node10&#45;&gt;Node9 -->
<g id="edge9_Node000009_Node000010" class="edge">
<title>Node10&#45;&gt;Node9</title>
<g id="a_edge9_Node000009_Node000010"><a xlink:title=" ">
<path fill="none" stroke="#63b8ff" d="M105.85,-804.91C109.03,-787.53 114.12,-763.47 121,-743 121.75,-740.78 122.52,-738.54 123.33,-736.3"/>
<polygon fill="none" stroke="#63b8ff" points="123.34,-736.26 121.7,-729.23 127.55,-725.02 129.19,-732.04 123.34,-736.26"/>
</a>
</g>
<text text-anchor="middle" x="144" y="-762.5" font-family="Helvetica,sans-Serif" font-size="10.00" fill="grey"> &#45;mpData</text>
</g>
<!-- Node11 -->
<g id="Node000011" class="node">
<title>Node11</title>
<g id="a_Node000011"><a xlink:href="classunsigned.html" target="_top" xlink:title=" ">
<polygon fill="white" stroke="transparent" points="198.5,-854 143.5,-854 143.5,-805 198.5,-805 198.5,-854"/>
<text text-anchor="start" x="149" y="-841.5" font-family="Helvetica,sans-Serif" font-size="10.00">unsigned</text>
<text text-anchor="start" x="169.5" y="-826.5" font-family="Helvetica,sans-Serif" font-size="10.00"> </text>
<text text-anchor="start" x="169.5" y="-811.5" font-family="Helvetica,sans-Serif" font-size="10.00"> </text>
<polygon fill="#bfbfbf" stroke="#bfbfbf" points="144,-836.5 144,-836.5 199,-836.5 199,-836.5 144,-836.5"/>
<polygon fill="#bfbfbf" stroke="#bfbfbf" points="144,-821.5 144,-821.5 199,-821.5 199,-821.5 144,-821.5"/>
<polygon fill="none" stroke="#bfbfbf" points="143.5,-805 143.5,-854 198.5,-854 198.5,-805 143.5,-805"/>
</a>
</g>
</g>
<!-- Node11&#45;&gt;Node9 -->
<g id="edge10_Node000009_Node000011" class="edge">
<title>Node11&#45;&gt;Node9</title>
<g id="a_edge10_Node000009_Node000011"><a xlink:title=" ">
<path fill="none" stroke="#63b8ff" d="M171,-804.65C171,-787.31 171,-762.53 171,-737.21"/>
<polygon fill="none" stroke="#63b8ff" points="171,-737.16 167,-731.16 171,-725.16 175,-731.16 171,-737.16"/>
</a>
</g>
<text text-anchor="middle" x="189.5" y="-762.5" font-family="Helvetica,sans-Serif" font-size="10.00" fill="grey"> &#45;mSize</text>
</g>
<!-- Node12 -->
<g id="Node000012" class="node">
<title>Node12</title>
<g id="a_Node000012"><a xlink:title=" ">
<polygon fill="white" stroke="transparent" points="62,-854 0,-854 0,-805 62,-805 62,-854"/>
<text text-anchor="start" x="5" y="-841.5" font-family="Helvetica,sans-Serif" font-size="10.00">VecScatter</text>
<text text-anchor="start" x="29" y="-826.5" font-family="Helvetica,sans-Serif" font-size="10.00"> </text>
<text text-anchor="start" x="29" y="-811.5" font-family="Helvetica,sans-Serif" font-size="10.00"> </text>
<polygon fill="#bfbfbf" stroke="#bfbfbf" points="0,-836.5 0,-836.5 62,-836.5 62,-836.5 0,-836.5"/>
<polygon fill="#bfbfbf" stroke="#bfbfbf" points="0,-821.5 0,-821.5 62,-821.5 62,-821.5 0,-821.5"/>
<polygon fill="none" stroke="#bfbfbf" points="0,-805 0,-854 62,-854 62,-805 0,-805"/>
</a>
</g>
</g>
<!-- Node12&#45;&gt;Node9 -->
<g id="edge11_Node000009_Node000012" class="edge">
<title>Node12&#45;&gt;Node9</title>
<g id="a_edge11_Node000009_Node000012"><a xlink:title=" ">
<path fill="none" stroke="#63b8ff" d="M37.99,-804.83C43.89,-786.98 53.39,-762.35 66,-743 74.57,-729.84 84.87,-716.89 95.61,-704.76"/>
<polygon fill="none" stroke="#63b8ff" points="95.82,-704.53 96.9,-697.4 103.89,-695.66 102.82,-702.79 95.82,-704.53"/>
</a>
</g>
<text text-anchor="middle" x="86" y="-762.5" font-family="Helvetica,sans-Serif" font-size="10.00" fill="grey"> &#45;mToAll</text>
</g>
<!-- Node13 -->
<g id="Node000013" class="node">
<title>Node13</title>
<g id="a_Node000013"><a xlink:title=" ">
<polygon fill="white" stroke="transparent" points="599.5,-410.5 426.5,-410.5 426.5,-350.5 599.5,-350.5 599.5,-410.5"/>
<text text-anchor="start" x="432" y="-398.5" font-family="Helvetica,sans-Serif" font-size="10.00">AbstractTetrahedralMesh</text>
<text text-anchor="start" x="432" y="-387.5" font-family="Helvetica,sans-Serif" font-size="10.00">&lt; ELEMENT_DIM, SPACE_DIM &gt; *</text>
<text text-anchor="start" x="511.5" y="-372.5" font-family="Helvetica,sans-Serif" font-size="10.00"> </text>
<text text-anchor="start" x="511.5" y="-357.5" font-family="Helvetica,sans-Serif" font-size="10.00"> </text>
<polygon fill="#bfbfbf" stroke="#bfbfbf" points="427,-382.5 427,-382.5 600,-382.5 600,-382.5 427,-382.5"/>
<polygon fill="#bfbfbf" stroke="#bfbfbf" points="427,-367.5 427,-367.5 600,-367.5 600,-367.5 427,-367.5"/>
<polygon fill="none" stroke="#bfbfbf" points="426.5,-350.5 426.5,-410.5 599.5,-410.5 599.5,-350.5 426.5,-350.5"/>
</a>
</g>
</g>
<!-- Node13&#45;&gt;Node1 -->
<g id="edge13_Node000001_Node000013" class="edge">
<title>Node13&#45;&gt;Node1</title>
<g id="a_edge13_Node000001_Node000013"><a xlink:title=" ">
<path fill="none" stroke="#63b8ff" d="M513,-350.35C513,-323.99 513,-283.28 513,-243.16"/>
<polygon fill="none" stroke="#63b8ff" points="513,-243.03 509,-237.03 513,-231.03 517,-237.03 513,-243.03"/>
</a>
</g>
<text text-anchor="middle" x="540" y="-252" font-family="Helvetica,sans-Serif" font-size="10.00" fill="grey"> #mpMesh</text>
</g>
<!-- Node14 -->
<g id="Node000014" class="node">
<title>Node14</title>
<g id="a_Node000014"><a xlink:title=" ">
<polygon fill="white" stroke="transparent" points="750,-410.5 618,-410.5 618,-350.5 750,-350.5 750,-410.5"/>
<text text-anchor="start" x="623" y="-398.5" font-family="Helvetica,sans-Serif" font-size="10.00">GaussianQuadratureRule</text>
<text text-anchor="start" x="633" y="-387.5" font-family="Helvetica,sans-Serif" font-size="10.00">&lt; ELEMENT_DIM &gt; *</text>
<text text-anchor="start" x="682" y="-372.5" font-family="Helvetica,sans-Serif" font-size="10.00"> </text>
<text text-anchor="start" x="682" y="-357.5" font-family="Helvetica,sans-Serif" font-size="10.00"> </text>
<polygon fill="#bfbfbf" stroke="#bfbfbf" points="618,-382.5 618,-382.5 750,-382.5 750,-382.5 618,-382.5"/>
<polygon fill="#bfbfbf" stroke="#bfbfbf" points="618,-367.5 618,-367.5 750,-367.5 750,-367.5 618,-367.5"/>
<polygon fill="none" stroke="#bfbfbf" points="618,-350.5 618,-410.5 750,-410.5 750,-350.5 618,-350.5"/>
</a>
</g>
</g>
<!-- Node14&#45;&gt;Node1 -->
<g id="edge14_Node000001_Node000014" class="edge">
<title>Node14&#45;&gt;Node1</title>
<g id="a_edge14_Node000001_Node000014"><a xlink:title=" ">
<path fill="none" stroke="#63b8ff" d="M665.05,-350.35C647.65,-323.6 620.64,-282.05 594.18,-241.35"/>
<polygon fill="none" stroke="#63b8ff" points="594.01,-241.09 587.39,-238.24 587.47,-231.03 594.09,-233.88 594.01,-241.09"/>
</a>
</g>
<text text-anchor="middle" x="640.5" y="-252" font-family="Helvetica,sans-Serif" font-size="10.00" fill="grey"> #mpQuadRule</text>
</g>
</g>
</svg>
