<?xml version="1.0" encoding="UTF-8" standalone="no"?>
<!DOCTYPE svg PUBLIC "-//W3C//DTD SVG 1.1//EN"
 "http://www.w3.org/Graphics/SVG/1.1/DTD/svg11.dtd">
<!-- Generated by graphviz version 2.43.0 (0)
 -->
<!-- Title: AbstractMesh&lt; ELEMENT_DIM, SPACE_DIM &gt;::NodeIterator Pages: 1 -->
<svg width="1300pt" height="1150pt"
 viewBox="0.00 0.00 1300.40 1150.00" xmlns="http://www.w3.org/2000/svg" xmlns:xlink="http://www.w3.org/1999/xlink">
<g id="graph0" class="graph" transform="scale(1 1) rotate(0) translate(4 1146)">
<title>AbstractMesh&lt; ELEMENT_DIM, SPACE_DIM &gt;::NodeIterator</title>
<!-- Node1 -->
<g id="Node000001" class="node">
<title>Node1</title>
<g id="a_Node000001"><a xlink:title=" ">
<polygon fill="#999999" stroke="transparent" points="740.4,-150 564.4,-150 564.4,0 740.4,0 740.4,-150"/>
<text text-anchor="start" x="569.4" y="-138" font-family="Helvetica,sans-Serif" font-size="10.00">AbstractMesh&lt; ELEMENT</text>
<text text-anchor="start" x="569.4" y="-127" font-family="Helvetica,sans-Serif" font-size="10.00">_DIM, SPACE_DIM &gt;::NodeIterator</text>
<text text-anchor="start" x="650.4" y="-112" font-family="Helvetica,sans-Serif" font-size="10.00"> </text>
<text text-anchor="start" x="586.9" y="-97" font-family="Helvetica,sans-Serif" font-size="10.00">+</text>
<text text-anchor="start" x="618.4" y="-97" font-family="Helvetica,sans-Serif" font-size="10.00">operator*()</text>
<text text-anchor="start" x="586.9" y="-82" font-family="Helvetica,sans-Serif" font-size="10.00">+</text>
<text text-anchor="start" x="618.4" y="-82" font-family="Helvetica,sans-Serif" font-size="10.00">operator&#45;&gt;()</text>
<text text-anchor="start" x="586.9" y="-67" font-family="Helvetica,sans-Serif" font-size="10.00">+</text>
<text text-anchor="start" x="618.4" y="-67" font-family="Helvetica,sans-Serif" font-size="10.00">operator!=()</text>
<text text-anchor="start" x="586.9" y="-52" font-family="Helvetica,sans-Serif" font-size="10.00">+</text>
<text text-anchor="start" x="618.4" y="-52" font-family="Helvetica,sans-Serif" font-size="10.00">operator++()</text>
<text text-anchor="start" x="586.9" y="-37" font-family="Helvetica,sans-Serif" font-size="10.00">+</text>
<text text-anchor="start" x="618.4" y="-37" font-family="Helvetica,sans-Serif" font-size="10.00">NodeIterator()</text>
<text text-anchor="start" x="589.4" y="-22" font-family="Helvetica,sans-Serif" font-size="10.00">&#45;</text>
<text text-anchor="start" x="618.4" y="-22" font-family="Helvetica,sans-Serif" font-size="10.00">IsAtEnd()</text>
<text text-anchor="start" x="589.4" y="-7" font-family="Helvetica,sans-Serif" font-size="10.00">&#45;</text>
<text text-anchor="start" x="618.4" y="-7" font-family="Helvetica,sans-Serif" font-size="10.00">IsAllowedNode()</text>
<polygon fill="#666666" stroke="#666666" points="564.4,-122 564.4,-122 740.4,-122 740.4,-122 564.4,-122"/>
<polygon fill="#666666" stroke="#666666" points="564.4,-107 564.4,-107 740.4,-107 740.4,-107 564.4,-107"/>
<polygon fill="none" stroke="#666666" points="564.4,0 564.4,-150 740.4,-150 740.4,0 564.4,0"/>
</a>
</g>
</g>
<!-- Node2 -->
<g id="Node000002" class="node">
<title>Node2</title>
<g id="a_Node000002"><a xlink:href="classAbstractMesh.html" target="_top" xlink:title=" ">
<polygon fill="white" stroke="transparent" points="725.9,-467 578.9,-467 578.9,-197 725.9,-197 725.9,-467"/>
<text text-anchor="start" x="590.9" y="-455" font-family="Helvetica,sans-Serif" font-size="10.00">AbstractMesh&lt; ELEMENT</text>
<text text-anchor="start" x="603.9" y="-444" font-family="Helvetica,sans-Serif" font-size="10.00">_DIM, SPACE_DIM &gt;</text>
<text text-anchor="start" x="650.9" y="-429" font-family="Helvetica,sans-Serif" font-size="10.00"> </text>
<text text-anchor="start" x="583.4" y="-414" font-family="Helvetica,sans-Serif" font-size="10.00">+</text>
<text text-anchor="start" x="596.4" y="-414" font-family="Helvetica,sans-Serif" font-size="10.00">GetNodeIteratorBegin()</text>
<text text-anchor="start" x="583.4" y="-399" font-family="Helvetica,sans-Serif" font-size="10.00">+</text>
<text text-anchor="start" x="596.4" y="-399" font-family="Helvetica,sans-Serif" font-size="10.00">GetNodeIteratorEnd()</text>
<text text-anchor="start" x="583.4" y="-384" font-family="Helvetica,sans-Serif" font-size="10.00">+</text>
<text text-anchor="start" x="596.4" y="-384" font-family="Helvetica,sans-Serif" font-size="10.00">AbstractMesh()</text>
<text text-anchor="start" x="583.4" y="-369" font-family="Helvetica,sans-Serif" font-size="10.00">+</text>
<text text-anchor="start" x="596.4" y="-369" font-family="Helvetica,sans-Serif" font-size="10.00">~AbstractMesh()</text>
<text text-anchor="start" x="583.4" y="-354" font-family="Helvetica,sans-Serif" font-size="10.00">+</text>
<text text-anchor="start" x="596.4" y="-354" font-family="Helvetica,sans-Serif" font-size="10.00">GetNumNodes()</text>
<text text-anchor="start" x="583.4" y="-339" font-family="Helvetica,sans-Serif" font-size="10.00">+</text>
<text text-anchor="start" x="596.4" y="-339" font-family="Helvetica,sans-Serif" font-size="10.00">GetNumBoundaryNodes()</text>
<text text-anchor="start" x="583.4" y="-324" font-family="Helvetica,sans-Serif" font-size="10.00">+</text>
<text text-anchor="start" x="596.4" y="-324" font-family="Helvetica,sans-Serif" font-size="10.00">GetNumAllNodes()</text>
<text text-anchor="start" x="583.4" y="-309" font-family="Helvetica,sans-Serif" font-size="10.00">+</text>
<text text-anchor="start" x="596.4" y="-309" font-family="Helvetica,sans-Serif" font-size="10.00">GetNumNodeAttributes()</text>
<text text-anchor="start" x="583.4" y="-294" font-family="Helvetica,sans-Serif" font-size="10.00">+</text>
<text text-anchor="start" x="596.4" y="-294" font-family="Helvetica,sans-Serif" font-size="10.00">GetNode()</text>
<text text-anchor="start" x="583.4" y="-279" font-family="Helvetica,sans-Serif" font-size="10.00">+</text>
<text text-anchor="start" x="596.4" y="-279" font-family="Helvetica,sans-Serif" font-size="10.00">GetNodeOrHaloNode()</text>
<text text-anchor="start" x="596.4" y="-264" font-family="Helvetica,sans-Serif" font-size="10.00">and 28 more...</text>
<text text-anchor="start" x="583.4" y="-249" font-family="Helvetica,sans-Serif" font-size="10.00">#</text>
<text text-anchor="start" x="596.4" y="-249" font-family="Helvetica,sans-Serif" font-size="10.00">SetElementOwnerships()</text>
<text text-anchor="start" x="583.4" y="-234" font-family="Helvetica,sans-Serif" font-size="10.00">#</text>
<text text-anchor="start" x="596.4" y="-234" font-family="Helvetica,sans-Serif" font-size="10.00">CalculateBoundingBox()</text>
<text text-anchor="start" x="585.9" y="-219" font-family="Helvetica,sans-Serif" font-size="10.00">&#45;</text>
<text text-anchor="start" x="596.4" y="-219" font-family="Helvetica,sans-Serif" font-size="10.00">SolveNodeMapping()</text>
<text text-anchor="start" x="585.9" y="-204" font-family="Helvetica,sans-Serif" font-size="10.00">&#45;</text>
<text text-anchor="start" x="596.4" y="-204" font-family="Helvetica,sans-Serif" font-size="10.00">serialize()</text>
<polygon fill="#666666" stroke="#666666" points="579.4,-439 579.4,-439 726.4,-439 726.4,-439 579.4,-439"/>
<polygon fill="#666666" stroke="#666666" points="579.4,-424 579.4,-424 726.4,-424 726.4,-424 579.4,-424"/>
<polygon fill="none" stroke="#666666" points="578.9,-197 578.9,-467 725.9,-467 725.9,-197 578.9,-197"/>
</a>
</g>
</g>
<!-- Node2&#45;&gt;Node1 -->
<g id="edge1_Node000001_Node000002" class="edge">
<title>Node2&#45;&gt;Node1</title>
<g id="a_edge1_Node000001_Node000002"><a xlink:title=" ">
<path fill="none" stroke="#63b8ff" d="M652.4,-196.78C652.4,-185.1 652.4,-173.49 652.4,-162.35"/>
<polygon fill="none" stroke="#63b8ff" points="652.4,-162 648.4,-156 652.4,-150 656.4,-156 652.4,-162"/>
</a>
</g>
<text text-anchor="middle" x="675.9" y="-171" font-family="Helvetica,sans-Serif" font-size="10.00" fill="grey"> &#45;mrMesh</text>
</g>
<!-- Node3 -->
<g id="Node000003" class="node">
<title>Node3</title>
<g id="a_Node000003"><a xlink:title=" ">
<polygon fill="white" stroke="transparent" points="813.4,-697.5 707.4,-697.5 707.4,-648.5 813.4,-648.5 813.4,-697.5"/>
<text text-anchor="start" x="712.4" y="-685" font-family="Helvetica,sans-Serif" font-size="10.00">boost::noncopyable</text>
<text text-anchor="start" x="758.4" y="-670" font-family="Helvetica,sans-Serif" font-size="10.00"> </text>
<text text-anchor="start" x="758.4" y="-655" font-family="Helvetica,sans-Serif" font-size="10.00"> </text>
<polygon fill="#bfbfbf" stroke="#bfbfbf" points="707.4,-680 707.4,-680 813.4,-680 813.4,-680 707.4,-680"/>
<polygon fill="#bfbfbf" stroke="#bfbfbf" points="707.4,-665 707.4,-665 813.4,-665 813.4,-665 707.4,-665"/>
<polygon fill="none" stroke="#bfbfbf" points="707.4,-648.5 707.4,-697.5 813.4,-697.5 813.4,-648.5 707.4,-648.5"/>
</a>
</g>
</g>
<!-- Node3&#45;&gt;Node2 -->
<g id="edge2_Node000002_Node000003" class="edge">
<title>Node3&#45;&gt;Node2</title>
<g id="a_edge2_Node000002_Node000003"><a xlink:title=" ">
<path fill="none" stroke="#8b1a1a" d="M749.8,-638.72C737.1,-598.87 715.06,-529.67 695.15,-467.18"/>
<polygon fill="none" stroke="#8b1a1a" points="746.52,-639.97 752.89,-648.43 753.19,-637.84 746.52,-639.97"/>
</a>
</g>
</g>
<!-- Node4 -->
<g id="Node000004" class="node">
<title>Node4</title>
<g id="a_Node000004"><a xlink:title=" ">
<polygon fill="white" stroke="transparent" points="206.9,-703 99.9,-703 99.9,-643 206.9,-643 206.9,-703"/>
<text text-anchor="start" x="105.4" y="-691" font-family="Helvetica,sans-Serif" font-size="10.00">std::vector&lt; Node&lt;</text>
<text text-anchor="start" x="108.9" y="-680" font-family="Helvetica,sans-Serif" font-size="10.00"> SPACE_DIM &gt; * &gt;</text>
<text text-anchor="start" x="151.9" y="-665" font-family="Helvetica,sans-Serif" font-size="10.00"> </text>
<text text-anchor="start" x="151.9" y="-650" font-family="Helvetica,sans-Serif" font-size="10.00"> </text>
<polygon fill="#666666" stroke="#666666" points="100.4,-675 100.4,-675 207.4,-675 207.4,-675 100.4,-675"/>
<polygon fill="#666666" stroke="#666666" points="100.4,-660 100.4,-660 207.4,-660 207.4,-660 100.4,-660"/>
<polygon fill="none" stroke="#666666" points="99.9,-643 99.9,-703 206.9,-703 206.9,-643 99.9,-643"/>
</a>
</g>
</g>
<!-- Node4&#45;&gt;Node1 -->
<g id="edge18_Node000001_Node000004" class="edge">
<title>Node4&#45;&gt;Node1</title>
<g id="a_edge18_Node000001_Node000004"><a xlink:title=" ">
<path fill="none" stroke="#63b8ff" d="M146.03,-642.78C137.97,-604.49 129.16,-536.21 153.4,-485 235.92,-310.68 433.16,-185.83 553.48,-122.76"/>
<polygon fill="none" stroke="#63b8ff" points="553.51,-122.75 556.99,-116.44 564.16,-117.22 560.68,-123.54 553.51,-122.75"/>
</a>
</g>
<text text-anchor="middle" x="456.9" y="-329.5" font-family="Helvetica,sans-Serif" font-size="10.00" fill="grey"> &#45;mNodeIter</text>
</g>
<!-- Node4&#45;&gt;Node2 -->
<g id="edge3_Node000002_Node000004" class="edge">
<title>Node4&#45;&gt;Node2</title>
<g id="a_edge3_Node000002_Node000004"><a xlink:title=" ">
<path fill="none" stroke="#63b8ff" d="M146.98,-642.75C139.97,-602.54 134.11,-530.07 170.4,-485 183.2,-469.11 431.87,-396.06 566.89,-357.31"/>
<polygon fill="none" stroke="#63b8ff" points="567.26,-357.2 571.92,-351.7 578.79,-353.9 574.13,-359.39 567.26,-357.2"/>
</a>
</g>
<text text-anchor="middle" x="219.9" y="-499" font-family="Helvetica,sans-Serif" font-size="10.00" fill="grey"> #mBoundaryNodes</text>
<text text-anchor="middle" x="219.9" y="-488" font-family="Helvetica,sans-Serif" font-size="10.00" fill="grey">#mNodes</text>
</g>
<!-- Node5 -->
<g id="Node000005" class="node">
<title>Node5</title>
<g id="a_Node000005"><a xlink:title=" ">
<polygon fill="white" stroke="transparent" points="276.4,-944.5 154.4,-944.5 154.4,-895.5 276.4,-895.5 276.4,-944.5"/>
<text text-anchor="start" x="159.4" y="-932" font-family="Helvetica,sans-Serif" font-size="10.00">Node&lt; SPACE_DIM &gt; *</text>
<text text-anchor="start" x="213.4" y="-917" font-family="Helvetica,sans-Serif" font-size="10.00"> </text>
<text text-anchor="start" x="213.4" y="-902" font-family="Helvetica,sans-Serif" font-size="10.00"> </text>
<polygon fill="#bfbfbf" stroke="#bfbfbf" points="154.4,-927 154.4,-927 276.4,-927 276.4,-927 154.4,-927"/>
<polygon fill="#bfbfbf" stroke="#bfbfbf" points="154.4,-912 154.4,-912 276.4,-912 276.4,-912 154.4,-912"/>
<polygon fill="none" stroke="#bfbfbf" points="154.4,-895.5 154.4,-944.5 276.4,-944.5 276.4,-895.5 154.4,-895.5"/>
</a>
</g>
</g>
<!-- Node5&#45;&gt;Node4 -->
<g id="edge4_Node000004_Node000005" class="edge">
<title>Node5&#45;&gt;Node4</title>
<g id="a_edge4_Node000004_Node000005"><a xlink:title=" ">
<path fill="none" stroke="#63b8ff" d="M209.34,-895.06C198.77,-853.26 176.81,-766.51 163.77,-714.99"/>
<polygon fill="none" stroke="#63b8ff" points="163.76,-714.95 158.41,-710.11 160.82,-703.31 166.17,-708.15 163.76,-714.95"/>
</a>
</g>
<text text-anchor="middle" x="231.4" y="-853" font-family="Helvetica,sans-Serif" font-size="10.00" fill="grey"> +elements</text>
</g>
<!-- Node6 -->
<g id="Node000006" class="node">
<title>Node6</title>
<g id="a_Node000006"><a xlink:title=" ">
<polygon fill="white" stroke="transparent" points="137.9,-1046 46.9,-1046 46.9,-997 137.9,-997 137.9,-1046"/>
<text text-anchor="start" x="52.4" y="-1033.5" font-family="Helvetica,sans-Serif" font-size="10.00">std::vector&lt; T &gt;</text>
<text text-anchor="start" x="90.9" y="-1018.5" font-family="Helvetica,sans-Serif" font-size="10.00"> </text>
<text text-anchor="start" x="90.9" y="-1003.5" font-family="Helvetica,sans-Serif" font-size="10.00"> </text>
<polygon fill="#666666" stroke="#666666" points="47.4,-1028.5 47.4,-1028.5 138.4,-1028.5 138.4,-1028.5 47.4,-1028.5"/>
<polygon fill="#666666" stroke="#666666" points="47.4,-1013.5 47.4,-1013.5 138.4,-1013.5 138.4,-1013.5 47.4,-1013.5"/>
<polygon fill="none" stroke="#666666" points="46.9,-997 46.9,-1046 137.9,-1046 137.9,-997 46.9,-997"/>
</a>
</g>
</g>
<!-- Node6&#45;&gt;Node4 -->
<g id="edge5_Node000004_Node000006" class="edge">
<title>Node6&#45;&gt;Node4</title>
<g id="a_edge5_Node000004_Node000006"><a xlink:title=" ">
<path fill="none" stroke="orange" d="M42.03,-990.71C28.21,-979.79 14.97,-966.1 7.4,-950 -3.94,-925.86 -0.41,-915.5 7.4,-890 30.46,-814.7 89.62,-741.97 125.16,-703.11"/>
<polygon fill="orange" stroke="orange" points="40.09,-993.62 50.19,-996.81 44.28,-988.02 40.09,-993.62"/>
</a>
</g>
<text text-anchor="middle" x="76.4" y="-917.5" font-family="Helvetica,sans-Serif" font-size="10.00" fill="grey"> &lt; Node&lt; SPACE_DIM &gt; * &gt;</text>
</g>
<!-- Node11 -->
<g id="Node000011" class="node">
<title>Node11</title>
<g id="a_Node000011"><a xlink:title=" ">
<polygon fill="white" stroke="transparent" points="441.9,-944.5 312.9,-944.5 312.9,-895.5 441.9,-895.5 441.9,-944.5"/>
<text text-anchor="start" x="318.4" y="-932" font-family="Helvetica,sans-Serif" font-size="10.00">std::vector&lt; unsigned &gt;</text>
<text text-anchor="start" x="375.9" y="-917" font-family="Helvetica,sans-Serif" font-size="10.00"> </text>
<text text-anchor="start" x="375.9" y="-902" font-family="Helvetica,sans-Serif" font-size="10.00"> </text>
<polygon fill="#666666" stroke="#666666" points="313.4,-927 313.4,-927 442.4,-927 442.4,-927 313.4,-927"/>
<polygon fill="#666666" stroke="#666666" points="313.4,-912 313.4,-912 442.4,-912 442.4,-912 313.4,-912"/>
<polygon fill="none" stroke="#666666" points="312.9,-895.5 312.9,-944.5 441.9,-944.5 441.9,-895.5 312.9,-895.5"/>
</a>
</g>
</g>
<!-- Node6&#45;&gt;Node11 -->
<g id="edge12_Node000011_Node000006" class="edge">
<title>Node6&#45;&gt;Node11</title>
<g id="a_edge12_Node000011_Node000006"><a xlink:title=" ">
<path fill="none" stroke="orange" d="M147.66,-1001.21C194.95,-984.7 263.09,-960.91 312.87,-943.53"/>
<polygon fill="orange" stroke="orange" points="146.48,-997.91 138.19,-1004.51 148.79,-1004.52 146.48,-997.91"/>
</a>
</g>
<text text-anchor="middle" x="270.4" y="-971" font-family="Helvetica,sans-Serif" font-size="10.00" fill="grey"> &lt; unsigned &gt;</text>
</g>
<!-- Node7 -->
<g id="Node000007" class="node">
<title>Node7</title>
<g id="a_Node000007"><a xlink:title=" ">
<polygon fill="white" stroke="transparent" points="100.9,-1142 83.9,-1142 83.9,-1093 100.9,-1093 100.9,-1142"/>
<text text-anchor="start" x="89.4" y="-1129.5" font-family="Helvetica,sans-Serif" font-size="10.00">T</text>
<text text-anchor="start" x="90.9" y="-1114.5" font-family="Helvetica,sans-Serif" font-size="10.00"> </text>
<text text-anchor="start" x="90.9" y="-1099.5" font-family="Helvetica,sans-Serif" font-size="10.00"> </text>
<polygon fill="#bfbfbf" stroke="#bfbfbf" points="84.4,-1124.5 84.4,-1124.5 101.4,-1124.5 101.4,-1124.5 84.4,-1124.5"/>
<polygon fill="#bfbfbf" stroke="#bfbfbf" points="84.4,-1109.5 84.4,-1109.5 101.4,-1109.5 101.4,-1109.5 84.4,-1109.5"/>
<polygon fill="none" stroke="#bfbfbf" points="83.9,-1093 83.9,-1142 100.9,-1142 100.9,-1093 83.9,-1093"/>
</a>
</g>
</g>
<!-- Node7&#45;&gt;Node6 -->
<g id="edge6_Node000006_Node000007" class="edge">
<title>Node7&#45;&gt;Node6</title>
<g id="a_edge6_Node000006_Node000007"><a xlink:title=" ">
<path fill="none" stroke="#63b8ff" d="M92.4,-1092.78C92.4,-1082.32 92.4,-1069.79 92.4,-1058.23"/>
<polygon fill="none" stroke="#63b8ff" points="92.4,-1058.21 88.4,-1052.21 92.4,-1046.21 96.4,-1052.21 92.4,-1058.21"/>
</a>
</g>
<text text-anchor="middle" x="121.4" y="-1067" font-family="Helvetica,sans-Serif" font-size="10.00" fill="grey"> +elements</text>
</g>
<!-- Node8 -->
<g id="Node000008" class="node">
<title>Node8</title>
<g id="a_Node000008"><a xlink:href="classDistributedVectorFactory.html" target="_top" xlink:title=" ">
<polygon fill="white" stroke="transparent" points="574.4,-821 408.4,-821 408.4,-525 574.4,-525 574.4,-821"/>
<text text-anchor="start" x="430.9" y="-809" font-family="Helvetica,sans-Serif" font-size="10.00">DistributedVectorFactory</text>
<text text-anchor="start" x="489.4" y="-794" font-family="Helvetica,sans-Serif" font-size="10.00"> </text>
<text text-anchor="start" x="412.4" y="-779" font-family="Helvetica,sans-Serif" font-size="10.00">+</text>
<text text-anchor="start" x="425.4" y="-779" font-family="Helvetica,sans-Serif" font-size="10.00">DistributedVectorFactory()</text>
<text text-anchor="start" x="412.4" y="-764" font-family="Helvetica,sans-Serif" font-size="10.00">+</text>
<text text-anchor="start" x="425.4" y="-764" font-family="Helvetica,sans-Serif" font-size="10.00">DistributedVectorFactory()</text>
<text text-anchor="start" x="412.4" y="-749" font-family="Helvetica,sans-Serif" font-size="10.00">+</text>
<text text-anchor="start" x="425.4" y="-749" font-family="Helvetica,sans-Serif" font-size="10.00">DistributedVectorFactory()</text>
<text text-anchor="start" x="412.4" y="-734" font-family="Helvetica,sans-Serif" font-size="10.00">+</text>
<text text-anchor="start" x="425.4" y="-734" font-family="Helvetica,sans-Serif" font-size="10.00">DistributedVectorFactory()</text>
<text text-anchor="start" x="412.4" y="-719" font-family="Helvetica,sans-Serif" font-size="10.00">+</text>
<text text-anchor="start" x="425.4" y="-719" font-family="Helvetica,sans-Serif" font-size="10.00">~DistributedVectorFactory()</text>
<text text-anchor="start" x="412.4" y="-704" font-family="Helvetica,sans-Serif" font-size="10.00">+</text>
<text text-anchor="start" x="425.4" y="-704" font-family="Helvetica,sans-Serif" font-size="10.00">CreateVec()</text>
<text text-anchor="start" x="412.4" y="-689" font-family="Helvetica,sans-Serif" font-size="10.00">+</text>
<text text-anchor="start" x="425.4" y="-689" font-family="Helvetica,sans-Serif" font-size="10.00">CreateVec()</text>
<text text-anchor="start" x="412.4" y="-674" font-family="Helvetica,sans-Serif" font-size="10.00">+</text>
<text text-anchor="start" x="425.4" y="-674" font-family="Helvetica,sans-Serif" font-size="10.00">CreateDistributedVector()</text>
<text text-anchor="start" x="412.4" y="-659" font-family="Helvetica,sans-Serif" font-size="10.00">+</text>
<text text-anchor="start" x="425.4" y="-659" font-family="Helvetica,sans-Serif" font-size="10.00">IsGlobalIndexLocal()</text>
<text text-anchor="start" x="412.4" y="-644" font-family="Helvetica,sans-Serif" font-size="10.00">+</text>
<text text-anchor="start" x="425.4" y="-644" font-family="Helvetica,sans-Serif" font-size="10.00">GetLocalOwnership()</text>
<text text-anchor="start" x="425.4" y="-629" font-family="Helvetica,sans-Serif" font-size="10.00">and 8 more...</text>
<text text-anchor="start" x="412.4" y="-614" font-family="Helvetica,sans-Serif" font-size="10.00">+</text>
<text text-anchor="start" x="425.4" y="-614" font-family="Helvetica,sans-Serif" font-size="10.00">SetCheckNumberOfProcesses</text>
<text text-anchor="start" x="425.4" y="-603" font-family="Helvetica,sans-Serif" font-size="10.00">OnLoad()</text>
<text text-anchor="start" x="412.4" y="-588" font-family="Helvetica,sans-Serif" font-size="10.00">+</text>
<text text-anchor="start" x="425.4" y="-588" font-family="Helvetica,sans-Serif" font-size="10.00">CheckNumberOfProcessesOn</text>
<text text-anchor="start" x="425.4" y="-577" font-family="Helvetica,sans-Serif" font-size="10.00">Load()</text>
<text text-anchor="start" x="414.9" y="-562" font-family="Helvetica,sans-Serif" font-size="10.00">&#45;</text>
<text text-anchor="start" x="425.4" y="-562" font-family="Helvetica,sans-Serif" font-size="10.00">CheckForPetsc()</text>
<text text-anchor="start" x="414.9" y="-547" font-family="Helvetica,sans-Serif" font-size="10.00">&#45;</text>
<text text-anchor="start" x="425.4" y="-547" font-family="Helvetica,sans-Serif" font-size="10.00">CalculateOwnership()</text>
<text text-anchor="start" x="414.9" y="-532" font-family="Helvetica,sans-Serif" font-size="10.00">&#45;</text>
<text text-anchor="start" x="425.4" y="-532" font-family="Helvetica,sans-Serif" font-size="10.00">serialize()</text>
<polygon fill="#666666" stroke="#666666" points="408.4,-804 408.4,-804 574.4,-804 574.4,-804 408.4,-804"/>
<polygon fill="#666666" stroke="#666666" points="408.4,-789 408.4,-789 574.4,-789 574.4,-789 408.4,-789"/>
<polygon fill="none" stroke="#666666" points="408.4,-525 408.4,-821 574.4,-821 574.4,-525 408.4,-525"/>
</a>
</g>
</g>
<!-- Node8&#45;&gt;Node2 -->
<g id="edge7_Node000002_Node000008" class="edge">
<title>Node8&#45;&gt;Node2</title>
<g id="a_edge7_Node000002_Node000008"><a xlink:title=" ">
<path fill="none" stroke="#63b8ff" d="M534.45,-524.51C539.68,-510.96 545.34,-497.6 551.4,-485 557.57,-472.17 564.69,-459.17 572.23,-446.44"/>
<polygon fill="none" stroke="#63b8ff" points="572.44,-446.1 572.12,-438.89 578.65,-435.83 578.96,-443.03 572.44,-446.1"/>
</a>
</g>
<text text-anchor="middle" x="625.4" y="-493.5" font-family="Helvetica,sans-Serif" font-size="10.00" fill="grey"> #mpDistributedVectorFactory</text>
</g>
<!-- Node8&#45;&gt;Node8 -->
<g id="edge13_Node000008_Node000008" class="edge">
<title>Node8&#45;&gt;Node8</title>
<g id="a_edge13_Node000008_Node000008"><a xlink:title=" ">
<path fill="none" stroke="#63b8ff" d="M574.61,-701.92C585.32,-696.91 592.4,-687.27 592.4,-673 592.4,-663.86 589.5,-656.62 584.59,-651.28"/>
<polygon fill="none" stroke="#63b8ff" points="584.34,-651.1 577.14,-650.83 574.61,-644.08 581.82,-644.34 584.34,-651.1"/>
</a>
</g>
<text text-anchor="middle" x="640.9" y="-670.5" font-family="Helvetica,sans-Serif" font-size="10.00" fill="grey"> &#45;mpOriginalFactory</text>
</g>
<!-- Node9 -->
<g id="Node000009" class="node">
<title>Node9</title>
<g id="a_Node000009"><a xlink:href="classunsigned.html" target="_top" xlink:title=" ">
<polygon fill="white" stroke="transparent" points="477.9,-1046 422.9,-1046 422.9,-997 477.9,-997 477.9,-1046"/>
<text text-anchor="start" x="428.4" y="-1033.5" font-family="Helvetica,sans-Serif" font-size="10.00">unsigned</text>
<text text-anchor="start" x="448.9" y="-1018.5" font-family="Helvetica,sans-Serif" font-size="10.00"> </text>
<text text-anchor="start" x="448.9" y="-1003.5" font-family="Helvetica,sans-Serif" font-size="10.00"> </text>
<polygon fill="#bfbfbf" stroke="#bfbfbf" points="423.4,-1028.5 423.4,-1028.5 478.4,-1028.5 478.4,-1028.5 423.4,-1028.5"/>
<polygon fill="#bfbfbf" stroke="#bfbfbf" points="423.4,-1013.5 423.4,-1013.5 478.4,-1013.5 478.4,-1013.5 423.4,-1013.5"/>
<polygon fill="none" stroke="#bfbfbf" points="422.9,-997 422.9,-1046 477.9,-1046 477.9,-997 422.9,-997"/>
</a>
</g>
</g>
<!-- Node9&#45;&gt;Node8 -->
<g id="edge8_Node000008_Node000009" class="edge">
<title>Node9&#45;&gt;Node8</title>
<g id="a_edge8_Node000008_Node000009"><a xlink:title=" ">
<path fill="none" stroke="#63b8ff" d="M465.93,-996.72C468.92,-991.11 471.66,-985.01 473.4,-979 486.83,-932.74 492.99,-880.93 495.36,-833.32"/>
<polygon fill="none" stroke="#63b8ff" points="495.36,-833.3 491.63,-827.13 495.88,-821.31 499.62,-827.48 495.36,-833.3"/>
</a>
</g>
<text text-anchor="middle" x="527.9" y="-934" font-family="Helvetica,sans-Serif" font-size="10.00" fill="grey"> &#45;mHi</text>
<text text-anchor="middle" x="527.9" y="-923" font-family="Helvetica,sans-Serif" font-size="10.00" fill="grey">&#45;mLo</text>
<text text-anchor="middle" x="527.9" y="-912" font-family="Helvetica,sans-Serif" font-size="10.00" fill="grey">&#45;mNumProcs</text>
<text text-anchor="middle" x="527.9" y="-901" font-family="Helvetica,sans-Serif" font-size="10.00" fill="grey">&#45;mProblemSize</text>
</g>
<!-- Node9&#45;&gt;Node11 -->
<g id="edge11_Node000011_Node000009" class="edge">
<title>Node9&#45;&gt;Node11</title>
<g id="a_edge11_Node000011_Node000009"><a xlink:title=" ">
<path fill="none" stroke="#63b8ff" d="M429.54,-996.76C424.76,-991.05 419.79,-984.9 415.4,-979 409.7,-971.35 403.89,-962.87 398.58,-954.82"/>
<polygon fill="none" stroke="#63b8ff" points="398.47,-954.65 391.85,-951.79 391.94,-944.58 398.56,-947.44 398.47,-954.65"/>
</a>
</g>
<text text-anchor="middle" x="444.4" y="-971" font-family="Helvetica,sans-Serif" font-size="10.00" fill="grey"> +elements</text>
</g>
<!-- Node10 -->
<g id="Node000010" class="node">
<title>Node10</title>
<g id="a_Node000010"><a xlink:href="classbool.html" target="_top" xlink:title=" ">
<polygon fill="white" stroke="transparent" points="865.4,-944.5 833.4,-944.5 833.4,-895.5 865.4,-895.5 865.4,-944.5"/>
<text text-anchor="start" x="838.4" y="-932" font-family="Helvetica,sans-Serif" font-size="10.00">bool</text>
<text text-anchor="start" x="847.4" y="-917" font-family="Helvetica,sans-Serif" font-size="10.00"> </text>
<text text-anchor="start" x="847.4" y="-902" font-family="Helvetica,sans-Serif" font-size="10.00"> </text>
<polygon fill="#bfbfbf" stroke="#bfbfbf" points="833.4,-927 833.4,-927 865.4,-927 865.4,-927 833.4,-927"/>
<polygon fill="#bfbfbf" stroke="#bfbfbf" points="833.4,-912 833.4,-912 865.4,-912 865.4,-912 833.4,-912"/>
<polygon fill="none" stroke="#bfbfbf" points="833.4,-895.5 833.4,-944.5 865.4,-944.5 865.4,-895.5 833.4,-895.5"/>
</a>
</g>
</g>
<!-- Node10&#45;&gt;Node1 -->
<g id="edge19_Node000001_Node000010" class="edge">
<title>Node10&#45;&gt;Node1</title>
<g id="a_edge19_Node000001_Node000010"><a xlink:title=" ">
<path fill="none" stroke="#63b8ff" d="M865.62,-916.33C903.89,-909.05 999.52,-884.96 1038.4,-821 1106.74,-708.59 1084.13,-648.35 1038.4,-525 981.08,-370.39 844.04,-233.25 749.69,-152.39"/>
<polygon fill="none" stroke="#63b8ff" points="749.55,-152.27 742.39,-151.43 740.41,-144.5 747.57,-145.34 749.55,-152.27"/>
</a>
</g>
<text text-anchor="middle" x="1082.9" y="-493.5" font-family="Helvetica,sans-Serif" font-size="10.00" fill="grey"> &#45;mSkipDeletedNodes</text>
</g>
<!-- Node10&#45;&gt;Node2 -->
<g id="edge17_Node000002_Node000010" class="edge">
<title>Node10&#45;&gt;Node2</title>
<g id="a_edge17_Node000002_Node000010"><a xlink:title=" ">
<path fill="none" stroke="#63b8ff" d="M852.9,-895.15C861.12,-831.87 877.09,-655.6 822.4,-525 803.14,-479.01 768.2,-436.51 734.98,-403.25"/>
<polygon fill="none" stroke="#63b8ff" points="734.69,-402.97 727.61,-401.62 726.13,-394.56 733.21,-395.91 734.69,-402.97"/>
</a>
</g>
<text text-anchor="middle" x="949.9" y="-670.5" font-family="Helvetica,sans-Serif" font-size="10.00" fill="grey"> #mMeshChangesDuringSimulation</text>
</g>
<!-- Node10&#45;&gt;Node8 -->
<g id="edge9_Node000008_Node000010" class="edge">
<title>Node10&#45;&gt;Node8</title>
<g id="a_edge9_Node000008_Node000010"><a xlink:title=" ">
<path fill="none" stroke="#63b8ff" d="M833.15,-917.04C802.69,-912.81 735.73,-900.74 687.4,-872 649.3,-849.35 613.37,-817.54 582.93,-786.04"/>
<polygon fill="none" stroke="#63b8ff" points="582.76,-785.87 575.73,-784.28 574.49,-777.17 581.52,-778.76 582.76,-785.87"/>
</a>
</g>
<text text-anchor="middle" x="761.4" y="-864" font-family="Helvetica,sans-Serif" font-size="10.00" fill="grey"> &#45;mPetscStatusKnown</text>
<text text-anchor="start" x="687.4" y="-853" font-family="Helvetica,sans-Serif" font-size="10.00" fill="grey">&#45;msCheckNumberOfProcesses</text>
<text text-anchor="middle" x="761.4" y="-842" font-family="Helvetica,sans-Serif" font-size="10.00" fill="grey">OnLoad</text>
</g>
<!-- Node11&#45;&gt;Node2 -->
<g id="edge14_Node000002_Node000011" class="edge">
<title>Node11&#45;&gt;Node2</title>
<g id="a_edge14_Node000002_Node000011"><a xlink:title=" ">
<path fill="none" stroke="#63b8ff" d="M348.08,-895.45C328.16,-877.46 303.51,-850.75 292.4,-821 246.4,-697.75 224.72,-637.81 292.4,-525 351.63,-426.28 480.76,-375.52 567.16,-351.62"/>
<polygon fill="none" stroke="#63b8ff" points="567.2,-351.6 571.96,-346.18 578.79,-348.49 574.04,-353.91 567.2,-351.6"/>
</a>
</g>
<text text-anchor="middle" x="345.9" y="-670.5" font-family="Helvetica,sans-Serif" font-size="10.00" fill="grey"> #mNodePermutation</text>
</g>
<!-- Node11&#45;&gt;Node8 -->
<g id="edge10_Node000008_Node000011" class="edge">
<title>Node11&#45;&gt;Node8</title>
<g id="a_edge10_Node000008_Node000011"><a xlink:title=" ">
<path fill="none" stroke="#63b8ff" d="M382.7,-895.43C386.69,-879.24 392.78,-857.43 400.4,-839 401.38,-836.64 402.38,-834.27 403.4,-831.89"/>
<polygon fill="none" stroke="#63b8ff" points="403.49,-831.69 402.26,-824.58 408.35,-820.72 409.58,-827.83 403.49,-831.69"/>
</a>
</g>
<text text-anchor="middle" x="436.9" y="-853" font-family="Helvetica,sans-Serif" font-size="10.00" fill="grey"> &#45;mGlobalLows</text>
</g>
<!-- Node12 -->
<g id="Node000012" class="node">
<title>Node12</title>
<g id="a_Node000012"><a xlink:title=" ">
<polygon fill="white" stroke="transparent" points="1211.9,-697.5 1152.9,-697.5 1152.9,-648.5 1211.9,-648.5 1211.9,-697.5"/>
<text text-anchor="start" x="1158.4" y="-685" font-family="Helvetica,sans-Serif" font-size="10.00">std::string</text>
<text text-anchor="start" x="1180.9" y="-670" font-family="Helvetica,sans-Serif" font-size="10.00"> </text>
<text text-anchor="start" x="1180.9" y="-655" font-family="Helvetica,sans-Serif" font-size="10.00"> </text>
<polygon fill="#666666" stroke="#666666" points="1153.4,-680 1153.4,-680 1212.4,-680 1212.4,-680 1153.4,-680"/>
<polygon fill="#666666" stroke="#666666" points="1153.4,-665 1153.4,-665 1212.4,-665 1212.4,-665 1153.4,-665"/>
<polygon fill="none" stroke="#666666" points="1152.9,-648.5 1152.9,-697.5 1211.9,-697.5 1211.9,-648.5 1152.9,-648.5"/>
</a>
</g>
</g>
<!-- Node12&#45;&gt;Node2 -->
<g id="edge15_Node000002_Node000012" class="edge">
<title>Node12&#45;&gt;Node2</title>
<g id="a_edge15_Node000002_Node000012"><a xlink:title=" ">
<path fill="none" stroke="#63b8ff" d="M1187.09,-648.46C1193.37,-609.6 1199.61,-531.68 1160.4,-485 1106,-420.23 867.94,-370.13 737.92,-347.01"/>
<polygon fill="none" stroke="#63b8ff" points="737.89,-347 731.29,-349.9 726.07,-344.92 732.68,-342.02 737.89,-347"/>
</a>
</g>
<text text-anchor="middle" x="1233.4" y="-493.5" font-family="Helvetica,sans-Serif" font-size="10.00" fill="grey"> #mMeshFileBaseName</text>
</g>
<!-- Node13 -->
<g id="Node000013" class="node">
<title>Node13</title>
<g id="a_Node000013"><a xlink:title=" ">
<polygon fill="white" stroke="transparent" points="1231.4,-950 1133.4,-950 1133.4,-890 1231.4,-890 1231.4,-950"/>
<text text-anchor="start" x="1138.4" y="-938" font-family="Helvetica,sans-Serif" font-size="10.00">std::basic_string&lt;</text>
<text text-anchor="start" x="1163.9" y="-927" font-family="Helvetica,sans-Serif" font-size="10.00"> Char &gt;</text>
<text text-anchor="start" x="1180.4" y="-912" font-family="Helvetica,sans-Serif" font-size="10.00"> </text>
<text text-anchor="start" x="1180.4" y="-897" font-family="Helvetica,sans-Serif" font-size="10.00"> </text>
<polygon fill="#666666" stroke="#666666" points="1133.4,-922 1133.4,-922 1231.4,-922 1231.4,-922 1133.4,-922"/>
<polygon fill="#666666" stroke="#666666" points="1133.4,-907 1133.4,-907 1231.4,-907 1231.4,-907 1133.4,-907"/>
<polygon fill="none" stroke="#666666" points="1133.4,-890 1133.4,-950 1231.4,-950 1231.4,-890 1133.4,-890"/>
</a>
</g>
</g>
<!-- Node13&#45;&gt;Node12 -->
<g id="edge16_Node000012_Node000013" class="edge">
<title>Node13&#45;&gt;Node12</title>
<g id="a_edge16_Node000012_Node000013"><a xlink:title=" ">
<path fill="none" stroke="#63b8ff" d="M1182.4,-879.86C1182.4,-828.43 1182.4,-739.71 1182.4,-697.56"/>
<polygon fill="none" stroke="#63b8ff" points="1178.9,-879.93 1182.4,-889.93 1185.9,-879.93 1178.9,-879.93"/>
</a>
</g>
</g>
</g>
</svg>
