<?xml version="1.0" encoding="UTF-8" standalone="no"?>
<!DOCTYPE svg PUBLIC "-//W3C//DTD SVG 1.1//EN"
 "http://www.w3.org/Graphics/SVG/1.1/DTD/svg11.dtd">
<!-- Generated by graphviz version 2.43.0 (0)
 -->
<!-- Title: ExecutableSupport Pages: 1 -->
<svg width="312pt" height="784pt"
 viewBox="0.00 0.00 311.50 784.00" xmlns="http://www.w3.org/2000/svg" xmlns:xlink="http://www.w3.org/1999/xlink">
<g id="graph0" class="graph" transform="scale(1 1) rotate(0) translate(4 780)">
<title>ExecutableSupport</title>
<!-- Node1 -->
<g id="Node000001" class="node">
<title>Node1</title>
<g id="a_Node000001"><a xlink:title=" ">
<polygon fill="#999999" stroke="transparent" points="191,-214 0,-214 0,0 191,0 191,-214"/>
<text text-anchor="start" x="50.5" y="-202" font-family="Helvetica,sans-Serif" font-size="10.00">ExecutableSupport</text>
<text text-anchor="start" x="94" y="-187" font-family="Helvetica,sans-Serif" font-size="10.00"> </text>
<text text-anchor="start" x="4.5" y="-172" font-family="Helvetica,sans-Serif" font-size="10.00">+</text>
<text text-anchor="start" x="17.5" y="-172" font-family="Helvetica,sans-Serif" font-size="10.00">InitializePetsc()</text>
<text text-anchor="start" x="4.5" y="-157" font-family="Helvetica,sans-Serif" font-size="10.00">+</text>
<text text-anchor="start" x="17.5" y="-157" font-family="Helvetica,sans-Serif" font-size="10.00">ShowCopyright()</text>
<text text-anchor="start" x="4.5" y="-142" font-family="Helvetica,sans-Serif" font-size="10.00">+</text>
<text text-anchor="start" x="17.5" y="-142" font-family="Helvetica,sans-Serif" font-size="10.00">ShowParallelLaunching()</text>
<text text-anchor="start" x="4.5" y="-127" font-family="Helvetica,sans-Serif" font-size="10.00">+</text>
<text text-anchor="start" x="17.5" y="-127" font-family="Helvetica,sans-Serif" font-size="10.00">SetOutputDirectory()</text>
<text text-anchor="start" x="4.5" y="-112" font-family="Helvetica,sans-Serif" font-size="10.00">+</text>
<text text-anchor="start" x="17.5" y="-112" font-family="Helvetica,sans-Serif" font-size="10.00">WriteMachineInfoFile()</text>
<text text-anchor="start" x="4.5" y="-97" font-family="Helvetica,sans-Serif" font-size="10.00">+</text>
<text text-anchor="start" x="17.5" y="-97" font-family="Helvetica,sans-Serif" font-size="10.00">WriteProvenanceInfoFile()</text>
<text text-anchor="start" x="4.5" y="-82" font-family="Helvetica,sans-Serif" font-size="10.00">+</text>
<text text-anchor="start" x="17.5" y="-82" font-family="Helvetica,sans-Serif" font-size="10.00">GetBuildInfo()</text>
<text text-anchor="start" x="4.5" y="-67" font-family="Helvetica,sans-Serif" font-size="10.00">+</text>
<text text-anchor="start" x="17.5" y="-67" font-family="Helvetica,sans-Serif" font-size="10.00">StandardStartup()</text>
<text text-anchor="start" x="4.5" y="-52" font-family="Helvetica,sans-Serif" font-size="10.00">+</text>
<text text-anchor="start" x="17.5" y="-52" font-family="Helvetica,sans-Serif" font-size="10.00">StartupWithoutShowingCopyright()</text>
<text text-anchor="start" x="4.5" y="-37" font-family="Helvetica,sans-Serif" font-size="10.00">+</text>
<text text-anchor="start" x="17.5" y="-37" font-family="Helvetica,sans-Serif" font-size="10.00">PrintError()</text>
<text text-anchor="start" x="4.5" y="-22" font-family="Helvetica,sans-Serif" font-size="10.00">+</text>
<text text-anchor="start" x="17.5" y="-22" font-family="Helvetica,sans-Serif" font-size="10.00">Print()</text>
<text text-anchor="start" x="4.5" y="-7" font-family="Helvetica,sans-Serif" font-size="10.00">+</text>
<text text-anchor="start" x="17.5" y="-7" font-family="Helvetica,sans-Serif" font-size="10.00">FinalizePetsc()</text>
<polygon fill="#666666" stroke="#666666" points="0.5,-197 0.5,-197 191.5,-197 191.5,-197 0.5,-197"/>
<polygon fill="#666666" stroke="#666666" points="0.5,-182 0.5,-182 191.5,-182 191.5,-182 0.5,-182"/>
<polygon fill="none" stroke="#666666" points="0,0 0,-214 191,-214 191,0 0,0"/>
</a>
</g>
</g>
<!-- Node2 -->
<g id="Node000002" class="node">
<title>Node2</title>
<g id="a_Node000002"><a xlink:title=" ">
<polygon fill="white" stroke="transparent" points="32,-452 9,-452 9,-403 32,-403 32,-452"/>
<text text-anchor="start" x="14.5" y="-439.5" font-family="Helvetica,sans-Serif" font-size="10.00">int</text>
<text text-anchor="start" x="19" y="-424.5" font-family="Helvetica,sans-Serif" font-size="10.00"> </text>
<text text-anchor="start" x="19" y="-409.5" font-family="Helvetica,sans-Serif" font-size="10.00"> </text>
<polygon fill="#bfbfbf" stroke="#bfbfbf" points="9.5,-434.5 9.5,-434.5 32.5,-434.5 32.5,-434.5 9.5,-434.5"/>
<polygon fill="#bfbfbf" stroke="#bfbfbf" points="9.5,-419.5 9.5,-419.5 32.5,-419.5 32.5,-419.5 9.5,-419.5"/>
<polygon fill="none" stroke="#bfbfbf" points="9,-403 9,-452 32,-452 32,-403 9,-403"/>
</a>
</g>
</g>
<!-- Node2&#45;&gt;Node1 -->
<g id="edge1_Node000001_Node000002" class="edge">
<title>Node2&#45;&gt;Node1</title>
<g id="a_edge1_Node000001_Node000002"><a xlink:title=" ">
<path fill="none" stroke="#63b8ff" d="M16.7,-402.9C11.57,-365.74 4.88,-291.69 21.5,-232 22.09,-229.87 22.73,-227.75 23.41,-225.62"/>
<polygon fill="none" stroke="#63b8ff" points="23.42,-225.6 21.67,-218.61 27.45,-214.29 29.2,-221.29 23.42,-225.6"/>
</a>
</g>
<text text-anchor="middle" x="85.5" y="-257" font-family="Helvetica,sans-Serif" font-size="10.00" fill="grey"> +EXIT_BAD_ARGUMENTS</text>
<text text-anchor="middle" x="85.5" y="-246" font-family="Helvetica,sans-Serif" font-size="10.00" fill="grey">+EXIT_ERROR</text>
<text text-anchor="middle" x="85.5" y="-235" font-family="Helvetica,sans-Serif" font-size="10.00" fill="grey">+EXIT_OK</text>
</g>
<!-- Node3 -->
<g id="Node000003" class="node">
<title>Node3</title>
<g id="a_Node000003"><a xlink:href="classFileFinder.html" target="_top" xlink:title=" ">
<polygon fill="white" stroke="transparent" points="264.5,-572 78.5,-572 78.5,-283 264.5,-283 264.5,-572"/>
<text text-anchor="start" x="147.5" y="-559.5" font-family="Helvetica,sans-Serif" font-size="10.00">FileFinder</text>
<text text-anchor="start" x="169.5" y="-544.5" font-family="Helvetica,sans-Serif" font-size="10.00"> </text>
<text text-anchor="start" x="82.5" y="-529.5" font-family="Helvetica,sans-Serif" font-size="10.00">+</text>
<text text-anchor="start" x="95.5" y="-529.5" font-family="Helvetica,sans-Serif" font-size="10.00">FileFinder()</text>
<text text-anchor="start" x="82.5" y="-514.5" font-family="Helvetica,sans-Serif" font-size="10.00">+</text>
<text text-anchor="start" x="95.5" y="-514.5" font-family="Helvetica,sans-Serif" font-size="10.00">FileFinder()</text>
<text text-anchor="start" x="82.5" y="-499.5" font-family="Helvetica,sans-Serif" font-size="10.00">+</text>
<text text-anchor="start" x="95.5" y="-499.5" font-family="Helvetica,sans-Serif" font-size="10.00">FileFinder()</text>
<text text-anchor="start" x="82.5" y="-484.5" font-family="Helvetica,sans-Serif" font-size="10.00">+</text>
<text text-anchor="start" x="95.5" y="-484.5" font-family="Helvetica,sans-Serif" font-size="10.00">FileFinder()</text>
<text text-anchor="start" x="82.5" y="-469.5" font-family="Helvetica,sans-Serif" font-size="10.00">+</text>
<text text-anchor="start" x="95.5" y="-469.5" font-family="Helvetica,sans-Serif" font-size="10.00">~FileFinder()</text>
<text text-anchor="start" x="82.5" y="-454.5" font-family="Helvetica,sans-Serif" font-size="10.00">+</text>
<text text-anchor="start" x="95.5" y="-454.5" font-family="Helvetica,sans-Serif" font-size="10.00">SetPath()</text>
<text text-anchor="start" x="82.5" y="-439.5" font-family="Helvetica,sans-Serif" font-size="10.00">+</text>
<text text-anchor="start" x="95.5" y="-439.5" font-family="Helvetica,sans-Serif" font-size="10.00">SetPath()</text>
<text text-anchor="start" x="82.5" y="-424.5" font-family="Helvetica,sans-Serif" font-size="10.00">+</text>
<text text-anchor="start" x="95.5" y="-424.5" font-family="Helvetica,sans-Serif" font-size="10.00">IsPathSet()</text>
<text text-anchor="start" x="82.5" y="-409.5" font-family="Helvetica,sans-Serif" font-size="10.00">+</text>
<text text-anchor="start" x="95.5" y="-409.5" font-family="Helvetica,sans-Serif" font-size="10.00">Exists()</text>
<text text-anchor="start" x="82.5" y="-394.5" font-family="Helvetica,sans-Serif" font-size="10.00">+</text>
<text text-anchor="start" x="95.5" y="-394.5" font-family="Helvetica,sans-Serif" font-size="10.00">IsFile()</text>
<text text-anchor="start" x="95.5" y="-379.5" font-family="Helvetica,sans-Serif" font-size="10.00">and 14 more...</text>
<text text-anchor="start" x="82.5" y="-364.5" font-family="Helvetica,sans-Serif" font-size="10.00">+</text>
<text text-anchor="start" x="95.5" y="-364.5" font-family="Helvetica,sans-Serif" font-size="10.00">IsAbsolutePath()</text>
<text text-anchor="start" x="82.5" y="-349.5" font-family="Helvetica,sans-Serif" font-size="10.00">+</text>
<text text-anchor="start" x="95.5" y="-349.5" font-family="Helvetica,sans-Serif" font-size="10.00">ReplaceSpacesWithUnderscores()</text>
<text text-anchor="start" x="82.5" y="-334.5" font-family="Helvetica,sans-Serif" font-size="10.00">+</text>
<text text-anchor="start" x="95.5" y="-334.5" font-family="Helvetica,sans-Serif" font-size="10.00">ReplaceUnderscoresWithSpaces()</text>
<text text-anchor="start" x="82.5" y="-319.5" font-family="Helvetica,sans-Serif" font-size="10.00">+</text>
<text text-anchor="start" x="95.5" y="-319.5" font-family="Helvetica,sans-Serif" font-size="10.00">FakePath()</text>
<text text-anchor="start" x="82.5" y="-304.5" font-family="Helvetica,sans-Serif" font-size="10.00">+</text>
<text text-anchor="start" x="95.5" y="-304.5" font-family="Helvetica,sans-Serif" font-size="10.00">StopFaking()</text>
<text text-anchor="start" x="85" y="-289.5" font-family="Helvetica,sans-Serif" font-size="10.00">&#45;</text>
<text text-anchor="start" x="95.5" y="-289.5" font-family="Helvetica,sans-Serif" font-size="10.00">PrivateRemove()</text>
<polygon fill="#666666" stroke="#666666" points="78.5,-554.5 78.5,-554.5 264.5,-554.5 264.5,-554.5 78.5,-554.5"/>
<polygon fill="#666666" stroke="#666666" points="78.5,-539.5 78.5,-539.5 264.5,-539.5 264.5,-539.5 78.5,-539.5"/>
<polygon fill="none" stroke="#666666" points="78.5,-283 78.5,-572 264.5,-572 264.5,-283 78.5,-283"/>
</a>
</g>
</g>
<!-- Node3&#45;&gt;Node1 -->
<g id="edge2_Node000001_Node000003" class="edge">
<title>Node3&#45;&gt;Node1</title>
<g id="a_edge2_Node000001_Node000003"><a xlink:title=" ">
<path fill="none" stroke="#63b8ff" d="M160.19,-282.98C157.38,-265.66 153.87,-248.33 149.5,-232 148.93,-229.88 148.33,-227.75 147.71,-225.61"/>
<polygon fill="none" stroke="#63b8ff" points="147.7,-225.59 142.09,-221.06 144.12,-214.14 149.73,-218.67 147.7,-225.59"/>
</a>
</g>
<text text-anchor="middle" x="204" y="-246" font-family="Helvetica,sans-Serif" font-size="10.00" fill="grey"> &#45;mOutputDirectory</text>
</g>
<!-- Node4 -->
<g id="Node000004" class="node">
<title>Node4</title>
<g id="a_Node000004"><a xlink:title=" ">
<polygon fill="white" stroke="transparent" points="116,-679 57,-679 57,-630 116,-630 116,-679"/>
<text text-anchor="start" x="62.5" y="-666.5" font-family="Helvetica,sans-Serif" font-size="10.00">std::string</text>
<text text-anchor="start" x="85" y="-651.5" font-family="Helvetica,sans-Serif" font-size="10.00"> </text>
<text text-anchor="start" x="85" y="-636.5" font-family="Helvetica,sans-Serif" font-size="10.00"> </text>
<polygon fill="#666666" stroke="#666666" points="57.5,-661.5 57.5,-661.5 116.5,-661.5 116.5,-661.5 57.5,-661.5"/>
<polygon fill="#666666" stroke="#666666" points="57.5,-646.5 57.5,-646.5 116.5,-646.5 116.5,-646.5 57.5,-646.5"/>
<polygon fill="none" stroke="#666666" points="57,-630 57,-679 116,-679 116,-630 57,-630"/>
</a>
</g>
</g>
<!-- Node4&#45;&gt;Node3 -->
<g id="edge3_Node000003_Node000004" class="edge">
<title>Node4&#45;&gt;Node3</title>
<g id="a_edge3_Node000003_Node000004"><a xlink:title=" ">
<path fill="none" stroke="#63b8ff" d="M93,-629.8C96.44,-617.79 100.9,-603.02 105.5,-590 106.24,-587.9 107,-585.78 107.76,-583.65"/>
<polygon fill="none" stroke="#63b8ff" points="107.83,-583.47 106.13,-576.46 111.95,-572.19 113.65,-579.2 107.83,-583.47"/>
</a>
</g>
<text text-anchor="middle" x="136.5" y="-604" font-family="Helvetica,sans-Serif" font-size="10.00" fill="grey"> &#45;mAbsPath</text>
<text text-anchor="middle" x="136.5" y="-593" font-family="Helvetica,sans-Serif" font-size="10.00" fill="grey">&#45;msFakePath</text>
</g>
<!-- Node5 -->
<g id="Node000005" class="node">
<title>Node5</title>
<g id="a_Node000005"><a xlink:title=" ">
<polygon fill="white" stroke="transparent" points="135.5,-776 37.5,-776 37.5,-716 135.5,-716 135.5,-776"/>
<text text-anchor="start" x="42.5" y="-764" font-family="Helvetica,sans-Serif" font-size="10.00">std::basic_string&lt;</text>
<text text-anchor="start" x="68" y="-753" font-family="Helvetica,sans-Serif" font-size="10.00"> Char &gt;</text>
<text text-anchor="start" x="84.5" y="-738" font-family="Helvetica,sans-Serif" font-size="10.00"> </text>
<text text-anchor="start" x="84.5" y="-723" font-family="Helvetica,sans-Serif" font-size="10.00"> </text>
<polygon fill="#666666" stroke="#666666" points="37.5,-748 37.5,-748 135.5,-748 135.5,-748 37.5,-748"/>
<polygon fill="#666666" stroke="#666666" points="37.5,-733 37.5,-733 135.5,-733 135.5,-733 37.5,-733"/>
<polygon fill="none" stroke="#666666" points="37.5,-716 37.5,-776 135.5,-776 135.5,-716 37.5,-716"/>
</a>
</g>
</g>
<!-- Node5&#45;&gt;Node4 -->
<g id="edge4_Node000004_Node000005" class="edge">
<title>Node5&#45;&gt;Node4</title>
<g id="a_edge4_Node000004_Node000005"><a xlink:title=" ">
<path fill="none" stroke="#63b8ff" d="M86.5,-705.41C86.5,-696.47 86.5,-687.25 86.5,-679.21"/>
<polygon fill="none" stroke="#63b8ff" points="83,-705.69 86.5,-715.69 90,-705.69 83,-705.69"/>
</a>
</g>
</g>
<!-- Node6 -->
<g id="Node000006" class="node">
<title>Node6</title>
<g id="a_Node000006"><a xlink:href="classbool.html" target="_top" xlink:title=" ">
<polygon fill="white" stroke="transparent" points="187.5,-679 155.5,-679 155.5,-630 187.5,-630 187.5,-679"/>
<text text-anchor="start" x="160.5" y="-666.5" font-family="Helvetica,sans-Serif" font-size="10.00">bool</text>
<text text-anchor="start" x="169.5" y="-651.5" font-family="Helvetica,sans-Serif" font-size="10.00"> </text>
<text text-anchor="start" x="169.5" y="-636.5" font-family="Helvetica,sans-Serif" font-size="10.00"> </text>
<polygon fill="#bfbfbf" stroke="#bfbfbf" points="155.5,-661.5 155.5,-661.5 187.5,-661.5 187.5,-661.5 155.5,-661.5"/>
<polygon fill="#bfbfbf" stroke="#bfbfbf" points="155.5,-646.5 155.5,-646.5 187.5,-646.5 187.5,-646.5 155.5,-646.5"/>
<polygon fill="none" stroke="#bfbfbf" points="155.5,-630 155.5,-679 187.5,-679 187.5,-630 155.5,-630"/>
</a>
</g>
</g>
<!-- Node6&#45;&gt;Node3 -->
<g id="edge5_Node000003_Node000006" class="edge">
<title>Node6&#45;&gt;Node3</title>
<g id="a_edge5_Node000003_Node000006"><a xlink:title=" ">
<path fill="none" stroke="#63b8ff" d="M171.5,-629.85C171.5,-617.73 171.5,-601.85 171.5,-584.3"/>
<polygon fill="none" stroke="#63b8ff" points="171.5,-584.24 167.5,-578.24 171.5,-572.24 175.5,-578.24 171.5,-584.24"/>
</a>
</g>
<text text-anchor="middle" x="198.5" y="-598.5" font-family="Helvetica,sans-Serif" font-size="10.00" fill="grey"> &#45;msFaking</text>
</g>
<!-- Node7 -->
<g id="Node000007" class="node">
<title>Node7</title>
<g id="a_Node000007"><a xlink:title=" ">
<polygon fill="white" stroke="transparent" points="267.5,-679 229.5,-679 229.5,-630 267.5,-630 267.5,-679"/>
<text text-anchor="start" x="234.5" y="-666.5" font-family="Helvetica,sans-Serif" font-size="10.00">Value</text>
<text text-anchor="start" x="246.5" y="-651.5" font-family="Helvetica,sans-Serif" font-size="10.00"> </text>
<text text-anchor="start" x="246.5" y="-636.5" font-family="Helvetica,sans-Serif" font-size="10.00"> </text>
<polygon fill="#bfbfbf" stroke="#bfbfbf" points="229.5,-661.5 229.5,-661.5 267.5,-661.5 267.5,-661.5 229.5,-661.5"/>
<polygon fill="#bfbfbf" stroke="#bfbfbf" points="229.5,-646.5 229.5,-646.5 267.5,-646.5 267.5,-646.5 229.5,-646.5"/>
<polygon fill="none" stroke="#bfbfbf" points="229.5,-630 229.5,-679 267.5,-679 267.5,-630 229.5,-630"/>
</a>
</g>
</g>
<!-- Node7&#45;&gt;Node3 -->
<g id="edge6_Node000003_Node000007" class="edge">
<title>Node7&#45;&gt;Node3</title>
<g id="a_edge6_Node000003_Node000007"><a xlink:title=" ">
<path fill="none" stroke="#63b8ff" d="M240.41,-629.85C236.22,-617.62 230.72,-601.54 224.65,-583.8"/>
<polygon fill="none" stroke="#63b8ff" points="224.58,-583.59 218.85,-579.21 220.69,-572.24 226.42,-576.62 224.58,-583.59"/>
</a>
</g>
<text text-anchor="middle" x="268.5" y="-598.5" font-family="Helvetica,sans-Serif" font-size="10.00" fill="grey"> &#45;msFakeWhat</text>
</g>
</g>
</svg>
