<?xml version="1.0" encoding="UTF-8" standalone="no"?>
<!DOCTYPE svg PUBLIC "-//W3C//DTD SVG 1.1//EN"
 "http://www.w3.org/Graphics/SVG/1.1/DTD/svg11.dtd">
<!-- Generated by graphviz version 2.43.0 (0)
 -->
<!-- Title: AbstractSimpleCellCycleModel Pages: 1 -->
<svg width="201pt" height="934pt"
 viewBox="0.00 0.00 201.00 934.00" xmlns="http://www.w3.org/2000/svg" xmlns:xlink="http://www.w3.org/1999/xlink">
<g id="graph0" class="graph" transform="scale(1 1) rotate(0) translate(4 930)">
<title>AbstractSimpleCellCycleModel</title>
<!-- Node1 -->
<g id="Node000001" class="node">
<title>Node1</title>
<g id="a_Node000001"><a xlink:title=" ">
<polygon fill="#999999" stroke="transparent" points="193,-486 0,-486 0,-276 193,-276 193,-486"/>
<text text-anchor="start" x="21.5" y="-474" font-family="Helvetica,sans-Serif" font-size="10.00">AbstractSimpleCellCycleModel</text>
<text text-anchor="start" x="4.5" y="-459" font-family="Helvetica,sans-Serif" font-size="10.00">#</text>
<text text-anchor="start" x="17.5" y="-459" font-family="Helvetica,sans-Serif" font-size="10.00">mCellCycleDuration</text>
<text text-anchor="start" x="4.5" y="-444" font-family="Helvetica,sans-Serif" font-size="10.00">+</text>
<text text-anchor="start" x="17.5" y="-444" font-family="Helvetica,sans-Serif" font-size="10.00">AbstractSimpleCellCycleModel()</text>
<text text-anchor="start" x="4.5" y="-429" font-family="Helvetica,sans-Serif" font-size="10.00">+</text>
<text text-anchor="start" x="17.5" y="-429" font-family="Helvetica,sans-Serif" font-size="10.00">~AbstractSimpleCellCycle</text>
<text text-anchor="start" x="17.5" y="-418" font-family="Helvetica,sans-Serif" font-size="10.00">Model()</text>
<text text-anchor="start" x="4.5" y="-403" font-family="Helvetica,sans-Serif" font-size="10.00">+</text>
<text text-anchor="start" x="17.5" y="-403" font-family="Helvetica,sans-Serif" font-size="10.00">ReadyToDivide()</text>
<text text-anchor="start" x="4.5" y="-388" font-family="Helvetica,sans-Serif" font-size="10.00">+</text>
<text text-anchor="start" x="17.5" y="-388" font-family="Helvetica,sans-Serif" font-size="10.00">ResetForDivision()</text>
<text text-anchor="start" x="4.5" y="-373" font-family="Helvetica,sans-Serif" font-size="10.00">+</text>
<text text-anchor="start" x="17.5" y="-373" font-family="Helvetica,sans-Serif" font-size="10.00">InitialiseDaughterCell()</text>
<text text-anchor="start" x="4.5" y="-358" font-family="Helvetica,sans-Serif" font-size="10.00">+</text>
<text text-anchor="start" x="17.5" y="-358" font-family="Helvetica,sans-Serif" font-size="10.00">Initialise()</text>
<text text-anchor="start" x="4.5" y="-343" font-family="Helvetica,sans-Serif" font-size="10.00">+</text>
<text text-anchor="start" x="17.5" y="-343" font-family="Helvetica,sans-Serif" font-size="10.00">SetCellCycleDuration()</text>
<text text-anchor="start" x="4.5" y="-328" font-family="Helvetica,sans-Serif" font-size="10.00">+</text>
<text text-anchor="start" x="17.5" y="-328" font-family="Helvetica,sans-Serif" font-size="10.00">GetCellCycleDuration()</text>
<text text-anchor="start" x="4.5" y="-313" font-family="Helvetica,sans-Serif" font-size="10.00">+</text>
<text text-anchor="start" x="17.5" y="-313" font-family="Helvetica,sans-Serif" font-size="10.00">OutputCellCycleModelParameters()</text>
<text text-anchor="start" x="4.5" y="-298" font-family="Helvetica,sans-Serif" font-size="10.00">#</text>
<text text-anchor="start" x="17.5" y="-298" font-family="Helvetica,sans-Serif" font-size="10.00">AbstractSimpleCellCycleModel()</text>
<text text-anchor="start" x="7" y="-283" font-family="Helvetica,sans-Serif" font-size="10.00">&#45;</text>
<text text-anchor="start" x="17.5" y="-283" font-family="Helvetica,sans-Serif" font-size="10.00">serialize()</text>
<polygon fill="#666666" stroke="#666666" points="0.5,-469 0.5,-469 193.5,-469 193.5,-469 0.5,-469"/>
<polygon fill="#666666" stroke="#666666" points="0.5,-454 0.5,-454 15.5,-454 15.5,-454 0.5,-454"/>
<polygon fill="#666666" stroke="#666666" points="15.5,-454 15.5,-454 193.5,-454 193.5,-454 15.5,-454"/>
<polygon fill="none" stroke="#666666" points="0,-276 0,-486 193,-486 193,-276 0,-276"/>
</a>
</g>
</g>
<!-- Node4 -->
<g id="Node000004" class="node">
<title>Node4</title>
<g id="a_Node000004"><a xlink:href="classUniformCellCycleModel.html" target="_top" xlink:title=" ">
<polygon fill="white" stroke="transparent" points="193,-240 0,-240 0,0 193,0 193,-240"/>
<text text-anchor="start" x="39" y="-228" font-family="Helvetica,sans-Serif" font-size="10.00">UniformCellCycleModel</text>
<text text-anchor="start" x="7" y="-213" font-family="Helvetica,sans-Serif" font-size="10.00">&#45;</text>
<text text-anchor="start" x="17.5" y="-213" font-family="Helvetica,sans-Serif" font-size="10.00">mMinCellCycleDuration</text>
<text text-anchor="start" x="7" y="-198" font-family="Helvetica,sans-Serif" font-size="10.00">&#45;</text>
<text text-anchor="start" x="17.5" y="-198" font-family="Helvetica,sans-Serif" font-size="10.00">mMaxCellCycleDuration</text>
<text text-anchor="start" x="4.5" y="-183" font-family="Helvetica,sans-Serif" font-size="10.00">+</text>
<text text-anchor="start" x="17.5" y="-183" font-family="Helvetica,sans-Serif" font-size="10.00">UniformCellCycleModel()</text>
<text text-anchor="start" x="4.5" y="-168" font-family="Helvetica,sans-Serif" font-size="10.00">+</text>
<text text-anchor="start" x="17.5" y="-168" font-family="Helvetica,sans-Serif" font-size="10.00">SetCellCycleDuration()</text>
<text text-anchor="start" x="4.5" y="-153" font-family="Helvetica,sans-Serif" font-size="10.00">+</text>
<text text-anchor="start" x="17.5" y="-153" font-family="Helvetica,sans-Serif" font-size="10.00">CreateCellCycleModel()</text>
<text text-anchor="start" x="4.5" y="-138" font-family="Helvetica,sans-Serif" font-size="10.00">+</text>
<text text-anchor="start" x="17.5" y="-138" font-family="Helvetica,sans-Serif" font-size="10.00">GetMinCellCycleDuration()</text>
<text text-anchor="start" x="4.5" y="-123" font-family="Helvetica,sans-Serif" font-size="10.00">+</text>
<text text-anchor="start" x="17.5" y="-123" font-family="Helvetica,sans-Serif" font-size="10.00">SetMinCellCycleDuration()</text>
<text text-anchor="start" x="4.5" y="-108" font-family="Helvetica,sans-Serif" font-size="10.00">+</text>
<text text-anchor="start" x="17.5" y="-108" font-family="Helvetica,sans-Serif" font-size="10.00">GetMaxCellCycleDuration()</text>
<text text-anchor="start" x="4.5" y="-93" font-family="Helvetica,sans-Serif" font-size="10.00">+</text>
<text text-anchor="start" x="17.5" y="-93" font-family="Helvetica,sans-Serif" font-size="10.00">SetMaxCellCycleDuration()</text>
<text text-anchor="start" x="4.5" y="-78" font-family="Helvetica,sans-Serif" font-size="10.00">+</text>
<text text-anchor="start" x="17.5" y="-78" font-family="Helvetica,sans-Serif" font-size="10.00">GetAverageTransitCellCycle</text>
<text text-anchor="start" x="17.5" y="-67" font-family="Helvetica,sans-Serif" font-size="10.00">Time()</text>
<text text-anchor="start" x="4.5" y="-52" font-family="Helvetica,sans-Serif" font-size="10.00">+</text>
<text text-anchor="start" x="17.5" y="-52" font-family="Helvetica,sans-Serif" font-size="10.00">GetAverageStemCellCycleTime()</text>
<text text-anchor="start" x="4.5" y="-37" font-family="Helvetica,sans-Serif" font-size="10.00">+</text>
<text text-anchor="start" x="17.5" y="-37" font-family="Helvetica,sans-Serif" font-size="10.00">OutputCellCycleModelParameters()</text>
<text text-anchor="start" x="4.5" y="-22" font-family="Helvetica,sans-Serif" font-size="10.00">#</text>
<text text-anchor="start" x="17.5" y="-22" font-family="Helvetica,sans-Serif" font-size="10.00">UniformCellCycleModel()</text>
<text text-anchor="start" x="7" y="-7" font-family="Helvetica,sans-Serif" font-size="10.00">&#45;</text>
<text text-anchor="start" x="17.5" y="-7" font-family="Helvetica,sans-Serif" font-size="10.00">serialize()</text>
<polygon fill="#666666" stroke="#666666" points="0.5,-223 0.5,-223 193.5,-223 193.5,-223 0.5,-223"/>
<polygon fill="#666666" stroke="#666666" points="0.5,-193 0.5,-193 15.5,-193 15.5,-193 0.5,-193"/>
<polygon fill="#666666" stroke="#666666" points="15.5,-193 15.5,-193 193.5,-193 193.5,-193 15.5,-193"/>
<polygon fill="none" stroke="#666666" points="0,0 0,-240 193,-240 193,0 0,0"/>
</a>
</g>
</g>
<!-- Node1&#45;&gt;Node4 -->
<g id="edge3_Node000001_Node000004" class="edge">
<title>Node1&#45;&gt;Node4</title>
<g id="a_edge3_Node000001_Node000004"><a xlink:title=" ">
<path fill="none" stroke="#63b8ff" d="M96.5,-265.6C96.5,-257.21 96.5,-248.73 96.5,-240.32"/>
<polygon fill="none" stroke="#63b8ff" points="93,-265.77 96.5,-275.77 100,-265.77 93,-265.77"/>
</a>
</g>
</g>
<!-- Node2 -->
<g id="Node000002" class="node">
<title>Node2</title>
<g id="a_Node000002"><a xlink:href="classAbstractCellCycleModel.html" target="_top" xlink:title=" ">
<polygon fill="white" stroke="transparent" points="173.5,-811 19.5,-811 19.5,-522 173.5,-522 173.5,-811"/>
<text text-anchor="start" x="38" y="-798.5" font-family="Helvetica,sans-Serif" font-size="10.00">AbstractCellCycleModel</text>
<text text-anchor="start" x="23.5" y="-783.5" font-family="Helvetica,sans-Serif" font-size="10.00">#</text>
<text text-anchor="start" x="36.5" y="-783.5" font-family="Helvetica,sans-Serif" font-size="10.00">mpCell</text>
<text text-anchor="start" x="23.5" y="-768.5" font-family="Helvetica,sans-Serif" font-size="10.00">#</text>
<text text-anchor="start" x="36.5" y="-768.5" font-family="Helvetica,sans-Serif" font-size="10.00">mBirthTime</text>
<text text-anchor="start" x="23.5" y="-753.5" font-family="Helvetica,sans-Serif" font-size="10.00">#</text>
<text text-anchor="start" x="36.5" y="-753.5" font-family="Helvetica,sans-Serif" font-size="10.00">mReadyToDivide</text>
<text text-anchor="start" x="23.5" y="-738.5" font-family="Helvetica,sans-Serif" font-size="10.00">#</text>
<text text-anchor="start" x="36.5" y="-738.5" font-family="Helvetica,sans-Serif" font-size="10.00">mDimension</text>
<text text-anchor="start" x="23.5" y="-723.5" font-family="Helvetica,sans-Serif" font-size="10.00">+</text>
<text text-anchor="start" x="36.5" y="-723.5" font-family="Helvetica,sans-Serif" font-size="10.00">AbstractCellCycleModel()</text>
<text text-anchor="start" x="23.5" y="-708.5" font-family="Helvetica,sans-Serif" font-size="10.00">+</text>
<text text-anchor="start" x="36.5" y="-708.5" font-family="Helvetica,sans-Serif" font-size="10.00">~AbstractCellCycleModel()</text>
<text text-anchor="start" x="23.5" y="-693.5" font-family="Helvetica,sans-Serif" font-size="10.00">+</text>
<text text-anchor="start" x="36.5" y="-693.5" font-family="Helvetica,sans-Serif" font-size="10.00">SetCell()</text>
<text text-anchor="start" x="23.5" y="-678.5" font-family="Helvetica,sans-Serif" font-size="10.00">+</text>
<text text-anchor="start" x="36.5" y="-678.5" font-family="Helvetica,sans-Serif" font-size="10.00">Initialise()</text>
<text text-anchor="start" x="23.5" y="-663.5" font-family="Helvetica,sans-Serif" font-size="10.00">+</text>
<text text-anchor="start" x="36.5" y="-663.5" font-family="Helvetica,sans-Serif" font-size="10.00">InitialiseDaughterCell()</text>
<text text-anchor="start" x="23.5" y="-648.5" font-family="Helvetica,sans-Serif" font-size="10.00">+</text>
<text text-anchor="start" x="36.5" y="-648.5" font-family="Helvetica,sans-Serif" font-size="10.00">GetCell()</text>
<text text-anchor="start" x="23.5" y="-633.5" font-family="Helvetica,sans-Serif" font-size="10.00">+</text>
<text text-anchor="start" x="36.5" y="-633.5" font-family="Helvetica,sans-Serif" font-size="10.00">SetBirthTime()</text>
<text text-anchor="start" x="23.5" y="-618.5" font-family="Helvetica,sans-Serif" font-size="10.00">+</text>
<text text-anchor="start" x="36.5" y="-618.5" font-family="Helvetica,sans-Serif" font-size="10.00">SetDimension()</text>
<text text-anchor="start" x="23.5" y="-603.5" font-family="Helvetica,sans-Serif" font-size="10.00">+</text>
<text text-anchor="start" x="36.5" y="-603.5" font-family="Helvetica,sans-Serif" font-size="10.00">GetDimension()</text>
<text text-anchor="start" x="23.5" y="-588.5" font-family="Helvetica,sans-Serif" font-size="10.00">+</text>
<text text-anchor="start" x="36.5" y="-588.5" font-family="Helvetica,sans-Serif" font-size="10.00">GetBirthTime()</text>
<text text-anchor="start" x="36.5" y="-573.5" font-family="Helvetica,sans-Serif" font-size="10.00">and 9 more...</text>
<text text-anchor="start" x="23.5" y="-558.5" font-family="Helvetica,sans-Serif" font-size="10.00">#</text>
<text text-anchor="start" x="36.5" y="-558.5" font-family="Helvetica,sans-Serif" font-size="10.00">AbstractCellCycleModel()</text>
<text text-anchor="start" x="26" y="-543.5" font-family="Helvetica,sans-Serif" font-size="10.00">&#45;</text>
<text text-anchor="start" x="36.5" y="-543.5" font-family="Helvetica,sans-Serif" font-size="10.00">serialize()</text>
<text text-anchor="start" x="26" y="-528.5" font-family="Helvetica,sans-Serif" font-size="10.00">&#45;</text>
<text text-anchor="start" x="36.5" y="-528.5" font-family="Helvetica,sans-Serif" font-size="10.00">operator=()</text>
<polygon fill="#666666" stroke="#666666" points="19.5,-793.5 19.5,-793.5 173.5,-793.5 173.5,-793.5 19.5,-793.5"/>
<polygon fill="#666666" stroke="#666666" points="19.5,-733.5 19.5,-733.5 34.5,-733.5 34.5,-733.5 19.5,-733.5"/>
<polygon fill="#666666" stroke="#666666" points="34.5,-733.5 34.5,-733.5 173.5,-733.5 173.5,-733.5 34.5,-733.5"/>
<polygon fill="none" stroke="#666666" points="19.5,-522 19.5,-811 173.5,-811 173.5,-522 19.5,-522"/>
</a>
</g>
</g>
<!-- Node2&#45;&gt;Node1 -->
<g id="edge1_Node000001_Node000002" class="edge">
<title>Node2&#45;&gt;Node1</title>
<g id="a_edge1_Node000001_Node000002"><a xlink:title=" ">
<path fill="none" stroke="#63b8ff" d="M96.5,-511.62C96.5,-503.08 96.5,-494.6 96.5,-486.3"/>
<polygon fill="none" stroke="#63b8ff" points="93,-511.67 96.5,-521.67 100,-511.67 93,-511.67"/>
</a>
</g>
</g>
<!-- Node3 -->
<g id="Node000003" class="node">
<title>Node3</title>
<g id="a_Node000003"><a xlink:href="classIdentifiable.html" target="_top" xlink:title=" ">
<polygon fill="white" stroke="transparent" points="184.5,-926 8.5,-926 8.5,-847 184.5,-847 184.5,-926"/>
<text text-anchor="start" x="69" y="-913.5" font-family="Helvetica,sans-Serif" font-size="10.00">Identifiable</text>
<text text-anchor="start" x="94.5" y="-898.5" font-family="Helvetica,sans-Serif" font-size="10.00"> </text>
<text text-anchor="start" x="12.5" y="-883.5" font-family="Helvetica,sans-Serif" font-size="10.00">+</text>
<text text-anchor="start" x="25.5" y="-883.5" font-family="Helvetica,sans-Serif" font-size="10.00">~Identifiable()</text>
<text text-anchor="start" x="12.5" y="-868.5" font-family="Helvetica,sans-Serif" font-size="10.00">+</text>
<text text-anchor="start" x="25.5" y="-868.5" font-family="Helvetica,sans-Serif" font-size="10.00">GetIdentifier()</text>
<text text-anchor="start" x="15" y="-853.5" font-family="Helvetica,sans-Serif" font-size="10.00">&#45;</text>
<text text-anchor="start" x="25.5" y="-853.5" font-family="Helvetica,sans-Serif" font-size="10.00">TidyTemplatedExportIdentifier()</text>
<polygon fill="#666666" stroke="#666666" points="8.5,-908.5 8.5,-908.5 184.5,-908.5 184.5,-908.5 8.5,-908.5"/>
<polygon fill="#666666" stroke="#666666" points="8.5,-893.5 8.5,-893.5 184.5,-893.5 184.5,-893.5 8.5,-893.5"/>
<polygon fill="none" stroke="#666666" points="8.5,-847 8.5,-926 184.5,-926 184.5,-847 8.5,-847"/>
</a>
</g>
</g>
<!-- Node3&#45;&gt;Node2 -->
<g id="edge2_Node000002_Node000003" class="edge">
<title>Node3&#45;&gt;Node2</title>
<g id="a_edge2_Node000002_Node000003"><a xlink:title=" ">
<path fill="none" stroke="#63b8ff" d="M96.5,-836.64C96.5,-828.63 96.5,-819.99 96.5,-811"/>
<polygon fill="none" stroke="#63b8ff" points="93,-836.78 96.5,-846.78 100,-836.78 93,-836.78"/>
</a>
</g>
</g>
</g>
</svg>
