<?xml version="1.0" encoding="UTF-8" standalone="no"?>
<!DOCTYPE svg PUBLIC "-//W3C//DTD SVG 1.1//EN"
 "http://www.w3.org/Graphics/SVG/1.1/DTD/svg11.dtd">
<!-- Generated by graphviz version 2.43.0 (0)
 -->
<!-- Title: AbstractTetrahedralMeshWriter&lt; ELEMENT_DIM, SPACE_DIM &gt; Pages: 1 -->
<svg width="1758pt" height="1165pt"
 viewBox="0.00 0.00 1757.50 1165.00" xmlns="http://www.w3.org/2000/svg" xmlns:xlink="http://www.w3.org/1999/xlink">
<g id="graph0" class="graph" transform="scale(1 1) rotate(0) translate(4 1161)">
<title>AbstractTetrahedralMeshWriter&lt; ELEMENT_DIM, SPACE_DIM &gt;</title>
<!-- Node1 -->
<g id="Node000001" class="node">
<title>Node1</title>
<g id="a_Node000001"><a xlink:title=" ">
<polygon fill="#999999" stroke="transparent" points="1169.5,-292 988.5,-292 988.5,0 1169.5,0 1169.5,-292"/>
<text text-anchor="start" x="1002" y="-280" font-family="Helvetica,sans-Serif" font-size="10.00">AbstractTetrahedralMeshWriter</text>
<text text-anchor="start" x="1002" y="-269" font-family="Helvetica,sans-Serif" font-size="10.00">&lt; ELEMENT_DIM, SPACE_DIM &gt;</text>
<text text-anchor="start" x="1077.5" y="-254" font-family="Helvetica,sans-Serif" font-size="10.00"> </text>
<text text-anchor="start" x="993" y="-239" font-family="Helvetica,sans-Serif" font-size="10.00">+</text>
<text text-anchor="start" x="1006" y="-239" font-family="Helvetica,sans-Serif" font-size="10.00">AbstractTetrahedralMeshWriter()</text>
<text text-anchor="start" x="993" y="-224" font-family="Helvetica,sans-Serif" font-size="10.00">+</text>
<text text-anchor="start" x="1006" y="-224" font-family="Helvetica,sans-Serif" font-size="10.00">~AbstractTetrahedralMesh</text>
<text text-anchor="start" x="1006" y="-213" font-family="Helvetica,sans-Serif" font-size="10.00">Writer()</text>
<text text-anchor="start" x="993" y="-198" font-family="Helvetica,sans-Serif" font-size="10.00">+</text>
<text text-anchor="start" x="1006" y="-198" font-family="Helvetica,sans-Serif" font-size="10.00">WriteFilesUsingMesh()</text>
<text text-anchor="start" x="993" y="-183" font-family="Helvetica,sans-Serif" font-size="10.00">+</text>
<text text-anchor="start" x="1006" y="-183" font-family="Helvetica,sans-Serif" font-size="10.00">WriteFilesUsingMeshReader</text>
<text text-anchor="start" x="1006" y="-172" font-family="Helvetica,sans-Serif" font-size="10.00">AndMesh()</text>
<text text-anchor="start" x="993" y="-157" font-family="Helvetica,sans-Serif" font-size="10.00">+</text>
<text text-anchor="start" x="1006" y="-157" font-family="Helvetica,sans-Serif" font-size="10.00">GetNextNode()</text>
<text text-anchor="start" x="993" y="-142" font-family="Helvetica,sans-Serif" font-size="10.00">+</text>
<text text-anchor="start" x="1006" y="-142" font-family="Helvetica,sans-Serif" font-size="10.00">GetNextElement()</text>
<text text-anchor="start" x="993" y="-127" font-family="Helvetica,sans-Serif" font-size="10.00">+</text>
<text text-anchor="start" x="1006" y="-127" font-family="Helvetica,sans-Serif" font-size="10.00">GetNextBoundaryElement()</text>
<text text-anchor="start" x="993" y="-112" font-family="Helvetica,sans-Serif" font-size="10.00">+</text>
<text text-anchor="start" x="1006" y="-112" font-family="Helvetica,sans-Serif" font-size="10.00">GetNextCableElement()</text>
<text text-anchor="start" x="995.5" y="-97" font-family="Helvetica,sans-Serif" font-size="10.00">&#45;</text>
<text text-anchor="start" x="1006" y="-97" font-family="Helvetica,sans-Serif" font-size="10.00">PostElement()</text>
<text text-anchor="start" x="995.5" y="-82" font-family="Helvetica,sans-Serif" font-size="10.00">&#45;</text>
<text text-anchor="start" x="1006" y="-82" font-family="Helvetica,sans-Serif" font-size="10.00">UnpackElement()</text>
<text text-anchor="start" x="995.5" y="-67" font-family="Helvetica,sans-Serif" font-size="10.00">&#45;</text>
<text text-anchor="start" x="1006" y="-67" font-family="Helvetica,sans-Serif" font-size="10.00">WriteFilesUsingParallelMesh()</text>
<text text-anchor="start" x="995.5" y="-52" font-family="Helvetica,sans-Serif" font-size="10.00">&#45;</text>
<text text-anchor="start" x="1006" y="-52" font-family="Helvetica,sans-Serif" font-size="10.00">WriteNclFile()</text>
<text text-anchor="start" x="995.5" y="-37" font-family="Helvetica,sans-Serif" font-size="10.00">&#45;</text>
<text text-anchor="start" x="1006" y="-37" font-family="Helvetica,sans-Serif" font-size="10.00">CreateFilesWithHeaders()</text>
<text text-anchor="start" x="995.5" y="-22" font-family="Helvetica,sans-Serif" font-size="10.00">&#45;</text>
<text text-anchor="start" x="1006" y="-22" font-family="Helvetica,sans-Serif" font-size="10.00">AppendLocalDataToFiles()</text>
<text text-anchor="start" x="995.5" y="-7" font-family="Helvetica,sans-Serif" font-size="10.00">&#45;</text>
<text text-anchor="start" x="1006" y="-7" font-family="Helvetica,sans-Serif" font-size="10.00">WriteFilesFooter()</text>
<polygon fill="#666666" stroke="#666666" points="989,-264 989,-264 1170,-264 1170,-264 989,-264"/>
<polygon fill="#666666" stroke="#666666" points="989,-249 989,-249 1170,-249 1170,-249 989,-249"/>
<polygon fill="none" stroke="#666666" points="988.5,0 988.5,-292 1169.5,-292 1169.5,0 988.5,0"/>
</a>
</g>
</g>
<!-- Node2 -->
<g id="Node000002" class="node">
<title>Node2</title>
<g id="a_Node000002"><a xlink:href="classAbstractMeshWriter.html" target="_top" xlink:title=" ">
<polygon fill="white" stroke="transparent" points="457,-579 291,-579 291,-339 457,-339 457,-579"/>
<text text-anchor="start" x="296.5" y="-567" font-family="Helvetica,sans-Serif" font-size="10.00">AbstractMeshWriter</text>
<text text-anchor="start" x="296.5" y="-556" font-family="Helvetica,sans-Serif" font-size="10.00">&lt; ELEMENT_DIM, SPACE_DIM &gt;</text>
<text text-anchor="start" x="372" y="-541" font-family="Helvetica,sans-Serif" font-size="10.00"> </text>
<text text-anchor="start" x="295" y="-526" font-family="Helvetica,sans-Serif" font-size="10.00">+</text>
<text text-anchor="start" x="308" y="-526" font-family="Helvetica,sans-Serif" font-size="10.00">AbstractMeshWriter()</text>
<text text-anchor="start" x="295" y="-511" font-family="Helvetica,sans-Serif" font-size="10.00">+</text>
<text text-anchor="start" x="308" y="-511" font-family="Helvetica,sans-Serif" font-size="10.00">~AbstractMeshWriter()</text>
<text text-anchor="start" x="295" y="-496" font-family="Helvetica,sans-Serif" font-size="10.00">+</text>
<text text-anchor="start" x="308" y="-496" font-family="Helvetica,sans-Serif" font-size="10.00">GetOutputDirectory()</text>
<text text-anchor="start" x="295" y="-481" font-family="Helvetica,sans-Serif" font-size="10.00">+</text>
<text text-anchor="start" x="308" y="-481" font-family="Helvetica,sans-Serif" font-size="10.00">GetNumNodes()</text>
<text text-anchor="start" x="295" y="-466" font-family="Helvetica,sans-Serif" font-size="10.00">+</text>
<text text-anchor="start" x="308" y="-466" font-family="Helvetica,sans-Serif" font-size="10.00">GetNumElements()</text>
<text text-anchor="start" x="295" y="-451" font-family="Helvetica,sans-Serif" font-size="10.00">+</text>
<text text-anchor="start" x="308" y="-451" font-family="Helvetica,sans-Serif" font-size="10.00">GetNumBoundaryFaces()</text>
<text text-anchor="start" x="295" y="-436" font-family="Helvetica,sans-Serif" font-size="10.00">+</text>
<text text-anchor="start" x="308" y="-436" font-family="Helvetica,sans-Serif" font-size="10.00">GetNumCableElements()</text>
<text text-anchor="start" x="295" y="-421" font-family="Helvetica,sans-Serif" font-size="10.00">+</text>
<text text-anchor="start" x="308" y="-421" font-family="Helvetica,sans-Serif" font-size="10.00">GetNextNode()</text>
<text text-anchor="start" x="295" y="-406" font-family="Helvetica,sans-Serif" font-size="10.00">+</text>
<text text-anchor="start" x="308" y="-406" font-family="Helvetica,sans-Serif" font-size="10.00">GetNextElement()</text>
<text text-anchor="start" x="295" y="-391" font-family="Helvetica,sans-Serif" font-size="10.00">+</text>
<text text-anchor="start" x="308" y="-391" font-family="Helvetica,sans-Serif" font-size="10.00">GetNextBoundaryElement()</text>
<text text-anchor="start" x="295" y="-376" font-family="Helvetica,sans-Serif" font-size="10.00">+</text>
<text text-anchor="start" x="308" y="-376" font-family="Helvetica,sans-Serif" font-size="10.00">GetNextCableElement()</text>
<text text-anchor="start" x="295" y="-361" font-family="Helvetica,sans-Serif" font-size="10.00">+</text>
<text text-anchor="start" x="308" y="-361" font-family="Helvetica,sans-Serif" font-size="10.00">WriteFiles()</text>
<text text-anchor="start" x="295" y="-346" font-family="Helvetica,sans-Serif" font-size="10.00">+</text>
<text text-anchor="start" x="308" y="-346" font-family="Helvetica,sans-Serif" font-size="10.00">WriteFilesUsingMeshReader()</text>
<polygon fill="#666666" stroke="#666666" points="291,-551 291,-551 457,-551 457,-551 291,-551"/>
<polygon fill="#666666" stroke="#666666" points="291,-536 291,-536 457,-536 457,-536 291,-536"/>
<polygon fill="none" stroke="#666666" points="291,-339 291,-579 457,-579 457,-339 291,-339"/>
</a>
</g>
</g>
<!-- Node2&#45;&gt;Node1 -->
<g id="edge1_Node000001_Node000002" class="edge">
<title>Node2&#45;&gt;Node1</title>
<g id="a_edge1_Node000001_Node000002"><a xlink:title=" ">
<path fill="none" stroke="#63b8ff" d="M465.88,-399.05C513.21,-370.09 572.5,-335.94 628,-310 749.06,-253.42 895.59,-203.72 988.08,-174.51"/>
<polygon fill="none" stroke="#63b8ff" points="463.87,-396.17 457.18,-404.39 467.54,-402.14 463.87,-396.17"/>
</a>
</g>
</g>
<!-- Node3 -->
<g id="Node000003" class="node">
<title>Node3</title>
<g id="a_Node000003"><a xlink:href="classOutputFileHandler.html" target="_top" xlink:title=" ">
<polygon fill="white" stroke="transparent" points="178,-943 0,-943 0,-703 178,-703 178,-943"/>
<text text-anchor="start" x="44.5" y="-931" font-family="Helvetica,sans-Serif" font-size="10.00">OutputFileHandler</text>
<text text-anchor="start" x="87" y="-916" font-family="Helvetica,sans-Serif" font-size="10.00"> </text>
<text text-anchor="start" x="4" y="-901" font-family="Helvetica,sans-Serif" font-size="10.00">+</text>
<text text-anchor="start" x="17" y="-901" font-family="Helvetica,sans-Serif" font-size="10.00">OutputFileHandler()</text>
<text text-anchor="start" x="4" y="-886" font-family="Helvetica,sans-Serif" font-size="10.00">+</text>
<text text-anchor="start" x="17" y="-886" font-family="Helvetica,sans-Serif" font-size="10.00">OutputFileHandler()</text>
<text text-anchor="start" x="4" y="-871" font-family="Helvetica,sans-Serif" font-size="10.00">+</text>
<text text-anchor="start" x="17" y="-871" font-family="Helvetica,sans-Serif" font-size="10.00">GetOutputDirectoryFullPath()</text>
<text text-anchor="start" x="4" y="-856" font-family="Helvetica,sans-Serif" font-size="10.00">+</text>
<text text-anchor="start" x="17" y="-856" font-family="Helvetica,sans-Serif" font-size="10.00">GetRelativePath()</text>
<text text-anchor="start" x="4" y="-841" font-family="Helvetica,sans-Serif" font-size="10.00">+</text>
<text text-anchor="start" x="17" y="-841" font-family="Helvetica,sans-Serif" font-size="10.00">SetArchiveDirectory()</text>
<text text-anchor="start" x="4" y="-826" font-family="Helvetica,sans-Serif" font-size="10.00">+</text>
<text text-anchor="start" x="17" y="-826" font-family="Helvetica,sans-Serif" font-size="10.00">OpenOutputFile()</text>
<text text-anchor="start" x="4" y="-811" font-family="Helvetica,sans-Serif" font-size="10.00">+</text>
<text text-anchor="start" x="17" y="-811" font-family="Helvetica,sans-Serif" font-size="10.00">OpenOutputFile()</text>
<text text-anchor="start" x="4" y="-796" font-family="Helvetica,sans-Serif" font-size="10.00">+</text>
<text text-anchor="start" x="17" y="-796" font-family="Helvetica,sans-Serif" font-size="10.00">CopyFileTo()</text>
<text text-anchor="start" x="4" y="-781" font-family="Helvetica,sans-Serif" font-size="10.00">+</text>
<text text-anchor="start" x="17" y="-781" font-family="Helvetica,sans-Serif" font-size="10.00">FindFile()</text>
<text text-anchor="start" x="4" y="-766" font-family="Helvetica,sans-Serif" font-size="10.00">+</text>
<text text-anchor="start" x="17" y="-766" font-family="Helvetica,sans-Serif" font-size="10.00">GetChasteTestOutputDirectory()</text>
<text text-anchor="start" x="6.5" y="-751" font-family="Helvetica,sans-Serif" font-size="10.00">&#45;</text>
<text text-anchor="start" x="17" y="-751" font-family="Helvetica,sans-Serif" font-size="10.00">CommonConstructor()</text>
<text text-anchor="start" x="6.5" y="-736" font-family="Helvetica,sans-Serif" font-size="10.00">&#45;</text>
<text text-anchor="start" x="17" y="-736" font-family="Helvetica,sans-Serif" font-size="10.00">MakeFoldersAndReturnFull</text>
<text text-anchor="start" x="17" y="-725" font-family="Helvetica,sans-Serif" font-size="10.00">Path()</text>
<text text-anchor="start" x="6.5" y="-710" font-family="Helvetica,sans-Serif" font-size="10.00">&#45;</text>
<text text-anchor="start" x="17" y="-710" font-family="Helvetica,sans-Serif" font-size="10.00">AddTrailingSlash()</text>
<polygon fill="#666666" stroke="#666666" points="0,-926 0,-926 178,-926 178,-926 0,-926"/>
<polygon fill="#666666" stroke="#666666" points="0,-911 0,-911 178,-911 178,-911 0,-911"/>
<polygon fill="none" stroke="#666666" points="0,-703 0,-943 178,-943 178,-703 0,-703"/>
</a>
</g>
</g>
<!-- Node3&#45;&gt;Node2 -->
<g id="edge2_Node000002_Node000003" class="edge">
<title>Node3&#45;&gt;Node2</title>
<g id="a_edge2_Node000002_Node000003"><a xlink:title=" ">
<path fill="none" stroke="#63b8ff" d="M64.06,-702.75C62.5,-666.44 67.46,-627.98 87,-597 128.89,-530.59 212.8,-495.68 279.13,-477.78"/>
<polygon fill="none" stroke="#63b8ff" points="279.26,-477.74 284.06,-472.37 290.87,-474.73 286.07,-480.11 279.26,-477.74"/>
</a>
</g>
<text text-anchor="middle" x="145" y="-638.5" font-family="Helvetica,sans-Serif" font-size="10.00" fill="grey"> #mpOutputFileHandler</text>
</g>
<!-- Node4 -->
<g id="Node000004" class="node">
<title>Node4</title>
<g id="a_Node000004"><a xlink:title=" ">
<polygon fill="white" stroke="transparent" points="195.5,-1050 136.5,-1050 136.5,-1001 195.5,-1001 195.5,-1050"/>
<text text-anchor="start" x="142" y="-1037.5" font-family="Helvetica,sans-Serif" font-size="10.00">std::string</text>
<text text-anchor="start" x="164.5" y="-1022.5" font-family="Helvetica,sans-Serif" font-size="10.00"> </text>
<text text-anchor="start" x="164.5" y="-1007.5" font-family="Helvetica,sans-Serif" font-size="10.00"> </text>
<polygon fill="#666666" stroke="#666666" points="137,-1032.5 137,-1032.5 196,-1032.5 196,-1032.5 137,-1032.5"/>
<polygon fill="#666666" stroke="#666666" points="137,-1017.5 137,-1017.5 196,-1017.5 196,-1017.5 137,-1017.5"/>
<polygon fill="none" stroke="#666666" points="136.5,-1001 136.5,-1050 195.5,-1050 195.5,-1001 136.5,-1001"/>
</a>
</g>
</g>
<!-- Node4&#45;&gt;Node2 -->
<g id="edge5_Node000002_Node000004" class="edge">
<title>Node4&#45;&gt;Node2</title>
<g id="a_edge5_Node000002_Node000004"><a xlink:title=" ">
<path fill="none" stroke="#63b8ff" d="M191.62,-1000.9C196.14,-995.46 200.26,-989.39 203,-983 252.2,-868.24 187.37,-821.74 226,-703 239.58,-661.24 261.58,-619.19 284.51,-582.07"/>
<polygon fill="none" stroke="#63b8ff" points="284.61,-581.9 284.41,-574.7 290.99,-571.74 291.19,-578.95 284.61,-581.9"/>
</a>
</g>
<text text-anchor="middle" x="263.5" y="-820.5" font-family="Helvetica,sans-Serif" font-size="10.00" fill="grey"> #mBaseName</text>
</g>
<!-- Node4&#45;&gt;Node3 -->
<g id="edge3_Node000003_Node000004" class="edge">
<title>Node4&#45;&gt;Node3</title>
<g id="a_edge3_Node000003_Node000004"><a xlink:title=" ">
<path fill="none" stroke="#63b8ff" d="M136.24,-1006.21C128.15,-999.83 120.21,-991.99 115,-983 109.91,-974.21 105.74,-964.72 102.34,-954.9"/>
<polygon fill="none" stroke="#63b8ff" points="102.27,-954.7 96.66,-950.17 98.68,-943.25 104.29,-947.78 102.27,-954.7"/>
</a>
</g>
<text text-anchor="middle" x="159" y="-975" font-family="Helvetica,sans-Serif" font-size="10.00" fill="grey"> +SIG_FILE_NAME</text>
<text text-anchor="middle" x="159" y="-964" font-family="Helvetica,sans-Serif" font-size="10.00" fill="grey">&#45;mDirectory</text>
</g>
<!-- Node5 -->
<g id="Node000005" class="node">
<title>Node5</title>
<g id="a_Node000005"><a xlink:title=" ">
<polygon fill="white" stroke="transparent" points="215,-1157 117,-1157 117,-1097 215,-1097 215,-1157"/>
<text text-anchor="start" x="122" y="-1145" font-family="Helvetica,sans-Serif" font-size="10.00">std::basic_string&lt;</text>
<text text-anchor="start" x="147.5" y="-1134" font-family="Helvetica,sans-Serif" font-size="10.00"> Char &gt;</text>
<text text-anchor="start" x="164" y="-1119" font-family="Helvetica,sans-Serif" font-size="10.00"> </text>
<text text-anchor="start" x="164" y="-1104" font-family="Helvetica,sans-Serif" font-size="10.00"> </text>
<polygon fill="#666666" stroke="#666666" points="117,-1129 117,-1129 215,-1129 215,-1129 117,-1129"/>
<polygon fill="#666666" stroke="#666666" points="117,-1114 117,-1114 215,-1114 215,-1114 117,-1114"/>
<polygon fill="none" stroke="#666666" points="117,-1097 117,-1157 215,-1157 215,-1097 117,-1097"/>
</a>
</g>
</g>
<!-- Node5&#45;&gt;Node4 -->
<g id="edge4_Node000004_Node000005" class="edge">
<title>Node5&#45;&gt;Node4</title>
<g id="a_edge4_Node000004_Node000005"><a xlink:title=" ">
<path fill="none" stroke="#63b8ff" d="M166,-1086.8C166,-1074.38 166,-1061.03 166,-1050.06"/>
<polygon fill="none" stroke="#63b8ff" points="162.5,-1086.95 166,-1096.95 169.5,-1086.95 162.5,-1086.95"/>
</a>
</g>
</g>
<!-- Node6 -->
<g id="Node000006" class="node">
<title>Node6</title>
<g id="a_Node000006"><a xlink:title=" ">
<polygon fill="white" stroke="transparent" points="439.5,-858.5 310.5,-858.5 310.5,-787.5 439.5,-787.5 439.5,-858.5"/>
<text text-anchor="start" x="316" y="-846" font-family="Helvetica,sans-Serif" font-size="10.00">AbstractMeshReader</text>
<text text-anchor="start" x="316" y="-835" font-family="Helvetica,sans-Serif" font-size="10.00">&lt; ELEMENT_DIM, SPACE</text>
<text text-anchor="start" x="353" y="-824" font-family="Helvetica,sans-Serif" font-size="10.00">_DIM &gt; *</text>
<text text-anchor="start" x="373.5" y="-809" font-family="Helvetica,sans-Serif" font-size="10.00"> </text>
<text text-anchor="start" x="373.5" y="-794" font-family="Helvetica,sans-Serif" font-size="10.00"> </text>
<polygon fill="#bfbfbf" stroke="#bfbfbf" points="311,-819 311,-819 440,-819 440,-819 311,-819"/>
<polygon fill="#bfbfbf" stroke="#bfbfbf" points="311,-804 311,-804 440,-804 440,-804 311,-804"/>
<polygon fill="none" stroke="#bfbfbf" points="310.5,-787.5 310.5,-858.5 439.5,-858.5 439.5,-787.5 310.5,-787.5"/>
</a>
</g>
</g>
<!-- Node6&#45;&gt;Node2 -->
<g id="edge6_Node000002_Node000006" class="edge">
<title>Node6&#45;&gt;Node2</title>
<g id="a_edge6_Node000002_Node000006"><a xlink:title=" ">
<path fill="none" stroke="#63b8ff" d="M374.9,-787.29C374.78,-742.29 374.56,-661.26 374.36,-591.08"/>
<polygon fill="none" stroke="#63b8ff" points="374.36,-591.02 370.35,-585.03 374.33,-579.02 378.35,-585.01 374.36,-591.02"/>
</a>
</g>
<text text-anchor="middle" x="419" y="-638.5" font-family="Helvetica,sans-Serif" font-size="10.00" fill="grey"> #mpMeshReader</text>
</g>
<!-- Node7 -->
<g id="Node000007" class="node">
<title>Node7</title>
<g id="a_Node000007"><a xlink:href="classunsigned.html" target="_top" xlink:title=" ">
<polygon fill="white" stroke="transparent" points="669.5,-1050 614.5,-1050 614.5,-1001 669.5,-1001 669.5,-1050"/>
<text text-anchor="start" x="620" y="-1037.5" font-family="Helvetica,sans-Serif" font-size="10.00">unsigned</text>
<text text-anchor="start" x="640.5" y="-1022.5" font-family="Helvetica,sans-Serif" font-size="10.00"> </text>
<text text-anchor="start" x="640.5" y="-1007.5" font-family="Helvetica,sans-Serif" font-size="10.00"> </text>
<polygon fill="#bfbfbf" stroke="#bfbfbf" points="615,-1032.5 615,-1032.5 670,-1032.5 670,-1032.5 615,-1032.5"/>
<polygon fill="#bfbfbf" stroke="#bfbfbf" points="615,-1017.5 615,-1017.5 670,-1017.5 670,-1017.5 615,-1017.5"/>
<polygon fill="none" stroke="#bfbfbf" points="614.5,-1001 614.5,-1050 669.5,-1050 669.5,-1001 614.5,-1001"/>
</a>
</g>
</g>
<!-- Node7&#45;&gt;Node1 -->
<g id="edge14_Node000001_Node000007" class="edge">
<title>Node7&#45;&gt;Node1</title>
<g id="a_edge14_Node000001_Node000007"><a xlink:title=" ">
<path fill="none" stroke="#63b8ff" d="M641.08,-1000.96C638.28,-922.87 631.52,-672.98 656,-597 710.45,-428.02 871.42,-289.37 978.35,-212.51"/>
<polygon fill="none" stroke="#63b8ff" points="978.42,-212.46 980.99,-205.72 988.2,-205.5 985.63,-212.24 978.42,-212.46"/>
</a>
</g>
<text text-anchor="start" x="656" y="-677" font-family="Helvetica,sans-Serif" font-size="10.00" fill="grey"> #mBoundaryElementCounter</text>
<text text-anchor="middle" x="744" y="-666" font-family="Helvetica,sans-Serif" font-size="10.00" fill="grey">ForParallelMesh</text>
<text text-anchor="start" x="656" y="-655" font-family="Helvetica,sans-Serif" font-size="10.00" fill="grey">#mCableElementCounterForParallel</text>
<text text-anchor="middle" x="744" y="-644" font-family="Helvetica,sans-Serif" font-size="10.00" fill="grey">Mesh</text>
<text text-anchor="middle" x="744" y="-633" font-family="Helvetica,sans-Serif" font-size="10.00" fill="grey">#mElementCounterForParallelMesh</text>
<text text-anchor="middle" x="744" y="-622" font-family="Helvetica,sans-Serif" font-size="10.00" fill="grey">#mNodeCounterForParallelMesh</text>
<text text-anchor="middle" x="744" y="-611" font-family="Helvetica,sans-Serif" font-size="10.00" fill="grey">#mNodesPerBoundaryElement</text>
<text text-anchor="middle" x="744" y="-600" font-family="Helvetica,sans-Serif" font-size="10.00" fill="grey">#mNodesPerElement</text>
</g>
<!-- Node7&#45;&gt;Node2 -->
<g id="edge7_Node000002_Node000007" class="edge">
<title>Node7&#45;&gt;Node2</title>
<g id="a_edge7_Node000002_Node000007"><a xlink:title=" ">
<path fill="none" stroke="#63b8ff" d="M614.47,-1018.21C579.25,-1008.58 519.41,-986.53 491,-943 406.67,-813.81 512.76,-743.03 463,-597 462.28,-594.88 461.51,-592.76 460.71,-590.64"/>
<polygon fill="none" stroke="#63b8ff" points="460.63,-590.44 454.66,-586.4 456.1,-579.33 462.07,-583.38 460.63,-590.44"/>
</a>
</g>
<text text-anchor="middle" x="559.5" y="-837" font-family="Helvetica,sans-Serif" font-size="10.00" fill="grey"> #mNumBoundaryElements</text>
<text text-anchor="middle" x="559.5" y="-826" font-family="Helvetica,sans-Serif" font-size="10.00" fill="grey">#mNumCableElements</text>
<text text-anchor="middle" x="559.5" y="-815" font-family="Helvetica,sans-Serif" font-size="10.00" fill="grey">#mNumElements</text>
<text text-anchor="middle" x="559.5" y="-804" font-family="Helvetica,sans-Serif" font-size="10.00" fill="grey">#mNumNodes</text>
</g>
<!-- Node9 -->
<g id="Node000009" class="node">
<title>Node9</title>
<g id="a_Node000009"><a xlink:title=" ">
<polygon fill="white" stroke="transparent" points="883.5,-847.5 754.5,-847.5 754.5,-798.5 883.5,-798.5 883.5,-847.5"/>
<text text-anchor="start" x="760" y="-835" font-family="Helvetica,sans-Serif" font-size="10.00">std::vector&lt; unsigned &gt;</text>
<text text-anchor="start" x="817.5" y="-820" font-family="Helvetica,sans-Serif" font-size="10.00"> </text>
<text text-anchor="start" x="817.5" y="-805" font-family="Helvetica,sans-Serif" font-size="10.00"> </text>
<polygon fill="#666666" stroke="#666666" points="755,-830 755,-830 884,-830 884,-830 755,-830"/>
<polygon fill="#666666" stroke="#666666" points="755,-815 755,-815 884,-815 884,-815 755,-815"/>
<polygon fill="none" stroke="#666666" points="754.5,-798.5 754.5,-847.5 883.5,-847.5 883.5,-798.5 754.5,-798.5"/>
</a>
</g>
</g>
<!-- Node7&#45;&gt;Node9 -->
<g id="edge10_Node000009_Node000007" class="edge">
<title>Node7&#45;&gt;Node9</title>
<g id="a_edge10_Node000009_Node000007"><a xlink:title=" ">
<path fill="none" stroke="#63b8ff" d="M663,-1000.71C694.54,-964.99 754.23,-897.37 789.93,-856.93"/>
<polygon fill="none" stroke="#63b8ff" points="790.09,-856.75 791.06,-849.61 798.03,-847.76 797.06,-854.9 790.09,-856.75"/>
</a>
</g>
<text text-anchor="middle" x="724" y="-969.5" font-family="Helvetica,sans-Serif" font-size="10.00" fill="grey"> +elements</text>
</g>
<!-- Node8 -->
<g id="Node000008" class="node">
<title>Node8</title>
<g id="a_Node000008"><a xlink:href="classNodeMap.html" target="_top" xlink:title=" ">
<polygon fill="white" stroke="transparent" points="943.5,-543.5 838.5,-543.5 838.5,-374.5 943.5,-374.5 943.5,-543.5"/>
<text text-anchor="start" x="868" y="-531" font-family="Helvetica,sans-Serif" font-size="10.00">NodeMap</text>
<text text-anchor="start" x="889.5" y="-516" font-family="Helvetica,sans-Serif" font-size="10.00"> </text>
<text text-anchor="start" x="843" y="-501" font-family="Helvetica,sans-Serif" font-size="10.00">+</text>
<text text-anchor="start" x="856" y="-501" font-family="Helvetica,sans-Serif" font-size="10.00">NodeMap()</text>
<text text-anchor="start" x="843" y="-486" font-family="Helvetica,sans-Serif" font-size="10.00">+</text>
<text text-anchor="start" x="856" y="-486" font-family="Helvetica,sans-Serif" font-size="10.00">Resize()</text>
<text text-anchor="start" x="843" y="-471" font-family="Helvetica,sans-Serif" font-size="10.00">+</text>
<text text-anchor="start" x="856" y="-471" font-family="Helvetica,sans-Serif" font-size="10.00">ResetToIdentity()</text>
<text text-anchor="start" x="843" y="-456" font-family="Helvetica,sans-Serif" font-size="10.00">+</text>
<text text-anchor="start" x="856" y="-456" font-family="Helvetica,sans-Serif" font-size="10.00">SetNewIndex()</text>
<text text-anchor="start" x="843" y="-441" font-family="Helvetica,sans-Serif" font-size="10.00">+</text>
<text text-anchor="start" x="856" y="-441" font-family="Helvetica,sans-Serif" font-size="10.00">SetDeleted()</text>
<text text-anchor="start" x="843" y="-426" font-family="Helvetica,sans-Serif" font-size="10.00">+</text>
<text text-anchor="start" x="856" y="-426" font-family="Helvetica,sans-Serif" font-size="10.00">IsDeleted()</text>
<text text-anchor="start" x="843" y="-411" font-family="Helvetica,sans-Serif" font-size="10.00">+</text>
<text text-anchor="start" x="856" y="-411" font-family="Helvetica,sans-Serif" font-size="10.00">GetNewIndex()</text>
<text text-anchor="start" x="843" y="-396" font-family="Helvetica,sans-Serif" font-size="10.00">+</text>
<text text-anchor="start" x="856" y="-396" font-family="Helvetica,sans-Serif" font-size="10.00">IsIdentityMap()</text>
<text text-anchor="start" x="843" y="-381" font-family="Helvetica,sans-Serif" font-size="10.00">+</text>
<text text-anchor="start" x="856" y="-381" font-family="Helvetica,sans-Serif" font-size="10.00">GetSize()</text>
<polygon fill="#666666" stroke="#666666" points="839,-526 839,-526 944,-526 944,-526 839,-526"/>
<polygon fill="#666666" stroke="#666666" points="839,-511 839,-511 944,-511 944,-511 839,-511"/>
<polygon fill="none" stroke="#666666" points="838.5,-374.5 838.5,-543.5 943.5,-543.5 943.5,-374.5 838.5,-374.5"/>
</a>
</g>
</g>
<!-- Node8&#45;&gt;Node1 -->
<g id="edge8_Node000001_Node000008" class="edge">
<title>Node8&#45;&gt;Node1</title>
<g id="a_edge8_Node000001_Node000008"><a xlink:title=" ">
<path fill="none" stroke="#63b8ff" d="M882.31,-374.21C883.1,-352.48 886.78,-329.67 896,-310 914.17,-271.26 946.3,-237.8 978.63,-211.45"/>
<polygon fill="none" stroke="#63b8ff" points="978.8,-211.32 981.01,-204.46 988.19,-203.86 985.98,-210.72 978.8,-211.32"/>
</a>
</g>
<text text-anchor="middle" x="931" y="-313" font-family="Helvetica,sans-Serif" font-size="10.00" fill="grey"> &#45;mpNodeMap</text>
</g>
<!-- Node9&#45;&gt;Node8 -->
<g id="edge9_Node000008_Node000009" class="edge">
<title>Node9&#45;&gt;Node8</title>
<g id="a_edge9_Node000008_Node000009"><a xlink:title=" ">
<path fill="none" stroke="#63b8ff" d="M821.23,-798.48C825.37,-757.33 835.3,-669.7 851,-597 853.94,-583.38 857.52,-569.13 861.32,-555.18"/>
<polygon fill="none" stroke="#63b8ff" points="861.33,-555.12 859.09,-548.27 864.55,-543.56 866.8,-550.41 861.33,-555.12"/>
</a>
</g>
<text text-anchor="middle" x="870" y="-638.5" font-family="Helvetica,sans-Serif" font-size="10.00" fill="grey"> &#45;mMap</text>
</g>
<!-- Node10 -->
<g id="Node000010" class="node">
<title>Node10</title>
<g id="a_Node000010"><a xlink:title=" ">
<polygon fill="white" stroke="transparent" points="864.5,-1050 773.5,-1050 773.5,-1001 864.5,-1001 864.5,-1050"/>
<text text-anchor="start" x="779" y="-1037.5" font-family="Helvetica,sans-Serif" font-size="10.00">std::vector&lt; T &gt;</text>
<text text-anchor="start" x="817.5" y="-1022.5" font-family="Helvetica,sans-Serif" font-size="10.00"> </text>
<text text-anchor="start" x="817.5" y="-1007.5" font-family="Helvetica,sans-Serif" font-size="10.00"> </text>
<polygon fill="#666666" stroke="#666666" points="774,-1032.5 774,-1032.5 865,-1032.5 865,-1032.5 774,-1032.5"/>
<polygon fill="#666666" stroke="#666666" points="774,-1017.5 774,-1017.5 865,-1017.5 865,-1017.5 774,-1017.5"/>
<polygon fill="none" stroke="#666666" points="773.5,-1001 773.5,-1050 864.5,-1050 864.5,-1001 773.5,-1001"/>
</a>
</g>
</g>
<!-- Node10&#45;&gt;Node9 -->
<g id="edge11_Node000009_Node000010" class="edge">
<title>Node10&#45;&gt;Node9</title>
<g id="a_edge11_Node000009_Node000010"><a xlink:title=" ">
<path fill="none" stroke="orange" d="M819,-990.51C819,-949.94 819,-883.16 819,-847.76"/>
<polygon fill="orange" stroke="orange" points="815.5,-990.71 819,-1000.71 822.5,-990.71 815.5,-990.71"/>
</a>
</g>
<text text-anchor="middle" x="854" y="-969.5" font-family="Helvetica,sans-Serif" font-size="10.00" fill="grey"> &lt; unsigned &gt;</text>
</g>
<!-- Node11 -->
<g id="Node000011" class="node">
<title>Node11</title>
<g id="a_Node000011"><a xlink:title=" ">
<polygon fill="white" stroke="transparent" points="827.5,-1151.5 810.5,-1151.5 810.5,-1102.5 827.5,-1102.5 827.5,-1151.5"/>
<text text-anchor="start" x="816" y="-1139" font-family="Helvetica,sans-Serif" font-size="10.00">T</text>
<text text-anchor="start" x="817.5" y="-1124" font-family="Helvetica,sans-Serif" font-size="10.00"> </text>
<text text-anchor="start" x="817.5" y="-1109" font-family="Helvetica,sans-Serif" font-size="10.00"> </text>
<polygon fill="#bfbfbf" stroke="#bfbfbf" points="811,-1134 811,-1134 828,-1134 828,-1134 811,-1134"/>
<polygon fill="#bfbfbf" stroke="#bfbfbf" points="811,-1119 811,-1119 828,-1119 828,-1119 811,-1119"/>
<polygon fill="none" stroke="#bfbfbf" points="810.5,-1102.5 810.5,-1151.5 827.5,-1151.5 827.5,-1102.5 810.5,-1102.5"/>
</a>
</g>
</g>
<!-- Node11&#45;&gt;Node10 -->
<g id="edge12_Node000010_Node000011" class="edge">
<title>Node11&#45;&gt;Node10</title>
<g id="a_edge12_Node000010_Node000011"><a xlink:title=" ">
<path fill="none" stroke="#63b8ff" d="M819,-1102.42C819,-1090.49 819,-1075.75 819,-1062.44"/>
<polygon fill="none" stroke="#63b8ff" points="819,-1062.26 815,-1056.26 819,-1050.26 823,-1056.26 819,-1062.26"/>
</a>
</g>
<text text-anchor="middle" x="848" y="-1071" font-family="Helvetica,sans-Serif" font-size="10.00" fill="grey"> +elements</text>
</g>
<!-- Node12 -->
<g id="Node000012" class="node">
<title>Node12</title>
<g id="a_Node000012"><a xlink:href="classbool.html" target="_top" xlink:title=" ">
<polygon fill="white" stroke="transparent" points="965,-847.5 933,-847.5 933,-798.5 965,-798.5 965,-847.5"/>
<text text-anchor="start" x="938" y="-835" font-family="Helvetica,sans-Serif" font-size="10.00">bool</text>
<text text-anchor="start" x="947" y="-820" font-family="Helvetica,sans-Serif" font-size="10.00"> </text>
<text text-anchor="start" x="947" y="-805" font-family="Helvetica,sans-Serif" font-size="10.00"> </text>
<polygon fill="#bfbfbf" stroke="#bfbfbf" points="933,-830 933,-830 965,-830 965,-830 933,-830"/>
<polygon fill="#bfbfbf" stroke="#bfbfbf" points="933,-815 933,-815 965,-815 965,-815 933,-815"/>
<polygon fill="none" stroke="#bfbfbf" points="933,-798.5 933,-847.5 965,-847.5 965,-798.5 933,-798.5"/>
</a>
</g>
</g>
<!-- Node12&#45;&gt;Node1 -->
<g id="edge19_Node000001_Node000012" class="edge">
<title>Node12&#45;&gt;Node1</title>
<g id="a_edge19_Node000001_Node000012"><a xlink:title=" ">
<path fill="none" stroke="#63b8ff" d="M952.36,-798.29C956.13,-771.01 962.21,-724.84 966,-685 980.61,-531.58 950.52,-488.24 989,-339 992.03,-327.25 995.77,-315.34 999.99,-303.51"/>
<polygon fill="none" stroke="#63b8ff" points="1000.01,-303.45 998.34,-296.44 1004.18,-292.2 1005.85,-299.21 1000.01,-303.45"/>
</a>
</g>
<text text-anchor="middle" x="1035.5" y="-467.5" font-family="Helvetica,sans-Serif" font-size="10.00" fill="grey"> #mFilesAreBinary</text>
<text text-anchor="middle" x="1035.5" y="-456.5" font-family="Helvetica,sans-Serif" font-size="10.00" fill="grey">#mIndexFromZero</text>
<text text-anchor="middle" x="1035.5" y="-445.5" font-family="Helvetica,sans-Serif" font-size="10.00" fill="grey">#mWriteMetaFile</text>
</g>
<!-- Node12&#45;&gt;Node8 -->
<g id="edge13_Node000008_Node000012" class="edge">
<title>Node12&#45;&gt;Node8</title>
<g id="a_edge13_Node000008_Node000012"><a xlink:title=" ">
<path fill="none" stroke="#63b8ff" d="M938.84,-798.28C927.83,-771.37 910.81,-725.91 903,-685 895.01,-643.13 891.64,-596.13 890.42,-555.96"/>
<polygon fill="none" stroke="#63b8ff" points="890.41,-555.72 886.26,-549.83 890.1,-543.73 894.26,-549.62 890.41,-555.72"/>
</a>
</g>
<text text-anchor="middle" x="934.5" y="-638.5" font-family="Helvetica,sans-Serif" font-size="10.00" fill="grey"> &#45;mIsIdentity</text>
</g>
<!-- Node13 -->
<g id="Node000013" class="node">
<title>Node13</title>
<g id="a_Node000013"><a xlink:title=" ">
<polygon fill="white" stroke="transparent" points="1264.5,-489 1091.5,-489 1091.5,-429 1264.5,-429 1264.5,-489"/>
<text text-anchor="start" x="1097" y="-477" font-family="Helvetica,sans-Serif" font-size="10.00">AbstractTetrahedralMesh</text>
<text text-anchor="start" x="1097" y="-466" font-family="Helvetica,sans-Serif" font-size="10.00">&lt; ELEMENT_DIM, SPACE_DIM &gt; *</text>
<text text-anchor="start" x="1176.5" y="-451" font-family="Helvetica,sans-Serif" font-size="10.00"> </text>
<text text-anchor="start" x="1176.5" y="-436" font-family="Helvetica,sans-Serif" font-size="10.00"> </text>
<polygon fill="#bfbfbf" stroke="#bfbfbf" points="1092,-461 1092,-461 1265,-461 1265,-461 1092,-461"/>
<polygon fill="#bfbfbf" stroke="#bfbfbf" points="1092,-446 1092,-446 1265,-446 1265,-446 1092,-446"/>
<polygon fill="none" stroke="#bfbfbf" points="1091.5,-429 1091.5,-489 1264.5,-489 1264.5,-429 1091.5,-429"/>
</a>
</g>
</g>
<!-- Node13&#45;&gt;Node1 -->
<g id="edge15_Node000001_Node000013" class="edge">
<title>Node13&#45;&gt;Node1</title>
<g id="a_edge15_Node000001_Node000013"><a xlink:title=" ">
<path fill="none" stroke="#63b8ff" d="M1168.69,-428.74C1159.33,-399.34 1144.15,-351.65 1128.91,-303.79"/>
<polygon fill="none" stroke="#63b8ff" points="1128.89,-303.72 1123.26,-299.22 1125.25,-292.29 1130.88,-296.79 1128.89,-303.72"/>
</a>
</g>
<text text-anchor="middle" x="1159" y="-313" font-family="Helvetica,sans-Serif" font-size="10.00" fill="grey"> #mpMesh</text>
</g>
<!-- Node14 -->
<g id="Node000014" class="node">
<title>Node14</title>
<g id="a_Node000014"><a xlink:title=" ">
<polygon fill="white" stroke="transparent" points="1455.5,-489 1282.5,-489 1282.5,-429 1455.5,-429 1455.5,-489"/>
<text text-anchor="start" x="1288" y="-477" font-family="Helvetica,sans-Serif" font-size="10.00">DistributedTetrahedralMesh</text>
<text text-anchor="start" x="1288" y="-466" font-family="Helvetica,sans-Serif" font-size="10.00">&lt; ELEMENT_DIM, SPACE_DIM &gt; *</text>
<text text-anchor="start" x="1367.5" y="-451" font-family="Helvetica,sans-Serif" font-size="10.00"> </text>
<text text-anchor="start" x="1367.5" y="-436" font-family="Helvetica,sans-Serif" font-size="10.00"> </text>
<polygon fill="#bfbfbf" stroke="#bfbfbf" points="1283,-461 1283,-461 1456,-461 1456,-461 1283,-461"/>
<polygon fill="#bfbfbf" stroke="#bfbfbf" points="1283,-446 1283,-446 1456,-446 1456,-446 1283,-446"/>
<polygon fill="none" stroke="#bfbfbf" points="1282.5,-429 1282.5,-489 1455.5,-489 1455.5,-429 1282.5,-429"/>
</a>
</g>
</g>
<!-- Node14&#45;&gt;Node1 -->
<g id="edge16_Node000001_Node000014" class="edge">
<title>Node14&#45;&gt;Node1</title>
<g id="a_edge16_Node000001_Node000014"><a xlink:title=" ">
<path fill="none" stroke="#63b8ff" d="M1347.28,-428.84C1328.6,-404.25 1300.54,-368.46 1274,-339 1244.06,-305.77 1209.76,-271.01 1178.37,-240.35"/>
<polygon fill="none" stroke="#63b8ff" points="1178.2,-240.18 1171.11,-238.86 1169.6,-231.81 1176.69,-233.13 1178.2,-240.18"/>
</a>
</g>
<text text-anchor="middle" x="1307" y="-313" font-family="Helvetica,sans-Serif" font-size="10.00" fill="grey"> #mpDistributedMesh</text>
</g>
<!-- Node15 -->
<g id="Node000015" class="node">
<title>Node15</title>
<g id="a_Node000015"><a xlink:title=" ">
<polygon fill="white" stroke="transparent" points="1602.5,-494.5 1473.5,-494.5 1473.5,-423.5 1602.5,-423.5 1602.5,-494.5"/>
<text text-anchor="start" x="1479" y="-482" font-family="Helvetica,sans-Serif" font-size="10.00">MixedDimensionMesh</text>
<text text-anchor="start" x="1479" y="-471" font-family="Helvetica,sans-Serif" font-size="10.00">&lt; ELEMENT_DIM, SPACE</text>
<text text-anchor="start" x="1516" y="-460" font-family="Helvetica,sans-Serif" font-size="10.00">_DIM &gt; *</text>
<text text-anchor="start" x="1536.5" y="-445" font-family="Helvetica,sans-Serif" font-size="10.00"> </text>
<text text-anchor="start" x="1536.5" y="-430" font-family="Helvetica,sans-Serif" font-size="10.00"> </text>
<polygon fill="#bfbfbf" stroke="#bfbfbf" points="1474,-455 1474,-455 1603,-455 1603,-455 1474,-455"/>
<polygon fill="#bfbfbf" stroke="#bfbfbf" points="1474,-440 1474,-440 1603,-440 1603,-440 1474,-440"/>
<polygon fill="none" stroke="#bfbfbf" points="1473.5,-423.5 1473.5,-494.5 1602.5,-494.5 1602.5,-423.5 1473.5,-423.5"/>
</a>
</g>
</g>
<!-- Node15&#45;&gt;Node1 -->
<g id="edge17_Node000001_Node000015" class="edge">
<title>Node15&#45;&gt;Node1</title>
<g id="a_edge17_Node000001_Node000015"><a xlink:title=" ">
<path fill="none" stroke="#63b8ff" d="M1523.22,-423.4C1510.77,-397.51 1490.84,-362.64 1465,-339 1382.51,-263.52 1264.86,-210.75 1181.16,-179.89"/>
<polygon fill="none" stroke="#63b8ff" points="1181.12,-179.88 1174.12,-181.59 1169.85,-175.78 1176.85,-174.07 1181.12,-179.88"/>
</a>
</g>
<text text-anchor="middle" x="1479.5" y="-313" font-family="Helvetica,sans-Serif" font-size="10.00" fill="grey"> #mpMixedMesh</text>
</g>
<!-- Node16 -->
<g id="Node000016" class="node">
<title>Node16</title>
<g id="a_Node000016"><a xlink:title=" ">
<polygon fill="white" stroke="transparent" points="1749.5,-494.5 1620.5,-494.5 1620.5,-423.5 1749.5,-423.5 1749.5,-494.5"/>
<text text-anchor="start" x="1626" y="-482" font-family="Helvetica,sans-Serif" font-size="10.00">MeshWriterIterators</text>
<text text-anchor="start" x="1626" y="-471" font-family="Helvetica,sans-Serif" font-size="10.00">&lt; ELEMENT_DIM, SPACE</text>
<text text-anchor="start" x="1663" y="-460" font-family="Helvetica,sans-Serif" font-size="10.00">_DIM &gt; *</text>
<text text-anchor="start" x="1683.5" y="-445" font-family="Helvetica,sans-Serif" font-size="10.00"> </text>
<text text-anchor="start" x="1683.5" y="-430" font-family="Helvetica,sans-Serif" font-size="10.00"> </text>
<polygon fill="#bfbfbf" stroke="#bfbfbf" points="1621,-455 1621,-455 1750,-455 1750,-455 1621,-455"/>
<polygon fill="#bfbfbf" stroke="#bfbfbf" points="1621,-440 1621,-440 1750,-440 1750,-440 1621,-440"/>
<polygon fill="none" stroke="#bfbfbf" points="1620.5,-423.5 1620.5,-494.5 1749.5,-494.5 1749.5,-423.5 1620.5,-423.5"/>
</a>
</g>
</g>
<!-- Node16&#45;&gt;Node1 -->
<g id="edge18_Node000001_Node000016" class="edge">
<title>Node16&#45;&gt;Node1</title>
<g id="a_edge18_Node000001_Node000016"><a xlink:title=" ">
<path fill="none" stroke="#63b8ff" d="M1671.35,-423.34C1659.33,-396.9 1639.45,-361.34 1612,-339 1484.73,-235.41 1296.95,-185.29 1181.6,-162.95"/>
<polygon fill="none" stroke="#63b8ff" points="1181.42,-162.92 1174.78,-165.73 1169.63,-160.68 1176.27,-157.87 1181.42,-162.92"/>
</a>
</g>
<text text-anchor="middle" x="1611.5" y="-313" font-family="Helvetica,sans-Serif" font-size="10.00" fill="grey"> #mpIters</text>
</g>
</g>
</svg>
