<?xml version="1.0" encoding="UTF-8" standalone="no"?>
<!DOCTYPE svg PUBLIC "-//W3C//DTD SVG 1.1//EN"
 "http://www.w3.org/Graphics/SVG/1.1/DTD/svg11.dtd">
<!-- Generated by graphviz version 2.43.0 (0)
 -->
<!-- Title: CellData Pages: 1 -->
<svg width="556pt" height="611pt"
 viewBox="0.00 0.00 556.00 611.00" xmlns="http://www.w3.org/2000/svg" xmlns:xlink="http://www.w3.org/1999/xlink">
<g id="graph0" class="graph" transform="scale(1 1) rotate(0) translate(4 607)">
<title>CellData</title>
<!-- Node1 -->
<g id="Node000001" class="node">
<title>Node1</title>
<g id="a_Node000001"><a xlink:title=" ">
<polygon fill="#999999" stroke="transparent" points="342.5,-139 245.5,-139 245.5,0 342.5,0 342.5,-139"/>
<text text-anchor="start" x="273" y="-126.5" font-family="Helvetica,sans-Serif" font-size="10.00">CellData</text>
<text text-anchor="start" x="292.5" y="-111.5" font-family="Helvetica,sans-Serif" font-size="10.00"> </text>
<text text-anchor="start" x="250" y="-96.5" font-family="Helvetica,sans-Serif" font-size="10.00">+</text>
<text text-anchor="start" x="263" y="-96.5" font-family="Helvetica,sans-Serif" font-size="10.00">~CellData()</text>
<text text-anchor="start" x="250" y="-81.5" font-family="Helvetica,sans-Serif" font-size="10.00">+</text>
<text text-anchor="start" x="263" y="-81.5" font-family="Helvetica,sans-Serif" font-size="10.00">SetItem()</text>
<text text-anchor="start" x="250" y="-66.5" font-family="Helvetica,sans-Serif" font-size="10.00">+</text>
<text text-anchor="start" x="263" y="-66.5" font-family="Helvetica,sans-Serif" font-size="10.00">GetItem()</text>
<text text-anchor="start" x="250" y="-51.5" font-family="Helvetica,sans-Serif" font-size="10.00">+</text>
<text text-anchor="start" x="263" y="-51.5" font-family="Helvetica,sans-Serif" font-size="10.00">GetNumItems()</text>
<text text-anchor="start" x="250" y="-36.5" font-family="Helvetica,sans-Serif" font-size="10.00">+</text>
<text text-anchor="start" x="263" y="-36.5" font-family="Helvetica,sans-Serif" font-size="10.00">GetKeys()</text>
<text text-anchor="start" x="250" y="-21.5" font-family="Helvetica,sans-Serif" font-size="10.00">+</text>
<text text-anchor="start" x="263" y="-21.5" font-family="Helvetica,sans-Serif" font-size="10.00">HasItem()</text>
<text text-anchor="start" x="252.5" y="-6.5" font-family="Helvetica,sans-Serif" font-size="10.00">&#45;</text>
<text text-anchor="start" x="263" y="-6.5" font-family="Helvetica,sans-Serif" font-size="10.00">serialize()</text>
<polygon fill="#666666" stroke="#666666" points="246,-121.5 246,-121.5 343,-121.5 343,-121.5 246,-121.5"/>
<polygon fill="#666666" stroke="#666666" points="246,-106.5 246,-106.5 343,-106.5 343,-106.5 246,-106.5"/>
<polygon fill="none" stroke="#666666" points="245.5,0 245.5,-139 342.5,-139 342.5,0 245.5,0"/>
</a>
</g>
</g>
<!-- Node2 -->
<g id="Node000002" class="node">
<title>Node2</title>
<g id="a_Node000002"><a xlink:href="classAbstractCellProperty.html" target="_top" xlink:title=" ">
<polygon fill="white" stroke="transparent" points="291,-370 153,-370 153,-186 291,-186 291,-370"/>
<text text-anchor="start" x="171.5" y="-358" font-family="Helvetica,sans-Serif" font-size="10.00">AbstractCellProperty</text>
<text text-anchor="start" x="220" y="-343" font-family="Helvetica,sans-Serif" font-size="10.00"> </text>
<text text-anchor="start" x="157" y="-328" font-family="Helvetica,sans-Serif" font-size="10.00">+</text>
<text text-anchor="start" x="170" y="-328" font-family="Helvetica,sans-Serif" font-size="10.00">AbstractCellProperty()</text>
<text text-anchor="start" x="157" y="-313" font-family="Helvetica,sans-Serif" font-size="10.00">+</text>
<text text-anchor="start" x="170" y="-313" font-family="Helvetica,sans-Serif" font-size="10.00">~AbstractCellProperty()</text>
<text text-anchor="start" x="157" y="-298" font-family="Helvetica,sans-Serif" font-size="10.00">+</text>
<text text-anchor="start" x="170" y="-298" font-family="Helvetica,sans-Serif" font-size="10.00">IsType()</text>
<text text-anchor="start" x="157" y="-283" font-family="Helvetica,sans-Serif" font-size="10.00">+</text>
<text text-anchor="start" x="170" y="-283" font-family="Helvetica,sans-Serif" font-size="10.00">IsSubType()</text>
<text text-anchor="start" x="157" y="-268" font-family="Helvetica,sans-Serif" font-size="10.00">+</text>
<text text-anchor="start" x="170" y="-268" font-family="Helvetica,sans-Serif" font-size="10.00">IsSame()</text>
<text text-anchor="start" x="157" y="-253" font-family="Helvetica,sans-Serif" font-size="10.00">+</text>
<text text-anchor="start" x="170" y="-253" font-family="Helvetica,sans-Serif" font-size="10.00">IsSame()</text>
<text text-anchor="start" x="157" y="-238" font-family="Helvetica,sans-Serif" font-size="10.00">+</text>
<text text-anchor="start" x="170" y="-238" font-family="Helvetica,sans-Serif" font-size="10.00">IncrementCellCount()</text>
<text text-anchor="start" x="157" y="-223" font-family="Helvetica,sans-Serif" font-size="10.00">+</text>
<text text-anchor="start" x="170" y="-223" font-family="Helvetica,sans-Serif" font-size="10.00">DecrementCellCount()</text>
<text text-anchor="start" x="157" y="-208" font-family="Helvetica,sans-Serif" font-size="10.00">+</text>
<text text-anchor="start" x="170" y="-208" font-family="Helvetica,sans-Serif" font-size="10.00">GetCellCount()</text>
<text text-anchor="start" x="159.5" y="-193" font-family="Helvetica,sans-Serif" font-size="10.00">&#45;</text>
<text text-anchor="start" x="170" y="-193" font-family="Helvetica,sans-Serif" font-size="10.00">serialize()</text>
<polygon fill="#666666" stroke="#666666" points="153,-353 153,-353 291,-353 291,-353 153,-353"/>
<polygon fill="#666666" stroke="#666666" points="153,-338 153,-338 291,-338 291,-338 153,-338"/>
<polygon fill="none" stroke="#666666" points="153,-186 153,-370 291,-370 291,-186 153,-186"/>
</a>
</g>
</g>
<!-- Node2&#45;&gt;Node1 -->
<g id="edge1_Node000001_Node000002" class="edge">
<title>Node2&#45;&gt;Node1</title>
<g id="a_edge1_Node000001_Node000002"><a xlink:title=" ">
<path fill="none" stroke="#63b8ff" d="M257.13,-176.24C261.51,-163.69 265.9,-151.08 270.06,-139.17"/>
<polygon fill="none" stroke="#63b8ff" points="253.78,-175.23 253.79,-185.82 260.39,-177.53 253.78,-175.23"/>
</a>
</g>
</g>
<!-- Node3 -->
<g id="Node000003" class="node">
<title>Node3</title>
<g id="a_Node000003"><a xlink:href="classIdentifiable.html" target="_top" xlink:title=" ">
<polygon fill="white" stroke="transparent" points="176,-496 0,-496 0,-417 176,-417 176,-496"/>
<text text-anchor="start" x="60.5" y="-483.5" font-family="Helvetica,sans-Serif" font-size="10.00">Identifiable</text>
<text text-anchor="start" x="86" y="-468.5" font-family="Helvetica,sans-Serif" font-size="10.00"> </text>
<text text-anchor="start" x="4" y="-453.5" font-family="Helvetica,sans-Serif" font-size="10.00">+</text>
<text text-anchor="start" x="17" y="-453.5" font-family="Helvetica,sans-Serif" font-size="10.00">~Identifiable()</text>
<text text-anchor="start" x="4" y="-438.5" font-family="Helvetica,sans-Serif" font-size="10.00">+</text>
<text text-anchor="start" x="17" y="-438.5" font-family="Helvetica,sans-Serif" font-size="10.00">GetIdentifier()</text>
<text text-anchor="start" x="6.5" y="-423.5" font-family="Helvetica,sans-Serif" font-size="10.00">&#45;</text>
<text text-anchor="start" x="17" y="-423.5" font-family="Helvetica,sans-Serif" font-size="10.00">TidyTemplatedExportIdentifier()</text>
<polygon fill="#666666" stroke="#666666" points="0,-478.5 0,-478.5 176,-478.5 176,-478.5 0,-478.5"/>
<polygon fill="#666666" stroke="#666666" points="0,-463.5 0,-463.5 176,-463.5 176,-463.5 0,-463.5"/>
<polygon fill="none" stroke="#666666" points="0,-417 0,-496 176,-496 176,-417 0,-417"/>
</a>
</g>
</g>
<!-- Node3&#45;&gt;Node2 -->
<g id="edge2_Node000002_Node000003" class="edge">
<title>Node3&#45;&gt;Node2</title>
<g id="a_edge2_Node000002_Node000003"><a xlink:title=" ">
<path fill="none" stroke="#63b8ff" d="M123.53,-408.71C132.61,-396.74 142.7,-383.45 152.85,-370.08"/>
<polygon fill="none" stroke="#63b8ff" points="120.67,-406.69 117.41,-416.77 126.24,-410.92 120.67,-406.69"/>
</a>
</g>
</g>
<!-- Node4 -->
<g id="Node000004" class="node">
<title>Node4</title>
<g id="a_Node000004"><a xlink:href="classunsigned.html" target="_top" xlink:title=" ">
<polygon fill="white" stroke="transparent" points="249.5,-481 194.5,-481 194.5,-432 249.5,-432 249.5,-481"/>
<text text-anchor="start" x="200" y="-468.5" font-family="Helvetica,sans-Serif" font-size="10.00">unsigned</text>
<text text-anchor="start" x="220.5" y="-453.5" font-family="Helvetica,sans-Serif" font-size="10.00"> </text>
<text text-anchor="start" x="220.5" y="-438.5" font-family="Helvetica,sans-Serif" font-size="10.00"> </text>
<polygon fill="#bfbfbf" stroke="#bfbfbf" points="195,-463.5 195,-463.5 250,-463.5 250,-463.5 195,-463.5"/>
<polygon fill="#bfbfbf" stroke="#bfbfbf" points="195,-448.5 195,-448.5 250,-448.5 250,-448.5 195,-448.5"/>
<polygon fill="none" stroke="#bfbfbf" points="194.5,-432 194.5,-481 249.5,-481 249.5,-432 194.5,-432"/>
</a>
</g>
</g>
<!-- Node4&#45;&gt;Node2 -->
<g id="edge3_Node000002_Node000004" class="edge">
<title>Node4&#45;&gt;Node2</title>
<g id="a_edge3_Node000002_Node000004"><a xlink:title=" ">
<path fill="none" stroke="#63b8ff" d="M222,-431.7C222,-418.42 222,-400.87 222,-382.4"/>
<polygon fill="none" stroke="#63b8ff" points="222,-382.17 218,-376.17 222,-370.17 226,-376.17 222,-382.17"/>
</a>
</g>
<text text-anchor="middle" x="254" y="-391" font-family="Helvetica,sans-Serif" font-size="10.00" fill="grey"> &#45;mCellCount</text>
</g>
<!-- Node5 -->
<g id="Node000005" class="node">
<title>Node5</title>
<g id="a_Node000005"><a xlink:title=" ">
<polygon fill="white" stroke="transparent" points="425,-308 309,-308 309,-248 425,-248 425,-308"/>
<text text-anchor="start" x="314" y="-296" font-family="Helvetica,sans-Serif" font-size="10.00">std::map&lt; std::string,</text>
<text text-anchor="start" x="343" y="-285" font-family="Helvetica,sans-Serif" font-size="10.00"> double &gt;</text>
<text text-anchor="start" x="365" y="-270" font-family="Helvetica,sans-Serif" font-size="10.00"> </text>
<text text-anchor="start" x="365" y="-255" font-family="Helvetica,sans-Serif" font-size="10.00"> </text>
<polygon fill="#666666" stroke="#666666" points="309,-280 309,-280 425,-280 425,-280 309,-280"/>
<polygon fill="#666666" stroke="#666666" points="309,-265 309,-265 425,-265 425,-265 309,-265"/>
<polygon fill="none" stroke="#666666" points="309,-248 309,-308 425,-308 425,-248 309,-248"/>
</a>
</g>
</g>
<!-- Node5&#45;&gt;Node1 -->
<g id="edge4_Node000001_Node000005" class="edge">
<title>Node5&#45;&gt;Node1</title>
<g id="a_edge4_Node000001_Node000005"><a xlink:title=" ">
<path fill="none" stroke="#63b8ff" d="M356.7,-247.85C347.76,-222.58 334.4,-184.79 322.31,-150.58"/>
<polygon fill="none" stroke="#63b8ff" points="322.27,-150.46 316.49,-146.13 318.27,-139.14 324.04,-143.47 322.27,-150.46"/>
</a>
</g>
<text text-anchor="middle" x="358.5" y="-160" font-family="Helvetica,sans-Serif" font-size="10.00" fill="grey"> &#45;mCellData</text>
</g>
<!-- Node6 -->
<g id="Node000006" class="node">
<title>Node6</title>
<g id="a_Node000006"><a xlink:title=" ">
<polygon fill="white" stroke="transparent" points="326.5,-481 267.5,-481 267.5,-432 326.5,-432 326.5,-481"/>
<text text-anchor="start" x="273" y="-468.5" font-family="Helvetica,sans-Serif" font-size="10.00">std::string</text>
<text text-anchor="start" x="295.5" y="-453.5" font-family="Helvetica,sans-Serif" font-size="10.00"> </text>
<text text-anchor="start" x="295.5" y="-438.5" font-family="Helvetica,sans-Serif" font-size="10.00"> </text>
<polygon fill="#666666" stroke="#666666" points="268,-463.5 268,-463.5 327,-463.5 327,-463.5 268,-463.5"/>
<polygon fill="#666666" stroke="#666666" points="268,-448.5 268,-448.5 327,-448.5 327,-448.5 268,-448.5"/>
<polygon fill="none" stroke="#666666" points="267.5,-432 267.5,-481 326.5,-481 326.5,-432 267.5,-432"/>
</a>
</g>
</g>
<!-- Node6&#45;&gt;Node5 -->
<g id="edge5_Node000005_Node000006" class="edge">
<title>Node6&#45;&gt;Node5</title>
<g id="a_edge5_Node000005_Node000006"><a xlink:title=" ">
<path fill="none" stroke="#63b8ff" d="M306.44,-431.7C317.84,-402.95 337.19,-354.15 350.95,-319.46"/>
<polygon fill="none" stroke="#63b8ff" points="350.96,-319.44 349.45,-312.39 355.38,-308.29 356.89,-315.34 350.96,-319.44"/>
</a>
</g>
<text text-anchor="middle" x="341" y="-391" font-family="Helvetica,sans-Serif" font-size="10.00" fill="grey"> +keys</text>
</g>
<!-- Node7 -->
<g id="Node000007" class="node">
<title>Node7</title>
<g id="a_Node000007"><a xlink:title=" ">
<polygon fill="white" stroke="transparent" points="346,-603 248,-603 248,-543 346,-543 346,-603"/>
<text text-anchor="start" x="253" y="-591" font-family="Helvetica,sans-Serif" font-size="10.00">std::basic_string&lt;</text>
<text text-anchor="start" x="278.5" y="-580" font-family="Helvetica,sans-Serif" font-size="10.00"> Char &gt;</text>
<text text-anchor="start" x="295" y="-565" font-family="Helvetica,sans-Serif" font-size="10.00"> </text>
<text text-anchor="start" x="295" y="-550" font-family="Helvetica,sans-Serif" font-size="10.00"> </text>
<polygon fill="#666666" stroke="#666666" points="248,-575 248,-575 346,-575 346,-575 248,-575"/>
<polygon fill="#666666" stroke="#666666" points="248,-560 248,-560 346,-560 346,-560 248,-560"/>
<polygon fill="none" stroke="#666666" points="248,-543 248,-603 346,-603 346,-543 248,-543"/>
</a>
</g>
</g>
<!-- Node7&#45;&gt;Node6 -->
<g id="edge6_Node000006_Node000007" class="edge">
<title>Node7&#45;&gt;Node6</title>
<g id="a_edge6_Node000006_Node000007"><a xlink:title=" ">
<path fill="none" stroke="#63b8ff" d="M297,-532.54C297,-515.47 297,-496.05 297,-481.24"/>
<polygon fill="none" stroke="#63b8ff" points="293.5,-532.81 297,-542.81 300.5,-532.81 293.5,-532.81"/>
</a>
</g>
</g>
<!-- Node8 -->
<g id="Node000008" class="node">
<title>Node8</title>
<g id="a_Node000008"><a xlink:href="classdouble.html" target="_top" xlink:title=" ">
<polygon fill="white" stroke="transparent" points="389,-481 345,-481 345,-432 389,-432 389,-481"/>
<text text-anchor="start" x="350" y="-468.5" font-family="Helvetica,sans-Serif" font-size="10.00">double</text>
<text text-anchor="start" x="365" y="-453.5" font-family="Helvetica,sans-Serif" font-size="10.00"> </text>
<text text-anchor="start" x="365" y="-438.5" font-family="Helvetica,sans-Serif" font-size="10.00"> </text>
<polygon fill="#bfbfbf" stroke="#bfbfbf" points="345,-463.5 345,-463.5 389,-463.5 389,-463.5 345,-463.5"/>
<polygon fill="#bfbfbf" stroke="#bfbfbf" points="345,-448.5 345,-448.5 389,-448.5 389,-448.5 345,-448.5"/>
<polygon fill="none" stroke="#bfbfbf" points="345,-432 345,-481 389,-481 389,-432 345,-432"/>
</a>
</g>
</g>
<!-- Node8&#45;&gt;Node5 -->
<g id="edge7_Node000005_Node000008" class="edge">
<title>Node8&#45;&gt;Node5</title>
<g id="a_edge7_Node000005_Node000008"><a xlink:title=" ">
<path fill="none" stroke="#63b8ff" d="M367,-431.7C367,-403.2 367,-355 367,-320.37"/>
<polygon fill="none" stroke="#63b8ff" points="367,-320.29 363,-314.29 367,-308.29 371,-314.29 367,-320.29"/>
</a>
</g>
<text text-anchor="middle" x="396" y="-391" font-family="Helvetica,sans-Serif" font-size="10.00" fill="grey"> +elements</text>
</g>
<!-- Node9 -->
<g id="Node000009" class="node">
<title>Node9</title>
<g id="a_Node000009"><a xlink:title=" ">
<polygon fill="white" stroke="transparent" points="502.5,-481 407.5,-481 407.5,-432 502.5,-432 502.5,-481"/>
<text text-anchor="start" x="413" y="-468.5" font-family="Helvetica,sans-Serif" font-size="10.00">std::map&lt; K, T &gt;</text>
<text text-anchor="start" x="453.5" y="-453.5" font-family="Helvetica,sans-Serif" font-size="10.00"> </text>
<text text-anchor="start" x="453.5" y="-438.5" font-family="Helvetica,sans-Serif" font-size="10.00"> </text>
<polygon fill="#666666" stroke="#666666" points="408,-463.5 408,-463.5 503,-463.5 503,-463.5 408,-463.5"/>
<polygon fill="#666666" stroke="#666666" points="408,-448.5 408,-448.5 503,-448.5 503,-448.5 408,-448.5"/>
<polygon fill="none" stroke="#666666" points="407.5,-432 407.5,-481 502.5,-481 502.5,-432 407.5,-432"/>
</a>
</g>
</g>
<!-- Node9&#45;&gt;Node5 -->
<g id="edge8_Node000005_Node000009" class="edge">
<title>Node9&#45;&gt;Node5</title>
<g id="a_edge8_Node000005_Node000009"><a xlink:title=" ">
<path fill="none" stroke="orange" d="M443.24,-422.02C439.08,-411.04 434.15,-398.86 429,-388 415.86,-360.26 398.38,-330.01 385.34,-308.43"/>
<polygon fill="orange" stroke="orange" points="440.07,-423.55 446.82,-431.71 446.63,-421.11 440.07,-423.55"/>
</a>
</g>
<text text-anchor="middle" x="491" y="-391" font-family="Helvetica,sans-Serif" font-size="10.00" fill="grey"> &lt; std::string, double &gt;</text>
</g>
<!-- Node10 -->
<g id="Node000010" class="node">
<title>Node10</title>
<g id="a_Node000010"><a xlink:title=" ">
<polygon fill="white" stroke="transparent" points="434.5,-597.5 417.5,-597.5 417.5,-548.5 434.5,-548.5 434.5,-597.5"/>
<text text-anchor="start" x="423" y="-585" font-family="Helvetica,sans-Serif" font-size="10.00">K</text>
<text text-anchor="start" x="424.5" y="-570" font-family="Helvetica,sans-Serif" font-size="10.00"> </text>
<text text-anchor="start" x="424.5" y="-555" font-family="Helvetica,sans-Serif" font-size="10.00"> </text>
<polygon fill="#bfbfbf" stroke="#bfbfbf" points="418,-580 418,-580 435,-580 435,-580 418,-580"/>
<polygon fill="#bfbfbf" stroke="#bfbfbf" points="418,-565 418,-565 435,-565 435,-565 418,-565"/>
<polygon fill="none" stroke="#bfbfbf" points="417.5,-548.5 417.5,-597.5 434.5,-597.5 434.5,-548.5 417.5,-548.5"/>
</a>
</g>
</g>
<!-- Node10&#45;&gt;Node9 -->
<g id="edge9_Node000009_Node000010" class="edge">
<title>Node10&#45;&gt;Node9</title>
<g id="a_edge9_Node000009_Node000010"><a xlink:title=" ">
<path fill="none" stroke="#63b8ff" d="M426.36,-548.3C426.95,-537.68 428.24,-525.08 431,-514 432.8,-506.76 435.41,-499.25 438.26,-492.16"/>
<polygon fill="none" stroke="#63b8ff" points="438.27,-492.15 436.96,-485.05 443,-481.12 444.31,-488.21 438.27,-492.15"/>
</a>
</g>
<text text-anchor="middle" x="448" y="-517" font-family="Helvetica,sans-Serif" font-size="10.00" fill="grey"> +keys</text>
</g>
<!-- Node11 -->
<g id="Node000011" class="node">
<title>Node11</title>
<g id="a_Node000011"><a xlink:title=" ">
<polygon fill="white" stroke="transparent" points="491.5,-597.5 474.5,-597.5 474.5,-548.5 491.5,-548.5 491.5,-597.5"/>
<text text-anchor="start" x="480" y="-585" font-family="Helvetica,sans-Serif" font-size="10.00">T</text>
<text text-anchor="start" x="481.5" y="-570" font-family="Helvetica,sans-Serif" font-size="10.00"> </text>
<text text-anchor="start" x="481.5" y="-555" font-family="Helvetica,sans-Serif" font-size="10.00"> </text>
<polygon fill="#bfbfbf" stroke="#bfbfbf" points="475,-580 475,-580 492,-580 492,-580 475,-580"/>
<polygon fill="#bfbfbf" stroke="#bfbfbf" points="475,-565 475,-565 492,-565 492,-565 475,-565"/>
<polygon fill="none" stroke="#bfbfbf" points="474.5,-548.5 474.5,-597.5 491.5,-597.5 491.5,-548.5 474.5,-548.5"/>
</a>
</g>
</g>
<!-- Node11&#45;&gt;Node9 -->
<g id="edge10_Node000009_Node000011" class="edge">
<title>Node11&#45;&gt;Node9</title>
<g id="a_edge10_Node000009_Node000011"><a xlink:title=" ">
<path fill="none" stroke="#63b8ff" d="M477.2,-548.28C473.29,-532.31 468.08,-510.97 463.68,-492.99"/>
<polygon fill="none" stroke="#63b8ff" points="463.64,-492.85 458.33,-487.97 460.79,-481.19 466.1,-486.07 463.64,-492.85"/>
</a>
</g>
<text text-anchor="middle" x="500" y="-517" font-family="Helvetica,sans-Serif" font-size="10.00" fill="grey"> +elements</text>
</g>
</g>
</svg>
