<?xml version="1.0" encoding="UTF-8" standalone="no"?>
<!DOCTYPE svg PUBLIC "-//W3C//DTD SVG 1.1//EN"
 "http://www.w3.org/Graphics/SVG/1.1/DTD/svg11.dtd">
<!-- Generated by graphviz version 2.43.0 (0)
 -->
<!-- Title: linalg/src/UblasVectorInclude.hpp Pages: 1 -->
<svg width="256pt" height="148pt"
 viewBox="0.00 0.00 256.00 148.00" xmlns="http://www.w3.org/2000/svg" xmlns:xlink="http://www.w3.org/1999/xlink">
<g id="graph0" class="graph" transform="scale(1 1) rotate(0) translate(4 144)">
<title>linalg/src/UblasVectorInclude.hpp</title>
<!-- Node1 -->
<g id="Node000001" class="node">
<title>Node1</title>
<g id="a_Node000001"><a xlink:title=" ">
<polygon fill="#999999" stroke="#666666" points="212.5,-140 33.5,-140 33.5,-121 212.5,-121 212.5,-140"/>
<text text-anchor="middle" x="123" y="-128" font-family="Helvetica,sans-Serif" font-size="10.00">linalg/src/UblasVectorInclude.hpp</text>
</a>
</g>
</g>
<!-- Node2 -->
<g id="Node000002" class="node">
<title>Node2</title>
<g id="a_Node000002"><a xlink:href="ChastePragmas_8hpp_source.html" target="_top" xlink:title=" ">
<polygon fill="white" stroke="#666666" points="114,-79.5 0,-79.5 0,-60.5 114,-60.5 114,-79.5"/>
<text text-anchor="middle" x="57" y="-67.5" font-family="Helvetica,sans-Serif" font-size="10.00">ChastePragmas.hpp</text>
</a>
</g>
</g>
<!-- Node1&#45;&gt;Node2 -->
<g id="edge1_Node000001_Node000002" class="edge">
<title>Node1&#45;&gt;Node2</title>
<g id="a_edge1_Node000001_Node000002"><a xlink:title=" ">
<path fill="none" stroke="#63b8ff" d="M113.26,-120.87C103.03,-111.8 86.71,-97.34 74.28,-86.32"/>
<polygon fill="#63b8ff" stroke="#63b8ff" points="76.58,-83.68 66.78,-79.67 71.94,-88.92 76.58,-83.68"/>
</a>
</g>
</g>
<!-- Node4 -->
<g id="Node000004" class="node">
<title>Node4</title>
<g id="a_Node000004"><a xlink:title=" ">
<polygon fill="#e0e0e0" stroke="#999999" points="248,-85 132,-85 132,-55 248,-55 248,-85"/>
<text text-anchor="start" x="140" y="-73" font-family="Helvetica,sans-Serif" font-size="10.00">boost/numeric/ublas</text>
<text text-anchor="middle" x="190" y="-62" font-family="Helvetica,sans-Serif" font-size="10.00">/vector.hpp</text>
</a>
</g>
</g>
<!-- Node1&#45;&gt;Node4 -->
<g id="edge3_Node000001_Node000004" class="edge">
<title>Node1&#45;&gt;Node4</title>
<g id="a_edge3_Node000001_Node000004"><a xlink:title=" ">
<path fill="none" stroke="#63b8ff" d="M132.89,-120.87C141.64,-113.22 154.77,-101.76 166.24,-91.75"/>
<polygon fill="#63b8ff" stroke="#63b8ff" points="168.6,-94.33 173.83,-85.11 164,-89.06 168.6,-94.33"/>
</a>
</g>
</g>
<!-- Node3 -->
<g id="Node000003" class="node">
<title>Node3</title>
<g id="a_Node000003"><a xlink:title=" ">
<polygon fill="#e0e0e0" stroke="#999999" points="109,-19 5,-19 5,0 109,0 109,-19"/>
<text text-anchor="middle" x="57" y="-7" font-family="Helvetica,sans-Serif" font-size="10.00">boost/version.hpp</text>
</a>
</g>
</g>
<!-- Node2&#45;&gt;Node3 -->
<g id="edge2_Node000002_Node000003" class="edge">
<title>Node2&#45;&gt;Node3</title>
<g id="a_edge2_Node000002_Node000003"><a xlink:title=" ">
<path fill="none" stroke="#63b8ff" d="M57,-60.37C57,-52.25 57,-39.81 57,-29.39"/>
<polygon fill="#63b8ff" stroke="#63b8ff" points="60.5,-29.17 57,-19.17 53.5,-29.17 60.5,-29.17"/>
</a>
</g>
</g>
</g>
</svg>
