<?xml version="1.0" encoding="UTF-8" standalone="no"?>
<!DOCTYPE svg PUBLIC "-//W3C//DTD SVG 1.1//EN"
 "http://www.w3.org/Graphics/SVG/1.1/DTD/svg11.dtd">
<!-- Generated by graphviz version 2.40.1 (20161225.0304)
 -->
<!-- Title: CellwiseSourceEllipticPde&lt; DIM &gt; Pages: 1 -->
<svg width="2031pt" height="1091pt"
 viewBox="0.00 0.00 2030.50 1091.00" xmlns="http://www.w3.org/2000/svg" xmlns:xlink="http://www.w3.org/1999/xlink">
<g id="graph0" class="graph" transform="scale(1 1) rotate(0) translate(4 1087)">
<title>CellwiseSourceEllipticPde&lt; DIM &gt;</title>
<polygon fill="#ffffff" stroke="transparent" points="-4,4 -4,-1087 2026.5,-1087 2026.5,4 -4,4"/>
<!-- Node4 -->
<g id="node1" class="node">
<title>Node4</title>
<polygon fill="#bfbfbf" stroke="#000000" points="543,-.5 543,-156.5 742,-156.5 742,-.5 543,-.5"/>
<text text-anchor="start" x="551" y="-144.5" font-family="Helvetica,sans-Serif" font-size="10.00" fill="#000000">CellwiseSourceEllipticPde</text>
<text text-anchor="middle" x="642.5" y="-133.5" font-family="Helvetica,sans-Serif" font-size="10.00" fill="#000000">&lt; DIM &gt;</text>
<polyline fill="none" stroke="#000000" points="543,-126.5 742,-126.5 "/>
<text text-anchor="middle" x="642.5" y="-114.5" font-family="Helvetica,sans-Serif" font-size="10.00" fill="#000000"> </text>
<polyline fill="none" stroke="#000000" points="543,-107.5 742,-107.5 "/>
<text text-anchor="start" x="551" y="-95.5" font-family="Helvetica,sans-Serif" font-size="10.00" fill="#000000">+ CellwiseSourceEllipticPde()</text>
<text text-anchor="start" x="551" y="-84.5" font-family="Helvetica,sans-Serif" font-size="10.00" fill="#000000">+ rGetCellPopulation()</text>
<text text-anchor="start" x="551" y="-73.5" font-family="Helvetica,sans-Serif" font-size="10.00" fill="#000000">+ GetCoefficient()</text>
<text text-anchor="start" x="551" y="-62.5" font-family="Helvetica,sans-Serif" font-size="10.00" fill="#000000">+ ComputeConstantInUSourceTerm()</text>
<text text-anchor="start" x="551" y="-51.5" font-family="Helvetica,sans-Serif" font-size="10.00" fill="#000000">+ ComputeLinearInUCoeffInSourceTerm()</text>
<text text-anchor="start" x="551" y="-40.5" font-family="Helvetica,sans-Serif" font-size="10.00" fill="#000000">+ ComputeLinearInUCoeffInSource</text>
<text text-anchor="start" x="551" y="-29.5" font-family="Helvetica,sans-Serif" font-size="10.00" fill="#000000">TermAtNode()</text>
<text text-anchor="start" x="551" y="-18.5" font-family="Helvetica,sans-Serif" font-size="10.00" fill="#000000">+ ComputeDiffusionTerm()</text>
<text text-anchor="start" x="551" y="-7.5" font-family="Helvetica,sans-Serif" font-size="10.00" fill="#000000">&#45; serialize()</text>
</g>
<!-- Node5 -->
<g id="node2" class="node">
<title>Node5</title>
<g id="a_node2"><a xlink:href="classAbstractLinearEllipticPde.html" target="_top" xlink:title="{AbstractLinearEllipticPde\l\&lt; DIM, DIM \&gt;\n||+ AbstractLinearEllipticPde()\l+ ~AbstractLinearEllipticPde()\l+ ComputeConstantInUSourceTerm()\l+ ComputeLinearInUCoeffInSourceTerm()\l+ ComputeDiffusionTerm()\l+ ComputeConstantInUSource\lTermAtNode()\l+ ComputeLinearInUCoeffInSource\lTermAtNode()\l&#45; serialize()\l}">
<polygon fill="#ffffff" stroke="#000000" points="128,-265 128,-432 327,-432 327,-265 128,-265"/>
<text text-anchor="start" x="136" y="-420" font-family="Helvetica,sans-Serif" font-size="10.00" fill="#000000">AbstractLinearEllipticPde</text>
<text text-anchor="middle" x="227.5" y="-409" font-family="Helvetica,sans-Serif" font-size="10.00" fill="#000000">&lt; DIM, DIM &gt;</text>
<polyline fill="none" stroke="#000000" points="128,-402 327,-402 "/>
<text text-anchor="middle" x="227.5" y="-390" font-family="Helvetica,sans-Serif" font-size="10.00" fill="#000000"> </text>
<polyline fill="none" stroke="#000000" points="128,-383 327,-383 "/>
<text text-anchor="start" x="136" y="-371" font-family="Helvetica,sans-Serif" font-size="10.00" fill="#000000">+ AbstractLinearEllipticPde()</text>
<text text-anchor="start" x="136" y="-360" font-family="Helvetica,sans-Serif" font-size="10.00" fill="#000000">+ ~AbstractLinearEllipticPde()</text>
<text text-anchor="start" x="136" y="-349" font-family="Helvetica,sans-Serif" font-size="10.00" fill="#000000">+ ComputeConstantInUSourceTerm()</text>
<text text-anchor="start" x="136" y="-338" font-family="Helvetica,sans-Serif" font-size="10.00" fill="#000000">+ ComputeLinearInUCoeffInSourceTerm()</text>
<text text-anchor="start" x="136" y="-327" font-family="Helvetica,sans-Serif" font-size="10.00" fill="#000000">+ ComputeDiffusionTerm()</text>
<text text-anchor="start" x="136" y="-316" font-family="Helvetica,sans-Serif" font-size="10.00" fill="#000000">+ ComputeConstantInUSource</text>
<text text-anchor="start" x="136" y="-305" font-family="Helvetica,sans-Serif" font-size="10.00" fill="#000000">TermAtNode()</text>
<text text-anchor="start" x="136" y="-294" font-family="Helvetica,sans-Serif" font-size="10.00" fill="#000000">+ ComputeLinearInUCoeffInSource</text>
<text text-anchor="start" x="136" y="-283" font-family="Helvetica,sans-Serif" font-size="10.00" fill="#000000">TermAtNode()</text>
<text text-anchor="start" x="136" y="-272" font-family="Helvetica,sans-Serif" font-size="10.00" fill="#000000">&#45; serialize()</text>
</a>
</g>
</g>
<!-- Node5&#45;&gt;Node4 -->
<g id="edge1" class="edge">
<title>Node5&#45;&gt;Node4</title>
<path fill="none" stroke="#191970" d="M335.6971,-278.1067C399.7946,-236.4047 480.4348,-183.94 542.9536,-143.2651"/>
<polygon fill="none" stroke="#191970" points="333.6402,-275.2693 327.1668,-283.6565 337.4577,-281.1368 333.6402,-275.2693"/>
</g>
<!-- Node6 -->
<g id="node3" class="node">
<title>Node6</title>
<g id="a_node3"><a xlink:href="classAbstractLinearPde.html" target="_top" xlink:title="{AbstractLinearPde\&lt;\l ELEMENT_DIM, SPACE_DIM \&gt;\n||+ AbstractLinearPde()\l+ ~AbstractLinearPde()\l&#45; serialize()\l}">
<polygon fill="#ffffff" stroke="#000000" points="17.5,-887.5 17.5,-977.5 181.5,-977.5 181.5,-887.5 17.5,-887.5"/>
<text text-anchor="start" x="25.5" y="-965.5" font-family="Helvetica,sans-Serif" font-size="10.00" fill="#000000">AbstractLinearPde&lt;</text>
<text text-anchor="middle" x="99.5" y="-954.5" font-family="Helvetica,sans-Serif" font-size="10.00" fill="#000000"> ELEMENT_DIM, SPACE_DIM &gt;</text>
<polyline fill="none" stroke="#000000" points="17.5,-947.5 181.5,-947.5 "/>
<text text-anchor="middle" x="99.5" y="-935.5" font-family="Helvetica,sans-Serif" font-size="10.00" fill="#000000"> </text>
<polyline fill="none" stroke="#000000" points="17.5,-928.5 181.5,-928.5 "/>
<text text-anchor="start" x="25.5" y="-916.5" font-family="Helvetica,sans-Serif" font-size="10.00" fill="#000000">+ AbstractLinearPde()</text>
<text text-anchor="start" x="25.5" y="-905.5" font-family="Helvetica,sans-Serif" font-size="10.00" fill="#000000">+ ~AbstractLinearPde()</text>
<text text-anchor="start" x="25.5" y="-894.5" font-family="Helvetica,sans-Serif" font-size="10.00" fill="#000000">&#45; serialize()</text>
</a>
</g>
</g>
<!-- Node6&#45;&gt;Node5 -->
<g id="edge2" class="edge">
<title>Node6&#45;&gt;Node5</title>
<path fill="none" stroke="#191970" d="M169.8916,-880.2848C184.9278,-865.4791 198.8665,-848.12 207.5,-829 265.6541,-700.21 255.6549,-531.6897 242.2003,-432.2667"/>
<polygon fill="none" stroke="#191970" points="167.2925,-877.9259 162.4405,-887.3444 172.107,-883.0073 167.2925,-877.9259"/>
</g>
<!-- Node7 -->
<g id="node4" class="node">
<title>Node7</title>
<g id="a_node4"><a xlink:href="classAbstractLinearEllipticPde.html" target="_top" xlink:title="{AbstractLinearEllipticPde\l\&lt; ELEMENT_DIM, SPACE_DIM \&gt;\n||+ AbstractLinearEllipticPde()\l+ ~AbstractLinearEllipticPde()\l+ ComputeConstantInUSourceTerm()\l+ ComputeLinearInUCoeffInSourceTerm()\l+ ComputeDiffusionTerm()\l+ ComputeConstantInUSource\lTermAtNode()\l+ ComputeLinearInUCoeffInSource\lTermAtNode()\l&#45; serialize()\l}">
<polygon fill="#ffffff" stroke="#000000" points="0,-601 0,-768 199,-768 199,-601 0,-601"/>
<text text-anchor="start" x="8" y="-756" font-family="Helvetica,sans-Serif" font-size="10.00" fill="#000000">AbstractLinearEllipticPde</text>
<text text-anchor="middle" x="99.5" y="-745" font-family="Helvetica,sans-Serif" font-size="10.00" fill="#000000">&lt; ELEMENT_DIM, SPACE_DIM &gt;</text>
<polyline fill="none" stroke="#000000" points="0,-738 199,-738 "/>
<text text-anchor="middle" x="99.5" y="-726" font-family="Helvetica,sans-Serif" font-size="10.00" fill="#000000"> </text>
<polyline fill="none" stroke="#000000" points="0,-719 199,-719 "/>
<text text-anchor="start" x="8" y="-707" font-family="Helvetica,sans-Serif" font-size="10.00" fill="#000000">+ AbstractLinearEllipticPde()</text>
<text text-anchor="start" x="8" y="-696" font-family="Helvetica,sans-Serif" font-size="10.00" fill="#000000">+ ~AbstractLinearEllipticPde()</text>
<text text-anchor="start" x="8" y="-685" font-family="Helvetica,sans-Serif" font-size="10.00" fill="#000000">+ ComputeConstantInUSourceTerm()</text>
<text text-anchor="start" x="8" y="-674" font-family="Helvetica,sans-Serif" font-size="10.00" fill="#000000">+ ComputeLinearInUCoeffInSourceTerm()</text>
<text text-anchor="start" x="8" y="-663" font-family="Helvetica,sans-Serif" font-size="10.00" fill="#000000">+ ComputeDiffusionTerm()</text>
<text text-anchor="start" x="8" y="-652" font-family="Helvetica,sans-Serif" font-size="10.00" fill="#000000">+ ComputeConstantInUSource</text>
<text text-anchor="start" x="8" y="-641" font-family="Helvetica,sans-Serif" font-size="10.00" fill="#000000">TermAtNode()</text>
<text text-anchor="start" x="8" y="-630" font-family="Helvetica,sans-Serif" font-size="10.00" fill="#000000">+ ComputeLinearInUCoeffInSource</text>
<text text-anchor="start" x="8" y="-619" font-family="Helvetica,sans-Serif" font-size="10.00" fill="#000000">TermAtNode()</text>
<text text-anchor="start" x="8" y="-608" font-family="Helvetica,sans-Serif" font-size="10.00" fill="#000000">&#45; serialize()</text>
</a>
</g>
</g>
<!-- Node6&#45;&gt;Node7 -->
<g id="edge4" class="edge">
<title>Node6&#45;&gt;Node7</title>
<path fill="none" stroke="#191970" d="M99.5,-877.2084C99.5,-845.0947 99.5,-803.9963 99.5,-768.0091"/>
<polygon fill="none" stroke="#191970" points="96.0001,-877.3013 99.5,-887.3013 103.0001,-877.3014 96.0001,-877.3013"/>
</g>
<!-- Node7&#45;&gt;Node5 -->
<g id="edge3" class="edge">
<title>Node7&#45;&gt;Node5</title>
<path fill="none" stroke="#ffa500" d="M122.7237,-590.6742C130.0654,-564.5714 138.8198,-536.4181 148.5,-511 158.4921,-484.763 171.1534,-457.0096 183.3963,-432.0069"/>
<polygon fill="#ffa500" stroke="#ffa500" points="119.2797,-589.9964 119.9802,-600.568 126.0252,-591.8669 119.2797,-589.9964"/>
<text text-anchor="middle" x="181" y="-514" font-family="Helvetica,sans-Serif" font-size="10.00" fill="#000000"> &lt; DIM, DIM &gt;</text>
</g>
<!-- Node8 -->
<g id="node5" class="node">
<title>Node8</title>
<g id="a_node5"><a xlink:href="classdouble.html" target="_top" xlink:title="{double\n||}">
<polygon fill="#ffffff" stroke="#000000" points="620,-320 620,-377 665,-377 665,-320 620,-320"/>
<text text-anchor="middle" x="642.5" y="-365" font-family="Helvetica,sans-Serif" font-size="10.00" fill="#000000">double</text>
<polyline fill="none" stroke="#000000" points="620,-358 665,-358 "/>
<text text-anchor="middle" x="642.5" y="-346" font-family="Helvetica,sans-Serif" font-size="10.00" fill="#000000"> </text>
<polyline fill="none" stroke="#000000" points="620,-339 665,-339 "/>
<text text-anchor="middle" x="642.5" y="-327" font-family="Helvetica,sans-Serif" font-size="10.00" fill="#000000"> </text>
</a>
</g>
</g>
<!-- Node8&#45;&gt;Node4 -->
<g id="edge5" class="edge">
<title>Node8&#45;&gt;Node4</title>
<path fill="none" stroke="#404040" d="M642.5,-319.8609C642.5,-284.1023 642.5,-221.2304 642.5,-168.6199"/>
<polygon fill="none" stroke="#404040" points="642.5001,-168.5301 638.5,-162.5301 642.5,-156.5301 646.5,-162.53 642.5001,-168.5301"/>
<text text-anchor="middle" x="690" y="-178" font-family="Helvetica,sans-Serif" font-size="10.00" fill="#000000"> #mSourceCoefficient</text>
</g>
<!-- Node9 -->
<g id="node6" class="node">
<title>Node9</title>
<g id="a_node6"><a xlink:href="classAbstractCellPopulation.html" target="_top" xlink:title="{AbstractCellPopulation\l\&lt; DIM, DIM \&gt;\n||+ AbstractCellPopulation()\l+ ~AbstractCellPopulation()\l+ InitialiseCells()\l+ SetDataOnAllCells()\l+ rGetMesh()\l+ GetTetrahedralMeshForPde\lModifier()\l+ IsPdeNodeAssociatedWithNon\lApoptoticCell()\l+ GetCellDataItemAtPdeNode()\l+ rGetCells()\l+ GetNumNodes()\land 55 more...\l# Validate()\l# WriteVtkResultsToFile()\l# AbstractCellPopulation()\l# AcceptCellWritersAcrossPopulation()\l&#45; serialize()\l&#45; OpenRoundRobinWritersFiles\lForAppend()\l&#45; CloseRoundRobinWritersFiles()\l}">
<polygon fill="#ffffff" stroke="#000000" points="901,-204.5 901,-492.5 1088,-492.5 1088,-204.5 901,-204.5"/>
<text text-anchor="start" x="909" y="-480.5" font-family="Helvetica,sans-Serif" font-size="10.00" fill="#000000">AbstractCellPopulation</text>
<text text-anchor="middle" x="994.5" y="-469.5" font-family="Helvetica,sans-Serif" font-size="10.00" fill="#000000">&lt; DIM, DIM &gt;</text>
<polyline fill="none" stroke="#000000" points="901,-462.5 1088,-462.5 "/>
<text text-anchor="middle" x="994.5" y="-450.5" font-family="Helvetica,sans-Serif" font-size="10.00" fill="#000000"> </text>
<polyline fill="none" stroke="#000000" points="901,-443.5 1088,-443.5 "/>
<text text-anchor="start" x="909" y="-431.5" font-family="Helvetica,sans-Serif" font-size="10.00" fill="#000000">+ AbstractCellPopulation()</text>
<text text-anchor="start" x="909" y="-420.5" font-family="Helvetica,sans-Serif" font-size="10.00" fill="#000000">+ ~AbstractCellPopulation()</text>
<text text-anchor="start" x="909" y="-409.5" font-family="Helvetica,sans-Serif" font-size="10.00" fill="#000000">+ InitialiseCells()</text>
<text text-anchor="start" x="909" y="-398.5" font-family="Helvetica,sans-Serif" font-size="10.00" fill="#000000">+ SetDataOnAllCells()</text>
<text text-anchor="start" x="909" y="-387.5" font-family="Helvetica,sans-Serif" font-size="10.00" fill="#000000">+ rGetMesh()</text>
<text text-anchor="start" x="909" y="-376.5" font-family="Helvetica,sans-Serif" font-size="10.00" fill="#000000">+ GetTetrahedralMeshForPde</text>
<text text-anchor="start" x="909" y="-365.5" font-family="Helvetica,sans-Serif" font-size="10.00" fill="#000000">Modifier()</text>
<text text-anchor="start" x="909" y="-354.5" font-family="Helvetica,sans-Serif" font-size="10.00" fill="#000000">+ IsPdeNodeAssociatedWithNon</text>
<text text-anchor="start" x="909" y="-343.5" font-family="Helvetica,sans-Serif" font-size="10.00" fill="#000000">ApoptoticCell()</text>
<text text-anchor="start" x="909" y="-332.5" font-family="Helvetica,sans-Serif" font-size="10.00" fill="#000000">+ GetCellDataItemAtPdeNode()</text>
<text text-anchor="start" x="909" y="-321.5" font-family="Helvetica,sans-Serif" font-size="10.00" fill="#000000">+ rGetCells()</text>
<text text-anchor="start" x="909" y="-310.5" font-family="Helvetica,sans-Serif" font-size="10.00" fill="#000000">+ GetNumNodes()</text>
<text text-anchor="start" x="909" y="-299.5" font-family="Helvetica,sans-Serif" font-size="10.00" fill="#000000">and 55 more...</text>
<text text-anchor="start" x="909" y="-288.5" font-family="Helvetica,sans-Serif" font-size="10.00" fill="#000000"># Validate()</text>
<text text-anchor="start" x="909" y="-277.5" font-family="Helvetica,sans-Serif" font-size="10.00" fill="#000000"># WriteVtkResultsToFile()</text>
<text text-anchor="start" x="909" y="-266.5" font-family="Helvetica,sans-Serif" font-size="10.00" fill="#000000"># AbstractCellPopulation()</text>
<text text-anchor="start" x="909" y="-255.5" font-family="Helvetica,sans-Serif" font-size="10.00" fill="#000000"># AcceptCellWritersAcrossPopulation()</text>
<text text-anchor="start" x="909" y="-244.5" font-family="Helvetica,sans-Serif" font-size="10.00" fill="#000000">&#45; serialize()</text>
<text text-anchor="start" x="909" y="-233.5" font-family="Helvetica,sans-Serif" font-size="10.00" fill="#000000">&#45; OpenRoundRobinWritersFiles</text>
<text text-anchor="start" x="909" y="-222.5" font-family="Helvetica,sans-Serif" font-size="10.00" fill="#000000">ForAppend()</text>
<text text-anchor="start" x="909" y="-211.5" font-family="Helvetica,sans-Serif" font-size="10.00" fill="#000000">&#45; CloseRoundRobinWritersFiles()</text>
</a>
</g>
</g>
<!-- Node9&#45;&gt;Node4 -->
<g id="edge6" class="edge">
<title>Node9&#45;&gt;Node4</title>
<path fill="none" stroke="#404040" d="M900.6329,-276.4996C854.9044,-241.4238 799.6404,-199.0338 751.9985,-162.4903"/>
<polygon fill="none" stroke="#404040" points="751.7875,-162.3285 744.5922,-161.8506 742.2659,-155.025 749.4612,-155.5029 751.7875,-162.3285"/>
<text text-anchor="middle" x="819" y="-178" font-family="Helvetica,sans-Serif" font-size="10.00" fill="#000000"> #mrCellPopulation</text>
</g>
<!-- Node10 -->
<g id="node7" class="node">
<title>Node10</title>
<g id="a_node7"><a xlink:href="classIdentifiable.html" target="_top" xlink:title="{Identifiable\n||+ ~Identifiable()\l+ GetIdentifier()\l&#45; TidyTemplatedExportIdentifier()\l}">
<polygon fill="#ffffff" stroke="#000000" points="1661,-893 1661,-972 1820,-972 1820,-893 1661,-893"/>
<text text-anchor="middle" x="1740.5" y="-960" font-family="Helvetica,sans-Serif" font-size="10.00" fill="#000000">Identifiable</text>
<polyline fill="none" stroke="#000000" points="1661,-953 1820,-953 "/>
<text text-anchor="middle" x="1740.5" y="-941" font-family="Helvetica,sans-Serif" font-size="10.00" fill="#000000"> </text>
<polyline fill="none" stroke="#000000" points="1661,-934 1820,-934 "/>
<text text-anchor="start" x="1669" y="-922" font-family="Helvetica,sans-Serif" font-size="10.00" fill="#000000">+ ~Identifiable()</text>
<text text-anchor="start" x="1669" y="-911" font-family="Helvetica,sans-Serif" font-size="10.00" fill="#000000">+ GetIdentifier()</text>
<text text-anchor="start" x="1669" y="-900" font-family="Helvetica,sans-Serif" font-size="10.00" fill="#000000">&#45; TidyTemplatedExportIdentifier()</text>
</a>
</g>
</g>
<!-- Node10&#45;&gt;Node9 -->
<g id="edge7" class="edge">
<title>Node10&#45;&gt;Node9</title>
<path fill="none" stroke="#191970" d="M1770.7765,-883.8586C1779.5877,-867.1099 1788.0378,-847.8207 1792.5,-829 1822.1311,-704.0201 1872.0241,-640.8657 1792.5,-540 1705.6123,-429.7946 1279.8919,-375.8 1088.2765,-356.7656"/>
<polygon fill="none" stroke="#191970" points="1767.5714,-882.426 1765.8672,-892.8829 1773.7204,-885.7711 1767.5714,-882.426"/>
</g>
<!-- Node23 -->
<g id="node20" class="node">
<title>Node23</title>
<g id="a_node20"><a xlink:href="classAbstractCellPopulation.html" target="_top" xlink:title="{AbstractCellPopulation\l\&lt; ELEMENT_DIM, SPACE_DIM \&gt;\n||+ AbstractCellPopulation()\l+ ~AbstractCellPopulation()\l+ InitialiseCells()\l+ SetDataOnAllCells()\l+ rGetMesh()\l+ GetTetrahedralMeshForPde\lModifier()\l+ IsPdeNodeAssociatedWithNon\lApoptoticCell()\l+ GetCellDataItemAtPdeNode()\l+ rGetCells()\l+ GetNumNodes()\land 55 more...\l# Validate()\l# WriteVtkResultsToFile()\l# AbstractCellPopulation()\l# AcceptCellWritersAcrossPopulation()\l&#45; serialize()\l&#45; OpenRoundRobinWritersFiles\lForAppend()\l&#45; CloseRoundRobinWritersFiles()\l}">
<polygon fill="#ffffff" stroke="#000000" points="1044,-540.5 1044,-828.5 1231,-828.5 1231,-540.5 1044,-540.5"/>
<text text-anchor="start" x="1052" y="-816.5" font-family="Helvetica,sans-Serif" font-size="10.00" fill="#000000">AbstractCellPopulation</text>
<text text-anchor="middle" x="1137.5" y="-805.5" font-family="Helvetica,sans-Serif" font-size="10.00" fill="#000000">&lt; ELEMENT_DIM, SPACE_DIM &gt;</text>
<polyline fill="none" stroke="#000000" points="1044,-798.5 1231,-798.5 "/>
<text text-anchor="middle" x="1137.5" y="-786.5" font-family="Helvetica,sans-Serif" font-size="10.00" fill="#000000"> </text>
<polyline fill="none" stroke="#000000" points="1044,-779.5 1231,-779.5 "/>
<text text-anchor="start" x="1052" y="-767.5" font-family="Helvetica,sans-Serif" font-size="10.00" fill="#000000">+ AbstractCellPopulation()</text>
<text text-anchor="start" x="1052" y="-756.5" font-family="Helvetica,sans-Serif" font-size="10.00" fill="#000000">+ ~AbstractCellPopulation()</text>
<text text-anchor="start" x="1052" y="-745.5" font-family="Helvetica,sans-Serif" font-size="10.00" fill="#000000">+ InitialiseCells()</text>
<text text-anchor="start" x="1052" y="-734.5" font-family="Helvetica,sans-Serif" font-size="10.00" fill="#000000">+ SetDataOnAllCells()</text>
<text text-anchor="start" x="1052" y="-723.5" font-family="Helvetica,sans-Serif" font-size="10.00" fill="#000000">+ rGetMesh()</text>
<text text-anchor="start" x="1052" y="-712.5" font-family="Helvetica,sans-Serif" font-size="10.00" fill="#000000">+ GetTetrahedralMeshForPde</text>
<text text-anchor="start" x="1052" y="-701.5" font-family="Helvetica,sans-Serif" font-size="10.00" fill="#000000">Modifier()</text>
<text text-anchor="start" x="1052" y="-690.5" font-family="Helvetica,sans-Serif" font-size="10.00" fill="#000000">+ IsPdeNodeAssociatedWithNon</text>
<text text-anchor="start" x="1052" y="-679.5" font-family="Helvetica,sans-Serif" font-size="10.00" fill="#000000">ApoptoticCell()</text>
<text text-anchor="start" x="1052" y="-668.5" font-family="Helvetica,sans-Serif" font-size="10.00" fill="#000000">+ GetCellDataItemAtPdeNode()</text>
<text text-anchor="start" x="1052" y="-657.5" font-family="Helvetica,sans-Serif" font-size="10.00" fill="#000000">+ rGetCells()</text>
<text text-anchor="start" x="1052" y="-646.5" font-family="Helvetica,sans-Serif" font-size="10.00" fill="#000000">+ GetNumNodes()</text>
<text text-anchor="start" x="1052" y="-635.5" font-family="Helvetica,sans-Serif" font-size="10.00" fill="#000000">and 55 more...</text>
<text text-anchor="start" x="1052" y="-624.5" font-family="Helvetica,sans-Serif" font-size="10.00" fill="#000000"># Validate()</text>
<text text-anchor="start" x="1052" y="-613.5" font-family="Helvetica,sans-Serif" font-size="10.00" fill="#000000"># WriteVtkResultsToFile()</text>
<text text-anchor="start" x="1052" y="-602.5" font-family="Helvetica,sans-Serif" font-size="10.00" fill="#000000"># AbstractCellPopulation()</text>
<text text-anchor="start" x="1052" y="-591.5" font-family="Helvetica,sans-Serif" font-size="10.00" fill="#000000"># AcceptCellWritersAcrossPopulation()</text>
<text text-anchor="start" x="1052" y="-580.5" font-family="Helvetica,sans-Serif" font-size="10.00" fill="#000000">&#45; serialize()</text>
<text text-anchor="start" x="1052" y="-569.5" font-family="Helvetica,sans-Serif" font-size="10.00" fill="#000000">&#45; OpenRoundRobinWritersFiles</text>
<text text-anchor="start" x="1052" y="-558.5" font-family="Helvetica,sans-Serif" font-size="10.00" fill="#000000">ForAppend()</text>
<text text-anchor="start" x="1052" y="-547.5" font-family="Helvetica,sans-Serif" font-size="10.00" fill="#000000">&#45; CloseRoundRobinWritersFiles()</text>
</a>
</g>
</g>
<!-- Node10&#45;&gt;Node23 -->
<g id="edge21" class="edge">
<title>Node10&#45;&gt;Node23</title>
<path fill="none" stroke="#191970" d="M1724.7673,-883.357C1717.7764,-869.2548 1707.9837,-855.428 1694.5,-847 1652.1613,-820.5362 1289.6822,-852.2558 1245.5,-829 1240.5114,-826.3742 1235.6903,-823.4032 1231.0379,-820.1487"/>
<polygon fill="none" stroke="#191970" points="1721.647,-884.9508 1728.9674,-892.61 1728.0211,-882.0575 1721.647,-884.9508"/>
</g>
<!-- Node11 -->
<g id="node8" class="node">
<title>Node11</title>
<polygon fill="#ffffff" stroke="#bfbfbf" points="1841.5,-898.5 1841.5,-966.5 1973.5,-966.5 1973.5,-898.5 1841.5,-898.5"/>
<text text-anchor="start" x="1849.5" y="-954.5" font-family="Helvetica,sans-Serif" font-size="10.00" fill="#000000">c_vector&lt; double, SPACE</text>
<text text-anchor="middle" x="1907.5" y="-943.5" font-family="Helvetica,sans-Serif" font-size="10.00" fill="#000000">_DIM &gt;</text>
<polyline fill="none" stroke="#bfbfbf" points="1841.5,-936.5 1973.5,-936.5 "/>
<text text-anchor="middle" x="1907.5" y="-924.5" font-family="Helvetica,sans-Serif" font-size="10.00" fill="#000000"> </text>
<polyline fill="none" stroke="#bfbfbf" points="1841.5,-917.5 1973.5,-917.5 "/>
<text text-anchor="middle" x="1907.5" y="-905.5" font-family="Helvetica,sans-Serif" font-size="10.00" fill="#000000"> </text>
</g>
<!-- Node11&#45;&gt;Node9 -->
<g id="edge8" class="edge">
<title>Node11&#45;&gt;Node9</title>
<path fill="none" stroke="#404040" d="M1909.1024,-898.3565C1910.8143,-825.6893 1905.6815,-653.137 1827.5,-540 1745.3045,-421.0543 1305.5779,-372.2313 1100.2548,-355.6966"/>
<polygon fill="none" stroke="#404040" points="1100.2308,-355.6948 1093.9335,-359.2082 1088.2683,-354.7466 1094.5656,-351.2332 1100.2308,-355.6948"/>
<text text-anchor="middle" x="1934.5" y="-682" font-family="Helvetica,sans-Serif" font-size="10.00" fill="#000000"> #mCentroid</text>
</g>
<!-- Node11&#45;&gt;Node23 -->
<g id="edge22" class="edge">
<title>Node11&#45;&gt;Node23</title>
<path fill="none" stroke="#404040" d="M1851.9182,-898.4416C1844.4899,-894.3758 1836.8862,-890.45 1829.5,-887 1781.9886,-864.8079 1769.9757,-857.0042 1718.5,-847 1666.8724,-836.9663 1292.065,-853.4496 1245.5,-829 1244.0962,-828.2629 1242.7057,-827.4985 1241.3285,-826.708"/>
<polygon fill="none" stroke="#404040" points="1241.158,-826.5997 1233.9485,-826.7564 1231.031,-820.1618 1238.2405,-820.0051 1241.158,-826.5997"/>
<text text-anchor="middle" x="1816.5" y="-855.5" font-family="Helvetica,sans-Serif" font-size="10.00" fill="#000000"> #mCentroid</text>
</g>
<!-- Node12 -->
<g id="node9" class="node">
<title>Node12</title>
<polygon fill="#ffffff" stroke="#bfbfbf" points="1880.5,-1025.5 1880.5,-1082.5 1934.5,-1082.5 1934.5,-1025.5 1880.5,-1025.5"/>
<text text-anchor="middle" x="1907.5" y="-1070.5" font-family="Helvetica,sans-Serif" font-size="10.00" fill="#000000">c_vector</text>
<polyline fill="none" stroke="#bfbfbf" points="1880.5,-1063.5 1934.5,-1063.5 "/>
<text text-anchor="middle" x="1907.5" y="-1051.5" font-family="Helvetica,sans-Serif" font-size="10.00" fill="#000000"> </text>
<polyline fill="none" stroke="#bfbfbf" points="1880.5,-1044.5 1934.5,-1044.5 "/>
<text text-anchor="middle" x="1907.5" y="-1032.5" font-family="Helvetica,sans-Serif" font-size="10.00" fill="#000000"> </text>
</g>
<!-- Node12&#45;&gt;Node11 -->
<g id="edge9" class="edge">
<title>Node12&#45;&gt;Node11</title>
<path fill="none" stroke="#ffa500" d="M1907.5,-1014.8733C1907.5,-999.3628 1907.5,-981.6896 1907.5,-966.7007"/>
<polygon fill="#ffa500" stroke="#ffa500" points="1904.0001,-1015.2062 1907.5,-1025.2062 1911.0001,-1015.2062 1904.0001,-1015.2062"/>
<text text-anchor="middle" x="1965" y="-999" font-family="Helvetica,sans-Serif" font-size="10.00" fill="#000000"> &lt; double, SPACE_DIM &gt;</text>
</g>
<!-- Node13 -->
<g id="node10" class="node">
<title>Node13</title>
<polygon fill="#ffffff" stroke="#bfbfbf" points="728,-904 728,-961 805,-961 805,-904 728,-904"/>
<text text-anchor="middle" x="766.5" y="-949" font-family="Helvetica,sans-Serif" font-size="10.00" fill="#000000">list&lt; CellPtr &gt;</text>
<polyline fill="none" stroke="#bfbfbf" points="728,-942 805,-942 "/>
<text text-anchor="middle" x="766.5" y="-930" font-family="Helvetica,sans-Serif" font-size="10.00" fill="#000000"> </text>
<polyline fill="none" stroke="#bfbfbf" points="728,-923 805,-923 "/>
<text text-anchor="middle" x="766.5" y="-911" font-family="Helvetica,sans-Serif" font-size="10.00" fill="#000000"> </text>
</g>
<!-- Node13&#45;&gt;Node9 -->
<g id="edge10" class="edge">
<title>Node13&#45;&gt;Node9</title>
<path fill="none" stroke="#404040" d="M753.8561,-903.9082C725.9903,-836.3145 666.5748,-663.1082 729.5,-540 763.1839,-474.1001 831.298,-425.6523 890.0329,-393.974"/>
<polygon fill="none" stroke="#404040" points="890.2658,-393.8512 893.7073,-387.5142 900.8804,-388.2537 897.4389,-394.5906 890.2658,-393.8512"/>
<text text-anchor="middle" x="749.5" y="-682" font-family="Helvetica,sans-Serif" font-size="10.00" fill="#000000"> #mCells</text>
</g>
<!-- Node13&#45;&gt;Node23 -->
<g id="edge23" class="edge">
<title>Node13&#45;&gt;Node23</title>
<path fill="none" stroke="#404040" d="M788.4893,-903.7577C805.3218,-884.0935 830.3744,-859.4173 858.5,-847 928.4097,-816.1352 963.0646,-866.7669 1029.5,-829 1030.8784,-828.2164 1032.2445,-827.4073 1033.5983,-826.574"/>
<polygon fill="none" stroke="#404040" points="1033.7879,-826.4461 1036.5237,-819.774 1043.7347,-819.7331 1040.9989,-826.4052 1033.7879,-826.4461"/>
<text text-anchor="middle" x="878.5" y="-855.5" font-family="Helvetica,sans-Serif" font-size="10.00" fill="#000000"> #mCells</text>
</g>
<!-- Node14 -->
<g id="node11" class="node">
<title>Node14</title>
<polygon fill="#ffffff" stroke="#bfbfbf" points="199.5,-887.5 199.5,-977.5 351.5,-977.5 351.5,-887.5 199.5,-887.5"/>
<text text-anchor="start" x="207.5" y="-965.5" font-family="Helvetica,sans-Serif" font-size="10.00" fill="#000000">vector&lt; boost::shared</text>
<text text-anchor="start" x="207.5" y="-954.5" font-family="Helvetica,sans-Serif" font-size="10.00" fill="#000000">_ptr&lt; AbstractCellPopulation</text>
<text text-anchor="start" x="207.5" y="-943.5" font-family="Helvetica,sans-Serif" font-size="10.00" fill="#000000">CountWriter&lt; ELEMENT_DIM,</text>
<text text-anchor="middle" x="275.5" y="-932.5" font-family="Helvetica,sans-Serif" font-size="10.00" fill="#000000"> SPACE_DIM &gt; &gt; &gt;</text>
<polyline fill="none" stroke="#bfbfbf" points="199.5,-925.5 351.5,-925.5 "/>
<text text-anchor="middle" x="275.5" y="-913.5" font-family="Helvetica,sans-Serif" font-size="10.00" fill="#000000"> </text>
<polyline fill="none" stroke="#bfbfbf" points="199.5,-906.5 351.5,-906.5 "/>
<text text-anchor="middle" x="275.5" y="-894.5" font-family="Helvetica,sans-Serif" font-size="10.00" fill="#000000"> </text>
</g>
<!-- Node14&#45;&gt;Node9 -->
<g id="edge11" class="edge">
<title>Node14&#45;&gt;Node9</title>
<path fill="none" stroke="#404040" d="M268.6291,-887.1851C259.0067,-805.0848 252.1614,-631.7611 347.5,-540 400.2356,-489.2433 603.2197,-513.4443 673.5,-493 748.5115,-471.1794 828.6449,-435.1232 890.0836,-404.4878"/>
<polygon fill="none" stroke="#404040" points="890.2199,-404.4194 893.7858,-398.1516 900.9429,-399.0325 897.377,-405.3003 890.2199,-404.4194"/>
<text text-anchor="middle" x="416.5" y="-682" font-family="Helvetica,sans-Serif" font-size="10.00" fill="#000000"> #mCellPopulationCountWriters</text>
</g>
<!-- Node14&#45;&gt;Node23 -->
<g id="edge24" class="edge">
<title>Node14&#45;&gt;Node23</title>
<path fill="none" stroke="#404040" d="M348.9337,-887.4802C379.4859,-871.2791 416.0489,-855.0257 451.5,-847 514.1675,-832.8128 972.5089,-858.6734 1029.5,-829 1030.9063,-828.2678 1032.2993,-827.508 1033.6788,-826.722"/>
<polygon fill="none" stroke="#404040" points="1033.8472,-826.6157 1036.7834,-820.0294 1043.9923,-820.2065 1041.0562,-826.7928 1033.8472,-826.6157"/>
<text text-anchor="middle" x="520.5" y="-855.5" font-family="Helvetica,sans-Serif" font-size="10.00" fill="#000000"> #mCellPopulationCountWriters</text>
</g>
<!-- Node15 -->
<g id="node12" class="node">
<title>Node15</title>
<polygon fill="#ffffff" stroke="#bfbfbf" points="369.5,-893 369.5,-972 557.5,-972 557.5,-893 369.5,-893"/>
<text text-anchor="start" x="377.5" y="-960" font-family="Helvetica,sans-Serif" font-size="10.00" fill="#000000">vector&lt; boost::shared</text>
<text text-anchor="start" x="377.5" y="-949" font-family="Helvetica,sans-Serif" font-size="10.00" fill="#000000">_ptr&lt; AbstractCellWriter</text>
<text text-anchor="middle" x="463.5" y="-938" font-family="Helvetica,sans-Serif" font-size="10.00" fill="#000000">&lt; ELEMENT_DIM, SPACE_DIM &gt; &gt; &gt;</text>
<polyline fill="none" stroke="#bfbfbf" points="369.5,-931 557.5,-931 "/>
<text text-anchor="middle" x="463.5" y="-919" font-family="Helvetica,sans-Serif" font-size="10.00" fill="#000000"> </text>
<polyline fill="none" stroke="#bfbfbf" points="369.5,-912 557.5,-912 "/>
<text text-anchor="middle" x="463.5" y="-900" font-family="Helvetica,sans-Serif" font-size="10.00" fill="#000000"> </text>
</g>
<!-- Node15&#45;&gt;Node9 -->
<g id="edge12" class="edge">
<title>Node15&#45;&gt;Node9</title>
<path fill="none" stroke="#404040" d="M476.155,-892.7158C478.429,-884.8965 480.6583,-876.7234 482.5,-869 516.9584,-724.4969 445.4478,-653.3249 541.5,-540 581.7653,-492.4939 615.7263,-516.2448 673.5,-493 746.6433,-463.5714 827.5837,-427.1082 889.889,-398.1732"/>
<polygon fill="none" stroke="#404040" points="890.0252,-398.1098 893.7769,-391.9514 900.9045,-393.0459 897.1528,-399.2042 890.0252,-398.1098"/>
<text text-anchor="middle" x="574.5" y="-682" font-family="Helvetica,sans-Serif" font-size="10.00" fill="#000000"> #mCellWriters</text>
</g>
<!-- Node15&#45;&gt;Node23 -->
<g id="edge25" class="edge">
<title>Node15&#45;&gt;Node23</title>
<path fill="none" stroke="#404040" d="M536.6743,-892.9136C572.6059,-875.4929 617.1826,-856.7923 659.5,-847 739.7002,-828.4415 956.8198,-867.6533 1029.5,-829 1030.8999,-828.2555 1032.2866,-827.4839 1033.6602,-826.6867"/>
<polygon fill="none" stroke="#404040" points="1033.834,-826.5752 1036.7228,-819.968 1043.9329,-820.0935 1041.044,-826.7006 1033.834,-826.5752"/>
<text text-anchor="middle" x="692.5" y="-855.5" font-family="Helvetica,sans-Serif" font-size="10.00" fill="#000000"> #mCellWriters</text>
</g>
<!-- Node16 -->
<g id="node13" class="node">
<title>Node16</title>
<polygon fill="#ffffff" stroke="#bfbfbf" points="575.5,-898.5 575.5,-966.5 709.5,-966.5 709.5,-898.5 575.5,-898.5"/>
<text text-anchor="start" x="583.5" y="-954.5" font-family="Helvetica,sans-Serif" font-size="10.00" fill="#000000">AbstractMesh&lt; ELEMENT</text>
<text text-anchor="middle" x="642.5" y="-943.5" font-family="Helvetica,sans-Serif" font-size="10.00" fill="#000000">_DIM, SPACE_DIM &gt; &amp;</text>
<polyline fill="none" stroke="#bfbfbf" points="575.5,-936.5 709.5,-936.5 "/>
<text text-anchor="middle" x="642.5" y="-924.5" font-family="Helvetica,sans-Serif" font-size="10.00" fill="#000000"> </text>
<polyline fill="none" stroke="#bfbfbf" points="575.5,-917.5 709.5,-917.5 "/>
<text text-anchor="middle" x="642.5" y="-905.5" font-family="Helvetica,sans-Serif" font-size="10.00" fill="#000000"> </text>
</g>
<!-- Node16&#45;&gt;Node9 -->
<g id="edge13" class="edge">
<title>Node16&#45;&gt;Node9</title>
<path fill="none" stroke="#404040" d="M633.1728,-898.425C615.4979,-826.2582 584.7895,-655.1932 654.5,-540 705.9001,-455.0639 809.8651,-404.6176 889.3725,-377.0067"/>
<polygon fill="none" stroke="#404040" points="889.5505,-376.9465 893.9504,-371.2332 900.9164,-373.0973 896.5165,-378.8105 889.5505,-376.9465"/>
<text text-anchor="middle" x="676.5" y="-682" font-family="Helvetica,sans-Serif" font-size="10.00" fill="#000000"> #mrMesh</text>
</g>
<!-- Node16&#45;&gt;Node23 -->
<g id="edge26" class="edge">
<title>Node16&#45;&gt;Node23</title>
<path fill="none" stroke="#404040" d="M684.0543,-898.2884C709.2027,-879.6362 742.8334,-858.1374 776.5,-847 830.0122,-829.2974 980.0354,-856.0221 1029.5,-829 1030.8915,-828.2399 1032.2701,-827.4533 1033.6359,-826.6416"/>
<polygon fill="none" stroke="#404040" points="1033.8162,-826.5236 1036.6442,-819.8901 1043.8551,-819.9492 1041.0271,-826.5827 1033.8162,-826.5236"/>
<text text-anchor="middle" x="798.5" y="-855.5" font-family="Helvetica,sans-Serif" font-size="10.00" fill="#000000"> #mrMesh</text>
</g>
<!-- Node17 -->
<g id="node14" class="node">
<title>Node17</title>
<polygon fill="#ffffff" stroke="#bfbfbf" points="1112.5,-887.5 1112.5,-977.5 1276.5,-977.5 1276.5,-887.5 1112.5,-887.5"/>
<text text-anchor="start" x="1120.5" y="-965.5" font-family="Helvetica,sans-Serif" font-size="10.00" fill="#000000">vector&lt; boost::shared</text>
<text text-anchor="start" x="1120.5" y="-954.5" font-family="Helvetica,sans-Serif" font-size="10.00" fill="#000000">_ptr&lt; AbstractCellPopulation</text>
<text text-anchor="start" x="1120.5" y="-943.5" font-family="Helvetica,sans-Serif" font-size="10.00" fill="#000000">Writer&lt; ELEMENT_DIM, SPACE</text>
<text text-anchor="middle" x="1194.5" y="-932.5" font-family="Helvetica,sans-Serif" font-size="10.00" fill="#000000">_DIM &gt; &gt; &gt;</text>
<polyline fill="none" stroke="#bfbfbf" points="1112.5,-925.5 1276.5,-925.5 "/>
<text text-anchor="middle" x="1194.5" y="-913.5" font-family="Helvetica,sans-Serif" font-size="10.00" fill="#000000"> </text>
<polyline fill="none" stroke="#bfbfbf" points="1112.5,-906.5 1276.5,-906.5 "/>
<text text-anchor="middle" x="1194.5" y="-894.5" font-family="Helvetica,sans-Serif" font-size="10.00" fill="#000000"> </text>
</g>
<!-- Node17&#45;&gt;Node9 -->
<g id="edge14" class="edge">
<title>Node17&#45;&gt;Node9</title>
<path fill="none" stroke="#404040" d="M1243.3599,-887.4205C1247.4423,-881.6207 1250.9688,-875.4429 1253.5,-869 1257.3638,-859.1651 1291.0843,-639.9456 1239.5,-540 1208.8591,-480.6327 1150.5916,-433.913 1098.5668,-401.4857"/>
<polygon fill="none" stroke="#404040" points="1098.4977,-401.4436 1091.2923,-401.7317 1088.2551,-395.1913 1095.4605,-394.9033 1098.4977,-401.4436"/>
<text text-anchor="middle" x="1323.5" y="-682" font-family="Helvetica,sans-Serif" font-size="10.00" fill="#000000"> #mCellPopulationWriters</text>
</g>
<!-- Node17&#45;&gt;Node23 -->
<g id="edge27" class="edge">
<title>Node17&#45;&gt;Node23</title>
<path fill="none" stroke="#404040" d="M1150.9396,-887.2719C1147.154,-881.4594 1143.8686,-875.3198 1141.5,-869 1138.1026,-859.9353 1135.4514,-850.4402 1133.4176,-840.7426"/>
<polygon fill="none" stroke="#404040" points="1133.3974,-840.632 1128.3814,-835.4513 1131.2344,-828.8285 1136.2504,-834.0093 1133.3974,-840.632"/>
<text text-anchor="middle" x="1197.5" y="-855.5" font-family="Helvetica,sans-Serif" font-size="10.00" fill="#000000"> #mCellPopulationWriters</text>
</g>
<!-- Node18 -->
<g id="node15" class="node">
<title>Node18</title>
<polygon fill="#ffffff" stroke="#bfbfbf" points="1314,-898.5 1314,-966.5 1417,-966.5 1417,-898.5 1314,-898.5"/>
<text text-anchor="start" x="1322" y="-954.5" font-family="Helvetica,sans-Serif" font-size="10.00" fill="#000000">map&lt; unsigned, std</text>
<text text-anchor="middle" x="1365.5" y="-943.5" font-family="Helvetica,sans-Serif" font-size="10.00" fill="#000000">::set&lt; CellPtr &gt; &gt;</text>
<polyline fill="none" stroke="#bfbfbf" points="1314,-936.5 1417,-936.5 "/>
<text text-anchor="middle" x="1365.5" y="-924.5" font-family="Helvetica,sans-Serif" font-size="10.00" fill="#000000"> </text>
<polyline fill="none" stroke="#bfbfbf" points="1314,-917.5 1417,-917.5 "/>
<text text-anchor="middle" x="1365.5" y="-905.5" font-family="Helvetica,sans-Serif" font-size="10.00" fill="#000000"> </text>
</g>
<!-- Node18&#45;&gt;Node9 -->
<g id="edge15" class="edge">
<title>Node18&#45;&gt;Node9</title>
<path fill="none" stroke="#404040" d="M1379.0415,-898.2979C1405.3191,-825.8876 1454.6821,-654.3822 1383.5,-540 1321.9025,-441.0193 1192.4597,-391.712 1099.8073,-368.2023"/>
<polygon fill="none" stroke="#404040" points="1099.7809,-368.1959 1092.9983,-370.6446 1088.1292,-365.3255 1094.9119,-362.8768 1099.7809,-368.1959"/>
<text text-anchor="middle" x="1464.5" y="-682" font-family="Helvetica,sans-Serif" font-size="10.00" fill="#000000"> #mLocationCellMap</text>
</g>
<!-- Node18&#45;&gt;Node23 -->
<g id="edge28" class="edge">
<title>Node18&#45;&gt;Node23</title>
<path fill="none" stroke="#404040" d="M1321.5304,-898.4579C1297.8799,-879.2155 1268.8593,-854.0512 1245.5,-829 1243.3975,-826.7452 1241.2969,-824.4501 1239.2013,-822.1212"/>
<polygon fill="none" stroke="#404040" points="1239.0833,-821.9872 1232.1153,-820.1304 1231.1493,-812.9843 1238.1173,-814.8411 1239.0833,-821.9872"/>
<text text-anchor="middle" x="1330.5" y="-855.5" font-family="Helvetica,sans-Serif" font-size="10.00" fill="#000000"> #mLocationCellMap</text>
</g>
<!-- Node19 -->
<g id="node16" class="node">
<title>Node19</title>
<g id="a_node16"><a xlink:href="classbool.html" target="_top" xlink:title="{bool\n||}">
<polygon fill="#ffffff" stroke="#000000" points="1606,-904 1606,-961 1641,-961 1641,-904 1606,-904"/>
<text text-anchor="middle" x="1623.5" y="-949" font-family="Helvetica,sans-Serif" font-size="10.00" fill="#000000">bool</text>
<polyline fill="none" stroke="#000000" points="1606,-942 1641,-942 "/>
<text text-anchor="middle" x="1623.5" y="-930" font-family="Helvetica,sans-Serif" font-size="10.00" fill="#000000"> </text>
<polyline fill="none" stroke="#000000" points="1606,-923 1641,-923 "/>
<text text-anchor="middle" x="1623.5" y="-911" font-family="Helvetica,sans-Serif" font-size="10.00" fill="#000000"> </text>
</a>
</g>
</g>
<!-- Node19&#45;&gt;Node9 -->
<g id="edge16" class="edge">
<title>Node19&#45;&gt;Node9</title>
<path fill="none" stroke="#404040" d="M1637.987,-903.9582C1642.0636,-897.8016 1646.9311,-891.73 1652.5,-887 1667.9789,-873.8528 1683.3202,-885.9546 1694.5,-869 1699.8826,-860.8371 1699.1854,-855.5821 1694.5,-847 1687.4109,-834.0151 1674.7154,-841.3033 1666.5,-829 1594.0274,-720.4651 1701.0071,-637.7171 1614.5,-540 1546.179,-462.8257 1258.7648,-398.1377 1100.3685,-367.515"/>
<polygon fill="none" stroke="#404040" points="1100.0427,-367.4526 1093.3965,-370.2503 1088.2577,-365.1914 1094.9039,-362.3936 1100.0427,-367.4526"/>
<text text-anchor="start" x="1666.5" y="-687.5" font-family="Helvetica,sans-Serif" font-size="10.00" fill="#000000"> #mOutputResultsForChaste</text>
<text text-anchor="middle" x="1729.5" y="-676.5" font-family="Helvetica,sans-Serif" font-size="10.00" fill="#000000">Visualizer</text>
</g>
<!-- Node19&#45;&gt;Node23 -->
<g id="edge29" class="edge">
<title>Node19&#45;&gt;Node23</title>
<path fill="none" stroke="#404040" d="M1606.6955,-903.5621C1602.2934,-897.5644 1597.1697,-891.6608 1591.5,-887 1557.686,-859.2032 1543.9739,-857.5838 1501.5,-847 1446.1628,-833.2108 1295.5595,-856.3202 1245.5,-829 1244.1082,-828.2404 1242.7293,-827.4544 1241.3632,-826.6432"/>
<polygon fill="none" stroke="#404040" points="1241.1831,-826.5255 1233.9722,-826.5871 1231.142,-819.9546 1238.3528,-819.893 1241.1831,-826.5255"/>
<text text-anchor="start" x="1564.5" y="-861" font-family="Helvetica,sans-Serif" font-size="10.00" fill="#000000"> #mOutputResultsForChaste</text>
<text text-anchor="middle" x="1627.5" y="-850" font-family="Helvetica,sans-Serif" font-size="10.00" fill="#000000">Visualizer</text>
</g>
<!-- Node20 -->
<g id="node17" class="node">
<title>Node20</title>
<polygon fill="#ffffff" stroke="#bfbfbf" points="823,-898.5 823,-966.5 948,-966.5 948,-898.5 823,-898.5"/>
<text text-anchor="start" x="831" y="-954.5" font-family="Helvetica,sans-Serif" font-size="10.00" fill="#000000">shared_ptr&lt; CellProperty</text>
<text text-anchor="middle" x="885.5" y="-943.5" font-family="Helvetica,sans-Serif" font-size="10.00" fill="#000000">Registry &gt;</text>
<polyline fill="none" stroke="#bfbfbf" points="823,-936.5 948,-936.5 "/>
<text text-anchor="middle" x="885.5" y="-924.5" font-family="Helvetica,sans-Serif" font-size="10.00" fill="#000000"> </text>
<polyline fill="none" stroke="#bfbfbf" points="823,-917.5 948,-917.5 "/>
<text text-anchor="middle" x="885.5" y="-905.5" font-family="Helvetica,sans-Serif" font-size="10.00" fill="#000000"> </text>
</g>
<!-- Node20&#45;&gt;Node9 -->
<g id="edge17" class="edge">
<title>Node20&#45;&gt;Node9</title>
<path fill="none" stroke="#404040" d="M850.0704,-898.1265C833.3869,-879.451 815.259,-854.9116 806.5,-829 765.3679,-707.3196 757.8942,-658.8926 806.5,-540 824.4646,-496.0577 857.9122,-456.7574 891.6715,-425.3655"/>
<polygon fill="none" stroke="#404040" points="891.839,-425.2133 893.5882,-418.2175 900.7186,-417.1415 898.9694,-424.1373 891.839,-425.2133"/>
<text text-anchor="middle" x="863" y="-682" font-family="Helvetica,sans-Serif" font-size="10.00" fill="#000000"> #mpCellPropertyRegistry</text>
</g>
<!-- Node20&#45;&gt;Node23 -->
<g id="edge30" class="edge">
<title>Node20&#45;&gt;Node23</title>
<path fill="none" stroke="#404040" d="M890.8734,-898.0772C895.4681,-880.1911 903.9391,-859.513 919.5,-847 958.1057,-815.9561 987.1526,-854.7065 1029.5,-829 1031.0478,-828.0604 1032.5808,-827.0896 1034.0988,-826.0894"/>
<polygon fill="none" stroke="#404040" points="1034.1379,-826.0614 1036.6922,-819.3178 1043.8994,-819.0818 1041.3452,-825.8255 1034.1379,-826.0614"/>
<text text-anchor="middle" x="976" y="-855.5" font-family="Helvetica,sans-Serif" font-size="10.00" fill="#000000"> #mpCellPropertyRegistry</text>
</g>
<!-- Node21 -->
<g id="node18" class="node">
<title>Node21</title>
<polygon fill="#ffffff" stroke="#bfbfbf" points="966.5,-904 966.5,-961 1088.5,-961 1088.5,-904 966.5,-904"/>
<text text-anchor="middle" x="1027.5" y="-949" font-family="Helvetica,sans-Serif" font-size="10.00" fill="#000000">map&lt; Cell *, unsigned &gt;</text>
<polyline fill="none" stroke="#bfbfbf" points="966.5,-942 1088.5,-942 "/>
<text text-anchor="middle" x="1027.5" y="-930" font-family="Helvetica,sans-Serif" font-size="10.00" fill="#000000"> </text>
<polyline fill="none" stroke="#bfbfbf" points="966.5,-923 1088.5,-923 "/>
<text text-anchor="middle" x="1027.5" y="-911" font-family="Helvetica,sans-Serif" font-size="10.00" fill="#000000"> </text>
</g>
<!-- Node21&#45;&gt;Node9 -->
<g id="edge18" class="edge">
<title>Node21&#45;&gt;Node9</title>
<path fill="none" stroke="#404040" d="M995.8434,-903.7226C977.2655,-884.6061 955.5243,-857.7949 945.5,-829 909.1771,-724.6618 923.2218,-600.4467 945.4103,-504.452"/>
<polygon fill="none" stroke="#404040" points="945.4542,-504.2667 942.9483,-497.505 948.2261,-492.5912 950.732,-499.3529 945.4542,-504.2667"/>
<text text-anchor="middle" x="990.5" y="-682" font-family="Helvetica,sans-Serif" font-size="10.00" fill="#000000"> #mCellLocationMap</text>
</g>
<!-- Node21&#45;&gt;Node23 -->
<g id="edge31" class="edge">
<title>Node21&#45;&gt;Node23</title>
<path fill="none" stroke="#404040" d="M1029.5331,-903.7185C1031.3807,-886.8084 1034.8839,-865.2406 1041.5,-847 1042.317,-844.7475 1043.1657,-842.4911 1044.0435,-840.2328"/>
<polygon fill="none" stroke="#404040" points="1044.1213,-840.0425 1042.6906,-832.9748 1048.6644,-828.9357 1050.0951,-836.0035 1044.1213,-840.0425"/>
<text text-anchor="middle" x="1086.5" y="-855.5" font-family="Helvetica,sans-Serif" font-size="10.00" fill="#000000"> #mCellLocationMap</text>
</g>
<!-- Node22 -->
<g id="node19" class="node">
<title>Node22</title>
<polygon fill="#ffffff" stroke="#bfbfbf" points="1444.5,-904 1444.5,-961 1582.5,-961 1582.5,-904 1444.5,-904"/>
<text text-anchor="middle" x="1513.5" y="-949" font-family="Helvetica,sans-Serif" font-size="10.00" fill="#000000">shared_ptr&lt; std::ofstream &gt;</text>
<polyline fill="none" stroke="#bfbfbf" points="1444.5,-942 1582.5,-942 "/>
<text text-anchor="middle" x="1513.5" y="-930" font-family="Helvetica,sans-Serif" font-size="10.00" fill="#000000"> </text>
<polyline fill="none" stroke="#bfbfbf" points="1444.5,-923 1582.5,-923 "/>
<text text-anchor="middle" x="1513.5" y="-911" font-family="Helvetica,sans-Serif" font-size="10.00" fill="#000000"> </text>
</g>
<!-- Node22&#45;&gt;Node9 -->
<g id="edge19" class="edge">
<title>Node22&#45;&gt;Node9</title>
<path fill="none" stroke="#404040" d="M1517.5783,-903.8641C1528.3882,-823.5978 1554.2635,-598.4907 1513.5,-540 1465.0772,-470.519 1237.0591,-405.8855 1099.8752,-372.3957"/>
<polygon fill="none" stroke="#404040" points="1099.781,-372.3729 1093.0079,-374.8477 1088.1184,-369.5474 1094.8916,-367.0726 1099.781,-372.3729"/>
<text text-anchor="middle" x="1573" y="-682" font-family="Helvetica,sans-Serif" font-size="10.00" fill="#000000"> #mpVtkMetaFile</text>
</g>
<!-- Node22&#45;&gt;Node23 -->
<g id="edge32" class="edge">
<title>Node22&#45;&gt;Node23</title>
<path fill="none" stroke="#404040" d="M1478.2431,-903.9206C1452.4567,-884.6005 1415.7825,-860.2743 1379.5,-847 1323.0678,-826.3538 1297.3087,-859.4422 1245.5,-829 1244.133,-828.1968 1242.7778,-827.3688 1241.4345,-826.5173"/>
<polygon fill="none" stroke="#404040" points="1241.2374,-826.381 1234.0274,-826.2555 1231.3701,-819.5518 1238.5802,-819.6773 1241.2374,-826.381"/>
<text text-anchor="middle" x="1460" y="-855.5" font-family="Helvetica,sans-Serif" font-size="10.00" fill="#000000"> #mpVtkMetaFile</text>
</g>
<!-- Node23&#45;&gt;Node9 -->
<g id="edge20" class="edge">
<title>Node23&#45;&gt;Node9</title>
<path fill="none" stroke="#ffa500" d="M1072.0879,-530.8045C1066.6668,-518.0667 1061.1986,-505.2185 1055.8093,-492.5555"/>
<polygon fill="#ffa500" stroke="#ffa500" points="1068.8887,-532.2251 1076.0252,-540.0558 1075.3296,-529.4838 1068.8887,-532.2251"/>
<text text-anchor="middle" x="1099" y="-514" font-family="Helvetica,sans-Serif" font-size="10.00" fill="#000000"> &lt; DIM, DIM &gt;</text>
</g>
</g>
</svg>
