<?xml version="1.0" encoding="UTF-8" standalone="no"?>
<!DOCTYPE svg PUBLIC "-//W3C//DTD SVG 1.1//EN"
 "http://www.w3.org/Graphics/SVG/1.1/DTD/svg11.dtd">
<!-- Generated by graphviz version 2.40.1 (20161225.0304)
 -->
<!-- Title: AbstractSteadyStateRunner Pages: 1 -->
<svg width="297pt" height="270pt"
 viewBox="0.00 0.00 296.50 270.00" xmlns="http://www.w3.org/2000/svg" xmlns:xlink="http://www.w3.org/1999/xlink">
<g id="graph0" class="graph" transform="scale(1 1) rotate(0) translate(4 266)">
<title>AbstractSteadyStateRunner</title>
<polygon fill="#ffffff" stroke="transparent" points="-4,4 -4,-266 292.5,-266 292.5,4 -4,4"/>
<!-- Node2 -->
<g id="node1" class="node">
<title>Node2</title>
<polygon fill="#bfbfbf" stroke="#000000" points="38,-.5 38,-134.5 219,-134.5 219,-.5 38,-.5"/>
<text text-anchor="middle" x="128.5" y="-122.5" font-family="Helvetica,sans-Serif" font-size="10.00" fill="#000000">AbstractSteadyStateRunner</text>
<polyline fill="none" stroke="#000000" points="38,-115.5 219,-115.5 "/>
<text text-anchor="middle" x="128.5" y="-103.5" font-family="Helvetica,sans-Serif" font-size="10.00" fill="#000000"> </text>
<polyline fill="none" stroke="#000000" points="38,-96.5 219,-96.5 "/>
<text text-anchor="start" x="46" y="-84.5" font-family="Helvetica,sans-Serif" font-size="10.00" fill="#000000">+ AbstractSteadyStateRunner()</text>
<text text-anchor="start" x="46" y="-73.5" font-family="Helvetica,sans-Serif" font-size="10.00" fill="#000000">+ ~AbstractSteadyStateRunner()</text>
<text text-anchor="start" x="46" y="-62.5" font-family="Helvetica,sans-Serif" font-size="10.00" fill="#000000">+ RunToSteadyState()</text>
<text text-anchor="start" x="46" y="-51.5" font-family="Helvetica,sans-Serif" font-size="10.00" fill="#000000">+ SuppressOutput()</text>
<text text-anchor="start" x="46" y="-40.5" font-family="Helvetica,sans-Serif" font-size="10.00" fill="#000000">+ GetNumEvaluations()</text>
<text text-anchor="start" x="46" y="-29.5" font-family="Helvetica,sans-Serif" font-size="10.00" fill="#000000">+ SetMaxNumPaces()</text>
<text text-anchor="start" x="46" y="-18.5" font-family="Helvetica,sans-Serif" font-size="10.00" fill="#000000"># RunToSteadyStateImplementation()</text>
<text text-anchor="start" x="46" y="-7.5" font-family="Helvetica,sans-Serif" font-size="10.00" fill="#000000">&#45; AbstractSteadyStateRunner()</text>
</g>
<!-- Node3 -->
<g id="node2" class="node">
<title>Node3</title>
<g id="a_node2"><a xlink:href="classbool.html" target="_top" xlink:title="{bool\n||}">
<polygon fill="#ffffff" stroke="#000000" points="0,-199 0,-256 35,-256 35,-199 0,-199"/>
<text text-anchor="middle" x="17.5" y="-244" font-family="Helvetica,sans-Serif" font-size="10.00" fill="#000000">bool</text>
<polyline fill="none" stroke="#000000" points="0,-237 35,-237 "/>
<text text-anchor="middle" x="17.5" y="-225" font-family="Helvetica,sans-Serif" font-size="10.00" fill="#000000"> </text>
<polyline fill="none" stroke="#000000" points="0,-218 35,-218 "/>
<text text-anchor="middle" x="17.5" y="-206" font-family="Helvetica,sans-Serif" font-size="10.00" fill="#000000"> </text>
</a>
</g>
</g>
<!-- Node3&#45;&gt;Node2 -->
<g id="edge1" class="edge">
<title>Node3&#45;&gt;Node2</title>
<path fill="none" stroke="#404040" d="M20.8988,-198.7832C23.558,-184.2903 28.2536,-166.8872 36.5,-153 38.19,-150.154 40.003,-147.345 41.9185,-144.5784"/>
<polygon fill="none" stroke="#404040" points="42.0774,-144.366 42.4688,-137.1655 49.266,-134.7573 48.8746,-141.9578 42.0774,-144.366"/>
<text text-anchor="middle" x="80.5" y="-161.5" font-family="Helvetica,sans-Serif" font-size="10.00" fill="#000000"> #mSuppressOutput</text>
</g>
<!-- Node4 -->
<g id="node3" class="node">
<title>Node4</title>
<polygon fill="#ffffff" stroke="#bfbfbf" points="60,-193.5 60,-261.5 197,-261.5 197,-193.5 60,-193.5"/>
<text text-anchor="start" x="68" y="-249.5" font-family="Helvetica,sans-Serif" font-size="10.00" fill="#000000">shared_ptr&lt; AbstractCvode</text>
<text text-anchor="middle" x="128.5" y="-238.5" font-family="Helvetica,sans-Serif" font-size="10.00" fill="#000000">Cell &gt;</text>
<polyline fill="none" stroke="#bfbfbf" points="60,-231.5 197,-231.5 "/>
<text text-anchor="middle" x="128.5" y="-219.5" font-family="Helvetica,sans-Serif" font-size="10.00" fill="#000000"> </text>
<polyline fill="none" stroke="#bfbfbf" points="60,-212.5 197,-212.5 "/>
<text text-anchor="middle" x="128.5" y="-200.5" font-family="Helvetica,sans-Serif" font-size="10.00" fill="#000000"> </text>
</g>
<!-- Node4&#45;&gt;Node2 -->
<g id="edge2" class="edge">
<title>Node4&#45;&gt;Node2</title>
<path fill="none" stroke="#404040" d="M128.5,-193.176C128.5,-179.5661 128.5,-163.3039 128.5,-147.0656"/>
<polygon fill="none" stroke="#404040" points="128.5001,-146.697 124.5,-140.697 128.5,-134.697 132.5,-140.6969 128.5001,-146.697"/>
<text text-anchor="middle" x="153" y="-161.5" font-family="Helvetica,sans-Serif" font-size="10.00" fill="#000000"> #mpModel</text>
</g>
<!-- Node5 -->
<g id="node4" class="node">
<title>Node5</title>
<g id="a_node4"><a xlink:href="classunsigned.html" target="_top" xlink:title="{unsigned\n||}">
<polygon fill="#ffffff" stroke="#000000" points="215.5,-199 215.5,-256 271.5,-256 271.5,-199 215.5,-199"/>
<text text-anchor="middle" x="243.5" y="-244" font-family="Helvetica,sans-Serif" font-size="10.00" fill="#000000">unsigned</text>
<polyline fill="none" stroke="#000000" points="215.5,-237 271.5,-237 "/>
<text text-anchor="middle" x="243.5" y="-225" font-family="Helvetica,sans-Serif" font-size="10.00" fill="#000000"> </text>
<polyline fill="none" stroke="#000000" points="215.5,-218 271.5,-218 "/>
<text text-anchor="middle" x="243.5" y="-206" font-family="Helvetica,sans-Serif" font-size="10.00" fill="#000000"> </text>
</a>
</g>
</g>
<!-- Node5&#45;&gt;Node2 -->
<g id="edge3" class="edge">
<title>Node5&#45;&gt;Node2</title>
<path fill="none" stroke="#404040" d="M222.9403,-198.8952C211.942,-183.5932 197.8167,-163.9406 183.8598,-144.5223"/>
<polygon fill="none" stroke="#404040" points="183.8197,-144.4665 177.0698,-141.929 176.816,-134.7223 183.5659,-137.2599 183.8197,-144.4665"/>
<text text-anchor="middle" x="245.5" y="-167" font-family="Helvetica,sans-Serif" font-size="10.00" fill="#000000"> #mMaxNumPaces</text>
<text text-anchor="middle" x="245.5" y="-156" font-family="Helvetica,sans-Serif" font-size="10.00" fill="#000000">#mNumEvaluations</text>
</g>
</g>
</svg>
