<?xml version="1.0" encoding="UTF-8" standalone="no"?>
<!DOCTYPE svg PUBLIC "-//W3C//DTD SVG 1.1//EN"
 "http://www.w3.org/Graphics/SVG/1.1/DTD/svg11.dtd">
<!-- Generated by graphviz version 2.40.1 (20161225.0304)
 -->
<!-- Title: XdmfMeshWriter&lt; ELEMENT_DIM, SPACE_DIM &gt; Pages: 1 -->
<svg width="1785pt" height="1036pt"
 viewBox="0.00 0.00 1785.28 1036.00" xmlns="http://www.w3.org/2000/svg" xmlns:xlink="http://www.w3.org/1999/xlink">
<g id="graph0" class="graph" transform="scale(1 1) rotate(0) translate(4 1032)">
<title>XdmfMeshWriter&lt; ELEMENT_DIM, SPACE_DIM &gt;</title>
<polygon fill="#ffffff" stroke="transparent" points="-4,4 -4,-1032 1781.2755,-1032 1781.2755,4 -4,4"/>
<!-- Node4 -->
<g id="node1" class="node">
<title>Node4</title>
<polygon fill="#bfbfbf" stroke="#000000" points="1066.7755,-.5 1066.7755,-112.5 1212.7755,-112.5 1212.7755,-.5 1066.7755,-.5"/>
<text text-anchor="start" x="1074.7755" y="-100.5" font-family="Helvetica,sans-Serif" font-size="10.00" fill="#000000">XdmfMeshWriter&lt; ELEMENT</text>
<text text-anchor="middle" x="1139.7755" y="-89.5" font-family="Helvetica,sans-Serif" font-size="10.00" fill="#000000">_DIM, SPACE_DIM &gt;</text>
<polyline fill="none" stroke="#000000" points="1066.7755,-82.5 1212.7755,-82.5 "/>
<text text-anchor="middle" x="1139.7755" y="-70.5" font-family="Helvetica,sans-Serif" font-size="10.00" fill="#000000"> </text>
<polyline fill="none" stroke="#000000" points="1066.7755,-63.5 1212.7755,-63.5 "/>
<text text-anchor="start" x="1074.7755" y="-51.5" font-family="Helvetica,sans-Serif" font-size="10.00" fill="#000000">+ XdmfMeshWriter()</text>
<text text-anchor="start" x="1074.7755" y="-40.5" font-family="Helvetica,sans-Serif" font-size="10.00" fill="#000000">+ WriteFiles()</text>
<text text-anchor="start" x="1074.7755" y="-29.5" font-family="Helvetica,sans-Serif" font-size="10.00" fill="#000000">+ WriteFilesUsingMesh()</text>
<text text-anchor="start" x="1074.7755" y="-18.5" font-family="Helvetica,sans-Serif" font-size="10.00" fill="#000000">&#45; WriteXdmfMasterFile()</text>
<text text-anchor="start" x="1074.7755" y="-7.5" font-family="Helvetica,sans-Serif" font-size="10.00" fill="#000000">&#45; AddDataOnNodes()</text>
</g>
<!-- Node5 -->
<g id="node2" class="node">
<title>Node5</title>
<g id="a_node2"><a xlink:href="classAbstractTetrahedralMeshWriter.html" target="_top" xlink:title="{AbstractTetrahedralMeshWriter\l\&lt; ELEMENT_DIM, SPACE_DIM \&gt;\n||+ AbstractTetrahedralMeshWriter()\l+ ~AbstractTetrahedralMesh\lWriter()\l+ WriteFilesUsingMesh()\l+ WriteFilesUsingMeshReader\lAndMesh()\l+ GetNextNode()\l+ GetNextElement()\l+ GetNextBoundaryElement()\l+ GetNextCableElement()\l&#45; PostElement()\l&#45; UnpackElement()\l&#45; WriteFilesUsingParallelMesh()\l&#45; WriteNclFile()\l&#45; CreateFilesWithHeaders()\l&#45; AppendLocalDataToFiles()\l&#45; WriteFilesFooter()\l}">
<polygon fill="#ffffff" stroke="#000000" points="1054.7755,-160.5 1054.7755,-404.5 1224.7755,-404.5 1224.7755,-160.5 1054.7755,-160.5"/>
<text text-anchor="start" x="1062.7755" y="-392.5" font-family="Helvetica,sans-Serif" font-size="10.00" fill="#000000">AbstractTetrahedralMeshWriter</text>
<text text-anchor="middle" x="1139.7755" y="-381.5" font-family="Helvetica,sans-Serif" font-size="10.00" fill="#000000">&lt; ELEMENT_DIM, SPACE_DIM &gt;</text>
<polyline fill="none" stroke="#000000" points="1054.7755,-374.5 1224.7755,-374.5 "/>
<text text-anchor="middle" x="1139.7755" y="-362.5" font-family="Helvetica,sans-Serif" font-size="10.00" fill="#000000"> </text>
<polyline fill="none" stroke="#000000" points="1054.7755,-355.5 1224.7755,-355.5 "/>
<text text-anchor="start" x="1062.7755" y="-343.5" font-family="Helvetica,sans-Serif" font-size="10.00" fill="#000000">+ AbstractTetrahedralMeshWriter()</text>
<text text-anchor="start" x="1062.7755" y="-332.5" font-family="Helvetica,sans-Serif" font-size="10.00" fill="#000000">+ ~AbstractTetrahedralMesh</text>
<text text-anchor="start" x="1062.7755" y="-321.5" font-family="Helvetica,sans-Serif" font-size="10.00" fill="#000000">Writer()</text>
<text text-anchor="start" x="1062.7755" y="-310.5" font-family="Helvetica,sans-Serif" font-size="10.00" fill="#000000">+ WriteFilesUsingMesh()</text>
<text text-anchor="start" x="1062.7755" y="-299.5" font-family="Helvetica,sans-Serif" font-size="10.00" fill="#000000">+ WriteFilesUsingMeshReader</text>
<text text-anchor="start" x="1062.7755" y="-288.5" font-family="Helvetica,sans-Serif" font-size="10.00" fill="#000000">AndMesh()</text>
<text text-anchor="start" x="1062.7755" y="-277.5" font-family="Helvetica,sans-Serif" font-size="10.00" fill="#000000">+ GetNextNode()</text>
<text text-anchor="start" x="1062.7755" y="-266.5" font-family="Helvetica,sans-Serif" font-size="10.00" fill="#000000">+ GetNextElement()</text>
<text text-anchor="start" x="1062.7755" y="-255.5" font-family="Helvetica,sans-Serif" font-size="10.00" fill="#000000">+ GetNextBoundaryElement()</text>
<text text-anchor="start" x="1062.7755" y="-244.5" font-family="Helvetica,sans-Serif" font-size="10.00" fill="#000000">+ GetNextCableElement()</text>
<text text-anchor="start" x="1062.7755" y="-233.5" font-family="Helvetica,sans-Serif" font-size="10.00" fill="#000000">&#45; PostElement()</text>
<text text-anchor="start" x="1062.7755" y="-222.5" font-family="Helvetica,sans-Serif" font-size="10.00" fill="#000000">&#45; UnpackElement()</text>
<text text-anchor="start" x="1062.7755" y="-211.5" font-family="Helvetica,sans-Serif" font-size="10.00" fill="#000000">&#45; WriteFilesUsingParallelMesh()</text>
<text text-anchor="start" x="1062.7755" y="-200.5" font-family="Helvetica,sans-Serif" font-size="10.00" fill="#000000">&#45; WriteNclFile()</text>
<text text-anchor="start" x="1062.7755" y="-189.5" font-family="Helvetica,sans-Serif" font-size="10.00" fill="#000000">&#45; CreateFilesWithHeaders()</text>
<text text-anchor="start" x="1062.7755" y="-178.5" font-family="Helvetica,sans-Serif" font-size="10.00" fill="#000000">&#45; AppendLocalDataToFiles()</text>
<text text-anchor="start" x="1062.7755" y="-167.5" font-family="Helvetica,sans-Serif" font-size="10.00" fill="#000000">&#45; WriteFilesFooter()</text>
</a>
</g>
</g>
<!-- Node5&#45;&gt;Node4 -->
<g id="edge1" class="edge">
<title>Node5&#45;&gt;Node4</title>
<path fill="none" stroke="#191970" d="M1139.7755,-150.1448C1139.7755,-137.0194 1139.7755,-124.2531 1139.7755,-112.5829"/>
<polygon fill="none" stroke="#191970" points="1136.2756,-150.2397 1139.7755,-160.2397 1143.2756,-150.2397 1136.2756,-150.2397"/>
</g>
<!-- Node6 -->
<g id="node3" class="node">
<title>Node6</title>
<g id="a_node3"><a xlink:href="classAbstractMeshWriter.html" target="_top" xlink:title="{AbstractMeshWriter\l\&lt; ELEMENT_DIM, SPACE_DIM \&gt;\n||+ AbstractMeshWriter()\l+ ~AbstractMeshWriter()\l+ GetOutputDirectory()\l+ GetNumNodes()\l+ GetNumElements()\l+ GetNumBoundaryFaces()\l+ GetNumCableElements()\l+ GetNextNode()\l+ GetNextElement()\l+ GetNextBoundaryElement()\l+ GetNextCableElement()\l+ WriteFiles()\l+ WriteFilesUsingMeshReader()\l}">
<polygon fill="#ffffff" stroke="#000000" points="260.7755,-452.5 260.7755,-652.5 430.7755,-652.5 430.7755,-452.5 260.7755,-452.5"/>
<text text-anchor="start" x="268.7755" y="-640.5" font-family="Helvetica,sans-Serif" font-size="10.00" fill="#000000">AbstractMeshWriter</text>
<text text-anchor="middle" x="345.7755" y="-629.5" font-family="Helvetica,sans-Serif" font-size="10.00" fill="#000000">&lt; ELEMENT_DIM, SPACE_DIM &gt;</text>
<polyline fill="none" stroke="#000000" points="260.7755,-622.5 430.7755,-622.5 "/>
<text text-anchor="middle" x="345.7755" y="-610.5" font-family="Helvetica,sans-Serif" font-size="10.00" fill="#000000"> </text>
<polyline fill="none" stroke="#000000" points="260.7755,-603.5 430.7755,-603.5 "/>
<text text-anchor="start" x="268.7755" y="-591.5" font-family="Helvetica,sans-Serif" font-size="10.00" fill="#000000">+ AbstractMeshWriter()</text>
<text text-anchor="start" x="268.7755" y="-580.5" font-family="Helvetica,sans-Serif" font-size="10.00" fill="#000000">+ ~AbstractMeshWriter()</text>
<text text-anchor="start" x="268.7755" y="-569.5" font-family="Helvetica,sans-Serif" font-size="10.00" fill="#000000">+ GetOutputDirectory()</text>
<text text-anchor="start" x="268.7755" y="-558.5" font-family="Helvetica,sans-Serif" font-size="10.00" fill="#000000">+ GetNumNodes()</text>
<text text-anchor="start" x="268.7755" y="-547.5" font-family="Helvetica,sans-Serif" font-size="10.00" fill="#000000">+ GetNumElements()</text>
<text text-anchor="start" x="268.7755" y="-536.5" font-family="Helvetica,sans-Serif" font-size="10.00" fill="#000000">+ GetNumBoundaryFaces()</text>
<text text-anchor="start" x="268.7755" y="-525.5" font-family="Helvetica,sans-Serif" font-size="10.00" fill="#000000">+ GetNumCableElements()</text>
<text text-anchor="start" x="268.7755" y="-514.5" font-family="Helvetica,sans-Serif" font-size="10.00" fill="#000000">+ GetNextNode()</text>
<text text-anchor="start" x="268.7755" y="-503.5" font-family="Helvetica,sans-Serif" font-size="10.00" fill="#000000">+ GetNextElement()</text>
<text text-anchor="start" x="268.7755" y="-492.5" font-family="Helvetica,sans-Serif" font-size="10.00" fill="#000000">+ GetNextBoundaryElement()</text>
<text text-anchor="start" x="268.7755" y="-481.5" font-family="Helvetica,sans-Serif" font-size="10.00" fill="#000000">+ GetNextCableElement()</text>
<text text-anchor="start" x="268.7755" y="-470.5" font-family="Helvetica,sans-Serif" font-size="10.00" fill="#000000">+ WriteFiles()</text>
<text text-anchor="start" x="268.7755" y="-459.5" font-family="Helvetica,sans-Serif" font-size="10.00" fill="#000000">+ WriteFilesUsingMeshReader()</text>
</a>
</g>
</g>
<!-- Node6&#45;&gt;Node5 -->
<g id="edge2" class="edge">
<title>Node6&#45;&gt;Node5</title>
<path fill="none" stroke="#191970" d="M439.4326,-486.6108C475.1643,-463.8406 517.1043,-439.8427 557.7755,-423 726.7974,-353.0049 938.5001,-312.8449 1054.3083,-294.5803"/>
<polygon fill="none" stroke="#191970" points="437.4792,-483.7057 430.9624,-492.0592 441.2662,-489.5929 437.4792,-483.7057"/>
</g>
<!-- Node7 -->
<g id="node4" class="node">
<title>Node7</title>
<g id="a_node4"><a xlink:href="classOutputFileHandler.html" target="_top" xlink:title="{OutputFileHandler\n||+ OutputFileHandler()\l+ OutputFileHandler()\l+ GetOutputDirectoryFullPath()\l+ GetRelativePath()\l+ SetArchiveDirectory()\l+ OpenOutputFile()\l+ OpenOutputFile()\l+ CopyFileTo()\l+ FindFile()\l+ GetChasteTestOutputDirectory()\l&#45; CommonConstructor()\l&#45; MakeFoldersAndReturnFullPath()\l&#45; AddTrailingSlash()\l}">
<polygon fill="#ffffff" stroke="#000000" points="104.2755,-733.5 104.2755,-922.5 271.2755,-922.5 271.2755,-733.5 104.2755,-733.5"/>
<text text-anchor="middle" x="187.7755" y="-910.5" font-family="Helvetica,sans-Serif" font-size="10.00" fill="#000000">OutputFileHandler</text>
<polyline fill="none" stroke="#000000" points="104.2755,-903.5 271.2755,-903.5 "/>
<text text-anchor="middle" x="187.7755" y="-891.5" font-family="Helvetica,sans-Serif" font-size="10.00" fill="#000000"> </text>
<polyline fill="none" stroke="#000000" points="104.2755,-884.5 271.2755,-884.5 "/>
<text text-anchor="start" x="112.2755" y="-872.5" font-family="Helvetica,sans-Serif" font-size="10.00" fill="#000000">+ OutputFileHandler()</text>
<text text-anchor="start" x="112.2755" y="-861.5" font-family="Helvetica,sans-Serif" font-size="10.00" fill="#000000">+ OutputFileHandler()</text>
<text text-anchor="start" x="112.2755" y="-850.5" font-family="Helvetica,sans-Serif" font-size="10.00" fill="#000000">+ GetOutputDirectoryFullPath()</text>
<text text-anchor="start" x="112.2755" y="-839.5" font-family="Helvetica,sans-Serif" font-size="10.00" fill="#000000">+ GetRelativePath()</text>
<text text-anchor="start" x="112.2755" y="-828.5" font-family="Helvetica,sans-Serif" font-size="10.00" fill="#000000">+ SetArchiveDirectory()</text>
<text text-anchor="start" x="112.2755" y="-817.5" font-family="Helvetica,sans-Serif" font-size="10.00" fill="#000000">+ OpenOutputFile()</text>
<text text-anchor="start" x="112.2755" y="-806.5" font-family="Helvetica,sans-Serif" font-size="10.00" fill="#000000">+ OpenOutputFile()</text>
<text text-anchor="start" x="112.2755" y="-795.5" font-family="Helvetica,sans-Serif" font-size="10.00" fill="#000000">+ CopyFileTo()</text>
<text text-anchor="start" x="112.2755" y="-784.5" font-family="Helvetica,sans-Serif" font-size="10.00" fill="#000000">+ FindFile()</text>
<text text-anchor="start" x="112.2755" y="-773.5" font-family="Helvetica,sans-Serif" font-size="10.00" fill="#000000">+ GetChasteTestOutputDirectory()</text>
<text text-anchor="start" x="112.2755" y="-762.5" font-family="Helvetica,sans-Serif" font-size="10.00" fill="#000000">&#45; CommonConstructor()</text>
<text text-anchor="start" x="112.2755" y="-751.5" font-family="Helvetica,sans-Serif" font-size="10.00" fill="#000000">&#45; MakeFoldersAndReturnFullPath()</text>
<text text-anchor="start" x="112.2755" y="-740.5" font-family="Helvetica,sans-Serif" font-size="10.00" fill="#000000">&#45; AddTrailingSlash()</text>
</a>
</g>
</g>
<!-- Node7&#45;&gt;Node6 -->
<g id="edge3" class="edge">
<title>Node7&#45;&gt;Node6</title>
<path fill="none" stroke="#404040" d="M212.9819,-733.1759C220.4458,-712.0043 229.6668,-690.1647 240.7755,-671 244.6201,-664.3673 248.8733,-657.7734 253.4004,-651.2884"/>
<polygon fill="none" stroke="#404040" points="253.6742,-650.9108 253.9596,-643.7054 260.7205,-641.1974 260.4352,-648.4029 253.6742,-650.9108"/>
<text text-anchor="middle" x="291.2755" y="-690.5" font-family="Helvetica,sans-Serif" font-size="10.00" fill="#000000"> #mpOutputFileHandler</text>
</g>
<!-- Node8 -->
<g id="node5" class="node">
<title>Node8</title>
<polygon fill="#ffffff" stroke="#bfbfbf" points="89.2755,-970.5 89.2755,-1027.5 130.2755,-1027.5 130.2755,-970.5 89.2755,-970.5"/>
<text text-anchor="middle" x="109.7755" y="-1015.5" font-family="Helvetica,sans-Serif" font-size="10.00" fill="#000000">string</text>
<polyline fill="none" stroke="#bfbfbf" points="89.2755,-1008.5 130.2755,-1008.5 "/>
<text text-anchor="middle" x="109.7755" y="-996.5" font-family="Helvetica,sans-Serif" font-size="10.00" fill="#000000"> </text>
<polyline fill="none" stroke="#bfbfbf" points="89.2755,-989.5 130.2755,-989.5 "/>
<text text-anchor="middle" x="109.7755" y="-977.5" font-family="Helvetica,sans-Serif" font-size="10.00" fill="#000000"> </text>
</g>
<!-- Node8&#45;&gt;Node6 -->
<g id="edge6" class="edge">
<title>Node8&#45;&gt;Node6</title>
<path fill="none" stroke="#404040" d="M88.9479,-986.6534C69.254,-973.6396 40.9582,-951.1363 28.7755,-923 -4.7777,-845.5078 -13.6653,-806.0044 28.7755,-733 75.7568,-652.1852 173.9451,-604.5567 248.6723,-578.7118"/>
<polygon fill="none" stroke="#404040" points="249.079,-578.5751 253.4905,-572.8708 260.4527,-574.7491 256.0412,-580.4533 249.079,-578.5751"/>
<text text-anchor="middle" x="61.7755" y="-825.5" font-family="Helvetica,sans-Serif" font-size="10.00" fill="#000000"> #mBaseName</text>
</g>
<!-- Node8&#45;&gt;Node7 -->
<g id="edge4" class="edge">
<title>Node8&#45;&gt;Node7</title>
<path fill="none" stroke="#404040" d="M107.0297,-970.4451C106.9568,-960.8918 107.8169,-950.31 110.7755,-941 111.5035,-938.7092 112.2943,-936.4229 113.1419,-934.1443"/>
<polygon fill="none" stroke="#404040" points="113.2355,-933.9179 111.834,-926.8443 117.8245,-922.83 119.226,-929.9036 113.2355,-933.9179"/>
<text text-anchor="middle" x="138.2755" y="-944" font-family="Helvetica,sans-Serif" font-size="10.00" fill="#000000"> &#45;mDirectory</text>
</g>
<!-- Node8&#45;&gt;Node7 -->
<g id="edge5" class="edge">
<title>Node8&#45;&gt;Node7</title>
<path fill="none" stroke="#404040" d="M130.2854,-986.9982C142.5428,-978.7305 157.328,-966.6155 165.7755,-952 169.0578,-946.3211 171.8729,-940.2704 174.2853,-934.0129"/>
<polygon fill="none" stroke="#404040" points="174.3189,-933.9146 172.4784,-926.9423 178.2065,-922.5617 180.047,-929.534 174.3189,-933.9146"/>
<text text-anchor="middle" x="214.7755" y="-944" font-family="Helvetica,sans-Serif" font-size="10.00" fill="#000000"> +SIG_FILE_NAME</text>
</g>
<!-- Node9 -->
<g id="node6" class="node">
<title>Node9</title>
<polygon fill="#ffffff" stroke="#bfbfbf" points="289.2755,-788.5 289.2755,-867.5 426.2755,-867.5 426.2755,-788.5 289.2755,-788.5"/>
<text text-anchor="start" x="297.2755" y="-855.5" font-family="Helvetica,sans-Serif" font-size="10.00" fill="#000000">AbstractMeshReader</text>
<text text-anchor="start" x="297.2755" y="-844.5" font-family="Helvetica,sans-Serif" font-size="10.00" fill="#000000">&lt; ELEMENT_DIM, SPACE</text>
<text text-anchor="middle" x="357.7755" y="-833.5" font-family="Helvetica,sans-Serif" font-size="10.00" fill="#000000">_DIM &gt; *</text>
<polyline fill="none" stroke="#bfbfbf" points="289.2755,-826.5 426.2755,-826.5 "/>
<text text-anchor="middle" x="357.7755" y="-814.5" font-family="Helvetica,sans-Serif" font-size="10.00" fill="#000000"> </text>
<polyline fill="none" stroke="#bfbfbf" points="289.2755,-807.5 426.2755,-807.5 "/>
<text text-anchor="middle" x="357.7755" y="-795.5" font-family="Helvetica,sans-Serif" font-size="10.00" fill="#000000"> </text>
</g>
<!-- Node9&#45;&gt;Node6 -->
<g id="edge7" class="edge">
<title>Node9&#45;&gt;Node6</title>
<path fill="none" stroke="#404040" d="M353.0232,-788.3211C350.6562,-766.6836 348.036,-739.4088 346.7755,-715 345.9383,-698.7896 345.427,-681.6576 345.1372,-664.8371"/>
<polygon fill="none" stroke="#404040" points="345.1348,-664.6606 341.0498,-658.7182 344.964,-652.6618 349.049,-658.6042 345.1348,-664.6606"/>
<text text-anchor="middle" x="385.7755" y="-690.5" font-family="Helvetica,sans-Serif" font-size="10.00" fill="#000000"> #mpMeshReader</text>
</g>
<!-- Node10 -->
<g id="node7" class="node">
<title>Node10</title>
<g id="a_node7"><a xlink:href="classunsigned.html" target="_top" xlink:title="{unsigned\n||}">
<polygon fill="#ffffff" stroke="#000000" points="551.7755,-799.5 551.7755,-856.5 607.7755,-856.5 607.7755,-799.5 551.7755,-799.5"/>
<text text-anchor="middle" x="579.7755" y="-844.5" font-family="Helvetica,sans-Serif" font-size="10.00" fill="#000000">unsigned</text>
<polyline fill="none" stroke="#000000" points="551.7755,-837.5 607.7755,-837.5 "/>
<text text-anchor="middle" x="579.7755" y="-825.5" font-family="Helvetica,sans-Serif" font-size="10.00" fill="#000000"> </text>
<polyline fill="none" stroke="#000000" points="551.7755,-818.5 607.7755,-818.5 "/>
<text text-anchor="middle" x="579.7755" y="-806.5" font-family="Helvetica,sans-Serif" font-size="10.00" fill="#000000"> </text>
</a>
</g>
</g>
<!-- Node10&#45;&gt;Node4 -->
<g id="edge19" class="edge">
<title>Node10&#45;&gt;Node4</title>
<path fill="none" stroke="#404040" d="M578.3713,-799.4304C574.3171,-712.6086 563.9768,-455.7909 581.7755,-423 683.214,-236.1176 925.8435,-128.8637 1055.1966,-83.0874"/>
<polygon fill="none" stroke="#404040" points="1055.2624,-83.0646 1059.6091,-77.3108 1066.5921,-79.1102 1062.2454,-84.864 1055.2624,-83.0646"/>
<text text-anchor="middle" x="637.7755" y="-426" font-family="Helvetica,sans-Serif" font-size="10.00" fill="#000000"> #mNumberOfTimePoints</text>
</g>
<!-- Node10&#45;&gt;Node5 -->
<g id="edge16" class="edge">
<title>Node10&#45;&gt;Node5</title>
<path fill="none" stroke="#404040" d="M583.5157,-799.3503C594.3041,-720.7473 627.7397,-504.0995 674.7755,-452 724.8577,-396.5262 921.589,-338.1773 1042.542,-306.4755"/>
<polygon fill="none" stroke="#404040" points="1042.7517,-306.421 1047.5506,-301.0386 1054.3647,-303.3983 1049.5658,-308.7807 1042.7517,-306.421"/>
<text text-anchor="start" x="674.7755" y="-594" font-family="Helvetica,sans-Serif" font-size="10.00" fill="#000000"> #mNodeCounterForParallel</text>
<text text-anchor="middle" x="760.7755" y="-583" font-family="Helvetica,sans-Serif" font-size="10.00" fill="#000000">Mesh</text>
<text text-anchor="middle" x="760.7755" y="-572" font-family="Helvetica,sans-Serif" font-size="10.00" fill="#000000">#mNodesPerBoundaryElement</text>
<text text-anchor="start" x="674.7755" y="-561" font-family="Helvetica,sans-Serif" font-size="10.00" fill="#000000">#mCableElementCounterForParallel</text>
<text text-anchor="middle" x="760.7755" y="-550" font-family="Helvetica,sans-Serif" font-size="10.00" fill="#000000">Mesh</text>
<text text-anchor="start" x="674.7755" y="-539" font-family="Helvetica,sans-Serif" font-size="10.00" fill="#000000">#mBoundaryElementCounterForParallel</text>
<text text-anchor="middle" x="760.7755" y="-528" font-family="Helvetica,sans-Serif" font-size="10.00" fill="#000000">Mesh</text>
<text text-anchor="middle" x="760.7755" y="-517" font-family="Helvetica,sans-Serif" font-size="10.00" fill="#000000">#mElementCounterForParallelMesh</text>
<text text-anchor="middle" x="760.7755" y="-506" font-family="Helvetica,sans-Serif" font-size="10.00" fill="#000000">#mNodesPerElement</text>
</g>
<!-- Node10&#45;&gt;Node6 -->
<g id="edge8" class="edge">
<title>Node10&#45;&gt;Node6</title>
<path fill="none" stroke="#404040" d="M551.7635,-808.9487C522.9844,-788.332 478.2086,-753.2379 447.7755,-715 434.0342,-697.7347 436.0225,-689.9847 424.7755,-671 423.2041,-668.3476 421.5984,-665.6724 419.9654,-662.983"/>
<polygon fill="none" stroke="#404040" points="419.8378,-662.7757 413.286,-659.7635 413.5466,-652.5571 420.0984,-655.5693 419.8378,-662.7757"/>
<text text-anchor="middle" x="506.7755" y="-707" font-family="Helvetica,sans-Serif" font-size="10.00" fill="#000000"> #mNumCableElements</text>
<text text-anchor="middle" x="506.7755" y="-696" font-family="Helvetica,sans-Serif" font-size="10.00" fill="#000000">#mNumElements</text>
<text text-anchor="middle" x="506.7755" y="-685" font-family="Helvetica,sans-Serif" font-size="10.00" fill="#000000">#mNumBoundaryElements</text>
<text text-anchor="middle" x="506.7755" y="-674" font-family="Helvetica,sans-Serif" font-size="10.00" fill="#000000">#mNumNodes</text>
</g>
<!-- Node11 -->
<g id="node8" class="node">
<title>Node11</title>
<polygon fill="#ffffff" stroke="#bfbfbf" points="856.2755,-518.5 856.2755,-586.5 1033.2755,-586.5 1033.2755,-518.5 856.2755,-518.5"/>
<text text-anchor="start" x="864.2755" y="-574.5" font-family="Helvetica,sans-Serif" font-size="10.00" fill="#000000">DistributedTetrahedralMesh</text>
<text text-anchor="middle" x="944.7755" y="-563.5" font-family="Helvetica,sans-Serif" font-size="10.00" fill="#000000">&lt; ELEMENT_DIM, SPACE_DIM &gt; *</text>
<polyline fill="none" stroke="#bfbfbf" points="856.2755,-556.5 1033.2755,-556.5 "/>
<text text-anchor="middle" x="944.7755" y="-544.5" font-family="Helvetica,sans-Serif" font-size="10.00" fill="#000000"> </text>
<polyline fill="none" stroke="#bfbfbf" points="856.2755,-537.5 1033.2755,-537.5 "/>
<text text-anchor="middle" x="944.7755" y="-525.5" font-family="Helvetica,sans-Serif" font-size="10.00" fill="#000000"> </text>
</g>
<!-- Node11&#45;&gt;Node5 -->
<g id="edge9" class="edge">
<title>Node11&#45;&gt;Node5</title>
<path fill="none" stroke="#404040" d="M969.4724,-518.3043C989.402,-490.7095 1018.7604,-450.0593 1047.5101,-410.252"/>
<polygon fill="none" stroke="#404040" points="1047.5776,-410.1585 1047.8479,-402.9525 1054.6036,-400.4304 1054.3333,-407.6364 1047.5776,-410.1585"/>
<text text-anchor="middle" x="1083.7755" y="-426" font-family="Helvetica,sans-Serif" font-size="10.00" fill="#000000"> #mpDistributedMesh</text>
</g>
<!-- Node12 -->
<g id="node9" class="node">
<title>Node12</title>
<polygon fill="#ffffff" stroke="#bfbfbf" points="1051.2755,-518.5 1051.2755,-586.5 1228.2755,-586.5 1228.2755,-518.5 1051.2755,-518.5"/>
<text text-anchor="start" x="1059.2755" y="-574.5" font-family="Helvetica,sans-Serif" font-size="10.00" fill="#000000">AbstractTetrahedralMesh</text>
<text text-anchor="middle" x="1139.7755" y="-563.5" font-family="Helvetica,sans-Serif" font-size="10.00" fill="#000000">&lt; ELEMENT_DIM, SPACE_DIM &gt; *</text>
<polyline fill="none" stroke="#bfbfbf" points="1051.2755,-556.5 1228.2755,-556.5 "/>
<text text-anchor="middle" x="1139.7755" y="-544.5" font-family="Helvetica,sans-Serif" font-size="10.00" fill="#000000"> </text>
<polyline fill="none" stroke="#bfbfbf" points="1051.2755,-537.5 1228.2755,-537.5 "/>
<text text-anchor="middle" x="1139.7755" y="-525.5" font-family="Helvetica,sans-Serif" font-size="10.00" fill="#000000"> </text>
</g>
<!-- Node12&#45;&gt;Node5 -->
<g id="edge10" class="edge">
<title>Node12&#45;&gt;Node5</title>
<path fill="none" stroke="#404040" d="M1139.7755,-518.3043C1139.7755,-492.2475 1139.7755,-454.5502 1139.7755,-416.9136"/>
<polygon fill="none" stroke="#404040" points="1139.7756,-416.711 1135.7755,-410.711 1139.7755,-404.711 1143.7755,-410.7109 1139.7756,-416.711"/>
<text text-anchor="middle" x="1162.7755" y="-426" font-family="Helvetica,sans-Serif" font-size="10.00" fill="#000000"> #mpMesh</text>
</g>
<!-- Node13 -->
<g id="node10" class="node">
<title>Node13</title>
<g id="a_node10"><a xlink:href="classNodeMap.html" target="_top" xlink:title="{NodeMap\n||+ NodeMap()\l+ Resize()\l+ ResetToIdentity()\l+ SetNewIndex()\l+ SetDeleted()\l+ IsDeleted()\l+ GetNewIndex()\l+ IsIdentityMap()\l+ GetSize()\l}">
<polygon fill="#ffffff" stroke="#000000" points="1246.2755,-480 1246.2755,-625 1347.2755,-625 1347.2755,-480 1246.2755,-480"/>
<text text-anchor="middle" x="1296.7755" y="-613" font-family="Helvetica,sans-Serif" font-size="10.00" fill="#000000">NodeMap</text>
<polyline fill="none" stroke="#000000" points="1246.2755,-606 1347.2755,-606 "/>
<text text-anchor="middle" x="1296.7755" y="-594" font-family="Helvetica,sans-Serif" font-size="10.00" fill="#000000"> </text>
<polyline fill="none" stroke="#000000" points="1246.2755,-587 1347.2755,-587 "/>
<text text-anchor="start" x="1254.2755" y="-575" font-family="Helvetica,sans-Serif" font-size="10.00" fill="#000000">+ NodeMap()</text>
<text text-anchor="start" x="1254.2755" y="-564" font-family="Helvetica,sans-Serif" font-size="10.00" fill="#000000">+ Resize()</text>
<text text-anchor="start" x="1254.2755" y="-553" font-family="Helvetica,sans-Serif" font-size="10.00" fill="#000000">+ ResetToIdentity()</text>
<text text-anchor="start" x="1254.2755" y="-542" font-family="Helvetica,sans-Serif" font-size="10.00" fill="#000000">+ SetNewIndex()</text>
<text text-anchor="start" x="1254.2755" y="-531" font-family="Helvetica,sans-Serif" font-size="10.00" fill="#000000">+ SetDeleted()</text>
<text text-anchor="start" x="1254.2755" y="-520" font-family="Helvetica,sans-Serif" font-size="10.00" fill="#000000">+ IsDeleted()</text>
<text text-anchor="start" x="1254.2755" y="-509" font-family="Helvetica,sans-Serif" font-size="10.00" fill="#000000">+ GetNewIndex()</text>
<text text-anchor="start" x="1254.2755" y="-498" font-family="Helvetica,sans-Serif" font-size="10.00" fill="#000000">+ IsIdentityMap()</text>
<text text-anchor="start" x="1254.2755" y="-487" font-family="Helvetica,sans-Serif" font-size="10.00" fill="#000000">+ GetSize()</text>
</a>
</g>
</g>
<!-- Node13&#45;&gt;Node5 -->
<g id="edge11" class="edge">
<title>Node13&#45;&gt;Node5</title>
<path fill="none" stroke="#404040" d="M1254.4958,-479.7898C1242.8527,-459.7665 1229.8479,-437.4016 1216.8934,-415.1231"/>
<polygon fill="none" stroke="#404040" points="1216.78,-414.9281 1210.306,-411.752 1210.7479,-404.5544 1217.2219,-407.7305 1216.78,-414.9281"/>
<text text-anchor="middle" x="1257.7755" y="-426" font-family="Helvetica,sans-Serif" font-size="10.00" fill="#000000"> &#45;mpNodeMap</text>
</g>
<!-- Node14 -->
<g id="node11" class="node">
<title>Node14</title>
<polygon fill="#ffffff" stroke="#bfbfbf" points="1206.2755,-799.5 1206.2755,-856.5 1307.2755,-856.5 1307.2755,-799.5 1206.2755,-799.5"/>
<text text-anchor="middle" x="1256.7755" y="-844.5" font-family="Helvetica,sans-Serif" font-size="10.00" fill="#000000">vector&lt; unsigned &gt;</text>
<polyline fill="none" stroke="#bfbfbf" points="1206.2755,-837.5 1307.2755,-837.5 "/>
<text text-anchor="middle" x="1256.7755" y="-825.5" font-family="Helvetica,sans-Serif" font-size="10.00" fill="#000000"> </text>
<polyline fill="none" stroke="#bfbfbf" points="1206.2755,-818.5 1307.2755,-818.5 "/>
<text text-anchor="middle" x="1256.7755" y="-806.5" font-family="Helvetica,sans-Serif" font-size="10.00" fill="#000000"> </text>
</g>
<!-- Node14&#45;&gt;Node13 -->
<g id="edge12" class="edge">
<title>Node14&#45;&gt;Node13</title>
<path fill="none" stroke="#404040" d="M1254.3122,-799.4142C1252.1978,-767.7759 1250.5143,-715.3848 1257.7755,-671 1259.6051,-659.816 1262.3161,-648.2535 1265.4717,-636.9342"/>
<polygon fill="none" stroke="#404040" points="1265.521,-636.7662 1263.374,-629.8821 1268.9028,-625.2526 1271.0498,-632.1367 1265.521,-636.7662"/>
<text text-anchor="middle" x="1274.7755" y="-690.5" font-family="Helvetica,sans-Serif" font-size="10.00" fill="#000000"> &#45;mMap</text>
</g>
<!-- Node15 -->
<g id="node12" class="node">
<title>Node15</title>
<g id="a_node12"><a xlink:href="classbool.html" target="_top" xlink:title="{bool\n||}">
<polygon fill="#ffffff" stroke="#000000" points="1346.2755,-799.5 1346.2755,-856.5 1381.2755,-856.5 1381.2755,-799.5 1346.2755,-799.5"/>
<text text-anchor="middle" x="1363.7755" y="-844.5" font-family="Helvetica,sans-Serif" font-size="10.00" fill="#000000">bool</text>
<polyline fill="none" stroke="#000000" points="1346.2755,-837.5 1381.2755,-837.5 "/>
<text text-anchor="middle" x="1363.7755" y="-825.5" font-family="Helvetica,sans-Serif" font-size="10.00" fill="#000000"> </text>
<polyline fill="none" stroke="#000000" points="1346.2755,-818.5 1381.2755,-818.5 "/>
<text text-anchor="middle" x="1363.7755" y="-806.5" font-family="Helvetica,sans-Serif" font-size="10.00" fill="#000000"> </text>
</a>
</g>
</g>
<!-- Node15&#45;&gt;Node5 -->
<g id="edge15" class="edge">
<title>Node15&#45;&gt;Node5</title>
<path fill="none" stroke="#404040" d="M1367.1557,-799.4826C1375.7759,-721.7135 1395.2912,-508.019 1356.7755,-452 1323.8548,-404.1186 1282.5339,-438.0988 1234.7755,-405 1234.6718,-404.9281 1234.5682,-404.8561 1234.4646,-404.784"/>
<polygon fill="none" stroke="#404040" points="1234.6028,-404.888 1227.4034,-404.4773 1225.0135,-397.6737 1232.2129,-398.0844 1234.6028,-404.888"/>
<text text-anchor="middle" x="1421.2755" y="-561" font-family="Helvetica,sans-Serif" font-size="10.00" fill="#000000"> #mIndexFromZero</text>
<text text-anchor="middle" x="1421.2755" y="-550" font-family="Helvetica,sans-Serif" font-size="10.00" fill="#000000">#mFilesAreBinary</text>
<text text-anchor="middle" x="1421.2755" y="-539" font-family="Helvetica,sans-Serif" font-size="10.00" fill="#000000">#mWriteMetaFile</text>
</g>
<!-- Node15&#45;&gt;Node13 -->
<g id="edge13" class="edge">
<title>Node15&#45;&gt;Node13</title>
<path fill="none" stroke="#404040" d="M1348.3863,-799.1266C1337.199,-776.7929 1322.6836,-744.7588 1314.7755,-715 1308.1975,-690.2467 1304.0204,-662.7542 1301.3689,-637.529"/>
<polygon fill="none" stroke="#404040" points="1301.3461,-637.2936 1296.7848,-631.7084 1300.1859,-625.3498 1304.7473,-630.9349 1301.3461,-637.2936"/>
<text text-anchor="middle" x="1342.2755" y="-690.5" font-family="Helvetica,sans-Serif" font-size="10.00" fill="#000000"> &#45;mIsIdentity</text>
</g>
<!-- Node16 -->
<g id="node13" class="node">
<title>Node16</title>
<polygon fill="#ffffff" stroke="#bfbfbf" points="1485.2755,-513 1485.2755,-592 1622.2755,-592 1622.2755,-513 1485.2755,-513"/>
<text text-anchor="start" x="1493.2755" y="-580" font-family="Helvetica,sans-Serif" font-size="10.00" fill="#000000">MeshWriterIterators</text>
<text text-anchor="start" x="1493.2755" y="-569" font-family="Helvetica,sans-Serif" font-size="10.00" fill="#000000">&lt; ELEMENT_DIM, SPACE</text>
<text text-anchor="middle" x="1553.7755" y="-558" font-family="Helvetica,sans-Serif" font-size="10.00" fill="#000000">_DIM &gt; *</text>
<polyline fill="none" stroke="#bfbfbf" points="1485.2755,-551 1622.2755,-551 "/>
<text text-anchor="middle" x="1553.7755" y="-539" font-family="Helvetica,sans-Serif" font-size="10.00" fill="#000000"> </text>
<polyline fill="none" stroke="#bfbfbf" points="1485.2755,-532 1622.2755,-532 "/>
<text text-anchor="middle" x="1553.7755" y="-520" font-family="Helvetica,sans-Serif" font-size="10.00" fill="#000000"> </text>
</g>
<!-- Node16&#45;&gt;Node5 -->
<g id="edge14" class="edge">
<title>Node16&#45;&gt;Node5</title>
<path fill="none" stroke="#404040" d="M1528.0655,-512.5727C1513.3167,-492.2229 1493.2771,-468.3825 1470.7755,-452 1442.5524,-431.4519 1431.6517,-431.4361 1397.7755,-423 1330.6422,-406.282 1301.3866,-437.1756 1235.6763,-404.5695"/>
<polygon fill="none" stroke="#404040" points="1235.395,-404.4195 1228.2186,-405.1266 1224.8058,-398.7742 1231.9822,-398.0671 1235.395,-404.4195"/>
<text text-anchor="middle" x="1459.7755" y="-426" font-family="Helvetica,sans-Serif" font-size="10.00" fill="#000000"> #mpIters</text>
</g>
<!-- Node17 -->
<g id="node14" class="node">
<title>Node17</title>
<polygon fill="#ffffff" stroke="#bfbfbf" points="1640.2755,-513 1640.2755,-592 1777.2755,-592 1777.2755,-513 1640.2755,-513"/>
<text text-anchor="start" x="1648.2755" y="-580" font-family="Helvetica,sans-Serif" font-size="10.00" fill="#000000">MixedDimensionMesh</text>
<text text-anchor="start" x="1648.2755" y="-569" font-family="Helvetica,sans-Serif" font-size="10.00" fill="#000000">&lt; ELEMENT_DIM, SPACE</text>
<text text-anchor="middle" x="1708.7755" y="-558" font-family="Helvetica,sans-Serif" font-size="10.00" fill="#000000">_DIM &gt; *</text>
<polyline fill="none" stroke="#bfbfbf" points="1640.2755,-551 1777.2755,-551 "/>
<text text-anchor="middle" x="1708.7755" y="-539" font-family="Helvetica,sans-Serif" font-size="10.00" fill="#000000"> </text>
<polyline fill="none" stroke="#bfbfbf" points="1640.2755,-532 1777.2755,-532 "/>
<text text-anchor="middle" x="1708.7755" y="-520" font-family="Helvetica,sans-Serif" font-size="10.00" fill="#000000"> </text>
</g>
<!-- Node17&#45;&gt;Node5 -->
<g id="edge17" class="edge">
<title>Node17&#45;&gt;Node5</title>
<path fill="none" stroke="#404040" d="M1687.8871,-512.8827C1674.6228,-491.5801 1655.4872,-466.731 1631.7755,-452 1575.2101,-416.8584 1550.777,-431.8523 1484.7755,-423 1432.8051,-416.0296 1300.6433,-429.5286 1236.2495,-404.3406"/>
<polygon fill="none" stroke="#404040" points="1235.9454,-404.2004 1228.8216,-405.3192 1225.049,-399.1736 1232.1728,-398.0549 1235.9454,-404.2004"/>
<text text-anchor="middle" x="1629.2755" y="-426" font-family="Helvetica,sans-Serif" font-size="10.00" fill="#000000"> #mpMixedMesh</text>
</g>
<!-- Node18 -->
<g id="node15" class="node">
<title>Node18</title>
<g id="a_node15"><a xlink:href="classdouble.html" target="_top" xlink:title="{double\n||}">
<polygon fill="#ffffff" stroke="#000000" points="1243.2755,-254 1243.2755,-311 1288.2755,-311 1288.2755,-254 1243.2755,-254"/>
<text text-anchor="middle" x="1265.7755" y="-299" font-family="Helvetica,sans-Serif" font-size="10.00" fill="#000000">double</text>
<polyline fill="none" stroke="#000000" points="1243.2755,-292 1288.2755,-292 "/>
<text text-anchor="middle" x="1265.7755" y="-280" font-family="Helvetica,sans-Serif" font-size="10.00" fill="#000000"> </text>
<polyline fill="none" stroke="#000000" points="1243.2755,-273 1288.2755,-273 "/>
<text text-anchor="middle" x="1265.7755" y="-261" font-family="Helvetica,sans-Serif" font-size="10.00" fill="#000000"> </text>
</a>
</g>
</g>
<!-- Node18&#45;&gt;Node4 -->
<g id="edge18" class="edge">
<title>Node18&#45;&gt;Node4</title>
<path fill="none" stroke="#404040" d="M1262.2619,-253.8311C1258.2033,-228.0487 1249.8981,-189.7647 1233.7755,-160 1226.6144,-146.7796 1217.4156,-133.8974 1207.5843,-121.9639"/>
<polygon fill="none" stroke="#404040" points="1207.3861,-121.7319 1200.4474,-119.7685 1199.5911,-112.6084 1206.5298,-114.5718 1207.3861,-121.7319"/>
<text text-anchor="middle" x="1251.2755" y="-134" font-family="Helvetica,sans-Serif" font-size="10.00" fill="#000000"> #mTimeStep</text>
</g>
</g>
</svg>
