<?xml version="1.0" encoding="UTF-8" standalone="no"?>
<!DOCTYPE svg PUBLIC "-//W3C//DTD SVG 1.1//EN"
 "http://www.w3.org/Graphics/SVG/1.1/DTD/svg11.dtd">
<!-- Generated by graphviz version 2.40.1 (20161225.0304)
 -->
<!-- Title: PetscTools Pages: 1 -->
<svg width="212pt" height="314pt"
 viewBox="0.00 0.00 211.50 314.00" xmlns="http://www.w3.org/2000/svg" xmlns:xlink="http://www.w3.org/1999/xlink">
<g id="graph0" class="graph" transform="scale(1 1) rotate(0) translate(4 310)">
<title>PetscTools</title>
<polygon fill="#ffffff" stroke="transparent" points="-4,4 -4,-310 207.5,-310 207.5,4 -4,4"/>
<!-- Node1 -->
<g id="node1" class="node">
<title>Node1</title>
<polygon fill="#bfbfbf" stroke="#000000" points="27.5,-.5 27.5,-178.5 121.5,-178.5 121.5,-.5 27.5,-.5"/>
<text text-anchor="middle" x="74.5" y="-166.5" font-family="Helvetica,sans-Serif" font-size="10.00" fill="#000000">PetscTools</text>
<polyline fill="none" stroke="#000000" points="27.5,-159.5 121.5,-159.5 "/>
<text text-anchor="middle" x="74.5" y="-147.5" font-family="Helvetica,sans-Serif" font-size="10.00" fill="#000000"> </text>
<polyline fill="none" stroke="#000000" points="27.5,-140.5 121.5,-140.5 "/>
<text text-anchor="start" x="35.5" y="-128.5" font-family="Helvetica,sans-Serif" font-size="10.00" fill="#000000">+ ResetCache()</text>
<text text-anchor="start" x="35.5" y="-117.5" font-family="Helvetica,sans-Serif" font-size="10.00" fill="#000000">+ IsInitialised()</text>
<text text-anchor="start" x="35.5" y="-106.5" font-family="Helvetica,sans-Serif" font-size="10.00" fill="#000000">+ IsSequential()</text>
<text text-anchor="start" x="35.5" y="-95.5" font-family="Helvetica,sans-Serif" font-size="10.00" fill="#000000">+ IsParallel()</text>
<text text-anchor="start" x="35.5" y="-84.5" font-family="Helvetica,sans-Serif" font-size="10.00" fill="#000000">+ IsIsolated()</text>
<text text-anchor="start" x="35.5" y="-73.5" font-family="Helvetica,sans-Serif" font-size="10.00" fill="#000000">+ GetNumProcs()</text>
<text text-anchor="start" x="35.5" y="-62.5" font-family="Helvetica,sans-Serif" font-size="10.00" fill="#000000">+ GetMyRank()</text>
<text text-anchor="start" x="35.5" y="-51.5" font-family="Helvetica,sans-Serif" font-size="10.00" fill="#000000">+ AmMaster()</text>
<text text-anchor="start" x="35.5" y="-40.5" font-family="Helvetica,sans-Serif" font-size="10.00" fill="#000000">+ AmTopMost()</text>
<text text-anchor="start" x="35.5" y="-29.5" font-family="Helvetica,sans-Serif" font-size="10.00" fill="#000000">+ Barrier()</text>
<text text-anchor="start" x="35.5" y="-18.5" font-family="Helvetica,sans-Serif" font-size="10.00" fill="#000000">and 18 more...</text>
<text text-anchor="start" x="35.5" y="-7.5" font-family="Helvetica,sans-Serif" font-size="10.00" fill="#000000">&#45; CheckCache()</text>
</g>
<!-- Node2 -->
<g id="node2" class="node">
<title>Node2</title>
<g id="a_node2"><a xlink:href="classbool.html" target="_top" xlink:title="{bool\n||}">
<polygon fill="#ffffff" stroke="#000000" points="0,-248.5 0,-305.5 35,-305.5 35,-248.5 0,-248.5"/>
<text text-anchor="middle" x="17.5" y="-293.5" font-family="Helvetica,sans-Serif" font-size="10.00" fill="#000000">bool</text>
<polyline fill="none" stroke="#000000" points="0,-286.5 35,-286.5 "/>
<text text-anchor="middle" x="17.5" y="-274.5" font-family="Helvetica,sans-Serif" font-size="10.00" fill="#000000"> </text>
<polyline fill="none" stroke="#000000" points="0,-267.5 35,-267.5 "/>
<text text-anchor="middle" x="17.5" y="-255.5" font-family="Helvetica,sans-Serif" font-size="10.00" fill="#000000"> </text>
</a>
</g>
</g>
<!-- Node2&#45;&gt;Node1 -->
<g id="edge1" class="edge">
<title>Node2&#45;&gt;Node1</title>
<path fill="none" stroke="#404040" d="M14.673,-248.4484C13.9334,-232.995 14.2993,-213.7035 18.5,-197 19.7558,-192.0064 21.2832,-186.9852 23.0187,-181.9875"/>
<polygon fill="none" stroke="#404040" points="23.1608,-181.6126 21.5484,-174.5841 27.4162,-170.3924 29.0285,-177.421 23.1608,-181.6126"/>
<text text-anchor="middle" x="64" y="-216.5" font-family="Helvetica,sans-Serif" font-size="10.00" fill="#000000"> &#45;mIsolateProcesses</text>
<text text-anchor="middle" x="64" y="-205.5" font-family="Helvetica,sans-Serif" font-size="10.00" fill="#000000">&#45;mPetscIsInitialised</text>
</g>
<!-- Node3 -->
<g id="node3" class="node">
<title>Node3</title>
<g id="a_node3"><a xlink:href="classunsigned.html" target="_top" xlink:title="{unsigned\n||}">
<polygon fill="#ffffff" stroke="#000000" points="103.5,-248.5 103.5,-305.5 159.5,-305.5 159.5,-248.5 103.5,-248.5"/>
<text text-anchor="middle" x="131.5" y="-293.5" font-family="Helvetica,sans-Serif" font-size="10.00" fill="#000000">unsigned</text>
<polyline fill="none" stroke="#000000" points="103.5,-286.5 159.5,-286.5 "/>
<text text-anchor="middle" x="131.5" y="-274.5" font-family="Helvetica,sans-Serif" font-size="10.00" fill="#000000"> </text>
<polyline fill="none" stroke="#000000" points="103.5,-267.5 159.5,-267.5 "/>
<text text-anchor="middle" x="131.5" y="-255.5" font-family="Helvetica,sans-Serif" font-size="10.00" fill="#000000"> </text>
</a>
</g>
</g>
<!-- Node3&#45;&gt;Node1 -->
<g id="edge2" class="edge">
<title>Node3&#45;&gt;Node1</title>
<path fill="none" stroke="#404040" d="M123.9797,-248.3985C119.8705,-233.1007 114.5929,-213.9698 109.5,-197 108.823,-194.7441 108.1325,-192.4635 107.4314,-190.1654"/>
<polygon fill="none" stroke="#404040" points="107.3895,-190.0295 101.7974,-185.4765 103.8493,-178.5635 109.4414,-183.1164 107.3895,-190.0295"/>
<text text-anchor="middle" x="161" y="-222" font-family="Helvetica,sans-Serif" font-size="10.00" fill="#000000"> +MASTER_RANK</text>
<text text-anchor="middle" x="161" y="-211" font-family="Helvetica,sans-Serif" font-size="10.00" fill="#000000">&#45;mNumProcessors</text>
<text text-anchor="middle" x="161" y="-200" font-family="Helvetica,sans-Serif" font-size="10.00" fill="#000000">&#45;mRank</text>
</g>
</g>
</svg>
