<?xml version="1.0" encoding="UTF-8" standalone="no"?>
<!DOCTYPE svg PUBLIC "-//W3C//DTD SVG 1.1//EN"
 "http://www.w3.org/Graphics/SVG/1.1/DTD/svg11.dtd">
<!-- Generated by graphviz version 2.40.1 (20161225.0304)
 -->
<!-- Title: NaturalNeumannSurfaceTermAssembler&lt; ELEMENT_DIM, SPACE_DIM, PROBLEM_DIM &gt; Pages: 1 -->
<svg width="1326pt" height="1164pt"
 viewBox="0.00 0.00 1326.00 1164.00" xmlns="http://www.w3.org/2000/svg" xmlns:xlink="http://www.w3.org/1999/xlink">
<g id="graph0" class="graph" transform="scale(1 1) rotate(0) translate(4 1160)">
<title>NaturalNeumannSurfaceTermAssembler&lt; ELEMENT_DIM, SPACE_DIM, PROBLEM_DIM &gt;</title>
<polygon fill="#ffffff" stroke="transparent" points="-4,4 -4,-1160 1322,-1160 1322,4 -4,4"/>
<!-- Node8 -->
<g id="node1" class="node">
<title>Node8</title>
<polygon fill="#bfbfbf" stroke="#000000" points="726.5,-.5 726.5,-112.5 892.5,-112.5 892.5,-.5 726.5,-.5"/>
<text text-anchor="start" x="734.5" y="-100.5" font-family="Helvetica,sans-Serif" font-size="10.00" fill="#000000">NaturalNeumannSurfaceTerm</text>
<text text-anchor="start" x="734.5" y="-89.5" font-family="Helvetica,sans-Serif" font-size="10.00" fill="#000000">Assembler&lt; ELEMENT_DIM,</text>
<text text-anchor="middle" x="809.5" y="-78.5" font-family="Helvetica,sans-Serif" font-size="10.00" fill="#000000"> SPACE_DIM, PROBLEM_DIM &gt;</text>
<polyline fill="none" stroke="#000000" points="726.5,-71.5 892.5,-71.5 "/>
<text text-anchor="middle" x="809.5" y="-59.5" font-family="Helvetica,sans-Serif" font-size="10.00" fill="#000000"> </text>
<polyline fill="none" stroke="#000000" points="726.5,-52.5 892.5,-52.5 "/>
<text text-anchor="start" x="734.5" y="-40.5" font-family="Helvetica,sans-Serif" font-size="10.00" fill="#000000">+ NaturalNeumannSurfaceTerm</text>
<text text-anchor="start" x="734.5" y="-29.5" font-family="Helvetica,sans-Serif" font-size="10.00" fill="#000000">Assembler()</text>
<text text-anchor="start" x="734.5" y="-18.5" font-family="Helvetica,sans-Serif" font-size="10.00" fill="#000000">+ SetScaleFactor()</text>
<text text-anchor="start" x="734.5" y="-7.5" font-family="Helvetica,sans-Serif" font-size="10.00" fill="#000000"># ComputeVectorSurfaceTerm()</text>
</g>
<!-- Node9 -->
<g id="node2" class="node">
<title>Node9</title>
<g id="a_node2"><a xlink:href="classAbstractFeSurfaceIntegralAssembler.html" target="_top" xlink:title="{AbstractFeSurfaceIntegral\lAssembler\&lt; ELEMENT_DIM,\l SPACE_DIM, PROBLEM_DIM \&gt;\n||+ AbstractFeSurfaceIntegral\lAssembler()\l+ ~AbstractFeSurfaceIntegral\lAssembler()\l+ ResetBoundaryConditionsContainer()\l# ComputeVectorSurfaceTerm()\l# AssembleOnSurfaceElement()\l# DoAssemble()\l}">
<polygon fill="#ffffff" stroke="#000000" points="801.5,-150.5 801.5,-306.5 989.5,-306.5 989.5,-150.5 801.5,-150.5"/>
<text text-anchor="start" x="809.5" y="-294.5" font-family="Helvetica,sans-Serif" font-size="10.00" fill="#000000">AbstractFeSurfaceIntegral</text>
<text text-anchor="start" x="809.5" y="-283.5" font-family="Helvetica,sans-Serif" font-size="10.00" fill="#000000">Assembler&lt; ELEMENT_DIM,</text>
<text text-anchor="middle" x="895.5" y="-272.5" font-family="Helvetica,sans-Serif" font-size="10.00" fill="#000000"> SPACE_DIM, PROBLEM_DIM &gt;</text>
<polyline fill="none" stroke="#000000" points="801.5,-265.5 989.5,-265.5 "/>
<text text-anchor="middle" x="895.5" y="-253.5" font-family="Helvetica,sans-Serif" font-size="10.00" fill="#000000"> </text>
<polyline fill="none" stroke="#000000" points="801.5,-246.5 989.5,-246.5 "/>
<text text-anchor="start" x="809.5" y="-234.5" font-family="Helvetica,sans-Serif" font-size="10.00" fill="#000000">+ AbstractFeSurfaceIntegral</text>
<text text-anchor="start" x="809.5" y="-223.5" font-family="Helvetica,sans-Serif" font-size="10.00" fill="#000000">Assembler()</text>
<text text-anchor="start" x="809.5" y="-212.5" font-family="Helvetica,sans-Serif" font-size="10.00" fill="#000000">+ ~AbstractFeSurfaceIntegral</text>
<text text-anchor="start" x="809.5" y="-201.5" font-family="Helvetica,sans-Serif" font-size="10.00" fill="#000000">Assembler()</text>
<text text-anchor="start" x="809.5" y="-190.5" font-family="Helvetica,sans-Serif" font-size="10.00" fill="#000000">+ ResetBoundaryConditionsContainer()</text>
<text text-anchor="start" x="809.5" y="-179.5" font-family="Helvetica,sans-Serif" font-size="10.00" fill="#000000"># ComputeVectorSurfaceTerm()</text>
<text text-anchor="start" x="809.5" y="-168.5" font-family="Helvetica,sans-Serif" font-size="10.00" fill="#000000"># AssembleOnSurfaceElement()</text>
<text text-anchor="start" x="809.5" y="-157.5" font-family="Helvetica,sans-Serif" font-size="10.00" fill="#000000"># DoAssemble()</text>
</a>
</g>
</g>
<!-- Node9&#45;&gt;Node8 -->
<g id="edge1" class="edge">
<title>Node9&#45;&gt;Node8</title>
<path fill="none" stroke="#191970" d="M851.9275,-141.3549C847.052,-131.604 842.1863,-121.8727 837.5813,-112.6626"/>
<polygon fill="none" stroke="#191970" points="848.7978,-142.922 856.4005,-150.301 855.0588,-139.7915 848.7978,-142.922"/>
</g>
<!-- Node10 -->
<g id="node3" class="node">
<title>Node10</title>
<g id="a_node3"><a xlink:href="classAbstractFeAssemblerCommon.html" target="_top" xlink:title="{AbstractFeAssemblerCommon\l\&lt; ELEMENT_DIM, SPACE_DIM,\l PROBLEM_DIM, true, false,\l NORMAL \&gt;\n||+ AbstractFeAssemblerCommon()\l+ SetCurrentSolution()\l+ ~AbstractFeAssemblerCommon()\l# GetCurrentSolutionOrGuess\lValue()\l# ResetInterpolatedQuantities()\l# IncrementInterpolatedQuantities()\l# IncrementInterpolatedGradient\lQuantities()\l}">
<polygon fill="#ffffff" stroke="#000000" points="463.5,-354.5 463.5,-532.5 635.5,-532.5 635.5,-354.5 463.5,-354.5"/>
<text text-anchor="start" x="471.5" y="-520.5" font-family="Helvetica,sans-Serif" font-size="10.00" fill="#000000">AbstractFeAssemblerCommon</text>
<text text-anchor="start" x="471.5" y="-509.5" font-family="Helvetica,sans-Serif" font-size="10.00" fill="#000000">&lt; ELEMENT_DIM, SPACE_DIM,</text>
<text text-anchor="start" x="471.5" y="-498.5" font-family="Helvetica,sans-Serif" font-size="10.00" fill="#000000"> PROBLEM_DIM, true, false,</text>
<text text-anchor="middle" x="549.5" y="-487.5" font-family="Helvetica,sans-Serif" font-size="10.00" fill="#000000"> NORMAL &gt;</text>
<polyline fill="none" stroke="#000000" points="463.5,-480.5 635.5,-480.5 "/>
<text text-anchor="middle" x="549.5" y="-468.5" font-family="Helvetica,sans-Serif" font-size="10.00" fill="#000000"> </text>
<polyline fill="none" stroke="#000000" points="463.5,-461.5 635.5,-461.5 "/>
<text text-anchor="start" x="471.5" y="-449.5" font-family="Helvetica,sans-Serif" font-size="10.00" fill="#000000">+ AbstractFeAssemblerCommon()</text>
<text text-anchor="start" x="471.5" y="-438.5" font-family="Helvetica,sans-Serif" font-size="10.00" fill="#000000">+ SetCurrentSolution()</text>
<text text-anchor="start" x="471.5" y="-427.5" font-family="Helvetica,sans-Serif" font-size="10.00" fill="#000000">+ ~AbstractFeAssemblerCommon()</text>
<text text-anchor="start" x="471.5" y="-416.5" font-family="Helvetica,sans-Serif" font-size="10.00" fill="#000000"># GetCurrentSolutionOrGuess</text>
<text text-anchor="start" x="471.5" y="-405.5" font-family="Helvetica,sans-Serif" font-size="10.00" fill="#000000">Value()</text>
<text text-anchor="start" x="471.5" y="-394.5" font-family="Helvetica,sans-Serif" font-size="10.00" fill="#000000"># ResetInterpolatedQuantities()</text>
<text text-anchor="start" x="471.5" y="-383.5" font-family="Helvetica,sans-Serif" font-size="10.00" fill="#000000"># IncrementInterpolatedQuantities()</text>
<text text-anchor="start" x="471.5" y="-372.5" font-family="Helvetica,sans-Serif" font-size="10.00" fill="#000000"># IncrementInterpolatedGradient</text>
<text text-anchor="start" x="471.5" y="-361.5" font-family="Helvetica,sans-Serif" font-size="10.00" fill="#000000">Quantities()</text>
</a>
</g>
</g>
<!-- Node10&#45;&gt;Node9 -->
<g id="edge2" class="edge">
<title>Node10&#45;&gt;Node9</title>
<path fill="none" stroke="#191970" d="M644.5941,-384.4097C693.4158,-354.0725 752.7004,-317.2338 801.3816,-286.984"/>
<polygon fill="none" stroke="#191970" points="642.5644,-381.5503 635.9179,-389.801 646.2589,-387.4959 642.5644,-381.5503"/>
</g>
<!-- Node11 -->
<g id="node4" class="node">
<title>Node11</title>
<g id="a_node4"><a xlink:href="classAbstractFeAssemblerInterface.html" target="_top" xlink:title="{AbstractFeAssemblerInterface\l\&lt; CAN_ASSEMBLE_VECTOR, CAN\l_ASSEMBLE_MATRIX \&gt;\n||+ AbstractFeAssemblerInterface()\l+ SetMatrixToAssemble()\l+ SetVectorToAssemble()\l+ Assemble()\l+ AssembleMatrix()\l+ AssembleVector()\l+ ~AbstractFeAssemblerInterface()\l# DoAssemble()\l}">
<polygon fill="#ffffff" stroke="#000000" points="261.5,-850.5 261.5,-1006.5 443.5,-1006.5 443.5,-850.5 261.5,-850.5"/>
<text text-anchor="start" x="269.5" y="-994.5" font-family="Helvetica,sans-Serif" font-size="10.00" fill="#000000">AbstractFeAssemblerInterface</text>
<text text-anchor="start" x="269.5" y="-983.5" font-family="Helvetica,sans-Serif" font-size="10.00" fill="#000000">&lt; CAN_ASSEMBLE_VECTOR, CAN</text>
<text text-anchor="middle" x="352.5" y="-972.5" font-family="Helvetica,sans-Serif" font-size="10.00" fill="#000000">_ASSEMBLE_MATRIX &gt;</text>
<polyline fill="none" stroke="#000000" points="261.5,-965.5 443.5,-965.5 "/>
<text text-anchor="middle" x="352.5" y="-953.5" font-family="Helvetica,sans-Serif" font-size="10.00" fill="#000000"> </text>
<polyline fill="none" stroke="#000000" points="261.5,-946.5 443.5,-946.5 "/>
<text text-anchor="start" x="269.5" y="-934.5" font-family="Helvetica,sans-Serif" font-size="10.00" fill="#000000">+ AbstractFeAssemblerInterface()</text>
<text text-anchor="start" x="269.5" y="-923.5" font-family="Helvetica,sans-Serif" font-size="10.00" fill="#000000">+ SetMatrixToAssemble()</text>
<text text-anchor="start" x="269.5" y="-912.5" font-family="Helvetica,sans-Serif" font-size="10.00" fill="#000000">+ SetVectorToAssemble()</text>
<text text-anchor="start" x="269.5" y="-901.5" font-family="Helvetica,sans-Serif" font-size="10.00" fill="#000000">+ Assemble()</text>
<text text-anchor="start" x="269.5" y="-890.5" font-family="Helvetica,sans-Serif" font-size="10.00" fill="#000000">+ AssembleMatrix()</text>
<text text-anchor="start" x="269.5" y="-879.5" font-family="Helvetica,sans-Serif" font-size="10.00" fill="#000000">+ AssembleVector()</text>
<text text-anchor="start" x="269.5" y="-868.5" font-family="Helvetica,sans-Serif" font-size="10.00" fill="#000000">+ ~AbstractFeAssemblerInterface()</text>
<text text-anchor="start" x="269.5" y="-857.5" font-family="Helvetica,sans-Serif" font-size="10.00" fill="#000000"># DoAssemble()</text>
</a>
</g>
</g>
<!-- Node11&#45;&gt;Node10 -->
<g id="edge3" class="edge">
<title>Node11&#45;&gt;Node10</title>
<path fill="none" stroke="#191970" d="M339.9527,-840.1273C334.295,-771.7063 335.5057,-676.3799 371.5,-602 391.6875,-560.2839 428.2812,-524.7315 463.0617,-497.9343"/>
<polygon fill="none" stroke="#191970" points="336.4984,-840.7964 340.8745,-850.4453 343.4707,-840.1734 336.4984,-840.7964"/>
</g>
<!-- Node21 -->
<g id="node14" class="node">
<title>Node21</title>
<g id="a_node14"><a xlink:href="classAbstractFeAssemblerCommon.html" target="_top" xlink:title="{AbstractFeAssemblerCommon\l\&lt; ELEMENT_DIM, SPACE_DIM,\l PROBLEM_DIM, CAN_ASSEMBLE\l_VECTOR, CAN_ASSEMBLE_MATRIX,\l INTERPOLATION_LEVEL \&gt;\n||+ AbstractFeAssemblerCommon()\l+ SetCurrentSolution()\l+ ~AbstractFeAssemblerCommon()\l# GetCurrentSolutionOrGuess\lValue()\l# ResetInterpolatedQuantities()\l# IncrementInterpolatedQuantities()\l# IncrementInterpolatedGradient\lQuantities()\l}">
<polygon fill="#ffffff" stroke="#000000" points="381,-602.5 381,-791.5 578,-791.5 578,-602.5 381,-602.5"/>
<text text-anchor="start" x="389" y="-779.5" font-family="Helvetica,sans-Serif" font-size="10.00" fill="#000000">AbstractFeAssemblerCommon</text>
<text text-anchor="start" x="389" y="-768.5" font-family="Helvetica,sans-Serif" font-size="10.00" fill="#000000">&lt; ELEMENT_DIM, SPACE_DIM,</text>
<text text-anchor="start" x="389" y="-757.5" font-family="Helvetica,sans-Serif" font-size="10.00" fill="#000000"> PROBLEM_DIM, CAN_ASSEMBLE</text>
<text text-anchor="start" x="389" y="-746.5" font-family="Helvetica,sans-Serif" font-size="10.00" fill="#000000">_VECTOR, CAN_ASSEMBLE_MATRIX,</text>
<text text-anchor="middle" x="479.5" y="-735.5" font-family="Helvetica,sans-Serif" font-size="10.00" fill="#000000"> INTERPOLATION_LEVEL &gt;</text>
<polyline fill="none" stroke="#000000" points="381,-728.5 578,-728.5 "/>
<text text-anchor="middle" x="479.5" y="-716.5" font-family="Helvetica,sans-Serif" font-size="10.00" fill="#000000"> </text>
<polyline fill="none" stroke="#000000" points="381,-709.5 578,-709.5 "/>
<text text-anchor="start" x="389" y="-697.5" font-family="Helvetica,sans-Serif" font-size="10.00" fill="#000000">+ AbstractFeAssemblerCommon()</text>
<text text-anchor="start" x="389" y="-686.5" font-family="Helvetica,sans-Serif" font-size="10.00" fill="#000000">+ SetCurrentSolution()</text>
<text text-anchor="start" x="389" y="-675.5" font-family="Helvetica,sans-Serif" font-size="10.00" fill="#000000">+ ~AbstractFeAssemblerCommon()</text>
<text text-anchor="start" x="389" y="-664.5" font-family="Helvetica,sans-Serif" font-size="10.00" fill="#000000"># GetCurrentSolutionOrGuess</text>
<text text-anchor="start" x="389" y="-653.5" font-family="Helvetica,sans-Serif" font-size="10.00" fill="#000000">Value()</text>
<text text-anchor="start" x="389" y="-642.5" font-family="Helvetica,sans-Serif" font-size="10.00" fill="#000000"># ResetInterpolatedQuantities()</text>
<text text-anchor="start" x="389" y="-631.5" font-family="Helvetica,sans-Serif" font-size="10.00" fill="#000000"># IncrementInterpolatedQuantities()</text>
<text text-anchor="start" x="389" y="-620.5" font-family="Helvetica,sans-Serif" font-size="10.00" fill="#000000"># IncrementInterpolatedGradient</text>
<text text-anchor="start" x="389" y="-609.5" font-family="Helvetica,sans-Serif" font-size="10.00" fill="#000000">Quantities()</text>
</a>
</g>
</g>
<!-- Node11&#45;&gt;Node21 -->
<g id="edge15" class="edge">
<title>Node11&#45;&gt;Node21</title>
<path fill="none" stroke="#191970" d="M400.2357,-841.4858C409.1763,-825.1885 418.562,-808.0799 427.621,-791.5669"/>
<polygon fill="none" stroke="#191970" points="397.0606,-839.9966 395.3194,-850.4474 403.1977,-843.3635 397.0606,-839.9966"/>
</g>
<!-- Node12 -->
<g id="node5" class="node">
<title>Node12</title>
<polygon fill="#ffffff" stroke="#bfbfbf" points="0,-1093 0,-1150 71,-1150 71,-1093 0,-1093"/>
<text text-anchor="middle" x="35.5" y="-1138" font-family="Helvetica,sans-Serif" font-size="10.00" fill="#000000">noncopyable</text>
<polyline fill="none" stroke="#bfbfbf" points="0,-1131 71,-1131 "/>
<text text-anchor="middle" x="35.5" y="-1119" font-family="Helvetica,sans-Serif" font-size="10.00" fill="#000000"> </text>
<polyline fill="none" stroke="#bfbfbf" points="0,-1112 71,-1112 "/>
<text text-anchor="middle" x="35.5" y="-1100" font-family="Helvetica,sans-Serif" font-size="10.00" fill="#000000"> </text>
</g>
<!-- Node12&#45;&gt;Node11 -->
<g id="edge4" class="edge">
<title>Node12&#45;&gt;Node11</title>
<path fill="none" stroke="#8b1a1a" d="M54.0592,-1083.8556C65.4277,-1064.0645 81.6173,-1040.7194 101.5,-1025 148.1026,-988.1558 210.3924,-964.0968 261.2597,-949.2161"/>
<polygon fill="none" stroke="#8b1a1a" points="50.9666,-1082.2155 49.1792,-1092.6585 57.0888,-1085.6095 50.9666,-1082.2155"/>
</g>
<!-- Node13 -->
<g id="node6" class="node">
<title>Node13</title>
<g id="a_node6"><a xlink:href="classbool.html" target="_top" xlink:title="{bool\n||}">
<polygon fill="#ffffff" stroke="#000000" points="89,-1093 89,-1150 124,-1150 124,-1093 89,-1093"/>
<text text-anchor="middle" x="106.5" y="-1138" font-family="Helvetica,sans-Serif" font-size="10.00" fill="#000000">bool</text>
<polyline fill="none" stroke="#000000" points="89,-1131 124,-1131 "/>
<text text-anchor="middle" x="106.5" y="-1119" font-family="Helvetica,sans-Serif" font-size="10.00" fill="#000000"> </text>
<polyline fill="none" stroke="#000000" points="89,-1112 124,-1112 "/>
<text text-anchor="middle" x="106.5" y="-1100" font-family="Helvetica,sans-Serif" font-size="10.00" fill="#000000"> </text>
</a>
</g>
</g>
<!-- Node13&#45;&gt;Node11 -->
<g id="edge5" class="edge">
<title>Node13&#45;&gt;Node11</title>
<path fill="none" stroke="#404040" d="M103.9468,-1092.8477C103.6181,-1071.9584 106.5461,-1044.0842 121.5,-1025 152.8234,-985.025 203.6777,-961.4379 249.7079,-947.6067"/>
<polygon fill="none" stroke="#404040" points="249.7536,-947.5937 254.4236,-942.099 261.2917,-944.2964 256.6218,-949.7911 249.7536,-947.5937"/>
<text text-anchor="middle" x="188.5" y="-1061" font-family="Helvetica,sans-Serif" font-size="10.00" fill="#000000"> #mAssembleVector</text>
<text text-anchor="middle" x="188.5" y="-1050" font-family="Helvetica,sans-Serif" font-size="10.00" fill="#000000">#mZeroVectorBeforeAssembly</text>
<text text-anchor="middle" x="188.5" y="-1039" font-family="Helvetica,sans-Serif" font-size="10.00" fill="#000000">#mAssembleMatrix</text>
<text text-anchor="middle" x="188.5" y="-1028" font-family="Helvetica,sans-Serif" font-size="10.00" fill="#000000">#mZeroMatrixBeforeAssembly</text>
</g>
<!-- Node14 -->
<g id="node7" class="node">
<title>Node14</title>
<g id="a_node7"><a xlink:href="classMat.html" target="_top" xlink:title="{Mat\n||}">
<polygon fill="#ffffff" stroke="#000000" points="247,-1093 247,-1150 280,-1150 280,-1093 247,-1093"/>
<text text-anchor="middle" x="263.5" y="-1138" font-family="Helvetica,sans-Serif" font-size="10.00" fill="#000000">Mat</text>
<polyline fill="none" stroke="#000000" points="247,-1131 280,-1131 "/>
<text text-anchor="middle" x="263.5" y="-1119" font-family="Helvetica,sans-Serif" font-size="10.00" fill="#000000"> </text>
<polyline fill="none" stroke="#000000" points="247,-1112 280,-1112 "/>
<text text-anchor="middle" x="263.5" y="-1100" font-family="Helvetica,sans-Serif" font-size="10.00" fill="#000000"> </text>
</a>
</g>
</g>
<!-- Node14&#45;&gt;Node11 -->
<g id="edge6" class="edge">
<title>Node14&#45;&gt;Node11</title>
<path fill="none" stroke="#404040" d="M259.3627,-1092.5872C257.7286,-1072.8484 257.9309,-1046.4852 266.5,-1025 267.5132,-1022.4596 268.6249,-1019.9424 269.8233,-1017.4519"/>
<polygon fill="none" stroke="#404040" points="269.914,-1017.283 269.2329,-1010.1041 275.5975,-1006.7142 276.2787,-1013.8931 269.914,-1017.283"/>
<text text-anchor="middle" x="316" y="-1044.5" font-family="Helvetica,sans-Serif" font-size="10.00" fill="#000000"> #mMatrixToAssemble</text>
</g>
<!-- Node15 -->
<g id="node8" class="node">
<title>Node15</title>
<g id="a_node8"><a xlink:href="classPetscInt.html" target="_top" xlink:title="{PetscInt\n||}">
<polygon fill="#ffffff" stroke="#000000" points="359,-1093 359,-1150 412,-1150 412,-1093 359,-1093"/>
<text text-anchor="middle" x="385.5" y="-1138" font-family="Helvetica,sans-Serif" font-size="10.00" fill="#000000">PetscInt</text>
<polyline fill="none" stroke="#000000" points="359,-1131 412,-1131 "/>
<text text-anchor="middle" x="385.5" y="-1119" font-family="Helvetica,sans-Serif" font-size="10.00" fill="#000000"> </text>
<polyline fill="none" stroke="#000000" points="359,-1112 412,-1112 "/>
<text text-anchor="middle" x="385.5" y="-1100" font-family="Helvetica,sans-Serif" font-size="10.00" fill="#000000"> </text>
</a>
</g>
</g>
<!-- Node15&#45;&gt;Node11 -->
<g id="edge7" class="edge">
<title>Node15&#45;&gt;Node11</title>
<path fill="none" stroke="#404040" d="M380.5596,-1092.6059C377.1916,-1072.9087 372.5324,-1045.6594 367.9775,-1019.0201"/>
<polygon fill="none" stroke="#404040" points="367.9196,-1018.681 362.9656,-1013.441 365.8971,-1006.8527 370.8511,-1012.0927 367.9196,-1018.681"/>
<text text-anchor="middle" x="427.5" y="-1050" font-family="Helvetica,sans-Serif" font-size="10.00" fill="#000000"> #mOwnershipRangeHi</text>
<text text-anchor="middle" x="427.5" y="-1039" font-family="Helvetica,sans-Serif" font-size="10.00" fill="#000000">#mOwnershipRangeLo</text>
</g>
<!-- Node16 -->
<g id="node9" class="node">
<title>Node16</title>
<g id="a_node9"><a xlink:href="classVec.html" target="_top" xlink:title="{Vec\n||}">
<polygon fill="#ffffff" stroke="#000000" points="554.5,-1093 554.5,-1150 588.5,-1150 588.5,-1093 554.5,-1093"/>
<text text-anchor="middle" x="571.5" y="-1138" font-family="Helvetica,sans-Serif" font-size="10.00" fill="#000000">Vec</text>
<polyline fill="none" stroke="#000000" points="554.5,-1131 588.5,-1131 "/>
<text text-anchor="middle" x="571.5" y="-1119" font-family="Helvetica,sans-Serif" font-size="10.00" fill="#000000"> </text>
<polyline fill="none" stroke="#000000" points="554.5,-1112 588.5,-1112 "/>
<text text-anchor="middle" x="571.5" y="-1100" font-family="Helvetica,sans-Serif" font-size="10.00" fill="#000000"> </text>
</a>
</g>
</g>
<!-- Node16&#45;&gt;Node11 -->
<g id="edge8" class="edge">
<title>Node16&#45;&gt;Node11</title>
<path fill="none" stroke="#404040" d="M554.2571,-1110.0364C540.4551,-1100.2701 521.2061,-1085.2644 507.5,-1069 493.0063,-1051.8009 497.406,-1041.843 482.5,-1025 473.6393,-1014.9879 463.5832,-1005.3648 453.0818,-996.3319"/>
<polygon fill="none" stroke="#404040" points="452.971,-996.2394 445.8015,-995.4663 443.7576,-988.5508 450.9272,-989.324 452.971,-996.2394"/>
<text text-anchor="middle" x="557.5" y="-1044.5" font-family="Helvetica,sans-Serif" font-size="10.00" fill="#000000"> #mVectorToAssemble</text>
</g>
<!-- Node17 -->
<g id="node10" class="node">
<title>Node17</title>
<g id="a_node10"><a xlink:href="classReplicatableVector.html" target="_top" xlink:title="{ReplicatableVector\n||+ ReplicatableVector()\l+ ReplicatableVector()\l+ ReplicatableVector()\l+ ~ReplicatableVector()\l+ GetSize()\l+ Resize()\l+ operator[]()\l+ Replicate()\l+ ReplicatePetscVector()\l&#45; RemovePetscContext()\l}">
<polygon fill="#ffffff" stroke="#000000" points="594,-850.5 594,-1006.5 721,-1006.5 721,-850.5 594,-850.5"/>
<text text-anchor="middle" x="657.5" y="-994.5" font-family="Helvetica,sans-Serif" font-size="10.00" fill="#000000">ReplicatableVector</text>
<polyline fill="none" stroke="#000000" points="594,-987.5 721,-987.5 "/>
<text text-anchor="middle" x="657.5" y="-975.5" font-family="Helvetica,sans-Serif" font-size="10.00" fill="#000000"> </text>
<polyline fill="none" stroke="#000000" points="594,-968.5 721,-968.5 "/>
<text text-anchor="start" x="602" y="-956.5" font-family="Helvetica,sans-Serif" font-size="10.00" fill="#000000">+ ReplicatableVector()</text>
<text text-anchor="start" x="602" y="-945.5" font-family="Helvetica,sans-Serif" font-size="10.00" fill="#000000">+ ReplicatableVector()</text>
<text text-anchor="start" x="602" y="-934.5" font-family="Helvetica,sans-Serif" font-size="10.00" fill="#000000">+ ReplicatableVector()</text>
<text text-anchor="start" x="602" y="-923.5" font-family="Helvetica,sans-Serif" font-size="10.00" fill="#000000">+ ~ReplicatableVector()</text>
<text text-anchor="start" x="602" y="-912.5" font-family="Helvetica,sans-Serif" font-size="10.00" fill="#000000">+ GetSize()</text>
<text text-anchor="start" x="602" y="-901.5" font-family="Helvetica,sans-Serif" font-size="10.00" fill="#000000">+ Resize()</text>
<text text-anchor="start" x="602" y="-890.5" font-family="Helvetica,sans-Serif" font-size="10.00" fill="#000000">+ operator[]()</text>
<text text-anchor="start" x="602" y="-879.5" font-family="Helvetica,sans-Serif" font-size="10.00" fill="#000000">+ Replicate()</text>
<text text-anchor="start" x="602" y="-868.5" font-family="Helvetica,sans-Serif" font-size="10.00" fill="#000000">+ ReplicatePetscVector()</text>
<text text-anchor="start" x="602" y="-857.5" font-family="Helvetica,sans-Serif" font-size="10.00" fill="#000000">&#45; RemovePetscContext()</text>
</a>
</g>
</g>
<!-- Node16&#45;&gt;Node17 -->
<g id="edge13" class="edge">
<title>Node16&#45;&gt;Node17</title>
<path fill="none" stroke="#404040" d="M588.7576,-1102.1269C596.5255,-1092.6495 605.318,-1080.7669 611.5,-1069 616.7111,-1059.0811 623.7182,-1039.5857 630.6901,-1018.1995"/>
<polygon fill="none" stroke="#404040" points="630.7682,-1017.9562 628.793,-1011.0209 634.4351,-1006.5302 636.4103,-1013.4655 630.7682,-1017.9562"/>
<text text-anchor="middle" x="659" y="-1044.5" font-family="Helvetica,sans-Serif" font-size="10.00" fill="#000000"> &#45;mReplicated</text>
</g>
<!-- Node17&#45;&gt;Node10 -->
<g id="edge9" class="edge">
<title>Node17&#45;&gt;Node10</title>
<path fill="none" stroke="#404040" d="M644.2835,-850.2712C641.2344,-831.2284 638.12,-810.9023 635.5,-792 620.6952,-685.1896 639.9036,-653.8478 607.5,-551 606.7831,-548.7246 606.0172,-546.4415 605.208,-544.1559"/>
<polygon fill="none" stroke="#404040" points="605.1232,-543.9348 599.2404,-539.7644 600.8273,-532.73 606.7102,-536.9004 605.1232,-543.9348"/>
<text text-anchor="start" x="635.5" y="-700" font-family="Helvetica,sans-Serif" font-size="10.00" fill="#000000"> #mCurrentSolutionOrGuess</text>
<text text-anchor="middle" x="697.5" y="-689" font-family="Helvetica,sans-Serif" font-size="10.00" fill="#000000">Replicated</text>
</g>
<!-- Node17&#45;&gt;Node21 -->
<g id="edge16" class="edge">
<title>Node17&#45;&gt;Node21</title>
<path fill="none" stroke="#404040" d="M593.8864,-910.8974C554.8176,-896.4859 507.7562,-871.8282 483.5,-832 478.1965,-823.2917 474.5793,-813.6468 472.2285,-803.6345"/>
<polygon fill="none" stroke="#404040" points="472.2121,-803.5456 467.1858,-798.3749 470.0256,-791.7464 475.0519,-796.9171 472.2121,-803.5456"/>
<text text-anchor="start" x="483.5" y="-824" font-family="Helvetica,sans-Serif" font-size="10.00" fill="#000000"> #mCurrentSolutionOrGuess</text>
<text text-anchor="middle" x="545.5" y="-813" font-family="Helvetica,sans-Serif" font-size="10.00" fill="#000000">Replicated</text>
</g>
<!-- Node18 -->
<g id="node11" class="node">
<title>Node18</title>
<g id="a_node11"><a xlink:href="classdouble.html" target="_top" xlink:title="{double\n||}">
<polygon fill="#ffffff" stroke="#000000" points="703,-1093 703,-1150 748,-1150 748,-1093 703,-1093"/>
<text text-anchor="middle" x="725.5" y="-1138" font-family="Helvetica,sans-Serif" font-size="10.00" fill="#000000">double</text>
<polyline fill="none" stroke="#000000" points="703,-1131 748,-1131 "/>
<text text-anchor="middle" x="725.5" y="-1119" font-family="Helvetica,sans-Serif" font-size="10.00" fill="#000000"> </text>
<polyline fill="none" stroke="#000000" points="703,-1112 748,-1112 "/>
<text text-anchor="middle" x="725.5" y="-1100" font-family="Helvetica,sans-Serif" font-size="10.00" fill="#000000"> </text>
</a>
</g>
</g>
<!-- Node18&#45;&gt;Node8 -->
<g id="edge27" class="edge">
<title>Node18&#45;&gt;Node8</title>
<path fill="none" stroke="#404040" d="M743.7626,-1092.9433C747.8785,-1085.4058 751.8178,-1077.1062 754.5,-1069 774.2944,-1009.1769 773.5,-991.5128 773.5,-928.5 773.5,-928.5 773.5,-928.5 773.5,-228.5 773.5,-193.738 780.6318,-155.8462 788.5468,-124.4973"/>
<polygon fill="none" stroke="#404040" points="788.5641,-124.4313 786.2154,-117.6134 791.6055,-112.8231 793.9542,-119.641 788.5641,-124.4313"/>
<text text-anchor="middle" x="808.5" y="-565" font-family="Helvetica,sans-Serif" font-size="10.00" fill="#000000"> #mScaleFactor</text>
</g>
<!-- Node18&#45;&gt;Node17 -->
<g id="edge10" class="edge">
<title>Node18&#45;&gt;Node17</title>
<path fill="none" stroke="#404040" d="M717.124,-1092.6045C711.3901,-1073.3363 703.4182,-1047.5082 695.5,-1025 694.6714,-1022.6446 693.8211,-1020.2613 692.9538,-1017.8599"/>
<polygon fill="none" stroke="#404040" points="692.9285,-1017.791 687.1044,-1013.5389 688.7893,-1006.5274 694.6134,-1010.7795 692.9285,-1017.791"/>
<text text-anchor="middle" x="730" y="-1044.5" font-family="Helvetica,sans-Serif" font-size="10.00" fill="#000000"> &#45;mpData</text>
</g>
<!-- Node19 -->
<g id="node12" class="node">
<title>Node19</title>
<polygon fill="#ffffff" stroke="#bfbfbf" points="774,-1093 774,-1150 839,-1150 839,-1093 774,-1093"/>
<text text-anchor="middle" x="806.5" y="-1138" font-family="Helvetica,sans-Serif" font-size="10.00" fill="#000000">VecScatter</text>
<polyline fill="none" stroke="#bfbfbf" points="774,-1131 839,-1131 "/>
<text text-anchor="middle" x="806.5" y="-1119" font-family="Helvetica,sans-Serif" font-size="10.00" fill="#000000"> </text>
<polyline fill="none" stroke="#bfbfbf" points="774,-1112 839,-1112 "/>
<text text-anchor="middle" x="806.5" y="-1100" font-family="Helvetica,sans-Serif" font-size="10.00" fill="#000000"> </text>
</g>
<!-- Node19&#45;&gt;Node17 -->
<g id="edge11" class="edge">
<title>Node19&#45;&gt;Node17</title>
<path fill="none" stroke="#404040" d="M793.7575,-1092.7392C784.2921,-1072.828 770.3214,-1046.2003 754.5,-1025 747.0173,-1014.9733 738.5078,-1004.9878 729.7108,-995.4509"/>
<polygon fill="none" stroke="#404040" points="729.4546,-995.1798 722.4263,-993.5663 721.2125,-986.458 728.2408,-988.0715 729.4546,-995.1798"/>
<text text-anchor="middle" x="800" y="-1044.5" font-family="Helvetica,sans-Serif" font-size="10.00" fill="#000000"> &#45;mToAll</text>
</g>
<!-- Node20 -->
<g id="node13" class="node">
<title>Node20</title>
<g id="a_node13"><a xlink:href="classunsigned.html" target="_top" xlink:title="{unsigned\n||}">
<polygon fill="#ffffff" stroke="#000000" points="887.5,-1093 887.5,-1150 943.5,-1150 943.5,-1093 887.5,-1093"/>
<text text-anchor="middle" x="915.5" y="-1138" font-family="Helvetica,sans-Serif" font-size="10.00" fill="#000000">unsigned</text>
<polyline fill="none" stroke="#000000" points="887.5,-1131 943.5,-1131 "/>
<text text-anchor="middle" x="915.5" y="-1119" font-family="Helvetica,sans-Serif" font-size="10.00" fill="#000000"> </text>
<polyline fill="none" stroke="#000000" points="887.5,-1112 943.5,-1112 "/>
<text text-anchor="middle" x="915.5" y="-1100" font-family="Helvetica,sans-Serif" font-size="10.00" fill="#000000"> </text>
</a>
</g>
</g>
<!-- Node20&#45;&gt;Node17 -->
<g id="edge12" class="edge">
<title>Node20&#45;&gt;Node17</title>
<path fill="none" stroke="#404040" d="M889.2439,-1092.5504C866.9764,-1068.3246 836.4898,-1036.0048 822.5,-1025 794.6242,-1003.0721 761.2658,-982.6342 731.861,-966.2639"/>
<polygon fill="none" stroke="#404040" points="731.7419,-966.1986 724.5573,-966.8161 721.224,-960.4216 728.4086,-959.8041 731.7419,-966.1986"/>
<text text-anchor="middle" x="882.5" y="-1044.5" font-family="Helvetica,sans-Serif" font-size="10.00" fill="#000000"> &#45;mSize</text>
</g>
<!-- Node22 -->
<g id="node15" class="node">
<title>Node22</title>
<g id="a_node15"><a xlink:href="classGaussianQuadratureRule.html" target="_top" xlink:title="{GaussianQuadratureRule\l\&lt; ELEMENT_DIM&#45;1 \&gt;\n||+ GaussianQuadratureRule()\l+ GaussianQuadratureRule()\l+ GaussianQuadratureRule()\l+ GaussianQuadratureRule()\l+ rGetQuadPoint()\l+ GetWeight()\l+ GetNumQuadPoints()\l}">
<polygon fill="#ffffff" stroke="#000000" points="1127,-630 1127,-764 1268,-764 1268,-630 1127,-630"/>
<text text-anchor="start" x="1135" y="-752" font-family="Helvetica,sans-Serif" font-size="10.00" fill="#000000">GaussianQuadratureRule</text>
<text text-anchor="middle" x="1197.5" y="-741" font-family="Helvetica,sans-Serif" font-size="10.00" fill="#000000">&lt; ELEMENT_DIM&#45;1 &gt;</text>
<polyline fill="none" stroke="#000000" points="1127,-734 1268,-734 "/>
<text text-anchor="middle" x="1197.5" y="-722" font-family="Helvetica,sans-Serif" font-size="10.00" fill="#000000"> </text>
<polyline fill="none" stroke="#000000" points="1127,-715 1268,-715 "/>
<text text-anchor="start" x="1135" y="-703" font-family="Helvetica,sans-Serif" font-size="10.00" fill="#000000">+ GaussianQuadratureRule()</text>
<text text-anchor="start" x="1135" y="-692" font-family="Helvetica,sans-Serif" font-size="10.00" fill="#000000">+ GaussianQuadratureRule()</text>
<text text-anchor="start" x="1135" y="-681" font-family="Helvetica,sans-Serif" font-size="10.00" fill="#000000">+ GaussianQuadratureRule()</text>
<text text-anchor="start" x="1135" y="-670" font-family="Helvetica,sans-Serif" font-size="10.00" fill="#000000">+ GaussianQuadratureRule()</text>
<text text-anchor="start" x="1135" y="-659" font-family="Helvetica,sans-Serif" font-size="10.00" fill="#000000">+ rGetQuadPoint()</text>
<text text-anchor="start" x="1135" y="-648" font-family="Helvetica,sans-Serif" font-size="10.00" fill="#000000">+ GetWeight()</text>
<text text-anchor="start" x="1135" y="-637" font-family="Helvetica,sans-Serif" font-size="10.00" fill="#000000">+ GetNumQuadPoints()</text>
</a>
</g>
</g>
<!-- Node20&#45;&gt;Node22 -->
<g id="edge20" class="edge">
<title>Node20&#45;&gt;Node22</title>
<path fill="none" stroke="#404040" d="M912.9762,-1092.6141C908.1603,-1031.1978 900.1719,-889.9887 924.5,-850 966.3036,-781.2866 1051.0489,-740.8805 1115.0937,-719.0206"/>
<polygon fill="none" stroke="#404040" points="1115.4027,-718.9186 1119.8441,-713.2375 1126.7963,-715.1521 1122.355,-720.8332 1115.4027,-718.9186"/>
<text text-anchor="middle" x="968" y="-926" font-family="Helvetica,sans-Serif" font-size="10.00" fill="#000000"> &#45;mNumQuadPoints</text>
</g>
<!-- Node25 -->
<g id="node18" class="node">
<title>Node25</title>
<g id="a_node18"><a xlink:href="classGaussianQuadratureRule.html" target="_top" xlink:title="{GaussianQuadratureRule\l\&lt; ELEMENT_DIM \&gt;\n||+ GaussianQuadratureRule()\l+ rGetQuadPoint()\l+ GetWeight()\l+ GetNumQuadPoints()\l+ GaussianQuadratureRule()\l+ GaussianQuadratureRule()\l+ GaussianQuadratureRule()\l}">
<polygon fill="#ffffff" stroke="#000000" points="1021,-861.5 1021,-995.5 1162,-995.5 1162,-861.5 1021,-861.5"/>
<text text-anchor="start" x="1029" y="-983.5" font-family="Helvetica,sans-Serif" font-size="10.00" fill="#000000">GaussianQuadratureRule</text>
<text text-anchor="middle" x="1091.5" y="-972.5" font-family="Helvetica,sans-Serif" font-size="10.00" fill="#000000">&lt; ELEMENT_DIM &gt;</text>
<polyline fill="none" stroke="#000000" points="1021,-965.5 1162,-965.5 "/>
<text text-anchor="middle" x="1091.5" y="-953.5" font-family="Helvetica,sans-Serif" font-size="10.00" fill="#000000"> </text>
<polyline fill="none" stroke="#000000" points="1021,-946.5 1162,-946.5 "/>
<text text-anchor="start" x="1029" y="-934.5" font-family="Helvetica,sans-Serif" font-size="10.00" fill="#000000">+ GaussianQuadratureRule()</text>
<text text-anchor="start" x="1029" y="-923.5" font-family="Helvetica,sans-Serif" font-size="10.00" fill="#000000">+ rGetQuadPoint()</text>
<text text-anchor="start" x="1029" y="-912.5" font-family="Helvetica,sans-Serif" font-size="10.00" fill="#000000">+ GetWeight()</text>
<text text-anchor="start" x="1029" y="-901.5" font-family="Helvetica,sans-Serif" font-size="10.00" fill="#000000">+ GetNumQuadPoints()</text>
<text text-anchor="start" x="1029" y="-890.5" font-family="Helvetica,sans-Serif" font-size="10.00" fill="#000000">+ GaussianQuadratureRule()</text>
<text text-anchor="start" x="1029" y="-879.5" font-family="Helvetica,sans-Serif" font-size="10.00" fill="#000000">+ GaussianQuadratureRule()</text>
<text text-anchor="start" x="1029" y="-868.5" font-family="Helvetica,sans-Serif" font-size="10.00" fill="#000000">+ GaussianQuadratureRule()</text>
</a>
</g>
</g>
<!-- Node20&#45;&gt;Node25 -->
<g id="edge24" class="edge">
<title>Node20&#45;&gt;Node25</title>
<path fill="none" stroke="#404040" d="M941.849,-1092.6059C963.0578,-1069.3485 993.868,-1035.5624 1022.027,-1004.6835"/>
<polygon fill="none" stroke="#404040" points="1022.1908,-1004.5038 1023.2781,-997.3751 1030.2767,-995.637 1029.1894,-1002.7656 1022.1908,-1004.5038"/>
<text text-anchor="middle" x="1047" y="-1044.5" font-family="Helvetica,sans-Serif" font-size="10.00" fill="#000000"> &#45;mNumQuadPoints</text>
</g>
<!-- Node21&#45;&gt;Node10 -->
<g id="edge14" class="edge">
<title>Node21&#45;&gt;Node10</title>
<path fill="none" stroke="#ffa500" d="M471.2636,-592.1668C472.3365,-578.1391 474.568,-564.0882 478.5,-551 480.3662,-544.788 482.7208,-538.604 485.429,-532.5212"/>
<polygon fill="#ffa500" stroke="#ffa500" points="467.7573,-592.179 470.6795,-602.3629 474.7458,-592.5795 467.7573,-592.179"/>
<text text-anchor="start" x="478.5" y="-576" font-family="Helvetica,sans-Serif" font-size="10.00" fill="#000000"> &lt; ELEMENT_DIM, SPACE</text>
<text text-anchor="start" x="478.5" y="-565" font-family="Helvetica,sans-Serif" font-size="10.00" fill="#000000">_DIM, PROBLEM_DIM, true,</text>
<text text-anchor="middle" x="543" y="-554" font-family="Helvetica,sans-Serif" font-size="10.00" fill="#000000"> false, NORMAL &gt;</text>
</g>
<!-- Node22&#45;&gt;Node9 -->
<g id="edge17" class="edge">
<title>Node22&#45;&gt;Node9</title>
<path fill="none" stroke="#404040" d="M1210.6594,-629.7408C1221.3006,-555.3255 1226.4279,-435.2144 1169.5,-354 1130.5755,-298.4696 1060.8315,-266.9988 1001.4525,-249.4595"/>
<polygon fill="none" stroke="#404040" points="1001.2718,-249.4083 994.4081,-251.6196 989.727,-246.1344 996.5907,-243.9231 1001.2718,-249.4083"/>
<text text-anchor="middle" x="1266.5" y="-441" font-family="Helvetica,sans-Serif" font-size="10.00" fill="#000000"> #mpSurfaceQuadRule</text>
</g>
<!-- Node23 -->
<g id="node16" class="node">
<title>Node23</title>
<polygon fill="#ffffff" stroke="#bfbfbf" points="1060.5,-1093 1060.5,-1150 1150.5,-1150 1150.5,-1093 1060.5,-1093"/>
<text text-anchor="middle" x="1105.5" y="-1138" font-family="Helvetica,sans-Serif" font-size="10.00" fill="#000000">vector&lt; double &gt;</text>
<polyline fill="none" stroke="#bfbfbf" points="1060.5,-1131 1150.5,-1131 "/>
<text text-anchor="middle" x="1105.5" y="-1119" font-family="Helvetica,sans-Serif" font-size="10.00" fill="#000000"> </text>
<polyline fill="none" stroke="#bfbfbf" points="1060.5,-1112 1150.5,-1112 "/>
<text text-anchor="middle" x="1105.5" y="-1100" font-family="Helvetica,sans-Serif" font-size="10.00" fill="#000000"> </text>
</g>
<!-- Node23&#45;&gt;Node22 -->
<g id="edge18" class="edge">
<title>Node23&#45;&gt;Node22</title>
<path fill="none" stroke="#404040" d="M1137.7511,-1092.8202C1144.3981,-1085.5995 1150.7959,-1077.4737 1155.5,-1069 1169.3128,-1044.1186 1166.7382,-1035.0571 1171.5,-1007 1184.6953,-929.2511 1191.2966,-839.343 1194.5332,-776.44"/>
<polygon fill="none" stroke="#404040" points="1194.5441,-776.2164 1190.8452,-770.0262 1195.1366,-764.231 1198.8355,-770.4212 1194.5441,-776.2164"/>
<text text-anchor="middle" x="1215" y="-926" font-family="Helvetica,sans-Serif" font-size="10.00" fill="#000000"> &#45;mWeights</text>
</g>
<!-- Node23&#45;&gt;Node25 -->
<g id="edge22" class="edge">
<title>Node23&#45;&gt;Node25</title>
<path fill="none" stroke="#404040" d="M1103.4041,-1092.6059C1101.7749,-1070.1471 1099.4336,-1037.8701 1097.2577,-1007.8739"/>
<polygon fill="none" stroke="#404040" points="1097.2383,-1007.6055 1092.8147,-1001.9107 1096.37,-995.637 1100.7937,-1001.3318 1097.2383,-1007.6055"/>
<text text-anchor="middle" x="1126" y="-1044.5" font-family="Helvetica,sans-Serif" font-size="10.00" fill="#000000"> &#45;mWeights</text>
</g>
<!-- Node24 -->
<g id="node17" class="node">
<title>Node24</title>
<polygon fill="#ffffff" stroke="#bfbfbf" points="1203,-1087.5 1203,-1155.5 1318,-1155.5 1318,-1087.5 1203,-1087.5"/>
<text text-anchor="start" x="1211" y="-1143.5" font-family="Helvetica,sans-Serif" font-size="10.00" fill="#000000">vector&lt; ChastePoint</text>
<text text-anchor="middle" x="1260.5" y="-1132.5" font-family="Helvetica,sans-Serif" font-size="10.00" fill="#000000">&lt; ELEMENT_DIM &gt; &gt;</text>
<polyline fill="none" stroke="#bfbfbf" points="1203,-1125.5 1318,-1125.5 "/>
<text text-anchor="middle" x="1260.5" y="-1113.5" font-family="Helvetica,sans-Serif" font-size="10.00" fill="#000000"> </text>
<polyline fill="none" stroke="#bfbfbf" points="1203,-1106.5 1318,-1106.5 "/>
<text text-anchor="middle" x="1260.5" y="-1094.5" font-family="Helvetica,sans-Serif" font-size="10.00" fill="#000000"> </text>
</g>
<!-- Node24&#45;&gt;Node22 -->
<g id="edge19" class="edge">
<title>Node24&#45;&gt;Node22</title>
<path fill="none" stroke="#404040" d="M1263.1371,-1087.2615C1266.3436,-1035.401 1269.5214,-934.0661 1253.5,-850 1248.7672,-825.1665 1240.5135,-799.0243 1231.7741,-775.5141"/>
<polygon fill="none" stroke="#404040" points="1231.7356,-775.4131 1225.8596,-771.2331 1227.4582,-764.2014 1233.3342,-768.3814 1231.7356,-775.4131"/>
<text text-anchor="middle" x="1287" y="-926" font-family="Helvetica,sans-Serif" font-size="10.00" fill="#000000"> &#45;mPoints</text>
</g>
<!-- Node24&#45;&gt;Node25 -->
<g id="edge23" class="edge">
<title>Node24&#45;&gt;Node25</title>
<path fill="none" stroke="#404040" d="M1230.6752,-1087.4397C1210.667,-1064.5902 1183.4916,-1033.5555 1158.4633,-1004.9729"/>
<polygon fill="none" stroke="#404040" points="1158.3299,-1004.8205 1151.3678,-1002.9416 1150.4245,-995.7925 1157.3865,-997.6714 1158.3299,-1004.8205"/>
<text text-anchor="middle" x="1232" y="-1044.5" font-family="Helvetica,sans-Serif" font-size="10.00" fill="#000000"> &#45;mPoints</text>
</g>
<!-- Node25&#45;&gt;Node22 -->
<g id="edge21" class="edge">
<title>Node25&#45;&gt;Node22</title>
<path fill="none" stroke="#ffa500" d="M1076.1659,-851.0736C1076.1888,-837.027 1078.1699,-822.7884 1083.5,-810 1092.9345,-787.3643 1109.3534,-766.9382 1126.8403,-749.8772"/>
<polygon fill="#ffa500" stroke="#ffa500" points="1072.6728,-851.3555 1076.4755,-861.2443 1079.6696,-851.1425 1072.6728,-851.3555"/>
<text text-anchor="middle" x="1134" y="-818.5" font-family="Helvetica,sans-Serif" font-size="10.00" fill="#000000"> &lt; ELEMENT_DIM&#45;1 &gt;</text>
</g>
<!-- Node26 -->
<g id="node19" class="node">
<title>Node26</title>
<polygon fill="#ffffff" stroke="#bfbfbf" points="801,-409.5 801,-477.5 978,-477.5 978,-409.5 801,-409.5"/>
<text text-anchor="start" x="809" y="-465.5" font-family="Helvetica,sans-Serif" font-size="10.00" fill="#000000">AbstractTetrahedralMesh</text>
<text text-anchor="middle" x="889.5" y="-454.5" font-family="Helvetica,sans-Serif" font-size="10.00" fill="#000000">&lt; ELEMENT_DIM, SPACE_DIM &gt; *</text>
<polyline fill="none" stroke="#bfbfbf" points="801,-447.5 978,-447.5 "/>
<text text-anchor="middle" x="889.5" y="-435.5" font-family="Helvetica,sans-Serif" font-size="10.00" fill="#000000"> </text>
<polyline fill="none" stroke="#bfbfbf" points="801,-428.5 978,-428.5 "/>
<text text-anchor="middle" x="889.5" y="-416.5" font-family="Helvetica,sans-Serif" font-size="10.00" fill="#000000"> </text>
</g>
<!-- Node26&#45;&gt;Node9 -->
<g id="edge25" class="edge">
<title>Node26&#45;&gt;Node9</title>
<path fill="none" stroke="#404040" d="M890.4507,-409.4326C891.1334,-384.9692 892.0873,-350.7871 892.9824,-318.7134"/>
<polygon fill="none" stroke="#404040" points="892.987,-318.544 889.156,-312.4347 893.3219,-306.5487 897.1529,-312.6579 892.987,-318.544"/>
<text text-anchor="middle" x="916.5" y="-328" font-family="Helvetica,sans-Serif" font-size="10.00" fill="#000000"> #mpMesh</text>
</g>
<!-- Node27 -->
<g id="node20" class="node">
<title>Node27</title>
<polygon fill="#ffffff" stroke="#bfbfbf" points="996.5,-404 996.5,-483 1160.5,-483 1160.5,-404 996.5,-404"/>
<text text-anchor="start" x="1004.5" y="-471" font-family="Helvetica,sans-Serif" font-size="10.00" fill="#000000">BoundaryConditionsContainer</text>
<text text-anchor="start" x="1004.5" y="-460" font-family="Helvetica,sans-Serif" font-size="10.00" fill="#000000">&lt; ELEMENT_DIM, SPACE_DIM,</text>
<text text-anchor="middle" x="1078.5" y="-449" font-family="Helvetica,sans-Serif" font-size="10.00" fill="#000000"> PROBLEM_DIM &gt; *</text>
<polyline fill="none" stroke="#bfbfbf" points="996.5,-442 1160.5,-442 "/>
<text text-anchor="middle" x="1078.5" y="-430" font-family="Helvetica,sans-Serif" font-size="10.00" fill="#000000"> </text>
<polyline fill="none" stroke="#bfbfbf" points="996.5,-423 1160.5,-423 "/>
<text text-anchor="middle" x="1078.5" y="-411" font-family="Helvetica,sans-Serif" font-size="10.00" fill="#000000"> </text>
</g>
<!-- Node27&#45;&gt;Node9 -->
<g id="edge26" class="edge">
<title>Node27&#45;&gt;Node9</title>
<path fill="none" stroke="#404040" d="M1044.7217,-403.8151C1023.7569,-379.1843 995.9589,-346.5255 970.0419,-316.0765"/>
<polygon fill="none" stroke="#404040" points="969.8467,-315.8472 962.9117,-313.8708 962.0687,-306.7091 969.0037,-308.6855 969.8467,-315.8472"/>
<text text-anchor="middle" x="1042.5" y="-328" font-family="Helvetica,sans-Serif" font-size="10.00" fill="#000000"> #mpBoundaryConditions</text>
</g>
</g>
</svg>
