<?xml version="1.0" encoding="UTF-8" standalone="no"?>
<!DOCTYPE svg PUBLIC "-//W3C//DTD SVG 1.1//EN"
 "http://www.w3.org/Graphics/SVG/1.1/DTD/svg11.dtd">
<!-- Generated by graphviz version 2.40.1 (20161225.0304)
 -->
<!-- Title: ContactInhibitionCellCycleModel Pages: 1 -->
<svg width="693pt" height="1104pt"
 viewBox="0.00 0.00 692.50 1104.00" xmlns="http://www.w3.org/2000/svg" xmlns:xlink="http://www.w3.org/1999/xlink">
<g id="graph0" class="graph" transform="scale(1 1) rotate(0) translate(4 1100)">
<title>ContactInhibitionCellCycleModel</title>
<polygon fill="#ffffff" stroke="transparent" points="-4,4 -4,-1100 688.5,-1100 688.5,4 -4,4"/>
<!-- Node5 -->
<g id="node1" class="node">
<title>Node5</title>
<polygon fill="#bfbfbf" stroke="#000000" points="0,-.5 0,-211.5 180,-211.5 180,-.5 0,-.5"/>
<text text-anchor="start" x="8" y="-199.5" font-family="Helvetica,sans-Serif" font-size="10.00" fill="#000000">ContactInhibitionCellCycle</text>
<text text-anchor="middle" x="90" y="-188.5" font-family="Helvetica,sans-Serif" font-size="10.00" fill="#000000">Model</text>
<polyline fill="none" stroke="#000000" points="0,-181.5 180,-181.5 "/>
<text text-anchor="middle" x="90" y="-169.5" font-family="Helvetica,sans-Serif" font-size="10.00" fill="#000000"> </text>
<polyline fill="none" stroke="#000000" points="0,-162.5 180,-162.5 "/>
<text text-anchor="start" x="8" y="-150.5" font-family="Helvetica,sans-Serif" font-size="10.00" fill="#000000">+ ContactInhibitionCellCycle</text>
<text text-anchor="start" x="8" y="-139.5" font-family="Helvetica,sans-Serif" font-size="10.00" fill="#000000">Model()</text>
<text text-anchor="start" x="8" y="-128.5" font-family="Helvetica,sans-Serif" font-size="10.00" fill="#000000">+ UpdateCellCyclePhase()</text>
<text text-anchor="start" x="8" y="-117.5" font-family="Helvetica,sans-Serif" font-size="10.00" fill="#000000">+ CreateCellCycleModel()</text>
<text text-anchor="start" x="8" y="-106.5" font-family="Helvetica,sans-Serif" font-size="10.00" fill="#000000">+ SetQuiescentVolumeFraction()</text>
<text text-anchor="start" x="8" y="-95.5" font-family="Helvetica,sans-Serif" font-size="10.00" fill="#000000">+ GetQuiescentVolumeFraction()</text>
<text text-anchor="start" x="8" y="-84.5" font-family="Helvetica,sans-Serif" font-size="10.00" fill="#000000">+ SetEquilibriumVolume()</text>
<text text-anchor="start" x="8" y="-73.5" font-family="Helvetica,sans-Serif" font-size="10.00" fill="#000000">+ GetEquilibriumVolume()</text>
<text text-anchor="start" x="8" y="-62.5" font-family="Helvetica,sans-Serif" font-size="10.00" fill="#000000">+ GetCurrentQuiescentDuration()</text>
<text text-anchor="start" x="8" y="-51.5" font-family="Helvetica,sans-Serif" font-size="10.00" fill="#000000">+ GetCurrentQuiescentOnsetTime()</text>
<text text-anchor="start" x="8" y="-40.5" font-family="Helvetica,sans-Serif" font-size="10.00" fill="#000000">+ OutputCellCycleModelParameters()</text>
<text text-anchor="start" x="8" y="-29.5" font-family="Helvetica,sans-Serif" font-size="10.00" fill="#000000"># ContactInhibitionCellCycle</text>
<text text-anchor="start" x="8" y="-18.5" font-family="Helvetica,sans-Serif" font-size="10.00" fill="#000000">Model()</text>
<text text-anchor="start" x="8" y="-7.5" font-family="Helvetica,sans-Serif" font-size="10.00" fill="#000000">&#45; serialize()</text>
</g>
<!-- Node6 -->
<g id="node2" class="node">
<title>Node6</title>
<g id="a_node2"><a xlink:href="classAbstractSimplePhaseBasedCellCycleModel.html" target="_top" xlink:title="{AbstractSimplePhaseBased\lCellCycleModel\n||+ AbstractSimplePhaseBased\lCellCycleModel()\l+ ~AbstractSimplePhaseBased\lCellCycleModel()\l+ ResetForDivision()\l+ UpdateCellCyclePhase()\l+ InitialiseDaughterCell()\l+ Initialise()\l+ OutputCellCycleModelParameters()\l# SetG1Duration()\l# AbstractSimplePhaseBased\lCellCycleModel()\l&#45; serialize()\l}">
<polygon fill="#ffffff" stroke="#000000" points="128,-249.5 128,-449.5 308,-449.5 308,-249.5 128,-249.5"/>
<text text-anchor="start" x="136" y="-437.5" font-family="Helvetica,sans-Serif" font-size="10.00" fill="#000000">AbstractSimplePhaseBased</text>
<text text-anchor="middle" x="218" y="-426.5" font-family="Helvetica,sans-Serif" font-size="10.00" fill="#000000">CellCycleModel</text>
<polyline fill="none" stroke="#000000" points="128,-419.5 308,-419.5 "/>
<text text-anchor="middle" x="218" y="-407.5" font-family="Helvetica,sans-Serif" font-size="10.00" fill="#000000"> </text>
<polyline fill="none" stroke="#000000" points="128,-400.5 308,-400.5 "/>
<text text-anchor="start" x="136" y="-388.5" font-family="Helvetica,sans-Serif" font-size="10.00" fill="#000000">+ AbstractSimplePhaseBased</text>
<text text-anchor="start" x="136" y="-377.5" font-family="Helvetica,sans-Serif" font-size="10.00" fill="#000000">CellCycleModel()</text>
<text text-anchor="start" x="136" y="-366.5" font-family="Helvetica,sans-Serif" font-size="10.00" fill="#000000">+ ~AbstractSimplePhaseBased</text>
<text text-anchor="start" x="136" y="-355.5" font-family="Helvetica,sans-Serif" font-size="10.00" fill="#000000">CellCycleModel()</text>
<text text-anchor="start" x="136" y="-344.5" font-family="Helvetica,sans-Serif" font-size="10.00" fill="#000000">+ ResetForDivision()</text>
<text text-anchor="start" x="136" y="-333.5" font-family="Helvetica,sans-Serif" font-size="10.00" fill="#000000">+ UpdateCellCyclePhase()</text>
<text text-anchor="start" x="136" y="-322.5" font-family="Helvetica,sans-Serif" font-size="10.00" fill="#000000">+ InitialiseDaughterCell()</text>
<text text-anchor="start" x="136" y="-311.5" font-family="Helvetica,sans-Serif" font-size="10.00" fill="#000000">+ Initialise()</text>
<text text-anchor="start" x="136" y="-300.5" font-family="Helvetica,sans-Serif" font-size="10.00" fill="#000000">+ OutputCellCycleModelParameters()</text>
<text text-anchor="start" x="136" y="-289.5" font-family="Helvetica,sans-Serif" font-size="10.00" fill="#000000"># SetG1Duration()</text>
<text text-anchor="start" x="136" y="-278.5" font-family="Helvetica,sans-Serif" font-size="10.00" fill="#000000"># AbstractSimplePhaseBased</text>
<text text-anchor="start" x="136" y="-267.5" font-family="Helvetica,sans-Serif" font-size="10.00" fill="#000000">CellCycleModel()</text>
<text text-anchor="start" x="136" y="-256.5" font-family="Helvetica,sans-Serif" font-size="10.00" fill="#000000">&#45; serialize()</text>
</a>
</g>
</g>
<!-- Node6&#45;&gt;Node5 -->
<g id="edge1" class="edge">
<title>Node6&#45;&gt;Node5</title>
<path fill="none" stroke="#191970" d="M160.5991,-240.3038C155.5874,-230.7698 150.5211,-221.132 145.525,-211.6276"/>
<polygon fill="none" stroke="#191970" points="157.6323,-242.1821 165.3834,-249.4051 163.8284,-238.925 157.6323,-242.1821"/>
</g>
<!-- Node7 -->
<g id="node3" class="node">
<title>Node7</title>
<g id="a_node3"><a xlink:href="classAbstractPhaseBasedCellCycleModel.html" target="_top" xlink:title="{AbstractPhaseBasedCellCycle\lModel\n||+ AbstractPhaseBasedCellCycle\lModel()\l+ ~AbstractPhaseBasedCellCycle\lModel()\l+ ReadyToDivide()\l+ ResetForDivision()\l+ UpdateCellCyclePhase()\l+ GetCurrentCellCyclePhase()\l+ GetG1Duration()\l+ GetStemCellG1Duration()\l+ GetTransitCellG1Duration()\l+ GetSG2MDuration()\land 13 more...\l# AbstractPhaseBasedCellCycle\lModel()\l&#45; serialize()\l}">
<polygon fill="#ffffff" stroke="#000000" points="196.5,-487.5 196.5,-720.5 363.5,-720.5 363.5,-487.5 196.5,-487.5"/>
<text text-anchor="start" x="204.5" y="-708.5" font-family="Helvetica,sans-Serif" font-size="10.00" fill="#000000">AbstractPhaseBasedCellCycle</text>
<text text-anchor="middle" x="280" y="-697.5" font-family="Helvetica,sans-Serif" font-size="10.00" fill="#000000">Model</text>
<polyline fill="none" stroke="#000000" points="196.5,-690.5 363.5,-690.5 "/>
<text text-anchor="middle" x="280" y="-678.5" font-family="Helvetica,sans-Serif" font-size="10.00" fill="#000000"> </text>
<polyline fill="none" stroke="#000000" points="196.5,-671.5 363.5,-671.5 "/>
<text text-anchor="start" x="204.5" y="-659.5" font-family="Helvetica,sans-Serif" font-size="10.00" fill="#000000">+ AbstractPhaseBasedCellCycle</text>
<text text-anchor="start" x="204.5" y="-648.5" font-family="Helvetica,sans-Serif" font-size="10.00" fill="#000000">Model()</text>
<text text-anchor="start" x="204.5" y="-637.5" font-family="Helvetica,sans-Serif" font-size="10.00" fill="#000000">+ ~AbstractPhaseBasedCellCycle</text>
<text text-anchor="start" x="204.5" y="-626.5" font-family="Helvetica,sans-Serif" font-size="10.00" fill="#000000">Model()</text>
<text text-anchor="start" x="204.5" y="-615.5" font-family="Helvetica,sans-Serif" font-size="10.00" fill="#000000">+ ReadyToDivide()</text>
<text text-anchor="start" x="204.5" y="-604.5" font-family="Helvetica,sans-Serif" font-size="10.00" fill="#000000">+ ResetForDivision()</text>
<text text-anchor="start" x="204.5" y="-593.5" font-family="Helvetica,sans-Serif" font-size="10.00" fill="#000000">+ UpdateCellCyclePhase()</text>
<text text-anchor="start" x="204.5" y="-582.5" font-family="Helvetica,sans-Serif" font-size="10.00" fill="#000000">+ GetCurrentCellCyclePhase()</text>
<text text-anchor="start" x="204.5" y="-571.5" font-family="Helvetica,sans-Serif" font-size="10.00" fill="#000000">+ GetG1Duration()</text>
<text text-anchor="start" x="204.5" y="-560.5" font-family="Helvetica,sans-Serif" font-size="10.00" fill="#000000">+ GetStemCellG1Duration()</text>
<text text-anchor="start" x="204.5" y="-549.5" font-family="Helvetica,sans-Serif" font-size="10.00" fill="#000000">+ GetTransitCellG1Duration()</text>
<text text-anchor="start" x="204.5" y="-538.5" font-family="Helvetica,sans-Serif" font-size="10.00" fill="#000000">+ GetSG2MDuration()</text>
<text text-anchor="start" x="204.5" y="-527.5" font-family="Helvetica,sans-Serif" font-size="10.00" fill="#000000">and 13 more...</text>
<text text-anchor="start" x="204.5" y="-516.5" font-family="Helvetica,sans-Serif" font-size="10.00" fill="#000000"># AbstractPhaseBasedCellCycle</text>
<text text-anchor="start" x="204.5" y="-505.5" font-family="Helvetica,sans-Serif" font-size="10.00" fill="#000000">Model()</text>
<text text-anchor="start" x="204.5" y="-494.5" font-family="Helvetica,sans-Serif" font-size="10.00" fill="#000000">&#45; serialize()</text>
</a>
</g>
</g>
<!-- Node7&#45;&gt;Node6 -->
<g id="edge2" class="edge">
<title>Node7&#45;&gt;Node6</title>
<path fill="none" stroke="#191970" d="M249.1722,-477.457C246.8973,-468.1189 244.6212,-458.7756 242.3928,-449.6285"/>
<polygon fill="none" stroke="#191970" points="245.7729,-478.2907 251.5404,-487.1781 252.574,-476.6338 245.7729,-478.2907"/>
</g>
<!-- Node8 -->
<g id="node4" class="node">
<title>Node8</title>
<g id="a_node4"><a xlink:href="classAbstractCellCycleModel.html" target="_top" xlink:title="{AbstractCellCycleModel\n||+ AbstractCellCycleModel()\l+ ~AbstractCellCycleModel()\l+ SetCell()\l+ Initialise()\l+ InitialiseDaughterCell()\l+ GetCell()\l+ SetBirthTime()\l+ SetDimension()\l+ GetDimension()\l+ GetBirthTime()\land 9 more...\l# AbstractCellCycleModel()\l&#45; serialize()\l&#45; operator=()\l}">
<polygon fill="#ffffff" stroke="#000000" points="354.5,-768.5 354.5,-968.5 497.5,-968.5 497.5,-768.5 354.5,-768.5"/>
<text text-anchor="middle" x="426" y="-956.5" font-family="Helvetica,sans-Serif" font-size="10.00" fill="#000000">AbstractCellCycleModel</text>
<polyline fill="none" stroke="#000000" points="354.5,-949.5 497.5,-949.5 "/>
<text text-anchor="middle" x="426" y="-937.5" font-family="Helvetica,sans-Serif" font-size="10.00" fill="#000000"> </text>
<polyline fill="none" stroke="#000000" points="354.5,-930.5 497.5,-930.5 "/>
<text text-anchor="start" x="362.5" y="-918.5" font-family="Helvetica,sans-Serif" font-size="10.00" fill="#000000">+ AbstractCellCycleModel()</text>
<text text-anchor="start" x="362.5" y="-907.5" font-family="Helvetica,sans-Serif" font-size="10.00" fill="#000000">+ ~AbstractCellCycleModel()</text>
<text text-anchor="start" x="362.5" y="-896.5" font-family="Helvetica,sans-Serif" font-size="10.00" fill="#000000">+ SetCell()</text>
<text text-anchor="start" x="362.5" y="-885.5" font-family="Helvetica,sans-Serif" font-size="10.00" fill="#000000">+ Initialise()</text>
<text text-anchor="start" x="362.5" y="-874.5" font-family="Helvetica,sans-Serif" font-size="10.00" fill="#000000">+ InitialiseDaughterCell()</text>
<text text-anchor="start" x="362.5" y="-863.5" font-family="Helvetica,sans-Serif" font-size="10.00" fill="#000000">+ GetCell()</text>
<text text-anchor="start" x="362.5" y="-852.5" font-family="Helvetica,sans-Serif" font-size="10.00" fill="#000000">+ SetBirthTime()</text>
<text text-anchor="start" x="362.5" y="-841.5" font-family="Helvetica,sans-Serif" font-size="10.00" fill="#000000">+ SetDimension()</text>
<text text-anchor="start" x="362.5" y="-830.5" font-family="Helvetica,sans-Serif" font-size="10.00" fill="#000000">+ GetDimension()</text>
<text text-anchor="start" x="362.5" y="-819.5" font-family="Helvetica,sans-Serif" font-size="10.00" fill="#000000">+ GetBirthTime()</text>
<text text-anchor="start" x="362.5" y="-808.5" font-family="Helvetica,sans-Serif" font-size="10.00" fill="#000000">and 9 more...</text>
<text text-anchor="start" x="362.5" y="-797.5" font-family="Helvetica,sans-Serif" font-size="10.00" fill="#000000"># AbstractCellCycleModel()</text>
<text text-anchor="start" x="362.5" y="-786.5" font-family="Helvetica,sans-Serif" font-size="10.00" fill="#000000">&#45; serialize()</text>
<text text-anchor="start" x="362.5" y="-775.5" font-family="Helvetica,sans-Serif" font-size="10.00" fill="#000000">&#45; operator=()</text>
</a>
</g>
</g>
<!-- Node8&#45;&gt;Node7 -->
<g id="edge3" class="edge">
<title>Node8&#45;&gt;Node7</title>
<path fill="none" stroke="#191970" d="M410.0725,-758.4525C407.7377,-751.7375 405.0633,-745.1975 402,-739 392.1317,-719.0347 378.4462,-699.8275 363.7944,-682.475"/>
<polygon fill="none" stroke="#191970" points="406.8736,-759.9398 413.2558,-768.3966 413.5403,-757.8056 406.8736,-759.9398"/>
</g>
<!-- Node9 -->
<g id="node5" class="node">
<title>Node9</title>
<g id="a_node5"><a xlink:href="classIdentifiable.html" target="_top" xlink:title="{Identifiable\n||+ ~Identifiable()\l+ GetIdentifier()\l&#45; TidyTemplatedExportIdentifier()\l}">
<polygon fill="#ffffff" stroke="#000000" points="525.5,-1016.5 525.5,-1095.5 684.5,-1095.5 684.5,-1016.5 525.5,-1016.5"/>
<text text-anchor="middle" x="605" y="-1083.5" font-family="Helvetica,sans-Serif" font-size="10.00" fill="#000000">Identifiable</text>
<polyline fill="none" stroke="#000000" points="525.5,-1076.5 684.5,-1076.5 "/>
<text text-anchor="middle" x="605" y="-1064.5" font-family="Helvetica,sans-Serif" font-size="10.00" fill="#000000"> </text>
<polyline fill="none" stroke="#000000" points="525.5,-1057.5 684.5,-1057.5 "/>
<text text-anchor="start" x="533.5" y="-1045.5" font-family="Helvetica,sans-Serif" font-size="10.00" fill="#000000">+ ~Identifiable()</text>
<text text-anchor="start" x="533.5" y="-1034.5" font-family="Helvetica,sans-Serif" font-size="10.00" fill="#000000">+ GetIdentifier()</text>
<text text-anchor="start" x="533.5" y="-1023.5" font-family="Helvetica,sans-Serif" font-size="10.00" fill="#000000">&#45; TidyTemplatedExportIdentifier()</text>
</a>
</g>
</g>
<!-- Node9&#45;&gt;Node8 -->
<g id="edge4" class="edge">
<title>Node9&#45;&gt;Node8</title>
<path fill="none" stroke="#191970" d="M559.9735,-1008.8353C541.058,-989.0217 518.5892,-965.4859 497.5092,-943.4049"/>
<polygon fill="none" stroke="#191970" points="557.6019,-1011.4198 567.0387,-1016.2361 562.6651,-1006.5861 557.6019,-1011.4198"/>
</g>
<!-- Node10 -->
<g id="node6" class="node">
<title>Node10</title>
<g id="a_node6"><a xlink:href="classdouble.html" target="_top" xlink:title="{double\n||}">
<polygon fill="#ffffff" stroke="#000000" points="65.5,-1027.5 65.5,-1084.5 110.5,-1084.5 110.5,-1027.5 65.5,-1027.5"/>
<text text-anchor="middle" x="88" y="-1072.5" font-family="Helvetica,sans-Serif" font-size="10.00" fill="#000000">double</text>
<polyline fill="none" stroke="#000000" points="65.5,-1065.5 110.5,-1065.5 "/>
<text text-anchor="middle" x="88" y="-1053.5" font-family="Helvetica,sans-Serif" font-size="10.00" fill="#000000"> </text>
<polyline fill="none" stroke="#000000" points="65.5,-1046.5 110.5,-1046.5 "/>
<text text-anchor="middle" x="88" y="-1034.5" font-family="Helvetica,sans-Serif" font-size="10.00" fill="#000000"> </text>
</a>
</g>
</g>
<!-- Node10&#45;&gt;Node5 -->
<g id="edge11" class="edge">
<title>Node10&#45;&gt;Node5</title>
<path fill="none" stroke="#404040" d="M75.6352,-1027.3777C61.1194,-991.1176 39,-926.3699 39,-868.5 39,-868.5 39,-868.5 39,-349.5 39,-307.9197 46.2122,-263.1774 55.2123,-223.5314"/>
<polygon fill="none" stroke="#404040" points="55.2528,-223.358 52.7272,-216.6037 57.9905,-211.6745 60.5162,-218.4288 55.2528,-223.358"/>
<text text-anchor="middle" x="108.5" y="-618" font-family="Helvetica,sans-Serif" font-size="10.00" fill="#000000"> #mEquilibriumVolume</text>
<text text-anchor="middle" x="108.5" y="-607" font-family="Helvetica,sans-Serif" font-size="10.00" fill="#000000">#mQuiescentVolumeFraction</text>
<text text-anchor="middle" x="108.5" y="-596" font-family="Helvetica,sans-Serif" font-size="10.00" fill="#000000">#mCurrentQuiescentDuration</text>
<text text-anchor="middle" x="108.5" y="-585" font-family="Helvetica,sans-Serif" font-size="10.00" fill="#000000">#mCurrentQuiescentOnsetTime</text>
</g>
<!-- Node10&#45;&gt;Node7 -->
<g id="edge9" class="edge">
<title>Node10&#45;&gt;Node7</title>
<path fill="none" stroke="#404040" d="M80.2212,-1027.2274C67.109,-972.2412 46.6621,-850.3859 97,-768 119.5072,-731.1634 148.6879,-748.4556 182,-721 183.6517,-719.6387 185.2968,-718.2467 186.934,-716.8275"/>
<polygon fill="none" stroke="#404040" points="187.3203,-716.4778 189.0833,-709.4855 196.2158,-708.4236 194.4528,-715.4159 187.3203,-716.4778"/>
<text text-anchor="middle" x="152.5" y="-899" font-family="Helvetica,sans-Serif" font-size="10.00" fill="#000000"> #mSDuration</text>
<text text-anchor="middle" x="152.5" y="-888" font-family="Helvetica,sans-Serif" font-size="10.00" fill="#000000">#mStemCellG1Duration</text>
<text text-anchor="middle" x="152.5" y="-877" font-family="Helvetica,sans-Serif" font-size="10.00" fill="#000000">#mMDuration</text>
<text text-anchor="middle" x="152.5" y="-866" font-family="Helvetica,sans-Serif" font-size="10.00" fill="#000000">#mMinimumGapDuration</text>
<text text-anchor="middle" x="152.5" y="-855" font-family="Helvetica,sans-Serif" font-size="10.00" fill="#000000">#mTransitCellG1Duration</text>
<text text-anchor="middle" x="152.5" y="-844" font-family="Helvetica,sans-Serif" font-size="10.00" fill="#000000">#mG2Duration</text>
<text text-anchor="middle" x="152.5" y="-833" font-family="Helvetica,sans-Serif" font-size="10.00" fill="#000000">#mG1Duration</text>
</g>
<!-- Node10&#45;&gt;Node8 -->
<g id="edge5" class="edge">
<title>Node10&#45;&gt;Node8</title>
<path fill="none" stroke="#404040" d="M110.5903,-1045.0832C142.3791,-1030.1033 202.4269,-1003.1944 256,-987 291.6915,-976.211 308.2378,-987.861 343.8132,-969.4163"/>
<polygon fill="none" stroke="#404040" points="343.9663,-969.3288 347.1894,-962.8781 354.3836,-963.3722 351.1604,-969.823 343.9663,-969.3288"/>
<text text-anchor="middle" x="285.5" y="-990" font-family="Helvetica,sans-Serif" font-size="10.00" fill="#000000"> #mBirthTime</text>
</g>
<!-- Node11 -->
<g id="node7" class="node">
<title>Node11</title>
<polygon fill="#ffffff" stroke="#bfbfbf" points="238,-1027.5 238,-1084.5 336,-1084.5 336,-1027.5 238,-1027.5"/>
<text text-anchor="middle" x="287" y="-1072.5" font-family="Helvetica,sans-Serif" font-size="10.00" fill="#000000">shared_ptr&lt; Cell &gt;</text>
<polyline fill="none" stroke="#bfbfbf" points="238,-1065.5 336,-1065.5 "/>
<text text-anchor="middle" x="287" y="-1053.5" font-family="Helvetica,sans-Serif" font-size="10.00" fill="#000000"> </text>
<polyline fill="none" stroke="#bfbfbf" points="238,-1046.5 336,-1046.5 "/>
<text text-anchor="middle" x="287" y="-1034.5" font-family="Helvetica,sans-Serif" font-size="10.00" fill="#000000"> </text>
</g>
<!-- Node11&#45;&gt;Node8 -->
<g id="edge6" class="edge">
<title>Node11&#45;&gt;Node8</title>
<path fill="none" stroke="#404040" d="M301.233,-1027.2928C308.2087,-1014.4209 317.2114,-999.3835 327,-987 334.2133,-977.8744 338.1362,-977.5715 346,-969 346.0872,-968.905 346.1743,-968.8099 346.2615,-968.7147"/>
<polygon fill="none" stroke="#404040" points="346.3799,-968.5828 347.4102,-961.4456 354.3946,-959.6516 353.3643,-966.7887 346.3799,-968.5828"/>
<text text-anchor="middle" x="347" y="-990" font-family="Helvetica,sans-Serif" font-size="10.00" fill="#000000"> #mpCell</text>
</g>
<!-- Node12 -->
<g id="node8" class="node">
<title>Node12</title>
<g id="a_node8"><a xlink:href="classbool.html" target="_top" xlink:title="{bool\n||}">
<polygon fill="#ffffff" stroke="#000000" points="354.5,-1027.5 354.5,-1084.5 389.5,-1084.5 389.5,-1027.5 354.5,-1027.5"/>
<text text-anchor="middle" x="372" y="-1072.5" font-family="Helvetica,sans-Serif" font-size="10.00" fill="#000000">bool</text>
<polyline fill="none" stroke="#000000" points="354.5,-1065.5 389.5,-1065.5 "/>
<text text-anchor="middle" x="372" y="-1053.5" font-family="Helvetica,sans-Serif" font-size="10.00" fill="#000000"> </text>
<polyline fill="none" stroke="#000000" points="354.5,-1046.5 389.5,-1046.5 "/>
<text text-anchor="middle" x="372" y="-1034.5" font-family="Helvetica,sans-Serif" font-size="10.00" fill="#000000"> </text>
</a>
</g>
</g>
<!-- Node12&#45;&gt;Node8 -->
<g id="edge7" class="edge">
<title>Node12&#45;&gt;Node8</title>
<path fill="none" stroke="#404040" d="M369.8368,-1027.1646C369.5608,-1014.6817 370.13,-999.9849 373,-987 373.4807,-984.8252 374.0033,-982.6417 374.5637,-980.4535"/>
<polygon fill="none" stroke="#404040" points="374.616,-980.2695 372.4109,-973.4039 377.9003,-968.7277 380.1054,-975.5934 374.616,-980.2695"/>
<text text-anchor="middle" x="415.5" y="-990" font-family="Helvetica,sans-Serif" font-size="10.00" fill="#000000"> #mReadyToDivide</text>
</g>
<!-- Node13 -->
<g id="node9" class="node">
<title>Node13</title>
<g id="a_node9"><a xlink:href="classunsigned.html" target="_top" xlink:title="{unsigned\n||}">
<polygon fill="#ffffff" stroke="#000000" points="452,-1027.5 452,-1084.5 508,-1084.5 508,-1027.5 452,-1027.5"/>
<text text-anchor="middle" x="480" y="-1072.5" font-family="Helvetica,sans-Serif" font-size="10.00" fill="#000000">unsigned</text>
<polyline fill="none" stroke="#000000" points="452,-1065.5 508,-1065.5 "/>
<text text-anchor="middle" x="480" y="-1053.5" font-family="Helvetica,sans-Serif" font-size="10.00" fill="#000000"> </text>
<polyline fill="none" stroke="#000000" points="452,-1046.5 508,-1046.5 "/>
<text text-anchor="middle" x="480" y="-1034.5" font-family="Helvetica,sans-Serif" font-size="10.00" fill="#000000"> </text>
</a>
</g>
</g>
<!-- Node13&#45;&gt;Node8 -->
<g id="edge8" class="edge">
<title>Node13&#45;&gt;Node8</title>
<path fill="none" stroke="#404040" d="M471.6808,-1027.114C467.931,-1014.0936 463.2382,-997.7991 458.2991,-980.6496"/>
<polygon fill="none" stroke="#404040" points="458.17,-980.2013 452.6657,-975.5426 454.8489,-968.67 460.3533,-973.3286 458.17,-980.2013"/>
<text text-anchor="middle" x="494" y="-990" font-family="Helvetica,sans-Serif" font-size="10.00" fill="#000000"> #mDimension</text>
</g>
<!-- Node14 -->
<g id="node10" class="node">
<title>Node14</title>
<polygon fill="#ffffff" stroke="#bfbfbf" points="217.5,-840 217.5,-897 336.5,-897 336.5,-840 217.5,-840"/>
<text text-anchor="middle" x="277" y="-885" font-family="Helvetica,sans-Serif" font-size="10.00" fill="#000000">enum CellCyclePhase_</text>
<polyline fill="none" stroke="#bfbfbf" points="217.5,-878 336.5,-878 "/>
<text text-anchor="middle" x="277" y="-866" font-family="Helvetica,sans-Serif" font-size="10.00" fill="#000000"> </text>
<polyline fill="none" stroke="#bfbfbf" points="217.5,-859 336.5,-859 "/>
<text text-anchor="middle" x="277" y="-847" font-family="Helvetica,sans-Serif" font-size="10.00" fill="#000000"> </text>
</g>
<!-- Node14&#45;&gt;Node7 -->
<g id="edge10" class="edge">
<title>Node14&#45;&gt;Node7</title>
<path fill="none" stroke="#404040" d="M277.3239,-839.9426C277.6204,-813.7982 278.0813,-773.165 278.5375,-732.9403"/>
<polygon fill="none" stroke="#404040" points="278.5394,-732.7703 274.6077,-726.7253 278.6756,-720.7711 282.6072,-726.8161 278.5394,-732.7703"/>
<text text-anchor="middle" x="338" y="-742" font-family="Helvetica,sans-Serif" font-size="10.00" fill="#000000"> #mCurrentCellCyclePhase</text>
</g>
</g>
</svg>
