<?xml version="1.0" encoding="UTF-8" standalone="no"?>
<!DOCTYPE svg PUBLIC "-//W3C//DTD SVG 1.1//EN"
 "http://www.w3.org/Graphics/SVG/1.1/DTD/svg11.dtd">
<!-- Generated by graphviz version 2.40.1 (20161225.0304)
 -->
<!-- Title: AbstractCellBasedTestSuite Pages: 1 -->
<svg width="148pt" height="171pt"
 viewBox="0.00 0.00 148.00 171.00" xmlns="http://www.w3.org/2000/svg" xmlns:xlink="http://www.w3.org/1999/xlink">
<g id="graph0" class="graph" transform="scale(1 1) rotate(0) translate(4 167)">
<title>AbstractCellBasedTestSuite</title>
<polygon fill="#ffffff" stroke="transparent" points="-4,4 -4,-167 144,-167 144,4 -4,4"/>
<!-- Node3 -->
<g id="node1" class="node">
<title>Node3</title>
<polygon fill="#bfbfbf" stroke="#000000" points="0,-.5 0,-68.5 140,-68.5 140,-.5 0,-.5"/>
<text text-anchor="middle" x="70" y="-56.5" font-family="Helvetica,sans-Serif" font-size="10.00" fill="#000000">AbstractCellBasedTestSuite</text>
<polyline fill="none" stroke="#000000" points="0,-49.5 140,-49.5 "/>
<text text-anchor="middle" x="70" y="-37.5" font-family="Helvetica,sans-Serif" font-size="10.00" fill="#000000"> </text>
<polyline fill="none" stroke="#000000" points="0,-30.5 140,-30.5 "/>
<text text-anchor="start" x="8" y="-18.5" font-family="Helvetica,sans-Serif" font-size="10.00" fill="#000000"># setUp()</text>
<text text-anchor="start" x="8" y="-7.5" font-family="Helvetica,sans-Serif" font-size="10.00" fill="#000000"># tearDown()</text>
</g>
<!-- Node4 -->
<g id="node2" class="node">
<title>Node4</title>
<polygon fill="#ffffff" stroke="#bfbfbf" points="19,-105.5 19,-162.5 121,-162.5 121,-105.5 19,-105.5"/>
<text text-anchor="middle" x="70" y="-150.5" font-family="Helvetica,sans-Serif" font-size="10.00" fill="#000000">CxxTest::TestSuite</text>
<polyline fill="none" stroke="#bfbfbf" points="19,-143.5 121,-143.5 "/>
<text text-anchor="middle" x="70" y="-131.5" font-family="Helvetica,sans-Serif" font-size="10.00" fill="#000000"> </text>
<polyline fill="none" stroke="#bfbfbf" points="19,-124.5 121,-124.5 "/>
<text text-anchor="middle" x="70" y="-112.5" font-family="Helvetica,sans-Serif" font-size="10.00" fill="#000000"> </text>
</g>
<!-- Node4&#45;&gt;Node3 -->
<g id="edge1" class="edge">
<title>Node4&#45;&gt;Node3</title>
<path fill="none" stroke="#191970" d="M70,-95.4268C70,-86.6025 70,-77.2834 70,-68.6596"/>
<polygon fill="none" stroke="#191970" points="66.5001,-95.4873 70,-105.4873 73.5001,-95.4873 66.5001,-95.4873"/>
</g>
</g>
</svg>
