<?xml version="1.0" encoding="UTF-8" standalone="no"?>
<!DOCTYPE svg PUBLIC "-//W3C//DTD SVG 1.1//EN"
 "http://www.w3.org/Graphics/SVG/1.1/DTD/svg11.dtd">
<!-- Generated by graphviz version 2.40.1 (20161225.0304)
 -->
<!-- Title: VtkMeshWriter&lt; ELEMENT_DIM, SPACE_DIM &gt; Pages: 1 -->
<svg width="2306pt" height="1157pt"
 viewBox="0.00 0.00 2305.50 1157.00" xmlns="http://www.w3.org/2000/svg" xmlns:xlink="http://www.w3.org/1999/xlink">
<g id="graph0" class="graph" transform="scale(1 1) rotate(0) translate(4 1153)">
<title>VtkMeshWriter&lt; ELEMENT_DIM, SPACE_DIM &gt;</title>
<polygon fill="#ffffff" stroke="transparent" points="-4,4 -4,-1153 2301.5,-1153 2301.5,4 -4,4"/>
<!-- Node3 -->
<g id="node1" class="node">
<title>Node3</title>
<polygon fill="#bfbfbf" stroke="#000000" points="1794.5,-.5 1794.5,-222.5 1932.5,-222.5 1932.5,-.5 1794.5,-.5"/>
<text text-anchor="start" x="1802.5" y="-210.5" font-family="Helvetica,sans-Serif" font-size="10.00" fill="#000000">VtkMeshWriter&lt; ELEMENT</text>
<text text-anchor="middle" x="1863.5" y="-199.5" font-family="Helvetica,sans-Serif" font-size="10.00" fill="#000000">_DIM, SPACE_DIM &gt;</text>
<polyline fill="none" stroke="#000000" points="1794.5,-192.5 1932.5,-192.5 "/>
<text text-anchor="middle" x="1863.5" y="-180.5" font-family="Helvetica,sans-Serif" font-size="10.00" fill="#000000"> </text>
<polyline fill="none" stroke="#000000" points="1794.5,-173.5 1932.5,-173.5 "/>
<text text-anchor="start" x="1802.5" y="-161.5" font-family="Helvetica,sans-Serif" font-size="10.00" fill="#000000">+ VtkMeshWriter()</text>
<text text-anchor="start" x="1802.5" y="-150.5" font-family="Helvetica,sans-Serif" font-size="10.00" fill="#000000">+ WriteFiles()</text>
<text text-anchor="start" x="1802.5" y="-139.5" font-family="Helvetica,sans-Serif" font-size="10.00" fill="#000000">+ AddCellData()</text>
<text text-anchor="start" x="1802.5" y="-128.5" font-family="Helvetica,sans-Serif" font-size="10.00" fill="#000000">+ AddCellData()</text>
<text text-anchor="start" x="1802.5" y="-117.5" font-family="Helvetica,sans-Serif" font-size="10.00" fill="#000000">+ AddTensorCellData()</text>
<text text-anchor="start" x="1802.5" y="-106.5" font-family="Helvetica,sans-Serif" font-size="10.00" fill="#000000">+ AddTensorCellData()</text>
<text text-anchor="start" x="1802.5" y="-95.5" font-family="Helvetica,sans-Serif" font-size="10.00" fill="#000000">+ AddPointData()</text>
<text text-anchor="start" x="1802.5" y="-84.5" font-family="Helvetica,sans-Serif" font-size="10.00" fill="#000000">+ AddPointData()</text>
<text text-anchor="start" x="1802.5" y="-73.5" font-family="Helvetica,sans-Serif" font-size="10.00" fill="#000000">+ AddTensorPointData()</text>
<text text-anchor="start" x="1802.5" y="-62.5" font-family="Helvetica,sans-Serif" font-size="10.00" fill="#000000">+ SetParallelFiles()</text>
<text text-anchor="start" x="1802.5" y="-51.5" font-family="Helvetica,sans-Serif" font-size="10.00" fill="#000000">+ WriteFilesUsingMesh()</text>
<text text-anchor="start" x="1802.5" y="-40.5" font-family="Helvetica,sans-Serif" font-size="10.00" fill="#000000">+ AddProvenance()</text>
<text text-anchor="start" x="1802.5" y="-29.5" font-family="Helvetica,sans-Serif" font-size="10.00" fill="#000000">+ ~VtkMeshWriter()</text>
<text text-anchor="start" x="1802.5" y="-18.5" font-family="Helvetica,sans-Serif" font-size="10.00" fill="#000000">&#45; MakeVtkMesh()</text>
<text text-anchor="start" x="1802.5" y="-7.5" font-family="Helvetica,sans-Serif" font-size="10.00" fill="#000000">&#45; AugmentCellData()</text>
</g>
<!-- Node4 -->
<g id="node2" class="node">
<title>Node4</title>
<g id="a_node2"><a xlink:href="classAbstractTetrahedralMeshWriter.html" target="_top" xlink:title="{AbstractTetrahedralMeshWriter\l\&lt; ELEMENT_DIM, SPACE_DIM \&gt;\n||+ AbstractTetrahedralMeshWriter()\l+ ~AbstractTetrahedralMesh\lWriter()\l+ WriteFilesUsingMesh()\l+ WriteFilesUsingMeshReader\lAndMesh()\l+ GetNextNode()\l+ GetNextElement()\l+ GetNextBoundaryElement()\l+ GetNextCableElement()\l&#45; PostElement()\l&#45; UnpackElement()\l&#45; WriteFilesUsingParallelMesh()\l&#45; WriteNclFile()\l&#45; CreateFilesWithHeaders()\l&#45; AppendLocalDataToFiles()\l&#45; WriteFilesFooter()\l}">
<polygon fill="#ffffff" stroke="#000000" points="1105.5,-281.5 1105.5,-525.5 1275.5,-525.5 1275.5,-281.5 1105.5,-281.5"/>
<text text-anchor="start" x="1113.5" y="-513.5" font-family="Helvetica,sans-Serif" font-size="10.00" fill="#000000">AbstractTetrahedralMeshWriter</text>
<text text-anchor="middle" x="1190.5" y="-502.5" font-family="Helvetica,sans-Serif" font-size="10.00" fill="#000000">&lt; ELEMENT_DIM, SPACE_DIM &gt;</text>
<polyline fill="none" stroke="#000000" points="1105.5,-495.5 1275.5,-495.5 "/>
<text text-anchor="middle" x="1190.5" y="-483.5" font-family="Helvetica,sans-Serif" font-size="10.00" fill="#000000"> </text>
<polyline fill="none" stroke="#000000" points="1105.5,-476.5 1275.5,-476.5 "/>
<text text-anchor="start" x="1113.5" y="-464.5" font-family="Helvetica,sans-Serif" font-size="10.00" fill="#000000">+ AbstractTetrahedralMeshWriter()</text>
<text text-anchor="start" x="1113.5" y="-453.5" font-family="Helvetica,sans-Serif" font-size="10.00" fill="#000000">+ ~AbstractTetrahedralMesh</text>
<text text-anchor="start" x="1113.5" y="-442.5" font-family="Helvetica,sans-Serif" font-size="10.00" fill="#000000">Writer()</text>
<text text-anchor="start" x="1113.5" y="-431.5" font-family="Helvetica,sans-Serif" font-size="10.00" fill="#000000">+ WriteFilesUsingMesh()</text>
<text text-anchor="start" x="1113.5" y="-420.5" font-family="Helvetica,sans-Serif" font-size="10.00" fill="#000000">+ WriteFilesUsingMeshReader</text>
<text text-anchor="start" x="1113.5" y="-409.5" font-family="Helvetica,sans-Serif" font-size="10.00" fill="#000000">AndMesh()</text>
<text text-anchor="start" x="1113.5" y="-398.5" font-family="Helvetica,sans-Serif" font-size="10.00" fill="#000000">+ GetNextNode()</text>
<text text-anchor="start" x="1113.5" y="-387.5" font-family="Helvetica,sans-Serif" font-size="10.00" fill="#000000">+ GetNextElement()</text>
<text text-anchor="start" x="1113.5" y="-376.5" font-family="Helvetica,sans-Serif" font-size="10.00" fill="#000000">+ GetNextBoundaryElement()</text>
<text text-anchor="start" x="1113.5" y="-365.5" font-family="Helvetica,sans-Serif" font-size="10.00" fill="#000000">+ GetNextCableElement()</text>
<text text-anchor="start" x="1113.5" y="-354.5" font-family="Helvetica,sans-Serif" font-size="10.00" fill="#000000">&#45; PostElement()</text>
<text text-anchor="start" x="1113.5" y="-343.5" font-family="Helvetica,sans-Serif" font-size="10.00" fill="#000000">&#45; UnpackElement()</text>
<text text-anchor="start" x="1113.5" y="-332.5" font-family="Helvetica,sans-Serif" font-size="10.00" fill="#000000">&#45; WriteFilesUsingParallelMesh()</text>
<text text-anchor="start" x="1113.5" y="-321.5" font-family="Helvetica,sans-Serif" font-size="10.00" fill="#000000">&#45; WriteNclFile()</text>
<text text-anchor="start" x="1113.5" y="-310.5" font-family="Helvetica,sans-Serif" font-size="10.00" fill="#000000">&#45; CreateFilesWithHeaders()</text>
<text text-anchor="start" x="1113.5" y="-299.5" font-family="Helvetica,sans-Serif" font-size="10.00" fill="#000000">&#45; AppendLocalDataToFiles()</text>
<text text-anchor="start" x="1113.5" y="-288.5" font-family="Helvetica,sans-Serif" font-size="10.00" fill="#000000">&#45; WriteFilesFooter()</text>
</a>
</g>
</g>
<!-- Node4&#45;&gt;Node3 -->
<g id="edge1" class="edge">
<title>Node4&#45;&gt;Node3</title>
<path fill="none" stroke="#191970" d="M1285.0025,-362.4974C1422.0925,-303.0171 1672.9532,-194.1741 1794.2232,-141.5577"/>
<polygon fill="none" stroke="#191970" points="1283.5165,-359.3268 1275.7359,-366.518 1286.3028,-365.7485 1283.5165,-359.3268"/>
</g>
<!-- Node5 -->
<g id="node3" class="node">
<title>Node5</title>
<g id="a_node3"><a xlink:href="classAbstractMeshWriter.html" target="_top" xlink:title="{AbstractMeshWriter\l\&lt; ELEMENT_DIM, SPACE_DIM \&gt;\n||+ AbstractMeshWriter()\l+ ~AbstractMeshWriter()\l+ GetOutputDirectory()\l+ GetNumNodes()\l+ GetNumElements()\l+ GetNumBoundaryFaces()\l+ GetNumCableElements()\l+ GetNextNode()\l+ GetNextElement()\l+ GetNextBoundaryElement()\l+ GetNextCableElement()\l+ WriteFiles()\l+ WriteFilesUsingMeshReader()\l}">
<polygon fill="#ffffff" stroke="#000000" points="240.5,-573.5 240.5,-773.5 410.5,-773.5 410.5,-573.5 240.5,-573.5"/>
<text text-anchor="start" x="248.5" y="-761.5" font-family="Helvetica,sans-Serif" font-size="10.00" fill="#000000">AbstractMeshWriter</text>
<text text-anchor="middle" x="325.5" y="-750.5" font-family="Helvetica,sans-Serif" font-size="10.00" fill="#000000">&lt; ELEMENT_DIM, SPACE_DIM &gt;</text>
<polyline fill="none" stroke="#000000" points="240.5,-743.5 410.5,-743.5 "/>
<text text-anchor="middle" x="325.5" y="-731.5" font-family="Helvetica,sans-Serif" font-size="10.00" fill="#000000"> </text>
<polyline fill="none" stroke="#000000" points="240.5,-724.5 410.5,-724.5 "/>
<text text-anchor="start" x="248.5" y="-712.5" font-family="Helvetica,sans-Serif" font-size="10.00" fill="#000000">+ AbstractMeshWriter()</text>
<text text-anchor="start" x="248.5" y="-701.5" font-family="Helvetica,sans-Serif" font-size="10.00" fill="#000000">+ ~AbstractMeshWriter()</text>
<text text-anchor="start" x="248.5" y="-690.5" font-family="Helvetica,sans-Serif" font-size="10.00" fill="#000000">+ GetOutputDirectory()</text>
<text text-anchor="start" x="248.5" y="-679.5" font-family="Helvetica,sans-Serif" font-size="10.00" fill="#000000">+ GetNumNodes()</text>
<text text-anchor="start" x="248.5" y="-668.5" font-family="Helvetica,sans-Serif" font-size="10.00" fill="#000000">+ GetNumElements()</text>
<text text-anchor="start" x="248.5" y="-657.5" font-family="Helvetica,sans-Serif" font-size="10.00" fill="#000000">+ GetNumBoundaryFaces()</text>
<text text-anchor="start" x="248.5" y="-646.5" font-family="Helvetica,sans-Serif" font-size="10.00" fill="#000000">+ GetNumCableElements()</text>
<text text-anchor="start" x="248.5" y="-635.5" font-family="Helvetica,sans-Serif" font-size="10.00" fill="#000000">+ GetNextNode()</text>
<text text-anchor="start" x="248.5" y="-624.5" font-family="Helvetica,sans-Serif" font-size="10.00" fill="#000000">+ GetNextElement()</text>
<text text-anchor="start" x="248.5" y="-613.5" font-family="Helvetica,sans-Serif" font-size="10.00" fill="#000000">+ GetNextBoundaryElement()</text>
<text text-anchor="start" x="248.5" y="-602.5" font-family="Helvetica,sans-Serif" font-size="10.00" fill="#000000">+ GetNextCableElement()</text>
<text text-anchor="start" x="248.5" y="-591.5" font-family="Helvetica,sans-Serif" font-size="10.00" fill="#000000">+ WriteFiles()</text>
<text text-anchor="start" x="248.5" y="-580.5" font-family="Helvetica,sans-Serif" font-size="10.00" fill="#000000">+ WriteFilesUsingMeshReader()</text>
</a>
</g>
</g>
<!-- Node5&#45;&gt;Node4 -->
<g id="edge2" class="edge">
<title>Node5&#45;&gt;Node4</title>
<path fill="none" stroke="#191970" d="M419.5194,-609.2481C457.3065,-585.8399 502.1365,-560.9815 545.5,-544 737.9857,-468.6212 979.4327,-429.7139 1105.2868,-413.3048"/>
<polygon fill="none" stroke="#191970" points="417.1935,-606.5747 410.5716,-614.8452 420.9057,-612.5093 417.1935,-606.5747"/>
</g>
<!-- Node6 -->
<g id="node4" class="node">
<title>Node6</title>
<g id="a_node4"><a xlink:href="classOutputFileHandler.html" target="_top" xlink:title="{OutputFileHandler\n||+ OutputFileHandler()\l+ OutputFileHandler()\l+ GetOutputDirectoryFullPath()\l+ GetRelativePath()\l+ SetArchiveDirectory()\l+ OpenOutputFile()\l+ OpenOutputFile()\l+ CopyFileTo()\l+ FindFile()\l+ GetChasteTestOutputDirectory()\l&#45; CommonConstructor()\l&#45; MakeFoldersAndReturnFullPath()\l&#45; AddTrailingSlash()\l}">
<polygon fill="#ffffff" stroke="#000000" points="0,-854.5 0,-1043.5 167,-1043.5 167,-854.5 0,-854.5"/>
<text text-anchor="middle" x="83.5" y="-1031.5" font-family="Helvetica,sans-Serif" font-size="10.00" fill="#000000">OutputFileHandler</text>
<polyline fill="none" stroke="#000000" points="0,-1024.5 167,-1024.5 "/>
<text text-anchor="middle" x="83.5" y="-1012.5" font-family="Helvetica,sans-Serif" font-size="10.00" fill="#000000"> </text>
<polyline fill="none" stroke="#000000" points="0,-1005.5 167,-1005.5 "/>
<text text-anchor="start" x="8" y="-993.5" font-family="Helvetica,sans-Serif" font-size="10.00" fill="#000000">+ OutputFileHandler()</text>
<text text-anchor="start" x="8" y="-982.5" font-family="Helvetica,sans-Serif" font-size="10.00" fill="#000000">+ OutputFileHandler()</text>
<text text-anchor="start" x="8" y="-971.5" font-family="Helvetica,sans-Serif" font-size="10.00" fill="#000000">+ GetOutputDirectoryFullPath()</text>
<text text-anchor="start" x="8" y="-960.5" font-family="Helvetica,sans-Serif" font-size="10.00" fill="#000000">+ GetRelativePath()</text>
<text text-anchor="start" x="8" y="-949.5" font-family="Helvetica,sans-Serif" font-size="10.00" fill="#000000">+ SetArchiveDirectory()</text>
<text text-anchor="start" x="8" y="-938.5" font-family="Helvetica,sans-Serif" font-size="10.00" fill="#000000">+ OpenOutputFile()</text>
<text text-anchor="start" x="8" y="-927.5" font-family="Helvetica,sans-Serif" font-size="10.00" fill="#000000">+ OpenOutputFile()</text>
<text text-anchor="start" x="8" y="-916.5" font-family="Helvetica,sans-Serif" font-size="10.00" fill="#000000">+ CopyFileTo()</text>
<text text-anchor="start" x="8" y="-905.5" font-family="Helvetica,sans-Serif" font-size="10.00" fill="#000000">+ FindFile()</text>
<text text-anchor="start" x="8" y="-894.5" font-family="Helvetica,sans-Serif" font-size="10.00" fill="#000000">+ GetChasteTestOutputDirectory()</text>
<text text-anchor="start" x="8" y="-883.5" font-family="Helvetica,sans-Serif" font-size="10.00" fill="#000000">&#45; CommonConstructor()</text>
<text text-anchor="start" x="8" y="-872.5" font-family="Helvetica,sans-Serif" font-size="10.00" fill="#000000">&#45; MakeFoldersAndReturnFullPath()</text>
<text text-anchor="start" x="8" y="-861.5" font-family="Helvetica,sans-Serif" font-size="10.00" fill="#000000">&#45; AddTrailingSlash()</text>
</a>
</g>
</g>
<!-- Node6&#45;&gt;Node5 -->
<g id="edge3" class="edge">
<title>Node6&#45;&gt;Node5</title>
<path fill="none" stroke="#404040" d="M69.9758,-854.0906C71.0566,-832.3509 75.8548,-810.2825 87.5,-792 118.9685,-742.5955 177.7223,-713.0528 228.9772,-695.8206"/>
<polygon fill="none" stroke="#404040" points="229.0414,-695.8 233.525,-690.1522 240.4628,-692.1187 235.9792,-697.7665 229.0414,-695.8"/>
<text text-anchor="middle" x="138" y="-811.5" font-family="Helvetica,sans-Serif" font-size="10.00" fill="#000000"> #mpOutputFileHandler</text>
</g>
<!-- Node7 -->
<g id="node5" class="node">
<title>Node7</title>
<polygon fill="#ffffff" stroke="#bfbfbf" points="79,-1091.5 79,-1148.5 120,-1148.5 120,-1091.5 79,-1091.5"/>
<text text-anchor="middle" x="99.5" y="-1136.5" font-family="Helvetica,sans-Serif" font-size="10.00" fill="#000000">string</text>
<polyline fill="none" stroke="#bfbfbf" points="79,-1129.5 120,-1129.5 "/>
<text text-anchor="middle" x="99.5" y="-1117.5" font-family="Helvetica,sans-Serif" font-size="10.00" fill="#000000"> </text>
<polyline fill="none" stroke="#bfbfbf" points="79,-1110.5 120,-1110.5 "/>
<text text-anchor="middle" x="99.5" y="-1098.5" font-family="Helvetica,sans-Serif" font-size="10.00" fill="#000000"> </text>
</g>
<!-- Node7&#45;&gt;Node5 -->
<g id="edge6" class="edge">
<title>Node7&#45;&gt;Node5</title>
<path fill="none" stroke="#404040" d="M120.0225,-1115.0438C140.7157,-1108.8893 171.7797,-1096.2416 187.5,-1073 242.3586,-991.8946 179.1941,-946.4331 211.5,-854 219.787,-830.2894 231.6751,-806.4834 244.6772,-784.2941"/>
<polygon fill="none" stroke="#404040" points="244.7524,-784.1688 244.4109,-776.9658 250.9285,-773.8802 251.27,-781.0832 244.7524,-784.1688"/>
<text text-anchor="middle" x="244.5" y="-946.5" font-family="Helvetica,sans-Serif" font-size="10.00" fill="#000000"> #mBaseName</text>
</g>
<!-- Node7&#45;&gt;Node6 -->
<g id="edge4" class="edge">
<title>Node7&#45;&gt;Node6</title>
<path fill="none" stroke="#404040" d="M78.9047,-1113.8413C60.4342,-1107.0985 34.4567,-1094.3064 22.5,-1073 19.3629,-1067.4098 17.5451,-1061.6358 16.8054,-1055.7772"/>
<polygon fill="none" stroke="#404040" points="16.8048,-1055.6643 12.7645,-1049.6914 16.724,-1043.6646 20.7643,-1049.6375 16.8048,-1055.6643"/>
<text text-anchor="middle" x="50" y="-1065" font-family="Helvetica,sans-Serif" font-size="10.00" fill="#000000"> &#45;mDirectory</text>
</g>
<!-- Node7&#45;&gt;Node6 -->
<g id="edge5" class="edge">
<title>Node7&#45;&gt;Node6</title>
<path fill="none" stroke="#404040" d="M96.822,-1091.3784C95.8616,-1081.1146 94.714,-1068.8493 93.5007,-1055.8829"/>
<polygon fill="none" stroke="#404040" points="93.4896,-1055.763 88.948,-1050.1618 92.3716,-1043.8152 96.9132,-1049.4164 93.4896,-1055.763"/>
<text text-anchor="middle" x="139.5" y="-1065" font-family="Helvetica,sans-Serif" font-size="10.00" fill="#000000"> +SIG_FILE_NAME</text>
</g>
<!-- Node8 -->
<g id="node6" class="node">
<title>Node8</title>
<polygon fill="#ffffff" stroke="#bfbfbf" points="287,-909.5 287,-988.5 424,-988.5 424,-909.5 287,-909.5"/>
<text text-anchor="start" x="295" y="-976.5" font-family="Helvetica,sans-Serif" font-size="10.00" fill="#000000">AbstractMeshReader</text>
<text text-anchor="start" x="295" y="-965.5" font-family="Helvetica,sans-Serif" font-size="10.00" fill="#000000">&lt; ELEMENT_DIM, SPACE</text>
<text text-anchor="middle" x="355.5" y="-954.5" font-family="Helvetica,sans-Serif" font-size="10.00" fill="#000000">_DIM &gt; *</text>
<polyline fill="none" stroke="#bfbfbf" points="287,-947.5 424,-947.5 "/>
<text text-anchor="middle" x="355.5" y="-935.5" font-family="Helvetica,sans-Serif" font-size="10.00" fill="#000000"> </text>
<polyline fill="none" stroke="#bfbfbf" points="287,-928.5 424,-928.5 "/>
<text text-anchor="middle" x="355.5" y="-916.5" font-family="Helvetica,sans-Serif" font-size="10.00" fill="#000000"> </text>
</g>
<!-- Node8&#45;&gt;Node5 -->
<g id="edge7" class="edge">
<title>Node8&#45;&gt;Node5</title>
<path fill="none" stroke="#404040" d="M342.8154,-909.4579C336.572,-887.9773 329.71,-860.8066 326.5,-836 324.4169,-819.9022 323.2197,-802.8322 322.6153,-786.0401"/>
<polygon fill="none" stroke="#404040" points="322.6108,-785.8752 318.4449,-779.9892 322.2758,-773.8799 326.4418,-779.7659 322.6108,-785.8752"/>
<text text-anchor="middle" x="365.5" y="-811.5" font-family="Helvetica,sans-Serif" font-size="10.00" fill="#000000"> #mpMeshReader</text>
</g>
<!-- Node9 -->
<g id="node7" class="node">
<title>Node9</title>
<g id="a_node7"><a xlink:href="classunsigned.html" target="_top" xlink:title="{unsigned\n||}">
<polygon fill="#ffffff" stroke="#000000" points="501.5,-920.5 501.5,-977.5 557.5,-977.5 557.5,-920.5 501.5,-920.5"/>
<text text-anchor="middle" x="529.5" y="-965.5" font-family="Helvetica,sans-Serif" font-size="10.00" fill="#000000">unsigned</text>
<polyline fill="none" stroke="#000000" points="501.5,-958.5 557.5,-958.5 "/>
<text text-anchor="middle" x="529.5" y="-946.5" font-family="Helvetica,sans-Serif" font-size="10.00" fill="#000000"> </text>
<polyline fill="none" stroke="#000000" points="501.5,-939.5 557.5,-939.5 "/>
<text text-anchor="middle" x="529.5" y="-927.5" font-family="Helvetica,sans-Serif" font-size="10.00" fill="#000000"> </text>
</a>
</g>
</g>
<!-- Node9&#45;&gt;Node4 -->
<g id="edge16" class="edge">
<title>Node9&#45;&gt;Node4</title>
<path fill="none" stroke="#404040" d="M534.0018,-920.2586C537.4694,-897.4528 542.2109,-864.7405 545.5,-836 558.8407,-719.4259 493.2712,-663.0452 568.5,-573 635.5088,-492.7937 935.7844,-439.403 1093.3138,-416.3892"/>
<polygon fill="none" stroke="#404040" points="1093.4519,-416.3693 1098.8179,-411.552 1105.3285,-414.6524 1099.9625,-419.4697 1093.4519,-416.3693"/>
<text text-anchor="start" x="568.5" y="-715" font-family="Helvetica,sans-Serif" font-size="10.00" fill="#000000"> #mNodeCounterForParallel</text>
<text text-anchor="middle" x="654.5" y="-704" font-family="Helvetica,sans-Serif" font-size="10.00" fill="#000000">Mesh</text>
<text text-anchor="middle" x="654.5" y="-693" font-family="Helvetica,sans-Serif" font-size="10.00" fill="#000000">#mNodesPerBoundaryElement</text>
<text text-anchor="start" x="568.5" y="-682" font-family="Helvetica,sans-Serif" font-size="10.00" fill="#000000">#mCableElementCounterForParallel</text>
<text text-anchor="middle" x="654.5" y="-671" font-family="Helvetica,sans-Serif" font-size="10.00" fill="#000000">Mesh</text>
<text text-anchor="start" x="568.5" y="-660" font-family="Helvetica,sans-Serif" font-size="10.00" fill="#000000">#mBoundaryElementCounterForParallel</text>
<text text-anchor="middle" x="654.5" y="-649" font-family="Helvetica,sans-Serif" font-size="10.00" fill="#000000">Mesh</text>
<text text-anchor="middle" x="654.5" y="-638" font-family="Helvetica,sans-Serif" font-size="10.00" fill="#000000">#mElementCounterForParallelMesh</text>
<text text-anchor="middle" x="654.5" y="-627" font-family="Helvetica,sans-Serif" font-size="10.00" fill="#000000">#mNodesPerElement</text>
</g>
<!-- Node9&#45;&gt;Node5 -->
<g id="edge8" class="edge">
<title>Node9&#45;&gt;Node5</title>
<path fill="none" stroke="#404040" d="M501.3948,-921.8818C479.6168,-899.9713 449.5401,-867.6711 427.5,-836 414.8957,-817.8879 415.747,-810.9847 404.5,-792 402.9286,-789.3476 401.3229,-786.6724 399.6899,-783.983"/>
<polygon fill="none" stroke="#404040" points="399.5623,-783.7757 393.0105,-780.7635 393.2711,-773.5571 399.8229,-776.5693 399.5623,-783.7757"/>
<text text-anchor="middle" x="486.5" y="-828" font-family="Helvetica,sans-Serif" font-size="10.00" fill="#000000"> #mNumCableElements</text>
<text text-anchor="middle" x="486.5" y="-817" font-family="Helvetica,sans-Serif" font-size="10.00" fill="#000000">#mNumElements</text>
<text text-anchor="middle" x="486.5" y="-806" font-family="Helvetica,sans-Serif" font-size="10.00" fill="#000000">#mNumBoundaryElements</text>
<text text-anchor="middle" x="486.5" y="-795" font-family="Helvetica,sans-Serif" font-size="10.00" fill="#000000">#mNumNodes</text>
</g>
<!-- Node10 -->
<g id="node8" class="node">
<title>Node10</title>
<polygon fill="#ffffff" stroke="#bfbfbf" points="750,-639.5 750,-707.5 927,-707.5 927,-639.5 750,-639.5"/>
<text text-anchor="start" x="758" y="-695.5" font-family="Helvetica,sans-Serif" font-size="10.00" fill="#000000">DistributedTetrahedralMesh</text>
<text text-anchor="middle" x="838.5" y="-684.5" font-family="Helvetica,sans-Serif" font-size="10.00" fill="#000000">&lt; ELEMENT_DIM, SPACE_DIM &gt; *</text>
<polyline fill="none" stroke="#bfbfbf" points="750,-677.5 927,-677.5 "/>
<text text-anchor="middle" x="838.5" y="-665.5" font-family="Helvetica,sans-Serif" font-size="10.00" fill="#000000"> </text>
<polyline fill="none" stroke="#bfbfbf" points="750,-658.5 927,-658.5 "/>
<text text-anchor="middle" x="838.5" y="-646.5" font-family="Helvetica,sans-Serif" font-size="10.00" fill="#000000"> </text>
</g>
<!-- Node10&#45;&gt;Node4 -->
<g id="edge9" class="edge">
<title>Node10&#45;&gt;Node4</title>
<path fill="none" stroke="#404040" d="M868.2656,-639.0967C886.6501,-618.7855 911.2855,-593.1846 935.5,-573 985.3436,-531.4516 1045.6313,-490.9879 1095.0705,-460.021"/>
<polygon fill="none" stroke="#404040" points="1095.2609,-459.9025 1098.2403,-453.3357 1105.4479,-453.5602 1102.4685,-460.1271 1095.2609,-459.9025"/>
<text text-anchor="middle" x="1015.5" y="-547" font-family="Helvetica,sans-Serif" font-size="10.00" fill="#000000"> #mpDistributedMesh</text>
</g>
<!-- Node11 -->
<g id="node9" class="node">
<title>Node11</title>
<polygon fill="#ffffff" stroke="#bfbfbf" points="945,-639.5 945,-707.5 1122,-707.5 1122,-639.5 945,-639.5"/>
<text text-anchor="start" x="953" y="-695.5" font-family="Helvetica,sans-Serif" font-size="10.00" fill="#000000">AbstractTetrahedralMesh</text>
<text text-anchor="middle" x="1033.5" y="-684.5" font-family="Helvetica,sans-Serif" font-size="10.00" fill="#000000">&lt; ELEMENT_DIM, SPACE_DIM &gt; *</text>
<polyline fill="none" stroke="#bfbfbf" points="945,-677.5 1122,-677.5 "/>
<text text-anchor="middle" x="1033.5" y="-665.5" font-family="Helvetica,sans-Serif" font-size="10.00" fill="#000000"> </text>
<polyline fill="none" stroke="#bfbfbf" points="945,-658.5 1122,-658.5 "/>
<text text-anchor="middle" x="1033.5" y="-646.5" font-family="Helvetica,sans-Serif" font-size="10.00" fill="#000000"> </text>
</g>
<!-- Node11&#45;&gt;Node4 -->
<g id="edge10" class="edge">
<title>Node11&#45;&gt;Node4</title>
<path fill="none" stroke="#404040" d="M1053.3842,-639.3043C1068.7325,-612.9091 1091.0265,-574.5691 1113.1936,-536.4473"/>
<polygon fill="none" stroke="#404040" points="1113.4044,-536.0847 1112.9626,-528.8871 1119.4366,-525.711 1119.8784,-532.9085 1113.4044,-536.0847"/>
<text text-anchor="middle" x="1130.5" y="-547" font-family="Helvetica,sans-Serif" font-size="10.00" fill="#000000"> #mpMesh</text>
</g>
<!-- Node12 -->
<g id="node10" class="node">
<title>Node12</title>
<g id="a_node10"><a xlink:href="classNodeMap.html" target="_top" xlink:title="{NodeMap\n||+ NodeMap()\l+ Resize()\l+ ResetToIdentity()\l+ SetNewIndex()\l+ SetDeleted()\l+ IsDeleted()\l+ GetNewIndex()\l+ IsIdentityMap()\l+ GetSize()\l}">
<polygon fill="#ffffff" stroke="#000000" points="1140,-601 1140,-746 1241,-746 1241,-601 1140,-601"/>
<text text-anchor="middle" x="1190.5" y="-734" font-family="Helvetica,sans-Serif" font-size="10.00" fill="#000000">NodeMap</text>
<polyline fill="none" stroke="#000000" points="1140,-727 1241,-727 "/>
<text text-anchor="middle" x="1190.5" y="-715" font-family="Helvetica,sans-Serif" font-size="10.00" fill="#000000"> </text>
<polyline fill="none" stroke="#000000" points="1140,-708 1241,-708 "/>
<text text-anchor="start" x="1148" y="-696" font-family="Helvetica,sans-Serif" font-size="10.00" fill="#000000">+ NodeMap()</text>
<text text-anchor="start" x="1148" y="-685" font-family="Helvetica,sans-Serif" font-size="10.00" fill="#000000">+ Resize()</text>
<text text-anchor="start" x="1148" y="-674" font-family="Helvetica,sans-Serif" font-size="10.00" fill="#000000">+ ResetToIdentity()</text>
<text text-anchor="start" x="1148" y="-663" font-family="Helvetica,sans-Serif" font-size="10.00" fill="#000000">+ SetNewIndex()</text>
<text text-anchor="start" x="1148" y="-652" font-family="Helvetica,sans-Serif" font-size="10.00" fill="#000000">+ SetDeleted()</text>
<text text-anchor="start" x="1148" y="-641" font-family="Helvetica,sans-Serif" font-size="10.00" fill="#000000">+ IsDeleted()</text>
<text text-anchor="start" x="1148" y="-630" font-family="Helvetica,sans-Serif" font-size="10.00" fill="#000000">+ GetNewIndex()</text>
<text text-anchor="start" x="1148" y="-619" font-family="Helvetica,sans-Serif" font-size="10.00" fill="#000000">+ IsIdentityMap()</text>
<text text-anchor="start" x="1148" y="-608" font-family="Helvetica,sans-Serif" font-size="10.00" fill="#000000">+ GetSize()</text>
</a>
</g>
</g>
<!-- Node12&#45;&gt;Node4 -->
<g id="edge11" class="edge">
<title>Node12&#45;&gt;Node4</title>
<path fill="none" stroke="#404040" d="M1190.5,-600.7898C1190.5,-581.2195 1190.5,-559.4124 1190.5,-537.6353"/>
<polygon fill="none" stroke="#404040" points="1190.5001,-537.5544 1186.5,-531.5544 1190.5,-525.5544 1194.5,-531.5544 1190.5001,-537.5544"/>
<text text-anchor="middle" x="1221.5" y="-547" font-family="Helvetica,sans-Serif" font-size="10.00" fill="#000000"> &#45;mpNodeMap</text>
</g>
<!-- Node13 -->
<g id="node11" class="node">
<title>Node13</title>
<polygon fill="#ffffff" stroke="#bfbfbf" points="1100,-920.5 1100,-977.5 1201,-977.5 1201,-920.5 1100,-920.5"/>
<text text-anchor="middle" x="1150.5" y="-965.5" font-family="Helvetica,sans-Serif" font-size="10.00" fill="#000000">vector&lt; unsigned &gt;</text>
<polyline fill="none" stroke="#bfbfbf" points="1100,-958.5 1201,-958.5 "/>
<text text-anchor="middle" x="1150.5" y="-946.5" font-family="Helvetica,sans-Serif" font-size="10.00" fill="#000000"> </text>
<polyline fill="none" stroke="#bfbfbf" points="1100,-939.5 1201,-939.5 "/>
<text text-anchor="middle" x="1150.5" y="-927.5" font-family="Helvetica,sans-Serif" font-size="10.00" fill="#000000"> </text>
</g>
<!-- Node13&#45;&gt;Node12 -->
<g id="edge12" class="edge">
<title>Node13&#45;&gt;Node12</title>
<path fill="none" stroke="#404040" d="M1148.0367,-920.4142C1145.9224,-888.7759 1144.2388,-836.3848 1151.5,-792 1153.3296,-780.816 1156.0406,-769.2535 1159.1962,-757.9342"/>
<polygon fill="none" stroke="#404040" points="1159.2455,-757.7662 1157.0985,-750.8821 1162.6273,-746.2526 1164.7743,-753.1367 1159.2455,-757.7662"/>
<text text-anchor="middle" x="1168.5" y="-811.5" font-family="Helvetica,sans-Serif" font-size="10.00" fill="#000000"> &#45;mMap</text>
</g>
<!-- Node14 -->
<g id="node12" class="node">
<title>Node14</title>
<g id="a_node12"><a xlink:href="classbool.html" target="_top" xlink:title="{bool\n||}">
<polygon fill="#ffffff" stroke="#000000" points="1260,-920.5 1260,-977.5 1295,-977.5 1295,-920.5 1260,-920.5"/>
<text text-anchor="middle" x="1277.5" y="-965.5" font-family="Helvetica,sans-Serif" font-size="10.00" fill="#000000">bool</text>
<polyline fill="none" stroke="#000000" points="1260,-958.5 1295,-958.5 "/>
<text text-anchor="middle" x="1277.5" y="-946.5" font-family="Helvetica,sans-Serif" font-size="10.00" fill="#000000"> </text>
<polyline fill="none" stroke="#000000" points="1260,-939.5 1295,-939.5 "/>
<text text-anchor="middle" x="1277.5" y="-927.5" font-family="Helvetica,sans-Serif" font-size="10.00" fill="#000000"> </text>
</a>
</g>
</g>
<!-- Node14&#45;&gt;Node3 -->
<g id="edge21" class="edge">
<title>Node14&#45;&gt;Node3</title>
<path fill="none" stroke="#404040" d="M1295.0737,-947.5068C1359.3798,-941.0086 1583.1416,-909.0932 1679.5,-774 1807.1336,-595.0593 1634.2662,-484.0142 1718.5,-281 1733.6996,-244.367 1759.9449,-209.9165 1785.9652,-181.7654"/>
<polygon fill="none" stroke="#404040" points="1786.1477,-181.5723 1787.3626,-174.4643 1794.3912,-172.8519 1793.1762,-179.96 1786.1477,-181.5723"/>
<text text-anchor="middle" x="1765" y="-547" font-family="Helvetica,sans-Serif" font-size="10.00" fill="#000000"> &#45;mWriteParallelFiles</text>
</g>
<!-- Node14&#45;&gt;Node4 -->
<g id="edge15" class="edge">
<title>Node14&#45;&gt;Node4</title>
<path fill="none" stroke="#404040" d="M1279.7378,-920.4601C1284.1903,-853.5088 1290.9777,-681.6168 1256.5,-544 1255.9587,-541.8392 1255.3835,-539.6715 1254.7772,-537.4996"/>
<polygon fill="none" stroke="#404040" points="1254.7304,-537.3447 1249.1637,-532.7608 1251.254,-525.8593 1256.8206,-530.4432 1254.7304,-537.3447"/>
<text text-anchor="middle" x="1325" y="-682" font-family="Helvetica,sans-Serif" font-size="10.00" fill="#000000"> #mIndexFromZero</text>
<text text-anchor="middle" x="1325" y="-671" font-family="Helvetica,sans-Serif" font-size="10.00" fill="#000000">#mFilesAreBinary</text>
<text text-anchor="middle" x="1325" y="-660" font-family="Helvetica,sans-Serif" font-size="10.00" fill="#000000">#mWriteMetaFile</text>
</g>
<!-- Node14&#45;&gt;Node12 -->
<g id="edge13" class="edge">
<title>Node14&#45;&gt;Node12</title>
<path fill="none" stroke="#404040" d="M1259.7592,-926.6941C1243.4769,-904.9137 1220.1688,-870.1499 1208.5,-836 1200.1396,-811.5325 1195.45,-783.9023 1192.8772,-758.4582"/>
<polygon fill="none" stroke="#404040" points="1192.8469,-758.1188 1188.3281,-752.4992 1191.7775,-746.1665 1196.2963,-751.7862 1192.8469,-758.1188"/>
<text text-anchor="middle" x="1236" y="-811.5" font-family="Helvetica,sans-Serif" font-size="10.00" fill="#000000"> &#45;mIsIdentity</text>
</g>
<!-- Node15 -->
<g id="node13" class="node">
<title>Node15</title>
<polygon fill="#ffffff" stroke="#bfbfbf" points="1379,-634 1379,-713 1516,-713 1516,-634 1379,-634"/>
<text text-anchor="start" x="1387" y="-701" font-family="Helvetica,sans-Serif" font-size="10.00" fill="#000000">MeshWriterIterators</text>
<text text-anchor="start" x="1387" y="-690" font-family="Helvetica,sans-Serif" font-size="10.00" fill="#000000">&lt; ELEMENT_DIM, SPACE</text>
<text text-anchor="middle" x="1447.5" y="-679" font-family="Helvetica,sans-Serif" font-size="10.00" fill="#000000">_DIM &gt; *</text>
<polyline fill="none" stroke="#bfbfbf" points="1379,-672 1516,-672 "/>
<text text-anchor="middle" x="1447.5" y="-660" font-family="Helvetica,sans-Serif" font-size="10.00" fill="#000000"> </text>
<polyline fill="none" stroke="#bfbfbf" points="1379,-653 1516,-653 "/>
<text text-anchor="middle" x="1447.5" y="-641" font-family="Helvetica,sans-Serif" font-size="10.00" fill="#000000"> </text>
</g>
<!-- Node15&#45;&gt;Node4 -->
<g id="edge14" class="edge">
<title>Node15&#45;&gt;Node4</title>
<path fill="none" stroke="#404040" d="M1416.1382,-633.5262C1400.9942,-614.7511 1382.2851,-592.3063 1364.5,-573 1339.3422,-545.6903 1310.9071,-517.1159 1284.425,-491.3771"/>
<polygon fill="none" stroke="#404040" points="1284.1485,-491.1095 1277.0554,-489.8102 1275.5266,-482.763 1282.6197,-484.0622 1284.1485,-491.1095"/>
<text text-anchor="middle" x="1367.5" y="-547" font-family="Helvetica,sans-Serif" font-size="10.00" fill="#000000"> #mpIters</text>
</g>
<!-- Node16 -->
<g id="node14" class="node">
<title>Node16</title>
<polygon fill="#ffffff" stroke="#bfbfbf" points="1534,-634 1534,-713 1671,-713 1671,-634 1534,-634"/>
<text text-anchor="start" x="1542" y="-701" font-family="Helvetica,sans-Serif" font-size="10.00" fill="#000000">MixedDimensionMesh</text>
<text text-anchor="start" x="1542" y="-690" font-family="Helvetica,sans-Serif" font-size="10.00" fill="#000000">&lt; ELEMENT_DIM, SPACE</text>
<text text-anchor="middle" x="1602.5" y="-679" font-family="Helvetica,sans-Serif" font-size="10.00" fill="#000000">_DIM &gt; *</text>
<polyline fill="none" stroke="#bfbfbf" points="1534,-672 1671,-672 "/>
<text text-anchor="middle" x="1602.5" y="-660" font-family="Helvetica,sans-Serif" font-size="10.00" fill="#000000"> </text>
<polyline fill="none" stroke="#bfbfbf" points="1534,-653 1671,-653 "/>
<text text-anchor="middle" x="1602.5" y="-641" font-family="Helvetica,sans-Serif" font-size="10.00" fill="#000000"> </text>
</g>
<!-- Node16&#45;&gt;Node4 -->
<g id="edge17" class="edge">
<title>Node16&#45;&gt;Node4</title>
<path fill="none" stroke="#404040" d="M1577.8385,-633.8209C1563.9667,-613.7848 1545.278,-590.1559 1524.5,-573 1453.1339,-514.0747 1357.8839,-468.2784 1287.366,-439.2261"/>
<polygon fill="none" stroke="#404040" points="1286.942,-439.0536 1279.8768,-440.4969 1275.8271,-434.5304 1282.8923,-433.087 1286.942,-439.0536"/>
<text text-anchor="middle" x="1538" y="-547" font-family="Helvetica,sans-Serif" font-size="10.00" fill="#000000"> #mpMixedMesh</text>
</g>
<!-- Node17 -->
<g id="node15" class="node">
<title>Node17</title>
<polygon fill="#ffffff" stroke="#bfbfbf" points="1728,-375 1728,-432 1865,-432 1865,-375 1728,-375"/>
<text text-anchor="middle" x="1796.5" y="-420" font-family="Helvetica,sans-Serif" font-size="10.00" fill="#000000">map&lt; unsigned, unsigned &gt;</text>
<polyline fill="none" stroke="#bfbfbf" points="1728,-413 1865,-413 "/>
<text text-anchor="middle" x="1796.5" y="-401" font-family="Helvetica,sans-Serif" font-size="10.00" fill="#000000"> </text>
<polyline fill="none" stroke="#bfbfbf" points="1728,-394 1865,-394 "/>
<text text-anchor="middle" x="1796.5" y="-382" font-family="Helvetica,sans-Serif" font-size="10.00" fill="#000000"> </text>
</g>
<!-- Node17&#45;&gt;Node3 -->
<g id="edge18" class="edge">
<title>Node17&#45;&gt;Node3</title>
<path fill="none" stroke="#404040" d="M1791.474,-374.799C1786.7413,-341.916 1781.9435,-286.6827 1793.5,-241 1794.0519,-238.8185 1794.6486,-236.6339 1795.2864,-234.4489"/>
<polygon fill="none" stroke="#404040" points="1795.3693,-234.1927 1793.4134,-227.2519 1799.0679,-222.7769 1801.0239,-229.7176 1795.3693,-234.1927"/>
<text text-anchor="middle" x="1853.5" y="-249.5" font-family="Helvetica,sans-Serif" font-size="10.00" fill="#000000"> &#45;mGlobalToNodeIndexMap</text>
</g>
<!-- Node18 -->
<g id="node16" class="node">
<title>Node18</title>
<polygon fill="#ffffff" stroke="#bfbfbf" points="1886,-369.5 1886,-437.5 1985,-437.5 1985,-369.5 1886,-369.5"/>
<text text-anchor="start" x="1894" y="-425.5" font-family="Helvetica,sans-Serif" font-size="10.00" fill="#000000">vector&lt; std::vector</text>
<text text-anchor="middle" x="1935.5" y="-414.5" font-family="Helvetica,sans-Serif" font-size="10.00" fill="#000000">&lt; unsigned &gt; &gt;</text>
<polyline fill="none" stroke="#bfbfbf" points="1886,-407.5 1985,-407.5 "/>
<text text-anchor="middle" x="1935.5" y="-395.5" font-family="Helvetica,sans-Serif" font-size="10.00" fill="#000000"> </text>
<polyline fill="none" stroke="#bfbfbf" points="1886,-388.5 1985,-388.5 "/>
<text text-anchor="middle" x="1935.5" y="-376.5" font-family="Helvetica,sans-Serif" font-size="10.00" fill="#000000"> </text>
</g>
<!-- Node18&#45;&gt;Node3 -->
<g id="edge19" class="edge">
<title>Node18&#45;&gt;Node3</title>
<path fill="none" stroke="#404040" d="M1933.2179,-369.4446C1930.4511,-336.2548 1924.6946,-284.566 1913.5,-241 1912.9152,-238.7242 1912.3024,-236.4338 1911.6646,-234.1334"/>
<polygon fill="none" stroke="#404040" points="1911.6506,-234.085 1906.1268,-229.4495 1908.2812,-222.5677 1913.805,-227.2032 1911.6506,-234.085"/>
<text text-anchor="middle" x="1989.5" y="-255" font-family="Helvetica,sans-Serif" font-size="10.00" fill="#000000"> &#45;mNodesToReceivePerProcess</text>
<text text-anchor="middle" x="1989.5" y="-244" font-family="Helvetica,sans-Serif" font-size="10.00" fill="#000000">&#45;mNodesToSendPerProcess</text>
</g>
<!-- Node19 -->
<g id="node17" class="node">
<title>Node19</title>
<polygon fill="#ffffff" stroke="#bfbfbf" points="2034,-369.5 2034,-437.5 2167,-437.5 2167,-369.5 2034,-369.5"/>
<text text-anchor="start" x="2042" y="-425.5" font-family="Helvetica,sans-Serif" font-size="10.00" fill="#000000">NodesOnlyMesh&lt; SPACE</text>
<text text-anchor="middle" x="2100.5" y="-414.5" font-family="Helvetica,sans-Serif" font-size="10.00" fill="#000000">_DIM &gt; *</text>
<polyline fill="none" stroke="#bfbfbf" points="2034,-407.5 2167,-407.5 "/>
<text text-anchor="middle" x="2100.5" y="-395.5" font-family="Helvetica,sans-Serif" font-size="10.00" fill="#000000"> </text>
<polyline fill="none" stroke="#bfbfbf" points="2034,-388.5 2167,-388.5 "/>
<text text-anchor="middle" x="2100.5" y="-376.5" font-family="Helvetica,sans-Serif" font-size="10.00" fill="#000000"> </text>
</g>
<!-- Node19&#45;&gt;Node3 -->
<g id="edge20" class="edge">
<title>Node19&#45;&gt;Node3</title>
<path fill="none" stroke="#404040" d="M2100.3226,-369.4002C2098.56,-334.2851 2091.2489,-279.416 2064.5,-241 2034.7145,-198.2228 1985.7892,-166.2534 1943.6667,-144.7812"/>
<polygon fill="none" stroke="#404040" points="1943.5894,-144.7429 1936.4369,-145.6613 1932.8383,-139.4123 1939.9907,-138.4939 1943.5894,-144.7429"/>
<text text-anchor="middle" x="2122" y="-249.5" font-family="Helvetica,sans-Serif" font-size="10.00" fill="#000000"> &#45;mpNodesOnlyMesh</text>
</g>
<!-- Node20 -->
<g id="node18" class="node">
<title>Node20</title>
<polygon fill="#ffffff" stroke="#bfbfbf" points="2185,-375 2185,-432 2296,-432 2296,-375 2185,-375"/>
<text text-anchor="middle" x="2240.5" y="-420" font-family="Helvetica,sans-Serif" font-size="10.00" fill="#000000">vtkUnstructuredGrid *</text>
<polyline fill="none" stroke="#bfbfbf" points="2185,-413 2296,-413 "/>
<text text-anchor="middle" x="2240.5" y="-401" font-family="Helvetica,sans-Serif" font-size="10.00" fill="#000000"> </text>
<polyline fill="none" stroke="#bfbfbf" points="2185,-394 2296,-394 "/>
<text text-anchor="middle" x="2240.5" y="-382" font-family="Helvetica,sans-Serif" font-size="10.00" fill="#000000"> </text>
</g>
<!-- Node20&#45;&gt;Node3 -->
<g id="edge22" class="edge">
<title>Node20&#45;&gt;Node3</title>
<path fill="none" stroke="#404040" d="M2235.4187,-374.8226C2227.7029,-339.1232 2209.793,-278.3131 2172.5,-241 2110.1453,-178.6117 2013.2375,-144.6957 1944.5925,-127.4118"/>
<polygon fill="none" stroke="#404040" points="1944.2058,-127.3176 1937.4292,-129.7829 1932.5472,-124.4758 1939.3238,-122.0105 1944.2058,-127.3176"/>
<text text-anchor="middle" x="2244" y="-249.5" font-family="Helvetica,sans-Serif" font-size="10.00" fill="#000000"> &#45;mpVtkUnstructedMesh</text>
</g>
</g>
</svg>
