<?xml version="1.0" encoding="UTF-8" standalone="no"?>
<!DOCTYPE svg PUBLIC "-//W3C//DTD SVG 1.1//EN"
 "http://www.w3.org/Graphics/SVG/1.1/DTD/svg11.dtd">
<!-- Generated by graphviz version 2.40.1 (20161225.0304)
 -->
<!-- Title: TrianglesMeshWriter&lt; ELEMENT_DIM, SPACE_DIM &gt; Pages: 1 -->
<svg width="1699pt" height="1059pt"
 viewBox="0.00 0.00 1699.28 1059.00" xmlns="http://www.w3.org/2000/svg" xmlns:xlink="http://www.w3.org/1999/xlink">
<g id="graph0" class="graph" transform="scale(1 1) rotate(0) translate(4 1055)">
<title>TrianglesMeshWriter&lt; ELEMENT_DIM, SPACE_DIM &gt;</title>
<polygon fill="#ffffff" stroke="transparent" points="-4,4 -4,-1055 1695.2755,-1055 1695.2755,4 -4,4"/>
<!-- Node3 -->
<g id="node1" class="node">
<title>Node3</title>
<polygon fill="#bfbfbf" stroke="#000000" points="1024.7755,-.5 1024.7755,-145.5 1194.7755,-145.5 1194.7755,-.5 1024.7755,-.5"/>
<text text-anchor="start" x="1032.7755" y="-133.5" font-family="Helvetica,sans-Serif" font-size="10.00" fill="#000000">TrianglesMeshWriter</text>
<text text-anchor="middle" x="1109.7755" y="-122.5" font-family="Helvetica,sans-Serif" font-size="10.00" fill="#000000">&lt; ELEMENT_DIM, SPACE_DIM &gt;</text>
<polyline fill="none" stroke="#000000" points="1024.7755,-115.5 1194.7755,-115.5 "/>
<text text-anchor="middle" x="1109.7755" y="-103.5" font-family="Helvetica,sans-Serif" font-size="10.00" fill="#000000"> </text>
<polyline fill="none" stroke="#000000" points="1024.7755,-96.5 1194.7755,-96.5 "/>
<text text-anchor="start" x="1032.7755" y="-84.5" font-family="Helvetica,sans-Serif" font-size="10.00" fill="#000000">+ TrianglesMeshWriter()</text>
<text text-anchor="start" x="1032.7755" y="-73.5" font-family="Helvetica,sans-Serif" font-size="10.00" fill="#000000">+ SetWriteFilesAsBinary()</text>
<text text-anchor="start" x="1032.7755" y="-62.5" font-family="Helvetica,sans-Serif" font-size="10.00" fill="#000000">+ WriteFiles()</text>
<text text-anchor="start" x="1032.7755" y="-51.5" font-family="Helvetica,sans-Serif" font-size="10.00" fill="#000000">+ WriteElementsAsFaces()</text>
<text text-anchor="start" x="1032.7755" y="-40.5" font-family="Helvetica,sans-Serif" font-size="10.00" fill="#000000">+ WriteFacesAsEdges()</text>
<text text-anchor="start" x="1032.7755" y="-29.5" font-family="Helvetica,sans-Serif" font-size="10.00" fill="#000000">+ WriteItem()</text>
<text text-anchor="start" x="1032.7755" y="-18.5" font-family="Helvetica,sans-Serif" font-size="10.00" fill="#000000">+ WriteItem()</text>
<text text-anchor="start" x="1032.7755" y="-7.5" font-family="Helvetica,sans-Serif" font-size="10.00" fill="#000000">+ ~TrianglesMeshWriter()</text>
</g>
<!-- Node4 -->
<g id="node2" class="node">
<title>Node4</title>
<g id="a_node2"><a xlink:href="classAbstractTetrahedralMeshWriter.html" target="_top" xlink:title="{AbstractTetrahedralMeshWriter\l\&lt; ELEMENT_DIM, SPACE_DIM \&gt;\n||+ AbstractTetrahedralMeshWriter()\l+ ~AbstractTetrahedralMesh\lWriter()\l+ WriteFilesUsingMesh()\l+ WriteFilesUsingMeshReader\lAndMesh()\l+ GetNextNode()\l+ GetNextElement()\l+ GetNextBoundaryElement()\l+ GetNextCableElement()\l&#45; PostElement()\l&#45; UnpackElement()\l&#45; WriteFilesUsingParallelMesh()\l&#45; WriteNclFile()\l&#45; CreateFilesWithHeaders()\l&#45; AppendLocalDataToFiles()\l&#45; WriteFilesFooter()\l}">
<polygon fill="#ffffff" stroke="#000000" points="1024.7755,-183.5 1024.7755,-427.5 1194.7755,-427.5 1194.7755,-183.5 1024.7755,-183.5"/>
<text text-anchor="start" x="1032.7755" y="-415.5" font-family="Helvetica,sans-Serif" font-size="10.00" fill="#000000">AbstractTetrahedralMeshWriter</text>
<text text-anchor="middle" x="1109.7755" y="-404.5" font-family="Helvetica,sans-Serif" font-size="10.00" fill="#000000">&lt; ELEMENT_DIM, SPACE_DIM &gt;</text>
<polyline fill="none" stroke="#000000" points="1024.7755,-397.5 1194.7755,-397.5 "/>
<text text-anchor="middle" x="1109.7755" y="-385.5" font-family="Helvetica,sans-Serif" font-size="10.00" fill="#000000"> </text>
<polyline fill="none" stroke="#000000" points="1024.7755,-378.5 1194.7755,-378.5 "/>
<text text-anchor="start" x="1032.7755" y="-366.5" font-family="Helvetica,sans-Serif" font-size="10.00" fill="#000000">+ AbstractTetrahedralMeshWriter()</text>
<text text-anchor="start" x="1032.7755" y="-355.5" font-family="Helvetica,sans-Serif" font-size="10.00" fill="#000000">+ ~AbstractTetrahedralMesh</text>
<text text-anchor="start" x="1032.7755" y="-344.5" font-family="Helvetica,sans-Serif" font-size="10.00" fill="#000000">Writer()</text>
<text text-anchor="start" x="1032.7755" y="-333.5" font-family="Helvetica,sans-Serif" font-size="10.00" fill="#000000">+ WriteFilesUsingMesh()</text>
<text text-anchor="start" x="1032.7755" y="-322.5" font-family="Helvetica,sans-Serif" font-size="10.00" fill="#000000">+ WriteFilesUsingMeshReader</text>
<text text-anchor="start" x="1032.7755" y="-311.5" font-family="Helvetica,sans-Serif" font-size="10.00" fill="#000000">AndMesh()</text>
<text text-anchor="start" x="1032.7755" y="-300.5" font-family="Helvetica,sans-Serif" font-size="10.00" fill="#000000">+ GetNextNode()</text>
<text text-anchor="start" x="1032.7755" y="-289.5" font-family="Helvetica,sans-Serif" font-size="10.00" fill="#000000">+ GetNextElement()</text>
<text text-anchor="start" x="1032.7755" y="-278.5" font-family="Helvetica,sans-Serif" font-size="10.00" fill="#000000">+ GetNextBoundaryElement()</text>
<text text-anchor="start" x="1032.7755" y="-267.5" font-family="Helvetica,sans-Serif" font-size="10.00" fill="#000000">+ GetNextCableElement()</text>
<text text-anchor="start" x="1032.7755" y="-256.5" font-family="Helvetica,sans-Serif" font-size="10.00" fill="#000000">&#45; PostElement()</text>
<text text-anchor="start" x="1032.7755" y="-245.5" font-family="Helvetica,sans-Serif" font-size="10.00" fill="#000000">&#45; UnpackElement()</text>
<text text-anchor="start" x="1032.7755" y="-234.5" font-family="Helvetica,sans-Serif" font-size="10.00" fill="#000000">&#45; WriteFilesUsingParallelMesh()</text>
<text text-anchor="start" x="1032.7755" y="-223.5" font-family="Helvetica,sans-Serif" font-size="10.00" fill="#000000">&#45; WriteNclFile()</text>
<text text-anchor="start" x="1032.7755" y="-212.5" font-family="Helvetica,sans-Serif" font-size="10.00" fill="#000000">&#45; CreateFilesWithHeaders()</text>
<text text-anchor="start" x="1032.7755" y="-201.5" font-family="Helvetica,sans-Serif" font-size="10.00" fill="#000000">&#45; AppendLocalDataToFiles()</text>
<text text-anchor="start" x="1032.7755" y="-190.5" font-family="Helvetica,sans-Serif" font-size="10.00" fill="#000000">&#45; WriteFilesFooter()</text>
</a>
</g>
</g>
<!-- Node4&#45;&gt;Node3 -->
<g id="edge1" class="edge">
<title>Node4&#45;&gt;Node3</title>
<path fill="none" stroke="#191970" d="M1109.7755,-173.1855C1109.7755,-163.7557 1109.7755,-154.4696 1109.7755,-145.582"/>
<polygon fill="none" stroke="#191970" points="1106.2756,-173.4623 1109.7755,-183.4623 1113.2756,-173.4624 1106.2756,-173.4623"/>
</g>
<!-- Node5 -->
<g id="node3" class="node">
<title>Node5</title>
<g id="a_node3"><a xlink:href="classAbstractMeshWriter.html" target="_top" xlink:title="{AbstractMeshWriter\l\&lt; ELEMENT_DIM, SPACE_DIM \&gt;\n||+ AbstractMeshWriter()\l+ ~AbstractMeshWriter()\l+ GetOutputDirectory()\l+ GetNumNodes()\l+ GetNumElements()\l+ GetNumBoundaryFaces()\l+ GetNumCableElements()\l+ GetNextNode()\l+ GetNextElement()\l+ GetNextBoundaryElement()\l+ GetNextCableElement()\l+ WriteFiles()\l+ WriteFilesUsingMeshReader()\l}">
<polygon fill="#ffffff" stroke="#000000" points="260.7755,-475.5 260.7755,-675.5 430.7755,-675.5 430.7755,-475.5 260.7755,-475.5"/>
<text text-anchor="start" x="268.7755" y="-663.5" font-family="Helvetica,sans-Serif" font-size="10.00" fill="#000000">AbstractMeshWriter</text>
<text text-anchor="middle" x="345.7755" y="-652.5" font-family="Helvetica,sans-Serif" font-size="10.00" fill="#000000">&lt; ELEMENT_DIM, SPACE_DIM &gt;</text>
<polyline fill="none" stroke="#000000" points="260.7755,-645.5 430.7755,-645.5 "/>
<text text-anchor="middle" x="345.7755" y="-633.5" font-family="Helvetica,sans-Serif" font-size="10.00" fill="#000000"> </text>
<polyline fill="none" stroke="#000000" points="260.7755,-626.5 430.7755,-626.5 "/>
<text text-anchor="start" x="268.7755" y="-614.5" font-family="Helvetica,sans-Serif" font-size="10.00" fill="#000000">+ AbstractMeshWriter()</text>
<text text-anchor="start" x="268.7755" y="-603.5" font-family="Helvetica,sans-Serif" font-size="10.00" fill="#000000">+ ~AbstractMeshWriter()</text>
<text text-anchor="start" x="268.7755" y="-592.5" font-family="Helvetica,sans-Serif" font-size="10.00" fill="#000000">+ GetOutputDirectory()</text>
<text text-anchor="start" x="268.7755" y="-581.5" font-family="Helvetica,sans-Serif" font-size="10.00" fill="#000000">+ GetNumNodes()</text>
<text text-anchor="start" x="268.7755" y="-570.5" font-family="Helvetica,sans-Serif" font-size="10.00" fill="#000000">+ GetNumElements()</text>
<text text-anchor="start" x="268.7755" y="-559.5" font-family="Helvetica,sans-Serif" font-size="10.00" fill="#000000">+ GetNumBoundaryFaces()</text>
<text text-anchor="start" x="268.7755" y="-548.5" font-family="Helvetica,sans-Serif" font-size="10.00" fill="#000000">+ GetNumCableElements()</text>
<text text-anchor="start" x="268.7755" y="-537.5" font-family="Helvetica,sans-Serif" font-size="10.00" fill="#000000">+ GetNextNode()</text>
<text text-anchor="start" x="268.7755" y="-526.5" font-family="Helvetica,sans-Serif" font-size="10.00" fill="#000000">+ GetNextElement()</text>
<text text-anchor="start" x="268.7755" y="-515.5" font-family="Helvetica,sans-Serif" font-size="10.00" fill="#000000">+ GetNextBoundaryElement()</text>
<text text-anchor="start" x="268.7755" y="-504.5" font-family="Helvetica,sans-Serif" font-size="10.00" fill="#000000">+ GetNextCableElement()</text>
<text text-anchor="start" x="268.7755" y="-493.5" font-family="Helvetica,sans-Serif" font-size="10.00" fill="#000000">+ WriteFiles()</text>
<text text-anchor="start" x="268.7755" y="-482.5" font-family="Helvetica,sans-Serif" font-size="10.00" fill="#000000">+ WriteFilesUsingMeshReader()</text>
</a>
</g>
</g>
<!-- Node5&#45;&gt;Node4 -->
<g id="edge2" class="edge">
<title>Node5&#45;&gt;Node4</title>
<path fill="none" stroke="#191970" d="M439.4129,-512.5592C477.3985,-489.1365 522.4681,-463.9226 565.7755,-446 721.7007,-381.471 915.3173,-339.9934 1024.4751,-319.8809"/>
<polygon fill="none" stroke="#191970" points="437.5646,-509.587 430.9197,-517.839 441.2603,-515.5319 437.5646,-509.587"/>
</g>
<!-- Node6 -->
<g id="node4" class="node">
<title>Node6</title>
<g id="a_node4"><a xlink:href="classOutputFileHandler.html" target="_top" xlink:title="{OutputFileHandler\n||+ OutputFileHandler()\l+ OutputFileHandler()\l+ GetOutputDirectoryFullPath()\l+ GetRelativePath()\l+ SetArchiveDirectory()\l+ OpenOutputFile()\l+ OpenOutputFile()\l+ CopyFileTo()\l+ FindFile()\l+ GetChasteTestOutputDirectory()\l&#45; CommonConstructor()\l&#45; MakeFoldersAndReturnFullPath()\l&#45; AddTrailingSlash()\l}">
<polygon fill="#ffffff" stroke="#000000" points="104.2755,-756.5 104.2755,-945.5 271.2755,-945.5 271.2755,-756.5 104.2755,-756.5"/>
<text text-anchor="middle" x="187.7755" y="-933.5" font-family="Helvetica,sans-Serif" font-size="10.00" fill="#000000">OutputFileHandler</text>
<polyline fill="none" stroke="#000000" points="104.2755,-926.5 271.2755,-926.5 "/>
<text text-anchor="middle" x="187.7755" y="-914.5" font-family="Helvetica,sans-Serif" font-size="10.00" fill="#000000"> </text>
<polyline fill="none" stroke="#000000" points="104.2755,-907.5 271.2755,-907.5 "/>
<text text-anchor="start" x="112.2755" y="-895.5" font-family="Helvetica,sans-Serif" font-size="10.00" fill="#000000">+ OutputFileHandler()</text>
<text text-anchor="start" x="112.2755" y="-884.5" font-family="Helvetica,sans-Serif" font-size="10.00" fill="#000000">+ OutputFileHandler()</text>
<text text-anchor="start" x="112.2755" y="-873.5" font-family="Helvetica,sans-Serif" font-size="10.00" fill="#000000">+ GetOutputDirectoryFullPath()</text>
<text text-anchor="start" x="112.2755" y="-862.5" font-family="Helvetica,sans-Serif" font-size="10.00" fill="#000000">+ GetRelativePath()</text>
<text text-anchor="start" x="112.2755" y="-851.5" font-family="Helvetica,sans-Serif" font-size="10.00" fill="#000000">+ SetArchiveDirectory()</text>
<text text-anchor="start" x="112.2755" y="-840.5" font-family="Helvetica,sans-Serif" font-size="10.00" fill="#000000">+ OpenOutputFile()</text>
<text text-anchor="start" x="112.2755" y="-829.5" font-family="Helvetica,sans-Serif" font-size="10.00" fill="#000000">+ OpenOutputFile()</text>
<text text-anchor="start" x="112.2755" y="-818.5" font-family="Helvetica,sans-Serif" font-size="10.00" fill="#000000">+ CopyFileTo()</text>
<text text-anchor="start" x="112.2755" y="-807.5" font-family="Helvetica,sans-Serif" font-size="10.00" fill="#000000">+ FindFile()</text>
<text text-anchor="start" x="112.2755" y="-796.5" font-family="Helvetica,sans-Serif" font-size="10.00" fill="#000000">+ GetChasteTestOutputDirectory()</text>
<text text-anchor="start" x="112.2755" y="-785.5" font-family="Helvetica,sans-Serif" font-size="10.00" fill="#000000">&#45; CommonConstructor()</text>
<text text-anchor="start" x="112.2755" y="-774.5" font-family="Helvetica,sans-Serif" font-size="10.00" fill="#000000">&#45; MakeFoldersAndReturnFullPath()</text>
<text text-anchor="start" x="112.2755" y="-763.5" font-family="Helvetica,sans-Serif" font-size="10.00" fill="#000000">&#45; AddTrailingSlash()</text>
</a>
</g>
</g>
<!-- Node6&#45;&gt;Node5 -->
<g id="edge3" class="edge">
<title>Node6&#45;&gt;Node5</title>
<path fill="none" stroke="#404040" d="M212.9819,-756.1759C220.4458,-735.0043 229.6668,-713.1647 240.7755,-694 244.6201,-687.3673 248.8733,-680.7734 253.4004,-674.2884"/>
<polygon fill="none" stroke="#404040" points="253.6742,-673.9108 253.9596,-666.7054 260.7205,-664.1974 260.4352,-671.4029 253.6742,-673.9108"/>
<text text-anchor="middle" x="291.2755" y="-713.5" font-family="Helvetica,sans-Serif" font-size="10.00" fill="#000000"> #mpOutputFileHandler</text>
</g>
<!-- Node7 -->
<g id="node5" class="node">
<title>Node7</title>
<polygon fill="#ffffff" stroke="#bfbfbf" points="89.2755,-993.5 89.2755,-1050.5 130.2755,-1050.5 130.2755,-993.5 89.2755,-993.5"/>
<text text-anchor="middle" x="109.7755" y="-1038.5" font-family="Helvetica,sans-Serif" font-size="10.00" fill="#000000">string</text>
<polyline fill="none" stroke="#bfbfbf" points="89.2755,-1031.5 130.2755,-1031.5 "/>
<text text-anchor="middle" x="109.7755" y="-1019.5" font-family="Helvetica,sans-Serif" font-size="10.00" fill="#000000"> </text>
<polyline fill="none" stroke="#bfbfbf" points="89.2755,-1012.5 130.2755,-1012.5 "/>
<text text-anchor="middle" x="109.7755" y="-1000.5" font-family="Helvetica,sans-Serif" font-size="10.00" fill="#000000"> </text>
</g>
<!-- Node7&#45;&gt;Node5 -->
<g id="edge6" class="edge">
<title>Node7&#45;&gt;Node5</title>
<path fill="none" stroke="#404040" d="M88.9479,-1009.6534C69.254,-996.6396 40.9582,-974.1363 28.7755,-946 -4.7777,-868.5078 -13.6653,-829.0044 28.7755,-756 75.7568,-675.1852 173.9451,-627.5567 248.6723,-601.7118"/>
<polygon fill="none" stroke="#404040" points="249.079,-601.5751 253.4905,-595.8708 260.4527,-597.7491 256.0412,-603.4533 249.079,-601.5751"/>
<text text-anchor="middle" x="61.7755" y="-848.5" font-family="Helvetica,sans-Serif" font-size="10.00" fill="#000000"> #mBaseName</text>
</g>
<!-- Node7&#45;&gt;Node6 -->
<g id="edge4" class="edge">
<title>Node7&#45;&gt;Node6</title>
<path fill="none" stroke="#404040" d="M107.0297,-993.4451C106.9568,-983.8918 107.8169,-973.31 110.7755,-964 111.5035,-961.7092 112.2943,-959.4229 113.1419,-957.1443"/>
<polygon fill="none" stroke="#404040" points="113.2355,-956.9179 111.834,-949.8443 117.8245,-945.83 119.226,-952.9036 113.2355,-956.9179"/>
<text text-anchor="middle" x="138.2755" y="-967" font-family="Helvetica,sans-Serif" font-size="10.00" fill="#000000"> &#45;mDirectory</text>
</g>
<!-- Node7&#45;&gt;Node6 -->
<g id="edge5" class="edge">
<title>Node7&#45;&gt;Node6</title>
<path fill="none" stroke="#404040" d="M130.2854,-1009.9982C142.5428,-1001.7305 157.328,-989.6155 165.7755,-975 169.0578,-969.3211 171.8729,-963.2704 174.2853,-957.0129"/>
<polygon fill="none" stroke="#404040" points="174.3189,-956.9146 172.4784,-949.9423 178.2065,-945.5617 180.047,-952.534 174.3189,-956.9146"/>
<text text-anchor="middle" x="214.7755" y="-967" font-family="Helvetica,sans-Serif" font-size="10.00" fill="#000000"> +SIG_FILE_NAME</text>
</g>
<!-- Node8 -->
<g id="node6" class="node">
<title>Node8</title>
<polygon fill="#ffffff" stroke="#bfbfbf" points="289.2755,-811.5 289.2755,-890.5 426.2755,-890.5 426.2755,-811.5 289.2755,-811.5"/>
<text text-anchor="start" x="297.2755" y="-878.5" font-family="Helvetica,sans-Serif" font-size="10.00" fill="#000000">AbstractMeshReader</text>
<text text-anchor="start" x="297.2755" y="-867.5" font-family="Helvetica,sans-Serif" font-size="10.00" fill="#000000">&lt; ELEMENT_DIM, SPACE</text>
<text text-anchor="middle" x="357.7755" y="-856.5" font-family="Helvetica,sans-Serif" font-size="10.00" fill="#000000">_DIM &gt; *</text>
<polyline fill="none" stroke="#bfbfbf" points="289.2755,-849.5 426.2755,-849.5 "/>
<text text-anchor="middle" x="357.7755" y="-837.5" font-family="Helvetica,sans-Serif" font-size="10.00" fill="#000000"> </text>
<polyline fill="none" stroke="#bfbfbf" points="289.2755,-830.5 426.2755,-830.5 "/>
<text text-anchor="middle" x="357.7755" y="-818.5" font-family="Helvetica,sans-Serif" font-size="10.00" fill="#000000"> </text>
</g>
<!-- Node8&#45;&gt;Node5 -->
<g id="edge7" class="edge">
<title>Node8&#45;&gt;Node5</title>
<path fill="none" stroke="#404040" d="M353.0232,-811.3211C350.6562,-789.6836 348.036,-762.4088 346.7755,-738 345.9383,-721.7896 345.427,-704.6576 345.1372,-687.8371"/>
<polygon fill="none" stroke="#404040" points="345.1348,-687.6606 341.0498,-681.7182 344.964,-675.6618 349.049,-681.6042 345.1348,-687.6606"/>
<text text-anchor="middle" x="385.7755" y="-713.5" font-family="Helvetica,sans-Serif" font-size="10.00" fill="#000000"> #mpMeshReader</text>
</g>
<!-- Node9 -->
<g id="node7" class="node">
<title>Node9</title>
<g id="a_node7"><a xlink:href="classunsigned.html" target="_top" xlink:title="{unsigned\n||}">
<polygon fill="#ffffff" stroke="#000000" points="498.7755,-822.5 498.7755,-879.5 554.7755,-879.5 554.7755,-822.5 498.7755,-822.5"/>
<text text-anchor="middle" x="526.7755" y="-867.5" font-family="Helvetica,sans-Serif" font-size="10.00" fill="#000000">unsigned</text>
<polyline fill="none" stroke="#000000" points="498.7755,-860.5 554.7755,-860.5 "/>
<text text-anchor="middle" x="526.7755" y="-848.5" font-family="Helvetica,sans-Serif" font-size="10.00" fill="#000000"> </text>
<polyline fill="none" stroke="#000000" points="498.7755,-841.5 554.7755,-841.5 "/>
<text text-anchor="middle" x="526.7755" y="-829.5" font-family="Helvetica,sans-Serif" font-size="10.00" fill="#000000"> </text>
</a>
</g>
</g>
<!-- Node9&#45;&gt;Node4 -->
<g id="edge16" class="edge">
<title>Node9&#45;&gt;Node4</title>
<path fill="none" stroke="#404040" d="M538.8791,-822.2902C547.8293,-799.7761 559.5088,-767.433 565.7755,-738 590.21,-623.2374 515.7517,-566.8424 588.7755,-475 641.9643,-408.1042 877.2011,-351.6041 1012.6969,-323.8677"/>
<polygon fill="none" stroke="#404040" points="1012.9245,-323.8216 1018.0093,-318.7084 1024.6849,-321.4354 1019.6001,-326.5486 1012.9245,-323.8216"/>
<text text-anchor="start" x="588.7755" y="-617" font-family="Helvetica,sans-Serif" font-size="10.00" fill="#000000"> #mNodeCounterForParallel</text>
<text text-anchor="middle" x="674.7755" y="-606" font-family="Helvetica,sans-Serif" font-size="10.00" fill="#000000">Mesh</text>
<text text-anchor="middle" x="674.7755" y="-595" font-family="Helvetica,sans-Serif" font-size="10.00" fill="#000000">#mNodesPerBoundaryElement</text>
<text text-anchor="start" x="588.7755" y="-584" font-family="Helvetica,sans-Serif" font-size="10.00" fill="#000000">#mCableElementCounterForParallel</text>
<text text-anchor="middle" x="674.7755" y="-573" font-family="Helvetica,sans-Serif" font-size="10.00" fill="#000000">Mesh</text>
<text text-anchor="start" x="588.7755" y="-562" font-family="Helvetica,sans-Serif" font-size="10.00" fill="#000000">#mBoundaryElementCounterForParallel</text>
<text text-anchor="middle" x="674.7755" y="-551" font-family="Helvetica,sans-Serif" font-size="10.00" fill="#000000">Mesh</text>
<text text-anchor="middle" x="674.7755" y="-540" font-family="Helvetica,sans-Serif" font-size="10.00" fill="#000000">#mElementCounterForParallelMesh</text>
<text text-anchor="middle" x="674.7755" y="-529" font-family="Helvetica,sans-Serif" font-size="10.00" fill="#000000">#mNodesPerElement</text>
</g>
<!-- Node9&#45;&gt;Node5 -->
<g id="edge8" class="edge">
<title>Node9&#45;&gt;Node5</title>
<path fill="none" stroke="#404040" d="M505.2619,-822.4205C488.7468,-799.9765 465.7957,-767.6641 447.7755,-738 436.3191,-719.1409 436.0225,-712.9847 424.7755,-694 423.2041,-691.3476 421.5984,-688.6724 419.9654,-685.983"/>
<polygon fill="none" stroke="#404040" points="419.8378,-685.7757 413.286,-682.7635 413.5466,-675.5571 420.0984,-678.5693 419.8378,-685.7757"/>
<text text-anchor="middle" x="506.7755" y="-730" font-family="Helvetica,sans-Serif" font-size="10.00" fill="#000000"> #mNumCableElements</text>
<text text-anchor="middle" x="506.7755" y="-719" font-family="Helvetica,sans-Serif" font-size="10.00" fill="#000000">#mNumElements</text>
<text text-anchor="middle" x="506.7755" y="-708" font-family="Helvetica,sans-Serif" font-size="10.00" fill="#000000">#mNumBoundaryElements</text>
<text text-anchor="middle" x="506.7755" y="-697" font-family="Helvetica,sans-Serif" font-size="10.00" fill="#000000">#mNumNodes</text>
</g>
<!-- Node10 -->
<g id="node8" class="node">
<title>Node10</title>
<polygon fill="#ffffff" stroke="#bfbfbf" points="770.2755,-541.5 770.2755,-609.5 947.2755,-609.5 947.2755,-541.5 770.2755,-541.5"/>
<text text-anchor="start" x="778.2755" y="-597.5" font-family="Helvetica,sans-Serif" font-size="10.00" fill="#000000">DistributedTetrahedralMesh</text>
<text text-anchor="middle" x="858.7755" y="-586.5" font-family="Helvetica,sans-Serif" font-size="10.00" fill="#000000">&lt; ELEMENT_DIM, SPACE_DIM &gt; *</text>
<polyline fill="none" stroke="#bfbfbf" points="770.2755,-579.5 947.2755,-579.5 "/>
<text text-anchor="middle" x="858.7755" y="-567.5" font-family="Helvetica,sans-Serif" font-size="10.00" fill="#000000"> </text>
<polyline fill="none" stroke="#bfbfbf" points="770.2755,-560.5 947.2755,-560.5 "/>
<text text-anchor="middle" x="858.7755" y="-548.5" font-family="Helvetica,sans-Serif" font-size="10.00" fill="#000000"> </text>
</g>
<!-- Node10&#45;&gt;Node4 -->
<g id="edge9" class="edge">
<title>Node10&#45;&gt;Node4</title>
<path fill="none" stroke="#404040" d="M890.5648,-541.3043C922.1701,-507.3066 972.1974,-453.4923 1016.4851,-405.8522"/>
<polygon fill="none" stroke="#404040" points="1016.5117,-405.8236 1017.6672,-398.7057 1024.6821,-397.0347 1023.5265,-404.1527 1016.5117,-405.8236"/>
<text text-anchor="middle" x="1023.7755" y="-449" font-family="Helvetica,sans-Serif" font-size="10.00" fill="#000000"> #mpDistributedMesh</text>
</g>
<!-- Node11 -->
<g id="node9" class="node">
<title>Node11</title>
<polygon fill="#ffffff" stroke="#bfbfbf" points="965.2755,-541.5 965.2755,-609.5 1142.2755,-609.5 1142.2755,-541.5 965.2755,-541.5"/>
<text text-anchor="start" x="973.2755" y="-597.5" font-family="Helvetica,sans-Serif" font-size="10.00" fill="#000000">AbstractTetrahedralMesh</text>
<text text-anchor="middle" x="1053.7755" y="-586.5" font-family="Helvetica,sans-Serif" font-size="10.00" fill="#000000">&lt; ELEMENT_DIM, SPACE_DIM &gt; *</text>
<polyline fill="none" stroke="#bfbfbf" points="965.2755,-579.5 1142.2755,-579.5 "/>
<text text-anchor="middle" x="1053.7755" y="-567.5" font-family="Helvetica,sans-Serif" font-size="10.00" fill="#000000"> </text>
<polyline fill="none" stroke="#bfbfbf" points="965.2755,-560.5 1142.2755,-560.5 "/>
<text text-anchor="middle" x="1053.7755" y="-548.5" font-family="Helvetica,sans-Serif" font-size="10.00" fill="#000000"> </text>
</g>
<!-- Node11&#45;&gt;Node4 -->
<g id="edge10" class="edge">
<title>Node11&#45;&gt;Node4</title>
<path fill="none" stroke="#404040" d="M1060.8679,-541.3043C1066.2723,-515.2475 1074.091,-477.5502 1081.8971,-439.9136"/>
<polygon fill="none" stroke="#404040" points="1081.9909,-439.4609 1079.2928,-432.7736 1084.428,-427.711 1087.1261,-434.3983 1081.9909,-439.4609"/>
<text text-anchor="middle" x="1103.7755" y="-449" font-family="Helvetica,sans-Serif" font-size="10.00" fill="#000000"> #mpMesh</text>
</g>
<!-- Node12 -->
<g id="node10" class="node">
<title>Node12</title>
<g id="a_node10"><a xlink:href="classNodeMap.html" target="_top" xlink:title="{NodeMap\n||+ NodeMap()\l+ Resize()\l+ ResetToIdentity()\l+ SetNewIndex()\l+ SetDeleted()\l+ IsDeleted()\l+ GetNewIndex()\l+ IsIdentityMap()\l+ GetSize()\l}">
<polygon fill="#ffffff" stroke="#000000" points="1160.2755,-503 1160.2755,-648 1261.2755,-648 1261.2755,-503 1160.2755,-503"/>
<text text-anchor="middle" x="1210.7755" y="-636" font-family="Helvetica,sans-Serif" font-size="10.00" fill="#000000">NodeMap</text>
<polyline fill="none" stroke="#000000" points="1160.2755,-629 1261.2755,-629 "/>
<text text-anchor="middle" x="1210.7755" y="-617" font-family="Helvetica,sans-Serif" font-size="10.00" fill="#000000"> </text>
<polyline fill="none" stroke="#000000" points="1160.2755,-610 1261.2755,-610 "/>
<text text-anchor="start" x="1168.2755" y="-598" font-family="Helvetica,sans-Serif" font-size="10.00" fill="#000000">+ NodeMap()</text>
<text text-anchor="start" x="1168.2755" y="-587" font-family="Helvetica,sans-Serif" font-size="10.00" fill="#000000">+ Resize()</text>
<text text-anchor="start" x="1168.2755" y="-576" font-family="Helvetica,sans-Serif" font-size="10.00" fill="#000000">+ ResetToIdentity()</text>
<text text-anchor="start" x="1168.2755" y="-565" font-family="Helvetica,sans-Serif" font-size="10.00" fill="#000000">+ SetNewIndex()</text>
<text text-anchor="start" x="1168.2755" y="-554" font-family="Helvetica,sans-Serif" font-size="10.00" fill="#000000">+ SetDeleted()</text>
<text text-anchor="start" x="1168.2755" y="-543" font-family="Helvetica,sans-Serif" font-size="10.00" fill="#000000">+ IsDeleted()</text>
<text text-anchor="start" x="1168.2755" y="-532" font-family="Helvetica,sans-Serif" font-size="10.00" fill="#000000">+ GetNewIndex()</text>
<text text-anchor="start" x="1168.2755" y="-521" font-family="Helvetica,sans-Serif" font-size="10.00" fill="#000000">+ IsIdentityMap()</text>
<text text-anchor="start" x="1168.2755" y="-510" font-family="Helvetica,sans-Serif" font-size="10.00" fill="#000000">+ GetSize()</text>
</a>
</g>
</g>
<!-- Node12&#45;&gt;Node4 -->
<g id="edge11" class="edge">
<title>Node12&#45;&gt;Node4</title>
<path fill="none" stroke="#404040" d="M1183.5765,-502.7898C1176.188,-483.0383 1167.9471,-461.0084 1159.7258,-439.0304"/>
<polygon fill="none" stroke="#404040" points="1159.6373,-438.7938 1153.7886,-434.5756 1155.4329,-427.5544 1161.2815,-431.7726 1159.6373,-438.7938"/>
<text text-anchor="middle" x="1197.7755" y="-449" font-family="Helvetica,sans-Serif" font-size="10.00" fill="#000000"> &#45;mpNodeMap</text>
</g>
<!-- Node13 -->
<g id="node11" class="node">
<title>Node13</title>
<polygon fill="#ffffff" stroke="#bfbfbf" points="1120.2755,-822.5 1120.2755,-879.5 1221.2755,-879.5 1221.2755,-822.5 1120.2755,-822.5"/>
<text text-anchor="middle" x="1170.7755" y="-867.5" font-family="Helvetica,sans-Serif" font-size="10.00" fill="#000000">vector&lt; unsigned &gt;</text>
<polyline fill="none" stroke="#bfbfbf" points="1120.2755,-860.5 1221.2755,-860.5 "/>
<text text-anchor="middle" x="1170.7755" y="-848.5" font-family="Helvetica,sans-Serif" font-size="10.00" fill="#000000"> </text>
<polyline fill="none" stroke="#bfbfbf" points="1120.2755,-841.5 1221.2755,-841.5 "/>
<text text-anchor="middle" x="1170.7755" y="-829.5" font-family="Helvetica,sans-Serif" font-size="10.00" fill="#000000"> </text>
</g>
<!-- Node13&#45;&gt;Node12 -->
<g id="edge12" class="edge">
<title>Node13&#45;&gt;Node12</title>
<path fill="none" stroke="#404040" d="M1168.3122,-822.4142C1166.1978,-790.7759 1164.5143,-738.3848 1171.7755,-694 1173.6051,-682.816 1176.3161,-671.2535 1179.4717,-659.9342"/>
<polygon fill="none" stroke="#404040" points="1179.521,-659.7662 1177.374,-652.8821 1182.9028,-648.2526 1185.0498,-655.1367 1179.521,-659.7662"/>
<text text-anchor="middle" x="1188.7755" y="-713.5" font-family="Helvetica,sans-Serif" font-size="10.00" fill="#000000"> &#45;mMap</text>
</g>
<!-- Node14 -->
<g id="node12" class="node">
<title>Node14</title>
<g id="a_node12"><a xlink:href="classbool.html" target="_top" xlink:title="{bool\n||}">
<polygon fill="#ffffff" stroke="#000000" points="1260.2755,-822.5 1260.2755,-879.5 1295.2755,-879.5 1295.2755,-822.5 1260.2755,-822.5"/>
<text text-anchor="middle" x="1277.7755" y="-867.5" font-family="Helvetica,sans-Serif" font-size="10.00" fill="#000000">bool</text>
<polyline fill="none" stroke="#000000" points="1260.2755,-860.5 1295.2755,-860.5 "/>
<text text-anchor="middle" x="1277.7755" y="-848.5" font-family="Helvetica,sans-Serif" font-size="10.00" fill="#000000"> </text>
<polyline fill="none" stroke="#000000" points="1260.2755,-841.5 1295.2755,-841.5 "/>
<text text-anchor="middle" x="1277.7755" y="-829.5" font-family="Helvetica,sans-Serif" font-size="10.00" fill="#000000"> </text>
</a>
</g>
</g>
<!-- Node14&#45;&gt;Node4 -->
<g id="edge15" class="edge">
<title>Node14&#45;&gt;Node4</title>
<path fill="none" stroke="#404040" d="M1284.3803,-822.0904C1297.7929,-756.8971 1322.7639,-594.7826 1270.7755,-475 1255.6113,-440.0614 1229.9298,-407.9609 1203.4796,-381.3129"/>
<polygon fill="none" stroke="#404040" points="1203.4345,-381.2685 1196.3516,-379.9146 1194.8772,-372.8558 1201.9601,-374.2097 1203.4345,-381.2685"/>
<text text-anchor="middle" x="1343.2755" y="-584" font-family="Helvetica,sans-Serif" font-size="10.00" fill="#000000"> #mIndexFromZero</text>
<text text-anchor="middle" x="1343.2755" y="-573" font-family="Helvetica,sans-Serif" font-size="10.00" fill="#000000">#mFilesAreBinary</text>
<text text-anchor="middle" x="1343.2755" y="-562" font-family="Helvetica,sans-Serif" font-size="10.00" fill="#000000">#mWriteMetaFile</text>
</g>
<!-- Node14&#45;&gt;Node12 -->
<g id="edge13" class="edge">
<title>Node14&#45;&gt;Node12</title>
<path fill="none" stroke="#404040" d="M1262.3863,-822.1266C1251.199,-799.7929 1236.6836,-767.7588 1228.7755,-738 1222.1975,-713.2467 1218.0204,-685.7542 1215.3689,-660.529"/>
<polygon fill="none" stroke="#404040" points="1215.3461,-660.2936 1210.7848,-654.7084 1214.1859,-648.3498 1218.7473,-653.9349 1215.3461,-660.2936"/>
<text text-anchor="middle" x="1256.2755" y="-713.5" font-family="Helvetica,sans-Serif" font-size="10.00" fill="#000000"> &#45;mIsIdentity</text>
</g>
<!-- Node15 -->
<g id="node13" class="node">
<title>Node15</title>
<polygon fill="#ffffff" stroke="#bfbfbf" points="1399.2755,-536 1399.2755,-615 1536.2755,-615 1536.2755,-536 1399.2755,-536"/>
<text text-anchor="start" x="1407.2755" y="-603" font-family="Helvetica,sans-Serif" font-size="10.00" fill="#000000">MeshWriterIterators</text>
<text text-anchor="start" x="1407.2755" y="-592" font-family="Helvetica,sans-Serif" font-size="10.00" fill="#000000">&lt; ELEMENT_DIM, SPACE</text>
<text text-anchor="middle" x="1467.7755" y="-581" font-family="Helvetica,sans-Serif" font-size="10.00" fill="#000000">_DIM &gt; *</text>
<polyline fill="none" stroke="#bfbfbf" points="1399.2755,-574 1536.2755,-574 "/>
<text text-anchor="middle" x="1467.7755" y="-562" font-family="Helvetica,sans-Serif" font-size="10.00" fill="#000000"> </text>
<polyline fill="none" stroke="#bfbfbf" points="1399.2755,-555 1536.2755,-555 "/>
<text text-anchor="middle" x="1467.7755" y="-543" font-family="Helvetica,sans-Serif" font-size="10.00" fill="#000000"> </text>
</g>
<!-- Node15&#45;&gt;Node4 -->
<g id="edge14" class="edge">
<title>Node15&#45;&gt;Node4</title>
<path fill="none" stroke="#404040" d="M1439.7291,-535.6434C1424.7718,-516.0293 1405.2545,-492.8323 1384.7755,-475 1330.2392,-427.5121 1260.8762,-384.8612 1205.4572,-354.2218"/>
<polygon fill="none" stroke="#404040" points="1205.4471,-354.2162 1198.263,-354.8406 1194.9236,-348.4493 1202.1076,-347.8249 1205.4471,-354.2162"/>
<text text-anchor="middle" x="1378.7755" y="-449" font-family="Helvetica,sans-Serif" font-size="10.00" fill="#000000"> #mpIters</text>
</g>
<!-- Node16 -->
<g id="node14" class="node">
<title>Node16</title>
<polygon fill="#ffffff" stroke="#bfbfbf" points="1554.2755,-536 1554.2755,-615 1691.2755,-615 1691.2755,-536 1554.2755,-536"/>
<text text-anchor="start" x="1562.2755" y="-603" font-family="Helvetica,sans-Serif" font-size="10.00" fill="#000000">MixedDimensionMesh</text>
<text text-anchor="start" x="1562.2755" y="-592" font-family="Helvetica,sans-Serif" font-size="10.00" fill="#000000">&lt; ELEMENT_DIM, SPACE</text>
<text text-anchor="middle" x="1622.7755" y="-581" font-family="Helvetica,sans-Serif" font-size="10.00" fill="#000000">_DIM &gt; *</text>
<polyline fill="none" stroke="#bfbfbf" points="1554.2755,-574 1691.2755,-574 "/>
<text text-anchor="middle" x="1622.7755" y="-562" font-family="Helvetica,sans-Serif" font-size="10.00" fill="#000000"> </text>
<polyline fill="none" stroke="#bfbfbf" points="1554.2755,-555 1691.2755,-555 "/>
<text text-anchor="middle" x="1622.7755" y="-543" font-family="Helvetica,sans-Serif" font-size="10.00" fill="#000000"> </text>
</g>
<!-- Node16&#45;&gt;Node4 -->
<g id="edge17" class="edge">
<title>Node16&#45;&gt;Node4</title>
<path fill="none" stroke="#404040" d="M1599.8576,-535.9459C1586.3202,-515.4527 1567.5734,-491.3621 1545.7755,-475 1442.8462,-397.7382 1300.2745,-351.179 1206.5828,-326.9173"/>
<polygon fill="none" stroke="#404040" points="1206.4653,-326.8875 1199.6637,-329.283 1194.8364,-323.926 1201.638,-321.5305 1206.4653,-326.8875"/>
<text text-anchor="middle" x="1551.2755" y="-449" font-family="Helvetica,sans-Serif" font-size="10.00" fill="#000000"> #mpMixedMesh</text>
</g>
</g>
</svg>
