<?xml version="1.0" encoding="UTF-8" standalone="no"?>
<!DOCTYPE svg PUBLIC "-//W3C//DTD SVG 1.1//EN"
 "http://www.w3.org/Graphics/SVG/1.1/DTD/svg11.dtd">
<!-- Generated by graphviz version 2.40.1 (20161225.0304)
 -->
<!-- Title: OdeSolution Pages: 1 -->
<svg width="621pt" height="303pt"
 viewBox="0.00 0.00 621.00 303.00" xmlns="http://www.w3.org/2000/svg" xmlns:xlink="http://www.w3.org/1999/xlink">
<g id="graph0" class="graph" transform="scale(1 1) rotate(0) translate(4 299)">
<title>OdeSolution</title>
<polygon fill="#ffffff" stroke="transparent" points="-4,4 -4,-299 617,-299 617,4 -4,4"/>
<!-- Node1 -->
<g id="node1" class="node">
<title>Node1</title>
<polygon fill="#bfbfbf" stroke="#000000" points="246.5,-.5 246.5,-167.5 393.5,-167.5 393.5,-.5 246.5,-.5"/>
<text text-anchor="middle" x="320" y="-155.5" font-family="Helvetica,sans-Serif" font-size="10.00" fill="#000000">OdeSolution</text>
<polyline fill="none" stroke="#000000" points="246.5,-148.5 393.5,-148.5 "/>
<text text-anchor="middle" x="320" y="-136.5" font-family="Helvetica,sans-Serif" font-size="10.00" fill="#000000"> </text>
<polyline fill="none" stroke="#000000" points="246.5,-129.5 393.5,-129.5 "/>
<text text-anchor="start" x="254.5" y="-117.5" font-family="Helvetica,sans-Serif" font-size="10.00" fill="#000000">+ OdeSolution()</text>
<text text-anchor="start" x="254.5" y="-106.5" font-family="Helvetica,sans-Serif" font-size="10.00" fill="#000000">+ GetNumberOfTimeSteps()</text>
<text text-anchor="start" x="254.5" y="-95.5" font-family="Helvetica,sans-Serif" font-size="10.00" fill="#000000">+ SetNumberOfTimeSteps()</text>
<text text-anchor="start" x="254.5" y="-84.5" font-family="Helvetica,sans-Serif" font-size="10.00" fill="#000000">+ SetOdeSystemInformation()</text>
<text text-anchor="start" x="254.5" y="-73.5" font-family="Helvetica,sans-Serif" font-size="10.00" fill="#000000">+ GetVariableAtIndex()</text>
<text text-anchor="start" x="254.5" y="-62.5" font-family="Helvetica,sans-Serif" font-size="10.00" fill="#000000">+ GetAnyVariable()</text>
<text text-anchor="start" x="254.5" y="-51.5" font-family="Helvetica,sans-Serif" font-size="10.00" fill="#000000">+ rGetTimes()</text>
<text text-anchor="start" x="254.5" y="-40.5" font-family="Helvetica,sans-Serif" font-size="10.00" fill="#000000">+ rGetTimes()</text>
<text text-anchor="start" x="254.5" y="-29.5" font-family="Helvetica,sans-Serif" font-size="10.00" fill="#000000">+ rGetSolutions()</text>
<text text-anchor="start" x="254.5" y="-18.5" font-family="Helvetica,sans-Serif" font-size="10.00" fill="#000000">+ rGetSolutions()</text>
<text text-anchor="start" x="254.5" y="-7.5" font-family="Helvetica,sans-Serif" font-size="10.00" fill="#000000">and 7 more...</text>
</g>
<!-- Node2 -->
<g id="node2" class="node">
<title>Node2</title>
<polygon fill="#ffffff" stroke="#bfbfbf" points="0,-232 0,-289 90,-289 90,-232 0,-232"/>
<text text-anchor="middle" x="45" y="-277" font-family="Helvetica,sans-Serif" font-size="10.00" fill="#000000">vector&lt; double &gt;</text>
<polyline fill="none" stroke="#bfbfbf" points="0,-270 90,-270 "/>
<text text-anchor="middle" x="45" y="-258" font-family="Helvetica,sans-Serif" font-size="10.00" fill="#000000"> </text>
<polyline fill="none" stroke="#bfbfbf" points="0,-251 90,-251 "/>
<text text-anchor="middle" x="45" y="-239" font-family="Helvetica,sans-Serif" font-size="10.00" fill="#000000"> </text>
</g>
<!-- Node2&#45;&gt;Node1 -->
<g id="edge1" class="edge">
<title>Node2&#45;&gt;Node1</title>
<path fill="none" stroke="#404040" d="M69.4869,-231.7535C83.0796,-216.9095 100.8707,-199.1957 119,-186 154.5537,-160.1217 197.6245,-137.3084 234.762,-119.8556"/>
<polygon fill="none" stroke="#404040" points="235.1928,-119.6562 238.9567,-113.5053 246.0821,-114.6139 242.3182,-120.7648 235.1928,-119.6562"/>
<text text-anchor="middle" x="150" y="-200" font-family="Helvetica,sans-Serif" font-size="10.00" fill="#000000"> &#45;mTimes</text>
<text text-anchor="middle" x="150" y="-189" font-family="Helvetica,sans-Serif" font-size="10.00" fill="#000000">&#45;mParameters</text>
</g>
<!-- Node3 -->
<g id="node3" class="node">
<title>Node3</title>
<polygon fill="#ffffff" stroke="#bfbfbf" points="108.5,-226.5 108.5,-294.5 243.5,-294.5 243.5,-226.5 108.5,-226.5"/>
<text text-anchor="start" x="116.5" y="-282.5" font-family="Helvetica,sans-Serif" font-size="10.00" fill="#000000">shared_ptr&lt; const Abstract</text>
<text text-anchor="middle" x="176" y="-271.5" font-family="Helvetica,sans-Serif" font-size="10.00" fill="#000000">OdeSystemInformation &gt;</text>
<polyline fill="none" stroke="#bfbfbf" points="108.5,-264.5 243.5,-264.5 "/>
<text text-anchor="middle" x="176" y="-252.5" font-family="Helvetica,sans-Serif" font-size="10.00" fill="#000000"> </text>
<polyline fill="none" stroke="#bfbfbf" points="108.5,-245.5 243.5,-245.5 "/>
<text text-anchor="middle" x="176" y="-233.5" font-family="Helvetica,sans-Serif" font-size="10.00" fill="#000000"> </text>
</g>
<!-- Node3&#45;&gt;Node1 -->
<g id="edge2" class="edge">
<title>Node3&#45;&gt;Node1</title>
<path fill="none" stroke="#404040" d="M180.0081,-226.4007C182.7364,-213.0296 187.3163,-198.0394 195,-186 206.0849,-168.6313 221.1207,-152.8222 236.9216,-139.1105"/>
<polygon fill="none" stroke="#404040" points="237.0804,-138.9778 239.1201,-132.0611 246.2892,-131.2837 244.2495,-138.2003 237.0804,-138.9778"/>
<text text-anchor="middle" x="255.5" y="-194.5" font-family="Helvetica,sans-Serif" font-size="10.00" fill="#000000"> &#45;mpOdeSystemInformation</text>
</g>
<!-- Node4 -->
<g id="node4" class="node">
<title>Node4</title>
<polygon fill="#ffffff" stroke="#bfbfbf" points="270.5,-226.5 270.5,-294.5 369.5,-294.5 369.5,-226.5 270.5,-226.5"/>
<text text-anchor="start" x="278.5" y="-282.5" font-family="Helvetica,sans-Serif" font-size="10.00" fill="#000000">vector&lt; std::vector</text>
<text text-anchor="middle" x="320" y="-271.5" font-family="Helvetica,sans-Serif" font-size="10.00" fill="#000000">&lt; double &gt; &gt;</text>
<polyline fill="none" stroke="#bfbfbf" points="270.5,-264.5 369.5,-264.5 "/>
<text text-anchor="middle" x="320" y="-252.5" font-family="Helvetica,sans-Serif" font-size="10.00" fill="#000000"> </text>
<polyline fill="none" stroke="#bfbfbf" points="270.5,-245.5 369.5,-245.5 "/>
<text text-anchor="middle" x="320" y="-233.5" font-family="Helvetica,sans-Serif" font-size="10.00" fill="#000000"> </text>
</g>
<!-- Node4&#45;&gt;Node1 -->
<g id="edge3" class="edge">
<title>Node4&#45;&gt;Node1</title>
<path fill="none" stroke="#404040" d="M320,-226.469C320,-212.9268 320,-196.6035 320,-179.9119"/>
<polygon fill="none" stroke="#404040" points="320.0001,-179.7272 316,-173.7273 320,-167.7272 324,-173.7272 320.0001,-179.7272"/>
<text text-anchor="middle" x="365" y="-200" font-family="Helvetica,sans-Serif" font-size="10.00" fill="#000000"> &#45;mSolutions</text>
<text text-anchor="middle" x="365" y="-189" font-family="Helvetica,sans-Serif" font-size="10.00" fill="#000000">&#45;mDerivedQuantities</text>
</g>
<!-- Node5 -->
<g id="node5" class="node">
<title>Node5</title>
<polygon fill="#ffffff" stroke="#bfbfbf" points="412.5,-232 412.5,-289 453.5,-289 453.5,-232 412.5,-232"/>
<text text-anchor="middle" x="433" y="-277" font-family="Helvetica,sans-Serif" font-size="10.00" fill="#000000">string</text>
<polyline fill="none" stroke="#bfbfbf" points="412.5,-270 453.5,-270 "/>
<text text-anchor="middle" x="433" y="-258" font-family="Helvetica,sans-Serif" font-size="10.00" fill="#000000"> </text>
<polyline fill="none" stroke="#bfbfbf" points="412.5,-251 453.5,-251 "/>
<text text-anchor="middle" x="433" y="-239" font-family="Helvetica,sans-Serif" font-size="10.00" fill="#000000"> </text>
</g>
<!-- Node5&#45;&gt;Node1 -->
<g id="edge4" class="edge">
<title>Node5&#45;&gt;Node1</title>
<path fill="none" stroke="#404040" d="M427.6329,-231.7355C424.1951,-217.3948 418.8693,-200.1413 411,-186 407.8627,-180.3622 404.3653,-174.7714 400.6199,-169.2813"/>
<polygon fill="none" stroke="#404040" points="400.6176,-169.2781 393.873,-166.7265 393.6342,-159.5193 400.3789,-162.0709 400.6176,-169.2781"/>
<text text-anchor="middle" x="454.5" y="-194.5" font-family="Helvetica,sans-Serif" font-size="10.00" fill="#000000"> &#45;mSolverName</text>
</g>
<!-- Node6 -->
<g id="node6" class="node">
<title>Node6</title>
<g id="a_node6"><a xlink:href="classunsigned.html" target="_top" xlink:title="{unsigned\n||}">
<polygon fill="#ffffff" stroke="#000000" points="497,-232 497,-289 553,-289 553,-232 497,-232"/>
<text text-anchor="middle" x="525" y="-277" font-family="Helvetica,sans-Serif" font-size="10.00" fill="#000000">unsigned</text>
<polyline fill="none" stroke="#000000" points="497,-270 553,-270 "/>
<text text-anchor="middle" x="525" y="-258" font-family="Helvetica,sans-Serif" font-size="10.00" fill="#000000"> </text>
<polyline fill="none" stroke="#000000" points="497,-251 553,-251 "/>
<text text-anchor="middle" x="525" y="-239" font-family="Helvetica,sans-Serif" font-size="10.00" fill="#000000"> </text>
</a>
</g>
</g>
<!-- Node6&#45;&gt;Node1 -->
<g id="edge5" class="edge">
<title>Node6&#45;&gt;Node1</title>
<path fill="none" stroke="#404040" d="M517.4501,-231.9541C512.4026,-216.9897 504.5343,-199.1012 493,-186 468.8866,-158.611 435.5743,-136.5684 404.615,-120.0786"/>
<polygon fill="none" stroke="#404040" points="404.4412,-119.9887 397.2744,-120.7865 393.7814,-114.4778 400.9483,-113.68 404.4412,-119.9887"/>
<text text-anchor="middle" x="559.5" y="-194.5" font-family="Helvetica,sans-Serif" font-size="10.00" fill="#000000"> &#45;mNumberOfTimeSteps</text>
</g>
</g>
</svg>
