<?xml version="1.0" encoding="UTF-8" standalone="no"?>
<!DOCTYPE svg PUBLIC "-//W3C//DTD SVG 1.1//EN"
 "http://www.w3.org/Graphics/SVG/1.1/DTD/svg11.dtd">
<!-- Generated by graphviz version 2.40.1 (20161225.0304)
 -->
<!-- Title: DistributedVector Pages: 1 -->
<svg width="629pt" height="584pt"
 viewBox="0.00 0.00 629.29 584.00" xmlns="http://www.w3.org/2000/svg" xmlns:xlink="http://www.w3.org/1999/xlink">
<g id="graph0" class="graph" transform="scale(1 1) rotate(0) translate(4 580)">
<title>DistributedVector</title>
<polygon fill="#ffffff" stroke="transparent" points="-4,4 -4,-580 625.291,-580 625.291,4 -4,4"/>
<!-- Node1 -->
<g id="node1" class="node">
<title>Node1</title>
<polygon fill="#bfbfbf" stroke="#000000" points="373.791,-.5 373.791,-156.5 488.791,-156.5 488.791,-.5 373.791,-.5"/>
<text text-anchor="middle" x="431.291" y="-144.5" font-family="Helvetica,sans-Serif" font-size="10.00" fill="#000000">DistributedVector</text>
<polyline fill="none" stroke="#000000" points="373.791,-137.5 488.791,-137.5 "/>
<text text-anchor="middle" x="431.291" y="-125.5" font-family="Helvetica,sans-Serif" font-size="10.00" fill="#000000"> </text>
<polyline fill="none" stroke="#000000" points="373.791,-118.5 488.791,-118.5 "/>
<text text-anchor="start" x="381.791" y="-106.5" font-family="Helvetica,sans-Serif" font-size="10.00" fill="#000000">+ IsGlobalIndexLocal()</text>
<text text-anchor="start" x="381.791" y="-95.5" font-family="Helvetica,sans-Serif" font-size="10.00" fill="#000000">+ DistributedVector()</text>
<text text-anchor="start" x="381.791" y="-84.5" font-family="Helvetica,sans-Serif" font-size="10.00" fill="#000000">+ GetHigh()</text>
<text text-anchor="start" x="381.791" y="-73.5" font-family="Helvetica,sans-Serif" font-size="10.00" fill="#000000">+ GetLow()</text>
<text text-anchor="start" x="381.791" y="-62.5" font-family="Helvetica,sans-Serif" font-size="10.00" fill="#000000">+ GetFactory()</text>
<text text-anchor="start" x="381.791" y="-51.5" font-family="Helvetica,sans-Serif" font-size="10.00" fill="#000000">+ operator[]()</text>
<text text-anchor="start" x="381.791" y="-40.5" font-family="Helvetica,sans-Serif" font-size="10.00" fill="#000000">+ Restore()</text>
<text text-anchor="start" x="381.791" y="-29.5" font-family="Helvetica,sans-Serif" font-size="10.00" fill="#000000">+ Begin()</text>
<text text-anchor="start" x="381.791" y="-18.5" font-family="Helvetica,sans-Serif" font-size="10.00" fill="#000000">+ End()</text>
<text text-anchor="start" x="381.791" y="-7.5" font-family="Helvetica,sans-Serif" font-size="10.00" fill="#000000">+ operator[]()</text>
</g>
<!-- Node2 -->
<g id="node2" class="node">
<title>Node2</title>
<g id="a_node2"><a xlink:href="classDistributedVectorFactory.html" target="_top" xlink:title="{DistributedVectorFactory\n||+ DistributedVectorFactory()\l+ DistributedVectorFactory()\l+ DistributedVectorFactory()\l+ DistributedVectorFactory()\l+ ~DistributedVectorFactory()\l+ CreateVec()\l+ CreateVec()\l+ CreateDistributedVector()\l+ IsGlobalIndexLocal()\l+ GetLocalOwnership()\land 8 more...\l+ SetCheckNumberOfProcesses\lOnLoad()\l+ CheckNumberOfProcessesOnLoad()\l&#45; CheckForPetsc()\l&#45; CalculateOwnership()\l&#45; serialize()\l}">
<polygon fill="#ffffff" stroke="#000000" points="105.791,-204.5 105.791,-437.5 290.791,-437.5 290.791,-204.5 105.791,-204.5"/>
<text text-anchor="middle" x="198.291" y="-425.5" font-family="Helvetica,sans-Serif" font-size="10.00" fill="#000000">DistributedVectorFactory</text>
<polyline fill="none" stroke="#000000" points="105.791,-418.5 290.791,-418.5 "/>
<text text-anchor="middle" x="198.291" y="-406.5" font-family="Helvetica,sans-Serif" font-size="10.00" fill="#000000"> </text>
<polyline fill="none" stroke="#000000" points="105.791,-399.5 290.791,-399.5 "/>
<text text-anchor="start" x="113.791" y="-387.5" font-family="Helvetica,sans-Serif" font-size="10.00" fill="#000000">+ DistributedVectorFactory()</text>
<text text-anchor="start" x="113.791" y="-376.5" font-family="Helvetica,sans-Serif" font-size="10.00" fill="#000000">+ DistributedVectorFactory()</text>
<text text-anchor="start" x="113.791" y="-365.5" font-family="Helvetica,sans-Serif" font-size="10.00" fill="#000000">+ DistributedVectorFactory()</text>
<text text-anchor="start" x="113.791" y="-354.5" font-family="Helvetica,sans-Serif" font-size="10.00" fill="#000000">+ DistributedVectorFactory()</text>
<text text-anchor="start" x="113.791" y="-343.5" font-family="Helvetica,sans-Serif" font-size="10.00" fill="#000000">+ ~DistributedVectorFactory()</text>
<text text-anchor="start" x="113.791" y="-332.5" font-family="Helvetica,sans-Serif" font-size="10.00" fill="#000000">+ CreateVec()</text>
<text text-anchor="start" x="113.791" y="-321.5" font-family="Helvetica,sans-Serif" font-size="10.00" fill="#000000">+ CreateVec()</text>
<text text-anchor="start" x="113.791" y="-310.5" font-family="Helvetica,sans-Serif" font-size="10.00" fill="#000000">+ CreateDistributedVector()</text>
<text text-anchor="start" x="113.791" y="-299.5" font-family="Helvetica,sans-Serif" font-size="10.00" fill="#000000">+ IsGlobalIndexLocal()</text>
<text text-anchor="start" x="113.791" y="-288.5" font-family="Helvetica,sans-Serif" font-size="10.00" fill="#000000">+ GetLocalOwnership()</text>
<text text-anchor="start" x="113.791" y="-277.5" font-family="Helvetica,sans-Serif" font-size="10.00" fill="#000000">and 8 more...</text>
<text text-anchor="start" x="113.791" y="-266.5" font-family="Helvetica,sans-Serif" font-size="10.00" fill="#000000">+ SetCheckNumberOfProcesses</text>
<text text-anchor="start" x="113.791" y="-255.5" font-family="Helvetica,sans-Serif" font-size="10.00" fill="#000000">OnLoad()</text>
<text text-anchor="start" x="113.791" y="-244.5" font-family="Helvetica,sans-Serif" font-size="10.00" fill="#000000">+ CheckNumberOfProcessesOnLoad()</text>
<text text-anchor="start" x="113.791" y="-233.5" font-family="Helvetica,sans-Serif" font-size="10.00" fill="#000000">&#45; CheckForPetsc()</text>
<text text-anchor="start" x="113.791" y="-222.5" font-family="Helvetica,sans-Serif" font-size="10.00" fill="#000000">&#45; CalculateOwnership()</text>
<text text-anchor="start" x="113.791" y="-211.5" font-family="Helvetica,sans-Serif" font-size="10.00" fill="#000000">&#45; serialize()</text>
</a>
</g>
</g>
<!-- Node2&#45;&gt;Node1 -->
<g id="edge1" class="edge">
<title>Node2&#45;&gt;Node1</title>
<path fill="none" stroke="#404040" d="M291.0482,-224.4608C315.914,-198.5812 342.2868,-171.1331 365.3716,-147.1071"/>
<polygon fill="none" stroke="#404040" points="365.4047,-147.0726 366.6774,-139.9747 373.7188,-138.4195 372.4461,-145.5174 365.4047,-147.0726"/>
<text text-anchor="middle" x="362.791" y="-178" font-family="Helvetica,sans-Serif" font-size="10.00" fill="#000000"> &#45;mpFactory</text>
</g>
<!-- Node2&#45;&gt;Node2 -->
<g id="edge2" class="edge">
<title>Node2&#45;&gt;Node2</title>
<path fill="none" stroke="#404040" d="M290.9924,-343.4032C301.7757,-339.2685 308.791,-331.8008 308.791,-321 308.791,-314.2495 306.0506,-308.801 301.3627,-304.6545"/>
<polygon fill="none" stroke="#404040" points="301.3542,-304.6495 294.1557,-305.0771 290.9924,-298.5968 298.1909,-298.1692 301.3542,-304.6495"/>
<text text-anchor="middle" x="351.791" y="-318.5" font-family="Helvetica,sans-Serif" font-size="10.00" fill="#000000"> &#45;mpOriginalFactory</text>
</g>
<!-- Node3 -->
<g id="node3" class="node">
<title>Node3</title>
<polygon fill="#ffffff" stroke="#bfbfbf" points="174.791,-518.5 174.791,-575.5 275.791,-575.5 275.791,-518.5 174.791,-518.5"/>
<text text-anchor="middle" x="225.291" y="-563.5" font-family="Helvetica,sans-Serif" font-size="10.00" fill="#000000">vector&lt; unsigned &gt;</text>
<polyline fill="none" stroke="#bfbfbf" points="174.791,-556.5 275.791,-556.5 "/>
<text text-anchor="middle" x="225.291" y="-544.5" font-family="Helvetica,sans-Serif" font-size="10.00" fill="#000000"> </text>
<polyline fill="none" stroke="#bfbfbf" points="174.791,-537.5 275.791,-537.5 "/>
<text text-anchor="middle" x="225.291" y="-525.5" font-family="Helvetica,sans-Serif" font-size="10.00" fill="#000000"> </text>
</g>
<!-- Node3&#45;&gt;Node2 -->
<g id="edge3" class="edge">
<title>Node3&#45;&gt;Node2</title>
<path fill="none" stroke="#404040" d="M221.8714,-518.3769C219.7118,-500.3002 216.7526,-475.5305 213.6599,-449.6439"/>
<polygon fill="none" stroke="#404040" points="213.6556,-449.6067 208.972,-444.1236 212.232,-437.6915 216.9155,-443.1746 213.6556,-449.6067"/>
<text text-anchor="middle" x="253.291" y="-475.5" font-family="Helvetica,sans-Serif" font-size="10.00" fill="#000000"> &#45;mGlobalLows</text>
</g>
<!-- Node4 -->
<g id="node4" class="node">
<title>Node4</title>
<g id="a_node4"><a xlink:href="classbool.html" target="_top" xlink:title="{bool\n||}">
<polygon fill="#ffffff" stroke="#000000" points="28.791,-518.5 28.791,-575.5 63.791,-575.5 63.791,-518.5 28.791,-518.5"/>
<text text-anchor="middle" x="46.291" y="-563.5" font-family="Helvetica,sans-Serif" font-size="10.00" fill="#000000">bool</text>
<polyline fill="none" stroke="#000000" points="28.791,-556.5 63.791,-556.5 "/>
<text text-anchor="middle" x="46.291" y="-544.5" font-family="Helvetica,sans-Serif" font-size="10.00" fill="#000000"> </text>
<polyline fill="none" stroke="#000000" points="28.791,-537.5 63.791,-537.5 "/>
<text text-anchor="middle" x="46.291" y="-525.5" font-family="Helvetica,sans-Serif" font-size="10.00" fill="#000000"> </text>
</a>
</g>
</g>
<!-- Node4&#45;&gt;Node1 -->
<g id="edge7" class="edge">
<title>Node4&#45;&gt;Node1</title>
<path fill="none" stroke="#404040" d="M35.0516,-518.2749C12.211,-454.6625 -31.7994,-299.96 38.291,-204 76.7552,-151.3391 259.3468,-110.0958 361.5628,-90.672"/>
<polygon fill="none" stroke="#404040" points="361.8202,-90.6238 366.9802,-85.5865 373.6146,-88.4121 368.4546,-93.4495 361.8202,-90.6238"/>
<text text-anchor="middle" x="67.291" y="-318.5" font-family="Helvetica,sans-Serif" font-size="10.00" fill="#000000"> &#45;mReadOnly</text>
</g>
<!-- Node4&#45;&gt;Node2 -->
<g id="edge4" class="edge">
<title>Node4&#45;&gt;Node2</title>
<path fill="none" stroke="#404040" d="M49.9053,-518.2585C53.2624,-499.4581 59.5865,-474.9605 71.291,-456 77.5727,-445.8239 82.8012,-446.4224 91.291,-438 93.2359,-436.0705 95.1914,-434.1141 97.1536,-432.136"/>
<polygon fill="none" stroke="#404040" points="97.3829,-431.9024 98.7311,-424.8184 105.7887,-423.3383 104.4405,-430.4223 97.3829,-431.9024"/>
<text text-anchor="start" x="71.291" y="-486.5" font-family="Helvetica,sans-Serif" font-size="10.00" fill="#000000"> &#45;msCheckNumberOfProcesses</text>
<text text-anchor="middle" x="141.291" y="-475.5" font-family="Helvetica,sans-Serif" font-size="10.00" fill="#000000">OnLoad</text>
<text text-anchor="middle" x="141.291" y="-464.5" font-family="Helvetica,sans-Serif" font-size="10.00" fill="#000000">&#45;mPetscStatusKnown</text>
</g>
<!-- Node5 -->
<g id="node5" class="node">
<title>Node5</title>
<g id="a_node5"><a xlink:href="classunsigned.html" target="_top" xlink:title="{unsigned\n||}">
<polygon fill="#ffffff" stroke="#000000" points="355.291,-518.5 355.291,-575.5 411.291,-575.5 411.291,-518.5 355.291,-518.5"/>
<text text-anchor="middle" x="383.291" y="-563.5" font-family="Helvetica,sans-Serif" font-size="10.00" fill="#000000">unsigned</text>
<polyline fill="none" stroke="#000000" points="355.291,-556.5 411.291,-556.5 "/>
<text text-anchor="middle" x="383.291" y="-544.5" font-family="Helvetica,sans-Serif" font-size="10.00" fill="#000000"> </text>
<polyline fill="none" stroke="#000000" points="355.291,-537.5 411.291,-537.5 "/>
<text text-anchor="middle" x="383.291" y="-525.5" font-family="Helvetica,sans-Serif" font-size="10.00" fill="#000000"> </text>
</a>
</g>
</g>
<!-- Node5&#45;&gt;Node1 -->
<g id="edge8" class="edge">
<title>Node5&#45;&gt;Node1</title>
<path fill="none" stroke="#404040" d="M406.4827,-518.246C410.047,-512.496 413.224,-506.2826 415.291,-500 434.7738,-440.7826 435.4188,-273.894 433.6653,-168.746"/>
<polygon fill="none" stroke="#404040" points="433.662,-168.5553 429.555,-162.628 433.4468,-156.5572 437.5537,-162.4845 433.662,-168.5553"/>
<text text-anchor="middle" x="470.791" y="-335" font-family="Helvetica,sans-Serif" font-size="10.00" fill="#000000"> &#45;mSizeMultiplier</text>
<text text-anchor="middle" x="470.791" y="-324" font-family="Helvetica,sans-Serif" font-size="10.00" fill="#000000">&#45;mHi</text>
<text text-anchor="middle" x="470.791" y="-313" font-family="Helvetica,sans-Serif" font-size="10.00" fill="#000000">&#45;mLo</text>
<text text-anchor="middle" x="470.791" y="-302" font-family="Helvetica,sans-Serif" font-size="10.00" fill="#000000">&#45;mProblemSize</text>
</g>
<!-- Node5&#45;&gt;Node2 -->
<g id="edge5" class="edge">
<title>Node5&#45;&gt;Node2</title>
<path fill="none" stroke="#404040" d="M359.8606,-518.3769C343.9186,-498.9018 321.6172,-471.6581 298.6646,-443.6187"/>
<polygon fill="none" stroke="#404040" points="298.4651,-443.3749 291.5693,-441.2658 290.864,-434.0892 297.7598,-436.1984 298.4651,-443.3749"/>
<text text-anchor="middle" x="377.791" y="-492" font-family="Helvetica,sans-Serif" font-size="10.00" fill="#000000"> &#45;mHi</text>
<text text-anchor="middle" x="377.791" y="-481" font-family="Helvetica,sans-Serif" font-size="10.00" fill="#000000">&#45;mNumProcs</text>
<text text-anchor="middle" x="377.791" y="-470" font-family="Helvetica,sans-Serif" font-size="10.00" fill="#000000">&#45;mLo</text>
<text text-anchor="middle" x="377.791" y="-459" font-family="Helvetica,sans-Serif" font-size="10.00" fill="#000000">&#45;mProblemSize</text>
</g>
<!-- Node6 -->
<g id="node6" class="node">
<title>Node6</title>
<g id="a_node6"><a xlink:href="classdouble.html" target="_top" xlink:title="{double\n||}">
<polygon fill="#ffffff" stroke="#000000" points="522.791,-292.5 522.791,-349.5 567.791,-349.5 567.791,-292.5 522.791,-292.5"/>
<text text-anchor="middle" x="545.291" y="-337.5" font-family="Helvetica,sans-Serif" font-size="10.00" fill="#000000">double</text>
<polyline fill="none" stroke="#000000" points="522.791,-330.5 567.791,-330.5 "/>
<text text-anchor="middle" x="545.291" y="-318.5" font-family="Helvetica,sans-Serif" font-size="10.00" fill="#000000"> </text>
<polyline fill="none" stroke="#000000" points="522.791,-311.5 567.791,-311.5 "/>
<text text-anchor="middle" x="545.291" y="-299.5" font-family="Helvetica,sans-Serif" font-size="10.00" fill="#000000"> </text>
</a>
</g>
</g>
<!-- Node6&#45;&gt;Node1 -->
<g id="edge6" class="edge">
<title>Node6&#45;&gt;Node1</title>
<path fill="none" stroke="#404040" d="M538.34,-292.3852C531.985,-268.2419 521.5632,-233.0695 508.291,-204 502.7072,-191.7702 496.1678,-179.2685 489.3011,-167.1228"/>
<polygon fill="none" stroke="#404040" points="489.2001,-166.9479 482.7354,-163.7529 483.1982,-156.5566 489.6629,-159.7516 489.2001,-166.9479"/>
<text text-anchor="middle" x="515.791" y="-178" font-family="Helvetica,sans-Serif" font-size="10.00" fill="#000000"> &#45;mpVec</text>
</g>
<!-- Node7 -->
<g id="node7" class="node">
<title>Node7</title>
<g id="a_node7"><a xlink:href="classVec.html" target="_top" xlink:title="{Vec\n||}">
<polygon fill="#ffffff" stroke="#000000" points="587.291,-292.5 587.291,-349.5 621.291,-349.5 621.291,-292.5 587.291,-292.5"/>
<text text-anchor="middle" x="604.291" y="-337.5" font-family="Helvetica,sans-Serif" font-size="10.00" fill="#000000">Vec</text>
<polyline fill="none" stroke="#000000" points="587.291,-330.5 621.291,-330.5 "/>
<text text-anchor="middle" x="604.291" y="-318.5" font-family="Helvetica,sans-Serif" font-size="10.00" fill="#000000"> </text>
<polyline fill="none" stroke="#000000" points="587.291,-311.5 621.291,-311.5 "/>
<text text-anchor="middle" x="604.291" y="-299.5" font-family="Helvetica,sans-Serif" font-size="10.00" fill="#000000"> </text>
</a>
</g>
</g>
<!-- Node7&#45;&gt;Node1 -->
<g id="edge9" class="edge">
<title>Node7&#45;&gt;Node1</title>
<path fill="none" stroke="#404040" d="M602.6602,-292.1859C600.1295,-267.2788 593.6847,-231.116 577.291,-204 557.7998,-171.7608 527.1704,-143.5825 498.9889,-122.1387"/>
<polygon fill="none" stroke="#404040" points="498.7841,-121.9869 491.582,-121.6259 489.1451,-114.839 496.3472,-115.2 498.7841,-121.9869"/>
<text text-anchor="middle" x="578.291" y="-178" font-family="Helvetica,sans-Serif" font-size="10.00" fill="#000000"> &#45;mVec</text>
</g>
</g>
</svg>
