<?xml version="1.0" encoding="UTF-8" standalone="no"?>
<!DOCTYPE svg PUBLIC "-//W3C//DTD SVG 1.1//EN"
 "http://www.w3.org/Graphics/SVG/1.1/DTD/svg11.dtd">
<!-- Generated by graphviz version 2.40.1 (20161225.0304)
 -->
<!-- Title: AbstractSimpleCellCycleModel Pages: 1 -->
<svg width="545pt" height="552pt"
 viewBox="0.00 0.00 544.50 552.00" xmlns="http://www.w3.org/2000/svg" xmlns:xlink="http://www.w3.org/1999/xlink">
<g id="graph0" class="graph" transform="scale(1 1) rotate(0) translate(4 548)">
<title>AbstractSimpleCellCycleModel</title>
<polygon fill="#ffffff" stroke="transparent" points="-4,4 -4,-548 540.5,-548 540.5,4 -4,4"/>
<!-- Node4 -->
<g id="node1" class="node">
<title>Node4</title>
<polygon fill="#bfbfbf" stroke="#000000" points="0,-.5 0,-178.5 180,-178.5 180,-.5 0,-.5"/>
<text text-anchor="middle" x="90" y="-166.5" font-family="Helvetica,sans-Serif" font-size="10.00" fill="#000000">AbstractSimpleCellCycleModel</text>
<polyline fill="none" stroke="#000000" points="0,-159.5 180,-159.5 "/>
<text text-anchor="middle" x="90" y="-147.5" font-family="Helvetica,sans-Serif" font-size="10.00" fill="#000000"> </text>
<polyline fill="none" stroke="#000000" points="0,-140.5 180,-140.5 "/>
<text text-anchor="start" x="8" y="-128.5" font-family="Helvetica,sans-Serif" font-size="10.00" fill="#000000">+ AbstractSimpleCellCycleModel()</text>
<text text-anchor="start" x="8" y="-117.5" font-family="Helvetica,sans-Serif" font-size="10.00" fill="#000000">+ ~AbstractSimpleCellCycle</text>
<text text-anchor="start" x="8" y="-106.5" font-family="Helvetica,sans-Serif" font-size="10.00" fill="#000000">Model()</text>
<text text-anchor="start" x="8" y="-95.5" font-family="Helvetica,sans-Serif" font-size="10.00" fill="#000000">+ ReadyToDivide()</text>
<text text-anchor="start" x="8" y="-84.5" font-family="Helvetica,sans-Serif" font-size="10.00" fill="#000000">+ ResetForDivision()</text>
<text text-anchor="start" x="8" y="-73.5" font-family="Helvetica,sans-Serif" font-size="10.00" fill="#000000">+ InitialiseDaughterCell()</text>
<text text-anchor="start" x="8" y="-62.5" font-family="Helvetica,sans-Serif" font-size="10.00" fill="#000000">+ Initialise()</text>
<text text-anchor="start" x="8" y="-51.5" font-family="Helvetica,sans-Serif" font-size="10.00" fill="#000000">+ SetCellCycleDuration()</text>
<text text-anchor="start" x="8" y="-40.5" font-family="Helvetica,sans-Serif" font-size="10.00" fill="#000000">+ GetCellCycleDuration()</text>
<text text-anchor="start" x="8" y="-29.5" font-family="Helvetica,sans-Serif" font-size="10.00" fill="#000000">+ OutputCellCycleModelParameters()</text>
<text text-anchor="start" x="8" y="-18.5" font-family="Helvetica,sans-Serif" font-size="10.00" fill="#000000"># AbstractSimpleCellCycleModel()</text>
<text text-anchor="start" x="8" y="-7.5" font-family="Helvetica,sans-Serif" font-size="10.00" fill="#000000">&#45; serialize()</text>
</g>
<!-- Node5 -->
<g id="node2" class="node">
<title>Node5</title>
<g id="a_node2"><a xlink:href="classAbstractCellCycleModel.html" target="_top" xlink:title="{AbstractCellCycleModel\n||+ AbstractCellCycleModel()\l+ ~AbstractCellCycleModel()\l+ SetCell()\l+ Initialise()\l+ InitialiseDaughterCell()\l+ GetCell()\l+ SetBirthTime()\l+ SetDimension()\l+ GetDimension()\l+ GetBirthTime()\land 9 more...\l# AbstractCellCycleModel()\l&#45; serialize()\l&#45; operator=()\l}">
<polygon fill="#ffffff" stroke="#000000" points="152.5,-216.5 152.5,-416.5 295.5,-416.5 295.5,-216.5 152.5,-216.5"/>
<text text-anchor="middle" x="224" y="-404.5" font-family="Helvetica,sans-Serif" font-size="10.00" fill="#000000">AbstractCellCycleModel</text>
<polyline fill="none" stroke="#000000" points="152.5,-397.5 295.5,-397.5 "/>
<text text-anchor="middle" x="224" y="-385.5" font-family="Helvetica,sans-Serif" font-size="10.00" fill="#000000"> </text>
<polyline fill="none" stroke="#000000" points="152.5,-378.5 295.5,-378.5 "/>
<text text-anchor="start" x="160.5" y="-366.5" font-family="Helvetica,sans-Serif" font-size="10.00" fill="#000000">+ AbstractCellCycleModel()</text>
<text text-anchor="start" x="160.5" y="-355.5" font-family="Helvetica,sans-Serif" font-size="10.00" fill="#000000">+ ~AbstractCellCycleModel()</text>
<text text-anchor="start" x="160.5" y="-344.5" font-family="Helvetica,sans-Serif" font-size="10.00" fill="#000000">+ SetCell()</text>
<text text-anchor="start" x="160.5" y="-333.5" font-family="Helvetica,sans-Serif" font-size="10.00" fill="#000000">+ Initialise()</text>
<text text-anchor="start" x="160.5" y="-322.5" font-family="Helvetica,sans-Serif" font-size="10.00" fill="#000000">+ InitialiseDaughterCell()</text>
<text text-anchor="start" x="160.5" y="-311.5" font-family="Helvetica,sans-Serif" font-size="10.00" fill="#000000">+ GetCell()</text>
<text text-anchor="start" x="160.5" y="-300.5" font-family="Helvetica,sans-Serif" font-size="10.00" fill="#000000">+ SetBirthTime()</text>
<text text-anchor="start" x="160.5" y="-289.5" font-family="Helvetica,sans-Serif" font-size="10.00" fill="#000000">+ SetDimension()</text>
<text text-anchor="start" x="160.5" y="-278.5" font-family="Helvetica,sans-Serif" font-size="10.00" fill="#000000">+ GetDimension()</text>
<text text-anchor="start" x="160.5" y="-267.5" font-family="Helvetica,sans-Serif" font-size="10.00" fill="#000000">+ GetBirthTime()</text>
<text text-anchor="start" x="160.5" y="-256.5" font-family="Helvetica,sans-Serif" font-size="10.00" fill="#000000">and 9 more...</text>
<text text-anchor="start" x="160.5" y="-245.5" font-family="Helvetica,sans-Serif" font-size="10.00" fill="#000000"># AbstractCellCycleModel()</text>
<text text-anchor="start" x="160.5" y="-234.5" font-family="Helvetica,sans-Serif" font-size="10.00" fill="#000000">&#45; serialize()</text>
<text text-anchor="start" x="160.5" y="-223.5" font-family="Helvetica,sans-Serif" font-size="10.00" fill="#000000">&#45; operator=()</text>
</a>
</g>
</g>
<!-- Node5&#45;&gt;Node4 -->
<g id="edge1" class="edge">
<title>Node5&#45;&gt;Node4</title>
<path fill="none" stroke="#191970" d="M159.643,-207.4773C153.9761,-197.8774 148.2839,-188.2346 142.7289,-178.8244"/>
<polygon fill="none" stroke="#191970" points="156.738,-209.4414 164.8356,-216.2737 162.7661,-205.8829 156.738,-209.4414"/>
</g>
<!-- Node6 -->
<g id="node3" class="node">
<title>Node6</title>
<g id="a_node3"><a xlink:href="classIdentifiable.html" target="_top" xlink:title="{Identifiable\n||+ ~Identifiable()\l+ GetIdentifier()\l&#45; TidyTemplatedExportIdentifier()\l}">
<polygon fill="#ffffff" stroke="#000000" points="377.5,-464.5 377.5,-543.5 536.5,-543.5 536.5,-464.5 377.5,-464.5"/>
<text text-anchor="middle" x="457" y="-531.5" font-family="Helvetica,sans-Serif" font-size="10.00" fill="#000000">Identifiable</text>
<polyline fill="none" stroke="#000000" points="377.5,-524.5 536.5,-524.5 "/>
<text text-anchor="middle" x="457" y="-512.5" font-family="Helvetica,sans-Serif" font-size="10.00" fill="#000000"> </text>
<polyline fill="none" stroke="#000000" points="377.5,-505.5 536.5,-505.5 "/>
<text text-anchor="start" x="385.5" y="-493.5" font-family="Helvetica,sans-Serif" font-size="10.00" fill="#000000">+ ~Identifiable()</text>
<text text-anchor="start" x="385.5" y="-482.5" font-family="Helvetica,sans-Serif" font-size="10.00" fill="#000000">+ GetIdentifier()</text>
<text text-anchor="start" x="385.5" y="-471.5" font-family="Helvetica,sans-Serif" font-size="10.00" fill="#000000">&#45; TidyTemplatedExportIdentifier()</text>
</a>
</g>
</g>
<!-- Node6&#45;&gt;Node5 -->
<g id="edge2" class="edge">
<title>Node6&#45;&gt;Node5</title>
<path fill="none" stroke="#191970" d="M407.6049,-457.2696C399.1877,-449.6805 390.437,-442.015 382,-435 354.4483,-412.092 323.0625,-388.1406 295.5637,-367.8148"/>
<polygon fill="none" stroke="#191970" points="405.4695,-460.0585 415.2226,-464.1969 410.179,-454.8796 405.4695,-460.0585"/>
</g>
<!-- Node7 -->
<g id="node4" class="node">
<title>Node7</title>
<g id="a_node4"><a xlink:href="classdouble.html" target="_top" xlink:title="{double\n||}">
<polygon fill="#ffffff" stroke="#000000" points="26.5,-475.5 26.5,-532.5 71.5,-532.5 71.5,-475.5 26.5,-475.5"/>
<text text-anchor="middle" x="49" y="-520.5" font-family="Helvetica,sans-Serif" font-size="10.00" fill="#000000">double</text>
<polyline fill="none" stroke="#000000" points="26.5,-513.5 71.5,-513.5 "/>
<text text-anchor="middle" x="49" y="-501.5" font-family="Helvetica,sans-Serif" font-size="10.00" fill="#000000"> </text>
<polyline fill="none" stroke="#000000" points="26.5,-494.5 71.5,-494.5 "/>
<text text-anchor="middle" x="49" y="-482.5" font-family="Helvetica,sans-Serif" font-size="10.00" fill="#000000"> </text>
</a>
</g>
</g>
<!-- Node7&#45;&gt;Node4 -->
<g id="edge7" class="edge">
<title>Node7&#45;&gt;Node4</title>
<path fill="none" stroke="#404040" d="M45.3487,-475.1221C39.4919,-422.9451 30.1733,-309.6776 46,-216 47.4247,-207.567 49.3484,-198.9459 51.5981,-190.3648"/>
<polygon fill="none" stroke="#404040" points="51.6252,-190.2677 49.3858,-183.4131 54.8519,-178.7097 57.0912,-185.5643 51.6252,-190.2677"/>
<text text-anchor="middle" x="94.5" y="-314" font-family="Helvetica,sans-Serif" font-size="10.00" fill="#000000"> #mCellCycleDuration</text>
</g>
<!-- Node7&#45;&gt;Node5 -->
<g id="edge3" class="edge">
<title>Node7&#45;&gt;Node5</title>
<path fill="none" stroke="#404040" d="M70.1098,-475.2541C80.6157,-462.0787 94.0386,-446.8048 108,-435 119.8737,-424.9604 126.1244,-427.0373 138,-417 139.8087,-415.4713 141.6112,-413.9027 143.4051,-412.2998"/>
<polygon fill="none" stroke="#404040" points="143.5086,-412.2034 145.1746,-405.1874 152.2917,-404.0267 150.6257,-411.0427 143.5086,-412.2034"/>
<text text-anchor="middle" x="137.5" y="-438" font-family="Helvetica,sans-Serif" font-size="10.00" fill="#000000"> #mBirthTime</text>
</g>
<!-- Node8 -->
<g id="node5" class="node">
<title>Node8</title>
<polygon fill="#ffffff" stroke="#bfbfbf" points="96,-475.5 96,-532.5 194,-532.5 194,-475.5 96,-475.5"/>
<text text-anchor="middle" x="145" y="-520.5" font-family="Helvetica,sans-Serif" font-size="10.00" fill="#000000">shared_ptr&lt; Cell &gt;</text>
<polyline fill="none" stroke="#bfbfbf" points="96,-513.5 194,-513.5 "/>
<text text-anchor="middle" x="145" y="-501.5" font-family="Helvetica,sans-Serif" font-size="10.00" fill="#000000"> </text>
<polyline fill="none" stroke="#bfbfbf" points="96,-494.5 194,-494.5 "/>
<text text-anchor="middle" x="145" y="-482.5" font-family="Helvetica,sans-Serif" font-size="10.00" fill="#000000"> </text>
</g>
<!-- Node8&#45;&gt;Node5 -->
<g id="edge4" class="edge">
<title>Node8&#45;&gt;Node5</title>
<path fill="none" stroke="#404040" d="M157.1706,-475.114C162.7093,-461.9684 169.6541,-445.4855 176.9562,-428.1547"/>
<polygon fill="none" stroke="#404040" points="177.1357,-427.7285 175.7792,-420.6461 181.7951,-416.67 183.1515,-423.7523 177.1357,-427.7285"/>
<text text-anchor="middle" x="193" y="-438" font-family="Helvetica,sans-Serif" font-size="10.00" fill="#000000"> #mpCell</text>
</g>
<!-- Node9 -->
<g id="node6" class="node">
<title>Node9</title>
<g id="a_node6"><a xlink:href="classbool.html" target="_top" xlink:title="{bool\n||}">
<polygon fill="#ffffff" stroke="#000000" points="212.5,-475.5 212.5,-532.5 247.5,-532.5 247.5,-475.5 212.5,-475.5"/>
<text text-anchor="middle" x="230" y="-520.5" font-family="Helvetica,sans-Serif" font-size="10.00" fill="#000000">bool</text>
<polyline fill="none" stroke="#000000" points="212.5,-513.5 247.5,-513.5 "/>
<text text-anchor="middle" x="230" y="-501.5" font-family="Helvetica,sans-Serif" font-size="10.00" fill="#000000"> </text>
<polyline fill="none" stroke="#000000" points="212.5,-494.5 247.5,-494.5 "/>
<text text-anchor="middle" x="230" y="-482.5" font-family="Helvetica,sans-Serif" font-size="10.00" fill="#000000"> </text>
</a>
</g>
</g>
<!-- Node9&#45;&gt;Node5 -->
<g id="edge5" class="edge">
<title>Node9&#45;&gt;Node5</title>
<path fill="none" stroke="#404040" d="M227.0883,-475.4139C226.2542,-466.0508 225.4497,-455.5909 225,-446 224.7342,-440.3327 224.5112,-434.5244 224.3249,-428.658"/>
<polygon fill="none" stroke="#404040" points="224.3222,-428.5567 220.1589,-422.6689 223.9925,-416.5612 228.1559,-422.4491 224.3222,-428.5567"/>
<text text-anchor="middle" x="267.5" y="-438" font-family="Helvetica,sans-Serif" font-size="10.00" fill="#000000"> #mReadyToDivide</text>
</g>
<!-- Node10 -->
<g id="node7" class="node">
<title>Node10</title>
<g id="a_node7"><a xlink:href="classunsigned.html" target="_top" xlink:title="{unsigned\n||}">
<polygon fill="#ffffff" stroke="#000000" points="304,-475.5 304,-532.5 360,-532.5 360,-475.5 304,-475.5"/>
<text text-anchor="middle" x="332" y="-520.5" font-family="Helvetica,sans-Serif" font-size="10.00" fill="#000000">unsigned</text>
<polyline fill="none" stroke="#000000" points="304,-513.5 360,-513.5 "/>
<text text-anchor="middle" x="332" y="-501.5" font-family="Helvetica,sans-Serif" font-size="10.00" fill="#000000"> </text>
<polyline fill="none" stroke="#000000" points="304,-494.5 360,-494.5 "/>
<text text-anchor="middle" x="332" y="-482.5" font-family="Helvetica,sans-Serif" font-size="10.00" fill="#000000"> </text>
</a>
</g>
</g>
<!-- Node10&#45;&gt;Node5 -->
<g id="edge6" class="edge">
<title>Node10&#45;&gt;Node5</title>
<path fill="none" stroke="#404040" d="M325.0774,-475.3316C321.4499,-462.6084 316.412,-447.6787 310,-435 307.4457,-429.9493 304.6852,-424.8807 301.7736,-419.8356"/>
<polygon fill="none" stroke="#404040" points="301.7658,-419.8226 295.2521,-416.7287 295.6027,-409.5261 302.1164,-412.62 301.7658,-419.8226"/>
<text text-anchor="middle" x="346" y="-438" font-family="Helvetica,sans-Serif" font-size="10.00" fill="#000000"> #mDimension</text>
</g>
</g>
</svg>
