<?xml version="1.0" encoding="UTF-8" standalone="no"?>
<!DOCTYPE svg PUBLIC "-//W3C//DTD SVG 1.1//EN"
 "http://www.w3.org/Graphics/SVG/1.1/DTD/svg11.dtd">
<!-- Generated by graphviz version 2.40.1 (20161225.0304)
 -->
<!-- Title: AbstractConvergenceTester&lt; CELL, CARDIAC_PROBLEM, DIM, PROBLEM_DIM &gt; Pages: 1 -->
<svg width="495pt" height="552pt"
 viewBox="0.00 0.00 494.50 552.00" xmlns="http://www.w3.org/2000/svg" xmlns:xlink="http://www.w3.org/1999/xlink">
<g id="graph0" class="graph" transform="scale(1 1) rotate(0) translate(4 548)">
<title>AbstractConvergenceTester&lt; CELL, CARDIAC_PROBLEM, DIM, PROBLEM_DIM &gt;</title>
<polygon fill="#ffffff" stroke="transparent" points="-4,4 -4,-548 490.5,-548 490.5,4 -4,4"/>
<!-- Node6 -->
<g id="node1" class="node">
<title>Node6</title>
<polygon fill="#bfbfbf" stroke="#000000" points="169.5,-.5 169.5,-178.5 347.5,-178.5 347.5,-.5 169.5,-.5"/>
<text text-anchor="start" x="177.5" y="-166.5" font-family="Helvetica,sans-Serif" font-size="10.00" fill="#000000">AbstractConvergenceTester</text>
<text text-anchor="start" x="177.5" y="-155.5" font-family="Helvetica,sans-Serif" font-size="10.00" fill="#000000">&lt; CELL, CARDIAC_PROBLEM,</text>
<text text-anchor="middle" x="258.5" y="-144.5" font-family="Helvetica,sans-Serif" font-size="10.00" fill="#000000"> DIM, PROBLEM_DIM &gt;</text>
<polyline fill="none" stroke="#000000" points="169.5,-137.5 347.5,-137.5 "/>
<text text-anchor="middle" x="258.5" y="-125.5" font-family="Helvetica,sans-Serif" font-size="10.00" fill="#000000"> </text>
<polyline fill="none" stroke="#000000" points="169.5,-118.5 347.5,-118.5 "/>
<text text-anchor="start" x="177.5" y="-106.5" font-family="Helvetica,sans-Serif" font-size="10.00" fill="#000000">+ Converge()</text>
<text text-anchor="start" x="177.5" y="-95.5" font-family="Helvetica,sans-Serif" font-size="10.00" fill="#000000">+ DisplayRun()</text>
<text text-anchor="start" x="177.5" y="-84.5" font-family="Helvetica,sans-Serif" font-size="10.00" fill="#000000">+ ~AbstractConvergenceTester()</text>
<text text-anchor="start" x="177.5" y="-73.5" font-family="Helvetica,sans-Serif" font-size="10.00" fill="#000000">+ SetInitialConvergenceParameters()</text>
<text text-anchor="start" x="177.5" y="-62.5" font-family="Helvetica,sans-Serif" font-size="10.00" fill="#000000">+ UpdateConvergenceParameters()</text>
<text text-anchor="start" x="177.5" y="-51.5" font-family="Helvetica,sans-Serif" font-size="10.00" fill="#000000">+ GiveUpConvergence()</text>
<text text-anchor="start" x="177.5" y="-40.5" font-family="Helvetica,sans-Serif" font-size="10.00" fill="#000000">+ Abscissa()</text>
<text text-anchor="start" x="177.5" y="-29.5" font-family="Helvetica,sans-Serif" font-size="10.00" fill="#000000">+ PopulateStandardResult()</text>
<text text-anchor="start" x="177.5" y="-18.5" font-family="Helvetica,sans-Serif" font-size="10.00" fill="#000000">+ IsConverged()</text>
<text text-anchor="start" x="177.5" y="-7.5" font-family="Helvetica,sans-Serif" font-size="10.00" fill="#000000">+ SetMeshWidth()</text>
</g>
<!-- Node7 -->
<g id="node2" class="node">
<title>Node7</title>
<g id="a_node2"><a xlink:href="classAbstractUntemplatedConvergenceTester.html" target="_top" xlink:title="{AbstractUntemplatedConvergence\lTester\n||+ AbstractUntemplatedConvergence\lTester()\l+ Converge()\l+ ~AbstractUntemplatedConvergence\lTester()\l}">
<polygon fill="#ffffff" stroke="#000000" points="167.5,-216.5 167.5,-328.5 349.5,-328.5 349.5,-216.5 167.5,-216.5"/>
<text text-anchor="start" x="175.5" y="-316.5" font-family="Helvetica,sans-Serif" font-size="10.00" fill="#000000">AbstractUntemplatedConvergence</text>
<text text-anchor="middle" x="258.5" y="-305.5" font-family="Helvetica,sans-Serif" font-size="10.00" fill="#000000">Tester</text>
<polyline fill="none" stroke="#000000" points="167.5,-298.5 349.5,-298.5 "/>
<text text-anchor="middle" x="258.5" y="-286.5" font-family="Helvetica,sans-Serif" font-size="10.00" fill="#000000"> </text>
<polyline fill="none" stroke="#000000" points="167.5,-279.5 349.5,-279.5 "/>
<text text-anchor="start" x="175.5" y="-267.5" font-family="Helvetica,sans-Serif" font-size="10.00" fill="#000000">+ AbstractUntemplatedConvergence</text>
<text text-anchor="start" x="175.5" y="-256.5" font-family="Helvetica,sans-Serif" font-size="10.00" fill="#000000">Tester()</text>
<text text-anchor="start" x="175.5" y="-245.5" font-family="Helvetica,sans-Serif" font-size="10.00" fill="#000000">+ Converge()</text>
<text text-anchor="start" x="175.5" y="-234.5" font-family="Helvetica,sans-Serif" font-size="10.00" fill="#000000">+ ~AbstractUntemplatedConvergence</text>
<text text-anchor="start" x="175.5" y="-223.5" font-family="Helvetica,sans-Serif" font-size="10.00" fill="#000000">Tester()</text>
</a>
</g>
</g>
<!-- Node7&#45;&gt;Node6 -->
<g id="edge1" class="edge">
<title>Node7&#45;&gt;Node6</title>
<path fill="none" stroke="#191970" d="M258.5,-205.8895C258.5,-197.0408 258.5,-187.8559 258.5,-178.7018"/>
<polygon fill="none" stroke="#191970" points="255.0001,-206.1007 258.5,-216.1007 262.0001,-206.1008 255.0001,-206.1007"/>
</g>
<!-- Node8 -->
<g id="node3" class="node">
<title>Node8</title>
<g id="a_node3"><a xlink:href="classdouble.html" target="_top" xlink:title="{double\n||}">
<polygon fill="#ffffff" stroke="#000000" points="0,-486.5 0,-543.5 45,-543.5 45,-486.5 0,-486.5"/>
<text text-anchor="middle" x="22.5" y="-531.5" font-family="Helvetica,sans-Serif" font-size="10.00" fill="#000000">double</text>
<polyline fill="none" stroke="#000000" points="0,-524.5 45,-524.5 "/>
<text text-anchor="middle" x="22.5" y="-512.5" font-family="Helvetica,sans-Serif" font-size="10.00" fill="#000000"> </text>
<polyline fill="none" stroke="#000000" points="0,-505.5 45,-505.5 "/>
<text text-anchor="middle" x="22.5" y="-493.5" font-family="Helvetica,sans-Serif" font-size="10.00" fill="#000000"> </text>
</a>
</g>
</g>
<!-- Node8&#45;&gt;Node7 -->
<g id="edge2" class="edge">
<title>Node8&#45;&gt;Node7</title>
<path fill="none" stroke="#404040" d="M14.6756,-486.4749C6.556,-450.1746 -1.1094,-387.3521 29.5,-347 45.5908,-325.7876 102.3557,-307.2414 155.3386,-293.9592"/>
<polygon fill="none" stroke="#404040" points="155.62,-293.8904 160.4968,-288.5785 167.2758,-291.0371 162.399,-296.3491 155.62,-293.8904"/>
<text text-anchor="middle" x="98" y="-460" font-family="Helvetica,sans-Serif" font-size="10.00" fill="#000000"> +ConductionVelocity</text>
<text text-anchor="middle" x="98" y="-449" font-family="Helvetica,sans-Serif" font-size="10.00" fill="#000000">+OdeTimeStep</text>
<text text-anchor="middle" x="98" y="-438" font-family="Helvetica,sans-Serif" font-size="10.00" fill="#000000">+LastDifference</text>
<text text-anchor="middle" x="98" y="-427" font-family="Helvetica,sans-Serif" font-size="10.00" fill="#000000">+AbsoluteStimulus</text>
<text text-anchor="middle" x="98" y="-416" font-family="Helvetica,sans-Serif" font-size="10.00" fill="#000000">+Apd90ThirdQn</text>
<text text-anchor="middle" x="98" y="-405" font-family="Helvetica,sans-Serif" font-size="10.00" fill="#000000">+NeumannStimulus</text>
<text text-anchor="middle" x="98" y="-394" font-family="Helvetica,sans-Serif" font-size="10.00" fill="#000000">+RelativeConvergenceCriterion</text>
<text text-anchor="middle" x="98" y="-383" font-family="Helvetica,sans-Serif" font-size="10.00" fill="#000000">#mMeshWidth</text>
<text text-anchor="middle" x="98" y="-372" font-family="Helvetica,sans-Serif" font-size="10.00" fill="#000000">+Apd90FirstQn</text>
<text text-anchor="middle" x="98" y="-361" font-family="Helvetica,sans-Serif" font-size="10.00" fill="#000000">+PdeTimeStep</text>
<text text-anchor="middle" x="98" y="-350" font-family="Helvetica,sans-Serif" font-size="10.00" fill="#000000">...</text>
</g>
<!-- Node9 -->
<g id="node4" class="node">
<title>Node9</title>
<g id="a_node4"><a xlink:href="classbool.html" target="_top" xlink:title="{bool\n||}">
<polygon fill="#ffffff" stroke="#000000" points="165,-486.5 165,-543.5 200,-543.5 200,-486.5 165,-486.5"/>
<text text-anchor="middle" x="182.5" y="-531.5" font-family="Helvetica,sans-Serif" font-size="10.00" fill="#000000">bool</text>
<polyline fill="none" stroke="#000000" points="165,-524.5 200,-524.5 "/>
<text text-anchor="middle" x="182.5" y="-512.5" font-family="Helvetica,sans-Serif" font-size="10.00" fill="#000000"> </text>
<polyline fill="none" stroke="#000000" points="165,-505.5 200,-505.5 "/>
<text text-anchor="middle" x="182.5" y="-493.5" font-family="Helvetica,sans-Serif" font-size="10.00" fill="#000000"> </text>
</a>
</g>
</g>
<!-- Node9&#45;&gt;Node7 -->
<g id="edge3" class="edge">
<title>Node9&#45;&gt;Node7</title>
<path fill="none" stroke="#404040" d="M176.2665,-486.3394C170.1672,-451.8034 164.3122,-392.7211 183.5,-347 184.6386,-344.287 185.9286,-341.6217 187.3468,-339.0086"/>
<polygon fill="none" stroke="#404040" points="187.4999,-338.7624 187.2725,-331.5548 193.8382,-328.5728 194.0656,-335.7803 187.4999,-338.7624"/>
<text text-anchor="middle" x="248.5" y="-421.5" font-family="Helvetica,sans-Serif" font-size="10.00" fill="#000000"> +SimulateFullActionPotential</text>
<text text-anchor="middle" x="248.5" y="-410.5" font-family="Helvetica,sans-Serif" font-size="10.00" fill="#000000">+PopulatedResult</text>
<text text-anchor="middle" x="248.5" y="-399.5" font-family="Helvetica,sans-Serif" font-size="10.00" fill="#000000">+FixedResult</text>
<text text-anchor="middle" x="248.5" y="-388.5" font-family="Helvetica,sans-Serif" font-size="10.00" fill="#000000">+Converged</text>
</g>
<!-- Node10 -->
<g id="node5" class="node">
<title>Node10</title>
<polygon fill="#ffffff" stroke="#bfbfbf" points="281,-486.5 281,-543.5 390,-543.5 390,-486.5 281,-486.5"/>
<text text-anchor="middle" x="335.5" y="-531.5" font-family="Helvetica,sans-Serif" font-size="10.00" fill="#000000">enum StimulusType_</text>
<polyline fill="none" stroke="#bfbfbf" points="281,-524.5 390,-524.5 "/>
<text text-anchor="middle" x="335.5" y="-512.5" font-family="Helvetica,sans-Serif" font-size="10.00" fill="#000000"> </text>
<polyline fill="none" stroke="#bfbfbf" points="281,-505.5 390,-505.5 "/>
<text text-anchor="middle" x="335.5" y="-493.5" font-family="Helvetica,sans-Serif" font-size="10.00" fill="#000000"> </text>
</g>
<!-- Node10&#45;&gt;Node7 -->
<g id="edge4" class="edge">
<title>Node10&#45;&gt;Node7</title>
<path fill="none" stroke="#404040" d="M336.0453,-486.2598C335.7386,-451.9013 332.1363,-393.2457 313.5,-347 312.4353,-344.3579 311.2544,-341.7246 309.9787,-339.1115"/>
<polygon fill="none" stroke="#404040" points="309.9568,-339.071 303.5858,-335.693 304.2536,-328.5128 310.6246,-331.8909 309.9568,-339.071"/>
<text text-anchor="middle" x="358.5" y="-405" font-family="Helvetica,sans-Serif" font-size="10.00" fill="#000000"> +Stimulus</text>
</g>
<!-- Node11 -->
<g id="node6" class="node">
<title>Node11</title>
<g id="a_node6"><a xlink:href="classunsigned.html" target="_top" xlink:title="{unsigned\n||}">
<polygon fill="#ffffff" stroke="#000000" points="408.5,-486.5 408.5,-543.5 464.5,-543.5 464.5,-486.5 408.5,-486.5"/>
<text text-anchor="middle" x="436.5" y="-531.5" font-family="Helvetica,sans-Serif" font-size="10.00" fill="#000000">unsigned</text>
<polyline fill="none" stroke="#000000" points="408.5,-524.5 464.5,-524.5 "/>
<text text-anchor="middle" x="436.5" y="-512.5" font-family="Helvetica,sans-Serif" font-size="10.00" fill="#000000"> </text>
<polyline fill="none" stroke="#000000" points="408.5,-505.5 464.5,-505.5 "/>
<text text-anchor="middle" x="436.5" y="-493.5" font-family="Helvetica,sans-Serif" font-size="10.00" fill="#000000"> </text>
</a>
</g>
</g>
<!-- Node11&#45;&gt;Node7 -->
<g id="edge5" class="edge">
<title>Node11&#45;&gt;Node7</title>
<path fill="none" stroke="#404040" d="M434.3696,-486.2086C430.3726,-450.1951 418.9528,-388.2599 386.5,-347 378.8507,-337.2748 369.5544,-328.5734 359.5006,-320.8545"/>
<polygon fill="none" stroke="#404040" points="359.3899,-320.7747 352.1837,-320.5081 349.6582,-313.7536 356.8644,-314.0203 359.3899,-320.7747"/>
<text text-anchor="middle" x="459" y="-405" font-family="Helvetica,sans-Serif" font-size="10.00" fill="#000000"> +MeshNum</text>
</g>
</g>
</svg>
