<?xml version="1.0" encoding="UTF-8" standalone="no"?>
<!DOCTYPE svg PUBLIC "-//W3C//DTD SVG 1.1//EN"
 "http://www.w3.org/Graphics/SVG/1.1/DTD/svg11.dtd">
<!-- Generated by graphviz version 2.40.1 (20161225.0304)
 -->
<!-- Title: AbstractCardiacMechanicsSolver&lt; ELASTICITY_SOLVER, DIM &gt; Pages: 1 -->
<svg width="1776pt" height="716pt"
 viewBox="0.00 0.00 1776.00 716.00" xmlns="http://www.w3.org/2000/svg" xmlns:xlink="http://www.w3.org/1999/xlink">
<g id="graph0" class="graph" transform="scale(1 1) rotate(0) translate(4 712)">
<title>AbstractCardiacMechanicsSolver&lt; ELASTICITY_SOLVER, DIM &gt;</title>
<polygon fill="#ffffff" stroke="transparent" points="-4,4 -4,-712 1772,-712 1772,4 -4,4"/>
<!-- Node5 -->
<g id="node1" class="node">
<title>Node5</title>
<polygon fill="#bfbfbf" stroke="#000000" points="807,-.5 807,-310.5 985,-310.5 985,-.5 807,-.5"/>
<text text-anchor="start" x="815" y="-298.5" font-family="Helvetica,sans-Serif" font-size="10.00" fill="#000000">AbstractCardiacMechanics</text>
<text text-anchor="start" x="815" y="-287.5" font-family="Helvetica,sans-Serif" font-size="10.00" fill="#000000">Solver&lt; ELASTICITY_SOLVER,</text>
<text text-anchor="middle" x="896" y="-276.5" font-family="Helvetica,sans-Serif" font-size="10.00" fill="#000000"> DIM &gt;</text>
<polyline fill="none" stroke="#000000" points="807,-269.5 985,-269.5 "/>
<text text-anchor="middle" x="896" y="-257.5" font-family="Helvetica,sans-Serif" font-size="10.00" fill="#000000"> </text>
<polyline fill="none" stroke="#000000" points="807,-250.5 985,-250.5 "/>
<text text-anchor="start" x="815" y="-238.5" font-family="Helvetica,sans-Serif" font-size="10.00" fill="#000000">+ AbstractCardiacMechanics</text>
<text text-anchor="start" x="815" y="-227.5" font-family="Helvetica,sans-Serif" font-size="10.00" fill="#000000">Solver()</text>
<text text-anchor="start" x="815" y="-216.5" font-family="Helvetica,sans-Serif" font-size="10.00" fill="#000000">+ ~AbstractCardiacMechanics</text>
<text text-anchor="start" x="815" y="-205.5" font-family="Helvetica,sans-Serif" font-size="10.00" fill="#000000">Solver()</text>
<text text-anchor="start" x="815" y="-194.5" font-family="Helvetica,sans-Serif" font-size="10.00" fill="#000000">+ SetFineCoarseMeshPair()</text>
<text text-anchor="start" x="815" y="-183.5" font-family="Helvetica,sans-Serif" font-size="10.00" fill="#000000">+ GetTotalNumQuadPoints()</text>
<text text-anchor="start" x="815" y="-172.5" font-family="Helvetica,sans-Serif" font-size="10.00" fill="#000000">+ GetQuadratureRule()</text>
<text text-anchor="start" x="815" y="-161.5" font-family="Helvetica,sans-Serif" font-size="10.00" fill="#000000">+ rGetQuadPointToDataAtQuad</text>
<text text-anchor="start" x="815" y="-150.5" font-family="Helvetica,sans-Serif" font-size="10.00" fill="#000000">PointMap()</text>
<text text-anchor="start" x="815" y="-139.5" font-family="Helvetica,sans-Serif" font-size="10.00" fill="#000000">+ SetConstantFibreSheetDirections()</text>
<text text-anchor="start" x="815" y="-128.5" font-family="Helvetica,sans-Serif" font-size="10.00" fill="#000000">+ SetVariableFibreSheetDirections()</text>
<text text-anchor="start" x="815" y="-117.5" font-family="Helvetica,sans-Serif" font-size="10.00" fill="#000000">+ SetCalciumAndVoltage()</text>
<text text-anchor="start" x="815" y="-106.5" font-family="Helvetica,sans-Serif" font-size="10.00" fill="#000000">+ Solve()</text>
<text text-anchor="start" x="815" y="-95.5" font-family="Helvetica,sans-Serif" font-size="10.00" fill="#000000">+ ComputeDeformationGradient</text>
<text text-anchor="start" x="815" y="-84.5" font-family="Helvetica,sans-Serif" font-size="10.00" fill="#000000">AndStretchInEachElement()</text>
<text text-anchor="start" x="815" y="-73.5" font-family="Helvetica,sans-Serif" font-size="10.00" fill="#000000"># IsImplicitSolver()</text>
<text text-anchor="start" x="815" y="-62.5" font-family="Helvetica,sans-Serif" font-size="10.00" fill="#000000"># AddActiveStressAndStress</text>
<text text-anchor="start" x="815" y="-51.5" font-family="Helvetica,sans-Serif" font-size="10.00" fill="#000000">Derivative()</text>
<text text-anchor="start" x="815" y="-40.5" font-family="Helvetica,sans-Serif" font-size="10.00" fill="#000000"># SetupChangeOfBasisMatrix()</text>
<text text-anchor="start" x="815" y="-29.5" font-family="Helvetica,sans-Serif" font-size="10.00" fill="#000000"># Initialise()</text>
<text text-anchor="start" x="815" y="-18.5" font-family="Helvetica,sans-Serif" font-size="10.00" fill="#000000"># GetActiveTensionAndTension</text>
<text text-anchor="start" x="815" y="-7.5" font-family="Helvetica,sans-Serif" font-size="10.00" fill="#000000">Derivs()</text>
</g>
<!-- Node6 -->
<g id="node2" class="node">
<title>Node6</title>
<g id="a_node2"><a xlink:href="classELASTICITY__SOLVER.html" target="_top" xlink:title="{ELASTICITY_SOLVER\n||}">
<polygon fill="#ffffff" stroke="#000000" points="0,-468.5 0,-525.5 120,-525.5 120,-468.5 0,-468.5"/>
<text text-anchor="middle" x="60" y="-513.5" font-family="Helvetica,sans-Serif" font-size="10.00" fill="#000000">ELASTICITY_SOLVER</text>
<polyline fill="none" stroke="#000000" points="0,-506.5 120,-506.5 "/>
<text text-anchor="middle" x="60" y="-494.5" font-family="Helvetica,sans-Serif" font-size="10.00" fill="#000000"> </text>
<polyline fill="none" stroke="#000000" points="0,-487.5 120,-487.5 "/>
<text text-anchor="middle" x="60" y="-475.5" font-family="Helvetica,sans-Serif" font-size="10.00" fill="#000000"> </text>
</a>
</g>
</g>
<!-- Node6&#45;&gt;Node5 -->
<g id="edge1" class="edge">
<title>Node6&#45;&gt;Node5</title>
<path fill="none" stroke="#191970" d="M76.9229,-459.0514C88.6714,-436.5268 106.2903,-408.9527 129,-391 334.8452,-228.2731 653.0522,-177.5142 806.8035,-162.0524"/>
<polygon fill="none" stroke="#191970" points="73.7706,-457.5294 72.4031,-468.0356 80.0239,-460.6753 73.7706,-457.5294"/>
</g>
<!-- Node7 -->
<g id="node3" class="node">
<title>Node7</title>
<g id="a_node3"><a xlink:href="classAbstractCardiacMechanicsSolverInterface.html" target="_top" xlink:title="{AbstractCardiacMechanics\lSolverInterface\&lt; DIM \&gt;\n||+ AbstractCardiacMechanics\lSolverInterface()\l+ ~AbstractCardiacMechanics\lSolverInterface()\l+ GetTotalNumQuadPoints()\l+ GetQuadratureRule()\l+ Initialise()\l+ SetFineCoarseMeshPair()\l+ SetConstantFibreSheetDirections()\l+ SetVariableFibreSheetDirections()\l+ SetCalciumAndVoltage()\l+ Solve()\l+ ComputeDeformationGradient\lAndStretchInEachElement()\l}">
<polygon fill="#ffffff" stroke="#000000" points="138,-391.5 138,-602.5 316,-602.5 316,-391.5 138,-391.5"/>
<text text-anchor="start" x="146" y="-590.5" font-family="Helvetica,sans-Serif" font-size="10.00" fill="#000000">AbstractCardiacMechanics</text>
<text text-anchor="middle" x="227" y="-579.5" font-family="Helvetica,sans-Serif" font-size="10.00" fill="#000000">SolverInterface&lt; DIM &gt;</text>
<polyline fill="none" stroke="#000000" points="138,-572.5 316,-572.5 "/>
<text text-anchor="middle" x="227" y="-560.5" font-family="Helvetica,sans-Serif" font-size="10.00" fill="#000000"> </text>
<polyline fill="none" stroke="#000000" points="138,-553.5 316,-553.5 "/>
<text text-anchor="start" x="146" y="-541.5" font-family="Helvetica,sans-Serif" font-size="10.00" fill="#000000">+ AbstractCardiacMechanics</text>
<text text-anchor="start" x="146" y="-530.5" font-family="Helvetica,sans-Serif" font-size="10.00" fill="#000000">SolverInterface()</text>
<text text-anchor="start" x="146" y="-519.5" font-family="Helvetica,sans-Serif" font-size="10.00" fill="#000000">+ ~AbstractCardiacMechanics</text>
<text text-anchor="start" x="146" y="-508.5" font-family="Helvetica,sans-Serif" font-size="10.00" fill="#000000">SolverInterface()</text>
<text text-anchor="start" x="146" y="-497.5" font-family="Helvetica,sans-Serif" font-size="10.00" fill="#000000">+ GetTotalNumQuadPoints()</text>
<text text-anchor="start" x="146" y="-486.5" font-family="Helvetica,sans-Serif" font-size="10.00" fill="#000000">+ GetQuadratureRule()</text>
<text text-anchor="start" x="146" y="-475.5" font-family="Helvetica,sans-Serif" font-size="10.00" fill="#000000">+ Initialise()</text>
<text text-anchor="start" x="146" y="-464.5" font-family="Helvetica,sans-Serif" font-size="10.00" fill="#000000">+ SetFineCoarseMeshPair()</text>
<text text-anchor="start" x="146" y="-453.5" font-family="Helvetica,sans-Serif" font-size="10.00" fill="#000000">+ SetConstantFibreSheetDirections()</text>
<text text-anchor="start" x="146" y="-442.5" font-family="Helvetica,sans-Serif" font-size="10.00" fill="#000000">+ SetVariableFibreSheetDirections()</text>
<text text-anchor="start" x="146" y="-431.5" font-family="Helvetica,sans-Serif" font-size="10.00" fill="#000000">+ SetCalciumAndVoltage()</text>
<text text-anchor="start" x="146" y="-420.5" font-family="Helvetica,sans-Serif" font-size="10.00" fill="#000000">+ Solve()</text>
<text text-anchor="start" x="146" y="-409.5" font-family="Helvetica,sans-Serif" font-size="10.00" fill="#000000">+ ComputeDeformationGradient</text>
<text text-anchor="start" x="146" y="-398.5" font-family="Helvetica,sans-Serif" font-size="10.00" fill="#000000">AndStretchInEachElement()</text>
</a>
</g>
</g>
<!-- Node7&#45;&gt;Node5 -->
<g id="edge2" class="edge">
<title>Node7&#45;&gt;Node5</title>
<path fill="none" stroke="#191970" d="M296.1426,-383.3868C312.4575,-363.1461 331.2329,-343.8235 352,-329 491.989,-229.0763 692.0995,-184.9034 806.5384,-166.8101"/>
<polygon fill="none" stroke="#191970" points="293.2037,-381.4622 289.7767,-391.4875 298.7076,-385.7874 293.2037,-381.4622"/>
</g>
<!-- Node8 -->
<g id="node4" class="node">
<title>Node8</title>
<g id="a_node4"><a xlink:href="classdouble.html" target="_top" xlink:title="{double\n||}">
<polygon fill="#ffffff" stroke="#000000" points="334.5,-468.5 334.5,-525.5 379.5,-525.5 379.5,-468.5 334.5,-468.5"/>
<text text-anchor="middle" x="357" y="-513.5" font-family="Helvetica,sans-Serif" font-size="10.00" fill="#000000">double</text>
<polyline fill="none" stroke="#000000" points="334.5,-506.5 379.5,-506.5 "/>
<text text-anchor="middle" x="357" y="-494.5" font-family="Helvetica,sans-Serif" font-size="10.00" fill="#000000"> </text>
<polyline fill="none" stroke="#000000" points="334.5,-487.5 379.5,-487.5 "/>
<text text-anchor="middle" x="357" y="-475.5" font-family="Helvetica,sans-Serif" font-size="10.00" fill="#000000"> </text>
</a>
</g>
</g>
<!-- Node8&#45;&gt;Node5 -->
<g id="edge3" class="edge">
<title>Node8&#45;&gt;Node5</title>
<path fill="none" stroke="#404040" d="M351.8676,-468.2154C347.075,-431.6378 344.8238,-368.5192 377,-329 430.2782,-263.5631 659.5146,-205.3996 794.8607,-175.9233"/>
<polygon fill="none" stroke="#404040" points="795.1218,-175.867 800.1421,-170.6904 806.8514,-173.3334 801.8311,-178.51 795.1218,-175.867"/>
<text text-anchor="middle" x="413.5" y="-359.5" font-family="Helvetica,sans-Serif" font-size="10.00" fill="#000000"> #mNextTime</text>
<text text-anchor="middle" x="413.5" y="-348.5" font-family="Helvetica,sans-Serif" font-size="10.00" fill="#000000">#mOdeTimestep</text>
<text text-anchor="middle" x="413.5" y="-337.5" font-family="Helvetica,sans-Serif" font-size="10.00" fill="#000000">#mCurrentTime</text>
</g>
<!-- Node9 -->
<g id="node5" class="node">
<title>Node9</title>
<polygon fill="#ffffff" stroke="#bfbfbf" points="397,-463 397,-531 565,-531 565,-463 397,-463"/>
<text text-anchor="start" x="405" y="-519" font-family="Helvetica,sans-Serif" font-size="10.00" fill="#000000">map&lt; unsigned, DataAtQuadrature</text>
<text text-anchor="middle" x="481" y="-508" font-family="Helvetica,sans-Serif" font-size="10.00" fill="#000000">Point_ &gt;</text>
<polyline fill="none" stroke="#bfbfbf" points="397,-501 565,-501 "/>
<text text-anchor="middle" x="481" y="-489" font-family="Helvetica,sans-Serif" font-size="10.00" fill="#000000"> </text>
<polyline fill="none" stroke="#bfbfbf" points="397,-482 565,-482 "/>
<text text-anchor="middle" x="481" y="-470" font-family="Helvetica,sans-Serif" font-size="10.00" fill="#000000"> </text>
</g>
<!-- Node9&#45;&gt;Node5 -->
<g id="edge4" class="edge">
<title>Node9&#45;&gt;Node5</title>
<path fill="none" stroke="#404040" d="M467.0897,-462.9171C454.6789,-426.5414 442.223,-368.7831 469,-329 541.3448,-221.5158 692.9943,-180.5894 794.6881,-165.0249"/>
<polygon fill="none" stroke="#404040" points="794.9596,-164.9853 800.318,-160.1595 806.8334,-163.2497 801.475,-168.0754 794.9596,-164.9853"/>
<text text-anchor="middle" x="553.5" y="-348.5" font-family="Helvetica,sans-Serif" font-size="10.00" fill="#000000"> #mQuadPointToDataAtQuadPointMap</text>
</g>
<!-- Node10 -->
<g id="node6" class="node">
<title>Node10</title>
<g id="a_node6"><a xlink:href="classbool.html" target="_top" xlink:title="{bool\n||}">
<polygon fill="#ffffff" stroke="#000000" points="627.5,-468.5 627.5,-525.5 662.5,-525.5 662.5,-468.5 627.5,-468.5"/>
<text text-anchor="middle" x="645" y="-513.5" font-family="Helvetica,sans-Serif" font-size="10.00" fill="#000000">bool</text>
<polyline fill="none" stroke="#000000" points="627.5,-506.5 662.5,-506.5 "/>
<text text-anchor="middle" x="645" y="-494.5" font-family="Helvetica,sans-Serif" font-size="10.00" fill="#000000"> </text>
<polyline fill="none" stroke="#000000" points="627.5,-487.5 662.5,-487.5 "/>
<text text-anchor="middle" x="645" y="-475.5" font-family="Helvetica,sans-Serif" font-size="10.00" fill="#000000"> </text>
</a>
</g>
</g>
<!-- Node10&#45;&gt;Node5 -->
<g id="edge5" class="edge">
<title>Node10&#45;&gt;Node5</title>
<path fill="none" stroke="#404040" d="M640.3223,-468.491C636.0245,-433.3185 633.5495,-372.8091 658,-329 688.9423,-273.5592 745.8594,-231.0826 796.2748,-202.0369"/>
<polygon fill="none" stroke="#404040" points="796.4655,-201.9296 799.7318,-195.5006 806.9225,-196.0429 803.6562,-202.4719 796.4655,-201.9296"/>
<text text-anchor="start" x="658" y="-354" font-family="Helvetica,sans-Serif" font-size="10.00" fill="#000000"> #mFibreSheetDirectionsDefined</text>
<text text-anchor="middle" x="729" y="-343" font-family="Helvetica,sans-Serif" font-size="10.00" fill="#000000">ByQuadraturePoint</text>
</g>
<!-- Node11 -->
<g id="node7" class="node">
<title>Node11</title>
<polygon fill="#ffffff" stroke="#bfbfbf" points="744.5,-463 744.5,-531 875.5,-531 875.5,-463 744.5,-463"/>
<text text-anchor="start" x="752.5" y="-519" font-family="Helvetica,sans-Serif" font-size="10.00" fill="#000000">vector&lt; c_matrix&lt; double,</text>
<text text-anchor="middle" x="810" y="-508" font-family="Helvetica,sans-Serif" font-size="10.00" fill="#000000"> DIM, DIM &gt; &gt; *</text>
<polyline fill="none" stroke="#bfbfbf" points="744.5,-501 875.5,-501 "/>
<text text-anchor="middle" x="810" y="-489" font-family="Helvetica,sans-Serif" font-size="10.00" fill="#000000"> </text>
<polyline fill="none" stroke="#bfbfbf" points="744.5,-482 875.5,-482 "/>
<text text-anchor="middle" x="810" y="-470" font-family="Helvetica,sans-Serif" font-size="10.00" fill="#000000"> </text>
</g>
<!-- Node11&#45;&gt;Node5 -->
<g id="edge6" class="edge">
<title>Node11&#45;&gt;Node5</title>
<path fill="none" stroke="#404040" d="M805.7836,-462.6875C802.5904,-428.3589 800.3602,-374.2886 811,-329 811.51,-326.8291 812.0509,-324.6539 812.6206,-322.4761"/>
<polygon fill="none" stroke="#404040" points="812.654,-322.3585 810.4451,-315.494 815.932,-310.8149 818.1409,-317.6794 812.654,-322.3585"/>
<text text-anchor="middle" x="885.5" y="-348.5" font-family="Helvetica,sans-Serif" font-size="10.00" fill="#000000"> #mpVariableFibreSheetDirections</text>
</g>
<!-- Node12 -->
<g id="node8" class="node">
<title>Node12</title>
<polygon fill="#ffffff" stroke="#bfbfbf" points="958.5,-468.5 958.5,-525.5 1005.5,-525.5 1005.5,-468.5 958.5,-468.5"/>
<text text-anchor="middle" x="982" y="-513.5" font-family="Helvetica,sans-Serif" font-size="10.00" fill="#000000">iterator</text>
<polyline fill="none" stroke="#bfbfbf" points="958.5,-506.5 1005.5,-506.5 "/>
<text text-anchor="middle" x="982" y="-494.5" font-family="Helvetica,sans-Serif" font-size="10.00" fill="#000000"> </text>
<polyline fill="none" stroke="#bfbfbf" points="958.5,-487.5 1005.5,-487.5 "/>
<text text-anchor="middle" x="982" y="-475.5" font-family="Helvetica,sans-Serif" font-size="10.00" fill="#000000"> </text>
</g>
<!-- Node12&#45;&gt;Node5 -->
<g id="edge7" class="edge">
<title>Node12&#45;&gt;Node5</title>
<path fill="none" stroke="#404040" d="M980.2061,-468.4029C977.6443,-434.6798 971.8685,-377.1235 960,-329 959.4613,-326.8156 958.9041,-324.6207 958.3298,-322.4176"/>
<polygon fill="none" stroke="#404040" points="958.2567,-322.1488 952.821,-317.4103 955.1043,-310.5702 960.54,-315.3087 958.2567,-322.1488"/>
<text text-anchor="middle" x="1001.5" y="-348.5" font-family="Helvetica,sans-Serif" font-size="10.00" fill="#000000"> #mMapIterator</text>
</g>
<!-- Node13 -->
<g id="node9" class="node">
<title>Node13</title>
<polygon fill="#ffffff" stroke="#bfbfbf" points="1023.5,-463 1023.5,-531 1142.5,-531 1142.5,-463 1023.5,-463"/>
<text text-anchor="start" x="1031.5" y="-519" font-family="Helvetica,sans-Serif" font-size="10.00" fill="#000000">c_matrix&lt; double, DIM,</text>
<text text-anchor="middle" x="1083" y="-508" font-family="Helvetica,sans-Serif" font-size="10.00" fill="#000000"> DIM &gt;</text>
<polyline fill="none" stroke="#bfbfbf" points="1023.5,-501 1142.5,-501 "/>
<text text-anchor="middle" x="1083" y="-489" font-family="Helvetica,sans-Serif" font-size="10.00" fill="#000000"> </text>
<polyline fill="none" stroke="#bfbfbf" points="1023.5,-482 1142.5,-482 "/>
<text text-anchor="middle" x="1083" y="-470" font-family="Helvetica,sans-Serif" font-size="10.00" fill="#000000"> </text>
</g>
<!-- Node13&#45;&gt;Node5 -->
<g id="edge8" class="edge">
<title>Node13&#45;&gt;Node5</title>
<path fill="none" stroke="#404040" d="M1078.503,-462.9459C1072.8799,-427.8676 1061.1712,-372.3525 1039,-329 1026.5368,-304.6302 1010.172,-280.5931 992.9781,-258.535"/>
<polygon fill="none" stroke="#404040" points="992.7682,-258.271 985.9032,-256.0637 985.3004,-248.8778 992.1654,-251.0851 992.7682,-258.271"/>
<text text-anchor="middle" x="1131" y="-348.5" font-family="Helvetica,sans-Serif" font-size="10.00" fill="#000000"> #mConstantFibreSheetDirections</text>
</g>
<!-- Node14 -->
<g id="node10" class="node">
<title>Node14</title>
<polygon fill="#ffffff" stroke="#bfbfbf" points="1056,-650.5 1056,-707.5 1110,-707.5 1110,-650.5 1056,-650.5"/>
<text text-anchor="middle" x="1083" y="-695.5" font-family="Helvetica,sans-Serif" font-size="10.00" fill="#000000">c_matrix</text>
<polyline fill="none" stroke="#bfbfbf" points="1056,-688.5 1110,-688.5 "/>
<text text-anchor="middle" x="1083" y="-676.5" font-family="Helvetica,sans-Serif" font-size="10.00" fill="#000000"> </text>
<polyline fill="none" stroke="#bfbfbf" points="1056,-669.5 1110,-669.5 "/>
<text text-anchor="middle" x="1083" y="-657.5" font-family="Helvetica,sans-Serif" font-size="10.00" fill="#000000"> </text>
</g>
<!-- Node14&#45;&gt;Node13 -->
<g id="edge9" class="edge">
<title>Node14&#45;&gt;Node13</title>
<path fill="none" stroke="#ffa500" d="M1083,-639.7491C1083,-607.4566 1083,-562.1409 1083,-531.2879"/>
<polygon fill="#ffa500" stroke="#ffa500" points="1079.5001,-640.1615 1083,-650.1616 1086.5001,-640.1616 1079.5001,-640.1615"/>
<text text-anchor="middle" x="1133" y="-624" font-family="Helvetica,sans-Serif" font-size="10.00" fill="#000000"> &lt; double, DIM, DIM &gt;</text>
</g>
<!-- Node15 -->
<g id="node11" class="node">
<title>Node15</title>
<polygon fill="#ffffff" stroke="#bfbfbf" points="1180.5,-468.5 1180.5,-525.5 1305.5,-525.5 1305.5,-468.5 1180.5,-468.5"/>
<text text-anchor="middle" x="1243" y="-513.5" font-family="Helvetica,sans-Serif" font-size="10.00" fill="#000000">c_vector&lt; double, DIM &gt;</text>
<polyline fill="none" stroke="#bfbfbf" points="1180.5,-506.5 1305.5,-506.5 "/>
<text text-anchor="middle" x="1243" y="-494.5" font-family="Helvetica,sans-Serif" font-size="10.00" fill="#000000"> </text>
<polyline fill="none" stroke="#bfbfbf" points="1180.5,-487.5 1305.5,-487.5 "/>
<text text-anchor="middle" x="1243" y="-475.5" font-family="Helvetica,sans-Serif" font-size="10.00" fill="#000000"> </text>
</g>
<!-- Node15&#45;&gt;Node5 -->
<g id="edge10" class="edge">
<title>Node15&#45;&gt;Node5</title>
<path fill="none" stroke="#404040" d="M1244.189,-468.2573C1244.2244,-432.2946 1239.332,-370.4125 1209,-329 1157.0963,-258.1356 1067.0582,-212.6262 996.8366,-186.0798"/>
<polygon fill="none" stroke="#404040" points="996.5604,-185.9779 989.5463,-187.6521 985.3031,-181.8215 992.3172,-180.1473 996.5604,-185.9779"/>
<text text-anchor="start" x="1229" y="-365" font-family="Helvetica,sans-Serif" font-size="10.00" fill="#000000"> #mCurrentElementSheetNormal</text>
<text text-anchor="middle" x="1302.5" y="-354" font-family="Helvetica,sans-Serif" font-size="10.00" fill="#000000">Direction</text>
<text text-anchor="middle" x="1302.5" y="-343" font-family="Helvetica,sans-Serif" font-size="10.00" fill="#000000">#mCurrentElementFibreDirection</text>
<text text-anchor="middle" x="1302.5" y="-332" font-family="Helvetica,sans-Serif" font-size="10.00" fill="#000000">#mCurrentElementSheetDirection</text>
</g>
<!-- Node16 -->
<g id="node12" class="node">
<title>Node16</title>
<polygon fill="#ffffff" stroke="#bfbfbf" points="1216,-650.5 1216,-707.5 1270,-707.5 1270,-650.5 1216,-650.5"/>
<text text-anchor="middle" x="1243" y="-695.5" font-family="Helvetica,sans-Serif" font-size="10.00" fill="#000000">c_vector</text>
<polyline fill="none" stroke="#bfbfbf" points="1216,-688.5 1270,-688.5 "/>
<text text-anchor="middle" x="1243" y="-676.5" font-family="Helvetica,sans-Serif" font-size="10.00" fill="#000000"> </text>
<polyline fill="none" stroke="#bfbfbf" points="1216,-669.5 1270,-669.5 "/>
<text text-anchor="middle" x="1243" y="-657.5" font-family="Helvetica,sans-Serif" font-size="10.00" fill="#000000"> </text>
</g>
<!-- Node16&#45;&gt;Node15 -->
<g id="edge11" class="edge">
<title>Node16&#45;&gt;Node15</title>
<path fill="none" stroke="#ffa500" d="M1243,-640.0261C1243,-605.7115 1243,-556.5343 1243,-525.7035"/>
<polygon fill="#ffa500" stroke="#ffa500" points="1239.5001,-640.1615 1243,-650.1616 1246.5001,-640.1616 1239.5001,-640.1615"/>
<text text-anchor="middle" x="1280.5" y="-624" font-family="Helvetica,sans-Serif" font-size="10.00" fill="#000000"> &lt; double, DIM &gt;</text>
</g>
<!-- Node17 -->
<g id="node13" class="node">
<title>Node17</title>
<polygon fill="#ffffff" stroke="#bfbfbf" points="1353,-463 1353,-531 1461,-531 1461,-463 1353,-463"/>
<text text-anchor="start" x="1361" y="-519" font-family="Helvetica,sans-Serif" font-size="10.00" fill="#000000">FineCoarseMeshPair</text>
<text text-anchor="middle" x="1407" y="-508" font-family="Helvetica,sans-Serif" font-size="10.00" fill="#000000">&lt; DIM &gt; *</text>
<polyline fill="none" stroke="#bfbfbf" points="1353,-501 1461,-501 "/>
<text text-anchor="middle" x="1407" y="-489" font-family="Helvetica,sans-Serif" font-size="10.00" fill="#000000"> </text>
<polyline fill="none" stroke="#bfbfbf" points="1353,-482 1461,-482 "/>
<text text-anchor="middle" x="1407" y="-470" font-family="Helvetica,sans-Serif" font-size="10.00" fill="#000000"> </text>
</g>
<!-- Node17&#45;&gt;Node5 -->
<g id="edge12" class="edge">
<title>Node17&#45;&gt;Node5</title>
<path fill="none" stroke="#404040" d="M1410.9725,-462.9601C1413.3667,-425.8083 1411.2324,-366.6137 1380,-329 1330.2822,-269.1241 1123.7344,-210.3189 997.0744,-178.9063"/>
<polygon fill="none" stroke="#404040" points="996.7266,-178.8207 989.9444,-181.2708 985.0743,-175.9527 991.8564,-173.5027 996.7266,-178.8207"/>
<text text-anchor="middle" x="1433" y="-348.5" font-family="Helvetica,sans-Serif" font-size="10.00" fill="#000000"> #mpMeshPair</text>
</g>
<!-- Node18 -->
<g id="node14" class="node">
<title>Node18</title>
<g id="a_node14"><a xlink:href="classunsigned.html" target="_top" xlink:title="{unsigned\n||}">
<polygon fill="#ffffff" stroke="#000000" points="1479,-468.5 1479,-525.5 1535,-525.5 1535,-468.5 1479,-468.5"/>
<text text-anchor="middle" x="1507" y="-513.5" font-family="Helvetica,sans-Serif" font-size="10.00" fill="#000000">unsigned</text>
<polyline fill="none" stroke="#000000" points="1479,-506.5 1535,-506.5 "/>
<text text-anchor="middle" x="1507" y="-494.5" font-family="Helvetica,sans-Serif" font-size="10.00" fill="#000000"> </text>
<polyline fill="none" stroke="#000000" points="1479,-487.5 1535,-487.5 "/>
<text text-anchor="middle" x="1507" y="-475.5" font-family="Helvetica,sans-Serif" font-size="10.00" fill="#000000"> </text>
</a>
</g>
</g>
<!-- Node18&#45;&gt;Node5 -->
<g id="edge13" class="edge">
<title>Node18&#45;&gt;Node5</title>
<path fill="none" stroke="#404040" d="M1508.7086,-468.3731C1509.2941,-431.3776 1504.5542,-367.1944 1469,-329 1404.7663,-259.9965 1143.8566,-201.6685 997.2504,-173.5339"/>
<polygon fill="none" stroke="#404040" points="996.9522,-173.4772 990.31,-176.2846 985.1639,-171.2332 991.8061,-168.4258 996.9522,-173.4772"/>
<text text-anchor="middle" x="1550" y="-359.5" font-family="Helvetica,sans-Serif" font-size="10.00" fill="#000000"> #mTotalQuadPoints</text>
<text text-anchor="start" x="1494" y="-348.5" font-family="Helvetica,sans-Serif" font-size="10.00" fill="#000000">#NUM_VERTICES_PER</text>
<text text-anchor="middle" x="1550" y="-337.5" font-family="Helvetica,sans-Serif" font-size="10.00" fill="#000000">_ELEMENT</text>
</g>
<!-- Node19 -->
<g id="node15" class="node">
<title>Node19</title>
<polygon fill="#ffffff" stroke="#bfbfbf" points="1554,-463 1554,-531 1726,-531 1726,-463 1554,-463"/>
<text text-anchor="start" x="1562" y="-519" font-family="Helvetica,sans-Serif" font-size="10.00" fill="#000000">ElectroMechanicsProblemDefinition</text>
<text text-anchor="middle" x="1640" y="-508" font-family="Helvetica,sans-Serif" font-size="10.00" fill="#000000">&lt; DIM &gt; &amp;</text>
<polyline fill="none" stroke="#bfbfbf" points="1554,-501 1726,-501 "/>
<text text-anchor="middle" x="1640" y="-489" font-family="Helvetica,sans-Serif" font-size="10.00" fill="#000000"> </text>
<polyline fill="none" stroke="#bfbfbf" points="1554,-482 1726,-482 "/>
<text text-anchor="middle" x="1640" y="-470" font-family="Helvetica,sans-Serif" font-size="10.00" fill="#000000"> </text>
</g>
<!-- Node19&#45;&gt;Node5 -->
<g id="edge14" class="edge">
<title>Node19&#45;&gt;Node5</title>
<path fill="none" stroke="#404040" d="M1643.9537,-462.9344C1646.3169,-425.1959 1643.7901,-364.9409 1610,-329 1526.9743,-240.6896 1173.7615,-187.8823 997.2489,-166.5319"/>
<polygon fill="none" stroke="#404040" points="997.0242,-166.5051 990.5915,-169.7639 985.1092,-165.0794 991.5419,-161.8206 997.0242,-166.5051"/>
<text text-anchor="start" x="1634" y="-354" font-family="Helvetica,sans-Serif" font-size="10.00" fill="#000000"> #mrElectroMechanicsProblem</text>
<text text-anchor="middle" x="1701" y="-343" font-family="Helvetica,sans-Serif" font-size="10.00" fill="#000000">Definition</text>
</g>
</g>
</svg>
