<?xml version="1.0" encoding="UTF-8" standalone="no"?>
<!DOCTYPE svg PUBLIC "-//W3C//DTD SVG 1.1//EN"
 "http://www.w3.org/Graphics/SVG/1.1/DTD/svg11.dtd">
<!-- Generated by graphviz version 2.40.1 (20161225.0304)
 -->
<!-- Title: MechanicsEventHandler Pages: 1 -->
<svg width="458pt" height="898pt"
 viewBox="0.00 0.00 458.15 898.00" xmlns="http://www.w3.org/2000/svg" xmlns:xlink="http://www.w3.org/1999/xlink">
<g id="graph0" class="graph" transform="scale(1 1) rotate(0) translate(4 894)">
<title>MechanicsEventHandler</title>
<polygon fill="#ffffff" stroke="transparent" points="-4,4 -4,-894 454.1478,-894 454.1478,4 -4,4"/>
<!-- Node3 -->
<g id="node1" class="node">
<title>Node3</title>
<polygon fill="#bfbfbf" stroke="#000000" points="241.6478,-.5 241.6478,-57.5 364.6478,-57.5 364.6478,-.5 241.6478,-.5"/>
<text text-anchor="middle" x="303.1478" y="-45.5" font-family="Helvetica,sans-Serif" font-size="10.00" fill="#000000">MechanicsEventHandler</text>
<polyline fill="none" stroke="#000000" points="241.6478,-38.5 364.6478,-38.5 "/>
<text text-anchor="middle" x="303.1478" y="-26.5" font-family="Helvetica,sans-Serif" font-size="10.00" fill="#000000"> </text>
<polyline fill="none" stroke="#000000" points="241.6478,-19.5 364.6478,-19.5 "/>
<text text-anchor="middle" x="303.1478" y="-7.5" font-family="Helvetica,sans-Serif" font-size="10.00" fill="#000000"> </text>
</g>
<!-- Node4 -->
<g id="node2" class="node">
<title>Node4</title>
<g id="a_node2"><a xlink:href="classGenericEventHandler.html" target="_top" xlink:title="{GenericEventHandler\l\&lt; 7, MechanicsEventHandler \&gt;\n||+ Instance()\l+ Reset()\l+ BeginEvent()\l+ EndEvent()\l+ GetElapsedTime()\l+ Report()\l+ Headings()\l+ Enable()\l+ Disable()\l+ IsEnabled()\l# GenericEventHandler()\l&#45; ConvertWallTimeToMilliseconds()\l&#45; ConvertWallTimeToSeconds()\l&#45; ResetImpl()\l&#45; BeginEventImpl()\l&#45; EndEventImpl()\l&#45; GetElapsedTimeImpl()\l&#45; ReportImpl()\l&#45; HeadingsImpl()\l&#45; EnableImpl()\l&#45; DisableImpl()\l&#45; IsEnabledImpl()\l&#45; MilliSleep()\l}">
<polygon fill="#ffffff" stroke="#000000" points="143.1478,-105.5 143.1478,-415.5 313.1478,-415.5 313.1478,-105.5 143.1478,-105.5"/>
<text text-anchor="start" x="151.1478" y="-403.5" font-family="Helvetica,sans-Serif" font-size="10.00" fill="#000000">GenericEventHandler</text>
<text text-anchor="middle" x="228.1478" y="-392.5" font-family="Helvetica,sans-Serif" font-size="10.00" fill="#000000">&lt; 7, MechanicsEventHandler &gt;</text>
<polyline fill="none" stroke="#000000" points="143.1478,-385.5 313.1478,-385.5 "/>
<text text-anchor="middle" x="228.1478" y="-373.5" font-family="Helvetica,sans-Serif" font-size="10.00" fill="#000000"> </text>
<polyline fill="none" stroke="#000000" points="143.1478,-366.5 313.1478,-366.5 "/>
<text text-anchor="start" x="151.1478" y="-354.5" font-family="Helvetica,sans-Serif" font-size="10.00" fill="#000000">+ Instance()</text>
<text text-anchor="start" x="151.1478" y="-343.5" font-family="Helvetica,sans-Serif" font-size="10.00" fill="#000000">+ Reset()</text>
<text text-anchor="start" x="151.1478" y="-332.5" font-family="Helvetica,sans-Serif" font-size="10.00" fill="#000000">+ BeginEvent()</text>
<text text-anchor="start" x="151.1478" y="-321.5" font-family="Helvetica,sans-Serif" font-size="10.00" fill="#000000">+ EndEvent()</text>
<text text-anchor="start" x="151.1478" y="-310.5" font-family="Helvetica,sans-Serif" font-size="10.00" fill="#000000">+ GetElapsedTime()</text>
<text text-anchor="start" x="151.1478" y="-299.5" font-family="Helvetica,sans-Serif" font-size="10.00" fill="#000000">+ Report()</text>
<text text-anchor="start" x="151.1478" y="-288.5" font-family="Helvetica,sans-Serif" font-size="10.00" fill="#000000">+ Headings()</text>
<text text-anchor="start" x="151.1478" y="-277.5" font-family="Helvetica,sans-Serif" font-size="10.00" fill="#000000">+ Enable()</text>
<text text-anchor="start" x="151.1478" y="-266.5" font-family="Helvetica,sans-Serif" font-size="10.00" fill="#000000">+ Disable()</text>
<text text-anchor="start" x="151.1478" y="-255.5" font-family="Helvetica,sans-Serif" font-size="10.00" fill="#000000">+ IsEnabled()</text>
<text text-anchor="start" x="151.1478" y="-244.5" font-family="Helvetica,sans-Serif" font-size="10.00" fill="#000000"># GenericEventHandler()</text>
<text text-anchor="start" x="151.1478" y="-233.5" font-family="Helvetica,sans-Serif" font-size="10.00" fill="#000000">&#45; ConvertWallTimeToMilliseconds()</text>
<text text-anchor="start" x="151.1478" y="-222.5" font-family="Helvetica,sans-Serif" font-size="10.00" fill="#000000">&#45; ConvertWallTimeToSeconds()</text>
<text text-anchor="start" x="151.1478" y="-211.5" font-family="Helvetica,sans-Serif" font-size="10.00" fill="#000000">&#45; ResetImpl()</text>
<text text-anchor="start" x="151.1478" y="-200.5" font-family="Helvetica,sans-Serif" font-size="10.00" fill="#000000">&#45; BeginEventImpl()</text>
<text text-anchor="start" x="151.1478" y="-189.5" font-family="Helvetica,sans-Serif" font-size="10.00" fill="#000000">&#45; EndEventImpl()</text>
<text text-anchor="start" x="151.1478" y="-178.5" font-family="Helvetica,sans-Serif" font-size="10.00" fill="#000000">&#45; GetElapsedTimeImpl()</text>
<text text-anchor="start" x="151.1478" y="-167.5" font-family="Helvetica,sans-Serif" font-size="10.00" fill="#000000">&#45; ReportImpl()</text>
<text text-anchor="start" x="151.1478" y="-156.5" font-family="Helvetica,sans-Serif" font-size="10.00" fill="#000000">&#45; HeadingsImpl()</text>
<text text-anchor="start" x="151.1478" y="-145.5" font-family="Helvetica,sans-Serif" font-size="10.00" fill="#000000">&#45; EnableImpl()</text>
<text text-anchor="start" x="151.1478" y="-134.5" font-family="Helvetica,sans-Serif" font-size="10.00" fill="#000000">&#45; DisableImpl()</text>
<text text-anchor="start" x="151.1478" y="-123.5" font-family="Helvetica,sans-Serif" font-size="10.00" fill="#000000">&#45; IsEnabledImpl()</text>
<text text-anchor="start" x="151.1478" y="-112.5" font-family="Helvetica,sans-Serif" font-size="10.00" fill="#000000">&#45; MilliSleep()</text>
</a>
</g>
</g>
<!-- Node4&#45;&gt;Node3 -->
<g id="edge1" class="edge">
<title>Node4&#45;&gt;Node3</title>
<path fill="none" stroke="#191970" d="M281.497,-95.8287C286.1555,-81.4497 290.414,-68.305 293.8985,-57.5496"/>
<polygon fill="none" stroke="#191970" points="278.1346,-94.8514 278.3822,-105.4433 284.7939,-97.0089 278.1346,-94.8514"/>
</g>
<!-- Node5 -->
<g id="node3" class="node">
<title>Node5</title>
<polygon fill="#ffffff" stroke="#bfbfbf" points="44.1478,-832.5 44.1478,-889.5 134.1478,-889.5 134.1478,-832.5 44.1478,-832.5"/>
<text text-anchor="middle" x="89.1478" y="-877.5" font-family="Helvetica,sans-Serif" font-size="10.00" fill="#000000">vector&lt; double &gt;</text>
<polyline fill="none" stroke="#bfbfbf" points="44.1478,-870.5 134.1478,-870.5 "/>
<text text-anchor="middle" x="89.1478" y="-858.5" font-family="Helvetica,sans-Serif" font-size="10.00" fill="#000000"> </text>
<polyline fill="none" stroke="#bfbfbf" points="44.1478,-851.5 134.1478,-851.5 "/>
<text text-anchor="middle" x="89.1478" y="-839.5" font-family="Helvetica,sans-Serif" font-size="10.00" fill="#000000"> </text>
</g>
<!-- Node5&#45;&gt;Node4 -->
<g id="edge2" class="edge">
<title>Node5&#45;&gt;Node4</title>
<path fill="none" stroke="#404040" d="M65.2751,-832.4375C53.4079,-816.3605 40.3112,-795.2835 34.1478,-774 -4.2996,-641.2326 -17.3759,-591.2602 34.1478,-463 54.7294,-411.7653 95.1482,-366.1841 133.7891,-331.3021"/>
<polygon fill="none" stroke="#404040" points="134.0489,-331.0723 135.8928,-324.1009 143.0371,-323.1217 141.1932,-330.0931 134.0489,-331.0723"/>
<text text-anchor="middle" x="62.1478" y="-616" font-family="Helvetica,sans-Serif" font-size="10.00" fill="#000000"> &#45;mWallTime</text>
</g>
<!-- Node8 -->
<g id="node6" class="node">
<title>Node8</title>
<g id="a_node6"><a xlink:href="classGenericEventHandler.html" target="_top" xlink:title="{GenericEventHandler\l\&lt; NUM_EVENTS, CONCRETE \&gt;\n||+ Instance()\l+ Reset()\l+ BeginEvent()\l+ EndEvent()\l+ GetElapsedTime()\l+ Report()\l+ Headings()\l+ Enable()\l+ Disable()\l+ IsEnabled()\l# GenericEventHandler()\l&#45; ConvertWallTimeToMilliseconds()\l&#45; ConvertWallTimeToSeconds()\l&#45; ResetImpl()\l&#45; BeginEventImpl()\l&#45; EndEventImpl()\l&#45; GetElapsedTimeImpl()\l&#45; ReportImpl()\l&#45; HeadingsImpl()\l&#45; EnableImpl()\l&#45; DisableImpl()\l&#45; IsEnabledImpl()\l&#45; MilliSleep()\l}">
<polygon fill="#ffffff" stroke="#000000" points="99.1478,-463.5 99.1478,-773.5 269.1478,-773.5 269.1478,-463.5 99.1478,-463.5"/>
<text text-anchor="start" x="107.1478" y="-761.5" font-family="Helvetica,sans-Serif" font-size="10.00" fill="#000000">GenericEventHandler</text>
<text text-anchor="middle" x="184.1478" y="-750.5" font-family="Helvetica,sans-Serif" font-size="10.00" fill="#000000">&lt; NUM_EVENTS, CONCRETE &gt;</text>
<polyline fill="none" stroke="#000000" points="99.1478,-743.5 269.1478,-743.5 "/>
<text text-anchor="middle" x="184.1478" y="-731.5" font-family="Helvetica,sans-Serif" font-size="10.00" fill="#000000"> </text>
<polyline fill="none" stroke="#000000" points="99.1478,-724.5 269.1478,-724.5 "/>
<text text-anchor="start" x="107.1478" y="-712.5" font-family="Helvetica,sans-Serif" font-size="10.00" fill="#000000">+ Instance()</text>
<text text-anchor="start" x="107.1478" y="-701.5" font-family="Helvetica,sans-Serif" font-size="10.00" fill="#000000">+ Reset()</text>
<text text-anchor="start" x="107.1478" y="-690.5" font-family="Helvetica,sans-Serif" font-size="10.00" fill="#000000">+ BeginEvent()</text>
<text text-anchor="start" x="107.1478" y="-679.5" font-family="Helvetica,sans-Serif" font-size="10.00" fill="#000000">+ EndEvent()</text>
<text text-anchor="start" x="107.1478" y="-668.5" font-family="Helvetica,sans-Serif" font-size="10.00" fill="#000000">+ GetElapsedTime()</text>
<text text-anchor="start" x="107.1478" y="-657.5" font-family="Helvetica,sans-Serif" font-size="10.00" fill="#000000">+ Report()</text>
<text text-anchor="start" x="107.1478" y="-646.5" font-family="Helvetica,sans-Serif" font-size="10.00" fill="#000000">+ Headings()</text>
<text text-anchor="start" x="107.1478" y="-635.5" font-family="Helvetica,sans-Serif" font-size="10.00" fill="#000000">+ Enable()</text>
<text text-anchor="start" x="107.1478" y="-624.5" font-family="Helvetica,sans-Serif" font-size="10.00" fill="#000000">+ Disable()</text>
<text text-anchor="start" x="107.1478" y="-613.5" font-family="Helvetica,sans-Serif" font-size="10.00" fill="#000000">+ IsEnabled()</text>
<text text-anchor="start" x="107.1478" y="-602.5" font-family="Helvetica,sans-Serif" font-size="10.00" fill="#000000"># GenericEventHandler()</text>
<text text-anchor="start" x="107.1478" y="-591.5" font-family="Helvetica,sans-Serif" font-size="10.00" fill="#000000">&#45; ConvertWallTimeToMilliseconds()</text>
<text text-anchor="start" x="107.1478" y="-580.5" font-family="Helvetica,sans-Serif" font-size="10.00" fill="#000000">&#45; ConvertWallTimeToSeconds()</text>
<text text-anchor="start" x="107.1478" y="-569.5" font-family="Helvetica,sans-Serif" font-size="10.00" fill="#000000">&#45; ResetImpl()</text>
<text text-anchor="start" x="107.1478" y="-558.5" font-family="Helvetica,sans-Serif" font-size="10.00" fill="#000000">&#45; BeginEventImpl()</text>
<text text-anchor="start" x="107.1478" y="-547.5" font-family="Helvetica,sans-Serif" font-size="10.00" fill="#000000">&#45; EndEventImpl()</text>
<text text-anchor="start" x="107.1478" y="-536.5" font-family="Helvetica,sans-Serif" font-size="10.00" fill="#000000">&#45; GetElapsedTimeImpl()</text>
<text text-anchor="start" x="107.1478" y="-525.5" font-family="Helvetica,sans-Serif" font-size="10.00" fill="#000000">&#45; ReportImpl()</text>
<text text-anchor="start" x="107.1478" y="-514.5" font-family="Helvetica,sans-Serif" font-size="10.00" fill="#000000">&#45; HeadingsImpl()</text>
<text text-anchor="start" x="107.1478" y="-503.5" font-family="Helvetica,sans-Serif" font-size="10.00" fill="#000000">&#45; EnableImpl()</text>
<text text-anchor="start" x="107.1478" y="-492.5" font-family="Helvetica,sans-Serif" font-size="10.00" fill="#000000">&#45; DisableImpl()</text>
<text text-anchor="start" x="107.1478" y="-481.5" font-family="Helvetica,sans-Serif" font-size="10.00" fill="#000000">&#45; IsEnabledImpl()</text>
<text text-anchor="start" x="107.1478" y="-470.5" font-family="Helvetica,sans-Serif" font-size="10.00" fill="#000000">&#45; MilliSleep()</text>
</a>
</g>
</g>
<!-- Node5&#45;&gt;Node8 -->
<g id="edge6" class="edge">
<title>Node5&#45;&gt;Node8</title>
<path fill="none" stroke="#404040" d="M100.4186,-832.2298C105.486,-819.2946 111.9078,-802.9022 118.933,-784.9695"/>
<polygon fill="none" stroke="#404040" points="119.0012,-784.7952 117.4654,-777.7495 123.3784,-773.6219 124.9142,-780.6676 119.0012,-784.7952"/>
<text text-anchor="middle" x="143.1478" y="-800.5" font-family="Helvetica,sans-Serif" font-size="10.00" fill="#000000"> &#45;mWallTime</text>
</g>
<!-- Node6 -->
<g id="node4" class="node">
<title>Node6</title>
<g id="a_node4"><a xlink:href="classbool.html" target="_top" xlink:title="{bool\n||}">
<polygon fill="#ffffff" stroke="#000000" points="352.6478,-832.5 352.6478,-889.5 387.6478,-889.5 387.6478,-832.5 352.6478,-832.5"/>
<text text-anchor="middle" x="370.1478" y="-877.5" font-family="Helvetica,sans-Serif" font-size="10.00" fill="#000000">bool</text>
<polyline fill="none" stroke="#000000" points="352.6478,-870.5 387.6478,-870.5 "/>
<text text-anchor="middle" x="370.1478" y="-858.5" font-family="Helvetica,sans-Serif" font-size="10.00" fill="#000000"> </text>
<polyline fill="none" stroke="#000000" points="352.6478,-851.5 387.6478,-851.5 "/>
<text text-anchor="middle" x="370.1478" y="-839.5" font-family="Helvetica,sans-Serif" font-size="10.00" fill="#000000"> </text>
</a>
</g>
</g>
<!-- Node6&#45;&gt;Node4 -->
<g id="edge3" class="edge">
<title>Node6&#45;&gt;Node4</title>
<path fill="none" stroke="#404040" d="M377.4724,-832.4754C393.2972,-764.9451 425.0205,-591.3377 370.1478,-463 358.4098,-435.5468 340.6846,-439.406 322.1478,-416 321.6888,-415.4204 321.2303,-414.8384 320.7723,-414.254"/>
<polygon fill="none" stroke="#404040" points="320.6849,-414.1394 313.8655,-411.795 313.4067,-404.5985 320.2261,-406.9429 320.6849,-414.1394"/>
<text text-anchor="middle" x="425.1478" y="-621.5" font-family="Helvetica,sans-Serif" font-size="10.00" fill="#000000"> &#45;mEnabled</text>
<text text-anchor="middle" x="425.1478" y="-610.5" font-family="Helvetica,sans-Serif" font-size="10.00" fill="#000000">&#45;mInUse</text>
</g>
<!-- Node6&#45;&gt;Node8 -->
<g id="edge7" class="edge">
<title>Node6&#45;&gt;Node8</title>
<path fill="none" stroke="#404040" d="M352.3314,-845.3415C333.8904,-828.6603 304.8033,-800.9903 283.1478,-774 280.9416,-771.2503 278.742,-768.4493 276.5524,-765.6065"/>
<polygon fill="none" stroke="#404040" points="276.3775,-765.3747 269.5711,-762.9929 269.1518,-755.794 275.9582,-758.1757 276.3775,-765.3747"/>
<text text-anchor="middle" x="345.1478" y="-806" font-family="Helvetica,sans-Serif" font-size="10.00" fill="#000000"> &#45;mEnabled</text>
<text text-anchor="middle" x="345.1478" y="-795" font-family="Helvetica,sans-Serif" font-size="10.00" fill="#000000">&#45;mInUse</text>
</g>
<!-- Node7 -->
<g id="node5" class="node">
<title>Node7</title>
<polygon fill="#ffffff" stroke="#bfbfbf" points="180.1478,-832.5 180.1478,-889.5 260.1478,-889.5 260.1478,-832.5 180.1478,-832.5"/>
<text text-anchor="middle" x="220.1478" y="-877.5" font-family="Helvetica,sans-Serif" font-size="10.00" fill="#000000">vector&lt; bool &gt;</text>
<polyline fill="none" stroke="#bfbfbf" points="180.1478,-870.5 260.1478,-870.5 "/>
<text text-anchor="middle" x="220.1478" y="-858.5" font-family="Helvetica,sans-Serif" font-size="10.00" fill="#000000"> </text>
<polyline fill="none" stroke="#bfbfbf" points="180.1478,-851.5 260.1478,-851.5 "/>
<text text-anchor="middle" x="220.1478" y="-839.5" font-family="Helvetica,sans-Serif" font-size="10.00" fill="#000000"> </text>
</g>
<!-- Node7&#45;&gt;Node4 -->
<g id="edge4" class="edge">
<title>Node7&#45;&gt;Node4</title>
<path fill="none" stroke="#404040" d="M260.2174,-836.2659C267.3963,-829.9272 273.9264,-822.4672 278.1478,-814 315.8477,-738.383 305.7885,-517.2157 291.1478,-434 290.7852,-431.9387 290.4,-429.8696 289.9937,-427.7945"/>
<polygon fill="none" stroke="#404040" points="289.9505,-427.5918 284.7862,-422.559 287.4456,-415.8562 292.6099,-420.889 289.9505,-427.5918"/>
<text text-anchor="middle" x="335.6478" y="-616" font-family="Helvetica,sans-Serif" font-size="10.00" fill="#000000"> &#45;mHasBegun</text>
</g>
<!-- Node7&#45;&gt;Node8 -->
<g id="edge8" class="edge">
<title>Node7&#45;&gt;Node8</title>
<path fill="none" stroke="#404040" d="M215.8768,-832.2298C213.9837,-819.4777 211.5918,-803.3655 208.9737,-785.7299"/>
<polygon fill="none" stroke="#404040" points="208.9384,-785.4918 204.1007,-780.1443 207.1762,-773.6219 212.014,-778.9695 208.9384,-785.4918"/>
<text text-anchor="middle" x="243.6478" y="-800.5" font-family="Helvetica,sans-Serif" font-size="10.00" fill="#000000"> &#45;mHasBegun</text>
</g>
<!-- Node8&#45;&gt;Node4 -->
<g id="edge5" class="edge">
<title>Node8&#45;&gt;Node4</title>
<path fill="none" stroke="#ffa500" d="M149.3329,-453.1195C149.9151,-446.6565 150.836,-440.2644 152.1478,-434 153.4285,-427.8846 154.9377,-421.7212 156.6345,-415.5507"/>
<polygon fill="#ffa500" stroke="#ffa500" points="145.8257,-453.1256 148.6893,-463.326 152.8118,-453.5662 145.8257,-453.1256"/>
<text text-anchor="middle" x="221.6478" y="-437" font-family="Helvetica,sans-Serif" font-size="10.00" fill="#000000"> &lt; 7, MechanicsEventHandler &gt;</text>
</g>
<!-- Node9 -->
<g id="node7" class="node">
<title>Node9</title>
<polygon fill="#ffffff" stroke="#bfbfbf" points="331.1478,-232 331.1478,-289 427.1478,-289 427.1478,-232 331.1478,-232"/>
<text text-anchor="middle" x="379.1478" y="-277" font-family="Helvetica,sans-Serif" font-size="10.00" fill="#000000">static const char *</text>
<polyline fill="none" stroke="#bfbfbf" points="331.1478,-270 427.1478,-270 "/>
<text text-anchor="middle" x="379.1478" y="-258" font-family="Helvetica,sans-Serif" font-size="10.00" fill="#000000"> </text>
<polyline fill="none" stroke="#bfbfbf" points="331.1478,-251 427.1478,-251 "/>
<text text-anchor="middle" x="379.1478" y="-239" font-family="Helvetica,sans-Serif" font-size="10.00" fill="#000000"> </text>
</g>
<!-- Node9&#45;&gt;Node3 -->
<g id="edge9" class="edge">
<title>Node9&#45;&gt;Node3</title>
<path fill="none" stroke="#404040" d="M369.676,-231.6484C356.242,-190.7278 331.598,-115.6606 316.3687,-69.2716"/>
<polygon fill="none" stroke="#404040" points="316.3624,-69.252 310.6904,-64.799 312.6193,-57.8506 318.2913,-62.3036 316.3624,-69.252"/>
<text text-anchor="middle" x="352.6478" y="-79" font-family="Helvetica,sans-Serif" font-size="10.00" fill="#000000"> +EventName</text>
</g>
</g>
</svg>
