<?xml version="1.0" encoding="UTF-8" standalone="no"?>
<!DOCTYPE svg PUBLIC "-//W3C//DTD SVG 1.1//EN"
 "http://www.w3.org/Graphics/SVG/1.1/DTD/svg11.dtd">
<!-- Generated by graphviz version 2.40.1 (20161225.0304)
 -->
<!-- Title: ColumnDataWriter Pages: 1 -->
<svg width="1506pt" height="672pt"
 viewBox="0.00 0.00 1506.00 672.00" xmlns="http://www.w3.org/2000/svg" xmlns:xlink="http://www.w3.org/1999/xlink">
<g id="graph0" class="graph" transform="scale(1 1) rotate(0) translate(4 668)">
<title>ColumnDataWriter</title>
<polygon fill="#ffffff" stroke="transparent" points="-4,4 -4,-668 1502,-668 1502,4 -4,4"/>
<!-- Node3 -->
<g id="node1" class="node">
<title>Node3</title>
<polygon fill="#bfbfbf" stroke="#000000" points="734,-.5 734,-222.5 928,-222.5 928,-.5 734,-.5"/>
<text text-anchor="middle" x="831" y="-210.5" font-family="Helvetica,sans-Serif" font-size="10.00" fill="#000000">ColumnDataWriter</text>
<polyline fill="none" stroke="#000000" points="734,-203.5 928,-203.5 "/>
<text text-anchor="middle" x="831" y="-191.5" font-family="Helvetica,sans-Serif" font-size="10.00" fill="#000000"> </text>
<polyline fill="none" stroke="#000000" points="734,-184.5 928,-184.5 "/>
<text text-anchor="start" x="742" y="-172.5" font-family="Helvetica,sans-Serif" font-size="10.00" fill="#000000">+ ColumnDataWriter()</text>
<text text-anchor="start" x="742" y="-161.5" font-family="Helvetica,sans-Serif" font-size="10.00" fill="#000000">+ ~ColumnDataWriter()</text>
<text text-anchor="start" x="742" y="-150.5" font-family="Helvetica,sans-Serif" font-size="10.00" fill="#000000">+ DefineUnlimitedDimension()</text>
<text text-anchor="start" x="742" y="-139.5" font-family="Helvetica,sans-Serif" font-size="10.00" fill="#000000">+ DefineFixedDimension()</text>
<text text-anchor="start" x="742" y="-128.5" font-family="Helvetica,sans-Serif" font-size="10.00" fill="#000000">+ DefineVariable()</text>
<text text-anchor="start" x="742" y="-117.5" font-family="Helvetica,sans-Serif" font-size="10.00" fill="#000000">+ SetCommentForInfoFile()</text>
<text text-anchor="start" x="742" y="-106.5" font-family="Helvetica,sans-Serif" font-size="10.00" fill="#000000">+ EndDefineMode()</text>
<text text-anchor="start" x="742" y="-95.5" font-family="Helvetica,sans-Serif" font-size="10.00" fill="#000000">+ AdvanceAlongUnlimitedDimension()</text>
<text text-anchor="start" x="742" y="-84.5" font-family="Helvetica,sans-Serif" font-size="10.00" fill="#000000">+ PutVariable()</text>
<text text-anchor="start" x="742" y="-73.5" font-family="Helvetica,sans-Serif" font-size="10.00" fill="#000000">+ Close()</text>
<text text-anchor="start" x="742" y="-62.5" font-family="Helvetica,sans-Serif" font-size="10.00" fill="#000000">+ GetOutputDirectory()</text>
<text text-anchor="start" x="742" y="-51.5" font-family="Helvetica,sans-Serif" font-size="10.00" fill="#000000"># CreateFixedDimensionFile()</text>
<text text-anchor="start" x="742" y="-40.5" font-family="Helvetica,sans-Serif" font-size="10.00" fill="#000000"># CreateInfoFile()</text>
<text text-anchor="start" x="742" y="-29.5" font-family="Helvetica,sans-Serif" font-size="10.00" fill="#000000"># CheckVariableName()</text>
<text text-anchor="start" x="742" y="-18.5" font-family="Helvetica,sans-Serif" font-size="10.00" fill="#000000"># CheckUnitsName()</text>
<text text-anchor="start" x="742" y="-7.5" font-family="Helvetica,sans-Serif" font-size="10.00" fill="#000000"># DoAdvanceAlongUnlimitedDimension()</text>
</g>
<!-- Node4 -->
<g id="node2" class="node">
<title>Node4</title>
<g id="a_node2"><a xlink:href="classAbstractDataWriter.html" target="_top" xlink:title="{AbstractDataWriter\n||+ DefineFixedDimension()\l+ DefineUnlimitedDimension()\l+ DefineVariable()\l+ EndDefineMode()\l+ AdvanceAlongUnlimitedDimension()\l+ PutVariable()\l+ Close()\l+ ~AbstractDataWriter()\l}">
<polygon fill="#ffffff" stroke="#000000" points="0,-386 0,-520 182,-520 182,-386 0,-386"/>
<text text-anchor="middle" x="91" y="-508" font-family="Helvetica,sans-Serif" font-size="10.00" fill="#000000">AbstractDataWriter</text>
<polyline fill="none" stroke="#000000" points="0,-501 182,-501 "/>
<text text-anchor="middle" x="91" y="-489" font-family="Helvetica,sans-Serif" font-size="10.00" fill="#000000"> </text>
<polyline fill="none" stroke="#000000" points="0,-482 182,-482 "/>
<text text-anchor="start" x="8" y="-470" font-family="Helvetica,sans-Serif" font-size="10.00" fill="#000000">+ DefineFixedDimension()</text>
<text text-anchor="start" x="8" y="-459" font-family="Helvetica,sans-Serif" font-size="10.00" fill="#000000">+ DefineUnlimitedDimension()</text>
<text text-anchor="start" x="8" y="-448" font-family="Helvetica,sans-Serif" font-size="10.00" fill="#000000">+ DefineVariable()</text>
<text text-anchor="start" x="8" y="-437" font-family="Helvetica,sans-Serif" font-size="10.00" fill="#000000">+ EndDefineMode()</text>
<text text-anchor="start" x="8" y="-426" font-family="Helvetica,sans-Serif" font-size="10.00" fill="#000000">+ AdvanceAlongUnlimitedDimension()</text>
<text text-anchor="start" x="8" y="-415" font-family="Helvetica,sans-Serif" font-size="10.00" fill="#000000">+ PutVariable()</text>
<text text-anchor="start" x="8" y="-404" font-family="Helvetica,sans-Serif" font-size="10.00" fill="#000000">+ Close()</text>
<text text-anchor="start" x="8" y="-393" font-family="Helvetica,sans-Serif" font-size="10.00" fill="#000000">+ ~AbstractDataWriter()</text>
</a>
</g>
</g>
<!-- Node4&#45;&gt;Node3 -->
<g id="edge1" class="edge">
<title>Node4&#45;&gt;Node3</title>
<path fill="none" stroke="#191970" d="M134.8194,-377.482C165.515,-331.2173 210.686,-274.6169 265,-241 342.6244,-192.9554 593.7377,-148.0702 733.9888,-125.924"/>
<polygon fill="none" stroke="#191970" points="131.7984,-375.7069 129.2574,-385.9925 137.658,-379.5365 131.7984,-375.7069"/>
</g>
<!-- Node5 -->
<g id="node3" class="node">
<title>Node5</title>
<polygon fill="#ffffff" stroke="#bfbfbf" points="200,-424.5 200,-481.5 344,-481.5 344,-424.5 200,-424.5"/>
<text text-anchor="middle" x="272" y="-469.5" font-family="Helvetica,sans-Serif" font-size="10.00" fill="#000000">vector&lt; DataWriterVariable &gt;</text>
<polyline fill="none" stroke="#bfbfbf" points="200,-462.5 344,-462.5 "/>
<text text-anchor="middle" x="272" y="-450.5" font-family="Helvetica,sans-Serif" font-size="10.00" fill="#000000"> </text>
<polyline fill="none" stroke="#bfbfbf" points="200,-443.5 344,-443.5 "/>
<text text-anchor="middle" x="272" y="-431.5" font-family="Helvetica,sans-Serif" font-size="10.00" fill="#000000"> </text>
</g>
<!-- Node5&#45;&gt;Node3 -->
<g id="edge2" class="edge">
<title>Node5&#45;&gt;Node3</title>
<path fill="none" stroke="#404040" d="M267.8908,-424.4399C263.1275,-379.3161 261.1438,-291.4849 308,-241 363.3992,-181.3106 585.3842,-142.9091 721.7181,-124.4504"/>
<polygon fill="none" stroke="#404040" points="721.9269,-124.4226 727.3444,-119.6633 733.8213,-122.8336 728.4038,-127.5929 721.9269,-124.4226"/>
<text text-anchor="middle" x="337" y="-288" font-family="Helvetica,sans-Serif" font-size="10.00" fill="#000000"> #mVariables</text>
</g>
<!-- Node6 -->
<g id="node4" class="node">
<title>Node6</title>
<g id="a_node4"><a xlink:href="classOutputFileHandler.html" target="_top" xlink:title="{OutputFileHandler\n||+ OutputFileHandler()\l+ OutputFileHandler()\l+ GetOutputDirectoryFullPath()\l+ GetRelativePath()\l+ SetArchiveDirectory()\l+ OpenOutputFile()\l+ OpenOutputFile()\l+ CopyFileTo()\l+ FindFile()\l+ GetChasteTestOutputDirectory()\l&#45; CommonConstructor()\l&#45; MakeFoldersAndReturnFullPath()\l&#45; AddTrailingSlash()\l}">
<polygon fill="#ffffff" stroke="#000000" points="526.5,-358.5 526.5,-547.5 693.5,-547.5 693.5,-358.5 526.5,-358.5"/>
<text text-anchor="middle" x="610" y="-535.5" font-family="Helvetica,sans-Serif" font-size="10.00" fill="#000000">OutputFileHandler</text>
<polyline fill="none" stroke="#000000" points="526.5,-528.5 693.5,-528.5 "/>
<text text-anchor="middle" x="610" y="-516.5" font-family="Helvetica,sans-Serif" font-size="10.00" fill="#000000"> </text>
<polyline fill="none" stroke="#000000" points="526.5,-509.5 693.5,-509.5 "/>
<text text-anchor="start" x="534.5" y="-497.5" font-family="Helvetica,sans-Serif" font-size="10.00" fill="#000000">+ OutputFileHandler()</text>
<text text-anchor="start" x="534.5" y="-486.5" font-family="Helvetica,sans-Serif" font-size="10.00" fill="#000000">+ OutputFileHandler()</text>
<text text-anchor="start" x="534.5" y="-475.5" font-family="Helvetica,sans-Serif" font-size="10.00" fill="#000000">+ GetOutputDirectoryFullPath()</text>
<text text-anchor="start" x="534.5" y="-464.5" font-family="Helvetica,sans-Serif" font-size="10.00" fill="#000000">+ GetRelativePath()</text>
<text text-anchor="start" x="534.5" y="-453.5" font-family="Helvetica,sans-Serif" font-size="10.00" fill="#000000">+ SetArchiveDirectory()</text>
<text text-anchor="start" x="534.5" y="-442.5" font-family="Helvetica,sans-Serif" font-size="10.00" fill="#000000">+ OpenOutputFile()</text>
<text text-anchor="start" x="534.5" y="-431.5" font-family="Helvetica,sans-Serif" font-size="10.00" fill="#000000">+ OpenOutputFile()</text>
<text text-anchor="start" x="534.5" y="-420.5" font-family="Helvetica,sans-Serif" font-size="10.00" fill="#000000">+ CopyFileTo()</text>
<text text-anchor="start" x="534.5" y="-409.5" font-family="Helvetica,sans-Serif" font-size="10.00" fill="#000000">+ FindFile()</text>
<text text-anchor="start" x="534.5" y="-398.5" font-family="Helvetica,sans-Serif" font-size="10.00" fill="#000000">+ GetChasteTestOutputDirectory()</text>
<text text-anchor="start" x="534.5" y="-387.5" font-family="Helvetica,sans-Serif" font-size="10.00" fill="#000000">&#45; CommonConstructor()</text>
<text text-anchor="start" x="534.5" y="-376.5" font-family="Helvetica,sans-Serif" font-size="10.00" fill="#000000">&#45; MakeFoldersAndReturnFullPath()</text>
<text text-anchor="start" x="534.5" y="-365.5" font-family="Helvetica,sans-Serif" font-size="10.00" fill="#000000">&#45; AddTrailingSlash()</text>
</a>
</g>
</g>
<!-- Node6&#45;&gt;Node3 -->
<g id="edge3" class="edge">
<title>Node6&#45;&gt;Node3</title>
<path fill="none" stroke="#404040" d="M609.2639,-358.3771C612.8399,-319.5161 622.1974,-275.6164 644,-241 663.4755,-210.0784 693.3059,-184.5903 723.4603,-164.6481"/>
<polygon fill="none" stroke="#404040" points="723.5802,-164.5713 726.4745,-157.9665 733.6844,-158.0978 730.7901,-164.7026 723.5802,-164.5713"/>
<text text-anchor="middle" x="692" y="-288" font-family="Helvetica,sans-Serif" font-size="10.00" fill="#000000"> #mOutputFileHandler</text>
</g>
<!-- Node7 -->
<g id="node5" class="node">
<title>Node7</title>
<polygon fill="#ffffff" stroke="#bfbfbf" points="471.5,-606.5 471.5,-663.5 512.5,-663.5 512.5,-606.5 471.5,-606.5"/>
<text text-anchor="middle" x="492" y="-651.5" font-family="Helvetica,sans-Serif" font-size="10.00" fill="#000000">string</text>
<polyline fill="none" stroke="#bfbfbf" points="471.5,-644.5 512.5,-644.5 "/>
<text text-anchor="middle" x="492" y="-632.5" font-family="Helvetica,sans-Serif" font-size="10.00" fill="#000000"> </text>
<polyline fill="none" stroke="#bfbfbf" points="471.5,-625.5 512.5,-625.5 "/>
<text text-anchor="middle" x="492" y="-613.5" font-family="Helvetica,sans-Serif" font-size="10.00" fill="#000000"> </text>
</g>
<!-- Node7&#45;&gt;Node3 -->
<g id="edge8" class="edge">
<title>Node7&#45;&gt;Node3</title>
<path fill="none" stroke="#404040" d="M471.2473,-624.5476C446.5836,-610.8162 406.6746,-584.1387 390,-548 354.6212,-471.324 347.2704,-430.8357 390,-358 461.12,-236.7709 615.9941,-170.7266 721.9051,-138.2804"/>
<polygon fill="none" stroke="#404040" points="722.1085,-138.2194 726.7064,-132.6643 733.6027,-134.7719 729.0048,-140.327 722.1085,-138.2194"/>
<text text-anchor="middle" x="454" y="-489" font-family="Helvetica,sans-Serif" font-size="10.00" fill="#000000"> #mDirectory</text>
<text text-anchor="middle" x="454" y="-478" font-family="Helvetica,sans-Serif" font-size="10.00" fill="#000000">#mUnlimitedDimensionName</text>
<text text-anchor="middle" x="454" y="-467" font-family="Helvetica,sans-Serif" font-size="10.00" fill="#000000">#mFixedDimensionName</text>
<text text-anchor="middle" x="454" y="-456" font-family="Helvetica,sans-Serif" font-size="10.00" fill="#000000">#mUnlimitedDimensionUnits</text>
<text text-anchor="middle" x="454" y="-445" font-family="Helvetica,sans-Serif" font-size="10.00" fill="#000000">#mFixedDimensionUnits</text>
<text text-anchor="middle" x="454" y="-434" font-family="Helvetica,sans-Serif" font-size="10.00" fill="#000000">#mFileExtension</text>
<text text-anchor="middle" x="454" y="-423" font-family="Helvetica,sans-Serif" font-size="10.00" fill="#000000">#mCommentForInfoFile</text>
<text text-anchor="middle" x="454" y="-412" font-family="Helvetica,sans-Serif" font-size="10.00" fill="#000000">#mBaseName</text>
</g>
<!-- Node7&#45;&gt;Node6 -->
<g id="edge4" class="edge">
<title>Node7&#45;&gt;Node6</title>
<path fill="none" stroke="#404040" d="M471.2996,-617.5121C456.7697,-603.0884 441.914,-582.4055 454,-566 470.0089,-544.2696 488.7862,-561.7699 512,-548 513.3757,-547.184 514.7469,-546.345 516.113,-545.4847"/>
<polygon fill="none" stroke="#404040" points="516.5223,-545.2089 519.2628,-538.5388 526.4738,-538.5031 523.7333,-545.1732 516.5223,-545.2089"/>
<text text-anchor="middle" x="481.5" y="-574.5" font-family="Helvetica,sans-Serif" font-size="10.00" fill="#000000"> &#45;mDirectory</text>
</g>
<!-- Node7&#45;&gt;Node6 -->
<g id="edge5" class="edge">
<title>Node7&#45;&gt;Node6</title>
<path fill="none" stroke="#404040" d="M507.8518,-606.4996C515.006,-593.9444 523.6998,-579.0999 532,-566 533.7344,-563.2627 535.5044,-560.4975 537.3016,-557.7151"/>
<polygon fill="none" stroke="#404040" points="537.3543,-557.6343 537.2829,-550.4236 543.9115,-547.5843 543.9829,-554.795 537.3543,-557.6343"/>
<text text-anchor="middle" x="576" y="-574.5" font-family="Helvetica,sans-Serif" font-size="10.00" fill="#000000"> +SIG_FILE_NAME</text>
</g>
<!-- Node10 -->
<g id="node8" class="node">
<title>Node10</title>
<g id="a_node8"><a xlink:href="structDataWriterVariable.html" target="_top" xlink:title="{DataWriterVariable\n||}">
<polygon fill="#ffffff" stroke="#000000" points="711.5,-424.5 711.5,-481.5 810.5,-481.5 810.5,-424.5 711.5,-424.5"/>
<text text-anchor="middle" x="761" y="-469.5" font-family="Helvetica,sans-Serif" font-size="10.00" fill="#000000">DataWriterVariable</text>
<polyline fill="none" stroke="#000000" points="711.5,-462.5 810.5,-462.5 "/>
<text text-anchor="middle" x="761" y="-450.5" font-family="Helvetica,sans-Serif" font-size="10.00" fill="#000000"> </text>
<polyline fill="none" stroke="#000000" points="711.5,-443.5 810.5,-443.5 "/>
<text text-anchor="middle" x="761" y="-431.5" font-family="Helvetica,sans-Serif" font-size="10.00" fill="#000000"> </text>
</a>
</g>
</g>
<!-- Node7&#45;&gt;Node10 -->
<g id="edge11" class="edge">
<title>Node7&#45;&gt;Node10</title>
<path fill="none" stroke="#404040" d="M512.5334,-629.0151C538.3124,-621.1535 583.5713,-606.1896 620,-588 636.1028,-579.9595 637.8977,-574.0416 654,-566 674.7562,-555.6342 685.0676,-562.7208 703,-548 720.8951,-533.3098 734.7441,-511.5613 744.4146,-492.5791"/>
<polygon fill="none" stroke="#404040" points="744.5446,-492.3095 743.5494,-485.1674 749.7593,-481.5018 750.7545,-488.6439 744.5446,-492.3095"/>
<text text-anchor="middle" x="692" y="-580" font-family="Helvetica,sans-Serif" font-size="10.00" fill="#000000"> +mVariableUnits</text>
<text text-anchor="middle" x="692" y="-569" font-family="Helvetica,sans-Serif" font-size="10.00" fill="#000000">+mVariableName</text>
</g>
<!-- Node8 -->
<g id="node6" class="node">
<title>Node8</title>
<polygon fill="#ffffff" stroke="#bfbfbf" points="1073.5,-424.5 1073.5,-481.5 1102.5,-481.5 1102.5,-424.5 1073.5,-424.5"/>
<text text-anchor="middle" x="1088" y="-469.5" font-family="Helvetica,sans-Serif" font-size="10.00" fill="#000000">int</text>
<polyline fill="none" stroke="#bfbfbf" points="1073.5,-462.5 1102.5,-462.5 "/>
<text text-anchor="middle" x="1088" y="-450.5" font-family="Helvetica,sans-Serif" font-size="10.00" fill="#000000"> </text>
<polyline fill="none" stroke="#bfbfbf" points="1073.5,-443.5 1102.5,-443.5 "/>
<text text-anchor="middle" x="1088" y="-431.5" font-family="Helvetica,sans-Serif" font-size="10.00" fill="#000000"> </text>
</g>
<!-- Node8&#45;&gt;Node3 -->
<g id="edge6" class="edge">
<title>Node8&#45;&gt;Node3</title>
<path fill="none" stroke="#404040" d="M1086.8723,-424.3212C1084.4488,-402.9519 1077.6178,-374.6912 1059,-358 1027.0027,-329.314 997.2241,-367.2557 964,-340 927.3105,-309.9014 946.8927,-282.5689 924,-241 922.5917,-238.4428 921.1416,-235.8765 919.6555,-233.3062"/>
<polygon fill="none" stroke="#404040" points="919.4975,-233.0408 912.9911,-229.9317 913.3585,-222.73 919.8649,-225.839 919.4975,-233.0408"/>
<text text-anchor="middle" x="1029.5" y="-332" font-family="Helvetica,sans-Serif" font-size="10.00" fill="#000000"> #mAncillaryRowStartPosition</text>
<text text-anchor="middle" x="1029.5" y="-321" font-family="Helvetica,sans-Serif" font-size="10.00" fill="#000000">#mAncillaryRowWidth</text>
<text text-anchor="middle" x="1029.5" y="-310" font-family="Helvetica,sans-Serif" font-size="10.00" fill="#000000">#mRowWidth</text>
<text text-anchor="middle" x="1029.5" y="-299" font-family="Helvetica,sans-Serif" font-size="10.00" fill="#000000">#mRowStartPosition</text>
<text text-anchor="start" x="964" y="-288" font-family="Helvetica,sans-Serif" font-size="10.00" fill="#000000">#UNLIMITED_DIMENSION</text>
<text text-anchor="middle" x="1029.5" y="-277" font-family="Helvetica,sans-Serif" font-size="10.00" fill="#000000">_VAR_ID</text>
<text text-anchor="start" x="964" y="-266" font-family="Helvetica,sans-Serif" font-size="10.00" fill="#000000">#FIXED_DIMENSION_VAR</text>
<text text-anchor="middle" x="1029.5" y="-255" font-family="Helvetica,sans-Serif" font-size="10.00" fill="#000000">_ID</text>
<text text-anchor="middle" x="1029.5" y="-244" font-family="Helvetica,sans-Serif" font-size="10.00" fill="#000000">#SPACING</text>
</g>
<!-- Node9 -->
<g id="node7" class="node">
<title>Node9</title>
<g id="a_node7"><a xlink:href="classbool.html" target="_top" xlink:title="{bool\n||}">
<polygon fill="#ffffff" stroke="#000000" points="807.5,-606.5 807.5,-663.5 842.5,-663.5 842.5,-606.5 807.5,-606.5"/>
<text text-anchor="middle" x="825" y="-651.5" font-family="Helvetica,sans-Serif" font-size="10.00" fill="#000000">bool</text>
<polyline fill="none" stroke="#000000" points="807.5,-644.5 842.5,-644.5 "/>
<text text-anchor="middle" x="825" y="-632.5" font-family="Helvetica,sans-Serif" font-size="10.00" fill="#000000"> </text>
<polyline fill="none" stroke="#000000" points="807.5,-625.5 842.5,-625.5 "/>
<text text-anchor="middle" x="825" y="-613.5" font-family="Helvetica,sans-Serif" font-size="10.00" fill="#000000"> </text>
</a>
</g>
</g>
<!-- Node9&#45;&gt;Node3 -->
<g id="edge7" class="edge">
<title>Node9&#45;&gt;Node3</title>
<path fill="none" stroke="#404040" d="M842.7422,-628.9187C859.8699,-621.9857 884.8057,-608.8351 896,-588 932.4962,-520.0724 913.7744,-316.0346 896,-241 895.4564,-238.7052 894.8654,-236.4047 894.2313,-234.1022"/>
<polygon fill="none" stroke="#404040" points="894.2204,-234.0663 888.6443,-229.4938 890.7204,-222.588 896.2965,-227.1605 894.2204,-234.0663"/>
<text text-anchor="start" x="916" y="-478" font-family="Helvetica,sans-Serif" font-size="10.00" fill="#000000"> #mNeedAdvanceAlongUnlimited</text>
<text text-anchor="middle" x="988.5" y="-467" font-family="Helvetica,sans-Serif" font-size="10.00" fill="#000000">Dimension</text>
<text text-anchor="middle" x="988.5" y="-456" font-family="Helvetica,sans-Serif" font-size="10.00" fill="#000000">#mIsFixedDimensionSet</text>
<text text-anchor="middle" x="988.5" y="-445" font-family="Helvetica,sans-Serif" font-size="10.00" fill="#000000">#mIsInDefineMode</text>
<text text-anchor="middle" x="988.5" y="-434" font-family="Helvetica,sans-Serif" font-size="10.00" fill="#000000">#mIsUnlimitedDimensionSet</text>
<text text-anchor="middle" x="988.5" y="-423" font-family="Helvetica,sans-Serif" font-size="10.00" fill="#000000">#mHasPutVariable</text>
</g>
<!-- Node9&#45;&gt;Node10 -->
<g id="edge10" class="edge">
<title>Node9&#45;&gt;Node10</title>
<path fill="none" stroke="#404040" d="M807.2865,-630.6771C787.3774,-624.765 756.0106,-612.0347 742,-588 725.2602,-559.2835 732.6047,-521.4463 742.6468,-493.1375"/>
<polygon fill="none" stroke="#404040" points="742.7578,-492.8477 741.1706,-485.8134 747.0533,-481.6428 748.6405,-488.6771 742.7578,-492.8477"/>
<text text-anchor="middle" x="819" y="-580" font-family="Helvetica,sans-Serif" font-size="10.00" fill="#000000"> +mVariesWithUnlimitedDimension</text>
<text text-anchor="middle" x="819" y="-569" font-family="Helvetica,sans-Serif" font-size="10.00" fill="#000000">+mVariesWithFixedDimension</text>
</g>
<!-- Node10&#45;&gt;Node3 -->
<g id="edge9" class="edge">
<title>Node10&#45;&gt;Node3</title>
<path fill="none" stroke="#404040" d="M754.7398,-424.2501C746.9136,-382.8841 736.5309,-304.5609 754,-241 754.6369,-238.6828 755.3272,-236.3651 756.0663,-234.0499"/>
<polygon fill="none" stroke="#404040" points="756.1465,-233.8229 754.3757,-226.8326 760.1472,-222.5094 761.918,-229.4997 756.1465,-233.8229"/>
<text text-anchor="middle" x="825" y="-293.5" font-family="Helvetica,sans-Serif" font-size="10.00" fill="#000000"> #mpFixedDimensionVariable</text>
<text text-anchor="middle" x="825" y="-282.5" font-family="Helvetica,sans-Serif" font-size="10.00" fill="#000000">#mpUnlimitedDimensionVariable</text>
</g>
<!-- Node11 -->
<g id="node9" class="node">
<title>Node11</title>
<polygon fill="#ffffff" stroke="#bfbfbf" points="1120.5,-424.5 1120.5,-481.5 1155.5,-481.5 1155.5,-424.5 1120.5,-424.5"/>
<text text-anchor="middle" x="1138" y="-469.5" font-family="Helvetica,sans-Serif" font-size="10.00" fill="#000000">long</text>
<polyline fill="none" stroke="#bfbfbf" points="1120.5,-462.5 1155.5,-462.5 "/>
<text text-anchor="middle" x="1138" y="-450.5" font-family="Helvetica,sans-Serif" font-size="10.00" fill="#000000"> </text>
<polyline fill="none" stroke="#bfbfbf" points="1120.5,-443.5 1155.5,-443.5 "/>
<text text-anchor="middle" x="1138" y="-431.5" font-family="Helvetica,sans-Serif" font-size="10.00" fill="#000000"> </text>
</g>
<!-- Node11&#45;&gt;Node3 -->
<g id="edge12" class="edge">
<title>Node11&#45;&gt;Node3</title>
<path fill="none" stroke="#404040" d="M1132.87,-424.2924C1122.7282,-368.0709 1100.6083,-248.2646 1095,-241 1056.6281,-191.2956 994.1841,-159.4588 939.6582,-139.7943"/>
<polygon fill="none" stroke="#404040" points="939.4849,-139.7339 932.5021,-141.5341 928.1547,-135.7808 935.1375,-133.9806 939.4849,-139.7339"/>
<text text-anchor="middle" x="1184.5" y="-293.5" font-family="Helvetica,sans-Serif" font-size="10.00" fill="#000000"> #mFixedDimensionSize</text>
<text text-anchor="middle" x="1184.5" y="-282.5" font-family="Helvetica,sans-Serif" font-size="10.00" fill="#000000">#mUnlimitedDimensionPosition</text>
</g>
<!-- Node12 -->
<g id="node10" class="node">
<title>Node12</title>
<g id="a_node10"><a xlink:href="classunsigned.html" target="_top" xlink:title="{unsigned\n||}">
<polygon fill="#ffffff" stroke="#000000" points="1249,-424.5 1249,-481.5 1305,-481.5 1305,-424.5 1249,-424.5"/>
<text text-anchor="middle" x="1277" y="-469.5" font-family="Helvetica,sans-Serif" font-size="10.00" fill="#000000">unsigned</text>
<polyline fill="none" stroke="#000000" points="1249,-462.5 1305,-462.5 "/>
<text text-anchor="middle" x="1277" y="-450.5" font-family="Helvetica,sans-Serif" font-size="10.00" fill="#000000"> </text>
<polyline fill="none" stroke="#000000" points="1249,-443.5 1305,-443.5 "/>
<text text-anchor="middle" x="1277" y="-431.5" font-family="Helvetica,sans-Serif" font-size="10.00" fill="#000000"> </text>
</a>
</g>
</g>
<!-- Node12&#45;&gt;Node3 -->
<g id="edge13" class="edge">
<title>Node12&#45;&gt;Node3</title>
<path fill="none" stroke="#404040" d="M1283.0915,-424.233C1290.7514,-379.6141 1298.1631,-293.4164 1255,-241 1214.8742,-192.2721 1052.1075,-152.8237 940.3282,-130.7674"/>
<polygon fill="none" stroke="#404040" points="940.0991,-130.7228 933.4445,-133.5005 928.321,-128.4261 934.9756,-125.6484 940.0991,-130.7228"/>
<text text-anchor="middle" x="1318.5" y="-293.5" font-family="Helvetica,sans-Serif" font-size="10.00" fill="#000000"> #mPrecision</text>
<text text-anchor="middle" x="1318.5" y="-282.5" font-family="Helvetica,sans-Serif" font-size="10.00" fill="#000000">#mFieldWidth</text>
</g>
<!-- Node13 -->
<g id="node11" class="node">
<title>Node13</title>
<polygon fill="#ffffff" stroke="#bfbfbf" points="1323,-424.5 1323,-481.5 1461,-481.5 1461,-424.5 1323,-424.5"/>
<text text-anchor="middle" x="1392" y="-469.5" font-family="Helvetica,sans-Serif" font-size="10.00" fill="#000000">shared_ptr&lt; std::ofstream &gt;</text>
<polyline fill="none" stroke="#bfbfbf" points="1323,-462.5 1461,-462.5 "/>
<text text-anchor="middle" x="1392" y="-450.5" font-family="Helvetica,sans-Serif" font-size="10.00" fill="#000000"> </text>
<polyline fill="none" stroke="#bfbfbf" points="1323,-443.5 1461,-443.5 "/>
<text text-anchor="middle" x="1392" y="-431.5" font-family="Helvetica,sans-Serif" font-size="10.00" fill="#000000"> </text>
</g>
<!-- Node13&#45;&gt;Node3 -->
<g id="edge14" class="edge">
<title>Node13&#45;&gt;Node3</title>
<path fill="none" stroke="#404040" d="M1395.6429,-424.3954C1399.6813,-379.2099 1400.3049,-291.2947 1353,-241 1297.3452,-181.8277 1076.1986,-143.2673 940.2344,-124.6354"/>
<polygon fill="none" stroke="#404040" points="940.0551,-124.6113 933.5731,-127.771 928.1634,-123.0029 934.6454,-119.8431 940.0551,-124.6113"/>
<text text-anchor="middle" x="1445.5" y="-293.5" font-family="Helvetica,sans-Serif" font-size="10.00" fill="#000000"> #mpCurrentOutputFile</text>
<text text-anchor="middle" x="1445.5" y="-282.5" font-family="Helvetica,sans-Serif" font-size="10.00" fill="#000000">#mpCurrentAncillaryFile</text>
</g>
</g>
</svg>
