<?xml version="1.0" encoding="UTF-8" standalone="no"?>
<!DOCTYPE svg PUBLIC "-//W3C//DTD SVG 1.1//EN"
 "http://www.w3.org/Graphics/SVG/1.1/DTD/svg11.dtd">
<!-- Generated by graphviz version 2.40.1 (20161225.0304)
 -->
<!-- Title: AbstractOffLatticeCellPopulation&lt; ELEMENT_DIM, SPACE_DIM &gt; Pages: 1 -->
<svg width="1763pt" height="843pt"
 viewBox="0.00 0.00 1762.50 843.00" xmlns="http://www.w3.org/2000/svg" xmlns:xlink="http://www.w3.org/1999/xlink">
<g id="graph0" class="graph" transform="scale(1 1) rotate(0) translate(4 839)">
<title>AbstractOffLatticeCellPopulation&lt; ELEMENT_DIM, SPACE_DIM &gt;</title>
<polygon fill="#ffffff" stroke="transparent" points="-4,4 -4,-839 1758.5,-839 1758.5,4 -4,4"/>
<!-- Node15 -->
<g id="node1" class="node">
<title>Node15</title>
<polygon fill="#bfbfbf" stroke="#000000" points="912.5,-.5 912.5,-222.5 1086.5,-222.5 1086.5,-.5 912.5,-.5"/>
<text text-anchor="start" x="920.5" y="-210.5" font-family="Helvetica,sans-Serif" font-size="10.00" fill="#000000">AbstractOffLatticeCellPopulation</text>
<text text-anchor="middle" x="999.5" y="-199.5" font-family="Helvetica,sans-Serif" font-size="10.00" fill="#000000">&lt; ELEMENT_DIM, SPACE_DIM &gt;</text>
<polyline fill="none" stroke="#000000" points="912.5,-192.5 1086.5,-192.5 "/>
<text text-anchor="middle" x="999.5" y="-180.5" font-family="Helvetica,sans-Serif" font-size="10.00" fill="#000000"> </text>
<polyline fill="none" stroke="#000000" points="912.5,-173.5 1086.5,-173.5 "/>
<text text-anchor="start" x="920.5" y="-161.5" font-family="Helvetica,sans-Serif" font-size="10.00" fill="#000000">+ AbstractOffLatticeCellPopulation()</text>
<text text-anchor="start" x="920.5" y="-150.5" font-family="Helvetica,sans-Serif" font-size="10.00" fill="#000000">+ AddNode()</text>
<text text-anchor="start" x="920.5" y="-139.5" font-family="Helvetica,sans-Serif" font-size="10.00" fill="#000000">+ SetNode()</text>
<text text-anchor="start" x="920.5" y="-128.5" font-family="Helvetica,sans-Serif" font-size="10.00" fill="#000000">+ UpdateNodeLocations()</text>
<text text-anchor="start" x="920.5" y="-117.5" font-family="Helvetica,sans-Serif" font-size="10.00" fill="#000000">+ CheckForStepSizeException()</text>
<text text-anchor="start" x="920.5" y="-106.5" font-family="Helvetica,sans-Serif" font-size="10.00" fill="#000000">+ GetDampingConstant()</text>
<text text-anchor="start" x="920.5" y="-95.5" font-family="Helvetica,sans-Serif" font-size="10.00" fill="#000000">+ SetDampingConstantNormal()</text>
<text text-anchor="start" x="920.5" y="-84.5" font-family="Helvetica,sans-Serif" font-size="10.00" fill="#000000">+ SetDampingConstantMutant()</text>
<text text-anchor="start" x="920.5" y="-73.5" font-family="Helvetica,sans-Serif" font-size="10.00" fill="#000000">+ SetAbsoluteMovementThreshold()</text>
<text text-anchor="start" x="920.5" y="-62.5" font-family="Helvetica,sans-Serif" font-size="10.00" fill="#000000">+ GetAbsoluteMovementThreshold()</text>
<text text-anchor="start" x="920.5" y="-51.5" font-family="Helvetica,sans-Serif" font-size="10.00" fill="#000000">+ GetDampingConstantNormal()</text>
<text text-anchor="start" x="920.5" y="-40.5" font-family="Helvetica,sans-Serif" font-size="10.00" fill="#000000">+ GetDampingConstantMutant()</text>
<text text-anchor="start" x="920.5" y="-29.5" font-family="Helvetica,sans-Serif" font-size="10.00" fill="#000000">+ OutputCellPopulationParameters()</text>
<text text-anchor="start" x="920.5" y="-18.5" font-family="Helvetica,sans-Serif" font-size="10.00" fill="#000000"># AbstractOffLatticeCellPopulation()</text>
<text text-anchor="start" x="920.5" y="-7.5" font-family="Helvetica,sans-Serif" font-size="10.00" fill="#000000">&#45; serialize()</text>
</g>
<!-- Node16 -->
<g id="node2" class="node">
<title>Node16</title>
<g id="a_node2"><a xlink:href="classAbstractCellPopulation.html" target="_top" xlink:title="{AbstractCellPopulation\l\&lt; ELEMENT_DIM, SPACE_DIM \&gt;\n||+ AbstractCellPopulation()\l+ ~AbstractCellPopulation()\l+ InitialiseCells()\l+ SetDataOnAllCells()\l+ rGetMesh()\l+ GetTetrahedralMeshForPde\lModifier()\l+ IsPdeNodeAssociatedWithNon\lApoptoticCell()\l+ GetCellDataItemAtPdeNode()\l+ rGetCells()\l+ GetNumNodes()\land 55 more...\l# Validate()\l# WriteVtkResultsToFile()\l# AbstractCellPopulation()\l# AcceptCellWritersAcrossPopulation()\l&#45; serialize()\l&#45; OpenRoundRobinWritersFiles\lForAppend()\l&#45; CloseRoundRobinWritersFiles()\l}">
<polygon fill="#ffffff" stroke="#000000" points="839,-292.5 839,-580.5 1026,-580.5 1026,-292.5 839,-292.5"/>
<text text-anchor="start" x="847" y="-568.5" font-family="Helvetica,sans-Serif" font-size="10.00" fill="#000000">AbstractCellPopulation</text>
<text text-anchor="middle" x="932.5" y="-557.5" font-family="Helvetica,sans-Serif" font-size="10.00" fill="#000000">&lt; ELEMENT_DIM, SPACE_DIM &gt;</text>
<polyline fill="none" stroke="#000000" points="839,-550.5 1026,-550.5 "/>
<text text-anchor="middle" x="932.5" y="-538.5" font-family="Helvetica,sans-Serif" font-size="10.00" fill="#000000"> </text>
<polyline fill="none" stroke="#000000" points="839,-531.5 1026,-531.5 "/>
<text text-anchor="start" x="847" y="-519.5" font-family="Helvetica,sans-Serif" font-size="10.00" fill="#000000">+ AbstractCellPopulation()</text>
<text text-anchor="start" x="847" y="-508.5" font-family="Helvetica,sans-Serif" font-size="10.00" fill="#000000">+ ~AbstractCellPopulation()</text>
<text text-anchor="start" x="847" y="-497.5" font-family="Helvetica,sans-Serif" font-size="10.00" fill="#000000">+ InitialiseCells()</text>
<text text-anchor="start" x="847" y="-486.5" font-family="Helvetica,sans-Serif" font-size="10.00" fill="#000000">+ SetDataOnAllCells()</text>
<text text-anchor="start" x="847" y="-475.5" font-family="Helvetica,sans-Serif" font-size="10.00" fill="#000000">+ rGetMesh()</text>
<text text-anchor="start" x="847" y="-464.5" font-family="Helvetica,sans-Serif" font-size="10.00" fill="#000000">+ GetTetrahedralMeshForPde</text>
<text text-anchor="start" x="847" y="-453.5" font-family="Helvetica,sans-Serif" font-size="10.00" fill="#000000">Modifier()</text>
<text text-anchor="start" x="847" y="-442.5" font-family="Helvetica,sans-Serif" font-size="10.00" fill="#000000">+ IsPdeNodeAssociatedWithNon</text>
<text text-anchor="start" x="847" y="-431.5" font-family="Helvetica,sans-Serif" font-size="10.00" fill="#000000">ApoptoticCell()</text>
<text text-anchor="start" x="847" y="-420.5" font-family="Helvetica,sans-Serif" font-size="10.00" fill="#000000">+ GetCellDataItemAtPdeNode()</text>
<text text-anchor="start" x="847" y="-409.5" font-family="Helvetica,sans-Serif" font-size="10.00" fill="#000000">+ rGetCells()</text>
<text text-anchor="start" x="847" y="-398.5" font-family="Helvetica,sans-Serif" font-size="10.00" fill="#000000">+ GetNumNodes()</text>
<text text-anchor="start" x="847" y="-387.5" font-family="Helvetica,sans-Serif" font-size="10.00" fill="#000000">and 55 more...</text>
<text text-anchor="start" x="847" y="-376.5" font-family="Helvetica,sans-Serif" font-size="10.00" fill="#000000"># Validate()</text>
<text text-anchor="start" x="847" y="-365.5" font-family="Helvetica,sans-Serif" font-size="10.00" fill="#000000"># WriteVtkResultsToFile()</text>
<text text-anchor="start" x="847" y="-354.5" font-family="Helvetica,sans-Serif" font-size="10.00" fill="#000000"># AbstractCellPopulation()</text>
<text text-anchor="start" x="847" y="-343.5" font-family="Helvetica,sans-Serif" font-size="10.00" fill="#000000"># AcceptCellWritersAcrossPopulation()</text>
<text text-anchor="start" x="847" y="-332.5" font-family="Helvetica,sans-Serif" font-size="10.00" fill="#000000">&#45; serialize()</text>
<text text-anchor="start" x="847" y="-321.5" font-family="Helvetica,sans-Serif" font-size="10.00" fill="#000000">&#45; OpenRoundRobinWritersFiles</text>
<text text-anchor="start" x="847" y="-310.5" font-family="Helvetica,sans-Serif" font-size="10.00" fill="#000000">ForAppend()</text>
<text text-anchor="start" x="847" y="-299.5" font-family="Helvetica,sans-Serif" font-size="10.00" fill="#000000">&#45; CloseRoundRobinWritersFiles()</text>
</a>
</g>
</g>
<!-- Node16&#45;&gt;Node15 -->
<g id="edge1" class="edge">
<title>Node16&#45;&gt;Node15</title>
<path fill="none" stroke="#191970" d="M964.3023,-282.2351C968.4351,-262.1879 972.6024,-241.9732 976.5519,-222.8155"/>
<polygon fill="none" stroke="#191970" points="960.8686,-281.5569 962.2774,-292.0576 967.7244,-282.9703 960.8686,-281.5569"/>
</g>
<!-- Node17 -->
<g id="node3" class="node">
<title>Node17</title>
<g id="a_node3"><a xlink:href="classIdentifiable.html" target="_top" xlink:title="{Identifiable\n||+ ~Identifiable()\l+ GetIdentifier()\l&#45; TidyTemplatedExportIdentifier()\l}">
<polygon fill="#ffffff" stroke="#000000" points="0,-645 0,-724 159,-724 159,-645 0,-645"/>
<text text-anchor="middle" x="79.5" y="-712" font-family="Helvetica,sans-Serif" font-size="10.00" fill="#000000">Identifiable</text>
<polyline fill="none" stroke="#000000" points="0,-705 159,-705 "/>
<text text-anchor="middle" x="79.5" y="-693" font-family="Helvetica,sans-Serif" font-size="10.00" fill="#000000"> </text>
<polyline fill="none" stroke="#000000" points="0,-686 159,-686 "/>
<text text-anchor="start" x="8" y="-674" font-family="Helvetica,sans-Serif" font-size="10.00" fill="#000000">+ ~Identifiable()</text>
<text text-anchor="start" x="8" y="-663" font-family="Helvetica,sans-Serif" font-size="10.00" fill="#000000">+ GetIdentifier()</text>
<text text-anchor="start" x="8" y="-652" font-family="Helvetica,sans-Serif" font-size="10.00" fill="#000000">&#45; TidyTemplatedExportIdentifier()</text>
</a>
</g>
</g>
<!-- Node17&#45;&gt;Node16 -->
<g id="edge2" class="edge">
<title>Node17&#45;&gt;Node16</title>
<path fill="none" stroke="#191970" d="M163.6294,-640.9164C165.26,-640.2585 166.8846,-639.6189 168.5,-639 402.9926,-549.168 692.6393,-484.2899 838.7608,-454.5937"/>
<polygon fill="none" stroke="#191970" points="162.1059,-637.7602 154.2473,-644.866 164.8219,-644.2119 162.1059,-637.7602"/>
</g>
<!-- Node18 -->
<g id="node4" class="node">
<title>Node18</title>
<polygon fill="#ffffff" stroke="#bfbfbf" points="177.5,-650.5 177.5,-718.5 309.5,-718.5 309.5,-650.5 177.5,-650.5"/>
<text text-anchor="start" x="185.5" y="-706.5" font-family="Helvetica,sans-Serif" font-size="10.00" fill="#000000">c_vector&lt; double, SPACE</text>
<text text-anchor="middle" x="243.5" y="-695.5" font-family="Helvetica,sans-Serif" font-size="10.00" fill="#000000">_DIM &gt;</text>
<polyline fill="none" stroke="#bfbfbf" points="177.5,-688.5 309.5,-688.5 "/>
<text text-anchor="middle" x="243.5" y="-676.5" font-family="Helvetica,sans-Serif" font-size="10.00" fill="#000000"> </text>
<polyline fill="none" stroke="#bfbfbf" points="177.5,-669.5 309.5,-669.5 "/>
<text text-anchor="middle" x="243.5" y="-657.5" font-family="Helvetica,sans-Serif" font-size="10.00" fill="#000000"> </text>
</g>
<!-- Node18&#45;&gt;Node16 -->
<g id="edge3" class="edge">
<title>Node18&#45;&gt;Node16</title>
<path fill="none" stroke="#404040" d="M296.3682,-650.4019C324.8654,-633.1584 361.146,-612.9801 395.5,-599 541.3056,-539.6652 717.0306,-490.4843 826.7909,-462.284"/>
<polygon fill="none" stroke="#404040" points="826.8954,-462.2573 831.7179,-456.896 838.5216,-459.2854 833.6992,-464.6468 826.8954,-462.2573"/>
<text text-anchor="middle" x="422.5" y="-607.5" font-family="Helvetica,sans-Serif" font-size="10.00" fill="#000000"> #mCentroid</text>
</g>
<!-- Node19 -->
<g id="node5" class="node">
<title>Node19</title>
<polygon fill="#ffffff" stroke="#bfbfbf" points="216.5,-777.5 216.5,-834.5 270.5,-834.5 270.5,-777.5 216.5,-777.5"/>
<text text-anchor="middle" x="243.5" y="-822.5" font-family="Helvetica,sans-Serif" font-size="10.00" fill="#000000">c_vector</text>
<polyline fill="none" stroke="#bfbfbf" points="216.5,-815.5 270.5,-815.5 "/>
<text text-anchor="middle" x="243.5" y="-803.5" font-family="Helvetica,sans-Serif" font-size="10.00" fill="#000000"> </text>
<polyline fill="none" stroke="#bfbfbf" points="216.5,-796.5 270.5,-796.5 "/>
<text text-anchor="middle" x="243.5" y="-784.5" font-family="Helvetica,sans-Serif" font-size="10.00" fill="#000000"> </text>
</g>
<!-- Node19&#45;&gt;Node18 -->
<g id="edge4" class="edge">
<title>Node19&#45;&gt;Node18</title>
<path fill="none" stroke="#ffa500" d="M243.5,-766.8733C243.5,-751.3628 243.5,-733.6896 243.5,-718.7007"/>
<polygon fill="#ffa500" stroke="#ffa500" points="240.0001,-767.2062 243.5,-777.2062 247.0001,-767.2062 240.0001,-767.2062"/>
<text text-anchor="middle" x="301" y="-751" font-family="Helvetica,sans-Serif" font-size="10.00" fill="#000000"> &lt; double, SPACE_DIM &gt;</text>
</g>
<!-- Node20 -->
<g id="node6" class="node">
<title>Node20</title>
<polygon fill="#ffffff" stroke="#bfbfbf" points="328,-656 328,-713 405,-713 405,-656 328,-656"/>
<text text-anchor="middle" x="366.5" y="-701" font-family="Helvetica,sans-Serif" font-size="10.00" fill="#000000">list&lt; CellPtr &gt;</text>
<polyline fill="none" stroke="#bfbfbf" points="328,-694 405,-694 "/>
<text text-anchor="middle" x="366.5" y="-682" font-family="Helvetica,sans-Serif" font-size="10.00" fill="#000000"> </text>
<polyline fill="none" stroke="#bfbfbf" points="328,-675 405,-675 "/>
<text text-anchor="middle" x="366.5" y="-663" font-family="Helvetica,sans-Serif" font-size="10.00" fill="#000000"> </text>
</g>
<!-- Node20&#45;&gt;Node16 -->
<g id="edge5" class="edge">
<title>Node20&#45;&gt;Node16</title>
<path fill="none" stroke="#404040" d="M393.1368,-655.8233C399.7193,-649.7432 407.0358,-643.7388 414.5,-639 546.2416,-555.3616 718.0876,-496.6213 826.8993,-464.6756"/>
<polygon fill="none" stroke="#404040" points="827.0152,-464.642 831.6592,-459.1253 838.5376,-461.2904 833.8936,-466.807 827.0152,-464.642"/>
<text text-anchor="middle" x="500.5" y="-607.5" font-family="Helvetica,sans-Serif" font-size="10.00" fill="#000000"> #mCells</text>
</g>
<!-- Node21 -->
<g id="node7" class="node">
<title>Node21</title>
<polygon fill="#ffffff" stroke="#bfbfbf" points="423.5,-639.5 423.5,-729.5 575.5,-729.5 575.5,-639.5 423.5,-639.5"/>
<text text-anchor="start" x="431.5" y="-717.5" font-family="Helvetica,sans-Serif" font-size="10.00" fill="#000000">vector&lt; boost::shared</text>
<text text-anchor="start" x="431.5" y="-706.5" font-family="Helvetica,sans-Serif" font-size="10.00" fill="#000000">_ptr&lt; AbstractCellPopulation</text>
<text text-anchor="start" x="431.5" y="-695.5" font-family="Helvetica,sans-Serif" font-size="10.00" fill="#000000">CountWriter&lt; ELEMENT_DIM,</text>
<text text-anchor="middle" x="499.5" y="-684.5" font-family="Helvetica,sans-Serif" font-size="10.00" fill="#000000"> SPACE_DIM &gt; &gt; &gt;</text>
<polyline fill="none" stroke="#bfbfbf" points="423.5,-677.5 575.5,-677.5 "/>
<text text-anchor="middle" x="499.5" y="-665.5" font-family="Helvetica,sans-Serif" font-size="10.00" fill="#000000"> </text>
<polyline fill="none" stroke="#bfbfbf" points="423.5,-658.5 575.5,-658.5 "/>
<text text-anchor="middle" x="499.5" y="-646.5" font-family="Helvetica,sans-Serif" font-size="10.00" fill="#000000"> </text>
</g>
<!-- Node21&#45;&gt;Node16 -->
<g id="edge6" class="edge">
<title>Node21&#45;&gt;Node16</title>
<path fill="none" stroke="#404040" d="M554.4577,-639.358C572.178,-625.6806 592.2285,-611.0908 611.5,-599 681.0251,-555.3804 763.7471,-513.7277 827.8022,-483.5144"/>
<polygon fill="none" stroke="#404040" points="827.8626,-483.4861 831.5946,-477.3157 838.7256,-478.3874 834.9937,-484.5577 827.8626,-483.4861"/>
<text text-anchor="middle" x="680.5" y="-607.5" font-family="Helvetica,sans-Serif" font-size="10.00" fill="#000000"> #mCellPopulationCountWriters</text>
</g>
<!-- Node22 -->
<g id="node8" class="node">
<title>Node22</title>
<polygon fill="#ffffff" stroke="#bfbfbf" points="593.5,-645 593.5,-724 781.5,-724 781.5,-645 593.5,-645"/>
<text text-anchor="start" x="601.5" y="-712" font-family="Helvetica,sans-Serif" font-size="10.00" fill="#000000">vector&lt; boost::shared</text>
<text text-anchor="start" x="601.5" y="-701" font-family="Helvetica,sans-Serif" font-size="10.00" fill="#000000">_ptr&lt; AbstractCellWriter</text>
<text text-anchor="middle" x="687.5" y="-690" font-family="Helvetica,sans-Serif" font-size="10.00" fill="#000000">&lt; ELEMENT_DIM, SPACE_DIM &gt; &gt; &gt;</text>
<polyline fill="none" stroke="#bfbfbf" points="593.5,-683 781.5,-683 "/>
<text text-anchor="middle" x="687.5" y="-671" font-family="Helvetica,sans-Serif" font-size="10.00" fill="#000000"> </text>
<polyline fill="none" stroke="#bfbfbf" points="593.5,-664 781.5,-664 "/>
<text text-anchor="middle" x="687.5" y="-652" font-family="Helvetica,sans-Serif" font-size="10.00" fill="#000000"> </text>
</g>
<!-- Node22&#45;&gt;Node16 -->
<g id="edge7" class="edge">
<title>Node22&#45;&gt;Node16</title>
<path fill="none" stroke="#404040" d="M726.5919,-644.9294C754.5453,-616.6337 793.5337,-577.1679 830.0728,-540.1815"/>
<polygon fill="none" stroke="#404040" points="830.3729,-539.8776 831.7441,-532.798 838.8065,-531.3408 837.4353,-538.4204 830.3729,-539.8776"/>
<text text-anchor="middle" x="800.5" y="-607.5" font-family="Helvetica,sans-Serif" font-size="10.00" fill="#000000"> #mCellWriters</text>
</g>
<!-- Node23 -->
<g id="node9" class="node">
<title>Node23</title>
<polygon fill="#ffffff" stroke="#bfbfbf" points="799.5,-650.5 799.5,-718.5 933.5,-718.5 933.5,-650.5 799.5,-650.5"/>
<text text-anchor="start" x="807.5" y="-706.5" font-family="Helvetica,sans-Serif" font-size="10.00" fill="#000000">AbstractMesh&lt; ELEMENT</text>
<text text-anchor="middle" x="866.5" y="-695.5" font-family="Helvetica,sans-Serif" font-size="10.00" fill="#000000">_DIM, SPACE_DIM &gt; &amp;</text>
<polyline fill="none" stroke="#bfbfbf" points="799.5,-688.5 933.5,-688.5 "/>
<text text-anchor="middle" x="866.5" y="-676.5" font-family="Helvetica,sans-Serif" font-size="10.00" fill="#000000"> </text>
<polyline fill="none" stroke="#bfbfbf" points="799.5,-669.5 933.5,-669.5 "/>
<text text-anchor="middle" x="866.5" y="-657.5" font-family="Helvetica,sans-Serif" font-size="10.00" fill="#000000"> </text>
</g>
<!-- Node23&#45;&gt;Node16 -->
<g id="edge8" class="edge">
<title>Node23&#45;&gt;Node16</title>
<path fill="none" stroke="#404040" d="M875.6077,-650.277C879.8642,-634.283 885.2637,-613.9941 891.0335,-592.3135"/>
<polygon fill="none" stroke="#404040" points="891.0896,-592.1024 888.7673,-585.2755 894.1758,-580.506 896.4982,-587.3329 891.0896,-592.1024"/>
<text text-anchor="middle" x="910.5" y="-607.5" font-family="Helvetica,sans-Serif" font-size="10.00" fill="#000000"> #mrMesh</text>
</g>
<!-- Node24 -->
<g id="node10" class="node">
<title>Node24</title>
<polygon fill="#ffffff" stroke="#bfbfbf" points="951.5,-639.5 951.5,-729.5 1115.5,-729.5 1115.5,-639.5 951.5,-639.5"/>
<text text-anchor="start" x="959.5" y="-717.5" font-family="Helvetica,sans-Serif" font-size="10.00" fill="#000000">vector&lt; boost::shared</text>
<text text-anchor="start" x="959.5" y="-706.5" font-family="Helvetica,sans-Serif" font-size="10.00" fill="#000000">_ptr&lt; AbstractCellPopulation</text>
<text text-anchor="start" x="959.5" y="-695.5" font-family="Helvetica,sans-Serif" font-size="10.00" fill="#000000">Writer&lt; ELEMENT_DIM, SPACE</text>
<text text-anchor="middle" x="1033.5" y="-684.5" font-family="Helvetica,sans-Serif" font-size="10.00" fill="#000000">_DIM &gt; &gt; &gt;</text>
<polyline fill="none" stroke="#bfbfbf" points="951.5,-677.5 1115.5,-677.5 "/>
<text text-anchor="middle" x="1033.5" y="-665.5" font-family="Helvetica,sans-Serif" font-size="10.00" fill="#000000"> </text>
<polyline fill="none" stroke="#bfbfbf" points="951.5,-658.5 1115.5,-658.5 "/>
<text text-anchor="middle" x="1033.5" y="-646.5" font-family="Helvetica,sans-Serif" font-size="10.00" fill="#000000"> </text>
</g>
<!-- Node24&#45;&gt;Node16 -->
<g id="edge9" class="edge">
<title>Node24&#45;&gt;Node16</title>
<path fill="none" stroke="#404040" d="M1010.8069,-639.2949C1007.9238,-633.1854 1005.0821,-626.9673 1002.5,-621 998.3976,-611.5196 994.2906,-601.7129 990.2368,-591.7883"/>
<polygon fill="none" stroke="#404040" points="990.188,-591.6676 984.229,-587.6066 985.6857,-580.5442 991.6446,-584.6051 990.188,-591.6676"/>
<text text-anchor="middle" x="1058.5" y="-607.5" font-family="Helvetica,sans-Serif" font-size="10.00" fill="#000000"> #mCellPopulationWriters</text>
</g>
<!-- Node25 -->
<g id="node11" class="node">
<title>Node25</title>
<polygon fill="#ffffff" stroke="#bfbfbf" points="1134,-650.5 1134,-718.5 1237,-718.5 1237,-650.5 1134,-650.5"/>
<text text-anchor="start" x="1142" y="-706.5" font-family="Helvetica,sans-Serif" font-size="10.00" fill="#000000">map&lt; unsigned, std</text>
<text text-anchor="middle" x="1185.5" y="-695.5" font-family="Helvetica,sans-Serif" font-size="10.00" fill="#000000">::set&lt; CellPtr &gt; &gt;</text>
<polyline fill="none" stroke="#bfbfbf" points="1134,-688.5 1237,-688.5 "/>
<text text-anchor="middle" x="1185.5" y="-676.5" font-family="Helvetica,sans-Serif" font-size="10.00" fill="#000000"> </text>
<polyline fill="none" stroke="#bfbfbf" points="1134,-669.5 1237,-669.5 "/>
<text text-anchor="middle" x="1185.5" y="-657.5" font-family="Helvetica,sans-Serif" font-size="10.00" fill="#000000"> </text>
</g>
<!-- Node25&#45;&gt;Node16 -->
<g id="edge10" class="edge">
<title>Node25&#45;&gt;Node16</title>
<path fill="none" stroke="#404040" d="M1160.6928,-650.2798C1145.0185,-629.569 1125.6791,-605.8679 1114.5,-599 1086.6934,-581.917 1069.0164,-597.4137 1036.6373,-580.5489"/>
<polygon fill="none" stroke="#404040" points="1036.3723,-580.3896 1029.169,-580.7246 1026.0892,-574.2042 1033.2925,-573.8692 1036.3723,-580.3896"/>
<text text-anchor="middle" x="1181.5" y="-607.5" font-family="Helvetica,sans-Serif" font-size="10.00" fill="#000000"> #mLocationCellMap</text>
</g>
<!-- Node26 -->
<g id="node12" class="node">
<title>Node26</title>
<g id="a_node12"><a xlink:href="classbool.html" target="_top" xlink:title="{bool\n||}">
<polygon fill="#ffffff" stroke="#000000" points="1255,-656 1255,-713 1290,-713 1290,-656 1255,-656"/>
<text text-anchor="middle" x="1272.5" y="-701" font-family="Helvetica,sans-Serif" font-size="10.00" fill="#000000">bool</text>
<polyline fill="none" stroke="#000000" points="1255,-694 1290,-694 "/>
<text text-anchor="middle" x="1272.5" y="-682" font-family="Helvetica,sans-Serif" font-size="10.00" fill="#000000"> </text>
<polyline fill="none" stroke="#000000" points="1255,-675 1290,-675 "/>
<text text-anchor="middle" x="1272.5" y="-663" font-family="Helvetica,sans-Serif" font-size="10.00" fill="#000000"> </text>
</a>
</g>
</g>
<!-- Node26&#45;&gt;Node16 -->
<g id="edge11" class="edge">
<title>Node26&#45;&gt;Node16</title>
<path fill="none" stroke="#404040" d="M1265.1754,-655.7908C1258.6437,-636.4095 1247.015,-612.0635 1227.5,-599 1159.4767,-553.4647 1113.9999,-617.5057 1037.1665,-580.9037"/>
<polygon fill="none" stroke="#404040" points="1036.716,-580.6651 1029.5416,-581.3921 1026.1112,-575.0491 1033.2856,-574.3222 1036.716,-580.6651"/>
<text text-anchor="start" x="1246.5" y="-613" font-family="Helvetica,sans-Serif" font-size="10.00" fill="#000000"> #mOutputResultsForChaste</text>
<text text-anchor="middle" x="1309.5" y="-602" font-family="Helvetica,sans-Serif" font-size="10.00" fill="#000000">Visualizer</text>
</g>
<!-- Node27 -->
<g id="node13" class="node">
<title>Node27</title>
<polygon fill="#ffffff" stroke="#bfbfbf" points="1333,-650.5 1333,-718.5 1458,-718.5 1458,-650.5 1333,-650.5"/>
<text text-anchor="start" x="1341" y="-706.5" font-family="Helvetica,sans-Serif" font-size="10.00" fill="#000000">shared_ptr&lt; CellProperty</text>
<text text-anchor="middle" x="1395.5" y="-695.5" font-family="Helvetica,sans-Serif" font-size="10.00" fill="#000000">Registry &gt;</text>
<polyline fill="none" stroke="#bfbfbf" points="1333,-688.5 1458,-688.5 "/>
<text text-anchor="middle" x="1395.5" y="-676.5" font-family="Helvetica,sans-Serif" font-size="10.00" fill="#000000"> </text>
<polyline fill="none" stroke="#bfbfbf" points="1333,-669.5 1458,-669.5 "/>
<text text-anchor="middle" x="1395.5" y="-657.5" font-family="Helvetica,sans-Serif" font-size="10.00" fill="#000000"> </text>
</g>
<!-- Node27&#45;&gt;Node16 -->
<g id="edge12" class="edge">
<title>Node27&#45;&gt;Node16</title>
<path fill="none" stroke="#404040" d="M1397.0907,-650.3243C1395.955,-632.2841 1391.1238,-611.3784 1376.5,-599 1349.4633,-576.1146 1104.6821,-596.1882 1037.507,-579.3989"/>
<polygon fill="none" stroke="#404040" points="1037.2912,-579.3207 1030.2867,-581.0345 1026.0106,-575.228 1033.0151,-573.5141 1037.2912,-579.3207"/>
<text text-anchor="middle" x="1447" y="-607.5" font-family="Helvetica,sans-Serif" font-size="10.00" fill="#000000"> #mpCellPropertyRegistry</text>
</g>
<!-- Node28 -->
<g id="node14" class="node">
<title>Node28</title>
<polygon fill="#ffffff" stroke="#bfbfbf" points="1476.5,-656 1476.5,-713 1598.5,-713 1598.5,-656 1476.5,-656"/>
<text text-anchor="middle" x="1537.5" y="-701" font-family="Helvetica,sans-Serif" font-size="10.00" fill="#000000">map&lt; Cell *, unsigned &gt;</text>
<polyline fill="none" stroke="#bfbfbf" points="1476.5,-694 1598.5,-694 "/>
<text text-anchor="middle" x="1537.5" y="-682" font-family="Helvetica,sans-Serif" font-size="10.00" fill="#000000"> </text>
<polyline fill="none" stroke="#bfbfbf" points="1476.5,-675 1598.5,-675 "/>
<text text-anchor="middle" x="1537.5" y="-663" font-family="Helvetica,sans-Serif" font-size="10.00" fill="#000000"> </text>
</g>
<!-- Node28&#45;&gt;Node16 -->
<g id="edge13" class="edge">
<title>Node28&#45;&gt;Node16</title>
<path fill="none" stroke="#404040" d="M1535.5187,-655.7989C1532.5317,-636.4214 1525.2209,-612.0767 1507.5,-599 1467.4974,-569.4811 1121.1942,-602.0985 1037.7558,-579.8019"/>
<polygon fill="none" stroke="#404040" points="1037.6046,-579.7455 1030.5843,-581.3937 1026.3629,-575.5474 1033.3831,-573.8992 1037.6046,-579.7455"/>
<text text-anchor="middle" x="1568.5" y="-607.5" font-family="Helvetica,sans-Serif" font-size="10.00" fill="#000000"> #mCellLocationMap</text>
</g>
<!-- Node29 -->
<g id="node15" class="node">
<title>Node29</title>
<polygon fill="#ffffff" stroke="#bfbfbf" points="1616.5,-656 1616.5,-713 1754.5,-713 1754.5,-656 1616.5,-656"/>
<text text-anchor="middle" x="1685.5" y="-701" font-family="Helvetica,sans-Serif" font-size="10.00" fill="#000000">shared_ptr&lt; std::ofstream &gt;</text>
<polyline fill="none" stroke="#bfbfbf" points="1616.5,-694 1754.5,-694 "/>
<text text-anchor="middle" x="1685.5" y="-682" font-family="Helvetica,sans-Serif" font-size="10.00" fill="#000000"> </text>
<polyline fill="none" stroke="#bfbfbf" points="1616.5,-675 1754.5,-675 "/>
<text text-anchor="middle" x="1685.5" y="-663" font-family="Helvetica,sans-Serif" font-size="10.00" fill="#000000"> </text>
</g>
<!-- Node29&#45;&gt;Node16 -->
<g id="edge14" class="edge">
<title>Node29&#45;&gt;Node16</title>
<path fill="none" stroke="#404040" d="M1671.3772,-655.9191C1659.8622,-636.0606 1641.5731,-611.0748 1617.5,-599 1562.2673,-571.296 1133.6896,-607.9297 1037.6217,-579.9661"/>
<polygon fill="none" stroke="#404040" points="1037.5294,-579.9302 1030.4872,-581.4819 1026.3463,-575.5781 1033.3885,-574.0265 1037.5294,-579.9302"/>
<text text-anchor="middle" x="1682" y="-607.5" font-family="Helvetica,sans-Serif" font-size="10.00" fill="#000000"> #mpVtkMetaFile</text>
</g>
<!-- Node30 -->
<g id="node16" class="node">
<title>Node30</title>
<g id="a_node16"><a xlink:href="classdouble.html" target="_top" xlink:title="{double\n||}">
<polygon fill="#ffffff" stroke="#000000" points="1044,-408 1044,-465 1089,-465 1089,-408 1044,-408"/>
<text text-anchor="middle" x="1066.5" y="-453" font-family="Helvetica,sans-Serif" font-size="10.00" fill="#000000">double</text>
<polyline fill="none" stroke="#000000" points="1044,-446 1089,-446 "/>
<text text-anchor="middle" x="1066.5" y="-434" font-family="Helvetica,sans-Serif" font-size="10.00" fill="#000000"> </text>
<polyline fill="none" stroke="#000000" points="1044,-427 1089,-427 "/>
<text text-anchor="middle" x="1066.5" y="-415" font-family="Helvetica,sans-Serif" font-size="10.00" fill="#000000"> </text>
</a>
</g>
</g>
<!-- Node30&#45;&gt;Node15 -->
<g id="edge15" class="edge">
<title>Node30&#45;&gt;Node15</title>
<path fill="none" stroke="#404040" d="M1060.6129,-407.9433C1052.6333,-369.236 1037.8848,-297.6949 1024.8758,-234.5914"/>
<polygon fill="none" stroke="#404040" points="1024.8074,-234.2596 1019.6783,-229.1908 1022.3845,-222.5068 1027.5136,-227.5755 1024.8074,-234.2596"/>
<text text-anchor="middle" x="1104.5" y="-266" font-family="Helvetica,sans-Serif" font-size="10.00" fill="#000000"> #mAbsoluteMovementThreshold</text>
<text text-anchor="middle" x="1104.5" y="-255" font-family="Helvetica,sans-Serif" font-size="10.00" fill="#000000">#mDampingConstantMutant</text>
<text text-anchor="middle" x="1104.5" y="-244" font-family="Helvetica,sans-Serif" font-size="10.00" fill="#000000">#mDampingConstantNormal</text>
</g>
</g>
</svg>
