<?xml version="1.0" encoding="UTF-8" standalone="no"?>
<!DOCTYPE svg PUBLIC "-//W3C//DTD SVG 1.1//EN"
 "http://www.w3.org/Graphics/SVG/1.1/DTD/svg11.dtd">
<!-- Generated by graphviz version 2.40.1 (20161225.0304)
 -->
<!-- Title: AbstractConductivityModifier&lt; ELEMENT_DIM, SPACE_DIM &gt; Pages: 1 -->
<svg width="178pt" height="259pt"
 viewBox="0.00 0.00 178.00 259.00" xmlns="http://www.w3.org/2000/svg" xmlns:xlink="http://www.w3.org/1999/xlink">
<g id="graph0" class="graph" transform="scale(1 1) rotate(0) translate(4 255)">
<title>AbstractConductivityModifier&lt; ELEMENT_DIM, SPACE_DIM &gt;</title>
<polygon fill="#ffffff" stroke="transparent" points="-4,4 -4,-255 174,-255 174,4 -4,4"/>
<!-- Node6 -->
<g id="node1" class="node">
<title>Node6</title>
<polygon fill="#bfbfbf" stroke="#000000" points="0,-.5 0,-112.5 170,-112.5 170,-.5 0,-.5"/>
<text text-anchor="start" x="8" y="-100.5" font-family="Helvetica,sans-Serif" font-size="10.00" fill="#000000">AbstractConductivityModifier</text>
<text text-anchor="middle" x="85" y="-89.5" font-family="Helvetica,sans-Serif" font-size="10.00" fill="#000000">&lt; ELEMENT_DIM, SPACE_DIM &gt;</text>
<polyline fill="none" stroke="#000000" points="0,-82.5 170,-82.5 "/>
<text text-anchor="middle" x="85" y="-70.5" font-family="Helvetica,sans-Serif" font-size="10.00" fill="#000000"> </text>
<polyline fill="none" stroke="#000000" points="0,-63.5 170,-63.5 "/>
<text text-anchor="start" x="8" y="-51.5" font-family="Helvetica,sans-Serif" font-size="10.00" fill="#000000">+ ~AbstractConductivityModifier()</text>
<text text-anchor="start" x="8" y="-40.5" font-family="Helvetica,sans-Serif" font-size="10.00" fill="#000000">+ rGetModifiedConductivity</text>
<text text-anchor="start" x="8" y="-29.5" font-family="Helvetica,sans-Serif" font-size="10.00" fill="#000000">Tensor()</text>
<text text-anchor="start" x="8" y="-18.5" font-family="Helvetica,sans-Serif" font-size="10.00" fill="#000000">+ rCalculateModifiedConductivity</text>
<text text-anchor="start" x="8" y="-7.5" font-family="Helvetica,sans-Serif" font-size="10.00" fill="#000000">Tensor()</text>
</g>
<!-- Node7 -->
<g id="node2" class="node">
<title>Node7</title>
<polygon fill="#ffffff" stroke="#bfbfbf" points="24,-160.5 24,-250.5 146,-250.5 146,-160.5 24,-160.5"/>
<text text-anchor="start" x="32" y="-238.5" font-family="Helvetica,sans-Serif" font-size="10.00" fill="#000000">vector&lt; std::pair&lt;</text>
<text text-anchor="start" x="32" y="-227.5" font-family="Helvetica,sans-Serif" font-size="10.00" fill="#000000"> unsigned, c_matrix</text>
<text text-anchor="start" x="32" y="-216.5" font-family="Helvetica,sans-Serif" font-size="10.00" fill="#000000">&lt; double, SPACE_DIM,</text>
<text text-anchor="middle" x="85" y="-205.5" font-family="Helvetica,sans-Serif" font-size="10.00" fill="#000000"> SPACE_DIM &gt; &gt; &gt;</text>
<polyline fill="none" stroke="#bfbfbf" points="24,-198.5 146,-198.5 "/>
<text text-anchor="middle" x="85" y="-186.5" font-family="Helvetica,sans-Serif" font-size="10.00" fill="#000000"> </text>
<polyline fill="none" stroke="#bfbfbf" points="24,-179.5 146,-179.5 "/>
<text text-anchor="middle" x="85" y="-167.5" font-family="Helvetica,sans-Serif" font-size="10.00" fill="#000000"> </text>
</g>
<!-- Node7&#45;&gt;Node6 -->
<g id="edge1" class="edge">
<title>Node7&#45;&gt;Node6</title>
<path fill="none" stroke="#404040" d="M85,-160.3907C85,-149.0845 85,-136.7027 85,-124.5514"/>
<polygon fill="none" stroke="#404040" points="85.0001,-124.5254 81,-118.5254 85,-112.5254 89,-118.5253 85.0001,-124.5254"/>
<text text-anchor="middle" x="106.5" y="-134" font-family="Helvetica,sans-Serif" font-size="10.00" fill="#000000"> &#45;mCache</text>
</g>
</g>
</svg>
