<?xml version="1.0" encoding="UTF-8" standalone="no"?>
<!DOCTYPE svg PUBLIC "-//W3C//DTD SVG 1.1//EN"
 "http://www.w3.org/Graphics/SVG/1.1/DTD/svg11.dtd">
<!-- Generated by graphviz version 2.40.1 (20161225.0304)
 -->
<!-- Title: linalg/src/UblasCustomFunctions.hpp Pages: 1 -->
<svg width="1081pt" height="218pt"
 viewBox="0.00 0.00 1080.50 218.00" xmlns="http://www.w3.org/2000/svg" xmlns:xlink="http://www.w3.org/1999/xlink">
<g id="graph0" class="graph" transform="scale(1 1) rotate(0) translate(4 214)">
<title>linalg/src/UblasCustomFunctions.hpp</title>
<polygon fill="#ffffff" stroke="transparent" points="-4,4 -4,-214 1076.5,-214 1076.5,4 -4,4"/>
<!-- Node0 -->
<g id="node1" class="node">
<title>Node0</title>
<polygon fill="#bfbfbf" stroke="#000000" points="585.5,-190.5 585.5,-209.5 765.5,-209.5 765.5,-190.5 585.5,-190.5"/>
<text text-anchor="middle" x="675.5" y="-197.5" font-family="Helvetica,sans-Serif" font-size="10.00" fill="#000000">linalg/src/UblasCustomFunctions.hpp</text>
</g>
<!-- Node1 -->
<g id="node2" class="node">
<title>Node1</title>
<g id="a_node2"><a xlink:href="UblasIncludes_8hpp.html" target="_top" xlink:title="UblasIncludes.hpp">
<polygon fill="#ffffff" stroke="#000000" points="344.5,-134.5 344.5,-153.5 442.5,-153.5 442.5,-134.5 344.5,-134.5"/>
<text text-anchor="middle" x="393.5" y="-141.5" font-family="Helvetica,sans-Serif" font-size="10.00" fill="#000000">UblasIncludes.hpp</text>
</a>
</g>
</g>
<!-- Node0&#45;&gt;Node1 -->
<g id="edge1" class="edge">
<title>Node0&#45;&gt;Node1</title>
<path fill="none" stroke="#191970" d="M627.3429,-190.4369C578.6752,-180.7724 503.4425,-165.8326 451.5179,-155.5213"/>
<polygon fill="#191970" stroke="#191970" points="451.9487,-152.0386 441.4585,-153.5237 450.5852,-158.9045 451.9487,-152.0386"/>
</g>
<!-- Node9 -->
<g id="node10" class="node">
<title>Node9</title>
<g id="a_node10"><a xlink:href="Exception_8hpp.html" target="_top" xlink:title="Exception.hpp">
<polygon fill="#ffffff" stroke="#000000" points="764,-134.5 764,-153.5 843,-153.5 843,-134.5 764,-134.5"/>
<text text-anchor="middle" x="803.5" y="-141.5" font-family="Helvetica,sans-Serif" font-size="10.00" fill="#000000">Exception.hpp</text>
</a>
</g>
</g>
<!-- Node0&#45;&gt;Node9 -->
<g id="edge9" class="edge">
<title>Node0&#45;&gt;Node9</title>
<path fill="none" stroke="#191970" d="M697.504,-190.3733C718.1435,-181.3435 749.2158,-167.7494 772.3889,-157.6111"/>
<polygon fill="#191970" stroke="#191970" points="774.0245,-160.7159 781.7831,-153.5011 771.2187,-154.3028 774.0245,-160.7159"/>
</g>
<!-- Node16 -->
<g id="node17" class="node">
<title>Node16</title>
<g id="a_node17"><a xlink:href="MathsCustomFunctions_8hpp.html" target="_top" xlink:title="MathsCustomFunctions.hpp">
<polygon fill="#ffffff" stroke="#000000" points="605.5,-134.5 605.5,-153.5 745.5,-153.5 745.5,-134.5 605.5,-134.5"/>
<text text-anchor="middle" x="675.5" y="-141.5" font-family="Helvetica,sans-Serif" font-size="10.00" fill="#000000">MathsCustomFunctions.hpp</text>
</a>
</g>
</g>
<!-- Node0&#45;&gt;Node16 -->
<g id="edge16" class="edge">
<title>Node0&#45;&gt;Node16</title>
<path fill="none" stroke="#191970" d="M675.5,-190.2455C675.5,-182.9382 675.5,-172.6944 675.5,-163.7046"/>
<polygon fill="#191970" stroke="#191970" points="679.0001,-163.6426 675.5,-153.6427 672.0001,-163.6427 679.0001,-163.6426"/>
</g>
<!-- Node2 -->
<g id="node3" class="node">
<title>Node2</title>
<g id="a_node3"><a xlink:href="UblasVectorInclude_8hpp.html" target="_top" xlink:title="UblasVectorInclude.hpp">
<polygon fill="#ffffff" stroke="#000000" points="0,-73 0,-92 121,-92 121,-73 0,-73"/>
<text text-anchor="middle" x="60.5" y="-80" font-family="Helvetica,sans-Serif" font-size="10.00" fill="#000000">UblasVectorInclude.hpp</text>
</a>
</g>
</g>
<!-- Node1&#45;&gt;Node2 -->
<g id="edge2" class="edge">
<title>Node1&#45;&gt;Node2</title>
<path fill="none" stroke="#191970" d="M344.2246,-136.1468C291.0956,-127.5086 204.0992,-112.869 129.5,-98 123.6376,-96.8315 117.5093,-95.5469 111.4284,-94.2325"/>
<polygon fill="#191970" stroke="#191970" points="111.8124,-90.7335 101.2945,-92.0076 110.3113,-97.5706 111.8124,-90.7335"/>
</g>
<!-- Node4 -->
<g id="node5" class="node">
<title>Node4</title>
<g id="a_node5"><a xlink:href="UblasMatrixInclude_8hpp.html" target="_top" xlink:title="UblasMatrixInclude.hpp">
<polygon fill="#ffffff" stroke="#000000" points="139,-73 139,-92 258,-92 258,-73 139,-73"/>
<text text-anchor="middle" x="198.5" y="-80" font-family="Helvetica,sans-Serif" font-size="10.00" fill="#000000">UblasMatrixInclude.hpp</text>
</a>
</g>
</g>
<!-- Node1&#45;&gt;Node4 -->
<g id="edge4" class="edge">
<title>Node1&#45;&gt;Node4</title>
<path fill="none" stroke="#191970" d="M363.0313,-134.3906C329.5456,-123.8298 275.6147,-106.8208 238.688,-95.1747"/>
<polygon fill="#191970" stroke="#191970" points="239.3445,-91.7118 228.7548,-92.0419 237.239,-98.3877 239.3445,-91.7118"/>
</g>
<!-- Node6 -->
<g id="node7" class="node">
<title>Node6</title>
<polygon fill="#ffffff" stroke="#bfbfbf" points="276.5,-67.5 276.5,-97.5 380.5,-97.5 380.5,-67.5 276.5,-67.5"/>
<text text-anchor="start" x="284.5" y="-85.5" font-family="Helvetica,sans-Serif" font-size="10.00" fill="#000000">boost/numeric/ublas</text>
<text text-anchor="middle" x="328.5" y="-74.5" font-family="Helvetica,sans-Serif" font-size="10.00" fill="#000000">/matrix_proxy.hpp</text>
</g>
<!-- Node1&#45;&gt;Node6 -->
<g id="edge6" class="edge">
<title>Node1&#45;&gt;Node6</title>
<path fill="none" stroke="#191970" d="M383.3438,-134.3906C374.9541,-126.4527 362.7141,-114.8718 351.9249,-104.6635"/>
<polygon fill="#191970" stroke="#191970" points="354.0702,-101.875 344.4008,-97.5446 349.2593,-106.9598 354.0702,-101.875"/>
</g>
<!-- Node7 -->
<g id="node8" class="node">
<title>Node7</title>
<polygon fill="#ffffff" stroke="#bfbfbf" points="398.5,-67.5 398.5,-97.5 516.5,-97.5 516.5,-67.5 398.5,-67.5"/>
<text text-anchor="start" x="406.5" y="-85.5" font-family="Helvetica,sans-Serif" font-size="10.00" fill="#000000">boost/numeric/ublas</text>
<text text-anchor="middle" x="457.5" y="-74.5" font-family="Helvetica,sans-Serif" font-size="10.00" fill="#000000">/matrix_expression.hpp</text>
</g>
<!-- Node1&#45;&gt;Node7 -->
<g id="edge7" class="edge">
<title>Node1&#45;&gt;Node7</title>
<path fill="none" stroke="#191970" d="M403.5,-134.3906C411.7606,-126.4527 423.8122,-114.8718 434.4355,-104.6635"/>
<polygon fill="#191970" stroke="#191970" points="437.0584,-106.9971 441.8438,-97.5446 432.2082,-101.9498 437.0584,-106.9971"/>
</g>
<!-- Node8 -->
<g id="node9" class="node">
<title>Node8</title>
<polygon fill="#ffffff" stroke="#bfbfbf" points="534.5,-67.5 534.5,-97.5 638.5,-97.5 638.5,-67.5 534.5,-67.5"/>
<text text-anchor="start" x="542.5" y="-85.5" font-family="Helvetica,sans-Serif" font-size="10.00" fill="#000000">boost/numeric/ublas</text>
<text text-anchor="middle" x="586.5" y="-74.5" font-family="Helvetica,sans-Serif" font-size="10.00" fill="#000000">/io.hpp</text>
</g>
<!-- Node1&#45;&gt;Node8 -->
<g id="edge8" class="edge">
<title>Node1&#45;&gt;Node8</title>
<path fill="none" stroke="#191970" d="M423.6563,-134.3906C451.9531,-125.3737 495.0012,-111.6563 529.731,-100.5896"/>
<polygon fill="#191970" stroke="#191970" points="530.8216,-103.9156 539.2869,-97.5446 528.6963,-97.246 530.8216,-103.9156"/>
</g>
<!-- Node3 -->
<g id="node4" class="node">
<title>Node3</title>
<polygon fill="#ffffff" stroke="#bfbfbf" points="8.5,-.5 8.5,-30.5 112.5,-30.5 112.5,-.5 8.5,-.5"/>
<text text-anchor="start" x="16.5" y="-18.5" font-family="Helvetica,sans-Serif" font-size="10.00" fill="#000000">boost/numeric/ublas</text>
<text text-anchor="middle" x="60.5" y="-7.5" font-family="Helvetica,sans-Serif" font-size="10.00" fill="#000000">/vector.hpp</text>
</g>
<!-- Node2&#45;&gt;Node3 -->
<g id="edge3" class="edge">
<title>Node2&#45;&gt;Node3</title>
<path fill="none" stroke="#191970" d="M60.5,-72.9005C60.5,-64.5099 60.5,-51.9451 60.5,-40.7085"/>
<polygon fill="#191970" stroke="#191970" points="64.0001,-40.5217 60.5,-30.5218 57.0001,-40.5218 64.0001,-40.5217"/>
</g>
<!-- Node5 -->
<g id="node6" class="node">
<title>Node5</title>
<polygon fill="#ffffff" stroke="#bfbfbf" points="146.5,-.5 146.5,-30.5 250.5,-30.5 250.5,-.5 146.5,-.5"/>
<text text-anchor="start" x="154.5" y="-18.5" font-family="Helvetica,sans-Serif" font-size="10.00" fill="#000000">boost/numeric/ublas</text>
<text text-anchor="middle" x="198.5" y="-7.5" font-family="Helvetica,sans-Serif" font-size="10.00" fill="#000000">/matrix.hpp</text>
</g>
<!-- Node4&#45;&gt;Node5 -->
<g id="edge5" class="edge">
<title>Node4&#45;&gt;Node5</title>
<path fill="none" stroke="#191970" d="M198.5,-72.9005C198.5,-64.5099 198.5,-51.9451 198.5,-40.7085"/>
<polygon fill="#191970" stroke="#191970" points="202.0001,-40.5217 198.5,-30.5218 195.0001,-40.5218 202.0001,-40.5217"/>
</g>
<!-- Node10 -->
<g id="node11" class="node">
<title>Node10</title>
<polygon fill="#ffffff" stroke="#bfbfbf" points="716,-73 716,-92 757,-92 757,-73 716,-73"/>
<text text-anchor="middle" x="736.5" y="-80" font-family="Helvetica,sans-Serif" font-size="10.00" fill="#000000">string</text>
</g>
<!-- Node9&#45;&gt;Node10 -->
<g id="edge10" class="edge">
<title>Node9&#45;&gt;Node10</title>
<path fill="none" stroke="#191970" d="M793.0313,-134.3906C782.7663,-124.9683 766.9097,-110.4134 754.5994,-99.1137"/>
<polygon fill="#191970" stroke="#191970" points="756.8501,-96.4287 747.1163,-92.2449 752.1166,-101.5856 756.8501,-96.4287"/>
</g>
<!-- Node11 -->
<g id="node12" class="node">
<title>Node11</title>
<polygon fill="#ffffff" stroke="#bfbfbf" points="775.5,-73 775.5,-92 827.5,-92 827.5,-73 775.5,-73"/>
<text text-anchor="middle" x="801.5" y="-80" font-family="Helvetica,sans-Serif" font-size="10.00" fill="#000000">sstream</text>
</g>
<!-- Node9&#45;&gt;Node11 -->
<g id="edge11" class="edge">
<title>Node9&#45;&gt;Node11</title>
<path fill="none" stroke="#191970" d="M803.1875,-134.3906C802.9103,-125.8657 802.4964,-113.1392 802.1479,-102.4235"/>
<polygon fill="#191970" stroke="#191970" points="805.6402,-102.1258 801.8169,-92.2449 798.6439,-102.3534 805.6402,-102.1258"/>
</g>
<!-- Node12 -->
<g id="node13" class="node">
<title>Node12</title>
<polygon fill="#ffffff" stroke="#bfbfbf" points="657,-73 657,-92 698,-92 698,-73 657,-73"/>
<text text-anchor="middle" x="677.5" y="-80" font-family="Helvetica,sans-Serif" font-size="10.00" fill="#000000">cfloat</text>
</g>
<!-- Node9&#45;&gt;Node12 -->
<g id="edge12" class="edge">
<title>Node9&#45;&gt;Node12</title>
<path fill="none" stroke="#191970" d="M782.5456,-134.4166C762.8042,-125.3047 732.4641,-111.0856 706.5,-98 705.8118,-97.6531 705.1155,-97.2998 704.4139,-96.9415"/>
<polygon fill="#191970" stroke="#191970" points="705.7048,-93.6673 695.22,-92.1445 702.4667,-99.8734 705.7048,-93.6673"/>
</g>
<!-- Node13 -->
<g id="node14" class="node">
<title>Node13</title>
<polygon fill="#ffffff" stroke="#bfbfbf" points="846,-73 846,-92 891,-92 891,-73 846,-73"/>
<text text-anchor="middle" x="868.5" y="-80" font-family="Helvetica,sans-Serif" font-size="10.00" fill="#000000">climits</text>
</g>
<!-- Node9&#45;&gt;Node13 -->
<g id="edge13" class="edge">
<title>Node9&#45;&gt;Node13</title>
<path fill="none" stroke="#191970" d="M813.6563,-134.3906C823.5199,-125.0581 838.7055,-110.6902 850.5987,-99.4374"/>
<polygon fill="#191970" stroke="#191970" points="853.3421,-101.6601 858.2006,-92.2449 848.5311,-96.5753 853.3421,-101.6601"/>
</g>
<!-- Node14 -->
<g id="node15" class="node">
<title>Node14</title>
<polygon fill="#ffffff" stroke="#bfbfbf" points="909,-73 909,-92 954,-92 954,-73 909,-73"/>
<text text-anchor="middle" x="931.5" y="-80" font-family="Helvetica,sans-Serif" font-size="10.00" fill="#000000">cstdlib</text>
</g>
<!-- Node9&#45;&gt;Node14 -->
<g id="edge14" class="edge">
<title>Node9&#45;&gt;Node14</title>
<path fill="none" stroke="#191970" d="M823.9968,-134.4312C843.67,-125.2112 874.1928,-110.8129 900.5,-98 901.4737,-97.5257 902.4638,-97.0415 903.4631,-96.5512"/>
<polygon fill="#191970" stroke="#191970" points="905.104,-99.6443 912.5136,-92.0714 901.9987,-93.3708 905.104,-99.6443"/>
</g>
<!-- Node15 -->
<g id="node16" class="node">
<title>Node15</title>
<polygon fill="#ffffff" stroke="#bfbfbf" points="972.5,-67.5 972.5,-97.5 1072.5,-97.5 1072.5,-67.5 972.5,-67.5"/>
<text text-anchor="start" x="980.5" y="-85.5" font-family="Helvetica,sans-Serif" font-size="10.00" fill="#000000">boost/preprocessor</text>
<text text-anchor="middle" x="1022.5" y="-74.5" font-family="Helvetica,sans-Serif" font-size="10.00" fill="#000000">/stringize.hpp</text>
</g>
<!-- Node9&#45;&gt;Node15 -->
<g id="edge15" class="edge">
<title>Node9&#45;&gt;Node15</title>
<path fill="none" stroke="#191970" d="M837.7188,-134.3906C871.0598,-125.0277 922.4485,-110.5966 962.577,-99.3277"/>
<polygon fill="#191970" stroke="#191970" points="963.5757,-102.6827 972.257,-96.6093 961.6831,-95.9434 963.5757,-102.6827"/>
</g>
<!-- Node16&#45;&gt;Node12 -->
<g id="edge17" class="edge">
<title>Node16&#45;&gt;Node12</title>
<path fill="none" stroke="#191970" d="M675.8125,-134.3906C676.0897,-125.8657 676.5036,-113.1392 676.8521,-102.4235"/>
<polygon fill="#191970" stroke="#191970" points="680.3561,-102.3534 677.1831,-92.2449 673.3598,-102.1258 680.3561,-102.3534"/>
</g>
</g>
</svg>
