<?xml version="1.0" encoding="UTF-8" standalone="no"?>
<!DOCTYPE svg PUBLIC "-//W3C//DTD SVG 1.1//EN"
 "http://www.w3.org/Graphics/SVG/1.1/DTD/svg11.dtd">
<!-- Generated by graphviz version 2.36.0 (20140111.2315)
 -->
<!-- Title: global/src/ChasteSyscalls.hpp Pages: 1 -->
<svg width="156pt" height="84pt"
 viewBox="0.00 0.00 156.00 84.00" xmlns="http://www.w3.org/2000/svg" xmlns:xlink="http://www.w3.org/1999/xlink">
<g id="graph0" class="graph" transform="scale(1 1) rotate(0) translate(4 80)">
<title>global/src/ChasteSyscalls.hpp</title>
<polygon fill="white" stroke="none" points="-4,4 -4,-80 152,-80 152,4 -4,4"/>
<!-- Node1 -->
<g id="node1" class="node"><title>Node1</title>
<polygon fill="#bfbfbf" stroke="black" points="-0.5,-56.5 -0.5,-75.5 148.5,-75.5 148.5,-56.5 -0.5,-56.5"/>
<text text-anchor="middle" x="74" y="-63.5" font-family="Helvetica,sans-Serif" font-size="10.00">global/src/ChasteSyscalls.hpp</text>
</g>
<!-- Node2 -->
<g id="node2" class="node"><title>Node2</title>
<polygon fill="white" stroke="#bfbfbf" points="11.5,-0.5 11.5,-19.5 62.5,-19.5 62.5,-0.5 11.5,-0.5"/>
<text text-anchor="middle" x="37" y="-7.5" font-family="Helvetica,sans-Serif" font-size="10.00">unistd.h</text>
</g>
<!-- Node1&#45;&gt;Node2 -->
<g id="edge1" class="edge"><title>Node1&#45;&gt;Node2</title>
<path fill="none" stroke="midnightblue" d="M67.8902,-56.083C62.7178,-48.5341 55.1539,-37.4948 48.8056,-28.2298"/>
<polygon fill="midnightblue" stroke="midnightblue" points="51.5357,-26.0221 42.9961,-19.7511 45.7612,-29.9787 51.5357,-26.0221"/>
</g>
<!-- Node3 -->
<g id="node3" class="node"><title>Node3</title>
<polygon fill="white" stroke="#bfbfbf" points="81,-0.5 81,-19.5 141,-19.5 141,-0.5 81,-0.5"/>
<text text-anchor="middle" x="111" y="-7.5" font-family="Helvetica,sans-Serif" font-size="10.00">sys/stat.h</text>
</g>
<!-- Node1&#45;&gt;Node3 -->
<g id="edge2" class="edge"><title>Node1&#45;&gt;Node3</title>
<path fill="none" stroke="midnightblue" d="M80.1098,-56.083C85.2822,-48.5341 92.8461,-37.4948 99.1944,-28.2298"/>
<polygon fill="midnightblue" stroke="midnightblue" points="102.239,-29.9787 105.004,-19.7511 96.4643,-26.0221 102.239,-29.9787"/>
</g>
</g>
</svg>
