<?xml version="1.0" encoding="UTF-8" standalone="no"?>
<!DOCTYPE svg PUBLIC "-//W3C//DTD SVG 1.1//EN"
 "http://www.w3.org/Graphics/SVG/1.1/DTD/svg11.dtd">
<!-- Generated by graphviz version 2.36.0 (20140111.2315)
 -->
<!-- Title: CellDataItemWriter&lt; ELEMENT_DIM, SPACE_DIM &gt; Pages: 1 -->
<svg width="768pt" height="694pt"
 viewBox="0.00 0.00 768.00 694.00" xmlns="http://www.w3.org/2000/svg" xmlns:xlink="http://www.w3.org/1999/xlink">
<g id="graph0" class="graph" transform="scale(1 1) rotate(0) translate(4 690)">
<title>CellDataItemWriter&lt; ELEMENT_DIM, SPACE_DIM &gt;</title>
<polygon fill="white" stroke="none" points="-4,4 -4,-690 764,-690 764,4 -4,4"/>
<!-- Node1 -->
<g id="node1" class="node"><title>Node1</title>
<polygon fill="#bfbfbf" stroke="black" points="477,-1 477,-113 647,-113 647,-1 477,-1"/>
<text text-anchor="start" x="485" y="-101" font-family="Helvetica,sans-Serif" font-size="10.00">CellDataItemWriter</text>
<text text-anchor="middle" x="562" y="-90" font-family="Helvetica,sans-Serif" font-size="10.00">&lt; ELEMENT_DIM, SPACE_DIM &gt;</text>
<polyline fill="none" stroke="black" points="477,-83 647,-83 "/>
<text text-anchor="middle" x="562" y="-71" font-family="Helvetica,sans-Serif" font-size="10.00"> </text>
<polyline fill="none" stroke="black" points="477,-64 647,-64 "/>
<text text-anchor="start" x="485" y="-52" font-family="Helvetica,sans-Serif" font-size="10.00">+ CellDataItemWriter()</text>
<text text-anchor="start" x="485" y="-41" font-family="Helvetica,sans-Serif" font-size="10.00">+ GetCellDataForVtkOutput()</text>
<text text-anchor="start" x="485" y="-30" font-family="Helvetica,sans-Serif" font-size="10.00">+ VisitCell()</text>
<text text-anchor="start" x="485" y="-19" font-family="Helvetica,sans-Serif" font-size="10.00">+ GetCellDataVariableName()</text>
<text text-anchor="start" x="485" y="-8" font-family="Helvetica,sans-Serif" font-size="10.00">&#45; serialize()</text>
</g>
<!-- Node2 -->
<g id="node2" class="node"><title>Node2</title>
<g id="a_node2"><a xlink:href="classAbstractCellWriter.html" target="_top" xlink:title="{AbstractCellWriter\l\&lt; ELEMENT_DIM, SPACE_DIM \&gt;\n||+ AbstractCellWriter()\l+ GetCellDataForVtkOutput()\l+ GetVectorCellDataForVtkOutput()\l+ VisitCell()\l+ GetOutputScalarData()\l+ GetOutputVectorData()\l+ SetVtkCellDataName()\l+ SetVtkVectorCellDataName()\l+ GetVtkCellDataName()\l+ GetVtkVectorCellDataName()\l&#45; serialize()\l}">
<polygon fill="white" stroke="black" points="370.5,-153 370.5,-331 543.5,-331 543.5,-153 370.5,-153"/>
<text text-anchor="start" x="378.5" y="-319" font-family="Helvetica,sans-Serif" font-size="10.00">AbstractCellWriter</text>
<text text-anchor="middle" x="457" y="-308" font-family="Helvetica,sans-Serif" font-size="10.00">&lt; ELEMENT_DIM, SPACE_DIM &gt;</text>
<polyline fill="none" stroke="black" points="370.5,-301 543.5,-301 "/>
<text text-anchor="middle" x="457" y="-289" font-family="Helvetica,sans-Serif" font-size="10.00"> </text>
<polyline fill="none" stroke="black" points="370.5,-282 543.5,-282 "/>
<text text-anchor="start" x="378.5" y="-270" font-family="Helvetica,sans-Serif" font-size="10.00">+ AbstractCellWriter()</text>
<text text-anchor="start" x="378.5" y="-259" font-family="Helvetica,sans-Serif" font-size="10.00">+ GetCellDataForVtkOutput()</text>
<text text-anchor="start" x="378.5" y="-248" font-family="Helvetica,sans-Serif" font-size="10.00">+ GetVectorCellDataForVtkOutput()</text>
<text text-anchor="start" x="378.5" y="-237" font-family="Helvetica,sans-Serif" font-size="10.00">+ VisitCell()</text>
<text text-anchor="start" x="378.5" y="-226" font-family="Helvetica,sans-Serif" font-size="10.00">+ GetOutputScalarData()</text>
<text text-anchor="start" x="378.5" y="-215" font-family="Helvetica,sans-Serif" font-size="10.00">+ GetOutputVectorData()</text>
<text text-anchor="start" x="378.5" y="-204" font-family="Helvetica,sans-Serif" font-size="10.00">+ SetVtkCellDataName()</text>
<text text-anchor="start" x="378.5" y="-193" font-family="Helvetica,sans-Serif" font-size="10.00">+ SetVtkVectorCellDataName()</text>
<text text-anchor="start" x="378.5" y="-182" font-family="Helvetica,sans-Serif" font-size="10.00">+ GetVtkCellDataName()</text>
<text text-anchor="start" x="378.5" y="-171" font-family="Helvetica,sans-Serif" font-size="10.00">+ GetVtkVectorCellDataName()</text>
<text text-anchor="start" x="378.5" y="-160" font-family="Helvetica,sans-Serif" font-size="10.00">&#45; serialize()</text>
</a>
</g>
</g>
<!-- Node2&#45;&gt;Node1 -->
<g id="edge1" class="edge"><title>Node2&#45;&gt;Node1</title>
<path fill="none" stroke="midnightblue" d="M512.605,-144.089C518.674,-133.511 524.688,-123.03 530.32,-113.214"/>
<polygon fill="none" stroke="midnightblue" points="509.442,-142.569 507.501,-152.984 515.513,-146.052 509.442,-142.569"/>
</g>
<!-- Node3 -->
<g id="node3" class="node"><title>Node3</title>
<g id="a_node3"><a xlink:href="classAbstractCellBasedWriter.html" target="_top" xlink:title="{AbstractCellBasedWriter\l\&lt; ELEMENT_DIM, SPACE_DIM \&gt;\n||+ AbstractCellBasedWriter()\l+ ~AbstractCellBasedWriter()\l+ CloseFile()\l+ OpenOutputFile()\l+ OpenOutputFileForAppend()\l+ WriteTimeStamp()\l+ WriteNewline()\l+ SetFileName()\l+ GetFileName()\l&#45; serialize()\l}">
<polygon fill="white" stroke="black" points="184,-390.5 184,-557.5 354,-557.5 354,-390.5 184,-390.5"/>
<text text-anchor="start" x="192" y="-545.5" font-family="Helvetica,sans-Serif" font-size="10.00">AbstractCellBasedWriter</text>
<text text-anchor="middle" x="269" y="-534.5" font-family="Helvetica,sans-Serif" font-size="10.00">&lt; ELEMENT_DIM, SPACE_DIM &gt;</text>
<polyline fill="none" stroke="black" points="184,-527.5 354,-527.5 "/>
<text text-anchor="middle" x="269" y="-515.5" font-family="Helvetica,sans-Serif" font-size="10.00"> </text>
<polyline fill="none" stroke="black" points="184,-508.5 354,-508.5 "/>
<text text-anchor="start" x="192" y="-496.5" font-family="Helvetica,sans-Serif" font-size="10.00">+ AbstractCellBasedWriter()</text>
<text text-anchor="start" x="192" y="-485.5" font-family="Helvetica,sans-Serif" font-size="10.00">+ ~AbstractCellBasedWriter()</text>
<text text-anchor="start" x="192" y="-474.5" font-family="Helvetica,sans-Serif" font-size="10.00">+ CloseFile()</text>
<text text-anchor="start" x="192" y="-463.5" font-family="Helvetica,sans-Serif" font-size="10.00">+ OpenOutputFile()</text>
<text text-anchor="start" x="192" y="-452.5" font-family="Helvetica,sans-Serif" font-size="10.00">+ OpenOutputFileForAppend()</text>
<text text-anchor="start" x="192" y="-441.5" font-family="Helvetica,sans-Serif" font-size="10.00">+ WriteTimeStamp()</text>
<text text-anchor="start" x="192" y="-430.5" font-family="Helvetica,sans-Serif" font-size="10.00">+ WriteNewline()</text>
<text text-anchor="start" x="192" y="-419.5" font-family="Helvetica,sans-Serif" font-size="10.00">+ SetFileName()</text>
<text text-anchor="start" x="192" y="-408.5" font-family="Helvetica,sans-Serif" font-size="10.00">+ GetFileName()</text>
<text text-anchor="start" x="192" y="-397.5" font-family="Helvetica,sans-Serif" font-size="10.00">&#45; serialize()</text>
</a>
</g>
</g>
<!-- Node3&#45;&gt;Node2 -->
<g id="edge2" class="edge"><title>Node3&#45;&gt;Node2</title>
<path fill="none" stroke="midnightblue" d="M343.282,-382.123C356.986,-365.358 371.275,-347.876 384.913,-331.191"/>
<polygon fill="none" stroke="midnightblue" points="340.226,-380.332 336.607,-390.29 345.645,-384.762 340.226,-380.332"/>
</g>
<!-- Node4 -->
<g id="node4" class="node"><title>Node4</title>
<g id="a_node4"><a xlink:href="classIdentifiable.html" target="_top" xlink:title="{Identifiable\n||+ ~Identifiable()\l+ GetIdentifier()\l&#45; TidyTemplatedExportIdentifier()\l}">
<polygon fill="white" stroke="black" points="-0.5,-606.5 -0.5,-685.5 158.5,-685.5 158.5,-606.5 -0.5,-606.5"/>
<text text-anchor="middle" x="79" y="-673.5" font-family="Helvetica,sans-Serif" font-size="10.00">Identifiable</text>
<polyline fill="none" stroke="black" points="-0.5,-666.5 158.5,-666.5 "/>
<text text-anchor="middle" x="79" y="-654.5" font-family="Helvetica,sans-Serif" font-size="10.00"> </text>
<polyline fill="none" stroke="black" points="-0.5,-647.5 158.5,-647.5 "/>
<text text-anchor="start" x="7.5" y="-635.5" font-family="Helvetica,sans-Serif" font-size="10.00">+ ~Identifiable()</text>
<text text-anchor="start" x="7.5" y="-624.5" font-family="Helvetica,sans-Serif" font-size="10.00">+ GetIdentifier()</text>
<text text-anchor="start" x="7.5" y="-613.5" font-family="Helvetica,sans-Serif" font-size="10.00">&#45; TidyTemplatedExportIdentifier()</text>
</a>
</g>
</g>
<!-- Node4&#45;&gt;Node3 -->
<g id="edge3" class="edge"><title>Node4&#45;&gt;Node3</title>
<path fill="none" stroke="midnightblue" d="M129.585,-599.74C146.226,-584.85 165.214,-567.861 183.707,-551.315"/>
<polygon fill="none" stroke="midnightblue" points="127.233,-597.148 122.114,-606.424 131.9,-602.365 127.233,-597.148"/>
</g>
<!-- Node5 -->
<g id="node5" class="node"><title>Node5</title>
<polygon fill="white" stroke="#bfbfbf" points="392.5,-617.5 392.5,-674.5 433.5,-674.5 433.5,-617.5 392.5,-617.5"/>
<text text-anchor="middle" x="413" y="-662.5" font-family="Helvetica,sans-Serif" font-size="10.00">string</text>
<polyline fill="none" stroke="#bfbfbf" points="392.5,-655.5 433.5,-655.5 "/>
<text text-anchor="middle" x="413" y="-643.5" font-family="Helvetica,sans-Serif" font-size="10.00"> </text>
<polyline fill="none" stroke="#bfbfbf" points="392.5,-636.5 433.5,-636.5 "/>
<text text-anchor="middle" x="413" y="-624.5" font-family="Helvetica,sans-Serif" font-size="10.00"> </text>
</g>
<!-- Node5&#45;&gt;Node1 -->
<g id="edge8" class="edge"><title>Node5&#45;&gt;Node1</title>
<path fill="none" stroke="#404040" d="M433.708,-642.516C474.064,-636.434 562.554,-616.721 600,-558 685.521,-423.889 629.612,-226.522 590.59,-124.504"/>
<polygon fill="none" stroke="#404040" points="590.519,-124.324 584.614,-120.186 586.162,-113.143 592.068,-117.281 590.519,-124.324"/>
<text text-anchor="middle" x="702.5" y="-358.5" font-family="Helvetica,sans-Serif" font-size="10.00"> &#45;mCellDataVariableName</text>
</g>
<!-- Node5&#45;&gt;Node2 -->
<g id="edge6" class="edge"><title>Node5&#45;&gt;Node2</title>
<path fill="none" stroke="#404040" d="M412.188,-617.302C411.209,-570.316 410.891,-472.09 422,-390 424.075,-374.67 427.051,-358.602 430.403,-342.951"/>
<polygon fill="none" stroke="#404040" points="430.436,-342.798 427.828,-336.075 433.03,-331.082 435.639,-337.805 430.436,-342.798"/>
<text text-anchor="middle" x="484.5" y="-477" font-family="Helvetica,sans-Serif" font-size="10.00"> #mVtkVectorCellDataName</text>
<text text-anchor="middle" x="484.5" y="-466" font-family="Helvetica,sans-Serif" font-size="10.00">#mVtkCellDataName</text>
</g>
<!-- Node5&#45;&gt;Node3 -->
<g id="edge4" class="edge"><title>Node5&#45;&gt;Node3</title>
<path fill="none" stroke="#404040" d="M392.218,-631.684C376.675,-621.073 355.517,-605.186 340,-588 334.236,-581.616 328.65,-574.707 323.312,-567.559"/>
<polygon fill="none" stroke="#404040" points="323.215,-567.424 316.461,-564.898 316.194,-557.692 322.949,-560.218 323.215,-567.424"/>
<text text-anchor="middle" x="369.5" y="-579.5" font-family="Helvetica,sans-Serif" font-size="10.00"> #mFileName</text>
</g>
<!-- Node6 -->
<g id="node6" class="node"><title>Node6</title>
<polygon fill="white" stroke="#bfbfbf" points="177,-617.5 177,-674.5 315,-674.5 315,-617.5 177,-617.5"/>
<text text-anchor="middle" x="246" y="-662.5" font-family="Helvetica,sans-Serif" font-size="10.00">shared_ptr&lt; std::ofstream &gt;</text>
<polyline fill="none" stroke="#bfbfbf" points="177,-655.5 315,-655.5 "/>
<text text-anchor="middle" x="246" y="-643.5" font-family="Helvetica,sans-Serif" font-size="10.00"> </text>
<polyline fill="none" stroke="#bfbfbf" points="177,-636.5 315,-636.5 "/>
<text text-anchor="middle" x="246" y="-624.5" font-family="Helvetica,sans-Serif" font-size="10.00"> </text>
</g>
<!-- Node6&#45;&gt;Node3 -->
<g id="edge5" class="edge"><title>Node6&#45;&gt;Node3</title>
<path fill="none" stroke="#404040" d="M245.142,-617.386C245.071,-604.735 245.44,-589.568 247,-576 247.236,-573.947 247.495,-571.874 247.775,-569.788"/>
<polygon fill="none" stroke="#404040" points="247.804,-569.596 244.741,-563.068 249.588,-557.729 252.652,-564.257 247.804,-569.596"/>
<text text-anchor="middle" x="282" y="-579.5" font-family="Helvetica,sans-Serif" font-size="10.00"> #mpOutStream</text>
</g>
<!-- Node7 -->
<g id="node7" class="node"><title>Node7</title>
<g id="a_node7"><a xlink:href="classbool.html" target="_top" xlink:title="{bool\n||}">
<polygon fill="white" stroke="black" points="556.5,-445.5 556.5,-502.5 591.5,-502.5 591.5,-445.5 556.5,-445.5"/>
<text text-anchor="middle" x="574" y="-490.5" font-family="Helvetica,sans-Serif" font-size="10.00">bool</text>
<polyline fill="none" stroke="black" points="556.5,-483.5 591.5,-483.5 "/>
<text text-anchor="middle" x="574" y="-471.5" font-family="Helvetica,sans-Serif" font-size="10.00"> </text>
<polyline fill="none" stroke="black" points="556.5,-464.5 591.5,-464.5 "/>
<text text-anchor="middle" x="574" y="-452.5" font-family="Helvetica,sans-Serif" font-size="10.00"> </text>
</a>
</g>
</g>
<!-- Node7&#45;&gt;Node2 -->
<g id="edge7" class="edge"><title>Node7&#45;&gt;Node2</title>
<path fill="none" stroke="#404040" d="M569.016,-445.44C564.567,-427.725 556.439,-405.253 542,-390 528.598,-375.842 515.171,-386.373 502,-372 494.008,-363.278 487.421,-353.058 481.997,-342.255"/>
<polygon fill="none" stroke="#404040" points="481.968,-342.193 475.825,-338.415 476.95,-331.292 483.093,-335.07 481.968,-342.193"/>
<text text-anchor="middle" x="550" y="-364" font-family="Helvetica,sans-Serif" font-size="10.00"> #mOutputVectorData</text>
<text text-anchor="middle" x="550" y="-353" font-family="Helvetica,sans-Serif" font-size="10.00">#mOutputScalarData</text>
</g>
</g>
</svg>
