<?xml version="1.0" encoding="UTF-8" standalone="no"?>
<!DOCTYPE svg PUBLIC "-//W3C//DTD SVG 1.1//EN"
 "http://www.w3.org/Graphics/SVG/1.1/DTD/svg11.dtd">
<!-- Generated by graphviz version 2.36.0 (20140111.2315)
 -->
<!-- Title: ColumnDataReader Pages: 1 -->
<svg width="1003pt" height="326pt"
 viewBox="0.00 0.00 1003.00 326.00" xmlns="http://www.w3.org/2000/svg" xmlns:xlink="http://www.w3.org/1999/xlink">
<g id="graph0" class="graph" transform="scale(1 1) rotate(0) translate(4 322)">
<title>ColumnDataReader</title>
<polygon fill="white" stroke="none" points="-4,4 -4,-322 999,-322 999,4 -4,4"/>
<!-- Node1 -->
<g id="node1" class="node"><title>Node1</title>
<polygon fill="#bfbfbf" stroke="black" points="401.5,-0.5 401.5,-167.5 566.5,-167.5 566.5,-0.5 401.5,-0.5"/>
<text text-anchor="middle" x="484" y="-155.5" font-family="Helvetica,sans-Serif" font-size="10.00">ColumnDataReader</text>
<polyline fill="none" stroke="black" points="401.5,-148.5 566.5,-148.5 "/>
<text text-anchor="middle" x="484" y="-136.5" font-family="Helvetica,sans-Serif" font-size="10.00"> </text>
<polyline fill="none" stroke="black" points="401.5,-129.5 566.5,-129.5 "/>
<text text-anchor="start" x="409.5" y="-117.5" font-family="Helvetica,sans-Serif" font-size="10.00">+ ColumnDataReader()</text>
<text text-anchor="start" x="409.5" y="-106.5" font-family="Helvetica,sans-Serif" font-size="10.00">+ ColumnDataReader()</text>
<text text-anchor="start" x="409.5" y="-95.5" font-family="Helvetica,sans-Serif" font-size="10.00">+ GetValues()</text>
<text text-anchor="start" x="409.5" y="-84.5" font-family="Helvetica,sans-Serif" font-size="10.00">+ GetValues()</text>
<text text-anchor="start" x="409.5" y="-73.5" font-family="Helvetica,sans-Serif" font-size="10.00">+ GetUnlimitedDimensionValues()</text>
<text text-anchor="start" x="409.5" y="-62.5" font-family="Helvetica,sans-Serif" font-size="10.00">+ HasValues()</text>
<text text-anchor="start" x="409.5" y="-51.5" font-family="Helvetica,sans-Serif" font-size="10.00">+ GetFieldWidth()</text>
<text text-anchor="start" x="409.5" y="-40.5" font-family="Helvetica,sans-Serif" font-size="10.00">&#45; PushColumnEntryFromLine()</text>
<text text-anchor="start" x="409.5" y="-29.5" font-family="Helvetica,sans-Serif" font-size="10.00">&#45; ReadColumnFromFile()</text>
<text text-anchor="start" x="409.5" y="-18.5" font-family="Helvetica,sans-Serif" font-size="10.00">&#45; ReadValueFromFile()</text>
<text text-anchor="start" x="409.5" y="-7.5" font-family="Helvetica,sans-Serif" font-size="10.00">&#45; CheckFiles()</text>
</g>
<!-- Node2 -->
<g id="node2" class="node"><title>Node2</title>
<g id="a_node2"><a xlink:href="classAbstractDataReader.html" target="_top" xlink:title="{AbstractDataReader\n||+ GetValues()\l+ GetValues()\l+ ~AbstractDataReader()\l}">
<polygon fill="white" stroke="black" points="-0.5,-238.5 -0.5,-317.5 126.5,-317.5 126.5,-238.5 -0.5,-238.5"/>
<text text-anchor="middle" x="63" y="-305.5" font-family="Helvetica,sans-Serif" font-size="10.00">AbstractDataReader</text>
<polyline fill="none" stroke="black" points="-0.5,-298.5 126.5,-298.5 "/>
<text text-anchor="middle" x="63" y="-286.5" font-family="Helvetica,sans-Serif" font-size="10.00"> </text>
<polyline fill="none" stroke="black" points="-0.5,-279.5 126.5,-279.5 "/>
<text text-anchor="start" x="7.5" y="-267.5" font-family="Helvetica,sans-Serif" font-size="10.00">+ GetValues()</text>
<text text-anchor="start" x="7.5" y="-256.5" font-family="Helvetica,sans-Serif" font-size="10.00">+ GetValues()</text>
<text text-anchor="start" x="7.5" y="-245.5" font-family="Helvetica,sans-Serif" font-size="10.00">+ ~AbstractDataReader()</text>
</a>
</g>
</g>
<!-- Node2&#45;&gt;Node1 -->
<g id="edge1" class="edge"><title>Node2&#45;&gt;Node1</title>
<path fill="none" stroke="midnightblue" d="M135.469,-233.76C163.332,-217.877 195.72,-200.298 226,-186 283.415,-158.889 350.215,-132.883 401.457,-114.051"/>
<polygon fill="none" stroke="midnightblue" points="133.524,-230.841 126.59,-238.851 137.006,-236.914 133.524,-230.841"/>
</g>
<!-- Node3 -->
<g id="node3" class="node"><title>Node3</title>
<polygon fill="white" stroke="#bfbfbf" points="145,-249.5 145,-306.5 235,-306.5 235,-249.5 145,-249.5"/>
<text text-anchor="middle" x="190" y="-294.5" font-family="Helvetica,sans-Serif" font-size="10.00">vector&lt; double &gt;</text>
<polyline fill="none" stroke="#bfbfbf" points="145,-287.5 235,-287.5 "/>
<text text-anchor="middle" x="190" y="-275.5" font-family="Helvetica,sans-Serif" font-size="10.00"> </text>
<polyline fill="none" stroke="#bfbfbf" points="145,-268.5 235,-268.5 "/>
<text text-anchor="middle" x="190" y="-256.5" font-family="Helvetica,sans-Serif" font-size="10.00"> </text>
</g>
<!-- Node3&#45;&gt;Node1 -->
<g id="edge2" class="edge"><title>Node3&#45;&gt;Node1</title>
<path fill="none" stroke="#404040" d="M207.037,-249.448C220.331,-229.738 240.309,-203.672 263,-186 300.804,-156.558 348.568,-133.359 390.012,-116.659"/>
<polygon fill="none" stroke="#404040" points="390.076,-116.634 394.19,-110.711 401.239,-112.23 397.126,-118.153 390.076,-116.634"/>
<text text-anchor="middle" x="285.5" y="-200.5" font-family="Helvetica,sans-Serif" font-size="10.00"> &#45;mValues</text>
</g>
<!-- Node4 -->
<g id="node4" class="node"><title>Node4</title>
<polygon fill="white" stroke="#bfbfbf" points="253.5,-244 253.5,-312 360.5,-312 360.5,-244 253.5,-244"/>
<text text-anchor="start" x="261.5" y="-300" font-family="Helvetica,sans-Serif" font-size="10.00">map&lt; std::string, std</text>
<text text-anchor="middle" x="307" y="-289" font-family="Helvetica,sans-Serif" font-size="10.00">::string &gt;</text>
<polyline fill="none" stroke="#bfbfbf" points="253.5,-282 360.5,-282 "/>
<text text-anchor="middle" x="307" y="-270" font-family="Helvetica,sans-Serif" font-size="10.00"> </text>
<polyline fill="none" stroke="#bfbfbf" points="253.5,-263 360.5,-263 "/>
<text text-anchor="middle" x="307" y="-251" font-family="Helvetica,sans-Serif" font-size="10.00"> </text>
</g>
<!-- Node4&#45;&gt;Node1 -->
<g id="edge3" class="edge"><title>Node4&#45;&gt;Node1</title>
<path fill="none" stroke="#404040" d="M307.307,-243.825C308.93,-225.407 313.45,-202.88 325,-186 341.563,-161.794 366.036,-142.152 390.844,-126.847"/>
<polygon fill="none" stroke="#404040" points="391.149,-126.667 394.273,-120.168 401.474,-120.553 398.349,-127.052 391.149,-126.667"/>
<text text-anchor="middle" x="370" y="-200.5" font-family="Helvetica,sans-Serif" font-size="10.00"> &#45;mVariablesToUnits</text>
</g>
<!-- Node5 -->
<g id="node5" class="node"><title>Node5</title>
<polygon fill="white" stroke="#bfbfbf" points="378.5,-249.5 378.5,-306.5 491.5,-306.5 491.5,-249.5 378.5,-249.5"/>
<text text-anchor="middle" x="435" y="-294.5" font-family="Helvetica,sans-Serif" font-size="10.00">map&lt; std::string, int &gt;</text>
<polyline fill="none" stroke="#bfbfbf" points="378.5,-287.5 491.5,-287.5 "/>
<text text-anchor="middle" x="435" y="-275.5" font-family="Helvetica,sans-Serif" font-size="10.00"> </text>
<polyline fill="none" stroke="#bfbfbf" points="378.5,-268.5 491.5,-268.5 "/>
<text text-anchor="middle" x="435" y="-256.5" font-family="Helvetica,sans-Serif" font-size="10.00"> </text>
</g>
<!-- Node5&#45;&gt;Node1 -->
<g id="edge4" class="edge"><title>Node5&#45;&gt;Node1</title>
<path fill="none" stroke="#404040" d="M424.593,-249.133C419.278,-230.917 415.06,-206.745 421,-186 421.661,-183.69 422.392,-181.382 423.186,-179.08"/>
<polygon fill="none" stroke="#404040" points="423.284,-178.826 421.731,-171.784 427.634,-167.642 429.187,-174.684 423.284,-178.826"/>
<text text-anchor="middle" x="474" y="-200.5" font-family="Helvetica,sans-Serif" font-size="10.00"> &#45;mVariablesToColumns</text>
</g>
<!-- Node6 -->
<g id="node6" class="node"><title>Node6</title>
<polygon fill="white" stroke="#bfbfbf" points="534.5,-249.5 534.5,-306.5 563.5,-306.5 563.5,-249.5 534.5,-249.5"/>
<text text-anchor="middle" x="549" y="-294.5" font-family="Helvetica,sans-Serif" font-size="10.00">int</text>
<polyline fill="none" stroke="#bfbfbf" points="534.5,-287.5 563.5,-287.5 "/>
<text text-anchor="middle" x="549" y="-275.5" font-family="Helvetica,sans-Serif" font-size="10.00"> </text>
<polyline fill="none" stroke="#bfbfbf" points="534.5,-268.5 563.5,-268.5 "/>
<text text-anchor="middle" x="549" y="-256.5" font-family="Helvetica,sans-Serif" font-size="10.00"> </text>
</g>
<!-- Node6&#45;&gt;Node1 -->
<g id="edge5" class="edge"><title>Node6&#45;&gt;Node1</title>
<path fill="none" stroke="#404040" d="M543.525,-249.189C539.64,-230.997 533.899,-206.83 527,-186 526.216,-183.633 525.4,-181.243 524.556,-178.841"/>
<polygon fill="none" stroke="#404040" points="524.543,-178.804 518.731,-174.536 520.434,-167.53 526.247,-171.797 524.543,-178.804"/>
<text text-anchor="middle" x="593" y="-206" font-family="Helvetica,sans-Serif" font-size="10.00"> &#45;mNumFixedDimensions</text>
<text text-anchor="middle" x="593" y="-195" font-family="Helvetica,sans-Serif" font-size="10.00">&#45;mNumVariables</text>
</g>
<!-- Node7 -->
<g id="node7" class="node"><title>Node7</title>
<polygon fill="white" stroke="#bfbfbf" points="663.5,-249.5 663.5,-306.5 704.5,-306.5 704.5,-249.5 663.5,-249.5"/>
<text text-anchor="middle" x="684" y="-294.5" font-family="Helvetica,sans-Serif" font-size="10.00">string</text>
<polyline fill="none" stroke="#bfbfbf" points="663.5,-287.5 704.5,-287.5 "/>
<text text-anchor="middle" x="684" y="-275.5" font-family="Helvetica,sans-Serif" font-size="10.00"> </text>
<polyline fill="none" stroke="#bfbfbf" points="663.5,-268.5 704.5,-268.5 "/>
<text text-anchor="middle" x="684" y="-256.5" font-family="Helvetica,sans-Serif" font-size="10.00"> </text>
</g>
<!-- Node7&#45;&gt;Node1 -->
<g id="edge6" class="edge"><title>Node7&#45;&gt;Node1</title>
<path fill="none" stroke="#404040" d="M679.814,-249.484C675.702,-230.043 667.802,-204.295 653,-186 632.882,-161.133 604.89,-140.951 577.469,-125.35"/>
<polygon fill="none" stroke="#404040" points="577.117,-125.157 569.932,-125.774 566.599,-119.38 573.784,-118.762 577.117,-125.157"/>
<text text-anchor="middle" x="717" y="-211.5" font-family="Helvetica,sans-Serif" font-size="10.00"> &#45;mAncillaryFilename</text>
<text text-anchor="middle" x="717" y="-200.5" font-family="Helvetica,sans-Serif" font-size="10.00">&#45;mInfoFilename</text>
<text text-anchor="middle" x="717" y="-189.5" font-family="Helvetica,sans-Serif" font-size="10.00">&#45;mDataFilename</text>
</g>
<!-- Node8 -->
<g id="node8" class="node"><title>Node8</title>
<g id="a_node8"><a xlink:href="classbool.html" target="_top" xlink:title="{bool\n||}">
<polygon fill="white" stroke="black" points="781.5,-249.5 781.5,-306.5 816.5,-306.5 816.5,-249.5 781.5,-249.5"/>
<text text-anchor="middle" x="799" y="-294.5" font-family="Helvetica,sans-Serif" font-size="10.00">bool</text>
<polyline fill="none" stroke="black" points="781.5,-287.5 816.5,-287.5 "/>
<text text-anchor="middle" x="799" y="-275.5" font-family="Helvetica,sans-Serif" font-size="10.00"> </text>
<polyline fill="none" stroke="black" points="781.5,-268.5 816.5,-268.5 "/>
<text text-anchor="middle" x="799" y="-256.5" font-family="Helvetica,sans-Serif" font-size="10.00"> </text>
</a>
</g>
</g>
<!-- Node8&#45;&gt;Node1 -->
<g id="edge7" class="edge"><title>Node8&#45;&gt;Node1</title>
<path fill="none" stroke="#404040" d="M795.675,-249.383C791.899,-229.379 783.894,-202.973 767,-186 716.8,-135.566 639.749,-110.203 578.714,-97.5118"/>
<polygon fill="none" stroke="#404040" points="578.504,-97.4704 571.841,-100.229 566.733,-95.139 573.396,-92.3809 578.504,-97.4704"/>
<text text-anchor="middle" x="848.5" y="-200.5" font-family="Helvetica,sans-Serif" font-size="10.00"> &#45;mHasUnlimitedDimension</text>
</g>
<!-- Node9 -->
<g id="node9" class="node"><title>Node9</title>
<g id="a_node9"><a xlink:href="classunsigned.html" target="_top" xlink:title="{unsigned\n||}">
<polygon fill="white" stroke="black" points="915,-249.5 915,-306.5 971,-306.5 971,-249.5 915,-249.5"/>
<text text-anchor="middle" x="943" y="-294.5" font-family="Helvetica,sans-Serif" font-size="10.00">unsigned</text>
<polyline fill="none" stroke="black" points="915,-287.5 971,-287.5 "/>
<text text-anchor="middle" x="943" y="-275.5" font-family="Helvetica,sans-Serif" font-size="10.00"> </text>
<polyline fill="none" stroke="black" points="915,-268.5 971,-268.5 "/>
<text text-anchor="middle" x="943" y="-256.5" font-family="Helvetica,sans-Serif" font-size="10.00"> </text>
</a>
</g>
</g>
<!-- Node9&#45;&gt;Node1 -->
<g id="edge8" class="edge"><title>Node9&#45;&gt;Node1</title>
<path fill="none" stroke="#404040" d="M940.939,-249.28C937.945,-228.954 930.661,-202.184 913,-186 864.811,-141.841 689.875,-111.64 578.827,-96.4333"/>
<polygon fill="none" stroke="#404040" points="578.51,-96.3906 572.029,-99.5526 566.618,-94.7864 573.099,-91.6244 578.51,-96.3906"/>
<text text-anchor="middle" x="964.5" y="-200.5" font-family="Helvetica,sans-Serif" font-size="10.00"> &#45;mFieldWidth</text>
</g>
</g>
</svg>
