<?xml version="1.0" encoding="UTF-8" standalone="no"?>
<!DOCTYPE svg PUBLIC "-//W3C//DTD SVG 1.1//EN"
 "http://www.w3.org/Graphics/SVG/1.1/DTD/svg11.dtd">
<!-- Generated by graphviz version 2.36.0 (20140111.2315)
 -->
<!-- Title: AbstractOdeSystem Pages: 1 -->
<svg width="430pt" height="1106pt"
 viewBox="0.00 0.00 430.00 1106.00" xmlns="http://www.w3.org/2000/svg" xmlns:xlink="http://www.w3.org/1999/xlink">
<g id="graph0" class="graph" transform="scale(1 1) rotate(0) translate(4 1102)">
<title>AbstractOdeSystem</title>
<polygon fill="white" stroke="none" points="-4,4 -4,-1102 426,-1102 426,4 -4,4"/>
<!-- Node1 -->
<g id="node1" class="node"><title>Node1</title>
<polygon fill="#bfbfbf" stroke="black" points="230,-0.5 230,-145.5 370,-145.5 370,-0.5 230,-0.5"/>
<text text-anchor="middle" x="300" y="-133.5" font-family="Helvetica,sans-Serif" font-size="10.00">AbstractOdeSystem</text>
<polyline fill="none" stroke="black" points="230,-126.5 370,-126.5 "/>
<text text-anchor="middle" x="300" y="-114.5" font-family="Helvetica,sans-Serif" font-size="10.00"> </text>
<polyline fill="none" stroke="black" points="230,-107.5 370,-107.5 "/>
<text text-anchor="start" x="238" y="-95.5" font-family="Helvetica,sans-Serif" font-size="10.00">+ AbstractOdeSystem()</text>
<text text-anchor="start" x="238" y="-84.5" font-family="Helvetica,sans-Serif" font-size="10.00">+ ~AbstractOdeSystem()</text>
<text text-anchor="start" x="238" y="-73.5" font-family="Helvetica,sans-Serif" font-size="10.00">+ EvaluateYDerivatives()</text>
<text text-anchor="start" x="238" y="-62.5" font-family="Helvetica,sans-Serif" font-size="10.00">+ CalculateStoppingEvent()</text>
<text text-anchor="start" x="238" y="-51.5" font-family="Helvetica,sans-Serif" font-size="10.00">+ CalculateRootFunction()</text>
<text text-anchor="start" x="238" y="-40.5" font-family="Helvetica,sans-Serif" font-size="10.00">+ GetUseAnalyticJacobian()</text>
<text text-anchor="start" x="238" y="-29.5" font-family="Helvetica,sans-Serif" font-size="10.00">+ rGetConstStateVariables()</text>
<text text-anchor="start" x="238" y="-18.5" font-family="Helvetica,sans-Serif" font-size="10.00">&#45; save()</text>
<text text-anchor="start" x="238" y="-7.5" font-family="Helvetica,sans-Serif" font-size="10.00">&#45; load()</text>
</g>
<!-- Node2 -->
<g id="node2" class="node"><title>Node2</title>
<g id="a_node2"><a xlink:href="classAbstractParameterisedSystem.html" target="_top" xlink:title="{AbstractParameterisedSystem\l\&lt; std::vector\&lt; double \&gt; \&gt;\n||+ AbstractParameterisedSystem()\l+ rGetStateVariables()\l+ GetStateVariables()\l+ SetStateVariables()\l+ GetStateVariable()\l+ GetStateVariable()\l+ SetStateVariable()\l+ SetStateVariable()\l+ VerifyStateVariables()\l+ SetDefaultInitialConditions()\land 13 more...\l# DumpState()\l# DumpState()\l# DumpState()\l# CheckParametersOnLoad()\l&#45; GetStateMessage()\l}">
<polygon fill="white" stroke="black" points="129.5,-194.5 129.5,-427.5 294.5,-427.5 294.5,-194.5 129.5,-194.5"/>
<text text-anchor="start" x="137.5" y="-415.5" font-family="Helvetica,sans-Serif" font-size="10.00">AbstractParameterisedSystem</text>
<text text-anchor="middle" x="212" y="-404.5" font-family="Helvetica,sans-Serif" font-size="10.00">&lt; std::vector&lt; double &gt; &gt;</text>
<polyline fill="none" stroke="black" points="129.5,-397.5 294.5,-397.5 "/>
<text text-anchor="middle" x="212" y="-385.5" font-family="Helvetica,sans-Serif" font-size="10.00"> </text>
<polyline fill="none" stroke="black" points="129.5,-378.5 294.5,-378.5 "/>
<text text-anchor="start" x="137.5" y="-366.5" font-family="Helvetica,sans-Serif" font-size="10.00">+ AbstractParameterisedSystem()</text>
<text text-anchor="start" x="137.5" y="-355.5" font-family="Helvetica,sans-Serif" font-size="10.00">+ rGetStateVariables()</text>
<text text-anchor="start" x="137.5" y="-344.5" font-family="Helvetica,sans-Serif" font-size="10.00">+ GetStateVariables()</text>
<text text-anchor="start" x="137.5" y="-333.5" font-family="Helvetica,sans-Serif" font-size="10.00">+ SetStateVariables()</text>
<text text-anchor="start" x="137.5" y="-322.5" font-family="Helvetica,sans-Serif" font-size="10.00">+ GetStateVariable()</text>
<text text-anchor="start" x="137.5" y="-311.5" font-family="Helvetica,sans-Serif" font-size="10.00">+ GetStateVariable()</text>
<text text-anchor="start" x="137.5" y="-300.5" font-family="Helvetica,sans-Serif" font-size="10.00">+ SetStateVariable()</text>
<text text-anchor="start" x="137.5" y="-289.5" font-family="Helvetica,sans-Serif" font-size="10.00">+ SetStateVariable()</text>
<text text-anchor="start" x="137.5" y="-278.5" font-family="Helvetica,sans-Serif" font-size="10.00">+ VerifyStateVariables()</text>
<text text-anchor="start" x="137.5" y="-267.5" font-family="Helvetica,sans-Serif" font-size="10.00">+ SetDefaultInitialConditions()</text>
<text text-anchor="start" x="137.5" y="-256.5" font-family="Helvetica,sans-Serif" font-size="10.00">and 13 more...</text>
<text text-anchor="start" x="137.5" y="-245.5" font-family="Helvetica,sans-Serif" font-size="10.00"># DumpState()</text>
<text text-anchor="start" x="137.5" y="-234.5" font-family="Helvetica,sans-Serif" font-size="10.00"># DumpState()</text>
<text text-anchor="start" x="137.5" y="-223.5" font-family="Helvetica,sans-Serif" font-size="10.00"># DumpState()</text>
<text text-anchor="start" x="137.5" y="-212.5" font-family="Helvetica,sans-Serif" font-size="10.00"># CheckParametersOnLoad()</text>
<text text-anchor="start" x="137.5" y="-201.5" font-family="Helvetica,sans-Serif" font-size="10.00">&#45; GetStateMessage()</text>
</a>
</g>
</g>
<!-- Node2&#45;&gt;Node1 -->
<g id="edge1" class="edge"><title>Node2&#45;&gt;Node1</title>
<path fill="none" stroke="midnightblue" d="M258.72,-184.705C263.689,-171.38 268.611,-158.18 273.232,-145.788"/>
<polygon fill="none" stroke="midnightblue" points="255.312,-183.827 255.098,-194.42 261.871,-186.273 255.312,-183.827"/>
</g>
<!-- Node3 -->
<g id="node3" class="node"><title>Node3</title>
<g id="a_node3"><a xlink:href="classAbstractUntemplatedParameterisedSystem.html" target="_top" xlink:title="{AbstractUntemplatedParameterised\lSystem\n||+ AbstractUntemplatedParameterised\lSystem()\l+ ~AbstractUntemplatedParameterised\lSystem()\l+ GetSystemInformation()\l+ GetSystemName()\l+ GetNumberOfAttributes()\l+ HasAttribute()\l+ GetAttribute()\l+ GetNumberOfStateVariables()\l+ rGetStateVariableNames()\l+ rGetStateVariableUnits()\land 20 more...\l}">
<polygon fill="white" stroke="black" points="118.5,-779 118.5,-979 305.5,-979 305.5,-779 118.5,-779"/>
<text text-anchor="start" x="126.5" y="-967" font-family="Helvetica,sans-Serif" font-size="10.00">AbstractUntemplatedParameterised</text>
<text text-anchor="middle" x="212" y="-956" font-family="Helvetica,sans-Serif" font-size="10.00">System</text>
<polyline fill="none" stroke="black" points="118.5,-949 305.5,-949 "/>
<text text-anchor="middle" x="212" y="-937" font-family="Helvetica,sans-Serif" font-size="10.00"> </text>
<polyline fill="none" stroke="black" points="118.5,-930 305.5,-930 "/>
<text text-anchor="start" x="126.5" y="-918" font-family="Helvetica,sans-Serif" font-size="10.00">+ AbstractUntemplatedParameterised</text>
<text text-anchor="start" x="126.5" y="-907" font-family="Helvetica,sans-Serif" font-size="10.00">System()</text>
<text text-anchor="start" x="126.5" y="-896" font-family="Helvetica,sans-Serif" font-size="10.00">+ ~AbstractUntemplatedParameterised</text>
<text text-anchor="start" x="126.5" y="-885" font-family="Helvetica,sans-Serif" font-size="10.00">System()</text>
<text text-anchor="start" x="126.5" y="-874" font-family="Helvetica,sans-Serif" font-size="10.00">+ GetSystemInformation()</text>
<text text-anchor="start" x="126.5" y="-863" font-family="Helvetica,sans-Serif" font-size="10.00">+ GetSystemName()</text>
<text text-anchor="start" x="126.5" y="-852" font-family="Helvetica,sans-Serif" font-size="10.00">+ GetNumberOfAttributes()</text>
<text text-anchor="start" x="126.5" y="-841" font-family="Helvetica,sans-Serif" font-size="10.00">+ HasAttribute()</text>
<text text-anchor="start" x="126.5" y="-830" font-family="Helvetica,sans-Serif" font-size="10.00">+ GetAttribute()</text>
<text text-anchor="start" x="126.5" y="-819" font-family="Helvetica,sans-Serif" font-size="10.00">+ GetNumberOfStateVariables()</text>
<text text-anchor="start" x="126.5" y="-808" font-family="Helvetica,sans-Serif" font-size="10.00">+ rGetStateVariableNames()</text>
<text text-anchor="start" x="126.5" y="-797" font-family="Helvetica,sans-Serif" font-size="10.00">+ rGetStateVariableUnits()</text>
<text text-anchor="start" x="126.5" y="-786" font-family="Helvetica,sans-Serif" font-size="10.00">and 20 more...</text>
</a>
</g>
</g>
<!-- Node3&#45;&gt;Node2 -->
<g id="edge2" class="edge"><title>Node3&#45;&gt;Node2</title>
<path fill="none" stroke="midnightblue" d="M212,-768.54C212,-670.615 212,-527.537 212,-427.74"/>
<polygon fill="none" stroke="midnightblue" points="208.5,-768.763 212,-778.763 215.5,-768.763 208.5,-768.763"/>
</g>
<!-- Node7 -->
<g id="node7" class="node"><title>Node7</title>
<g id="a_node7"><a xlink:href="classAbstractParameterisedSystem.html" target="_top" xlink:title="{AbstractParameterisedSystem\l\&lt; VECTOR \&gt;\n||+ AbstractParameterisedSystem()\l+ rGetStateVariables()\l+ GetStateVariables()\l+ SetStateVariables()\l+ GetStateVariable()\l+ GetStateVariable()\l+ SetStateVariable()\l+ SetStateVariable()\l+ VerifyStateVariables()\l+ SetDefaultInitialConditions()\land 13 more...\l# DumpState()\l# DumpState()\l# DumpState()\l# CheckParametersOnLoad()\l&#45; GetStateMessage()\l}">
<polygon fill="white" stroke="black" points="-0.5,-486.5 -0.5,-719.5 164.5,-719.5 164.5,-486.5 -0.5,-486.5"/>
<text text-anchor="start" x="7.5" y="-707.5" font-family="Helvetica,sans-Serif" font-size="10.00">AbstractParameterisedSystem</text>
<text text-anchor="middle" x="82" y="-696.5" font-family="Helvetica,sans-Serif" font-size="10.00">&lt; VECTOR &gt;</text>
<polyline fill="none" stroke="black" points="-0.5,-689.5 164.5,-689.5 "/>
<text text-anchor="middle" x="82" y="-677.5" font-family="Helvetica,sans-Serif" font-size="10.00"> </text>
<polyline fill="none" stroke="black" points="-0.5,-670.5 164.5,-670.5 "/>
<text text-anchor="start" x="7.5" y="-658.5" font-family="Helvetica,sans-Serif" font-size="10.00">+ AbstractParameterisedSystem()</text>
<text text-anchor="start" x="7.5" y="-647.5" font-family="Helvetica,sans-Serif" font-size="10.00">+ rGetStateVariables()</text>
<text text-anchor="start" x="7.5" y="-636.5" font-family="Helvetica,sans-Serif" font-size="10.00">+ GetStateVariables()</text>
<text text-anchor="start" x="7.5" y="-625.5" font-family="Helvetica,sans-Serif" font-size="10.00">+ SetStateVariables()</text>
<text text-anchor="start" x="7.5" y="-614.5" font-family="Helvetica,sans-Serif" font-size="10.00">+ GetStateVariable()</text>
<text text-anchor="start" x="7.5" y="-603.5" font-family="Helvetica,sans-Serif" font-size="10.00">+ GetStateVariable()</text>
<text text-anchor="start" x="7.5" y="-592.5" font-family="Helvetica,sans-Serif" font-size="10.00">+ SetStateVariable()</text>
<text text-anchor="start" x="7.5" y="-581.5" font-family="Helvetica,sans-Serif" font-size="10.00">+ SetStateVariable()</text>
<text text-anchor="start" x="7.5" y="-570.5" font-family="Helvetica,sans-Serif" font-size="10.00">+ VerifyStateVariables()</text>
<text text-anchor="start" x="7.5" y="-559.5" font-family="Helvetica,sans-Serif" font-size="10.00">+ SetDefaultInitialConditions()</text>
<text text-anchor="start" x="7.5" y="-548.5" font-family="Helvetica,sans-Serif" font-size="10.00">and 13 more...</text>
<text text-anchor="start" x="7.5" y="-537.5" font-family="Helvetica,sans-Serif" font-size="10.00"># DumpState()</text>
<text text-anchor="start" x="7.5" y="-526.5" font-family="Helvetica,sans-Serif" font-size="10.00"># DumpState()</text>
<text text-anchor="start" x="7.5" y="-515.5" font-family="Helvetica,sans-Serif" font-size="10.00"># DumpState()</text>
<text text-anchor="start" x="7.5" y="-504.5" font-family="Helvetica,sans-Serif" font-size="10.00"># CheckParametersOnLoad()</text>
<text text-anchor="start" x="7.5" y="-493.5" font-family="Helvetica,sans-Serif" font-size="10.00">&#45; GetStateMessage()</text>
</a>
</g>
</g>
<!-- Node3&#45;&gt;Node7 -->
<g id="edge7" class="edge"><title>Node3&#45;&gt;Node7</title>
<path fill="none" stroke="midnightblue" d="M175.566,-769.314C171.271,-758.617 166.725,-748.021 162,-738 159.169,-731.996 156.147,-725.914 152.996,-719.823"/>
<polygon fill="none" stroke="midnightblue" points="172.353,-770.707 179.274,-778.729 178.866,-768.142 172.353,-770.707"/>
</g>
<!-- Node4 -->
<g id="node4" class="node"><title>Node4</title>
<polygon fill="white" stroke="#bfbfbf" points="69,-1029 69,-1097 229,-1097 229,-1029 69,-1029"/>
<text text-anchor="start" x="77" y="-1085" font-family="Helvetica,sans-Serif" font-size="10.00">shared_ptr&lt; AbstractOdeSystem</text>
<text text-anchor="middle" x="149" y="-1074" font-family="Helvetica,sans-Serif" font-size="10.00">Information &gt;</text>
<polyline fill="none" stroke="#bfbfbf" points="69,-1067 229,-1067 "/>
<text text-anchor="middle" x="149" y="-1055" font-family="Helvetica,sans-Serif" font-size="10.00"> </text>
<polyline fill="none" stroke="#bfbfbf" points="69,-1048 229,-1048 "/>
<text text-anchor="middle" x="149" y="-1036" font-family="Helvetica,sans-Serif" font-size="10.00"> </text>
</g>
<!-- Node4&#45;&gt;Node3 -->
<g id="edge3" class="edge"><title>Node4&#45;&gt;Node3</title>
<path fill="none" stroke="#404040" d="M160.555,-1028.62C164.385,-1017.55 168.883,-1004.56 173.598,-990.939"/>
<polygon fill="none" stroke="#404040" points="173.674,-990.719 171.857,-983.741 177.6,-979.379 179.417,-986.357 173.674,-990.719"/>
<text text-anchor="middle" x="206.5" y="-1001.5" font-family="Helvetica,sans-Serif" font-size="10.00"> #mpSystemInfo</text>
</g>
<!-- Node5 -->
<g id="node5" class="node"><title>Node5</title>
<g id="a_node5"><a xlink:href="classunsigned.html" target="_top" xlink:title="{unsigned\n||}">
<polygon fill="white" stroke="black" points="247,-1034.5 247,-1091.5 303,-1091.5 303,-1034.5 247,-1034.5"/>
<text text-anchor="middle" x="275" y="-1079.5" font-family="Helvetica,sans-Serif" font-size="10.00">unsigned</text>
<polyline fill="none" stroke="black" points="247,-1072.5 303,-1072.5 "/>
<text text-anchor="middle" x="275" y="-1060.5" font-family="Helvetica,sans-Serif" font-size="10.00"> </text>
<polyline fill="none" stroke="black" points="247,-1053.5 303,-1053.5 "/>
<text text-anchor="middle" x="275" y="-1041.5" font-family="Helvetica,sans-Serif" font-size="10.00"> </text>
</a>
</g>
</g>
<!-- Node5&#45;&gt;Node3 -->
<g id="edge4" class="edge"><title>Node5&#45;&gt;Node3</title>
<path fill="none" stroke="#404040" d="M265.432,-1034.36C261.221,-1022.2 255.973,-1007.03 250.424,-991.002"/>
<polygon fill="none" stroke="#404040" points="250.265,-990.545 244.523,-986.183 246.34,-979.205 252.083,-983.566 250.265,-990.545"/>
<text text-anchor="middle" x="320" y="-1001.5" font-family="Helvetica,sans-Serif" font-size="10.00"> #mNumberOfStateVariables</text>
</g>
<!-- Node6 -->
<g id="node6" class="node"><title>Node6</title>
<polygon fill="white" stroke="#bfbfbf" points="240,-574.5 240,-631.5 330,-631.5 330,-574.5 240,-574.5"/>
<text text-anchor="middle" x="285" y="-619.5" font-family="Helvetica,sans-Serif" font-size="10.00">vector&lt; double &gt;</text>
<polyline fill="none" stroke="#bfbfbf" points="240,-612.5 330,-612.5 "/>
<text text-anchor="middle" x="285" y="-600.5" font-family="Helvetica,sans-Serif" font-size="10.00"> </text>
<polyline fill="none" stroke="#bfbfbf" points="240,-593.5 330,-593.5 "/>
<text text-anchor="middle" x="285" y="-581.5" font-family="Helvetica,sans-Serif" font-size="10.00"> </text>
</g>
<!-- Node6&#45;&gt;Node2 -->
<g id="edge5" class="edge"><title>Node6&#45;&gt;Node2</title>
<path fill="none" stroke="#404040" d="M278.067,-574.456C270.192,-543.173 256.785,-489.912 244.098,-439.511"/>
<polygon fill="none" stroke="#404040" points="244.078,-439.434 238.735,-434.592 241.149,-427.797 246.493,-432.639 244.078,-439.434"/>
<text text-anchor="middle" x="291.5" y="-460" font-family="Helvetica,sans-Serif" font-size="10.00"> #mStateVariables</text>
<text text-anchor="middle" x="291.5" y="-449" font-family="Helvetica,sans-Serif" font-size="10.00">#mParameters</text>
</g>
<!-- Node7&#45;&gt;Node2 -->
<g id="edge6" class="edge"><title>Node7&#45;&gt;Node2</title>
<path fill="none" stroke="orange" d="M74.4631,-476.251C76.3334,-465.817 79.0939,-455.601 83,-446 93.2224,-420.875 110.625,-397.81 129.396,-378.16"/>
<polygon fill="orange" stroke="orange" points="70.977,-475.895 72.9344,-486.308 77.8975,-476.947 70.977,-475.895"/>
<text text-anchor="middle" x="140.5" y="-454.5" font-family="Helvetica,sans-Serif" font-size="10.00"> &lt; std::vector&lt; double &gt; &gt;</text>
</g>
<!-- Node8 -->
<g id="node8" class="node"><title>Node8</title>
<polygon fill="white" stroke="#bfbfbf" points="41.5,-850.5 41.5,-907.5 100.5,-907.5 100.5,-850.5 41.5,-850.5"/>
<text text-anchor="middle" x="71" y="-895.5" font-family="Helvetica,sans-Serif" font-size="10.00">VECTOR</text>
<polyline fill="none" stroke="#bfbfbf" points="41.5,-888.5 100.5,-888.5 "/>
<text text-anchor="middle" x="71" y="-876.5" font-family="Helvetica,sans-Serif" font-size="10.00"> </text>
<polyline fill="none" stroke="#bfbfbf" points="41.5,-869.5 100.5,-869.5 "/>
<text text-anchor="middle" x="71" y="-857.5" font-family="Helvetica,sans-Serif" font-size="10.00"> </text>
</g>
<!-- Node8&#45;&gt;Node7 -->
<g id="edge8" class="edge"><title>Node8&#45;&gt;Node7</title>
<path fill="none" stroke="#404040" d="M72.1051,-850.473C73.2355,-822.317 75.0746,-776.506 76.8624,-731.973"/>
<polygon fill="none" stroke="#404040" points="76.8708,-731.762 73.1147,-725.606 77.3522,-719.771 81.1083,-725.927 76.8708,-731.762"/>
<text text-anchor="middle" x="117.5" y="-752" font-family="Helvetica,sans-Serif" font-size="10.00"> #mStateVariables</text>
<text text-anchor="middle" x="117.5" y="-741" font-family="Helvetica,sans-Serif" font-size="10.00">#mParameters</text>
</g>
<!-- Node9 -->
<g id="node9" class="node"><title>Node9</title>
<g id="a_node9"><a xlink:href="classbool.html" target="_top" xlink:title="{bool\n||}">
<polygon fill="white" stroke="black" points="312.5,-282.5 312.5,-339.5 347.5,-339.5 347.5,-282.5 312.5,-282.5"/>
<text text-anchor="middle" x="330" y="-327.5" font-family="Helvetica,sans-Serif" font-size="10.00">bool</text>
<polyline fill="none" stroke="black" points="312.5,-320.5 347.5,-320.5 "/>
<text text-anchor="middle" x="330" y="-308.5" font-family="Helvetica,sans-Serif" font-size="10.00"> </text>
<polyline fill="none" stroke="black" points="312.5,-301.5 347.5,-301.5 "/>
<text text-anchor="middle" x="330" y="-289.5" font-family="Helvetica,sans-Serif" font-size="10.00"> </text>
</a>
</g>
</g>
<!-- Node9&#45;&gt;Node1 -->
<g id="edge9" class="edge"><title>Node9&#45;&gt;Node1</title>
<path fill="none" stroke="#404040" d="M326.5,-282.466C322.629,-252.013 316.204,-201.471 310.65,-157.78"/>
<polygon fill="none" stroke="#404040" points="310.623,-157.565 305.898,-152.118 309.109,-145.661 313.834,-151.109 310.623,-157.565"/>
<text text-anchor="middle" x="367.5" y="-167.5" font-family="Helvetica,sans-Serif" font-size="10.00"> #mUseAnalyticJacobian</text>
</g>
</g>
</svg>
