<?xml version="1.0" encoding="UTF-8" standalone="no"?>
<!DOCTYPE svg PUBLIC "-//W3C//DTD SVG 1.1//EN"
 "http://www.w3.org/Graphics/SVG/1.1/DTD/svg11.dtd">
<!-- Generated by graphviz version 2.36.0 (20140111.2315)
 -->
<!-- Title: AbstractFeVolumeIntegralAssembler&lt; ELEMENT_DIM, SPACE_DIM, PROBLEM_DIM, CAN_ASSEMBLE_VECTOR, CAN_ASSEMBLE_MATRIX, INTERPOLATION_LEVEL &gt; Pages: 1 -->
<svg width="900pt" height="812pt"
 viewBox="0.00 0.00 900.00 812.00" xmlns="http://www.w3.org/2000/svg" xmlns:xlink="http://www.w3.org/1999/xlink">
<g id="graph0" class="graph" transform="scale(1 1) rotate(0) translate(4 808)">
<title>AbstractFeVolumeIntegralAssembler&lt; ELEMENT_DIM, SPACE_DIM, PROBLEM_DIM, CAN_ASSEMBLE_VECTOR, CAN_ASSEMBLE_MATRIX, INTERPOLATION_LEVEL &gt;</title>
<polygon fill="white" stroke="none" points="-4,4 -4,-808 896,-808 896,4 -4,4"/>
<!-- Node1 -->
<g id="node1" class="node"><title>Node1</title>
<polygon fill="#bfbfbf" stroke="black" points="491.5,-0.5 491.5,-211.5 742.5,-211.5 742.5,-0.5 491.5,-0.5"/>
<text text-anchor="start" x="499.5" y="-199.5" font-family="Helvetica,sans-Serif" font-size="10.00">AbstractFeVolumeIntegral</text>
<text text-anchor="start" x="499.5" y="-188.5" font-family="Helvetica,sans-Serif" font-size="10.00">Assembler&lt; ELEMENT_DIM,</text>
<text text-anchor="start" x="499.5" y="-177.5" font-family="Helvetica,sans-Serif" font-size="10.00"> SPACE_DIM, PROBLEM_DIM,</text>
<text text-anchor="start" x="499.5" y="-166.5" font-family="Helvetica,sans-Serif" font-size="10.00"> CAN_ASSEMBLE_VECTOR, CAN</text>
<text text-anchor="middle" x="617" y="-155.5" font-family="Helvetica,sans-Serif" font-size="10.00">_ASSEMBLE_MATRIX, INTERPOLATION_LEVEL &gt;</text>
<polyline fill="none" stroke="black" points="491.5,-148.5 742.5,-148.5 "/>
<text text-anchor="middle" x="617" y="-136.5" font-family="Helvetica,sans-Serif" font-size="10.00"> </text>
<polyline fill="none" stroke="black" points="491.5,-129.5 742.5,-129.5 "/>
<text text-anchor="start" x="499.5" y="-117.5" font-family="Helvetica,sans-Serif" font-size="10.00">+ AbstractFeVolumeIntegral</text>
<text text-anchor="start" x="499.5" y="-106.5" font-family="Helvetica,sans-Serif" font-size="10.00">Assembler()</text>
<text text-anchor="start" x="499.5" y="-95.5" font-family="Helvetica,sans-Serif" font-size="10.00">+ ~AbstractFeVolumeIntegral</text>
<text text-anchor="start" x="499.5" y="-84.5" font-family="Helvetica,sans-Serif" font-size="10.00">Assembler()</text>
<text text-anchor="start" x="499.5" y="-73.5" font-family="Helvetica,sans-Serif" font-size="10.00"># ComputeTransformedBasisFunction</text>
<text text-anchor="start" x="499.5" y="-62.5" font-family="Helvetica,sans-Serif" font-size="10.00">Derivatives()</text>
<text text-anchor="start" x="499.5" y="-51.5" font-family="Helvetica,sans-Serif" font-size="10.00"># DoAssemble()</text>
<text text-anchor="start" x="499.5" y="-40.5" font-family="Helvetica,sans-Serif" font-size="10.00"># ComputeMatrixTerm()</text>
<text text-anchor="start" x="499.5" y="-29.5" font-family="Helvetica,sans-Serif" font-size="10.00"># ComputeVectorTerm()</text>
<text text-anchor="start" x="499.5" y="-18.5" font-family="Helvetica,sans-Serif" font-size="10.00"># AssembleOnElement()</text>
<text text-anchor="start" x="499.5" y="-7.5" font-family="Helvetica,sans-Serif" font-size="10.00"># ElementAssemblyCriterion()</text>
</g>
<!-- Node2 -->
<g id="node2" class="node"><title>Node2</title>
<g id="a_node2"><a xlink:href="classAbstractFeAssemblerCommon.html" target="_top" xlink:title="{AbstractFeAssemblerCommon\l\&lt; ELEMENT_DIM, SPACE_DIM,\l PROBLEM_DIM, CAN_ASSEMBLE\l_VECTOR, CAN_ASSEMBLE_MATRIX,\l INTERPOLATION_LEVEL \&gt;\n||+ AbstractFeAssemblerCommon()\l+ SetCurrentSolution()\l+ ~AbstractFeAssemblerCommon()\l# GetCurrentSolutionOrGuess\lValue()\l# ResetInterpolatedQuantities()\l# IncrementInterpolatedQuantities()\l# IncrementInterpolatedGradient\lQuantities()\l}">
<polygon fill="white" stroke="black" points="338.5,-260.5 338.5,-449.5 535.5,-449.5 535.5,-260.5 338.5,-260.5"/>
<text text-anchor="start" x="346.5" y="-437.5" font-family="Helvetica,sans-Serif" font-size="10.00">AbstractFeAssemblerCommon</text>
<text text-anchor="start" x="346.5" y="-426.5" font-family="Helvetica,sans-Serif" font-size="10.00">&lt; ELEMENT_DIM, SPACE_DIM,</text>
<text text-anchor="start" x="346.5" y="-415.5" font-family="Helvetica,sans-Serif" font-size="10.00"> PROBLEM_DIM, CAN_ASSEMBLE</text>
<text text-anchor="start" x="346.5" y="-404.5" font-family="Helvetica,sans-Serif" font-size="10.00">_VECTOR, CAN_ASSEMBLE_MATRIX,</text>
<text text-anchor="middle" x="437" y="-393.5" font-family="Helvetica,sans-Serif" font-size="10.00"> INTERPOLATION_LEVEL &gt;</text>
<polyline fill="none" stroke="black" points="338.5,-386.5 535.5,-386.5 "/>
<text text-anchor="middle" x="437" y="-374.5" font-family="Helvetica,sans-Serif" font-size="10.00"> </text>
<polyline fill="none" stroke="black" points="338.5,-367.5 535.5,-367.5 "/>
<text text-anchor="start" x="346.5" y="-355.5" font-family="Helvetica,sans-Serif" font-size="10.00">+ AbstractFeAssemblerCommon()</text>
<text text-anchor="start" x="346.5" y="-344.5" font-family="Helvetica,sans-Serif" font-size="10.00">+ SetCurrentSolution()</text>
<text text-anchor="start" x="346.5" y="-333.5" font-family="Helvetica,sans-Serif" font-size="10.00">+ ~AbstractFeAssemblerCommon()</text>
<text text-anchor="start" x="346.5" y="-322.5" font-family="Helvetica,sans-Serif" font-size="10.00"># GetCurrentSolutionOrGuess</text>
<text text-anchor="start" x="346.5" y="-311.5" font-family="Helvetica,sans-Serif" font-size="10.00">Value()</text>
<text text-anchor="start" x="346.5" y="-300.5" font-family="Helvetica,sans-Serif" font-size="10.00"># ResetInterpolatedQuantities()</text>
<text text-anchor="start" x="346.5" y="-289.5" font-family="Helvetica,sans-Serif" font-size="10.00"># IncrementInterpolatedQuantities()</text>
<text text-anchor="start" x="346.5" y="-278.5" font-family="Helvetica,sans-Serif" font-size="10.00"># IncrementInterpolatedGradient</text>
<text text-anchor="start" x="346.5" y="-267.5" font-family="Helvetica,sans-Serif" font-size="10.00">Quantities()</text>
</a>
</g>
</g>
<!-- Node2&#45;&gt;Node1 -->
<g id="edge1" class="edge"><title>Node2&#45;&gt;Node1</title>
<path fill="none" stroke="midnightblue" d="M511.296,-252.049C520.974,-238.769 530.902,-225.146 540.613,-211.82"/>
<polygon fill="none" stroke="midnightblue" points="508.368,-250.125 505.307,-260.268 514.025,-254.247 508.368,-250.125"/>
</g>
<!-- Node3 -->
<g id="node3" class="node"><title>Node3</title>
<g id="a_node3"><a xlink:href="classAbstractFeAssemblerInterface.html" target="_top" xlink:title="{AbstractFeAssemblerInterface\l\&lt; CAN_ASSEMBLE_VECTOR, CAN\l_ASSEMBLE_MATRIX \&gt;\n||+ AbstractFeAssemblerInterface()\l+ SetMatrixToAssemble()\l+ SetVectorToAssemble()\l+ Assemble()\l+ AssembleMatrix()\l+ AssembleVector()\l+ ~AbstractFeAssemblerInterface()\l# DoAssemble()\l}">
<polygon fill="white" stroke="black" points="225,-509 225,-665 407,-665 407,-509 225,-509"/>
<text text-anchor="start" x="233" y="-653" font-family="Helvetica,sans-Serif" font-size="10.00">AbstractFeAssemblerInterface</text>
<text text-anchor="start" x="233" y="-642" font-family="Helvetica,sans-Serif" font-size="10.00">&lt; CAN_ASSEMBLE_VECTOR, CAN</text>
<text text-anchor="middle" x="316" y="-631" font-family="Helvetica,sans-Serif" font-size="10.00">_ASSEMBLE_MATRIX &gt;</text>
<polyline fill="none" stroke="black" points="225,-624 407,-624 "/>
<text text-anchor="middle" x="316" y="-612" font-family="Helvetica,sans-Serif" font-size="10.00"> </text>
<polyline fill="none" stroke="black" points="225,-605 407,-605 "/>
<text text-anchor="start" x="233" y="-593" font-family="Helvetica,sans-Serif" font-size="10.00">+ AbstractFeAssemblerInterface()</text>
<text text-anchor="start" x="233" y="-582" font-family="Helvetica,sans-Serif" font-size="10.00">+ SetMatrixToAssemble()</text>
<text text-anchor="start" x="233" y="-571" font-family="Helvetica,sans-Serif" font-size="10.00">+ SetVectorToAssemble()</text>
<text text-anchor="start" x="233" y="-560" font-family="Helvetica,sans-Serif" font-size="10.00">+ Assemble()</text>
<text text-anchor="start" x="233" y="-549" font-family="Helvetica,sans-Serif" font-size="10.00">+ AssembleMatrix()</text>
<text text-anchor="start" x="233" y="-538" font-family="Helvetica,sans-Serif" font-size="10.00">+ AssembleVector()</text>
<text text-anchor="start" x="233" y="-527" font-family="Helvetica,sans-Serif" font-size="10.00">+ ~AbstractFeAssemblerInterface()</text>
<text text-anchor="start" x="233" y="-516" font-family="Helvetica,sans-Serif" font-size="10.00"># DoAssemble()</text>
</a>
</g>
</g>
<!-- Node3&#45;&gt;Node2 -->
<g id="edge2" class="edge"><title>Node3&#45;&gt;Node2</title>
<path fill="none" stroke="midnightblue" d="M361.349,-499.8C369.935,-483.478 378.957,-466.329 387.66,-449.787"/>
<polygon fill="none" stroke="midnightblue" points="358.186,-498.294 356.628,-508.773 364.381,-501.553 358.186,-498.294"/>
</g>
<!-- Node4 -->
<g id="node4" class="node"><title>Node4</title>
<polygon fill="white" stroke="#bfbfbf" points="-0.5,-746.5 -0.5,-803.5 70.5,-803.5 70.5,-746.5 -0.5,-746.5"/>
<text text-anchor="middle" x="35" y="-791.5" font-family="Helvetica,sans-Serif" font-size="10.00">noncopyable</text>
<polyline fill="none" stroke="#bfbfbf" points="-0.5,-784.5 70.5,-784.5 "/>
<text text-anchor="middle" x="35" y="-772.5" font-family="Helvetica,sans-Serif" font-size="10.00"> </text>
<polyline fill="none" stroke="#bfbfbf" points="-0.5,-765.5 70.5,-765.5 "/>
<text text-anchor="middle" x="35" y="-753.5" font-family="Helvetica,sans-Serif" font-size="10.00"> </text>
</g>
<!-- Node4&#45;&gt;Node3 -->
<g id="edge3" class="edge"><title>Node4&#45;&gt;Node3</title>
<path fill="none" stroke="#8b1a1a" d="M56.2843,-737.721C68.2293,-719.756 84.4533,-698.803 103,-684 138.982,-655.282 184.927,-633.158 224.928,-617.427"/>
<polygon fill="none" stroke="#8b1a1a" points="53.2552,-735.96 50.7728,-746.26 59.1365,-739.756 53.2552,-735.96"/>
</g>
<!-- Node5 -->
<g id="node5" class="node"><title>Node5</title>
<g id="a_node5"><a xlink:href="classbool.html" target="_top" xlink:title="{bool\n||}">
<polygon fill="white" stroke="black" points="88.5,-746.5 88.5,-803.5 123.5,-803.5 123.5,-746.5 88.5,-746.5"/>
<text text-anchor="middle" x="106" y="-791.5" font-family="Helvetica,sans-Serif" font-size="10.00">bool</text>
<polyline fill="none" stroke="black" points="88.5,-784.5 123.5,-784.5 "/>
<text text-anchor="middle" x="106" y="-772.5" font-family="Helvetica,sans-Serif" font-size="10.00"> </text>
<polyline fill="none" stroke="black" points="88.5,-765.5 123.5,-765.5 "/>
<text text-anchor="middle" x="106" y="-753.5" font-family="Helvetica,sans-Serif" font-size="10.00"> </text>
</a>
</g>
</g>
<!-- Node5&#45;&gt;Node3 -->
<g id="edge4" class="edge"><title>Node5&#45;&gt;Node3</title>
<path fill="none" stroke="#404040" d="M104.666,-746.257C105.132,-727.023 108.667,-701.773 122,-684 144.691,-653.752 179.518,-632.45 213.433,-617.736"/>
<polygon fill="none" stroke="#404040" points="213.794,-617.587 217.807,-611.595 224.881,-612.995 220.868,-618.986 213.794,-617.587"/>
<text text-anchor="middle" x="189" y="-720" font-family="Helvetica,sans-Serif" font-size="10.00"> #mAssembleVector</text>
<text text-anchor="middle" x="189" y="-709" font-family="Helvetica,sans-Serif" font-size="10.00">#mZeroVectorBeforeAssembly</text>
<text text-anchor="middle" x="189" y="-698" font-family="Helvetica,sans-Serif" font-size="10.00">#mAssembleMatrix</text>
<text text-anchor="middle" x="189" y="-687" font-family="Helvetica,sans-Serif" font-size="10.00">#mZeroMatrixBeforeAssembly</text>
</g>
<!-- Node6 -->
<g id="node6" class="node"><title>Node6</title>
<g id="a_node6"><a xlink:href="classMat.html" target="_top" xlink:title="{Mat\n||}">
<polygon fill="white" stroke="black" points="246.5,-746.5 246.5,-803.5 279.5,-803.5 279.5,-746.5 246.5,-746.5"/>
<text text-anchor="middle" x="263" y="-791.5" font-family="Helvetica,sans-Serif" font-size="10.00">Mat</text>
<polyline fill="none" stroke="black" points="246.5,-784.5 279.5,-784.5 "/>
<text text-anchor="middle" x="263" y="-772.5" font-family="Helvetica,sans-Serif" font-size="10.00"> </text>
<polyline fill="none" stroke="black" points="246.5,-765.5 279.5,-765.5 "/>
<text text-anchor="middle" x="263" y="-753.5" font-family="Helvetica,sans-Serif" font-size="10.00"> </text>
</a>
</g>
</g>
<!-- Node6&#45;&gt;Node3 -->
<g id="edge5" class="edge"><title>Node6&#45;&gt;Node3</title>
<path fill="none" stroke="#404040" d="M259.91,-746.373C258.716,-728.331 258.704,-704.419 264,-684 264.641,-681.527 265.359,-679.049 266.144,-676.572"/>
<polygon fill="none" stroke="#404040" points="266.232,-676.325 264.482,-669.329 270.266,-665.023 272.016,-672.018 266.232,-676.325"/>
<text text-anchor="middle" x="313.5" y="-703.5" font-family="Helvetica,sans-Serif" font-size="10.00"> #mMatrixToAssemble</text>
</g>
<!-- Node7 -->
<g id="node7" class="node"><title>Node7</title>
<g id="a_node7"><a xlink:href="classPetscInt.html" target="_top" xlink:title="{PetscInt\n||}">
<polygon fill="white" stroke="black" points="358.5,-746.5 358.5,-803.5 411.5,-803.5 411.5,-746.5 358.5,-746.5"/>
<text text-anchor="middle" x="385" y="-791.5" font-family="Helvetica,sans-Serif" font-size="10.00">PetscInt</text>
<polyline fill="none" stroke="black" points="358.5,-784.5 411.5,-784.5 "/>
<text text-anchor="middle" x="385" y="-772.5" font-family="Helvetica,sans-Serif" font-size="10.00"> </text>
<polyline fill="none" stroke="black" points="358.5,-765.5 411.5,-765.5 "/>
<text text-anchor="middle" x="385" y="-753.5" font-family="Helvetica,sans-Serif" font-size="10.00"> </text>
</a>
</g>
</g>
<!-- Node7&#45;&gt;Node3 -->
<g id="edge6" class="edge"><title>Node7&#45;&gt;Node3</title>
<path fill="none" stroke="#404040" d="M379.858,-746.371C376.109,-728.328 370.395,-704.417 363,-684 362.089,-681.484 361.131,-678.946 360.134,-676.398"/>
<polygon fill="none" stroke="#404040" points="360.092,-676.294 354.117,-672.256 355.546,-665.188 361.521,-669.226 360.092,-676.294"/>
<text text-anchor="middle" x="427" y="-709" font-family="Helvetica,sans-Serif" font-size="10.00"> #mOwnershipRangeHi</text>
<text text-anchor="middle" x="427" y="-698" font-family="Helvetica,sans-Serif" font-size="10.00">#mOwnershipRangeLo</text>
</g>
<!-- Node8 -->
<g id="node8" class="node"><title>Node8</title>
<g id="a_node8"><a xlink:href="classVec.html" target="_top" xlink:title="{Vec\n||}">
<polygon fill="white" stroke="black" points="554,-746.5 554,-803.5 588,-803.5 588,-746.5 554,-746.5"/>
<text text-anchor="middle" x="571" y="-791.5" font-family="Helvetica,sans-Serif" font-size="10.00">Vec</text>
<polyline fill="none" stroke="black" points="554,-784.5 588,-784.5 "/>
<text text-anchor="middle" x="571" y="-772.5" font-family="Helvetica,sans-Serif" font-size="10.00"> </text>
<polyline fill="none" stroke="black" points="554,-765.5 588,-765.5 "/>
<text text-anchor="middle" x="571" y="-753.5" font-family="Helvetica,sans-Serif" font-size="10.00"> </text>
</a>
</g>
</g>
<!-- Node8&#45;&gt;Node3 -->
<g id="edge7" class="edge"><title>Node8&#45;&gt;Node3</title>
<path fill="none" stroke="#404040" d="M553.947,-764.557C540.074,-756.259 520.629,-743.164 507,-728 491.965,-711.272 497.843,-699.965 482,-684 463.494,-665.352 440.623,-649.079 417.838,-635.488"/>
<polygon fill="none" stroke="#404040" points="417.773,-635.451 410.576,-635.903 407.39,-629.434 414.587,-628.981 417.773,-635.451"/>
<text text-anchor="middle" x="557" y="-703.5" font-family="Helvetica,sans-Serif" font-size="10.00"> #mVectorToAssemble</text>
</g>
<!-- Node9 -->
<g id="node9" class="node"><title>Node9</title>
<g id="a_node9"><a xlink:href="classReplicatableVector.html" target="_top" xlink:title="{ReplicatableVector\n||+ ReplicatableVector()\l+ ReplicatableVector()\l+ ReplicatableVector()\l+ ~ReplicatableVector()\l+ GetSize()\l+ Resize()\l+ operator[]()\l+ Replicate()\l+ ReplicatePetscVector()\l&#45; RemovePetscContext()\l}">
<polygon fill="white" stroke="black" points="653.5,-509 653.5,-665 780.5,-665 780.5,-509 653.5,-509"/>
<text text-anchor="middle" x="717" y="-653" font-family="Helvetica,sans-Serif" font-size="10.00">ReplicatableVector</text>
<polyline fill="none" stroke="black" points="653.5,-646 780.5,-646 "/>
<text text-anchor="middle" x="717" y="-634" font-family="Helvetica,sans-Serif" font-size="10.00"> </text>
<polyline fill="none" stroke="black" points="653.5,-627 780.5,-627 "/>
<text text-anchor="start" x="661.5" y="-615" font-family="Helvetica,sans-Serif" font-size="10.00">+ ReplicatableVector()</text>
<text text-anchor="start" x="661.5" y="-604" font-family="Helvetica,sans-Serif" font-size="10.00">+ ReplicatableVector()</text>
<text text-anchor="start" x="661.5" y="-593" font-family="Helvetica,sans-Serif" font-size="10.00">+ ReplicatableVector()</text>
<text text-anchor="start" x="661.5" y="-582" font-family="Helvetica,sans-Serif" font-size="10.00">+ ~ReplicatableVector()</text>
<text text-anchor="start" x="661.5" y="-571" font-family="Helvetica,sans-Serif" font-size="10.00">+ GetSize()</text>
<text text-anchor="start" x="661.5" y="-560" font-family="Helvetica,sans-Serif" font-size="10.00">+ Resize()</text>
<text text-anchor="start" x="661.5" y="-549" font-family="Helvetica,sans-Serif" font-size="10.00">+ operator[]()</text>
<text text-anchor="start" x="661.5" y="-538" font-family="Helvetica,sans-Serif" font-size="10.00">+ Replicate()</text>
<text text-anchor="start" x="661.5" y="-527" font-family="Helvetica,sans-Serif" font-size="10.00">+ ReplicatePetscVector()</text>
<text text-anchor="start" x="661.5" y="-516" font-family="Helvetica,sans-Serif" font-size="10.00">&#45; RemovePetscContext()</text>
</a>
</g>
</g>
<!-- Node8&#45;&gt;Node9 -->
<g id="edge12" class="edge"><title>Node8&#45;&gt;Node9</title>
<path fill="none" stroke="#404040" d="M588.031,-755C595.246,-746.802 603.663,-737.038 611,-728 624.781,-711.025 639.159,-692.573 652.719,-674.804"/>
<polygon fill="none" stroke="#404040" points="652.897,-674.57 653.344,-667.373 660.159,-665.017 659.713,-672.214 652.897,-674.57"/>
<text text-anchor="middle" x="674.5" y="-703.5" font-family="Helvetica,sans-Serif" font-size="10.00"> &#45;mReplicated</text>
</g>
<!-- Node9&#45;&gt;Node2 -->
<g id="edge8" class="edge"><title>Node9&#45;&gt;Node2</title>
<path fill="none" stroke="#404040" d="M653.12,-536.649C620.479,-511.141 580.302,-479.292 545,-450 544.904,-449.921 544.809,-449.841 544.713,-449.762"/>
<polygon fill="none" stroke="#404040" points="544.927,-449.941 537.758,-449.164 535.717,-442.248 542.886,-443.024 544.927,-449.941"/>
<text text-anchor="start" x="592" y="-482" font-family="Helvetica,sans-Serif" font-size="10.00"> #mCurrentSolutionOrGuess</text>
<text text-anchor="middle" x="654" y="-471" font-family="Helvetica,sans-Serif" font-size="10.00">Replicated</text>
</g>
<!-- Node10 -->
<g id="node10" class="node"><title>Node10</title>
<g id="a_node10"><a xlink:href="classdouble.html" target="_top" xlink:title="{double\n||}">
<polygon fill="white" stroke="black" points="689.5,-746.5 689.5,-803.5 734.5,-803.5 734.5,-746.5 689.5,-746.5"/>
<text text-anchor="middle" x="712" y="-791.5" font-family="Helvetica,sans-Serif" font-size="10.00">double</text>
<polyline fill="none" stroke="black" points="689.5,-784.5 734.5,-784.5 "/>
<text text-anchor="middle" x="712" y="-772.5" font-family="Helvetica,sans-Serif" font-size="10.00"> </text>
<polyline fill="none" stroke="black" points="689.5,-765.5 734.5,-765.5 "/>
<text text-anchor="middle" x="712" y="-753.5" font-family="Helvetica,sans-Serif" font-size="10.00"> </text>
</a>
</g>
</g>
<!-- Node10&#45;&gt;Node9 -->
<g id="edge9" class="edge"><title>Node10&#45;&gt;Node9</title>
<path fill="none" stroke="#404040" d="M712.749,-746.154C713.245,-727.69 713.926,-702.342 714.598,-677.345"/>
<polygon fill="none" stroke="#404040" points="714.604,-677.13 710.767,-671.025 714.926,-665.135 718.764,-671.24 714.604,-677.13"/>
<text text-anchor="middle" x="735.5" y="-703.5" font-family="Helvetica,sans-Serif" font-size="10.00"> &#45;mpData</text>
</g>
<!-- Node11 -->
<g id="node11" class="node"><title>Node11</title>
<polygon fill="white" stroke="#bfbfbf" points="752.5,-746.5 752.5,-803.5 817.5,-803.5 817.5,-746.5 752.5,-746.5"/>
<text text-anchor="middle" x="785" y="-791.5" font-family="Helvetica,sans-Serif" font-size="10.00">VecScatter</text>
<polyline fill="none" stroke="#bfbfbf" points="752.5,-784.5 817.5,-784.5 "/>
<text text-anchor="middle" x="785" y="-772.5" font-family="Helvetica,sans-Serif" font-size="10.00"> </text>
<polyline fill="none" stroke="#bfbfbf" points="752.5,-765.5 817.5,-765.5 "/>
<text text-anchor="middle" x="785" y="-753.5" font-family="Helvetica,sans-Serif" font-size="10.00"> </text>
</g>
<!-- Node11&#45;&gt;Node9 -->
<g id="edge10" class="edge"><title>Node11&#45;&gt;Node9</title>
<path fill="none" stroke="#404040" d="M778.501,-746.491C773.971,-728.497 767.425,-704.595 760,-684 759.094,-681.487 758.151,-678.949 757.179,-676.395"/>
<polygon fill="none" stroke="#404040" points="757.143,-676.302 751.223,-672.184 752.748,-665.136 758.667,-669.254 757.143,-676.302"/>
<text text-anchor="middle" x="792.5" y="-703.5" font-family="Helvetica,sans-Serif" font-size="10.00"> &#45;mToAll</text>
</g>
<!-- Node12 -->
<g id="node12" class="node"><title>Node12</title>
<g id="a_node12"><a xlink:href="classunsigned.html" target="_top" xlink:title="{unsigned\n||}">
<polygon fill="white" stroke="black" points="836,-746.5 836,-803.5 892,-803.5 892,-746.5 836,-746.5"/>
<text text-anchor="middle" x="864" y="-791.5" font-family="Helvetica,sans-Serif" font-size="10.00">unsigned</text>
<polyline fill="none" stroke="black" points="836,-784.5 892,-784.5 "/>
<text text-anchor="middle" x="864" y="-772.5" font-family="Helvetica,sans-Serif" font-size="10.00"> </text>
<polyline fill="none" stroke="black" points="836,-765.5 892,-765.5 "/>
<text text-anchor="middle" x="864" y="-753.5" font-family="Helvetica,sans-Serif" font-size="10.00"> </text>
</a>
</g>
</g>
<!-- Node12&#45;&gt;Node9 -->
<g id="edge11" class="edge"><title>Node12&#45;&gt;Node9</title>
<path fill="none" stroke="#404040" d="M851.605,-746.343C842.695,-727.853 829.695,-703.445 815,-684 807.194,-673.671 798.285,-663.4 789.092,-653.628"/>
<polygon fill="none" stroke="#404040" points="788.92,-653.449 781.876,-651.903 780.594,-644.807 787.638,-646.353 788.92,-653.449"/>
<text text-anchor="middle" x="859" y="-703.5" font-family="Helvetica,sans-Serif" font-size="10.00"> &#45;mSize</text>
</g>
<!-- Node13 -->
<g id="node13" class="node"><title>Node13</title>
<polygon fill="white" stroke="#bfbfbf" points="554,-321 554,-389 680,-389 680,-321 554,-321"/>
<text text-anchor="start" x="562" y="-377" font-family="Helvetica,sans-Serif" font-size="10.00">GaussianQuadratureRule</text>
<text text-anchor="middle" x="617" y="-366" font-family="Helvetica,sans-Serif" font-size="10.00">&lt; ELEMENT_DIM &gt; *</text>
<polyline fill="none" stroke="#bfbfbf" points="554,-359 680,-359 "/>
<text text-anchor="middle" x="617" y="-347" font-family="Helvetica,sans-Serif" font-size="10.00"> </text>
<polyline fill="none" stroke="#bfbfbf" points="554,-340 680,-340 "/>
<text text-anchor="middle" x="617" y="-328" font-family="Helvetica,sans-Serif" font-size="10.00"> </text>
</g>
<!-- Node13&#45;&gt;Node1 -->
<g id="edge13" class="edge"><title>Node13&#45;&gt;Node1</title>
<path fill="none" stroke="#404040" d="M617,-320.945C617,-295.729 617,-259.379 617,-223.776"/>
<polygon fill="none" stroke="#404040" points="617,-223.748 613,-217.748 617,-211.748 621,-217.748 617,-223.748"/>
<text text-anchor="middle" x="650" y="-233.5" font-family="Helvetica,sans-Serif" font-size="10.00"> #mpQuadRule</text>
</g>
<!-- Node14 -->
<g id="node14" class="node"><title>Node14</title>
<polygon fill="white" stroke="#bfbfbf" points="698.5,-321 698.5,-389 875.5,-389 875.5,-321 698.5,-321"/>
<text text-anchor="start" x="706.5" y="-377" font-family="Helvetica,sans-Serif" font-size="10.00">AbstractTetrahedralMesh</text>
<text text-anchor="middle" x="787" y="-366" font-family="Helvetica,sans-Serif" font-size="10.00">&lt; ELEMENT_DIM, SPACE_DIM &gt; *</text>
<polyline fill="none" stroke="#bfbfbf" points="698.5,-359 875.5,-359 "/>
<text text-anchor="middle" x="787" y="-347" font-family="Helvetica,sans-Serif" font-size="10.00"> </text>
<polyline fill="none" stroke="#bfbfbf" points="698.5,-340 875.5,-340 "/>
<text text-anchor="middle" x="787" y="-328" font-family="Helvetica,sans-Serif" font-size="10.00"> </text>
</g>
<!-- Node14&#45;&gt;Node1 -->
<g id="edge14" class="edge"><title>Node14&#45;&gt;Node1</title>
<path fill="none" stroke="#404040" d="M764.249,-320.945C746.593,-295.291 721.004,-258.111 696.094,-221.919"/>
<polygon fill="none" stroke="#404040" points="695.897,-221.633 689.2,-218.958 689.094,-211.748 695.79,-214.422 695.897,-221.633"/>
<text text-anchor="middle" x="731" y="-233.5" font-family="Helvetica,sans-Serif" font-size="10.00"> #mpMesh</text>
</g>
</g>
</svg>
