<?xml version="1.0" encoding="UTF-8" standalone="no"?>
<!DOCTYPE svg PUBLIC "-//W3C//DTD SVG 1.1//EN"
 "http://www.w3.org/Graphics/SVG/1.1/DTD/svg11.dtd">
<!-- Generated by graphviz version 2.36.0 (20140111.2315)
 -->
<!-- Title: BidomainNeumannSurfaceTermAssembler&lt; ELEMENT_DIM, SPACE_DIM &gt; Pages: 1 -->
<svg width="1378pt" height="1376pt"
 viewBox="0.00 0.00 1378.00 1376.00" xmlns="http://www.w3.org/2000/svg" xmlns:xlink="http://www.w3.org/1999/xlink">
<g id="graph0" class="graph" transform="scale(1 1) rotate(0) translate(4 1372)">
<title>BidomainNeumannSurfaceTermAssembler&lt; ELEMENT_DIM, SPACE_DIM &gt;</title>
<polygon fill="white" stroke="none" points="-4,4 -4,-1372 1374,-1372 1374,4 -4,4"/>
<!-- Node1 -->
<g id="node1" class="node"><title>Node1</title>
<polygon fill="#bfbfbf" stroke="black" points="864,-0.5 864,-101.5 1028,-101.5 1028,-0.5 864,-0.5"/>
<text text-anchor="start" x="872" y="-89.5" font-family="Helvetica,sans-Serif" font-size="10.00">BidomainNeumannSurfaceTerm</text>
<text text-anchor="start" x="872" y="-78.5" font-family="Helvetica,sans-Serif" font-size="10.00">Assembler&lt; ELEMENT_DIM,</text>
<text text-anchor="middle" x="946" y="-67.5" font-family="Helvetica,sans-Serif" font-size="10.00"> SPACE_DIM &gt;</text>
<polyline fill="none" stroke="black" points="864,-60.5 1028,-60.5 "/>
<text text-anchor="middle" x="946" y="-48.5" font-family="Helvetica,sans-Serif" font-size="10.00"> </text>
<polyline fill="none" stroke="black" points="864,-41.5 1028,-41.5 "/>
<text text-anchor="start" x="872" y="-29.5" font-family="Helvetica,sans-Serif" font-size="10.00">+ BidomainNeumannSurfaceTerm</text>
<text text-anchor="start" x="872" y="-18.5" font-family="Helvetica,sans-Serif" font-size="10.00">Assembler()</text>
<text text-anchor="start" x="872" y="-7.5" font-family="Helvetica,sans-Serif" font-size="10.00"># ComputeVectorSurfaceTerm()</text>
</g>
<!-- Node2 -->
<g id="node2" class="node"><title>Node2</title>
<g id="a_node2"><a xlink:href="classAbstractFeSurfaceIntegralAssembler.html" target="_top" xlink:title="{AbstractFeSurfaceIntegral\lAssembler\&lt; ELEMENT_DIM,\l SPACE_DIM, 2 \&gt;\n||+ AbstractFeSurfaceIntegral\lAssembler()\l+ ~AbstractFeSurfaceIntegral\lAssembler()\l+ ResetBoundaryConditionsContainer()\l# ComputeVectorSurfaceTerm()\l# AssembleOnSurfaceElement()\l# DoAssemble()\l}">
<polygon fill="white" stroke="black" points="852,-141 852,-297 1040,-297 1040,-141 852,-141"/>
<text text-anchor="start" x="860" y="-285" font-family="Helvetica,sans-Serif" font-size="10.00">AbstractFeSurfaceIntegral</text>
<text text-anchor="start" x="860" y="-274" font-family="Helvetica,sans-Serif" font-size="10.00">Assembler&lt; ELEMENT_DIM,</text>
<text text-anchor="middle" x="946" y="-263" font-family="Helvetica,sans-Serif" font-size="10.00"> SPACE_DIM, 2 &gt;</text>
<polyline fill="none" stroke="black" points="852,-256 1040,-256 "/>
<text text-anchor="middle" x="946" y="-244" font-family="Helvetica,sans-Serif" font-size="10.00"> </text>
<polyline fill="none" stroke="black" points="852,-237 1040,-237 "/>
<text text-anchor="start" x="860" y="-225" font-family="Helvetica,sans-Serif" font-size="10.00">+ AbstractFeSurfaceIntegral</text>
<text text-anchor="start" x="860" y="-214" font-family="Helvetica,sans-Serif" font-size="10.00">Assembler()</text>
<text text-anchor="start" x="860" y="-203" font-family="Helvetica,sans-Serif" font-size="10.00">+ ~AbstractFeSurfaceIntegral</text>
<text text-anchor="start" x="860" y="-192" font-family="Helvetica,sans-Serif" font-size="10.00">Assembler()</text>
<text text-anchor="start" x="860" y="-181" font-family="Helvetica,sans-Serif" font-size="10.00">+ ResetBoundaryConditionsContainer()</text>
<text text-anchor="start" x="860" y="-170" font-family="Helvetica,sans-Serif" font-size="10.00"># ComputeVectorSurfaceTerm()</text>
<text text-anchor="start" x="860" y="-159" font-family="Helvetica,sans-Serif" font-size="10.00"># AssembleOnSurfaceElement()</text>
<text text-anchor="start" x="860" y="-148" font-family="Helvetica,sans-Serif" font-size="10.00"># DoAssemble()</text>
</a>
</g>
</g>
<!-- Node2&#45;&gt;Node1 -->
<g id="edge1" class="edge"><title>Node2&#45;&gt;Node1</title>
<path fill="none" stroke="midnightblue" d="M946,-130.6C946,-120.787 946,-111.057 946,-101.96"/>
<polygon fill="none" stroke="midnightblue" points="942.5,-130.832 946,-140.832 949.5,-130.832 942.5,-130.832"/>
</g>
<!-- Node3 -->
<g id="node3" class="node"><title>Node3</title>
<g id="a_node3"><a xlink:href="classAbstractFeAssemblerCommon.html" target="_top" xlink:title="{AbstractFeAssemblerCommon\l\&lt; ELEMENT_DIM, SPACE_DIM,\l PROBLEM_DIM, true, false,\l NORMAL \&gt;\n||+ AbstractFeAssemblerCommon()\l+ SetCurrentSolution()\l+ ~AbstractFeAssemblerCommon()\l# GetCurrentSolutionOrGuess\lValue()\l# ResetInterpolatedQuantities()\l# IncrementInterpolatedQuantities()\l# IncrementInterpolatedGradient\lQuantities()\l}">
<polygon fill="white" stroke="black" points="530,-563 530,-741 702,-741 702,-563 530,-563"/>
<text text-anchor="start" x="538" y="-729" font-family="Helvetica,sans-Serif" font-size="10.00">AbstractFeAssemblerCommon</text>
<text text-anchor="start" x="538" y="-718" font-family="Helvetica,sans-Serif" font-size="10.00">&lt; ELEMENT_DIM, SPACE_DIM,</text>
<text text-anchor="start" x="538" y="-707" font-family="Helvetica,sans-Serif" font-size="10.00"> PROBLEM_DIM, true, false,</text>
<text text-anchor="middle" x="616" y="-696" font-family="Helvetica,sans-Serif" font-size="10.00"> NORMAL &gt;</text>
<polyline fill="none" stroke="black" points="530,-689 702,-689 "/>
<text text-anchor="middle" x="616" y="-677" font-family="Helvetica,sans-Serif" font-size="10.00"> </text>
<polyline fill="none" stroke="black" points="530,-670 702,-670 "/>
<text text-anchor="start" x="538" y="-658" font-family="Helvetica,sans-Serif" font-size="10.00">+ AbstractFeAssemblerCommon()</text>
<text text-anchor="start" x="538" y="-647" font-family="Helvetica,sans-Serif" font-size="10.00">+ SetCurrentSolution()</text>
<text text-anchor="start" x="538" y="-636" font-family="Helvetica,sans-Serif" font-size="10.00">+ ~AbstractFeAssemblerCommon()</text>
<text text-anchor="start" x="538" y="-625" font-family="Helvetica,sans-Serif" font-size="10.00"># GetCurrentSolutionOrGuess</text>
<text text-anchor="start" x="538" y="-614" font-family="Helvetica,sans-Serif" font-size="10.00">Value()</text>
<text text-anchor="start" x="538" y="-603" font-family="Helvetica,sans-Serif" font-size="10.00"># ResetInterpolatedQuantities()</text>
<text text-anchor="start" x="538" y="-592" font-family="Helvetica,sans-Serif" font-size="10.00"># IncrementInterpolatedQuantities()</text>
<text text-anchor="start" x="538" y="-581" font-family="Helvetica,sans-Serif" font-size="10.00"># IncrementInterpolatedGradient</text>
<text text-anchor="start" x="538" y="-570" font-family="Helvetica,sans-Serif" font-size="10.00">Quantities()</text>
</a>
</g>
</g>
<!-- Node3&#45;&gt;Node2 -->
<g id="edge2" class="edge"><title>Node3&#45;&gt;Node2</title>
<path fill="none" stroke="midnightblue" d="M626.318,-552.686C637.101,-490.742 659.112,-412.154 704,-356 741.991,-308.473 801.367,-274.747 851.796,-252.768"/>
<polygon fill="none" stroke="midnightblue" points="622.812,-552.43 624.619,-562.869 629.717,-553.581 622.812,-552.43"/>
</g>
<!-- Node21 -->
<g id="node21" class="node"><title>Node21</title>
<g id="a_node21"><a xlink:href="classAbstractFeSurfaceIntegralAssembler.html" target="_top" xlink:title="{AbstractFeSurfaceIntegral\lAssembler\&lt; ELEMENT_DIM,\l SPACE_DIM, PROBLEM_DIM \&gt;\n||+ AbstractFeSurfaceIntegral\lAssembler()\l+ ~AbstractFeSurfaceIntegral\lAssembler()\l+ ResetBoundaryConditionsContainer()\l# ComputeVectorSurfaceTerm()\l# AssembleOnSurfaceElement()\l# DoAssemble()\l}">
<polygon fill="white" stroke="black" points="713,-357 713,-513 901,-513 901,-357 713,-357"/>
<text text-anchor="start" x="721" y="-501" font-family="Helvetica,sans-Serif" font-size="10.00">AbstractFeSurfaceIntegral</text>
<text text-anchor="start" x="721" y="-490" font-family="Helvetica,sans-Serif" font-size="10.00">Assembler&lt; ELEMENT_DIM,</text>
<text text-anchor="middle" x="807" y="-479" font-family="Helvetica,sans-Serif" font-size="10.00"> SPACE_DIM, PROBLEM_DIM &gt;</text>
<polyline fill="none" stroke="black" points="713,-472 901,-472 "/>
<text text-anchor="middle" x="807" y="-460" font-family="Helvetica,sans-Serif" font-size="10.00"> </text>
<polyline fill="none" stroke="black" points="713,-453 901,-453 "/>
<text text-anchor="start" x="721" y="-441" font-family="Helvetica,sans-Serif" font-size="10.00">+ AbstractFeSurfaceIntegral</text>
<text text-anchor="start" x="721" y="-430" font-family="Helvetica,sans-Serif" font-size="10.00">Assembler()</text>
<text text-anchor="start" x="721" y="-419" font-family="Helvetica,sans-Serif" font-size="10.00">+ ~AbstractFeSurfaceIntegral</text>
<text text-anchor="start" x="721" y="-408" font-family="Helvetica,sans-Serif" font-size="10.00">Assembler()</text>
<text text-anchor="start" x="721" y="-397" font-family="Helvetica,sans-Serif" font-size="10.00">+ ResetBoundaryConditionsContainer()</text>
<text text-anchor="start" x="721" y="-386" font-family="Helvetica,sans-Serif" font-size="10.00"># ComputeVectorSurfaceTerm()</text>
<text text-anchor="start" x="721" y="-375" font-family="Helvetica,sans-Serif" font-size="10.00"># AssembleOnSurfaceElement()</text>
<text text-anchor="start" x="721" y="-364" font-family="Helvetica,sans-Serif" font-size="10.00"># DoAssemble()</text>
</a>
</g>
</g>
<!-- Node3&#45;&gt;Node21 -->
<g id="edge28" class="edge"><title>Node3&#45;&gt;Node21</title>
<path fill="none" stroke="midnightblue" d="M701.131,-555.172C713.592,-541.145 726.292,-526.85 738.367,-513.257"/>
<polygon fill="none" stroke="midnightblue" points="698.263,-553.13 694.238,-562.931 703.496,-557.779 698.263,-553.13"/>
</g>
<!-- Node4 -->
<g id="node4" class="node"><title>Node4</title>
<g id="a_node4"><a xlink:href="classAbstractFeAssemblerInterface.html" target="_top" xlink:title="{AbstractFeAssemblerInterface\l\&lt; CAN_ASSEMBLE_VECTOR, CAN\l_ASSEMBLE_MATRIX \&gt;\n||+ AbstractFeAssemblerInterface()\l+ SetMatrixToAssemble()\l+ SetVectorToAssemble()\l+ Assemble()\l+ AssembleMatrix()\l+ AssembleVector()\l+ ~AbstractFeAssemblerInterface()\l# DoAssemble()\l}">
<polygon fill="white" stroke="black" points="294,-1061 294,-1217 476,-1217 476,-1061 294,-1061"/>
<text text-anchor="start" x="302" y="-1205" font-family="Helvetica,sans-Serif" font-size="10.00">AbstractFeAssemblerInterface</text>
<text text-anchor="start" x="302" y="-1194" font-family="Helvetica,sans-Serif" font-size="10.00">&lt; CAN_ASSEMBLE_VECTOR, CAN</text>
<text text-anchor="middle" x="385" y="-1183" font-family="Helvetica,sans-Serif" font-size="10.00">_ASSEMBLE_MATRIX &gt;</text>
<polyline fill="none" stroke="black" points="294,-1176 476,-1176 "/>
<text text-anchor="middle" x="385" y="-1164" font-family="Helvetica,sans-Serif" font-size="10.00"> </text>
<polyline fill="none" stroke="black" points="294,-1157 476,-1157 "/>
<text text-anchor="start" x="302" y="-1145" font-family="Helvetica,sans-Serif" font-size="10.00">+ AbstractFeAssemblerInterface()</text>
<text text-anchor="start" x="302" y="-1134" font-family="Helvetica,sans-Serif" font-size="10.00">+ SetMatrixToAssemble()</text>
<text text-anchor="start" x="302" y="-1123" font-family="Helvetica,sans-Serif" font-size="10.00">+ SetVectorToAssemble()</text>
<text text-anchor="start" x="302" y="-1112" font-family="Helvetica,sans-Serif" font-size="10.00">+ Assemble()</text>
<text text-anchor="start" x="302" y="-1101" font-family="Helvetica,sans-Serif" font-size="10.00">+ AssembleMatrix()</text>
<text text-anchor="start" x="302" y="-1090" font-family="Helvetica,sans-Serif" font-size="10.00">+ AssembleVector()</text>
<text text-anchor="start" x="302" y="-1079" font-family="Helvetica,sans-Serif" font-size="10.00">+ ~AbstractFeAssemblerInterface()</text>
<text text-anchor="start" x="302" y="-1068" font-family="Helvetica,sans-Serif" font-size="10.00"># DoAssemble()</text>
</a>
</g>
</g>
<!-- Node4&#45;&gt;Node3 -->
<g id="edge3" class="edge"><title>Node4&#45;&gt;Node3</title>
<path fill="none" stroke="midnightblue" d="M468.45,-1053.08C481.561,-1036.96 494.046,-1019.6 504,-1002 550.752,-919.33 581.059,-814.43 598.205,-741.32"/>
<polygon fill="none" stroke="midnightblue" points="465.662,-1050.96 461.972,-1060.9 471.05,-1055.43 465.662,-1050.96"/>
</g>
<!-- Node14 -->
<g id="node14" class="node"><title>Node14</title>
<g id="a_node14"><a xlink:href="classAbstractFeAssemblerCommon.html" target="_top" xlink:title="{AbstractFeAssemblerCommon\l\&lt; ELEMENT_DIM, SPACE_DIM,\l PROBLEM_DIM, CAN_ASSEMBLE\l_VECTOR, CAN_ASSEMBLE_MATRIX,\l INTERPOLATION_LEVEL \&gt;\n||+ AbstractFeAssemblerCommon()\l+ SetCurrentSolution()\l+ ~AbstractFeAssemblerCommon()\l# GetCurrentSolutionOrGuess\lValue()\l# ResetInterpolatedQuantities()\l# IncrementInterpolatedQuantities()\l# IncrementInterpolatedGradient\lQuantities()\l}">
<polygon fill="white" stroke="black" points="298.5,-812.5 298.5,-1001.5 495.5,-1001.5 495.5,-812.5 298.5,-812.5"/>
<text text-anchor="start" x="306.5" y="-989.5" font-family="Helvetica,sans-Serif" font-size="10.00">AbstractFeAssemblerCommon</text>
<text text-anchor="start" x="306.5" y="-978.5" font-family="Helvetica,sans-Serif" font-size="10.00">&lt; ELEMENT_DIM, SPACE_DIM,</text>
<text text-anchor="start" x="306.5" y="-967.5" font-family="Helvetica,sans-Serif" font-size="10.00"> PROBLEM_DIM, CAN_ASSEMBLE</text>
<text text-anchor="start" x="306.5" y="-956.5" font-family="Helvetica,sans-Serif" font-size="10.00">_VECTOR, CAN_ASSEMBLE_MATRIX,</text>
<text text-anchor="middle" x="397" y="-945.5" font-family="Helvetica,sans-Serif" font-size="10.00"> INTERPOLATION_LEVEL &gt;</text>
<polyline fill="none" stroke="black" points="298.5,-938.5 495.5,-938.5 "/>
<text text-anchor="middle" x="397" y="-926.5" font-family="Helvetica,sans-Serif" font-size="10.00"> </text>
<polyline fill="none" stroke="black" points="298.5,-919.5 495.5,-919.5 "/>
<text text-anchor="start" x="306.5" y="-907.5" font-family="Helvetica,sans-Serif" font-size="10.00">+ AbstractFeAssemblerCommon()</text>
<text text-anchor="start" x="306.5" y="-896.5" font-family="Helvetica,sans-Serif" font-size="10.00">+ SetCurrentSolution()</text>
<text text-anchor="start" x="306.5" y="-885.5" font-family="Helvetica,sans-Serif" font-size="10.00">+ ~AbstractFeAssemblerCommon()</text>
<text text-anchor="start" x="306.5" y="-874.5" font-family="Helvetica,sans-Serif" font-size="10.00"># GetCurrentSolutionOrGuess</text>
<text text-anchor="start" x="306.5" y="-863.5" font-family="Helvetica,sans-Serif" font-size="10.00">Value()</text>
<text text-anchor="start" x="306.5" y="-852.5" font-family="Helvetica,sans-Serif" font-size="10.00"># ResetInterpolatedQuantities()</text>
<text text-anchor="start" x="306.5" y="-841.5" font-family="Helvetica,sans-Serif" font-size="10.00"># IncrementInterpolatedQuantities()</text>
<text text-anchor="start" x="306.5" y="-830.5" font-family="Helvetica,sans-Serif" font-size="10.00"># IncrementInterpolatedGradient</text>
<text text-anchor="start" x="306.5" y="-819.5" font-family="Helvetica,sans-Serif" font-size="10.00">Quantities()</text>
</a>
</g>
</g>
<!-- Node4&#45;&gt;Node14 -->
<g id="edge15" class="edge"><title>Node4&#45;&gt;Node14</title>
<path fill="none" stroke="midnightblue" d="M389.568,-1050.44C390.399,-1034.53 391.268,-1017.87 392.107,-1001.79"/>
<polygon fill="none" stroke="midnightblue" points="386.055,-1050.6 389.029,-1060.77 393.046,-1050.97 386.055,-1050.6"/>
</g>
<!-- Node5 -->
<g id="node5" class="node"><title>Node5</title>
<polygon fill="white" stroke="#bfbfbf" points="-0.5,-1304.5 -0.5,-1361.5 70.5,-1361.5 70.5,-1304.5 -0.5,-1304.5"/>
<text text-anchor="middle" x="35" y="-1349.5" font-family="Helvetica,sans-Serif" font-size="10.00">noncopyable</text>
<polyline fill="none" stroke="#bfbfbf" points="-0.5,-1342.5 70.5,-1342.5 "/>
<text text-anchor="middle" x="35" y="-1330.5" font-family="Helvetica,sans-Serif" font-size="10.00"> </text>
<polyline fill="none" stroke="#bfbfbf" points="-0.5,-1323.5 70.5,-1323.5 "/>
<text text-anchor="middle" x="35" y="-1311.5" font-family="Helvetica,sans-Serif" font-size="10.00"> </text>
</g>
<!-- Node5&#45;&gt;Node4 -->
<g id="edge4" class="edge"><title>Node5&#45;&gt;Node4</title>
<path fill="none" stroke="#8b1a1a" d="M54.4368,-1295.79C66.838,-1275.71 84.5936,-1251.7 106,-1236 161.664,-1195.18 236.029,-1170.74 293.986,-1156.74"/>
<polygon fill="none" stroke="#8b1a1a" points="51.4126,-1294.03 49.2886,-1304.41 57.4219,-1297.62 51.4126,-1294.03"/>
</g>
<!-- Node6 -->
<g id="node6" class="node"><title>Node6</title>
<g id="a_node6"><a xlink:href="classbool.html" target="_top" xlink:title="{bool\n||}">
<polygon fill="white" stroke="black" points="88.5,-1304.5 88.5,-1361.5 123.5,-1361.5 123.5,-1304.5 88.5,-1304.5"/>
<text text-anchor="middle" x="106" y="-1349.5" font-family="Helvetica,sans-Serif" font-size="10.00">bool</text>
<polyline fill="none" stroke="black" points="88.5,-1342.5 123.5,-1342.5 "/>
<text text-anchor="middle" x="106" y="-1330.5" font-family="Helvetica,sans-Serif" font-size="10.00"> </text>
<polyline fill="none" stroke="black" points="88.5,-1323.5 123.5,-1323.5 "/>
<text text-anchor="middle" x="106" y="-1311.5" font-family="Helvetica,sans-Serif" font-size="10.00"> </text>
</a>
</g>
</g>
<!-- Node6&#45;&gt;Node4 -->
<g id="edge5" class="edge"><title>Node6&#45;&gt;Node4</title>
<path fill="none" stroke="#404040" d="M106.243,-1304.43C107.854,-1283.32 113.314,-1254.73 130,-1236 168.912,-1192.33 229.724,-1168.45 282.203,-1155.43"/>
<polygon fill="none" stroke="#404040" points="282.274,-1155.41 287.196,-1150.14 293.954,-1152.66 289.032,-1157.93 282.274,-1155.41"/>
<text text-anchor="middle" x="197" y="-1272" font-family="Helvetica,sans-Serif" font-size="10.00"> #mAssembleVector</text>
<text text-anchor="middle" x="197" y="-1261" font-family="Helvetica,sans-Serif" font-size="10.00">#mZeroVectorBeforeAssembly</text>
<text text-anchor="middle" x="197" y="-1250" font-family="Helvetica,sans-Serif" font-size="10.00">#mAssembleMatrix</text>
<text text-anchor="middle" x="197" y="-1239" font-family="Helvetica,sans-Serif" font-size="10.00">#mZeroMatrixBeforeAssembly</text>
</g>
<!-- Node7 -->
<g id="node7" class="node"><title>Node7</title>
<g id="a_node7"><a xlink:href="classMat.html" target="_top" xlink:title="{Mat\n||}">
<polygon fill="white" stroke="black" points="246.5,-1304.5 246.5,-1361.5 279.5,-1361.5 279.5,-1304.5 246.5,-1304.5"/>
<text text-anchor="middle" x="263" y="-1349.5" font-family="Helvetica,sans-Serif" font-size="10.00">Mat</text>
<polyline fill="none" stroke="black" points="246.5,-1342.5 279.5,-1342.5 "/>
<text text-anchor="middle" x="263" y="-1330.5" font-family="Helvetica,sans-Serif" font-size="10.00"> </text>
<polyline fill="none" stroke="black" points="246.5,-1323.5 279.5,-1323.5 "/>
<text text-anchor="middle" x="263" y="-1311.5" font-family="Helvetica,sans-Serif" font-size="10.00"> </text>
</a>
</g>
</g>
<!-- Node7&#45;&gt;Node4 -->
<g id="edge6" class="edge"><title>Node7&#45;&gt;Node4</title>
<path fill="none" stroke="#404040" d="M263.966,-1304.38C265.703,-1284.31 270.265,-1257.08 282,-1236 283.7,-1232.95 285.531,-1229.93 287.474,-1226.97"/>
<polygon fill="none" stroke="#404040" points="287.546,-1226.87 287.748,-1219.66 294.479,-1217.07 294.277,-1224.28 287.546,-1226.87"/>
<text text-anchor="middle" x="331.5" y="-1255.5" font-family="Helvetica,sans-Serif" font-size="10.00"> #mMatrixToAssemble</text>
</g>
<!-- Node8 -->
<g id="node8" class="node"><title>Node8</title>
<g id="a_node8"><a xlink:href="classPetscInt.html" target="_top" xlink:title="{PetscInt\n||}">
<polygon fill="white" stroke="black" points="358.5,-1304.5 358.5,-1361.5 411.5,-1361.5 411.5,-1304.5 358.5,-1304.5"/>
<text text-anchor="middle" x="385" y="-1349.5" font-family="Helvetica,sans-Serif" font-size="10.00">PetscInt</text>
<polyline fill="none" stroke="black" points="358.5,-1342.5 411.5,-1342.5 "/>
<text text-anchor="middle" x="385" y="-1330.5" font-family="Helvetica,sans-Serif" font-size="10.00"> </text>
<polyline fill="none" stroke="black" points="358.5,-1323.5 411.5,-1323.5 "/>
<text text-anchor="middle" x="385" y="-1311.5" font-family="Helvetica,sans-Serif" font-size="10.00"> </text>
</a>
</g>
</g>
<!-- Node8&#45;&gt;Node4 -->
<g id="edge7" class="edge"><title>Node8&#45;&gt;Node4</title>
<path fill="none" stroke="#404040" d="M385,-1304.49C385,-1284.62 385,-1256.58 385,-1229.27"/>
<polygon fill="none" stroke="#404040" points="385,-1229.22 381,-1223.22 385,-1217.22 389,-1223.22 385,-1229.22"/>
<text text-anchor="middle" x="436" y="-1261" font-family="Helvetica,sans-Serif" font-size="10.00"> #mOwnershipRangeHi</text>
<text text-anchor="middle" x="436" y="-1250" font-family="Helvetica,sans-Serif" font-size="10.00">#mOwnershipRangeLo</text>
</g>
<!-- Node9 -->
<g id="node9" class="node"><title>Node9</title>
<g id="a_node9"><a xlink:href="classVec.html" target="_top" xlink:title="{Vec\n||}">
<polygon fill="white" stroke="black" points="554,-1304.5 554,-1361.5 588,-1361.5 588,-1304.5 554,-1304.5"/>
<text text-anchor="middle" x="571" y="-1349.5" font-family="Helvetica,sans-Serif" font-size="10.00">Vec</text>
<polyline fill="none" stroke="black" points="554,-1342.5 588,-1342.5 "/>
<text text-anchor="middle" x="571" y="-1330.5" font-family="Helvetica,sans-Serif" font-size="10.00"> </text>
<polyline fill="none" stroke="black" points="554,-1323.5 588,-1323.5 "/>
<text text-anchor="middle" x="571" y="-1311.5" font-family="Helvetica,sans-Serif" font-size="10.00"> </text>
</a>
</g>
</g>
<!-- Node9&#45;&gt;Node4 -->
<g id="edge8" class="edge"><title>Node9&#45;&gt;Node4</title>
<path fill="none" stroke="#404040" d="M553.836,-1321.44C539.707,-1312.03 519.963,-1297.12 507,-1280 494.142,-1263.02 500.274,-1253.41 488,-1236 485.746,-1232.8 483.372,-1229.63 480.901,-1226.49"/>
<polygon fill="none" stroke="#404040" points="480.861,-1226.44 473.956,-1224.36 473.221,-1217.19 480.126,-1219.27 480.861,-1226.44"/>
<text text-anchor="middle" x="557" y="-1255.5" font-family="Helvetica,sans-Serif" font-size="10.00"> #mVectorToAssemble</text>
</g>
<!-- Node10 -->
<g id="node10" class="node"><title>Node10</title>
<g id="a_node10"><a xlink:href="classReplicatableVector.html" target="_top" xlink:title="{ReplicatableVector\n||+ ReplicatableVector()\l+ ReplicatableVector()\l+ ReplicatableVector()\l+ ~ReplicatableVector()\l+ GetSize()\l+ Resize()\l+ operator[]()\l+ Replicate()\l+ ReplicatePetscVector()\l&#45; RemovePetscContext()\l}">
<polygon fill="white" stroke="black" points="651.5,-1061 651.5,-1217 778.5,-1217 778.5,-1061 651.5,-1061"/>
<text text-anchor="middle" x="715" y="-1205" font-family="Helvetica,sans-Serif" font-size="10.00">ReplicatableVector</text>
<polyline fill="none" stroke="black" points="651.5,-1198 778.5,-1198 "/>
<text text-anchor="middle" x="715" y="-1186" font-family="Helvetica,sans-Serif" font-size="10.00"> </text>
<polyline fill="none" stroke="black" points="651.5,-1179 778.5,-1179 "/>
<text text-anchor="start" x="659.5" y="-1167" font-family="Helvetica,sans-Serif" font-size="10.00">+ ReplicatableVector()</text>
<text text-anchor="start" x="659.5" y="-1156" font-family="Helvetica,sans-Serif" font-size="10.00">+ ReplicatableVector()</text>
<text text-anchor="start" x="659.5" y="-1145" font-family="Helvetica,sans-Serif" font-size="10.00">+ ReplicatableVector()</text>
<text text-anchor="start" x="659.5" y="-1134" font-family="Helvetica,sans-Serif" font-size="10.00">+ ~ReplicatableVector()</text>
<text text-anchor="start" x="659.5" y="-1123" font-family="Helvetica,sans-Serif" font-size="10.00">+ GetSize()</text>
<text text-anchor="start" x="659.5" y="-1112" font-family="Helvetica,sans-Serif" font-size="10.00">+ Resize()</text>
<text text-anchor="start" x="659.5" y="-1101" font-family="Helvetica,sans-Serif" font-size="10.00">+ operator[]()</text>
<text text-anchor="start" x="659.5" y="-1090" font-family="Helvetica,sans-Serif" font-size="10.00">+ Replicate()</text>
<text text-anchor="start" x="659.5" y="-1079" font-family="Helvetica,sans-Serif" font-size="10.00">+ ReplicatePetscVector()</text>
<text text-anchor="start" x="659.5" y="-1068" font-family="Helvetica,sans-Serif" font-size="10.00">&#45; RemovePetscContext()</text>
</a>
</g>
</g>
<!-- Node9&#45;&gt;Node10 -->
<g id="edge13" class="edge"><title>Node9&#45;&gt;Node10</title>
<path fill="none" stroke="#404040" d="M588.015,-1310.05C595.151,-1300.8 603.513,-1289.9 611,-1280 623.941,-1262.88 637.688,-1244.51 650.803,-1226.89"/>
<polygon fill="none" stroke="#404040" points="650.853,-1226.83 651.224,-1219.62 658.014,-1217.2 657.643,-1224.4 650.853,-1226.83"/>
<text text-anchor="middle" x="673.5" y="-1255.5" font-family="Helvetica,sans-Serif" font-size="10.00"> &#45;mReplicated</text>
</g>
<!-- Node10&#45;&gt;Node3 -->
<g id="edge9" class="edge"><title>Node10&#45;&gt;Node3</title>
<path fill="none" stroke="#404040" d="M705.512,-1060.73C703.56,-1047.12 701.369,-1033.12 699,-1020 682.593,-929.114 658.994,-826.681 641.15,-753.174"/>
<polygon fill="none" stroke="#404040" points="641.067,-752.833 635.76,-747.951 638.226,-741.174 643.532,-746.056 641.067,-752.833"/>
<text text-anchor="start" x="695" y="-910" font-family="Helvetica,sans-Serif" font-size="10.00"> #mCurrentSolutionOrGuess</text>
<text text-anchor="middle" x="757" y="-899" font-family="Helvetica,sans-Serif" font-size="10.00">Replicated</text>
</g>
<!-- Node10&#45;&gt;Node14 -->
<g id="edge16" class="edge"><title>Node10&#45;&gt;Node14</title>
<path fill="none" stroke="#404040" d="M651.166,-1095.1C627.127,-1078.72 599.649,-1059.72 575,-1042 552.326,-1025.7 528.286,-1007.94 505.453,-990.84"/>
<polygon fill="none" stroke="#404040" points="505.346,-990.76 498.147,-990.357 495.749,-983.556 502.949,-983.959 505.346,-990.76"/>
<text text-anchor="start" x="575" y="-1034" font-family="Helvetica,sans-Serif" font-size="10.00"> #mCurrentSolutionOrGuess</text>
<text text-anchor="middle" x="637" y="-1023" font-family="Helvetica,sans-Serif" font-size="10.00">Replicated</text>
</g>
<!-- Node11 -->
<g id="node11" class="node"><title>Node11</title>
<g id="a_node11"><a xlink:href="classdouble.html" target="_top" xlink:title="{double\n||}">
<polygon fill="white" stroke="black" points="691.5,-1304.5 691.5,-1361.5 736.5,-1361.5 736.5,-1304.5 691.5,-1304.5"/>
<text text-anchor="middle" x="714" y="-1349.5" font-family="Helvetica,sans-Serif" font-size="10.00">double</text>
<polyline fill="none" stroke="black" points="691.5,-1342.5 736.5,-1342.5 "/>
<text text-anchor="middle" x="714" y="-1330.5" font-family="Helvetica,sans-Serif" font-size="10.00"> </text>
<polyline fill="none" stroke="black" points="691.5,-1323.5 736.5,-1323.5 "/>
<text text-anchor="middle" x="714" y="-1311.5" font-family="Helvetica,sans-Serif" font-size="10.00"> </text>
</a>
</g>
</g>
<!-- Node11&#45;&gt;Node10 -->
<g id="edge10" class="edge"><title>Node11&#45;&gt;Node10</title>
<path fill="none" stroke="#404040" d="M714.143,-1304.49C714.247,-1284.62 714.393,-1256.58 714.535,-1229.27"/>
<polygon fill="none" stroke="#404040" points="714.535,-1229.22 710.567,-1223.2 714.598,-1217.22 718.566,-1223.24 714.535,-1229.22"/>
<text text-anchor="middle" x="735.5" y="-1255.5" font-family="Helvetica,sans-Serif" font-size="10.00"> &#45;mpData</text>
</g>
<!-- Node12 -->
<g id="node12" class="node"><title>Node12</title>
<polygon fill="white" stroke="#bfbfbf" points="754.5,-1304.5 754.5,-1361.5 819.5,-1361.5 819.5,-1304.5 754.5,-1304.5"/>
<text text-anchor="middle" x="787" y="-1349.5" font-family="Helvetica,sans-Serif" font-size="10.00">VecScatter</text>
<polyline fill="none" stroke="#bfbfbf" points="754.5,-1342.5 819.5,-1342.5 "/>
<text text-anchor="middle" x="787" y="-1330.5" font-family="Helvetica,sans-Serif" font-size="10.00"> </text>
<polyline fill="none" stroke="#bfbfbf" points="754.5,-1323.5 819.5,-1323.5 "/>
<text text-anchor="middle" x="787" y="-1311.5" font-family="Helvetica,sans-Serif" font-size="10.00"> </text>
</g>
<!-- Node12&#45;&gt;Node10 -->
<g id="edge11" class="edge"><title>Node12&#45;&gt;Node10</title>
<path fill="none" stroke="#404040" d="M780.495,-1304.31C775.632,-1284.92 768.393,-1258.55 760,-1236 759.061,-1233.48 758.083,-1230.93 757.072,-1228.37"/>
<polygon fill="none" stroke="#404040" points="756.999,-1228.19 751.027,-1224.15 752.46,-1217.08 758.432,-1221.12 756.999,-1228.19"/>
<text text-anchor="middle" x="792.5" y="-1255.5" font-family="Helvetica,sans-Serif" font-size="10.00"> &#45;mToAll</text>
</g>
<!-- Node13 -->
<g id="node13" class="node"><title>Node13</title>
<g id="a_node13"><a xlink:href="classunsigned.html" target="_top" xlink:title="{unsigned\n||}">
<polygon fill="white" stroke="black" points="866,-1304.5 866,-1361.5 922,-1361.5 922,-1304.5 866,-1304.5"/>
<text text-anchor="middle" x="894" y="-1349.5" font-family="Helvetica,sans-Serif" font-size="10.00">unsigned</text>
<polyline fill="none" stroke="black" points="866,-1342.5 922,-1342.5 "/>
<text text-anchor="middle" x="894" y="-1330.5" font-family="Helvetica,sans-Serif" font-size="10.00"> </text>
<polyline fill="none" stroke="black" points="866,-1323.5 922,-1323.5 "/>
<text text-anchor="middle" x="894" y="-1311.5" font-family="Helvetica,sans-Serif" font-size="10.00"> </text>
</a>
</g>
</g>
<!-- Node13&#45;&gt;Node10 -->
<g id="edge12" class="edge"><title>Node13&#45;&gt;Node10</title>
<path fill="none" stroke="#404040" d="M867.146,-1304.26C860.06,-1296.58 852.563,-1288.12 846,-1280 830.966,-1261.39 830.589,-1254.14 815,-1236 806.475,-1226.08 797.061,-1216.04 787.521,-1206.38"/>
<polygon fill="none" stroke="#404040" points="787.245,-1206.11 780.171,-1204.71 778.745,-1197.64 785.819,-1199.04 787.245,-1206.11"/>
<text text-anchor="middle" x="863" y="-1255.5" font-family="Helvetica,sans-Serif" font-size="10.00"> &#45;mSize</text>
</g>
<!-- Node15 -->
<g id="node15" class="node"><title>Node15</title>
<g id="a_node15"><a xlink:href="classGaussianQuadratureRule.html" target="_top" xlink:title="{GaussianQuadratureRule\l\&lt; ELEMENT_DIM&#45;1 \&gt;\n||+ GaussianQuadratureRule()\l+ rGetQuadPoint()\l+ GetWeight()\l+ GetNumQuadPoints()\l}">
<polygon fill="white" stroke="black" points="1023.5,-856.5 1023.5,-957.5 1164.5,-957.5 1164.5,-856.5 1023.5,-856.5"/>
<text text-anchor="start" x="1031.5" y="-945.5" font-family="Helvetica,sans-Serif" font-size="10.00">GaussianQuadratureRule</text>
<text text-anchor="middle" x="1094" y="-934.5" font-family="Helvetica,sans-Serif" font-size="10.00">&lt; ELEMENT_DIM&#45;1 &gt;</text>
<polyline fill="none" stroke="black" points="1023.5,-927.5 1164.5,-927.5 "/>
<text text-anchor="middle" x="1094" y="-915.5" font-family="Helvetica,sans-Serif" font-size="10.00"> </text>
<polyline fill="none" stroke="black" points="1023.5,-908.5 1164.5,-908.5 "/>
<text text-anchor="start" x="1031.5" y="-896.5" font-family="Helvetica,sans-Serif" font-size="10.00">+ GaussianQuadratureRule()</text>
<text text-anchor="start" x="1031.5" y="-885.5" font-family="Helvetica,sans-Serif" font-size="10.00">+ rGetQuadPoint()</text>
<text text-anchor="start" x="1031.5" y="-874.5" font-family="Helvetica,sans-Serif" font-size="10.00">+ GetWeight()</text>
<text text-anchor="start" x="1031.5" y="-863.5" font-family="Helvetica,sans-Serif" font-size="10.00">+ GetNumQuadPoints()</text>
</a>
</g>
</g>
<!-- Node13&#45;&gt;Node15 -->
<g id="edge20" class="edge"><title>Node13&#45;&gt;Node15</title>
<path fill="none" stroke="#404040" d="M893.227,-1304.4C892.929,-1253.2 897.67,-1141.36 940,-1060 958.696,-1024.07 988.964,-991.435 1017.74,-965.701"/>
<polygon fill="none" stroke="#404040" points="1017.98,-965.492 1019.86,-958.531 1027.01,-957.593 1025.13,-964.553 1017.98,-965.492"/>
<text text-anchor="middle" x="983.5" y="-1136.5" font-family="Helvetica,sans-Serif" font-size="10.00"> &#45;mNumQuadPoints</text>
</g>
<!-- Node18 -->
<g id="node18" class="node"><title>Node18</title>
<g id="a_node18"><a xlink:href="classGaussianQuadratureRule.html" target="_top" xlink:title="{GaussianQuadratureRule\l\&lt; ELEMENT_DIM \&gt;\n||+ GaussianQuadratureRule()\l+ rGetQuadPoint()\l+ GetWeight()\l+ GetNumQuadPoints()\l+ GaussianQuadratureRule()\l+ GaussianQuadratureRule()\l+ GaussianQuadratureRule()\l}">
<polygon fill="white" stroke="black" points="1098.5,-1072 1098.5,-1206 1239.5,-1206 1239.5,-1072 1098.5,-1072"/>
<text text-anchor="start" x="1106.5" y="-1194" font-family="Helvetica,sans-Serif" font-size="10.00">GaussianQuadratureRule</text>
<text text-anchor="middle" x="1169" y="-1183" font-family="Helvetica,sans-Serif" font-size="10.00">&lt; ELEMENT_DIM &gt;</text>
<polyline fill="none" stroke="black" points="1098.5,-1176 1239.5,-1176 "/>
<text text-anchor="middle" x="1169" y="-1164" font-family="Helvetica,sans-Serif" font-size="10.00"> </text>
<polyline fill="none" stroke="black" points="1098.5,-1157 1239.5,-1157 "/>
<text text-anchor="start" x="1106.5" y="-1145" font-family="Helvetica,sans-Serif" font-size="10.00">+ GaussianQuadratureRule()</text>
<text text-anchor="start" x="1106.5" y="-1134" font-family="Helvetica,sans-Serif" font-size="10.00">+ rGetQuadPoint()</text>
<text text-anchor="start" x="1106.5" y="-1123" font-family="Helvetica,sans-Serif" font-size="10.00">+ GetWeight()</text>
<text text-anchor="start" x="1106.5" y="-1112" font-family="Helvetica,sans-Serif" font-size="10.00">+ GetNumQuadPoints()</text>
<text text-anchor="start" x="1106.5" y="-1101" font-family="Helvetica,sans-Serif" font-size="10.00">+ GaussianQuadratureRule()</text>
<text text-anchor="start" x="1106.5" y="-1090" font-family="Helvetica,sans-Serif" font-size="10.00">+ GaussianQuadratureRule()</text>
<text text-anchor="start" x="1106.5" y="-1079" font-family="Helvetica,sans-Serif" font-size="10.00">+ GaussianQuadratureRule()</text>
</a>
</g>
</g>
<!-- Node13&#45;&gt;Node18 -->
<g id="edge24" class="edge"><title>Node13&#45;&gt;Node18</title>
<path fill="none" stroke="#404040" d="M918.918,-1304.28C940.021,-1282.5 972.168,-1253.09 1006,-1236 1037.76,-1219.96 1052.52,-1234.58 1084,-1218 1087.07,-1216.38 1090.12,-1214.62 1093.13,-1212.75"/>
<polygon fill="none" stroke="#404040" points="1093.24,-1212.68 1096,-1206.02 1103.21,-1206 1100.45,-1212.67 1093.24,-1212.68"/>
<text text-anchor="middle" x="1049.5" y="-1255.5" font-family="Helvetica,sans-Serif" font-size="10.00"> &#45;mNumQuadPoints</text>
</g>
<!-- Node14&#45;&gt;Node3 -->
<g id="edge14" class="edge"><title>Node14&#45;&gt;Node3</title>
<path fill="none" stroke="orange" d="M383.746,-802.12C385.721,-787.202 390.06,-772.645 398,-760 426.977,-713.851 482.264,-687.027 529.907,-671.777"/>
<polygon fill="orange" stroke="orange" points="380.223,-802.195 382.742,-812.486 387.19,-802.871 380.223,-802.195"/>
<text text-anchor="start" x="398" y="-785.5" font-family="Helvetica,sans-Serif" font-size="10.00"> &lt; ELEMENT_DIM, SPACE</text>
<text text-anchor="start" x="398" y="-774.5" font-family="Helvetica,sans-Serif" font-size="10.00">_DIM, PROBLEM_DIM, true,</text>
<text text-anchor="middle" x="462.5" y="-763.5" font-family="Helvetica,sans-Serif" font-size="10.00"> false, NORMAL &gt;</text>
</g>
<!-- Node15&#45;&gt;Node2 -->
<g id="edge17" class="edge"><title>Node15&#45;&gt;Node2</title>
<path fill="none" stroke="#404040" d="M1148.61,-856.31C1177.34,-826.379 1209.7,-785.676 1225,-742 1281.86,-579.699 1295.55,-497.634 1198,-356 1163.39,-305.744 1104.03,-272.416 1051.62,-251.335"/>
<polygon fill="none" stroke="#404040" points="1051.39,-251.246 1044.35,-252.796 1040.21,-246.891 1047.25,-245.341 1051.39,-251.246"/>
<text text-anchor="middle" x="1320" y="-535.5" font-family="Helvetica,sans-Serif" font-size="10.00"> #mpSurfaceQuadRule</text>
</g>
<!-- Node15&#45;&gt;Node21 -->
<g id="edge29" class="edge"><title>Node15&#45;&gt;Node21</title>
<path fill="none" stroke="#404040" d="M1023.5,-882.747C931.489,-850.81 778.467,-791.676 747,-742 705.58,-676.611 729.143,-588.811 758.022,-524.031"/>
<polygon fill="none" stroke="#404040" points="758.067,-523.933 756.936,-516.811 763.076,-513.028 764.206,-520.15 758.067,-523.933"/>
<text text-anchor="middle" x="797" y="-649.5" font-family="Helvetica,sans-Serif" font-size="10.00"> #mpSurfaceQuadRule</text>
</g>
<!-- Node16 -->
<g id="node16" class="node"><title>Node16</title>
<polygon fill="white" stroke="#bfbfbf" points="1021,-1304.5 1021,-1361.5 1111,-1361.5 1111,-1304.5 1021,-1304.5"/>
<text text-anchor="middle" x="1066" y="-1349.5" font-family="Helvetica,sans-Serif" font-size="10.00">vector&lt; double &gt;</text>
<polyline fill="none" stroke="#bfbfbf" points="1021,-1342.5 1111,-1342.5 "/>
<text text-anchor="middle" x="1066" y="-1330.5" font-family="Helvetica,sans-Serif" font-size="10.00"> </text>
<polyline fill="none" stroke="#bfbfbf" points="1021,-1323.5 1111,-1323.5 "/>
<text text-anchor="middle" x="1066" y="-1311.5" font-family="Helvetica,sans-Serif" font-size="10.00"> </text>
</g>
<!-- Node16&#45;&gt;Node15 -->
<g id="edge18" class="edge"><title>Node16&#45;&gt;Node15</title>
<path fill="none" stroke="#404040" d="M1057.19,-1304.24C1050.42,-1281.37 1041.62,-1247.94 1038,-1218 1029.56,-1148.29 1025.67,-1129.13 1038,-1060 1043.51,-1029.11 1054.85,-996.279 1065.9,-969.062"/>
<polygon fill="none" stroke="#404040" points="1065.99,-968.844 1064.6,-961.768 1070.59,-957.763 1071.98,-964.839 1065.99,-968.844"/>
<text text-anchor="middle" x="1063.5" y="-1136.5" font-family="Helvetica,sans-Serif" font-size="10.00"> &#45;mWeights</text>
</g>
<!-- Node16&#45;&gt;Node18 -->
<g id="edge22" class="edge"><title>Node16&#45;&gt;Node18</title>
<path fill="none" stroke="#404040" d="M1080.76,-1304.49C1093,-1281.67 1111.02,-1248.08 1127.59,-1217.2"/>
<polygon fill="none" stroke="#404040" points="1127.7,-1216.98 1127.01,-1209.8 1133.38,-1206.41 1134.06,-1213.59 1127.7,-1216.98"/>
<text text-anchor="middle" x="1143.5" y="-1255.5" font-family="Helvetica,sans-Serif" font-size="10.00"> &#45;mWeights</text>
</g>
<!-- Node17 -->
<g id="node17" class="node"><title>Node17</title>
<polygon fill="white" stroke="#bfbfbf" points="1176.5,-1299 1176.5,-1367 1291.5,-1367 1291.5,-1299 1176.5,-1299"/>
<text text-anchor="start" x="1184.5" y="-1355" font-family="Helvetica,sans-Serif" font-size="10.00">vector&lt; ChastePoint</text>
<text text-anchor="middle" x="1234" y="-1344" font-family="Helvetica,sans-Serif" font-size="10.00">&lt; ELEMENT_DIM &gt; &gt;</text>
<polyline fill="none" stroke="#bfbfbf" points="1176.5,-1337 1291.5,-1337 "/>
<text text-anchor="middle" x="1234" y="-1325" font-family="Helvetica,sans-Serif" font-size="10.00"> </text>
<polyline fill="none" stroke="#bfbfbf" points="1176.5,-1318 1291.5,-1318 "/>
<text text-anchor="middle" x="1234" y="-1306" font-family="Helvetica,sans-Serif" font-size="10.00"> </text>
</g>
<!-- Node17&#45;&gt;Node15 -->
<g id="edge19" class="edge"><title>Node17&#45;&gt;Node15</title>
<path fill="none" stroke="#404040" d="M1254.92,-1298.86C1257.84,-1292.79 1260.4,-1286.36 1262,-1280 1290.34,-1167.59 1301.25,-1119.05 1241,-1020 1224.73,-993.26 1199.52,-970.636 1174.54,-952.874"/>
<polygon fill="none" stroke="#404040" points="1174.51,-952.857 1167.3,-952.754 1164.62,-946.059 1171.83,-946.161 1174.51,-952.857"/>
<text text-anchor="middle" x="1306.5" y="-1136.5" font-family="Helvetica,sans-Serif" font-size="10.00"> &#45;mPoints</text>
</g>
<!-- Node17&#45;&gt;Node18 -->
<g id="edge23" class="edge"><title>Node17&#45;&gt;Node18</title>
<path fill="none" stroke="#404040" d="M1222.83,-1298.99C1215.27,-1276.66 1204.95,-1246.18 1195.37,-1217.88"/>
<polygon fill="none" stroke="#404040" points="1195.31,-1217.71 1189.59,-1213.3 1191.46,-1206.34 1197.17,-1210.74 1195.31,-1217.71"/>
<text text-anchor="middle" x="1236.5" y="-1255.5" font-family="Helvetica,sans-Serif" font-size="10.00"> &#45;mPoints</text>
</g>
<!-- Node18&#45;&gt;Node15 -->
<g id="edge21" class="edge"><title>Node18&#45;&gt;Node15</title>
<path fill="none" stroke="orange" d="M1144.3,-1062.24C1133.09,-1027.88 1120.15,-988.203 1110.21,-957.697"/>
<polygon fill="orange" stroke="orange" points="1140.98,-1063.36 1147.41,-1071.78 1147.63,-1061.19 1140.98,-1063.36"/>
<text text-anchor="middle" x="1186.5" y="-1028.5" font-family="Helvetica,sans-Serif" font-size="10.00"> &lt; ELEMENT_DIM&#45;1 &gt;</text>
</g>
<!-- Node19 -->
<g id="node19" class="node"><title>Node19</title>
<polygon fill="white" stroke="#bfbfbf" points="856.5,-618 856.5,-686 1033.5,-686 1033.5,-618 856.5,-618"/>
<text text-anchor="start" x="864.5" y="-674" font-family="Helvetica,sans-Serif" font-size="10.00">AbstractTetrahedralMesh</text>
<text text-anchor="middle" x="945" y="-663" font-family="Helvetica,sans-Serif" font-size="10.00">&lt; ELEMENT_DIM, SPACE_DIM &gt; *</text>
<polyline fill="none" stroke="#bfbfbf" points="856.5,-656 1033.5,-656 "/>
<text text-anchor="middle" x="945" y="-644" font-family="Helvetica,sans-Serif" font-size="10.00"> </text>
<polyline fill="none" stroke="#bfbfbf" points="856.5,-637 1033.5,-637 "/>
<text text-anchor="middle" x="945" y="-625" font-family="Helvetica,sans-Serif" font-size="10.00"> </text>
</g>
<!-- Node19&#45;&gt;Node2 -->
<g id="edge25" class="edge"><title>Node19&#45;&gt;Node2</title>
<path fill="none" stroke="#404040" d="M945.077,-617.896C945.228,-552.585 945.57,-405.175 945.793,-309.273"/>
<polygon fill="none" stroke="#404040" points="945.793,-309.261 941.807,-303.252 945.821,-297.261 949.807,-303.27 945.793,-309.261"/>
<text text-anchor="middle" x="969" y="-432.5" font-family="Helvetica,sans-Serif" font-size="10.00"> #mpMesh</text>
</g>
<!-- Node19&#45;&gt;Node21 -->
<g id="edge30" class="edge"><title>Node19&#45;&gt;Node21</title>
<path fill="none" stroke="#404040" d="M923.74,-617.877C907.57,-592.685 884.539,-556.803 863.2,-523.558"/>
<polygon fill="none" stroke="#404040" points="863.123,-523.439 856.516,-520.55 856.641,-513.34 863.249,-516.229 863.123,-523.439"/>
<text text-anchor="middle" x="899" y="-535.5" font-family="Helvetica,sans-Serif" font-size="10.00"> #mpMesh</text>
</g>
<!-- Node20 -->
<g id="node20" class="node"><title>Node20</title>
<polygon fill="white" stroke="#bfbfbf" points="1052,-612.5 1052,-691.5 1216,-691.5 1216,-612.5 1052,-612.5"/>
<text text-anchor="start" x="1060" y="-679.5" font-family="Helvetica,sans-Serif" font-size="10.00">BoundaryConditionsContainer</text>
<text text-anchor="start" x="1060" y="-668.5" font-family="Helvetica,sans-Serif" font-size="10.00">&lt; ELEMENT_DIM, SPACE_DIM,</text>
<text text-anchor="middle" x="1134" y="-657.5" font-family="Helvetica,sans-Serif" font-size="10.00"> PROBLEM_DIM &gt; *</text>
<polyline fill="none" stroke="#bfbfbf" points="1052,-650.5 1216,-650.5 "/>
<text text-anchor="middle" x="1134" y="-638.5" font-family="Helvetica,sans-Serif" font-size="10.00"> </text>
<polyline fill="none" stroke="#bfbfbf" points="1052,-631.5 1216,-631.5 "/>
<text text-anchor="middle" x="1134" y="-619.5" font-family="Helvetica,sans-Serif" font-size="10.00"> </text>
</g>
<!-- Node20&#45;&gt;Node2 -->
<g id="edge26" class="edge"><title>Node20&#45;&gt;Node2</title>
<path fill="none" stroke="#404040" d="M1121,-612.353C1112.88,-588.91 1101.92,-558.505 1091,-532 1059.39,-455.287 1019.39,-369.963 989.413,-307.959"/>
<polygon fill="none" stroke="#404040" points="989.359,-307.849 983.143,-304.194 984.126,-297.05 990.342,-300.705 989.359,-307.849"/>
<text text-anchor="middle" x="1139" y="-432.5" font-family="Helvetica,sans-Serif" font-size="10.00"> #mpBoundaryConditions</text>
</g>
<!-- Node20&#45;&gt;Node21 -->
<g id="edge31" class="edge"><title>Node20&#45;&gt;Node21</title>
<path fill="none" stroke="#404040" d="M1101.95,-612.361C1085.61,-594.812 1064.46,-575.097 1042,-562 1017.58,-547.762 1007.19,-554.634 981,-544 957.681,-534.531 933.953,-522.041 911.826,-508.924"/>
<polygon fill="none" stroke="#404040" points="911.715,-508.857 904.511,-509.18 901.442,-502.655 908.646,-502.332 911.715,-508.857"/>
<text text-anchor="middle" x="1036" y="-535.5" font-family="Helvetica,sans-Serif" font-size="10.00"> #mpBoundaryConditions</text>
</g>
<!-- Node21&#45;&gt;Node2 -->
<g id="edge27" class="edge"><title>Node21&#45;&gt;Node2</title>
<path fill="none" stroke="orange" d="M798.377,-346.85C799.981,-336.063 802.984,-325.502 808,-316 818.219,-296.643 834.295,-280.388 851.919,-267.079"/>
<polygon fill="orange" stroke="orange" points="794.898,-346.473 797.28,-356.797 801.855,-347.241 794.898,-346.473"/>
<text text-anchor="start" x="808" y="-330" font-family="Helvetica,sans-Serif" font-size="10.00"> &lt; ELEMENT_DIM, SPACE</text>
<text text-anchor="middle" x="870" y="-319" font-family="Helvetica,sans-Serif" font-size="10.00">_DIM, 2 &gt;</text>
</g>
</g>
</svg>
