<?xml version="1.0" encoding="UTF-8" standalone="no"?>
<!DOCTYPE svg PUBLIC "-//W3C//DTD SVG 1.1//EN"
 "http://www.w3.org/Graphics/SVG/1.1/DTD/svg11.dtd">
<!-- Generated by graphviz version 2.36.0 (20140111.2315)
 -->
<!-- Title: SteadyStateRestitutionStimulus Pages: 1 -->
<svg width="178pt" height="354pt"
 viewBox="0.00 0.00 178.00 354.00" xmlns="http://www.w3.org/2000/svg" xmlns:xlink="http://www.w3.org/1999/xlink">
<g id="graph0" class="graph" transform="scale(1 1) rotate(0) translate(4 350)">
<title>SteadyStateRestitutionStimulus</title>
<polygon fill="white" stroke="none" points="-4,4 -4,-350 174,-350 174,4 -4,4"/>
<!-- Node1 -->
<g id="node1" class="node"><title>Node1</title>
<polygon fill="#bfbfbf" stroke="black" points="-0.5,-0.5 -0.5,-79.5 170.5,-79.5 170.5,-0.5 -0.5,-0.5"/>
<text text-anchor="middle" x="85" y="-67.5" font-family="Helvetica,sans-Serif" font-size="10.00">SteadyStateRestitutionStimulus</text>
<polyline fill="none" stroke="black" points="-0.5,-60.5 170.5,-60.5 "/>
<text text-anchor="middle" x="85" y="-48.5" font-family="Helvetica,sans-Serif" font-size="10.00"> </text>
<polyline fill="none" stroke="black" points="-0.5,-41.5 170.5,-41.5 "/>
<text text-anchor="start" x="7.5" y="-29.5" font-family="Helvetica,sans-Serif" font-size="10.00">+ SteadyStateRestitutionStimulus()</text>
<text text-anchor="start" x="7.5" y="-18.5" font-family="Helvetica,sans-Serif" font-size="10.00">&#45; serialize()</text>
<text text-anchor="start" x="7.5" y="-7.5" font-family="Helvetica,sans-Serif" font-size="10.00">&#45; SteadyStateRestitutionStimulus()</text>
</g>
<!-- Node2 -->
<g id="node2" class="node"><title>Node2</title>
<g id="a_node2"><a xlink:href="classMultiStimulus.html" target="_top" xlink:title="{MultiStimulus\n|# mStimuli\l|+ ~MultiStimulus()\l+ AddStimulus()\l+ GetStimulus()\l+ Clear()\l&#45; serialize()\l}">
<polygon fill="white" stroke="black" points="36.5,-116.5 36.5,-217.5 133.5,-217.5 133.5,-116.5 36.5,-116.5"/>
<text text-anchor="middle" x="85" y="-205.5" font-family="Helvetica,sans-Serif" font-size="10.00">MultiStimulus</text>
<polyline fill="none" stroke="black" points="36.5,-198.5 133.5,-198.5 "/>
<text text-anchor="start" x="44.5" y="-186.5" font-family="Helvetica,sans-Serif" font-size="10.00"># mStimuli</text>
<polyline fill="none" stroke="black" points="36.5,-179.5 133.5,-179.5 "/>
<text text-anchor="start" x="44.5" y="-167.5" font-family="Helvetica,sans-Serif" font-size="10.00">+ ~MultiStimulus()</text>
<text text-anchor="start" x="44.5" y="-156.5" font-family="Helvetica,sans-Serif" font-size="10.00">+ AddStimulus()</text>
<text text-anchor="start" x="44.5" y="-145.5" font-family="Helvetica,sans-Serif" font-size="10.00">+ GetStimulus()</text>
<text text-anchor="start" x="44.5" y="-134.5" font-family="Helvetica,sans-Serif" font-size="10.00">+ Clear()</text>
<text text-anchor="start" x="44.5" y="-123.5" font-family="Helvetica,sans-Serif" font-size="10.00">&#45; serialize()</text>
</a>
</g>
</g>
<!-- Node2&#45;&gt;Node1 -->
<g id="edge1" class="edge"><title>Node2&#45;&gt;Node1</title>
<path fill="none" stroke="midnightblue" d="M85,-106.186C85,-97.2207 85,-88.1815 85,-79.8082"/>
<polygon fill="none" stroke="midnightblue" points="81.5001,-106.237 85,-116.238 88.5001,-106.238 81.5001,-106.237"/>
</g>
<!-- Node3 -->
<g id="node3" class="node"><title>Node3</title>
<g id="a_node3"><a xlink:href="classAbstractStimulusFunction.html" target="_top" xlink:title="{AbstractStimulusFunction\n||+ GetStimulus()\l+ ~AbstractStimulusFunction()\l+ Clear()\l&#45; serialize()\l}">
<polygon fill="white" stroke="black" points="10,-255 10,-345 160,-345 160,-255 10,-255"/>
<text text-anchor="middle" x="85" y="-333" font-family="Helvetica,sans-Serif" font-size="10.00">AbstractStimulusFunction</text>
<polyline fill="none" stroke="black" points="10,-326 160,-326 "/>
<text text-anchor="middle" x="85" y="-314" font-family="Helvetica,sans-Serif" font-size="10.00"> </text>
<polyline fill="none" stroke="black" points="10,-307 160,-307 "/>
<text text-anchor="start" x="18" y="-295" font-family="Helvetica,sans-Serif" font-size="10.00">+ GetStimulus()</text>
<text text-anchor="start" x="18" y="-284" font-family="Helvetica,sans-Serif" font-size="10.00">+ ~AbstractStimulusFunction()</text>
<text text-anchor="start" x="18" y="-273" font-family="Helvetica,sans-Serif" font-size="10.00">+ Clear()</text>
<text text-anchor="start" x="18" y="-262" font-family="Helvetica,sans-Serif" font-size="10.00">&#45; serialize()</text>
</a>
</g>
</g>
<!-- Node3&#45;&gt;Node2 -->
<g id="edge2" class="edge"><title>Node3&#45;&gt;Node2</title>
<path fill="none" stroke="midnightblue" d="M85,-244.422C85,-235.569 85,-226.442 85,-217.712"/>
<polygon fill="none" stroke="midnightblue" points="81.5001,-244.649 85,-254.649 88.5001,-244.649 81.5001,-244.649"/>
</g>
</g>
</svg>
