<?xml version="1.0" encoding="UTF-8" standalone="no"?>
<!DOCTYPE svg PUBLIC "-//W3C//DTD SVG 1.1//EN"
 "http://www.w3.org/Graphics/SVG/1.1/DTD/svg11.dtd">
<!-- Generated by graphviz version 2.36.0 (20140111.2315)
 -->
<!-- Title: AbstractStaticLinearPdeSolver&lt; ELEMENT_DIM, SPACE_DIM, PROBLEM_DIM &gt; Pages: 1 -->
<svg width="301pt" height="1038pt"
 viewBox="0.00 0.00 301.00 1038.00" xmlns="http://www.w3.org/2000/svg" xmlns:xlink="http://www.w3.org/1999/xlink">
<g id="graph0" class="graph" transform="scale(1 1) rotate(0) translate(4 1034)">
<title>AbstractStaticLinearPdeSolver&lt; ELEMENT_DIM, SPACE_DIM, PROBLEM_DIM &gt;</title>
<polygon fill="white" stroke="none" points="-4,4 -4,-1034 297,-1034 297,4 -4,4"/>
<!-- Node1 -->
<g id="node1" class="node"><title>Node1</title>
<polygon fill="#bfbfbf" stroke="black" points="86.5,-637 86.5,-727 251.5,-727 251.5,-637 86.5,-637"/>
<text text-anchor="start" x="94.5" y="-715" font-family="Helvetica,sans-Serif" font-size="10.00">AbstractStaticLinearPdeSolver</text>
<text text-anchor="start" x="94.5" y="-704" font-family="Helvetica,sans-Serif" font-size="10.00">&lt; ELEMENT_DIM, SPACE_DIM,</text>
<text text-anchor="middle" x="169" y="-693" font-family="Helvetica,sans-Serif" font-size="10.00"> PROBLEM_DIM &gt;</text>
<polyline fill="none" stroke="black" points="86.5,-686 251.5,-686 "/>
<text text-anchor="middle" x="169" y="-674" font-family="Helvetica,sans-Serif" font-size="10.00"> </text>
<polyline fill="none" stroke="black" points="86.5,-667 251.5,-667 "/>
<text text-anchor="start" x="94.5" y="-655" font-family="Helvetica,sans-Serif" font-size="10.00">+ AbstractStaticLinearPdeSolver()</text>
<text text-anchor="start" x="94.5" y="-644" font-family="Helvetica,sans-Serif" font-size="10.00">+ Solve()</text>
</g>
<!-- Node4 -->
<g id="node4" class="node"><title>Node4</title>
<g id="a_node4"><a xlink:href="classAbstractStaticLinearPdeSolver.html" target="_top" xlink:title="{AbstractStaticLinearPdeSolver\l\&lt; ELEMENT_DIM, SPACE_DIM, 1 \&gt;\n||+ AbstractStaticLinearPdeSolver()\l+ Solve()\l}">
<polygon fill="white" stroke="black" points="78,-498.5 78,-577.5 260,-577.5 260,-498.5 78,-498.5"/>
<text text-anchor="start" x="86" y="-565.5" font-family="Helvetica,sans-Serif" font-size="10.00">AbstractStaticLinearPdeSolver</text>
<text text-anchor="middle" x="169" y="-554.5" font-family="Helvetica,sans-Serif" font-size="10.00">&lt; ELEMENT_DIM, SPACE_DIM, 1 &gt;</text>
<polyline fill="none" stroke="black" points="78,-547.5 260,-547.5 "/>
<text text-anchor="middle" x="169" y="-535.5" font-family="Helvetica,sans-Serif" font-size="10.00"> </text>
<polyline fill="none" stroke="black" points="78,-528.5 260,-528.5 "/>
<text text-anchor="start" x="86" y="-516.5" font-family="Helvetica,sans-Serif" font-size="10.00">+ AbstractStaticLinearPdeSolver()</text>
<text text-anchor="start" x="86" y="-505.5" font-family="Helvetica,sans-Serif" font-size="10.00">+ Solve()</text>
</a>
</g>
</g>
<!-- Node1&#45;&gt;Node4 -->
<g id="edge3" class="edge"><title>Node1&#45;&gt;Node4</title>
<path fill="none" stroke="orange" d="M169,-626.417C169,-610.22 169,-592.818 169,-577.837"/>
<polygon fill="orange" stroke="orange" points="165.5,-626.849 169,-636.849 172.5,-626.849 165.5,-626.849"/>
<text text-anchor="start" x="169" y="-610" font-family="Helvetica,sans-Serif" font-size="10.00"> &lt; ELEMENT_DIM, SPACE</text>
<text text-anchor="middle" x="231" y="-599" font-family="Helvetica,sans-Serif" font-size="10.00">_DIM, 1 &gt;</text>
</g>
<!-- Node2 -->
<g id="node2" class="node"><title>Node2</title>
<g id="a_node2"><a xlink:href="classAbstractLinearPdeSolver.html" target="_top" xlink:title="{AbstractLinearPdeSolver\l\&lt; ELEMENT_DIM, SPACE_DIM,\l PROBLEM_DIM \&gt;\n|# mpLinearSystem\l# mpMesh\l|+ AbstractLinearPdeSolver()\l+ ~AbstractLinearPdeSolver()\l+ InitialiseForSolve()\l+ PrepareForSetupLinearSystem()\l+ FinaliseLinearSystem()\l+ FollowingSolveLinearSystem()\l+ SetupLinearSystem()\l+ GetLinearSystem()\l}">
<polygon fill="white" stroke="black" points="86.5,-766.5 86.5,-933.5 251.5,-933.5 251.5,-766.5 86.5,-766.5"/>
<text text-anchor="start" x="94.5" y="-921.5" font-family="Helvetica,sans-Serif" font-size="10.00">AbstractLinearPdeSolver</text>
<text text-anchor="start" x="94.5" y="-910.5" font-family="Helvetica,sans-Serif" font-size="10.00">&lt; ELEMENT_DIM, SPACE_DIM,</text>
<text text-anchor="middle" x="169" y="-899.5" font-family="Helvetica,sans-Serif" font-size="10.00"> PROBLEM_DIM &gt;</text>
<polyline fill="none" stroke="black" points="86.5,-892.5 251.5,-892.5 "/>
<text text-anchor="start" x="94.5" y="-880.5" font-family="Helvetica,sans-Serif" font-size="10.00"># mpLinearSystem</text>
<text text-anchor="start" x="94.5" y="-869.5" font-family="Helvetica,sans-Serif" font-size="10.00"># mpMesh</text>
<polyline fill="none" stroke="black" points="86.5,-862.5 251.5,-862.5 "/>
<text text-anchor="start" x="94.5" y="-850.5" font-family="Helvetica,sans-Serif" font-size="10.00">+ AbstractLinearPdeSolver()</text>
<text text-anchor="start" x="94.5" y="-839.5" font-family="Helvetica,sans-Serif" font-size="10.00">+ ~AbstractLinearPdeSolver()</text>
<text text-anchor="start" x="94.5" y="-828.5" font-family="Helvetica,sans-Serif" font-size="10.00">+ InitialiseForSolve()</text>
<text text-anchor="start" x="94.5" y="-817.5" font-family="Helvetica,sans-Serif" font-size="10.00">+ PrepareForSetupLinearSystem()</text>
<text text-anchor="start" x="94.5" y="-806.5" font-family="Helvetica,sans-Serif" font-size="10.00">+ FinaliseLinearSystem()</text>
<text text-anchor="start" x="94.5" y="-795.5" font-family="Helvetica,sans-Serif" font-size="10.00">+ FollowingSolveLinearSystem()</text>
<text text-anchor="start" x="94.5" y="-784.5" font-family="Helvetica,sans-Serif" font-size="10.00">+ SetupLinearSystem()</text>
<text text-anchor="start" x="94.5" y="-773.5" font-family="Helvetica,sans-Serif" font-size="10.00">+ GetLinearSystem()</text>
</a>
</g>
</g>
<!-- Node2&#45;&gt;Node1 -->
<g id="edge1" class="edge"><title>Node2&#45;&gt;Node1</title>
<path fill="none" stroke="midnightblue" d="M169,-756.375C169,-746.305 169,-736.427 169,-727.344"/>
<polygon fill="none" stroke="midnightblue" points="165.5,-756.486 169,-766.486 172.5,-756.486 165.5,-756.486"/>
</g>
<!-- Node3 -->
<g id="node3" class="node"><title>Node3</title>
<polygon fill="white" stroke="#bfbfbf" points="133.5,-972.5 133.5,-1029.5 204.5,-1029.5 204.5,-972.5 133.5,-972.5"/>
<text text-anchor="middle" x="169" y="-1017.5" font-family="Helvetica,sans-Serif" font-size="10.00">noncopyable</text>
<polyline fill="none" stroke="#bfbfbf" points="133.5,-1010.5 204.5,-1010.5 "/>
<text text-anchor="middle" x="169" y="-998.5" font-family="Helvetica,sans-Serif" font-size="10.00"> </text>
<polyline fill="none" stroke="#bfbfbf" points="133.5,-991.5 204.5,-991.5 "/>
<text text-anchor="middle" x="169" y="-979.5" font-family="Helvetica,sans-Serif" font-size="10.00"> </text>
</g>
<!-- Node3&#45;&gt;Node2 -->
<g id="edge2" class="edge"><title>Node3&#45;&gt;Node2</title>
<path fill="none" stroke="#8b1a1a" d="M169,-962.07C169,-953.256 169,-943.533 169,-933.617"/>
<polygon fill="none" stroke="#8b1a1a" points="165.5,-962.323 169,-972.323 172.5,-962.323 165.5,-962.323"/>
</g>
<!-- Node5 -->
<g id="node5" class="node"><title>Node5</title>
<g id="a_node5"><a xlink:href="classSimpleLinearEllipticSolver.html" target="_top" xlink:title="{SimpleLinearEllipticSolver\l\&lt; ELEMENT_DIM, SPACE_DIM \&gt;\n|# mpEllipticPde\l|+ SimpleLinearEllipticSolver()\l+ InitialiseForSolve()\l# ComputeMatrixTerm()\l# ComputeVectorTerm()\l# SetupLinearSystem()\l}">
<polygon fill="white" stroke="black" points="0,-347 0,-459 170,-459 170,-347 0,-347"/>
<text text-anchor="start" x="8" y="-447" font-family="Helvetica,sans-Serif" font-size="10.00">SimpleLinearEllipticSolver</text>
<text text-anchor="middle" x="85" y="-436" font-family="Helvetica,sans-Serif" font-size="10.00">&lt; ELEMENT_DIM, SPACE_DIM &gt;</text>
<polyline fill="none" stroke="black" points="0,-429 170,-429 "/>
<text text-anchor="start" x="8" y="-417" font-family="Helvetica,sans-Serif" font-size="10.00"># mpEllipticPde</text>
<polyline fill="none" stroke="black" points="0,-410 170,-410 "/>
<text text-anchor="start" x="8" y="-398" font-family="Helvetica,sans-Serif" font-size="10.00">+ SimpleLinearEllipticSolver()</text>
<text text-anchor="start" x="8" y="-387" font-family="Helvetica,sans-Serif" font-size="10.00">+ InitialiseForSolve()</text>
<text text-anchor="start" x="8" y="-376" font-family="Helvetica,sans-Serif" font-size="10.00"># ComputeMatrixTerm()</text>
<text text-anchor="start" x="8" y="-365" font-family="Helvetica,sans-Serif" font-size="10.00"># ComputeVectorTerm()</text>
<text text-anchor="start" x="8" y="-354" font-family="Helvetica,sans-Serif" font-size="10.00"># SetupLinearSystem()</text>
</a>
</g>
</g>
<!-- Node4&#45;&gt;Node5 -->
<g id="edge4" class="edge"><title>Node4&#45;&gt;Node5</title>
<path fill="none" stroke="midnightblue" d="M138.96,-489.436C132.819,-479.713 126.306,-469.401 120.009,-459.43"/>
<polygon fill="none" stroke="midnightblue" points="136.179,-491.587 144.478,-498.173 142.097,-487.849 136.179,-491.587"/>
</g>
<!-- Node6 -->
<g id="node6" class="node"><title>Node6</title>
<g id="a_node6"><a xlink:href="classSimpleLinearEllipticSolver.html" target="_top" xlink:title="{SimpleLinearEllipticSolver\l\&lt; DIM, DIM \&gt;\n|# mpEllipticPde\l|+ SimpleLinearEllipticSolver()\l+ InitialiseForSolve()\l# ComputeMatrixTerm()\l# ComputeVectorTerm()\l# SetupLinearSystem()\l}">
<polygon fill="white" stroke="black" points="77.5,-185 77.5,-297 222.5,-297 222.5,-185 77.5,-185"/>
<text text-anchor="start" x="85.5" y="-285" font-family="Helvetica,sans-Serif" font-size="10.00">SimpleLinearEllipticSolver</text>
<text text-anchor="middle" x="150" y="-274" font-family="Helvetica,sans-Serif" font-size="10.00">&lt; DIM, DIM &gt;</text>
<polyline fill="none" stroke="black" points="77.5,-267 222.5,-267 "/>
<text text-anchor="start" x="85.5" y="-255" font-family="Helvetica,sans-Serif" font-size="10.00"># mpEllipticPde</text>
<polyline fill="none" stroke="black" points="77.5,-248 222.5,-248 "/>
<text text-anchor="start" x="85.5" y="-236" font-family="Helvetica,sans-Serif" font-size="10.00">+ SimpleLinearEllipticSolver()</text>
<text text-anchor="start" x="85.5" y="-225" font-family="Helvetica,sans-Serif" font-size="10.00">+ InitialiseForSolve()</text>
<text text-anchor="start" x="85.5" y="-214" font-family="Helvetica,sans-Serif" font-size="10.00"># ComputeMatrixTerm()</text>
<text text-anchor="start" x="85.5" y="-203" font-family="Helvetica,sans-Serif" font-size="10.00"># ComputeVectorTerm()</text>
<text text-anchor="start" x="85.5" y="-192" font-family="Helvetica,sans-Serif" font-size="10.00"># SetupLinearSystem()</text>
</a>
</g>
</g>
<!-- Node4&#45;&gt;Node6 -->
<g id="edge7" class="edge"><title>Node4&#45;&gt;Node6</title>
<path fill="none" stroke="midnightblue" d="M180.068,-488.361C188.524,-443.193 196.758,-374.327 184,-316 182.64,-309.785 180.708,-303.468 178.447,-297.277"/>
<polygon fill="none" stroke="midnightblue" points="176.63,-487.703 178.154,-498.188 183.501,-489.041 176.63,-487.703"/>
</g>
<!-- Node5&#45;&gt;Node6 -->
<g id="edge5" class="edge"><title>Node5&#45;&gt;Node6</title>
<path fill="none" stroke="orange" d="M110.468,-337.17C113.326,-330.018 116.212,-322.85 119,-316 121.468,-309.937 124.075,-303.605 126.687,-297.309"/>
<polygon fill="orange" stroke="orange" points="107.05,-336.295 106.6,-346.88 113.553,-338.885 107.05,-336.295"/>
<text text-anchor="middle" x="151.5" y="-319.5" font-family="Helvetica,sans-Serif" font-size="10.00"> &lt; DIM, DIM &gt;</text>
</g>
<!-- Node7 -->
<g id="node7" class="node"><title>Node7</title>
<g id="a_node7"><a xlink:href="classCellBasedEllipticPdeSolver.html" target="_top" xlink:title="{CellBasedEllipticPdeSolver\l\&lt; DIM \&gt;\n|&#45; mConstantInUSourceTerm\l&#45; mLinearInUCoeffInSourceTerm\l|+ CellBasedEllipticPdeSolver()\l+ ~CellBasedEllipticPdeSolver()\l# ComputeVectorTerm()\l# ComputeMatrixTerm()\l# ResetInterpolatedQuantities()\l# IncrementInterpolatedQuantities()\l# InitialiseForSolve()\l}">
<polygon fill="white" stroke="black" points="65,-0.5 65,-145.5 235,-145.5 235,-0.5 65,-0.5"/>
<text text-anchor="start" x="73" y="-133.5" font-family="Helvetica,sans-Serif" font-size="10.00">CellBasedEllipticPdeSolver</text>
<text text-anchor="middle" x="150" y="-122.5" font-family="Helvetica,sans-Serif" font-size="10.00">&lt; DIM &gt;</text>
<polyline fill="none" stroke="black" points="65,-115.5 235,-115.5 "/>
<text text-anchor="start" x="73" y="-103.5" font-family="Helvetica,sans-Serif" font-size="10.00">&#45; mConstantInUSourceTerm</text>
<text text-anchor="start" x="73" y="-92.5" font-family="Helvetica,sans-Serif" font-size="10.00">&#45; mLinearInUCoeffInSourceTerm</text>
<polyline fill="none" stroke="black" points="65,-85.5 235,-85.5 "/>
<text text-anchor="start" x="73" y="-73.5" font-family="Helvetica,sans-Serif" font-size="10.00">+ CellBasedEllipticPdeSolver()</text>
<text text-anchor="start" x="73" y="-62.5" font-family="Helvetica,sans-Serif" font-size="10.00">+ ~CellBasedEllipticPdeSolver()</text>
<text text-anchor="start" x="73" y="-51.5" font-family="Helvetica,sans-Serif" font-size="10.00"># ComputeVectorTerm()</text>
<text text-anchor="start" x="73" y="-40.5" font-family="Helvetica,sans-Serif" font-size="10.00"># ComputeMatrixTerm()</text>
<text text-anchor="start" x="73" y="-29.5" font-family="Helvetica,sans-Serif" font-size="10.00"># ResetInterpolatedQuantities()</text>
<text text-anchor="start" x="73" y="-18.5" font-family="Helvetica,sans-Serif" font-size="10.00"># IncrementInterpolatedQuantities()</text>
<text text-anchor="start" x="73" y="-7.5" font-family="Helvetica,sans-Serif" font-size="10.00"># InitialiseForSolve()</text>
</a>
</g>
</g>
<!-- Node6&#45;&gt;Node7 -->
<g id="edge6" class="edge"><title>Node6&#45;&gt;Node7</title>
<path fill="none" stroke="midnightblue" d="M150,-174.552C150,-165.037 150,-155.199 150,-145.571"/>
<polygon fill="none" stroke="midnightblue" points="146.5,-174.724 150,-184.724 153.5,-174.724 146.5,-174.724"/>
</g>
</g>
</svg>
