<?xml version="1.0" encoding="UTF-8" standalone="no"?>
<!DOCTYPE svg PUBLIC "-//W3C//DTD SVG 1.1//EN"
 "http://www.w3.org/Graphics/SVG/1.1/DTD/svg11.dtd">
<!-- Generated by graphviz version 2.36.0 (20140111.2315)
 -->
<!-- Title: SimpleStimulus Pages: 1 -->
<svg width="280pt" height="272pt"
 viewBox="0.00 0.00 280.00 272.00" xmlns="http://www.w3.org/2000/svg" xmlns:xlink="http://www.w3.org/1999/xlink">
<g id="graph0" class="graph" transform="scale(1 1) rotate(0) translate(4 268)">
<title>SimpleStimulus</title>
<polygon fill="white" stroke="none" points="-4,4 -4,-268 276,-268 276,4 -4,4"/>
<!-- Node1 -->
<g id="node1" class="node"><title>Node1</title>
<polygon fill="#bfbfbf" stroke="black" points="79,-0.5 79,-101.5 185,-101.5 185,-0.5 79,-0.5"/>
<text text-anchor="middle" x="132" y="-89.5" font-family="Helvetica,sans-Serif" font-size="10.00">SimpleStimulus</text>
<polyline fill="none" stroke="black" points="79,-82.5 185,-82.5 "/>
<text text-anchor="middle" x="132" y="-70.5" font-family="Helvetica,sans-Serif" font-size="10.00"> </text>
<polyline fill="none" stroke="black" points="79,-63.5 185,-63.5 "/>
<text text-anchor="start" x="87" y="-51.5" font-family="Helvetica,sans-Serif" font-size="10.00">+ SimpleStimulus()</text>
<text text-anchor="start" x="87" y="-40.5" font-family="Helvetica,sans-Serif" font-size="10.00">+ ~SimpleStimulus()</text>
<text text-anchor="start" x="87" y="-29.5" font-family="Helvetica,sans-Serif" font-size="10.00">+ GetStimulus()</text>
<text text-anchor="start" x="87" y="-18.5" font-family="Helvetica,sans-Serif" font-size="10.00">+ SetStartTime()</text>
<text text-anchor="start" x="87" y="-7.5" font-family="Helvetica,sans-Serif" font-size="10.00">&#45; serialize()</text>
</g>
<!-- Node2 -->
<g id="node2" class="node"><title>Node2</title>
<g id="a_node2"><a xlink:href="classAbstractStimulusFunction.html" target="_top" xlink:title="{AbstractStimulusFunction\n||+ GetStimulus()\l+ ~AbstractStimulusFunction()\l+ Clear()\l&#45; serialize()\l}">
<polygon fill="white" stroke="black" points="0,-173 0,-263 150,-263 150,-173 0,-173"/>
<text text-anchor="middle" x="75" y="-251" font-family="Helvetica,sans-Serif" font-size="10.00">AbstractStimulusFunction</text>
<polyline fill="none" stroke="black" points="0,-244 150,-244 "/>
<text text-anchor="middle" x="75" y="-232" font-family="Helvetica,sans-Serif" font-size="10.00"> </text>
<polyline fill="none" stroke="black" points="0,-225 150,-225 "/>
<text text-anchor="start" x="8" y="-213" font-family="Helvetica,sans-Serif" font-size="10.00">+ GetStimulus()</text>
<text text-anchor="start" x="8" y="-202" font-family="Helvetica,sans-Serif" font-size="10.00">+ ~AbstractStimulusFunction()</text>
<text text-anchor="start" x="8" y="-191" font-family="Helvetica,sans-Serif" font-size="10.00">+ Clear()</text>
<text text-anchor="start" x="8" y="-180" font-family="Helvetica,sans-Serif" font-size="10.00">&#45; serialize()</text>
</a>
</g>
</g>
<!-- Node2&#45;&gt;Node1 -->
<g id="edge1" class="edge"><title>Node2&#45;&gt;Node1</title>
<path fill="none" stroke="midnightblue" d="M93.5617,-163.269C100.417,-143.423 108.15,-121.039 114.873,-101.579"/>
<polygon fill="none" stroke="midnightblue" points="90.2321,-162.188 90.275,-172.783 96.8484,-164.474 90.2321,-162.188"/>
</g>
<!-- Node3 -->
<g id="node3" class="node"><title>Node3</title>
<g id="a_node3"><a xlink:href="classdouble.html" target="_top" xlink:title="{double\n||}">
<polygon fill="white" stroke="black" points="167.5,-189.5 167.5,-246.5 212.5,-246.5 212.5,-189.5 167.5,-189.5"/>
<text text-anchor="middle" x="190" y="-234.5" font-family="Helvetica,sans-Serif" font-size="10.00">double</text>
<polyline fill="none" stroke="black" points="167.5,-227.5 212.5,-227.5 "/>
<text text-anchor="middle" x="190" y="-215.5" font-family="Helvetica,sans-Serif" font-size="10.00"> </text>
<polyline fill="none" stroke="black" points="167.5,-208.5 212.5,-208.5 "/>
<text text-anchor="middle" x="190" y="-196.5" font-family="Helvetica,sans-Serif" font-size="10.00"> </text>
</a>
</g>
</g>
<!-- Node3&#45;&gt;Node1 -->
<g id="edge2" class="edge"><title>Node3&#45;&gt;Node1</title>
<path fill="none" stroke="#404040" d="M180.292,-189.383C172.988,-168.605 162.697,-139.327 153.49,-113.134"/>
<polygon fill="none" stroke="#404040" points="153.466,-113.068 147.703,-108.734 149.487,-101.747 155.25,-106.081 153.466,-113.068"/>
<text text-anchor="middle" x="219" y="-145.5" font-family="Helvetica,sans-Serif" font-size="10.00"> &#45;mTimeOfStimulus</text>
<text text-anchor="middle" x="219" y="-134.5" font-family="Helvetica,sans-Serif" font-size="10.00">&#45;mMagnitudeOfStimulus</text>
<text text-anchor="middle" x="219" y="-123.5" font-family="Helvetica,sans-Serif" font-size="10.00">&#45;mDuration</text>
</g>
</g>
</svg>
