<?xml version="1.0" encoding="UTF-8" standalone="no"?>
<!DOCTYPE svg PUBLIC "-//W3C//DTD SVG 1.1//EN"
 "http://www.w3.org/Graphics/SVG/1.1/DTD/svg11.dtd">
<!-- Generated by graphviz version 2.36.0 (20140111.2315)
 -->
<!-- Title: FibreReader&lt; DIM &gt; Pages: 1 -->
<svg width="461pt" height="294pt"
 viewBox="0.00 0.00 461.00 294.00" xmlns="http://www.w3.org/2000/svg" xmlns:xlink="http://www.w3.org/1999/xlink">
<g id="graph0" class="graph" transform="scale(1 1) rotate(0) translate(4 290)">
<title>FibreReader&lt; DIM &gt;</title>
<polygon fill="white" stroke="none" points="-4,4 -4,-290 457,-290 457,4 -4,4"/>
<!-- Node1 -->
<g id="node1" class="node"><title>Node1</title>
<polygon fill="#bfbfbf" stroke="black" points="124,-1 124,-157 294,-157 294,-1 124,-1"/>
<text text-anchor="middle" x="209" y="-145" font-family="Helvetica,sans-Serif" font-size="10.00">FibreReader&lt; DIM &gt;</text>
<polyline fill="none" stroke="black" points="124,-138 294,-138 "/>
<text text-anchor="middle" x="209" y="-126" font-family="Helvetica,sans-Serif" font-size="10.00"> </text>
<polyline fill="none" stroke="black" points="124,-119 294,-119 "/>
<text text-anchor="start" x="132" y="-107" font-family="Helvetica,sans-Serif" font-size="10.00">+ FibreReader()</text>
<text text-anchor="start" x="132" y="-96" font-family="Helvetica,sans-Serif" font-size="10.00">+ ~FibreReader()</text>
<text text-anchor="start" x="132" y="-85" font-family="Helvetica,sans-Serif" font-size="10.00">+ GetFibreSheetAndNormalMatrix()</text>
<text text-anchor="start" x="132" y="-74" font-family="Helvetica,sans-Serif" font-size="10.00">+ GetFibreVector()</text>
<text text-anchor="start" x="132" y="-63" font-family="Helvetica,sans-Serif" font-size="10.00">+ GetNumLinesOfData()</text>
<text text-anchor="start" x="132" y="-52" font-family="Helvetica,sans-Serif" font-size="10.00">+ GetAllAxi()</text>
<text text-anchor="start" x="132" y="-41" font-family="Helvetica,sans-Serif" font-size="10.00">+ GetAllOrtho()</text>
<text text-anchor="start" x="132" y="-30" font-family="Helvetica,sans-Serif" font-size="10.00">+ IsBinary()</text>
<text text-anchor="start" x="132" y="-19" font-family="Helvetica,sans-Serif" font-size="10.00">&#45; GetTokensAtNextLine()</text>
<text text-anchor="start" x="132" y="-8" font-family="Helvetica,sans-Serif" font-size="10.00">&#45; ReadNumLinesOfDataFromFile()</text>
</g>
<!-- Node2 -->
<g id="node2" class="node"><title>Node2</title>
<polygon fill="white" stroke="#bfbfbf" points="0,-228.5 0,-285.5 90,-285.5 90,-228.5 0,-228.5"/>
<text text-anchor="middle" x="45" y="-273.5" font-family="Helvetica,sans-Serif" font-size="10.00">vector&lt; double &gt;</text>
<polyline fill="none" stroke="#bfbfbf" points="0,-266.5 90,-266.5 "/>
<text text-anchor="middle" x="45" y="-254.5" font-family="Helvetica,sans-Serif" font-size="10.00"> </text>
<polyline fill="none" stroke="#bfbfbf" points="0,-247.5 90,-247.5 "/>
<text text-anchor="middle" x="45" y="-235.5" font-family="Helvetica,sans-Serif" font-size="10.00"> </text>
</g>
<!-- Node2&#45;&gt;Node1 -->
<g id="edge1" class="edge"><title>Node2&#45;&gt;Node1</title>
<path fill="none" stroke="#404040" d="M58.2539,-228.13C66.6668,-211.984 78.4956,-191.794 92,-176 99.0223,-167.787 106.808,-159.736 114.93,-152.006"/>
<polygon fill="none" stroke="#404040" points="115.046,-151.899 116.735,-144.889 123.856,-143.751 122.166,-150.762 115.046,-151.899"/>
<text text-anchor="middle" x="115.5" y="-190.5" font-family="Helvetica,sans-Serif" font-size="10.00"> &#45;mTokens</text>
</g>
<!-- Node3 -->
<g id="node3" class="node"><title>Node3</title>
<polygon fill="white" stroke="#bfbfbf" points="108,-228.5 108,-285.5 160,-285.5 160,-228.5 108,-228.5"/>
<text text-anchor="middle" x="134" y="-273.5" font-family="Helvetica,sans-Serif" font-size="10.00">ifstream</text>
<polyline fill="none" stroke="#bfbfbf" points="108,-266.5 160,-266.5 "/>
<text text-anchor="middle" x="134" y="-254.5" font-family="Helvetica,sans-Serif" font-size="10.00"> </text>
<polyline fill="none" stroke="#bfbfbf" points="108,-247.5 160,-247.5 "/>
<text text-anchor="middle" x="134" y="-235.5" font-family="Helvetica,sans-Serif" font-size="10.00"> </text>
</g>
<!-- Node3&#45;&gt;Node1 -->
<g id="edge2" class="edge"><title>Node3&#45;&gt;Node1</title>
<path fill="none" stroke="#404040" d="M138.481,-228.353C141.536,-212.652 146.265,-192.832 153,-176 154.058,-173.355 155.181,-170.695 156.357,-168.032"/>
<polygon fill="none" stroke="#404040" points="156.389,-167.964 155.301,-160.835 161.463,-157.089 162.551,-164.218 156.389,-167.964"/>
<text text-anchor="middle" x="179" y="-190.5" font-family="Helvetica,sans-Serif" font-size="10.00"> &#45;mDataFile</text>
</g>
<!-- Node4 -->
<g id="node4" class="node"><title>Node4</title>
<g id="a_node4"><a xlink:href="classbool.html" target="_top" xlink:title="{bool\n||}">
<polygon fill="white" stroke="black" points="191.5,-228.5 191.5,-285.5 226.5,-285.5 226.5,-228.5 191.5,-228.5"/>
<text text-anchor="middle" x="209" y="-273.5" font-family="Helvetica,sans-Serif" font-size="10.00">bool</text>
<polyline fill="none" stroke="black" points="191.5,-266.5 226.5,-266.5 "/>
<text text-anchor="middle" x="209" y="-254.5" font-family="Helvetica,sans-Serif" font-size="10.00"> </text>
<polyline fill="none" stroke="black" points="191.5,-247.5 226.5,-247.5 "/>
<text text-anchor="middle" x="209" y="-235.5" font-family="Helvetica,sans-Serif" font-size="10.00"> </text>
</a>
</g>
</g>
<!-- Node4&#45;&gt;Node1 -->
<g id="edge3" class="edge"><title>Node4&#45;&gt;Node1</title>
<path fill="none" stroke="#404040" d="M209,-228.112C209,-211.994 209,-190.722 209,-169.345"/>
<polygon fill="none" stroke="#404040" points="209,-169.138 205,-163.138 209,-157.138 213,-163.138 209,-169.138"/>
<text text-anchor="middle" x="242.5" y="-190.5" font-family="Helvetica,sans-Serif" font-size="10.00"> &#45;mFileIsBinary</text>
</g>
<!-- Node5 -->
<g id="node5" class="node"><title>Node5</title>
<polygon fill="white" stroke="#bfbfbf" points="278.5,-228.5 278.5,-285.5 319.5,-285.5 319.5,-228.5 278.5,-228.5"/>
<text text-anchor="middle" x="299" y="-273.5" font-family="Helvetica,sans-Serif" font-size="10.00">string</text>
<polyline fill="none" stroke="#bfbfbf" points="278.5,-266.5 319.5,-266.5 "/>
<text text-anchor="middle" x="299" y="-254.5" font-family="Helvetica,sans-Serif" font-size="10.00"> </text>
<polyline fill="none" stroke="#bfbfbf" points="278.5,-247.5 319.5,-247.5 "/>
<text text-anchor="middle" x="299" y="-235.5" font-family="Helvetica,sans-Serif" font-size="10.00"> </text>
</g>
<!-- Node5&#45;&gt;Node1 -->
<g id="edge4" class="edge"><title>Node5&#45;&gt;Node1</title>
<path fill="none" stroke="#404040" d="M293.919,-228.497C290.392,-212.663 284.892,-192.663 277,-176 275.7,-173.254 274.321,-170.504 272.877,-167.758"/>
<polygon fill="none" stroke="#404040" points="272.845,-167.7 266.433,-164.399 267.014,-157.211 273.426,-160.512 272.845,-167.7"/>
<text text-anchor="middle" x="314.5" y="-190.5" font-family="Helvetica,sans-Serif" font-size="10.00"> &#45;mFilePath</text>
</g>
<!-- Node6 -->
<g id="node6" class="node"><title>Node6</title>
<g id="a_node6"><a xlink:href="classunsigned.html" target="_top" xlink:title="{unsigned\n||}">
<polygon fill="white" stroke="black" points="345,-228.5 345,-285.5 401,-285.5 401,-228.5 345,-228.5"/>
<text text-anchor="middle" x="373" y="-273.5" font-family="Helvetica,sans-Serif" font-size="10.00">unsigned</text>
<polyline fill="none" stroke="black" points="345,-266.5 401,-266.5 "/>
<text text-anchor="middle" x="373" y="-254.5" font-family="Helvetica,sans-Serif" font-size="10.00"> </text>
<polyline fill="none" stroke="black" points="345,-247.5 401,-247.5 "/>
<text text-anchor="middle" x="373" y="-235.5" font-family="Helvetica,sans-Serif" font-size="10.00"> </text>
</a>
</g>
</g>
<!-- Node6&#45;&gt;Node1 -->
<g id="edge5" class="edge"><title>Node6&#45;&gt;Node1</title>
<path fill="none" stroke="#404040" d="M367.389,-228.424C363.035,-211.992 355.715,-191.404 344,-176 332.861,-161.353 318.856,-148.031 304.115,-136.286"/>
<polygon fill="none" stroke="#404040" points="303.868,-136.097 296.673,-135.623 294.344,-128.798 301.539,-129.273 303.868,-136.097"/>
<text text-anchor="middle" x="407.5" y="-201.5" font-family="Helvetica,sans-Serif" font-size="10.00"> &#45;mNumLinesOfData</text>
<text text-anchor="middle" x="407.5" y="-190.5" font-family="Helvetica,sans-Serif" font-size="10.00">&#45;mNumItemsPerLine</text>
<text text-anchor="middle" x="407.5" y="-179.5" font-family="Helvetica,sans-Serif" font-size="10.00">&#45;mNextIndex</text>
</g>
</g>
</svg>
