<?xml version="1.0" encoding="UTF-8" standalone="no"?>
<!DOCTYPE svg PUBLIC "-//W3C//DTD SVG 1.1//EN"
 "http://www.w3.org/Graphics/SVG/1.1/DTD/svg11.dtd">
<!-- Generated by graphviz version 2.36.0 (20140111.2315)
 -->
<!-- Title: CryptCentreBasedDivisionRule&lt; ELEMENT_DIM, SPACE_DIM &gt; Pages: 1 -->
<svg width="198pt" height="408pt"
 viewBox="0.00 0.00 198.00 408.00" xmlns="http://www.w3.org/2000/svg" xmlns:xlink="http://www.w3.org/1999/xlink">
<g id="graph0" class="graph" transform="scale(1 1) rotate(0) translate(4 404)">
<title>CryptCentreBasedDivisionRule&lt; ELEMENT_DIM, SPACE_DIM &gt;</title>
<polygon fill="white" stroke="none" points="-4,4 -4,-404 194,-404 194,4 -4,4"/>
<!-- Node1 -->
<g id="node1" class="node"><title>Node1</title>
<polygon fill="#bfbfbf" stroke="black" points="-0.5,-0.5 -0.5,-101.5 190.5,-101.5 190.5,-0.5 -0.5,-0.5"/>
<text text-anchor="start" x="7.5" y="-89.5" font-family="Helvetica,sans-Serif" font-size="10.00">CryptCentreBasedDivision</text>
<text text-anchor="middle" x="95" y="-78.5" font-family="Helvetica,sans-Serif" font-size="10.00">Rule&lt; ELEMENT_DIM, SPACE_DIM &gt;</text>
<polyline fill="none" stroke="black" points="-0.5,-71.5 190.5,-71.5 "/>
<text text-anchor="middle" x="95" y="-59.5" font-family="Helvetica,sans-Serif" font-size="10.00"> </text>
<polyline fill="none" stroke="black" points="-0.5,-52.5 190.5,-52.5 "/>
<text text-anchor="start" x="7.5" y="-40.5" font-family="Helvetica,sans-Serif" font-size="10.00">+ CryptCentreBasedDivisionRule()</text>
<text text-anchor="start" x="7.5" y="-29.5" font-family="Helvetica,sans-Serif" font-size="10.00">+ ~CryptCentreBasedDivisionRule()</text>
<text text-anchor="start" x="7.5" y="-18.5" font-family="Helvetica,sans-Serif" font-size="10.00">+ CalculateCellDivisionVector()</text>
<text text-anchor="start" x="7.5" y="-7.5" font-family="Helvetica,sans-Serif" font-size="10.00">&#45; serialize()</text>
</g>
<!-- Node2 -->
<g id="node2" class="node"><title>Node2</title>
<g id="a_node2"><a xlink:href="classAbstractCentreBasedDivisionRule.html" target="_top" xlink:title="{AbstractCentreBasedDivision\lRule\&lt; ELEMENT_DIM, SPACE_DIM \&gt;\n||+ AbstractCentreBasedDivisionRule()\l+ ~AbstractCentreBasedDivisionRule()\l+ CalculateCellDivisionVector()\l+ OutputCellCentreBasedDivision\lRuleInfo()\l# OutputCellCentreBasedDivision\lRuleParameters()\l&#45; serialize()\l}">
<polygon fill="white" stroke="black" points="-0.5,-138.5 -0.5,-283.5 190.5,-283.5 190.5,-138.5 -0.5,-138.5"/>
<text text-anchor="start" x="7.5" y="-271.5" font-family="Helvetica,sans-Serif" font-size="10.00">AbstractCentreBasedDivision</text>
<text text-anchor="middle" x="95" y="-260.5" font-family="Helvetica,sans-Serif" font-size="10.00">Rule&lt; ELEMENT_DIM, SPACE_DIM &gt;</text>
<polyline fill="none" stroke="black" points="-0.5,-253.5 190.5,-253.5 "/>
<text text-anchor="middle" x="95" y="-241.5" font-family="Helvetica,sans-Serif" font-size="10.00"> </text>
<polyline fill="none" stroke="black" points="-0.5,-234.5 190.5,-234.5 "/>
<text text-anchor="start" x="7.5" y="-222.5" font-family="Helvetica,sans-Serif" font-size="10.00">+ AbstractCentreBasedDivisionRule()</text>
<text text-anchor="start" x="7.5" y="-211.5" font-family="Helvetica,sans-Serif" font-size="10.00">+ ~AbstractCentreBasedDivisionRule()</text>
<text text-anchor="start" x="7.5" y="-200.5" font-family="Helvetica,sans-Serif" font-size="10.00">+ CalculateCellDivisionVector()</text>
<text text-anchor="start" x="7.5" y="-189.5" font-family="Helvetica,sans-Serif" font-size="10.00">+ OutputCellCentreBasedDivision</text>
<text text-anchor="start" x="7.5" y="-178.5" font-family="Helvetica,sans-Serif" font-size="10.00">RuleInfo()</text>
<text text-anchor="start" x="7.5" y="-167.5" font-family="Helvetica,sans-Serif" font-size="10.00"># OutputCellCentreBasedDivision</text>
<text text-anchor="start" x="7.5" y="-156.5" font-family="Helvetica,sans-Serif" font-size="10.00">RuleParameters()</text>
<text text-anchor="start" x="7.5" y="-145.5" font-family="Helvetica,sans-Serif" font-size="10.00">&#45; serialize()</text>
</a>
</g>
</g>
<!-- Node2&#45;&gt;Node1 -->
<g id="edge1" class="edge"><title>Node2&#45;&gt;Node1</title>
<path fill="none" stroke="midnightblue" d="M95,-128.186C95,-119.139 95,-110.14 95,-101.667"/>
<polygon fill="none" stroke="midnightblue" points="91.5001,-128.397 95,-138.397 98.5001,-128.397 91.5001,-128.397"/>
</g>
<!-- Node3 -->
<g id="node3" class="node"><title>Node3</title>
<g id="a_node3"><a xlink:href="classIdentifiable.html" target="_top" xlink:title="{Identifiable\n||+ ~Identifiable()\l+ GetIdentifier()\l&#45; TidyTemplatedExportIdentifier()\l}">
<polygon fill="white" stroke="black" points="15.5,-320.5 15.5,-399.5 174.5,-399.5 174.5,-320.5 15.5,-320.5"/>
<text text-anchor="middle" x="95" y="-387.5" font-family="Helvetica,sans-Serif" font-size="10.00">Identifiable</text>
<polyline fill="none" stroke="black" points="15.5,-380.5 174.5,-380.5 "/>
<text text-anchor="middle" x="95" y="-368.5" font-family="Helvetica,sans-Serif" font-size="10.00"> </text>
<polyline fill="none" stroke="black" points="15.5,-361.5 174.5,-361.5 "/>
<text text-anchor="start" x="23.5" y="-349.5" font-family="Helvetica,sans-Serif" font-size="10.00">+ ~Identifiable()</text>
<text text-anchor="start" x="23.5" y="-338.5" font-family="Helvetica,sans-Serif" font-size="10.00">+ GetIdentifier()</text>
<text text-anchor="start" x="23.5" y="-327.5" font-family="Helvetica,sans-Serif" font-size="10.00">&#45; TidyTemplatedExportIdentifier()</text>
</a>
</g>
</g>
<!-- Node3&#45;&gt;Node2 -->
<g id="edge2" class="edge"><title>Node3&#45;&gt;Node2</title>
<path fill="none" stroke="midnightblue" d="M95,-310.243C95,-301.699 95,-292.651 95,-283.64"/>
<polygon fill="none" stroke="midnightblue" points="91.5001,-310.377 95,-320.377 98.5001,-310.378 91.5001,-310.377"/>
</g>
</g>
</svg>
