<?xml version="1.0" encoding="UTF-8" standalone="no"?>
<!DOCTYPE svg PUBLIC "-//W3C//DTD SVG 1.1//EN"
 "http://www.w3.org/Graphics/SVG/1.1/DTD/svg11.dtd">
<!-- Generated by graphviz version 2.36.0 (20140111.2315)
 -->
<!-- Title: MutableElement&lt; ELEMENT_DIM, SPACE_DIM &gt; Pages: 1 -->
<svg width="407pt" height="564pt"
 viewBox="0.00 0.00 407.00 564.00" xmlns="http://www.w3.org/2000/svg" xmlns:xlink="http://www.w3.org/1999/xlink">
<g id="graph0" class="graph" transform="scale(1 1) rotate(0) translate(4 560)">
<title>MutableElement&lt; ELEMENT_DIM, SPACE_DIM &gt;</title>
<polygon fill="white" stroke="none" points="-4,4 -4,-560 403,-560 403,4 -4,4"/>
<!-- Node1 -->
<g id="node1" class="node"><title>Node1</title>
<polygon fill="#bfbfbf" stroke="black" points="127.5,-0.5 127.5,-189.5 270.5,-189.5 270.5,-0.5 127.5,-0.5"/>
<text text-anchor="start" x="135.5" y="-177.5" font-family="Helvetica,sans-Serif" font-size="10.00">MutableElement&lt; ELEMENT</text>
<text text-anchor="middle" x="199" y="-166.5" font-family="Helvetica,sans-Serif" font-size="10.00">_DIM, SPACE_DIM &gt;</text>
<polyline fill="none" stroke="black" points="127.5,-159.5 270.5,-159.5 "/>
<text text-anchor="middle" x="199" y="-147.5" font-family="Helvetica,sans-Serif" font-size="10.00"> </text>
<polyline fill="none" stroke="black" points="127.5,-140.5 270.5,-140.5 "/>
<text text-anchor="start" x="135.5" y="-128.5" font-family="Helvetica,sans-Serif" font-size="10.00">+ MutableElement()</text>
<text text-anchor="start" x="135.5" y="-117.5" font-family="Helvetica,sans-Serif" font-size="10.00">+ MutableElement()</text>
<text text-anchor="start" x="135.5" y="-106.5" font-family="Helvetica,sans-Serif" font-size="10.00">+ ~MutableElement()</text>
<text text-anchor="start" x="135.5" y="-95.5" font-family="Helvetica,sans-Serif" font-size="10.00">+ RegisterWithNodes()</text>
<text text-anchor="start" x="135.5" y="-84.5" font-family="Helvetica,sans-Serif" font-size="10.00">+ MarkAsDeleted()</text>
<text text-anchor="start" x="135.5" y="-73.5" font-family="Helvetica,sans-Serif" font-size="10.00">+ ResetIndex()</text>
<text text-anchor="start" x="135.5" y="-62.5" font-family="Helvetica,sans-Serif" font-size="10.00">+ UpdateNode()</text>
<text text-anchor="start" x="135.5" y="-51.5" font-family="Helvetica,sans-Serif" font-size="10.00">+ DeleteNode()</text>
<text text-anchor="start" x="135.5" y="-40.5" font-family="Helvetica,sans-Serif" font-size="10.00">+ AddNode()</text>
<text text-anchor="start" x="135.5" y="-29.5" font-family="Helvetica,sans-Serif" font-size="10.00">+ GetNodeLocalIndex()</text>
<text text-anchor="start" x="135.5" y="-18.5" font-family="Helvetica,sans-Serif" font-size="10.00">+ IsElementOnBoundary()</text>
<text text-anchor="start" x="135.5" y="-7.5" font-family="Helvetica,sans-Serif" font-size="10.00">&#45; serialize()</text>
</g>
<!-- Node2 -->
<g id="node2" class="node"><title>Node2</title>
<g id="a_node2"><a xlink:href="classAbstractElement.html" target="_top" xlink:title="{AbstractElement\&lt; ELEMENT\l_DIM, SPACE_DIM \&gt;\n||+ AbstractElement()\l+ AbstractElement()\l+ ~AbstractElement()\l+ UpdateNode()\l+ ReplaceNode()\l+ MarkAsDeleted()\l+ RegisterWithNodes()\l+ GetNodeLocation()\l+ GetNodeLocation()\l+ GetNodeGlobalIndex()\land 14 more...\l# ConstructElementAttributes()\l}">
<polygon fill="white" stroke="black" points="123,-228.5 123,-417.5 275,-417.5 275,-228.5 123,-228.5"/>
<text text-anchor="start" x="131" y="-405.5" font-family="Helvetica,sans-Serif" font-size="10.00">AbstractElement&lt; ELEMENT</text>
<text text-anchor="middle" x="199" y="-394.5" font-family="Helvetica,sans-Serif" font-size="10.00">_DIM, SPACE_DIM &gt;</text>
<polyline fill="none" stroke="black" points="123,-387.5 275,-387.5 "/>
<text text-anchor="middle" x="199" y="-375.5" font-family="Helvetica,sans-Serif" font-size="10.00"> </text>
<polyline fill="none" stroke="black" points="123,-368.5 275,-368.5 "/>
<text text-anchor="start" x="131" y="-356.5" font-family="Helvetica,sans-Serif" font-size="10.00">+ AbstractElement()</text>
<text text-anchor="start" x="131" y="-345.5" font-family="Helvetica,sans-Serif" font-size="10.00">+ AbstractElement()</text>
<text text-anchor="start" x="131" y="-334.5" font-family="Helvetica,sans-Serif" font-size="10.00">+ ~AbstractElement()</text>
<text text-anchor="start" x="131" y="-323.5" font-family="Helvetica,sans-Serif" font-size="10.00">+ UpdateNode()</text>
<text text-anchor="start" x="131" y="-312.5" font-family="Helvetica,sans-Serif" font-size="10.00">+ ReplaceNode()</text>
<text text-anchor="start" x="131" y="-301.5" font-family="Helvetica,sans-Serif" font-size="10.00">+ MarkAsDeleted()</text>
<text text-anchor="start" x="131" y="-290.5" font-family="Helvetica,sans-Serif" font-size="10.00">+ RegisterWithNodes()</text>
<text text-anchor="start" x="131" y="-279.5" font-family="Helvetica,sans-Serif" font-size="10.00">+ GetNodeLocation()</text>
<text text-anchor="start" x="131" y="-268.5" font-family="Helvetica,sans-Serif" font-size="10.00">+ GetNodeLocation()</text>
<text text-anchor="start" x="131" y="-257.5" font-family="Helvetica,sans-Serif" font-size="10.00">+ GetNodeGlobalIndex()</text>
<text text-anchor="start" x="131" y="-246.5" font-family="Helvetica,sans-Serif" font-size="10.00">and 14 more...</text>
<text text-anchor="start" x="131" y="-235.5" font-family="Helvetica,sans-Serif" font-size="10.00"># ConstructElementAttributes()</text>
</a>
</g>
</g>
<!-- Node2&#45;&gt;Node1 -->
<g id="edge1" class="edge"><title>Node2&#45;&gt;Node1</title>
<path fill="none" stroke="midnightblue" d="M199,-218.226C199,-208.764 199,-199.216 199,-189.848"/>
<polygon fill="none" stroke="midnightblue" points="195.5,-218.446 199,-228.446 202.5,-218.446 195.5,-218.446"/>
</g>
<!-- Node3 -->
<g id="node3" class="node"><title>Node3</title>
<polygon fill="white" stroke="#bfbfbf" points="-0.5,-482 -0.5,-550 118.5,-550 118.5,-482 -0.5,-482"/>
<text text-anchor="start" x="7.5" y="-538" font-family="Helvetica,sans-Serif" font-size="10.00">vector&lt; Node&lt; SPACE</text>
<text text-anchor="middle" x="59" y="-527" font-family="Helvetica,sans-Serif" font-size="10.00">_DIM &gt; * &gt;</text>
<polyline fill="none" stroke="#bfbfbf" points="-0.5,-520 118.5,-520 "/>
<text text-anchor="middle" x="59" y="-508" font-family="Helvetica,sans-Serif" font-size="10.00"> </text>
<polyline fill="none" stroke="#bfbfbf" points="-0.5,-501 118.5,-501 "/>
<text text-anchor="middle" x="59" y="-489" font-family="Helvetica,sans-Serif" font-size="10.00"> </text>
</g>
<!-- Node3&#45;&gt;Node2 -->
<g id="edge2" class="edge"><title>Node3&#45;&gt;Node2</title>
<path fill="none" stroke="#404040" d="M79.3833,-481.847C88.4453,-467.531 99.4364,-450.723 110,-436 112.036,-433.162 114.117,-430.298 116.232,-427.42"/>
<polygon fill="none" stroke="#404040" points="116.378,-427.223 116.746,-420.022 123.536,-417.592 123.167,-424.794 116.378,-427.223"/>
<text text-anchor="middle" x="133" y="-444.5" font-family="Helvetica,sans-Serif" font-size="10.00"> #mNodes</text>
</g>
<!-- Node4 -->
<g id="node4" class="node"><title>Node4</title>
<g id="a_node4"><a xlink:href="classbool.html" target="_top" xlink:title="{bool\n||}">
<polygon fill="white" stroke="black" points="136.5,-487.5 136.5,-544.5 171.5,-544.5 171.5,-487.5 136.5,-487.5"/>
<text text-anchor="middle" x="154" y="-532.5" font-family="Helvetica,sans-Serif" font-size="10.00">bool</text>
<polyline fill="none" stroke="black" points="136.5,-525.5 171.5,-525.5 "/>
<text text-anchor="middle" x="154" y="-513.5" font-family="Helvetica,sans-Serif" font-size="10.00"> </text>
<polyline fill="none" stroke="black" points="136.5,-506.5 171.5,-506.5 "/>
<text text-anchor="middle" x="154" y="-494.5" font-family="Helvetica,sans-Serif" font-size="10.00"> </text>
</a>
</g>
</g>
<!-- Node4&#45;&gt;Node2 -->
<g id="edge3" class="edge"><title>Node4&#45;&gt;Node2</title>
<path fill="none" stroke="#404040" d="M155.803,-487.362C157.135,-472.098 159.366,-452.868 163,-436 163.464,-433.847 163.952,-431.677 164.463,-429.496"/>
<polygon fill="none" stroke="#404040" points="164.49,-429.387 162.055,-422.599 167.385,-417.742 169.819,-424.529 164.49,-429.387"/>
<text text-anchor="middle" x="195" y="-450" font-family="Helvetica,sans-Serif" font-size="10.00"> #mOwnership</text>
<text text-anchor="middle" x="195" y="-439" font-family="Helvetica,sans-Serif" font-size="10.00">#mIsDeleted</text>
</g>
<!-- Node5 -->
<g id="node5" class="node"><title>Node5</title>
<polygon fill="white" stroke="#bfbfbf" points="189.5,-476.5 189.5,-555.5 320.5,-555.5 320.5,-476.5 189.5,-476.5"/>
<text text-anchor="start" x="197.5" y="-543.5" font-family="Helvetica,sans-Serif" font-size="10.00">ElementAttributes&lt;</text>
<text text-anchor="start" x="197.5" y="-532.5" font-family="Helvetica,sans-Serif" font-size="10.00"> ELEMENT_DIM, SPACE</text>
<text text-anchor="middle" x="255" y="-521.5" font-family="Helvetica,sans-Serif" font-size="10.00">_DIM &gt; *</text>
<polyline fill="none" stroke="#bfbfbf" points="189.5,-514.5 320.5,-514.5 "/>
<text text-anchor="middle" x="255" y="-502.5" font-family="Helvetica,sans-Serif" font-size="10.00"> </text>
<polyline fill="none" stroke="#bfbfbf" points="189.5,-495.5 320.5,-495.5 "/>
<text text-anchor="middle" x="255" y="-483.5" font-family="Helvetica,sans-Serif" font-size="10.00"> </text>
</g>
<!-- Node5&#45;&gt;Node2 -->
<g id="edge4" class="edge"><title>Node5&#45;&gt;Node2</title>
<path fill="none" stroke="#404040" d="M243.668,-476.348C239.617,-462.532 234.834,-446.219 229.93,-429.494"/>
<polygon fill="none" stroke="#404040" points="229.899,-429.389 224.373,-424.757 226.523,-417.874 232.05,-422.506 229.899,-429.389"/>
<text text-anchor="middle" x="287" y="-444.5" font-family="Helvetica,sans-Serif" font-size="10.00"> #mpElementAttributes</text>
</g>
<!-- Node6 -->
<g id="node6" class="node"><title>Node6</title>
<g id="a_node6"><a xlink:href="classunsigned.html" target="_top" xlink:title="{unsigned\n||}">
<polygon fill="white" stroke="black" points="344,-487.5 344,-544.5 400,-544.5 400,-487.5 344,-487.5"/>
<text text-anchor="middle" x="372" y="-532.5" font-family="Helvetica,sans-Serif" font-size="10.00">unsigned</text>
<polyline fill="none" stroke="black" points="344,-525.5 400,-525.5 "/>
<text text-anchor="middle" x="372" y="-513.5" font-family="Helvetica,sans-Serif" font-size="10.00"> </text>
<polyline fill="none" stroke="black" points="344,-506.5 400,-506.5 "/>
<text text-anchor="middle" x="372" y="-494.5" font-family="Helvetica,sans-Serif" font-size="10.00"> </text>
</a>
</g>
</g>
<!-- Node6&#45;&gt;Node2 -->
<g id="edge5" class="edge"><title>Node6&#45;&gt;Node2</title>
<path fill="none" stroke="#404040" d="M365.045,-487.231C360.11,-471.203 352.327,-451.262 341,-436 325.493,-415.104 305.144,-396 284.713,-379.717"/>
<polygon fill="none" stroke="#404040" points="284.501,-379.553 277.309,-379.036 275.019,-372.198 282.212,-372.715 284.501,-379.553"/>
<text text-anchor="middle" x="374.5" y="-444.5" font-family="Helvetica,sans-Serif" font-size="10.00"> #mIndex</text>
</g>
</g>
</svg>
