<?xml version="1.0" encoding="UTF-8" standalone="no"?>
<!DOCTYPE svg PUBLIC "-//W3C//DTD SVG 1.1//EN"
 "http://www.w3.org/Graphics/SVG/1.1/DTD/svg11.dtd">
<!-- Generated by graphviz version 2.36.0 (20140111.2315)
 -->
<!-- Title: FixedG1GenerationalCellCycleModel Pages: 1 -->
<svg width="790pt" height="1284pt"
 viewBox="0.00 0.00 790.00 1284.00" xmlns="http://www.w3.org/2000/svg" xmlns:xlink="http://www.w3.org/1999/xlink">
<g id="graph0" class="graph" transform="scale(1 1) rotate(0) translate(4 1280)">
<title>FixedG1GenerationalCellCycleModel</title>
<polygon fill="white" stroke="none" points="-4,4 -4,-1280 786,-1280 786,4 -4,4"/>
<!-- Node1 -->
<g id="node1" class="node"><title>Node1</title>
<polygon fill="#bfbfbf" stroke="black" points="519,-1 519,-135 699,-135 699,-1 519,-1"/>
<text text-anchor="start" x="527" y="-123" font-family="Helvetica,sans-Serif" font-size="10.00">FixedG1GenerationalCellCycle</text>
<text text-anchor="middle" x="609" y="-112" font-family="Helvetica,sans-Serif" font-size="10.00">Model</text>
<polyline fill="none" stroke="black" points="519,-105 699,-105 "/>
<text text-anchor="middle" x="609" y="-93" font-family="Helvetica,sans-Serif" font-size="10.00"> </text>
<polyline fill="none" stroke="black" points="519,-86 699,-86 "/>
<text text-anchor="start" x="527" y="-74" font-family="Helvetica,sans-Serif" font-size="10.00">+ FixedG1GenerationalCellCycle</text>
<text text-anchor="start" x="527" y="-63" font-family="Helvetica,sans-Serif" font-size="10.00">Model()</text>
<text text-anchor="start" x="527" y="-52" font-family="Helvetica,sans-Serif" font-size="10.00">+ CreateCellCycleModel()</text>
<text text-anchor="start" x="527" y="-41" font-family="Helvetica,sans-Serif" font-size="10.00">+ OutputCellCycleModelParameters()</text>
<text text-anchor="start" x="527" y="-30" font-family="Helvetica,sans-Serif" font-size="10.00"># FixedG1GenerationalCellCycle</text>
<text text-anchor="start" x="527" y="-19" font-family="Helvetica,sans-Serif" font-size="10.00">Model()</text>
<text text-anchor="start" x="527" y="-8" font-family="Helvetica,sans-Serif" font-size="10.00">&#45; serialize()</text>
</g>
<!-- Node2 -->
<g id="node2" class="node"><title>Node2</title>
<g id="a_node2"><a xlink:href="classAbstractSimpleGenerationalCellCycleModel.html" target="_top" xlink:title="{AbstractSimpleGenerational\lCellCycleModel\n||+ AbstractSimpleGenerational\lCellCycleModel()\l+ ~AbstractSimpleGenerational\lCellCycleModel()\l+ ResetForDivision()\l+ InitialiseDaughterCell()\l+ SetGeneration()\l+ GetGeneration()\l+ SetMaxTransitGenerations()\l+ GetMaxTransitGenerations()\l+ OutputCellCycleModelParameters()\l# AbstractSimpleGenerational\lCellCycleModel()\l&#45; serialize()\l}">
<polygon fill="white" stroke="black" points="519,-174.5 519,-385.5 699,-385.5 699,-174.5 519,-174.5"/>
<text text-anchor="start" x="527" y="-373.5" font-family="Helvetica,sans-Serif" font-size="10.00">AbstractSimpleGenerational</text>
<text text-anchor="middle" x="609" y="-362.5" font-family="Helvetica,sans-Serif" font-size="10.00">CellCycleModel</text>
<polyline fill="none" stroke="black" points="519,-355.5 699,-355.5 "/>
<text text-anchor="middle" x="609" y="-343.5" font-family="Helvetica,sans-Serif" font-size="10.00"> </text>
<polyline fill="none" stroke="black" points="519,-336.5 699,-336.5 "/>
<text text-anchor="start" x="527" y="-324.5" font-family="Helvetica,sans-Serif" font-size="10.00">+ AbstractSimpleGenerational</text>
<text text-anchor="start" x="527" y="-313.5" font-family="Helvetica,sans-Serif" font-size="10.00">CellCycleModel()</text>
<text text-anchor="start" x="527" y="-302.5" font-family="Helvetica,sans-Serif" font-size="10.00">+ ~AbstractSimpleGenerational</text>
<text text-anchor="start" x="527" y="-291.5" font-family="Helvetica,sans-Serif" font-size="10.00">CellCycleModel()</text>
<text text-anchor="start" x="527" y="-280.5" font-family="Helvetica,sans-Serif" font-size="10.00">+ ResetForDivision()</text>
<text text-anchor="start" x="527" y="-269.5" font-family="Helvetica,sans-Serif" font-size="10.00">+ InitialiseDaughterCell()</text>
<text text-anchor="start" x="527" y="-258.5" font-family="Helvetica,sans-Serif" font-size="10.00">+ SetGeneration()</text>
<text text-anchor="start" x="527" y="-247.5" font-family="Helvetica,sans-Serif" font-size="10.00">+ GetGeneration()</text>
<text text-anchor="start" x="527" y="-236.5" font-family="Helvetica,sans-Serif" font-size="10.00">+ SetMaxTransitGenerations()</text>
<text text-anchor="start" x="527" y="-225.5" font-family="Helvetica,sans-Serif" font-size="10.00">+ GetMaxTransitGenerations()</text>
<text text-anchor="start" x="527" y="-214.5" font-family="Helvetica,sans-Serif" font-size="10.00">+ OutputCellCycleModelParameters()</text>
<text text-anchor="start" x="527" y="-203.5" font-family="Helvetica,sans-Serif" font-size="10.00"># AbstractSimpleGenerational</text>
<text text-anchor="start" x="527" y="-192.5" font-family="Helvetica,sans-Serif" font-size="10.00">CellCycleModel()</text>
<text text-anchor="start" x="527" y="-181.5" font-family="Helvetica,sans-Serif" font-size="10.00">&#45; serialize()</text>
</a>
</g>
</g>
<!-- Node2&#45;&gt;Node1 -->
<g id="edge1" class="edge"><title>Node2&#45;&gt;Node1</title>
<path fill="none" stroke="midnightblue" d="M609,-164.303C609,-154.324 609,-144.463 609,-135.084"/>
<polygon fill="none" stroke="midnightblue" points="605.5,-164.308 609,-174.308 612.5,-164.308 605.5,-164.308"/>
</g>
<!-- Node3 -->
<g id="node3" class="node"><title>Node3</title>
<g id="a_node3"><a xlink:href="classAbstractSimplePhaseBasedCellCycleModel.html" target="_top" xlink:title="{AbstractSimplePhaseBased\lCellCycleModel\n||+ AbstractSimplePhaseBased\lCellCycleModel()\l+ ~AbstractSimplePhaseBased\lCellCycleModel()\l+ ResetForDivision()\l+ UpdateCellCyclePhase()\l+ InitialiseDaughterCell()\l+ Initialise()\l+ OutputCellCycleModelParameters()\l# SetG1Duration()\l# AbstractSimplePhaseBased\lCellCycleModel()\l&#45; serialize()\l}">
<polygon fill="white" stroke="black" points="370,-425 370,-625 550,-625 550,-425 370,-425"/>
<text text-anchor="start" x="378" y="-613" font-family="Helvetica,sans-Serif" font-size="10.00">AbstractSimplePhaseBased</text>
<text text-anchor="middle" x="460" y="-602" font-family="Helvetica,sans-Serif" font-size="10.00">CellCycleModel</text>
<polyline fill="none" stroke="black" points="370,-595 550,-595 "/>
<text text-anchor="middle" x="460" y="-583" font-family="Helvetica,sans-Serif" font-size="10.00"> </text>
<polyline fill="none" stroke="black" points="370,-576 550,-576 "/>
<text text-anchor="start" x="378" y="-564" font-family="Helvetica,sans-Serif" font-size="10.00">+ AbstractSimplePhaseBased</text>
<text text-anchor="start" x="378" y="-553" font-family="Helvetica,sans-Serif" font-size="10.00">CellCycleModel()</text>
<text text-anchor="start" x="378" y="-542" font-family="Helvetica,sans-Serif" font-size="10.00">+ ~AbstractSimplePhaseBased</text>
<text text-anchor="start" x="378" y="-531" font-family="Helvetica,sans-Serif" font-size="10.00">CellCycleModel()</text>
<text text-anchor="start" x="378" y="-520" font-family="Helvetica,sans-Serif" font-size="10.00">+ ResetForDivision()</text>
<text text-anchor="start" x="378" y="-509" font-family="Helvetica,sans-Serif" font-size="10.00">+ UpdateCellCyclePhase()</text>
<text text-anchor="start" x="378" y="-498" font-family="Helvetica,sans-Serif" font-size="10.00">+ InitialiseDaughterCell()</text>
<text text-anchor="start" x="378" y="-487" font-family="Helvetica,sans-Serif" font-size="10.00">+ Initialise()</text>
<text text-anchor="start" x="378" y="-476" font-family="Helvetica,sans-Serif" font-size="10.00">+ OutputCellCycleModelParameters()</text>
<text text-anchor="start" x="378" y="-465" font-family="Helvetica,sans-Serif" font-size="10.00"># SetG1Duration()</text>
<text text-anchor="start" x="378" y="-454" font-family="Helvetica,sans-Serif" font-size="10.00"># AbstractSimplePhaseBased</text>
<text text-anchor="start" x="378" y="-443" font-family="Helvetica,sans-Serif" font-size="10.00">CellCycleModel()</text>
<text text-anchor="start" x="378" y="-432" font-family="Helvetica,sans-Serif" font-size="10.00">&#45; serialize()</text>
</a>
</g>
</g>
<!-- Node3&#45;&gt;Node2 -->
<g id="edge2" class="edge"><title>Node3&#45;&gt;Node2</title>
<path fill="none" stroke="midnightblue" d="M526.207,-416.024C532.366,-405.98 538.601,-395.811 544.742,-385.796"/>
<polygon fill="none" stroke="midnightblue" points="523.062,-414.458 520.819,-424.812 529.03,-418.117 523.062,-414.458"/>
</g>
<!-- Node4 -->
<g id="node4" class="node"><title>Node4</title>
<g id="a_node4"><a xlink:href="classAbstractPhaseBasedCellCycleModel.html" target="_top" xlink:title="{AbstractPhaseBasedCellCycle\lModel\n||+ AbstractPhaseBasedCellCycle\lModel()\l+ ~AbstractPhaseBasedCellCycle\lModel()\l+ ReadyToDivide()\l+ ResetForDivision()\l+ UpdateCellCyclePhase()\l+ GetCurrentCellCyclePhase()\l+ GetG1Duration()\l+ GetStemCellG1Duration()\l+ GetTransitCellG1Duration()\l+ GetSG2MDuration()\land 13 more...\l# AbstractPhaseBasedCellCycle\lModel()\l&#45; serialize()\l}">
<polygon fill="white" stroke="black" points="154.5,-664.5 154.5,-897.5 321.5,-897.5 321.5,-664.5 154.5,-664.5"/>
<text text-anchor="start" x="162.5" y="-885.5" font-family="Helvetica,sans-Serif" font-size="10.00">AbstractPhaseBasedCellCycle</text>
<text text-anchor="middle" x="238" y="-874.5" font-family="Helvetica,sans-Serif" font-size="10.00">Model</text>
<polyline fill="none" stroke="black" points="154.5,-867.5 321.5,-867.5 "/>
<text text-anchor="middle" x="238" y="-855.5" font-family="Helvetica,sans-Serif" font-size="10.00"> </text>
<polyline fill="none" stroke="black" points="154.5,-848.5 321.5,-848.5 "/>
<text text-anchor="start" x="162.5" y="-836.5" font-family="Helvetica,sans-Serif" font-size="10.00">+ AbstractPhaseBasedCellCycle</text>
<text text-anchor="start" x="162.5" y="-825.5" font-family="Helvetica,sans-Serif" font-size="10.00">Model()</text>
<text text-anchor="start" x="162.5" y="-814.5" font-family="Helvetica,sans-Serif" font-size="10.00">+ ~AbstractPhaseBasedCellCycle</text>
<text text-anchor="start" x="162.5" y="-803.5" font-family="Helvetica,sans-Serif" font-size="10.00">Model()</text>
<text text-anchor="start" x="162.5" y="-792.5" font-family="Helvetica,sans-Serif" font-size="10.00">+ ReadyToDivide()</text>
<text text-anchor="start" x="162.5" y="-781.5" font-family="Helvetica,sans-Serif" font-size="10.00">+ ResetForDivision()</text>
<text text-anchor="start" x="162.5" y="-770.5" font-family="Helvetica,sans-Serif" font-size="10.00">+ UpdateCellCyclePhase()</text>
<text text-anchor="start" x="162.5" y="-759.5" font-family="Helvetica,sans-Serif" font-size="10.00">+ GetCurrentCellCyclePhase()</text>
<text text-anchor="start" x="162.5" y="-748.5" font-family="Helvetica,sans-Serif" font-size="10.00">+ GetG1Duration()</text>
<text text-anchor="start" x="162.5" y="-737.5" font-family="Helvetica,sans-Serif" font-size="10.00">+ GetStemCellG1Duration()</text>
<text text-anchor="start" x="162.5" y="-726.5" font-family="Helvetica,sans-Serif" font-size="10.00">+ GetTransitCellG1Duration()</text>
<text text-anchor="start" x="162.5" y="-715.5" font-family="Helvetica,sans-Serif" font-size="10.00">+ GetSG2MDuration()</text>
<text text-anchor="start" x="162.5" y="-704.5" font-family="Helvetica,sans-Serif" font-size="10.00">and 13 more...</text>
<text text-anchor="start" x="162.5" y="-693.5" font-family="Helvetica,sans-Serif" font-size="10.00"># AbstractPhaseBasedCellCycle</text>
<text text-anchor="start" x="162.5" y="-682.5" font-family="Helvetica,sans-Serif" font-size="10.00">Model()</text>
<text text-anchor="start" x="162.5" y="-671.5" font-family="Helvetica,sans-Serif" font-size="10.00">&#45; serialize()</text>
</a>
</g>
</g>
<!-- Node4&#45;&gt;Node3 -->
<g id="edge3" class="edge"><title>Node4&#45;&gt;Node3</title>
<path fill="none" stroke="midnightblue" d="M328.365,-676.609C343.148,-659.695 358.438,-642.202 373.134,-625.387"/>
<polygon fill="none" stroke="midnightblue" points="325.558,-674.503 321.612,-684.335 330.829,-679.109 325.558,-674.503"/>
</g>
<!-- Node5 -->
<g id="node5" class="node"><title>Node5</title>
<g id="a_node5"><a xlink:href="classAbstractCellCycleModel.html" target="_top" xlink:title="{AbstractCellCycleModel\n||+ AbstractCellCycleModel()\l+ ~AbstractCellCycleModel()\l+ SetCell()\l+ Initialise()\l+ InitialiseDaughterCell()\l+ GetCell()\l+ SetBirthTime()\l+ SetDimension()\l+ GetDimension()\l+ GetBirthTime()\land 9 more...\l# AbstractCellCycleModel()\l&#45; serialize()\l&#45; operator=()\l}">
<polygon fill="white" stroke="black" points="338.5,-947 338.5,-1147 481.5,-1147 481.5,-947 338.5,-947"/>
<text text-anchor="middle" x="410" y="-1135" font-family="Helvetica,sans-Serif" font-size="10.00">AbstractCellCycleModel</text>
<polyline fill="none" stroke="black" points="338.5,-1128 481.5,-1128 "/>
<text text-anchor="middle" x="410" y="-1116" font-family="Helvetica,sans-Serif" font-size="10.00"> </text>
<polyline fill="none" stroke="black" points="338.5,-1109 481.5,-1109 "/>
<text text-anchor="start" x="346.5" y="-1097" font-family="Helvetica,sans-Serif" font-size="10.00">+ AbstractCellCycleModel()</text>
<text text-anchor="start" x="346.5" y="-1086" font-family="Helvetica,sans-Serif" font-size="10.00">+ ~AbstractCellCycleModel()</text>
<text text-anchor="start" x="346.5" y="-1075" font-family="Helvetica,sans-Serif" font-size="10.00">+ SetCell()</text>
<text text-anchor="start" x="346.5" y="-1064" font-family="Helvetica,sans-Serif" font-size="10.00">+ Initialise()</text>
<text text-anchor="start" x="346.5" y="-1053" font-family="Helvetica,sans-Serif" font-size="10.00">+ InitialiseDaughterCell()</text>
<text text-anchor="start" x="346.5" y="-1042" font-family="Helvetica,sans-Serif" font-size="10.00">+ GetCell()</text>
<text text-anchor="start" x="346.5" y="-1031" font-family="Helvetica,sans-Serif" font-size="10.00">+ SetBirthTime()</text>
<text text-anchor="start" x="346.5" y="-1020" font-family="Helvetica,sans-Serif" font-size="10.00">+ SetDimension()</text>
<text text-anchor="start" x="346.5" y="-1009" font-family="Helvetica,sans-Serif" font-size="10.00">+ GetDimension()</text>
<text text-anchor="start" x="346.5" y="-998" font-family="Helvetica,sans-Serif" font-size="10.00">+ GetBirthTime()</text>
<text text-anchor="start" x="346.5" y="-987" font-family="Helvetica,sans-Serif" font-size="10.00">and 9 more...</text>
<text text-anchor="start" x="346.5" y="-976" font-family="Helvetica,sans-Serif" font-size="10.00"># AbstractCellCycleModel()</text>
<text text-anchor="start" x="346.5" y="-965" font-family="Helvetica,sans-Serif" font-size="10.00">&#45; serialize()</text>
<text text-anchor="start" x="346.5" y="-954" font-family="Helvetica,sans-Serif" font-size="10.00">&#45; operator=()</text>
</a>
</g>
</g>
<!-- Node5&#45;&gt;Node4 -->
<g id="edge4" class="edge"><title>Node5&#45;&gt;Node4</title>
<path fill="none" stroke="midnightblue" d="M339.772,-938.208C331.054,-924.827 322.113,-911.103 313.322,-897.611"/>
<polygon fill="none" stroke="midnightblue" points="337.073,-940.477 345.464,-946.945 342.938,-936.656 337.073,-940.477"/>
</g>
<!-- Node6 -->
<g id="node6" class="node"><title>Node6</title>
<g id="a_node6"><a xlink:href="classIdentifiable.html" target="_top" xlink:title="{Identifiable\n||+ ~Identifiable()\l+ GetIdentifier()\l&#45; TidyTemplatedExportIdentifier()\l}">
<polygon fill="white" stroke="black" points="217.5,-1196.5 217.5,-1275.5 376.5,-1275.5 376.5,-1196.5 217.5,-1196.5"/>
<text text-anchor="middle" x="297" y="-1263.5" font-family="Helvetica,sans-Serif" font-size="10.00">Identifiable</text>
<polyline fill="none" stroke="black" points="217.5,-1256.5 376.5,-1256.5 "/>
<text text-anchor="middle" x="297" y="-1244.5" font-family="Helvetica,sans-Serif" font-size="10.00"> </text>
<polyline fill="none" stroke="black" points="217.5,-1237.5 376.5,-1237.5 "/>
<text text-anchor="start" x="225.5" y="-1225.5" font-family="Helvetica,sans-Serif" font-size="10.00">+ ~Identifiable()</text>
<text text-anchor="start" x="225.5" y="-1214.5" font-family="Helvetica,sans-Serif" font-size="10.00">+ GetIdentifier()</text>
<text text-anchor="start" x="225.5" y="-1203.5" font-family="Helvetica,sans-Serif" font-size="10.00">&#45; TidyTemplatedExportIdentifier()</text>
</a>
</g>
</g>
<!-- Node6&#45;&gt;Node5 -->
<g id="edge5" class="edge"><title>Node6&#45;&gt;Node5</title>
<path fill="none" stroke="midnightblue" d="M325.702,-1187.5C333.191,-1175.11 341.548,-1161.28 350.009,-1147.28"/>
<polygon fill="none" stroke="midnightblue" points="322.59,-1185.88 320.414,-1196.25 328.581,-1189.5 322.59,-1185.88"/>
</g>
<!-- Node7 -->
<g id="node7" class="node"><title>Node7</title>
<g id="a_node7"><a xlink:href="classdouble.html" target="_top" xlink:title="{double\n||}">
<polygon fill="white" stroke="black" points="154.5,-1207.5 154.5,-1264.5 199.5,-1264.5 199.5,-1207.5 154.5,-1207.5"/>
<text text-anchor="middle" x="177" y="-1252.5" font-family="Helvetica,sans-Serif" font-size="10.00">double</text>
<polyline fill="none" stroke="black" points="154.5,-1245.5 199.5,-1245.5 "/>
<text text-anchor="middle" x="177" y="-1233.5" font-family="Helvetica,sans-Serif" font-size="10.00"> </text>
<polyline fill="none" stroke="black" points="154.5,-1226.5 199.5,-1226.5 "/>
<text text-anchor="middle" x="177" y="-1214.5" font-family="Helvetica,sans-Serif" font-size="10.00"> </text>
</a>
</g>
</g>
<!-- Node7&#45;&gt;Node4 -->
<g id="edge10" class="edge"><title>Node7&#45;&gt;Node4</title>
<path fill="none" stroke="#404040" d="M180.724,-1207.34C188.512,-1149.51 206.947,-1012.61 220.813,-909.633"/>
<polygon fill="none" stroke="#404040" points="220.836,-909.461 217.673,-902.98 222.438,-897.568 225.601,-904.048 220.836,-909.461"/>
<text text-anchor="middle" x="271.5" y="-1077.5" font-family="Helvetica,sans-Serif" font-size="10.00"> #mSDuration</text>
<text text-anchor="middle" x="271.5" y="-1066.5" font-family="Helvetica,sans-Serif" font-size="10.00">#mStemCellG1Duration</text>
<text text-anchor="middle" x="271.5" y="-1055.5" font-family="Helvetica,sans-Serif" font-size="10.00">#mMDuration</text>
<text text-anchor="middle" x="271.5" y="-1044.5" font-family="Helvetica,sans-Serif" font-size="10.00">#mMinimumGapDuration</text>
<text text-anchor="middle" x="271.5" y="-1033.5" font-family="Helvetica,sans-Serif" font-size="10.00">#mTransitCellG1Duration</text>
<text text-anchor="middle" x="271.5" y="-1022.5" font-family="Helvetica,sans-Serif" font-size="10.00">#mG2Duration</text>
<text text-anchor="middle" x="271.5" y="-1011.5" font-family="Helvetica,sans-Serif" font-size="10.00">#mG1Duration</text>
</g>
<!-- Node7&#45;&gt;Node5 -->
<g id="edge6" class="edge"><title>Node7&#45;&gt;Node5</title>
<path fill="none" stroke="#404040" d="M196.547,-1207.1C200.077,-1203.09 203.938,-1199.23 208,-1196 232.274,-1176.7 242.986,-1179.3 271,-1166 287.881,-1157.98 293.698,-1158.73 309,-1148 315.72,-1143.29 322.398,-1138.11 328.933,-1132.68"/>
<polygon fill="none" stroke="#404040" points="329.293,-1132.37 331.234,-1125.42 338.391,-1124.54 336.45,-1131.49 329.293,-1132.37"/>
<text text-anchor="middle" x="300.5" y="-1169.5" font-family="Helvetica,sans-Serif" font-size="10.00"> #mBirthTime</text>
</g>
<!-- Node8 -->
<g id="node8" class="node"><title>Node8</title>
<polygon fill="white" stroke="#bfbfbf" points="394,-1207.5 394,-1264.5 492,-1264.5 492,-1207.5 394,-1207.5"/>
<text text-anchor="middle" x="443" y="-1252.5" font-family="Helvetica,sans-Serif" font-size="10.00">shared_ptr&lt; Cell &gt;</text>
<polyline fill="none" stroke="#bfbfbf" points="394,-1245.5 492,-1245.5 "/>
<text text-anchor="middle" x="443" y="-1233.5" font-family="Helvetica,sans-Serif" font-size="10.00"> </text>
<polyline fill="none" stroke="#bfbfbf" points="394,-1226.5 492,-1226.5 "/>
<text text-anchor="middle" x="443" y="-1214.5" font-family="Helvetica,sans-Serif" font-size="10.00"> </text>
</g>
<!-- Node8&#45;&gt;Node5 -->
<g id="edge7" class="edge"><title>Node8&#45;&gt;Node5</title>
<path fill="none" stroke="#404040" d="M428.506,-1207.27C424.394,-1198.18 420.389,-1187.87 418,-1178 416.542,-1171.97 415.304,-1165.75 414.257,-1159.43"/>
<polygon fill="none" stroke="#404040" points="414.205,-1159.08 409.379,-1153.72 412.468,-1147.21 417.295,-1152.56 414.205,-1159.08"/>
<text text-anchor="middle" x="438" y="-1169.5" font-family="Helvetica,sans-Serif" font-size="10.00"> #mpCell</text>
</g>
<!-- Node9 -->
<g id="node9" class="node"><title>Node9</title>
<g id="a_node9"><a xlink:href="classbool.html" target="_top" xlink:title="{bool\n||}">
<polygon fill="white" stroke="black" points="510.5,-1207.5 510.5,-1264.5 545.5,-1264.5 545.5,-1207.5 510.5,-1207.5"/>
<text text-anchor="middle" x="528" y="-1252.5" font-family="Helvetica,sans-Serif" font-size="10.00">bool</text>
<polyline fill="none" stroke="black" points="510.5,-1245.5 545.5,-1245.5 "/>
<text text-anchor="middle" x="528" y="-1233.5" font-family="Helvetica,sans-Serif" font-size="10.00"> </text>
<polyline fill="none" stroke="black" points="510.5,-1226.5 545.5,-1226.5 "/>
<text text-anchor="middle" x="528" y="-1214.5" font-family="Helvetica,sans-Serif" font-size="10.00"> </text>
</a>
</g>
</g>
<!-- Node9&#45;&gt;Node5 -->
<g id="edge8" class="edge"><title>Node9&#45;&gt;Node5</title>
<path fill="none" stroke="#404040" d="M510.294,-1208.88C507.011,-1204.47 503.508,-1200.02 500,-1196 492.351,-1187.24 488.096,-1187.22 481,-1178 476.046,-1171.57 471.234,-1164.74 466.603,-1157.72"/>
<polygon fill="none" stroke="#404040" points="466.416,-1157.43 459.815,-1154.52 459.955,-1147.31 466.556,-1150.22 466.416,-1157.43"/>
<text text-anchor="middle" x="523.5" y="-1169.5" font-family="Helvetica,sans-Serif" font-size="10.00"> #mReadyToDivide</text>
</g>
<!-- Node10 -->
<g id="node10" class="node"><title>Node10</title>
<g id="a_node10"><a xlink:href="classunsigned.html" target="_top" xlink:title="{unsigned\n||}">
<polygon fill="white" stroke="black" points="601,-1207.5 601,-1264.5 657,-1264.5 657,-1207.5 601,-1207.5"/>
<text text-anchor="middle" x="629" y="-1252.5" font-family="Helvetica,sans-Serif" font-size="10.00">unsigned</text>
<polyline fill="none" stroke="black" points="601,-1245.5 657,-1245.5 "/>
<text text-anchor="middle" x="629" y="-1233.5" font-family="Helvetica,sans-Serif" font-size="10.00"> </text>
<polyline fill="none" stroke="black" points="601,-1226.5 657,-1226.5 "/>
<text text-anchor="middle" x="629" y="-1214.5" font-family="Helvetica,sans-Serif" font-size="10.00"> </text>
</a>
</g>
</g>
<!-- Node10&#45;&gt;Node2 -->
<g id="edge12" class="edge"><title>Node10&#45;&gt;Node2</title>
<path fill="none" stroke="#404040" d="M638.199,-1207.48C649.445,-1171.32 667,-1105.64 667,-1048 667,-1048 667,-1048 667,-524 667,-481.958 658.685,-436.915 648.351,-397.172"/>
<polygon fill="none" stroke="#404040" points="648.347,-397.155 642.929,-392.396 645.238,-385.565 650.656,-390.324 648.347,-397.155"/>
<text text-anchor="middle" x="724.5" y="-784" font-family="Helvetica,sans-Serif" font-size="10.00"> #mGeneration</text>
<text text-anchor="middle" x="724.5" y="-773" font-family="Helvetica,sans-Serif" font-size="10.00">#mMaxTransitGenerations</text>
</g>
<!-- Node10&#45;&gt;Node5 -->
<g id="edge9" class="edge"><title>Node10&#45;&gt;Node5</title>
<path fill="none" stroke="#404040" d="M605.854,-1207.37C594.39,-1194.3 580.025,-1178.79 566,-1166 542.848,-1144.89 516.124,-1123.68 491.409,-1105.17"/>
<polygon fill="none" stroke="#404040" points="491.319,-1105.1 484.118,-1104.74 481.685,-1097.95 488.887,-1098.31 491.319,-1105.1"/>
<text text-anchor="middle" x="609" y="-1169.5" font-family="Helvetica,sans-Serif" font-size="10.00"> #mDimension</text>
</g>
<!-- Node11 -->
<g id="node11" class="node"><title>Node11</title>
<polygon fill="white" stroke="#bfbfbf" points="-0.5,-1018.5 -0.5,-1075.5 118.5,-1075.5 118.5,-1018.5 -0.5,-1018.5"/>
<text text-anchor="middle" x="59" y="-1063.5" font-family="Helvetica,sans-Serif" font-size="10.00">enum CellCyclePhase_</text>
<polyline fill="none" stroke="#bfbfbf" points="-0.5,-1056.5 118.5,-1056.5 "/>
<text text-anchor="middle" x="59" y="-1044.5" font-family="Helvetica,sans-Serif" font-size="10.00"> </text>
<polyline fill="none" stroke="#bfbfbf" points="-0.5,-1037.5 118.5,-1037.5 "/>
<text text-anchor="middle" x="59" y="-1025.5" font-family="Helvetica,sans-Serif" font-size="10.00"> </text>
</g>
<!-- Node11&#45;&gt;Node4 -->
<g id="edge11" class="edge"><title>Node11&#45;&gt;Node4</title>
<path fill="none" stroke="#404040" d="M52.463,-1018.47C47.4256,-990.97 43.755,-948.252 60,-916 78.2134,-879.84 111.291,-850.848 144.032,-829.208"/>
<polygon fill="none" stroke="#404040" points="144.055,-829.192 146.955,-822.59 154.165,-822.728 151.265,-829.33 144.055,-829.192"/>
<text text-anchor="middle" x="120" y="-919.5" font-family="Helvetica,sans-Serif" font-size="10.00"> #mCurrentCellCyclePhase</text>
</g>
</g>
</svg>
