<?xml version="1.0" encoding="UTF-8" standalone="no"?>
<!DOCTYPE svg PUBLIC "-//W3C//DTD SVG 1.1//EN"
 "http://www.w3.org/Graphics/SVG/1.1/DTD/svg11.dtd">
<!-- Generated by graphviz version 2.36.0 (20140111.2315)
 -->
<!-- Title: AveragedSourceParabolicPde&lt; DIM &gt; Pages: 1 -->
<svg width="2020pt" height="1120pt"
 viewBox="0.00 0.00 2020.00 1120.00" xmlns="http://www.w3.org/2000/svg" xmlns:xlink="http://www.w3.org/1999/xlink">
<g id="graph0" class="graph" transform="scale(1 1) rotate(0) translate(4 1116)">
<title>AveragedSourceParabolicPde&lt; DIM &gt;</title>
<polygon fill="white" stroke="none" points="-4,4 -4,-1116 2016,-1116 2016,4 -4,4"/>
<!-- Node1 -->
<g id="node1" class="node"><title>Node1</title>
<polygon fill="#bfbfbf" stroke="black" points="586.5,-1 586.5,-157 765.5,-157 765.5,-1 586.5,-1"/>
<text text-anchor="start" x="594.5" y="-145" font-family="Helvetica,sans-Serif" font-size="10.00">AveragedSourceParabolicPde</text>
<text text-anchor="middle" x="676" y="-134" font-family="Helvetica,sans-Serif" font-size="10.00">&lt; DIM &gt;</text>
<polyline fill="none" stroke="black" points="586.5,-127 765.5,-127 "/>
<text text-anchor="middle" x="676" y="-115" font-family="Helvetica,sans-Serif" font-size="10.00"> </text>
<polyline fill="none" stroke="black" points="586.5,-108 765.5,-108 "/>
<text text-anchor="start" x="594.5" y="-96" font-family="Helvetica,sans-Serif" font-size="10.00">+ AveragedSourceParabolicPde()</text>
<text text-anchor="start" x="594.5" y="-85" font-family="Helvetica,sans-Serif" font-size="10.00">+ rGetCellPopulation()</text>
<text text-anchor="start" x="594.5" y="-74" font-family="Helvetica,sans-Serif" font-size="10.00">+ SetupSourceTerms()</text>
<text text-anchor="start" x="594.5" y="-63" font-family="Helvetica,sans-Serif" font-size="10.00">+ ComputeDuDtCoefficientFunction()</text>
<text text-anchor="start" x="594.5" y="-52" font-family="Helvetica,sans-Serif" font-size="10.00">+ ComputeSourceTerm()</text>
<text text-anchor="start" x="594.5" y="-41" font-family="Helvetica,sans-Serif" font-size="10.00">+ ComputeSourceTermAtNode()</text>
<text text-anchor="start" x="594.5" y="-30" font-family="Helvetica,sans-Serif" font-size="10.00">+ ComputeDiffusionTerm()</text>
<text text-anchor="start" x="594.5" y="-19" font-family="Helvetica,sans-Serif" font-size="10.00">+ GetUptakeRateForElement()</text>
<text text-anchor="start" x="594.5" y="-8" font-family="Helvetica,sans-Serif" font-size="10.00">&#45; serialize()</text>
</g>
<!-- Node2 -->
<g id="node2" class="node"><title>Node2</title>
<g id="a_node2"><a xlink:href="classAbstractLinearParabolicPde.html" target="_top" xlink:title="{AbstractLinearParabolicPde\l\&lt; DIM, DIM \&gt;\n||+ AbstractLinearParabolicPde()\l+ ~AbstractLinearParabolicPde()\l+ ComputeDuDtCoefficientFunction()\l+ ComputeSourceTerm()\l+ ComputeSourceTermAtNode()\l+ ComputeDiffusionTerm()\l&#45; serialize()\l}">
<polygon fill="white" stroke="black" points="117.5,-306 117.5,-440 296.5,-440 296.5,-306 117.5,-306"/>
<text text-anchor="start" x="125.5" y="-428" font-family="Helvetica,sans-Serif" font-size="10.00">AbstractLinearParabolicPde</text>
<text text-anchor="middle" x="207" y="-417" font-family="Helvetica,sans-Serif" font-size="10.00">&lt; DIM, DIM &gt;</text>
<polyline fill="none" stroke="black" points="117.5,-410 296.5,-410 "/>
<text text-anchor="middle" x="207" y="-398" font-family="Helvetica,sans-Serif" font-size="10.00"> </text>
<polyline fill="none" stroke="black" points="117.5,-391 296.5,-391 "/>
<text text-anchor="start" x="125.5" y="-379" font-family="Helvetica,sans-Serif" font-size="10.00">+ AbstractLinearParabolicPde()</text>
<text text-anchor="start" x="125.5" y="-368" font-family="Helvetica,sans-Serif" font-size="10.00">+ ~AbstractLinearParabolicPde()</text>
<text text-anchor="start" x="125.5" y="-357" font-family="Helvetica,sans-Serif" font-size="10.00">+ ComputeDuDtCoefficientFunction()</text>
<text text-anchor="start" x="125.5" y="-346" font-family="Helvetica,sans-Serif" font-size="10.00">+ ComputeSourceTerm()</text>
<text text-anchor="start" x="125.5" y="-335" font-family="Helvetica,sans-Serif" font-size="10.00">+ ComputeSourceTermAtNode()</text>
<text text-anchor="start" x="125.5" y="-324" font-family="Helvetica,sans-Serif" font-size="10.00">+ ComputeDiffusionTerm()</text>
<text text-anchor="start" x="125.5" y="-313" font-family="Helvetica,sans-Serif" font-size="10.00">&#45; serialize()</text>
</a>
</g>
</g>
<!-- Node2&#45;&gt;Node1 -->
<g id="edge1" class="edge"><title>Node2&#45;&gt;Node1</title>
<path fill="none" stroke="midnightblue" d="M305.266,-310.819C388.195,-259.188 505.923,-185.89 586.323,-135.833"/>
<polygon fill="none" stroke="midnightblue" points="303.235,-307.961 296.596,-316.217 306.935,-313.903 303.235,-307.961"/>
</g>
<!-- Node3 -->
<g id="node3" class="node"><title>Node3</title>
<g id="a_node3"><a xlink:href="classAbstractLinearPde.html" target="_top" xlink:title="{AbstractLinearPde\&lt;\l ELEMENT_DIM, SPACE_DIM \&gt;\n||+ AbstractLinearPde()\l+ ~AbstractLinearPde()\l&#45; serialize()\l}">
<polygon fill="white" stroke="black" points="7,-915 7,-1005 171,-1005 171,-915 7,-915"/>
<text text-anchor="start" x="15" y="-993" font-family="Helvetica,sans-Serif" font-size="10.00">AbstractLinearPde&lt;</text>
<text text-anchor="middle" x="89" y="-982" font-family="Helvetica,sans-Serif" font-size="10.00"> ELEMENT_DIM, SPACE_DIM &gt;</text>
<polyline fill="none" stroke="black" points="7,-975 171,-975 "/>
<text text-anchor="middle" x="89" y="-963" font-family="Helvetica,sans-Serif" font-size="10.00"> </text>
<polyline fill="none" stroke="black" points="7,-956 171,-956 "/>
<text text-anchor="start" x="15" y="-944" font-family="Helvetica,sans-Serif" font-size="10.00">+ AbstractLinearPde()</text>
<text text-anchor="start" x="15" y="-933" font-family="Helvetica,sans-Serif" font-size="10.00">+ ~AbstractLinearPde()</text>
<text text-anchor="start" x="15" y="-922" font-family="Helvetica,sans-Serif" font-size="10.00">&#45; serialize()</text>
</a>
</g>
</g>
<!-- Node3&#45;&gt;Node2 -->
<g id="edge2" class="edge"><title>Node3&#45;&gt;Node2</title>
<path fill="none" stroke="midnightblue" d="M151.418,-907.728C165.641,-892.651 178.927,-875.041 187,-856 245.682,-717.59 231.904,-536.307 218.43,-440.322"/>
<polygon fill="none" stroke="midnightblue" points="148.872,-905.326 144.379,-914.921 153.875,-910.222 148.872,-905.326"/>
</g>
<!-- Node4 -->
<g id="node4" class="node"><title>Node4</title>
<g id="a_node4"><a xlink:href="classAbstractLinearParabolicPde.html" target="_top" xlink:title="{AbstractLinearParabolicPde\l\&lt; ELEMENT_DIM, SPACE_DIM \&gt;\n||+ AbstractLinearParabolicPde()\l+ ~AbstractLinearParabolicPde()\l+ ComputeDuDtCoefficientFunction()\l+ ComputeSourceTerm()\l+ ComputeSourceTermAtNode()\l+ ComputeDiffusionTerm()\l&#45; serialize()\l}">
<polygon fill="white" stroke="black" points="-0.5,-644 -0.5,-778 178.5,-778 178.5,-644 -0.5,-644"/>
<text text-anchor="start" x="7.5" y="-766" font-family="Helvetica,sans-Serif" font-size="10.00">AbstractLinearParabolicPde</text>
<text text-anchor="middle" x="89" y="-755" font-family="Helvetica,sans-Serif" font-size="10.00">&lt; ELEMENT_DIM, SPACE_DIM &gt;</text>
<polyline fill="none" stroke="black" points="-0.5,-748 178.5,-748 "/>
<text text-anchor="middle" x="89" y="-736" font-family="Helvetica,sans-Serif" font-size="10.00"> </text>
<polyline fill="none" stroke="black" points="-0.5,-729 178.5,-729 "/>
<text text-anchor="start" x="7.5" y="-717" font-family="Helvetica,sans-Serif" font-size="10.00">+ AbstractLinearParabolicPde()</text>
<text text-anchor="start" x="7.5" y="-706" font-family="Helvetica,sans-Serif" font-size="10.00">+ ~AbstractLinearParabolicPde()</text>
<text text-anchor="start" x="7.5" y="-695" font-family="Helvetica,sans-Serif" font-size="10.00">+ ComputeDuDtCoefficientFunction()</text>
<text text-anchor="start" x="7.5" y="-684" font-family="Helvetica,sans-Serif" font-size="10.00">+ ComputeSourceTerm()</text>
<text text-anchor="start" x="7.5" y="-673" font-family="Helvetica,sans-Serif" font-size="10.00">+ ComputeSourceTermAtNode()</text>
<text text-anchor="start" x="7.5" y="-662" font-family="Helvetica,sans-Serif" font-size="10.00">+ ComputeDiffusionTerm()</text>
<text text-anchor="start" x="7.5" y="-651" font-family="Helvetica,sans-Serif" font-size="10.00">&#45; serialize()</text>
</a>
</g>
</g>
<!-- Node3&#45;&gt;Node4 -->
<g id="edge4" class="edge"><title>Node3&#45;&gt;Node4</title>
<path fill="none" stroke="midnightblue" d="M89,-904.672C89,-867.385 89,-817.68 89,-778.095"/>
<polygon fill="none" stroke="midnightblue" points="85.5001,-904.841 89,-914.841 92.5001,-904.841 85.5001,-904.841"/>
</g>
<!-- Node4&#45;&gt;Node2 -->
<g id="edge3" class="edge"><title>Node4&#45;&gt;Node2</title>
<path fill="none" stroke="orange" d="M102.054,-633.878C108.372,-603.038 117.005,-567.371 128,-536 139.385,-503.517 155.572,-469.039 170.332,-440.278"/>
<polygon fill="orange" stroke="orange" points="98.617,-633.217 100.084,-643.71 105.481,-634.592 98.617,-633.217"/>
<text text-anchor="middle" x="160.5" y="-539.5" font-family="Helvetica,sans-Serif" font-size="10.00"> &lt; DIM, DIM &gt;</text>
</g>
<!-- Node5 -->
<g id="node5" class="node"><title>Node5</title>
<polygon fill="white" stroke="#bfbfbf" points="543,-344.5 543,-401.5 633,-401.5 633,-344.5 543,-344.5"/>
<text text-anchor="middle" x="588" y="-389.5" font-family="Helvetica,sans-Serif" font-size="10.00">vector&lt; double &gt;</text>
<polyline fill="none" stroke="#bfbfbf" points="543,-382.5 633,-382.5 "/>
<text text-anchor="middle" x="588" y="-370.5" font-family="Helvetica,sans-Serif" font-size="10.00"> </text>
<polyline fill="none" stroke="#bfbfbf" points="543,-363.5 633,-363.5 "/>
<text text-anchor="middle" x="588" y="-351.5" font-family="Helvetica,sans-Serif" font-size="10.00"> </text>
</g>
<!-- Node5&#45;&gt;Node1 -->
<g id="edge5" class="edge"><title>Node5&#45;&gt;Node1</title>
<path fill="none" stroke="#404040" d="M582.111,-344.225C575.146,-305.161 567.058,-232.456 589,-176 590.066,-173.258 591.249,-170.546 592.536,-167.867"/>
<polygon fill="none" stroke="#404040" points="592.672,-167.617 592.002,-160.437 598.372,-157.057 599.042,-164.236 592.672,-167.617"/>
<text text-anchor="middle" x="666" y="-190.5" font-family="Helvetica,sans-Serif" font-size="10.00"> #mCellDensityOnCoarseElements</text>
</g>
<!-- Node6 -->
<g id="node6" class="node"><title>Node6</title>
<g id="a_node6"><a xlink:href="classdouble.html" target="_top" xlink:title="{double\n||}">
<polygon fill="white" stroke="black" points="742.5,-344.5 742.5,-401.5 787.5,-401.5 787.5,-344.5 742.5,-344.5"/>
<text text-anchor="middle" x="765" y="-389.5" font-family="Helvetica,sans-Serif" font-size="10.00">double</text>
<polyline fill="none" stroke="black" points="742.5,-382.5 787.5,-382.5 "/>
<text text-anchor="middle" x="765" y="-370.5" font-family="Helvetica,sans-Serif" font-size="10.00"> </text>
<polyline fill="none" stroke="black" points="742.5,-363.5 787.5,-363.5 "/>
<text text-anchor="middle" x="765" y="-351.5" font-family="Helvetica,sans-Serif" font-size="10.00"> </text>
</a>
</g>
</g>
<!-- Node6&#45;&gt;Node1 -->
<g id="edge6" class="edge"><title>Node6&#45;&gt;Node1</title>
<path fill="none" stroke="#404040" d="M766.106,-344.385C766.739,-305.511 764.503,-233.031 743,-176 741.987,-173.312 740.881,-170.629 739.696,-167.957"/>
<polygon fill="none" stroke="#404040" points="739.649,-167.859 733.432,-164.205 734.415,-157.061 740.631,-160.715 739.649,-167.859"/>
<text text-anchor="middle" x="803" y="-201.5" font-family="Helvetica,sans-Serif" font-size="10.00"> #mDuDtCoefficient</text>
<text text-anchor="middle" x="803" y="-190.5" font-family="Helvetica,sans-Serif" font-size="10.00">#mDiffusionCoefficient</text>
<text text-anchor="middle" x="803" y="-179.5" font-family="Helvetica,sans-Serif" font-size="10.00">#mSourceCoefficient</text>
</g>
<!-- Node7 -->
<g id="node7" class="node"><title>Node7</title>
<g id="a_node7"><a xlink:href="classAbstractCellPopulation.html" target="_top" xlink:title="{AbstractCellPopulation\l\&lt; DIM, DIM \&gt;\n||+ AbstractCellPopulation()\l+ ~AbstractCellPopulation()\l+ InitialiseCells()\l+ SetDataOnAllCells()\l+ rGetMesh()\l+ GetTetrahedralMeshForPde\lModifier()\l+ IsPdeNodeAssociatedWithNon\lApoptoticCell()\l+ GetCellDataItemAtPdeNode()\l+ rGetCells()\l+ GetNumNodes()\land 55 more...\l# Validate()\l# WriteVtkResultsToFile()\l# AbstractCellPopulation()\l# AcceptCellWritersAcrossPopulation()\l&#45; serialize()\l&#45; OpenRoundRobinWritersFiles\lForAppend()\l&#45; CloseRoundRobinWritersFiles()\l}">
<polygon fill="white" stroke="black" points="943.5,-229 943.5,-517 1130.5,-517 1130.5,-229 943.5,-229"/>
<text text-anchor="start" x="951.5" y="-505" font-family="Helvetica,sans-Serif" font-size="10.00">AbstractCellPopulation</text>
<text text-anchor="middle" x="1037" y="-494" font-family="Helvetica,sans-Serif" font-size="10.00">&lt; DIM, DIM &gt;</text>
<polyline fill="none" stroke="black" points="943.5,-487 1130.5,-487 "/>
<text text-anchor="middle" x="1037" y="-475" font-family="Helvetica,sans-Serif" font-size="10.00"> </text>
<polyline fill="none" stroke="black" points="943.5,-468 1130.5,-468 "/>
<text text-anchor="start" x="951.5" y="-456" font-family="Helvetica,sans-Serif" font-size="10.00">+ AbstractCellPopulation()</text>
<text text-anchor="start" x="951.5" y="-445" font-family="Helvetica,sans-Serif" font-size="10.00">+ ~AbstractCellPopulation()</text>
<text text-anchor="start" x="951.5" y="-434" font-family="Helvetica,sans-Serif" font-size="10.00">+ InitialiseCells()</text>
<text text-anchor="start" x="951.5" y="-423" font-family="Helvetica,sans-Serif" font-size="10.00">+ SetDataOnAllCells()</text>
<text text-anchor="start" x="951.5" y="-412" font-family="Helvetica,sans-Serif" font-size="10.00">+ rGetMesh()</text>
<text text-anchor="start" x="951.5" y="-401" font-family="Helvetica,sans-Serif" font-size="10.00">+ GetTetrahedralMeshForPde</text>
<text text-anchor="start" x="951.5" y="-390" font-family="Helvetica,sans-Serif" font-size="10.00">Modifier()</text>
<text text-anchor="start" x="951.5" y="-379" font-family="Helvetica,sans-Serif" font-size="10.00">+ IsPdeNodeAssociatedWithNon</text>
<text text-anchor="start" x="951.5" y="-368" font-family="Helvetica,sans-Serif" font-size="10.00">ApoptoticCell()</text>
<text text-anchor="start" x="951.5" y="-357" font-family="Helvetica,sans-Serif" font-size="10.00">+ GetCellDataItemAtPdeNode()</text>
<text text-anchor="start" x="951.5" y="-346" font-family="Helvetica,sans-Serif" font-size="10.00">+ rGetCells()</text>
<text text-anchor="start" x="951.5" y="-335" font-family="Helvetica,sans-Serif" font-size="10.00">+ GetNumNodes()</text>
<text text-anchor="start" x="951.5" y="-324" font-family="Helvetica,sans-Serif" font-size="10.00">and 55 more...</text>
<text text-anchor="start" x="951.5" y="-313" font-family="Helvetica,sans-Serif" font-size="10.00"># Validate()</text>
<text text-anchor="start" x="951.5" y="-302" font-family="Helvetica,sans-Serif" font-size="10.00"># WriteVtkResultsToFile()</text>
<text text-anchor="start" x="951.5" y="-291" font-family="Helvetica,sans-Serif" font-size="10.00"># AbstractCellPopulation()</text>
<text text-anchor="start" x="951.5" y="-280" font-family="Helvetica,sans-Serif" font-size="10.00"># AcceptCellWritersAcrossPopulation()</text>
<text text-anchor="start" x="951.5" y="-269" font-family="Helvetica,sans-Serif" font-size="10.00">&#45; serialize()</text>
<text text-anchor="start" x="951.5" y="-258" font-family="Helvetica,sans-Serif" font-size="10.00">&#45; OpenRoundRobinWritersFiles</text>
<text text-anchor="start" x="951.5" y="-247" font-family="Helvetica,sans-Serif" font-size="10.00">ForAppend()</text>
<text text-anchor="start" x="951.5" y="-236" font-family="Helvetica,sans-Serif" font-size="10.00">&#45; CloseRoundRobinWritersFiles()</text>
</a>
</g>
</g>
<!-- Node7&#45;&gt;Node1 -->
<g id="edge7" class="edge"><title>Node7&#45;&gt;Node1</title>
<path fill="none" stroke="#404040" d="M943.304,-256.824C917.113,-228.463 887.436,-199.514 857,-176 832.523,-157.09 803.791,-139.95 776.519,-125.559"/>
<polygon fill="none" stroke="#404040" points="776.402,-125.499 769.234,-126.289 765.748,-119.976 772.916,-119.187 776.402,-125.499"/>
<text text-anchor="middle" x="937.5" y="-190.5" font-family="Helvetica,sans-Serif" font-size="10.00"> #mrCellPopulation</text>
</g>
<!-- Node8 -->
<g id="node8" class="node"><title>Node8</title>
<g id="a_node8"><a xlink:href="classIdentifiable.html" target="_top" xlink:title="{Identifiable\n||+ ~Identifiable()\l+ GetIdentifier()\l&#45; TidyTemplatedExportIdentifier()\l}">
<polygon fill="white" stroke="black" points="1652.5,-920.5 1652.5,-999.5 1811.5,-999.5 1811.5,-920.5 1652.5,-920.5"/>
<text text-anchor="middle" x="1732" y="-987.5" font-family="Helvetica,sans-Serif" font-size="10.00">Identifiable</text>
<polyline fill="none" stroke="black" points="1652.5,-980.5 1811.5,-980.5 "/>
<text text-anchor="middle" x="1732" y="-968.5" font-family="Helvetica,sans-Serif" font-size="10.00"> </text>
<polyline fill="none" stroke="black" points="1652.5,-961.5 1811.5,-961.5 "/>
<text text-anchor="start" x="1660.5" y="-949.5" font-family="Helvetica,sans-Serif" font-size="10.00">+ ~Identifiable()</text>
<text text-anchor="start" x="1660.5" y="-938.5" font-family="Helvetica,sans-Serif" font-size="10.00">+ GetIdentifier()</text>
<text text-anchor="start" x="1660.5" y="-927.5" font-family="Helvetica,sans-Serif" font-size="10.00">&#45; TidyTemplatedExportIdentifier()</text>
</a>
</g>
</g>
<!-- Node8&#45;&gt;Node7 -->
<g id="edge8" class="edge"><title>Node8&#45;&gt;Node7</title>
<path fill="none" stroke="midnightblue" d="M1758.02,-911.08C1797.69,-830.75 1860.84,-667.74 1782,-566 1702.28,-463.13 1312.22,-405.617 1130.5,-384.017"/>
<polygon fill="none" stroke="midnightblue" points="1754.67,-909.95 1753.31,-920.457 1760.92,-913.092 1754.67,-909.95"/>
</g>
<!-- Node21 -->
<g id="node21" class="node"><title>Node21</title>
<g id="a_node21"><a xlink:href="classAbstractCellPopulation.html" target="_top" xlink:title="{AbstractCellPopulation\l\&lt; ELEMENT_DIM, SPACE_DIM \&gt;\n||+ AbstractCellPopulation()\l+ ~AbstractCellPopulation()\l+ InitialiseCells()\l+ SetDataOnAllCells()\l+ rGetMesh()\l+ GetTetrahedralMeshForPde\lModifier()\l+ IsPdeNodeAssociatedWithNon\lApoptoticCell()\l+ GetCellDataItemAtPdeNode()\l+ rGetCells()\l+ GetNumNodes()\land 55 more...\l# Validate()\l# WriteVtkResultsToFile()\l# AbstractCellPopulation()\l# AcceptCellWritersAcrossPopulation()\l&#45; serialize()\l&#45; OpenRoundRobinWritersFiles\lForAppend()\l&#45; CloseRoundRobinWritersFiles()\l}">
<polygon fill="white" stroke="black" points="1033.5,-567 1033.5,-855 1220.5,-855 1220.5,-567 1033.5,-567"/>
<text text-anchor="start" x="1041.5" y="-843" font-family="Helvetica,sans-Serif" font-size="10.00">AbstractCellPopulation</text>
<text text-anchor="middle" x="1127" y="-832" font-family="Helvetica,sans-Serif" font-size="10.00">&lt; ELEMENT_DIM, SPACE_DIM &gt;</text>
<polyline fill="none" stroke="black" points="1033.5,-825 1220.5,-825 "/>
<text text-anchor="middle" x="1127" y="-813" font-family="Helvetica,sans-Serif" font-size="10.00"> </text>
<polyline fill="none" stroke="black" points="1033.5,-806 1220.5,-806 "/>
<text text-anchor="start" x="1041.5" y="-794" font-family="Helvetica,sans-Serif" font-size="10.00">+ AbstractCellPopulation()</text>
<text text-anchor="start" x="1041.5" y="-783" font-family="Helvetica,sans-Serif" font-size="10.00">+ ~AbstractCellPopulation()</text>
<text text-anchor="start" x="1041.5" y="-772" font-family="Helvetica,sans-Serif" font-size="10.00">+ InitialiseCells()</text>
<text text-anchor="start" x="1041.5" y="-761" font-family="Helvetica,sans-Serif" font-size="10.00">+ SetDataOnAllCells()</text>
<text text-anchor="start" x="1041.5" y="-750" font-family="Helvetica,sans-Serif" font-size="10.00">+ rGetMesh()</text>
<text text-anchor="start" x="1041.5" y="-739" font-family="Helvetica,sans-Serif" font-size="10.00">+ GetTetrahedralMeshForPde</text>
<text text-anchor="start" x="1041.5" y="-728" font-family="Helvetica,sans-Serif" font-size="10.00">Modifier()</text>
<text text-anchor="start" x="1041.5" y="-717" font-family="Helvetica,sans-Serif" font-size="10.00">+ IsPdeNodeAssociatedWithNon</text>
<text text-anchor="start" x="1041.5" y="-706" font-family="Helvetica,sans-Serif" font-size="10.00">ApoptoticCell()</text>
<text text-anchor="start" x="1041.5" y="-695" font-family="Helvetica,sans-Serif" font-size="10.00">+ GetCellDataItemAtPdeNode()</text>
<text text-anchor="start" x="1041.5" y="-684" font-family="Helvetica,sans-Serif" font-size="10.00">+ rGetCells()</text>
<text text-anchor="start" x="1041.5" y="-673" font-family="Helvetica,sans-Serif" font-size="10.00">+ GetNumNodes()</text>
<text text-anchor="start" x="1041.5" y="-662" font-family="Helvetica,sans-Serif" font-size="10.00">and 55 more...</text>
<text text-anchor="start" x="1041.5" y="-651" font-family="Helvetica,sans-Serif" font-size="10.00"># Validate()</text>
<text text-anchor="start" x="1041.5" y="-640" font-family="Helvetica,sans-Serif" font-size="10.00"># WriteVtkResultsToFile()</text>
<text text-anchor="start" x="1041.5" y="-629" font-family="Helvetica,sans-Serif" font-size="10.00"># AbstractCellPopulation()</text>
<text text-anchor="start" x="1041.5" y="-618" font-family="Helvetica,sans-Serif" font-size="10.00"># AcceptCellWritersAcrossPopulation()</text>
<text text-anchor="start" x="1041.5" y="-607" font-family="Helvetica,sans-Serif" font-size="10.00">&#45; serialize()</text>
<text text-anchor="start" x="1041.5" y="-596" font-family="Helvetica,sans-Serif" font-size="10.00">&#45; OpenRoundRobinWritersFiles</text>
<text text-anchor="start" x="1041.5" y="-585" font-family="Helvetica,sans-Serif" font-size="10.00">ForAppend()</text>
<text text-anchor="start" x="1041.5" y="-574" font-family="Helvetica,sans-Serif" font-size="10.00">&#45; CloseRoundRobinWritersFiles()</text>
</a>
</g>
</g>
<!-- Node8&#45;&gt;Node21 -->
<g id="edge22" class="edge"><title>Node8&#45;&gt;Node21</title>
<path fill="none" stroke="midnightblue" d="M1716.57,-910.868C1709.55,-896.596 1699.67,-882.518 1686,-874 1643.44,-847.474 1279.4,-879.318 1235,-856 1230.02,-853.385 1225.21,-850.425 1220.56,-847.183"/>
<polygon fill="none" stroke="midnightblue" points="1713.48,-912.536 1720.78,-920.219 1719.87,-909.663 1713.48,-912.536"/>
</g>
<!-- Node9 -->
<g id="node9" class="node"><title>Node9</title>
<polygon fill="white" stroke="#bfbfbf" points="1831,-926 1831,-994 1963,-994 1963,-926 1831,-926"/>
<text text-anchor="start" x="1839" y="-982" font-family="Helvetica,sans-Serif" font-size="10.00">c_vector&lt; double, SPACE</text>
<text text-anchor="middle" x="1897" y="-971" font-family="Helvetica,sans-Serif" font-size="10.00">_DIM &gt;</text>
<polyline fill="none" stroke="#bfbfbf" points="1831,-964 1963,-964 "/>
<text text-anchor="middle" x="1897" y="-952" font-family="Helvetica,sans-Serif" font-size="10.00"> </text>
<polyline fill="none" stroke="#bfbfbf" points="1831,-945 1963,-945 "/>
<text text-anchor="middle" x="1897" y="-933" font-family="Helvetica,sans-Serif" font-size="10.00"> </text>
</g>
<!-- Node9&#45;&gt;Node7 -->
<g id="edge9" class="edge"><title>Node9&#45;&gt;Node7</title>
<path fill="none" stroke="#404040" d="M1900.94,-925.754C1909.29,-837.499 1917.36,-599.705 1772,-536 1559.85,-443.023 1289.09,-401.133 1142.6,-384.161"/>
<polygon fill="none" stroke="#404040" points="1142.47,-384.146 1136.06,-387.441 1130.55,-382.788 1136.96,-379.493 1142.47,-384.146"/>
<text text-anchor="middle" x="1932" y="-708.5" font-family="Helvetica,sans-Serif" font-size="10.00"> #mCentroid</text>
</g>
<!-- Node9&#45;&gt;Node21 -->
<g id="edge23" class="edge"><title>Node9&#45;&gt;Node21</title>
<path fill="none" stroke="#404040" d="M1842.74,-925.98C1806.81,-906.235 1757.85,-883.241 1711,-874 1659.07,-863.757 1281.88,-880.56 1235,-856 1233.6,-855.266 1232.21,-854.504 1230.84,-853.717"/>
<polygon fill="none" stroke="#404040" points="1230.69,-853.623 1223.48,-853.788 1220.55,-847.196 1227.76,-847.032 1230.69,-853.623"/>
<text text-anchor="middle" x="1808" y="-882.5" font-family="Helvetica,sans-Serif" font-size="10.00"> #mCentroid</text>
</g>
<!-- Node10 -->
<g id="node10" class="node"><title>Node10</title>
<polygon fill="white" stroke="#bfbfbf" points="1870,-1054.5 1870,-1111.5 1924,-1111.5 1924,-1054.5 1870,-1054.5"/>
<text text-anchor="middle" x="1897" y="-1099.5" font-family="Helvetica,sans-Serif" font-size="10.00">c_vector</text>
<polyline fill="none" stroke="#bfbfbf" points="1870,-1092.5 1924,-1092.5 "/>
<text text-anchor="middle" x="1897" y="-1080.5" font-family="Helvetica,sans-Serif" font-size="10.00"> </text>
<polyline fill="none" stroke="#bfbfbf" points="1870,-1073.5 1924,-1073.5 "/>
<text text-anchor="middle" x="1897" y="-1061.5" font-family="Helvetica,sans-Serif" font-size="10.00"> </text>
</g>
<!-- Node10&#45;&gt;Node9 -->
<g id="edge10" class="edge"><title>Node10&#45;&gt;Node9</title>
<path fill="none" stroke="orange" d="M1897,-1044.14C1897,-1028.15 1897,-1009.68 1897,-994.224"/>
<polygon fill="orange" stroke="orange" points="1893.5,-1044.24 1897,-1054.24 1900.5,-1044.24 1893.5,-1044.24"/>
<text text-anchor="middle" x="1954.5" y="-1027.5" font-family="Helvetica,sans-Serif" font-size="10.00"> &lt; double, SPACE_DIM &gt;</text>
</g>
<!-- Node11 -->
<g id="node11" class="node"><title>Node11</title>
<polygon fill="white" stroke="#bfbfbf" points="717.5,-931.5 717.5,-988.5 794.5,-988.5 794.5,-931.5 717.5,-931.5"/>
<text text-anchor="middle" x="756" y="-976.5" font-family="Helvetica,sans-Serif" font-size="10.00">list&lt; CellPtr &gt;</text>
<polyline fill="none" stroke="#bfbfbf" points="717.5,-969.5 794.5,-969.5 "/>
<text text-anchor="middle" x="756" y="-957.5" font-family="Helvetica,sans-Serif" font-size="10.00"> </text>
<polyline fill="none" stroke="#bfbfbf" points="717.5,-950.5 794.5,-950.5 "/>
<text text-anchor="middle" x="756" y="-938.5" font-family="Helvetica,sans-Serif" font-size="10.00"> </text>
</g>
<!-- Node11&#45;&gt;Node7 -->
<g id="edge11" class="edge"><title>Node11&#45;&gt;Node7</title>
<path fill="none" stroke="#404040" d="M739.045,-931.331C727.77,-911.242 713.975,-882.966 708,-856 680.118,-730.163 642.207,-676.831 708,-566 730.742,-527.691 757.315,-540.097 796,-518 841.257,-492.15 890.755,-462.77 933.055,-437.32"/>
<polygon fill="none" stroke="#404040" points="933.086,-437.301 936.161,-430.779 943.365,-431.109 940.29,-437.631 933.086,-437.301"/>
<text text-anchor="middle" x="728" y="-708.5" font-family="Helvetica,sans-Serif" font-size="10.00"> #mCells</text>
</g>
<!-- Node11&#45;&gt;Node21 -->
<g id="edge24" class="edge"><title>Node11&#45;&gt;Node21</title>
<path fill="none" stroke="#404040" d="M777.6,-931.235C794.663,-911.545 820.321,-886.486 849,-874 918.662,-843.672 952.929,-893.514 1019,-856 1020.38,-855.219 1021.74,-854.412 1023.09,-853.582"/>
<polygon fill="none" stroke="#404040" points="1023.26,-853.469 1026,-846.799 1033.21,-846.763 1030.47,-853.433 1023.26,-853.469"/>
<text text-anchor="middle" x="869" y="-882.5" font-family="Helvetica,sans-Serif" font-size="10.00"> #mCells</text>
</g>
<!-- Node12 -->
<g id="node12" class="node"><title>Node12</title>
<polygon fill="white" stroke="#bfbfbf" points="189,-915 189,-1005 341,-1005 341,-915 189,-915"/>
<text text-anchor="start" x="197" y="-993" font-family="Helvetica,sans-Serif" font-size="10.00">vector&lt; boost::shared</text>
<text text-anchor="start" x="197" y="-982" font-family="Helvetica,sans-Serif" font-size="10.00">_ptr&lt; AbstractCellPopulation</text>
<text text-anchor="start" x="197" y="-971" font-family="Helvetica,sans-Serif" font-size="10.00">CountWriter&lt; ELEMENT_DIM,</text>
<text text-anchor="middle" x="265" y="-960" font-family="Helvetica,sans-Serif" font-size="10.00"> SPACE_DIM &gt; &gt; &gt;</text>
<polyline fill="none" stroke="#bfbfbf" points="189,-953 341,-953 "/>
<text text-anchor="middle" x="265" y="-941" font-family="Helvetica,sans-Serif" font-size="10.00"> </text>
<polyline fill="none" stroke="#bfbfbf" points="189,-934 341,-934 "/>
<text text-anchor="middle" x="265" y="-922" font-family="Helvetica,sans-Serif" font-size="10.00"> </text>
</g>
<!-- Node12&#45;&gt;Node7 -->
<g id="edge12" class="edge"><title>Node12&#45;&gt;Node7</title>
<path fill="none" stroke="#404040" d="M255.228,-914.912C240.072,-833.638 221.486,-659.934 314,-566 342.319,-537.246 782.737,-522.144 796,-518 844.034,-502.992 892.525,-476.666 933.29,-450.593"/>
<polygon fill="none" stroke="#404040" points="933.418,-450.511 936.272,-443.889 943.483,-443.977 940.628,-450.599 933.418,-450.511"/>
<text text-anchor="middle" x="383" y="-708.5" font-family="Helvetica,sans-Serif" font-size="10.00"> #mCellPopulationCountWriters</text>
</g>
<!-- Node12&#45;&gt;Node21 -->
<g id="edge25" class="edge"><title>Node12&#45;&gt;Node21</title>
<path fill="none" stroke="#404040" d="M337.192,-914.959C368.007,-898.636 405.092,-882.129 441,-874 503.668,-859.813 961.984,-885.626 1019,-856 1020.4,-855.271 1021.79,-854.514 1023.17,-853.731"/>
<polygon fill="none" stroke="#404040" points="1023.32,-853.639 1026.26,-847.055 1033.47,-847.239 1030.53,-853.823 1023.32,-853.639"/>
<text text-anchor="middle" x="510" y="-882.5" font-family="Helvetica,sans-Serif" font-size="10.00"> #mCellPopulationCountWriters</text>
</g>
<!-- Node13 -->
<g id="node13" class="node"><title>Node13</title>
<polygon fill="white" stroke="#bfbfbf" points="359,-920.5 359,-999.5 547,-999.5 547,-920.5 359,-920.5"/>
<text text-anchor="start" x="367" y="-987.5" font-family="Helvetica,sans-Serif" font-size="10.00">vector&lt; boost::shared</text>
<text text-anchor="start" x="367" y="-976.5" font-family="Helvetica,sans-Serif" font-size="10.00">_ptr&lt; AbstractCellWriter</text>
<text text-anchor="middle" x="453" y="-965.5" font-family="Helvetica,sans-Serif" font-size="10.00">&lt; ELEMENT_DIM, SPACE_DIM &gt; &gt; &gt;</text>
<polyline fill="none" stroke="#bfbfbf" points="359,-958.5 547,-958.5 "/>
<text text-anchor="middle" x="453" y="-946.5" font-family="Helvetica,sans-Serif" font-size="10.00"> </text>
<polyline fill="none" stroke="#bfbfbf" points="359,-939.5 547,-939.5 "/>
<text text-anchor="middle" x="453" y="-927.5" font-family="Helvetica,sans-Serif" font-size="10.00"> </text>
</g>
<!-- Node13&#45;&gt;Node7 -->
<g id="edge13" class="edge"><title>Node13&#45;&gt;Node7</title>
<path fill="none" stroke="#404040" d="M453.371,-920.439C455.037,-831.806 463.951,-617.251 511,-566 597.866,-471.375 674.315,-559.138 796,-518 843.78,-501.847 892.311,-475.224 933.178,-449.234"/>
<polygon fill="none" stroke="#404040" points="933.312,-449.149 936.188,-442.536 943.398,-442.647 940.522,-449.26 933.312,-449.149"/>
<text text-anchor="middle" x="544" y="-708.5" font-family="Helvetica,sans-Serif" font-size="10.00"> #mCellWriters</text>
</g>
<!-- Node13&#45;&gt;Node21 -->
<g id="edge26" class="edge"><title>Node13&#45;&gt;Node21</title>
<path fill="none" stroke="#404040" d="M525.211,-920.32C561.574,-902.816 606.978,-883.871 650,-874 730.018,-855.641 946.486,-894.494 1019,-856 1020.4,-855.258 1021.78,-854.489 1023.15,-853.695"/>
<polygon fill="none" stroke="#404040" points="1023.3,-853.598 1026.2,-846.994 1033.41,-847.126 1030.51,-853.73 1023.3,-853.598"/>
<text text-anchor="middle" x="683" y="-882.5" font-family="Helvetica,sans-Serif" font-size="10.00"> #mCellWriters</text>
</g>
<!-- Node14 -->
<g id="node14" class="node"><title>Node14</title>
<polygon fill="white" stroke="#bfbfbf" points="565,-926 565,-994 699,-994 699,-926 565,-926"/>
<text text-anchor="start" x="573" y="-982" font-family="Helvetica,sans-Serif" font-size="10.00">AbstractMesh&lt; ELEMENT</text>
<text text-anchor="middle" x="632" y="-971" font-family="Helvetica,sans-Serif" font-size="10.00">_DIM, SPACE_DIM &gt; &amp;</text>
<polyline fill="none" stroke="#bfbfbf" points="565,-964 699,-964 "/>
<text text-anchor="middle" x="632" y="-952" font-family="Helvetica,sans-Serif" font-size="10.00"> </text>
<polyline fill="none" stroke="#bfbfbf" points="565,-945 699,-945 "/>
<text text-anchor="middle" x="632" y="-933" font-family="Helvetica,sans-Serif" font-size="10.00"> </text>
</g>
<!-- Node14&#45;&gt;Node7 -->
<g id="edge14" class="edge"><title>Node14&#45;&gt;Node7</title>
<path fill="none" stroke="#404040" d="M619.145,-925.793C593.21,-852.698 543.621,-675.674 624,-566 670.915,-501.986 722.418,-547.741 796,-518 843.074,-498.973 891.743,-471.587 932.914,-445.795"/>
<polygon fill="none" stroke="#404040" points="933.074,-445.694 936.005,-439.106 943.214,-439.278 940.283,-445.867 933.074,-445.694"/>
<text text-anchor="middle" x="646" y="-708.5" font-family="Helvetica,sans-Serif" font-size="10.00"> #mrMesh</text>
</g>
<!-- Node14&#45;&gt;Node21 -->
<g id="edge27" class="edge"><title>Node14&#45;&gt;Node21</title>
<path fill="none" stroke="#404040" d="M672.759,-925.859C698.242,-907.122 732.653,-885.253 767,-874 820.352,-856.52 969.711,-882.882 1019,-856 1020.39,-855.243 1021.77,-854.459 1023.13,-853.65"/>
<polygon fill="none" stroke="#404040" points="1023.29,-853.546 1026.12,-846.915 1033.33,-846.981 1030.5,-853.612 1023.29,-853.546"/>
<text text-anchor="middle" x="789" y="-882.5" font-family="Helvetica,sans-Serif" font-size="10.00"> #mrMesh</text>
</g>
<!-- Node15 -->
<g id="node15" class="node"><title>Node15</title>
<polygon fill="white" stroke="#bfbfbf" points="1099,-915 1099,-1005 1263,-1005 1263,-915 1099,-915"/>
<text text-anchor="start" x="1107" y="-993" font-family="Helvetica,sans-Serif" font-size="10.00">vector&lt; boost::shared</text>
<text text-anchor="start" x="1107" y="-982" font-family="Helvetica,sans-Serif" font-size="10.00">_ptr&lt; AbstractCellPopulation</text>
<text text-anchor="start" x="1107" y="-971" font-family="Helvetica,sans-Serif" font-size="10.00">Writer&lt; ELEMENT_DIM, SPACE</text>
<text text-anchor="middle" x="1181" y="-960" font-family="Helvetica,sans-Serif" font-size="10.00">_DIM &gt; &gt; &gt;</text>
<polyline fill="none" stroke="#bfbfbf" points="1099,-953 1263,-953 "/>
<text text-anchor="middle" x="1181" y="-941" font-family="Helvetica,sans-Serif" font-size="10.00"> </text>
<polyline fill="none" stroke="#bfbfbf" points="1099,-934 1263,-934 "/>
<text text-anchor="middle" x="1181" y="-922" font-family="Helvetica,sans-Serif" font-size="10.00"> </text>
</g>
<!-- Node15&#45;&gt;Node7 -->
<g id="edge15" class="edge"><title>Node15&#45;&gt;Node7</title>
<path fill="none" stroke="#404040" d="M1232.03,-914.937C1236.45,-909.022 1240.27,-902.674 1243,-896 1246.7,-886.961 1278.49,-678.204 1229,-566 1209.44,-521.656 1174.62,-481.962 1139.96,-450.335"/>
<polygon fill="none" stroke="#404040" points="1139.63,-450.044 1132.49,-449.032 1130.68,-442.052 1137.82,-443.064 1139.63,-450.044"/>
<text text-anchor="middle" x="1313" y="-708.5" font-family="Helvetica,sans-Serif" font-size="10.00"> #mCellPopulationWriters</text>
</g>
<!-- Node15&#45;&gt;Node21 -->
<g id="edge28" class="edge"><title>Node15&#45;&gt;Node21</title>
<path fill="none" stroke="#404040" d="M1140.35,-914.665C1136.59,-908.716 1133.32,-902.436 1131,-896 1127.68,-886.812 1125.1,-877.195 1123.13,-867.381"/>
<polygon fill="none" stroke="#404040" points="1123.09,-867.149 1118.11,-861.931 1121.01,-855.33 1125.99,-860.548 1123.09,-867.149"/>
<text text-anchor="middle" x="1187" y="-882.5" font-family="Helvetica,sans-Serif" font-size="10.00"> #mCellPopulationWriters</text>
</g>
<!-- Node16 -->
<g id="node16" class="node"><title>Node16</title>
<polygon fill="white" stroke="#bfbfbf" points="1302.5,-926 1302.5,-994 1405.5,-994 1405.5,-926 1302.5,-926"/>
<text text-anchor="start" x="1310.5" y="-982" font-family="Helvetica,sans-Serif" font-size="10.00">map&lt; unsigned, std</text>
<text text-anchor="middle" x="1354" y="-971" font-family="Helvetica,sans-Serif" font-size="10.00">::set&lt; CellPtr &gt; &gt;</text>
<polyline fill="none" stroke="#bfbfbf" points="1302.5,-964 1405.5,-964 "/>
<text text-anchor="middle" x="1354" y="-952" font-family="Helvetica,sans-Serif" font-size="10.00"> </text>
<polyline fill="none" stroke="#bfbfbf" points="1302.5,-945 1405.5,-945 "/>
<text text-anchor="middle" x="1354" y="-933" font-family="Helvetica,sans-Serif" font-size="10.00"> </text>
</g>
<!-- Node16&#45;&gt;Node7 -->
<g id="edge16" class="edge"><title>Node16&#45;&gt;Node7</title>
<path fill="none" stroke="#404040" d="M1366.84,-925.907C1392.27,-854.534 1440.97,-683.128 1373,-566 1323.66,-480.983 1220.98,-430.431 1142.03,-402.718"/>
<polygon fill="none" stroke="#404040" points="1141.92,-402.679 1134.95,-404.521 1130.57,-398.793 1137.54,-396.952 1141.92,-402.679"/>
<text text-anchor="middle" x="1453" y="-708.5" font-family="Helvetica,sans-Serif" font-size="10.00"> #mLocationCellMap</text>
</g>
<!-- Node16&#45;&gt;Node21 -->
<g id="edge29" class="edge"><title>Node16&#45;&gt;Node21</title>
<path fill="none" stroke="#404040" d="M1311.27,-925.773C1287.67,-906.526 1258.48,-881.181 1235,-856 1232.9,-853.75 1230.81,-851.46 1228.71,-849.137"/>
<polygon fill="none" stroke="#404040" points="1228.61,-849.023 1221.65,-847.169 1220.68,-840.023 1227.65,-841.877 1228.61,-849.023"/>
<text text-anchor="middle" x="1321" y="-882.5" font-family="Helvetica,sans-Serif" font-size="10.00"> #mLocationCellMap</text>
</g>
<!-- Node17 -->
<g id="node17" class="node"><title>Node17</title>
<g id="a_node17"><a xlink:href="classbool.html" target="_top" xlink:title="{bool\n||}">
<polygon fill="white" stroke="black" points="1596.5,-931.5 1596.5,-988.5 1631.5,-988.5 1631.5,-931.5 1596.5,-931.5"/>
<text text-anchor="middle" x="1614" y="-976.5" font-family="Helvetica,sans-Serif" font-size="10.00">bool</text>
<polyline fill="none" stroke="black" points="1596.5,-969.5 1631.5,-969.5 "/>
<text text-anchor="middle" x="1614" y="-957.5" font-family="Helvetica,sans-Serif" font-size="10.00"> </text>
<polyline fill="none" stroke="black" points="1596.5,-950.5 1631.5,-950.5 "/>
<text text-anchor="middle" x="1614" y="-938.5" font-family="Helvetica,sans-Serif" font-size="10.00"> </text>
</a>
</g>
</g>
<!-- Node17&#45;&gt;Node7 -->
<g id="edge17" class="edge"><title>Node17&#45;&gt;Node7</title>
<path fill="none" stroke="#404040" d="M1628.19,-931.208C1632.33,-924.96 1637.3,-918.775 1643,-914 1658.88,-900.695 1674.52,-913.248 1686,-896 1691.42,-887.86 1690.82,-882.509 1686,-874 1678.34,-860.469 1664.83,-868.799 1656,-856 1581.64,-748.216 1689.44,-665.23 1604,-566 1487.48,-430.67 1271.93,-390.51 1142.78,-378.73"/>
<polygon fill="none" stroke="#404040" points="1142.52,-378.707 1136.2,-382.177 1130.56,-377.677 1136.88,-374.207 1142.52,-378.707"/>
<text text-anchor="start" x="1656" y="-714" font-family="Helvetica,sans-Serif" font-size="10.00"> #mOutputResultsForChaste</text>
<text text-anchor="middle" x="1719" y="-703" font-family="Helvetica,sans-Serif" font-size="10.00">Visualizer</text>
</g>
<!-- Node17&#45;&gt;Node21 -->
<g id="edge30" class="edge"><title>Node17&#45;&gt;Node21</title>
<path fill="none" stroke="#404040" d="M1597.83,-931.338C1593.27,-925.087 1587.93,-918.867 1582,-914 1548.49,-886.478 1535.06,-884.562 1493,-874 1437.26,-860.003 1285.48,-883.477 1235,-856 1233.61,-855.244 1232.23,-854.461 1230.87,-853.653"/>
<polygon fill="none" stroke="#404040" points="1230.71,-853.55 1223.5,-853.62 1220.66,-846.991 1227.87,-846.921 1230.71,-853.55"/>
<text text-anchor="start" x="1556" y="-888" font-family="Helvetica,sans-Serif" font-size="10.00"> #mOutputResultsForChaste</text>
<text text-anchor="middle" x="1619" y="-877" font-family="Helvetica,sans-Serif" font-size="10.00">Visualizer</text>
</g>
<!-- Node18 -->
<g id="node18" class="node"><title>Node18</title>
<polygon fill="white" stroke="#bfbfbf" points="812.5,-926 812.5,-994 937.5,-994 937.5,-926 812.5,-926"/>
<text text-anchor="start" x="820.5" y="-982" font-family="Helvetica,sans-Serif" font-size="10.00">shared_ptr&lt; CellProperty</text>
<text text-anchor="middle" x="875" y="-971" font-family="Helvetica,sans-Serif" font-size="10.00">Registry &gt;</text>
<polyline fill="none" stroke="#bfbfbf" points="812.5,-964 937.5,-964 "/>
<text text-anchor="middle" x="875" y="-952" font-family="Helvetica,sans-Serif" font-size="10.00"> </text>
<polyline fill="none" stroke="#bfbfbf" points="812.5,-945 937.5,-945 "/>
<text text-anchor="middle" x="875" y="-933" font-family="Helvetica,sans-Serif" font-size="10.00"> </text>
</g>
<!-- Node18&#45;&gt;Node7 -->
<g id="edge18" class="edge"><title>Node18&#45;&gt;Node7</title>
<path fill="none" stroke="#404040" d="M836.942,-925.843C818.674,-907.363 798.688,-882.719 789,-856 745.065,-734.83 732.243,-681.719 789,-566 819.066,-504.7 879.177,-457.387 932.687,-425.067"/>
<polygon fill="none" stroke="#404040" points="932.958,-424.906 936.09,-418.411 943.29,-418.803 940.159,-425.298 932.958,-424.906"/>
<text text-anchor="middle" x="845.5" y="-708.5" font-family="Helvetica,sans-Serif" font-size="10.00"> #mpCellPropertyRegistry</text>
</g>
<!-- Node18&#45;&gt;Node21 -->
<g id="edge31" class="edge"><title>Node18&#45;&gt;Node21</title>
<path fill="none" stroke="#404040" d="M880.207,-925.625C884.766,-907.651 893.257,-886.633 909,-874 947.637,-842.995 976.631,-881.671 1019,-856 1020.55,-855.064 1022.08,-854.096 1023.59,-853.1"/>
<polygon fill="none" stroke="#404040" points="1023.61,-853.087 1026.17,-846.346 1033.38,-846.117 1030.82,-852.858 1023.61,-853.087"/>
<text text-anchor="middle" x="965.5" y="-882.5" font-family="Helvetica,sans-Serif" font-size="10.00"> #mpCellPropertyRegistry</text>
</g>
<!-- Node19 -->
<g id="node19" class="node"><title>Node19</title>
<polygon fill="white" stroke="#bfbfbf" points="956,-931.5 956,-988.5 1078,-988.5 1078,-931.5 956,-931.5"/>
<text text-anchor="middle" x="1017" y="-976.5" font-family="Helvetica,sans-Serif" font-size="10.00">map&lt; Cell *, unsigned &gt;</text>
<polyline fill="none" stroke="#bfbfbf" points="956,-969.5 1078,-969.5 "/>
<text text-anchor="middle" x="1017" y="-957.5" font-family="Helvetica,sans-Serif" font-size="10.00"> </text>
<polyline fill="none" stroke="#bfbfbf" points="956,-950.5 1078,-950.5 "/>
<text text-anchor="middle" x="1017" y="-938.5" font-family="Helvetica,sans-Serif" font-size="10.00"> </text>
</g>
<!-- Node19&#45;&gt;Node7 -->
<g id="edge19" class="edge"><title>Node19&#45;&gt;Node7</title>
<path fill="none" stroke="#404040" d="M985.813,-931.316C966.832,-912.282 944.314,-885.237 934,-856 891.122,-734.453 902.588,-691.003 934,-566 937.141,-553.501 941.27,-540.928 946.069,-528.522"/>
<polygon fill="none" stroke="#404040" points="946.156,-528.308 944.697,-521.246 950.655,-517.183 952.114,-524.245 946.156,-528.308"/>
<text text-anchor="middle" x="979" y="-708.5" font-family="Helvetica,sans-Serif" font-size="10.00"> #mCellLocationMap</text>
</g>
<!-- Node19&#45;&gt;Node21 -->
<g id="edge32" class="edge"><title>Node19&#45;&gt;Node21</title>
<path fill="none" stroke="#404040" d="M1019.39,-931.171C1021.45,-914.249 1025.22,-892.423 1032,-874 1032.94,-871.452 1033.91,-868.898 1034.93,-866.341"/>
<polygon fill="none" stroke="#404040" points="1034.98,-866.206 1033.59,-859.13 1039.59,-855.125 1040.98,-862.2 1034.98,-866.206"/>
<text text-anchor="middle" x="1077" y="-882.5" font-family="Helvetica,sans-Serif" font-size="10.00"> #mCellLocationMap</text>
</g>
<!-- Node20 -->
<g id="node20" class="node"><title>Node20</title>
<polygon fill="white" stroke="#bfbfbf" points="1435,-931.5 1435,-988.5 1573,-988.5 1573,-931.5 1435,-931.5"/>
<text text-anchor="middle" x="1504" y="-976.5" font-family="Helvetica,sans-Serif" font-size="10.00">shared_ptr&lt; std::ofstream &gt;</text>
<polyline fill="none" stroke="#bfbfbf" points="1435,-969.5 1573,-969.5 "/>
<text text-anchor="middle" x="1504" y="-957.5" font-family="Helvetica,sans-Serif" font-size="10.00"> </text>
<polyline fill="none" stroke="#bfbfbf" points="1435,-950.5 1573,-950.5 "/>
<text text-anchor="middle" x="1504" y="-938.5" font-family="Helvetica,sans-Serif" font-size="10.00"> </text>
</g>
<!-- Node20&#45;&gt;Node7 -->
<g id="edge20" class="edge"><title>Node20&#45;&gt;Node7</title>
<path fill="none" stroke="#404040" d="M1507.7,-931.251C1517.72,-851.817 1541.99,-625.444 1502,-566 1422,-447.078 1253.5,-401.725 1142.83,-384.488"/>
<polygon fill="none" stroke="#404040" points="1142.5,-384.439 1135.97,-387.509 1130.63,-382.666 1137.16,-379.596 1142.5,-384.439"/>
<text text-anchor="middle" x="1562.5" y="-708.5" font-family="Helvetica,sans-Serif" font-size="10.00"> #mpVtkMetaFile</text>
</g>
<!-- Node20&#45;&gt;Node21 -->
<g id="edge33" class="edge"><title>Node20&#45;&gt;Node21</title>
<path fill="none" stroke="#404040" d="M1469.82,-931.401C1443.97,-912.064 1406.76,-887.374 1370,-874 1313.12,-853.306 1287.23,-886.596 1235,-856 1233.44,-855.087 1231.9,-854.141 1230.37,-853.166"/>
<polygon fill="none" stroke="#404040" points="1230.36,-853.16 1223.15,-853.017 1220.51,-846.307 1227.72,-846.45 1230.36,-853.16"/>
<text text-anchor="middle" x="1451.5" y="-882.5" font-family="Helvetica,sans-Serif" font-size="10.00"> #mpVtkMetaFile</text>
</g>
<!-- Node21&#45;&gt;Node7 -->
<g id="edge21" class="edge"><title>Node21&#45;&gt;Node7</title>
<path fill="none" stroke="orange" d="M1085.9,-556.552C1082.39,-543.465 1078.86,-530.26 1075.37,-517.257"/>
<polygon fill="orange" stroke="orange" points="1082.6,-557.777 1088.57,-566.531 1089.36,-555.966 1082.6,-557.777"/>
<text text-anchor="middle" x="1114.5" y="-539.5" font-family="Helvetica,sans-Serif" font-size="10.00"> &lt; DIM, DIM &gt;</text>
</g>
</g>
</svg>
