<?xml version="1.0" encoding="UTF-8" standalone="no"?>
<!DOCTYPE svg PUBLIC "-//W3C//DTD SVG 1.1//EN"
 "http://www.w3.org/Graphics/SVG/1.1/DTD/svg11.dtd">
<!-- Generated by graphviz version 2.36.0 (20140111.2315)
 -->
<!-- Title: Cell Pages: 1 -->
<svg width="207pt" height="392pt"
 viewBox="0.00 0.00 207.00 392.00" xmlns="http://www.w3.org/2000/svg" xmlns:xlink="http://www.w3.org/1999/xlink">
<g id="graph0" class="graph" transform="scale(1 1) rotate(0) translate(4 388)">
<title>Cell</title>
<polygon fill="white" stroke="none" points="-4,4 -4,-388 203,-388 203,4 -4,4"/>
<!-- Node1 -->
<g id="node1" class="node"><title>Node1</title>
<polygon fill="#bfbfbf" stroke="black" points="20,-0.5 20,-277.5 158,-277.5 158,-0.5 20,-0.5"/>
<text text-anchor="middle" x="89" y="-265.5" font-family="Helvetica,sans-Serif" font-size="10.00">Cell</text>
<polyline fill="none" stroke="black" points="20,-258.5 158,-258.5 "/>
<text text-anchor="start" x="28" y="-246.5" font-family="Helvetica,sans-Serif" font-size="10.00"># mCellPropertyCollection</text>
<text text-anchor="start" x="28" y="-235.5" font-family="Helvetica,sans-Serif" font-size="10.00"># mpCellCycleModel</text>
<text text-anchor="start" x="28" y="-224.5" font-family="Helvetica,sans-Serif" font-size="10.00"># mpSrnModel</text>
<text text-anchor="start" x="28" y="-213.5" font-family="Helvetica,sans-Serif" font-size="10.00"># mDeathTime</text>
<text text-anchor="start" x="28" y="-202.5" font-family="Helvetica,sans-Serif" font-size="10.00"># mStartOfApoptosisTime</text>
<text text-anchor="start" x="28" y="-191.5" font-family="Helvetica,sans-Serif" font-size="10.00"># mApoptosisTime</text>
<text text-anchor="start" x="28" y="-180.5" font-family="Helvetica,sans-Serif" font-size="10.00"># mUndergoingApoptosis</text>
<text text-anchor="start" x="28" y="-169.5" font-family="Helvetica,sans-Serif" font-size="10.00"># mIsDead</text>
<text text-anchor="start" x="28" y="-158.5" font-family="Helvetica,sans-Serif" font-size="10.00"># mIsLogged</text>
<text text-anchor="start" x="28" y="-147.5" font-family="Helvetica,sans-Serif" font-size="10.00">&#45; mCanDivide</text>
<polyline fill="none" stroke="black" points="20,-140.5 158,-140.5 "/>
<text text-anchor="start" x="28" y="-128.5" font-family="Helvetica,sans-Serif" font-size="10.00">+ Cell()</text>
<text text-anchor="start" x="28" y="-117.5" font-family="Helvetica,sans-Serif" font-size="10.00">+ ~Cell()</text>
<text text-anchor="start" x="28" y="-106.5" font-family="Helvetica,sans-Serif" font-size="10.00">+ GetCellProliferativeType()</text>
<text text-anchor="start" x="28" y="-95.5" font-family="Helvetica,sans-Serif" font-size="10.00">+ SetCellProliferativeType()</text>
<text text-anchor="start" x="28" y="-84.5" font-family="Helvetica,sans-Serif" font-size="10.00">+ SetBirthTime()</text>
<text text-anchor="start" x="28" y="-73.5" font-family="Helvetica,sans-Serif" font-size="10.00">+ SetCellCycleModel()</text>
<text text-anchor="start" x="28" y="-62.5" font-family="Helvetica,sans-Serif" font-size="10.00">+ GetCellCycleModel()</text>
<text text-anchor="start" x="28" y="-51.5" font-family="Helvetica,sans-Serif" font-size="10.00">+ InitialiseCellCycleModel()</text>
<text text-anchor="start" x="28" y="-40.5" font-family="Helvetica,sans-Serif" font-size="10.00">+ SetSrnModel()</text>
<text text-anchor="start" x="28" y="-29.5" font-family="Helvetica,sans-Serif" font-size="10.00">+ GetSrnModel()</text>
<text text-anchor="start" x="28" y="-18.5" font-family="Helvetica,sans-Serif" font-size="10.00">and 28 more...</text>
<text text-anchor="start" x="28" y="-7.5" font-family="Helvetica,sans-Serif" font-size="10.00">&#45; serialize()</text>
</g>
<!-- Node2 -->
<g id="node2" class="node"><title>Node2</title>
<polygon fill="white" stroke="#bfbfbf" points="-0.5,-320.5 -0.5,-377.5 70.5,-377.5 70.5,-320.5 -0.5,-320.5"/>
<text text-anchor="middle" x="35" y="-365.5" font-family="Helvetica,sans-Serif" font-size="10.00">noncopyable</text>
<polyline fill="none" stroke="#bfbfbf" points="-0.5,-358.5 70.5,-358.5 "/>
<text text-anchor="middle" x="35" y="-346.5" font-family="Helvetica,sans-Serif" font-size="10.00"> </text>
<polyline fill="none" stroke="#bfbfbf" points="-0.5,-339.5 70.5,-339.5 "/>
<text text-anchor="middle" x="35" y="-327.5" font-family="Helvetica,sans-Serif" font-size="10.00"> </text>
</g>
<!-- Node2&#45;&gt;Node1 -->
<g id="edge1" class="edge"><title>Node2&#45;&gt;Node1</title>
<path fill="none" stroke="#8b1a1a" d="M44.6893,-310.678C47.237,-300.865 50.1402,-289.682 53.214,-277.842"/>
<polygon fill="none" stroke="#8b1a1a" points="41.296,-309.821 42.1708,-320.379 48.0714,-311.58 41.296,-309.821"/>
</g>
<!-- Node3 -->
<g id="node3" class="node"><title>Node3</title>
<polygon fill="white" stroke="#bfbfbf" points="89,-315 89,-383 199,-383 199,-315 89,-315"/>
<text text-anchor="start" x="97" y="-371" font-family="Helvetica,sans-Serif" font-size="10.00">boost::enable_shared</text>
<text text-anchor="middle" x="144" y="-360" font-family="Helvetica,sans-Serif" font-size="10.00">_from_this&lt; Cell &gt;</text>
<polyline fill="none" stroke="#bfbfbf" points="89,-353 199,-353 "/>
<text text-anchor="middle" x="144" y="-341" font-family="Helvetica,sans-Serif" font-size="10.00"> </text>
<polyline fill="none" stroke="#bfbfbf" points="89,-334 199,-334 "/>
<text text-anchor="middle" x="144" y="-322" font-family="Helvetica,sans-Serif" font-size="10.00"> </text>
</g>
<!-- Node3&#45;&gt;Node1 -->
<g id="edge2" class="edge"><title>Node3&#45;&gt;Node1</title>
<path fill="none" stroke="midnightblue" d="M132.568,-304.764C130.346,-296.364 127.91,-287.149 125.359,-277.504"/>
<polygon fill="none" stroke="midnightblue" points="129.223,-305.808 135.163,-314.581 135.991,-304.019 129.223,-305.808"/>
</g>
</g>
</svg>
