<?xml version="1.0" encoding="UTF-8" standalone="no"?>
<!DOCTYPE svg PUBLIC "-//W3C//DTD SVG 1.1//EN"
 "http://www.w3.org/Graphics/SVG/1.1/DTD/svg11.dtd">
<!-- Generated by graphviz version 2.36.0 (20140111.2315)
 -->
<!-- Title: AbstractCardiacCell Pages: 1 -->
<svg width="721pt" height="1412pt"
 viewBox="0.00 0.00 721.00 1412.00" xmlns="http://www.w3.org/2000/svg" xmlns:xlink="http://www.w3.org/1999/xlink">
<g id="graph0" class="graph" transform="scale(1 1) rotate(0) translate(4 1408)">
<title>AbstractCardiacCell</title>
<polygon fill="white" stroke="none" points="-4,4 -4,-1408 717,-1408 717,4 -4,4"/>
<!-- Node1 -->
<g id="node1" class="node"><title>Node1</title>
<polygon fill="#bfbfbf" stroke="black" points="155,-0.5 155,-189.5 311,-189.5 311,-0.5 155,-0.5"/>
<text text-anchor="middle" x="233" y="-177.5" font-family="Helvetica,sans-Serif" font-size="10.00">AbstractCardiacCell</text>
<polyline fill="none" stroke="black" points="155,-170.5 311,-170.5 "/>
<text text-anchor="middle" x="233" y="-158.5" font-family="Helvetica,sans-Serif" font-size="10.00"> </text>
<polyline fill="none" stroke="black" points="155,-151.5 311,-151.5 "/>
<text text-anchor="start" x="163" y="-139.5" font-family="Helvetica,sans-Serif" font-size="10.00">+ AbstractCardiacCell()</text>
<text text-anchor="start" x="163" y="-128.5" font-family="Helvetica,sans-Serif" font-size="10.00">+ ~AbstractCardiacCell()</text>
<text text-anchor="start" x="163" y="-117.5" font-family="Helvetica,sans-Serif" font-size="10.00">+ Init()</text>
<text text-anchor="start" x="163" y="-106.5" font-family="Helvetica,sans-Serif" font-size="10.00">+ SetTimestep()</text>
<text text-anchor="start" x="163" y="-95.5" font-family="Helvetica,sans-Serif" font-size="10.00">+ SolveAndUpdateState()</text>
<text text-anchor="start" x="163" y="-84.5" font-family="Helvetica,sans-Serif" font-size="10.00">+ Compute()</text>
<text text-anchor="start" x="163" y="-73.5" font-family="Helvetica,sans-Serif" font-size="10.00">+ ComputeExceptVoltage()</text>
<text text-anchor="start" x="163" y="-62.5" font-family="Helvetica,sans-Serif" font-size="10.00">+ SetVoltage()</text>
<text text-anchor="start" x="163" y="-51.5" font-family="Helvetica,sans-Serif" font-size="10.00">+ GetVoltage()</text>
<text text-anchor="start" x="163" y="-40.5" font-family="Helvetica,sans-Serif" font-size="10.00">+ GetNumberOfStateVariables()</text>
<text text-anchor="start" x="163" y="-29.5" font-family="Helvetica,sans-Serif" font-size="10.00">and 16 more...</text>
<text text-anchor="start" x="163" y="-18.5" font-family="Helvetica,sans-Serif" font-size="10.00">&#45; serialize()</text>
<text text-anchor="start" x="163" y="-7.5" font-family="Helvetica,sans-Serif" font-size="10.00">&#45; CheckForArchiveFix()</text>
</g>
<!-- Node2 -->
<g id="node2" class="node"><title>Node2</title>
<g id="a_node2"><a xlink:href="classAbstractCardiacCellInterface.html" target="_top" xlink:title="{AbstractCardiacCellInterface\n||+ AbstractCardiacCellInterface()\l+ ~AbstractCardiacCellInterface()\l+ SetTimestep()\l+ GetNumberOfStateVariables()\l+ GetNumberOfParameters()\l+ GetStdVecStateVariables()\l+ rGetStateVariableNames()\l+ SetStateVariables()\l+ SetStateVariable()\l+ SetStateVariable()\land 28 more...\l&#45; serialize()\l}">
<polygon fill="white" stroke="black" points="151,-229 151,-407 315,-407 315,-229 151,-229"/>
<text text-anchor="middle" x="233" y="-395" font-family="Helvetica,sans-Serif" font-size="10.00">AbstractCardiacCellInterface</text>
<polyline fill="none" stroke="black" points="151,-388 315,-388 "/>
<text text-anchor="middle" x="233" y="-376" font-family="Helvetica,sans-Serif" font-size="10.00"> </text>
<polyline fill="none" stroke="black" points="151,-369 315,-369 "/>
<text text-anchor="start" x="159" y="-357" font-family="Helvetica,sans-Serif" font-size="10.00">+ AbstractCardiacCellInterface()</text>
<text text-anchor="start" x="159" y="-346" font-family="Helvetica,sans-Serif" font-size="10.00">+ ~AbstractCardiacCellInterface()</text>
<text text-anchor="start" x="159" y="-335" font-family="Helvetica,sans-Serif" font-size="10.00">+ SetTimestep()</text>
<text text-anchor="start" x="159" y="-324" font-family="Helvetica,sans-Serif" font-size="10.00">+ GetNumberOfStateVariables()</text>
<text text-anchor="start" x="159" y="-313" font-family="Helvetica,sans-Serif" font-size="10.00">+ GetNumberOfParameters()</text>
<text text-anchor="start" x="159" y="-302" font-family="Helvetica,sans-Serif" font-size="10.00">+ GetStdVecStateVariables()</text>
<text text-anchor="start" x="159" y="-291" font-family="Helvetica,sans-Serif" font-size="10.00">+ rGetStateVariableNames()</text>
<text text-anchor="start" x="159" y="-280" font-family="Helvetica,sans-Serif" font-size="10.00">+ SetStateVariables()</text>
<text text-anchor="start" x="159" y="-269" font-family="Helvetica,sans-Serif" font-size="10.00">+ SetStateVariable()</text>
<text text-anchor="start" x="159" y="-258" font-family="Helvetica,sans-Serif" font-size="10.00">+ SetStateVariable()</text>
<text text-anchor="start" x="159" y="-247" font-family="Helvetica,sans-Serif" font-size="10.00">and 28 more...</text>
<text text-anchor="start" x="159" y="-236" font-family="Helvetica,sans-Serif" font-size="10.00">&#45; serialize()</text>
</a>
</g>
</g>
<!-- Node2&#45;&gt;Node1 -->
<g id="edge1" class="edge"><title>Node2&#45;&gt;Node1</title>
<path fill="none" stroke="midnightblue" d="M233,-218.681C233,-209.01 233,-199.212 233,-189.589"/>
<polygon fill="none" stroke="midnightblue" points="229.5,-218.702 233,-228.702 236.5,-218.702 229.5,-218.702"/>
</g>
<!-- Node3 -->
<g id="node3" class="node"><title>Node3</title>
<polygon fill="white" stroke="#bfbfbf" points="65,-583 65,-651 205,-651 205,-583 65,-583"/>
<text text-anchor="start" x="73" y="-639" font-family="Helvetica,sans-Serif" font-size="10.00">shared_ptr&lt; AbstractIvpOde</text>
<text text-anchor="middle" x="135" y="-628" font-family="Helvetica,sans-Serif" font-size="10.00">Solver &gt;</text>
<polyline fill="none" stroke="#bfbfbf" points="65,-621 205,-621 "/>
<text text-anchor="middle" x="135" y="-609" font-family="Helvetica,sans-Serif" font-size="10.00"> </text>
<polyline fill="none" stroke="#bfbfbf" points="65,-602 205,-602 "/>
<text text-anchor="middle" x="135" y="-590" font-family="Helvetica,sans-Serif" font-size="10.00"> </text>
</g>
<!-- Node3&#45;&gt;Node2 -->
<g id="edge2" class="edge"><title>Node3&#45;&gt;Node2</title>
<path fill="none" stroke="#404040" d="M132.28,-582.817C130.317,-543.878 130.884,-478.025 151,-426 152.033,-423.329 153.154,-420.67 154.353,-418.026"/>
<polygon fill="none" stroke="#404040" points="154.361,-418.01 153.443,-410.858 159.692,-407.26 160.61,-414.412 154.361,-418.01"/>
<text text-anchor="middle" x="185" y="-451.5" font-family="Helvetica,sans-Serif" font-size="10.00"> #mpOdeSolver</text>
</g>
<!-- Node4 -->
<g id="node4" class="node"><title>Node4</title>
<g id="a_node4"><a xlink:href="classdouble.html" target="_top" xlink:title="{double\n||}">
<polygon fill="white" stroke="black" points="-0.5,-588.5 -0.5,-645.5 44.5,-645.5 44.5,-588.5 -0.5,-588.5"/>
<text text-anchor="middle" x="22" y="-633.5" font-family="Helvetica,sans-Serif" font-size="10.00">double</text>
<polyline fill="none" stroke="black" points="-0.5,-626.5 44.5,-626.5 "/>
<text text-anchor="middle" x="22" y="-614.5" font-family="Helvetica,sans-Serif" font-size="10.00"> </text>
<polyline fill="none" stroke="black" points="-0.5,-607.5 44.5,-607.5 "/>
<text text-anchor="middle" x="22" y="-595.5" font-family="Helvetica,sans-Serif" font-size="10.00"> </text>
</a>
</g>
</g>
<!-- Node4&#45;&gt;Node1 -->
<g id="edge17" class="edge"><title>Node4&#45;&gt;Node1</title>
<path fill="none" stroke="#404040" d="M20.9991,-588.232C20.2736,-550.868 21.1417,-482.563 34,-426 55.0393,-333.45 63.6794,-308.474 114,-228 123.595,-212.656 135.039,-197.414 146.983,-183.033"/>
<polygon fill="none" stroke="#404040" points="147.125,-182.865 147.957,-175.702 154.889,-173.714 154.057,-180.877 147.125,-182.865"/>
<text text-anchor="middle" x="128" y="-315.5" font-family="Helvetica,sans-Serif" font-size="10.00"> #mDt</text>
</g>
<!-- Node4&#45;&gt;Node2 -->
<g id="edge3" class="edge"><title>Node4&#45;&gt;Node2</title>
<path fill="none" stroke="#404040" d="M20.7306,-588.193C20.3022,-548.637 24.7422,-475.446 59,-426 79.1437,-396.925 110.004,-374.264 140.172,-357.432"/>
<polygon fill="none" stroke="#404040" points="140.226,-357.403 143.616,-351.039 150.795,-351.721 147.404,-358.085 140.226,-357.403"/>
<text text-anchor="middle" x="96" y="-451.5" font-family="Helvetica,sans-Serif" font-size="10.00"> #mFixedVoltage</text>
</g>
<!-- Node5 -->
<g id="node5" class="node"><title>Node5</title>
<polygon fill="white" stroke="#bfbfbf" points="261,-583 261,-651 407,-651 407,-583 261,-583"/>
<text text-anchor="start" x="269" y="-639" font-family="Helvetica,sans-Serif" font-size="10.00">shared_ptr&lt; AbstractStimulus</text>
<text text-anchor="middle" x="334" y="-628" font-family="Helvetica,sans-Serif" font-size="10.00">Function &gt;</text>
<polyline fill="none" stroke="#bfbfbf" points="261,-621 407,-621 "/>
<text text-anchor="middle" x="334" y="-609" font-family="Helvetica,sans-Serif" font-size="10.00"> </text>
<polyline fill="none" stroke="#bfbfbf" points="261,-602 407,-602 "/>
<text text-anchor="middle" x="334" y="-590" font-family="Helvetica,sans-Serif" font-size="10.00"> </text>
</g>
<!-- Node5&#45;&gt;Node2 -->
<g id="edge4" class="edge"><title>Node5&#45;&gt;Node2</title>
<path fill="none" stroke="#404040" d="M314.428,-582.907C299.51,-556.408 279.472,-517.868 267,-482 260.063,-462.05 254.316,-440.21 249.645,-419.183"/>
<polygon fill="none" stroke="#404040" points="249.605,-418.995 244.436,-413.967 247.089,-407.262 252.258,-412.29 249.605,-418.995"/>
<text text-anchor="middle" x="322.5" y="-451.5" font-family="Helvetica,sans-Serif" font-size="10.00"> #mpIntracellularStimulus</text>
</g>
<!-- Node6 -->
<g id="node6" class="node"><title>Node6</title>
<g id="a_node6"><a xlink:href="classbool.html" target="_top" xlink:title="{bool\n||}">
<polygon fill="white" stroke="black" points="471.5,-588.5 471.5,-645.5 506.5,-645.5 506.5,-588.5 471.5,-588.5"/>
<text text-anchor="middle" x="489" y="-633.5" font-family="Helvetica,sans-Serif" font-size="10.00">bool</text>
<polyline fill="none" stroke="black" points="471.5,-626.5 506.5,-626.5 "/>
<text text-anchor="middle" x="489" y="-614.5" font-family="Helvetica,sans-Serif" font-size="10.00"> </text>
<polyline fill="none" stroke="black" points="471.5,-607.5 506.5,-607.5 "/>
<text text-anchor="middle" x="489" y="-595.5" font-family="Helvetica,sans-Serif" font-size="10.00"> </text>
</a>
</g>
</g>
<!-- Node6&#45;&gt;Node2 -->
<g id="edge5" class="edge"><title>Node6&#45;&gt;Node2</title>
<path fill="none" stroke="#404040" d="M474.271,-588.445C460.656,-564.083 439.091,-528.146 416,-500 408.622,-491.007 403.275,-491.795 397,-482 382.823,-459.869 393.507,-447.22 378,-426 363.564,-406.246 344.417,-388.576 324.784,-373.56"/>
<polygon fill="none" stroke="#404040" points="324.768,-373.548 317.565,-373.19 315.126,-366.404 322.328,-366.762 324.768,-373.548"/>
<text text-anchor="start" x="397" y="-473.5" font-family="Helvetica,sans-Serif" font-size="10.00"> #mHasDefaultStimulusFrom</text>
<text text-anchor="middle" x="460.5" y="-462.5" font-family="Helvetica,sans-Serif" font-size="10.00">CellML</text>
<text text-anchor="start" x="397" y="-451.5" font-family="Helvetica,sans-Serif" font-size="10.00">#mSetVoltageDerivativeTo</text>
<text text-anchor="middle" x="460.5" y="-440.5" font-family="Helvetica,sans-Serif" font-size="10.00">Zero</text>
<text text-anchor="middle" x="460.5" y="-429.5" font-family="Helvetica,sans-Serif" font-size="10.00">#mIsUsedInTissue</text>
</g>
<!-- Node8 -->
<g id="node8" class="node"><title>Node8</title>
<g id="a_node8"><a xlink:href="classAbstractOdeSystem.html" target="_top" xlink:title="{AbstractOdeSystem\n||+ AbstractOdeSystem()\l+ ~AbstractOdeSystem()\l+ EvaluateYDerivatives()\l+ CalculateStoppingEvent()\l+ CalculateRootFunction()\l+ GetUseAnalyticJacobian()\l+ rGetConstStateVariables()\l&#45; save()\l&#45; load()\l}">
<polygon fill="white" stroke="black" points="480,-245.5 480,-390.5 620,-390.5 620,-245.5 480,-245.5"/>
<text text-anchor="middle" x="550" y="-378.5" font-family="Helvetica,sans-Serif" font-size="10.00">AbstractOdeSystem</text>
<polyline fill="none" stroke="black" points="480,-371.5 620,-371.5 "/>
<text text-anchor="middle" x="550" y="-359.5" font-family="Helvetica,sans-Serif" font-size="10.00"> </text>
<polyline fill="none" stroke="black" points="480,-352.5 620,-352.5 "/>
<text text-anchor="start" x="488" y="-340.5" font-family="Helvetica,sans-Serif" font-size="10.00">+ AbstractOdeSystem()</text>
<text text-anchor="start" x="488" y="-329.5" font-family="Helvetica,sans-Serif" font-size="10.00">+ ~AbstractOdeSystem()</text>
<text text-anchor="start" x="488" y="-318.5" font-family="Helvetica,sans-Serif" font-size="10.00">+ EvaluateYDerivatives()</text>
<text text-anchor="start" x="488" y="-307.5" font-family="Helvetica,sans-Serif" font-size="10.00">+ CalculateStoppingEvent()</text>
<text text-anchor="start" x="488" y="-296.5" font-family="Helvetica,sans-Serif" font-size="10.00">+ CalculateRootFunction()</text>
<text text-anchor="start" x="488" y="-285.5" font-family="Helvetica,sans-Serif" font-size="10.00">+ GetUseAnalyticJacobian()</text>
<text text-anchor="start" x="488" y="-274.5" font-family="Helvetica,sans-Serif" font-size="10.00">+ rGetConstStateVariables()</text>
<text text-anchor="start" x="488" y="-263.5" font-family="Helvetica,sans-Serif" font-size="10.00">&#45; save()</text>
<text text-anchor="start" x="488" y="-252.5" font-family="Helvetica,sans-Serif" font-size="10.00">&#45; load()</text>
</a>
</g>
</g>
<!-- Node6&#45;&gt;Node8 -->
<g id="edge16" class="edge"><title>Node6&#45;&gt;Node8</title>
<path fill="none" stroke="#404040" d="M498.367,-588.333C507.154,-561.45 520.094,-519.333 528,-482 533.414,-456.437 537.768,-428.322 541.129,-402.746"/>
<polygon fill="none" stroke="#404040" points="541.133,-402.709 537.924,-396.252 542.651,-390.806 545.86,-397.263 541.133,-402.709"/>
<text text-anchor="middle" x="592.5" y="-451.5" font-family="Helvetica,sans-Serif" font-size="10.00"> #mUseAnalyticJacobian</text>
</g>
<!-- Node7 -->
<g id="node7" class="node"><title>Node7</title>
<g id="a_node7"><a xlink:href="classunsigned.html" target="_top" xlink:title="{unsigned\n||}">
<polygon fill="white" stroke="black" points="230,-1340.5 230,-1397.5 286,-1397.5 286,-1340.5 230,-1340.5"/>
<text text-anchor="middle" x="258" y="-1385.5" font-family="Helvetica,sans-Serif" font-size="10.00">unsigned</text>
<polyline fill="none" stroke="black" points="230,-1378.5 286,-1378.5 "/>
<text text-anchor="middle" x="258" y="-1366.5" font-family="Helvetica,sans-Serif" font-size="10.00"> </text>
<polyline fill="none" stroke="black" points="230,-1359.5 286,-1359.5 "/>
<text text-anchor="middle" x="258" y="-1347.5" font-family="Helvetica,sans-Serif" font-size="10.00"> </text>
</a>
</g>
</g>
<!-- Node7&#45;&gt;Node2 -->
<g id="edge6" class="edge"><title>Node7&#45;&gt;Node2</title>
<path fill="none" stroke="#404040" d="M251.82,-1340.41C244.417,-1304.89 233,-1241.18 233,-1186 233,-1186 233,-1186 233,-616 233,-550.411 233,-476.675 233,-419.082"/>
<polygon fill="none" stroke="#404040" points="233,-419.046 229,-413.046 233,-407.046 237,-413.046 233,-419.046"/>
<text text-anchor="middle" x="270" y="-906.5" font-family="Helvetica,sans-Serif" font-size="10.00"> #mVoltageIndex</text>
</g>
<!-- Node10 -->
<g id="node10" class="node"><title>Node10</title>
<g id="a_node10"><a xlink:href="classAbstractUntemplatedParameterisedSystem.html" target="_top" xlink:title="{AbstractUntemplatedParameterised\lSystem\n||+ AbstractUntemplatedParameterised\lSystem()\l+ ~AbstractUntemplatedParameterised\lSystem()\l+ GetSystemInformation()\l+ GetSystemName()\l+ GetNumberOfAttributes()\l+ HasAttribute()\l+ GetAttribute()\l+ GetNumberOfStateVariables()\l+ rGetStateVariableNames()\l+ rGetStateVariableUnits()\land 20 more...\l}">
<polygon fill="white" stroke="black" points="355.5,-1085 355.5,-1285 542.5,-1285 542.5,-1085 355.5,-1085"/>
<text text-anchor="start" x="363.5" y="-1273" font-family="Helvetica,sans-Serif" font-size="10.00">AbstractUntemplatedParameterised</text>
<text text-anchor="middle" x="449" y="-1262" font-family="Helvetica,sans-Serif" font-size="10.00">System</text>
<polyline fill="none" stroke="black" points="355.5,-1255 542.5,-1255 "/>
<text text-anchor="middle" x="449" y="-1243" font-family="Helvetica,sans-Serif" font-size="10.00"> </text>
<polyline fill="none" stroke="black" points="355.5,-1236 542.5,-1236 "/>
<text text-anchor="start" x="363.5" y="-1224" font-family="Helvetica,sans-Serif" font-size="10.00">+ AbstractUntemplatedParameterised</text>
<text text-anchor="start" x="363.5" y="-1213" font-family="Helvetica,sans-Serif" font-size="10.00">System()</text>
<text text-anchor="start" x="363.5" y="-1202" font-family="Helvetica,sans-Serif" font-size="10.00">+ ~AbstractUntemplatedParameterised</text>
<text text-anchor="start" x="363.5" y="-1191" font-family="Helvetica,sans-Serif" font-size="10.00">System()</text>
<text text-anchor="start" x="363.5" y="-1180" font-family="Helvetica,sans-Serif" font-size="10.00">+ GetSystemInformation()</text>
<text text-anchor="start" x="363.5" y="-1169" font-family="Helvetica,sans-Serif" font-size="10.00">+ GetSystemName()</text>
<text text-anchor="start" x="363.5" y="-1158" font-family="Helvetica,sans-Serif" font-size="10.00">+ GetNumberOfAttributes()</text>
<text text-anchor="start" x="363.5" y="-1147" font-family="Helvetica,sans-Serif" font-size="10.00">+ HasAttribute()</text>
<text text-anchor="start" x="363.5" y="-1136" font-family="Helvetica,sans-Serif" font-size="10.00">+ GetAttribute()</text>
<text text-anchor="start" x="363.5" y="-1125" font-family="Helvetica,sans-Serif" font-size="10.00">+ GetNumberOfStateVariables()</text>
<text text-anchor="start" x="363.5" y="-1114" font-family="Helvetica,sans-Serif" font-size="10.00">+ rGetStateVariableNames()</text>
<text text-anchor="start" x="363.5" y="-1103" font-family="Helvetica,sans-Serif" font-size="10.00">+ rGetStateVariableUnits()</text>
<text text-anchor="start" x="363.5" y="-1092" font-family="Helvetica,sans-Serif" font-size="10.00">and 20 more...</text>
</a>
</g>
</g>
<!-- Node7&#45;&gt;Node10 -->
<g id="edge11" class="edge"><title>Node7&#45;&gt;Node10</title>
<path fill="none" stroke="#404040" d="M281.985,-1340.21C292.753,-1328.45 305.954,-1314.96 319,-1304 330.043,-1294.72 334.779,-1295.06 346,-1286 346.097,-1285.92 346.194,-1285.84 346.291,-1285.76"/>
<polygon fill="none" stroke="#404040" points="346.096,-1285.93 348.165,-1279.02 355.337,-1278.27 353.268,-1285.18 346.096,-1285.93"/>
<text text-anchor="middle" x="382" y="-1307.5" font-family="Helvetica,sans-Serif" font-size="10.00"> #mNumberOfStateVariables</text>
</g>
<!-- Node8&#45;&gt;Node1 -->
<g id="edge7" class="edge"><title>Node8&#45;&gt;Node1</title>
<path fill="none" stroke="midnightblue" d="M471.315,-262.144C422.481,-228.099 359.97,-184.518 311.223,-150.534"/>
<polygon fill="none" stroke="midnightblue" points="469.443,-265.105 479.647,-267.953 473.446,-259.363 469.443,-265.105"/>
</g>
<!-- Node9 -->
<g id="node9" class="node"><title>Node9</title>
<g id="a_node9"><a xlink:href="classAbstractParameterisedSystem.html" target="_top" xlink:title="{AbstractParameterisedSystem\l\&lt; std::vector\&lt; double \&gt; \&gt;\n||+ AbstractParameterisedSystem()\l+ rGetStateVariables()\l+ GetStateVariables()\l+ SetStateVariables()\l+ GetStateVariable()\l+ GetStateVariable()\l+ SetStateVariable()\l+ SetStateVariable()\l+ VerifyStateVariables()\l+ SetDefaultInitialConditions()\land 13 more...\l# DumpState()\l# DumpState()\l# DumpState()\l# CheckParametersOnLoad()\l&#45; GetStateMessage()\l}">
<polygon fill="white" stroke="black" points="547.5,-500.5 547.5,-733.5 712.5,-733.5 712.5,-500.5 547.5,-500.5"/>
<text text-anchor="start" x="555.5" y="-721.5" font-family="Helvetica,sans-Serif" font-size="10.00">AbstractParameterisedSystem</text>
<text text-anchor="middle" x="630" y="-710.5" font-family="Helvetica,sans-Serif" font-size="10.00">&lt; std::vector&lt; double &gt; &gt;</text>
<polyline fill="none" stroke="black" points="547.5,-703.5 712.5,-703.5 "/>
<text text-anchor="middle" x="630" y="-691.5" font-family="Helvetica,sans-Serif" font-size="10.00"> </text>
<polyline fill="none" stroke="black" points="547.5,-684.5 712.5,-684.5 "/>
<text text-anchor="start" x="555.5" y="-672.5" font-family="Helvetica,sans-Serif" font-size="10.00">+ AbstractParameterisedSystem()</text>
<text text-anchor="start" x="555.5" y="-661.5" font-family="Helvetica,sans-Serif" font-size="10.00">+ rGetStateVariables()</text>
<text text-anchor="start" x="555.5" y="-650.5" font-family="Helvetica,sans-Serif" font-size="10.00">+ GetStateVariables()</text>
<text text-anchor="start" x="555.5" y="-639.5" font-family="Helvetica,sans-Serif" font-size="10.00">+ SetStateVariables()</text>
<text text-anchor="start" x="555.5" y="-628.5" font-family="Helvetica,sans-Serif" font-size="10.00">+ GetStateVariable()</text>
<text text-anchor="start" x="555.5" y="-617.5" font-family="Helvetica,sans-Serif" font-size="10.00">+ GetStateVariable()</text>
<text text-anchor="start" x="555.5" y="-606.5" font-family="Helvetica,sans-Serif" font-size="10.00">+ SetStateVariable()</text>
<text text-anchor="start" x="555.5" y="-595.5" font-family="Helvetica,sans-Serif" font-size="10.00">+ SetStateVariable()</text>
<text text-anchor="start" x="555.5" y="-584.5" font-family="Helvetica,sans-Serif" font-size="10.00">+ VerifyStateVariables()</text>
<text text-anchor="start" x="555.5" y="-573.5" font-family="Helvetica,sans-Serif" font-size="10.00">+ SetDefaultInitialConditions()</text>
<text text-anchor="start" x="555.5" y="-562.5" font-family="Helvetica,sans-Serif" font-size="10.00">and 13 more...</text>
<text text-anchor="start" x="555.5" y="-551.5" font-family="Helvetica,sans-Serif" font-size="10.00"># DumpState()</text>
<text text-anchor="start" x="555.5" y="-540.5" font-family="Helvetica,sans-Serif" font-size="10.00"># DumpState()</text>
<text text-anchor="start" x="555.5" y="-529.5" font-family="Helvetica,sans-Serif" font-size="10.00"># DumpState()</text>
<text text-anchor="start" x="555.5" y="-518.5" font-family="Helvetica,sans-Serif" font-size="10.00"># CheckParametersOnLoad()</text>
<text text-anchor="start" x="555.5" y="-507.5" font-family="Helvetica,sans-Serif" font-size="10.00">&#45; GetStateMessage()</text>
</a>
</g>
</g>
<!-- Node9&#45;&gt;Node8 -->
<g id="edge8" class="edge"><title>Node9&#45;&gt;Node8</title>
<path fill="none" stroke="midnightblue" d="M660.923,-490.262C661.554,-468.336 658.998,-446.125 651,-426 644.066,-408.552 632.788,-392.302 620.232,-378.002"/>
<polygon fill="none" stroke="midnightblue" points="657.425,-490.143 660.417,-500.307 664.416,-490.496 657.425,-490.143"/>
</g>
<!-- Node10&#45;&gt;Node9 -->
<g id="edge9" class="edge"><title>Node10&#45;&gt;Node9</title>
<path fill="none" stroke="midnightblue" d="M550.272,-1106.26C573.949,-1083.04 596.47,-1055.75 611,-1026 655.341,-935.201 656.205,-819.069 648.255,-733.94"/>
<polygon fill="none" stroke="midnightblue" points="547.691,-1103.89 542.895,-1113.34 552.535,-1108.94 547.691,-1103.89"/>
</g>
<!-- Node13 -->
<g id="node13" class="node"><title>Node13</title>
<g id="a_node13"><a xlink:href="classAbstractParameterisedSystem.html" target="_top" xlink:title="{AbstractParameterisedSystem\l\&lt; VECTOR \&gt;\n||+ AbstractParameterisedSystem()\l+ rGetStateVariables()\l+ GetStateVariables()\l+ SetStateVariables()\l+ GetStateVariable()\l+ GetStateVariable()\l+ SetStateVariable()\l+ SetStateVariable()\l+ VerifyStateVariables()\l+ SetDefaultInitialConditions()\land 13 more...\l# DumpState()\l# DumpState()\l# DumpState()\l# CheckParametersOnLoad()\l&#45; GetStateMessage()\l}">
<polygon fill="white" stroke="black" points="328.5,-792.5 328.5,-1025.5 493.5,-1025.5 493.5,-792.5 328.5,-792.5"/>
<text text-anchor="start" x="336.5" y="-1013.5" font-family="Helvetica,sans-Serif" font-size="10.00">AbstractParameterisedSystem</text>
<text text-anchor="middle" x="411" y="-1002.5" font-family="Helvetica,sans-Serif" font-size="10.00">&lt; VECTOR &gt;</text>
<polyline fill="none" stroke="black" points="328.5,-995.5 493.5,-995.5 "/>
<text text-anchor="middle" x="411" y="-983.5" font-family="Helvetica,sans-Serif" font-size="10.00"> </text>
<polyline fill="none" stroke="black" points="328.5,-976.5 493.5,-976.5 "/>
<text text-anchor="start" x="336.5" y="-964.5" font-family="Helvetica,sans-Serif" font-size="10.00">+ AbstractParameterisedSystem()</text>
<text text-anchor="start" x="336.5" y="-953.5" font-family="Helvetica,sans-Serif" font-size="10.00">+ rGetStateVariables()</text>
<text text-anchor="start" x="336.5" y="-942.5" font-family="Helvetica,sans-Serif" font-size="10.00">+ GetStateVariables()</text>
<text text-anchor="start" x="336.5" y="-931.5" font-family="Helvetica,sans-Serif" font-size="10.00">+ SetStateVariables()</text>
<text text-anchor="start" x="336.5" y="-920.5" font-family="Helvetica,sans-Serif" font-size="10.00">+ GetStateVariable()</text>
<text text-anchor="start" x="336.5" y="-909.5" font-family="Helvetica,sans-Serif" font-size="10.00">+ GetStateVariable()</text>
<text text-anchor="start" x="336.5" y="-898.5" font-family="Helvetica,sans-Serif" font-size="10.00">+ SetStateVariable()</text>
<text text-anchor="start" x="336.5" y="-887.5" font-family="Helvetica,sans-Serif" font-size="10.00">+ SetStateVariable()</text>
<text text-anchor="start" x="336.5" y="-876.5" font-family="Helvetica,sans-Serif" font-size="10.00">+ VerifyStateVariables()</text>
<text text-anchor="start" x="336.5" y="-865.5" font-family="Helvetica,sans-Serif" font-size="10.00">+ SetDefaultInitialConditions()</text>
<text text-anchor="start" x="336.5" y="-854.5" font-family="Helvetica,sans-Serif" font-size="10.00">and 13 more...</text>
<text text-anchor="start" x="336.5" y="-843.5" font-family="Helvetica,sans-Serif" font-size="10.00"># DumpState()</text>
<text text-anchor="start" x="336.5" y="-832.5" font-family="Helvetica,sans-Serif" font-size="10.00"># DumpState()</text>
<text text-anchor="start" x="336.5" y="-821.5" font-family="Helvetica,sans-Serif" font-size="10.00"># DumpState()</text>
<text text-anchor="start" x="336.5" y="-810.5" font-family="Helvetica,sans-Serif" font-size="10.00"># CheckParametersOnLoad()</text>
<text text-anchor="start" x="336.5" y="-799.5" font-family="Helvetica,sans-Serif" font-size="10.00">&#45; GetStateMessage()</text>
</a>
</g>
</g>
<!-- Node10&#45;&gt;Node13 -->
<g id="edge14" class="edge"><title>Node10&#45;&gt;Node13</title>
<path fill="none" stroke="midnightblue" d="M433.846,-1074.74C431.611,-1058.62 429.302,-1041.97 427.05,-1025.73"/>
<polygon fill="none" stroke="midnightblue" points="430.387,-1075.27 435.227,-1084.69 437.32,-1074.31 430.387,-1075.27"/>
</g>
<!-- Node11 -->
<g id="node11" class="node"><title>Node11</title>
<polygon fill="white" stroke="#bfbfbf" points="369,-1335 369,-1403 529,-1403 529,-1335 369,-1335"/>
<text text-anchor="start" x="377" y="-1391" font-family="Helvetica,sans-Serif" font-size="10.00">shared_ptr&lt; AbstractOdeSystem</text>
<text text-anchor="middle" x="449" y="-1380" font-family="Helvetica,sans-Serif" font-size="10.00">Information &gt;</text>
<polyline fill="none" stroke="#bfbfbf" points="369,-1373 529,-1373 "/>
<text text-anchor="middle" x="449" y="-1361" font-family="Helvetica,sans-Serif" font-size="10.00"> </text>
<polyline fill="none" stroke="#bfbfbf" points="369,-1354 529,-1354 "/>
<text text-anchor="middle" x="449" y="-1342" font-family="Helvetica,sans-Serif" font-size="10.00"> </text>
</g>
<!-- Node11&#45;&gt;Node10 -->
<g id="edge10" class="edge"><title>Node11&#45;&gt;Node10</title>
<path fill="none" stroke="#404040" d="M449,-1334.62C449,-1323.78 449,-1311.08 449,-1297.76"/>
<polygon fill="none" stroke="#404040" points="449,-1297.38 445,-1291.38 449,-1285.38 453,-1291.38 449,-1297.38"/>
<text text-anchor="middle" x="485.5" y="-1307.5" font-family="Helvetica,sans-Serif" font-size="10.00"> #mpSystemInfo</text>
</g>
<!-- Node12 -->
<g id="node12" class="node"><title>Node12</title>
<polygon fill="white" stroke="#bfbfbf" points="512,-880.5 512,-937.5 602,-937.5 602,-880.5 512,-880.5"/>
<text text-anchor="middle" x="557" y="-925.5" font-family="Helvetica,sans-Serif" font-size="10.00">vector&lt; double &gt;</text>
<polyline fill="none" stroke="#bfbfbf" points="512,-918.5 602,-918.5 "/>
<text text-anchor="middle" x="557" y="-906.5" font-family="Helvetica,sans-Serif" font-size="10.00"> </text>
<polyline fill="none" stroke="#bfbfbf" points="512,-899.5 602,-899.5 "/>
<text text-anchor="middle" x="557" y="-887.5" font-family="Helvetica,sans-Serif" font-size="10.00"> </text>
</g>
<!-- Node12&#45;&gt;Node9 -->
<g id="edge12" class="edge"><title>Node12&#45;&gt;Node9</title>
<path fill="none" stroke="#404040" d="M553.225,-880.437C549.802,-848.86 546.822,-795.827 558,-752 558.587,-749.697 559.223,-747.39 559.901,-745.083"/>
<polygon fill="none" stroke="#404040" points="559.938,-744.97 557.984,-738.029 563.639,-733.555 565.593,-740.497 559.938,-744.97"/>
<text text-anchor="middle" x="598.5" y="-766" font-family="Helvetica,sans-Serif" font-size="10.00"> #mStateVariables</text>
<text text-anchor="middle" x="598.5" y="-755" font-family="Helvetica,sans-Serif" font-size="10.00">#mParameters</text>
</g>
<!-- Node13&#45;&gt;Node9 -->
<g id="edge13" class="edge"><title>Node13&#45;&gt;Node9</title>
<path fill="none" stroke="orange" d="M416.028,-782.778C420.516,-771.456 426.673,-760.92 435,-752 459.87,-725.36 483.114,-751.649 515,-734 526.165,-727.82 536.958,-720.229 547.165,-711.913"/>
<polygon fill="orange" stroke="orange" points="412.641,-781.859 412.638,-792.454 419.247,-784.173 412.641,-781.859"/>
<text text-anchor="middle" x="492.5" y="-760.5" font-family="Helvetica,sans-Serif" font-size="10.00"> &lt; std::vector&lt; double &gt; &gt;</text>
</g>
<!-- Node14 -->
<g id="node14" class="node"><title>Node14</title>
<polygon fill="white" stroke="#bfbfbf" points="278.5,-1156.5 278.5,-1213.5 337.5,-1213.5 337.5,-1156.5 278.5,-1156.5"/>
<text text-anchor="middle" x="308" y="-1201.5" font-family="Helvetica,sans-Serif" font-size="10.00">VECTOR</text>
<polyline fill="none" stroke="#bfbfbf" points="278.5,-1194.5 337.5,-1194.5 "/>
<text text-anchor="middle" x="308" y="-1182.5" font-family="Helvetica,sans-Serif" font-size="10.00"> </text>
<polyline fill="none" stroke="#bfbfbf" points="278.5,-1175.5 337.5,-1175.5 "/>
<text text-anchor="middle" x="308" y="-1163.5" font-family="Helvetica,sans-Serif" font-size="10.00"> </text>
</g>
<!-- Node14&#45;&gt;Node13 -->
<g id="edge15" class="edge"><title>Node14&#45;&gt;Node13</title>
<path fill="none" stroke="#404040" d="M313.587,-1156.4C319.771,-1127.79 330.773,-1082.03 345,-1044 345.887,-1041.63 346.803,-1039.24 347.744,-1036.85"/>
<polygon fill="none" stroke="#404040" points="347.802,-1036.7 346.352,-1029.64 352.315,-1025.58 353.765,-1032.65 347.802,-1036.7"/>
<text text-anchor="middle" x="385.5" y="-1058" font-family="Helvetica,sans-Serif" font-size="10.00"> #mStateVariables</text>
<text text-anchor="middle" x="385.5" y="-1047" font-family="Helvetica,sans-Serif" font-size="10.00">#mParameters</text>
</g>
</g>
</svg>
