<?xml version="1.0" encoding="UTF-8" standalone="no"?>
<!DOCTYPE svg PUBLIC "-//W3C//DTD SVG 1.1//EN"
 "http://www.w3.org/Graphics/SVG/1.1/DTD/svg11.dtd">
<!-- Generated by graphviz version 2.36.0 (20140111.2315)
 -->
<!-- Title: SteadyStateRunner Pages: 1 -->
<svg width="387pt" height="380pt"
 viewBox="0.00 0.00 387.00 380.00" xmlns="http://www.w3.org/2000/svg" xmlns:xlink="http://www.w3.org/1999/xlink">
<g id="graph0" class="graph" transform="scale(1 1) rotate(0) translate(4 376)">
<title>SteadyStateRunner</title>
<polygon fill="white" stroke="none" points="-4,4 -4,-376 383,-376 383,4 -4,4"/>
<!-- Node1 -->
<g id="node1" class="node"><title>Node1</title>
<polygon fill="#bfbfbf" stroke="black" points="-0.5,-1 -0.5,-69 180.5,-69 180.5,-1 -0.5,-1"/>
<text text-anchor="middle" x="90" y="-57" font-family="Helvetica,sans-Serif" font-size="10.00">SteadyStateRunner</text>
<polyline fill="none" stroke="black" points="-0.5,-50 180.5,-50 "/>
<text text-anchor="middle" x="90" y="-38" font-family="Helvetica,sans-Serif" font-size="10.00"> </text>
<polyline fill="none" stroke="black" points="-0.5,-31 180.5,-31 "/>
<text text-anchor="start" x="7.5" y="-19" font-family="Helvetica,sans-Serif" font-size="10.00">+ SteadyStateRunner()</text>
<text text-anchor="start" x="7.5" y="-8" font-family="Helvetica,sans-Serif" font-size="10.00"># RunToSteadyStateImplementation()</text>
</g>
<!-- Node2 -->
<g id="node2" class="node"><title>Node2</title>
<g id="a_node2"><a xlink:href="classAbstractSteadyStateRunner.html" target="_top" xlink:title="{AbstractSteadyStateRunner\n||+ AbstractSteadyStateRunner()\l+ ~AbstractSteadyStateRunner()\l+ RunToSteadyState()\l+ SuppressOutput()\l+ GetNumEvaluations()\l+ SetMaxNumPaces()\l# RunToSteadyStateImplementation()\l&#45; AbstractSteadyStateRunner()\l}">
<polygon fill="white" stroke="black" points="134.5,-109 134.5,-243 315.5,-243 315.5,-109 134.5,-109"/>
<text text-anchor="middle" x="225" y="-231" font-family="Helvetica,sans-Serif" font-size="10.00">AbstractSteadyStateRunner</text>
<polyline fill="none" stroke="black" points="134.5,-224 315.5,-224 "/>
<text text-anchor="middle" x="225" y="-212" font-family="Helvetica,sans-Serif" font-size="10.00"> </text>
<polyline fill="none" stroke="black" points="134.5,-205 315.5,-205 "/>
<text text-anchor="start" x="142.5" y="-193" font-family="Helvetica,sans-Serif" font-size="10.00">+ AbstractSteadyStateRunner()</text>
<text text-anchor="start" x="142.5" y="-182" font-family="Helvetica,sans-Serif" font-size="10.00">+ ~AbstractSteadyStateRunner()</text>
<text text-anchor="start" x="142.5" y="-171" font-family="Helvetica,sans-Serif" font-size="10.00">+ RunToSteadyState()</text>
<text text-anchor="start" x="142.5" y="-160" font-family="Helvetica,sans-Serif" font-size="10.00">+ SuppressOutput()</text>
<text text-anchor="start" x="142.5" y="-149" font-family="Helvetica,sans-Serif" font-size="10.00">+ GetNumEvaluations()</text>
<text text-anchor="start" x="142.5" y="-138" font-family="Helvetica,sans-Serif" font-size="10.00">+ SetMaxNumPaces()</text>
<text text-anchor="start" x="142.5" y="-127" font-family="Helvetica,sans-Serif" font-size="10.00"># RunToSteadyStateImplementation()</text>
<text text-anchor="start" x="142.5" y="-116" font-family="Helvetica,sans-Serif" font-size="10.00">&#45; AbstractSteadyStateRunner()</text>
</a>
</g>
</g>
<!-- Node2&#45;&gt;Node1 -->
<g id="edge1" class="edge"><title>Node2&#45;&gt;Node1</title>
<path fill="none" stroke="midnightblue" d="M153.484,-101.365C142.572,-90.1292 131.8,-79.0381 122.314,-69.2719"/>
<polygon fill="none" stroke="midnightblue" points="151.185,-104.022 160.663,-108.757 156.207,-99.1447 151.185,-104.022"/>
</g>
<!-- Node3 -->
<g id="node3" class="node"><title>Node3</title>
<g id="a_node3"><a xlink:href="classbool.html" target="_top" xlink:title="{bool\n||}">
<polygon fill="white" stroke="black" points="41.5,-308.5 41.5,-365.5 76.5,-365.5 76.5,-308.5 41.5,-308.5"/>
<text text-anchor="middle" x="59" y="-353.5" font-family="Helvetica,sans-Serif" font-size="10.00">bool</text>
<polyline fill="none" stroke="black" points="41.5,-346.5 76.5,-346.5 "/>
<text text-anchor="middle" x="59" y="-334.5" font-family="Helvetica,sans-Serif" font-size="10.00"> </text>
<polyline fill="none" stroke="black" points="41.5,-327.5 76.5,-327.5 "/>
<text text-anchor="middle" x="59" y="-315.5" font-family="Helvetica,sans-Serif" font-size="10.00"> </text>
</a>
</g>
</g>
<!-- Node3&#45;&gt;Node1 -->
<g id="edge5" class="edge"><title>Node3&#45;&gt;Node1</title>
<path fill="none" stroke="#404040" d="M51.7213,-308.349C41.5182,-264.814 26.2948,-178.034 46,-108 48.708,-98.3756 53.0994,-88.7654 58.0842,-79.846"/>
<polygon fill="none" stroke="#404040" points="58.207,-79.6415 57.8672,-72.4383 64.3856,-69.3543 64.7254,-76.5574 58.207,-79.6415"/>
<text text-anchor="middle" x="85.5" y="-173.5" font-family="Helvetica,sans-Serif" font-size="10.00"> &#45;mTwoPaceScan</text>
</g>
<!-- Node3&#45;&gt;Node2 -->
<g id="edge2" class="edge"><title>Node3&#45;&gt;Node2</title>
<path fill="none" stroke="#404040" d="M76.538,-315.261C89.6845,-300.061 108.371,-279.171 126,-262 129.606,-258.488 133.331,-254.945 137.129,-251.404"/>
<polygon fill="none" stroke="#404040" points="137.264,-251.28 138.973,-244.274 146.097,-243.157 144.388,-250.163 137.264,-251.28"/>
<text text-anchor="middle" x="170" y="-270.5" font-family="Helvetica,sans-Serif" font-size="10.00"> #mSuppressOutput</text>
</g>
<!-- Node4 -->
<g id="node4" class="node"><title>Node4</title>
<polygon fill="white" stroke="#bfbfbf" points="145.5,-303 145.5,-371 282.5,-371 282.5,-303 145.5,-303"/>
<text text-anchor="start" x="153.5" y="-359" font-family="Helvetica,sans-Serif" font-size="10.00">shared_ptr&lt; AbstractCvode</text>
<text text-anchor="middle" x="214" y="-348" font-family="Helvetica,sans-Serif" font-size="10.00">Cell &gt;</text>
<polyline fill="none" stroke="#bfbfbf" points="145.5,-341 282.5,-341 "/>
<text text-anchor="middle" x="214" y="-329" font-family="Helvetica,sans-Serif" font-size="10.00"> </text>
<polyline fill="none" stroke="#bfbfbf" points="145.5,-322 282.5,-322 "/>
<text text-anchor="middle" x="214" y="-310" font-family="Helvetica,sans-Serif" font-size="10.00"> </text>
</g>
<!-- Node4&#45;&gt;Node2 -->
<g id="edge3" class="edge"><title>Node4&#45;&gt;Node2</title>
<path fill="none" stroke="#404040" d="M216.306,-302.668C217.269,-288.746 218.432,-271.932 219.59,-255.196"/>
<polygon fill="none" stroke="#404040" points="219.601,-255.037 216.025,-248.775 220.429,-243.065 224.006,-249.327 219.601,-255.037"/>
<text text-anchor="middle" x="243.5" y="-270.5" font-family="Helvetica,sans-Serif" font-size="10.00"> #mpModel</text>
</g>
<!-- Node5 -->
<g id="node5" class="node"><title>Node5</title>
<g id="a_node5"><a xlink:href="classunsigned.html" target="_top" xlink:title="{unsigned\n||}">
<polygon fill="white" stroke="black" points="301,-308.5 301,-365.5 357,-365.5 357,-308.5 301,-308.5"/>
<text text-anchor="middle" x="329" y="-353.5" font-family="Helvetica,sans-Serif" font-size="10.00">unsigned</text>
<polyline fill="none" stroke="black" points="301,-346.5 357,-346.5 "/>
<text text-anchor="middle" x="329" y="-334.5" font-family="Helvetica,sans-Serif" font-size="10.00"> </text>
<polyline fill="none" stroke="black" points="301,-327.5 357,-327.5 "/>
<text text-anchor="middle" x="329" y="-315.5" font-family="Helvetica,sans-Serif" font-size="10.00"> </text>
</a>
</g>
</g>
<!-- Node5&#45;&gt;Node2 -->
<g id="edge4" class="edge"><title>Node5&#45;&gt;Node2</title>
<path fill="none" stroke="#404040" d="M310.885,-308.304C300.824,-292.924 287.767,-272.961 274.883,-253.264"/>
<polygon fill="none" stroke="#404040" points="274.747,-253.056 268.115,-250.224 268.178,-243.013 274.81,-245.845 274.747,-253.056"/>
<text text-anchor="middle" x="336" y="-276" font-family="Helvetica,sans-Serif" font-size="10.00"> #mMaxNumPaces</text>
<text text-anchor="middle" x="336" y="-265" font-family="Helvetica,sans-Serif" font-size="10.00">#mNumEvaluations</text>
</g>
</g>
</svg>
