<?xml version="1.0" encoding="UTF-8" standalone="no"?>
<!DOCTYPE svg PUBLIC "-//W3C//DTD SVG 1.1//EN"
 "http://www.w3.org/Graphics/SVG/1.1/DTD/svg11.dtd">
<!-- Generated by graphviz version 2.36.0 (20140111.2315)
 -->
<!-- Title: OrthotropicConductivityTensors&lt; ELEMENT_DIM, SPACE_DIM &gt; Pages: 1 -->
<svg width="1188pt" height="662pt"
 viewBox="0.00 0.00 1188.00 662.00" xmlns="http://www.w3.org/2000/svg" xmlns:xlink="http://www.w3.org/1999/xlink">
<g id="graph0" class="graph" transform="scale(1 1) rotate(0) translate(4 658)">
<title>OrthotropicConductivityTensors&lt; ELEMENT_DIM, SPACE_DIM &gt;</title>
<polygon fill="white" stroke="none" points="-4,4 -4,-658 1184,-658 1184,4 -4,4"/>
<!-- Node1 -->
<g id="node1" class="node"><title>Node1</title>
<polygon fill="#bfbfbf" stroke="black" points="476,-1 476,-69 646,-69 646,-1 476,-1"/>
<text text-anchor="start" x="484" y="-57" font-family="Helvetica,sans-Serif" font-size="10.00">OrthotropicConductivityTensors</text>
<text text-anchor="middle" x="561" y="-46" font-family="Helvetica,sans-Serif" font-size="10.00">&lt; ELEMENT_DIM, SPACE_DIM &gt;</text>
<polyline fill="none" stroke="black" points="476,-39 646,-39 "/>
<text text-anchor="middle" x="561" y="-27" font-family="Helvetica,sans-Serif" font-size="10.00"> </text>
<polyline fill="none" stroke="black" points="476,-20 646,-20 "/>
<text text-anchor="start" x="484" y="-8" font-family="Helvetica,sans-Serif" font-size="10.00">+ Init()</text>
</g>
<!-- Node2 -->
<g id="node2" class="node"><title>Node2</title>
<g id="a_node2"><a xlink:href="classAbstractConductivityTensors.html" target="_top" xlink:title="Forward declaration which is going to be used for friendship. ">
<polygon fill="white" stroke="black" points="476,-109 476,-265 646,-265 646,-109 476,-109"/>
<text text-anchor="start" x="484" y="-253" font-family="Helvetica,sans-Serif" font-size="10.00">AbstractConductivityTensors</text>
<text text-anchor="middle" x="561" y="-242" font-family="Helvetica,sans-Serif" font-size="10.00">&lt; ELEMENT_DIM, SPACE_DIM &gt;</text>
<polyline fill="none" stroke="black" points="476,-235 646,-235 "/>
<text text-anchor="middle" x="561" y="-223" font-family="Helvetica,sans-Serif" font-size="10.00"> </text>
<polyline fill="none" stroke="black" points="476,-216 646,-216 "/>
<text text-anchor="start" x="484" y="-204" font-family="Helvetica,sans-Serif" font-size="10.00">+ AbstractConductivityTensors()</text>
<text text-anchor="start" x="484" y="-193" font-family="Helvetica,sans-Serif" font-size="10.00">+ ~AbstractConductivityTensors()</text>
<text text-anchor="start" x="484" y="-182" font-family="Helvetica,sans-Serif" font-size="10.00">+ SetFibreOrientationFile()</text>
<text text-anchor="start" x="484" y="-171" font-family="Helvetica,sans-Serif" font-size="10.00">+ SetConstantConductivities()</text>
<text text-anchor="start" x="484" y="-160" font-family="Helvetica,sans-Serif" font-size="10.00">+ SetConstantConductivities()</text>
<text text-anchor="start" x="484" y="-149" font-family="Helvetica,sans-Serif" font-size="10.00">+ SetConstantConductivities()</text>
<text text-anchor="start" x="484" y="-138" font-family="Helvetica,sans-Serif" font-size="10.00">+ SetNonConstantConductivities()</text>
<text text-anchor="start" x="484" y="-127" font-family="Helvetica,sans-Serif" font-size="10.00">+ Init()</text>
<text text-anchor="start" x="484" y="-116" font-family="Helvetica,sans-Serif" font-size="10.00">+ operator[]()</text>
</a>
</g>
</g>
<!-- Node2&#45;&gt;Node1 -->
<g id="edge1" class="edge"><title>Node2&#45;&gt;Node1</title>
<path fill="none" stroke="midnightblue" d="M561,-98.7299C561,-88.2991 561,-78.1937 561,-69.2506"/>
<polygon fill="none" stroke="midnightblue" points="557.5,-98.803 561,-108.803 564.5,-98.803 557.5,-98.803"/>
</g>
<!-- Node3 -->
<g id="node3" class="node"><title>Node3</title>
<polygon fill="white" stroke="#bfbfbf" points="-0.5,-397 -0.5,-465 124.5,-465 124.5,-397 -0.5,-397"/>
<text text-anchor="start" x="7.5" y="-453" font-family="Helvetica,sans-Serif" font-size="10.00">shared_ptr&lt; FibreReader</text>
<text text-anchor="middle" x="62" y="-442" font-family="Helvetica,sans-Serif" font-size="10.00">&lt; SPACE_DIM &gt; &gt;</text>
<polyline fill="none" stroke="#bfbfbf" points="-0.5,-435 124.5,-435 "/>
<text text-anchor="middle" x="62" y="-423" font-family="Helvetica,sans-Serif" font-size="10.00"> </text>
<polyline fill="none" stroke="#bfbfbf" points="-0.5,-416 124.5,-416 "/>
<text text-anchor="middle" x="62" y="-404" font-family="Helvetica,sans-Serif" font-size="10.00"> </text>
</g>
<!-- Node3&#45;&gt;Node2 -->
<g id="edge2" class="edge"><title>Node3&#45;&gt;Node2</title>
<path fill="none" stroke="#404040" d="M74.7328,-396.835C86.3924,-370.71 106.097,-335.261 134,-314 231.18,-239.951 371.149,-209.309 464.014,-196.7"/>
<polygon fill="none" stroke="#404040" points="464.048,-196.696 469.48,-191.954 475.947,-195.144 470.515,-199.887 464.048,-196.696"/>
<text text-anchor="middle" x="206" y="-287.5" font-family="Helvetica,sans-Serif" font-size="10.00"> #mFileReader</text>
</g>
<!-- Node4 -->
<g id="node4" class="node"><title>Node4</title>
<polygon fill="white" stroke="#bfbfbf" points="143,-397 143,-465 275,-465 275,-397 143,-397"/>
<text text-anchor="start" x="151" y="-453" font-family="Helvetica,sans-Serif" font-size="10.00">c_vector&lt; double, SPACE</text>
<text text-anchor="middle" x="209" y="-442" font-family="Helvetica,sans-Serif" font-size="10.00">_DIM &gt;</text>
<polyline fill="none" stroke="#bfbfbf" points="143,-435 275,-435 "/>
<text text-anchor="middle" x="209" y="-423" font-family="Helvetica,sans-Serif" font-size="10.00"> </text>
<polyline fill="none" stroke="#bfbfbf" points="143,-416 275,-416 "/>
<text text-anchor="middle" x="209" y="-404" font-family="Helvetica,sans-Serif" font-size="10.00"> </text>
</g>
<!-- Node4&#45;&gt;Node2 -->
<g id="edge3" class="edge"><title>Node4&#45;&gt;Node2</title>
<path fill="none" stroke="#404040" d="M223.958,-396.823C236.824,-371.386 257.49,-336.872 284,-314 336.205,-268.958 407.173,-237.094 464.205,-216.678"/>
<polygon fill="none" stroke="#404040" points="464.459,-216.589 468.798,-210.83 475.784,-212.621 471.444,-218.38 464.459,-216.589"/>
<text text-anchor="middle" x="383.5" y="-287.5" font-family="Helvetica,sans-Serif" font-size="10.00"> #mConstantConductivities</text>
</g>
<!-- Node5 -->
<g id="node5" class="node"><title>Node5</title>
<polygon fill="white" stroke="#bfbfbf" points="182,-596.5 182,-653.5 236,-653.5 236,-596.5 182,-596.5"/>
<text text-anchor="middle" x="209" y="-641.5" font-family="Helvetica,sans-Serif" font-size="10.00">c_vector</text>
<polyline fill="none" stroke="#bfbfbf" points="182,-634.5 236,-634.5 "/>
<text text-anchor="middle" x="209" y="-622.5" font-family="Helvetica,sans-Serif" font-size="10.00"> </text>
<polyline fill="none" stroke="#bfbfbf" points="182,-615.5 236,-615.5 "/>
<text text-anchor="middle" x="209" y="-603.5" font-family="Helvetica,sans-Serif" font-size="10.00"> </text>
</g>
<!-- Node5&#45;&gt;Node4 -->
<g id="edge4" class="edge"><title>Node5&#45;&gt;Node4</title>
<path fill="none" stroke="orange" d="M209,-586.135C209,-550.908 209,-498.928 209,-465.262"/>
<polygon fill="orange" stroke="orange" points="205.5,-586.491 209,-596.491 212.5,-586.491 205.5,-586.491"/>
<text text-anchor="middle" x="266.5" y="-569.5" font-family="Helvetica,sans-Serif" font-size="10.00"> &lt; double, SPACE_DIM &gt;</text>
</g>
<!-- Node6 -->
<g id="node6" class="node"><title>Node6</title>
<polygon fill="white" stroke="#bfbfbf" points="293.5,-397 293.5,-465 454.5,-465 454.5,-397 293.5,-397"/>
<text text-anchor="start" x="301.5" y="-453" font-family="Helvetica,sans-Serif" font-size="10.00">vector&lt; c_matrix&lt; double,</text>
<text text-anchor="middle" x="374" y="-442" font-family="Helvetica,sans-Serif" font-size="10.00"> SPACE_DIM, SPACE_DIM &gt; &gt;</text>
<polyline fill="none" stroke="#bfbfbf" points="293.5,-435 454.5,-435 "/>
<text text-anchor="middle" x="374" y="-423" font-family="Helvetica,sans-Serif" font-size="10.00"> </text>
<polyline fill="none" stroke="#bfbfbf" points="293.5,-416 454.5,-416 "/>
<text text-anchor="middle" x="374" y="-404" font-family="Helvetica,sans-Serif" font-size="10.00"> </text>
</g>
<!-- Node6&#45;&gt;Node2 -->
<g id="edge5" class="edge"><title>Node6&#45;&gt;Node2</title>
<path fill="none" stroke="#404040" d="M399.262,-396.955C417.045,-373.721 441.43,-341.922 463,-314 472.816,-301.294 483.208,-287.885 493.413,-274.743"/>
<polygon fill="none" stroke="#404040" points="493.438,-274.71 493.96,-267.518 500.8,-265.234 500.278,-272.426 493.438,-274.71"/>
<text text-anchor="middle" x="511" y="-287.5" font-family="Helvetica,sans-Serif" font-size="10.00"> #mTensors</text>
</g>
<!-- Node7 -->
<g id="node7" class="node"><title>Node7</title>
<polygon fill="white" stroke="#bfbfbf" points="472.5,-397 472.5,-465 649.5,-465 649.5,-397 472.5,-397"/>
<text text-anchor="start" x="480.5" y="-453" font-family="Helvetica,sans-Serif" font-size="10.00">AbstractTetrahedralMesh</text>
<text text-anchor="middle" x="561" y="-442" font-family="Helvetica,sans-Serif" font-size="10.00">&lt; ELEMENT_DIM, SPACE_DIM &gt; *</text>
<polyline fill="none" stroke="#bfbfbf" points="472.5,-435 649.5,-435 "/>
<text text-anchor="middle" x="561" y="-423" font-family="Helvetica,sans-Serif" font-size="10.00"> </text>
<polyline fill="none" stroke="#bfbfbf" points="472.5,-416 649.5,-416 "/>
<text text-anchor="middle" x="561" y="-404" font-family="Helvetica,sans-Serif" font-size="10.00"> </text>
</g>
<!-- Node7&#45;&gt;Node2 -->
<g id="edge6" class="edge"><title>Node7&#45;&gt;Node2</title>
<path fill="none" stroke="#404040" d="M561,-396.858C561,-366.108 561,-318.932 561,-277.192"/>
<polygon fill="none" stroke="#404040" points="561,-277.011 557,-271.011 561,-265.011 565,-271.011 561,-277.011"/>
<text text-anchor="middle" x="584" y="-287.5" font-family="Helvetica,sans-Serif" font-size="10.00"> #mpMesh</text>
</g>
<!-- Node8 -->
<g id="node8" class="node"><title>Node8</title>
<g id="a_node8"><a xlink:href="classbool.html" target="_top" xlink:title="{bool\n||}">
<polygon fill="white" stroke="black" points="700.5,-596.5 700.5,-653.5 735.5,-653.5 735.5,-596.5 700.5,-596.5"/>
<text text-anchor="middle" x="718" y="-641.5" font-family="Helvetica,sans-Serif" font-size="10.00">bool</text>
<polyline fill="none" stroke="black" points="700.5,-634.5 735.5,-634.5 "/>
<text text-anchor="middle" x="718" y="-622.5" font-family="Helvetica,sans-Serif" font-size="10.00"> </text>
<polyline fill="none" stroke="black" points="700.5,-615.5 735.5,-615.5 "/>
<text text-anchor="middle" x="718" y="-603.5" font-family="Helvetica,sans-Serif" font-size="10.00"> </text>
</a>
</g>
</g>
<!-- Node8&#45;&gt;Node2 -->
<g id="edge7" class="edge"><title>Node8&#45;&gt;Node2</title>
<path fill="none" stroke="#404040" d="M708.191,-596.488C703.375,-582.175 697.805,-564.304 694,-548 670.087,-445.53 699.399,-410.738 658,-314 652.357,-300.814 645.01,-287.791 636.882,-275.408"/>
<polygon fill="none" stroke="#404040" points="636.657,-275.077 629.97,-272.377 629.891,-265.166 636.578,-267.867 636.657,-275.077"/>
<text text-anchor="middle" x="770" y="-439.5" font-family="Helvetica,sans-Serif" font-size="10.00"> #mUseFibreOrientation</text>
<text text-anchor="middle" x="770" y="-428.5" font-family="Helvetica,sans-Serif" font-size="10.00">#mInitialised</text>
<text text-anchor="middle" x="770" y="-417.5" font-family="Helvetica,sans-Serif" font-size="10.00">#mUseNonConstantConductivities</text>
</g>
<!-- Node9 -->
<g id="node9" class="node"><title>Node9</title>
<g id="a_node9"><a xlink:href="classFileFinder.html" target="_top" xlink:title="{FileFinder\n||+ FileFinder()\l+ FileFinder()\l+ FileFinder()\l+ FileFinder()\l+ ~FileFinder()\l+ SetPath()\l+ SetPath()\l+ IsPathSet()\l+ Exists()\l+ IsFile()\land 14 more...\l+ IsAbsolutePath()\l+ ReplaceSpacesWithUnderscores()\l+ ReplaceUnderscoresWithSpaces()\l+ FakePath()\l+ StopFaking()\l&#45; PrivateRemove()\l}">
<polygon fill="white" stroke="black" points="855,-314.5 855,-547.5 1031,-547.5 1031,-314.5 855,-314.5"/>
<text text-anchor="middle" x="943" y="-535.5" font-family="Helvetica,sans-Serif" font-size="10.00">FileFinder</text>
<polyline fill="none" stroke="black" points="855,-528.5 1031,-528.5 "/>
<text text-anchor="middle" x="943" y="-516.5" font-family="Helvetica,sans-Serif" font-size="10.00"> </text>
<polyline fill="none" stroke="black" points="855,-509.5 1031,-509.5 "/>
<text text-anchor="start" x="863" y="-497.5" font-family="Helvetica,sans-Serif" font-size="10.00">+ FileFinder()</text>
<text text-anchor="start" x="863" y="-486.5" font-family="Helvetica,sans-Serif" font-size="10.00">+ FileFinder()</text>
<text text-anchor="start" x="863" y="-475.5" font-family="Helvetica,sans-Serif" font-size="10.00">+ FileFinder()</text>
<text text-anchor="start" x="863" y="-464.5" font-family="Helvetica,sans-Serif" font-size="10.00">+ FileFinder()</text>
<text text-anchor="start" x="863" y="-453.5" font-family="Helvetica,sans-Serif" font-size="10.00">+ ~FileFinder()</text>
<text text-anchor="start" x="863" y="-442.5" font-family="Helvetica,sans-Serif" font-size="10.00">+ SetPath()</text>
<text text-anchor="start" x="863" y="-431.5" font-family="Helvetica,sans-Serif" font-size="10.00">+ SetPath()</text>
<text text-anchor="start" x="863" y="-420.5" font-family="Helvetica,sans-Serif" font-size="10.00">+ IsPathSet()</text>
<text text-anchor="start" x="863" y="-409.5" font-family="Helvetica,sans-Serif" font-size="10.00">+ Exists()</text>
<text text-anchor="start" x="863" y="-398.5" font-family="Helvetica,sans-Serif" font-size="10.00">+ IsFile()</text>
<text text-anchor="start" x="863" y="-387.5" font-family="Helvetica,sans-Serif" font-size="10.00">and 14 more...</text>
<text text-anchor="start" x="863" y="-376.5" font-family="Helvetica,sans-Serif" font-size="10.00">+ IsAbsolutePath()</text>
<text text-anchor="start" x="863" y="-365.5" font-family="Helvetica,sans-Serif" font-size="10.00">+ ReplaceSpacesWithUnderscores()</text>
<text text-anchor="start" x="863" y="-354.5" font-family="Helvetica,sans-Serif" font-size="10.00">+ ReplaceUnderscoresWithSpaces()</text>
<text text-anchor="start" x="863" y="-343.5" font-family="Helvetica,sans-Serif" font-size="10.00">+ FakePath()</text>
<text text-anchor="start" x="863" y="-332.5" font-family="Helvetica,sans-Serif" font-size="10.00">+ StopFaking()</text>
<text text-anchor="start" x="863" y="-321.5" font-family="Helvetica,sans-Serif" font-size="10.00">&#45; PrivateRemove()</text>
</a>
</g>
</g>
<!-- Node8&#45;&gt;Node9 -->
<g id="edge11" class="edge"><title>Node8&#45;&gt;Node9</title>
<path fill="none" stroke="#404040" d="M735.581,-611.338C752.867,-599.115 780.193,-580.396 805,-566 820.472,-557.021 826.831,-558.919 841,-548 842.46,-546.875 843.916,-545.726 845.366,-544.556"/>
<polygon fill="none" stroke="#404040" points="845.676,-544.294 847.679,-537.366 854.844,-536.55 852.841,-543.478 845.676,-544.294"/>
<text text-anchor="middle" x="829.5" y="-569.5" font-family="Helvetica,sans-Serif" font-size="10.00"> &#45;msFaking</text>
</g>
<!-- Node9&#45;&gt;Node2 -->
<g id="edge8" class="edge"><title>Node9&#45;&gt;Node2</title>
<path fill="none" stroke="#404040" d="M854.712,-324.94C850.216,-321.094 845.638,-317.426 841,-314 785.442,-272.963 714.394,-241.188 657.769,-219.812"/>
<polygon fill="none" stroke="#404040" points="657.529,-219.723 650.511,-221.383 646.28,-215.543 653.298,-213.884 657.529,-219.723"/>
<text text-anchor="middle" x="865" y="-287.5" font-family="Helvetica,sans-Serif" font-size="10.00"> #mFibreOrientationFile</text>
</g>
<!-- Node10 -->
<g id="node10" class="node"><title>Node10</title>
<polygon fill="white" stroke="#bfbfbf" points="879.5,-596.5 879.5,-653.5 920.5,-653.5 920.5,-596.5 879.5,-596.5"/>
<text text-anchor="middle" x="900" y="-641.5" font-family="Helvetica,sans-Serif" font-size="10.00">string</text>
<polyline fill="none" stroke="#bfbfbf" points="879.5,-634.5 920.5,-634.5 "/>
<text text-anchor="middle" x="900" y="-622.5" font-family="Helvetica,sans-Serif" font-size="10.00"> </text>
<polyline fill="none" stroke="#bfbfbf" points="879.5,-615.5 920.5,-615.5 "/>
<text text-anchor="middle" x="900" y="-603.5" font-family="Helvetica,sans-Serif" font-size="10.00"> </text>
</g>
<!-- Node10&#45;&gt;Node9 -->
<g id="edge9" class="edge"><title>Node10&#45;&gt;Node9</title>
<path fill="none" stroke="#404040" d="M879.436,-609.286C866.939,-598.382 854.23,-582.592 859,-566 859.654,-563.724 860.36,-561.449 861.113,-559.178"/>
<polygon fill="none" stroke="#404040" points="861.128,-559.137 859.432,-552.128 865.249,-547.867 866.945,-554.875 861.128,-559.137"/>
<text text-anchor="middle" x="890" y="-569.5" font-family="Helvetica,sans-Serif" font-size="10.00"> &#45;msFakePath</text>
</g>
<!-- Node10&#45;&gt;Node9 -->
<g id="edge12" class="edge"><title>Node10&#45;&gt;Node9</title>
<path fill="none" stroke="#404040" d="M914.16,-596.259C916.75,-590.348 919.199,-584.059 921,-578 922.758,-572.086 924.38,-565.993 925.876,-559.807"/>
<polygon fill="none" stroke="#404040" points="925.94,-559.522 923.369,-552.785 928.599,-547.82 931.17,-554.558 925.94,-559.522"/>
<text text-anchor="middle" x="951" y="-569.5" font-family="Helvetica,sans-Serif" font-size="10.00"> &#45;mAbsPath</text>
</g>
<!-- Node11 -->
<g id="node11" class="node"><title>Node11</title>
<polygon fill="white" stroke="#bfbfbf" points="997.5,-596.5 997.5,-653.5 1038.5,-653.5 1038.5,-596.5 997.5,-596.5"/>
<text text-anchor="middle" x="1018" y="-641.5" font-family="Helvetica,sans-Serif" font-size="10.00">Value</text>
<polyline fill="none" stroke="#bfbfbf" points="997.5,-634.5 1038.5,-634.5 "/>
<text text-anchor="middle" x="1018" y="-622.5" font-family="Helvetica,sans-Serif" font-size="10.00"> </text>
<polyline fill="none" stroke="#bfbfbf" points="997.5,-615.5 1038.5,-615.5 "/>
<text text-anchor="middle" x="1018" y="-603.5" font-family="Helvetica,sans-Serif" font-size="10.00"> </text>
</g>
<!-- Node11&#45;&gt;Node9 -->
<g id="edge10" class="edge"><title>Node11&#45;&gt;Node9</title>
<path fill="none" stroke="#404040" d="M1007.25,-596.491C1003.1,-585.855 998.03,-572.878 992.58,-558.925"/>
<polygon fill="none" stroke="#404040" points="992.504,-558.729 986.595,-554.596 988.137,-547.552 994.046,-551.685 992.504,-558.729"/>
<text text-anchor="middle" x="1032.5" y="-569.5" font-family="Helvetica,sans-Serif" font-size="10.00"> &#45;msFakeWhat</text>
</g>
<!-- Node12 -->
<g id="node12" class="node"><title>Node12</title>
<polygon fill="white" stroke="#bfbfbf" points="1049.5,-397 1049.5,-465 1180.5,-465 1180.5,-397 1049.5,-397"/>
<text text-anchor="start" x="1057.5" y="-453" font-family="Helvetica,sans-Serif" font-size="10.00">vector&lt; c_vector&lt; double,</text>
<text text-anchor="middle" x="1115" y="-442" font-family="Helvetica,sans-Serif" font-size="10.00"> SPACE_DIM &gt; &gt; *</text>
<polyline fill="none" stroke="#bfbfbf" points="1049.5,-435 1180.5,-435 "/>
<text text-anchor="middle" x="1115" y="-423" font-family="Helvetica,sans-Serif" font-size="10.00"> </text>
<polyline fill="none" stroke="#bfbfbf" points="1049.5,-416 1180.5,-416 "/>
<text text-anchor="middle" x="1115" y="-404" font-family="Helvetica,sans-Serif" font-size="10.00"> </text>
</g>
<!-- Node12&#45;&gt;Node2 -->
<g id="edge13" class="edge"><title>Node12&#45;&gt;Node2</title>
<path fill="none" stroke="#404040" d="M1101.4,-396.869C1088.94,-370.584 1068.01,-334.898 1039,-314 924.963,-231.851 761.215,-203.242 658.026,-193.291"/>
<polygon fill="none" stroke="#404040" points="658.01,-193.29 651.67,-196.726 646.06,-192.195 652.4,-188.759 658.01,-193.29"/>
<text text-anchor="middle" x="1077" y="-287.5" font-family="Helvetica,sans-Serif" font-size="10.00"> #mpNonConstantConductivities</text>
</g>
</g>
</svg>
