<?xml version="1.0" encoding="UTF-8" standalone="no"?>
<!DOCTYPE svg PUBLIC "-//W3C//DTD SVG 1.1//EN"
 "http://www.w3.org/Graphics/SVG/1.1/DTD/svg11.dtd">
<!-- Generated by graphviz version 2.36.0 (20140111.2315)
 -->
<!-- Title: ParallelColumnDataWriter Pages: 1 -->
<svg width="1593pt" height="858pt"
 viewBox="0.00 0.00 1593.00 858.00" xmlns="http://www.w3.org/2000/svg" xmlns:xlink="http://www.w3.org/1999/xlink">
<g id="graph0" class="graph" transform="scale(1 1) rotate(0) translate(4 854)">
<title>ParallelColumnDataWriter</title>
<polygon fill="white" stroke="none" points="-4,4 -4,-854 1589,-854 1589,4 -4,4"/>
<!-- Node1 -->
<g id="node1" class="node"><title>Node1</title>
<polygon fill="#bfbfbf" stroke="black" points="1340,-1 1340,-135 1522,-135 1522,-1 1340,-1"/>
<text text-anchor="middle" x="1431" y="-123" font-family="Helvetica,sans-Serif" font-size="10.00">ParallelColumnDataWriter</text>
<polyline fill="none" stroke="black" points="1340,-116 1522,-116 "/>
<text text-anchor="middle" x="1431" y="-104" font-family="Helvetica,sans-Serif" font-size="10.00"> </text>
<polyline fill="none" stroke="black" points="1340,-97 1522,-97 "/>
<text text-anchor="start" x="1348" y="-85" font-family="Helvetica,sans-Serif" font-size="10.00">+ ParallelColumnDataWriter()</text>
<text text-anchor="start" x="1348" y="-74" font-family="Helvetica,sans-Serif" font-size="10.00">+ ~ParallelColumnDataWriter()</text>
<text text-anchor="start" x="1348" y="-63" font-family="Helvetica,sans-Serif" font-size="10.00">+ PutVector()</text>
<text text-anchor="start" x="1348" y="-52" font-family="Helvetica,sans-Serif" font-size="10.00">+ PutVectorStripe()</text>
<text text-anchor="start" x="1348" y="-41" font-family="Helvetica,sans-Serif" font-size="10.00">+ PutVariable()</text>
<text text-anchor="start" x="1348" y="-30" font-family="Helvetica,sans-Serif" font-size="10.00">+ EndDefineMode()</text>
<text text-anchor="start" x="1348" y="-19" font-family="Helvetica,sans-Serif" font-size="10.00">+ AdvanceAlongUnlimitedDimension()</text>
<text text-anchor="start" x="1348" y="-8" font-family="Helvetica,sans-Serif" font-size="10.00">+ Close()</text>
</g>
<!-- Node2 -->
<g id="node2" class="node"><title>Node2</title>
<g id="a_node2"><a xlink:href="classColumnDataWriter.html" target="_top" xlink:title="{ColumnDataWriter\n||+ ColumnDataWriter()\l+ ~ColumnDataWriter()\l+ DefineUnlimitedDimension()\l+ DefineFixedDimension()\l+ DefineVariable()\l+ SetCommentForInfoFile()\l+ EndDefineMode()\l+ AdvanceAlongUnlimitedDimension()\l+ PutVariable()\l+ Close()\l+ GetOutputDirectory()\l# CreateFixedDimensionFile()\l# CreateInfoFile()\l# CheckVariableName()\l# CheckUnitsName()\l# DoAdvanceAlongUnlimitedDimension()\l}">
<polygon fill="white" stroke="black" points="750,-185 750,-407 944,-407 944,-185 750,-185"/>
<text text-anchor="middle" x="847" y="-395" font-family="Helvetica,sans-Serif" font-size="10.00">ColumnDataWriter</text>
<polyline fill="none" stroke="black" points="750,-388 944,-388 "/>
<text text-anchor="middle" x="847" y="-376" font-family="Helvetica,sans-Serif" font-size="10.00"> </text>
<polyline fill="none" stroke="black" points="750,-369 944,-369 "/>
<text text-anchor="start" x="758" y="-357" font-family="Helvetica,sans-Serif" font-size="10.00">+ ColumnDataWriter()</text>
<text text-anchor="start" x="758" y="-346" font-family="Helvetica,sans-Serif" font-size="10.00">+ ~ColumnDataWriter()</text>
<text text-anchor="start" x="758" y="-335" font-family="Helvetica,sans-Serif" font-size="10.00">+ DefineUnlimitedDimension()</text>
<text text-anchor="start" x="758" y="-324" font-family="Helvetica,sans-Serif" font-size="10.00">+ DefineFixedDimension()</text>
<text text-anchor="start" x="758" y="-313" font-family="Helvetica,sans-Serif" font-size="10.00">+ DefineVariable()</text>
<text text-anchor="start" x="758" y="-302" font-family="Helvetica,sans-Serif" font-size="10.00">+ SetCommentForInfoFile()</text>
<text text-anchor="start" x="758" y="-291" font-family="Helvetica,sans-Serif" font-size="10.00">+ EndDefineMode()</text>
<text text-anchor="start" x="758" y="-280" font-family="Helvetica,sans-Serif" font-size="10.00">+ AdvanceAlongUnlimitedDimension()</text>
<text text-anchor="start" x="758" y="-269" font-family="Helvetica,sans-Serif" font-size="10.00">+ PutVariable()</text>
<text text-anchor="start" x="758" y="-258" font-family="Helvetica,sans-Serif" font-size="10.00">+ Close()</text>
<text text-anchor="start" x="758" y="-247" font-family="Helvetica,sans-Serif" font-size="10.00">+ GetOutputDirectory()</text>
<text text-anchor="start" x="758" y="-236" font-family="Helvetica,sans-Serif" font-size="10.00"># CreateFixedDimensionFile()</text>
<text text-anchor="start" x="758" y="-225" font-family="Helvetica,sans-Serif" font-size="10.00"># CreateInfoFile()</text>
<text text-anchor="start" x="758" y="-214" font-family="Helvetica,sans-Serif" font-size="10.00"># CheckVariableName()</text>
<text text-anchor="start" x="758" y="-203" font-family="Helvetica,sans-Serif" font-size="10.00"># CheckUnitsName()</text>
<text text-anchor="start" x="758" y="-192" font-family="Helvetica,sans-Serif" font-size="10.00"># DoAdvanceAlongUnlimitedDimension()</text>
</a>
</g>
</g>
<!-- Node2&#45;&gt;Node1 -->
<g id="edge1" class="edge"><title>Node2&#45;&gt;Node1</title>
<path fill="none" stroke="midnightblue" d="M953.607,-253.744C1064.24,-210.931 1235.42,-144.687 1339.93,-104.242"/>
<polygon fill="none" stroke="midnightblue" points="952.154,-250.554 944.091,-257.427 954.681,-257.082 952.154,-250.554"/>
</g>
<!-- Node3 -->
<g id="node3" class="node"><title>Node3</title>
<g id="a_node3"><a xlink:href="classAbstractDataWriter.html" target="_top" xlink:title="{AbstractDataWriter\n||+ DefineFixedDimension()\l+ DefineUnlimitedDimension()\l+ DefineVariable()\l+ EndDefineMode()\l+ AdvanceAlongUnlimitedDimension()\l+ PutVariable()\l+ Close()\l+ ~AbstractDataWriter()\l}">
<polygon fill="white" stroke="black" points="629,-572 629,-706 811,-706 811,-572 629,-572"/>
<text text-anchor="middle" x="720" y="-694" font-family="Helvetica,sans-Serif" font-size="10.00">AbstractDataWriter</text>
<polyline fill="none" stroke="black" points="629,-687 811,-687 "/>
<text text-anchor="middle" x="720" y="-675" font-family="Helvetica,sans-Serif" font-size="10.00"> </text>
<polyline fill="none" stroke="black" points="629,-668 811,-668 "/>
<text text-anchor="start" x="637" y="-656" font-family="Helvetica,sans-Serif" font-size="10.00">+ DefineFixedDimension()</text>
<text text-anchor="start" x="637" y="-645" font-family="Helvetica,sans-Serif" font-size="10.00">+ DefineUnlimitedDimension()</text>
<text text-anchor="start" x="637" y="-634" font-family="Helvetica,sans-Serif" font-size="10.00">+ DefineVariable()</text>
<text text-anchor="start" x="637" y="-623" font-family="Helvetica,sans-Serif" font-size="10.00">+ EndDefineMode()</text>
<text text-anchor="start" x="637" y="-612" font-family="Helvetica,sans-Serif" font-size="10.00">+ AdvanceAlongUnlimitedDimension()</text>
<text text-anchor="start" x="637" y="-601" font-family="Helvetica,sans-Serif" font-size="10.00">+ PutVariable()</text>
<text text-anchor="start" x="637" y="-590" font-family="Helvetica,sans-Serif" font-size="10.00">+ Close()</text>
<text text-anchor="start" x="637" y="-579" font-family="Helvetica,sans-Serif" font-size="10.00">+ ~AbstractDataWriter()</text>
</a>
</g>
</g>
<!-- Node3&#45;&gt;Node2 -->
<g id="edge2" class="edge"><title>Node3&#45;&gt;Node2</title>
<path fill="none" stroke="midnightblue" d="M748.181,-562.332C765.154,-516.761 787.062,-457.935 805.936,-407.258"/>
<polygon fill="none" stroke="midnightblue" points="744.848,-561.255 744.637,-571.847 751.408,-563.698 744.848,-561.255"/>
</g>
<!-- Node4 -->
<g id="node4" class="node"><title>Node4</title>
<polygon fill="white" stroke="#bfbfbf" points="0,-610.5 0,-667.5 144,-667.5 144,-610.5 0,-610.5"/>
<text text-anchor="middle" x="72" y="-655.5" font-family="Helvetica,sans-Serif" font-size="10.00">vector&lt; DataWriterVariable &gt;</text>
<polyline fill="none" stroke="#bfbfbf" points="0,-648.5 144,-648.5 "/>
<text text-anchor="middle" x="72" y="-636.5" font-family="Helvetica,sans-Serif" font-size="10.00"> </text>
<polyline fill="none" stroke="#bfbfbf" points="0,-629.5 144,-629.5 "/>
<text text-anchor="middle" x="72" y="-617.5" font-family="Helvetica,sans-Serif" font-size="10.00"> </text>
</g>
<!-- Node4&#45;&gt;Node2 -->
<g id="edge3" class="edge"><title>Node4&#45;&gt;Node2</title>
<path fill="none" stroke="#404040" d="M67.615,-610.155C62.2061,-564.827 59.013,-475.213 108,-426 194.548,-339.052 553.927,-310.214 737.708,-301.047"/>
<polygon fill="none" stroke="#404040" points="737.838,-301.04 743.637,-296.754 749.824,-300.458 744.025,-304.745 737.838,-301.04"/>
<text text-anchor="middle" x="137" y="-473.5" font-family="Helvetica,sans-Serif" font-size="10.00"> #mVariables</text>
</g>
<!-- Node5 -->
<g id="node5" class="node"><title>Node5</title>
<g id="a_node5"><a xlink:href="classOutputFileHandler.html" target="_top" xlink:title="{OutputFileHandler\n||+ OutputFileHandler()\l+ OutputFileHandler()\l+ GetOutputDirectoryFullPath()\l+ GetRelativePath()\l+ SetArchiveDirectory()\l+ OpenOutputFile()\l+ OpenOutputFile()\l+ CopyFileTo()\l+ FindFile()\l+ GetChasteTestOutputDirectory()\l&#45; CommonConstructor()\l&#45; MakeFoldersAndReturnFullPath()\l&#45; AddTrailingSlash()\l}">
<polygon fill="white" stroke="black" points="326.5,-544.5 326.5,-733.5 493.5,-733.5 493.5,-544.5 326.5,-544.5"/>
<text text-anchor="middle" x="410" y="-721.5" font-family="Helvetica,sans-Serif" font-size="10.00">OutputFileHandler</text>
<polyline fill="none" stroke="black" points="326.5,-714.5 493.5,-714.5 "/>
<text text-anchor="middle" x="410" y="-702.5" font-family="Helvetica,sans-Serif" font-size="10.00"> </text>
<polyline fill="none" stroke="black" points="326.5,-695.5 493.5,-695.5 "/>
<text text-anchor="start" x="334.5" y="-683.5" font-family="Helvetica,sans-Serif" font-size="10.00">+ OutputFileHandler()</text>
<text text-anchor="start" x="334.5" y="-672.5" font-family="Helvetica,sans-Serif" font-size="10.00">+ OutputFileHandler()</text>
<text text-anchor="start" x="334.5" y="-661.5" font-family="Helvetica,sans-Serif" font-size="10.00">+ GetOutputDirectoryFullPath()</text>
<text text-anchor="start" x="334.5" y="-650.5" font-family="Helvetica,sans-Serif" font-size="10.00">+ GetRelativePath()</text>
<text text-anchor="start" x="334.5" y="-639.5" font-family="Helvetica,sans-Serif" font-size="10.00">+ SetArchiveDirectory()</text>
<text text-anchor="start" x="334.5" y="-628.5" font-family="Helvetica,sans-Serif" font-size="10.00">+ OpenOutputFile()</text>
<text text-anchor="start" x="334.5" y="-617.5" font-family="Helvetica,sans-Serif" font-size="10.00">+ OpenOutputFile()</text>
<text text-anchor="start" x="334.5" y="-606.5" font-family="Helvetica,sans-Serif" font-size="10.00">+ CopyFileTo()</text>
<text text-anchor="start" x="334.5" y="-595.5" font-family="Helvetica,sans-Serif" font-size="10.00">+ FindFile()</text>
<text text-anchor="start" x="334.5" y="-584.5" font-family="Helvetica,sans-Serif" font-size="10.00">+ GetChasteTestOutputDirectory()</text>
<text text-anchor="start" x="334.5" y="-573.5" font-family="Helvetica,sans-Serif" font-size="10.00">&#45; CommonConstructor()</text>
<text text-anchor="start" x="334.5" y="-562.5" font-family="Helvetica,sans-Serif" font-size="10.00">&#45; MakeFoldersAndReturnFullPath()</text>
<text text-anchor="start" x="334.5" y="-551.5" font-family="Helvetica,sans-Serif" font-size="10.00">&#45; AddTrailingSlash()</text>
</a>
</g>
</g>
<!-- Node5&#45;&gt;Node2 -->
<g id="edge4" class="edge"><title>Node5&#45;&gt;Node2</title>
<path fill="none" stroke="#404040" d="M420.069,-544.363C428.866,-503.473 445.307,-457.718 476,-426 545.041,-354.655 655.546,-322.737 738.024,-308.475"/>
<polygon fill="none" stroke="#404040" points="738.142,-308.456 743.408,-303.53 749.981,-306.497 744.714,-311.423 738.142,-308.456"/>
<text text-anchor="middle" x="524" y="-473.5" font-family="Helvetica,sans-Serif" font-size="10.00"> #mOutputFileHandler</text>
</g>
<!-- Node6 -->
<g id="node6" class="node"><title>Node6</title>
<polygon fill="white" stroke="#bfbfbf" points="351.5,-792.5 351.5,-849.5 392.5,-849.5 392.5,-792.5 351.5,-792.5"/>
<text text-anchor="middle" x="372" y="-837.5" font-family="Helvetica,sans-Serif" font-size="10.00">string</text>
<polyline fill="none" stroke="#bfbfbf" points="351.5,-830.5 392.5,-830.5 "/>
<text text-anchor="middle" x="372" y="-818.5" font-family="Helvetica,sans-Serif" font-size="10.00"> </text>
<polyline fill="none" stroke="#bfbfbf" points="351.5,-811.5 392.5,-811.5 "/>
<text text-anchor="middle" x="372" y="-799.5" font-family="Helvetica,sans-Serif" font-size="10.00"> </text>
</g>
<!-- Node6&#45;&gt;Node2 -->
<g id="edge9" class="edge"><title>Node6&#45;&gt;Node2</title>
<path fill="none" stroke="#404040" d="M351.421,-817.427C311.776,-811.235 225.506,-791.491 189,-734 143.734,-662.713 144.852,-615.985 189,-544 303.749,-356.898 582.108,-310.782 737.501,-299.9"/>
<polygon fill="none" stroke="#404040" points="737.876,-299.876 743.601,-295.492 749.85,-299.092 744.124,-303.475 737.876,-299.876"/>
<text text-anchor="middle" x="253" y="-675" font-family="Helvetica,sans-Serif" font-size="10.00"> #mDirectory</text>
<text text-anchor="middle" x="253" y="-664" font-family="Helvetica,sans-Serif" font-size="10.00">#mUnlimitedDimensionName</text>
<text text-anchor="middle" x="253" y="-653" font-family="Helvetica,sans-Serif" font-size="10.00">#mFixedDimensionName</text>
<text text-anchor="middle" x="253" y="-642" font-family="Helvetica,sans-Serif" font-size="10.00">#mUnlimitedDimensionUnits</text>
<text text-anchor="middle" x="253" y="-631" font-family="Helvetica,sans-Serif" font-size="10.00">#mFixedDimensionUnits</text>
<text text-anchor="middle" x="253" y="-620" font-family="Helvetica,sans-Serif" font-size="10.00">#mFileExtension</text>
<text text-anchor="middle" x="253" y="-609" font-family="Helvetica,sans-Serif" font-size="10.00">#mCommentForInfoFile</text>
<text text-anchor="middle" x="253" y="-598" font-family="Helvetica,sans-Serif" font-size="10.00">#mBaseName</text>
</g>
<!-- Node6&#45;&gt;Node5 -->
<g id="edge5" class="edge"><title>Node6&#45;&gt;Node5</title>
<path fill="none" stroke="#404040" d="M392.661,-797.713C398.007,-790.639 403.077,-782.446 406,-774 409.139,-764.931 411.37,-755.307 412.905,-745.542"/>
<polygon fill="none" stroke="#404040" points="412.911,-745.49 409.711,-739.028 414.446,-733.588 417.646,-740.051 412.911,-745.49"/>
<text text-anchor="middle" x="439.5" y="-760.5" font-family="Helvetica,sans-Serif" font-size="10.00"> &#45;mDirectory</text>
</g>
<!-- Node6&#45;&gt;Node5 -->
<g id="edge6" class="edge"><title>Node6&#45;&gt;Node5</title>
<path fill="none" stroke="#404040" d="M351.31,-809.868C337.968,-802.088 321.717,-789.969 314,-774 309.746,-765.196 310.608,-761.17 314,-752 315.875,-746.932 318.093,-741.938 320.585,-737.041"/>
<polygon fill="none" stroke="#404040" points="320.623,-736.973 320.04,-729.785 326.451,-726.483 327.033,-733.671 320.623,-736.973"/>
<text text-anchor="middle" x="358" y="-760.5" font-family="Helvetica,sans-Serif" font-size="10.00"> +SIG_FILE_NAME</text>
</g>
<!-- Node9 -->
<g id="node9" class="node"><title>Node9</title>
<g id="a_node9"><a xlink:href="structDataWriterVariable.html" target="_top" xlink:title="{DataWriterVariable\n||}">
<polygon fill="white" stroke="black" points="511.5,-610.5 511.5,-667.5 610.5,-667.5 610.5,-610.5 511.5,-610.5"/>
<text text-anchor="middle" x="561" y="-655.5" font-family="Helvetica,sans-Serif" font-size="10.00">DataWriterVariable</text>
<polyline fill="none" stroke="black" points="511.5,-648.5 610.5,-648.5 "/>
<text text-anchor="middle" x="561" y="-636.5" font-family="Helvetica,sans-Serif" font-size="10.00"> </text>
<polyline fill="none" stroke="black" points="511.5,-629.5 610.5,-629.5 "/>
<text text-anchor="middle" x="561" y="-617.5" font-family="Helvetica,sans-Serif" font-size="10.00"> </text>
</a>
</g>
</g>
<!-- Node6&#45;&gt;Node9 -->
<g id="edge12" class="edge"><title>Node6&#45;&gt;Node9</title>
<path fill="none" stroke="#404040" d="M392.532,-813.692C413.728,-806.479 446.996,-793.143 471,-774 503.153,-748.358 528.018,-708.08 543.385,-678.372"/>
<polygon fill="none" stroke="#404040" points="543.428,-678.285 542.54,-671.129 548.804,-667.557 549.692,-674.713 543.428,-678.285"/>
<text text-anchor="middle" x="532" y="-766" font-family="Helvetica,sans-Serif" font-size="10.00"> +mVariableUnits</text>
<text text-anchor="middle" x="532" y="-755" font-family="Helvetica,sans-Serif" font-size="10.00">+mVariableName</text>
</g>
<!-- Node7 -->
<g id="node7" class="node"><title>Node7</title>
<polygon fill="white" stroke="#bfbfbf" points="1010.5,-610.5 1010.5,-667.5 1039.5,-667.5 1039.5,-610.5 1010.5,-610.5"/>
<text text-anchor="middle" x="1025" y="-655.5" font-family="Helvetica,sans-Serif" font-size="10.00">int</text>
<polyline fill="none" stroke="#bfbfbf" points="1010.5,-648.5 1039.5,-648.5 "/>
<text text-anchor="middle" x="1025" y="-636.5" font-family="Helvetica,sans-Serif" font-size="10.00"> </text>
<polyline fill="none" stroke="#bfbfbf" points="1010.5,-629.5 1039.5,-629.5 "/>
<text text-anchor="middle" x="1025" y="-617.5" font-family="Helvetica,sans-Serif" font-size="10.00"> </text>
</g>
<!-- Node7&#45;&gt;Node2 -->
<g id="edge7" class="edge"><title>Node7&#45;&gt;Node2</title>
<path fill="none" stroke="#404040" d="M1024.03,-610.323C1021.73,-588.985 1014.98,-560.429 996,-544 956.882,-510.145 917.437,-562.725 881,-526 872.745,-517.679 864.953,-469.396 858.917,-419.295"/>
<polygon fill="none" stroke="#404040" points="858.9,-419.148 854.227,-413.656 857.5,-407.23 862.173,-412.723 858.9,-419.148"/>
<text text-anchor="middle" x="946.5" y="-517.5" font-family="Helvetica,sans-Serif" font-size="10.00"> #mAncillaryRowStartPosition</text>
<text text-anchor="middle" x="946.5" y="-506.5" font-family="Helvetica,sans-Serif" font-size="10.00">#mAncillaryRowWidth</text>
<text text-anchor="middle" x="946.5" y="-495.5" font-family="Helvetica,sans-Serif" font-size="10.00">#mRowWidth</text>
<text text-anchor="middle" x="946.5" y="-484.5" font-family="Helvetica,sans-Serif" font-size="10.00">#mRowStartPosition</text>
<text text-anchor="start" x="881" y="-473.5" font-family="Helvetica,sans-Serif" font-size="10.00">#UNLIMITED_DIMENSION</text>
<text text-anchor="middle" x="946.5" y="-462.5" font-family="Helvetica,sans-Serif" font-size="10.00">_VAR_ID</text>
<text text-anchor="start" x="881" y="-451.5" font-family="Helvetica,sans-Serif" font-size="10.00">#FIXED_DIMENSION_VAR</text>
<text text-anchor="middle" x="946.5" y="-440.5" font-family="Helvetica,sans-Serif" font-size="10.00">_ID</text>
<text text-anchor="middle" x="946.5" y="-429.5" font-family="Helvetica,sans-Serif" font-size="10.00">#SPACING</text>
</g>
<!-- Node8 -->
<g id="node8" class="node"><title>Node8</title>
<g id="a_node8"><a xlink:href="classbool.html" target="_top" xlink:title="{bool\n||}">
<polygon fill="white" stroke="black" points="829.5,-792.5 829.5,-849.5 864.5,-849.5 864.5,-792.5 829.5,-792.5"/>
<text text-anchor="middle" x="847" y="-837.5" font-family="Helvetica,sans-Serif" font-size="10.00">bool</text>
<polyline fill="none" stroke="black" points="829.5,-830.5 864.5,-830.5 "/>
<text text-anchor="middle" x="847" y="-818.5" font-family="Helvetica,sans-Serif" font-size="10.00"> </text>
<polyline fill="none" stroke="black" points="829.5,-811.5 864.5,-811.5 "/>
<text text-anchor="middle" x="847" y="-799.5" font-family="Helvetica,sans-Serif" font-size="10.00"> </text>
</a>
</g>
</g>
<!-- Node8&#45;&gt;Node1 -->
<g id="edge17" class="edge"><title>Node8&#45;&gt;Node1</title>
<path fill="none" stroke="#404040" d="M864.527,-819.87C947.556,-818.867 1300.22,-810.121 1371,-734 1390.74,-712.767 1416.28,-318.456 1426.49,-147.251"/>
<polygon fill="none" stroke="#404040" points="1426.5,-147.051 1422.86,-140.824 1427.21,-135.072 1430.85,-141.298 1426.5,-147.051"/>
<text text-anchor="middle" x="1435.5" y="-473.5" font-family="Helvetica,sans-Serif" font-size="10.00"> &#45;mIsParallel</text>
</g>
<!-- Node8&#45;&gt;Node2 -->
<g id="edge8" class="edge"><title>Node8&#45;&gt;Node2</title>
<path fill="none" stroke="#404040" d="M847,-792.251C847,-723.581 847,-542.375 847,-419.274"/>
<polygon fill="none" stroke="#404040" points="847,-419.176 843,-413.176 847,-407.176 851,-413.176 847,-419.176"/>
<text text-anchor="start" x="847" y="-664" font-family="Helvetica,sans-Serif" font-size="10.00"> #mNeedAdvanceAlongUnlimited</text>
<text text-anchor="middle" x="919.5" y="-653" font-family="Helvetica,sans-Serif" font-size="10.00">Dimension</text>
<text text-anchor="middle" x="919.5" y="-642" font-family="Helvetica,sans-Serif" font-size="10.00">#mIsFixedDimensionSet</text>
<text text-anchor="middle" x="919.5" y="-631" font-family="Helvetica,sans-Serif" font-size="10.00">#mIsInDefineMode</text>
<text text-anchor="middle" x="919.5" y="-620" font-family="Helvetica,sans-Serif" font-size="10.00">#mIsUnlimitedDimensionSet</text>
<text text-anchor="middle" x="919.5" y="-609" font-family="Helvetica,sans-Serif" font-size="10.00">#mHasPutVariable</text>
</g>
<!-- Node8&#45;&gt;Node9 -->
<g id="edge11" class="edge"><title>Node8&#45;&gt;Node9</title>
<path fill="none" stroke="#404040" d="M829.48,-818.382C787.34,-813.563 679.417,-795.551 620,-734 604.189,-717.622 590.406,-696.339 580.146,-678.168"/>
<polygon fill="none" stroke="#404040" points="580.13,-678.139 573.742,-674.793 574.375,-667.609 580.762,-670.956 580.13,-678.139"/>
<text text-anchor="middle" x="750" y="-766" font-family="Helvetica,sans-Serif" font-size="10.00"> +mVariesWithUnlimitedDimension</text>
<text text-anchor="middle" x="750" y="-755" font-family="Helvetica,sans-Serif" font-size="10.00">+mVariesWithFixedDimension</text>
</g>
<!-- Node9&#45;&gt;Node2 -->
<g id="edge10" class="edge"><title>Node9&#45;&gt;Node2</title>
<path fill="none" stroke="#404040" d="M561.948,-610.271C564.777,-566.683 575.87,-481.402 619,-426 649.648,-386.631 695.896,-357.315 738.748,-336.665"/>
<polygon fill="none" stroke="#404040" points="738.98,-336.556 742.718,-330.39 749.848,-331.468 746.11,-337.635 738.98,-336.556"/>
<text text-anchor="middle" x="690" y="-479" font-family="Helvetica,sans-Serif" font-size="10.00"> #mpFixedDimensionVariable</text>
<text text-anchor="middle" x="690" y="-468" font-family="Helvetica,sans-Serif" font-size="10.00">#mpUnlimitedDimensionVariable</text>
</g>
<!-- Node10 -->
<g id="node10" class="node"><title>Node10</title>
<polygon fill="white" stroke="#bfbfbf" points="1057.5,-610.5 1057.5,-667.5 1092.5,-667.5 1092.5,-610.5 1057.5,-610.5"/>
<text text-anchor="middle" x="1075" y="-655.5" font-family="Helvetica,sans-Serif" font-size="10.00">long</text>
<polyline fill="none" stroke="#bfbfbf" points="1057.5,-648.5 1092.5,-648.5 "/>
<text text-anchor="middle" x="1075" y="-636.5" font-family="Helvetica,sans-Serif" font-size="10.00"> </text>
<polyline fill="none" stroke="#bfbfbf" points="1057.5,-629.5 1092.5,-629.5 "/>
<text text-anchor="middle" x="1075" y="-617.5" font-family="Helvetica,sans-Serif" font-size="10.00"> </text>
</g>
<!-- Node10&#45;&gt;Node2 -->
<g id="edge13" class="edge"><title>Node10&#45;&gt;Node2</title>
<path fill="none" stroke="#404040" d="M1069.7,-610.344C1065.39,-591.114 1058.32,-565.225 1048,-544 1043.68,-535.125 1039.08,-534.987 1035,-526 1016.16,-484.467 1036.48,-464.477 1012,-426 996.885,-402.244 975.816,-381.056 953.779,-363.056"/>
<polygon fill="none" stroke="#404040" points="953.697,-362.991 946.51,-362.4 944.29,-355.539 951.477,-356.13 953.697,-362.991"/>
<text text-anchor="middle" x="1103.5" y="-479" font-family="Helvetica,sans-Serif" font-size="10.00"> #mFixedDimensionSize</text>
<text text-anchor="middle" x="1103.5" y="-468" font-family="Helvetica,sans-Serif" font-size="10.00">#mUnlimitedDimensionPosition</text>
</g>
<!-- Node11 -->
<g id="node11" class="node"><title>Node11</title>
<g id="a_node11"><a xlink:href="classunsigned.html" target="_top" xlink:title="{unsigned\n||}">
<polygon fill="white" stroke="black" points="1150,-610.5 1150,-667.5 1206,-667.5 1206,-610.5 1150,-610.5"/>
<text text-anchor="middle" x="1178" y="-655.5" font-family="Helvetica,sans-Serif" font-size="10.00">unsigned</text>
<polyline fill="none" stroke="black" points="1150,-648.5 1206,-648.5 "/>
<text text-anchor="middle" x="1178" y="-636.5" font-family="Helvetica,sans-Serif" font-size="10.00"> </text>
<polyline fill="none" stroke="black" points="1150,-629.5 1206,-629.5 "/>
<text text-anchor="middle" x="1178" y="-617.5" font-family="Helvetica,sans-Serif" font-size="10.00"> </text>
</a>
</g>
</g>
<!-- Node11&#45;&gt;Node2 -->
<g id="edge14" class="edge"><title>Node11&#45;&gt;Node2</title>
<path fill="none" stroke="#404040" d="M1180.86,-610.305C1185.51,-559.73 1192.27,-454.96 1172,-426 1123.2,-356.273 1030.38,-324.228 956.39,-309.505"/>
<polygon fill="none" stroke="#404040" points="956.01,-309.433 949.371,-312.248 944.218,-307.203 950.857,-304.388 956.01,-309.433"/>
<text text-anchor="middle" x="1216.5" y="-479" font-family="Helvetica,sans-Serif" font-size="10.00"> #mPrecision</text>
<text text-anchor="middle" x="1216.5" y="-468" font-family="Helvetica,sans-Serif" font-size="10.00">#mFieldWidth</text>
</g>
<!-- Node12 -->
<g id="node12" class="node"><title>Node12</title>
<polygon fill="white" stroke="#bfbfbf" points="1224,-610.5 1224,-667.5 1362,-667.5 1362,-610.5 1224,-610.5"/>
<text text-anchor="middle" x="1293" y="-655.5" font-family="Helvetica,sans-Serif" font-size="10.00">shared_ptr&lt; std::ofstream &gt;</text>
<polyline fill="none" stroke="#bfbfbf" points="1224,-648.5 1362,-648.5 "/>
<text text-anchor="middle" x="1293" y="-636.5" font-family="Helvetica,sans-Serif" font-size="10.00"> </text>
<polyline fill="none" stroke="#bfbfbf" points="1224,-629.5 1362,-629.5 "/>
<text text-anchor="middle" x="1293" y="-617.5" font-family="Helvetica,sans-Serif" font-size="10.00"> </text>
</g>
<!-- Node12&#45;&gt;Node2 -->
<g id="edge15" class="edge"><title>Node12&#45;&gt;Node2</title>
<path fill="none" stroke="#404040" d="M1289.12,-610.368C1281.27,-556.104 1263.21,-439.682 1251,-426 1176.63,-342.675 1048.55,-312.804 956.522,-302.296"/>
<polygon fill="none" stroke="#404040" points="956.284,-302.271 949.893,-305.61 944.352,-300.995 950.744,-297.655 956.284,-302.271"/>
<text text-anchor="middle" x="1327.5" y="-479" font-family="Helvetica,sans-Serif" font-size="10.00"> #mpCurrentOutputFile</text>
<text text-anchor="middle" x="1327.5" y="-468" font-family="Helvetica,sans-Serif" font-size="10.00">#mpCurrentAncillaryFile</text>
</g>
<!-- Node13 -->
<g id="node13" class="node"><title>Node13</title>
<polygon fill="white" stroke="#bfbfbf" points="1434.5,-267.5 1434.5,-324.5 1499.5,-324.5 1499.5,-267.5 1434.5,-267.5"/>
<text text-anchor="middle" x="1467" y="-312.5" font-family="Helvetica,sans-Serif" font-size="10.00">VecScatter</text>
<polyline fill="none" stroke="#bfbfbf" points="1434.5,-305.5 1499.5,-305.5 "/>
<text text-anchor="middle" x="1467" y="-293.5" font-family="Helvetica,sans-Serif" font-size="10.00"> </text>
<polyline fill="none" stroke="#bfbfbf" points="1434.5,-286.5 1499.5,-286.5 "/>
<text text-anchor="middle" x="1467" y="-274.5" font-family="Helvetica,sans-Serif" font-size="10.00"> </text>
</g>
<!-- Node13&#45;&gt;Node1 -->
<g id="edge16" class="edge"><title>Node13&#45;&gt;Node1</title>
<path fill="none" stroke="#404040" d="M1462.59,-267.288C1457.85,-237.572 1450.12,-189.042 1443.49,-147.433"/>
<polygon fill="none" stroke="#404040" points="1443.45,-147.188 1438.56,-141.892 1441.57,-135.338 1446.46,-140.634 1443.45,-147.188"/>
<text text-anchor="middle" x="1474" y="-157.5" font-family="Helvetica,sans-Serif" font-size="10.00"> &#45;mToMaster</text>
</g>
<!-- Node14 -->
<g id="node14" class="node"><title>Node14</title>
<g id="a_node14"><a xlink:href="classVec.html" target="_top" xlink:title="{Vec\n||}">
<polygon fill="white" stroke="black" points="1523,-267.5 1523,-324.5 1557,-324.5 1557,-267.5 1523,-267.5"/>
<text text-anchor="middle" x="1540" y="-312.5" font-family="Helvetica,sans-Serif" font-size="10.00">Vec</text>
<polyline fill="none" stroke="black" points="1523,-305.5 1557,-305.5 "/>
<text text-anchor="middle" x="1540" y="-293.5" font-family="Helvetica,sans-Serif" font-size="10.00"> </text>
<polyline fill="none" stroke="black" points="1523,-286.5 1557,-286.5 "/>
<text text-anchor="middle" x="1540" y="-274.5" font-family="Helvetica,sans-Serif" font-size="10.00"> </text>
</a>
</g>
</g>
<!-- Node14&#45;&gt;Node1 -->
<g id="edge18" class="edge"><title>Node14&#45;&gt;Node1</title>
<path fill="none" stroke="#404040" d="M1537.33,-267.382C1533.6,-237.907 1525,-190.522 1506,-154 1504.48,-151.073 1502.83,-148.165 1501.09,-145.286"/>
<polygon fill="none" stroke="#404040" points="1500.93,-145.052 1494.3,-142.216 1494.37,-135.005 1501,-137.842 1500.93,-145.052"/>
<text text-anchor="middle" x="1548.5" y="-157.5" font-family="Helvetica,sans-Serif" font-size="10.00"> &#45;mConcentrated</text>
</g>
</g>
</svg>
