<?xml version="1.0" encoding="UTF-8" standalone="no"?>
<!DOCTYPE svg PUBLIC "-//W3C//DTD SVG 1.1//EN"
 "http://www.w3.org/Graphics/SVG/1.1/DTD/svg11.dtd">
<!-- Generated by graphviz version 2.36.0 (20140111.2315)
 -->
<!-- Title: PopulationTestingForce&lt; ELEMENT_DIM, SPACE_DIM &gt; Pages: 1 -->
<svg width="192pt" height="442pt"
 viewBox="0.00 0.00 192.00 442.00" xmlns="http://www.w3.org/2000/svg" xmlns:xlink="http://www.w3.org/1999/xlink">
<g id="graph0" class="graph" transform="scale(1 1) rotate(0) translate(4 438)">
<title>PopulationTestingForce&lt; ELEMENT_DIM, SPACE_DIM &gt;</title>
<polygon fill="white" stroke="none" points="-4,4 -4,-438 188,-438 188,4 -4,4"/>
<!-- Node1 -->
<g id="node1" class="node"><title>Node1</title>
<polygon fill="#bfbfbf" stroke="black" points="0,-0.5 0,-145.5 184,-145.5 184,-0.5 0,-0.5"/>
<text text-anchor="start" x="8" y="-133.5" font-family="Helvetica,sans-Serif" font-size="10.00">PopulationTestingForce</text>
<text text-anchor="middle" x="92" y="-122.5" font-family="Helvetica,sans-Serif" font-size="10.00">&lt; ELEMENT_DIM, SPACE_DIM &gt;</text>
<polyline fill="none" stroke="black" points="0,-115.5 184,-115.5 "/>
<text text-anchor="start" x="8" y="-103.5" font-family="Helvetica,sans-Serif" font-size="10.00">&#45; mWithPositionDependence</text>
<polyline fill="none" stroke="black" points="0,-96.5 184,-96.5 "/>
<text text-anchor="start" x="8" y="-84.5" font-family="Helvetica,sans-Serif" font-size="10.00">+ PopulationTestingForce()</text>
<text text-anchor="start" x="8" y="-73.5" font-family="Helvetica,sans-Serif" font-size="10.00">+ AddForceContribution()</text>
<text text-anchor="start" x="8" y="-62.5" font-family="Helvetica,sans-Serif" font-size="10.00">+ GetExpectedOneStepLocationFE()</text>
<text text-anchor="start" x="8" y="-51.5" font-family="Helvetica,sans-Serif" font-size="10.00">+ GetExpectedOneStepLocationRK4()</text>
<text text-anchor="start" x="8" y="-40.5" font-family="Helvetica,sans-Serif" font-size="10.00">+ GetExpectedOneStepLocationAM2()</text>
<text text-anchor="start" x="8" y="-29.5" font-family="Helvetica,sans-Serif" font-size="10.00">+ GetExpectedOneStepLocationBE()</text>
<text text-anchor="start" x="8" y="-18.5" font-family="Helvetica,sans-Serif" font-size="10.00">+ OutputForceParameters()</text>
<text text-anchor="start" x="8" y="-7.5" font-family="Helvetica,sans-Serif" font-size="10.00">&#45; serialize()</text>
</g>
<!-- Node2 -->
<g id="node2" class="node"><title>Node2</title>
<g id="a_node2"><a xlink:href="classAbstractForce.html" target="_top" xlink:title="{AbstractForce\&lt; ELEMENT\l_DIM, SPACE_DIM \&gt;\n||+ AbstractForce()\l+ ~AbstractForce()\l+ AddForceContribution()\l+ OutputForceInfo()\l+ OutputForceParameters()\l+ WriteDataToVisualizerSetupFile()\l&#45; serialize()\l}">
<polygon fill="white" stroke="black" points="6.5,-183 6.5,-317 177.5,-317 177.5,-183 6.5,-183"/>
<text text-anchor="start" x="14.5" y="-305" font-family="Helvetica,sans-Serif" font-size="10.00">AbstractForce&lt; ELEMENT</text>
<text text-anchor="middle" x="92" y="-294" font-family="Helvetica,sans-Serif" font-size="10.00">_DIM, SPACE_DIM &gt;</text>
<polyline fill="none" stroke="black" points="6.5,-287 177.5,-287 "/>
<text text-anchor="middle" x="92" y="-275" font-family="Helvetica,sans-Serif" font-size="10.00"> </text>
<polyline fill="none" stroke="black" points="6.5,-268 177.5,-268 "/>
<text text-anchor="start" x="14.5" y="-256" font-family="Helvetica,sans-Serif" font-size="10.00">+ AbstractForce()</text>
<text text-anchor="start" x="14.5" y="-245" font-family="Helvetica,sans-Serif" font-size="10.00">+ ~AbstractForce()</text>
<text text-anchor="start" x="14.5" y="-234" font-family="Helvetica,sans-Serif" font-size="10.00">+ AddForceContribution()</text>
<text text-anchor="start" x="14.5" y="-223" font-family="Helvetica,sans-Serif" font-size="10.00">+ OutputForceInfo()</text>
<text text-anchor="start" x="14.5" y="-212" font-family="Helvetica,sans-Serif" font-size="10.00">+ OutputForceParameters()</text>
<text text-anchor="start" x="14.5" y="-201" font-family="Helvetica,sans-Serif" font-size="10.00">+ WriteDataToVisualizerSetupFile()</text>
<text text-anchor="start" x="14.5" y="-190" font-family="Helvetica,sans-Serif" font-size="10.00">&#45; serialize()</text>
</a>
</g>
</g>
<!-- Node2&#45;&gt;Node1 -->
<g id="edge1" class="edge"><title>Node2&#45;&gt;Node1</title>
<path fill="none" stroke="midnightblue" d="M92,-172.725C92,-163.686 92,-154.484 92,-145.514"/>
<polygon fill="none" stroke="midnightblue" points="88.5001,-172.84 92,-182.84 95.5001,-172.84 88.5001,-172.84"/>
</g>
<!-- Node3 -->
<g id="node3" class="node"><title>Node3</title>
<g id="a_node3"><a xlink:href="classIdentifiable.html" target="_top" xlink:title="{Identifiable\n||+ ~Identifiable()\l+ GetIdentifier()\l&#45; TidyTemplatedExportIdentifier()\l}">
<polygon fill="white" stroke="black" points="12.5,-354.5 12.5,-433.5 171.5,-433.5 171.5,-354.5 12.5,-354.5"/>
<text text-anchor="middle" x="92" y="-421.5" font-family="Helvetica,sans-Serif" font-size="10.00">Identifiable</text>
<polyline fill="none" stroke="black" points="12.5,-414.5 171.5,-414.5 "/>
<text text-anchor="middle" x="92" y="-402.5" font-family="Helvetica,sans-Serif" font-size="10.00"> </text>
<polyline fill="none" stroke="black" points="12.5,-395.5 171.5,-395.5 "/>
<text text-anchor="start" x="20.5" y="-383.5" font-family="Helvetica,sans-Serif" font-size="10.00">+ ~Identifiable()</text>
<text text-anchor="start" x="20.5" y="-372.5" font-family="Helvetica,sans-Serif" font-size="10.00">+ GetIdentifier()</text>
<text text-anchor="start" x="20.5" y="-361.5" font-family="Helvetica,sans-Serif" font-size="10.00">&#45; TidyTemplatedExportIdentifier()</text>
</a>
</g>
</g>
<!-- Node3&#45;&gt;Node2 -->
<g id="edge2" class="edge"><title>Node3&#45;&gt;Node2</title>
<path fill="none" stroke="midnightblue" d="M92,-344.195C92,-335.448 92,-326.201 92,-317.063"/>
<polygon fill="none" stroke="midnightblue" points="88.5001,-344.198 92,-354.198 95.5001,-344.198 88.5001,-344.198"/>
</g>
</g>
</svg>
