<?xml version="1.0" encoding="UTF-8" standalone="no"?>
<!DOCTYPE svg PUBLIC "-//W3C//DTD SVG 1.1//EN"
 "http://www.w3.org/Graphics/SVG/1.1/DTD/svg11.dtd">
<!-- Generated by graphviz version 2.36.0 (20140111.2315)
 -->
<!-- Title: AbstractMeshReader&lt; ELEMENT_DIM, SPACE_DIM &gt;::ElementIterator Pages: 1 -->
<svg width="146pt" height="326pt"
 viewBox="0.00 0.00 146.00 326.00" xmlns="http://www.w3.org/2000/svg" xmlns:xlink="http://www.w3.org/1999/xlink">
<g id="graph0" class="graph" transform="scale(1 1) rotate(0) translate(4 322)">
<title>AbstractMeshReader&lt; ELEMENT_DIM, SPACE_DIM &gt;::ElementIterator</title>
<polygon fill="white" stroke="none" points="-4,4 -4,-322 142,-322 142,4 -4,4"/>
<!-- Node1 -->
<g id="node1" class="node"><title>Node1</title>
<polygon fill="#bfbfbf" stroke="black" points="0.5,-0.5 0.5,-189.5 137.5,-189.5 137.5,-0.5 0.5,-0.5"/>
<text text-anchor="start" x="8.5" y="-177.5" font-family="Helvetica,sans-Serif" font-size="10.00">AbstractMeshReader</text>
<text text-anchor="start" x="8.5" y="-166.5" font-family="Helvetica,sans-Serif" font-size="10.00">&lt; ELEMENT_DIM, SPACE</text>
<text text-anchor="middle" x="69" y="-155.5" font-family="Helvetica,sans-Serif" font-size="10.00">_DIM &gt;::ElementIterator</text>
<polyline fill="none" stroke="black" points="0.5,-148.5 137.5,-148.5 "/>
<text text-anchor="start" x="8.5" y="-136.5" font-family="Helvetica,sans-Serif" font-size="10.00">&#45; mIndex</text>
<text text-anchor="start" x="8.5" y="-125.5" font-family="Helvetica,sans-Serif" font-size="10.00">&#45; mpIndices</text>
<text text-anchor="start" x="8.5" y="-114.5" font-family="Helvetica,sans-Serif" font-size="10.00">&#45; mIndicesIterator</text>
<text text-anchor="start" x="8.5" y="-103.5" font-family="Helvetica,sans-Serif" font-size="10.00">&#45; mpReader</text>
<text text-anchor="start" x="8.5" y="-92.5" font-family="Helvetica,sans-Serif" font-size="10.00">&#45; mLastDataRead</text>
<polyline fill="none" stroke="black" points="0.5,-85.5 137.5,-85.5 "/>
<text text-anchor="start" x="8.5" y="-73.5" font-family="Helvetica,sans-Serif" font-size="10.00">+ ElementIterator()</text>
<text text-anchor="start" x="8.5" y="-62.5" font-family="Helvetica,sans-Serif" font-size="10.00">+ ElementIterator()</text>
<text text-anchor="start" x="8.5" y="-51.5" font-family="Helvetica,sans-Serif" font-size="10.00">+ GetIndex()</text>
<text text-anchor="start" x="8.5" y="-40.5" font-family="Helvetica,sans-Serif" font-size="10.00">&#45; CacheData()</text>
<text text-anchor="start" x="8.5" y="-29.5" font-family="Helvetica,sans-Serif" font-size="10.00">&#45; increment()</text>
<text text-anchor="start" x="8.5" y="-18.5" font-family="Helvetica,sans-Serif" font-size="10.00">&#45; equal()</text>
<text text-anchor="start" x="8.5" y="-7.5" font-family="Helvetica,sans-Serif" font-size="10.00">&#45; dereference()</text>
</g>
<!-- Node2 -->
<g id="node2" class="node"><title>Node2</title>
<polygon fill="white" stroke="#bfbfbf" points="0,-227 0,-317 138,-317 138,-227 0,-227"/>
<text text-anchor="start" x="8" y="-305" font-family="Helvetica,sans-Serif" font-size="10.00">boost::iterator_facade</text>
<text text-anchor="start" x="8" y="-294" font-family="Helvetica,sans-Serif" font-size="10.00">&lt; ElementIterator, const</text>
<text text-anchor="start" x="8" y="-283" font-family="Helvetica,sans-Serif" font-size="10.00"> ElementData, boost::single</text>
<text text-anchor="middle" x="69" y="-272" font-family="Helvetica,sans-Serif" font-size="10.00">_pass_traversal_tag &gt;</text>
<polyline fill="none" stroke="#bfbfbf" points="0,-265 138,-265 "/>
<text text-anchor="middle" x="69" y="-253" font-family="Helvetica,sans-Serif" font-size="10.00"> </text>
<polyline fill="none" stroke="#bfbfbf" points="0,-246 138,-246 "/>
<text text-anchor="middle" x="69" y="-234" font-family="Helvetica,sans-Serif" font-size="10.00"> </text>
</g>
<!-- Node2&#45;&gt;Node1 -->
<g id="edge1" class="edge"><title>Node2&#45;&gt;Node1</title>
<path fill="none" stroke="midnightblue" d="M69,-216.614C69,-208.004 69,-198.892 69,-189.688"/>
<polygon fill="none" stroke="midnightblue" points="65.5001,-216.84 69,-226.84 72.5001,-216.84 65.5001,-216.84"/>
</g>
</g>
</svg>
