<?xml version="1.0" encoding="UTF-8" standalone="no"?>
<!DOCTYPE svg PUBLIC "-//W3C//DTD SVG 1.1//EN"
 "http://www.w3.org/Graphics/SVG/1.1/DTD/svg11.dtd">
<!-- Generated by graphviz version 2.36.0 (20140111.2315)
 -->
<!-- Title: AbstractTetrahedralMesh&lt; ELEMENT_DIM, SPACE_DIM &gt; Pages: 1 -->
<svg width="1313pt" height="944pt"
 viewBox="0.00 0.00 1313.28 944.00" xmlns="http://www.w3.org/2000/svg" xmlns:xlink="http://www.w3.org/1999/xlink">
<g id="graph0" class="graph" transform="scale(1 1) rotate(0) translate(4 940)">
<title>AbstractTetrahedralMesh&lt; ELEMENT_DIM, SPACE_DIM &gt;</title>
<polygon fill="white" stroke="none" points="-4,4 -4,-940 1309.28,-940 1309.28,4 -4,4"/>
<!-- Node1 -->
<g id="node1" class="node"><title>Node1</title>
<polygon fill="#bfbfbf" stroke="black" points="930.283,-0.5 930.283,-233.5 1104.28,-233.5 1104.28,-0.5 930.283,-0.5"/>
<text text-anchor="start" x="938.283" y="-221.5" font-family="Helvetica,sans-Serif" font-size="10.00">AbstractTetrahedralMesh</text>
<text text-anchor="middle" x="1017.28" y="-210.5" font-family="Helvetica,sans-Serif" font-size="10.00">&lt; ELEMENT_DIM, SPACE_DIM &gt;</text>
<polyline fill="none" stroke="black" points="930.283,-203.5 1104.28,-203.5 "/>
<text text-anchor="middle" x="1017.28" y="-191.5" font-family="Helvetica,sans-Serif" font-size="10.00"> </text>
<polyline fill="none" stroke="black" points="930.283,-184.5 1104.28,-184.5 "/>
<text text-anchor="start" x="938.283" y="-172.5" font-family="Helvetica,sans-Serif" font-size="10.00">+ GetElementIteratorBegin()</text>
<text text-anchor="start" x="938.283" y="-161.5" font-family="Helvetica,sans-Serif" font-size="10.00">+ GetElementIteratorEnd()</text>
<text text-anchor="start" x="938.283" y="-150.5" font-family="Helvetica,sans-Serif" font-size="10.00">+ AbstractTetrahedralMesh()</text>
<text text-anchor="start" x="938.283" y="-139.5" font-family="Helvetica,sans-Serif" font-size="10.00">+ ~AbstractTetrahedralMesh()</text>
<text text-anchor="start" x="938.283" y="-128.5" font-family="Helvetica,sans-Serif" font-size="10.00">+ GetNumElements()</text>
<text text-anchor="start" x="938.283" y="-117.5" font-family="Helvetica,sans-Serif" font-size="10.00">+ GetNumLocalElements()</text>
<text text-anchor="start" x="938.283" y="-106.5" font-family="Helvetica,sans-Serif" font-size="10.00">+ GetNumBoundaryElements()</text>
<text text-anchor="start" x="938.283" y="-95.5" font-family="Helvetica,sans-Serif" font-size="10.00">+ GetNumLocalBoundaryElements()</text>
<text text-anchor="start" x="938.283" y="-84.5" font-family="Helvetica,sans-Serif" font-size="10.00">+ GetNumAllElements()</text>
<text text-anchor="start" x="938.283" y="-73.5" font-family="Helvetica,sans-Serif" font-size="10.00">+ GetNumAllBoundaryElements()</text>
<text text-anchor="start" x="938.283" y="-62.5" font-family="Helvetica,sans-Serif" font-size="10.00">and 25 more...</text>
<text text-anchor="start" x="938.283" y="-51.5" font-family="Helvetica,sans-Serif" font-size="10.00"># SetElementOwnerships()</text>
<text text-anchor="start" x="938.283" y="-40.5" font-family="Helvetica,sans-Serif" font-size="10.00">&#45; SolveElementMapping()</text>
<text text-anchor="start" x="938.283" y="-29.5" font-family="Helvetica,sans-Serif" font-size="10.00">&#45; SolveBoundaryElementMapping()</text>
<text text-anchor="start" x="938.283" y="-18.5" font-family="Helvetica,sans-Serif" font-size="10.00">&#45; save()</text>
<text text-anchor="start" x="938.283" y="-7.5" font-family="Helvetica,sans-Serif" font-size="10.00">&#45; load()</text>
</g>
<!-- Node2 -->
<g id="node2" class="node"><title>Node2</title>
<g id="a_node2"><a xlink:href="classAbstractMesh.html" target="_top" xlink:title="{AbstractMesh\&lt; ELEMENT\l_DIM, SPACE_DIM \&gt;\n||+ GetNodeIteratorBegin()\l+ GetNodeIteratorEnd()\l+ AbstractMesh()\l+ ~AbstractMesh()\l+ GetNumNodes()\l+ GetNumBoundaryNodes()\l+ GetNumAllNodes()\l+ GetNumNodeAttributes()\l+ GetNode()\l+ GetNodeOrHaloNode()\land 28 more...\l# SetElementOwnerships()\l# CalculateBoundingBox()\l&#45; SolveNodeMapping()\l&#45; serialize()\l}">
<polygon fill="white" stroke="black" points="479.283,-283 479.283,-505 617.283,-505 617.283,-283 479.283,-283"/>
<text text-anchor="start" x="487.283" y="-493" font-family="Helvetica,sans-Serif" font-size="10.00">AbstractMesh&lt; ELEMENT</text>
<text text-anchor="middle" x="548.283" y="-482" font-family="Helvetica,sans-Serif" font-size="10.00">_DIM, SPACE_DIM &gt;</text>
<polyline fill="none" stroke="black" points="479.283,-475 617.283,-475 "/>
<text text-anchor="middle" x="548.283" y="-463" font-family="Helvetica,sans-Serif" font-size="10.00"> </text>
<polyline fill="none" stroke="black" points="479.283,-456 617.283,-456 "/>
<text text-anchor="start" x="487.283" y="-444" font-family="Helvetica,sans-Serif" font-size="10.00">+ GetNodeIteratorBegin()</text>
<text text-anchor="start" x="487.283" y="-433" font-family="Helvetica,sans-Serif" font-size="10.00">+ GetNodeIteratorEnd()</text>
<text text-anchor="start" x="487.283" y="-422" font-family="Helvetica,sans-Serif" font-size="10.00">+ AbstractMesh()</text>
<text text-anchor="start" x="487.283" y="-411" font-family="Helvetica,sans-Serif" font-size="10.00">+ ~AbstractMesh()</text>
<text text-anchor="start" x="487.283" y="-400" font-family="Helvetica,sans-Serif" font-size="10.00">+ GetNumNodes()</text>
<text text-anchor="start" x="487.283" y="-389" font-family="Helvetica,sans-Serif" font-size="10.00">+ GetNumBoundaryNodes()</text>
<text text-anchor="start" x="487.283" y="-378" font-family="Helvetica,sans-Serif" font-size="10.00">+ GetNumAllNodes()</text>
<text text-anchor="start" x="487.283" y="-367" font-family="Helvetica,sans-Serif" font-size="10.00">+ GetNumNodeAttributes()</text>
<text text-anchor="start" x="487.283" y="-356" font-family="Helvetica,sans-Serif" font-size="10.00">+ GetNode()</text>
<text text-anchor="start" x="487.283" y="-345" font-family="Helvetica,sans-Serif" font-size="10.00">+ GetNodeOrHaloNode()</text>
<text text-anchor="start" x="487.283" y="-334" font-family="Helvetica,sans-Serif" font-size="10.00">and 28 more...</text>
<text text-anchor="start" x="487.283" y="-323" font-family="Helvetica,sans-Serif" font-size="10.00"># SetElementOwnerships()</text>
<text text-anchor="start" x="487.283" y="-312" font-family="Helvetica,sans-Serif" font-size="10.00"># CalculateBoundingBox()</text>
<text text-anchor="start" x="487.283" y="-301" font-family="Helvetica,sans-Serif" font-size="10.00">&#45; SolveNodeMapping()</text>
<text text-anchor="start" x="487.283" y="-290" font-family="Helvetica,sans-Serif" font-size="10.00">&#45; serialize()</text>
</a>
</g>
</g>
<!-- Node2&#45;&gt;Node1 -->
<g id="edge1" class="edge"><title>Node2&#45;&gt;Node1</title>
<path fill="none" stroke="midnightblue" d="M626.197,-347.315C710.022,-298.164 843.007,-220.187 930.219,-169.051"/>
<polygon fill="none" stroke="midnightblue" points="624.342,-344.345 617.486,-352.423 627.883,-350.384 624.342,-344.345"/>
</g>
<!-- Node3 -->
<g id="node3" class="node"><title>Node3</title>
<polygon fill="white" stroke="#bfbfbf" points="440.783,-652.5 440.783,-709.5 511.783,-709.5 511.783,-652.5 440.783,-652.5"/>
<text text-anchor="middle" x="476.283" y="-697.5" font-family="Helvetica,sans-Serif" font-size="10.00">noncopyable</text>
<polyline fill="none" stroke="#bfbfbf" points="440.783,-690.5 511.783,-690.5 "/>
<text text-anchor="middle" x="476.283" y="-678.5" font-family="Helvetica,sans-Serif" font-size="10.00"> </text>
<polyline fill="none" stroke="#bfbfbf" points="440.783,-671.5 511.783,-671.5 "/>
<text text-anchor="middle" x="476.283" y="-659.5" font-family="Helvetica,sans-Serif" font-size="10.00"> </text>
</g>
<!-- Node3&#45;&gt;Node2 -->
<g id="edge2" class="edge"><title>Node3&#45;&gt;Node2</title>
<path fill="none" stroke="#8b1a1a" d="M485.721,-642.643C494.551,-607.69 508.188,-553.712 520.478,-505.062"/>
<polygon fill="none" stroke="#8b1a1a" points="482.308,-641.861 483.252,-652.414 489.095,-643.576 482.308,-641.861"/>
</g>
<!-- Node4 -->
<g id="node4" class="node"><title>Node4</title>
<g id="a_node4"><a xlink:href="classDistributedVectorFactory.html" target="_top" xlink:title="{DistributedVectorFactory\n||+ DistributedVectorFactory()\l+ DistributedVectorFactory()\l+ DistributedVectorFactory()\l+ DistributedVectorFactory()\l+ ~DistributedVectorFactory()\l+ CreateVec()\l+ CreateVec()\l+ CreateDistributedVector()\l+ IsGlobalIndexLocal()\l+ GetLocalOwnership()\land 8 more...\l+ SetCheckNumberOfProcesses\lOnLoad()\l+ CheckNumberOfProcessesOnLoad()\l&#45; CheckForPetsc()\l&#45; CalculateOwnership()\l&#45; serialize()\l}">
<polygon fill="white" stroke="black" points="133.783,-564.5 133.783,-797.5 318.783,-797.5 318.783,-564.5 133.783,-564.5"/>
<text text-anchor="middle" x="226.283" y="-785.5" font-family="Helvetica,sans-Serif" font-size="10.00">DistributedVectorFactory</text>
<polyline fill="none" stroke="black" points="133.783,-778.5 318.783,-778.5 "/>
<text text-anchor="middle" x="226.283" y="-766.5" font-family="Helvetica,sans-Serif" font-size="10.00"> </text>
<polyline fill="none" stroke="black" points="133.783,-759.5 318.783,-759.5 "/>
<text text-anchor="start" x="141.783" y="-747.5" font-family="Helvetica,sans-Serif" font-size="10.00">+ DistributedVectorFactory()</text>
<text text-anchor="start" x="141.783" y="-736.5" font-family="Helvetica,sans-Serif" font-size="10.00">+ DistributedVectorFactory()</text>
<text text-anchor="start" x="141.783" y="-725.5" font-family="Helvetica,sans-Serif" font-size="10.00">+ DistributedVectorFactory()</text>
<text text-anchor="start" x="141.783" y="-714.5" font-family="Helvetica,sans-Serif" font-size="10.00">+ DistributedVectorFactory()</text>
<text text-anchor="start" x="141.783" y="-703.5" font-family="Helvetica,sans-Serif" font-size="10.00">+ ~DistributedVectorFactory()</text>
<text text-anchor="start" x="141.783" y="-692.5" font-family="Helvetica,sans-Serif" font-size="10.00">+ CreateVec()</text>
<text text-anchor="start" x="141.783" y="-681.5" font-family="Helvetica,sans-Serif" font-size="10.00">+ CreateVec()</text>
<text text-anchor="start" x="141.783" y="-670.5" font-family="Helvetica,sans-Serif" font-size="10.00">+ CreateDistributedVector()</text>
<text text-anchor="start" x="141.783" y="-659.5" font-family="Helvetica,sans-Serif" font-size="10.00">+ IsGlobalIndexLocal()</text>
<text text-anchor="start" x="141.783" y="-648.5" font-family="Helvetica,sans-Serif" font-size="10.00">+ GetLocalOwnership()</text>
<text text-anchor="start" x="141.783" y="-637.5" font-family="Helvetica,sans-Serif" font-size="10.00">and 8 more...</text>
<text text-anchor="start" x="141.783" y="-626.5" font-family="Helvetica,sans-Serif" font-size="10.00">+ SetCheckNumberOfProcesses</text>
<text text-anchor="start" x="141.783" y="-615.5" font-family="Helvetica,sans-Serif" font-size="10.00">OnLoad()</text>
<text text-anchor="start" x="141.783" y="-604.5" font-family="Helvetica,sans-Serif" font-size="10.00">+ CheckNumberOfProcessesOnLoad()</text>
<text text-anchor="start" x="141.783" y="-593.5" font-family="Helvetica,sans-Serif" font-size="10.00">&#45; CheckForPetsc()</text>
<text text-anchor="start" x="141.783" y="-582.5" font-family="Helvetica,sans-Serif" font-size="10.00">&#45; CalculateOwnership()</text>
<text text-anchor="start" x="141.783" y="-571.5" font-family="Helvetica,sans-Serif" font-size="10.00">&#45; serialize()</text>
</a>
</g>
</g>
<!-- Node4&#45;&gt;Node2 -->
<g id="edge3" class="edge"><title>Node4&#45;&gt;Node2</title>
<path fill="none" stroke="#404040" d="M319.098,-579.466C337.848,-560.501 357.799,-541.227 377.283,-524 406.068,-498.55 439.472,-472.63 469.078,-450.765"/>
<polygon fill="none" stroke="#404040" points="469.286,-450.612 471.757,-443.838 478.96,-443.512 476.49,-450.287 469.286,-450.612"/>
<text text-anchor="middle" x="442.783" y="-532.5" font-family="Helvetica,sans-Serif" font-size="10.00"> #mpDistributedVectorFactory</text>
</g>
<!-- Node4&#45;&gt;Node4 -->
<g id="edge4" class="edge"><title>Node4&#45;&gt;Node4</title>
<path fill="none" stroke="#404040" d="M318.971,-704.198C329.475,-699.854 336.283,-692.121 336.283,-681 336.283,-674.223 333.755,-668.704 329.403,-664.444"/>
<polygon fill="none" stroke="#404040" points="329.094,-664.247 321.884,-664.399 318.971,-657.802 326.181,-657.65 329.094,-664.247"/>
<text text-anchor="middle" x="379.283" y="-678.5" font-family="Helvetica,sans-Serif" font-size="10.00"> &#45;mpOriginalFactory</text>
</g>
<!-- Node5 -->
<g id="node5" class="node"><title>Node5</title>
<polygon fill="white" stroke="#bfbfbf" points="25.7833,-878.5 25.7833,-935.5 126.783,-935.5 126.783,-878.5 25.7833,-878.5"/>
<text text-anchor="middle" x="76.2833" y="-923.5" font-family="Helvetica,sans-Serif" font-size="10.00">vector&lt; unsigned &gt;</text>
<polyline fill="none" stroke="#bfbfbf" points="25.7833,-916.5 126.783,-916.5 "/>
<text text-anchor="middle" x="76.2833" y="-904.5" font-family="Helvetica,sans-Serif" font-size="10.00"> </text>
<polyline fill="none" stroke="#bfbfbf" points="25.7833,-897.5 126.783,-897.5 "/>
<text text-anchor="middle" x="76.2833" y="-885.5" font-family="Helvetica,sans-Serif" font-size="10.00"> </text>
</g>
<!-- Node5&#45;&gt;Node2 -->
<g id="edge9" class="edge"><title>Node5&#45;&gt;Node2</title>
<path fill="none" stroke="#404040" d="M60.9159,-878.453C28.3223,-815.932 -39.2075,-661.204 31.2833,-564 83.0933,-492.556 334.859,-435.346 466.97,-409.671"/>
<polygon fill="none" stroke="#404040" points="467.2,-409.627 472.336,-404.565 478.984,-407.359 473.848,-412.421 467.2,-409.627"/>
<text text-anchor="middle" x="77.7833" y="-678.5" font-family="Helvetica,sans-Serif" font-size="10.00"> #mNodePermutation</text>
</g>
<!-- Node5&#45;&gt;Node4 -->
<g id="edge5" class="edge"><title>Node5&#45;&gt;Node4</title>
<path fill="none" stroke="#404040" d="M94.9776,-878.083C107.269,-859.728 124.315,-834.273 142.06,-807.773"/>
<polygon fill="none" stroke="#404040" points="142.21,-807.55 142.225,-800.339 148.887,-797.579 148.872,-804.79 142.21,-807.55"/>
<text text-anchor="middle" x="167.283" y="-835.5" font-family="Helvetica,sans-Serif" font-size="10.00"> &#45;mGlobalLows</text>
</g>
<!-- Node6 -->
<g id="node6" class="node"><title>Node6</title>
<g id="a_node6"><a xlink:href="classbool.html" target="_top" xlink:title="{bool\n||}">
<polygon fill="white" stroke="black" points="530.783,-878.5 530.783,-935.5 565.783,-935.5 565.783,-878.5 530.783,-878.5"/>
<text text-anchor="middle" x="548.283" y="-923.5" font-family="Helvetica,sans-Serif" font-size="10.00">bool</text>
<polyline fill="none" stroke="black" points="530.783,-916.5 565.783,-916.5 "/>
<text text-anchor="middle" x="548.283" y="-904.5" font-family="Helvetica,sans-Serif" font-size="10.00"> </text>
<polyline fill="none" stroke="black" points="530.783,-897.5 565.783,-897.5 "/>
<text text-anchor="middle" x="548.283" y="-885.5" font-family="Helvetica,sans-Serif" font-size="10.00"> </text>
</a>
</g>
</g>
<!-- Node6&#45;&gt;Node1 -->
<g id="edge12" class="edge"><title>Node6&#45;&gt;Node1</title>
<path fill="none" stroke="#404040" d="M565.897,-906.706C624.672,-908.014 815.514,-903.641 907.283,-798 1059.43,-622.852 947.176,-510.686 986.283,-282 988.28,-270.325 990.429,-258.198 992.631,-246.06"/>
<polygon fill="none" stroke="#404040" points="992.69,-245.739 989.834,-239.117 994.848,-233.934 997.704,-240.556 992.69,-245.739"/>
<text text-anchor="middle" x="1026.28" y="-532.5" font-family="Helvetica,sans-Serif" font-size="10.00"> #mMeshIsLinear</text>
</g>
<!-- Node6&#45;&gt;Node2 -->
<g id="edge10" class="edge"><title>Node6&#45;&gt;Node2</title>
<path fill="none" stroke="#404040" d="M548.283,-878.164C548.283,-811.062 548.283,-637.088 548.283,-517.315"/>
<polygon fill="none" stroke="#404040" points="548.283,-517.173 544.283,-511.173 548.283,-505.173 552.283,-511.173 548.283,-517.173"/>
<text text-anchor="middle" x="625.283" y="-678.5" font-family="Helvetica,sans-Serif" font-size="10.00"> #mMeshChangesDuringSimulation</text>
</g>
<!-- Node6&#45;&gt;Node4 -->
<g id="edge6" class="edge"><title>Node6&#45;&gt;Node4</title>
<path fill="none" stroke="#404040" d="M530.433,-903.742C500.401,-899.302 438.705,-887.375 394.283,-860 370.385,-845.273 347.633,-826.293 327.027,-806.236"/>
<polygon fill="none" stroke="#404040" points="326.837,-806.047 319.763,-804.65 318.331,-797.583 325.405,-798.979 326.837,-806.047"/>
<text text-anchor="start" x="394.283" y="-846.5" font-family="Helvetica,sans-Serif" font-size="10.00"> &#45;msCheckNumberOfProcesses</text>
<text text-anchor="middle" x="464.283" y="-835.5" font-family="Helvetica,sans-Serif" font-size="10.00">OnLoad</text>
<text text-anchor="middle" x="464.283" y="-824.5" font-family="Helvetica,sans-Serif" font-size="10.00">&#45;mPetscStatusKnown</text>
</g>
<!-- Node7 -->
<g id="node7" class="node"><title>Node7</title>
<g id="a_node7"><a xlink:href="classunsigned.html" target="_top" xlink:title="{unsigned\n||}">
<polygon fill="white" stroke="black" points="198.283,-878.5 198.283,-935.5 254.283,-935.5 254.283,-878.5 198.283,-878.5"/>
<text text-anchor="middle" x="226.283" y="-923.5" font-family="Helvetica,sans-Serif" font-size="10.00">unsigned</text>
<polyline fill="none" stroke="black" points="198.283,-916.5 254.283,-916.5 "/>
<text text-anchor="middle" x="226.283" y="-904.5" font-family="Helvetica,sans-Serif" font-size="10.00"> </text>
<polyline fill="none" stroke="black" points="198.283,-897.5 254.283,-897.5 "/>
<text text-anchor="middle" x="226.283" y="-885.5" font-family="Helvetica,sans-Serif" font-size="10.00"> </text>
</a>
</g>
</g>
<!-- Node7&#45;&gt;Node4 -->
<g id="edge7" class="edge"><title>Node7&#45;&gt;Node4</title>
<path fill="none" stroke="#404040" d="M226.283,-878.083C226.283,-860.213 226.283,-835.614 226.283,-809.872"/>
<polygon fill="none" stroke="#404040" points="226.283,-809.579 222.283,-803.579 226.283,-797.579 230.283,-803.579 226.283,-809.579"/>
<text text-anchor="middle" x="259.783" y="-852" font-family="Helvetica,sans-Serif" font-size="10.00"> &#45;mHi</text>
<text text-anchor="middle" x="259.783" y="-841" font-family="Helvetica,sans-Serif" font-size="10.00">&#45;mNumProcs</text>
<text text-anchor="middle" x="259.783" y="-830" font-family="Helvetica,sans-Serif" font-size="10.00">&#45;mLo</text>
<text text-anchor="middle" x="259.783" y="-819" font-family="Helvetica,sans-Serif" font-size="10.00">&#45;mProblemSize</text>
</g>
<!-- Node8 -->
<g id="node8" class="node"><title>Node8</title>
<polygon fill="white" stroke="#bfbfbf" points="720.783,-647 720.783,-715 839.783,-715 839.783,-647 720.783,-647"/>
<text text-anchor="start" x="728.783" y="-703" font-family="Helvetica,sans-Serif" font-size="10.00">vector&lt; Node&lt; SPACE</text>
<text text-anchor="middle" x="780.283" y="-692" font-family="Helvetica,sans-Serif" font-size="10.00">_DIM &gt; * &gt;</text>
<polyline fill="none" stroke="#bfbfbf" points="720.783,-685 839.783,-685 "/>
<text text-anchor="middle" x="780.283" y="-673" font-family="Helvetica,sans-Serif" font-size="10.00"> </text>
<polyline fill="none" stroke="#bfbfbf" points="720.783,-666 839.783,-666 "/>
<text text-anchor="middle" x="780.283" y="-654" font-family="Helvetica,sans-Serif" font-size="10.00"> </text>
</g>
<!-- Node8&#45;&gt;Node2 -->
<g id="edge8" class="edge"><title>Node8&#45;&gt;Node2</title>
<path fill="none" stroke="#404040" d="M761.399,-646.916C747.281,-623.099 726.929,-590.612 706.283,-564 681.846,-532.5 652.606,-500.021 625.962,-472.057"/>
<polygon fill="none" stroke="#404040" points="625.719,-471.804 618.678,-470.243 617.412,-463.144 624.452,-464.705 625.719,-471.804"/>
<text text-anchor="middle" x="734.783" y="-538" font-family="Helvetica,sans-Serif" font-size="10.00"> #mBoundaryNodes</text>
<text text-anchor="middle" x="734.783" y="-527" font-family="Helvetica,sans-Serif" font-size="10.00">#mNodes</text>
</g>
<!-- Node9 -->
<g id="node9" class="node"><title>Node9</title>
<polygon fill="white" stroke="#bfbfbf" points="857.783,-652.5 857.783,-709.5 898.783,-709.5 898.783,-652.5 857.783,-652.5"/>
<text text-anchor="middle" x="878.283" y="-697.5" font-family="Helvetica,sans-Serif" font-size="10.00">string</text>
<polyline fill="none" stroke="#bfbfbf" points="857.783,-690.5 898.783,-690.5 "/>
<text text-anchor="middle" x="878.283" y="-678.5" font-family="Helvetica,sans-Serif" font-size="10.00"> </text>
<polyline fill="none" stroke="#bfbfbf" points="857.783,-671.5 898.783,-671.5 "/>
<text text-anchor="middle" x="878.283" y="-659.5" font-family="Helvetica,sans-Serif" font-size="10.00"> </text>
</g>
<!-- Node9&#45;&gt;Node2 -->
<g id="edge11" class="edge"><title>Node9&#45;&gt;Node2</title>
<path fill="none" stroke="#404040" d="M876.944,-652.16C874.464,-626.939 867.525,-589.871 848.283,-564 793.902,-490.884 697.919,-444.922 629.156,-419.7"/>
<polygon fill="none" stroke="#404040" points="628.807,-419.575 621.81,-421.318 617.509,-415.529 624.506,-413.786 628.807,-419.575"/>
<text text-anchor="middle" x="884.283" y="-532.5" font-family="Helvetica,sans-Serif" font-size="10.00"> #mMeshFileBaseName</text>
</g>
<!-- Node10 -->
<g id="node10" class="node"><title>Node10</title>
<polygon fill="white" stroke="#bfbfbf" points="995.283,-354.5 995.283,-433.5 1141.28,-433.5 1141.28,-354.5 995.283,-354.5"/>
<text text-anchor="start" x="1003.28" y="-421.5" font-family="Helvetica,sans-Serif" font-size="10.00">vector&lt; BoundaryElement</text>
<text text-anchor="start" x="1003.28" y="-410.5" font-family="Helvetica,sans-Serif" font-size="10.00">&lt; ELEMENT_DIM&#45;1, SPACE</text>
<text text-anchor="middle" x="1068.28" y="-399.5" font-family="Helvetica,sans-Serif" font-size="10.00">_DIM &gt; * &gt;</text>
<polyline fill="none" stroke="#bfbfbf" points="995.283,-392.5 1141.28,-392.5 "/>
<text text-anchor="middle" x="1068.28" y="-380.5" font-family="Helvetica,sans-Serif" font-size="10.00"> </text>
<polyline fill="none" stroke="#bfbfbf" points="995.283,-373.5 1141.28,-373.5 "/>
<text text-anchor="middle" x="1068.28" y="-361.5" font-family="Helvetica,sans-Serif" font-size="10.00"> </text>
</g>
<!-- Node10&#45;&gt;Node1 -->
<g id="edge13" class="edge"><title>Node10&#45;&gt;Node1</title>
<path fill="none" stroke="#404040" d="M1061.14,-354.473C1055.84,-325.877 1048.28,-285.133 1040.93,-245.502"/>
<polygon fill="none" stroke="#404040" points="1040.9,-245.332 1035.87,-240.162 1038.71,-233.533 1043.74,-238.703 1040.9,-245.332"/>
<text text-anchor="middle" x="1095.28" y="-255.5" font-family="Helvetica,sans-Serif" font-size="10.00"> #mBoundaryElements</text>
</g>
<!-- Node11 -->
<g id="node11" class="node"><title>Node11</title>
<polygon fill="white" stroke="#bfbfbf" points="1159.78,-360 1159.78,-428 1304.78,-428 1304.78,-360 1159.78,-360"/>
<text text-anchor="start" x="1167.78" y="-416" font-family="Helvetica,sans-Serif" font-size="10.00">vector&lt; Element&lt; ELEMENT</text>
<text text-anchor="middle" x="1232.28" y="-405" font-family="Helvetica,sans-Serif" font-size="10.00">_DIM, SPACE_DIM &gt; * &gt;</text>
<polyline fill="none" stroke="#bfbfbf" points="1159.78,-398 1304.78,-398 "/>
<text text-anchor="middle" x="1232.28" y="-386" font-family="Helvetica,sans-Serif" font-size="10.00"> </text>
<polyline fill="none" stroke="#bfbfbf" points="1159.78,-379 1304.78,-379 "/>
<text text-anchor="middle" x="1232.28" y="-367" font-family="Helvetica,sans-Serif" font-size="10.00"> </text>
</g>
<!-- Node11&#45;&gt;Node1 -->
<g id="edge14" class="edge"><title>Node11&#45;&gt;Node1</title>
<path fill="none" stroke="#404040" d="M1215.79,-359.919C1200.39,-330.385 1175.84,-286.58 1149.28,-252 1138.19,-237.554 1125.66,-223.041 1112.85,-209.176"/>
<polygon fill="none" stroke="#404040" points="1112.61,-208.921 1105.59,-207.279 1104.41,-200.166 1111.43,-201.808 1112.61,-208.921"/>
<text text-anchor="middle" x="1186.28" y="-255.5" font-family="Helvetica,sans-Serif" font-size="10.00"> #mElements</text>
</g>
</g>
</svg>
