<?xml version="1.0" encoding="UTF-8" standalone="no"?>
<!DOCTYPE svg PUBLIC "-//W3C//DTD SVG 1.1//EN"
 "http://www.w3.org/Graphics/SVG/1.1/DTD/svg11.dtd">
<!-- Generated by graphviz version 2.36.0 (20140111.2315)
 -->
<!-- Title: BuskeAdhesiveForce&lt; DIM &gt; Pages: 1 -->
<svg width="790pt" height="878pt"
 viewBox="0.00 0.00 790.00 878.00" xmlns="http://www.w3.org/2000/svg" xmlns:xlink="http://www.w3.org/1999/xlink">
<g id="graph0" class="graph" transform="scale(1 1) rotate(0) translate(4 874)">
<title>BuskeAdhesiveForce&lt; DIM &gt;</title>
<polygon fill="white" stroke="none" points="-4,4 -4,-874 786,-874 786,4 -4,4"/>
<!-- Node1 -->
<g id="node1" class="node"><title>Node1</title>
<polygon fill="#bfbfbf" stroke="black" points="0,-1 0,-135 164,-135 164,-1 0,-1"/>
<text text-anchor="start" x="8" y="-123" font-family="Helvetica,sans-Serif" font-size="10.00">BuskeAdhesiveForce</text>
<text text-anchor="middle" x="82" y="-112" font-family="Helvetica,sans-Serif" font-size="10.00">&lt; DIM &gt;</text>
<polyline fill="none" stroke="black" points="0,-105 164,-105 "/>
<text text-anchor="middle" x="82" y="-93" font-family="Helvetica,sans-Serif" font-size="10.00"> </text>
<polyline fill="none" stroke="black" points="0,-86 164,-86 "/>
<text text-anchor="start" x="8" y="-74" font-family="Helvetica,sans-Serif" font-size="10.00">+ BuskeAdhesiveForce()</text>
<text text-anchor="start" x="8" y="-63" font-family="Helvetica,sans-Serif" font-size="10.00">+ GetAdhesionEnergyParameter()</text>
<text text-anchor="start" x="8" y="-52" font-family="Helvetica,sans-Serif" font-size="10.00">+ SetAdhesionEnergyParameter()</text>
<text text-anchor="start" x="8" y="-41" font-family="Helvetica,sans-Serif" font-size="10.00">+ CalculateForceBetweenNodes()</text>
<text text-anchor="start" x="8" y="-30" font-family="Helvetica,sans-Serif" font-size="10.00">+ GetMagnitudeOfForce()</text>
<text text-anchor="start" x="8" y="-19" font-family="Helvetica,sans-Serif" font-size="10.00">+ OutputForceParameters()</text>
<text text-anchor="start" x="8" y="-8" font-family="Helvetica,sans-Serif" font-size="10.00">&#45; serialize()</text>
</g>
<!-- Node2 -->
<g id="node2" class="node"><title>Node2</title>
<g id="a_node2"><a xlink:href="classAbstractTwoBodyInteractionForce.html" target="_top" xlink:title="{AbstractTwoBodyInteraction\lForce\&lt; DIM \&gt;\n||+ AbstractTwoBodyInteraction\lForce()\l+ GetUseCutOffLength()\l+ SetCutOffLength()\l+ GetCutOffLength()\l+ CalculateForceBetweenNodes()\l+ AddForceContribution()\l+ OutputForceParameters()\l+ WriteDataToVisualizerSetupFile()\l&#45; serialize()\l}">
<polygon fill="white" stroke="black" points="279.5,-174.5 279.5,-341.5 450.5,-341.5 450.5,-174.5 279.5,-174.5"/>
<text text-anchor="start" x="287.5" y="-329.5" font-family="Helvetica,sans-Serif" font-size="10.00">AbstractTwoBodyInteraction</text>
<text text-anchor="middle" x="365" y="-318.5" font-family="Helvetica,sans-Serif" font-size="10.00">Force&lt; DIM &gt;</text>
<polyline fill="none" stroke="black" points="279.5,-311.5 450.5,-311.5 "/>
<text text-anchor="middle" x="365" y="-299.5" font-family="Helvetica,sans-Serif" font-size="10.00"> </text>
<polyline fill="none" stroke="black" points="279.5,-292.5 450.5,-292.5 "/>
<text text-anchor="start" x="287.5" y="-280.5" font-family="Helvetica,sans-Serif" font-size="10.00">+ AbstractTwoBodyInteraction</text>
<text text-anchor="start" x="287.5" y="-269.5" font-family="Helvetica,sans-Serif" font-size="10.00">Force()</text>
<text text-anchor="start" x="287.5" y="-258.5" font-family="Helvetica,sans-Serif" font-size="10.00">+ GetUseCutOffLength()</text>
<text text-anchor="start" x="287.5" y="-247.5" font-family="Helvetica,sans-Serif" font-size="10.00">+ SetCutOffLength()</text>
<text text-anchor="start" x="287.5" y="-236.5" font-family="Helvetica,sans-Serif" font-size="10.00">+ GetCutOffLength()</text>
<text text-anchor="start" x="287.5" y="-225.5" font-family="Helvetica,sans-Serif" font-size="10.00">+ CalculateForceBetweenNodes()</text>
<text text-anchor="start" x="287.5" y="-214.5" font-family="Helvetica,sans-Serif" font-size="10.00">+ AddForceContribution()</text>
<text text-anchor="start" x="287.5" y="-203.5" font-family="Helvetica,sans-Serif" font-size="10.00">+ OutputForceParameters()</text>
<text text-anchor="start" x="287.5" y="-192.5" font-family="Helvetica,sans-Serif" font-size="10.00">+ WriteDataToVisualizerSetupFile()</text>
<text text-anchor="start" x="287.5" y="-181.5" font-family="Helvetica,sans-Serif" font-size="10.00">&#45; serialize()</text>
</a>
</g>
</g>
<!-- Node2&#45;&gt;Node1 -->
<g id="edge1" class="edge"><title>Node2&#45;&gt;Node1</title>
<path fill="none" stroke="midnightblue" d="M270.68,-194.342C236.306,-171.507 197.738,-145.886 164.473,-123.788"/>
<polygon fill="none" stroke="midnightblue" points="269.056,-197.466 279.323,-200.084 272.93,-191.635 269.056,-197.466"/>
</g>
<!-- Node3 -->
<g id="node3" class="node"><title>Node3</title>
<g id="a_node3"><a xlink:href="classAbstractForce.html" target="_top" xlink:title="{AbstractForce\&lt; ELEMENT\l_DIM, ELEMENT_DIM \&gt;\n||+ AbstractForce()\l+ ~AbstractForce()\l+ AddForceContribution()\l+ OutputForceInfo()\l+ OutputForceParameters()\l+ WriteDataToVisualizerSetupFile()\l&#45; serialize()\l}">
<polygon fill="white" stroke="black" points="611.5,-407 611.5,-541 782.5,-541 782.5,-407 611.5,-407"/>
<text text-anchor="start" x="619.5" y="-529" font-family="Helvetica,sans-Serif" font-size="10.00">AbstractForce&lt; ELEMENT</text>
<text text-anchor="middle" x="697" y="-518" font-family="Helvetica,sans-Serif" font-size="10.00">_DIM, ELEMENT_DIM &gt;</text>
<polyline fill="none" stroke="black" points="611.5,-511 782.5,-511 "/>
<text text-anchor="middle" x="697" y="-499" font-family="Helvetica,sans-Serif" font-size="10.00"> </text>
<polyline fill="none" stroke="black" points="611.5,-492 782.5,-492 "/>
<text text-anchor="start" x="619.5" y="-480" font-family="Helvetica,sans-Serif" font-size="10.00">+ AbstractForce()</text>
<text text-anchor="start" x="619.5" y="-469" font-family="Helvetica,sans-Serif" font-size="10.00">+ ~AbstractForce()</text>
<text text-anchor="start" x="619.5" y="-458" font-family="Helvetica,sans-Serif" font-size="10.00">+ AddForceContribution()</text>
<text text-anchor="start" x="619.5" y="-447" font-family="Helvetica,sans-Serif" font-size="10.00">+ OutputForceInfo()</text>
<text text-anchor="start" x="619.5" y="-436" font-family="Helvetica,sans-Serif" font-size="10.00">+ OutputForceParameters()</text>
<text text-anchor="start" x="619.5" y="-425" font-family="Helvetica,sans-Serif" font-size="10.00">+ WriteDataToVisualizerSetupFile()</text>
<text text-anchor="start" x="619.5" y="-414" font-family="Helvetica,sans-Serif" font-size="10.00">&#45; serialize()</text>
</a>
</g>
</g>
<!-- Node3&#45;&gt;Node2 -->
<g id="edge2" class="edge"><title>Node3&#45;&gt;Node2</title>
<path fill="none" stroke="midnightblue" d="M611.731,-400.566C606.811,-396.909 601.88,-393.363 597,-390 550.438,-357.913 495.441,-326.598 450.682,-302.635"/>
<polygon fill="none" stroke="midnightblue" points="609.904,-403.572 619.991,-406.812 614.126,-397.989 609.904,-403.572"/>
</g>
<!-- Node4 -->
<g id="node4" class="node"><title>Node4</title>
<g id="a_node4"><a xlink:href="classIdentifiable.html" target="_top" xlink:title="{Identifiable\n||+ ~Identifiable()\l+ GetIdentifier()\l&#45; TidyTemplatedExportIdentifier()\l}">
<polygon fill="white" stroke="black" points="585.5,-790.5 585.5,-869.5 744.5,-869.5 744.5,-790.5 585.5,-790.5"/>
<text text-anchor="middle" x="665" y="-857.5" font-family="Helvetica,sans-Serif" font-size="10.00">Identifiable</text>
<polyline fill="none" stroke="black" points="585.5,-850.5 744.5,-850.5 "/>
<text text-anchor="middle" x="665" y="-838.5" font-family="Helvetica,sans-Serif" font-size="10.00"> </text>
<polyline fill="none" stroke="black" points="585.5,-831.5 744.5,-831.5 "/>
<text text-anchor="start" x="593.5" y="-819.5" font-family="Helvetica,sans-Serif" font-size="10.00">+ ~Identifiable()</text>
<text text-anchor="start" x="593.5" y="-808.5" font-family="Helvetica,sans-Serif" font-size="10.00">+ GetIdentifier()</text>
<text text-anchor="start" x="593.5" y="-797.5" font-family="Helvetica,sans-Serif" font-size="10.00">&#45; TidyTemplatedExportIdentifier()</text>
</a>
</g>
</g>
<!-- Node4&#45;&gt;Node3 -->
<g id="edge3" class="edge"><title>Node4&#45;&gt;Node3</title>
<path fill="none" stroke="midnightblue" d="M672.968,-780.181C680.195,-733.539 690.398,-661.184 695,-598 696.342,-579.575 697.005,-559.558 697.296,-541.129"/>
<polygon fill="none" stroke="midnightblue" points="669.472,-779.886 671.384,-790.307 676.388,-780.969 669.472,-779.886"/>
</g>
<!-- Node5 -->
<g id="node5" class="node"><title>Node5</title>
<g id="a_node5"><a xlink:href="classAbstractForce.html" target="_top" xlink:title="{AbstractForce\&lt; ELEMENT\l_DIM, SPACE_DIM \&gt;\n||+ AbstractForce()\l+ ~AbstractForce()\l+ AddForceContribution()\l+ OutputForceInfo()\l+ OutputForceParameters()\l+ WriteDataToVisualizerSetupFile()\l&#45; serialize()\l}">
<polygon fill="white" stroke="black" points="471.5,-617 471.5,-751 642.5,-751 642.5,-617 471.5,-617"/>
<text text-anchor="start" x="479.5" y="-739" font-family="Helvetica,sans-Serif" font-size="10.00">AbstractForce&lt; ELEMENT</text>
<text text-anchor="middle" x="557" y="-728" font-family="Helvetica,sans-Serif" font-size="10.00">_DIM, SPACE_DIM &gt;</text>
<polyline fill="none" stroke="black" points="471.5,-721 642.5,-721 "/>
<text text-anchor="middle" x="557" y="-709" font-family="Helvetica,sans-Serif" font-size="10.00"> </text>
<polyline fill="none" stroke="black" points="471.5,-702 642.5,-702 "/>
<text text-anchor="start" x="479.5" y="-690" font-family="Helvetica,sans-Serif" font-size="10.00">+ AbstractForce()</text>
<text text-anchor="start" x="479.5" y="-679" font-family="Helvetica,sans-Serif" font-size="10.00">+ ~AbstractForce()</text>
<text text-anchor="start" x="479.5" y="-668" font-family="Helvetica,sans-Serif" font-size="10.00">+ AddForceContribution()</text>
<text text-anchor="start" x="479.5" y="-657" font-family="Helvetica,sans-Serif" font-size="10.00">+ OutputForceInfo()</text>
<text text-anchor="start" x="479.5" y="-646" font-family="Helvetica,sans-Serif" font-size="10.00">+ OutputForceParameters()</text>
<text text-anchor="start" x="479.5" y="-635" font-family="Helvetica,sans-Serif" font-size="10.00">+ WriteDataToVisualizerSetupFile()</text>
<text text-anchor="start" x="479.5" y="-624" font-family="Helvetica,sans-Serif" font-size="10.00">&#45; serialize()</text>
</a>
</g>
</g>
<!-- Node4&#45;&gt;Node5 -->
<g id="edge5" class="edge"><title>Node4&#45;&gt;Node5</title>
<path fill="none" stroke="midnightblue" d="M629.954,-782.271C622.515,-772.353 614.527,-761.702 606.662,-751.216"/>
<polygon fill="none" stroke="midnightblue" points="627.258,-784.511 636.058,-790.411 632.858,-780.311 627.258,-784.511"/>
</g>
<!-- Node5&#45;&gt;Node3 -->
<g id="edge4" class="edge"><title>Node5&#45;&gt;Node3</title>
<path fill="none" stroke="orange" d="M547.298,-606.757C548.794,-595.833 552.054,-585.197 558,-576 568.364,-559.968 580.852,-568.182 597,-558 605.206,-552.825 613.477,-547.047 621.56,-541.015"/>
<polygon fill="orange" stroke="orange" points="543.801,-606.564 546.393,-616.837 550.773,-607.19 543.801,-606.564"/>
<text text-anchor="start" x="558" y="-590" font-family="Helvetica,sans-Serif" font-size="10.00"> &lt; ELEMENT_DIM, ELEMENT</text>
<text text-anchor="middle" x="626.5" y="-579" font-family="Helvetica,sans-Serif" font-size="10.00">_DIM &gt;</text>
</g>
<!-- Node8 -->
<g id="node8" class="node"><title>Node8</title>
<g id="a_node8"><a xlink:href="classAbstractTwoBodyInteractionForce.html" target="_top" xlink:title="{AbstractTwoBodyInteraction\lForce\&lt; ELEMENT_DIM, SPACE_DIM \&gt;\n||+ AbstractTwoBodyInteraction\lForce()\l+ GetUseCutOffLength()\l+ SetCutOffLength()\l+ GetCutOffLength()\l+ CalculateForceBetweenNodes()\l+ AddForceContribution()\l+ OutputForceParameters()\l+ WriteDataToVisualizerSetupFile()\l&#45; serialize()\l}">
<polygon fill="white" stroke="black" points="267.5,-390.5 267.5,-557.5 462.5,-557.5 462.5,-390.5 267.5,-390.5"/>
<text text-anchor="start" x="275.5" y="-545.5" font-family="Helvetica,sans-Serif" font-size="10.00">AbstractTwoBodyInteraction</text>
<text text-anchor="middle" x="365" y="-534.5" font-family="Helvetica,sans-Serif" font-size="10.00">Force&lt; ELEMENT_DIM, SPACE_DIM &gt;</text>
<polyline fill="none" stroke="black" points="267.5,-527.5 462.5,-527.5 "/>
<text text-anchor="middle" x="365" y="-515.5" font-family="Helvetica,sans-Serif" font-size="10.00"> </text>
<polyline fill="none" stroke="black" points="267.5,-508.5 462.5,-508.5 "/>
<text text-anchor="start" x="275.5" y="-496.5" font-family="Helvetica,sans-Serif" font-size="10.00">+ AbstractTwoBodyInteraction</text>
<text text-anchor="start" x="275.5" y="-485.5" font-family="Helvetica,sans-Serif" font-size="10.00">Force()</text>
<text text-anchor="start" x="275.5" y="-474.5" font-family="Helvetica,sans-Serif" font-size="10.00">+ GetUseCutOffLength()</text>
<text text-anchor="start" x="275.5" y="-463.5" font-family="Helvetica,sans-Serif" font-size="10.00">+ SetCutOffLength()</text>
<text text-anchor="start" x="275.5" y="-452.5" font-family="Helvetica,sans-Serif" font-size="10.00">+ GetCutOffLength()</text>
<text text-anchor="start" x="275.5" y="-441.5" font-family="Helvetica,sans-Serif" font-size="10.00">+ CalculateForceBetweenNodes()</text>
<text text-anchor="start" x="275.5" y="-430.5" font-family="Helvetica,sans-Serif" font-size="10.00">+ AddForceContribution()</text>
<text text-anchor="start" x="275.5" y="-419.5" font-family="Helvetica,sans-Serif" font-size="10.00">+ OutputForceParameters()</text>
<text text-anchor="start" x="275.5" y="-408.5" font-family="Helvetica,sans-Serif" font-size="10.00">+ WriteDataToVisualizerSetupFile()</text>
<text text-anchor="start" x="275.5" y="-397.5" font-family="Helvetica,sans-Serif" font-size="10.00">&#45; serialize()</text>
</a>
</g>
</g>
<!-- Node5&#45;&gt;Node8 -->
<g id="edge9" class="edge"><title>Node5&#45;&gt;Node8</title>
<path fill="none" stroke="midnightblue" d="M513.021,-608.156C505.237,-596.95 496.79,-585.862 488,-576 480.186,-567.234 471.577,-558.595 462.651,-550.282"/>
<polygon fill="none" stroke="midnightblue" points="510.328,-610.42 518.84,-616.729 516.12,-606.489 510.328,-610.42"/>
</g>
<!-- Node6 -->
<g id="node6" class="node"><title>Node6</title>
<g id="a_node6"><a xlink:href="classdouble.html" target="_top" xlink:title="{double\n||}">
<polygon fill="white" stroke="black" points="103.5,-655.5 103.5,-712.5 148.5,-712.5 148.5,-655.5 103.5,-655.5"/>
<text text-anchor="middle" x="126" y="-700.5" font-family="Helvetica,sans-Serif" font-size="10.00">double</text>
<polyline fill="none" stroke="black" points="103.5,-693.5 148.5,-693.5 "/>
<text text-anchor="middle" x="126" y="-681.5" font-family="Helvetica,sans-Serif" font-size="10.00"> </text>
<polyline fill="none" stroke="black" points="103.5,-674.5 148.5,-674.5 "/>
<text text-anchor="middle" x="126" y="-662.5" font-family="Helvetica,sans-Serif" font-size="10.00"> </text>
</a>
</g>
</g>
<!-- Node6&#45;&gt;Node1 -->
<g id="edge12" class="edge"><title>Node6&#45;&gt;Node1</title>
<path fill="none" stroke="#404040" d="M112.252,-655.175C86.7535,-601.837 32.9983,-480.825 14,-372 0.520842,-294.789 24.2812,-207.555 47.3321,-146.583"/>
<polygon fill="none" stroke="#404040" points="47.4338,-146.32 45.8721,-139.28 51.7699,-135.131 53.3316,-142.171 47.4338,-146.32"/>
<text text-anchor="middle" x="79.5" y="-363.5" font-family="Helvetica,sans-Serif" font-size="10.00"> &#45;mAdhesionEnergyParameter</text>
</g>
<!-- Node6&#45;&gt;Node2 -->
<g id="edge6" class="edge"><title>Node6&#45;&gt;Node2</title>
<path fill="none" stroke="#404040" d="M118.47,-655.078C105.276,-599.878 83.9486,-474.804 135,-390 164.408,-341.148 219.344,-308.877 268.151,-288.59"/>
<polygon fill="none" stroke="#404040" points="268.293,-288.533 272.372,-282.587 279.43,-284.065 275.351,-290.011 268.293,-288.533"/>
<text text-anchor="middle" x="196.5" y="-471.5" font-family="Helvetica,sans-Serif" font-size="10.00"> #mMechanicsCutOffLength</text>
</g>
<!-- Node6&#45;&gt;Node8 -->
<g id="edge10" class="edge"><title>Node6&#45;&gt;Node8</title>
<path fill="none" stroke="#404040" d="M148.916,-663.056C174.931,-640.416 219.186,-601.901 260.896,-565.601"/>
<polygon fill="none" stroke="#404040" points="260.977,-565.531 262.877,-558.575 270.029,-557.653 268.129,-564.609 260.977,-565.531"/>
<text text-anchor="middle" x="307.5" y="-584.5" font-family="Helvetica,sans-Serif" font-size="10.00"> #mMechanicsCutOffLength</text>
</g>
<!-- Node7 -->
<g id="node7" class="node"><title>Node7</title>
<g id="a_node7"><a xlink:href="classbool.html" target="_top" xlink:title="{bool\n||}">
<polygon fill="white" stroke="black" points="388.5,-655.5 388.5,-712.5 423.5,-712.5 423.5,-655.5 388.5,-655.5"/>
<text text-anchor="middle" x="406" y="-700.5" font-family="Helvetica,sans-Serif" font-size="10.00">bool</text>
<polyline fill="none" stroke="black" points="388.5,-693.5 423.5,-693.5 "/>
<text text-anchor="middle" x="406" y="-681.5" font-family="Helvetica,sans-Serif" font-size="10.00"> </text>
<polyline fill="none" stroke="black" points="388.5,-674.5 423.5,-674.5 "/>
<text text-anchor="middle" x="406" y="-662.5" font-family="Helvetica,sans-Serif" font-size="10.00"> </text>
</a>
</g>
</g>
<!-- Node7&#45;&gt;Node2 -->
<g id="edge7" class="edge"><title>Node7&#45;&gt;Node2</title>
<path fill="none" stroke="#404040" d="M423.545,-659.624C434.06,-646.249 448.06,-629.499 462,-616 471.325,-606.97 479.315,-609.669 485,-598 489.789,-588.17 506.755,-480.116 471,-390 465.774,-376.828 458.731,-363.951 450.745,-351.728"/>
<polygon fill="none" stroke="#404040" points="450.608,-351.529 443.92,-348.834 443.834,-341.623 450.523,-344.318 450.608,-351.529"/>
<text text-anchor="middle" x="541" y="-471.5" font-family="Helvetica,sans-Serif" font-size="10.00"> #mUseCutOffLength</text>
</g>
<!-- Node7&#45;&gt;Node8 -->
<g id="edge11" class="edge"><title>Node7&#45;&gt;Node8</title>
<path fill="none" stroke="#404040" d="M400.556,-655.379C396.19,-633.234 389.795,-600.79 383.628,-569.503"/>
<polygon fill="none" stroke="#404040" points="383.601,-569.366 378.516,-564.253 381.28,-557.592 386.365,-562.705 383.601,-569.366"/>
<text text-anchor="middle" x="437" y="-584.5" font-family="Helvetica,sans-Serif" font-size="10.00"> #mUseCutOffLength</text>
</g>
<!-- Node8&#45;&gt;Node2 -->
<g id="edge8" class="edge"><title>Node8&#45;&gt;Node2</title>
<path fill="none" stroke="orange" d="M365,-380.052C365,-367.23 365,-354.134 365,-341.518"/>
<polygon fill="orange" stroke="orange" points="361.5,-380.262 365,-390.262 368.5,-380.262 361.5,-380.262"/>
<text text-anchor="middle" x="385" y="-363.5" font-family="Helvetica,sans-Serif" font-size="10.00"> &lt; DIM &gt;</text>
</g>
</g>
</svg>
