<?xml version="1.0" encoding="UTF-8" standalone="no"?>
<!DOCTYPE svg PUBLIC "-//W3C//DTD SVG 1.1//EN"
 "http://www.w3.org/Graphics/SVG/1.1/DTD/svg11.dtd">
<!-- Generated by graphviz version 2.36.0 (20140111.2315)
 -->
<!-- Title: AbstractCellProperty Pages: 1 -->
<svg width="1760pt" height="604pt"
 viewBox="0.00 0.00 1760.00 604.00" xmlns="http://www.w3.org/2000/svg" xmlns:xlink="http://www.w3.org/1999/xlink">
<g id="graph0" class="graph" transform="scale(1 1) rotate(0) translate(4 600)">
<title>AbstractCellProperty</title>
<polygon fill="white" stroke="none" points="-4,4 -4,-600 1756,-600 1756,4 -4,4"/>
<!-- Node1 -->
<g id="node1" class="node"><title>Node1</title>
<polygon fill="#bfbfbf" stroke="black" points="1259,-323 1259,-479 1387,-479 1387,-323 1259,-323"/>
<text text-anchor="middle" x="1323" y="-467" font-family="Helvetica,sans-Serif" font-size="10.00">AbstractCellProperty</text>
<polyline fill="none" stroke="black" points="1259,-460 1387,-460 "/>
<text text-anchor="start" x="1267" y="-448" font-family="Helvetica,sans-Serif" font-size="10.00">&#45; mCellCount</text>
<polyline fill="none" stroke="black" points="1259,-441 1387,-441 "/>
<text text-anchor="start" x="1267" y="-429" font-family="Helvetica,sans-Serif" font-size="10.00">+ AbstractCellProperty()</text>
<text text-anchor="start" x="1267" y="-418" font-family="Helvetica,sans-Serif" font-size="10.00">+ ~AbstractCellProperty()</text>
<text text-anchor="start" x="1267" y="-407" font-family="Helvetica,sans-Serif" font-size="10.00">+ IsType()</text>
<text text-anchor="start" x="1267" y="-396" font-family="Helvetica,sans-Serif" font-size="10.00">+ IsSubType()</text>
<text text-anchor="start" x="1267" y="-385" font-family="Helvetica,sans-Serif" font-size="10.00">+ IsSame()</text>
<text text-anchor="start" x="1267" y="-374" font-family="Helvetica,sans-Serif" font-size="10.00">+ IsSame()</text>
<text text-anchor="start" x="1267" y="-363" font-family="Helvetica,sans-Serif" font-size="10.00">+ IncrementCellCount()</text>
<text text-anchor="start" x="1267" y="-352" font-family="Helvetica,sans-Serif" font-size="10.00">+ DecrementCellCount()</text>
<text text-anchor="start" x="1267" y="-341" font-family="Helvetica,sans-Serif" font-size="10.00">+ GetCellCount()</text>
<text text-anchor="start" x="1267" y="-330" font-family="Helvetica,sans-Serif" font-size="10.00">&#45; serialize()</text>
</g>
<!-- Node3 -->
<g id="node3" class="node"><title>Node3</title>
<g id="a_node3"><a xlink:href="classAbstractCellMutationState.html" target="_top" xlink:title="{AbstractCellMutationState\n|&#45; mColour\l|+ AbstractCellMutationState()\l+ ~AbstractCellMutationState()\l+ GetColour()\l&#45; serialize()\l&#45; AbstractCellMutationState()\l}">
<polygon fill="white" stroke="black" points="359,-156.5 359,-257.5 511,-257.5 511,-156.5 359,-156.5"/>
<text text-anchor="middle" x="435" y="-245.5" font-family="Helvetica,sans-Serif" font-size="10.00">AbstractCellMutationState</text>
<polyline fill="none" stroke="black" points="359,-238.5 511,-238.5 "/>
<text text-anchor="start" x="367" y="-226.5" font-family="Helvetica,sans-Serif" font-size="10.00">&#45; mColour</text>
<polyline fill="none" stroke="black" points="359,-219.5 511,-219.5 "/>
<text text-anchor="start" x="367" y="-207.5" font-family="Helvetica,sans-Serif" font-size="10.00">+ AbstractCellMutationState()</text>
<text text-anchor="start" x="367" y="-196.5" font-family="Helvetica,sans-Serif" font-size="10.00">+ ~AbstractCellMutationState()</text>
<text text-anchor="start" x="367" y="-185.5" font-family="Helvetica,sans-Serif" font-size="10.00">+ GetColour()</text>
<text text-anchor="start" x="367" y="-174.5" font-family="Helvetica,sans-Serif" font-size="10.00">&#45; serialize()</text>
<text text-anchor="start" x="367" y="-163.5" font-family="Helvetica,sans-Serif" font-size="10.00">&#45; AbstractCellMutationState()</text>
</a>
</g>
</g>
<!-- Node1&#45;&gt;Node3 -->
<g id="edge2" class="edge"><title>Node1&#45;&gt;Node3</title>
<path fill="none" stroke="midnightblue" d="M1248.62,-383.918C1081.88,-347.866 679.637,-260.894 511.197,-224.475"/>
<polygon fill="none" stroke="midnightblue" points="1248.27,-387.422 1258.78,-386.115 1249.75,-380.58 1248.27,-387.422"/>
</g>
<!-- Node8 -->
<g id="node8" class="node"><title>Node8</title>
<g id="a_node8"><a xlink:href="classAbstractCellProliferativeType.html" target="_top" xlink:title="{AbstractCellProliferativeType\n|&#45; mColour\l|+ AbstractCellProliferativeType()\l+ ~AbstractCellProliferativeType()\l+ GetColour()\l&#45; serialize()\l&#45; AbstractCellProliferativeType()\l}">
<polygon fill="white" stroke="black" points="885.5,-156.5 885.5,-257.5 1050.5,-257.5 1050.5,-156.5 885.5,-156.5"/>
<text text-anchor="middle" x="968" y="-245.5" font-family="Helvetica,sans-Serif" font-size="10.00">AbstractCellProliferativeType</text>
<polyline fill="none" stroke="black" points="885.5,-238.5 1050.5,-238.5 "/>
<text text-anchor="start" x="893.5" y="-226.5" font-family="Helvetica,sans-Serif" font-size="10.00">&#45; mColour</text>
<polyline fill="none" stroke="black" points="885.5,-219.5 1050.5,-219.5 "/>
<text text-anchor="start" x="893.5" y="-207.5" font-family="Helvetica,sans-Serif" font-size="10.00">+ AbstractCellProliferativeType()</text>
<text text-anchor="start" x="893.5" y="-196.5" font-family="Helvetica,sans-Serif" font-size="10.00">+ ~AbstractCellProliferativeType()</text>
<text text-anchor="start" x="893.5" y="-185.5" font-family="Helvetica,sans-Serif" font-size="10.00">+ GetColour()</text>
<text text-anchor="start" x="893.5" y="-174.5" font-family="Helvetica,sans-Serif" font-size="10.00">&#45; serialize()</text>
<text text-anchor="start" x="893.5" y="-163.5" font-family="Helvetica,sans-Serif" font-size="10.00">&#45; AbstractCellProliferativeType()</text>
</a>
</g>
</g>
<!-- Node1&#45;&gt;Node8 -->
<g id="edge7" class="edge"><title>Node1&#45;&gt;Node8</title>
<path fill="none" stroke="midnightblue" d="M1249.13,-374.94C1194.5,-354.811 1119.42,-323.725 1059,-286 1045.94,-277.845 1032.82,-267.888 1020.78,-257.851"/>
<polygon fill="none" stroke="midnightblue" points="1248.15,-378.307 1258.74,-378.446 1250.55,-371.731 1248.15,-378.307"/>
</g>
<!-- Node13 -->
<g id="node13" class="node"><title>Node13</title>
<g id="a_node13"><a xlink:href="classApoptoticCellProperty.html" target="_top" xlink:title="{ApoptoticCellProperty\n|&#45; mColour\l|+ ApoptoticCellProperty()\l+ ~ApoptoticCellProperty()\l+ GetColour()\l&#45; serialize()\l}">
<polygon fill="white" stroke="black" points="1068.5,-162 1068.5,-252 1201.5,-252 1201.5,-162 1068.5,-162"/>
<text text-anchor="middle" x="1135" y="-240" font-family="Helvetica,sans-Serif" font-size="10.00">ApoptoticCellProperty</text>
<polyline fill="none" stroke="black" points="1068.5,-233 1201.5,-233 "/>
<text text-anchor="start" x="1076.5" y="-221" font-family="Helvetica,sans-Serif" font-size="10.00">&#45; mColour</text>
<polyline fill="none" stroke="black" points="1068.5,-214 1201.5,-214 "/>
<text text-anchor="start" x="1076.5" y="-202" font-family="Helvetica,sans-Serif" font-size="10.00">+ ApoptoticCellProperty()</text>
<text text-anchor="start" x="1076.5" y="-191" font-family="Helvetica,sans-Serif" font-size="10.00">+ ~ApoptoticCellProperty()</text>
<text text-anchor="start" x="1076.5" y="-180" font-family="Helvetica,sans-Serif" font-size="10.00">+ GetColour()</text>
<text text-anchor="start" x="1076.5" y="-169" font-family="Helvetica,sans-Serif" font-size="10.00">&#45; serialize()</text>
</a>
</g>
</g>
<!-- Node1&#45;&gt;Node13 -->
<g id="edge12" class="edge"><title>Node1&#45;&gt;Node13</title>
<path fill="none" stroke="midnightblue" d="M1251.93,-327.752C1238.33,-313.903 1224.22,-299.51 1211,-286 1200.29,-275.053 1188.75,-263.225 1177.97,-252.169"/>
<polygon fill="none" stroke="midnightblue" points="1249.48,-330.255 1258.99,-334.937 1254.48,-325.35 1249.48,-330.255"/>
</g>
<!-- Node14 -->
<g id="node14" class="node"><title>Node14</title>
<g id="a_node14"><a xlink:href="classCellAncestor.html" target="_top" xlink:title="{CellAncestor\n|&#45; mAncestor\l|+ CellAncestor()\l+ ~CellAncestor()\l+ GetAncestor()\l&#45; serialize()\l}">
<polygon fill="white" stroke="black" points="1220,-162 1220,-252 1314,-252 1314,-162 1220,-162"/>
<text text-anchor="middle" x="1267" y="-240" font-family="Helvetica,sans-Serif" font-size="10.00">CellAncestor</text>
<polyline fill="none" stroke="black" points="1220,-233 1314,-233 "/>
<text text-anchor="start" x="1228" y="-221" font-family="Helvetica,sans-Serif" font-size="10.00">&#45; mAncestor</text>
<polyline fill="none" stroke="black" points="1220,-214 1314,-214 "/>
<text text-anchor="start" x="1228" y="-202" font-family="Helvetica,sans-Serif" font-size="10.00">+ CellAncestor()</text>
<text text-anchor="start" x="1228" y="-191" font-family="Helvetica,sans-Serif" font-size="10.00">+ ~CellAncestor()</text>
<text text-anchor="start" x="1228" y="-180" font-family="Helvetica,sans-Serif" font-size="10.00">+ GetAncestor()</text>
<text text-anchor="start" x="1228" y="-169" font-family="Helvetica,sans-Serif" font-size="10.00">&#45; serialize()</text>
</a>
</g>
</g>
<!-- Node1&#45;&gt;Node14 -->
<g id="edge13" class="edge"><title>Node1&#45;&gt;Node14</title>
<path fill="none" stroke="midnightblue" d="M1297.66,-313.116C1291.52,-292.055 1285.2,-270.404 1279.91,-252.266"/>
<polygon fill="none" stroke="midnightblue" points="1294.3,-314.116 1300.46,-322.736 1301.02,-312.156 1294.3,-314.116"/>
</g>
<!-- Node15 -->
<g id="node15" class="node"><title>Node15</title>
<g id="a_node15"><a xlink:href="classCellData.html" target="_top" xlink:title="{CellData\n|&#45; mCellData\l|+ ~CellData()\l+ SetItem()\l+ GetItem()\l+ GetNumItems()\l+ GetKeys()\l&#45; serialize()\l}">
<polygon fill="white" stroke="black" points="1332.5,-151 1332.5,-263 1425.5,-263 1425.5,-151 1332.5,-151"/>
<text text-anchor="middle" x="1379" y="-251" font-family="Helvetica,sans-Serif" font-size="10.00">CellData</text>
<polyline fill="none" stroke="black" points="1332.5,-244 1425.5,-244 "/>
<text text-anchor="start" x="1340.5" y="-232" font-family="Helvetica,sans-Serif" font-size="10.00">&#45; mCellData</text>
<polyline fill="none" stroke="black" points="1332.5,-225 1425.5,-225 "/>
<text text-anchor="start" x="1340.5" y="-213" font-family="Helvetica,sans-Serif" font-size="10.00">+ ~CellData()</text>
<text text-anchor="start" x="1340.5" y="-202" font-family="Helvetica,sans-Serif" font-size="10.00">+ SetItem()</text>
<text text-anchor="start" x="1340.5" y="-191" font-family="Helvetica,sans-Serif" font-size="10.00">+ GetItem()</text>
<text text-anchor="start" x="1340.5" y="-180" font-family="Helvetica,sans-Serif" font-size="10.00">+ GetNumItems()</text>
<text text-anchor="start" x="1340.5" y="-169" font-family="Helvetica,sans-Serif" font-size="10.00">+ GetKeys()</text>
<text text-anchor="start" x="1340.5" y="-158" font-family="Helvetica,sans-Serif" font-size="10.00">&#45; serialize()</text>
</a>
</g>
</g>
<!-- Node1&#45;&gt;Node15 -->
<g id="edge14" class="edge"><title>Node1&#45;&gt;Node15</title>
<path fill="none" stroke="midnightblue" d="M1348.41,-312.866C1353.33,-296.003 1358.36,-278.772 1362.88,-263.278"/>
<polygon fill="none" stroke="midnightblue" points="1344.98,-312.156 1345.54,-322.736 1351.7,-314.116 1344.98,-312.156"/>
</g>
<!-- Node16 -->
<g id="node16" class="node"><title>Node16</title>
<g id="a_node16"><a xlink:href="classCellId.html" target="_top" xlink:title="{CellId\n|&#45; mCellId\l&#45; mMaxCellId\l|+ CellId()\l+ ~CellId()\l+ AssignCellId()\l+ GetMaxCellId()\l+ GetCellId()\l+ ResetMaxCellId()\l&#45; serialize()\l}">
<polygon fill="white" stroke="black" points="1443,-140 1443,-274 1545,-274 1545,-140 1443,-140"/>
<text text-anchor="middle" x="1494" y="-262" font-family="Helvetica,sans-Serif" font-size="10.00">CellId</text>
<polyline fill="none" stroke="black" points="1443,-255 1545,-255 "/>
<text text-anchor="start" x="1451" y="-243" font-family="Helvetica,sans-Serif" font-size="10.00">&#45; mCellId</text>
<text text-anchor="start" x="1451" y="-232" font-family="Helvetica,sans-Serif" font-size="10.00">&#45; mMaxCellId</text>
<polyline fill="none" stroke="black" points="1443,-225 1545,-225 "/>
<text text-anchor="start" x="1451" y="-213" font-family="Helvetica,sans-Serif" font-size="10.00">+ CellId()</text>
<text text-anchor="start" x="1451" y="-202" font-family="Helvetica,sans-Serif" font-size="10.00">+ ~CellId()</text>
<text text-anchor="start" x="1451" y="-191" font-family="Helvetica,sans-Serif" font-size="10.00">+ AssignCellId()</text>
<text text-anchor="start" x="1451" y="-180" font-family="Helvetica,sans-Serif" font-size="10.00">+ GetMaxCellId()</text>
<text text-anchor="start" x="1451" y="-169" font-family="Helvetica,sans-Serif" font-size="10.00">+ GetCellId()</text>
<text text-anchor="start" x="1451" y="-158" font-family="Helvetica,sans-Serif" font-size="10.00">+ ResetMaxCellId()</text>
<text text-anchor="start" x="1451" y="-147" font-family="Helvetica,sans-Serif" font-size="10.00">&#45; serialize()</text>
</a>
</g>
</g>
<!-- Node1&#45;&gt;Node16 -->
<g id="edge15" class="edge"><title>Node1&#45;&gt;Node16</title>
<path fill="none" stroke="midnightblue" d="M1394.19,-329.428C1407.71,-315.318 1421.52,-300.401 1434,-286 1437.24,-282.255 1440.52,-278.358 1443.79,-274.391"/>
<polygon fill="none" stroke="midnightblue" points="1391.58,-327.097 1387.16,-336.725 1396.62,-331.955 1391.58,-327.097"/>
</g>
<!-- Node17 -->
<g id="node17" class="node"><title>Node17</title>
<g id="a_node17"><a xlink:href="classCellLabel.html" target="_top" xlink:title="{CellLabel\n|# mColour\l|+ CellLabel()\l+ ~CellLabel()\l+ GetColour()\l&#45; serialize()\l}">
<polygon fill="white" stroke="black" points="1563,-162 1563,-252 1641,-252 1641,-162 1563,-162"/>
<text text-anchor="middle" x="1602" y="-240" font-family="Helvetica,sans-Serif" font-size="10.00">CellLabel</text>
<polyline fill="none" stroke="black" points="1563,-233 1641,-233 "/>
<text text-anchor="start" x="1571" y="-221" font-family="Helvetica,sans-Serif" font-size="10.00"># mColour</text>
<polyline fill="none" stroke="black" points="1563,-214 1641,-214 "/>
<text text-anchor="start" x="1571" y="-202" font-family="Helvetica,sans-Serif" font-size="10.00">+ CellLabel()</text>
<text text-anchor="start" x="1571" y="-191" font-family="Helvetica,sans-Serif" font-size="10.00">+ ~CellLabel()</text>
<text text-anchor="start" x="1571" y="-180" font-family="Helvetica,sans-Serif" font-size="10.00">+ GetColour()</text>
<text text-anchor="start" x="1571" y="-169" font-family="Helvetica,sans-Serif" font-size="10.00">&#45; serialize()</text>
</a>
</g>
</g>
<!-- Node1&#45;&gt;Node17 -->
<g id="edge16" class="edge"><title>Node1&#45;&gt;Node17</title>
<path fill="none" stroke="midnightblue" d="M1396.66,-375.492C1445.14,-356.66 1507.75,-326.907 1553,-286 1563.56,-276.455 1572.7,-264.12 1580.13,-252.087"/>
<polygon fill="none" stroke="midnightblue" points="1395.26,-372.28 1387.17,-379.113 1397.76,-378.821 1395.26,-372.28"/>
</g>
<!-- Node18 -->
<g id="node18" class="node"><title>Node18</title>
<g id="a_node18"><a xlink:href="classCellVecData.html" target="_top" xlink:title="{CellVecData\n|&#45; mCellVecData\l&#45; mFreeVecs\l|+ CellVecData()\l+ CellVecData()\l+ CellVecData()\l+ ~CellVecData()\l+ SetItem()\l+ GetItem()\l+ GetNumItems()\l+ GetKeys()\l&#45; serialize()\l}">
<polygon fill="white" stroke="black" points="1659.5,-129 1659.5,-285 1752.5,-285 1752.5,-129 1659.5,-129"/>
<text text-anchor="middle" x="1706" y="-273" font-family="Helvetica,sans-Serif" font-size="10.00">CellVecData</text>
<polyline fill="none" stroke="black" points="1659.5,-266 1752.5,-266 "/>
<text text-anchor="start" x="1667.5" y="-254" font-family="Helvetica,sans-Serif" font-size="10.00">&#45; mCellVecData</text>
<text text-anchor="start" x="1667.5" y="-243" font-family="Helvetica,sans-Serif" font-size="10.00">&#45; mFreeVecs</text>
<polyline fill="none" stroke="black" points="1659.5,-236 1752.5,-236 "/>
<text text-anchor="start" x="1667.5" y="-224" font-family="Helvetica,sans-Serif" font-size="10.00">+ CellVecData()</text>
<text text-anchor="start" x="1667.5" y="-213" font-family="Helvetica,sans-Serif" font-size="10.00">+ CellVecData()</text>
<text text-anchor="start" x="1667.5" y="-202" font-family="Helvetica,sans-Serif" font-size="10.00">+ CellVecData()</text>
<text text-anchor="start" x="1667.5" y="-191" font-family="Helvetica,sans-Serif" font-size="10.00">+ ~CellVecData()</text>
<text text-anchor="start" x="1667.5" y="-180" font-family="Helvetica,sans-Serif" font-size="10.00">+ SetItem()</text>
<text text-anchor="start" x="1667.5" y="-169" font-family="Helvetica,sans-Serif" font-size="10.00">+ GetItem()</text>
<text text-anchor="start" x="1667.5" y="-158" font-family="Helvetica,sans-Serif" font-size="10.00">+ GetNumItems()</text>
<text text-anchor="start" x="1667.5" y="-147" font-family="Helvetica,sans-Serif" font-size="10.00">+ GetKeys()</text>
<text text-anchor="start" x="1667.5" y="-136" font-family="Helvetica,sans-Serif" font-size="10.00">&#45; serialize()</text>
</a>
</g>
</g>
<!-- Node1&#45;&gt;Node18 -->
<g id="edge17" class="edge"><title>Node1&#45;&gt;Node18</title>
<path fill="none" stroke="midnightblue" d="M1397.29,-387.533C1467.85,-372.773 1574.15,-342.687 1650,-286 1653.2,-283.605 1656.3,-280.973 1659.28,-278.171"/>
<polygon fill="none" stroke="midnightblue" points="1396.24,-384.174 1387.14,-389.601 1397.64,-391.033 1396.24,-384.174"/>
</g>
<!-- Node2 -->
<g id="node2" class="node"><title>Node2</title>
<g id="a_node2"><a xlink:href="classIdentifiable.html" target="_top" xlink:title="{Identifiable\n||+ ~Identifiable()\l+ GetIdentifier()\l&#45; TidyTemplatedExportIdentifier()\l}">
<polygon fill="white" stroke="black" points="1243.5,-516.5 1243.5,-595.5 1402.5,-595.5 1402.5,-516.5 1243.5,-516.5"/>
<text text-anchor="middle" x="1323" y="-583.5" font-family="Helvetica,sans-Serif" font-size="10.00">Identifiable</text>
<polyline fill="none" stroke="black" points="1243.5,-576.5 1402.5,-576.5 "/>
<text text-anchor="middle" x="1323" y="-564.5" font-family="Helvetica,sans-Serif" font-size="10.00"> </text>
<polyline fill="none" stroke="black" points="1243.5,-557.5 1402.5,-557.5 "/>
<text text-anchor="start" x="1251.5" y="-545.5" font-family="Helvetica,sans-Serif" font-size="10.00">+ ~Identifiable()</text>
<text text-anchor="start" x="1251.5" y="-534.5" font-family="Helvetica,sans-Serif" font-size="10.00">+ GetIdentifier()</text>
<text text-anchor="start" x="1251.5" y="-523.5" font-family="Helvetica,sans-Serif" font-size="10.00">&#45; TidyTemplatedExportIdentifier()</text>
</a>
</g>
</g>
<!-- Node2&#45;&gt;Node1 -->
<g id="edge1" class="edge"><title>Node2&#45;&gt;Node1</title>
<path fill="none" stroke="midnightblue" d="M1323,-506.147C1323,-497.497 1323,-488.302 1323,-479.095"/>
<polygon fill="none" stroke="midnightblue" points="1319.5,-506.392 1323,-516.392 1326.5,-506.392 1319.5,-506.392"/>
</g>
<!-- Node4 -->
<g id="node4" class="node"><title>Node4</title>
<g id="a_node4"><a xlink:href="classApcOneHitCellMutationState.html" target="_top" xlink:title="{ApcOneHitCellMutationState\n||+ ApcOneHitCellMutationState()\l&#45; serialize()\l}">
<polygon fill="white" stroke="black" points="0,-12 0,-80 158,-80 158,-12 0,-12"/>
<text text-anchor="middle" x="79" y="-68" font-family="Helvetica,sans-Serif" font-size="10.00">ApcOneHitCellMutationState</text>
<polyline fill="none" stroke="black" points="0,-61 158,-61 "/>
<text text-anchor="middle" x="79" y="-49" font-family="Helvetica,sans-Serif" font-size="10.00"> </text>
<polyline fill="none" stroke="black" points="0,-42 158,-42 "/>
<text text-anchor="start" x="8" y="-30" font-family="Helvetica,sans-Serif" font-size="10.00">+ ApcOneHitCellMutationState()</text>
<text text-anchor="start" x="8" y="-19" font-family="Helvetica,sans-Serif" font-size="10.00">&#45; serialize()</text>
</a>
</g>
</g>
<!-- Node3&#45;&gt;Node4 -->
<g id="edge3" class="edge"><title>Node3&#45;&gt;Node4</title>
<path fill="none" stroke="midnightblue" d="M349.633,-171.489C296.647,-149.625 227.382,-120.238 167,-92 159.073,-88.2927 150.811,-84.2766 142.664,-80.2219"/>
<polygon fill="none" stroke="midnightblue" points="348.416,-174.773 358.996,-175.344 351.082,-168.3 348.416,-174.773"/>
</g>
<!-- Node5 -->
<g id="node5" class="node"><title>Node5</title>
<g id="a_node5"><a xlink:href="classApcTwoHitCellMutationState.html" target="_top" xlink:title="{ApcTwoHitCellMutationState\n||+ ApcTwoHitCellMutationState()\l&#45; serialize()\l}">
<polygon fill="white" stroke="black" points="176,-12 176,-80 334,-80 334,-12 176,-12"/>
<text text-anchor="middle" x="255" y="-68" font-family="Helvetica,sans-Serif" font-size="10.00">ApcTwoHitCellMutationState</text>
<polyline fill="none" stroke="black" points="176,-61 334,-61 "/>
<text text-anchor="middle" x="255" y="-49" font-family="Helvetica,sans-Serif" font-size="10.00"> </text>
<polyline fill="none" stroke="black" points="176,-42 334,-42 "/>
<text text-anchor="start" x="184" y="-30" font-family="Helvetica,sans-Serif" font-size="10.00">+ ApcTwoHitCellMutationState()</text>
<text text-anchor="start" x="184" y="-19" font-family="Helvetica,sans-Serif" font-size="10.00">&#45; serialize()</text>
</a>
</g>
</g>
<!-- Node3&#45;&gt;Node5 -->
<g id="edge4" class="edge"><title>Node3&#45;&gt;Node5</title>
<path fill="none" stroke="midnightblue" d="M370.869,-149.351C344.613,-126.158 315.148,-100.131 292.501,-80.126"/>
<polygon fill="none" stroke="midnightblue" points="368.729,-152.13 378.541,-156.128 373.363,-146.884 368.729,-152.13"/>
</g>
<!-- Node6 -->
<g id="node6" class="node"><title>Node6</title>
<g id="a_node6"><a xlink:href="classBetaCateninOneHitCellMutationState.html" target="_top" xlink:title="{BetaCateninOneHitCellMutation\lState\n||+ BetaCateninOneHitCellMutation\lState()\l&#45; serialize()\l}">
<polygon fill="white" stroke="black" points="352.5,-1 352.5,-91 517.5,-91 517.5,-1 352.5,-1"/>
<text text-anchor="start" x="360.5" y="-79" font-family="Helvetica,sans-Serif" font-size="10.00">BetaCateninOneHitCellMutation</text>
<text text-anchor="middle" x="435" y="-68" font-family="Helvetica,sans-Serif" font-size="10.00">State</text>
<polyline fill="none" stroke="black" points="352.5,-61 517.5,-61 "/>
<text text-anchor="middle" x="435" y="-49" font-family="Helvetica,sans-Serif" font-size="10.00"> </text>
<polyline fill="none" stroke="black" points="352.5,-42 517.5,-42 "/>
<text text-anchor="start" x="360.5" y="-30" font-family="Helvetica,sans-Serif" font-size="10.00">+ BetaCateninOneHitCellMutation</text>
<text text-anchor="start" x="360.5" y="-19" font-family="Helvetica,sans-Serif" font-size="10.00">State()</text>
<text text-anchor="start" x="360.5" y="-8" font-family="Helvetica,sans-Serif" font-size="10.00">&#45; serialize()</text>
</a>
</g>
</g>
<!-- Node3&#45;&gt;Node6 -->
<g id="edge5" class="edge"><title>Node3&#45;&gt;Node6</title>
<path fill="none" stroke="midnightblue" d="M435,-145.892C435,-127.673 435,-108.008 435,-91.0487"/>
<polygon fill="none" stroke="midnightblue" points="431.5,-146.128 435,-156.128 438.5,-146.128 431.5,-146.128"/>
</g>
<!-- Node7 -->
<g id="node7" class="node"><title>Node7</title>
<g id="a_node7"><a xlink:href="classWildTypeCellMutationState.html" target="_top" xlink:title="{WildTypeCellMutationState\n||+ WildTypeCellMutationState()\l&#45; serialize()\l}">
<polygon fill="white" stroke="black" points="535.5,-12 535.5,-80 686.5,-80 686.5,-12 535.5,-12"/>
<text text-anchor="middle" x="611" y="-68" font-family="Helvetica,sans-Serif" font-size="10.00">WildTypeCellMutationState</text>
<polyline fill="none" stroke="black" points="535.5,-61 686.5,-61 "/>
<text text-anchor="middle" x="611" y="-49" font-family="Helvetica,sans-Serif" font-size="10.00"> </text>
<polyline fill="none" stroke="black" points="535.5,-42 686.5,-42 "/>
<text text-anchor="start" x="543.5" y="-30" font-family="Helvetica,sans-Serif" font-size="10.00">+ WildTypeCellMutationState()</text>
<text text-anchor="start" x="543.5" y="-19" font-family="Helvetica,sans-Serif" font-size="10.00">&#45; serialize()</text>
</a>
</g>
</g>
<!-- Node3&#45;&gt;Node7 -->
<g id="edge6" class="edge"><title>Node3&#45;&gt;Node7</title>
<path fill="none" stroke="midnightblue" d="M497.706,-149.351C523.378,-126.158 552.189,-100.131 574.332,-80.126"/>
<polygon fill="none" stroke="midnightblue" points="495.279,-146.827 490.205,-156.128 499.971,-152.021 495.279,-146.827"/>
</g>
<!-- Node9 -->
<g id="node9" class="node"><title>Node9</title>
<g id="a_node9"><a xlink:href="classDefaultCellProliferativeType.html" target="_top" xlink:title="{DefaultCellProliferativeType\n||+ DefaultCellProliferativeType()\l&#45; serialize()\l}">
<polygon fill="white" stroke="black" points="705,-12 705,-80 859,-80 859,-12 705,-12"/>
<text text-anchor="middle" x="782" y="-68" font-family="Helvetica,sans-Serif" font-size="10.00">DefaultCellProliferativeType</text>
<polyline fill="none" stroke="black" points="705,-61 859,-61 "/>
<text text-anchor="middle" x="782" y="-49" font-family="Helvetica,sans-Serif" font-size="10.00"> </text>
<polyline fill="none" stroke="black" points="705,-42 859,-42 "/>
<text text-anchor="start" x="713" y="-30" font-family="Helvetica,sans-Serif" font-size="10.00">+ DefaultCellProliferativeType()</text>
<text text-anchor="start" x="713" y="-19" font-family="Helvetica,sans-Serif" font-size="10.00">&#45; serialize()</text>
</a>
</g>
</g>
<!-- Node8&#45;&gt;Node9 -->
<g id="edge8" class="edge"><title>Node8&#45;&gt;Node9</title>
<path fill="none" stroke="midnightblue" d="M901.981,-149.564C874.828,-126.353 844.317,-100.271 820.857,-80.2167"/>
<polygon fill="none" stroke="midnightblue" points="900.038,-152.508 909.914,-156.345 904.587,-147.187 900.038,-152.508"/>
</g>
<!-- Node10 -->
<g id="node10" class="node"><title>Node10</title>
<g id="a_node10"><a xlink:href="classDifferentiatedCellProliferativeType.html" target="_top" xlink:title="{DifferentiatedCellProliferativeType\n||+ DifferentiatedCellProliferativeType()\l&#45; serialize()\l}">
<polygon fill="white" stroke="black" points="877.5,-12 877.5,-80 1058.5,-80 1058.5,-12 877.5,-12"/>
<text text-anchor="middle" x="968" y="-68" font-family="Helvetica,sans-Serif" font-size="10.00">DifferentiatedCellProliferativeType</text>
<polyline fill="none" stroke="black" points="877.5,-61 1058.5,-61 "/>
<text text-anchor="middle" x="968" y="-49" font-family="Helvetica,sans-Serif" font-size="10.00"> </text>
<polyline fill="none" stroke="black" points="877.5,-42 1058.5,-42 "/>
<text text-anchor="start" x="885.5" y="-30" font-family="Helvetica,sans-Serif" font-size="10.00">+ DifferentiatedCellProliferativeType()</text>
<text text-anchor="start" x="885.5" y="-19" font-family="Helvetica,sans-Serif" font-size="10.00">&#45; serialize()</text>
</a>
</g>
</g>
<!-- Node8&#45;&gt;Node10 -->
<g id="edge9" class="edge"><title>Node8&#45;&gt;Node10</title>
<path fill="none" stroke="midnightblue" d="M968,-146.048C968,-123.714 968,-99.1861 968,-80.126"/>
<polygon fill="none" stroke="midnightblue" points="964.5,-146.128 968,-156.128 971.5,-146.128 964.5,-146.128"/>
</g>
<!-- Node11 -->
<g id="node11" class="node"><title>Node11</title>
<g id="a_node11"><a xlink:href="classStemCellProliferativeType.html" target="_top" xlink:title="{StemCellProliferativeType\n||+ StemCellProliferativeType()\l&#45; serialize()\l}">
<polygon fill="white" stroke="black" points="1077,-12 1077,-80 1223,-80 1223,-12 1077,-12"/>
<text text-anchor="middle" x="1150" y="-68" font-family="Helvetica,sans-Serif" font-size="10.00">StemCellProliferativeType</text>
<polyline fill="none" stroke="black" points="1077,-61 1223,-61 "/>
<text text-anchor="middle" x="1150" y="-49" font-family="Helvetica,sans-Serif" font-size="10.00"> </text>
<polyline fill="none" stroke="black" points="1077,-42 1223,-42 "/>
<text text-anchor="start" x="1085" y="-30" font-family="Helvetica,sans-Serif" font-size="10.00">+ StemCellProliferativeType()</text>
<text text-anchor="start" x="1085" y="-19" font-family="Helvetica,sans-Serif" font-size="10.00">&#45; serialize()</text>
</a>
</g>
</g>
<!-- Node8&#45;&gt;Node11 -->
<g id="edge10" class="edge"><title>Node8&#45;&gt;Node11</title>
<path fill="none" stroke="midnightblue" d="M1032.84,-149.351C1059.39,-126.158 1089.18,-100.131 1112.08,-80.126"/>
<polygon fill="none" stroke="midnightblue" points="1030.31,-146.913 1025.09,-156.128 1034.92,-152.184 1030.31,-146.913"/>
</g>
<!-- Node12 -->
<g id="node12" class="node"><title>Node12</title>
<g id="a_node12"><a xlink:href="classTransitCellProliferativeType.html" target="_top" xlink:title="{TransitCellProliferativeType\n||+ TransitCellProliferativeType()\l&#45; serialize()\l}">
<polygon fill="white" stroke="black" points="1241,-12 1241,-80 1393,-80 1393,-12 1241,-12"/>
<text text-anchor="middle" x="1317" y="-68" font-family="Helvetica,sans-Serif" font-size="10.00">TransitCellProliferativeType</text>
<polyline fill="none" stroke="black" points="1241,-61 1393,-61 "/>
<text text-anchor="middle" x="1317" y="-49" font-family="Helvetica,sans-Serif" font-size="10.00"> </text>
<polyline fill="none" stroke="black" points="1241,-42 1393,-42 "/>
<text text-anchor="start" x="1249" y="-30" font-family="Helvetica,sans-Serif" font-size="10.00">+ TransitCellProliferativeType()</text>
<text text-anchor="start" x="1249" y="-19" font-family="Helvetica,sans-Serif" font-size="10.00">&#45; serialize()</text>
</a>
</g>
</g>
<!-- Node8&#45;&gt;Node12 -->
<g id="edge11" class="edge"><title>Node8&#45;&gt;Node12</title>
<path fill="none" stroke="midnightblue" d="M1025.14,-149.689C1035.77,-141.432 1047.24,-133.779 1059,-128 1129.48,-93.3527 1158.12,-118.637 1232,-92 1241.11,-88.7153 1250.46,-84.6092 1259.46,-80.2223"/>
<polygon fill="none" stroke="midnightblue" points="1022.78,-147.098 1017.19,-156.1 1027.18,-152.547 1022.78,-147.098"/>
</g>
</g>
</svg>
