<?xml version="1.0" encoding="UTF-8" standalone="no"?>
<!DOCTYPE svg PUBLIC "-//W3C//DTD SVG 1.1//EN"
 "http://www.w3.org/Graphics/SVG/1.1/DTD/svg11.dtd">
<!-- Generated by graphviz version 2.36.0 (20140111.2315)
 -->
<!-- Title: MassMatrixAssembler&lt; ELEMENT_DIM, SPACE_DIM &gt; Pages: 1 -->
<svg width="958pt" height="1202pt"
 viewBox="0.00 0.00 958.00 1202.00" xmlns="http://www.w3.org/2000/svg" xmlns:xlink="http://www.w3.org/1999/xlink">
<g id="graph0" class="graph" transform="scale(1 1) rotate(0) translate(4 1198)">
<title>MassMatrixAssembler&lt; ELEMENT_DIM, SPACE_DIM &gt;</title>
<polygon fill="white" stroke="none" points="-4,4 -4,-1198 954,-1198 954,4 -4,4"/>
<!-- Node1 -->
<g id="node1" class="node"><title>Node1</title>
<polygon fill="#bfbfbf" stroke="black" points="190,-0.5 190,-79.5 360,-79.5 360,-0.5 190,-0.5"/>
<text text-anchor="start" x="198" y="-67.5" font-family="Helvetica,sans-Serif" font-size="10.00">MassMatrixAssembler</text>
<text text-anchor="middle" x="275" y="-56.5" font-family="Helvetica,sans-Serif" font-size="10.00">&lt; ELEMENT_DIM, SPACE_DIM &gt;</text>
<polyline fill="none" stroke="black" points="190,-49.5 360,-49.5 "/>
<text text-anchor="middle" x="275" y="-37.5" font-family="Helvetica,sans-Serif" font-size="10.00"> </text>
<polyline fill="none" stroke="black" points="190,-30.5 360,-30.5 "/>
<text text-anchor="start" x="198" y="-18.5" font-family="Helvetica,sans-Serif" font-size="10.00">+ ComputeMatrixTerm()</text>
<text text-anchor="start" x="198" y="-7.5" font-family="Helvetica,sans-Serif" font-size="10.00">+ MassMatrixAssembler()</text>
</g>
<!-- Node2 -->
<g id="node2" class="node"><title>Node2</title>
<g id="a_node2"><a xlink:href="classAbstractFeVolumeIntegralAssembler.html" target="_top" xlink:title="{AbstractFeVolumeIntegral\lAssembler\&lt; ELEMENT_DIM,\l SPACE_DIM, 1, false, true,\l NORMAL \&gt;\n||+ AbstractFeVolumeIntegral\lAssembler()\l+ ~AbstractFeVolumeIntegral\lAssembler()\l# ComputeTransformedBasisFunction\lDerivatives()\l# DoAssemble()\l# ComputeMatrixTerm()\l# ComputeVectorTerm()\l# AssembleOnElement()\l# ElementAssemblyCriterion()\l}">
<polygon fill="white" stroke="black" points="184,-119 184,-319 366,-319 366,-119 184,-119"/>
<text text-anchor="start" x="192" y="-307" font-family="Helvetica,sans-Serif" font-size="10.00">AbstractFeVolumeIntegral</text>
<text text-anchor="start" x="192" y="-296" font-family="Helvetica,sans-Serif" font-size="10.00">Assembler&lt; ELEMENT_DIM,</text>
<text text-anchor="start" x="192" y="-285" font-family="Helvetica,sans-Serif" font-size="10.00"> SPACE_DIM, 1, false, true,</text>
<text text-anchor="middle" x="275" y="-274" font-family="Helvetica,sans-Serif" font-size="10.00"> NORMAL &gt;</text>
<polyline fill="none" stroke="black" points="184,-267 366,-267 "/>
<text text-anchor="middle" x="275" y="-255" font-family="Helvetica,sans-Serif" font-size="10.00"> </text>
<polyline fill="none" stroke="black" points="184,-248 366,-248 "/>
<text text-anchor="start" x="192" y="-236" font-family="Helvetica,sans-Serif" font-size="10.00">+ AbstractFeVolumeIntegral</text>
<text text-anchor="start" x="192" y="-225" font-family="Helvetica,sans-Serif" font-size="10.00">Assembler()</text>
<text text-anchor="start" x="192" y="-214" font-family="Helvetica,sans-Serif" font-size="10.00">+ ~AbstractFeVolumeIntegral</text>
<text text-anchor="start" x="192" y="-203" font-family="Helvetica,sans-Serif" font-size="10.00">Assembler()</text>
<text text-anchor="start" x="192" y="-192" font-family="Helvetica,sans-Serif" font-size="10.00"># ComputeTransformedBasisFunction</text>
<text text-anchor="start" x="192" y="-181" font-family="Helvetica,sans-Serif" font-size="10.00">Derivatives()</text>
<text text-anchor="start" x="192" y="-170" font-family="Helvetica,sans-Serif" font-size="10.00"># DoAssemble()</text>
<text text-anchor="start" x="192" y="-159" font-family="Helvetica,sans-Serif" font-size="10.00"># ComputeMatrixTerm()</text>
<text text-anchor="start" x="192" y="-148" font-family="Helvetica,sans-Serif" font-size="10.00"># ComputeVectorTerm()</text>
<text text-anchor="start" x="192" y="-137" font-family="Helvetica,sans-Serif" font-size="10.00"># AssembleOnElement()</text>
<text text-anchor="start" x="192" y="-126" font-family="Helvetica,sans-Serif" font-size="10.00"># ElementAssemblyCriterion()</text>
</a>
</g>
</g>
<!-- Node2&#45;&gt;Node1 -->
<g id="edge1" class="edge"><title>Node2&#45;&gt;Node1</title>
<path fill="none" stroke="midnightblue" d="M275,-108.873C275,-98.5294 275,-88.5837 275,-79.6452"/>
<polygon fill="none" stroke="midnightblue" points="271.5,-108.892 275,-118.892 278.5,-108.892 271.5,-108.892"/>
</g>
<!-- Node3 -->
<g id="node3" class="node"><title>Node3</title>
<g id="a_node3"><a xlink:href="classAbstractFeAssemblerCommon.html" target="_top" xlink:title="{AbstractFeAssemblerCommon\l\&lt; ELEMENT_DIM, SPACE_DIM,\l PROBLEM_DIM, CAN_ASSEMBLE\l_VECTOR, CAN_ASSEMBLE_MATRIX,\l INTERPOLATION_LEVEL \&gt;\n||+ AbstractFeAssemblerCommon()\l+ SetCurrentSolution()\l+ ~AbstractFeAssemblerCommon()\l# GetCurrentSolutionOrGuess\lValue()\l# ResetInterpolatedQuantities()\l# IncrementInterpolatedQuantities()\l# IncrementInterpolatedGradient\lQuantities()\l}">
<polygon fill="white" stroke="black" points="446.5,-650.5 446.5,-839.5 643.5,-839.5 643.5,-650.5 446.5,-650.5"/>
<text text-anchor="start" x="454.5" y="-827.5" font-family="Helvetica,sans-Serif" font-size="10.00">AbstractFeAssemblerCommon</text>
<text text-anchor="start" x="454.5" y="-816.5" font-family="Helvetica,sans-Serif" font-size="10.00">&lt; ELEMENT_DIM, SPACE_DIM,</text>
<text text-anchor="start" x="454.5" y="-805.5" font-family="Helvetica,sans-Serif" font-size="10.00"> PROBLEM_DIM, CAN_ASSEMBLE</text>
<text text-anchor="start" x="454.5" y="-794.5" font-family="Helvetica,sans-Serif" font-size="10.00">_VECTOR, CAN_ASSEMBLE_MATRIX,</text>
<text text-anchor="middle" x="545" y="-783.5" font-family="Helvetica,sans-Serif" font-size="10.00"> INTERPOLATION_LEVEL &gt;</text>
<polyline fill="none" stroke="black" points="446.5,-776.5 643.5,-776.5 "/>
<text text-anchor="middle" x="545" y="-764.5" font-family="Helvetica,sans-Serif" font-size="10.00"> </text>
<polyline fill="none" stroke="black" points="446.5,-757.5 643.5,-757.5 "/>
<text text-anchor="start" x="454.5" y="-745.5" font-family="Helvetica,sans-Serif" font-size="10.00">+ AbstractFeAssemblerCommon()</text>
<text text-anchor="start" x="454.5" y="-734.5" font-family="Helvetica,sans-Serif" font-size="10.00">+ SetCurrentSolution()</text>
<text text-anchor="start" x="454.5" y="-723.5" font-family="Helvetica,sans-Serif" font-size="10.00">+ ~AbstractFeAssemblerCommon()</text>
<text text-anchor="start" x="454.5" y="-712.5" font-family="Helvetica,sans-Serif" font-size="10.00"># GetCurrentSolutionOrGuess</text>
<text text-anchor="start" x="454.5" y="-701.5" font-family="Helvetica,sans-Serif" font-size="10.00">Value()</text>
<text text-anchor="start" x="454.5" y="-690.5" font-family="Helvetica,sans-Serif" font-size="10.00"># ResetInterpolatedQuantities()</text>
<text text-anchor="start" x="454.5" y="-679.5" font-family="Helvetica,sans-Serif" font-size="10.00"># IncrementInterpolatedQuantities()</text>
<text text-anchor="start" x="454.5" y="-668.5" font-family="Helvetica,sans-Serif" font-size="10.00"># IncrementInterpolatedGradient</text>
<text text-anchor="start" x="454.5" y="-657.5" font-family="Helvetica,sans-Serif" font-size="10.00">Quantities()</text>
</a>
</g>
</g>
<!-- Node3&#45;&gt;Node2 -->
<g id="edge2" class="edge"><title>Node3&#45;&gt;Node2</title>
<path fill="none" stroke="midnightblue" d="M567.61,-640.266C578.313,-566.576 581.511,-467.38 543,-390 508.078,-319.832 429.217,-275.154 366.031,-249.303"/>
<polygon fill="none" stroke="midnightblue" points="564.099,-640.077 566.054,-650.49 571.019,-641.13 564.099,-640.077"/>
</g>
<!-- Node16 -->
<g id="node16" class="node"><title>Node16</title>
<g id="a_node16"><a xlink:href="classAbstractFeVolumeIntegralAssembler.html" target="_top" xlink:title="{AbstractFeVolumeIntegral\lAssembler\&lt; ELEMENT_DIM,\l SPACE_DIM, PROBLEM_DIM,\l CAN_ASSEMBLE_VECTOR, CAN\l_ASSEMBLE_MATRIX, INTERPOLATION_LEVEL \&gt;\n||+ AbstractFeVolumeIntegral\lAssembler()\l+ ~AbstractFeVolumeIntegral\lAssembler()\l# ComputeTransformedBasisFunction\lDerivatives()\l# DoAssemble()\l# ComputeMatrixTerm()\l# ComputeVectorTerm()\l# AssembleOnElement()\l# ElementAssemblyCriterion()\l}">
<polygon fill="white" stroke="black" points="283.5,-390.5 283.5,-601.5 534.5,-601.5 534.5,-390.5 283.5,-390.5"/>
<text text-anchor="start" x="291.5" y="-589.5" font-family="Helvetica,sans-Serif" font-size="10.00">AbstractFeVolumeIntegral</text>
<text text-anchor="start" x="291.5" y="-578.5" font-family="Helvetica,sans-Serif" font-size="10.00">Assembler&lt; ELEMENT_DIM,</text>
<text text-anchor="start" x="291.5" y="-567.5" font-family="Helvetica,sans-Serif" font-size="10.00"> SPACE_DIM, PROBLEM_DIM,</text>
<text text-anchor="start" x="291.5" y="-556.5" font-family="Helvetica,sans-Serif" font-size="10.00"> CAN_ASSEMBLE_VECTOR, CAN</text>
<text text-anchor="middle" x="409" y="-545.5" font-family="Helvetica,sans-Serif" font-size="10.00">_ASSEMBLE_MATRIX, INTERPOLATION_LEVEL &gt;</text>
<polyline fill="none" stroke="black" points="283.5,-538.5 534.5,-538.5 "/>
<text text-anchor="middle" x="409" y="-526.5" font-family="Helvetica,sans-Serif" font-size="10.00"> </text>
<polyline fill="none" stroke="black" points="283.5,-519.5 534.5,-519.5 "/>
<text text-anchor="start" x="291.5" y="-507.5" font-family="Helvetica,sans-Serif" font-size="10.00">+ AbstractFeVolumeIntegral</text>
<text text-anchor="start" x="291.5" y="-496.5" font-family="Helvetica,sans-Serif" font-size="10.00">Assembler()</text>
<text text-anchor="start" x="291.5" y="-485.5" font-family="Helvetica,sans-Serif" font-size="10.00">+ ~AbstractFeVolumeIntegral</text>
<text text-anchor="start" x="291.5" y="-474.5" font-family="Helvetica,sans-Serif" font-size="10.00">Assembler()</text>
<text text-anchor="start" x="291.5" y="-463.5" font-family="Helvetica,sans-Serif" font-size="10.00"># ComputeTransformedBasisFunction</text>
<text text-anchor="start" x="291.5" y="-452.5" font-family="Helvetica,sans-Serif" font-size="10.00">Derivatives()</text>
<text text-anchor="start" x="291.5" y="-441.5" font-family="Helvetica,sans-Serif" font-size="10.00"># DoAssemble()</text>
<text text-anchor="start" x="291.5" y="-430.5" font-family="Helvetica,sans-Serif" font-size="10.00"># ComputeMatrixTerm()</text>
<text text-anchor="start" x="291.5" y="-419.5" font-family="Helvetica,sans-Serif" font-size="10.00"># ComputeVectorTerm()</text>
<text text-anchor="start" x="291.5" y="-408.5" font-family="Helvetica,sans-Serif" font-size="10.00"># AssembleOnElement()</text>
<text text-anchor="start" x="291.5" y="-397.5" font-family="Helvetica,sans-Serif" font-size="10.00"># ElementAssemblyCriterion()</text>
</a>
</g>
</g>
<!-- Node3&#45;&gt;Node16 -->
<g id="edge17" class="edge"><title>Node3&#45;&gt;Node16</title>
<path fill="none" stroke="midnightblue" d="M488.451,-641.297C481.27,-628.255 473.914,-614.895 466.715,-601.82"/>
<polygon fill="none" stroke="midnightblue" points="485.501,-643.196 493.39,-650.268 491.633,-639.82 485.501,-643.196"/>
</g>
<!-- Node4 -->
<g id="node4" class="node"><title>Node4</title>
<g id="a_node4"><a xlink:href="classAbstractFeAssemblerInterface.html" target="_top" xlink:title="{AbstractFeAssemblerInterface\l\&lt; CAN_ASSEMBLE_VECTOR, CAN\l_ASSEMBLE_MATRIX \&gt;\n||+ AbstractFeAssemblerInterface()\l+ SetMatrixToAssemble()\l+ SetVectorToAssemble()\l+ Assemble()\l+ AssembleMatrix()\l+ AssembleVector()\l+ ~AbstractFeAssemblerInterface()\l# DoAssemble()\l}">
<polygon fill="white" stroke="black" points="456,-899 456,-1055 638,-1055 638,-899 456,-899"/>
<text text-anchor="start" x="464" y="-1043" font-family="Helvetica,sans-Serif" font-size="10.00">AbstractFeAssemblerInterface</text>
<text text-anchor="start" x="464" y="-1032" font-family="Helvetica,sans-Serif" font-size="10.00">&lt; CAN_ASSEMBLE_VECTOR, CAN</text>
<text text-anchor="middle" x="547" y="-1021" font-family="Helvetica,sans-Serif" font-size="10.00">_ASSEMBLE_MATRIX &gt;</text>
<polyline fill="none" stroke="black" points="456,-1014 638,-1014 "/>
<text text-anchor="middle" x="547" y="-1002" font-family="Helvetica,sans-Serif" font-size="10.00"> </text>
<polyline fill="none" stroke="black" points="456,-995 638,-995 "/>
<text text-anchor="start" x="464" y="-983" font-family="Helvetica,sans-Serif" font-size="10.00">+ AbstractFeAssemblerInterface()</text>
<text text-anchor="start" x="464" y="-972" font-family="Helvetica,sans-Serif" font-size="10.00">+ SetMatrixToAssemble()</text>
<text text-anchor="start" x="464" y="-961" font-family="Helvetica,sans-Serif" font-size="10.00">+ SetVectorToAssemble()</text>
<text text-anchor="start" x="464" y="-950" font-family="Helvetica,sans-Serif" font-size="10.00">+ Assemble()</text>
<text text-anchor="start" x="464" y="-939" font-family="Helvetica,sans-Serif" font-size="10.00">+ AssembleMatrix()</text>
<text text-anchor="start" x="464" y="-928" font-family="Helvetica,sans-Serif" font-size="10.00">+ AssembleVector()</text>
<text text-anchor="start" x="464" y="-917" font-family="Helvetica,sans-Serif" font-size="10.00">+ ~AbstractFeAssemblerInterface()</text>
<text text-anchor="start" x="464" y="-906" font-family="Helvetica,sans-Serif" font-size="10.00"># DoAssemble()</text>
</a>
</g>
</g>
<!-- Node4&#45;&gt;Node3 -->
<g id="edge3" class="edge"><title>Node4&#45;&gt;Node3</title>
<path fill="none" stroke="midnightblue" d="M546.239,-888.438C546.1,-872.526 545.955,-855.87 545.816,-839.787"/>
<polygon fill="none" stroke="midnightblue" points="542.742,-888.804 546.328,-898.773 549.741,-888.743 542.742,-888.804"/>
</g>
<!-- Node5 -->
<g id="node5" class="node"><title>Node5</title>
<polygon fill="white" stroke="#bfbfbf" points="638.5,-1136.5 638.5,-1193.5 709.5,-1193.5 709.5,-1136.5 638.5,-1136.5"/>
<text text-anchor="middle" x="674" y="-1181.5" font-family="Helvetica,sans-Serif" font-size="10.00">noncopyable</text>
<polyline fill="none" stroke="#bfbfbf" points="638.5,-1174.5 709.5,-1174.5 "/>
<text text-anchor="middle" x="674" y="-1162.5" font-family="Helvetica,sans-Serif" font-size="10.00"> </text>
<polyline fill="none" stroke="#bfbfbf" points="638.5,-1155.5 709.5,-1155.5 "/>
<text text-anchor="middle" x="674" y="-1143.5" font-family="Helvetica,sans-Serif" font-size="10.00"> </text>
</g>
<!-- Node5&#45;&gt;Node4 -->
<g id="edge4" class="edge"><title>Node5&#45;&gt;Node4</title>
<path fill="none" stroke="#8b1a1a" d="M673.996,-1126.29C672.565,-1109.39 668.829,-1089.77 660,-1074 654.089,-1063.44 646.54,-1053.53 638.153,-1044.37"/>
<polygon fill="none" stroke="#8b1a1a" points="670.51,-1126.63 674.614,-1136.4 677.497,-1126.2 670.51,-1126.63"/>
</g>
<!-- Node6 -->
<g id="node6" class="node"><title>Node6</title>
<g id="a_node6"><a xlink:href="classbool.html" target="_top" xlink:title="{bool\n||}">
<polygon fill="white" stroke="black" points="782.5,-1136.5 782.5,-1193.5 817.5,-1193.5 817.5,-1136.5 782.5,-1136.5"/>
<text text-anchor="middle" x="800" y="-1181.5" font-family="Helvetica,sans-Serif" font-size="10.00">bool</text>
<polyline fill="none" stroke="black" points="782.5,-1174.5 817.5,-1174.5 "/>
<text text-anchor="middle" x="800" y="-1162.5" font-family="Helvetica,sans-Serif" font-size="10.00"> </text>
<polyline fill="none" stroke="black" points="782.5,-1155.5 817.5,-1155.5 "/>
<text text-anchor="middle" x="800" y="-1143.5" font-family="Helvetica,sans-Serif" font-size="10.00"> </text>
</a>
</g>
</g>
<!-- Node6&#45;&gt;Node1 -->
<g id="edge21" class="edge"><title>Node6&#45;&gt;Node1</title>
<path fill="none" stroke="#404040" d="M817.625,-1149.69C826.509,-1141.42 836.534,-1130.25 842,-1118 867.488,-1060.9 856,-1040.53 856,-978 856,-978 856,-978 856,-218 856,-118.087 537.617,-69.1036 372.227,-50.3985"/>
<polygon fill="none" stroke="#404040" points="372.031,-50.3769 365.626,-53.6893 360.105,-49.0508 366.51,-45.7383 372.031,-50.3769"/>
<text text-anchor="middle" x="903" y="-623.5" font-family="Helvetica,sans-Serif" font-size="10.00"> &#45;mUseMassLumping</text>
</g>
<!-- Node6&#45;&gt;Node4 -->
<g id="edge5" class="edge"><title>Node6&#45;&gt;Node4</title>
<path fill="none" stroke="#404040" d="M782.403,-1158.43C762.549,-1151.46 730.146,-1137.97 708,-1118 690.787,-1102.48 695.904,-1090.86 680,-1074 670.231,-1063.64 659.204,-1053.67 647.783,-1044.32"/>
<polygon fill="none" stroke="#404040" points="647.505,-1044.1 640.319,-1043.49 638.117,-1036.63 645.302,-1037.23 647.505,-1044.1"/>
<text text-anchor="middle" x="775" y="-1110" font-family="Helvetica,sans-Serif" font-size="10.00"> #mAssembleVector</text>
<text text-anchor="middle" x="775" y="-1099" font-family="Helvetica,sans-Serif" font-size="10.00">#mZeroVectorBeforeAssembly</text>
<text text-anchor="middle" x="775" y="-1088" font-family="Helvetica,sans-Serif" font-size="10.00">#mAssembleMatrix</text>
<text text-anchor="middle" x="775" y="-1077" font-family="Helvetica,sans-Serif" font-size="10.00">#mZeroMatrixBeforeAssembly</text>
</g>
<!-- Node7 -->
<g id="node7" class="node"><title>Node7</title>
<g id="a_node7"><a xlink:href="classMat.html" target="_top" xlink:title="{Mat\n||}">
<polygon fill="white" stroke="black" points="418.5,-1136.5 418.5,-1193.5 451.5,-1193.5 451.5,-1136.5 418.5,-1136.5"/>
<text text-anchor="middle" x="435" y="-1181.5" font-family="Helvetica,sans-Serif" font-size="10.00">Mat</text>
<polyline fill="none" stroke="black" points="418.5,-1174.5 451.5,-1174.5 "/>
<text text-anchor="middle" x="435" y="-1162.5" font-family="Helvetica,sans-Serif" font-size="10.00"> </text>
<polyline fill="none" stroke="black" points="418.5,-1155.5 451.5,-1155.5 "/>
<text text-anchor="middle" x="435" y="-1143.5" font-family="Helvetica,sans-Serif" font-size="10.00"> </text>
</a>
</g>
</g>
<!-- Node7&#45;&gt;Node4 -->
<g id="edge6" class="edge"><title>Node7&#45;&gt;Node4</title>
<path fill="none" stroke="#404040" d="M434.84,-1136.23C435.779,-1117.69 439.092,-1093.27 449,-1074 450.505,-1071.07 452.134,-1068.18 453.868,-1065.33"/>
<polygon fill="none" stroke="#404040" points="453.951,-1065.21 453.928,-1057.99 460.575,-1055.2 460.599,-1062.41 453.951,-1065.21"/>
<text text-anchor="middle" x="498.5" y="-1093.5" font-family="Helvetica,sans-Serif" font-size="10.00"> #mMatrixToAssemble</text>
</g>
<!-- Node8 -->
<g id="node8" class="node"><title>Node8</title>
<g id="a_node8"><a xlink:href="classPetscInt.html" target="_top" xlink:title="{PetscInt\n||}">
<polygon fill="white" stroke="black" points="530.5,-1136.5 530.5,-1193.5 583.5,-1193.5 583.5,-1136.5 530.5,-1136.5"/>
<text text-anchor="middle" x="557" y="-1181.5" font-family="Helvetica,sans-Serif" font-size="10.00">PetscInt</text>
<polyline fill="none" stroke="black" points="530.5,-1174.5 583.5,-1174.5 "/>
<text text-anchor="middle" x="557" y="-1162.5" font-family="Helvetica,sans-Serif" font-size="10.00"> </text>
<polyline fill="none" stroke="black" points="530.5,-1155.5 583.5,-1155.5 "/>
<text text-anchor="middle" x="557" y="-1143.5" font-family="Helvetica,sans-Serif" font-size="10.00"> </text>
</a>
</g>
</g>
<!-- Node8&#45;&gt;Node4 -->
<g id="edge7" class="edge"><title>Node8&#45;&gt;Node4</title>
<path fill="none" stroke="#404040" d="M555.503,-1136.15C554.51,-1117.69 553.147,-1092.34 551.804,-1067.35"/>
<polygon fill="none" stroke="#404040" points="551.791,-1067.12 547.475,-1061.34 551.147,-1055.13 555.463,-1060.91 551.791,-1067.12"/>
<text text-anchor="middle" x="605" y="-1099" font-family="Helvetica,sans-Serif" font-size="10.00"> #mOwnershipRangeHi</text>
<text text-anchor="middle" x="605" y="-1088" font-family="Helvetica,sans-Serif" font-size="10.00">#mOwnershipRangeLo</text>
</g>
<!-- Node9 -->
<g id="node9" class="node"><title>Node9</title>
<g id="a_node9"><a xlink:href="classVec.html" target="_top" xlink:title="{Vec\n||}">
<polygon fill="white" stroke="black" points="257,-1136.5 257,-1193.5 291,-1193.5 291,-1136.5 257,-1136.5"/>
<text text-anchor="middle" x="274" y="-1181.5" font-family="Helvetica,sans-Serif" font-size="10.00">Vec</text>
<polyline fill="none" stroke="black" points="257,-1174.5 291,-1174.5 "/>
<text text-anchor="middle" x="274" y="-1162.5" font-family="Helvetica,sans-Serif" font-size="10.00"> </text>
<polyline fill="none" stroke="black" points="257,-1155.5 291,-1155.5 "/>
<text text-anchor="middle" x="274" y="-1143.5" font-family="Helvetica,sans-Serif" font-size="10.00"> </text>
</a>
</g>
</g>
<!-- Node9&#45;&gt;Node4 -->
<g id="edge8" class="edge"><title>Node9&#45;&gt;Node4</title>
<path fill="none" stroke="#404040" d="M286.887,-1136.18C297.093,-1116.66 312.956,-1091.09 333,-1074 365.22,-1046.52 406.577,-1025.53 444.33,-1010.28"/>
<polygon fill="none" stroke="#404040" points="444.746,-1010.12 448.87,-1004.2 455.917,-1005.74 451.793,-1011.65 444.746,-1010.12"/>
<text text-anchor="middle" x="383" y="-1093.5" font-family="Helvetica,sans-Serif" font-size="10.00"> #mVectorToAssemble</text>
</g>
<!-- Node10 -->
<g id="node10" class="node"><title>Node10</title>
<g id="a_node10"><a xlink:href="classReplicatableVector.html" target="_top" xlink:title="{ReplicatableVector\n||+ ReplicatableVector()\l+ ReplicatableVector()\l+ ReplicatableVector()\l+ ~ReplicatableVector()\l+ GetSize()\l+ Resize()\l+ operator[]()\l+ Replicate()\l+ ReplicatePetscVector()\l&#45; RemovePetscContext()\l}">
<polygon fill="white" stroke="black" points="104.5,-899 104.5,-1055 231.5,-1055 231.5,-899 104.5,-899"/>
<text text-anchor="middle" x="168" y="-1043" font-family="Helvetica,sans-Serif" font-size="10.00">ReplicatableVector</text>
<polyline fill="none" stroke="black" points="104.5,-1036 231.5,-1036 "/>
<text text-anchor="middle" x="168" y="-1024" font-family="Helvetica,sans-Serif" font-size="10.00"> </text>
<polyline fill="none" stroke="black" points="104.5,-1017 231.5,-1017 "/>
<text text-anchor="start" x="112.5" y="-1005" font-family="Helvetica,sans-Serif" font-size="10.00">+ ReplicatableVector()</text>
<text text-anchor="start" x="112.5" y="-994" font-family="Helvetica,sans-Serif" font-size="10.00">+ ReplicatableVector()</text>
<text text-anchor="start" x="112.5" y="-983" font-family="Helvetica,sans-Serif" font-size="10.00">+ ReplicatableVector()</text>
<text text-anchor="start" x="112.5" y="-972" font-family="Helvetica,sans-Serif" font-size="10.00">+ ~ReplicatableVector()</text>
<text text-anchor="start" x="112.5" y="-961" font-family="Helvetica,sans-Serif" font-size="10.00">+ GetSize()</text>
<text text-anchor="start" x="112.5" y="-950" font-family="Helvetica,sans-Serif" font-size="10.00">+ Resize()</text>
<text text-anchor="start" x="112.5" y="-939" font-family="Helvetica,sans-Serif" font-size="10.00">+ operator[]()</text>
<text text-anchor="start" x="112.5" y="-928" font-family="Helvetica,sans-Serif" font-size="10.00">+ Replicate()</text>
<text text-anchor="start" x="112.5" y="-917" font-family="Helvetica,sans-Serif" font-size="10.00">+ ReplicatePetscVector()</text>
<text text-anchor="start" x="112.5" y="-906" font-family="Helvetica,sans-Serif" font-size="10.00">&#45; RemovePetscContext()</text>
</a>
</g>
</g>
<!-- Node9&#45;&gt;Node10 -->
<g id="edge13" class="edge"><title>Node9&#45;&gt;Node10</title>
<path fill="none" stroke="#404040" d="M256.618,-1149.09C247.538,-1140.64 236.738,-1129.49 229,-1118 222.412,-1108.22 213.036,-1088.33 203.605,-1066.53"/>
<polygon fill="none" stroke="#404040" points="203.548,-1066.4 197.512,-1062.45 198.833,-1055.36 204.869,-1059.31 203.548,-1066.4"/>
<text text-anchor="middle" x="259.5" y="-1093.5" font-family="Helvetica,sans-Serif" font-size="10.00"> &#45;mReplicated</text>
</g>
<!-- Node10&#45;&gt;Node3 -->
<g id="edge9" class="edge"><title>Node10&#45;&gt;Node3</title>
<path fill="none" stroke="#404040" d="M231.651,-941.343C280.028,-914.59 347.926,-876.158 406,-840 415.83,-833.88 425.959,-827.393 436.057,-820.803"/>
<polygon fill="none" stroke="#404040" points="436.101,-820.774 438.921,-814.137 446.132,-814.187 443.312,-820.824 436.101,-820.774"/>
<text text-anchor="start" x="375" y="-872" font-family="Helvetica,sans-Serif" font-size="10.00"> #mCurrentSolutionOrGuess</text>
<text text-anchor="middle" x="437" y="-861" font-family="Helvetica,sans-Serif" font-size="10.00">Replicated</text>
</g>
<!-- Node11 -->
<g id="node11" class="node"><title>Node11</title>
<g id="a_node11"><a xlink:href="classdouble.html" target="_top" xlink:title="{double\n||}">
<polygon fill="white" stroke="black" points="-0.5,-1136.5 -0.5,-1193.5 44.5,-1193.5 44.5,-1136.5 -0.5,-1136.5"/>
<text text-anchor="middle" x="22" y="-1181.5" font-family="Helvetica,sans-Serif" font-size="10.00">double</text>
<polyline fill="none" stroke="black" points="-0.5,-1174.5 44.5,-1174.5 "/>
<text text-anchor="middle" x="22" y="-1162.5" font-family="Helvetica,sans-Serif" font-size="10.00"> </text>
<polyline fill="none" stroke="black" points="-0.5,-1155.5 44.5,-1155.5 "/>
<text text-anchor="middle" x="22" y="-1143.5" font-family="Helvetica,sans-Serif" font-size="10.00"> </text>
</a>
</g>
</g>
<!-- Node11&#45;&gt;Node1 -->
<g id="edge20" class="edge"><title>Node11&#45;&gt;Node1</title>
<path fill="none" stroke="#404040" d="M20.0634,-1136.29C17.6958,-1099.96 14,-1034.24 14,-978 14,-978 14,-978 14,-218 14,-135.759 103.863,-89.0898 178.131,-64.5633"/>
<polygon fill="none" stroke="#404040" points="178.466,-64.4566 182.969,-58.8245 189.9,-60.8151 185.397,-66.4472 178.466,-64.4566"/>
<text text-anchor="middle" x="47.5" y="-623.5" font-family="Helvetica,sans-Serif" font-size="10.00"> &#45;mScaleFactor</text>
</g>
<!-- Node11&#45;&gt;Node10 -->
<g id="edge10" class="edge"><title>Node11&#45;&gt;Node10</title>
<path fill="none" stroke="#404040" d="M34.0454,-1136.33C42.7325,-1117.83 55.4567,-1093.42 70,-1074 77.7611,-1063.64 86.645,-1053.35 95.8247,-1043.57"/>
<polygon fill="none" stroke="#404040" points="95.9963,-1043.39 97.2725,-1036.29 104.315,-1034.74 103.038,-1041.84 95.9963,-1043.39"/>
<text text-anchor="middle" x="90.5" y="-1093.5" font-family="Helvetica,sans-Serif" font-size="10.00"> &#45;mpData</text>
</g>
<!-- Node12 -->
<g id="node12" class="node"><title>Node12</title>
<polygon fill="white" stroke="#bfbfbf" points="146.5,-1136.5 146.5,-1193.5 211.5,-1193.5 211.5,-1136.5 146.5,-1136.5"/>
<text text-anchor="middle" x="179" y="-1181.5" font-family="Helvetica,sans-Serif" font-size="10.00">VecScatter</text>
<polyline fill="none" stroke="#bfbfbf" points="146.5,-1174.5 211.5,-1174.5 "/>
<text text-anchor="middle" x="179" y="-1162.5" font-family="Helvetica,sans-Serif" font-size="10.00"> </text>
<polyline fill="none" stroke="#bfbfbf" points="146.5,-1155.5 211.5,-1155.5 "/>
<text text-anchor="middle" x="179" y="-1143.5" font-family="Helvetica,sans-Serif" font-size="10.00"> </text>
</g>
<!-- Node12&#45;&gt;Node10 -->
<g id="edge11" class="edge"><title>Node12&#45;&gt;Node10</title>
<path fill="none" stroke="#404040" d="M172.036,-1136.42C170.785,-1130.39 169.668,-1124.01 169,-1118 167.187,-1101.67 166.261,-1084.2 165.881,-1067.34"/>
<polygon fill="none" stroke="#404040" points="165.879,-1067.19 161.788,-1061.25 165.696,-1055.19 169.787,-1061.13 165.879,-1067.19"/>
<text text-anchor="middle" x="187.5" y="-1093.5" font-family="Helvetica,sans-Serif" font-size="10.00"> &#45;mToAll</text>
</g>
<!-- Node13 -->
<g id="node13" class="node"><title>Node13</title>
<g id="a_node13"><a xlink:href="classunsigned.html" target="_top" xlink:title="{unsigned\n||}">
<polygon fill="white" stroke="black" points="72,-1136.5 72,-1193.5 128,-1193.5 128,-1136.5 72,-1136.5"/>
<text text-anchor="middle" x="100" y="-1181.5" font-family="Helvetica,sans-Serif" font-size="10.00">unsigned</text>
<polyline fill="none" stroke="black" points="72,-1174.5 128,-1174.5 "/>
<text text-anchor="middle" x="100" y="-1162.5" font-family="Helvetica,sans-Serif" font-size="10.00"> </text>
<polyline fill="none" stroke="black" points="72,-1155.5 128,-1155.5 "/>
<text text-anchor="middle" x="100" y="-1143.5" font-family="Helvetica,sans-Serif" font-size="10.00"> </text>
</a>
</g>
</g>
<!-- Node13&#45;&gt;Node10 -->
<g id="edge12" class="edge"><title>Node13&#45;&gt;Node10</title>
<path fill="none" stroke="#404040" d="M108.359,-1136.25C113.889,-1118.36 121.482,-1094.67 129,-1074 129.912,-1071.49 130.849,-1068.95 131.805,-1066.4"/>
<polygon fill="none" stroke="#404040" points="131.838,-1066.31 130.231,-1059.28 136.102,-1055.09 137.709,-1062.12 131.838,-1066.31"/>
<text text-anchor="middle" x="146" y="-1093.5" font-family="Helvetica,sans-Serif" font-size="10.00"> &#45;mSize</text>
</g>
<!-- Node14 -->
<g id="node14" class="node"><title>Node14</title>
<polygon fill="white" stroke="#bfbfbf" points="54,-711 54,-779 180,-779 180,-711 54,-711"/>
<text text-anchor="start" x="62" y="-767" font-family="Helvetica,sans-Serif" font-size="10.00">GaussianQuadratureRule</text>
<text text-anchor="middle" x="117" y="-756" font-family="Helvetica,sans-Serif" font-size="10.00">&lt; ELEMENT_DIM &gt; *</text>
<polyline fill="none" stroke="#bfbfbf" points="54,-749 180,-749 "/>
<text text-anchor="middle" x="117" y="-737" font-family="Helvetica,sans-Serif" font-size="10.00"> </text>
<polyline fill="none" stroke="#bfbfbf" points="54,-730 180,-730 "/>
<text text-anchor="middle" x="117" y="-718" font-family="Helvetica,sans-Serif" font-size="10.00"> </text>
</g>
<!-- Node14&#45;&gt;Node2 -->
<g id="edge14" class="edge"><title>Node14&#45;&gt;Node2</title>
<path fill="none" stroke="#404040" d="M113.874,-710.938C109.061,-646.686 104.403,-501.488 147,-390 155.029,-368.987 166.479,-348.353 179.269,-329.107"/>
<polygon fill="none" stroke="#404040" points="179.29,-329.076 179.378,-321.865 186.068,-319.174 185.98,-326.384 179.29,-329.076"/>
<text text-anchor="middle" x="180" y="-493.5" font-family="Helvetica,sans-Serif" font-size="10.00"> #mpQuadRule</text>
</g>
<!-- Node14&#45;&gt;Node16 -->
<g id="edge18" class="edge"><title>Node14&#45;&gt;Node16</title>
<path fill="none" stroke="#404040" d="M148.213,-710.76C166.057,-692.282 189.169,-669.211 211,-650 223.8,-638.736 247.365,-619.996 273.892,-599.422"/>
<polygon fill="none" stroke="#404040" points="273.894,-599.42 276.192,-592.585 283.385,-592.078 281.087,-598.913 273.894,-599.42"/>
<text text-anchor="middle" x="277" y="-623.5" font-family="Helvetica,sans-Serif" font-size="10.00"> #mpQuadRule</text>
</g>
<!-- Node15 -->
<g id="node15" class="node"><title>Node15</title>
<polygon fill="white" stroke="#bfbfbf" points="220.5,-711 220.5,-779 397.5,-779 397.5,-711 220.5,-711"/>
<text text-anchor="start" x="228.5" y="-767" font-family="Helvetica,sans-Serif" font-size="10.00">AbstractTetrahedralMesh</text>
<text text-anchor="middle" x="309" y="-756" font-family="Helvetica,sans-Serif" font-size="10.00">&lt; ELEMENT_DIM, SPACE_DIM &gt; *</text>
<polyline fill="none" stroke="#bfbfbf" points="220.5,-749 397.5,-749 "/>
<text text-anchor="middle" x="309" y="-737" font-family="Helvetica,sans-Serif" font-size="10.00"> </text>
<polyline fill="none" stroke="#bfbfbf" points="220.5,-730 397.5,-730 "/>
<text text-anchor="middle" x="309" y="-718" font-family="Helvetica,sans-Serif" font-size="10.00"> </text>
</g>
<!-- Node15&#45;&gt;Node2 -->
<g id="edge15" class="edge"><title>Node15&#45;&gt;Node2</title>
<path fill="none" stroke="#404040" d="M283.465,-710.905C263.985,-683.44 238.729,-642.464 228,-602 204.258,-512.46 220.013,-407.873 239.451,-330.794"/>
<polygon fill="none" stroke="#404040" points="239.458,-330.763 237.091,-323.951 242.468,-319.146 244.835,-325.958 239.458,-330.763"/>
<text text-anchor="middle" x="251" y="-493.5" font-family="Helvetica,sans-Serif" font-size="10.00"> #mpMesh</text>
</g>
<!-- Node15&#45;&gt;Node16 -->
<g id="edge19" class="edge"><title>Node15&#45;&gt;Node16</title>
<path fill="none" stroke="#404040" d="M321.952,-710.783C331.744,-685.778 345.578,-650.682 358,-620 358.949,-617.656 359.91,-615.288 360.88,-612.903"/>
<polygon fill="none" stroke="#404040" points="360.945,-612.742 359.507,-605.676 365.477,-601.63 366.915,-608.697 360.945,-612.742"/>
<text text-anchor="middle" x="381" y="-623.5" font-family="Helvetica,sans-Serif" font-size="10.00"> #mpMesh</text>
</g>
<!-- Node16&#45;&gt;Node2 -->
<g id="edge16" class="edge"><title>Node16&#45;&gt;Node2</title>
<path fill="none" stroke="orange" d="M353.524,-381.15C343.476,-360.529 333.071,-339.176 323.251,-319.023"/>
<polygon fill="orange" stroke="orange" points="350.431,-382.793 357.958,-390.25 356.724,-379.727 350.431,-382.793"/>
<text text-anchor="start" x="347" y="-363.5" font-family="Helvetica,sans-Serif" font-size="10.00"> &lt; ELEMENT_DIM, SPACE</text>
<text text-anchor="start" x="347" y="-352.5" font-family="Helvetica,sans-Serif" font-size="10.00">_DIM, 1, false, true,</text>
<text text-anchor="middle" x="409" y="-341.5" font-family="Helvetica,sans-Serif" font-size="10.00"> NORMAL &gt;</text>
</g>
</g>
</svg>
