<?xml version="1.0" encoding="UTF-8" standalone="no"?>
<!DOCTYPE svg PUBLIC "-//W3C//DTD SVG 1.1//EN"
 "http://www.w3.org/Graphics/SVG/1.1/DTD/svg11.dtd">
<!-- Generated by graphviz version 2.36.0 (20140111.2315)
 -->
<!-- Title: AbstractMesh&lt; ELEMENT_DIM, SPACE_DIM &gt; Pages: 1 -->
<svg width="936pt" height="662pt"
 viewBox="0.00 0.00 936.00 662.00" xmlns="http://www.w3.org/2000/svg" xmlns:xlink="http://www.w3.org/1999/xlink">
<g id="graph0" class="graph" transform="scale(1 1) rotate(0) translate(4 658)">
<title>AbstractMesh&lt; ELEMENT_DIM, SPACE_DIM &gt;</title>
<polygon fill="white" stroke="none" points="-4,4 -4,-658 932,-658 932,4 -4,4"/>
<!-- Node1 -->
<g id="node1" class="node"><title>Node1</title>
<polygon fill="#bfbfbf" stroke="black" points="401,-1 401,-223 539,-223 539,-1 401,-1"/>
<text text-anchor="start" x="409" y="-211" font-family="Helvetica,sans-Serif" font-size="10.00">AbstractMesh&lt; ELEMENT</text>
<text text-anchor="middle" x="470" y="-200" font-family="Helvetica,sans-Serif" font-size="10.00">_DIM, SPACE_DIM &gt;</text>
<polyline fill="none" stroke="black" points="401,-193 539,-193 "/>
<text text-anchor="middle" x="470" y="-181" font-family="Helvetica,sans-Serif" font-size="10.00"> </text>
<polyline fill="none" stroke="black" points="401,-174 539,-174 "/>
<text text-anchor="start" x="409" y="-162" font-family="Helvetica,sans-Serif" font-size="10.00">+ GetNodeIteratorBegin()</text>
<text text-anchor="start" x="409" y="-151" font-family="Helvetica,sans-Serif" font-size="10.00">+ GetNodeIteratorEnd()</text>
<text text-anchor="start" x="409" y="-140" font-family="Helvetica,sans-Serif" font-size="10.00">+ AbstractMesh()</text>
<text text-anchor="start" x="409" y="-129" font-family="Helvetica,sans-Serif" font-size="10.00">+ ~AbstractMesh()</text>
<text text-anchor="start" x="409" y="-118" font-family="Helvetica,sans-Serif" font-size="10.00">+ GetNumNodes()</text>
<text text-anchor="start" x="409" y="-107" font-family="Helvetica,sans-Serif" font-size="10.00">+ GetNumBoundaryNodes()</text>
<text text-anchor="start" x="409" y="-96" font-family="Helvetica,sans-Serif" font-size="10.00">+ GetNumAllNodes()</text>
<text text-anchor="start" x="409" y="-85" font-family="Helvetica,sans-Serif" font-size="10.00">+ GetNumNodeAttributes()</text>
<text text-anchor="start" x="409" y="-74" font-family="Helvetica,sans-Serif" font-size="10.00">+ GetNode()</text>
<text text-anchor="start" x="409" y="-63" font-family="Helvetica,sans-Serif" font-size="10.00">+ GetNodeOrHaloNode()</text>
<text text-anchor="start" x="409" y="-52" font-family="Helvetica,sans-Serif" font-size="10.00">and 28 more...</text>
<text text-anchor="start" x="409" y="-41" font-family="Helvetica,sans-Serif" font-size="10.00"># SetElementOwnerships()</text>
<text text-anchor="start" x="409" y="-30" font-family="Helvetica,sans-Serif" font-size="10.00"># CalculateBoundingBox()</text>
<text text-anchor="start" x="409" y="-19" font-family="Helvetica,sans-Serif" font-size="10.00">&#45; SolveNodeMapping()</text>
<text text-anchor="start" x="409" y="-8" font-family="Helvetica,sans-Serif" font-size="10.00">&#45; serialize()</text>
</g>
<!-- Node2 -->
<g id="node2" class="node"><title>Node2</title>
<polygon fill="white" stroke="#bfbfbf" points="-0.5,-370.5 -0.5,-427.5 70.5,-427.5 70.5,-370.5 -0.5,-370.5"/>
<text text-anchor="middle" x="35" y="-415.5" font-family="Helvetica,sans-Serif" font-size="10.00">noncopyable</text>
<polyline fill="none" stroke="#bfbfbf" points="-0.5,-408.5 70.5,-408.5 "/>
<text text-anchor="middle" x="35" y="-396.5" font-family="Helvetica,sans-Serif" font-size="10.00"> </text>
<polyline fill="none" stroke="#bfbfbf" points="-0.5,-389.5 70.5,-389.5 "/>
<text text-anchor="middle" x="35" y="-377.5" font-family="Helvetica,sans-Serif" font-size="10.00"> </text>
</g>
<!-- Node2&#45;&gt;Node1 -->
<g id="edge1" class="edge"><title>Node2&#45;&gt;Node1</title>
<path fill="none" stroke="#8b1a1a" d="M39.6786,-360.562C45.9676,-325.456 60.4092,-273.746 93,-242 177.737,-159.46 317.481,-129.631 400.939,-118.922"/>
<polygon fill="none" stroke="#8b1a1a" points="36.224,-360 38.0449,-370.438 43.1302,-361.143 36.224,-360"/>
</g>
<!-- Node3 -->
<g id="node3" class="node"><title>Node3</title>
<g id="a_node3"><a xlink:href="classDistributedVectorFactory.html" target="_top" xlink:title="{DistributedVectorFactory\n||+ DistributedVectorFactory()\l+ DistributedVectorFactory()\l+ DistributedVectorFactory()\l+ DistributedVectorFactory()\l+ ~DistributedVectorFactory()\l+ CreateVec()\l+ CreateVec()\l+ CreateDistributedVector()\l+ IsGlobalIndexLocal()\l+ GetLocalOwnership()\land 8 more...\l+ SetCheckNumberOfProcesses\lOnLoad()\l+ CheckNumberOfProcessesOnLoad()\l&#45; CheckForPetsc()\l&#45; CalculateOwnership()\l&#45; serialize()\l}">
<polygon fill="white" stroke="black" points="218.5,-282.5 218.5,-515.5 403.5,-515.5 403.5,-282.5 218.5,-282.5"/>
<text text-anchor="middle" x="311" y="-503.5" font-family="Helvetica,sans-Serif" font-size="10.00">DistributedVectorFactory</text>
<polyline fill="none" stroke="black" points="218.5,-496.5 403.5,-496.5 "/>
<text text-anchor="middle" x="311" y="-484.5" font-family="Helvetica,sans-Serif" font-size="10.00"> </text>
<polyline fill="none" stroke="black" points="218.5,-477.5 403.5,-477.5 "/>
<text text-anchor="start" x="226.5" y="-465.5" font-family="Helvetica,sans-Serif" font-size="10.00">+ DistributedVectorFactory()</text>
<text text-anchor="start" x="226.5" y="-454.5" font-family="Helvetica,sans-Serif" font-size="10.00">+ DistributedVectorFactory()</text>
<text text-anchor="start" x="226.5" y="-443.5" font-family="Helvetica,sans-Serif" font-size="10.00">+ DistributedVectorFactory()</text>
<text text-anchor="start" x="226.5" y="-432.5" font-family="Helvetica,sans-Serif" font-size="10.00">+ DistributedVectorFactory()</text>
<text text-anchor="start" x="226.5" y="-421.5" font-family="Helvetica,sans-Serif" font-size="10.00">+ ~DistributedVectorFactory()</text>
<text text-anchor="start" x="226.5" y="-410.5" font-family="Helvetica,sans-Serif" font-size="10.00">+ CreateVec()</text>
<text text-anchor="start" x="226.5" y="-399.5" font-family="Helvetica,sans-Serif" font-size="10.00">+ CreateVec()</text>
<text text-anchor="start" x="226.5" y="-388.5" font-family="Helvetica,sans-Serif" font-size="10.00">+ CreateDistributedVector()</text>
<text text-anchor="start" x="226.5" y="-377.5" font-family="Helvetica,sans-Serif" font-size="10.00">+ IsGlobalIndexLocal()</text>
<text text-anchor="start" x="226.5" y="-366.5" font-family="Helvetica,sans-Serif" font-size="10.00">+ GetLocalOwnership()</text>
<text text-anchor="start" x="226.5" y="-355.5" font-family="Helvetica,sans-Serif" font-size="10.00">and 8 more...</text>
<text text-anchor="start" x="226.5" y="-344.5" font-family="Helvetica,sans-Serif" font-size="10.00">+ SetCheckNumberOfProcesses</text>
<text text-anchor="start" x="226.5" y="-333.5" font-family="Helvetica,sans-Serif" font-size="10.00">OnLoad()</text>
<text text-anchor="start" x="226.5" y="-322.5" font-family="Helvetica,sans-Serif" font-size="10.00">+ CheckNumberOfProcessesOnLoad()</text>
<text text-anchor="start" x="226.5" y="-311.5" font-family="Helvetica,sans-Serif" font-size="10.00">&#45; CheckForPetsc()</text>
<text text-anchor="start" x="226.5" y="-300.5" font-family="Helvetica,sans-Serif" font-size="10.00">&#45; CalculateOwnership()</text>
<text text-anchor="start" x="226.5" y="-289.5" font-family="Helvetica,sans-Serif" font-size="10.00">&#45; serialize()</text>
</a>
</g>
</g>
<!-- Node3&#45;&gt;Node1 -->
<g id="edge2" class="edge"><title>Node3&#45;&gt;Node1</title>
<path fill="none" stroke="#404040" d="M375.442,-282.49C384.41,-266.416 393.644,-249.865 402.663,-233.698"/>
<polygon fill="none" stroke="#404040" points="402.708,-233.618 402.138,-226.429 408.554,-223.138 409.124,-230.327 402.708,-233.618"/>
<text text-anchor="middle" x="461.5" y="-250.5" font-family="Helvetica,sans-Serif" font-size="10.00"> #mpDistributedVectorFactory</text>
</g>
<!-- Node3&#45;&gt;Node3 -->
<g id="edge3" class="edge"><title>Node3&#45;&gt;Node3</title>
<path fill="none" stroke="#404040" d="M403.688,-422.198C414.192,-417.854 421,-410.121 421,-399 421,-392.223 418.472,-386.704 414.12,-382.444"/>
<polygon fill="none" stroke="#404040" points="413.81,-382.247 406.601,-382.399 403.688,-375.802 410.897,-375.65 413.81,-382.247"/>
<text text-anchor="middle" x="464" y="-396.5" font-family="Helvetica,sans-Serif" font-size="10.00"> &#45;mpOriginalFactory</text>
</g>
<!-- Node4 -->
<g id="node4" class="node"><title>Node4</title>
<polygon fill="white" stroke="#bfbfbf" points="104.5,-596.5 104.5,-653.5 205.5,-653.5 205.5,-596.5 104.5,-596.5"/>
<text text-anchor="middle" x="155" y="-641.5" font-family="Helvetica,sans-Serif" font-size="10.00">vector&lt; unsigned &gt;</text>
<polyline fill="none" stroke="#bfbfbf" points="104.5,-634.5 205.5,-634.5 "/>
<text text-anchor="middle" x="155" y="-622.5" font-family="Helvetica,sans-Serif" font-size="10.00"> </text>
<polyline fill="none" stroke="#bfbfbf" points="104.5,-615.5 205.5,-615.5 "/>
<text text-anchor="middle" x="155" y="-603.5" font-family="Helvetica,sans-Serif" font-size="10.00"> </text>
</g>
<!-- Node4&#45;&gt;Node1 -->
<g id="edge8" class="edge"><title>Node4&#45;&gt;Node1</title>
<path fill="none" stroke="#404040" d="M140.846,-596.113C111.611,-534.209 52.3995,-382.839 116,-282 175.621,-187.471 304.272,-144.688 388.952,-126.154"/>
<polygon fill="none" stroke="#404040" points="389.113,-126.12 394.158,-120.968 400.855,-123.644 395.809,-128.796 389.113,-126.12"/>
<text text-anchor="middle" x="162.5" y="-396.5" font-family="Helvetica,sans-Serif" font-size="10.00"> #mNodePermutation</text>
</g>
<!-- Node4&#45;&gt;Node3 -->
<g id="edge4" class="edge"><title>Node4&#45;&gt;Node3</title>
<path fill="none" stroke="#404040" d="M174.442,-596.083C187.225,-577.728 204.953,-552.273 223.408,-525.773"/>
<polygon fill="none" stroke="#404040" points="223.65,-525.426 223.796,-518.216 230.508,-515.579 230.361,-522.788 223.65,-525.426"/>
<text text-anchor="middle" x="248" y="-553.5" font-family="Helvetica,sans-Serif" font-size="10.00"> &#45;mGlobalLows</text>
</g>
<!-- Node5 -->
<g id="node5" class="node"><title>Node5</title>
<g id="a_node5"><a xlink:href="classbool.html" target="_top" xlink:title="{bool\n||}">
<polygon fill="white" stroke="black" points="448.5,-596.5 448.5,-653.5 483.5,-653.5 483.5,-596.5 448.5,-596.5"/>
<text text-anchor="middle" x="466" y="-641.5" font-family="Helvetica,sans-Serif" font-size="10.00">bool</text>
<polyline fill="none" stroke="black" points="448.5,-634.5 483.5,-634.5 "/>
<text text-anchor="middle" x="466" y="-622.5" font-family="Helvetica,sans-Serif" font-size="10.00"> </text>
<polyline fill="none" stroke="black" points="448.5,-615.5 483.5,-615.5 "/>
<text text-anchor="middle" x="466" y="-603.5" font-family="Helvetica,sans-Serif" font-size="10.00"> </text>
</a>
</g>
</g>
<!-- Node5&#45;&gt;Node1 -->
<g id="edge9" class="edge"><title>Node5&#45;&gt;Node1</title>
<path fill="none" stroke="#404040" d="M483.506,-616.982C498.902,-609.755 520.323,-596.873 530,-578 564.068,-511.558 546.125,-314.905 530,-242 529.458,-239.551 528.865,-237.093 528.225,-234.63"/>
<polygon fill="none" stroke="#404040" points="528.225,-234.628 522.723,-229.966 524.911,-223.094 530.412,-227.756 528.225,-234.628"/>
<text text-anchor="middle" x="627" y="-396.5" font-family="Helvetica,sans-Serif" font-size="10.00"> #mMeshChangesDuringSimulation</text>
</g>
<!-- Node5&#45;&gt;Node3 -->
<g id="edge5" class="edge"><title>Node5&#45;&gt;Node3</title>
<path fill="none" stroke="#404040" d="M448.196,-616.977C431.282,-609.523 406.107,-596.286 390,-578 385.356,-572.728 375.399,-552.112 364.068,-526.673"/>
<polygon fill="none" stroke="#404040" points="363.985,-526.484 357.903,-522.61 359.139,-515.506 365.221,-519.38 363.985,-526.484"/>
<text text-anchor="start" x="390" y="-564.5" font-family="Helvetica,sans-Serif" font-size="10.00"> &#45;msCheckNumberOfProcesses</text>
<text text-anchor="middle" x="460" y="-553.5" font-family="Helvetica,sans-Serif" font-size="10.00">OnLoad</text>
<text text-anchor="middle" x="460" y="-542.5" font-family="Helvetica,sans-Serif" font-size="10.00">&#45;mPetscStatusKnown</text>
</g>
<!-- Node6 -->
<g id="node6" class="node"><title>Node6</title>
<g id="a_node6"><a xlink:href="classunsigned.html" target="_top" xlink:title="{unsigned\n||}">
<polygon fill="white" stroke="black" points="271,-596.5 271,-653.5 327,-653.5 327,-596.5 271,-596.5"/>
<text text-anchor="middle" x="299" y="-641.5" font-family="Helvetica,sans-Serif" font-size="10.00">unsigned</text>
<polyline fill="none" stroke="black" points="271,-634.5 327,-634.5 "/>
<text text-anchor="middle" x="299" y="-622.5" font-family="Helvetica,sans-Serif" font-size="10.00"> </text>
<polyline fill="none" stroke="black" points="271,-615.5 327,-615.5 "/>
<text text-anchor="middle" x="299" y="-603.5" font-family="Helvetica,sans-Serif" font-size="10.00"> </text>
</a>
</g>
</g>
<!-- Node6&#45;&gt;Node3 -->
<g id="edge6" class="edge"><title>Node6&#45;&gt;Node3</title>
<path fill="none" stroke="#404040" d="M298.802,-596.413C298.798,-578.595 299.027,-554.916 300,-534 300.095,-531.956 300.197,-529.895 300.304,-527.821"/>
<polygon fill="none" stroke="#404040" points="300.305,-527.796 296.648,-521.581 300.979,-515.815 304.636,-522.03 300.305,-527.796"/>
<text text-anchor="middle" x="333.5" y="-570" font-family="Helvetica,sans-Serif" font-size="10.00"> &#45;mHi</text>
<text text-anchor="middle" x="333.5" y="-559" font-family="Helvetica,sans-Serif" font-size="10.00">&#45;mNumProcs</text>
<text text-anchor="middle" x="333.5" y="-548" font-family="Helvetica,sans-Serif" font-size="10.00">&#45;mLo</text>
<text text-anchor="middle" x="333.5" y="-537" font-family="Helvetica,sans-Serif" font-size="10.00">&#45;mProblemSize</text>
</g>
<!-- Node7 -->
<g id="node7" class="node"><title>Node7</title>
<polygon fill="white" stroke="#bfbfbf" points="716.5,-365 716.5,-433 835.5,-433 835.5,-365 716.5,-365"/>
<text text-anchor="start" x="724.5" y="-421" font-family="Helvetica,sans-Serif" font-size="10.00">vector&lt; Node&lt; SPACE</text>
<text text-anchor="middle" x="776" y="-410" font-family="Helvetica,sans-Serif" font-size="10.00">_DIM &gt; * &gt;</text>
<polyline fill="none" stroke="#bfbfbf" points="716.5,-403 835.5,-403 "/>
<text text-anchor="middle" x="776" y="-391" font-family="Helvetica,sans-Serif" font-size="10.00"> </text>
<polyline fill="none" stroke="#bfbfbf" points="716.5,-384 835.5,-384 "/>
<text text-anchor="middle" x="776" y="-372" font-family="Helvetica,sans-Serif" font-size="10.00"> </text>
</g>
<!-- Node7&#45;&gt;Node1 -->
<g id="edge7" class="edge"><title>Node7&#45;&gt;Node1</title>
<path fill="none" stroke="#404040" d="M759.291,-364.953C745.888,-340.4 725.479,-306.975 702,-282 657.164,-234.307 597.255,-191.062 549.547,-160.257"/>
<polygon fill="none" stroke="#404040" points="549.366,-160.141 542.156,-160.281 539.254,-153.68 546.463,-153.54 549.366,-160.141"/>
<text text-anchor="middle" x="724.5" y="-256" font-family="Helvetica,sans-Serif" font-size="10.00"> #mBoundaryNodes</text>
<text text-anchor="middle" x="724.5" y="-245" font-family="Helvetica,sans-Serif" font-size="10.00">#mNodes</text>
</g>
<!-- Node8 -->
<g id="node8" class="node"><title>Node8</title>
<polygon fill="white" stroke="#bfbfbf" points="859.5,-370.5 859.5,-427.5 900.5,-427.5 900.5,-370.5 859.5,-370.5"/>
<text text-anchor="middle" x="880" y="-415.5" font-family="Helvetica,sans-Serif" font-size="10.00">string</text>
<polyline fill="none" stroke="#bfbfbf" points="859.5,-408.5 900.5,-408.5 "/>
<text text-anchor="middle" x="880" y="-396.5" font-family="Helvetica,sans-Serif" font-size="10.00"> </text>
<polyline fill="none" stroke="#bfbfbf" points="859.5,-389.5 900.5,-389.5 "/>
<text text-anchor="middle" x="880" y="-377.5" font-family="Helvetica,sans-Serif" font-size="10.00"> </text>
</g>
<!-- Node8&#45;&gt;Node1 -->
<g id="edge10" class="edge"><title>Node8&#45;&gt;Node1</title>
<path fill="none" stroke="#404040" d="M877.307,-370.415C873.574,-345.021 864.743,-307.53 844,-282 770.084,-191.025 636.719,-147.184 550.836,-127.468"/>
<polygon fill="none" stroke="#404040" points="550.758,-127.451 544.032,-130.052 539.044,-124.844 545.77,-122.243 550.758,-127.451"/>
<text text-anchor="middle" x="875" y="-250.5" font-family="Helvetica,sans-Serif" font-size="10.00"> #mMeshFileBaseName</text>
</g>
</g>
</svg>
