<?xml version="1.0" encoding="UTF-8" standalone="no"?>
<!DOCTYPE svg PUBLIC "-//W3C//DTD SVG 1.1//EN"
 "http://www.w3.org/Graphics/SVG/1.1/DTD/svg11.dtd">
<!-- Generated by graphviz version 2.36.0 (20140111.2315)
 -->
<!-- Title: AbstractVertexBasedDivisionRule&lt; SPACE_DIM &gt; Pages: 1 -->
<svg width="764pt" height="430pt"
 viewBox="0.00 0.00 764.00 430.00" xmlns="http://www.w3.org/2000/svg" xmlns:xlink="http://www.w3.org/1999/xlink">
<g id="graph0" class="graph" transform="scale(1 1) rotate(0) translate(4 426)">
<title>AbstractVertexBasedDivisionRule&lt; SPACE_DIM &gt;</title>
<polygon fill="white" stroke="none" points="-4,4 -4,-426 760,-426 760,4 -4,4"/>
<!-- Node1 -->
<g id="node1" class="node"><title>Node1</title>
<polygon fill="#bfbfbf" stroke="black" points="277,-160.5 277,-305.5 463,-305.5 463,-160.5 277,-160.5"/>
<text text-anchor="start" x="285" y="-293.5" font-family="Helvetica,sans-Serif" font-size="10.00">AbstractVertexBasedDivision</text>
<text text-anchor="middle" x="370" y="-282.5" font-family="Helvetica,sans-Serif" font-size="10.00">Rule&lt; SPACE_DIM &gt;</text>
<polyline fill="none" stroke="black" points="277,-275.5 463,-275.5 "/>
<text text-anchor="middle" x="370" y="-263.5" font-family="Helvetica,sans-Serif" font-size="10.00"> </text>
<polyline fill="none" stroke="black" points="277,-256.5 463,-256.5 "/>
<text text-anchor="start" x="285" y="-244.5" font-family="Helvetica,sans-Serif" font-size="10.00">+ AbstractVertexBasedDivisionRule()</text>
<text text-anchor="start" x="285" y="-233.5" font-family="Helvetica,sans-Serif" font-size="10.00">+ ~AbstractVertexBasedDivisionRule()</text>
<text text-anchor="start" x="285" y="-222.5" font-family="Helvetica,sans-Serif" font-size="10.00">+ CalculateCellDivisionVector()</text>
<text text-anchor="start" x="285" y="-211.5" font-family="Helvetica,sans-Serif" font-size="10.00">+ OutputCellVertexBasedDivision</text>
<text text-anchor="start" x="285" y="-200.5" font-family="Helvetica,sans-Serif" font-size="10.00">RuleInfo()</text>
<text text-anchor="start" x="285" y="-189.5" font-family="Helvetica,sans-Serif" font-size="10.00"># OutputCellVertexBasedDivision</text>
<text text-anchor="start" x="285" y="-178.5" font-family="Helvetica,sans-Serif" font-size="10.00">RuleParameters()</text>
<text text-anchor="start" x="285" y="-167.5" font-family="Helvetica,sans-Serif" font-size="10.00">&#45; serialize()</text>
</g>
<!-- Node3 -->
<g id="node3" class="node"><title>Node3</title>
<g id="a_node3"><a xlink:href="classCryptVertexBasedDivisionRule.html" target="_top" xlink:title="{CryptVertexBasedDivision\lRule\&lt; SPACE_DIM \&gt;\n||+ CryptVertexBasedDivisionRule()\l+ ~CryptVertexBasedDivisionRule()\l+ CalculateCellDivisionVector()\l&#45; serialize()\l}">
<polygon fill="white" stroke="black" points="-0.5,-11.5 -0.5,-112.5 172.5,-112.5 172.5,-11.5 -0.5,-11.5"/>
<text text-anchor="start" x="7.5" y="-100.5" font-family="Helvetica,sans-Serif" font-size="10.00">CryptVertexBasedDivision</text>
<text text-anchor="middle" x="86" y="-89.5" font-family="Helvetica,sans-Serif" font-size="10.00">Rule&lt; SPACE_DIM &gt;</text>
<polyline fill="none" stroke="black" points="-0.5,-82.5 172.5,-82.5 "/>
<text text-anchor="middle" x="86" y="-70.5" font-family="Helvetica,sans-Serif" font-size="10.00"> </text>
<polyline fill="none" stroke="black" points="-0.5,-63.5 172.5,-63.5 "/>
<text text-anchor="start" x="7.5" y="-51.5" font-family="Helvetica,sans-Serif" font-size="10.00">+ CryptVertexBasedDivisionRule()</text>
<text text-anchor="start" x="7.5" y="-40.5" font-family="Helvetica,sans-Serif" font-size="10.00">+ ~CryptVertexBasedDivisionRule()</text>
<text text-anchor="start" x="7.5" y="-29.5" font-family="Helvetica,sans-Serif" font-size="10.00">+ CalculateCellDivisionVector()</text>
<text text-anchor="start" x="7.5" y="-18.5" font-family="Helvetica,sans-Serif" font-size="10.00">&#45; serialize()</text>
</a>
</g>
</g>
<!-- Node1&#45;&gt;Node3 -->
<g id="edge2" class="edge"><title>Node1&#45;&gt;Node3</title>
<path fill="none" stroke="midnightblue" d="M267.963,-174.972C239.629,-158.79 208.97,-140.956 181,-124 174.966,-120.342 168.75,-116.507 162.524,-112.616"/>
<polygon fill="none" stroke="midnightblue" points="266.255,-178.027 276.676,-179.938 269.721,-171.946 266.255,-178.027"/>
</g>
<!-- Node4 -->
<g id="node4" class="node"><title>Node4</title>
<g id="a_node4"><a xlink:href="classFixedVertexBasedDivisionRule.html" target="_top" xlink:title="{FixedVertexBasedDivision\lRule\&lt; SPACE_DIM \&gt;\n|&#45; mDivisionVector\l|+ FixedVertexBasedDivisionRule()\l+ ~FixedVertexBasedDivisionRule()\l+ rGetDivisionVector()\l+ CalculateCellDivisionVector()\l&#45; serialize()\l}">
<polygon fill="white" stroke="black" points="190.5,-6 190.5,-118 363.5,-118 363.5,-6 190.5,-6"/>
<text text-anchor="start" x="198.5" y="-106" font-family="Helvetica,sans-Serif" font-size="10.00">FixedVertexBasedDivision</text>
<text text-anchor="middle" x="277" y="-95" font-family="Helvetica,sans-Serif" font-size="10.00">Rule&lt; SPACE_DIM &gt;</text>
<polyline fill="none" stroke="black" points="190.5,-88 363.5,-88 "/>
<text text-anchor="start" x="198.5" y="-76" font-family="Helvetica,sans-Serif" font-size="10.00">&#45; mDivisionVector</text>
<polyline fill="none" stroke="black" points="190.5,-69 363.5,-69 "/>
<text text-anchor="start" x="198.5" y="-57" font-family="Helvetica,sans-Serif" font-size="10.00">+ FixedVertexBasedDivisionRule()</text>
<text text-anchor="start" x="198.5" y="-46" font-family="Helvetica,sans-Serif" font-size="10.00">+ ~FixedVertexBasedDivisionRule()</text>
<text text-anchor="start" x="198.5" y="-35" font-family="Helvetica,sans-Serif" font-size="10.00">+ rGetDivisionVector()</text>
<text text-anchor="start" x="198.5" y="-24" font-family="Helvetica,sans-Serif" font-size="10.00">+ CalculateCellDivisionVector()</text>
<text text-anchor="start" x="198.5" y="-13" font-family="Helvetica,sans-Serif" font-size="10.00">&#45; serialize()</text>
</a>
</g>
</g>
<!-- Node1&#45;&gt;Node4 -->
<g id="edge3" class="edge"><title>Node1&#45;&gt;Node4</title>
<path fill="none" stroke="midnightblue" d="M325.614,-151.341C319.422,-140.09 313.181,-128.748 307.33,-118.116"/>
<polygon fill="none" stroke="midnightblue" points="322.672,-153.255 330.56,-160.329 328.805,-149.88 322.672,-153.255"/>
</g>
<!-- Node5 -->
<g id="node5" class="node"><title>Node5</title>
<g id="a_node5"><a xlink:href="classRandomDirectionVertexBasedDivisionRule.html" target="_top" xlink:title="{RandomDirectionVertexBased\lDivisionRule\&lt; SPACE_DIM \&gt;\n||+ RandomDirectionVertexBased\lDivisionRule()\l+ ~RandomDirectionVertexBased\lDivisionRule()\l+ CalculateCellDivisionVector()\l&#45; serialize()\l}">
<polygon fill="white" stroke="black" points="382,-0.5 382,-123.5 546,-123.5 546,-0.5 382,-0.5"/>
<text text-anchor="start" x="390" y="-111.5" font-family="Helvetica,sans-Serif" font-size="10.00">RandomDirectionVertexBased</text>
<text text-anchor="middle" x="464" y="-100.5" font-family="Helvetica,sans-Serif" font-size="10.00">DivisionRule&lt; SPACE_DIM &gt;</text>
<polyline fill="none" stroke="black" points="382,-93.5 546,-93.5 "/>
<text text-anchor="middle" x="464" y="-81.5" font-family="Helvetica,sans-Serif" font-size="10.00"> </text>
<polyline fill="none" stroke="black" points="382,-74.5 546,-74.5 "/>
<text text-anchor="start" x="390" y="-62.5" font-family="Helvetica,sans-Serif" font-size="10.00">+ RandomDirectionVertexBased</text>
<text text-anchor="start" x="390" y="-51.5" font-family="Helvetica,sans-Serif" font-size="10.00">DivisionRule()</text>
<text text-anchor="start" x="390" y="-40.5" font-family="Helvetica,sans-Serif" font-size="10.00">+ ~RandomDirectionVertexBased</text>
<text text-anchor="start" x="390" y="-29.5" font-family="Helvetica,sans-Serif" font-size="10.00">DivisionRule()</text>
<text text-anchor="start" x="390" y="-18.5" font-family="Helvetica,sans-Serif" font-size="10.00">+ CalculateCellDivisionVector()</text>
<text text-anchor="start" x="390" y="-7.5" font-family="Helvetica,sans-Serif" font-size="10.00">&#45; serialize()</text>
</a>
</g>
</g>
<!-- Node1&#45;&gt;Node5 -->
<g id="edge4" class="edge"><title>Node1&#45;&gt;Node5</title>
<path fill="none" stroke="midnightblue" d="M414.836,-151.39C420.042,-142.03 425.284,-132.607 430.304,-123.58"/>
<polygon fill="none" stroke="midnightblue" points="411.667,-149.888 409.864,-160.329 417.784,-153.291 411.667,-149.888"/>
</g>
<!-- Node6 -->
<g id="node6" class="node"><title>Node6</title>
<g id="a_node6"><a xlink:href="classShortAxisVertexBasedDivisionRule.html" target="_top" xlink:title="{ShortAxisVertexBasedDivision\lRule\&lt; SPACE_DIM \&gt;\n||+ ShortAxisVertexBasedDivisionRule()\l+ ~ShortAxisVertexBasedDivisionRule()\l+ CalculateCellDivisionVector()\l&#45; serialize()\l}">
<polygon fill="white" stroke="black" points="564,-11.5 564,-112.5 756,-112.5 756,-11.5 564,-11.5"/>
<text text-anchor="start" x="572" y="-100.5" font-family="Helvetica,sans-Serif" font-size="10.00">ShortAxisVertexBasedDivision</text>
<text text-anchor="middle" x="660" y="-89.5" font-family="Helvetica,sans-Serif" font-size="10.00">Rule&lt; SPACE_DIM &gt;</text>
<polyline fill="none" stroke="black" points="564,-82.5 756,-82.5 "/>
<text text-anchor="middle" x="660" y="-70.5" font-family="Helvetica,sans-Serif" font-size="10.00"> </text>
<polyline fill="none" stroke="black" points="564,-63.5 756,-63.5 "/>
<text text-anchor="start" x="572" y="-51.5" font-family="Helvetica,sans-Serif" font-size="10.00">+ ShortAxisVertexBasedDivisionRule()</text>
<text text-anchor="start" x="572" y="-40.5" font-family="Helvetica,sans-Serif" font-size="10.00">+ ~ShortAxisVertexBasedDivisionRule()</text>
<text text-anchor="start" x="572" y="-29.5" font-family="Helvetica,sans-Serif" font-size="10.00">+ CalculateCellDivisionVector()</text>
<text text-anchor="start" x="572" y="-18.5" font-family="Helvetica,sans-Serif" font-size="10.00">&#45; serialize()</text>
</a>
</g>
</g>
<!-- Node1&#45;&gt;Node6 -->
<g id="edge5" class="edge"><title>Node1&#45;&gt;Node6</title>
<path fill="none" stroke="midnightblue" d="M472.247,-172.415C505.74,-152.896 542.575,-131.43 574.681,-112.72"/>
<polygon fill="none" stroke="midnightblue" points="470.232,-169.538 463.354,-177.597 473.756,-175.586 470.232,-169.538"/>
</g>
<!-- Node2 -->
<g id="node2" class="node"><title>Node2</title>
<g id="a_node2"><a xlink:href="classIdentifiable.html" target="_top" xlink:title="{Identifiable\n||+ ~Identifiable()\l+ GetIdentifier()\l&#45; TidyTemplatedExportIdentifier()\l}">
<polygon fill="white" stroke="black" points="290.5,-342.5 290.5,-421.5 449.5,-421.5 449.5,-342.5 290.5,-342.5"/>
<text text-anchor="middle" x="370" y="-409.5" font-family="Helvetica,sans-Serif" font-size="10.00">Identifiable</text>
<polyline fill="none" stroke="black" points="290.5,-402.5 449.5,-402.5 "/>
<text text-anchor="middle" x="370" y="-390.5" font-family="Helvetica,sans-Serif" font-size="10.00"> </text>
<polyline fill="none" stroke="black" points="290.5,-383.5 449.5,-383.5 "/>
<text text-anchor="start" x="298.5" y="-371.5" font-family="Helvetica,sans-Serif" font-size="10.00">+ ~Identifiable()</text>
<text text-anchor="start" x="298.5" y="-360.5" font-family="Helvetica,sans-Serif" font-size="10.00">+ GetIdentifier()</text>
<text text-anchor="start" x="298.5" y="-349.5" font-family="Helvetica,sans-Serif" font-size="10.00">&#45; TidyTemplatedExportIdentifier()</text>
</a>
</g>
</g>
<!-- Node2&#45;&gt;Node1 -->
<g id="edge1" class="edge"><title>Node2&#45;&gt;Node1</title>
<path fill="none" stroke="midnightblue" d="M370,-332.243C370,-323.699 370,-314.651 370,-305.64"/>
<polygon fill="none" stroke="midnightblue" points="366.5,-332.377 370,-342.377 373.5,-332.378 366.5,-332.377"/>
</g>
</g>
</svg>
