<?xml version="1.0" encoding="UTF-8" standalone="no"?>
<!DOCTYPE svg PUBLIC "-//W3C//DTD SVG 1.1//EN"
 "http://www.w3.org/Graphics/SVG/1.1/DTD/svg11.dtd">
<!-- Generated by graphviz version 2.36.0 (20140111.2315)
 -->
<!-- Title: AbstractSteadyStateRunner Pages: 1 -->
<svg width="297pt" height="272pt"
 viewBox="0.00 0.00 297.00 272.00" xmlns="http://www.w3.org/2000/svg" xmlns:xlink="http://www.w3.org/1999/xlink">
<g id="graph0" class="graph" transform="scale(1 1) rotate(0) translate(4 268)">
<title>AbstractSteadyStateRunner</title>
<polygon fill="white" stroke="none" points="-4,4 -4,-268 293,-268 293,4 -4,4"/>
<!-- Node1 -->
<g id="node1" class="node"><title>Node1</title>
<polygon fill="#bfbfbf" stroke="black" points="37.5,-1 37.5,-135 218.5,-135 218.5,-1 37.5,-1"/>
<text text-anchor="middle" x="128" y="-123" font-family="Helvetica,sans-Serif" font-size="10.00">AbstractSteadyStateRunner</text>
<polyline fill="none" stroke="black" points="37.5,-116 218.5,-116 "/>
<text text-anchor="middle" x="128" y="-104" font-family="Helvetica,sans-Serif" font-size="10.00"> </text>
<polyline fill="none" stroke="black" points="37.5,-97 218.5,-97 "/>
<text text-anchor="start" x="45.5" y="-85" font-family="Helvetica,sans-Serif" font-size="10.00">+ AbstractSteadyStateRunner()</text>
<text text-anchor="start" x="45.5" y="-74" font-family="Helvetica,sans-Serif" font-size="10.00">+ ~AbstractSteadyStateRunner()</text>
<text text-anchor="start" x="45.5" y="-63" font-family="Helvetica,sans-Serif" font-size="10.00">+ RunToSteadyState()</text>
<text text-anchor="start" x="45.5" y="-52" font-family="Helvetica,sans-Serif" font-size="10.00">+ SuppressOutput()</text>
<text text-anchor="start" x="45.5" y="-41" font-family="Helvetica,sans-Serif" font-size="10.00">+ GetNumEvaluations()</text>
<text text-anchor="start" x="45.5" y="-30" font-family="Helvetica,sans-Serif" font-size="10.00">+ SetMaxNumPaces()</text>
<text text-anchor="start" x="45.5" y="-19" font-family="Helvetica,sans-Serif" font-size="10.00"># RunToSteadyStateImplementation()</text>
<text text-anchor="start" x="45.5" y="-8" font-family="Helvetica,sans-Serif" font-size="10.00">&#45; AbstractSteadyStateRunner()</text>
</g>
<!-- Node2 -->
<g id="node2" class="node"><title>Node2</title>
<g id="a_node2"><a xlink:href="classbool.html" target="_top" xlink:title="{bool\n||}">
<polygon fill="white" stroke="black" points="-0.5,-200.5 -0.5,-257.5 34.5,-257.5 34.5,-200.5 -0.5,-200.5"/>
<text text-anchor="middle" x="17" y="-245.5" font-family="Helvetica,sans-Serif" font-size="10.00">bool</text>
<polyline fill="none" stroke="black" points="-0.5,-238.5 34.5,-238.5 "/>
<text text-anchor="middle" x="17" y="-226.5" font-family="Helvetica,sans-Serif" font-size="10.00"> </text>
<polyline fill="none" stroke="black" points="-0.5,-219.5 34.5,-219.5 "/>
<text text-anchor="middle" x="17" y="-207.5" font-family="Helvetica,sans-Serif" font-size="10.00"> </text>
</a>
</g>
</g>
<!-- Node2&#45;&gt;Node1 -->
<g id="edge1" class="edge"><title>Node2&#45;&gt;Node1</title>
<path fill="none" stroke="#404040" d="M20.2856,-200.177C22.9255,-185.639 27.6383,-168.009 36,-154 37.8895,-150.834 39.9322,-147.715 42.0995,-144.651"/>
<polygon fill="none" stroke="#404040" points="42.1371,-144.601 42.592,-137.404 49.4102,-135.056 48.9552,-142.253 42.1371,-144.601"/>
<text text-anchor="middle" x="80" y="-162.5" font-family="Helvetica,sans-Serif" font-size="10.00"> #mSuppressOutput</text>
</g>
<!-- Node3 -->
<g id="node3" class="node"><title>Node3</title>
<polygon fill="white" stroke="#bfbfbf" points="59.5,-195 59.5,-263 196.5,-263 196.5,-195 59.5,-195"/>
<text text-anchor="start" x="67.5" y="-251" font-family="Helvetica,sans-Serif" font-size="10.00">shared_ptr&lt; AbstractCvode</text>
<text text-anchor="middle" x="128" y="-240" font-family="Helvetica,sans-Serif" font-size="10.00">Cell &gt;</text>
<polyline fill="none" stroke="#bfbfbf" points="59.5,-233 196.5,-233 "/>
<text text-anchor="middle" x="128" y="-221" font-family="Helvetica,sans-Serif" font-size="10.00"> </text>
<polyline fill="none" stroke="#bfbfbf" points="59.5,-214 196.5,-214 "/>
<text text-anchor="middle" x="128" y="-202" font-family="Helvetica,sans-Serif" font-size="10.00"> </text>
</g>
<!-- Node3&#45;&gt;Node1 -->
<g id="edge2" class="edge"><title>Node3&#45;&gt;Node1</title>
<path fill="none" stroke="#404040" d="M128,-194.668C128,-180.746 128,-163.932 128,-147.196"/>
<polygon fill="none" stroke="#404040" points="128,-147.065 124,-141.065 128,-135.065 132,-141.065 128,-147.065"/>
<text text-anchor="middle" x="152.5" y="-162.5" font-family="Helvetica,sans-Serif" font-size="10.00"> #mpModel</text>
</g>
<!-- Node4 -->
<g id="node4" class="node"><title>Node4</title>
<g id="a_node4"><a xlink:href="classunsigned.html" target="_top" xlink:title="{unsigned\n||}">
<polygon fill="white" stroke="black" points="215,-200.5 215,-257.5 271,-257.5 271,-200.5 215,-200.5"/>
<text text-anchor="middle" x="243" y="-245.5" font-family="Helvetica,sans-Serif" font-size="10.00">unsigned</text>
<polyline fill="none" stroke="black" points="215,-238.5 271,-238.5 "/>
<text text-anchor="middle" x="243" y="-226.5" font-family="Helvetica,sans-Serif" font-size="10.00"> </text>
<polyline fill="none" stroke="black" points="215,-219.5 271,-219.5 "/>
<text text-anchor="middle" x="243" y="-207.5" font-family="Helvetica,sans-Serif" font-size="10.00"> </text>
</a>
</g>
</g>
<!-- Node4&#45;&gt;Node1 -->
<g id="edge3" class="edge"><title>Node4&#45;&gt;Node1</title>
<path fill="none" stroke="#404040" d="M222.969,-200.304C211.793,-184.853 197.273,-164.778 182.963,-144.993"/>
<polygon fill="none" stroke="#404040" points="182.778,-144.736 176.021,-142.219 175.745,-135.013 182.503,-137.531 182.778,-144.736"/>
<text text-anchor="middle" x="246" y="-168" font-family="Helvetica,sans-Serif" font-size="10.00"> #mMaxNumPaces</text>
<text text-anchor="middle" x="246" y="-157" font-family="Helvetica,sans-Serif" font-size="10.00">#mNumEvaluations</text>
</g>
</g>
</svg>
