<?xml version="1.0" encoding="UTF-8" standalone="no"?>
<!DOCTYPE svg PUBLIC "-//W3C//DTD SVG 1.1//EN"
 "http://www.w3.org/Graphics/SVG/1.1/DTD/svg11.dtd">
<!-- Generated by graphviz version 2.36.0 (20140111.2315)
 -->
<!-- Title: AbstractStimulusFactory&lt; ELEMENT_DIM, SPACE_DIM &gt; Pages: 1 -->
<svg width="355pt" height="284pt"
 viewBox="0.00 0.00 355.00 284.00" xmlns="http://www.w3.org/2000/svg" xmlns:xlink="http://www.w3.org/1999/xlink">
<g id="graph0" class="graph" transform="scale(1 1) rotate(0) translate(4 280)">
<title>AbstractStimulusFactory&lt; ELEMENT_DIM, SPACE_DIM &gt;</title>
<polygon fill="white" stroke="none" points="-4,4 -4,-280 351,-280 351,4 -4,4"/>
<!-- Node1 -->
<g id="node1" class="node"><title>Node1</title>
<polygon fill="#bfbfbf" stroke="black" points="82,-1 82,-157 252,-157 252,-1 82,-1"/>
<text text-anchor="start" x="90" y="-145" font-family="Helvetica,sans-Serif" font-size="10.00">AbstractStimulusFactory</text>
<text text-anchor="middle" x="167" y="-134" font-family="Helvetica,sans-Serif" font-size="10.00">&lt; ELEMENT_DIM, SPACE_DIM &gt;</text>
<polyline fill="none" stroke="black" points="82,-127 252,-127 "/>
<text text-anchor="middle" x="167" y="-115" font-family="Helvetica,sans-Serif" font-size="10.00"> </text>
<polyline fill="none" stroke="black" points="82,-108 252,-108 "/>
<text text-anchor="start" x="90" y="-96" font-family="Helvetica,sans-Serif" font-size="10.00">+ CreateStimulusForNode()</text>
<text text-anchor="start" x="90" y="-85" font-family="Helvetica,sans-Serif" font-size="10.00">+ GetNumberOfCells()</text>
<text text-anchor="start" x="90" y="-74" font-family="Helvetica,sans-Serif" font-size="10.00">+ SetCompatibleExtracellular</text>
<text text-anchor="start" x="90" y="-63" font-family="Helvetica,sans-Serif" font-size="10.00">Stimulus()</text>
<text text-anchor="start" x="90" y="-52" font-family="Helvetica,sans-Serif" font-size="10.00">+ AbstractStimulusFactory()</text>
<text text-anchor="start" x="90" y="-41" font-family="Helvetica,sans-Serif" font-size="10.00">+ ~AbstractStimulusFactory()</text>
<text text-anchor="start" x="90" y="-30" font-family="Helvetica,sans-Serif" font-size="10.00">+ SetMesh()</text>
<text text-anchor="start" x="90" y="-19" font-family="Helvetica,sans-Serif" font-size="10.00">+ GetMesh()</text>
<text text-anchor="start" x="90" y="-8" font-family="Helvetica,sans-Serif" font-size="10.00">+ GetRegionsToBeGrounded()</text>
</g>
<!-- Node2 -->
<g id="node2" class="node"><title>Node2</title>
<polygon fill="white" stroke="#bfbfbf" points="0,-207 0,-275 152,-275 152,-207 0,-207"/>
<text text-anchor="start" x="8" y="-263" font-family="Helvetica,sans-Serif" font-size="10.00">vector&lt; AbstractChasteRegion</text>
<text text-anchor="middle" x="76" y="-252" font-family="Helvetica,sans-Serif" font-size="10.00">&lt; SPACE_DIM &gt; * &gt;</text>
<polyline fill="none" stroke="#bfbfbf" points="0,-245 152,-245 "/>
<text text-anchor="middle" x="76" y="-233" font-family="Helvetica,sans-Serif" font-size="10.00"> </text>
<polyline fill="none" stroke="#bfbfbf" points="0,-226 152,-226 "/>
<text text-anchor="middle" x="76" y="-214" font-family="Helvetica,sans-Serif" font-size="10.00"> </text>
</g>
<!-- Node2&#45;&gt;Node1 -->
<g id="edge1" class="edge"><title>Node2&#45;&gt;Node1</title>
<path fill="none" stroke="#404040" d="M94.8553,-206.848C101.41,-195.323 109.104,-181.796 116.98,-167.948"/>
<polygon fill="none" stroke="#404040" points="117.09,-167.754 116.579,-160.561 123.022,-157.323 123.533,-164.516 117.09,-167.754"/>
<text text-anchor="middle" x="158.5" y="-179.5" font-family="Helvetica,sans-Serif" font-size="10.00"> #mGroundedRegions</text>
</g>
<!-- Node3 -->
<g id="node3" class="node"><title>Node3</title>
<polygon fill="white" stroke="#bfbfbf" points="170.5,-207 170.5,-275 347.5,-275 347.5,-207 170.5,-207"/>
<text text-anchor="start" x="178.5" y="-263" font-family="Helvetica,sans-Serif" font-size="10.00">AbstractTetrahedralMesh</text>
<text text-anchor="middle" x="259" y="-252" font-family="Helvetica,sans-Serif" font-size="10.00">&lt; ELEMENT_DIM, SPACE_DIM &gt; *</text>
<polyline fill="none" stroke="#bfbfbf" points="170.5,-245 347.5,-245 "/>
<text text-anchor="middle" x="259" y="-233" font-family="Helvetica,sans-Serif" font-size="10.00"> </text>
<polyline fill="none" stroke="#bfbfbf" points="170.5,-226 347.5,-226 "/>
<text text-anchor="middle" x="259" y="-214" font-family="Helvetica,sans-Serif" font-size="10.00"> </text>
</g>
<!-- Node3&#45;&gt;Node1 -->
<g id="edge2" class="edge"><title>Node3&#45;&gt;Node1</title>
<path fill="none" stroke="#404040" d="M239.938,-206.848C233.311,-195.323 225.533,-181.796 217.57,-167.948"/>
<polygon fill="none" stroke="#404040" points="217.443,-167.726 210.984,-164.519 211.461,-157.323 217.919,-160.531 217.443,-167.726"/>
<text text-anchor="middle" x="250" y="-179.5" font-family="Helvetica,sans-Serif" font-size="10.00"> #mpMesh</text>
</g>
</g>
</svg>
