<?xml version="1.0" encoding="UTF-8" standalone="no"?>
<!DOCTYPE svg PUBLIC "-//W3C//DTD SVG 1.1//EN"
 "http://www.w3.org/Graphics/SVG/1.1/DTD/svg11.dtd">
<!-- Generated by graphviz version 2.36.0 (20140111.2315)
 -->
<!-- Title: AbstractCardiacCellInterface Pages: 1 -->
<svg width="651pt" height="350pt"
 viewBox="0.00 0.00 651.00 350.00" xmlns="http://www.w3.org/2000/svg" xmlns:xlink="http://www.w3.org/1999/xlink">
<g id="graph0" class="graph" transform="scale(1 1) rotate(0) translate(4 346)">
<title>AbstractCardiacCellInterface</title>
<polygon fill="white" stroke="none" points="-4,4 -4,-346 647,-346 647,4 -4,4"/>
<!-- Node1 -->
<g id="node1" class="node"><title>Node1</title>
<polygon fill="#bfbfbf" stroke="black" points="204,-1 204,-179 368,-179 368,-1 204,-1"/>
<text text-anchor="middle" x="286" y="-167" font-family="Helvetica,sans-Serif" font-size="10.00">AbstractCardiacCellInterface</text>
<polyline fill="none" stroke="black" points="204,-160 368,-160 "/>
<text text-anchor="middle" x="286" y="-148" font-family="Helvetica,sans-Serif" font-size="10.00"> </text>
<polyline fill="none" stroke="black" points="204,-141 368,-141 "/>
<text text-anchor="start" x="212" y="-129" font-family="Helvetica,sans-Serif" font-size="10.00">+ AbstractCardiacCellInterface()</text>
<text text-anchor="start" x="212" y="-118" font-family="Helvetica,sans-Serif" font-size="10.00">+ ~AbstractCardiacCellInterface()</text>
<text text-anchor="start" x="212" y="-107" font-family="Helvetica,sans-Serif" font-size="10.00">+ SetTimestep()</text>
<text text-anchor="start" x="212" y="-96" font-family="Helvetica,sans-Serif" font-size="10.00">+ GetNumberOfStateVariables()</text>
<text text-anchor="start" x="212" y="-85" font-family="Helvetica,sans-Serif" font-size="10.00">+ GetNumberOfParameters()</text>
<text text-anchor="start" x="212" y="-74" font-family="Helvetica,sans-Serif" font-size="10.00">+ GetStdVecStateVariables()</text>
<text text-anchor="start" x="212" y="-63" font-family="Helvetica,sans-Serif" font-size="10.00">+ rGetStateVariableNames()</text>
<text text-anchor="start" x="212" y="-52" font-family="Helvetica,sans-Serif" font-size="10.00">+ SetStateVariables()</text>
<text text-anchor="start" x="212" y="-41" font-family="Helvetica,sans-Serif" font-size="10.00">+ SetStateVariable()</text>
<text text-anchor="start" x="212" y="-30" font-family="Helvetica,sans-Serif" font-size="10.00">+ SetStateVariable()</text>
<text text-anchor="start" x="212" y="-19" font-family="Helvetica,sans-Serif" font-size="10.00">and 28 more...</text>
<text text-anchor="start" x="212" y="-8" font-family="Helvetica,sans-Serif" font-size="10.00">&#45; serialize()</text>
</g>
<!-- Node2 -->
<g id="node2" class="node"><title>Node2</title>
<polygon fill="white" stroke="#bfbfbf" points="0,-273 0,-341 140,-341 140,-273 0,-273"/>
<text text-anchor="start" x="8" y="-329" font-family="Helvetica,sans-Serif" font-size="10.00">shared_ptr&lt; AbstractIvpOde</text>
<text text-anchor="middle" x="70" y="-318" font-family="Helvetica,sans-Serif" font-size="10.00">Solver &gt;</text>
<polyline fill="none" stroke="#bfbfbf" points="0,-311 140,-311 "/>
<text text-anchor="middle" x="70" y="-299" font-family="Helvetica,sans-Serif" font-size="10.00"> </text>
<polyline fill="none" stroke="#bfbfbf" points="0,-292 140,-292 "/>
<text text-anchor="middle" x="70" y="-280" font-family="Helvetica,sans-Serif" font-size="10.00"> </text>
</g>
<!-- Node2&#45;&gt;Node1 -->
<g id="edge1" class="edge"><title>Node2&#45;&gt;Node1</title>
<path fill="none" stroke="#404040" d="M79.0885,-272.979C86.6567,-250.026 99.2548,-219.767 118,-198 138.817,-173.827 166.448,-153.181 193.278,-136.659"/>
<polygon fill="none" stroke="#404040" points="193.607,-136.462 196.7,-129.948 203.903,-130.299 200.809,-136.813 193.607,-136.462"/>
<text text-anchor="middle" x="152" y="-223.5" font-family="Helvetica,sans-Serif" font-size="10.00"> #mpOdeSolver</text>
</g>
<!-- Node3 -->
<g id="node3" class="node"><title>Node3</title>
<g id="a_node3"><a xlink:href="classdouble.html" target="_top" xlink:title="{double\n||}">
<polygon fill="white" stroke="black" points="158.5,-278.5 158.5,-335.5 203.5,-335.5 203.5,-278.5 158.5,-278.5"/>
<text text-anchor="middle" x="181" y="-323.5" font-family="Helvetica,sans-Serif" font-size="10.00">double</text>
<polyline fill="none" stroke="black" points="158.5,-316.5 203.5,-316.5 "/>
<text text-anchor="middle" x="181" y="-304.5" font-family="Helvetica,sans-Serif" font-size="10.00"> </text>
<polyline fill="none" stroke="black" points="158.5,-297.5 203.5,-297.5 "/>
<text text-anchor="middle" x="181" y="-285.5" font-family="Helvetica,sans-Serif" font-size="10.00"> </text>
</a>
</g>
</g>
<!-- Node3&#45;&gt;Node1 -->
<g id="edge2" class="edge"><title>Node3&#45;&gt;Node1</title>
<path fill="none" stroke="#404040" d="M184.54,-278.367C188.137,-255.926 194.943,-223.871 207,-198 208.235,-195.351 209.54,-192.703 210.907,-190.061"/>
<polygon fill="none" stroke="#404040" points="211.065,-189.773 210.447,-182.589 216.842,-179.256 217.459,-186.44 211.065,-189.773"/>
<text text-anchor="middle" x="244" y="-223.5" font-family="Helvetica,sans-Serif" font-size="10.00"> #mFixedVoltage</text>
</g>
<!-- Node4 -->
<g id="node4" class="node"><title>Node4</title>
<polygon fill="white" stroke="#bfbfbf" points="222,-273 222,-341 368,-341 368,-273 222,-273"/>
<text text-anchor="start" x="230" y="-329" font-family="Helvetica,sans-Serif" font-size="10.00">shared_ptr&lt; AbstractStimulus</text>
<text text-anchor="middle" x="295" y="-318" font-family="Helvetica,sans-Serif" font-size="10.00">Function &gt;</text>
<polyline fill="none" stroke="#bfbfbf" points="222,-311 368,-311 "/>
<text text-anchor="middle" x="295" y="-299" font-family="Helvetica,sans-Serif" font-size="10.00"> </text>
<polyline fill="none" stroke="#bfbfbf" points="222,-292 368,-292 "/>
<text text-anchor="middle" x="295" y="-280" font-family="Helvetica,sans-Serif" font-size="10.00"> </text>
</g>
<!-- Node4&#45;&gt;Node1 -->
<g id="edge3" class="edge"><title>Node4&#45;&gt;Node1</title>
<path fill="none" stroke="#404040" d="M289.151,-272.796C288.265,-266.57 287.485,-260.1 287,-254 285.387,-233.72 284.6,-211.975 284.304,-191.188"/>
<polygon fill="none" stroke="#404040" points="284.303,-191.078 280.244,-185.118 284.184,-179.078 288.243,-185.038 284.303,-191.078"/>
<text text-anchor="middle" x="342.5" y="-223.5" font-family="Helvetica,sans-Serif" font-size="10.00"> #mpIntracellularStimulus</text>
</g>
<!-- Node5 -->
<g id="node5" class="node"><title>Node5</title>
<g id="a_node5"><a xlink:href="classbool.html" target="_top" xlink:title="{bool\n||}">
<polygon fill="white" stroke="black" points="402.5,-278.5 402.5,-335.5 437.5,-335.5 437.5,-278.5 402.5,-278.5"/>
<text text-anchor="middle" x="420" y="-323.5" font-family="Helvetica,sans-Serif" font-size="10.00">bool</text>
<polyline fill="none" stroke="black" points="402.5,-316.5 437.5,-316.5 "/>
<text text-anchor="middle" x="420" y="-304.5" font-family="Helvetica,sans-Serif" font-size="10.00"> </text>
<polyline fill="none" stroke="black" points="402.5,-297.5 437.5,-297.5 "/>
<text text-anchor="middle" x="420" y="-285.5" font-family="Helvetica,sans-Serif" font-size="10.00"> </text>
</a>
</g>
</g>
<!-- Node5&#45;&gt;Node1 -->
<g id="edge4" class="edge"><title>Node5&#45;&gt;Node1</title>
<path fill="none" stroke="#404040" d="M418.907,-278.25C416.975,-255.449 411.784,-222.958 398,-198 391.99,-187.118 384.499,-176.677 376.257,-166.873"/>
<polygon fill="none" stroke="#404040" points="376.084,-166.677 369.116,-164.821 368.149,-157.675 375.117,-159.531 376.084,-166.677"/>
<text text-anchor="start" x="416" y="-245.5" font-family="Helvetica,sans-Serif" font-size="10.00"> #mHasDefaultStimulusFrom</text>
<text text-anchor="middle" x="479.5" y="-234.5" font-family="Helvetica,sans-Serif" font-size="10.00">CellML</text>
<text text-anchor="start" x="416" y="-223.5" font-family="Helvetica,sans-Serif" font-size="10.00">#mSetVoltageDerivativeTo</text>
<text text-anchor="middle" x="479.5" y="-212.5" font-family="Helvetica,sans-Serif" font-size="10.00">Zero</text>
<text text-anchor="middle" x="479.5" y="-201.5" font-family="Helvetica,sans-Serif" font-size="10.00">#mIsUsedInTissue</text>
</g>
<!-- Node6 -->
<g id="node6" class="node"><title>Node6</title>
<g id="a_node6"><a xlink:href="classunsigned.html" target="_top" xlink:title="{unsigned\n||}">
<polygon fill="white" stroke="black" points="542,-278.5 542,-335.5 598,-335.5 598,-278.5 542,-278.5"/>
<text text-anchor="middle" x="570" y="-323.5" font-family="Helvetica,sans-Serif" font-size="10.00">unsigned</text>
<polyline fill="none" stroke="black" points="542,-316.5 598,-316.5 "/>
<text text-anchor="middle" x="570" y="-304.5" font-family="Helvetica,sans-Serif" font-size="10.00"> </text>
<polyline fill="none" stroke="black" points="542,-297.5 598,-297.5 "/>
<text text-anchor="middle" x="570" y="-285.5" font-family="Helvetica,sans-Serif" font-size="10.00"> </text>
</a>
</g>
</g>
<!-- Node6&#45;&gt;Node1 -->
<g id="edge5" class="edge"><title>Node6&#45;&gt;Node1</title>
<path fill="none" stroke="#404040" d="M570.944,-278.083C570.284,-254.246 565.678,-220.366 547,-198 505.239,-147.993 436.396,-121.064 379.896,-106.732"/>
<polygon fill="none" stroke="#404040" points="379.705,-106.685 372.932,-109.161 368.042,-103.861 374.815,-101.386 379.705,-106.685"/>
<text text-anchor="middle" x="606" y="-223.5" font-family="Helvetica,sans-Serif" font-size="10.00"> #mVoltageIndex</text>
</g>
</g>
</svg>
