<?xml version="1.0" encoding="UTF-8" standalone="no"?>
<!DOCTYPE svg PUBLIC "-//W3C//DTD SVG 1.1//EN"
 "http://www.w3.org/Graphics/SVG/1.1/DTD/svg11.dtd">
<!-- Generated by graphviz version 2.36.0 (20140111.2315)
 -->
<!-- Title: AbstractCentreBasedDivisionRule&lt; ELEMENT_DIM, SPACE_DIM &gt; Pages: 1 -->
<svg width="590pt" height="442pt"
 viewBox="0.00 0.00 590.00 442.00" xmlns="http://www.w3.org/2000/svg" xmlns:xlink="http://www.w3.org/1999/xlink">
<g id="graph0" class="graph" transform="scale(1 1) rotate(0) translate(4 438)">
<title>AbstractCentreBasedDivisionRule&lt; ELEMENT_DIM, SPACE_DIM &gt;</title>
<polygon fill="white" stroke="none" points="-4,4 -4,-438 586,-438 586,4 -4,4"/>
<!-- Node1 -->
<g id="node1" class="node"><title>Node1</title>
<polygon fill="#bfbfbf" stroke="black" points="208.5,-172.5 208.5,-317.5 399.5,-317.5 399.5,-172.5 208.5,-172.5"/>
<text text-anchor="start" x="216.5" y="-305.5" font-family="Helvetica,sans-Serif" font-size="10.00">AbstractCentreBasedDivision</text>
<text text-anchor="middle" x="304" y="-294.5" font-family="Helvetica,sans-Serif" font-size="10.00">Rule&lt; ELEMENT_DIM, SPACE_DIM &gt;</text>
<polyline fill="none" stroke="black" points="208.5,-287.5 399.5,-287.5 "/>
<text text-anchor="middle" x="304" y="-275.5" font-family="Helvetica,sans-Serif" font-size="10.00"> </text>
<polyline fill="none" stroke="black" points="208.5,-268.5 399.5,-268.5 "/>
<text text-anchor="start" x="216.5" y="-256.5" font-family="Helvetica,sans-Serif" font-size="10.00">+ AbstractCentreBasedDivisionRule()</text>
<text text-anchor="start" x="216.5" y="-245.5" font-family="Helvetica,sans-Serif" font-size="10.00">+ ~AbstractCentreBasedDivisionRule()</text>
<text text-anchor="start" x="216.5" y="-234.5" font-family="Helvetica,sans-Serif" font-size="10.00">+ CalculateCellDivisionVector()</text>
<text text-anchor="start" x="216.5" y="-223.5" font-family="Helvetica,sans-Serif" font-size="10.00">+ OutputCellCentreBasedDivision</text>
<text text-anchor="start" x="216.5" y="-212.5" font-family="Helvetica,sans-Serif" font-size="10.00">RuleInfo()</text>
<text text-anchor="start" x="216.5" y="-201.5" font-family="Helvetica,sans-Serif" font-size="10.00"># OutputCellCentreBasedDivision</text>
<text text-anchor="start" x="216.5" y="-190.5" font-family="Helvetica,sans-Serif" font-size="10.00">RuleParameters()</text>
<text text-anchor="start" x="216.5" y="-179.5" font-family="Helvetica,sans-Serif" font-size="10.00">&#45; serialize()</text>
</g>
<!-- Node3 -->
<g id="node3" class="node"><title>Node3</title>
<g id="a_node3"><a xlink:href="classCryptCentreBasedDivisionRule.html" target="_top" xlink:title="{CryptCentreBasedDivision\lRule\&lt; ELEMENT_DIM, SPACE_DIM \&gt;\n||+ CryptCentreBasedDivisionRule()\l+ ~CryptCentreBasedDivisionRule()\l+ CalculateCellDivisionVector()\l&#45; serialize()\l}">
<polygon fill="white" stroke="black" points="-0.5,-17.5 -0.5,-118.5 190.5,-118.5 190.5,-17.5 -0.5,-17.5"/>
<text text-anchor="start" x="7.5" y="-106.5" font-family="Helvetica,sans-Serif" font-size="10.00">CryptCentreBasedDivision</text>
<text text-anchor="middle" x="95" y="-95.5" font-family="Helvetica,sans-Serif" font-size="10.00">Rule&lt; ELEMENT_DIM, SPACE_DIM &gt;</text>
<polyline fill="none" stroke="black" points="-0.5,-88.5 190.5,-88.5 "/>
<text text-anchor="middle" x="95" y="-76.5" font-family="Helvetica,sans-Serif" font-size="10.00"> </text>
<polyline fill="none" stroke="black" points="-0.5,-69.5 190.5,-69.5 "/>
<text text-anchor="start" x="7.5" y="-57.5" font-family="Helvetica,sans-Serif" font-size="10.00">+ CryptCentreBasedDivisionRule()</text>
<text text-anchor="start" x="7.5" y="-46.5" font-family="Helvetica,sans-Serif" font-size="10.00">+ ~CryptCentreBasedDivisionRule()</text>
<text text-anchor="start" x="7.5" y="-35.5" font-family="Helvetica,sans-Serif" font-size="10.00">+ CalculateCellDivisionVector()</text>
<text text-anchor="start" x="7.5" y="-24.5" font-family="Helvetica,sans-Serif" font-size="10.00">&#45; serialize()</text>
</a>
</g>
</g>
<!-- Node1&#45;&gt;Node3 -->
<g id="edge2" class="edge"><title>Node1&#45;&gt;Node3</title>
<path fill="none" stroke="midnightblue" d="M210.525,-165.731C191.414,-149.73 171.806,-133.311 154.296,-118.65"/>
<polygon fill="none" stroke="midnightblue" points="208.475,-168.579 218.389,-172.316 212.968,-163.212 208.475,-168.579"/>
</g>
<!-- Node4 -->
<g id="node4" class="node"><title>Node4</title>
<g id="a_node4"><a xlink:href="classFixedCentreBasedDivisionRule.html" target="_top" xlink:title="{FixedCentreBasedDivision\lRule\&lt; ELEMENT_DIM, SPACE_DIM \&gt;\n|&#45; mDaughterLocation\l|+ FixedCentreBasedDivisionRule()\l+ ~FixedCentreBasedDivisionRule()\l+ rGetDaughterLocation()\l+ CalculateCellDivisionVector()\l&#45; serialize()\l}">
<polygon fill="white" stroke="black" points="208.5,-12 208.5,-124 399.5,-124 399.5,-12 208.5,-12"/>
<text text-anchor="start" x="216.5" y="-112" font-family="Helvetica,sans-Serif" font-size="10.00">FixedCentreBasedDivision</text>
<text text-anchor="middle" x="304" y="-101" font-family="Helvetica,sans-Serif" font-size="10.00">Rule&lt; ELEMENT_DIM, SPACE_DIM &gt;</text>
<polyline fill="none" stroke="black" points="208.5,-94 399.5,-94 "/>
<text text-anchor="start" x="216.5" y="-82" font-family="Helvetica,sans-Serif" font-size="10.00">&#45; mDaughterLocation</text>
<polyline fill="none" stroke="black" points="208.5,-75 399.5,-75 "/>
<text text-anchor="start" x="216.5" y="-63" font-family="Helvetica,sans-Serif" font-size="10.00">+ FixedCentreBasedDivisionRule()</text>
<text text-anchor="start" x="216.5" y="-52" font-family="Helvetica,sans-Serif" font-size="10.00">+ ~FixedCentreBasedDivisionRule()</text>
<text text-anchor="start" x="216.5" y="-41" font-family="Helvetica,sans-Serif" font-size="10.00">+ rGetDaughterLocation()</text>
<text text-anchor="start" x="216.5" y="-30" font-family="Helvetica,sans-Serif" font-size="10.00">+ CalculateCellDivisionVector()</text>
<text text-anchor="start" x="216.5" y="-19" font-family="Helvetica,sans-Serif" font-size="10.00">&#45; serialize()</text>
</a>
</g>
</g>
<!-- Node1&#45;&gt;Node4 -->
<g id="edge3" class="edge"><title>Node1&#45;&gt;Node4</title>
<path fill="none" stroke="midnightblue" d="M304,-162.085C304,-149.258 304,-136.27 304,-124.23"/>
<polygon fill="none" stroke="midnightblue" points="300.5,-162.316 304,-172.316 307.5,-162.316 300.5,-162.316"/>
</g>
<!-- Node5 -->
<g id="node5" class="node"><title>Node5</title>
<g id="a_node5"><a xlink:href="classRandomDirectionCentreBasedDivisionRule.html" target="_top" xlink:title="{RandomDirectionCentreBased\lDivisionRule\&lt; ELEMENT_DIM,\l SPACE_DIM \&gt;\n||+ RandomDirectionCentreBased\lDivisionRule()\l+ ~RandomDirectionCentreBased\lDivisionRule()\l+ CalculateCellDivisionVector()\l&#45; serialize()\l}">
<polygon fill="white" stroke="black" points="418,-1 418,-135 582,-135 582,-1 418,-1"/>
<text text-anchor="start" x="426" y="-123" font-family="Helvetica,sans-Serif" font-size="10.00">RandomDirectionCentreBased</text>
<text text-anchor="start" x="426" y="-112" font-family="Helvetica,sans-Serif" font-size="10.00">DivisionRule&lt; ELEMENT_DIM,</text>
<text text-anchor="middle" x="500" y="-101" font-family="Helvetica,sans-Serif" font-size="10.00"> SPACE_DIM &gt;</text>
<polyline fill="none" stroke="black" points="418,-94 582,-94 "/>
<text text-anchor="middle" x="500" y="-82" font-family="Helvetica,sans-Serif" font-size="10.00"> </text>
<polyline fill="none" stroke="black" points="418,-75 582,-75 "/>
<text text-anchor="start" x="426" y="-63" font-family="Helvetica,sans-Serif" font-size="10.00">+ RandomDirectionCentreBased</text>
<text text-anchor="start" x="426" y="-52" font-family="Helvetica,sans-Serif" font-size="10.00">DivisionRule()</text>
<text text-anchor="start" x="426" y="-41" font-family="Helvetica,sans-Serif" font-size="10.00">+ ~RandomDirectionCentreBased</text>
<text text-anchor="start" x="426" y="-30" font-family="Helvetica,sans-Serif" font-size="10.00">DivisionRule()</text>
<text text-anchor="start" x="426" y="-19" font-family="Helvetica,sans-Serif" font-size="10.00">+ CalculateCellDivisionVector()</text>
<text text-anchor="start" x="426" y="-8" font-family="Helvetica,sans-Serif" font-size="10.00">&#45; serialize()</text>
</a>
</g>
</g>
<!-- Node1&#45;&gt;Node5 -->
<g id="edge4" class="edge"><title>Node1&#45;&gt;Node5</title>
<path fill="none" stroke="midnightblue" d="M392.06,-165.375C403.341,-155.303 414.799,-145.072 425.829,-135.224"/>
<polygon fill="none" stroke="midnightblue" points="389.415,-163.045 384.286,-172.316 394.077,-168.266 389.415,-163.045"/>
</g>
<!-- Node2 -->
<g id="node2" class="node"><title>Node2</title>
<g id="a_node2"><a xlink:href="classIdentifiable.html" target="_top" xlink:title="{Identifiable\n||+ ~Identifiable()\l+ GetIdentifier()\l&#45; TidyTemplatedExportIdentifier()\l}">
<polygon fill="white" stroke="black" points="224.5,-354.5 224.5,-433.5 383.5,-433.5 383.5,-354.5 224.5,-354.5"/>
<text text-anchor="middle" x="304" y="-421.5" font-family="Helvetica,sans-Serif" font-size="10.00">Identifiable</text>
<polyline fill="none" stroke="black" points="224.5,-414.5 383.5,-414.5 "/>
<text text-anchor="middle" x="304" y="-402.5" font-family="Helvetica,sans-Serif" font-size="10.00"> </text>
<polyline fill="none" stroke="black" points="224.5,-395.5 383.5,-395.5 "/>
<text text-anchor="start" x="232.5" y="-383.5" font-family="Helvetica,sans-Serif" font-size="10.00">+ ~Identifiable()</text>
<text text-anchor="start" x="232.5" y="-372.5" font-family="Helvetica,sans-Serif" font-size="10.00">+ GetIdentifier()</text>
<text text-anchor="start" x="232.5" y="-361.5" font-family="Helvetica,sans-Serif" font-size="10.00">&#45; TidyTemplatedExportIdentifier()</text>
</a>
</g>
</g>
<!-- Node2&#45;&gt;Node1 -->
<g id="edge1" class="edge"><title>Node2&#45;&gt;Node1</title>
<path fill="none" stroke="midnightblue" d="M304,-344.243C304,-335.699 304,-326.651 304,-317.64"/>
<polygon fill="none" stroke="midnightblue" points="300.5,-344.377 304,-354.377 307.5,-344.378 300.5,-344.377"/>
</g>
</g>
</svg>
