<?xml version="1.0" encoding="UTF-8" standalone="no"?>
<!DOCTYPE svg PUBLIC "-//W3C//DTD SVG 1.1//EN"
 "http://www.w3.org/Graphics/SVG/1.1/DTD/svg11.dtd">
<!-- Generated by graphviz version 2.36.0 (20140111.2315)
 -->
<!-- Title: HoneycombMeshGenerator Pages: 1 -->
<svg width="1517pt" height="2030pt"
 viewBox="0.00 0.00 1517.00 2030.00" xmlns="http://www.w3.org/2000/svg" xmlns:xlink="http://www.w3.org/1999/xlink">
<g id="graph0" class="graph" transform="scale(1 1) rotate(0) translate(4 2026)">
<title>HoneycombMeshGenerator</title>
<polygon fill="white" stroke="none" points="-4,4 -4,-2026 1513,-2026 1513,4 -4,4"/>
<!-- Node1 -->
<g id="node1" class="node"><title>Node1</title>
<polygon fill="#bfbfbf" stroke="black" points="994.5,-1 994.5,-135 1151.5,-135 1151.5,-1 994.5,-1"/>
<text text-anchor="middle" x="1073" y="-123" font-family="Helvetica,sans-Serif" font-size="10.00">HoneycombMeshGenerator</text>
<polyline fill="none" stroke="black" points="994.5,-116 1151.5,-116 "/>
<text text-anchor="middle" x="1073" y="-104" font-family="Helvetica,sans-Serif" font-size="10.00"> </text>
<polyline fill="none" stroke="black" points="994.5,-97 1151.5,-97 "/>
<text text-anchor="start" x="1002.5" y="-85" font-family="Helvetica,sans-Serif" font-size="10.00">+ HoneycombMeshGenerator()</text>
<text text-anchor="start" x="1002.5" y="-74" font-family="Helvetica,sans-Serif" font-size="10.00">+ HoneycombMeshGenerator()</text>
<text text-anchor="start" x="1002.5" y="-63" font-family="Helvetica,sans-Serif" font-size="10.00">+ ~HoneycombMeshGenerator()</text>
<text text-anchor="start" x="1002.5" y="-52" font-family="Helvetica,sans-Serif" font-size="10.00">+ GetMesh()</text>
<text text-anchor="start" x="1002.5" y="-41" font-family="Helvetica,sans-Serif" font-size="10.00">+ GetCellLocationIndices()</text>
<text text-anchor="start" x="1002.5" y="-30" font-family="Helvetica,sans-Serif" font-size="10.00">+ GetCircularMesh()</text>
<text text-anchor="start" x="1002.5" y="-19" font-family="Helvetica,sans-Serif" font-size="10.00">+ GetDomainDepth()</text>
<text text-anchor="start" x="1002.5" y="-8" font-family="Helvetica,sans-Serif" font-size="10.00">+ GetDomainWidth()</text>
</g>
<!-- Node2 -->
<g id="node2" class="node"><title>Node2</title>
<g id="a_node2"><a xlink:href="classdouble.html" target="_top" xlink:title="{double\n||}">
<polygon fill="white" stroke="black" points="798.5,-288.5 798.5,-345.5 843.5,-345.5 843.5,-288.5 798.5,-288.5"/>
<text text-anchor="middle" x="821" y="-333.5" font-family="Helvetica,sans-Serif" font-size="10.00">double</text>
<polyline fill="none" stroke="black" points="798.5,-326.5 843.5,-326.5 "/>
<text text-anchor="middle" x="821" y="-314.5" font-family="Helvetica,sans-Serif" font-size="10.00"> </text>
<polyline fill="none" stroke="black" points="798.5,-307.5 843.5,-307.5 "/>
<text text-anchor="middle" x="821" y="-295.5" font-family="Helvetica,sans-Serif" font-size="10.00"> </text>
</a>
</g>
</g>
<!-- Node2&#45;&gt;Node1 -->
<g id="edge1" class="edge"><title>Node2&#45;&gt;Node1</title>
<path fill="none" stroke="#404040" d="M825.895,-288.225C830.438,-267.296 838.567,-238.464 852,-216 881.894,-166.009 936.147,-129.546 983.416,-105.44"/>
<polygon fill="none" stroke="#404040" points="983.57,-105.364 987.168,-99.1145 994.32,-100.032 990.723,-106.281 983.57,-105.364"/>
<text text-anchor="middle" x="942" y="-190" font-family="Helvetica,sans-Serif" font-size="10.00"> #mDomainWidth</text>
<text text-anchor="middle" x="942" y="-179" font-family="Helvetica,sans-Serif" font-size="10.00">#mDomainDepth</text>
<text text-anchor="middle" x="942" y="-168" font-family="Helvetica,sans-Serif" font-size="10.00">#mTop</text>
<text text-anchor="middle" x="942" y="-157" font-family="Helvetica,sans-Serif" font-size="10.00">#mBottom</text>
</g>
<!-- Node3 -->
<g id="node3" class="node"><title>Node3</title>
<g id="a_node3"><a xlink:href="classMutableMesh.html" target="_top" xlink:title="{MutableMesh\&lt; 2, 2 \&gt;\n||+ CheckIsVoronoi()\l+ MutableMesh()\l+ MutableMesh()\l+ ~MutableMesh()\l+ Clear()\l+ GetNumNodes()\l+ GetNumElements()\l+ GetNumBoundaryElements()\l+ RescaleMeshFromBoundaryNode()\l+ AddNode()\land 13 more...\l&#45; save()\l&#45; load()\l&#45; CheckIsVoronoi()\l}">
<polygon fill="white" stroke="black" points="861.5,-217 861.5,-417 1040.5,-417 1040.5,-217 861.5,-217"/>
<text text-anchor="middle" x="951" y="-405" font-family="Helvetica,sans-Serif" font-size="10.00">MutableMesh&lt; 2, 2 &gt;</text>
<polyline fill="none" stroke="black" points="861.5,-398 1040.5,-398 "/>
<text text-anchor="middle" x="951" y="-386" font-family="Helvetica,sans-Serif" font-size="10.00"> </text>
<polyline fill="none" stroke="black" points="861.5,-379 1040.5,-379 "/>
<text text-anchor="start" x="869.5" y="-367" font-family="Helvetica,sans-Serif" font-size="10.00">+ CheckIsVoronoi()</text>
<text text-anchor="start" x="869.5" y="-356" font-family="Helvetica,sans-Serif" font-size="10.00">+ MutableMesh()</text>
<text text-anchor="start" x="869.5" y="-345" font-family="Helvetica,sans-Serif" font-size="10.00">+ MutableMesh()</text>
<text text-anchor="start" x="869.5" y="-334" font-family="Helvetica,sans-Serif" font-size="10.00">+ ~MutableMesh()</text>
<text text-anchor="start" x="869.5" y="-323" font-family="Helvetica,sans-Serif" font-size="10.00">+ Clear()</text>
<text text-anchor="start" x="869.5" y="-312" font-family="Helvetica,sans-Serif" font-size="10.00">+ GetNumNodes()</text>
<text text-anchor="start" x="869.5" y="-301" font-family="Helvetica,sans-Serif" font-size="10.00">+ GetNumElements()</text>
<text text-anchor="start" x="869.5" y="-290" font-family="Helvetica,sans-Serif" font-size="10.00">+ GetNumBoundaryElements()</text>
<text text-anchor="start" x="869.5" y="-279" font-family="Helvetica,sans-Serif" font-size="10.00">+ RescaleMeshFromBoundaryNode()</text>
<text text-anchor="start" x="869.5" y="-268" font-family="Helvetica,sans-Serif" font-size="10.00">+ AddNode()</text>
<text text-anchor="start" x="869.5" y="-257" font-family="Helvetica,sans-Serif" font-size="10.00">and 13 more...</text>
<text text-anchor="start" x="869.5" y="-246" font-family="Helvetica,sans-Serif" font-size="10.00">&#45; save()</text>
<text text-anchor="start" x="869.5" y="-235" font-family="Helvetica,sans-Serif" font-size="10.00">&#45; load()</text>
<text text-anchor="start" x="869.5" y="-224" font-family="Helvetica,sans-Serif" font-size="10.00">&#45; CheckIsVoronoi()</text>
</a>
</g>
</g>
<!-- Node3&#45;&gt;Node1 -->
<g id="edge2" class="edge"><title>Node3&#45;&gt;Node1</title>
<path fill="none" stroke="#404040" d="M984.548,-216.596C992.905,-195.492 1002.51,-173.662 1013,-154 1014.45,-151.281 1015.97,-148.546 1017.56,-145.811"/>
<polygon fill="none" stroke="#404040" points="1017.71,-145.562 1017.38,-138.359 1023.9,-135.285 1024.23,-142.489 1017.71,-145.562"/>
<text text-anchor="middle" x="1036" y="-173.5" font-family="Helvetica,sans-Serif" font-size="10.00"> #mpMesh</text>
</g>
<!-- Node4 -->
<g id="node4" class="node"><title>Node4</title>
<g id="a_node4"><a xlink:href="classTetrahedralMesh.html" target="_top" xlink:title="{TetrahedralMesh\&lt; ELEMENT\l_DIM, SPACE_DIM \&gt;\n||+ TetrahedralMesh()\l+ ConstructFromMeshReader()\l+ ReadNodesPerProcessorFile()\l+ CheckIsConforming()\l+ GetVolume()\l+ GetSurfaceArea()\l+ RefreshMesh()\l+ PermuteNodes()\l+ PermuteNodes()\l+ GetContainingElementIndex\lWithInitialGuess()\land 11 more...\l# SolveNodeMapping()\l# SolveElementMapping()\l# SolveBoundaryElementMapping()\l# ExportToMesher()\l# ImportFromMesher()\l# InitialiseTriangulateIo()\l# FreeTriangulateIo()\l&#45; serialize()\l}">
<polygon fill="white" stroke="black" points="614,-716.5 614,-993.5 784,-993.5 784,-716.5 614,-716.5"/>
<text text-anchor="start" x="622" y="-981.5" font-family="Helvetica,sans-Serif" font-size="10.00">TetrahedralMesh&lt; ELEMENT</text>
<text text-anchor="middle" x="699" y="-970.5" font-family="Helvetica,sans-Serif" font-size="10.00">_DIM, SPACE_DIM &gt;</text>
<polyline fill="none" stroke="black" points="614,-963.5 784,-963.5 "/>
<text text-anchor="middle" x="699" y="-951.5" font-family="Helvetica,sans-Serif" font-size="10.00"> </text>
<polyline fill="none" stroke="black" points="614,-944.5 784,-944.5 "/>
<text text-anchor="start" x="622" y="-932.5" font-family="Helvetica,sans-Serif" font-size="10.00">+ TetrahedralMesh()</text>
<text text-anchor="start" x="622" y="-921.5" font-family="Helvetica,sans-Serif" font-size="10.00">+ ConstructFromMeshReader()</text>
<text text-anchor="start" x="622" y="-910.5" font-family="Helvetica,sans-Serif" font-size="10.00">+ ReadNodesPerProcessorFile()</text>
<text text-anchor="start" x="622" y="-899.5" font-family="Helvetica,sans-Serif" font-size="10.00">+ CheckIsConforming()</text>
<text text-anchor="start" x="622" y="-888.5" font-family="Helvetica,sans-Serif" font-size="10.00">+ GetVolume()</text>
<text text-anchor="start" x="622" y="-877.5" font-family="Helvetica,sans-Serif" font-size="10.00">+ GetSurfaceArea()</text>
<text text-anchor="start" x="622" y="-866.5" font-family="Helvetica,sans-Serif" font-size="10.00">+ RefreshMesh()</text>
<text text-anchor="start" x="622" y="-855.5" font-family="Helvetica,sans-Serif" font-size="10.00">+ PermuteNodes()</text>
<text text-anchor="start" x="622" y="-844.5" font-family="Helvetica,sans-Serif" font-size="10.00">+ PermuteNodes()</text>
<text text-anchor="start" x="622" y="-833.5" font-family="Helvetica,sans-Serif" font-size="10.00">+ GetContainingElementIndex</text>
<text text-anchor="start" x="622" y="-822.5" font-family="Helvetica,sans-Serif" font-size="10.00">WithInitialGuess()</text>
<text text-anchor="start" x="622" y="-811.5" font-family="Helvetica,sans-Serif" font-size="10.00">and 11 more...</text>
<text text-anchor="start" x="622" y="-800.5" font-family="Helvetica,sans-Serif" font-size="10.00"># SolveNodeMapping()</text>
<text text-anchor="start" x="622" y="-789.5" font-family="Helvetica,sans-Serif" font-size="10.00"># SolveElementMapping()</text>
<text text-anchor="start" x="622" y="-778.5" font-family="Helvetica,sans-Serif" font-size="10.00"># SolveBoundaryElementMapping()</text>
<text text-anchor="start" x="622" y="-767.5" font-family="Helvetica,sans-Serif" font-size="10.00"># ExportToMesher()</text>
<text text-anchor="start" x="622" y="-756.5" font-family="Helvetica,sans-Serif" font-size="10.00"># ImportFromMesher()</text>
<text text-anchor="start" x="622" y="-745.5" font-family="Helvetica,sans-Serif" font-size="10.00"># InitialiseTriangulateIo()</text>
<text text-anchor="start" x="622" y="-734.5" font-family="Helvetica,sans-Serif" font-size="10.00"># FreeTriangulateIo()</text>
<text text-anchor="start" x="622" y="-723.5" font-family="Helvetica,sans-Serif" font-size="10.00">&#45; serialize()</text>
</a>
</g>
</g>
<!-- Node4&#45;&gt;Node3 -->
<g id="edge3" class="edge"><title>Node4&#45;&gt;Node3</title>
<path fill="none" stroke="midnightblue" d="M791.923,-778.377C821.569,-749.816 851.871,-715.162 872,-678 916.037,-596.699 935.53,-492.48 944.157,-417.119"/>
<polygon fill="none" stroke="midnightblue" points="789.254,-776.085 784.406,-785.505 794.071,-781.164 789.254,-776.085"/>
</g>
<!-- Node20 -->
<g id="node20" class="node"><title>Node20</title>
<g id="a_node20"><a xlink:href="classMutableMesh.html" target="_top" xlink:title="{MutableMesh\&lt; ELEMENT\l_DIM, SPACE_DIM \&gt;\n||+ MutableMesh()\l+ MutableMesh()\l+ ~MutableMesh()\l+ Clear()\l+ GetNumNodes()\l+ GetNumElements()\l+ GetNumBoundaryElements()\l+ RescaleMeshFromBoundaryNode()\l+ AddNode()\l+ AddElement()\land 14 more...\l&#45; save()\l&#45; load()\l&#45; CheckIsVoronoi()\l}">
<polygon fill="white" stroke="black" points="684.5,-466.5 684.5,-677.5 863.5,-677.5 863.5,-466.5 684.5,-466.5"/>
<text text-anchor="start" x="692.5" y="-665.5" font-family="Helvetica,sans-Serif" font-size="10.00">MutableMesh&lt; ELEMENT</text>
<text text-anchor="middle" x="774" y="-654.5" font-family="Helvetica,sans-Serif" font-size="10.00">_DIM, SPACE_DIM &gt;</text>
<polyline fill="none" stroke="black" points="684.5,-647.5 863.5,-647.5 "/>
<text text-anchor="middle" x="774" y="-635.5" font-family="Helvetica,sans-Serif" font-size="10.00"> </text>
<polyline fill="none" stroke="black" points="684.5,-628.5 863.5,-628.5 "/>
<text text-anchor="start" x="692.5" y="-616.5" font-family="Helvetica,sans-Serif" font-size="10.00">+ MutableMesh()</text>
<text text-anchor="start" x="692.5" y="-605.5" font-family="Helvetica,sans-Serif" font-size="10.00">+ MutableMesh()</text>
<text text-anchor="start" x="692.5" y="-594.5" font-family="Helvetica,sans-Serif" font-size="10.00">+ ~MutableMesh()</text>
<text text-anchor="start" x="692.5" y="-583.5" font-family="Helvetica,sans-Serif" font-size="10.00">+ Clear()</text>
<text text-anchor="start" x="692.5" y="-572.5" font-family="Helvetica,sans-Serif" font-size="10.00">+ GetNumNodes()</text>
<text text-anchor="start" x="692.5" y="-561.5" font-family="Helvetica,sans-Serif" font-size="10.00">+ GetNumElements()</text>
<text text-anchor="start" x="692.5" y="-550.5" font-family="Helvetica,sans-Serif" font-size="10.00">+ GetNumBoundaryElements()</text>
<text text-anchor="start" x="692.5" y="-539.5" font-family="Helvetica,sans-Serif" font-size="10.00">+ RescaleMeshFromBoundaryNode()</text>
<text text-anchor="start" x="692.5" y="-528.5" font-family="Helvetica,sans-Serif" font-size="10.00">+ AddNode()</text>
<text text-anchor="start" x="692.5" y="-517.5" font-family="Helvetica,sans-Serif" font-size="10.00">+ AddElement()</text>
<text text-anchor="start" x="692.5" y="-506.5" font-family="Helvetica,sans-Serif" font-size="10.00">and 14 more...</text>
<text text-anchor="start" x="692.5" y="-495.5" font-family="Helvetica,sans-Serif" font-size="10.00">&#45; save()</text>
<text text-anchor="start" x="692.5" y="-484.5" font-family="Helvetica,sans-Serif" font-size="10.00">&#45; load()</text>
<text text-anchor="start" x="692.5" y="-473.5" font-family="Helvetica,sans-Serif" font-size="10.00">&#45; CheckIsVoronoi()</text>
</a>
</g>
</g>
<!-- Node4&#45;&gt;Node20 -->
<g id="edge26" class="edge"><title>Node4&#45;&gt;Node20</title>
<path fill="none" stroke="midnightblue" d="M738.347,-706.578C740.962,-696.784 743.564,-687.034 746.103,-677.52"/>
<polygon fill="none" stroke="midnightblue" points="734.928,-705.817 735.731,-716.381 741.691,-707.622 734.928,-705.817"/>
</g>
<!-- Node5 -->
<g id="node5" class="node"><title>Node5</title>
<g id="a_node5"><a xlink:href="classAbstractTetrahedralMesh.html" target="_top" xlink:title="{AbstractTetrahedralMesh\l\&lt; ELEMENT_DIM, SPACE_DIM \&gt;\n||+ GetElementIteratorBegin()\l+ GetElementIteratorEnd()\l+ AbstractTetrahedralMesh()\l+ ~AbstractTetrahedralMesh()\l+ GetNumElements()\l+ GetNumLocalElements()\l+ GetNumBoundaryElements()\l+ GetNumLocalBoundaryElements()\l+ GetNumAllElements()\l+ GetNumAllBoundaryElements()\land 25 more...\l# SetElementOwnerships()\l&#45; SolveElementMapping()\l&#45; SolveBoundaryElementMapping()\l&#45; save()\l&#45; load()\l}">
<polygon fill="white" stroke="black" points="769,-1064.5 769,-1297.5 943,-1297.5 943,-1064.5 769,-1064.5"/>
<text text-anchor="start" x="777" y="-1285.5" font-family="Helvetica,sans-Serif" font-size="10.00">AbstractTetrahedralMesh</text>
<text text-anchor="middle" x="856" y="-1274.5" font-family="Helvetica,sans-Serif" font-size="10.00">&lt; ELEMENT_DIM, SPACE_DIM &gt;</text>
<polyline fill="none" stroke="black" points="769,-1267.5 943,-1267.5 "/>
<text text-anchor="middle" x="856" y="-1255.5" font-family="Helvetica,sans-Serif" font-size="10.00"> </text>
<polyline fill="none" stroke="black" points="769,-1248.5 943,-1248.5 "/>
<text text-anchor="start" x="777" y="-1236.5" font-family="Helvetica,sans-Serif" font-size="10.00">+ GetElementIteratorBegin()</text>
<text text-anchor="start" x="777" y="-1225.5" font-family="Helvetica,sans-Serif" font-size="10.00">+ GetElementIteratorEnd()</text>
<text text-anchor="start" x="777" y="-1214.5" font-family="Helvetica,sans-Serif" font-size="10.00">+ AbstractTetrahedralMesh()</text>
<text text-anchor="start" x="777" y="-1203.5" font-family="Helvetica,sans-Serif" font-size="10.00">+ ~AbstractTetrahedralMesh()</text>
<text text-anchor="start" x="777" y="-1192.5" font-family="Helvetica,sans-Serif" font-size="10.00">+ GetNumElements()</text>
<text text-anchor="start" x="777" y="-1181.5" font-family="Helvetica,sans-Serif" font-size="10.00">+ GetNumLocalElements()</text>
<text text-anchor="start" x="777" y="-1170.5" font-family="Helvetica,sans-Serif" font-size="10.00">+ GetNumBoundaryElements()</text>
<text text-anchor="start" x="777" y="-1159.5" font-family="Helvetica,sans-Serif" font-size="10.00">+ GetNumLocalBoundaryElements()</text>
<text text-anchor="start" x="777" y="-1148.5" font-family="Helvetica,sans-Serif" font-size="10.00">+ GetNumAllElements()</text>
<text text-anchor="start" x="777" y="-1137.5" font-family="Helvetica,sans-Serif" font-size="10.00">+ GetNumAllBoundaryElements()</text>
<text text-anchor="start" x="777" y="-1126.5" font-family="Helvetica,sans-Serif" font-size="10.00">and 25 more...</text>
<text text-anchor="start" x="777" y="-1115.5" font-family="Helvetica,sans-Serif" font-size="10.00"># SetElementOwnerships()</text>
<text text-anchor="start" x="777" y="-1104.5" font-family="Helvetica,sans-Serif" font-size="10.00">&#45; SolveElementMapping()</text>
<text text-anchor="start" x="777" y="-1093.5" font-family="Helvetica,sans-Serif" font-size="10.00">&#45; SolveBoundaryElementMapping()</text>
<text text-anchor="start" x="777" y="-1082.5" font-family="Helvetica,sans-Serif" font-size="10.00">&#45; save()</text>
<text text-anchor="start" x="777" y="-1071.5" font-family="Helvetica,sans-Serif" font-size="10.00">&#45; load()</text>
</a>
</g>
</g>
<!-- Node5&#45;&gt;Node4 -->
<g id="edge4" class="edge"><title>Node5&#45;&gt;Node4</title>
<path fill="none" stroke="midnightblue" d="M859.849,-1054.04C857.434,-1039.51 853.656,-1025.19 848,-1012 833.833,-978.955 809.338,-948.756 784.253,-923.916"/>
<polygon fill="none" stroke="midnightblue" points="856.411,-1054.73 861.308,-1064.12 863.339,-1053.72 856.411,-1054.73"/>
</g>
<!-- Node6 -->
<g id="node6" class="node"><title>Node6</title>
<g id="a_node6"><a xlink:href="classAbstractMesh.html" target="_top" xlink:title="{AbstractMesh\&lt; ELEMENT\l_DIM, SPACE_DIM \&gt;\n||+ GetNodeIteratorBegin()\l+ GetNodeIteratorEnd()\l+ AbstractMesh()\l+ ~AbstractMesh()\l+ GetNumNodes()\l+ GetNumBoundaryNodes()\l+ GetNumAllNodes()\l+ GetNumNodeAttributes()\l+ GetNode()\l+ GetNodeOrHaloNode()\land 28 more...\l# SetElementOwnerships()\l# CalculateBoundingBox()\l&#45; SolveNodeMapping()\l&#45; serialize()\l}">
<polygon fill="white" stroke="black" points="822,-1369 822,-1591 960,-1591 960,-1369 822,-1369"/>
<text text-anchor="start" x="830" y="-1579" font-family="Helvetica,sans-Serif" font-size="10.00">AbstractMesh&lt; ELEMENT</text>
<text text-anchor="middle" x="891" y="-1568" font-family="Helvetica,sans-Serif" font-size="10.00">_DIM, SPACE_DIM &gt;</text>
<polyline fill="none" stroke="black" points="822,-1561 960,-1561 "/>
<text text-anchor="middle" x="891" y="-1549" font-family="Helvetica,sans-Serif" font-size="10.00"> </text>
<polyline fill="none" stroke="black" points="822,-1542 960,-1542 "/>
<text text-anchor="start" x="830" y="-1530" font-family="Helvetica,sans-Serif" font-size="10.00">+ GetNodeIteratorBegin()</text>
<text text-anchor="start" x="830" y="-1519" font-family="Helvetica,sans-Serif" font-size="10.00">+ GetNodeIteratorEnd()</text>
<text text-anchor="start" x="830" y="-1508" font-family="Helvetica,sans-Serif" font-size="10.00">+ AbstractMesh()</text>
<text text-anchor="start" x="830" y="-1497" font-family="Helvetica,sans-Serif" font-size="10.00">+ ~AbstractMesh()</text>
<text text-anchor="start" x="830" y="-1486" font-family="Helvetica,sans-Serif" font-size="10.00">+ GetNumNodes()</text>
<text text-anchor="start" x="830" y="-1475" font-family="Helvetica,sans-Serif" font-size="10.00">+ GetNumBoundaryNodes()</text>
<text text-anchor="start" x="830" y="-1464" font-family="Helvetica,sans-Serif" font-size="10.00">+ GetNumAllNodes()</text>
<text text-anchor="start" x="830" y="-1453" font-family="Helvetica,sans-Serif" font-size="10.00">+ GetNumNodeAttributes()</text>
<text text-anchor="start" x="830" y="-1442" font-family="Helvetica,sans-Serif" font-size="10.00">+ GetNode()</text>
<text text-anchor="start" x="830" y="-1431" font-family="Helvetica,sans-Serif" font-size="10.00">+ GetNodeOrHaloNode()</text>
<text text-anchor="start" x="830" y="-1420" font-family="Helvetica,sans-Serif" font-size="10.00">and 28 more...</text>
<text text-anchor="start" x="830" y="-1409" font-family="Helvetica,sans-Serif" font-size="10.00"># SetElementOwnerships()</text>
<text text-anchor="start" x="830" y="-1398" font-family="Helvetica,sans-Serif" font-size="10.00"># CalculateBoundingBox()</text>
<text text-anchor="start" x="830" y="-1387" font-family="Helvetica,sans-Serif" font-size="10.00">&#45; SolveNodeMapping()</text>
<text text-anchor="start" x="830" y="-1376" font-family="Helvetica,sans-Serif" font-size="10.00">&#45; serialize()</text>
</a>
</g>
</g>
<!-- Node6&#45;&gt;Node5 -->
<g id="edge5" class="edge"><title>Node6&#45;&gt;Node5</title>
<path fill="none" stroke="midnightblue" d="M876.827,-1358.73C874.464,-1338.68 872.016,-1317.91 869.665,-1297.96"/>
<polygon fill="none" stroke="midnightblue" points="873.371,-1359.31 878.017,-1368.83 880.323,-1358.49 873.371,-1359.31"/>
</g>
<!-- Node7 -->
<g id="node7" class="node"><title>Node7</title>
<polygon fill="white" stroke="#bfbfbf" points="855.5,-1738.5 855.5,-1795.5 926.5,-1795.5 926.5,-1738.5 855.5,-1738.5"/>
<text text-anchor="middle" x="891" y="-1783.5" font-family="Helvetica,sans-Serif" font-size="10.00">noncopyable</text>
<polyline fill="none" stroke="#bfbfbf" points="855.5,-1776.5 926.5,-1776.5 "/>
<text text-anchor="middle" x="891" y="-1764.5" font-family="Helvetica,sans-Serif" font-size="10.00"> </text>
<polyline fill="none" stroke="#bfbfbf" points="855.5,-1757.5 926.5,-1757.5 "/>
<text text-anchor="middle" x="891" y="-1745.5" font-family="Helvetica,sans-Serif" font-size="10.00"> </text>
</g>
<!-- Node7&#45;&gt;Node6 -->
<g id="edge6" class="edge"><title>Node7&#45;&gt;Node6</title>
<path fill="none" stroke="#8b1a1a" d="M891,-1728.19C891,-1693.23 891,-1639.5 891,-1591.06"/>
<polygon fill="none" stroke="#8b1a1a" points="887.5,-1728.41 891,-1738.41 894.5,-1728.41 887.5,-1728.41"/>
</g>
<!-- Node8 -->
<g id="node8" class="node"><title>Node8</title>
<g id="a_node8"><a xlink:href="classDistributedVectorFactory.html" target="_top" xlink:title="{DistributedVectorFactory\n||+ DistributedVectorFactory()\l+ DistributedVectorFactory()\l+ DistributedVectorFactory()\l+ DistributedVectorFactory()\l+ ~DistributedVectorFactory()\l+ CreateVec()\l+ CreateVec()\l+ CreateDistributedVector()\l+ IsGlobalIndexLocal()\l+ GetLocalOwnership()\land 8 more...\l+ SetCheckNumberOfProcesses\lOnLoad()\l+ CheckNumberOfProcessesOnLoad()\l&#45; CheckForPetsc()\l&#45; CalculateOwnership()\l&#45; serialize()\l}">
<polygon fill="white" stroke="black" points="411.5,-1650.5 411.5,-1883.5 596.5,-1883.5 596.5,-1650.5 411.5,-1650.5"/>
<text text-anchor="middle" x="504" y="-1871.5" font-family="Helvetica,sans-Serif" font-size="10.00">DistributedVectorFactory</text>
<polyline fill="none" stroke="black" points="411.5,-1864.5 596.5,-1864.5 "/>
<text text-anchor="middle" x="504" y="-1852.5" font-family="Helvetica,sans-Serif" font-size="10.00"> </text>
<polyline fill="none" stroke="black" points="411.5,-1845.5 596.5,-1845.5 "/>
<text text-anchor="start" x="419.5" y="-1833.5" font-family="Helvetica,sans-Serif" font-size="10.00">+ DistributedVectorFactory()</text>
<text text-anchor="start" x="419.5" y="-1822.5" font-family="Helvetica,sans-Serif" font-size="10.00">+ DistributedVectorFactory()</text>
<text text-anchor="start" x="419.5" y="-1811.5" font-family="Helvetica,sans-Serif" font-size="10.00">+ DistributedVectorFactory()</text>
<text text-anchor="start" x="419.5" y="-1800.5" font-family="Helvetica,sans-Serif" font-size="10.00">+ DistributedVectorFactory()</text>
<text text-anchor="start" x="419.5" y="-1789.5" font-family="Helvetica,sans-Serif" font-size="10.00">+ ~DistributedVectorFactory()</text>
<text text-anchor="start" x="419.5" y="-1778.5" font-family="Helvetica,sans-Serif" font-size="10.00">+ CreateVec()</text>
<text text-anchor="start" x="419.5" y="-1767.5" font-family="Helvetica,sans-Serif" font-size="10.00">+ CreateVec()</text>
<text text-anchor="start" x="419.5" y="-1756.5" font-family="Helvetica,sans-Serif" font-size="10.00">+ CreateDistributedVector()</text>
<text text-anchor="start" x="419.5" y="-1745.5" font-family="Helvetica,sans-Serif" font-size="10.00">+ IsGlobalIndexLocal()</text>
<text text-anchor="start" x="419.5" y="-1734.5" font-family="Helvetica,sans-Serif" font-size="10.00">+ GetLocalOwnership()</text>
<text text-anchor="start" x="419.5" y="-1723.5" font-family="Helvetica,sans-Serif" font-size="10.00">and 8 more...</text>
<text text-anchor="start" x="419.5" y="-1712.5" font-family="Helvetica,sans-Serif" font-size="10.00">+ SetCheckNumberOfProcesses</text>
<text text-anchor="start" x="419.5" y="-1701.5" font-family="Helvetica,sans-Serif" font-size="10.00">OnLoad()</text>
<text text-anchor="start" x="419.5" y="-1690.5" font-family="Helvetica,sans-Serif" font-size="10.00">+ CheckNumberOfProcessesOnLoad()</text>
<text text-anchor="start" x="419.5" y="-1679.5" font-family="Helvetica,sans-Serif" font-size="10.00">&#45; CheckForPetsc()</text>
<text text-anchor="start" x="419.5" y="-1668.5" font-family="Helvetica,sans-Serif" font-size="10.00">&#45; CalculateOwnership()</text>
<text text-anchor="start" x="419.5" y="-1657.5" font-family="Helvetica,sans-Serif" font-size="10.00">&#45; serialize()</text>
</a>
</g>
</g>
<!-- Node8&#45;&gt;Node6 -->
<g id="edge7" class="edge"><title>Node8&#45;&gt;Node6</title>
<path fill="none" stroke="#404040" d="M596.831,-1653.2C615.709,-1636.26 636.685,-1620.86 659,-1610 717.321,-1581.62 749.577,-1622.16 811.188,-1591.3"/>
<polygon fill="none" stroke="#404040" points="811.257,-1591.26 814.573,-1584.86 821.76,-1585.45 818.443,-1591.86 811.257,-1591.26"/>
<text text-anchor="middle" x="724.5" y="-1618.5" font-family="Helvetica,sans-Serif" font-size="10.00"> #mpDistributedVectorFactory</text>
</g>
<!-- Node8&#45;&gt;Node8 -->
<g id="edge8" class="edge"><title>Node8&#45;&gt;Node8</title>
<path fill="none" stroke="#404040" d="M596.688,-1790.2C607.192,-1785.85 614,-1778.12 614,-1767 614,-1760.22 611.472,-1754.7 607.12,-1750.44"/>
<polygon fill="none" stroke="#404040" points="606.81,-1750.25 599.601,-1750.4 596.688,-1743.8 603.897,-1743.65 606.81,-1750.25"/>
<text text-anchor="middle" x="657" y="-1764.5" font-family="Helvetica,sans-Serif" font-size="10.00"> &#45;mpOriginalFactory</text>
</g>
<!-- Node9 -->
<g id="node9" class="node"><title>Node9</title>
<polygon fill="white" stroke="#bfbfbf" points="1002.5,-1964.5 1002.5,-2021.5 1103.5,-2021.5 1103.5,-1964.5 1002.5,-1964.5"/>
<text text-anchor="middle" x="1053" y="-2009.5" font-family="Helvetica,sans-Serif" font-size="10.00">vector&lt; unsigned &gt;</text>
<polyline fill="none" stroke="#bfbfbf" points="1002.5,-2002.5 1103.5,-2002.5 "/>
<text text-anchor="middle" x="1053" y="-1990.5" font-family="Helvetica,sans-Serif" font-size="10.00"> </text>
<polyline fill="none" stroke="#bfbfbf" points="1002.5,-1983.5 1103.5,-1983.5 "/>
<text text-anchor="middle" x="1053" y="-1971.5" font-family="Helvetica,sans-Serif" font-size="10.00"> </text>
</g>
<!-- Node9&#45;&gt;Node3 -->
<g id="edge23" class="edge"><title>Node9&#45;&gt;Node3</title>
<path fill="none" stroke="#404040" d="M1099.24,-1964.4C1106.39,-1958.88 1113.29,-1952.69 1119,-1946 1173.47,-1882.16 1182,-1851.92 1182,-1768 1182,-1768 1182,-1768 1182,-571 1182,-487.866 1113.14,-420.093 1050.61,-375.689"/>
<polygon fill="none" stroke="#404040" points="1050.5,-375.61 1043.29,-375.472 1040.64,-368.764 1047.85,-368.902 1050.5,-375.61"/>
<text text-anchor="middle" x="1260.5" y="-1189.5" font-family="Helvetica,sans-Serif" font-size="10.00"> #mDeletedNodeIndices</text>
<text text-anchor="middle" x="1260.5" y="-1178.5" font-family="Helvetica,sans-Serif" font-size="10.00">#mDeletedBoundaryElementIndices</text>
<text text-anchor="middle" x="1260.5" y="-1167.5" font-family="Helvetica,sans-Serif" font-size="10.00">#mDeletedElementIndices</text>
</g>
<!-- Node9&#45;&gt;Node6 -->
<g id="edge13" class="edge"><title>Node9&#45;&gt;Node6</title>
<path fill="none" stroke="#404040" d="M1026.05,-1964.19C1007.81,-1943.69 984.783,-1914.22 972,-1884 930.982,-1787.03 956.512,-1753.07 935,-1650 931.816,-1634.75 928.137,-1618.8 924.29,-1603.07"/>
<polygon fill="none" stroke="#404040" points="924.208,-1602.73 918.882,-1597.87 921.321,-1591.09 926.647,-1595.95 924.208,-1602.73"/>
<text text-anchor="middle" x="1018.5" y="-1764.5" font-family="Helvetica,sans-Serif" font-size="10.00"> #mNodePermutation</text>
</g>
<!-- Node9&#45;&gt;Node8 -->
<g id="edge9" class="edge"><title>Node9&#45;&gt;Node8</title>
<path fill="none" stroke="#404040" d="M1002.49,-1979.44C968.518,-1970.71 922.831,-1958.46 883,-1946 804.651,-1921.48 783.67,-1918.12 709,-1884 675.082,-1868.5 639.316,-1849.33 607.322,-1831.06"/>
<polygon fill="none" stroke="#404040" points="607.027,-1830.89 599.831,-1831.36 596.625,-1824.9 603.82,-1824.43 607.027,-1830.89"/>
<text text-anchor="middle" x="916" y="-1921.5" font-family="Helvetica,sans-Serif" font-size="10.00"> &#45;mGlobalLows</text>
</g>
<!-- Node9&#45;&gt;Node20 -->
<g id="edge27" class="edge"><title>Node9&#45;&gt;Node20</title>
<path fill="none" stroke="#404040" d="M1077.97,-1964.11C1094.6,-1943.57 1114.99,-1914.1 1124,-1884 1153.82,-1784.37 1147.89,-1751.22 1124,-1650 1089.66,-1504.53 1011.84,-1494.06 972,-1350 938.037,-1227.19 978.413,-1188.65 952,-1064 923.948,-931.614 868.105,-786.704 826.409,-688.87"/>
<polygon fill="none" stroke="#404040" points="826.38,-688.802 820.34,-684.863 821.654,-677.772 827.693,-681.712 826.38,-688.802"/>
<text text-anchor="middle" x="1050.5" y="-1341.5" font-family="Helvetica,sans-Serif" font-size="10.00"> #mDeletedNodeIndices</text>
<text text-anchor="middle" x="1050.5" y="-1330.5" font-family="Helvetica,sans-Serif" font-size="10.00">#mDeletedBoundaryElementIndices</text>
<text text-anchor="middle" x="1050.5" y="-1319.5" font-family="Helvetica,sans-Serif" font-size="10.00">#mDeletedElementIndices</text>
</g>
<!-- Node10 -->
<g id="node10" class="node"><title>Node10</title>
<g id="a_node10"><a xlink:href="classbool.html" target="_top" xlink:title="{bool\n||}">
<polygon fill="white" stroke="black" points="171.5,-1964.5 171.5,-2021.5 206.5,-2021.5 206.5,-1964.5 171.5,-1964.5"/>
<text text-anchor="middle" x="189" y="-2009.5" font-family="Helvetica,sans-Serif" font-size="10.00">bool</text>
<polyline fill="none" stroke="black" points="171.5,-2002.5 206.5,-2002.5 "/>
<text text-anchor="middle" x="189" y="-1990.5" font-family="Helvetica,sans-Serif" font-size="10.00"> </text>
<polyline fill="none" stroke="black" points="171.5,-1983.5 206.5,-1983.5 "/>
<text text-anchor="middle" x="189" y="-1971.5" font-family="Helvetica,sans-Serif" font-size="10.00"> </text>
</a>
</g>
</g>
<!-- Node10&#45;&gt;Node3 -->
<g id="edge24" class="edge"><title>Node10&#45;&gt;Node3</title>
<path fill="none" stroke="#404040" d="M171.219,-1982.3C124.17,-1955.17 0,-1873.58 0,-1768 0,-1768 0,-1768 0,-571 0,-382.395 655.367,-502.608 850.201,-417.978"/>
<polygon fill="none" stroke="#404040" points="850.463,-417.853 854.149,-411.655 861.288,-412.673 857.602,-418.871 850.463,-417.853"/>
<text text-anchor="middle" x="36.5" y="-1178.5" font-family="Helvetica,sans-Serif" font-size="10.00"> #mAddedNodes</text>
</g>
<!-- Node10&#45;&gt;Node5 -->
<g id="edge16" class="edge"><title>Node10&#45;&gt;Node5</title>
<path fill="none" stroke="#404040" d="M182.623,-1964.3C169.023,-1898.8 142.913,-1730.79 201,-1610 272.868,-1460.55 340.42,-1449.22 485,-1368 549.454,-1331.79 571.11,-1333.23 643,-1316 690.665,-1304.57 711.349,-1321.35 757.998,-1298.34"/>
<polygon fill="none" stroke="#404040" points="758.129,-1298.27 761.529,-1291.91 768.707,-1292.6 765.306,-1298.96 758.129,-1298.27"/>
<text text-anchor="middle" x="239" y="-1618.5" font-family="Helvetica,sans-Serif" font-size="10.00"> #mMeshIsLinear</text>
</g>
<!-- Node10&#45;&gt;Node6 -->
<g id="edge14" class="edge"><title>Node10&#45;&gt;Node6</title>
<path fill="none" stroke="#404040" d="M198.094,-1964.44C199.886,-1958.41 201.633,-1952.02 203,-1946 217.724,-1881.12 199.936,-1696.01 248,-1650 308.063,-1592.51 537.275,-1618.32 620,-1610 659.64,-1606.01 759.433,-1612.38 810.996,-1590.92"/>
<polygon fill="none" stroke="#404040" points="811.068,-1590.89 814.669,-1584.64 821.821,-1585.56 818.22,-1591.81 811.068,-1590.89"/>
<text text-anchor="middle" x="325" y="-1764.5" font-family="Helvetica,sans-Serif" font-size="10.00"> #mMeshChangesDuringSimulation</text>
</g>
<!-- Node10&#45;&gt;Node8 -->
<g id="edge10" class="edge"><title>Node10&#45;&gt;Node8</title>
<path fill="none" stroke="#404040" d="M206.617,-1985.3C244.015,-1970.57 333.14,-1932.78 397,-1884 398.647,-1882.74 400.289,-1881.46 401.927,-1880.15"/>
<polygon fill="none" stroke="#404040" points="402.013,-1880.08 404.07,-1873.17 411.241,-1872.41 409.184,-1879.32 402.013,-1880.08"/>
<text text-anchor="start" x="372" y="-1932.5" font-family="Helvetica,sans-Serif" font-size="10.00"> &#45;msCheckNumberOfProcesses</text>
<text text-anchor="middle" x="442" y="-1921.5" font-family="Helvetica,sans-Serif" font-size="10.00">OnLoad</text>
<text text-anchor="middle" x="442" y="-1910.5" font-family="Helvetica,sans-Serif" font-size="10.00">&#45;mPetscStatusKnown</text>
</g>
<!-- Node10&#45;&gt;Node20 -->
<g id="edge28" class="edge"><title>Node10&#45;&gt;Node20</title>
<path fill="none" stroke="#404040" d="M171.403,-1966.07C145.723,-1925.63 101,-1844.25 101,-1768 101,-1768 101,-1768 101,-854 101,-731.669 484.432,-633.915 672.461,-593.333"/>
<polygon fill="none" stroke="#404040" points="672.549,-593.314 677.578,-588.146 684.283,-590.801 679.254,-595.969 672.549,-593.314"/>
<text text-anchor="middle" x="137.5" y="-1330.5" font-family="Helvetica,sans-Serif" font-size="10.00"> #mAddedNodes</text>
</g>
<!-- Node11 -->
<g id="node11" class="node"><title>Node11</title>
<g id="a_node11"><a xlink:href="classunsigned.html" target="_top" xlink:title="{unsigned\n||}">
<polygon fill="white" stroke="black" points="1280,-1964.5 1280,-2021.5 1336,-2021.5 1336,-1964.5 1280,-1964.5"/>
<text text-anchor="middle" x="1308" y="-2009.5" font-family="Helvetica,sans-Serif" font-size="10.00">unsigned</text>
<polyline fill="none" stroke="black" points="1280,-2002.5 1336,-2002.5 "/>
<text text-anchor="middle" x="1308" y="-1990.5" font-family="Helvetica,sans-Serif" font-size="10.00"> </text>
<polyline fill="none" stroke="black" points="1280,-1983.5 1336,-1983.5 "/>
<text text-anchor="middle" x="1308" y="-1971.5" font-family="Helvetica,sans-Serif" font-size="10.00"> </text>
</a>
</g>
</g>
<!-- Node11&#45;&gt;Node1 -->
<g id="edge31" class="edge"><title>Node11&#45;&gt;Node1</title>
<path fill="none" stroke="#404040" d="M1320.22,-1964.33C1337.51,-1922.63 1367,-1840.79 1367,-1768 1367,-1768 1367,-1768 1367,-316 1367,-208.068 1249.41,-137.863 1162.96,-100.834"/>
<polygon fill="none" stroke="#404040" points="1162.86,-100.79 1155.78,-102.163 1151.79,-96.156 1158.87,-94.7833 1162.86,-100.79"/>
<text text-anchor="middle" x="1408" y="-1032" font-family="Helvetica,sans-Serif" font-size="10.00"> #mNumCellWidth</text>
<text text-anchor="middle" x="1408" y="-1021" font-family="Helvetica,sans-Serif" font-size="10.00">#mNumCellLength</text>
</g>
<!-- Node11&#45;&gt;Node8 -->
<g id="edge11" class="edge"><title>Node11&#45;&gt;Node8</title>
<path fill="none" stroke="#404040" d="M1279.82,-1983.06C1220.21,-1964.55 1076.64,-1922.07 953,-1902 845.667,-1884.57 813.064,-1915.54 709,-1884 674.015,-1873.4 638.466,-1856.05 607.013,-1837.97"/>
<polygon fill="none" stroke="#404040" points="606.865,-1837.88 599.666,-1838.3 596.51,-1831.82 603.709,-1831.4 606.865,-1837.88"/>
<text text-anchor="middle" x="1181.5" y="-1938" font-family="Helvetica,sans-Serif" font-size="10.00"> &#45;mHi</text>
<text text-anchor="middle" x="1181.5" y="-1927" font-family="Helvetica,sans-Serif" font-size="10.00">&#45;mNumProcs</text>
<text text-anchor="middle" x="1181.5" y="-1916" font-family="Helvetica,sans-Serif" font-size="10.00">&#45;mLo</text>
<text text-anchor="middle" x="1181.5" y="-1905" font-family="Helvetica,sans-Serif" font-size="10.00">&#45;mProblemSize</text>
</g>
<!-- Node12 -->
<g id="node12" class="node"><title>Node12</title>
<polygon fill="white" stroke="#bfbfbf" points="718.5,-1733 718.5,-1801 837.5,-1801 837.5,-1733 718.5,-1733"/>
<text text-anchor="start" x="726.5" y="-1789" font-family="Helvetica,sans-Serif" font-size="10.00">vector&lt; Node&lt; SPACE</text>
<text text-anchor="middle" x="778" y="-1778" font-family="Helvetica,sans-Serif" font-size="10.00">_DIM &gt; * &gt;</text>
<polyline fill="none" stroke="#bfbfbf" points="718.5,-1771 837.5,-1771 "/>
<text text-anchor="middle" x="778" y="-1759" font-family="Helvetica,sans-Serif" font-size="10.00"> </text>
<polyline fill="none" stroke="#bfbfbf" points="718.5,-1752 837.5,-1752 "/>
<text text-anchor="middle" x="778" y="-1740" font-family="Helvetica,sans-Serif" font-size="10.00"> </text>
</g>
<!-- Node12&#45;&gt;Node6 -->
<g id="edge12" class="edge"><title>Node12&#45;&gt;Node6</title>
<path fill="none" stroke="#404040" d="M778.194,-1732.89C779.403,-1700.5 784.031,-1650.3 800,-1610 800.402,-1608.98 806.247,-1600.48 814.799,-1588.27"/>
<polygon fill="none" stroke="#404040" points="814.922,-1588.09 815.099,-1580.88 821.822,-1578.27 821.645,-1585.48 814.922,-1588.09"/>
<text text-anchor="middle" x="843.5" y="-1624" font-family="Helvetica,sans-Serif" font-size="10.00"> #mBoundaryNodes</text>
<text text-anchor="middle" x="843.5" y="-1613" font-family="Helvetica,sans-Serif" font-size="10.00">#mNodes</text>
</g>
<!-- Node13 -->
<g id="node13" class="node"><title>Node13</title>
<polygon fill="white" stroke="#bfbfbf" points="1074.5,-1738.5 1074.5,-1795.5 1115.5,-1795.5 1115.5,-1738.5 1074.5,-1738.5"/>
<text text-anchor="middle" x="1095" y="-1783.5" font-family="Helvetica,sans-Serif" font-size="10.00">string</text>
<polyline fill="none" stroke="#bfbfbf" points="1074.5,-1776.5 1115.5,-1776.5 "/>
<text text-anchor="middle" x="1095" y="-1764.5" font-family="Helvetica,sans-Serif" font-size="10.00"> </text>
<polyline fill="none" stroke="#bfbfbf" points="1074.5,-1757.5 1115.5,-1757.5 "/>
<text text-anchor="middle" x="1095" y="-1745.5" font-family="Helvetica,sans-Serif" font-size="10.00"> </text>
</g>
<!-- Node13&#45;&gt;Node1 -->
<g id="edge30" class="edge"><title>Node13&#45;&gt;Node1</title>
<path fill="none" stroke="#404040" d="M1098.12,-1738.3C1105.45,-1671.58 1123.55,-1496.64 1129,-1350 1129.56,-1334.9 1129.98,-1331.08 1129,-1316 1119.65,-1171.98 1099.75,-1137.76 1087,-994 1075.36,-862.813 1073,-829.703 1073,-698 1073,-698 1073,-698 1073,-316 1073,-259.47 1073,-195.661 1073,-147.062"/>
<polygon fill="none" stroke="#404040" points="1073,-147.047 1069,-141.047 1073,-135.047 1077,-141.047 1073,-147.047"/>
<text text-anchor="middle" x="1127.5" y="-852.5" font-family="Helvetica,sans-Serif" font-size="10.00"> #mMeshFilename</text>
</g>
<!-- Node13&#45;&gt;Node6 -->
<g id="edge15" class="edge"><title>Node13&#45;&gt;Node6</title>
<path fill="none" stroke="#404040" d="M1093.93,-1738.3C1091.42,-1712.09 1083.62,-1673.38 1060,-1650 1039.6,-1629.82 1021.38,-1648.64 998,-1632 989.708,-1626.1 978.967,-1613.87 967.497,-1598.81"/>
<polygon fill="none" stroke="#404040" points="967.436,-1598.73 960.646,-1596.3 960.277,-1589.1 967.066,-1591.53 967.436,-1598.73"/>
<text text-anchor="middle" x="1051" y="-1618.5" font-family="Helvetica,sans-Serif" font-size="10.00"> #mMeshFileBaseName</text>
</g>
<!-- Node14 -->
<g id="node14" class="node"><title>Node14</title>
<polygon fill="white" stroke="#bfbfbf" points="494,-1440.5 494,-1519.5 640,-1519.5 640,-1440.5 494,-1440.5"/>
<text text-anchor="start" x="502" y="-1507.5" font-family="Helvetica,sans-Serif" font-size="10.00">vector&lt; BoundaryElement</text>
<text text-anchor="start" x="502" y="-1496.5" font-family="Helvetica,sans-Serif" font-size="10.00">&lt; ELEMENT_DIM&#45;1, SPACE</text>
<text text-anchor="middle" x="567" y="-1485.5" font-family="Helvetica,sans-Serif" font-size="10.00">_DIM &gt; * &gt;</text>
<polyline fill="none" stroke="#bfbfbf" points="494,-1478.5 640,-1478.5 "/>
<text text-anchor="middle" x="567" y="-1466.5" font-family="Helvetica,sans-Serif" font-size="10.00"> </text>
<polyline fill="none" stroke="#bfbfbf" points="494,-1459.5 640,-1459.5 "/>
<text text-anchor="middle" x="567" y="-1447.5" font-family="Helvetica,sans-Serif" font-size="10.00"> </text>
</g>
<!-- Node14&#45;&gt;Node5 -->
<g id="edge17" class="edge"><title>Node14&#45;&gt;Node5</title>
<path fill="none" stroke="#404040" d="M584.234,-1440.49C603.077,-1402.89 636.852,-1346.96 683,-1316 709.334,-1298.33 726.511,-1312.96 758.068,-1298.03"/>
<polygon fill="none" stroke="#404040" points="758.349,-1297.87 761.662,-1291.47 768.849,-1292.06 765.536,-1298.47 758.349,-1297.87"/>
<text text-anchor="middle" x="733" y="-1330.5" font-family="Helvetica,sans-Serif" font-size="10.00"> #mBoundaryElements</text>
</g>
<!-- Node15 -->
<g id="node15" class="node"><title>Node15</title>
<polygon fill="white" stroke="#bfbfbf" points="658.5,-1446 658.5,-1514 803.5,-1514 803.5,-1446 658.5,-1446"/>
<text text-anchor="start" x="666.5" y="-1502" font-family="Helvetica,sans-Serif" font-size="10.00">vector&lt; Element&lt; ELEMENT</text>
<text text-anchor="middle" x="731" y="-1491" font-family="Helvetica,sans-Serif" font-size="10.00">_DIM, SPACE_DIM &gt; * &gt;</text>
<polyline fill="none" stroke="#bfbfbf" points="658.5,-1484 803.5,-1484 "/>
<text text-anchor="middle" x="731" y="-1472" font-family="Helvetica,sans-Serif" font-size="10.00"> </text>
<polyline fill="none" stroke="#bfbfbf" points="658.5,-1465 803.5,-1465 "/>
<text text-anchor="middle" x="731" y="-1453" font-family="Helvetica,sans-Serif" font-size="10.00"> </text>
</g>
<!-- Node15&#45;&gt;Node5 -->
<g id="edge18" class="edge"><title>Node15&#45;&gt;Node5</title>
<path fill="none" stroke="#404040" d="M744.975,-1445.79C759.012,-1412.44 781.529,-1358.94 802.628,-1308.81"/>
<polygon fill="none" stroke="#404040" points="802.731,-1308.57 801.372,-1301.48 807.386,-1297.51 808.745,-1304.59 802.731,-1308.57"/>
<text text-anchor="middle" x="827" y="-1330.5" font-family="Helvetica,sans-Serif" font-size="10.00"> #mElements</text>
</g>
<!-- Node16 -->
<g id="node16" class="node"><title>Node16</title>
<polygon fill="white" stroke="#bfbfbf" points="661,-1152.5 661,-1209.5 751,-1209.5 751,-1152.5 661,-1152.5"/>
<text text-anchor="middle" x="706" y="-1197.5" font-family="Helvetica,sans-Serif" font-size="10.00">vector&lt; double &gt;</text>
<polyline fill="none" stroke="#bfbfbf" points="661,-1190.5 751,-1190.5 "/>
<text text-anchor="middle" x="706" y="-1178.5" font-family="Helvetica,sans-Serif" font-size="10.00"> </text>
<polyline fill="none" stroke="#bfbfbf" points="661,-1171.5 751,-1171.5 "/>
<text text-anchor="middle" x="706" y="-1159.5" font-family="Helvetica,sans-Serif" font-size="10.00"> </text>
</g>
<!-- Node16&#45;&gt;Node4 -->
<g id="edge19" class="edge"><title>Node16&#45;&gt;Node4</title>
<path fill="none" stroke="#404040" d="M704.44,-1152.29C702.99,-1125.2 700.92,-1082.78 700,-1046 699.671,-1032.86 699.421,-1019.22 699.232,-1005.54"/>
<polygon fill="none" stroke="#404040" points="699.232,-1005.51 695.157,-999.564 699.082,-993.514 703.157,-999.464 699.232,-1005.51"/>
<text text-anchor="start" x="700" y="-1037.5" font-family="Helvetica,sans-Serif" font-size="10.00"> #mBoundaryElementJacobian</text>
<text text-anchor="middle" x="774" y="-1026.5" font-family="Helvetica,sans-Serif" font-size="10.00">Determinants</text>
<text text-anchor="middle" x="774" y="-1015.5" font-family="Helvetica,sans-Serif" font-size="10.00">#mElementJacobianDeterminants</text>
</g>
<!-- Node17 -->
<g id="node17" class="node"><title>Node17</title>
<polygon fill="white" stroke="#bfbfbf" points="129.5,-1147 129.5,-1215 260.5,-1215 260.5,-1147 129.5,-1147"/>
<text text-anchor="start" x="137.5" y="-1203" font-family="Helvetica,sans-Serif" font-size="10.00">vector&lt; c_vector&lt; double,</text>
<text text-anchor="middle" x="195" y="-1192" font-family="Helvetica,sans-Serif" font-size="10.00"> SPACE_DIM &gt; &gt;</text>
<polyline fill="none" stroke="#bfbfbf" points="129.5,-1185 260.5,-1185 "/>
<text text-anchor="middle" x="195" y="-1173" font-family="Helvetica,sans-Serif" font-size="10.00"> </text>
<polyline fill="none" stroke="#bfbfbf" points="129.5,-1166 260.5,-1166 "/>
<text text-anchor="middle" x="195" y="-1154" font-family="Helvetica,sans-Serif" font-size="10.00"> </text>
</g>
<!-- Node17&#45;&gt;Node4 -->
<g id="edge20" class="edge"><title>Node17&#45;&gt;Node4</title>
<path fill="none" stroke="#404040" d="M196.815,-1146.81C200.611,-1109.31 212.277,-1048.72 248,-1012 342.381,-914.994 499.956,-878.268 601.642,-864.391"/>
<polygon fill="none" stroke="#404040" points="601.859,-864.363 607.291,-859.62 613.758,-862.81 608.326,-867.553 601.859,-864.363"/>
<text text-anchor="middle" x="336.5" y="-1032" font-family="Helvetica,sans-Serif" font-size="10.00"> #mElementWeightedDirections</text>
<text text-anchor="middle" x="336.5" y="-1021" font-family="Helvetica,sans-Serif" font-size="10.00">#mBoundaryElementWeightedDirections</text>
</g>
<!-- Node18 -->
<g id="node18" class="node"><title>Node18</title>
<polygon fill="white" stroke="#bfbfbf" points="278.5,-1147 278.5,-1215 451.5,-1215 451.5,-1147 278.5,-1147"/>
<text text-anchor="start" x="286.5" y="-1203" font-family="Helvetica,sans-Serif" font-size="10.00">vector&lt; c_matrix&lt; double,</text>
<text text-anchor="middle" x="365" y="-1192" font-family="Helvetica,sans-Serif" font-size="10.00"> ELEMENT_DIM, SPACE_DIM &gt; &gt;</text>
<polyline fill="none" stroke="#bfbfbf" points="278.5,-1185 451.5,-1185 "/>
<text text-anchor="middle" x="365" y="-1173" font-family="Helvetica,sans-Serif" font-size="10.00"> </text>
<polyline fill="none" stroke="#bfbfbf" points="278.5,-1166 451.5,-1166 "/>
<text text-anchor="middle" x="365" y="-1154" font-family="Helvetica,sans-Serif" font-size="10.00"> </text>
</g>
<!-- Node18&#45;&gt;Node4 -->
<g id="edge21" class="edge"><title>Node18&#45;&gt;Node4</title>
<path fill="none" stroke="#404040" d="M376.611,-1146.91C390.604,-1110.59 416.946,-1052.14 454,-1012 495.984,-966.523 554.031,-928.793 603.086,-901.835"/>
<polygon fill="none" stroke="#404040" points="603.175,-901.787 606.549,-895.414 613.729,-896.077 610.356,-902.45 603.175,-901.787"/>
<text text-anchor="middle" x="519" y="-1026.5" font-family="Helvetica,sans-Serif" font-size="10.00"> #mElementInverseJacobians</text>
</g>
<!-- Node19 -->
<g id="node19" class="node"><title>Node19</title>
<polygon fill="white" stroke="#bfbfbf" points="469.5,-1147 469.5,-1215 642.5,-1215 642.5,-1147 469.5,-1147"/>
<text text-anchor="start" x="477.5" y="-1203" font-family="Helvetica,sans-Serif" font-size="10.00">vector&lt; c_matrix&lt; double,</text>
<text text-anchor="middle" x="556" y="-1192" font-family="Helvetica,sans-Serif" font-size="10.00"> SPACE_DIM, ELEMENT_DIM &gt; &gt;</text>
<polyline fill="none" stroke="#bfbfbf" points="469.5,-1185 642.5,-1185 "/>
<text text-anchor="middle" x="556" y="-1173" font-family="Helvetica,sans-Serif" font-size="10.00"> </text>
<polyline fill="none" stroke="#bfbfbf" points="469.5,-1166 642.5,-1166 "/>
<text text-anchor="middle" x="556" y="-1154" font-family="Helvetica,sans-Serif" font-size="10.00"> </text>
</g>
<!-- Node19&#45;&gt;Node4 -->
<g id="edge22" class="edge"><title>Node19&#45;&gt;Node4</title>
<path fill="none" stroke="#404040" d="M561.266,-1146.77C567.493,-1112.12 579.545,-1056.72 599,-1012 601.836,-1005.48 604.928,-998.923 608.21,-992.384"/>
<polygon fill="none" stroke="#404040" points="608.378,-992.06 607.589,-984.892 613.902,-981.406 614.691,-988.574 608.378,-992.06"/>
<text text-anchor="middle" x="647.5" y="-1026.5" font-family="Helvetica,sans-Serif" font-size="10.00"> #mElementJacobians</text>
</g>
<!-- Node20&#45;&gt;Node3 -->
<g id="edge25" class="edge"><title>Node20&#45;&gt;Node3</title>
<path fill="none" stroke="orange" d="M853.132,-457.89C862.583,-444.381 872.178,-430.666 881.48,-417.37"/>
<polygon fill="orange" stroke="orange" points="850.135,-456.069 847.27,-466.269 855.871,-460.081 850.135,-456.069"/>
<text text-anchor="middle" x="887" y="-439.5" font-family="Helvetica,sans-Serif" font-size="10.00"> &lt; 2, 2 &gt;</text>
</g>
<!-- Node21 -->
<g id="node21" class="node"><title>Node21</title>
<polygon fill="white" stroke="#bfbfbf" points="1395.5,-288.5 1395.5,-345.5 1482.5,-345.5 1482.5,-288.5 1395.5,-288.5"/>
<text text-anchor="middle" x="1439" y="-333.5" font-family="Helvetica,sans-Serif" font-size="10.00">set&lt; unsigned &gt;</text>
<polyline fill="none" stroke="#bfbfbf" points="1395.5,-326.5 1482.5,-326.5 "/>
<text text-anchor="middle" x="1439" y="-314.5" font-family="Helvetica,sans-Serif" font-size="10.00"> </text>
<polyline fill="none" stroke="#bfbfbf" points="1395.5,-307.5 1482.5,-307.5 "/>
<text text-anchor="middle" x="1439" y="-295.5" font-family="Helvetica,sans-Serif" font-size="10.00"> </text>
</g>
<!-- Node21&#45;&gt;Node1 -->
<g id="edge29" class="edge"><title>Node21&#45;&gt;Node1</title>
<path fill="none" stroke="#404040" d="M1436.76,-288.289C1432.35,-252.208 1419.32,-189.563 1381,-154 1322.12,-99.3571 1231.31,-79.3351 1163.52,-72.2509"/>
<polygon fill="none" stroke="#404040" points="1163.52,-72.2507 1157.17,-75.6623 1151.57,-71.1101 1157.93,-67.6985 1163.52,-72.2507"/>
<text text-anchor="middle" x="1460" y="-173.5" font-family="Helvetica,sans-Serif" font-size="10.00"> #mGhostNodeIndices</text>
</g>
</g>
</svg>
