<?xml version="1.0" encoding="UTF-8" standalone="no"?>
<!DOCTYPE svg PUBLIC "-//W3C//DTD SVG 1.1//EN"
 "http://www.w3.org/Graphics/SVG/1.1/DTD/svg11.dtd">
<!-- Generated by graphviz version 2.36.0 (20140111.2315)
 -->
<!-- Title: StimulusBoundaryCondition&lt; SPACE_DIM &gt; Pages: 1 -->
<svg width="332pt" height="238pt"
 viewBox="0.00 0.00 332.00 238.00" xmlns="http://www.w3.org/2000/svg" xmlns:xlink="http://www.w3.org/1999/xlink">
<g id="graph0" class="graph" transform="scale(1 1) rotate(0) translate(4 234)">
<title>StimulusBoundaryCondition&lt; SPACE_DIM &gt;</title>
<polygon fill="white" stroke="none" points="-4,4 -4,-234 328,-234 328,4 -4,4"/>
<!-- Node1 -->
<g id="node1" class="node"><title>Node1</title>
<polygon fill="#bfbfbf" stroke="black" points="88,-0.5 88,-79.5 240,-79.5 240,-0.5 88,-0.5"/>
<text text-anchor="start" x="96" y="-67.5" font-family="Helvetica,sans-Serif" font-size="10.00">StimulusBoundaryCondition</text>
<text text-anchor="middle" x="164" y="-56.5" font-family="Helvetica,sans-Serif" font-size="10.00">&lt; SPACE_DIM &gt;</text>
<polyline fill="none" stroke="black" points="88,-49.5 240,-49.5 "/>
<text text-anchor="middle" x="164" y="-37.5" font-family="Helvetica,sans-Serif" font-size="10.00"> </text>
<polyline fill="none" stroke="black" points="88,-30.5 240,-30.5 "/>
<text text-anchor="start" x="96" y="-18.5" font-family="Helvetica,sans-Serif" font-size="10.00">+ StimulusBoundaryCondition()</text>
<text text-anchor="start" x="96" y="-7.5" font-family="Helvetica,sans-Serif" font-size="10.00">+ GetValue()</text>
</g>
<!-- Node2 -->
<g id="node2" class="node"><title>Node2</title>
<g id="a_node2"><a xlink:href="classAbstractBoundaryCondition.html" target="_top" xlink:title="{AbstractBoundaryCondition\l\&lt; SPACE_DIM \&gt;\n||+ GetValue()\l+ AbstractBoundaryCondition()\l+ ~AbstractBoundaryCondition()\l&#45; serialize()\l}">
<polygon fill="white" stroke="black" points="-0.5,-128.5 -0.5,-229.5 156.5,-229.5 156.5,-128.5 -0.5,-128.5"/>
<text text-anchor="start" x="7.5" y="-217.5" font-family="Helvetica,sans-Serif" font-size="10.00">AbstractBoundaryCondition</text>
<text text-anchor="middle" x="78" y="-206.5" font-family="Helvetica,sans-Serif" font-size="10.00">&lt; SPACE_DIM &gt;</text>
<polyline fill="none" stroke="black" points="-0.5,-199.5 156.5,-199.5 "/>
<text text-anchor="middle" x="78" y="-187.5" font-family="Helvetica,sans-Serif" font-size="10.00"> </text>
<polyline fill="none" stroke="black" points="-0.5,-180.5 156.5,-180.5 "/>
<text text-anchor="start" x="7.5" y="-168.5" font-family="Helvetica,sans-Serif" font-size="10.00">+ GetValue()</text>
<text text-anchor="start" x="7.5" y="-157.5" font-family="Helvetica,sans-Serif" font-size="10.00">+ AbstractBoundaryCondition()</text>
<text text-anchor="start" x="7.5" y="-146.5" font-family="Helvetica,sans-Serif" font-size="10.00">+ ~AbstractBoundaryCondition()</text>
<text text-anchor="start" x="7.5" y="-135.5" font-family="Helvetica,sans-Serif" font-size="10.00">&#45; serialize()</text>
</a>
</g>
</g>
<!-- Node2&#45;&gt;Node1 -->
<g id="edge1" class="edge"><title>Node2&#45;&gt;Node1</title>
<path fill="none" stroke="midnightblue" d="M114.751,-119.455C123.151,-106.073 131.876,-92.1737 139.607,-79.8579"/>
<polygon fill="none" stroke="midnightblue" points="111.644,-117.822 109.291,-128.152 117.572,-121.544 111.644,-117.822"/>
</g>
<!-- Node3 -->
<g id="node3" class="node"><title>Node3</title>
<g id="a_node3"><a xlink:href="classAbstractStimulusFunction.html" target="_top" xlink:title="{AbstractStimulusFunction\n||+ GetStimulus()\l+ ~AbstractStimulusFunction()\l+ Clear()\l&#45; serialize()\l}">
<polygon fill="white" stroke="black" points="175,-134 175,-224 325,-224 325,-134 175,-134"/>
<text text-anchor="middle" x="250" y="-212" font-family="Helvetica,sans-Serif" font-size="10.00">AbstractStimulusFunction</text>
<polyline fill="none" stroke="black" points="175,-205 325,-205 "/>
<text text-anchor="middle" x="250" y="-193" font-family="Helvetica,sans-Serif" font-size="10.00"> </text>
<polyline fill="none" stroke="black" points="175,-186 325,-186 "/>
<text text-anchor="start" x="183" y="-174" font-family="Helvetica,sans-Serif" font-size="10.00">+ GetStimulus()</text>
<text text-anchor="start" x="183" y="-163" font-family="Helvetica,sans-Serif" font-size="10.00">+ ~AbstractStimulusFunction()</text>
<text text-anchor="start" x="183" y="-152" font-family="Helvetica,sans-Serif" font-size="10.00">+ Clear()</text>
<text text-anchor="start" x="183" y="-141" font-family="Helvetica,sans-Serif" font-size="10.00">&#45; serialize()</text>
</a>
</g>
</g>
<!-- Node3&#45;&gt;Node1 -->
<g id="edge2" class="edge"><title>Node3&#45;&gt;Node1</title>
<path fill="none" stroke="#404040" d="M222.316,-133.898C213.629,-120.06 203.983,-104.694 195.078,-90.5084"/>
<polygon fill="none" stroke="#404040" points="194.821,-90.0986 188.243,-87.1436 188.441,-79.9351 195.019,-82.8902 194.821,-90.0986"/>
<text text-anchor="middle" x="236" y="-101.5" font-family="Helvetica,sans-Serif" font-size="10.00"> &#45;mpStimulus</text>
</g>
</g>
</svg>
