<?xml version="1.0" encoding="UTF-8" standalone="no"?>
<!DOCTYPE svg PUBLIC "-//W3C//DTD SVG 1.1//EN"
 "http://www.w3.org/Graphics/SVG/1.1/DTD/svg11.dtd">
<!-- Generated by graphviz version 2.36.0 (20140111.2315)
 -->
<!-- Title: SchmidCostaExponentialLaw2d Pages: 1 -->
<svg width="309pt" height="642pt"
 viewBox="0.00 0.00 309.00 642.00" xmlns="http://www.w3.org/2000/svg" xmlns:xlink="http://www.w3.org/1999/xlink">
<g id="graph0" class="graph" transform="scale(1 1) rotate(0) translate(4 638)">
<title>SchmidCostaExponentialLaw2d</title>
<polygon fill="white" stroke="none" points="-4,4 -4,-638 305,-638 305,4 -4,4"/>
<!-- Node1 -->
<g id="node1" class="node"><title>Node1</title>
<polygon fill="#bfbfbf" stroke="black" points="1,-0.5 1,-123.5 191,-123.5 191,-0.5 1,-0.5"/>
<text text-anchor="middle" x="96" y="-111.5" font-family="Helvetica,sans-Serif" font-size="10.00">SchmidCostaExponentialLaw2d</text>
<polyline fill="none" stroke="black" points="1,-104.5 191,-104.5 "/>
<text text-anchor="start" x="9" y="-92.5" font-family="Helvetica,sans-Serif" font-size="10.00">&#45; mA</text>
<text text-anchor="start" x="9" y="-81.5" font-family="Helvetica,sans-Serif" font-size="10.00">&#45; mB</text>
<text text-anchor="start" x="9" y="-70.5" font-family="Helvetica,sans-Serif" font-size="10.00">&#45; mIdentity</text>
<polyline fill="none" stroke="black" points="1,-63.5 191,-63.5 "/>
<text text-anchor="start" x="9" y="-51.5" font-family="Helvetica,sans-Serif" font-size="10.00">+ SchmidCostaExponentialLaw2d()</text>
<text text-anchor="start" x="9" y="-40.5" font-family="Helvetica,sans-Serif" font-size="10.00">+ ComputeStressAndStressDerivative()</text>
<text text-anchor="start" x="9" y="-29.5" font-family="Helvetica,sans-Serif" font-size="10.00">+ GetA()</text>
<text text-anchor="start" x="9" y="-18.5" font-family="Helvetica,sans-Serif" font-size="10.00">+ GetB()</text>
<text text-anchor="start" x="9" y="-7.5" font-family="Helvetica,sans-Serif" font-size="10.00">+ GetZeroStrainPressure()</text>
</g>
<!-- Node2 -->
<g id="node2" class="node"><title>Node2</title>
<g id="a_node2"><a xlink:href="classAbstractIncompressibleMaterialLaw.html" target="_top" xlink:title="{AbstractIncompressibleMaterial\lLaw\&lt; 2 \&gt;\n||+ AbstractIncompressibleMaterialLaw()\l+ ~AbstractIncompressibleMaterialLaw()\l+ GetZeroStrainPressure()\l}">
<polygon fill="white" stroke="black" points="-0.5,-163 -0.5,-253 192.5,-253 192.5,-163 -0.5,-163"/>
<text text-anchor="start" x="7.5" y="-241" font-family="Helvetica,sans-Serif" font-size="10.00">AbstractIncompressibleMaterial</text>
<text text-anchor="middle" x="96" y="-230" font-family="Helvetica,sans-Serif" font-size="10.00">Law&lt; 2 &gt;</text>
<polyline fill="none" stroke="black" points="-0.5,-223 192.5,-223 "/>
<text text-anchor="middle" x="96" y="-211" font-family="Helvetica,sans-Serif" font-size="10.00"> </text>
<polyline fill="none" stroke="black" points="-0.5,-204 192.5,-204 "/>
<text text-anchor="start" x="7.5" y="-192" font-family="Helvetica,sans-Serif" font-size="10.00">+ AbstractIncompressibleMaterialLaw()</text>
<text text-anchor="start" x="7.5" y="-181" font-family="Helvetica,sans-Serif" font-size="10.00">+ ~AbstractIncompressibleMaterialLaw()</text>
<text text-anchor="start" x="7.5" y="-170" font-family="Helvetica,sans-Serif" font-size="10.00">+ GetZeroStrainPressure()</text>
</a>
</g>
</g>
<!-- Node2&#45;&gt;Node1 -->
<g id="edge1" class="edge"><title>Node2&#45;&gt;Node1</title>
<path fill="none" stroke="midnightblue" d="M96,-152.573C96,-143.127 96,-133.252 96,-123.652"/>
<polygon fill="none" stroke="midnightblue" points="92.5001,-152.62 96,-162.62 99.5001,-152.62 92.5001,-152.62"/>
</g>
<!-- Node3 -->
<g id="node3" class="node"><title>Node3</title>
<g id="a_node3"><a xlink:href="classAbstractMaterialLaw.html" target="_top" xlink:title="{AbstractMaterialLaw\l\&lt; DIM \&gt;\n|# mpChangeOfBasisMatrix\l|+ AbstractMaterialLaw()\l+ ~AbstractMaterialLaw()\l+ ComputeStressAndStressDerivative()\l+ ComputeCauchyStress()\l+ Compute1stPiolaKirchoffStress()\l+ Compute2ndPiolaKirchoffStress()\l+ ScaleMaterialParameters()\l+ SetChangeOfBasisMatrix()\l+ ResetToNoChangeOfBasisMatrix()\l# ComputeTransformedDeformation\lTensor()\l# TransformStressAndStress\lDerivative()\l}">
<polygon fill="white" stroke="black" points="22,-433 22,-633 212,-633 212,-433 22,-433"/>
<text text-anchor="start" x="30" y="-621" font-family="Helvetica,sans-Serif" font-size="10.00">AbstractMaterialLaw</text>
<text text-anchor="middle" x="117" y="-610" font-family="Helvetica,sans-Serif" font-size="10.00">&lt; DIM &gt;</text>
<polyline fill="none" stroke="black" points="22,-603 212,-603 "/>
<text text-anchor="start" x="30" y="-591" font-family="Helvetica,sans-Serif" font-size="10.00"># mpChangeOfBasisMatrix</text>
<polyline fill="none" stroke="black" points="22,-584 212,-584 "/>
<text text-anchor="start" x="30" y="-572" font-family="Helvetica,sans-Serif" font-size="10.00">+ AbstractMaterialLaw()</text>
<text text-anchor="start" x="30" y="-561" font-family="Helvetica,sans-Serif" font-size="10.00">+ ~AbstractMaterialLaw()</text>
<text text-anchor="start" x="30" y="-550" font-family="Helvetica,sans-Serif" font-size="10.00">+ ComputeStressAndStressDerivative()</text>
<text text-anchor="start" x="30" y="-539" font-family="Helvetica,sans-Serif" font-size="10.00">+ ComputeCauchyStress()</text>
<text text-anchor="start" x="30" y="-528" font-family="Helvetica,sans-Serif" font-size="10.00">+ Compute1stPiolaKirchoffStress()</text>
<text text-anchor="start" x="30" y="-517" font-family="Helvetica,sans-Serif" font-size="10.00">+ Compute2ndPiolaKirchoffStress()</text>
<text text-anchor="start" x="30" y="-506" font-family="Helvetica,sans-Serif" font-size="10.00">+ ScaleMaterialParameters()</text>
<text text-anchor="start" x="30" y="-495" font-family="Helvetica,sans-Serif" font-size="10.00">+ SetChangeOfBasisMatrix()</text>
<text text-anchor="start" x="30" y="-484" font-family="Helvetica,sans-Serif" font-size="10.00">+ ResetToNoChangeOfBasisMatrix()</text>
<text text-anchor="start" x="30" y="-473" font-family="Helvetica,sans-Serif" font-size="10.00"># ComputeTransformedDeformation</text>
<text text-anchor="start" x="30" y="-462" font-family="Helvetica,sans-Serif" font-size="10.00">Tensor()</text>
<text text-anchor="start" x="30" y="-451" font-family="Helvetica,sans-Serif" font-size="10.00"># TransformStressAndStress</text>
<text text-anchor="start" x="30" y="-440" font-family="Helvetica,sans-Serif" font-size="10.00">Derivative()</text>
</a>
</g>
</g>
<!-- Node3&#45;&gt;Node2 -->
<g id="edge2" class="edge"><title>Node3&#45;&gt;Node2</title>
<path fill="none" stroke="midnightblue" d="M101.575,-422.585C100.564,-412.932 99.6797,-403.3 99,-394 95.4877,-345.945 95.0614,-290.69 95.3106,-253.17"/>
<polygon fill="none" stroke="midnightblue" points="98.1075,-423.078 102.671,-432.639 105.066,-422.319 98.1075,-423.078"/>
</g>
<!-- Node4 -->
<g id="node4" class="node"><title>Node4</title>
<g id="a_node4"><a xlink:href="classAbstractIncompressibleMaterialLaw.html" target="_top" xlink:title="{AbstractIncompressibleMaterial\lLaw\&lt; DIM \&gt;\n||+ AbstractIncompressibleMaterialLaw()\l+ ~AbstractIncompressibleMaterialLaw()\l+ GetZeroStrainPressure()\l}">
<polygon fill="white" stroke="black" points="108.5,-303 108.5,-393 301.5,-393 301.5,-303 108.5,-303"/>
<text text-anchor="start" x="116.5" y="-381" font-family="Helvetica,sans-Serif" font-size="10.00">AbstractIncompressibleMaterial</text>
<text text-anchor="middle" x="205" y="-370" font-family="Helvetica,sans-Serif" font-size="10.00">Law&lt; DIM &gt;</text>
<polyline fill="none" stroke="black" points="108.5,-363 301.5,-363 "/>
<text text-anchor="middle" x="205" y="-351" font-family="Helvetica,sans-Serif" font-size="10.00"> </text>
<polyline fill="none" stroke="black" points="108.5,-344 301.5,-344 "/>
<text text-anchor="start" x="116.5" y="-332" font-family="Helvetica,sans-Serif" font-size="10.00">+ AbstractIncompressibleMaterialLaw()</text>
<text text-anchor="start" x="116.5" y="-321" font-family="Helvetica,sans-Serif" font-size="10.00">+ ~AbstractIncompressibleMaterialLaw()</text>
<text text-anchor="start" x="116.5" y="-310" font-family="Helvetica,sans-Serif" font-size="10.00">+ GetZeroStrainPressure()</text>
</a>
</g>
</g>
<!-- Node3&#45;&gt;Node4 -->
<g id="edge4" class="edge"><title>Node3&#45;&gt;Node4</title>
<path fill="none" stroke="midnightblue" d="M169.214,-423.419C174.275,-412.895 179.186,-402.682 183.665,-393.367"/>
<polygon fill="none" stroke="midnightblue" points="165.914,-422.205 164.734,-432.734 172.222,-425.239 165.914,-422.205"/>
</g>
<!-- Node4&#45;&gt;Node2 -->
<g id="edge3" class="edge"><title>Node4&#45;&gt;Node2</title>
<path fill="none" stroke="orange" d="M163.901,-294.967C153.009,-281.176 141.355,-266.422 130.831,-253.098"/>
<polygon fill="orange" stroke="orange" points="161.267,-297.279 170.212,-302.957 166.76,-292.94 161.267,-297.279"/>
<text text-anchor="middle" x="166.5" y="-275.5" font-family="Helvetica,sans-Serif" font-size="10.00"> &lt; 2 &gt;</text>
</g>
</g>
</svg>
