<?xml version="1.0" encoding="UTF-8" standalone="no"?>
<!DOCTYPE svg PUBLIC "-//W3C//DTD SVG 1.1//EN"
 "http://www.w3.org/Graphics/SVG/1.1/DTD/svg11.dtd">
<!-- Generated by graphviz version 2.36.0 (20140111.2315)
 -->
<!-- Title: AbstractLinearEllipticPde&lt; ELEMENT_DIM, SPACE_DIM &gt; Pages: 1 -->
<svg width="206pt" height="304pt"
 viewBox="0.00 0.00 206.00 304.00" xmlns="http://www.w3.org/2000/svg" xmlns:xlink="http://www.w3.org/1999/xlink">
<g id="graph0" class="graph" transform="scale(1 1) rotate(0) translate(4 300)">
<title>AbstractLinearEllipticPde&lt; ELEMENT_DIM, SPACE_DIM &gt;</title>
<polygon fill="white" stroke="none" points="-4,4 -4,-300 202,-300 202,4 -4,4"/>
<!-- Node1 -->
<g id="node1" class="node"><title>Node1</title>
<polygon fill="#bfbfbf" stroke="black" points="-0.5,-0.5 -0.5,-167.5 198.5,-167.5 198.5,-0.5 -0.5,-0.5"/>
<text text-anchor="start" x="7.5" y="-155.5" font-family="Helvetica,sans-Serif" font-size="10.00">AbstractLinearEllipticPde</text>
<text text-anchor="middle" x="99" y="-144.5" font-family="Helvetica,sans-Serif" font-size="10.00">&lt; ELEMENT_DIM, SPACE_DIM &gt;</text>
<polyline fill="none" stroke="black" points="-0.5,-137.5 198.5,-137.5 "/>
<text text-anchor="middle" x="99" y="-125.5" font-family="Helvetica,sans-Serif" font-size="10.00"> </text>
<polyline fill="none" stroke="black" points="-0.5,-118.5 198.5,-118.5 "/>
<text text-anchor="start" x="7.5" y="-106.5" font-family="Helvetica,sans-Serif" font-size="10.00">+ AbstractLinearEllipticPde()</text>
<text text-anchor="start" x="7.5" y="-95.5" font-family="Helvetica,sans-Serif" font-size="10.00">+ ~AbstractLinearEllipticPde()</text>
<text text-anchor="start" x="7.5" y="-84.5" font-family="Helvetica,sans-Serif" font-size="10.00">+ ComputeConstantInUSourceTerm()</text>
<text text-anchor="start" x="7.5" y="-73.5" font-family="Helvetica,sans-Serif" font-size="10.00">+ ComputeLinearInUCoeffInSourceTerm()</text>
<text text-anchor="start" x="7.5" y="-62.5" font-family="Helvetica,sans-Serif" font-size="10.00">+ ComputeDiffusionTerm()</text>
<text text-anchor="start" x="7.5" y="-51.5" font-family="Helvetica,sans-Serif" font-size="10.00">+ ComputeConstantInUSource</text>
<text text-anchor="start" x="7.5" y="-40.5" font-family="Helvetica,sans-Serif" font-size="10.00">TermAtNode()</text>
<text text-anchor="start" x="7.5" y="-29.5" font-family="Helvetica,sans-Serif" font-size="10.00">+ ComputeLinearInUCoeffInSource</text>
<text text-anchor="start" x="7.5" y="-18.5" font-family="Helvetica,sans-Serif" font-size="10.00">TermAtNode()</text>
<text text-anchor="start" x="7.5" y="-7.5" font-family="Helvetica,sans-Serif" font-size="10.00">&#45; serialize()</text>
</g>
<!-- Node2 -->
<g id="node2" class="node"><title>Node2</title>
<g id="a_node2"><a xlink:href="classAbstractLinearPde.html" target="_top" xlink:title="{AbstractLinearPde\&lt;\l ELEMENT_DIM, SPACE_DIM \&gt;\n||+ AbstractLinearPde()\l+ ~AbstractLinearPde()\l&#45; serialize()\l}">
<polygon fill="white" stroke="black" points="17,-205 17,-295 181,-295 181,-205 17,-205"/>
<text text-anchor="start" x="25" y="-283" font-family="Helvetica,sans-Serif" font-size="10.00">AbstractLinearPde&lt;</text>
<text text-anchor="middle" x="99" y="-272" font-family="Helvetica,sans-Serif" font-size="10.00"> ELEMENT_DIM, SPACE_DIM &gt;</text>
<polyline fill="none" stroke="black" points="17,-265 181,-265 "/>
<text text-anchor="middle" x="99" y="-253" font-family="Helvetica,sans-Serif" font-size="10.00"> </text>
<polyline fill="none" stroke="black" points="17,-246 181,-246 "/>
<text text-anchor="start" x="25" y="-234" font-family="Helvetica,sans-Serif" font-size="10.00">+ AbstractLinearPde()</text>
<text text-anchor="start" x="25" y="-223" font-family="Helvetica,sans-Serif" font-size="10.00">+ ~AbstractLinearPde()</text>
<text text-anchor="start" x="25" y="-212" font-family="Helvetica,sans-Serif" font-size="10.00">&#45; serialize()</text>
</a>
</g>
</g>
<!-- Node2&#45;&gt;Node1 -->
<g id="edge1" class="edge"><title>Node2&#45;&gt;Node1</title>
<path fill="none" stroke="midnightblue" d="M99,-194.38C99,-185.777 99,-176.72 99,-167.652"/>
<polygon fill="none" stroke="midnightblue" points="95.5001,-194.619 99,-204.619 102.5,-194.619 95.5001,-194.619"/>
</g>
</g>
</svg>
