<?xml version="1.0" encoding="UTF-8" standalone="no"?>
<!DOCTYPE svg PUBLIC "-//W3C//DTD SVG 1.1//EN"
 "http://www.w3.org/Graphics/SVG/1.1/DTD/svg11.dtd">
<!-- Generated by graphviz version 2.36.0 (20140111.2315)
 -->
<!-- Title: AbstractPhaseBasedCellCycleModel Pages: 1 -->
<svg width="535pt" height="620pt"
 viewBox="0.00 0.00 535.09 620.00" xmlns="http://www.w3.org/2000/svg" xmlns:xlink="http://www.w3.org/1999/xlink">
<g id="graph0" class="graph" transform="scale(1 1) rotate(0) translate(4 616)">
<title>AbstractPhaseBasedCellCycleModel</title>
<polygon fill="white" stroke="none" points="-4,4 -4,-616 531.087,-616 531.087,4 -4,4"/>
<!-- Node1 -->
<g id="node1" class="node"><title>Node1</title>
<polygon fill="#bfbfbf" stroke="black" points="131.587,-0.5 131.587,-233.5 298.587,-233.5 298.587,-0.5 131.587,-0.5"/>
<text text-anchor="start" x="139.587" y="-221.5" font-family="Helvetica,sans-Serif" font-size="10.00">AbstractPhaseBasedCellCycle</text>
<text text-anchor="middle" x="215.087" y="-210.5" font-family="Helvetica,sans-Serif" font-size="10.00">Model</text>
<polyline fill="none" stroke="black" points="131.587,-203.5 298.587,-203.5 "/>
<text text-anchor="middle" x="215.087" y="-191.5" font-family="Helvetica,sans-Serif" font-size="10.00"> </text>
<polyline fill="none" stroke="black" points="131.587,-184.5 298.587,-184.5 "/>
<text text-anchor="start" x="139.587" y="-172.5" font-family="Helvetica,sans-Serif" font-size="10.00">+ AbstractPhaseBasedCellCycle</text>
<text text-anchor="start" x="139.587" y="-161.5" font-family="Helvetica,sans-Serif" font-size="10.00">Model()</text>
<text text-anchor="start" x="139.587" y="-150.5" font-family="Helvetica,sans-Serif" font-size="10.00">+ ~AbstractPhaseBasedCellCycle</text>
<text text-anchor="start" x="139.587" y="-139.5" font-family="Helvetica,sans-Serif" font-size="10.00">Model()</text>
<text text-anchor="start" x="139.587" y="-128.5" font-family="Helvetica,sans-Serif" font-size="10.00">+ ReadyToDivide()</text>
<text text-anchor="start" x="139.587" y="-117.5" font-family="Helvetica,sans-Serif" font-size="10.00">+ ResetForDivision()</text>
<text text-anchor="start" x="139.587" y="-106.5" font-family="Helvetica,sans-Serif" font-size="10.00">+ UpdateCellCyclePhase()</text>
<text text-anchor="start" x="139.587" y="-95.5" font-family="Helvetica,sans-Serif" font-size="10.00">+ GetCurrentCellCyclePhase()</text>
<text text-anchor="start" x="139.587" y="-84.5" font-family="Helvetica,sans-Serif" font-size="10.00">+ GetG1Duration()</text>
<text text-anchor="start" x="139.587" y="-73.5" font-family="Helvetica,sans-Serif" font-size="10.00">+ GetStemCellG1Duration()</text>
<text text-anchor="start" x="139.587" y="-62.5" font-family="Helvetica,sans-Serif" font-size="10.00">+ GetTransitCellG1Duration()</text>
<text text-anchor="start" x="139.587" y="-51.5" font-family="Helvetica,sans-Serif" font-size="10.00">+ GetSG2MDuration()</text>
<text text-anchor="start" x="139.587" y="-40.5" font-family="Helvetica,sans-Serif" font-size="10.00">and 13 more...</text>
<text text-anchor="start" x="139.587" y="-29.5" font-family="Helvetica,sans-Serif" font-size="10.00"># AbstractPhaseBasedCellCycle</text>
<text text-anchor="start" x="139.587" y="-18.5" font-family="Helvetica,sans-Serif" font-size="10.00">Model()</text>
<text text-anchor="start" x="139.587" y="-7.5" font-family="Helvetica,sans-Serif" font-size="10.00">&#45; serialize()</text>
</g>
<!-- Node2 -->
<g id="node2" class="node"><title>Node2</title>
<g id="a_node2"><a xlink:href="classAbstractCellCycleModel.html" target="_top" xlink:title="{AbstractCellCycleModel\n||+ AbstractCellCycleModel()\l+ ~AbstractCellCycleModel()\l+ SetCell()\l+ Initialise()\l+ InitialiseDaughterCell()\l+ GetCell()\l+ SetBirthTime()\l+ SetDimension()\l+ GetDimension()\l+ GetBirthTime()\land 9 more...\l# AbstractCellCycleModel()\l&#45; serialize()\l&#45; operator=()\l}">
<polygon fill="white" stroke="black" points="143.587,-283 143.587,-483 286.587,-483 286.587,-283 143.587,-283"/>
<text text-anchor="middle" x="215.087" y="-471" font-family="Helvetica,sans-Serif" font-size="10.00">AbstractCellCycleModel</text>
<polyline fill="none" stroke="black" points="143.587,-464 286.587,-464 "/>
<text text-anchor="middle" x="215.087" y="-452" font-family="Helvetica,sans-Serif" font-size="10.00"> </text>
<polyline fill="none" stroke="black" points="143.587,-445 286.587,-445 "/>
<text text-anchor="start" x="151.587" y="-433" font-family="Helvetica,sans-Serif" font-size="10.00">+ AbstractCellCycleModel()</text>
<text text-anchor="start" x="151.587" y="-422" font-family="Helvetica,sans-Serif" font-size="10.00">+ ~AbstractCellCycleModel()</text>
<text text-anchor="start" x="151.587" y="-411" font-family="Helvetica,sans-Serif" font-size="10.00">+ SetCell()</text>
<text text-anchor="start" x="151.587" y="-400" font-family="Helvetica,sans-Serif" font-size="10.00">+ Initialise()</text>
<text text-anchor="start" x="151.587" y="-389" font-family="Helvetica,sans-Serif" font-size="10.00">+ InitialiseDaughterCell()</text>
<text text-anchor="start" x="151.587" y="-378" font-family="Helvetica,sans-Serif" font-size="10.00">+ GetCell()</text>
<text text-anchor="start" x="151.587" y="-367" font-family="Helvetica,sans-Serif" font-size="10.00">+ SetBirthTime()</text>
<text text-anchor="start" x="151.587" y="-356" font-family="Helvetica,sans-Serif" font-size="10.00">+ SetDimension()</text>
<text text-anchor="start" x="151.587" y="-345" font-family="Helvetica,sans-Serif" font-size="10.00">+ GetDimension()</text>
<text text-anchor="start" x="151.587" y="-334" font-family="Helvetica,sans-Serif" font-size="10.00">+ GetBirthTime()</text>
<text text-anchor="start" x="151.587" y="-323" font-family="Helvetica,sans-Serif" font-size="10.00">and 9 more...</text>
<text text-anchor="start" x="151.587" y="-312" font-family="Helvetica,sans-Serif" font-size="10.00"># AbstractCellCycleModel()</text>
<text text-anchor="start" x="151.587" y="-301" font-family="Helvetica,sans-Serif" font-size="10.00">&#45; serialize()</text>
<text text-anchor="start" x="151.587" y="-290" font-family="Helvetica,sans-Serif" font-size="10.00">&#45; operator=()</text>
</a>
</g>
</g>
<!-- Node2&#45;&gt;Node1 -->
<g id="edge1" class="edge"><title>Node2&#45;&gt;Node1</title>
<path fill="none" stroke="midnightblue" d="M215.087,-272.677C215.087,-259.782 215.087,-246.589 215.087,-233.611"/>
<polygon fill="none" stroke="midnightblue" points="211.587,-272.945 215.087,-282.945 218.587,-272.945 211.587,-272.945"/>
</g>
<!-- Node3 -->
<g id="node3" class="node"><title>Node3</title>
<g id="a_node3"><a xlink:href="classIdentifiable.html" target="_top" xlink:title="{Identifiable\n||+ ~Identifiable()\l+ GetIdentifier()\l&#45; TidyTemplatedExportIdentifier()\l}">
<polygon fill="white" stroke="black" points="367.587,-532.5 367.587,-611.5 526.587,-611.5 526.587,-532.5 367.587,-532.5"/>
<text text-anchor="middle" x="447.087" y="-599.5" font-family="Helvetica,sans-Serif" font-size="10.00">Identifiable</text>
<polyline fill="none" stroke="black" points="367.587,-592.5 526.587,-592.5 "/>
<text text-anchor="middle" x="447.087" y="-580.5" font-family="Helvetica,sans-Serif" font-size="10.00"> </text>
<polyline fill="none" stroke="black" points="367.587,-573.5 526.587,-573.5 "/>
<text text-anchor="start" x="375.587" y="-561.5" font-family="Helvetica,sans-Serif" font-size="10.00">+ ~Identifiable()</text>
<text text-anchor="start" x="375.587" y="-550.5" font-family="Helvetica,sans-Serif" font-size="10.00">+ GetIdentifier()</text>
<text text-anchor="start" x="375.587" y="-539.5" font-family="Helvetica,sans-Serif" font-size="10.00">&#45; TidyTemplatedExportIdentifier()</text>
</a>
</g>
</g>
<!-- Node3&#45;&gt;Node2 -->
<g id="edge2" class="edge"><title>Node3&#45;&gt;Node2</title>
<path fill="none" stroke="midnightblue" d="M405.828,-525.538C395.86,-516.646 384.705,-508.176 373.087,-502 341.673,-485.299 325.204,-502.941 295.087,-484 292.264,-482.224 289.497,-480.314 286.79,-478.29"/>
<polygon fill="none" stroke="midnightblue" points="403.497,-528.15 413.207,-532.389 408.26,-523.02 403.497,-528.15"/>
</g>
<!-- Node4 -->
<g id="node4" class="node"><title>Node4</title>
<g id="a_node4"><a xlink:href="classdouble.html" target="_top" xlink:title="{double\n||}">
<polygon fill="white" stroke="black" points="4.58726,-543.5 4.58726,-600.5 49.5873,-600.5 49.5873,-543.5 4.58726,-543.5"/>
<text text-anchor="middle" x="27.0873" y="-588.5" font-family="Helvetica,sans-Serif" font-size="10.00">double</text>
<polyline fill="none" stroke="black" points="4.58726,-581.5 49.5873,-581.5 "/>
<text text-anchor="middle" x="27.0873" y="-569.5" font-family="Helvetica,sans-Serif" font-size="10.00"> </text>
<polyline fill="none" stroke="black" points="4.58726,-562.5 49.5873,-562.5 "/>
<text text-anchor="middle" x="27.0873" y="-550.5" font-family="Helvetica,sans-Serif" font-size="10.00"> </text>
</a>
</g>
</g>
<!-- Node4&#45;&gt;Node1 -->
<g id="edge7" class="edge"><title>Node4&#45;&gt;Node1</title>
<path fill="none" stroke="#404040" d="M19.1137,-543.086C5.40618,-489.548 -17.4554,-369.95 23.0873,-282 43.7246,-237.231 83.2782,-200.149 121.148,-172.638"/>
<polygon fill="none" stroke="#404040" points="121.449,-172.425 124.036,-165.694 131.245,-165.494 128.657,-172.225 121.449,-172.425"/>
<text text-anchor="middle" x="78.5873" y="-413.5" font-family="Helvetica,sans-Serif" font-size="10.00"> #mSDuration</text>
<text text-anchor="middle" x="78.5873" y="-402.5" font-family="Helvetica,sans-Serif" font-size="10.00">#mStemCellG1Duration</text>
<text text-anchor="middle" x="78.5873" y="-391.5" font-family="Helvetica,sans-Serif" font-size="10.00">#mMDuration</text>
<text text-anchor="middle" x="78.5873" y="-380.5" font-family="Helvetica,sans-Serif" font-size="10.00">#mMinimumGapDuration</text>
<text text-anchor="middle" x="78.5873" y="-369.5" font-family="Helvetica,sans-Serif" font-size="10.00">#mTransitCellG1Duration</text>
<text text-anchor="middle" x="78.5873" y="-358.5" font-family="Helvetica,sans-Serif" font-size="10.00">#mG2Duration</text>
<text text-anchor="middle" x="78.5873" y="-347.5" font-family="Helvetica,sans-Serif" font-size="10.00">#mG1Duration</text>
</g>
<!-- Node4&#45;&gt;Node2 -->
<g id="edge3" class="edge"><title>Node4&#45;&gt;Node2</title>
<path fill="none" stroke="#404040" d="M49.7883,-543.706C61.9965,-530.099 77.8524,-514.026 94.0873,-502 108.143,-491.588 115.352,-494.832 129.087,-484 130.756,-482.684 132.417,-481.332 134.068,-479.948"/>
<polygon fill="none" stroke="#404040" points="134.41,-479.646 136.263,-472.677 143.409,-471.707 141.556,-478.676 134.41,-479.646"/>
<text text-anchor="middle" x="123.587" y="-505.5" font-family="Helvetica,sans-Serif" font-size="10.00"> #mBirthTime</text>
</g>
<!-- Node5 -->
<g id="node5" class="node"><title>Node5</title>
<polygon fill="white" stroke="#bfbfbf" points="80.0873,-543.5 80.0873,-600.5 178.087,-600.5 178.087,-543.5 80.0873,-543.5"/>
<text text-anchor="middle" x="129.087" y="-588.5" font-family="Helvetica,sans-Serif" font-size="10.00">shared_ptr&lt; Cell &gt;</text>
<polyline fill="none" stroke="#bfbfbf" points="80.0873,-581.5 178.087,-581.5 "/>
<text text-anchor="middle" x="129.087" y="-569.5" font-family="Helvetica,sans-Serif" font-size="10.00"> </text>
<polyline fill="none" stroke="#bfbfbf" points="80.0873,-562.5 178.087,-562.5 "/>
<text text-anchor="middle" x="129.087" y="-550.5" font-family="Helvetica,sans-Serif" font-size="10.00"> </text>
</g>
<!-- Node5&#45;&gt;Node2 -->
<g id="edge4" class="edge"><title>Node5&#45;&gt;Node2</title>
<path fill="none" stroke="#404040" d="M141.777,-543.408C147.997,-529.883 155.939,-512.614 164.286,-494.463"/>
<polygon fill="none" stroke="#404040" points="164.366,-494.288 163.239,-487.166 169.38,-483.386 170.507,-490.508 164.366,-494.288"/>
<text text-anchor="middle" x="180.087" y="-505.5" font-family="Helvetica,sans-Serif" font-size="10.00"> #mpCell</text>
</g>
<!-- Node6 -->
<g id="node6" class="node"><title>Node6</title>
<g id="a_node6"><a xlink:href="classbool.html" target="_top" xlink:title="{bool\n||}">
<polygon fill="white" stroke="black" points="196.587,-543.5 196.587,-600.5 231.587,-600.5 231.587,-543.5 196.587,-543.5"/>
<text text-anchor="middle" x="214.087" y="-588.5" font-family="Helvetica,sans-Serif" font-size="10.00">bool</text>
<polyline fill="none" stroke="black" points="196.587,-581.5 231.587,-581.5 "/>
<text text-anchor="middle" x="214.087" y="-569.5" font-family="Helvetica,sans-Serif" font-size="10.00"> </text>
<polyline fill="none" stroke="black" points="196.587,-562.5 231.587,-562.5 "/>
<text text-anchor="middle" x="214.087" y="-550.5" font-family="Helvetica,sans-Serif" font-size="10.00"> </text>
</a>
</g>
</g>
<!-- Node6&#45;&gt;Node2 -->
<g id="edge5" class="edge"><title>Node6&#45;&gt;Node2</title>
<path fill="none" stroke="#404040" d="M214.235,-543.408C214.306,-530.137 214.396,-513.261 214.491,-495.485"/>
<polygon fill="none" stroke="#404040" points="214.492,-495.386 210.524,-489.364 214.556,-483.386 218.524,-489.407 214.492,-495.386"/>
<text text-anchor="middle" x="257.587" y="-505.5" font-family="Helvetica,sans-Serif" font-size="10.00"> #mReadyToDivide</text>
</g>
<!-- Node7 -->
<g id="node7" class="node"><title>Node7</title>
<g id="a_node7"><a xlink:href="classunsigned.html" target="_top" xlink:title="{unsigned\n||}">
<polygon fill="white" stroke="black" points="294.087,-543.5 294.087,-600.5 350.087,-600.5 350.087,-543.5 294.087,-543.5"/>
<text text-anchor="middle" x="322.087" y="-588.5" font-family="Helvetica,sans-Serif" font-size="10.00">unsigned</text>
<polyline fill="none" stroke="black" points="294.087,-581.5 350.087,-581.5 "/>
<text text-anchor="middle" x="322.087" y="-569.5" font-family="Helvetica,sans-Serif" font-size="10.00"> </text>
<polyline fill="none" stroke="black" points="294.087,-562.5 350.087,-562.5 "/>
<text text-anchor="middle" x="322.087" y="-550.5" font-family="Helvetica,sans-Serif" font-size="10.00"> </text>
</a>
</g>
</g>
<!-- Node7&#45;&gt;Node2 -->
<g id="edge6" class="edge"><title>Node7&#45;&gt;Node2</title>
<path fill="none" stroke="#404040" d="M315.43,-543.351C311.778,-530.415 306.646,-515.027 300.087,-502 297.82,-497.497 295.389,-492.978 292.834,-488.474"/>
<polygon fill="none" stroke="#404040" points="292.757,-488.344 286.265,-485.205 286.666,-478.005 293.158,-481.144 292.757,-488.344"/>
<text text-anchor="middle" x="337.087" y="-505.5" font-family="Helvetica,sans-Serif" font-size="10.00"> #mDimension</text>
</g>
<!-- Node8 -->
<g id="node8" class="node"><title>Node8</title>
<polygon fill="white" stroke="#bfbfbf" points="304.587,-354.5 304.587,-411.5 423.587,-411.5 423.587,-354.5 304.587,-354.5"/>
<text text-anchor="middle" x="364.087" y="-399.5" font-family="Helvetica,sans-Serif" font-size="10.00">enum CellCyclePhase_</text>
<polyline fill="none" stroke="#bfbfbf" points="304.587,-392.5 423.587,-392.5 "/>
<text text-anchor="middle" x="364.087" y="-380.5" font-family="Helvetica,sans-Serif" font-size="10.00"> </text>
<polyline fill="none" stroke="#bfbfbf" points="304.587,-373.5 423.587,-373.5 "/>
<text text-anchor="middle" x="364.087" y="-361.5" font-family="Helvetica,sans-Serif" font-size="10.00"> </text>
</g>
<!-- Node8&#45;&gt;Node1 -->
<g id="edge8" class="edge"><title>Node8&#45;&gt;Node1</title>
<path fill="none" stroke="#404040" d="M348.423,-354.246C333.407,-327.641 309.637,-285.524 286.297,-244.17"/>
<polygon fill="none" stroke="#404040" points="286.276,-244.134 279.844,-240.875 280.378,-233.683 286.811,-236.942 286.276,-244.134"/>
<text text-anchor="middle" x="354.087" y="-255.5" font-family="Helvetica,sans-Serif" font-size="10.00"> #mCurrentCellCyclePhase</text>
</g>
</g>
</svg>
