<?xml version="1.0" encoding="UTF-8" standalone="no"?>
<!DOCTYPE svg PUBLIC "-//W3C//DTD SVG 1.1//EN"
 "http://www.w3.org/Graphics/SVG/1.1/DTD/svg11.dtd">
<!-- Generated by graphviz version 2.36.0 (20140111.2315)
 -->
<!-- Title: AbstractOdeBasedContractionModel Pages: 1 -->
<svg width="652pt" height="1302pt"
 viewBox="0.00 0.00 652.00 1302.00" xmlns="http://www.w3.org/2000/svg" xmlns:xlink="http://www.w3.org/1999/xlink">
<g id="graph0" class="graph" transform="scale(1 1) rotate(0) translate(4 1298)">
<title>AbstractOdeBasedContractionModel</title>
<polygon fill="white" stroke="none" points="-4,4 -4,-1298 648,-1298 648,4 -4,4"/>
<!-- Node1 -->
<g id="node1" class="node"><title>Node1</title>
<polygon fill="#bfbfbf" stroke="black" points="374,-1 374,-113 532,-113 532,-1 374,-1"/>
<text text-anchor="start" x="382" y="-101" font-family="Helvetica,sans-Serif" font-size="10.00">AbstractOdeBasedContraction</text>
<text text-anchor="middle" x="453" y="-90" font-family="Helvetica,sans-Serif" font-size="10.00">Model</text>
<polyline fill="none" stroke="black" points="374,-83 532,-83 "/>
<text text-anchor="middle" x="453" y="-71" font-family="Helvetica,sans-Serif" font-size="10.00"> </text>
<polyline fill="none" stroke="black" points="374,-64 532,-64 "/>
<text text-anchor="start" x="382" y="-52" font-family="Helvetica,sans-Serif" font-size="10.00">+ AbstractOdeBasedContraction</text>
<text text-anchor="start" x="382" y="-41" font-family="Helvetica,sans-Serif" font-size="10.00">Model()</text>
<text text-anchor="start" x="382" y="-30" font-family="Helvetica,sans-Serif" font-size="10.00">+ RunDoNotUpdate()</text>
<text text-anchor="start" x="382" y="-19" font-family="Helvetica,sans-Serif" font-size="10.00">+ UpdateStateVariables()</text>
<text text-anchor="start" x="382" y="-8" font-family="Helvetica,sans-Serif" font-size="10.00">+ RunAndUpdate()</text>
</g>
<!-- Node2 -->
<g id="node2" class="node"><title>Node2</title>
<g id="a_node2"><a xlink:href="classAbstractOdeSystem.html" target="_top" xlink:title="{AbstractOdeSystem\n||+ AbstractOdeSystem()\l+ ~AbstractOdeSystem()\l+ EvaluateYDerivatives()\l+ CalculateStoppingEvent()\l+ CalculateRootFunction()\l+ GetUseAnalyticJacobian()\l+ rGetConstStateVariables()\l&#45; save()\l&#45; load()\l}">
<polygon fill="white" stroke="black" points="199,-179.5 199,-324.5 339,-324.5 339,-179.5 199,-179.5"/>
<text text-anchor="middle" x="269" y="-312.5" font-family="Helvetica,sans-Serif" font-size="10.00">AbstractOdeSystem</text>
<polyline fill="none" stroke="black" points="199,-305.5 339,-305.5 "/>
<text text-anchor="middle" x="269" y="-293.5" font-family="Helvetica,sans-Serif" font-size="10.00"> </text>
<polyline fill="none" stroke="black" points="199,-286.5 339,-286.5 "/>
<text text-anchor="start" x="207" y="-274.5" font-family="Helvetica,sans-Serif" font-size="10.00">+ AbstractOdeSystem()</text>
<text text-anchor="start" x="207" y="-263.5" font-family="Helvetica,sans-Serif" font-size="10.00">+ ~AbstractOdeSystem()</text>
<text text-anchor="start" x="207" y="-252.5" font-family="Helvetica,sans-Serif" font-size="10.00">+ EvaluateYDerivatives()</text>
<text text-anchor="start" x="207" y="-241.5" font-family="Helvetica,sans-Serif" font-size="10.00">+ CalculateStoppingEvent()</text>
<text text-anchor="start" x="207" y="-230.5" font-family="Helvetica,sans-Serif" font-size="10.00">+ CalculateRootFunction()</text>
<text text-anchor="start" x="207" y="-219.5" font-family="Helvetica,sans-Serif" font-size="10.00">+ GetUseAnalyticJacobian()</text>
<text text-anchor="start" x="207" y="-208.5" font-family="Helvetica,sans-Serif" font-size="10.00">+ rGetConstStateVariables()</text>
<text text-anchor="start" x="207" y="-197.5" font-family="Helvetica,sans-Serif" font-size="10.00">&#45; save()</text>
<text text-anchor="start" x="207" y="-186.5" font-family="Helvetica,sans-Serif" font-size="10.00">&#45; load()</text>
</a>
</g>
</g>
<!-- Node2&#45;&gt;Node1 -->
<g id="edge1" class="edge"><title>Node2&#45;&gt;Node1</title>
<path fill="none" stroke="midnightblue" d="M344.156,-172.168C363.029,-152.372 382.88,-131.549 400.387,-113.187"/>
<polygon fill="none" stroke="midnightblue" points="341.62,-169.755 337.253,-179.408 346.687,-174.585 341.62,-169.755"/>
</g>
<!-- Node3 -->
<g id="node3" class="node"><title>Node3</title>
<g id="a_node3"><a xlink:href="classAbstractParameterisedSystem.html" target="_top" xlink:title="{AbstractParameterisedSystem\l\&lt; std::vector\&lt; double \&gt; \&gt;\n||+ AbstractParameterisedSystem()\l+ rGetStateVariables()\l+ GetStateVariables()\l+ SetStateVariables()\l+ GetStateVariable()\l+ GetStateVariable()\l+ SetStateVariable()\l+ SetStateVariable()\l+ VerifyStateVariables()\l+ SetDefaultInitialConditions()\land 13 more...\l# DumpState()\l# DumpState()\l# DumpState()\l# CheckParametersOnLoad()\l&#45; GetStateMessage()\l}">
<polygon fill="white" stroke="black" points="89.5,-390.5 89.5,-623.5 254.5,-623.5 254.5,-390.5 89.5,-390.5"/>
<text text-anchor="start" x="97.5" y="-611.5" font-family="Helvetica,sans-Serif" font-size="10.00">AbstractParameterisedSystem</text>
<text text-anchor="middle" x="172" y="-600.5" font-family="Helvetica,sans-Serif" font-size="10.00">&lt; std::vector&lt; double &gt; &gt;</text>
<polyline fill="none" stroke="black" points="89.5,-593.5 254.5,-593.5 "/>
<text text-anchor="middle" x="172" y="-581.5" font-family="Helvetica,sans-Serif" font-size="10.00"> </text>
<polyline fill="none" stroke="black" points="89.5,-574.5 254.5,-574.5 "/>
<text text-anchor="start" x="97.5" y="-562.5" font-family="Helvetica,sans-Serif" font-size="10.00">+ AbstractParameterisedSystem()</text>
<text text-anchor="start" x="97.5" y="-551.5" font-family="Helvetica,sans-Serif" font-size="10.00">+ rGetStateVariables()</text>
<text text-anchor="start" x="97.5" y="-540.5" font-family="Helvetica,sans-Serif" font-size="10.00">+ GetStateVariables()</text>
<text text-anchor="start" x="97.5" y="-529.5" font-family="Helvetica,sans-Serif" font-size="10.00">+ SetStateVariables()</text>
<text text-anchor="start" x="97.5" y="-518.5" font-family="Helvetica,sans-Serif" font-size="10.00">+ GetStateVariable()</text>
<text text-anchor="start" x="97.5" y="-507.5" font-family="Helvetica,sans-Serif" font-size="10.00">+ GetStateVariable()</text>
<text text-anchor="start" x="97.5" y="-496.5" font-family="Helvetica,sans-Serif" font-size="10.00">+ SetStateVariable()</text>
<text text-anchor="start" x="97.5" y="-485.5" font-family="Helvetica,sans-Serif" font-size="10.00">+ SetStateVariable()</text>
<text text-anchor="start" x="97.5" y="-474.5" font-family="Helvetica,sans-Serif" font-size="10.00">+ VerifyStateVariables()</text>
<text text-anchor="start" x="97.5" y="-463.5" font-family="Helvetica,sans-Serif" font-size="10.00">+ SetDefaultInitialConditions()</text>
<text text-anchor="start" x="97.5" y="-452.5" font-family="Helvetica,sans-Serif" font-size="10.00">and 13 more...</text>
<text text-anchor="start" x="97.5" y="-441.5" font-family="Helvetica,sans-Serif" font-size="10.00"># DumpState()</text>
<text text-anchor="start" x="97.5" y="-430.5" font-family="Helvetica,sans-Serif" font-size="10.00"># DumpState()</text>
<text text-anchor="start" x="97.5" y="-419.5" font-family="Helvetica,sans-Serif" font-size="10.00"># DumpState()</text>
<text text-anchor="start" x="97.5" y="-408.5" font-family="Helvetica,sans-Serif" font-size="10.00"># CheckParametersOnLoad()</text>
<text text-anchor="start" x="97.5" y="-397.5" font-family="Helvetica,sans-Serif" font-size="10.00">&#45; GetStateMessage()</text>
</a>
</g>
</g>
<!-- Node3&#45;&gt;Node2 -->
<g id="edge2" class="edge"><title>Node3&#45;&gt;Node2</title>
<path fill="none" stroke="midnightblue" d="M220.011,-380.776C227.408,-361.482 234.82,-342.149 241.559,-324.572"/>
<polygon fill="none" stroke="midnightblue" points="216.696,-379.646 216.384,-390.236 223.232,-382.152 216.696,-379.646"/>
</g>
<!-- Node4 -->
<g id="node4" class="node"><title>Node4</title>
<g id="a_node4"><a xlink:href="classAbstractUntemplatedParameterisedSystem.html" target="_top" xlink:title="{AbstractUntemplatedParameterised\lSystem\n||+ AbstractUntemplatedParameterised\lSystem()\l+ ~AbstractUntemplatedParameterised\lSystem()\l+ GetSystemInformation()\l+ GetSystemName()\l+ GetNumberOfAttributes()\l+ HasAttribute()\l+ GetAttribute()\l+ GetNumberOfStateVariables()\l+ rGetStateVariableNames()\l+ rGetStateVariableUnits()\land 20 more...\l}">
<polygon fill="white" stroke="black" points="118.5,-975 118.5,-1175 305.5,-1175 305.5,-975 118.5,-975"/>
<text text-anchor="start" x="126.5" y="-1163" font-family="Helvetica,sans-Serif" font-size="10.00">AbstractUntemplatedParameterised</text>
<text text-anchor="middle" x="212" y="-1152" font-family="Helvetica,sans-Serif" font-size="10.00">System</text>
<polyline fill="none" stroke="black" points="118.5,-1145 305.5,-1145 "/>
<text text-anchor="middle" x="212" y="-1133" font-family="Helvetica,sans-Serif" font-size="10.00"> </text>
<polyline fill="none" stroke="black" points="118.5,-1126 305.5,-1126 "/>
<text text-anchor="start" x="126.5" y="-1114" font-family="Helvetica,sans-Serif" font-size="10.00">+ AbstractUntemplatedParameterised</text>
<text text-anchor="start" x="126.5" y="-1103" font-family="Helvetica,sans-Serif" font-size="10.00">System()</text>
<text text-anchor="start" x="126.5" y="-1092" font-family="Helvetica,sans-Serif" font-size="10.00">+ ~AbstractUntemplatedParameterised</text>
<text text-anchor="start" x="126.5" y="-1081" font-family="Helvetica,sans-Serif" font-size="10.00">System()</text>
<text text-anchor="start" x="126.5" y="-1070" font-family="Helvetica,sans-Serif" font-size="10.00">+ GetSystemInformation()</text>
<text text-anchor="start" x="126.5" y="-1059" font-family="Helvetica,sans-Serif" font-size="10.00">+ GetSystemName()</text>
<text text-anchor="start" x="126.5" y="-1048" font-family="Helvetica,sans-Serif" font-size="10.00">+ GetNumberOfAttributes()</text>
<text text-anchor="start" x="126.5" y="-1037" font-family="Helvetica,sans-Serif" font-size="10.00">+ HasAttribute()</text>
<text text-anchor="start" x="126.5" y="-1026" font-family="Helvetica,sans-Serif" font-size="10.00">+ GetAttribute()</text>
<text text-anchor="start" x="126.5" y="-1015" font-family="Helvetica,sans-Serif" font-size="10.00">+ GetNumberOfStateVariables()</text>
<text text-anchor="start" x="126.5" y="-1004" font-family="Helvetica,sans-Serif" font-size="10.00">+ rGetStateVariableNames()</text>
<text text-anchor="start" x="126.5" y="-993" font-family="Helvetica,sans-Serif" font-size="10.00">+ rGetStateVariableUnits()</text>
<text text-anchor="start" x="126.5" y="-982" font-family="Helvetica,sans-Serif" font-size="10.00">and 20 more...</text>
</a>
</g>
</g>
<!-- Node4&#45;&gt;Node3 -->
<g id="edge3" class="edge"><title>Node4&#45;&gt;Node3</title>
<path fill="none" stroke="midnightblue" d="M213.252,-964.376C213.096,-876.846 210.285,-751.207 198,-642 197.324,-635.995 196.526,-629.857 195.635,-623.671"/>
<polygon fill="none" stroke="midnightblue" points="209.752,-964.592 213.258,-974.59 216.752,-964.588 209.752,-964.592"/>
</g>
<!-- Node8 -->
<g id="node8" class="node"><title>Node8</title>
<g id="a_node8"><a xlink:href="classAbstractParameterisedSystem.html" target="_top" xlink:title="{AbstractParameterisedSystem\l\&lt; VECTOR \&gt;\n||+ AbstractParameterisedSystem()\l+ rGetStateVariables()\l+ GetStateVariables()\l+ SetStateVariables()\l+ GetStateVariable()\l+ GetStateVariable()\l+ SetStateVariable()\l+ SetStateVariable()\l+ VerifyStateVariables()\l+ SetDefaultInitialConditions()\land 13 more...\l# DumpState()\l# DumpState()\l# DumpState()\l# CheckParametersOnLoad()\l&#45; GetStateMessage()\l}">
<polygon fill="white" stroke="black" points="-0.5,-682.5 -0.5,-915.5 164.5,-915.5 164.5,-682.5 -0.5,-682.5"/>
<text text-anchor="start" x="7.5" y="-903.5" font-family="Helvetica,sans-Serif" font-size="10.00">AbstractParameterisedSystem</text>
<text text-anchor="middle" x="82" y="-892.5" font-family="Helvetica,sans-Serif" font-size="10.00">&lt; VECTOR &gt;</text>
<polyline fill="none" stroke="black" points="-0.5,-885.5 164.5,-885.5 "/>
<text text-anchor="middle" x="82" y="-873.5" font-family="Helvetica,sans-Serif" font-size="10.00"> </text>
<polyline fill="none" stroke="black" points="-0.5,-866.5 164.5,-866.5 "/>
<text text-anchor="start" x="7.5" y="-854.5" font-family="Helvetica,sans-Serif" font-size="10.00">+ AbstractParameterisedSystem()</text>
<text text-anchor="start" x="7.5" y="-843.5" font-family="Helvetica,sans-Serif" font-size="10.00">+ rGetStateVariables()</text>
<text text-anchor="start" x="7.5" y="-832.5" font-family="Helvetica,sans-Serif" font-size="10.00">+ GetStateVariables()</text>
<text text-anchor="start" x="7.5" y="-821.5" font-family="Helvetica,sans-Serif" font-size="10.00">+ SetStateVariables()</text>
<text text-anchor="start" x="7.5" y="-810.5" font-family="Helvetica,sans-Serif" font-size="10.00">+ GetStateVariable()</text>
<text text-anchor="start" x="7.5" y="-799.5" font-family="Helvetica,sans-Serif" font-size="10.00">+ GetStateVariable()</text>
<text text-anchor="start" x="7.5" y="-788.5" font-family="Helvetica,sans-Serif" font-size="10.00">+ SetStateVariable()</text>
<text text-anchor="start" x="7.5" y="-777.5" font-family="Helvetica,sans-Serif" font-size="10.00">+ SetStateVariable()</text>
<text text-anchor="start" x="7.5" y="-766.5" font-family="Helvetica,sans-Serif" font-size="10.00">+ VerifyStateVariables()</text>
<text text-anchor="start" x="7.5" y="-755.5" font-family="Helvetica,sans-Serif" font-size="10.00">+ SetDefaultInitialConditions()</text>
<text text-anchor="start" x="7.5" y="-744.5" font-family="Helvetica,sans-Serif" font-size="10.00">and 13 more...</text>
<text text-anchor="start" x="7.5" y="-733.5" font-family="Helvetica,sans-Serif" font-size="10.00"># DumpState()</text>
<text text-anchor="start" x="7.5" y="-722.5" font-family="Helvetica,sans-Serif" font-size="10.00"># DumpState()</text>
<text text-anchor="start" x="7.5" y="-711.5" font-family="Helvetica,sans-Serif" font-size="10.00"># DumpState()</text>
<text text-anchor="start" x="7.5" y="-700.5" font-family="Helvetica,sans-Serif" font-size="10.00"># CheckParametersOnLoad()</text>
<text text-anchor="start" x="7.5" y="-689.5" font-family="Helvetica,sans-Serif" font-size="10.00">&#45; GetStateMessage()</text>
</a>
</g>
</g>
<!-- Node4&#45;&gt;Node8 -->
<g id="edge8" class="edge"><title>Node4&#45;&gt;Node8</title>
<path fill="none" stroke="midnightblue" d="M175.566,-965.314C171.271,-954.617 166.725,-944.021 162,-934 159.169,-927.996 156.147,-921.914 152.996,-915.823"/>
<polygon fill="none" stroke="midnightblue" points="172.353,-966.707 179.274,-974.729 178.866,-964.142 172.353,-966.707"/>
</g>
<!-- Node5 -->
<g id="node5" class="node"><title>Node5</title>
<polygon fill="white" stroke="#bfbfbf" points="69,-1225 69,-1293 229,-1293 229,-1225 69,-1225"/>
<text text-anchor="start" x="77" y="-1281" font-family="Helvetica,sans-Serif" font-size="10.00">shared_ptr&lt; AbstractOdeSystem</text>
<text text-anchor="middle" x="149" y="-1270" font-family="Helvetica,sans-Serif" font-size="10.00">Information &gt;</text>
<polyline fill="none" stroke="#bfbfbf" points="69,-1263 229,-1263 "/>
<text text-anchor="middle" x="149" y="-1251" font-family="Helvetica,sans-Serif" font-size="10.00"> </text>
<polyline fill="none" stroke="#bfbfbf" points="69,-1244 229,-1244 "/>
<text text-anchor="middle" x="149" y="-1232" font-family="Helvetica,sans-Serif" font-size="10.00"> </text>
</g>
<!-- Node5&#45;&gt;Node4 -->
<g id="edge4" class="edge"><title>Node5&#45;&gt;Node4</title>
<path fill="none" stroke="#404040" d="M160.555,-1224.62C164.385,-1213.55 168.883,-1200.56 173.598,-1186.94"/>
<polygon fill="none" stroke="#404040" points="173.674,-1186.72 171.857,-1179.74 177.6,-1175.38 179.417,-1182.36 173.674,-1186.72"/>
<text text-anchor="middle" x="206.5" y="-1197.5" font-family="Helvetica,sans-Serif" font-size="10.00"> #mpSystemInfo</text>
</g>
<!-- Node6 -->
<g id="node6" class="node"><title>Node6</title>
<g id="a_node6"><a xlink:href="classunsigned.html" target="_top" xlink:title="{unsigned\n||}">
<polygon fill="white" stroke="black" points="247,-1230.5 247,-1287.5 303,-1287.5 303,-1230.5 247,-1230.5"/>
<text text-anchor="middle" x="275" y="-1275.5" font-family="Helvetica,sans-Serif" font-size="10.00">unsigned</text>
<polyline fill="none" stroke="black" points="247,-1268.5 303,-1268.5 "/>
<text text-anchor="middle" x="275" y="-1256.5" font-family="Helvetica,sans-Serif" font-size="10.00"> </text>
<polyline fill="none" stroke="black" points="247,-1249.5 303,-1249.5 "/>
<text text-anchor="middle" x="275" y="-1237.5" font-family="Helvetica,sans-Serif" font-size="10.00"> </text>
</a>
</g>
</g>
<!-- Node6&#45;&gt;Node4 -->
<g id="edge5" class="edge"><title>Node6&#45;&gt;Node4</title>
<path fill="none" stroke="#404040" d="M265.432,-1230.36C261.221,-1218.2 255.973,-1203.03 250.424,-1187"/>
<polygon fill="none" stroke="#404040" points="250.265,-1186.54 244.523,-1182.18 246.34,-1175.2 252.083,-1179.57 250.265,-1186.54"/>
<text text-anchor="middle" x="320" y="-1197.5" font-family="Helvetica,sans-Serif" font-size="10.00"> #mNumberOfStateVariables</text>
</g>
<!-- Node7 -->
<g id="node7" class="node"><title>Node7</title>
<polygon fill="white" stroke="#bfbfbf" points="298,-770.5 298,-827.5 388,-827.5 388,-770.5 298,-770.5"/>
<text text-anchor="middle" x="343" y="-815.5" font-family="Helvetica,sans-Serif" font-size="10.00">vector&lt; double &gt;</text>
<polyline fill="none" stroke="#bfbfbf" points="298,-808.5 388,-808.5 "/>
<text text-anchor="middle" x="343" y="-796.5" font-family="Helvetica,sans-Serif" font-size="10.00"> </text>
<polyline fill="none" stroke="#bfbfbf" points="298,-789.5 388,-789.5 "/>
<text text-anchor="middle" x="343" y="-777.5" font-family="Helvetica,sans-Serif" font-size="10.00"> </text>
</g>
<!-- Node7&#45;&gt;Node1 -->
<g id="edge12" class="edge"><title>Node7&#45;&gt;Node1</title>
<path fill="none" stroke="#404040" d="M344.495,-770.42C349.71,-681.405 369.6,-394.051 420,-162 422.651,-149.796 426.125,-136.98 429.822,-124.676"/>
<polygon fill="none" stroke="#404040" points="429.866,-124.537 427.82,-117.622 433.417,-113.074 435.462,-119.989 429.866,-124.537"/>
<text text-anchor="middle" x="448.5" y="-363.5" font-family="Helvetica,sans-Serif" font-size="10.00"> #mTemporaryStateVariables</text>
</g>
<!-- Node7&#45;&gt;Node3 -->
<g id="edge6" class="edge"><title>Node7&#45;&gt;Node3</title>
<path fill="none" stroke="#404040" d="M326.759,-770.456C308.157,-738.909 276.377,-685.013 246.437,-634.238"/>
<polygon fill="none" stroke="#404040" points="246.376,-634.134 239.882,-630.997 240.28,-623.797 246.774,-626.934 246.376,-634.134"/>
<text text-anchor="middle" x="303.5" y="-656" font-family="Helvetica,sans-Serif" font-size="10.00"> #mStateVariables</text>
<text text-anchor="middle" x="303.5" y="-645" font-family="Helvetica,sans-Serif" font-size="10.00">#mParameters</text>
</g>
<!-- Node8&#45;&gt;Node3 -->
<g id="edge7" class="edge"><title>Node8&#45;&gt;Node3</title>
<path fill="none" stroke="orange" d="M76.4586,-672.3C77.9143,-661.935 80.0331,-651.717 83,-642 84.8758,-635.857 87.1329,-629.736 89.6877,-623.682"/>
<polygon fill="orange" stroke="orange" points="72.9786,-671.925 75.2601,-682.271 79.9286,-672.76 72.9786,-671.925"/>
<text text-anchor="middle" x="140.5" y="-650.5" font-family="Helvetica,sans-Serif" font-size="10.00"> &lt; std::vector&lt; double &gt; &gt;</text>
</g>
<!-- Node9 -->
<g id="node9" class="node"><title>Node9</title>
<polygon fill="white" stroke="#bfbfbf" points="41.5,-1046.5 41.5,-1103.5 100.5,-1103.5 100.5,-1046.5 41.5,-1046.5"/>
<text text-anchor="middle" x="71" y="-1091.5" font-family="Helvetica,sans-Serif" font-size="10.00">VECTOR</text>
<polyline fill="none" stroke="#bfbfbf" points="41.5,-1084.5 100.5,-1084.5 "/>
<text text-anchor="middle" x="71" y="-1072.5" font-family="Helvetica,sans-Serif" font-size="10.00"> </text>
<polyline fill="none" stroke="#bfbfbf" points="41.5,-1065.5 100.5,-1065.5 "/>
<text text-anchor="middle" x="71" y="-1053.5" font-family="Helvetica,sans-Serif" font-size="10.00"> </text>
</g>
<!-- Node9&#45;&gt;Node8 -->
<g id="edge9" class="edge"><title>Node9&#45;&gt;Node8</title>
<path fill="none" stroke="#404040" d="M72.1051,-1046.47C73.2355,-1018.32 75.0746,-972.506 76.8624,-927.973"/>
<polygon fill="none" stroke="#404040" points="76.8708,-927.762 73.1147,-921.606 77.3522,-915.771 81.1083,-921.927 76.8708,-927.762"/>
<text text-anchor="middle" x="117.5" y="-948" font-family="Helvetica,sans-Serif" font-size="10.00"> #mStateVariables</text>
<text text-anchor="middle" x="117.5" y="-937" font-family="Helvetica,sans-Serif" font-size="10.00">#mParameters</text>
</g>
<!-- Node10 -->
<g id="node10" class="node"><title>Node10</title>
<g id="a_node10"><a xlink:href="classbool.html" target="_top" xlink:title="{bool\n||}">
<polygon fill="white" stroke="black" points="272.5,-478.5 272.5,-535.5 307.5,-535.5 307.5,-478.5 272.5,-478.5"/>
<text text-anchor="middle" x="290" y="-523.5" font-family="Helvetica,sans-Serif" font-size="10.00">bool</text>
<polyline fill="none" stroke="black" points="272.5,-516.5 307.5,-516.5 "/>
<text text-anchor="middle" x="290" y="-504.5" font-family="Helvetica,sans-Serif" font-size="10.00"> </text>
<polyline fill="none" stroke="black" points="272.5,-497.5 307.5,-497.5 "/>
<text text-anchor="middle" x="290" y="-485.5" font-family="Helvetica,sans-Serif" font-size="10.00"> </text>
</a>
</g>
</g>
<!-- Node10&#45;&gt;Node2 -->
<g id="edge10" class="edge"><title>Node10&#45;&gt;Node2</title>
<path fill="none" stroke="#404040" d="M284.729,-478.412C279.844,-451.41 272.906,-409.05 270,-372 269.113,-360.688 268.56,-348.752 268.239,-336.981"/>
<polygon fill="none" stroke="#404040" points="268.236,-336.805 264.111,-330.89 267.985,-324.807 272.109,-330.722 268.236,-336.805"/>
<text text-anchor="middle" x="324.5" y="-363.5" font-family="Helvetica,sans-Serif" font-size="10.00"> #mUseAnalyticJacobian</text>
</g>
<!-- Node11 -->
<g id="node11" class="node"><title>Node11</title>
<g id="a_node11"><a xlink:href="classAbstractContractionModel.html" target="_top" xlink:title="{AbstractContractionModel\n||+ AbstractContractionModel()\l+ ~AbstractContractionModel()\l+ IsStretchDependent()\l+ IsStretchRateDependent()\l+ SetInputParameters()\l+ SetStretchAndStretchRate()\l+ SetStretch()\l+ RunDoNotUpdate()\l+ RunAndUpdate()\l+ UpdateStateVariables()\l+ GetActiveTension()\l+ GetNextActiveTension()\l}">
<polygon fill="white" stroke="black" points="429.5,-163 429.5,-341 580.5,-341 580.5,-163 429.5,-163"/>
<text text-anchor="middle" x="505" y="-329" font-family="Helvetica,sans-Serif" font-size="10.00">AbstractContractionModel</text>
<polyline fill="none" stroke="black" points="429.5,-322 580.5,-322 "/>
<text text-anchor="middle" x="505" y="-310" font-family="Helvetica,sans-Serif" font-size="10.00"> </text>
<polyline fill="none" stroke="black" points="429.5,-303 580.5,-303 "/>
<text text-anchor="start" x="437.5" y="-291" font-family="Helvetica,sans-Serif" font-size="10.00">+ AbstractContractionModel()</text>
<text text-anchor="start" x="437.5" y="-280" font-family="Helvetica,sans-Serif" font-size="10.00">+ ~AbstractContractionModel()</text>
<text text-anchor="start" x="437.5" y="-269" font-family="Helvetica,sans-Serif" font-size="10.00">+ IsStretchDependent()</text>
<text text-anchor="start" x="437.5" y="-258" font-family="Helvetica,sans-Serif" font-size="10.00">+ IsStretchRateDependent()</text>
<text text-anchor="start" x="437.5" y="-247" font-family="Helvetica,sans-Serif" font-size="10.00">+ SetInputParameters()</text>
<text text-anchor="start" x="437.5" y="-236" font-family="Helvetica,sans-Serif" font-size="10.00">+ SetStretchAndStretchRate()</text>
<text text-anchor="start" x="437.5" y="-225" font-family="Helvetica,sans-Serif" font-size="10.00">+ SetStretch()</text>
<text text-anchor="start" x="437.5" y="-214" font-family="Helvetica,sans-Serif" font-size="10.00">+ RunDoNotUpdate()</text>
<text text-anchor="start" x="437.5" y="-203" font-family="Helvetica,sans-Serif" font-size="10.00">+ RunAndUpdate()</text>
<text text-anchor="start" x="437.5" y="-192" font-family="Helvetica,sans-Serif" font-size="10.00">+ UpdateStateVariables()</text>
<text text-anchor="start" x="437.5" y="-181" font-family="Helvetica,sans-Serif" font-size="10.00">+ GetActiveTension()</text>
<text text-anchor="start" x="437.5" y="-170" font-family="Helvetica,sans-Serif" font-size="10.00">+ GetNextActiveTension()</text>
</a>
</g>
</g>
<!-- Node11&#45;&gt;Node1 -->
<g id="edge11" class="edge"><title>Node11&#45;&gt;Node1</title>
<path fill="none" stroke="midnightblue" d="M478.592,-152.986C474.894,-139.26 471.207,-125.576 467.83,-113.043"/>
<polygon fill="none" stroke="midnightblue" points="475.301,-154.227 481.283,-162.972 482.06,-152.406 475.301,-154.227"/>
</g>
<!-- Node12 -->
<g id="node12" class="node"><title>Node12</title>
<g id="a_node12"><a xlink:href="classdouble.html" target="_top" xlink:title="{double\n||}">
<polygon fill="white" stroke="black" points="598.5,-223.5 598.5,-280.5 643.5,-280.5 643.5,-223.5 598.5,-223.5"/>
<text text-anchor="middle" x="621" y="-268.5" font-family="Helvetica,sans-Serif" font-size="10.00">double</text>
<polyline fill="none" stroke="black" points="598.5,-261.5 643.5,-261.5 "/>
<text text-anchor="middle" x="621" y="-249.5" font-family="Helvetica,sans-Serif" font-size="10.00"> </text>
<polyline fill="none" stroke="black" points="598.5,-242.5 643.5,-242.5 "/>
<text text-anchor="middle" x="621" y="-230.5" font-family="Helvetica,sans-Serif" font-size="10.00"> </text>
</a>
</g>
</g>
<!-- Node12&#45;&gt;Node1 -->
<g id="edge13" class="edge"><title>Node12&#45;&gt;Node1</title>
<path fill="none" stroke="#404040" d="M615.398,-223.361C610.632,-204.722 602.378,-180.289 589,-162 576.044,-144.288 559.25,-128.143 541.909,-114.133"/>
<polygon fill="none" stroke="#404040" points="541.693,-113.965 534.503,-113.42 532.239,-106.574 539.43,-107.118 541.693,-113.965"/>
<text text-anchor="middle" x="591.5" y="-135.5" font-family="Helvetica,sans-Serif" font-size="10.00"> #mTime</text>
</g>
</g>
</svg>
