<?xml version="1.0" encoding="UTF-8" standalone="no"?>
<!DOCTYPE svg PUBLIC "-//W3C//DTD SVG 1.1//EN"
 "http://www.w3.org/Graphics/SVG/1.1/DTD/svg11.dtd">
<!-- Generated by graphviz version 2.36.0 (20140111.2315)
 -->
<!-- Title: AbstractOutputModifier Pages: 1 -->
<svg width="169pt" height="238pt"
 viewBox="0.00 0.00 169.00 238.00" xmlns="http://www.w3.org/2000/svg" xmlns:xlink="http://www.w3.org/1999/xlink">
<g id="graph0" class="graph" transform="scale(1 1) rotate(0) translate(4 234)">
<title>AbstractOutputModifier</title>
<polygon fill="white" stroke="none" points="-4,4 -4,-234 165,-234 165,4 -4,4"/>
<!-- Node1 -->
<g id="node1" class="node"><title>Node1</title>
<polygon fill="#bfbfbf" stroke="black" points="-0.5,-0.5 -0.5,-123.5 154.5,-123.5 154.5,-0.5 -0.5,-0.5"/>
<text text-anchor="middle" x="77" y="-111.5" font-family="Helvetica,sans-Serif" font-size="10.00">AbstractOutputModifier</text>
<polyline fill="none" stroke="black" points="-0.5,-104.5 154.5,-104.5 "/>
<text text-anchor="middle" x="77" y="-92.5" font-family="Helvetica,sans-Serif" font-size="10.00"> </text>
<polyline fill="none" stroke="black" points="-0.5,-85.5 154.5,-85.5 "/>
<text text-anchor="start" x="7.5" y="-73.5" font-family="Helvetica,sans-Serif" font-size="10.00">+ AbstractOutputModifier()</text>
<text text-anchor="start" x="7.5" y="-62.5" font-family="Helvetica,sans-Serif" font-size="10.00">+ ~AbstractOutputModifier()</text>
<text text-anchor="start" x="7.5" y="-51.5" font-family="Helvetica,sans-Serif" font-size="10.00">+ InitialiseAtStart()</text>
<text text-anchor="start" x="7.5" y="-40.5" font-family="Helvetica,sans-Serif" font-size="10.00">+ FinaliseAtEnd()</text>
<text text-anchor="start" x="7.5" y="-29.5" font-family="Helvetica,sans-Serif" font-size="10.00">+ ProcessSolutionAtTimeStep()</text>
<text text-anchor="start" x="7.5" y="-18.5" font-family="Helvetica,sans-Serif" font-size="10.00"># AbstractOutputModifier()</text>
<text text-anchor="start" x="7.5" y="-7.5" font-family="Helvetica,sans-Serif" font-size="10.00">&#45; serialize()</text>
</g>
<!-- Node2 -->
<g id="node2" class="node"><title>Node2</title>
<g id="a_node2"><a xlink:href="classdouble.html" target="_top" xlink:title="{double\n||}">
<polygon fill="white" stroke="black" points="11.5,-172.5 11.5,-229.5 56.5,-229.5 56.5,-172.5 11.5,-172.5"/>
<text text-anchor="middle" x="34" y="-217.5" font-family="Helvetica,sans-Serif" font-size="10.00">double</text>
<polyline fill="none" stroke="black" points="11.5,-210.5 56.5,-210.5 "/>
<text text-anchor="middle" x="34" y="-198.5" font-family="Helvetica,sans-Serif" font-size="10.00"> </text>
<polyline fill="none" stroke="black" points="11.5,-191.5 56.5,-191.5 "/>
<text text-anchor="middle" x="34" y="-179.5" font-family="Helvetica,sans-Serif" font-size="10.00"> </text>
</a>
</g>
</g>
<!-- Node2&#45;&gt;Node1 -->
<g id="edge1" class="edge"><title>Node2&#45;&gt;Node1</title>
<path fill="none" stroke="#404040" d="M31.8538,-172.498C31.7758,-162.734 32.4797,-151.75 35,-142 35.5977,-139.688 36.275,-137.368 37.0204,-135.051"/>
<polygon fill="none" stroke="#404040" points="37.1178,-134.786 35.4343,-127.774 41.2592,-123.523 42.9428,-130.535 37.1178,-134.786"/>
<text text-anchor="middle" x="66.5" y="-145.5" font-family="Helvetica,sans-Serif" font-size="10.00"> #mFlushTime</text>
</g>
<!-- Node3 -->
<g id="node3" class="node"><title>Node3</title>
<polygon fill="white" stroke="#bfbfbf" points="99.5,-172.5 99.5,-229.5 140.5,-229.5 140.5,-172.5 99.5,-172.5"/>
<text text-anchor="middle" x="120" y="-217.5" font-family="Helvetica,sans-Serif" font-size="10.00">string</text>
<polyline fill="none" stroke="#bfbfbf" points="99.5,-210.5 140.5,-210.5 "/>
<text text-anchor="middle" x="120" y="-198.5" font-family="Helvetica,sans-Serif" font-size="10.00"> </text>
<polyline fill="none" stroke="#bfbfbf" points="99.5,-191.5 140.5,-191.5 "/>
<text text-anchor="middle" x="120" y="-179.5" font-family="Helvetica,sans-Serif" font-size="10.00"> </text>
</g>
<!-- Node3&#45;&gt;Node1 -->
<g id="edge2" class="edge"><title>Node3&#45;&gt;Node1</title>
<path fill="none" stroke="#404040" d="M111.298,-172.276C107.882,-161.391 103.787,-148.346 99.6364,-135.121"/>
<polygon fill="none" stroke="#404040" points="99.5831,-134.951 93.9699,-130.424 95.9895,-123.501 101.603,-128.028 99.5831,-134.951"/>
<text text-anchor="middle" x="132.5" y="-145.5" font-family="Helvetica,sans-Serif" font-size="10.00"> #mFilename</text>
</g>
</g>
</svg>
