<?xml version="1.0" encoding="UTF-8" standalone="no"?>
<!DOCTYPE svg PUBLIC "-//W3C//DTD SVG 1.1//EN"
 "http://www.w3.org/Graphics/SVG/1.1/DTD/svg11.dtd">
<!-- Generated by graphviz version 2.36.0 (20140111.2315)
 -->
<!-- Title: Alarcon2004OxygenBasedCellCycleModel Pages: 1 -->
<svg width="1126pt" height="1888pt"
 viewBox="0.00 0.00 1126.34 1888.00" xmlns="http://www.w3.org/2000/svg" xmlns:xlink="http://www.w3.org/1999/xlink">
<g id="graph0" class="graph" transform="scale(1 1) rotate(0) translate(4 1884)">
<title>Alarcon2004OxygenBasedCellCycleModel</title>
<polygon fill="white" stroke="none" points="-4,4 -4,-1884 1122.34,-1884 1122.34,4 -4,4"/>
<!-- Node1 -->
<g id="node1" class="node"><title>Node1</title>
<polygon fill="#bfbfbf" stroke="black" points="127.338,-0.5 127.338,-167.5 307.338,-167.5 307.338,-0.5 127.338,-0.5"/>
<text text-anchor="start" x="135.338" y="-155.5" font-family="Helvetica,sans-Serif" font-size="10.00">Alarcon2004OxygenBasedCell</text>
<text text-anchor="middle" x="217.338" y="-144.5" font-family="Helvetica,sans-Serif" font-size="10.00">CycleModel</text>
<polyline fill="none" stroke="black" points="127.338,-137.5 307.338,-137.5 "/>
<text text-anchor="middle" x="217.338" y="-125.5" font-family="Helvetica,sans-Serif" font-size="10.00"> </text>
<polyline fill="none" stroke="black" points="127.338,-118.5 307.338,-118.5 "/>
<text text-anchor="start" x="135.338" y="-106.5" font-family="Helvetica,sans-Serif" font-size="10.00">+ Alarcon2004OxygenBasedCell</text>
<text text-anchor="start" x="135.338" y="-95.5" font-family="Helvetica,sans-Serif" font-size="10.00">CycleModel()</text>
<text text-anchor="start" x="135.338" y="-84.5" font-family="Helvetica,sans-Serif" font-size="10.00">+ ResetForDivision()</text>
<text text-anchor="start" x="135.338" y="-73.5" font-family="Helvetica,sans-Serif" font-size="10.00">+ CreateCellCycleModel()</text>
<text text-anchor="start" x="135.338" y="-62.5" font-family="Helvetica,sans-Serif" font-size="10.00">+ Initialise()</text>
<text text-anchor="start" x="135.338" y="-51.5" font-family="Helvetica,sans-Serif" font-size="10.00">+ OutputCellCycleModelParameters()</text>
<text text-anchor="start" x="135.338" y="-40.5" font-family="Helvetica,sans-Serif" font-size="10.00"># Alarcon2004OxygenBasedCell</text>
<text text-anchor="start" x="135.338" y="-29.5" font-family="Helvetica,sans-Serif" font-size="10.00">CycleModel()</text>
<text text-anchor="start" x="135.338" y="-18.5" font-family="Helvetica,sans-Serif" font-size="10.00">&#45; serialize()</text>
<text text-anchor="start" x="135.338" y="-7.5" font-family="Helvetica,sans-Serif" font-size="10.00">&#45; AdjustOdeParameters()</text>
</g>
<!-- Node2 -->
<g id="node2" class="node"><title>Node2</title>
<g id="a_node2"><a xlink:href="classAbstractOdeBasedPhaseBasedCellCycleModel.html" target="_top" xlink:title="{AbstractOdeBasedPhaseBased\lCellCycleModel\n||+ AbstractOdeBasedPhaseBased\lCellCycleModel()\l+ ~AbstractOdeBasedPhaseBased\lCellCycleModel()\l+ UpdateCellCyclePhase()\l+ GetOdeStopTime()\l+ SetBirthTime()\l+ ResetForDivision()\l+ OutputCellCycleModelParameters()\l# AbstractOdeBasedPhaseBased\lCellCycleModel()\l&#45; serialize()\l}">
<polygon fill="white" stroke="black" points="127.338,-206.5 127.338,-395.5 307.338,-395.5 307.338,-206.5 127.338,-206.5"/>
<text text-anchor="start" x="135.338" y="-383.5" font-family="Helvetica,sans-Serif" font-size="10.00">AbstractOdeBasedPhaseBased</text>
<text text-anchor="middle" x="217.338" y="-372.5" font-family="Helvetica,sans-Serif" font-size="10.00">CellCycleModel</text>
<polyline fill="none" stroke="black" points="127.338,-365.5 307.338,-365.5 "/>
<text text-anchor="middle" x="217.338" y="-353.5" font-family="Helvetica,sans-Serif" font-size="10.00"> </text>
<polyline fill="none" stroke="black" points="127.338,-346.5 307.338,-346.5 "/>
<text text-anchor="start" x="135.338" y="-334.5" font-family="Helvetica,sans-Serif" font-size="10.00">+ AbstractOdeBasedPhaseBased</text>
<text text-anchor="start" x="135.338" y="-323.5" font-family="Helvetica,sans-Serif" font-size="10.00">CellCycleModel()</text>
<text text-anchor="start" x="135.338" y="-312.5" font-family="Helvetica,sans-Serif" font-size="10.00">+ ~AbstractOdeBasedPhaseBased</text>
<text text-anchor="start" x="135.338" y="-301.5" font-family="Helvetica,sans-Serif" font-size="10.00">CellCycleModel()</text>
<text text-anchor="start" x="135.338" y="-290.5" font-family="Helvetica,sans-Serif" font-size="10.00">+ UpdateCellCyclePhase()</text>
<text text-anchor="start" x="135.338" y="-279.5" font-family="Helvetica,sans-Serif" font-size="10.00">+ GetOdeStopTime()</text>
<text text-anchor="start" x="135.338" y="-268.5" font-family="Helvetica,sans-Serif" font-size="10.00">+ SetBirthTime()</text>
<text text-anchor="start" x="135.338" y="-257.5" font-family="Helvetica,sans-Serif" font-size="10.00">+ ResetForDivision()</text>
<text text-anchor="start" x="135.338" y="-246.5" font-family="Helvetica,sans-Serif" font-size="10.00">+ OutputCellCycleModelParameters()</text>
<text text-anchor="start" x="135.338" y="-235.5" font-family="Helvetica,sans-Serif" font-size="10.00"># AbstractOdeBasedPhaseBased</text>
<text text-anchor="start" x="135.338" y="-224.5" font-family="Helvetica,sans-Serif" font-size="10.00">CellCycleModel()</text>
<text text-anchor="start" x="135.338" y="-213.5" font-family="Helvetica,sans-Serif" font-size="10.00">&#45; serialize()</text>
</a>
</g>
</g>
<!-- Node2&#45;&gt;Node1 -->
<g id="edge1" class="edge"><title>Node2&#45;&gt;Node1</title>
<path fill="none" stroke="midnightblue" d="M217.338,-196.305C217.338,-186.665 217.338,-176.984 217.338,-167.572"/>
<polygon fill="none" stroke="midnightblue" points="213.838,-196.323 217.338,-206.323 220.838,-196.323 213.838,-196.323"/>
</g>
<!-- Node3 -->
<g id="node3" class="node"><title>Node3</title>
<g id="a_node3"><a xlink:href="classAbstractPhaseBasedCellCycleModel.html" target="_top" xlink:title="{AbstractPhaseBasedCellCycle\lModel\n||+ AbstractPhaseBasedCellCycle\lModel()\l+ ~AbstractPhaseBasedCellCycle\lModel()\l+ ReadyToDivide()\l+ ResetForDivision()\l+ UpdateCellCyclePhase()\l+ GetCurrentCellCyclePhase()\l+ GetG1Duration()\l+ GetStemCellG1Duration()\l+ GetTransitCellG1Duration()\l+ GetSG2MDuration()\land 13 more...\l# AbstractPhaseBasedCellCycle\lModel()\l&#45; serialize()\l}">
<polygon fill="white" stroke="black" points="133.838,-434.5 133.838,-667.5 300.838,-667.5 300.838,-434.5 133.838,-434.5"/>
<text text-anchor="start" x="141.838" y="-655.5" font-family="Helvetica,sans-Serif" font-size="10.00">AbstractPhaseBasedCellCycle</text>
<text text-anchor="middle" x="217.338" y="-644.5" font-family="Helvetica,sans-Serif" font-size="10.00">Model</text>
<polyline fill="none" stroke="black" points="133.838,-637.5 300.838,-637.5 "/>
<text text-anchor="middle" x="217.338" y="-625.5" font-family="Helvetica,sans-Serif" font-size="10.00"> </text>
<polyline fill="none" stroke="black" points="133.838,-618.5 300.838,-618.5 "/>
<text text-anchor="start" x="141.838" y="-606.5" font-family="Helvetica,sans-Serif" font-size="10.00">+ AbstractPhaseBasedCellCycle</text>
<text text-anchor="start" x="141.838" y="-595.5" font-family="Helvetica,sans-Serif" font-size="10.00">Model()</text>
<text text-anchor="start" x="141.838" y="-584.5" font-family="Helvetica,sans-Serif" font-size="10.00">+ ~AbstractPhaseBasedCellCycle</text>
<text text-anchor="start" x="141.838" y="-573.5" font-family="Helvetica,sans-Serif" font-size="10.00">Model()</text>
<text text-anchor="start" x="141.838" y="-562.5" font-family="Helvetica,sans-Serif" font-size="10.00">+ ReadyToDivide()</text>
<text text-anchor="start" x="141.838" y="-551.5" font-family="Helvetica,sans-Serif" font-size="10.00">+ ResetForDivision()</text>
<text text-anchor="start" x="141.838" y="-540.5" font-family="Helvetica,sans-Serif" font-size="10.00">+ UpdateCellCyclePhase()</text>
<text text-anchor="start" x="141.838" y="-529.5" font-family="Helvetica,sans-Serif" font-size="10.00">+ GetCurrentCellCyclePhase()</text>
<text text-anchor="start" x="141.838" y="-518.5" font-family="Helvetica,sans-Serif" font-size="10.00">+ GetG1Duration()</text>
<text text-anchor="start" x="141.838" y="-507.5" font-family="Helvetica,sans-Serif" font-size="10.00">+ GetStemCellG1Duration()</text>
<text text-anchor="start" x="141.838" y="-496.5" font-family="Helvetica,sans-Serif" font-size="10.00">+ GetTransitCellG1Duration()</text>
<text text-anchor="start" x="141.838" y="-485.5" font-family="Helvetica,sans-Serif" font-size="10.00">+ GetSG2MDuration()</text>
<text text-anchor="start" x="141.838" y="-474.5" font-family="Helvetica,sans-Serif" font-size="10.00">and 13 more...</text>
<text text-anchor="start" x="141.838" y="-463.5" font-family="Helvetica,sans-Serif" font-size="10.00"># AbstractPhaseBasedCellCycle</text>
<text text-anchor="start" x="141.838" y="-452.5" font-family="Helvetica,sans-Serif" font-size="10.00">Model()</text>
<text text-anchor="start" x="141.838" y="-441.5" font-family="Helvetica,sans-Serif" font-size="10.00">&#45; serialize()</text>
</a>
</g>
</g>
<!-- Node3&#45;&gt;Node2 -->
<g id="edge2" class="edge"><title>Node3&#45;&gt;Node2</title>
<path fill="none" stroke="midnightblue" d="M217.338,-424.275C217.338,-414.603 217.338,-404.945 217.338,-395.537"/>
<polygon fill="none" stroke="midnightblue" points="213.838,-424.35 217.338,-434.35 220.838,-424.35 213.838,-424.35"/>
</g>
<!-- Node4 -->
<g id="node4" class="node"><title>Node4</title>
<g id="a_node4"><a xlink:href="classAbstractCellCycleModel.html" target="_top" xlink:title="{AbstractCellCycleModel\n||+ AbstractCellCycleModel()\l+ ~AbstractCellCycleModel()\l+ SetCell()\l+ Initialise()\l+ InitialiseDaughterCell()\l+ GetCell()\l+ SetBirthTime()\l+ SetDimension()\l+ GetDimension()\l+ GetBirthTime()\land 9 more...\l# AbstractCellCycleModel()\l&#45; serialize()\l&#45; operator=()\l}">
<polygon fill="white" stroke="black" points="450.838,-727 450.838,-927 593.838,-927 593.838,-727 450.838,-727"/>
<text text-anchor="middle" x="522.338" y="-915" font-family="Helvetica,sans-Serif" font-size="10.00">AbstractCellCycleModel</text>
<polyline fill="none" stroke="black" points="450.838,-908 593.838,-908 "/>
<text text-anchor="middle" x="522.338" y="-896" font-family="Helvetica,sans-Serif" font-size="10.00"> </text>
<polyline fill="none" stroke="black" points="450.838,-889 593.838,-889 "/>
<text text-anchor="start" x="458.838" y="-877" font-family="Helvetica,sans-Serif" font-size="10.00">+ AbstractCellCycleModel()</text>
<text text-anchor="start" x="458.838" y="-866" font-family="Helvetica,sans-Serif" font-size="10.00">+ ~AbstractCellCycleModel()</text>
<text text-anchor="start" x="458.838" y="-855" font-family="Helvetica,sans-Serif" font-size="10.00">+ SetCell()</text>
<text text-anchor="start" x="458.838" y="-844" font-family="Helvetica,sans-Serif" font-size="10.00">+ Initialise()</text>
<text text-anchor="start" x="458.838" y="-833" font-family="Helvetica,sans-Serif" font-size="10.00">+ InitialiseDaughterCell()</text>
<text text-anchor="start" x="458.838" y="-822" font-family="Helvetica,sans-Serif" font-size="10.00">+ GetCell()</text>
<text text-anchor="start" x="458.838" y="-811" font-family="Helvetica,sans-Serif" font-size="10.00">+ SetBirthTime()</text>
<text text-anchor="start" x="458.838" y="-800" font-family="Helvetica,sans-Serif" font-size="10.00">+ SetDimension()</text>
<text text-anchor="start" x="458.838" y="-789" font-family="Helvetica,sans-Serif" font-size="10.00">+ GetDimension()</text>
<text text-anchor="start" x="458.838" y="-778" font-family="Helvetica,sans-Serif" font-size="10.00">+ GetBirthTime()</text>
<text text-anchor="start" x="458.838" y="-767" font-family="Helvetica,sans-Serif" font-size="10.00">and 9 more...</text>
<text text-anchor="start" x="458.838" y="-756" font-family="Helvetica,sans-Serif" font-size="10.00"># AbstractCellCycleModel()</text>
<text text-anchor="start" x="458.838" y="-745" font-family="Helvetica,sans-Serif" font-size="10.00">&#45; serialize()</text>
<text text-anchor="start" x="458.838" y="-734" font-family="Helvetica,sans-Serif" font-size="10.00">&#45; operator=()</text>
</a>
</g>
</g>
<!-- Node4&#45;&gt;Node3 -->
<g id="edge3" class="edge"><title>Node4&#45;&gt;Node3</title>
<path fill="none" stroke="midnightblue" d="M443.523,-733.071C441.128,-730.663 438.731,-728.302 436.338,-726 394.164,-685.435 343.171,-644.507 301.006,-612.545"/>
<polygon fill="none" stroke="midnightblue" points="441.2,-735.702 450.688,-740.418 446.211,-730.815 441.2,-735.702"/>
</g>
<!-- Node5 -->
<g id="node5" class="node"><title>Node5</title>
<g id="a_node5"><a xlink:href="classIdentifiable.html" target="_top" xlink:title="{Identifiable\n||+ ~Identifiable()\l+ GetIdentifier()\l&#45; TidyTemplatedExportIdentifier()\l}">
<polygon fill="white" stroke="black" points="549.838,-1053.5 549.838,-1132.5 708.838,-1132.5 708.838,-1053.5 549.838,-1053.5"/>
<text text-anchor="middle" x="629.338" y="-1120.5" font-family="Helvetica,sans-Serif" font-size="10.00">Identifiable</text>
<polyline fill="none" stroke="black" points="549.838,-1113.5 708.838,-1113.5 "/>
<text text-anchor="middle" x="629.338" y="-1101.5" font-family="Helvetica,sans-Serif" font-size="10.00"> </text>
<polyline fill="none" stroke="black" points="549.838,-1094.5 708.838,-1094.5 "/>
<text text-anchor="start" x="557.838" y="-1082.5" font-family="Helvetica,sans-Serif" font-size="10.00">+ ~Identifiable()</text>
<text text-anchor="start" x="557.838" y="-1071.5" font-family="Helvetica,sans-Serif" font-size="10.00">+ GetIdentifier()</text>
<text text-anchor="start" x="557.838" y="-1060.5" font-family="Helvetica,sans-Serif" font-size="10.00">&#45; TidyTemplatedExportIdentifier()</text>
</a>
</g>
</g>
<!-- Node5&#45;&gt;Node4 -->
<g id="edge4" class="edge"><title>Node5&#45;&gt;Node4</title>
<path fill="none" stroke="midnightblue" d="M609.899,-1044.04C596.697,-1011.47 578.756,-967.201 562.552,-927.22"/>
<polygon fill="none" stroke="midnightblue" points="606.664,-1045.38 613.664,-1053.33 613.152,-1042.75 606.664,-1045.38"/>
</g>
<!-- Node6 -->
<g id="node6" class="node"><title>Node6</title>
<g id="a_node6"><a xlink:href="classdouble.html" target="_top" xlink:title="{double\n||}">
<polygon fill="white" stroke="black" points="199.838,-1064.5 199.838,-1121.5 244.838,-1121.5 244.838,-1064.5 199.838,-1064.5"/>
<text text-anchor="middle" x="222.338" y="-1109.5" font-family="Helvetica,sans-Serif" font-size="10.00">double</text>
<polyline fill="none" stroke="black" points="199.838,-1102.5 244.838,-1102.5 "/>
<text text-anchor="middle" x="222.338" y="-1090.5" font-family="Helvetica,sans-Serif" font-size="10.00"> </text>
<polyline fill="none" stroke="black" points="199.838,-1083.5 244.838,-1083.5 "/>
<text text-anchor="middle" x="222.338" y="-1071.5" font-family="Helvetica,sans-Serif" font-size="10.00"> </text>
</a>
</g>
</g>
<!-- Node6&#45;&gt;Node2 -->
<g id="edge25" class="edge"><title>Node6&#45;&gt;Node2</title>
<path fill="none" stroke="#404040" d="M199.834,-1072.85C137.356,-1017.26 -31.2985,-849.38 5.33764,-686 28.373,-583.273 88.3548,-479.511 138.661,-405.79"/>
<polygon fill="none" stroke="#404040" points="138.881,-405.471 138.992,-398.26 145.69,-395.59 145.579,-402.8 138.881,-405.471"/>
<text text-anchor="middle" x="55.3376" y="-700" font-family="Helvetica,sans-Serif" font-size="10.00"> #mG2PhaseStartTime</text>
<text text-anchor="middle" x="55.3376" y="-689" font-family="Helvetica,sans-Serif" font-size="10.00">#mDivideTime</text>
</g>
<!-- Node6&#45;&gt;Node3 -->
<g id="edge9" class="edge"><title>Node6&#45;&gt;Node3</title>
<path fill="none" stroke="#404040" d="M199.725,-1071.05C170.409,-1042.17 120.743,-986.987 101.338,-928 73.282,-842.719 75.3215,-811.926 101.338,-726 107.463,-705.77 116.801,-685.742 127.575,-666.871"/>
<polygon fill="none" stroke="#404040" points="127.591,-666.843 127.2,-659.643 133.697,-656.512 134.088,-663.713 127.591,-666.843"/>
<text text-anchor="middle" x="156.838" y="-857.5" font-family="Helvetica,sans-Serif" font-size="10.00"> #mSDuration</text>
<text text-anchor="middle" x="156.838" y="-846.5" font-family="Helvetica,sans-Serif" font-size="10.00">#mStemCellG1Duration</text>
<text text-anchor="middle" x="156.838" y="-835.5" font-family="Helvetica,sans-Serif" font-size="10.00">#mMDuration</text>
<text text-anchor="middle" x="156.838" y="-824.5" font-family="Helvetica,sans-Serif" font-size="10.00">#mMinimumGapDuration</text>
<text text-anchor="middle" x="156.838" y="-813.5" font-family="Helvetica,sans-Serif" font-size="10.00">#mTransitCellG1Duration</text>
<text text-anchor="middle" x="156.838" y="-802.5" font-family="Helvetica,sans-Serif" font-size="10.00">#mG2Duration</text>
<text text-anchor="middle" x="156.838" y="-791.5" font-family="Helvetica,sans-Serif" font-size="10.00">#mG1Duration</text>
</g>
<!-- Node6&#45;&gt;Node4 -->
<g id="edge5" class="edge"><title>Node6&#45;&gt;Node4</title>
<path fill="none" stroke="#404040" d="M245.089,-1071.1C278.192,-1041.28 342.257,-985.723 402.338,-946 416.6,-936.57 422.975,-938.667 436.338,-928 437.999,-926.674 439.652,-925.313 441.297,-923.921"/>
<polygon fill="none" stroke="#404040" points="441.64,-923.615 443.463,-916.638 450.605,-915.638 448.781,-922.615 441.64,-923.615"/>
<text text-anchor="middle" x="431.838" y="-949.5" font-family="Helvetica,sans-Serif" font-size="10.00"> #mBirthTime</text>
</g>
<!-- Node11 -->
<g id="node11" class="node"><title>Node11</title>
<g id="a_node11"><a xlink:href="classCellCycleModelOdeHandler.html" target="_top" xlink:title="{CellCycleModelOdeHandler\n||+ CellCycleModelOdeHandler()\l+ ~CellCycleModelOdeHandler()\l+ GetOdeSystem()\l+ SetOdeSystem()\l+ GetOdeSolver()\l+ SetLastTime()\l+ GetDt()\l+ SetDt()\l+ SetStateVariables()\l+ GetProteinConcentrations()\l+ SetProteinConcentrations\lForTestsOnly()\l# CellCycleModelOdeHandler()\l# SolveOdeToTime()\l# AdjustOdeParameters()\l&#45; serialize()\l&#45; operator=()\l}">
<polygon fill="white" stroke="black" points="655.338,-434.5 655.338,-667.5 813.338,-667.5 813.338,-434.5 655.338,-434.5"/>
<text text-anchor="middle" x="734.338" y="-655.5" font-family="Helvetica,sans-Serif" font-size="10.00">CellCycleModelOdeHandler</text>
<polyline fill="none" stroke="black" points="655.338,-648.5 813.338,-648.5 "/>
<text text-anchor="middle" x="734.338" y="-636.5" font-family="Helvetica,sans-Serif" font-size="10.00"> </text>
<polyline fill="none" stroke="black" points="655.338,-629.5 813.338,-629.5 "/>
<text text-anchor="start" x="663.338" y="-617.5" font-family="Helvetica,sans-Serif" font-size="10.00">+ CellCycleModelOdeHandler()</text>
<text text-anchor="start" x="663.338" y="-606.5" font-family="Helvetica,sans-Serif" font-size="10.00">+ ~CellCycleModelOdeHandler()</text>
<text text-anchor="start" x="663.338" y="-595.5" font-family="Helvetica,sans-Serif" font-size="10.00">+ GetOdeSystem()</text>
<text text-anchor="start" x="663.338" y="-584.5" font-family="Helvetica,sans-Serif" font-size="10.00">+ SetOdeSystem()</text>
<text text-anchor="start" x="663.338" y="-573.5" font-family="Helvetica,sans-Serif" font-size="10.00">+ GetOdeSolver()</text>
<text text-anchor="start" x="663.338" y="-562.5" font-family="Helvetica,sans-Serif" font-size="10.00">+ SetLastTime()</text>
<text text-anchor="start" x="663.338" y="-551.5" font-family="Helvetica,sans-Serif" font-size="10.00">+ GetDt()</text>
<text text-anchor="start" x="663.338" y="-540.5" font-family="Helvetica,sans-Serif" font-size="10.00">+ SetDt()</text>
<text text-anchor="start" x="663.338" y="-529.5" font-family="Helvetica,sans-Serif" font-size="10.00">+ SetStateVariables()</text>
<text text-anchor="start" x="663.338" y="-518.5" font-family="Helvetica,sans-Serif" font-size="10.00">+ GetProteinConcentrations()</text>
<text text-anchor="start" x="663.338" y="-507.5" font-family="Helvetica,sans-Serif" font-size="10.00">+ SetProteinConcentrations</text>
<text text-anchor="start" x="663.338" y="-496.5" font-family="Helvetica,sans-Serif" font-size="10.00">ForTestsOnly()</text>
<text text-anchor="start" x="663.338" y="-485.5" font-family="Helvetica,sans-Serif" font-size="10.00"># CellCycleModelOdeHandler()</text>
<text text-anchor="start" x="663.338" y="-474.5" font-family="Helvetica,sans-Serif" font-size="10.00"># SolveOdeToTime()</text>
<text text-anchor="start" x="663.338" y="-463.5" font-family="Helvetica,sans-Serif" font-size="10.00"># AdjustOdeParameters()</text>
<text text-anchor="start" x="663.338" y="-452.5" font-family="Helvetica,sans-Serif" font-size="10.00">&#45; serialize()</text>
<text text-anchor="start" x="663.338" y="-441.5" font-family="Helvetica,sans-Serif" font-size="10.00">&#45; operator=()</text>
</a>
</g>
</g>
<!-- Node6&#45;&gt;Node11 -->
<g id="edge12" class="edge"><title>Node6&#45;&gt;Node11</title>
<path fill="none" stroke="#404040" d="M244.965,-1070.16C274.013,-1040.73 323.712,-985.377 349.338,-928 386.558,-844.663 331.527,-798.981 386.338,-726 449.068,-642.474 562.999,-596.366 643.382,-572.949"/>
<polygon fill="none" stroke="#404040" points="643.444,-572.931 648.124,-567.446 654.988,-569.656 650.308,-575.142 643.444,-572.931"/>
<text text-anchor="middle" x="413.838" y="-830" font-family="Helvetica,sans-Serif" font-size="10.00"> #mDt</text>
<text text-anchor="middle" x="413.838" y="-819" font-family="Helvetica,sans-Serif" font-size="10.00">#mLastTime</text>
</g>
<!-- Node7 -->
<g id="node7" class="node"><title>Node7</title>
<polygon fill="white" stroke="#bfbfbf" points="396.338,-1064.5 396.338,-1121.5 494.338,-1121.5 494.338,-1064.5 396.338,-1064.5"/>
<text text-anchor="middle" x="445.338" y="-1109.5" font-family="Helvetica,sans-Serif" font-size="10.00">shared_ptr&lt; Cell &gt;</text>
<polyline fill="none" stroke="#bfbfbf" points="396.338,-1102.5 494.338,-1102.5 "/>
<text text-anchor="middle" x="445.338" y="-1090.5" font-family="Helvetica,sans-Serif" font-size="10.00"> </text>
<polyline fill="none" stroke="#bfbfbf" points="396.338,-1083.5 494.338,-1083.5 "/>
<text text-anchor="middle" x="445.338" y="-1071.5" font-family="Helvetica,sans-Serif" font-size="10.00"> </text>
</g>
<!-- Node7&#45;&gt;Node4 -->
<g id="edge6" class="edge"><title>Node7&#45;&gt;Node4</title>
<path fill="none" stroke="#404040" d="M447.435,-1064.32C450.208,-1034.58 456.232,-986.169 468.338,-946 469.074,-943.556 469.851,-941.098 470.664,-938.631"/>
<polygon fill="none" stroke="#404040" points="470.753,-938.375 468.953,-931.392 474.706,-927.045 476.506,-934.027 470.753,-938.375"/>
<text text-anchor="middle" x="488.338" y="-949.5" font-family="Helvetica,sans-Serif" font-size="10.00"> #mpCell</text>
</g>
<!-- Node8 -->
<g id="node8" class="node"><title>Node8</title>
<g id="a_node8"><a xlink:href="classbool.html" target="_top" xlink:title="{bool\n||}">
<polygon fill="white" stroke="black" points="726.838,-1064.5 726.838,-1121.5 761.838,-1121.5 761.838,-1064.5 726.838,-1064.5"/>
<text text-anchor="middle" x="744.338" y="-1109.5" font-family="Helvetica,sans-Serif" font-size="10.00">bool</text>
<polyline fill="none" stroke="black" points="726.838,-1102.5 761.838,-1102.5 "/>
<text text-anchor="middle" x="744.338" y="-1090.5" font-family="Helvetica,sans-Serif" font-size="10.00"> </text>
<polyline fill="none" stroke="black" points="726.838,-1083.5 761.838,-1083.5 "/>
<text text-anchor="middle" x="744.338" y="-1071.5" font-family="Helvetica,sans-Serif" font-size="10.00"> </text>
</a>
</g>
</g>
<!-- Node8&#45;&gt;Node4 -->
<g id="edge7" class="edge"><title>Node8&#45;&gt;Node4</title>
<path fill="none" stroke="#404040" d="M745.845,-1064.48C745.697,-1038.03 741.017,-998.807 717.338,-976 687.015,-946.794 660.266,-979.946 624.338,-958 614.147,-951.775 604.574,-944.138 595.687,-935.712"/>
<polygon fill="none" stroke="#404040" points="595.511,-935.536 588.441,-934.118 587.031,-927.046 594.101,-928.464 595.511,-935.536"/>
<text text-anchor="middle" x="666.838" y="-949.5" font-family="Helvetica,sans-Serif" font-size="10.00"> #mReadyToDivide</text>
</g>
<!-- Node8&#45;&gt;Node11 -->
<g id="edge23" class="edge"><title>Node8&#45;&gt;Node11</title>
<path fill="none" stroke="#404040" d="M743.462,-1064.09C744.174,-1038.1 749.347,-999.88 771.338,-976 789.047,-956.769 811.938,-979.126 827.338,-958 898.657,-860.163 847.235,-801.934 812.338,-686 811.654,-683.729 810.925,-681.455 810.154,-679.181"/>
<polygon fill="none" stroke="#404040" points="810.121,-679.092 804.294,-674.844 805.975,-667.831 811.802,-672.079 810.121,-679.092"/>
<text text-anchor="middle" x="918.838" y="-824.5" font-family="Helvetica,sans-Serif" font-size="10.00"> #mFinishedRunningOdes</text>
</g>
<!-- Node12 -->
<g id="node12" class="node"><title>Node12</title>
<g id="a_node12"><a xlink:href="classAbstractOdeSystem.html" target="_top" xlink:title="{AbstractOdeSystem\n||+ AbstractOdeSystem()\l+ ~AbstractOdeSystem()\l+ EvaluateYDerivatives()\l+ CalculateStoppingEvent()\l+ CalculateRootFunction()\l+ GetUseAnalyticJacobian()\l+ rGetConstStateVariables()\l&#45; save()\l&#45; load()\l}">
<polygon fill="white" stroke="black" points="664.338,-754.5 664.338,-899.5 804.338,-899.5 804.338,-754.5 664.338,-754.5"/>
<text text-anchor="middle" x="734.338" y="-887.5" font-family="Helvetica,sans-Serif" font-size="10.00">AbstractOdeSystem</text>
<polyline fill="none" stroke="black" points="664.338,-880.5 804.338,-880.5 "/>
<text text-anchor="middle" x="734.338" y="-868.5" font-family="Helvetica,sans-Serif" font-size="10.00"> </text>
<polyline fill="none" stroke="black" points="664.338,-861.5 804.338,-861.5 "/>
<text text-anchor="start" x="672.338" y="-849.5" font-family="Helvetica,sans-Serif" font-size="10.00">+ AbstractOdeSystem()</text>
<text text-anchor="start" x="672.338" y="-838.5" font-family="Helvetica,sans-Serif" font-size="10.00">+ ~AbstractOdeSystem()</text>
<text text-anchor="start" x="672.338" y="-827.5" font-family="Helvetica,sans-Serif" font-size="10.00">+ EvaluateYDerivatives()</text>
<text text-anchor="start" x="672.338" y="-816.5" font-family="Helvetica,sans-Serif" font-size="10.00">+ CalculateStoppingEvent()</text>
<text text-anchor="start" x="672.338" y="-805.5" font-family="Helvetica,sans-Serif" font-size="10.00">+ CalculateRootFunction()</text>
<text text-anchor="start" x="672.338" y="-794.5" font-family="Helvetica,sans-Serif" font-size="10.00">+ GetUseAnalyticJacobian()</text>
<text text-anchor="start" x="672.338" y="-783.5" font-family="Helvetica,sans-Serif" font-size="10.00">+ rGetConstStateVariables()</text>
<text text-anchor="start" x="672.338" y="-772.5" font-family="Helvetica,sans-Serif" font-size="10.00">&#45; save()</text>
<text text-anchor="start" x="672.338" y="-761.5" font-family="Helvetica,sans-Serif" font-size="10.00">&#45; load()</text>
</a>
</g>
</g>
<!-- Node8&#45;&gt;Node12 -->
<g id="edge22" class="edge"><title>Node8&#45;&gt;Node12</title>
<path fill="none" stroke="#404040" d="M737.79,-1064.28C729.316,-1028.19 715.494,-968.456 714.338,-958 713.751,-952.699 713.89,-951.315 714.338,-946 715.282,-934.782 716.722,-923.027 718.406,-911.465"/>
<polygon fill="none" stroke="#404040" points="718.419,-911.377 715.375,-904.84 720.239,-899.516 723.283,-906.053 718.419,-911.377"/>
<text text-anchor="middle" x="768.838" y="-949.5" font-family="Helvetica,sans-Serif" font-size="10.00"> #mUseAnalyticJacobian</text>
</g>
<!-- Node9 -->
<g id="node9" class="node"><title>Node9</title>
<g id="a_node9"><a xlink:href="classunsigned.html" target="_top" xlink:title="{unsigned\n||}">
<polygon fill="white" stroke="black" points="519.338,-1816.5 519.338,-1873.5 575.338,-1873.5 575.338,-1816.5 519.338,-1816.5"/>
<text text-anchor="middle" x="547.338" y="-1861.5" font-family="Helvetica,sans-Serif" font-size="10.00">unsigned</text>
<polyline fill="none" stroke="black" points="519.338,-1854.5 575.338,-1854.5 "/>
<text text-anchor="middle" x="547.338" y="-1842.5" font-family="Helvetica,sans-Serif" font-size="10.00"> </text>
<polyline fill="none" stroke="black" points="519.338,-1835.5 575.338,-1835.5 "/>
<text text-anchor="middle" x="547.338" y="-1823.5" font-family="Helvetica,sans-Serif" font-size="10.00"> </text>
</a>
</g>
</g>
<!-- Node9&#45;&gt;Node4 -->
<g id="edge8" class="edge"><title>Node9&#45;&gt;Node4</title>
<path fill="none" stroke="#404040" d="M541.158,-1816.41C533.755,-1780.89 522.338,-1717.18 522.338,-1662 522.338,-1662 522.338,-1662 522.338,-1092 522.338,-1041.83 522.338,-986.288 522.338,-939.148"/>
<polygon fill="none" stroke="#404040" points="522.338,-939.038 518.338,-933.038 522.338,-927.038 526.338,-933.038 522.338,-939.038"/>
<text text-anchor="middle" x="554.338" y="-1382.5" font-family="Helvetica,sans-Serif" font-size="10.00"> #mDimension</text>
</g>
<!-- Node14 -->
<g id="node14" class="node"><title>Node14</title>
<g id="a_node14"><a xlink:href="classAbstractUntemplatedParameterisedSystem.html" target="_top" xlink:title="{AbstractUntemplatedParameterised\lSystem\n||+ AbstractUntemplatedParameterised\lSystem()\l+ ~AbstractUntemplatedParameterised\lSystem()\l+ GetSystemInformation()\l+ GetSystemName()\l+ GetNumberOfAttributes()\l+ HasAttribute()\l+ GetAttribute()\l+ GetNumberOfStateVariables()\l+ rGetStateVariableNames()\l+ rGetStateVariableUnits()\land 20 more...\l}">
<polygon fill="white" stroke="black" points="644.838,-1561 644.838,-1761 831.838,-1761 831.838,-1561 644.838,-1561"/>
<text text-anchor="start" x="652.838" y="-1749" font-family="Helvetica,sans-Serif" font-size="10.00">AbstractUntemplatedParameterised</text>
<text text-anchor="middle" x="738.338" y="-1738" font-family="Helvetica,sans-Serif" font-size="10.00">System</text>
<polyline fill="none" stroke="black" points="644.838,-1731 831.838,-1731 "/>
<text text-anchor="middle" x="738.338" y="-1719" font-family="Helvetica,sans-Serif" font-size="10.00"> </text>
<polyline fill="none" stroke="black" points="644.838,-1712 831.838,-1712 "/>
<text text-anchor="start" x="652.838" y="-1700" font-family="Helvetica,sans-Serif" font-size="10.00">+ AbstractUntemplatedParameterised</text>
<text text-anchor="start" x="652.838" y="-1689" font-family="Helvetica,sans-Serif" font-size="10.00">System()</text>
<text text-anchor="start" x="652.838" y="-1678" font-family="Helvetica,sans-Serif" font-size="10.00">+ ~AbstractUntemplatedParameterised</text>
<text text-anchor="start" x="652.838" y="-1667" font-family="Helvetica,sans-Serif" font-size="10.00">System()</text>
<text text-anchor="start" x="652.838" y="-1656" font-family="Helvetica,sans-Serif" font-size="10.00">+ GetSystemInformation()</text>
<text text-anchor="start" x="652.838" y="-1645" font-family="Helvetica,sans-Serif" font-size="10.00">+ GetSystemName()</text>
<text text-anchor="start" x="652.838" y="-1634" font-family="Helvetica,sans-Serif" font-size="10.00">+ GetNumberOfAttributes()</text>
<text text-anchor="start" x="652.838" y="-1623" font-family="Helvetica,sans-Serif" font-size="10.00">+ HasAttribute()</text>
<text text-anchor="start" x="652.838" y="-1612" font-family="Helvetica,sans-Serif" font-size="10.00">+ GetAttribute()</text>
<text text-anchor="start" x="652.838" y="-1601" font-family="Helvetica,sans-Serif" font-size="10.00">+ GetNumberOfStateVariables()</text>
<text text-anchor="start" x="652.838" y="-1590" font-family="Helvetica,sans-Serif" font-size="10.00">+ rGetStateVariableNames()</text>
<text text-anchor="start" x="652.838" y="-1579" font-family="Helvetica,sans-Serif" font-size="10.00">+ rGetStateVariableUnits()</text>
<text text-anchor="start" x="652.838" y="-1568" font-family="Helvetica,sans-Serif" font-size="10.00">and 20 more...</text>
</a>
</g>
</g>
<!-- Node9&#45;&gt;Node14 -->
<g id="edge17" class="edge"><title>Node9&#45;&gt;Node14</title>
<path fill="none" stroke="#404040" d="M571.322,-1816.21C582.091,-1804.45 595.292,-1790.96 608.338,-1780 619.38,-1770.72 624.117,-1771.06 635.338,-1762 635.435,-1761.92 635.532,-1761.84 635.629,-1761.76"/>
<polygon fill="none" stroke="#404040" points="635.434,-1761.93 637.502,-1755.02 644.675,-1754.27 642.606,-1761.18 635.434,-1761.93"/>
<text text-anchor="middle" x="671.338" y="-1783.5" font-family="Helvetica,sans-Serif" font-size="10.00"> #mNumberOfStateVariables</text>
</g>
<!-- Node10 -->
<g id="node10" class="node"><title>Node10</title>
<polygon fill="white" stroke="#bfbfbf" points="221.838,-798.5 221.838,-855.5 340.838,-855.5 340.838,-798.5 221.838,-798.5"/>
<text text-anchor="middle" x="281.338" y="-843.5" font-family="Helvetica,sans-Serif" font-size="10.00">enum CellCyclePhase_</text>
<polyline fill="none" stroke="#bfbfbf" points="221.838,-836.5 340.838,-836.5 "/>
<text text-anchor="middle" x="281.338" y="-824.5" font-family="Helvetica,sans-Serif" font-size="10.00"> </text>
<polyline fill="none" stroke="#bfbfbf" points="221.838,-817.5 340.838,-817.5 "/>
<text text-anchor="middle" x="281.338" y="-805.5" font-family="Helvetica,sans-Serif" font-size="10.00"> </text>
</g>
<!-- Node10&#45;&gt;Node3 -->
<g id="edge10" class="edge"><title>Node10&#45;&gt;Node3</title>
<path fill="none" stroke="#404040" d="M261.365,-798.037C246.258,-775.086 226.731,-741.09 218.338,-708 216.043,-698.955 214.349,-689.519 213.134,-679.962"/>
<polygon fill="none" stroke="#404040" points="213.11,-679.743 208.499,-674.199 211.842,-667.81 216.454,-673.354 213.11,-679.743"/>
<text text-anchor="middle" x="278.338" y="-694.5" font-family="Helvetica,sans-Serif" font-size="10.00"> #mCurrentCellCyclePhase</text>
</g>
<!-- Node11&#45;&gt;Node2 -->
<g id="edge11" class="edge"><title>Node11&#45;&gt;Node2</title>
<path fill="none" stroke="midnightblue" d="M646.013,-507.631C551.656,-462.369 402.864,-390.995 307.724,-345.357"/>
<polygon fill="none" stroke="midnightblue" points="644.724,-510.895 655.254,-512.064 647.751,-504.583 644.724,-510.895"/>
</g>
<!-- Node12&#45;&gt;Node11 -->
<g id="edge13" class="edge"><title>Node12&#45;&gt;Node11</title>
<path fill="none" stroke="#404040" d="M734.338,-754.368C734.338,-731.508 734.338,-705.477 734.338,-679.873"/>
<polygon fill="none" stroke="#404040" points="734.338,-679.755 730.338,-673.755 734.338,-667.755 738.338,-673.755 734.338,-679.755"/>
<text text-anchor="middle" x="771.338" y="-694.5" font-family="Helvetica,sans-Serif" font-size="10.00"> #mpOdeSystem</text>
</g>
<!-- Node13 -->
<g id="node13" class="node"><title>Node13</title>
<g id="a_node13"><a xlink:href="classAbstractParameterisedSystem.html" target="_top" xlink:title="{AbstractParameterisedSystem\l\&lt; std::vector\&lt; double \&gt; \&gt;\n||+ AbstractParameterisedSystem()\l+ rGetStateVariables()\l+ GetStateVariables()\l+ SetStateVariables()\l+ GetStateVariable()\l+ GetStateVariable()\l+ SetStateVariable()\l+ SetStateVariable()\l+ VerifyStateVariables()\l+ SetDefaultInitialConditions()\land 13 more...\l# DumpState()\l# DumpState()\l# DumpState()\l# CheckParametersOnLoad()\l&#45; GetStateMessage()\l}">
<polygon fill="white" stroke="black" points="779.838,-976.5 779.838,-1209.5 944.838,-1209.5 944.838,-976.5 779.838,-976.5"/>
<text text-anchor="start" x="787.838" y="-1197.5" font-family="Helvetica,sans-Serif" font-size="10.00">AbstractParameterisedSystem</text>
<text text-anchor="middle" x="862.338" y="-1186.5" font-family="Helvetica,sans-Serif" font-size="10.00">&lt; std::vector&lt; double &gt; &gt;</text>
<polyline fill="none" stroke="black" points="779.838,-1179.5 944.838,-1179.5 "/>
<text text-anchor="middle" x="862.338" y="-1167.5" font-family="Helvetica,sans-Serif" font-size="10.00"> </text>
<polyline fill="none" stroke="black" points="779.838,-1160.5 944.838,-1160.5 "/>
<text text-anchor="start" x="787.838" y="-1148.5" font-family="Helvetica,sans-Serif" font-size="10.00">+ AbstractParameterisedSystem()</text>
<text text-anchor="start" x="787.838" y="-1137.5" font-family="Helvetica,sans-Serif" font-size="10.00">+ rGetStateVariables()</text>
<text text-anchor="start" x="787.838" y="-1126.5" font-family="Helvetica,sans-Serif" font-size="10.00">+ GetStateVariables()</text>
<text text-anchor="start" x="787.838" y="-1115.5" font-family="Helvetica,sans-Serif" font-size="10.00">+ SetStateVariables()</text>
<text text-anchor="start" x="787.838" y="-1104.5" font-family="Helvetica,sans-Serif" font-size="10.00">+ GetStateVariable()</text>
<text text-anchor="start" x="787.838" y="-1093.5" font-family="Helvetica,sans-Serif" font-size="10.00">+ GetStateVariable()</text>
<text text-anchor="start" x="787.838" y="-1082.5" font-family="Helvetica,sans-Serif" font-size="10.00">+ SetStateVariable()</text>
<text text-anchor="start" x="787.838" y="-1071.5" font-family="Helvetica,sans-Serif" font-size="10.00">+ SetStateVariable()</text>
<text text-anchor="start" x="787.838" y="-1060.5" font-family="Helvetica,sans-Serif" font-size="10.00">+ VerifyStateVariables()</text>
<text text-anchor="start" x="787.838" y="-1049.5" font-family="Helvetica,sans-Serif" font-size="10.00">+ SetDefaultInitialConditions()</text>
<text text-anchor="start" x="787.838" y="-1038.5" font-family="Helvetica,sans-Serif" font-size="10.00">and 13 more...</text>
<text text-anchor="start" x="787.838" y="-1027.5" font-family="Helvetica,sans-Serif" font-size="10.00"># DumpState()</text>
<text text-anchor="start" x="787.838" y="-1016.5" font-family="Helvetica,sans-Serif" font-size="10.00"># DumpState()</text>
<text text-anchor="start" x="787.838" y="-1005.5" font-family="Helvetica,sans-Serif" font-size="10.00"># DumpState()</text>
<text text-anchor="start" x="787.838" y="-994.5" font-family="Helvetica,sans-Serif" font-size="10.00"># CheckParametersOnLoad()</text>
<text text-anchor="start" x="787.838" y="-983.5" font-family="Helvetica,sans-Serif" font-size="10.00">&#45; GetStateMessage()</text>
</a>
</g>
</g>
<!-- Node13&#45;&gt;Node12 -->
<g id="edge14" class="edge"><title>Node13&#45;&gt;Node12</title>
<path fill="none" stroke="midnightblue" d="M832.351,-966.713C829.578,-959.601 826.578,-952.647 823.338,-946 815.635,-930.201 805.682,-914.408 795.235,-899.749"/>
<polygon fill="none" stroke="midnightblue" points="829.224,-968.344 835.993,-976.495 835.784,-965.902 829.224,-968.344"/>
</g>
<!-- Node14&#45;&gt;Node13 -->
<g id="edge15" class="edge"><title>Node14&#45;&gt;Node13</title>
<path fill="none" stroke="midnightblue" d="M839.463,-1583.11C863.566,-1559.72 886.559,-1532.15 901.338,-1502 955.223,-1392.09 957.462,-1347.14 929.338,-1228 927.903,-1221.92 926.149,-1215.81 924.148,-1209.72"/>
<polygon fill="none" stroke="midnightblue" points="836.803,-1580.81 831.955,-1590.23 841.62,-1585.88 836.803,-1580.81"/>
</g>
<!-- Node17 -->
<g id="node17" class="node"><title>Node17</title>
<g id="a_node17"><a xlink:href="classAbstractParameterisedSystem.html" target="_top" xlink:title="{AbstractParameterisedSystem\l\&lt; VECTOR \&gt;\n||+ AbstractParameterisedSystem()\l+ rGetStateVariables()\l+ GetStateVariables()\l+ SetStateVariables()\l+ GetStateVariable()\l+ GetStateVariable()\l+ SetStateVariable()\l+ SetStateVariable()\l+ VerifyStateVariables()\l+ SetDefaultInitialConditions()\land 13 more...\l# DumpState()\l# DumpState()\l# DumpState()\l# CheckParametersOnLoad()\l&#45; GetStateMessage()\l}">
<polygon fill="white" stroke="black" points="618.838,-1268.5 618.838,-1501.5 783.838,-1501.5 783.838,-1268.5 618.838,-1268.5"/>
<text text-anchor="start" x="626.838" y="-1489.5" font-family="Helvetica,sans-Serif" font-size="10.00">AbstractParameterisedSystem</text>
<text text-anchor="middle" x="701.338" y="-1478.5" font-family="Helvetica,sans-Serif" font-size="10.00">&lt; VECTOR &gt;</text>
<polyline fill="none" stroke="black" points="618.838,-1471.5 783.838,-1471.5 "/>
<text text-anchor="middle" x="701.338" y="-1459.5" font-family="Helvetica,sans-Serif" font-size="10.00"> </text>
<polyline fill="none" stroke="black" points="618.838,-1452.5 783.838,-1452.5 "/>
<text text-anchor="start" x="626.838" y="-1440.5" font-family="Helvetica,sans-Serif" font-size="10.00">+ AbstractParameterisedSystem()</text>
<text text-anchor="start" x="626.838" y="-1429.5" font-family="Helvetica,sans-Serif" font-size="10.00">+ rGetStateVariables()</text>
<text text-anchor="start" x="626.838" y="-1418.5" font-family="Helvetica,sans-Serif" font-size="10.00">+ GetStateVariables()</text>
<text text-anchor="start" x="626.838" y="-1407.5" font-family="Helvetica,sans-Serif" font-size="10.00">+ SetStateVariables()</text>
<text text-anchor="start" x="626.838" y="-1396.5" font-family="Helvetica,sans-Serif" font-size="10.00">+ GetStateVariable()</text>
<text text-anchor="start" x="626.838" y="-1385.5" font-family="Helvetica,sans-Serif" font-size="10.00">+ GetStateVariable()</text>
<text text-anchor="start" x="626.838" y="-1374.5" font-family="Helvetica,sans-Serif" font-size="10.00">+ SetStateVariable()</text>
<text text-anchor="start" x="626.838" y="-1363.5" font-family="Helvetica,sans-Serif" font-size="10.00">+ SetStateVariable()</text>
<text text-anchor="start" x="626.838" y="-1352.5" font-family="Helvetica,sans-Serif" font-size="10.00">+ VerifyStateVariables()</text>
<text text-anchor="start" x="626.838" y="-1341.5" font-family="Helvetica,sans-Serif" font-size="10.00">+ SetDefaultInitialConditions()</text>
<text text-anchor="start" x="626.838" y="-1330.5" font-family="Helvetica,sans-Serif" font-size="10.00">and 13 more...</text>
<text text-anchor="start" x="626.838" y="-1319.5" font-family="Helvetica,sans-Serif" font-size="10.00"># DumpState()</text>
<text text-anchor="start" x="626.838" y="-1308.5" font-family="Helvetica,sans-Serif" font-size="10.00"># DumpState()</text>
<text text-anchor="start" x="626.838" y="-1297.5" font-family="Helvetica,sans-Serif" font-size="10.00"># DumpState()</text>
<text text-anchor="start" x="626.838" y="-1286.5" font-family="Helvetica,sans-Serif" font-size="10.00"># CheckParametersOnLoad()</text>
<text text-anchor="start" x="626.838" y="-1275.5" font-family="Helvetica,sans-Serif" font-size="10.00">&#45; GetStateMessage()</text>
</a>
</g>
</g>
<!-- Node14&#45;&gt;Node17 -->
<g id="edge20" class="edge"><title>Node14&#45;&gt;Node17</title>
<path fill="none" stroke="midnightblue" d="M723.583,-1550.74C721.407,-1534.62 719.158,-1517.97 716.965,-1501.73"/>
<polygon fill="none" stroke="midnightblue" points="720.121,-1551.25 724.927,-1560.69 727.058,-1550.31 720.121,-1551.25"/>
</g>
<!-- Node15 -->
<g id="node15" class="node"><title>Node15</title>
<polygon fill="white" stroke="#bfbfbf" points="658.338,-1811 658.338,-1879 818.338,-1879 818.338,-1811 658.338,-1811"/>
<text text-anchor="start" x="666.338" y="-1867" font-family="Helvetica,sans-Serif" font-size="10.00">shared_ptr&lt; AbstractOdeSystem</text>
<text text-anchor="middle" x="738.338" y="-1856" font-family="Helvetica,sans-Serif" font-size="10.00">Information &gt;</text>
<polyline fill="none" stroke="#bfbfbf" points="658.338,-1849 818.338,-1849 "/>
<text text-anchor="middle" x="738.338" y="-1837" font-family="Helvetica,sans-Serif" font-size="10.00"> </text>
<polyline fill="none" stroke="#bfbfbf" points="658.338,-1830 818.338,-1830 "/>
<text text-anchor="middle" x="738.338" y="-1818" font-family="Helvetica,sans-Serif" font-size="10.00"> </text>
</g>
<!-- Node15&#45;&gt;Node14 -->
<g id="edge16" class="edge"><title>Node15&#45;&gt;Node14</title>
<path fill="none" stroke="#404040" d="M738.338,-1810.62C738.338,-1799.78 738.338,-1787.08 738.338,-1773.76"/>
<polygon fill="none" stroke="#404040" points="738.338,-1773.38 734.338,-1767.38 738.338,-1761.38 742.338,-1767.38 738.338,-1773.38"/>
<text text-anchor="middle" x="774.838" y="-1783.5" font-family="Helvetica,sans-Serif" font-size="10.00"> #mpSystemInfo</text>
</g>
<!-- Node16 -->
<g id="node16" class="node"><title>Node16</title>
<polygon fill="white" stroke="#bfbfbf" points="802.338,-1356.5 802.338,-1413.5 892.338,-1413.5 892.338,-1356.5 802.338,-1356.5"/>
<text text-anchor="middle" x="847.338" y="-1401.5" font-family="Helvetica,sans-Serif" font-size="10.00">vector&lt; double &gt;</text>
<polyline fill="none" stroke="#bfbfbf" points="802.338,-1394.5 892.338,-1394.5 "/>
<text text-anchor="middle" x="847.338" y="-1382.5" font-family="Helvetica,sans-Serif" font-size="10.00"> </text>
<polyline fill="none" stroke="#bfbfbf" points="802.338,-1375.5 892.338,-1375.5 "/>
<text text-anchor="middle" x="847.338" y="-1363.5" font-family="Helvetica,sans-Serif" font-size="10.00"> </text>
</g>
<!-- Node16&#45;&gt;Node13 -->
<g id="edge18" class="edge"><title>Node16&#45;&gt;Node13</title>
<path fill="none" stroke="#404040" d="M846.701,-1356.36C846.171,-1325.16 845.855,-1272.89 848.338,-1228 848.451,-1225.95 848.573,-1223.89 848.703,-1221.81"/>
<polygon fill="none" stroke="#404040" points="848.706,-1221.76 845.126,-1215.5 849.528,-1209.79 853.107,-1216.05 848.706,-1221.76"/>
<text text-anchor="middle" x="888.838" y="-1242" font-family="Helvetica,sans-Serif" font-size="10.00"> #mStateVariables</text>
<text text-anchor="middle" x="888.838" y="-1231" font-family="Helvetica,sans-Serif" font-size="10.00">#mParameters</text>
</g>
<!-- Node17&#45;&gt;Node13 -->
<g id="edge19" class="edge"><title>Node17&#45;&gt;Node13</title>
<path fill="none" stroke="orange" d="M711.101,-1258.96C715.392,-1247.82 721.016,-1237.27 728.338,-1228 740.927,-1212.06 754.202,-1222.33 770.338,-1210 773.503,-1207.58 776.622,-1205.03 779.69,-1202.37"/>
<polygon fill="orange" stroke="orange" points="707.782,-1257.85 707.803,-1268.45 714.393,-1260.15 707.782,-1257.85"/>
<text text-anchor="middle" x="785.838" y="-1236.5" font-family="Helvetica,sans-Serif" font-size="10.00"> &lt; std::vector&lt; double &gt; &gt;</text>
</g>
<!-- Node18 -->
<g id="node18" class="node"><title>Node18</title>
<polygon fill="white" stroke="#bfbfbf" points="567.838,-1632.5 567.838,-1689.5 626.838,-1689.5 626.838,-1632.5 567.838,-1632.5"/>
<text text-anchor="middle" x="597.338" y="-1677.5" font-family="Helvetica,sans-Serif" font-size="10.00">VECTOR</text>
<polyline fill="none" stroke="#bfbfbf" points="567.838,-1670.5 626.838,-1670.5 "/>
<text text-anchor="middle" x="597.338" y="-1658.5" font-family="Helvetica,sans-Serif" font-size="10.00"> </text>
<polyline fill="none" stroke="#bfbfbf" points="567.838,-1651.5 626.838,-1651.5 "/>
<text text-anchor="middle" x="597.338" y="-1639.5" font-family="Helvetica,sans-Serif" font-size="10.00"> </text>
</g>
<!-- Node18&#45;&gt;Node17 -->
<g id="edge21" class="edge"><title>Node18&#45;&gt;Node17</title>
<path fill="none" stroke="#404040" d="M602.878,-1632.38C609.024,-1603.76 619.996,-1557.98 634.338,-1520 635.235,-1517.62 636.161,-1515.23 637.113,-1512.83"/>
<polygon fill="none" stroke="#404040" points="637.185,-1512.66 635.762,-1505.59 641.74,-1501.56 643.163,-1508.63 637.185,-1512.66"/>
<text text-anchor="middle" x="674.838" y="-1534" font-family="Helvetica,sans-Serif" font-size="10.00"> #mStateVariables</text>
<text text-anchor="middle" x="674.838" y="-1523" font-family="Helvetica,sans-Serif" font-size="10.00">#mParameters</text>
</g>
<!-- Node19 -->
<g id="node19" class="node"><title>Node19</title>
<polygon fill="white" stroke="#bfbfbf" points="993.838,-793 993.838,-861 1118.84,-861 1118.84,-793 993.838,-793"/>
<text text-anchor="start" x="1001.84" y="-849" font-family="Helvetica,sans-Serif" font-size="10.00">shared_ptr&lt; AbstractCell</text>
<text text-anchor="middle" x="1056.34" y="-838" font-family="Helvetica,sans-Serif" font-size="10.00">CycleModelOdeSolver &gt;</text>
<polyline fill="none" stroke="#bfbfbf" points="993.838,-831 1118.84,-831 "/>
<text text-anchor="middle" x="1056.34" y="-819" font-family="Helvetica,sans-Serif" font-size="10.00"> </text>
<polyline fill="none" stroke="#bfbfbf" points="993.838,-812 1118.84,-812 "/>
<text text-anchor="middle" x="1056.34" y="-800" font-family="Helvetica,sans-Serif" font-size="10.00"> </text>
</g>
<!-- Node19&#45;&gt;Node11 -->
<g id="edge24" class="edge"><title>Node19&#45;&gt;Node11</title>
<path fill="none" stroke="#404040" d="M1034.64,-792.921C1020.3,-772.407 1000.34,-746.205 979.338,-726 932.129,-680.581 872.288,-637.856 823.564,-606.108"/>
<polygon fill="none" stroke="#404040" points="823.422,-606.017 816.212,-606.12 813.344,-599.503 820.554,-599.401 823.422,-606.017"/>
<text text-anchor="middle" x="988.338" y="-694.5" font-family="Helvetica,sans-Serif" font-size="10.00"> #mpOdeSolver</text>
</g>
</g>
</svg>
