<?xml version="1.0" encoding="UTF-8" standalone="no"?>
<!DOCTYPE svg PUBLIC "-//W3C//DTD SVG 1.1//EN"
 "http://www.w3.org/Graphics/SVG/1.1/DTD/svg11.dtd">
<!-- Generated by graphviz version 2.36.0 (20140111.2315)
 -->
<!-- Title: PottsMeshReader&lt; SPACE_DIM &gt; Pages: 1 -->
<svg width="640pt" height="762pt"
 viewBox="0.00 0.00 640.00 762.00" xmlns="http://www.w3.org/2000/svg" xmlns:xlink="http://www.w3.org/1999/xlink">
<g id="graph0" class="graph" transform="scale(1 1) rotate(0) translate(4 758)">
<title>PottsMeshReader&lt; SPACE_DIM &gt;</title>
<polygon fill="white" stroke="none" points="-4,4 -4,-758 636,-758 636,4 -4,4"/>
<!-- Node1 -->
<g id="node1" class="node"><title>Node1</title>
<polygon fill="#bfbfbf" stroke="black" points="238,-0.5 238,-233.5 384,-233.5 384,-0.5 238,-0.5"/>
<text text-anchor="start" x="246" y="-221.5" font-family="Helvetica,sans-Serif" font-size="10.00">PottsMeshReader&lt; SPACE</text>
<text text-anchor="middle" x="311" y="-210.5" font-family="Helvetica,sans-Serif" font-size="10.00">_DIM &gt;</text>
<polyline fill="none" stroke="black" points="238,-203.5 384,-203.5 "/>
<text text-anchor="middle" x="311" y="-191.5" font-family="Helvetica,sans-Serif" font-size="10.00"> </text>
<polyline fill="none" stroke="black" points="238,-184.5 384,-184.5 "/>
<text text-anchor="start" x="246" y="-172.5" font-family="Helvetica,sans-Serif" font-size="10.00">+ PottsMeshReader()</text>
<text text-anchor="start" x="246" y="-161.5" font-family="Helvetica,sans-Serif" font-size="10.00">+ ~PottsMeshReader()</text>
<text text-anchor="start" x="246" y="-150.5" font-family="Helvetica,sans-Serif" font-size="10.00">+ GetNumElements()</text>
<text text-anchor="start" x="246" y="-139.5" font-family="Helvetica,sans-Serif" font-size="10.00">+ GetNumNodes()</text>
<text text-anchor="start" x="246" y="-128.5" font-family="Helvetica,sans-Serif" font-size="10.00">+ GetNumElementAttributes()</text>
<text text-anchor="start" x="246" y="-117.5" font-family="Helvetica,sans-Serif" font-size="10.00">+ GetNumFaces()</text>
<text text-anchor="start" x="246" y="-106.5" font-family="Helvetica,sans-Serif" font-size="10.00">+ GetNextFaceData()</text>
<text text-anchor="start" x="246" y="-95.5" font-family="Helvetica,sans-Serif" font-size="10.00">+ Reset()</text>
<text text-anchor="start" x="246" y="-84.5" font-family="Helvetica,sans-Serif" font-size="10.00">+ GetNextNode()</text>
<text text-anchor="start" x="246" y="-73.5" font-family="Helvetica,sans-Serif" font-size="10.00">+ GetNextElementData()</text>
<text text-anchor="start" x="246" y="-62.5" font-family="Helvetica,sans-Serif" font-size="10.00">&#45; OpenFiles()</text>
<text text-anchor="start" x="246" y="-51.5" font-family="Helvetica,sans-Serif" font-size="10.00">&#45; OpenNodeFile()</text>
<text text-anchor="start" x="246" y="-40.5" font-family="Helvetica,sans-Serif" font-size="10.00">&#45; OpenElementsFile()</text>
<text text-anchor="start" x="246" y="-29.5" font-family="Helvetica,sans-Serif" font-size="10.00">&#45; ReadHeaders()</text>
<text text-anchor="start" x="246" y="-18.5" font-family="Helvetica,sans-Serif" font-size="10.00">&#45; CloseFiles()</text>
<text text-anchor="start" x="246" y="-7.5" font-family="Helvetica,sans-Serif" font-size="10.00">&#45; GetNextLineFromStream()</text>
</g>
<!-- Node2 -->
<g id="node2" class="node"><title>Node2</title>
<g id="a_node2"><a xlink:href="classAbstractMeshReader.html" target="_top" xlink:title="{AbstractMeshReader\l\&lt; SPACE_DIM, SPACE_DIM \&gt;\n||+ ~AbstractMeshReader()\l+ GetNumElements()\l+ GetNumNodes()\l+ GetNumFaces()\l+ GetNumCableElements()\l+ GetNumElementAttributes()\l+ GetNumFaceAttributes()\l+ GetNumCableElementAttributes()\l+ GetNodeAttributes()\l+ GetNumEdges()\land 25 more...\l}">
<polygon fill="white" stroke="black" points="0,-337 0,-515 172,-515 172,-337 0,-337"/>
<text text-anchor="start" x="8" y="-503" font-family="Helvetica,sans-Serif" font-size="10.00">AbstractMeshReader</text>
<text text-anchor="middle" x="86" y="-492" font-family="Helvetica,sans-Serif" font-size="10.00">&lt; SPACE_DIM, SPACE_DIM &gt;</text>
<polyline fill="none" stroke="black" points="0,-485 172,-485 "/>
<text text-anchor="middle" x="86" y="-473" font-family="Helvetica,sans-Serif" font-size="10.00"> </text>
<polyline fill="none" stroke="black" points="0,-466 172,-466 "/>
<text text-anchor="start" x="8" y="-454" font-family="Helvetica,sans-Serif" font-size="10.00">+ ~AbstractMeshReader()</text>
<text text-anchor="start" x="8" y="-443" font-family="Helvetica,sans-Serif" font-size="10.00">+ GetNumElements()</text>
<text text-anchor="start" x="8" y="-432" font-family="Helvetica,sans-Serif" font-size="10.00">+ GetNumNodes()</text>
<text text-anchor="start" x="8" y="-421" font-family="Helvetica,sans-Serif" font-size="10.00">+ GetNumFaces()</text>
<text text-anchor="start" x="8" y="-410" font-family="Helvetica,sans-Serif" font-size="10.00">+ GetNumCableElements()</text>
<text text-anchor="start" x="8" y="-399" font-family="Helvetica,sans-Serif" font-size="10.00">+ GetNumElementAttributes()</text>
<text text-anchor="start" x="8" y="-388" font-family="Helvetica,sans-Serif" font-size="10.00">+ GetNumFaceAttributes()</text>
<text text-anchor="start" x="8" y="-377" font-family="Helvetica,sans-Serif" font-size="10.00">+ GetNumCableElementAttributes()</text>
<text text-anchor="start" x="8" y="-366" font-family="Helvetica,sans-Serif" font-size="10.00">+ GetNodeAttributes()</text>
<text text-anchor="start" x="8" y="-355" font-family="Helvetica,sans-Serif" font-size="10.00">+ GetNumEdges()</text>
<text text-anchor="start" x="8" y="-344" font-family="Helvetica,sans-Serif" font-size="10.00">and 25 more...</text>
</a>
</g>
</g>
<!-- Node2&#45;&gt;Node1 -->
<g id="edge1" class="edge"><title>Node2&#45;&gt;Node1</title>
<path fill="none" stroke="midnightblue" d="M156.92,-328.233C182.748,-292.993 211.978,-253.11 237.984,-217.626"/>
<polygon fill="none" stroke="midnightblue" points="153.866,-326.48 150.777,-336.615 159.512,-330.618 153.866,-326.48"/>
</g>
<!-- Node3 -->
<g id="node3" class="node"><title>Node3</title>
<g id="a_node3"><a xlink:href="classAbstractMeshReader.html" target="_top" xlink:title="{AbstractMeshReader\l\&lt; ELEMENT_DIM, SPACE_DIM \&gt;\n||+ ~AbstractMeshReader()\l+ GetNumElements()\l+ GetNumNodes()\l+ GetNumFaces()\l+ GetNumCableElements()\l+ GetNumElementAttributes()\l+ GetNumFaceAttributes()\l+ GetNumCableElementAttributes()\l+ GetNodeAttributes()\l+ GetNumEdges()\land 25 more...\l}">
<polygon fill="white" stroke="black" points="0,-575 0,-753 172,-753 172,-575 0,-575"/>
<text text-anchor="start" x="8" y="-741" font-family="Helvetica,sans-Serif" font-size="10.00">AbstractMeshReader</text>
<text text-anchor="middle" x="86" y="-730" font-family="Helvetica,sans-Serif" font-size="10.00">&lt; ELEMENT_DIM, SPACE_DIM &gt;</text>
<polyline fill="none" stroke="black" points="0,-723 172,-723 "/>
<text text-anchor="middle" x="86" y="-711" font-family="Helvetica,sans-Serif" font-size="10.00"> </text>
<polyline fill="none" stroke="black" points="0,-704 172,-704 "/>
<text text-anchor="start" x="8" y="-692" font-family="Helvetica,sans-Serif" font-size="10.00">+ ~AbstractMeshReader()</text>
<text text-anchor="start" x="8" y="-681" font-family="Helvetica,sans-Serif" font-size="10.00">+ GetNumElements()</text>
<text text-anchor="start" x="8" y="-670" font-family="Helvetica,sans-Serif" font-size="10.00">+ GetNumNodes()</text>
<text text-anchor="start" x="8" y="-659" font-family="Helvetica,sans-Serif" font-size="10.00">+ GetNumFaces()</text>
<text text-anchor="start" x="8" y="-648" font-family="Helvetica,sans-Serif" font-size="10.00">+ GetNumCableElements()</text>
<text text-anchor="start" x="8" y="-637" font-family="Helvetica,sans-Serif" font-size="10.00">+ GetNumElementAttributes()</text>
<text text-anchor="start" x="8" y="-626" font-family="Helvetica,sans-Serif" font-size="10.00">+ GetNumFaceAttributes()</text>
<text text-anchor="start" x="8" y="-615" font-family="Helvetica,sans-Serif" font-size="10.00">+ GetNumCableElementAttributes()</text>
<text text-anchor="start" x="8" y="-604" font-family="Helvetica,sans-Serif" font-size="10.00">+ GetNodeAttributes()</text>
<text text-anchor="start" x="8" y="-593" font-family="Helvetica,sans-Serif" font-size="10.00">+ GetNumEdges()</text>
<text text-anchor="start" x="8" y="-582" font-family="Helvetica,sans-Serif" font-size="10.00">and 25 more...</text>
</a>
</g>
</g>
<!-- Node3&#45;&gt;Node2 -->
<g id="edge2" class="edge"><title>Node3&#45;&gt;Node2</title>
<path fill="none" stroke="orange" d="M86,-564.637C86,-548.209 86,-531.258 86,-515.106"/>
<polygon fill="orange" stroke="orange" points="82.5001,-564.787 86,-574.787 89.5001,-564.787 82.5001,-564.787"/>
<text text-anchor="start" x="86" y="-548" font-family="Helvetica,sans-Serif" font-size="10.00"> &lt; SPACE_DIM, SPACE</text>
<text text-anchor="middle" x="142" y="-537" font-family="Helvetica,sans-Serif" font-size="10.00">_DIM &gt;</text>
</g>
<!-- Node4 -->
<g id="node4" class="node"><title>Node4</title>
<polygon fill="white" stroke="#bfbfbf" points="190,-397.5 190,-454.5 242,-454.5 242,-397.5 190,-397.5"/>
<text text-anchor="middle" x="216" y="-442.5" font-family="Helvetica,sans-Serif" font-size="10.00">ifstream</text>
<polyline fill="none" stroke="#bfbfbf" points="190,-435.5 242,-435.5 "/>
<text text-anchor="middle" x="216" y="-423.5" font-family="Helvetica,sans-Serif" font-size="10.00"> </text>
<polyline fill="none" stroke="#bfbfbf" points="190,-416.5 242,-416.5 "/>
<text text-anchor="middle" x="216" y="-404.5" font-family="Helvetica,sans-Serif" font-size="10.00"> </text>
</g>
<!-- Node4&#45;&gt;Node1 -->
<g id="edge3" class="edge"><title>Node4&#45;&gt;Node1</title>
<path fill="none" stroke="#404040" d="M215.631,-397.317C215.933,-362.547 219.015,-301.451 235,-252 235.74,-249.71 236.523,-247.415 237.343,-245.118"/>
<polygon fill="none" stroke="#404040" points="237.448,-244.844 235.861,-237.81 241.743,-233.639 243.331,-240.673 237.448,-244.844"/>
<text text-anchor="middle" x="271" y="-288" font-family="Helvetica,sans-Serif" font-size="10.00"> &#45;mElementsFile</text>
<text text-anchor="middle" x="271" y="-277" font-family="Helvetica,sans-Serif" font-size="10.00">&#45;mNodesFile</text>
</g>
<!-- Node5 -->
<g id="node5" class="node"><title>Node5</title>
<g id="a_node5"><a xlink:href="classbool.html" target="_top" xlink:title="{bool\n||}">
<polygon fill="white" stroke="black" points="293.5,-397.5 293.5,-454.5 328.5,-454.5 328.5,-397.5 293.5,-397.5"/>
<text text-anchor="middle" x="311" y="-442.5" font-family="Helvetica,sans-Serif" font-size="10.00">bool</text>
<polyline fill="none" stroke="black" points="293.5,-435.5 328.5,-435.5 "/>
<text text-anchor="middle" x="311" y="-423.5" font-family="Helvetica,sans-Serif" font-size="10.00"> </text>
<polyline fill="none" stroke="black" points="293.5,-416.5 328.5,-416.5 "/>
<text text-anchor="middle" x="311" y="-404.5" font-family="Helvetica,sans-Serif" font-size="10.00"> </text>
</a>
</g>
</g>
<!-- Node5&#45;&gt;Node1 -->
<g id="edge4" class="edge"><title>Node5&#45;&gt;Node1</title>
<path fill="none" stroke="#404040" d="M311,-397.486C311,-363.207 311,-302.28 311,-246.042"/>
<polygon fill="none" stroke="#404040" points="311,-245.751 307,-239.751 311,-233.751 315,-239.751 311,-245.751"/>
<text text-anchor="middle" x="351.5" y="-282.5" font-family="Helvetica,sans-Serif" font-size="10.00"> &#45;mIndexFromZero</text>
</g>
<!-- Node6 -->
<g id="node6" class="node"><title>Node6</title>
<polygon fill="white" stroke="#bfbfbf" points="394.5,-397.5 394.5,-454.5 435.5,-454.5 435.5,-397.5 394.5,-397.5"/>
<text text-anchor="middle" x="415" y="-442.5" font-family="Helvetica,sans-Serif" font-size="10.00">string</text>
<polyline fill="none" stroke="#bfbfbf" points="394.5,-435.5 435.5,-435.5 "/>
<text text-anchor="middle" x="415" y="-423.5" font-family="Helvetica,sans-Serif" font-size="10.00"> </text>
<polyline fill="none" stroke="#bfbfbf" points="394.5,-416.5 435.5,-416.5 "/>
<text text-anchor="middle" x="415" y="-404.5" font-family="Helvetica,sans-Serif" font-size="10.00"> </text>
</g>
<!-- Node6&#45;&gt;Node1 -->
<g id="edge5" class="edge"><title>Node6&#45;&gt;Node1</title>
<path fill="none" stroke="#404040" d="M415.023,-397.214C414.258,-362.338 410.26,-301.132 393,-252 391.752,-248.448 390.4,-244.889 388.96,-241.335"/>
<polygon fill="none" stroke="#404040" points="388.828,-241.03 382.778,-237.106 384.074,-230.012 390.124,-233.936 388.828,-241.03"/>
<text text-anchor="middle" x="451.5" y="-282.5" font-family="Helvetica,sans-Serif" font-size="10.00"> &#45;mFilesBaseName</text>
</g>
<!-- Node7 -->
<g id="node7" class="node"><title>Node7</title>
<g id="a_node7"><a xlink:href="classunsigned.html" target="_top" xlink:title="{unsigned\n||}">
<polygon fill="white" stroke="black" points="495,-397.5 495,-454.5 551,-454.5 551,-397.5 495,-397.5"/>
<text text-anchor="middle" x="523" y="-442.5" font-family="Helvetica,sans-Serif" font-size="10.00">unsigned</text>
<polyline fill="none" stroke="black" points="495,-435.5 551,-435.5 "/>
<text text-anchor="middle" x="523" y="-423.5" font-family="Helvetica,sans-Serif" font-size="10.00"> </text>
<polyline fill="none" stroke="black" points="495,-416.5 551,-416.5 "/>
<text text-anchor="middle" x="523" y="-404.5" font-family="Helvetica,sans-Serif" font-size="10.00"> </text>
</a>
</g>
</g>
<!-- Node7&#45;&gt;Node1 -->
<g id="edge6" class="edge"><title>Node7&#45;&gt;Node1</title>
<path fill="none" stroke="#404040" d="M525.377,-397.32C527.132,-361.192 525.51,-297.248 498,-252 473.629,-211.915 432.256,-180.405 394.612,-158.039"/>
<polygon fill="none" stroke="#404040" points="394.502,-157.975 387.306,-158.438 384.111,-151.974 391.307,-151.511 394.502,-157.975"/>
<text text-anchor="middle" x="576.5" y="-310" font-family="Helvetica,sans-Serif" font-size="10.00"> &#45;mNumNodes</text>
<text text-anchor="middle" x="576.5" y="-299" font-family="Helvetica,sans-Serif" font-size="10.00">&#45;mNumNodeAttributes</text>
<text text-anchor="middle" x="576.5" y="-288" font-family="Helvetica,sans-Serif" font-size="10.00">&#45;mNumElementAttributes</text>
<text text-anchor="middle" x="576.5" y="-277" font-family="Helvetica,sans-Serif" font-size="10.00">&#45;mElementsRead</text>
<text text-anchor="middle" x="576.5" y="-266" font-family="Helvetica,sans-Serif" font-size="10.00">&#45;mNodesRead</text>
<text text-anchor="middle" x="576.5" y="-255" font-family="Helvetica,sans-Serif" font-size="10.00">&#45;mNumElements</text>
</g>
</g>
</svg>
