<?xml version="1.0" encoding="UTF-8" standalone="no"?>
<!DOCTYPE svg PUBLIC "-//W3C//DTD SVG 1.1//EN"
 "http://www.w3.org/Graphics/SVG/1.1/DTD/svg11.dtd">
<!-- Generated by graphviz version 2.36.0 (20140111.2315)
 -->
<!-- Title: CommandLineArguments Pages: 1 -->
<svg width="289pt" height="404pt"
 viewBox="0.00 0.00 289.00 404.00" xmlns="http://www.w3.org/2000/svg" xmlns:xlink="http://www.w3.org/1999/xlink">
<g id="graph0" class="graph" transform="scale(1 1) rotate(0) translate(4 400)">
<title>CommandLineArguments</title>
<polygon fill="white" stroke="none" points="-4,4 -4,-400 285,-400 285,4 -4,4"/>
<!-- Node1 -->
<g id="node1" class="node"><title>Node1</title>
<polygon fill="#bfbfbf" stroke="black" points="23,-1 23,-289 205,-289 205,-1 23,-1"/>
<text text-anchor="middle" x="114" y="-277" font-family="Helvetica,sans-Serif" font-size="10.00">CommandLineArguments</text>
<polyline fill="none" stroke="black" points="23,-270 205,-270 "/>
<text text-anchor="middle" x="114" y="-258" font-family="Helvetica,sans-Serif" font-size="10.00"> </text>
<polyline fill="none" stroke="black" points="23,-251 205,-251 "/>
<text text-anchor="start" x="31" y="-239" font-family="Helvetica,sans-Serif" font-size="10.00">+ OptionExists()</text>
<text text-anchor="start" x="31" y="-228" font-family="Helvetica,sans-Serif" font-size="10.00">+ GetNumberOfArgumentsForOption()</text>
<text text-anchor="start" x="31" y="-217" font-family="Helvetica,sans-Serif" font-size="10.00">+ GetValueCorrespondingToOption()</text>
<text text-anchor="start" x="31" y="-206" font-family="Helvetica,sans-Serif" font-size="10.00">+ GetDoubleCorrespondingTo</text>
<text text-anchor="start" x="31" y="-195" font-family="Helvetica,sans-Serif" font-size="10.00">Option()</text>
<text text-anchor="start" x="31" y="-184" font-family="Helvetica,sans-Serif" font-size="10.00">+ GetIntCorrespondingToOption()</text>
<text text-anchor="start" x="31" y="-173" font-family="Helvetica,sans-Serif" font-size="10.00">+ GetUnsignedCorresponding</text>
<text text-anchor="start" x="31" y="-162" font-family="Helvetica,sans-Serif" font-size="10.00">ToOption()</text>
<text text-anchor="start" x="31" y="-151" font-family="Helvetica,sans-Serif" font-size="10.00">+ GetStringCorrespondingTo</text>
<text text-anchor="start" x="31" y="-140" font-family="Helvetica,sans-Serif" font-size="10.00">Option()</text>
<text text-anchor="start" x="31" y="-129" font-family="Helvetica,sans-Serif" font-size="10.00">+ GetStringsCorrespondingTo</text>
<text text-anchor="start" x="31" y="-118" font-family="Helvetica,sans-Serif" font-size="10.00">Option()</text>
<text text-anchor="start" x="31" y="-107" font-family="Helvetica,sans-Serif" font-size="10.00">+ GetDoublesCorrespondingTo</text>
<text text-anchor="start" x="31" y="-96" font-family="Helvetica,sans-Serif" font-size="10.00">Option()</text>
<text text-anchor="start" x="31" y="-85" font-family="Helvetica,sans-Serif" font-size="10.00">+ GetIntsCorrespondingToOption()</text>
<text text-anchor="start" x="31" y="-74" font-family="Helvetica,sans-Serif" font-size="10.00">+ GetUnsignedsCorresponding</text>
<text text-anchor="start" x="31" y="-63" font-family="Helvetica,sans-Serif" font-size="10.00">ToOption()</text>
<text text-anchor="start" x="31" y="-52" font-family="Helvetica,sans-Serif" font-size="10.00">+ GetBoolCorrespondingToOption()</text>
<text text-anchor="start" x="31" y="-41" font-family="Helvetica,sans-Serif" font-size="10.00">+ Instance()</text>
<text text-anchor="start" x="31" y="-30" font-family="Helvetica,sans-Serif" font-size="10.00">&#45; CommandLineArguments()</text>
<text text-anchor="start" x="31" y="-19" font-family="Helvetica,sans-Serif" font-size="10.00">&#45; GetIndexForArgument()</text>
<text text-anchor="start" x="31" y="-8" font-family="Helvetica,sans-Serif" font-size="10.00">&#45; TestOptionFormat()</text>
</g>
<!-- Node1&#45;&gt;Node1 -->
<g id="edge4" class="edge"><title>Node1&#45;&gt;Node1</title>
<path fill="none" stroke="#404040" d="M205.037,-172.07C215.904,-167.148 223,-158.125 223,-145 223,-136.592 220.088,-129.867 215.138,-124.825"/>
<polygon fill="none" stroke="#404040" points="214.948,-124.696 207.737,-124.616 205.037,-117.93 212.248,-118.009 214.948,-124.696"/>
<text text-anchor="middle" x="252" y="-142.5" font-family="Helvetica,sans-Serif" font-size="10.00"> &#45;mpInstance</text>
</g>
<!-- Node2 -->
<g id="node2" class="node"><title>Node2</title>
<polygon fill="white" stroke="#bfbfbf" points="-0.5,-338.5 -0.5,-395.5 70.5,-395.5 70.5,-338.5 -0.5,-338.5"/>
<text text-anchor="middle" x="35" y="-383.5" font-family="Helvetica,sans-Serif" font-size="10.00">noncopyable</text>
<polyline fill="none" stroke="#bfbfbf" points="-0.5,-376.5 70.5,-376.5 "/>
<text text-anchor="middle" x="35" y="-364.5" font-family="Helvetica,sans-Serif" font-size="10.00"> </text>
<polyline fill="none" stroke="#bfbfbf" points="-0.5,-357.5 70.5,-357.5 "/>
<text text-anchor="middle" x="35" y="-345.5" font-family="Helvetica,sans-Serif" font-size="10.00"> </text>
</g>
<!-- Node2&#45;&gt;Node1 -->
<g id="edge1" class="edge"><title>Node2&#45;&gt;Node1</title>
<path fill="none" stroke="#8b1a1a" d="M48.4466,-328.554C52.5743,-317.059 57.3872,-303.656 62.4961,-289.429"/>
<polygon fill="none" stroke="#8b1a1a" points="45.091,-327.542 45.0054,-338.137 51.6792,-329.908 45.091,-327.542"/>
</g>
<!-- Node3 -->
<g id="node3" class="node"><title>Node3</title>
<polygon fill="white" stroke="#bfbfbf" points="89,-338.5 89,-395.5 139,-395.5 139,-338.5 89,-338.5"/>
<text text-anchor="middle" x="114" y="-383.5" font-family="Helvetica,sans-Serif" font-size="10.00">char ***</text>
<polyline fill="none" stroke="#bfbfbf" points="89,-376.5 139,-376.5 "/>
<text text-anchor="middle" x="114" y="-364.5" font-family="Helvetica,sans-Serif" font-size="10.00"> </text>
<polyline fill="none" stroke="#bfbfbf" points="89,-357.5 139,-357.5 "/>
<text text-anchor="middle" x="114" y="-345.5" font-family="Helvetica,sans-Serif" font-size="10.00"> </text>
</g>
<!-- Node3&#45;&gt;Node1 -->
<g id="edge2" class="edge"><title>Node3&#45;&gt;Node1</title>
<path fill="none" stroke="#404040" d="M114,-338.137C114,-327.853 114,-315.343 114,-301.692"/>
<polygon fill="none" stroke="#404040" points="114,-301.429 110,-295.429 114,-289.429 118,-295.429 114,-301.429"/>
<text text-anchor="middle" x="133.5" y="-311.5" font-family="Helvetica,sans-Serif" font-size="10.00"> +p_argv</text>
</g>
<!-- Node4 -->
<g id="node4" class="node"><title>Node4</title>
<polygon fill="white" stroke="#bfbfbf" points="161.5,-338.5 161.5,-395.5 190.5,-395.5 190.5,-338.5 161.5,-338.5"/>
<text text-anchor="middle" x="176" y="-383.5" font-family="Helvetica,sans-Serif" font-size="10.00">int</text>
<polyline fill="none" stroke="#bfbfbf" points="161.5,-376.5 190.5,-376.5 "/>
<text text-anchor="middle" x="176" y="-364.5" font-family="Helvetica,sans-Serif" font-size="10.00"> </text>
<polyline fill="none" stroke="#bfbfbf" points="161.5,-357.5 190.5,-357.5 "/>
<text text-anchor="middle" x="176" y="-345.5" font-family="Helvetica,sans-Serif" font-size="10.00"> </text>
</g>
<!-- Node4&#45;&gt;Node1 -->
<g id="edge3" class="edge"><title>Node4&#45;&gt;Node1</title>
<path fill="none" stroke="#404040" d="M168.148,-338.137C165.22,-327.749 161.653,-315.09 157.76,-301.278"/>
<polygon fill="none" stroke="#404040" points="157.676,-300.979 152.198,-296.289 154.421,-289.429 159.898,-294.119 157.676,-300.979"/>
<text text-anchor="middle" x="182.5" y="-311.5" font-family="Helvetica,sans-Serif" font-size="10.00"> +p_argc</text>
</g>
</g>
</svg>
