<?xml version="1.0" encoding="UTF-8" standalone="no"?>
<!DOCTYPE svg PUBLIC "-//W3C//DTD SVG 1.1//EN"
 "http://www.w3.org/Graphics/SVG/1.1/DTD/svg11.dtd">
<!-- Generated by graphviz version 2.36.0 (20140111.2315)
 -->
<!-- Title: ConstantActiveTension Pages: 1 -->
<svg width="305pt" height="522pt"
 viewBox="0.00 0.00 305.00 522.00" xmlns="http://www.w3.org/2000/svg" xmlns:xlink="http://www.w3.org/1999/xlink">
<g id="graph0" class="graph" transform="scale(1 1) rotate(0) translate(4 518)">
<title>ConstantActiveTension</title>
<polygon fill="white" stroke="none" points="-4,4 -4,-518 301,-518 301,4 -4,4"/>
<!-- Node1 -->
<g id="node1" class="node"><title>Node1</title>
<polygon fill="#bfbfbf" stroke="black" points="88,-0.5 88,-123.5 236,-123.5 236,-0.5 88,-0.5"/>
<text text-anchor="middle" x="162" y="-111.5" font-family="Helvetica,sans-Serif" font-size="10.00">ConstantActiveTension</text>
<polyline fill="none" stroke="black" points="88,-104.5 236,-104.5 "/>
<text text-anchor="middle" x="162" y="-92.5" font-family="Helvetica,sans-Serif" font-size="10.00"> </text>
<polyline fill="none" stroke="black" points="88,-85.5 236,-85.5 "/>
<text text-anchor="start" x="96" y="-73.5" font-family="Helvetica,sans-Serif" font-size="10.00">+ ConstantActiveTension()</text>
<text text-anchor="start" x="96" y="-62.5" font-family="Helvetica,sans-Serif" font-size="10.00">+ SetInputParameters()</text>
<text text-anchor="start" x="96" y="-51.5" font-family="Helvetica,sans-Serif" font-size="10.00">+ SetStretchAndStretchRate()</text>
<text text-anchor="start" x="96" y="-40.5" font-family="Helvetica,sans-Serif" font-size="10.00">+ GetActiveTension()</text>
<text text-anchor="start" x="96" y="-29.5" font-family="Helvetica,sans-Serif" font-size="10.00">+ IsStretchDependent()</text>
<text text-anchor="start" x="96" y="-18.5" font-family="Helvetica,sans-Serif" font-size="10.00">+ IsStretchRateDependent()</text>
<text text-anchor="start" x="96" y="-7.5" font-family="Helvetica,sans-Serif" font-size="10.00">+ SetActiveTensionValue()</text>
</g>
<!-- Node2 -->
<g id="node2" class="node"><title>Node2</title>
<g id="a_node2"><a xlink:href="classAbstractAlgebraicContractionModel.html" target="_top" xlink:title="{AbstractAlgebraicContraction\lModel\n||+ AbstractAlgebraicContraction\lModel()\l+ RunDoNotUpdate()\l+ RunAndUpdate()\l+ GetNextActiveTension()\l+ UpdateStateVariables()\l}">
<polygon fill="white" stroke="black" points="1.5,-162.5 1.5,-285.5 154.5,-285.5 154.5,-162.5 1.5,-162.5"/>
<text text-anchor="start" x="9.5" y="-273.5" font-family="Helvetica,sans-Serif" font-size="10.00">AbstractAlgebraicContraction</text>
<text text-anchor="middle" x="78" y="-262.5" font-family="Helvetica,sans-Serif" font-size="10.00">Model</text>
<polyline fill="none" stroke="black" points="1.5,-255.5 154.5,-255.5 "/>
<text text-anchor="middle" x="78" y="-243.5" font-family="Helvetica,sans-Serif" font-size="10.00"> </text>
<polyline fill="none" stroke="black" points="1.5,-236.5 154.5,-236.5 "/>
<text text-anchor="start" x="9.5" y="-224.5" font-family="Helvetica,sans-Serif" font-size="10.00">+ AbstractAlgebraicContraction</text>
<text text-anchor="start" x="9.5" y="-213.5" font-family="Helvetica,sans-Serif" font-size="10.00">Model()</text>
<text text-anchor="start" x="9.5" y="-202.5" font-family="Helvetica,sans-Serif" font-size="10.00">+ RunDoNotUpdate()</text>
<text text-anchor="start" x="9.5" y="-191.5" font-family="Helvetica,sans-Serif" font-size="10.00">+ RunAndUpdate()</text>
<text text-anchor="start" x="9.5" y="-180.5" font-family="Helvetica,sans-Serif" font-size="10.00">+ GetNextActiveTension()</text>
<text text-anchor="start" x="9.5" y="-169.5" font-family="Helvetica,sans-Serif" font-size="10.00">+ UpdateStateVariables()</text>
</a>
</g>
</g>
<!-- Node2&#45;&gt;Node1 -->
<g id="edge1" class="edge"><title>Node2&#45;&gt;Node1</title>
<path fill="none" stroke="midnightblue" d="M114.707,-153.082C119.88,-143.229 125.162,-133.168 130.232,-123.511"/>
<polygon fill="none" stroke="midnightblue" points="111.546,-151.574 109.996,-162.054 117.744,-154.827 111.546,-151.574"/>
</g>
<!-- Node3 -->
<g id="node3" class="node"><title>Node3</title>
<g id="a_node3"><a xlink:href="classAbstractContractionModel.html" target="_top" xlink:title="{AbstractContractionModel\n||+ AbstractContractionModel()\l+ ~AbstractContractionModel()\l+ IsStretchDependent()\l+ IsStretchRateDependent()\l+ SetInputParameters()\l+ SetStretchAndStretchRate()\l+ SetStretch()\l+ RunDoNotUpdate()\l+ RunAndUpdate()\l+ UpdateStateVariables()\l+ GetActiveTension()\l+ GetNextActiveTension()\l}">
<polygon fill="white" stroke="black" points="-0.5,-335 -0.5,-513 150.5,-513 150.5,-335 -0.5,-335"/>
<text text-anchor="middle" x="75" y="-501" font-family="Helvetica,sans-Serif" font-size="10.00">AbstractContractionModel</text>
<polyline fill="none" stroke="black" points="-0.5,-494 150.5,-494 "/>
<text text-anchor="middle" x="75" y="-482" font-family="Helvetica,sans-Serif" font-size="10.00"> </text>
<polyline fill="none" stroke="black" points="-0.5,-475 150.5,-475 "/>
<text text-anchor="start" x="7.5" y="-463" font-family="Helvetica,sans-Serif" font-size="10.00">+ AbstractContractionModel()</text>
<text text-anchor="start" x="7.5" y="-452" font-family="Helvetica,sans-Serif" font-size="10.00">+ ~AbstractContractionModel()</text>
<text text-anchor="start" x="7.5" y="-441" font-family="Helvetica,sans-Serif" font-size="10.00">+ IsStretchDependent()</text>
<text text-anchor="start" x="7.5" y="-430" font-family="Helvetica,sans-Serif" font-size="10.00">+ IsStretchRateDependent()</text>
<text text-anchor="start" x="7.5" y="-419" font-family="Helvetica,sans-Serif" font-size="10.00">+ SetInputParameters()</text>
<text text-anchor="start" x="7.5" y="-408" font-family="Helvetica,sans-Serif" font-size="10.00">+ SetStretchAndStretchRate()</text>
<text text-anchor="start" x="7.5" y="-397" font-family="Helvetica,sans-Serif" font-size="10.00">+ SetStretch()</text>
<text text-anchor="start" x="7.5" y="-386" font-family="Helvetica,sans-Serif" font-size="10.00">+ RunDoNotUpdate()</text>
<text text-anchor="start" x="7.5" y="-375" font-family="Helvetica,sans-Serif" font-size="10.00">+ RunAndUpdate()</text>
<text text-anchor="start" x="7.5" y="-364" font-family="Helvetica,sans-Serif" font-size="10.00">+ UpdateStateVariables()</text>
<text text-anchor="start" x="7.5" y="-353" font-family="Helvetica,sans-Serif" font-size="10.00">+ GetActiveTension()</text>
<text text-anchor="start" x="7.5" y="-342" font-family="Helvetica,sans-Serif" font-size="10.00">+ GetNextActiveTension()</text>
</a>
</g>
</g>
<!-- Node3&#45;&gt;Node2 -->
<g id="edge2" class="edge"><title>Node3&#45;&gt;Node2</title>
<path fill="none" stroke="midnightblue" d="M76.4915,-324.561C76.693,-311.261 76.8947,-297.948 77.0821,-285.581"/>
<polygon fill="none" stroke="midnightblue" points="72.9897,-324.661 76.3377,-334.713 79.9889,-324.767 72.9897,-324.661"/>
</g>
<!-- Node4 -->
<g id="node4" class="node"><title>Node4</title>
<g id="a_node4"><a xlink:href="classdouble.html" target="_top" xlink:title="{double\n||}">
<polygon fill="white" stroke="black" points="168.5,-395.5 168.5,-452.5 213.5,-452.5 213.5,-395.5 168.5,-395.5"/>
<text text-anchor="middle" x="191" y="-440.5" font-family="Helvetica,sans-Serif" font-size="10.00">double</text>
<polyline fill="none" stroke="black" points="168.5,-433.5 213.5,-433.5 "/>
<text text-anchor="middle" x="191" y="-421.5" font-family="Helvetica,sans-Serif" font-size="10.00"> </text>
<polyline fill="none" stroke="black" points="168.5,-414.5 213.5,-414.5 "/>
<text text-anchor="middle" x="191" y="-402.5" font-family="Helvetica,sans-Serif" font-size="10.00"> </text>
</a>
</g>
</g>
<!-- Node4&#45;&gt;Node1 -->
<g id="edge4" class="edge"><title>Node4&#45;&gt;Node1</title>
<path fill="none" stroke="#404040" d="M188.773,-395.349C184.354,-340.493 174.349,-216.296 167.899,-136.232"/>
<polygon fill="none" stroke="#404040" points="167.86,-135.739 163.391,-130.08 166.896,-123.778 171.365,-129.437 167.86,-135.739"/>
<text text-anchor="middle" x="238.5" y="-221.5" font-family="Helvetica,sans-Serif" font-size="10.00"> &#45;mConstantActiveTension</text>
</g>
<!-- Node4&#45;&gt;Node2 -->
<g id="edge3" class="edge"><title>Node4&#45;&gt;Node2</title>
<path fill="none" stroke="#404040" d="M184.962,-395.191C180.036,-376.706 171.77,-352.519 159,-334 152.022,-323.88 146.129,-325.221 138,-316 132.535,-309.801 127.188,-303.068 122.079,-296.165"/>
<polygon fill="none" stroke="#404040" points="121.764,-295.726 115.019,-293.178 114.776,-285.971 121.522,-288.519 121.764,-295.726"/>
<text text-anchor="middle" x="157.5" y="-307.5" font-family="Helvetica,sans-Serif" font-size="10.00"> #mTime</text>
</g>
</g>
</svg>
