<?xml version="1.0" encoding="UTF-8" standalone="no"?>
<!DOCTYPE svg PUBLIC "-//W3C//DTD SVG 1.1//EN"
 "http://www.w3.org/Graphics/SVG/1.1/DTD/svg11.dtd">
<!-- Generated by graphviz version 2.36.0 (20140111.2315)
 -->
<!-- Title: Graphical Class Hierarchy Pages: 1 -->
<svg width="300pt" height="38pt"
 viewBox="0.00 0.00 300.00 38.00" xmlns="http://www.w3.org/2000/svg" xmlns:xlink="http://www.w3.org/1999/xlink">
<g id="graph0" class="graph" transform="scale(1 1) rotate(0) translate(4 34)">
<title>Graphical Class Hierarchy</title>
<polygon fill="white" stroke="none" points="-4,4 -4,-34 296,-34 296,4 -4,4"/>
<!-- Node1 -->
<g id="node1" class="node"><title>Node1</title>
<g id="a_node1"><a xlink:href="classCellsGenerator.html" target="_top" xlink:title="CellsGenerator\&lt; CELL\l_CYCLE_MODEL, 2 \&gt;">
<polygon fill="white" stroke="black" points="0,-0 0,-30 116,-30 116,-0 0,-0"/>
<text text-anchor="start" x="8" y="-18" font-family="Helvetica,sans-Serif" font-size="10.00">CellsGenerator&lt; CELL</text>
<text text-anchor="middle" x="58" y="-7" font-family="Helvetica,sans-Serif" font-size="10.00">_CYCLE_MODEL, 2 &gt;</text>
</a>
</g>
</g>
<!-- Node2 -->
<g id="node2" class="node"><title>Node2</title>
<g id="a_node2"><a xlink:href="classCryptCellsGenerator.html" target="_top" xlink:title="CryptCellsGenerator\l\&lt; CELL_CYCLE_MODEL \&gt;">
<polygon fill="white" stroke="black" points="152.5,-0 152.5,-30 291.5,-30 291.5,-0 152.5,-0"/>
<text text-anchor="start" x="160.5" y="-18" font-family="Helvetica,sans-Serif" font-size="10.00">CryptCellsGenerator</text>
<text text-anchor="middle" x="222" y="-7" font-family="Helvetica,sans-Serif" font-size="10.00">&lt; CELL_CYCLE_MODEL &gt;</text>
</a>
</g>
</g>
<!-- Node1&#45;&gt;Node2 -->
<g id="edge1" class="edge"><title>Node1&#45;&gt;Node2</title>
<path fill="none" stroke="midnightblue" d="M126.18,-15C134.861,-15 143.759,-15 152.462,-15"/>
<polygon fill="midnightblue" stroke="midnightblue" points="126.115,-11.5001 116.115,-15 126.115,-18.5001 126.115,-11.5001"/>
</g>
</g>
</svg>
