<?xml version="1.0" encoding="UTF-8" standalone="no"?>
<!DOCTYPE svg PUBLIC "-//W3C//DTD SVG 1.1//EN"
 "http://www.w3.org/Graphics/SVG/1.1/DTD/svg11.dtd">
<!-- Generated by graphviz version 2.36.0 (20140111.2315)
 -->
<!-- Title: Graphical Class Hierarchy Pages: 1 -->
<svg width="796pt" height="479pt"
 viewBox="0.00 0.00 796.00 479.00" xmlns="http://www.w3.org/2000/svg" xmlns:xlink="http://www.w3.org/1999/xlink">
<g id="graph0" class="graph" transform="scale(1 1) rotate(0) translate(4 475)">
<title>Graphical Class Hierarchy</title>
<polygon fill="white" stroke="none" points="-4,4 -4,-475 792,-475 792,4 -4,4"/>
<!-- Node1 -->
<g id="node1" class="node"><title>Node1</title>
<g id="a_node1"><a xlink:href="classAbstractHdf5Converter.html" target="_top" xlink:title="AbstractHdf5Converter\l\&lt; ELEMENT_DIM, SPACE_DIM \&gt;">
<polygon fill="white" stroke="black" points="412,-343 412,-373 582,-373 582,-343 412,-343"/>
<text text-anchor="start" x="420" y="-361" font-family="Helvetica,sans-Serif" font-size="10.00">AbstractHdf5Converter</text>
<text text-anchor="middle" x="497" y="-350" font-family="Helvetica,sans-Serif" font-size="10.00">&lt; ELEMENT_DIM, SPACE_DIM &gt;</text>
</a>
</g>
</g>
<!-- Node2 -->
<g id="node2" class="node"><title>Node2</title>
<g id="a_node2"><a xlink:href="classHdf5ToCmguiConverter.html" target="_top" xlink:title="Hdf5ToCmguiConverter\l\&lt; ELEMENT_DIM, SPACE_DIM \&gt;">
<polygon fill="white" stroke="black" points="618,-343 618,-373 788,-373 788,-343 618,-343"/>
<text text-anchor="start" x="626" y="-361" font-family="Helvetica,sans-Serif" font-size="10.00">Hdf5ToCmguiConverter</text>
<text text-anchor="middle" x="703" y="-350" font-family="Helvetica,sans-Serif" font-size="10.00">&lt; ELEMENT_DIM, SPACE_DIM &gt;</text>
</a>
</g>
</g>
<!-- Node1&#45;&gt;Node2 -->
<g id="edge1" class="edge"><title>Node1&#45;&gt;Node2</title>
<path fill="none" stroke="midnightblue" d="M592.402,-358C600.847,-358 609.361,-358 617.712,-358"/>
<polygon fill="midnightblue" stroke="midnightblue" points="592.152,-354.5 582.152,-358 592.152,-361.5 592.152,-354.5"/>
</g>
<!-- Node3 -->
<g id="node3" class="node"><title>Node3</title>
<g id="a_node3"><a xlink:href="classHdf5ToMeshalyzerConverter.html" target="_top" xlink:title="Hdf5ToMeshalyzerConverter\l\&lt; ELEMENT_DIM, SPACE_DIM \&gt;">
<polygon fill="white" stroke="black" points="618,-294 618,-324 788,-324 788,-294 618,-294"/>
<text text-anchor="start" x="626" y="-312" font-family="Helvetica,sans-Serif" font-size="10.00">Hdf5ToMeshalyzerConverter</text>
<text text-anchor="middle" x="703" y="-301" font-family="Helvetica,sans-Serif" font-size="10.00">&lt; ELEMENT_DIM, SPACE_DIM &gt;</text>
</a>
</g>
</g>
<!-- Node1&#45;&gt;Node3 -->
<g id="edge2" class="edge"><title>Node1&#45;&gt;Node3</title>
<path fill="none" stroke="midnightblue" d="M570.457,-340.596C593.024,-335.176 617.702,-329.248 639.525,-324.006"/>
<polygon fill="midnightblue" stroke="midnightblue" points="569.499,-337.227 560.593,-342.965 571.134,-344.033 569.499,-337.227"/>
</g>
<!-- Node4 -->
<g id="node4" class="node"><title>Node4</title>
<g id="a_node4"><a xlink:href="classHdf5ToTxtConverter.html" target="_top" xlink:title="Hdf5ToTxtConverter\l\&lt; ELEMENT_DIM, SPACE_DIM \&gt;">
<polygon fill="white" stroke="black" points="618,-441 618,-471 788,-471 788,-441 618,-441"/>
<text text-anchor="start" x="626" y="-459" font-family="Helvetica,sans-Serif" font-size="10.00">Hdf5ToTxtConverter</text>
<text text-anchor="middle" x="703" y="-448" font-family="Helvetica,sans-Serif" font-size="10.00">&lt; ELEMENT_DIM, SPACE_DIM &gt;</text>
</a>
</g>
</g>
<!-- Node1&#45;&gt;Node4 -->
<g id="edge3" class="edge"><title>Node1&#45;&gt;Node4</title>
<path fill="none" stroke="midnightblue" d="M527.685,-379.039C551.279,-395.011 585.59,-416.608 618,-431 626.344,-434.705 635.391,-438.047 644.353,-440.992"/>
<polygon fill="midnightblue" stroke="midnightblue" points="529.421,-375.985 519.193,-373.219 525.464,-381.759 529.421,-375.985"/>
</g>
<!-- Node5 -->
<g id="node5" class="node"><title>Node5</title>
<g id="a_node5"><a xlink:href="classHdf5ToVtkConverter.html" target="_top" xlink:title="Hdf5ToVtkConverter\l\&lt; ELEMENT_DIM, SPACE_DIM \&gt;">
<polygon fill="white" stroke="black" points="618,-392 618,-422 788,-422 788,-392 618,-392"/>
<text text-anchor="start" x="626" y="-410" font-family="Helvetica,sans-Serif" font-size="10.00">Hdf5ToVtkConverter</text>
<text text-anchor="middle" x="703" y="-399" font-family="Helvetica,sans-Serif" font-size="10.00">&lt; ELEMENT_DIM, SPACE_DIM &gt;</text>
</a>
</g>
</g>
<!-- Node1&#45;&gt;Node5 -->
<g id="edge4" class="edge"><title>Node1&#45;&gt;Node5</title>
<path fill="none" stroke="midnightblue" d="M570.457,-375.404C593.024,-380.824 617.702,-386.752 639.525,-391.994"/>
<polygon fill="midnightblue" stroke="midnightblue" points="571.134,-371.967 560.593,-373.035 569.499,-378.773 571.134,-371.967"/>
</g>
<!-- Node6 -->
<g id="node6" class="node"><title>Node6</title>
<g id="a_node6"><a xlink:href="classHdf5ToXdmfConverter.html" target="_top" xlink:title="Hdf5ToXdmfConverter\l\&lt; ELEMENT_DIM, SPACE_DIM \&gt;">
<polygon fill="white" stroke="black" points="618,-245 618,-275 788,-275 788,-245 618,-245"/>
<text text-anchor="start" x="626" y="-263" font-family="Helvetica,sans-Serif" font-size="10.00">Hdf5ToXdmfConverter</text>
<text text-anchor="middle" x="703" y="-252" font-family="Helvetica,sans-Serif" font-size="10.00">&lt; ELEMENT_DIM, SPACE_DIM &gt;</text>
</a>
</g>
</g>
<!-- Node1&#45;&gt;Node6 -->
<g id="edge5" class="edge"><title>Node1&#45;&gt;Node6</title>
<path fill="none" stroke="midnightblue" d="M527.685,-336.961C551.279,-320.989 585.59,-299.392 618,-285 626.344,-281.295 635.391,-277.953 644.353,-275.008"/>
<polygon fill="midnightblue" stroke="midnightblue" points="525.464,-334.241 519.193,-342.781 529.421,-340.015 525.464,-334.241"/>
</g>
<!-- Node7 -->
<g id="node7" class="node"><title>Node7</title>
<g id="a_node7"><a xlink:href="classAbstractMeshWriter.html" target="_top" xlink:title="AbstractMeshWriter\l\&lt; ELEMENT_DIM, SPACE_DIM \&gt;">
<polygon fill="white" stroke="black" points="0,-97 0,-127 170,-127 170,-97 0,-97"/>
<text text-anchor="start" x="8" y="-115" font-family="Helvetica,sans-Serif" font-size="10.00">AbstractMeshWriter</text>
<text text-anchor="middle" x="85" y="-104" font-family="Helvetica,sans-Serif" font-size="10.00">&lt; ELEMENT_DIM, SPACE_DIM &gt;</text>
</a>
</g>
</g>
<!-- Node8 -->
<g id="node8" class="node"><title>Node8</title>
<g id="a_node8"><a xlink:href="classAbstractTetrahedralMeshWriter.html" target="_top" xlink:title="AbstractTetrahedralMeshWriter\l\&lt; ELEMENT_DIM, SPACE_DIM \&gt;">
<polygon fill="white" stroke="black" points="206,-122 206,-152 376,-152 376,-122 206,-122"/>
<text text-anchor="start" x="214" y="-140" font-family="Helvetica,sans-Serif" font-size="10.00">AbstractTetrahedralMeshWriter</text>
<text text-anchor="middle" x="291" y="-129" font-family="Helvetica,sans-Serif" font-size="10.00">&lt; ELEMENT_DIM, SPACE_DIM &gt;</text>
</a>
</g>
</g>
<!-- Node7&#45;&gt;Node8 -->
<g id="edge6" class="edge"><title>Node7&#45;&gt;Node8</title>
<path fill="none" stroke="midnightblue" d="M180.124,-123.535C188.66,-124.581 197.269,-125.636 205.712,-126.671"/>
<polygon fill="midnightblue" stroke="midnightblue" points="180.504,-120.055 170.152,-122.313 179.652,-127.003 180.504,-120.055"/>
</g>
<!-- Node16 -->
<g id="node16" class="node"><title>Node16</title>
<g id="a_node16"><a xlink:href="classVertexMeshWriter.html" target="_top" xlink:title="VertexMeshWriter\&lt; ELEMENT\l_DIM, SPACE_DIM \&gt;">
<polygon fill="white" stroke="black" points="215,-73 215,-103 367,-103 367,-73 215,-73"/>
<text text-anchor="start" x="223" y="-91" font-family="Helvetica,sans-Serif" font-size="10.00">VertexMeshWriter&lt; ELEMENT</text>
<text text-anchor="middle" x="291" y="-80" font-family="Helvetica,sans-Serif" font-size="10.00">_DIM, SPACE_DIM &gt;</text>
</a>
</g>
</g>
<!-- Node7&#45;&gt;Node16 -->
<g id="edge15" class="edge"><title>Node7&#45;&gt;Node16</title>
<path fill="none" stroke="midnightblue" d="M180.288,-100.907C191.878,-99.5438 203.601,-98.1646 214.855,-96.8406"/>
<polygon fill="midnightblue" stroke="midnightblue" points="179.675,-97.4552 170.152,-102.1 180.493,-104.407 179.675,-97.4552"/>
</g>
<!-- Node9 -->
<g id="node9" class="node"><title>Node9</title>
<g id="a_node9"><a xlink:href="classCmguiMeshWriter.html" target="_top" xlink:title="CmguiMeshWriter\&lt; ELEMENT\l_DIM, SPACE_DIM \&gt;">
<polygon fill="white" stroke="black" points="421,-196 421,-226 573,-226 573,-196 421,-196"/>
<text text-anchor="start" x="429" y="-214" font-family="Helvetica,sans-Serif" font-size="10.00">CmguiMeshWriter&lt; ELEMENT</text>
<text text-anchor="middle" x="497" y="-203" font-family="Helvetica,sans-Serif" font-size="10.00">_DIM, SPACE_DIM &gt;</text>
</a>
</g>
</g>
<!-- Node8&#45;&gt;Node9 -->
<g id="edge7" class="edge"><title>Node8&#45;&gt;Node9</title>
<path fill="none" stroke="midnightblue" d="M335.63,-156.024C358.219,-165.565 386.369,-176.977 412,-186 421.76,-189.436 432.261,-192.81 442.422,-195.913"/>
<polygon fill="midnightblue" stroke="midnightblue" points="336.884,-152.754 326.312,-152.062 334.145,-159.196 336.884,-152.754"/>
</g>
<!-- Node10 -->
<g id="node10" class="node"><title>Node10</title>
<g id="a_node10"><a xlink:href="classCmguiMeshWriter.html" target="_top" xlink:title="CmguiMeshWriter\&lt; DIM,\l DIM \&gt;">
<polygon fill="white" stroke="black" points="434,-147 434,-177 560,-177 560,-147 434,-147"/>
<text text-anchor="start" x="442" y="-165" font-family="Helvetica,sans-Serif" font-size="10.00">CmguiMeshWriter&lt; DIM,</text>
<text text-anchor="middle" x="497" y="-154" font-family="Helvetica,sans-Serif" font-size="10.00"> DIM &gt;</text>
</a>
</g>
</g>
<!-- Node8&#45;&gt;Node10 -->
<g id="edge8" class="edge"><title>Node8&#45;&gt;Node10</title>
<path fill="none" stroke="midnightblue" d="M386.176,-148.541C402.353,-150.524 418.794,-152.538 433.858,-154.385"/>
<polygon fill="midnightblue" stroke="midnightblue" points="386.504,-145.055 376.152,-147.313 385.652,-152.003 386.504,-145.055"/>
</g>
<!-- Node12 -->
<g id="node12" class="node"><title>Node12</title>
<g id="a_node12"><a xlink:href="classMeshalyzerMeshWriter.html" target="_top" xlink:title="MeshalyzerMeshWriter\l\&lt; ELEMENT_DIM, SPACE_DIM \&gt;">
<polygon fill="white" stroke="black" points="412,-98 412,-128 582,-128 582,-98 412,-98"/>
<text text-anchor="start" x="420" y="-116" font-family="Helvetica,sans-Serif" font-size="10.00">MeshalyzerMeshWriter</text>
<text text-anchor="middle" x="497" y="-105" font-family="Helvetica,sans-Serif" font-size="10.00">&lt; ELEMENT_DIM, SPACE_DIM &gt;</text>
</a>
</g>
</g>
<!-- Node8&#45;&gt;Node12 -->
<g id="edge10" class="edge"><title>Node8&#45;&gt;Node12</title>
<path fill="none" stroke="midnightblue" d="M386.124,-125.927C394.66,-124.922 403.269,-123.91 411.712,-122.916"/>
<polygon fill="midnightblue" stroke="midnightblue" points="385.675,-122.455 376.152,-127.1 386.493,-129.407 385.675,-122.455"/>
</g>
<!-- Node13 -->
<g id="node13" class="node"><title>Node13</title>
<g id="a_node13"><a xlink:href="classTrianglesMeshWriter.html" target="_top" xlink:title="TrianglesMeshWriter\l\&lt; ELEMENT_DIM, SPACE_DIM \&gt;">
<polygon fill="white" stroke="black" points="412,-49 412,-79 582,-79 582,-49 412,-49"/>
<text text-anchor="start" x="420" y="-67" font-family="Helvetica,sans-Serif" font-size="10.00">TrianglesMeshWriter</text>
<text text-anchor="middle" x="497" y="-56" font-family="Helvetica,sans-Serif" font-size="10.00">&lt; ELEMENT_DIM, SPACE_DIM &gt;</text>
</a>
</g>
</g>
<!-- Node8&#45;&gt;Node13 -->
<g id="edge11" class="edge"><title>Node8&#45;&gt;Node13</title>
<path fill="none" stroke="midnightblue" d="M360.386,-118.54C365.743,-116.523 371.007,-114.343 376,-112 393.409,-103.833 394.546,-96.0713 412,-88 419.158,-84.6897 426.875,-81.7339 434.626,-79.1253"/>
<polygon fill="midnightblue" stroke="midnightblue" points="358.928,-115.344 350.68,-121.995 361.275,-121.939 358.928,-115.344"/>
</g>
<!-- Node14 -->
<g id="node14" class="node"><title>Node14</title>
<g id="a_node14"><a xlink:href="classVtkMeshWriter.html" target="_top" xlink:title="VtkMeshWriter\&lt; ELEMENT\l_DIM, SPACE_DIM \&gt;">
<polygon fill="white" stroke="black" points="428,-0 428,-30 566,-30 566,-0 428,-0"/>
<text text-anchor="start" x="436" y="-18" font-family="Helvetica,sans-Serif" font-size="10.00">VtkMeshWriter&lt; ELEMENT</text>
<text text-anchor="middle" x="497" y="-7" font-family="Helvetica,sans-Serif" font-size="10.00">_DIM, SPACE_DIM &gt;</text>
</a>
</g>
</g>
<!-- Node8&#45;&gt;Node14 -->
<g id="edge12" class="edge"><title>Node8&#45;&gt;Node14</title>
<path fill="none" stroke="midnightblue" d="M369.745,-116.694C371.923,-115.237 374.016,-113.674 376,-112 403.646,-88.6689 384.226,-62.1791 412,-39 416.774,-35.0156 422.174,-31.6918 427.876,-28.9193"/>
<polygon fill="midnightblue" stroke="midnightblue" points="367.844,-113.751 360.97,-121.814 371.371,-119.798 367.844,-113.751"/>
</g>
<!-- Node15 -->
<g id="node15" class="node"><title>Node15</title>
<g id="a_node15"><a xlink:href="classXdmfMeshWriter.html" target="_top" xlink:title="XdmfMeshWriter\&lt; ELEMENT\l_DIM, SPACE_DIM \&gt;">
<polygon fill="white" stroke="black" points="424,-245 424,-275 570,-275 570,-245 424,-245"/>
<text text-anchor="start" x="432" y="-263" font-family="Helvetica,sans-Serif" font-size="10.00">XdmfMeshWriter&lt; ELEMENT</text>
<text text-anchor="middle" x="497" y="-252" font-family="Helvetica,sans-Serif" font-size="10.00">_DIM, SPACE_DIM &gt;</text>
</a>
</g>
</g>
<!-- Node8&#45;&gt;Node15 -->
<g id="edge13" class="edge"><title>Node8&#45;&gt;Node15</title>
<path fill="none" stroke="midnightblue" d="M313.872,-159.46C336.544,-181.562 373.939,-214.843 412,-235 419.127,-238.774 426.903,-242.057 434.754,-244.891"/>
<polygon fill="midnightblue" stroke="midnightblue" points="316.058,-156.699 306.49,-152.149 311.132,-161.672 316.058,-156.699"/>
</g>
<!-- Node11 -->
<g id="node11" class="node"><title>Node11</title>
<g id="a_node11"><a xlink:href="classCmguiDeformedSolutionsWriter.html" target="_top" xlink:title="CmguiDeformedSolutionsWriter\l\&lt; DIM \&gt;">
<polygon fill="white" stroke="black" points="625.5,-147 625.5,-177 780.5,-177 780.5,-147 625.5,-147"/>
<text text-anchor="start" x="633.5" y="-165" font-family="Helvetica,sans-Serif" font-size="10.00">CmguiDeformedSolutionsWriter</text>
<text text-anchor="middle" x="703" y="-154" font-family="Helvetica,sans-Serif" font-size="10.00">&lt; DIM &gt;</text>
</a>
</g>
</g>
<!-- Node10&#45;&gt;Node11 -->
<g id="edge9" class="edge"><title>Node10&#45;&gt;Node11</title>
<path fill="none" stroke="midnightblue" d="M570.132,-162C588.065,-162 607.349,-162 625.485,-162"/>
<polygon fill="midnightblue" stroke="midnightblue" points="570.038,-158.5 560.038,-162 570.038,-165.5 570.038,-158.5"/>
</g>
<!-- Node15&#45;&gt;Node6 -->
<g id="edge14" class="edge"><title>Node15&#45;&gt;Node6</title>
<path fill="none" stroke="midnightblue" d="M580.414,-260C592.693,-260 605.364,-260 617.681,-260"/>
<polygon fill="midnightblue" stroke="midnightblue" points="580.21,-256.5 570.21,-260 580.21,-263.5 580.21,-256.5"/>
</g>
</g>
</svg>
