<?xml version="1.0" encoding="UTF-8" standalone="no"?>
<!DOCTYPE svg PUBLIC "-//W3C//DTD SVG 1.1//EN"
 "http://www.w3.org/Graphics/SVG/1.1/DTD/svg11.dtd">
<!-- Generated by graphviz version 2.36.0 (20140111.2315)
 -->
<!-- Title: global/src/checkpointing/SerializationExportWrapperForCpp.hpp Pages: 1 -->
<svg width="7873pt" height="128pt"
 viewBox="0.00 0.00 7873.00 128.00" xmlns="http://www.w3.org/2000/svg" xmlns:xlink="http://www.w3.org/1999/xlink">
<g id="graph0" class="graph" transform="scale(1 1) rotate(0) translate(4 124)">
<title>global/src/checkpointing/SerializationExportWrapperForCpp.hpp</title>
<polygon fill="white" stroke="none" points="-4,4 -4,-124 7869,-124 7869,4 -4,4"/>
<!-- Node1 -->
<g id="node1" class="node"><title>Node1</title>
<polygon fill="#bfbfbf" stroke="black" points="3786,-78.5 3786,-119.5 3938,-119.5 3938,-78.5 3786,-78.5"/>
<text text-anchor="start" x="3794" y="-107.5" font-family="Helvetica,sans-Serif" font-size="10.00">global/src/checkpointing</text>
<text text-anchor="start" x="3794" y="-96.5" font-family="Helvetica,sans-Serif" font-size="10.00">/SerializationExportWrapperFor</text>
<text text-anchor="middle" x="3862" y="-85.5" font-family="Helvetica,sans-Serif" font-size="10.00">Cpp.hpp</text>
</g>
<!-- Node2 -->
<g id="node2" class="node"><title>Node2</title>
<g id="a_node2"><a xlink:href="FakeBathCell_8cpp_source.html" target="_top" xlink:title="heart/src/odes/ionicmodels\l/FakeBathCell.cpp">
<polygon fill="white" stroke="black" points="0,-6 0,-36 134,-36 134,-6 0,-6"/>
<text text-anchor="start" x="8" y="-24" font-family="Helvetica,sans-Serif" font-size="10.00">heart/src/odes/ionicmodels</text>
<text text-anchor="middle" x="67" y="-13" font-family="Helvetica,sans-Serif" font-size="10.00">/FakeBathCell.cpp</text>
</a>
</g>
</g>
<!-- Node1&#45;&gt;Node2 -->
<g id="edge1" class="edge"><title>Node1&#45;&gt;Node2</title>
<path fill="none" stroke="midnightblue" d="M3775.84,-97.9531C3252.77,-97.502 513.101,-92.7181 143,-42 133.268,-40.6663 122.998,-38.5007 113.263,-36.0768"/>
<polygon fill="midnightblue" stroke="midnightblue" points="3775.96,-101.453 3785.96,-97.9615 3775.96,-94.4531 3775.96,-101.453"/>
</g>
<!-- Node3 -->
<g id="node3" class="node"><title>Node3</title>
<g id="a_node3"><a xlink:href="NobleVargheseKohlNoble1998WithSac_8cpp_source.html" target="_top" xlink:title="heart/src/odes/ionicmodels\l/NobleVargheseKohlNoble1998With\lSac.cpp">
<polygon fill="white" stroke="black" points="152.5,-0.5 152.5,-41.5 325.5,-41.5 325.5,-0.5 152.5,-0.5"/>
<text text-anchor="start" x="160.5" y="-29.5" font-family="Helvetica,sans-Serif" font-size="10.00">heart/src/odes/ionicmodels</text>
<text text-anchor="start" x="160.5" y="-18.5" font-family="Helvetica,sans-Serif" font-size="10.00">/NobleVargheseKohlNoble1998With</text>
<text text-anchor="middle" x="239" y="-7.5" font-family="Helvetica,sans-Serif" font-size="10.00">Sac.cpp</text>
</a>
</g>
</g>
<!-- Node1&#45;&gt;Node3 -->
<g id="edge2" class="edge"><title>Node1&#45;&gt;Node3</title>
<path fill="none" stroke="midnightblue" d="M3775.48,-97.6199C3267.68,-95.2567 685.045,-81.37 334,-42 331.236,-41.6901 328.434,-41.337 325.61,-40.9476"/>
<polygon fill="midnightblue" stroke="midnightblue" points="3775.65,-101.121 3785.67,-97.667 3775.68,-94.1207 3775.65,-101.121"/>
</g>
<!-- Node4 -->
<g id="node4" class="node"><title>Node4</title>
<g id="a_node4"><a xlink:href="CorriasBuistICCModified_8cpp_source.html" target="_top" xlink:title="heart/src/odes/ionicmodels\l/noncardiac/CorriasBuistICCModified.cpp">
<polygon fill="white" stroke="black" points="343.5,-6 343.5,-36 540.5,-36 540.5,-6 343.5,-6"/>
<text text-anchor="start" x="351.5" y="-24" font-family="Helvetica,sans-Serif" font-size="10.00">heart/src/odes/ionicmodels</text>
<text text-anchor="middle" x="442" y="-13" font-family="Helvetica,sans-Serif" font-size="10.00">/noncardiac/CorriasBuistICCModified.cpp</text>
</a>
</g>
</g>
<!-- Node1&#45;&gt;Node4 -->
<g id="edge3" class="edge"><title>Node1&#45;&gt;Node4</title>
<path fill="none" stroke="midnightblue" d="M3775.75,-97.3997C3287.33,-93.886 878.821,-74.995 550,-42 536.339,-40.6292 521.819,-38.4475 508.005,-36.0193"/>
<polygon fill="midnightblue" stroke="midnightblue" points="3775.88,-100.901 3785.9,-97.4725 3775.93,-93.9008 3775.88,-100.901"/>
</g>
<!-- Node5 -->
<g id="node5" class="node"><title>Node5</title>
<g id="a_node5"><a xlink:href="CorriasBuistSMCModified_8cpp_source.html" target="_top" xlink:title="heart/src/odes/ionicmodels\l/noncardiac/CorriasBuistSMCModified.cpp">
<polygon fill="white" stroke="black" points="559,-6 559,-36 761,-36 761,-6 559,-6"/>
<text text-anchor="start" x="567" y="-24" font-family="Helvetica,sans-Serif" font-size="10.00">heart/src/odes/ionicmodels</text>
<text text-anchor="middle" x="660" y="-13" font-family="Helvetica,sans-Serif" font-size="10.00">/noncardiac/CorriasBuistSMCModified.cpp</text>
</a>
</g>
</g>
<!-- Node1&#45;&gt;Node5 -->
<g id="edge4" class="edge"><title>Node1&#45;&gt;Node5</title>
<path fill="none" stroke="midnightblue" d="M3775.8,-98.3237C3340.04,-99.6724 1376.62,-102.241 770,-42 756.093,-40.619 741.307,-38.4327 727.238,-36.0034"/>
<polygon fill="midnightblue" stroke="midnightblue" points="3775.82,-101.824 3785.81,-98.2921 3775.8,-94.8238 3775.82,-101.824"/>
</g>
<!-- Node6 -->
<g id="node6" class="node"><title>Node6</title>
<g id="a_node6"><a xlink:href="DummyModifier_8cpp_source.html" target="_top" xlink:title="heart/src/odes/modifiers\l/DummyModifier.cpp">
<polygon fill="white" stroke="black" points="779,-6 779,-36 901,-36 901,-6 779,-6"/>
<text text-anchor="start" x="787" y="-24" font-family="Helvetica,sans-Serif" font-size="10.00">heart/src/odes/modifiers</text>
<text text-anchor="middle" x="840" y="-13" font-family="Helvetica,sans-Serif" font-size="10.00">/DummyModifier.cpp</text>
</a>
</g>
</g>
<!-- Node1&#45;&gt;Node6 -->
<g id="edge5" class="edge"><title>Node1&#45;&gt;Node6</title>
<path fill="none" stroke="midnightblue" d="M3775.71,-97.6957C3319.59,-95.9088 1199.28,-85.3169 910,-42 901,-40.6524 891.526,-38.4808 882.555,-36.0553"/>
<polygon fill="midnightblue" stroke="midnightblue" points="3775.84,-101.196 3785.86,-97.7351 3775.87,-94.1962 3775.84,-101.196"/>
</g>
<!-- Node7 -->
<g id="node7" class="node"><title>Node7</title>
<g id="a_node7"><a xlink:href="FactorModifier_8cpp_source.html" target="_top" xlink:title="heart/src/odes/modifiers\l/FactorModifier.cpp">
<polygon fill="white" stroke="black" points="919,-6 919,-36 1041,-36 1041,-6 919,-6"/>
<text text-anchor="start" x="927" y="-24" font-family="Helvetica,sans-Serif" font-size="10.00">heart/src/odes/modifiers</text>
<text text-anchor="middle" x="980" y="-13" font-family="Helvetica,sans-Serif" font-size="10.00">/FactorModifier.cpp</text>
</a>
</g>
</g>
<!-- Node1&#45;&gt;Node7 -->
<g id="edge6" class="edge"><title>Node1&#45;&gt;Node7</title>
<path fill="none" stroke="midnightblue" d="M3775.54,-97.6069C3332.26,-95.4134 1324.66,-83.2596 1050,-42 1041,-40.6481 1031.53,-38.4747 1022.56,-36.0487"/>
<polygon fill="midnightblue" stroke="midnightblue" points="3775.7,-101.108 3785.72,-97.6569 3775.73,-94.1077 3775.7,-101.108"/>
</g>
<!-- Node8 -->
<g id="node8" class="node"><title>Node8</title>
<g id="a_node8"><a xlink:href="FixedModifier_8cpp_source.html" target="_top" xlink:title="heart/src/odes/modifiers\l/FixedModifier.cpp">
<polygon fill="white" stroke="black" points="1059,-6 1059,-36 1181,-36 1181,-6 1059,-6"/>
<text text-anchor="start" x="1067" y="-24" font-family="Helvetica,sans-Serif" font-size="10.00">heart/src/odes/modifiers</text>
<text text-anchor="middle" x="1120" y="-13" font-family="Helvetica,sans-Serif" font-size="10.00">/FixedModifier.cpp</text>
</a>
</g>
</g>
<!-- Node1&#45;&gt;Node8 -->
<g id="edge7" class="edge"><title>Node1&#45;&gt;Node8</title>
<path fill="none" stroke="midnightblue" d="M3775.7,-97.5106C3346.28,-94.8981 1450.12,-81.2147 1190,-42 1181,-40.6434 1171.53,-38.4679 1162.56,-36.0414"/>
<polygon fill="midnightblue" stroke="midnightblue" points="3775.85,-101.011 3785.87,-97.5721 3775.89,-94.0116 3775.85,-101.011"/>
</g>
<!-- Node9 -->
<g id="node9" class="node"><title>Node9</title>
<g id="a_node9"><a xlink:href="TimeModifier_8cpp_source.html" target="_top" xlink:title="heart/src/odes/modifiers\l/TimeModifier.cpp">
<polygon fill="white" stroke="black" points="1199,-6 1199,-36 1321,-36 1321,-6 1199,-6"/>
<text text-anchor="start" x="1207" y="-24" font-family="Helvetica,sans-Serif" font-size="10.00">heart/src/odes/modifiers</text>
<text text-anchor="middle" x="1260" y="-13" font-family="Helvetica,sans-Serif" font-size="10.00">/TimeModifier.cpp</text>
</a>
</g>
</g>
<!-- Node1&#45;&gt;Node9 -->
<g id="edge8" class="edge"><title>Node1&#45;&gt;Node9</title>
<path fill="none" stroke="midnightblue" d="M3775.86,-97.404C3360.64,-94.3547 1575.61,-79.1722 1330,-42 1321,-40.6382 1311.53,-38.4604 1302.56,-36.0333"/>
<polygon fill="midnightblue" stroke="midnightblue" points="3775.97,-100.905 3786,-97.478 3776.03,-93.905 3775.97,-100.905"/>
</g>
<!-- Node10 -->
<g id="node10" class="node"><title>Node10</title>
<g id="a_node10"><a xlink:href="ActivationOutputModifier_8cpp_source.html" target="_top" xlink:title="heart/src/problem/Activation\lOutputModifier.cpp">
<polygon fill="white" stroke="black" points="1339.5,-6 1339.5,-36 1478.5,-36 1478.5,-6 1339.5,-6"/>
<text text-anchor="start" x="1347.5" y="-24" font-family="Helvetica,sans-Serif" font-size="10.00">heart/src/problem/Activation</text>
<text text-anchor="middle" x="1409" y="-13" font-family="Helvetica,sans-Serif" font-size="10.00">OutputModifier.cpp</text>
</a>
</g>
</g>
<!-- Node1&#45;&gt;Node10 -->
<g id="edge9" class="edge"><title>Node1&#45;&gt;Node10</title>
<path fill="none" stroke="midnightblue" d="M3775.77,-97.1126C3376.57,-92.8495 1717.7,-73.3795 1488,-42 1477.91,-40.6212 1467.24,-38.436 1457.13,-36.007"/>
<polygon fill="midnightblue" stroke="midnightblue" points="3775.77,-100.613 3785.8,-97.2194 3775.84,-93.6131 3775.77,-100.613"/>
</g>
<!-- Node11 -->
<g id="node11" class="node"><title>Node11</title>
<g id="a_node11"><a xlink:href="BidomainProblem_8cpp_source.html" target="_top" xlink:title="heart/src/problem/Bidomain\lProblem.cpp">
<polygon fill="white" stroke="black" points="1497,-6 1497,-36 1633,-36 1633,-6 1497,-6"/>
<text text-anchor="start" x="1505" y="-24" font-family="Helvetica,sans-Serif" font-size="10.00">heart/src/problem/Bidomain</text>
<text text-anchor="middle" x="1565" y="-13" font-family="Helvetica,sans-Serif" font-size="10.00">Problem.cpp</text>
</a>
</g>
</g>
<!-- Node1&#45;&gt;Node11 -->
<g id="edge10" class="edge"><title>Node1&#45;&gt;Node11</title>
<path fill="none" stroke="midnightblue" d="M3775.56,-98.4592C3419.47,-99.9437 2065.07,-101.478 1642,-42 1632.29,-40.6348 1622.04,-38.4884 1612.3,-36.0993"/>
<polygon fill="midnightblue" stroke="midnightblue" points="3775.82,-101.958 3785.8,-98.4154 3775.79,-94.9583 3775.82,-101.958"/>
</g>
<!-- Node12 -->
<g id="node12" class="node"><title>Node12</title>
<g id="a_node12"><a xlink:href="BidomainWithBathProblem_8cpp_source.html" target="_top" xlink:title="heart/src/problem/Bidomain\lWithBathProblem.cpp">
<polygon fill="white" stroke="black" points="1651,-6 1651,-36 1787,-36 1787,-6 1651,-6"/>
<text text-anchor="start" x="1659" y="-24" font-family="Helvetica,sans-Serif" font-size="10.00">heart/src/problem/Bidomain</text>
<text text-anchor="middle" x="1719" y="-13" font-family="Helvetica,sans-Serif" font-size="10.00">WithBathProblem.cpp</text>
</a>
</g>
</g>
<!-- Node1&#45;&gt;Node12 -->
<g id="edge11" class="edge"><title>Node1&#45;&gt;Node12</title>
<path fill="none" stroke="midnightblue" d="M3775.95,-98.2674C3436.2,-98.9206 2187.5,-97.4156 1796,-42 1786.29,-40.6257 1776.04,-38.4753 1766.31,-36.085"/>
<polygon fill="midnightblue" stroke="midnightblue" points="3775.98,-101.767 3785.98,-98.2469 3775.97,-94.7674 3775.98,-101.767"/>
</g>
<!-- Node13 -->
<g id="node13" class="node"><title>Node13</title>
<g id="a_node13"><a xlink:href="Electrodes_8cpp_source.html" target="_top" xlink:title="heart/src/problem/Electrodes.cpp">
<polygon fill="white" stroke="black" points="1805.5,-11.5 1805.5,-30.5 1966.5,-30.5 1966.5,-11.5 1805.5,-11.5"/>
<text text-anchor="middle" x="1886" y="-18.5" font-family="Helvetica,sans-Serif" font-size="10.00">heart/src/problem/Electrodes.cpp</text>
</a>
</g>
</g>
<!-- Node1&#45;&gt;Node13 -->
<g id="edge12" class="edge"><title>Node1&#45;&gt;Node13</title>
<path fill="none" stroke="midnightblue" d="M3775.81,-97.632C3455.03,-95.9217 2330.46,-86.7945 1975,-42 1955.52,-39.5447 1934.03,-34.7756 1917.05,-30.5103"/>
<polygon fill="midnightblue" stroke="midnightblue" points="3775.96,-101.133 3785.98,-97.6851 3776,-94.1328 3775.96,-101.133"/>
</g>
<!-- Node14 -->
<g id="node14" class="node"><title>Node14</title>
<g id="a_node14"><a xlink:href="ExtendedBidomainProblem_8cpp_source.html" target="_top" xlink:title="heart/src/problem/Extended\lBidomainProblem.cpp">
<polygon fill="white" stroke="black" points="1984.5,-6 1984.5,-36 2121.5,-36 2121.5,-6 1984.5,-6"/>
<text text-anchor="start" x="1992.5" y="-24" font-family="Helvetica,sans-Serif" font-size="10.00">heart/src/problem/Extended</text>
<text text-anchor="middle" x="2053" y="-13" font-family="Helvetica,sans-Serif" font-size="10.00">BidomainProblem.cpp</text>
</a>
</g>
</g>
<!-- Node1&#45;&gt;Node14 -->
<g id="edge13" class="edge"><title>Node1&#45;&gt;Node14</title>
<path fill="none" stroke="midnightblue" d="M3775.78,-97.7393C3472.08,-96.4267 2452.95,-88.5727 2130,-42 2120.29,-40.6003 2110.05,-38.4386 2100.31,-36.0453"/>
<polygon fill="midnightblue" stroke="midnightblue" points="3775.83,-101.239 3785.85,-97.7816 3775.86,-94.2396 3775.83,-101.239"/>
</g>
<!-- Node15 -->
<g id="node15" class="node"><title>Node15</title>
<g id="a_node15"><a xlink:href="HeartConfig_8cpp_source.html" target="_top" xlink:title="heart/src/problem/HeartConfig.cpp">
<polygon fill="white" stroke="black" points="2139.5,-11.5 2139.5,-30.5 2306.5,-30.5 2306.5,-11.5 2139.5,-11.5"/>
<text text-anchor="middle" x="2223" y="-18.5" font-family="Helvetica,sans-Serif" font-size="10.00">heart/src/problem/HeartConfig.cpp</text>
</a>
</g>
</g>
<!-- Node1&#45;&gt;Node15 -->
<g id="edge14" class="edge"><title>Node1&#45;&gt;Node15</title>
<path fill="none" stroke="midnightblue" d="M3775.66,-96.8967C3493.6,-92.9742 2600.95,-77.9665 2315,-42 2295.05,-39.491 2273.04,-34.776 2255.54,-30.554"/>
<polygon fill="midnightblue" stroke="midnightblue" points="3775.79,-100.399 3785.84,-97.037 3775.89,-93.3993 3775.79,-100.399"/>
</g>
<!-- Node16 -->
<g id="node16" class="node"><title>Node16</title>
<g id="a_node16"><a xlink:href="MonodomainProblem_8cpp_source.html" target="_top" xlink:title="heart/src/problem/Monodomain\lProblem.cpp">
<polygon fill="white" stroke="black" points="2324.5,-6 2324.5,-36 2475.5,-36 2475.5,-6 2324.5,-6"/>
<text text-anchor="start" x="2332.5" y="-24" font-family="Helvetica,sans-Serif" font-size="10.00">heart/src/problem/Monodomain</text>
<text text-anchor="middle" x="2400" y="-13" font-family="Helvetica,sans-Serif" font-size="10.00">Problem.cpp</text>
</a>
</g>
</g>
<!-- Node1&#45;&gt;Node16 -->
<g id="edge15" class="edge"><title>Node1&#45;&gt;Node16</title>
<path fill="none" stroke="midnightblue" d="M3775.4,-96.669C3513.94,-92.3047 2735.17,-76.6736 2484,-42 2473.6,-40.565 2462.61,-38.4194 2452.13,-36.0591"/>
<polygon fill="midnightblue" stroke="midnightblue" points="3775.54,-100.172 3785.6,-96.8379 3775.65,-93.1727 3775.54,-100.172"/>
</g>
<!-- Node17 -->
<g id="node17" class="node"><title>Node17</title>
<g id="a_node17"><a xlink:href="MonodomainPurkinjeProblem_8cpp_source.html" target="_top" xlink:title="heart/src/problem/Monodomain\lPurkinjeProblem.cpp">
<polygon fill="white" stroke="black" points="2493.5,-6 2493.5,-36 2644.5,-36 2644.5,-6 2493.5,-6"/>
<text text-anchor="start" x="2501.5" y="-24" font-family="Helvetica,sans-Serif" font-size="10.00">heart/src/problem/Monodomain</text>
<text text-anchor="middle" x="2569" y="-13" font-family="Helvetica,sans-Serif" font-size="10.00">PurkinjeProblem.cpp</text>
</a>
</g>
</g>
<!-- Node1&#45;&gt;Node17 -->
<g id="edge16" class="edge"><title>Node1&#45;&gt;Node17</title>
<path fill="none" stroke="midnightblue" d="M3775.92,-96.0776C3537.35,-90.4203 2871.03,-72.2982 2654,-42 2643.49,-40.5328 2632.37,-38.3726 2621.77,-36.008"/>
<polygon fill="midnightblue" stroke="midnightblue" points="3775.85,-99.5769 3785.93,-96.3137 3776.02,-92.5789 3775.85,-99.5769"/>
</g>
<!-- Node18 -->
<g id="node18" class="node"><title>Node18</title>
<g id="a_node18"><a xlink:href="SingleTraceOutputModifier_8cpp_source.html" target="_top" xlink:title="heart/src/problem/Single\lTraceOutputModifier.cpp">
<polygon fill="white" stroke="black" points="2663,-6 2663,-36 2787,-36 2787,-6 2663,-6"/>
<text text-anchor="start" x="2671" y="-24" font-family="Helvetica,sans-Serif" font-size="10.00">heart/src/problem/Single</text>
<text text-anchor="middle" x="2725" y="-13" font-family="Helvetica,sans-Serif" font-size="10.00">TraceOutputModifier.cpp</text>
</a>
</g>
</g>
<!-- Node1&#45;&gt;Node18 -->
<g id="edge17" class="edge"><title>Node1&#45;&gt;Node18</title>
<path fill="none" stroke="midnightblue" d="M3775.82,-95.9404C3556.97,-90.3143 2983.87,-72.9992 2796,-42 2787.16,-40.5406 2777.84,-38.3839 2768.97,-36.0205"/>
<polygon fill="midnightblue" stroke="midnightblue" points="3775.88,-99.4431 3785.97,-96.1994 3776.06,-92.4453 3775.88,-99.4431"/>
</g>
<!-- Node19 -->
<g id="node19" class="node"><title>Node19</title>
<g id="a_node19"><a xlink:href="MultiStimulus_8cpp_source.html" target="_top" xlink:title="heart/src/stimulus\l/MultiStimulus.cpp">
<polygon fill="white" stroke="black" points="2805,-6 2805,-36 2903,-36 2903,-6 2805,-6"/>
<text text-anchor="start" x="2813" y="-24" font-family="Helvetica,sans-Serif" font-size="10.00">heart/src/stimulus</text>
<text text-anchor="middle" x="2854" y="-13" font-family="Helvetica,sans-Serif" font-size="10.00">/MultiStimulus.cpp</text>
</a>
</g>
</g>
<!-- Node1&#45;&gt;Node19 -->
<g id="edge18" class="edge"><title>Node1&#45;&gt;Node19</title>
<path fill="none" stroke="midnightblue" d="M3775.57,-95.9209C3573.7,-90.5772 3075.88,-74.448 2912,-42 2904.69,-40.5519 2897.04,-38.4003 2889.78,-36.0383"/>
<polygon fill="midnightblue" stroke="midnightblue" points="3775.74,-99.4265 3785.83,-96.1899 3775.93,-92.4289 3775.74,-99.4265"/>
</g>
<!-- Node20 -->
<g id="node20" class="node"><title>Node20</title>
<g id="a_node20"><a xlink:href="RegularStimulus_8cpp_source.html" target="_top" xlink:title="heart/src/stimulus\l/RegularStimulus.cpp">
<polygon fill="white" stroke="black" points="2921,-6 2921,-36 3031,-36 3031,-6 2921,-6"/>
<text text-anchor="start" x="2929" y="-24" font-family="Helvetica,sans-Serif" font-size="10.00">heart/src/stimulus</text>
<text text-anchor="middle" x="2976" y="-13" font-family="Helvetica,sans-Serif" font-size="10.00">/RegularStimulus.cpp</text>
</a>
</g>
</g>
<!-- Node1&#45;&gt;Node20 -->
<g id="edge19" class="edge"><title>Node1&#45;&gt;Node20</title>
<path fill="none" stroke="midnightblue" d="M3775.77,-98.7425C3625.15,-98.5744 3304.89,-91.6964 3040,-42 3032.11,-40.5189 3023.82,-38.3833 3015.92,-36.0535"/>
<polygon fill="midnightblue" stroke="midnightblue" points="3775.89,-102.242 3785.89,-98.7439 3775.89,-95.2424 3775.89,-102.242"/>
</g>
<!-- Node21 -->
<g id="node21" class="node"><title>Node21</title>
<g id="a_node21"><a xlink:href="RegularStimulusZeroNetCharge_8cpp_source.html" target="_top" xlink:title="heart/src/stimulus\l/RegularStimulusZeroNetCharge.cpp">
<polygon fill="white" stroke="black" points="3049.5,-6 3049.5,-36 3226.5,-36 3226.5,-6 3049.5,-6"/>
<text text-anchor="start" x="3057.5" y="-24" font-family="Helvetica,sans-Serif" font-size="10.00">heart/src/stimulus</text>
<text text-anchor="middle" x="3138" y="-13" font-family="Helvetica,sans-Serif" font-size="10.00">/RegularStimulusZeroNetCharge.cpp</text>
</a>
</g>
</g>
<!-- Node1&#45;&gt;Node21 -->
<g id="edge20" class="edge"><title>Node1&#45;&gt;Node21</title>
<path fill="none" stroke="midnightblue" d="M3775.58,-93.4135C3654.32,-86.2672 3427,-70.2729 3235,-42 3223.86,-40.3592 3212.07,-38.2488 3200.69,-36.0164"/>
<polygon fill="midnightblue" stroke="midnightblue" points="3775.72,-96.9277 3785.91,-94.0159 3776.13,-89.9396 3775.72,-96.9277"/>
</g>
<!-- Node22 -->
<g id="node22" class="node"><title>Node22</title>
<g id="a_node22"><a xlink:href="S1S2Stimulus_8cpp_source.html" target="_top" xlink:title="heart/src/stimulus\l/S1S2Stimulus.cpp">
<polygon fill="white" stroke="black" points="3244.5,-6 3244.5,-36 3345.5,-36 3345.5,-6 3244.5,-6"/>
<text text-anchor="start" x="3252.5" y="-24" font-family="Helvetica,sans-Serif" font-size="10.00">heart/src/stimulus</text>
<text text-anchor="middle" x="3295" y="-13" font-family="Helvetica,sans-Serif" font-size="10.00">/S1S2Stimulus.cpp</text>
</a>
</g>
</g>
<!-- Node1&#45;&gt;Node22 -->
<g id="edge21" class="edge"><title>Node1&#45;&gt;Node22</title>
<path fill="none" stroke="midnightblue" d="M3775.62,-94.1904C3673.78,-88.3901 3499.93,-74.3735 3354,-42 3346.93,-40.4306 3339.51,-38.3127 3332.42,-36.041"/>
<polygon fill="midnightblue" stroke="midnightblue" points="3775.67,-97.6988 3785.85,-94.7594 3776.06,-90.7096 3775.67,-97.6988"/>
</g>
<!-- Node23 -->
<g id="node23" class="node"><title>Node23</title>
<g id="a_node23"><a xlink:href="SimpleStimulus_8cpp_source.html" target="_top" xlink:title="heart/src/stimulus\l/SimpleStimulus.cpp">
<polygon fill="white" stroke="black" points="3363.5,-6 3363.5,-36 3470.5,-36 3470.5,-6 3363.5,-6"/>
<text text-anchor="start" x="3371.5" y="-24" font-family="Helvetica,sans-Serif" font-size="10.00">heart/src/stimulus</text>
<text text-anchor="middle" x="3417" y="-13" font-family="Helvetica,sans-Serif" font-size="10.00">/SimpleStimulus.cpp</text>
</a>
</g>
</g>
<!-- Node1&#45;&gt;Node23 -->
<g id="edge22" class="edge"><title>Node1&#45;&gt;Node23</title>
<path fill="none" stroke="midnightblue" d="M3775.45,-89.5169C3697.31,-80.8746 3579.54,-65.3929 3479,-42 3471.84,-40.3339 3464.32,-38.2246 3457.08,-36.0044"/>
<polygon fill="midnightblue" stroke="midnightblue" points="3775.4,-93.0331 3785.72,-90.6397 3776.16,-86.0745 3775.4,-93.0331"/>
</g>
<!-- Node24 -->
<g id="node24" class="node"><title>Node24</title>
<g id="a_node24"><a xlink:href="SteadyStateRestitutionStimulus_8cpp_source.html" target="_top" xlink:title="heart/src/stimulus\l/SteadyStateRestitutionStimulus.cpp">
<polygon fill="white" stroke="black" points="3488,-6 3488,-36 3666,-36 3666,-6 3488,-6"/>
<text text-anchor="start" x="3496" y="-24" font-family="Helvetica,sans-Serif" font-size="10.00">heart/src/stimulus</text>
<text text-anchor="middle" x="3577" y="-13" font-family="Helvetica,sans-Serif" font-size="10.00">/SteadyStateRestitutionStimulus.cpp</text>
</a>
</g>
</g>
<!-- Node1&#45;&gt;Node24 -->
<g id="edge23" class="edge"><title>Node1&#45;&gt;Node24</title>
<path fill="none" stroke="midnightblue" d="M3778.83,-75.8218C3730.74,-62.9977 3671.68,-47.2469 3629.9,-36.1065"/>
<polygon fill="midnightblue" stroke="midnightblue" points="3778.04,-79.2332 3788.61,-78.4281 3779.84,-72.4696 3778.04,-79.2332"/>
</g>
<!-- Node25 -->
<g id="node25" class="node"><title>Node25</title>
<g id="a_node25"><a xlink:href="ZeroStimulus_8cpp_source.html" target="_top" xlink:title="heart/src/stimulus\l/ZeroStimulus.cpp">
<polygon fill="white" stroke="black" points="3684,-6 3684,-36 3780,-36 3780,-6 3684,-6"/>
<text text-anchor="start" x="3692" y="-24" font-family="Helvetica,sans-Serif" font-size="10.00">heart/src/stimulus</text>
<text text-anchor="middle" x="3732" y="-13" font-family="Helvetica,sans-Serif" font-size="10.00">/ZeroStimulus.cpp</text>
</a>
</g>
</g>
<!-- Node1&#45;&gt;Node25 -->
<g id="edge24" class="edge"><title>Node1&#45;&gt;Node25</title>
<path fill="none" stroke="midnightblue" d="M3819.78,-73.3147C3798.78,-61.0388 3774.15,-46.6406 3756.33,-36.2254"/>
<polygon fill="midnightblue" stroke="midnightblue" points="3818.12,-76.4026 3828.52,-78.4281 3821.66,-70.3596 3818.12,-76.4026"/>
</g>
<!-- Node26 -->
<g id="node26" class="node"><title>Node26</title>
<g id="a_node26"><a xlink:href="BidomainTissue_8cpp_source.html" target="_top" xlink:title="heart/src/tissue/Bidomain\lTissue.cpp">
<polygon fill="white" stroke="black" points="3798,-6 3798,-36 3926,-36 3926,-6 3798,-6"/>
<text text-anchor="start" x="3806" y="-24" font-family="Helvetica,sans-Serif" font-size="10.00">heart/src/tissue/Bidomain</text>
<text text-anchor="middle" x="3862" y="-13" font-family="Helvetica,sans-Serif" font-size="10.00">Tissue.cpp</text>
</a>
</g>
</g>
<!-- Node1&#45;&gt;Node26 -->
<g id="edge25" class="edge"><title>Node1&#45;&gt;Node26</title>
<path fill="none" stroke="midnightblue" d="M3862,-68.2829C3862,-57.2536 3862,-45.2457 3862,-36.2254"/>
<polygon fill="midnightblue" stroke="midnightblue" points="3858.5,-68.4281 3862,-78.4281 3865.5,-68.4281 3858.5,-68.4281"/>
</g>
<!-- Node27 -->
<g id="node27" class="node"><title>Node27</title>
<g id="a_node27"><a xlink:href="ExtendedBidomainTissue_8cpp_source.html" target="_top" xlink:title="heart/src/tissue/Extended\lBidomainTissue.cpp">
<polygon fill="white" stroke="black" points="3944,-6 3944,-36 4072,-36 4072,-6 3944,-6"/>
<text text-anchor="start" x="3952" y="-24" font-family="Helvetica,sans-Serif" font-size="10.00">heart/src/tissue/Extended</text>
<text text-anchor="middle" x="4008" y="-13" font-family="Helvetica,sans-Serif" font-size="10.00">BidomainTissue.cpp</text>
</a>
</g>
</g>
<!-- Node1&#45;&gt;Node27 -->
<g id="edge26" class="edge"><title>Node1&#45;&gt;Node27</title>
<path fill="none" stroke="midnightblue" d="M3908.48,-73.8068C3932.26,-61.4252 3960.4,-46.7801 3980.67,-36.2254"/>
<polygon fill="midnightblue" stroke="midnightblue" points="3906.85,-70.7061 3899.6,-78.4281 3910.08,-76.9153 3906.85,-70.7061"/>
</g>
<!-- Node28 -->
<g id="node28" class="node"><title>Node28</title>
<g id="a_node28"><a xlink:href="MonodomainTissue_8cpp_source.html" target="_top" xlink:title="heart/src/tissue/Monodomain\lTissue.cpp">
<polygon fill="white" stroke="black" points="4090.5,-6 4090.5,-36 4233.5,-36 4233.5,-6 4090.5,-6"/>
<text text-anchor="start" x="4098.5" y="-24" font-family="Helvetica,sans-Serif" font-size="10.00">heart/src/tissue/Monodomain</text>
<text text-anchor="middle" x="4162" y="-13" font-family="Helvetica,sans-Serif" font-size="10.00">Tissue.cpp</text>
</a>
</g>
</g>
<!-- Node1&#45;&gt;Node28 -->
<g id="edge27" class="edge"><title>Node1&#45;&gt;Node28</title>
<path fill="none" stroke="midnightblue" d="M3948.1,-76.1882C3998.99,-63.2953 4061.96,-47.3444 4106.35,-36.0971"/>
<polygon fill="midnightblue" stroke="midnightblue" points="3946.92,-72.8751 3938.09,-78.7237 3948.64,-79.6607 3946.92,-72.8751"/>
</g>
<!-- Node29 -->
<g id="node29" class="node"><title>Node29</title>
<g id="a_node29"><a xlink:href="DistributedVectorFactory_8cpp_source.html" target="_top" xlink:title="global/src/parallel\l/DistributedVectorFactory.cpp">
<polygon fill="white" stroke="black" points="4251.5,-6 4251.5,-36 4398.5,-36 4398.5,-6 4251.5,-6"/>
<text text-anchor="start" x="4259.5" y="-24" font-family="Helvetica,sans-Serif" font-size="10.00">global/src/parallel</text>
<text text-anchor="middle" x="4325" y="-13" font-family="Helvetica,sans-Serif" font-size="10.00">/DistributedVectorFactory.cpp</text>
</a>
</g>
</g>
<!-- Node1&#45;&gt;Node29 -->
<g id="edge28" class="edge"><title>Node1&#45;&gt;Node29</title>
<path fill="none" stroke="midnightblue" d="M3948.21,-87.5482C4025.48,-77.6464 4141.75,-61.4235 4242,-42 4251.02,-40.2519 4260.54,-38.1775 4269.79,-36.0373"/>
<polygon fill="midnightblue" stroke="midnightblue" points="3947.52,-84.1076 3938.04,-88.8434 3948.41,-91.0515 3947.52,-84.1076"/>
</g>
<!-- Node30 -->
<g id="node30" class="node"><title>Node30</title>
<g id="a_node30"><a xlink:href="LinearSystem_8cpp_source.html" target="_top" xlink:title="linalg/src/LinearSystem.cpp">
<polygon fill="white" stroke="black" points="4416.5,-11.5 4416.5,-30.5 4553.5,-30.5 4553.5,-11.5 4416.5,-11.5"/>
<text text-anchor="middle" x="4485" y="-18.5" font-family="Helvetica,sans-Serif" font-size="10.00">linalg/src/LinearSystem.cpp</text>
</a>
</g>
</g>
<!-- Node1&#45;&gt;Node30 -->
<g id="edge29" class="edge"><title>Node1&#45;&gt;Node30</title>
<path fill="none" stroke="midnightblue" d="M3948.51,-93.0923C4056.46,-86.0562 4246.44,-70.6687 4407,-42 4423.38,-39.0757 4441.38,-34.5485 4455.96,-30.5405"/>
<polygon fill="midnightblue" stroke="midnightblue" points="3948.08,-89.6128 3938.32,-93.7473 3948.52,-96.5984 3948.08,-89.6128"/>
</g>
<!-- Node31 -->
<g id="node31" class="node"><title>Node31</title>
<g id="a_node31"><a xlink:href="ChastePoint_8cpp_source.html" target="_top" xlink:title="mesh/src/common/ChastePoint.cpp">
<polygon fill="white" stroke="black" points="4571.5,-11.5 4571.5,-30.5 4744.5,-30.5 4744.5,-11.5 4571.5,-11.5"/>
<text text-anchor="middle" x="4658" y="-18.5" font-family="Helvetica,sans-Serif" font-size="10.00">mesh/src/common/ChastePoint.cpp</text>
</a>
</g>
</g>
<!-- Node1&#45;&gt;Node31 -->
<g id="edge30" class="edge"><title>Node1&#45;&gt;Node31</title>
<path fill="none" stroke="midnightblue" d="M3948.32,-94.5859C4080.85,-88.5578 4342.21,-73.5593 4562,-42 4582.05,-39.1206 4604.21,-34.5965 4622.18,-30.579"/>
<polygon fill="midnightblue" stroke="midnightblue" points="3948.06,-91.0939 3938.22,-95.0389 3948.37,-98.0869 3948.06,-91.0939"/>
</g>
<!-- Node32 -->
<g id="node32" class="node"><title>Node32</title>
<g id="a_node32"><a xlink:href="DistributedQuadraticMesh_8cpp_source.html" target="_top" xlink:title="mesh/src/common/Distributed\lQuadraticMesh.cpp">
<polygon fill="white" stroke="black" points="4763,-6 4763,-36 4911,-36 4911,-6 4763,-6"/>
<text text-anchor="start" x="4771" y="-24" font-family="Helvetica,sans-Serif" font-size="10.00">mesh/src/common/Distributed</text>
<text text-anchor="middle" x="4837" y="-13" font-family="Helvetica,sans-Serif" font-size="10.00">QuadraticMesh.cpp</text>
</a>
</g>
</g>
<!-- Node1&#45;&gt;Node32 -->
<g id="edge31" class="edge"><title>Node1&#45;&gt;Node32</title>
<path fill="none" stroke="midnightblue" d="M3948.39,-97.4617C4108.13,-95.3841 4460.13,-85.7411 4753,-42 4763.08,-40.4942 4773.73,-38.3773 4783.94,-36.0801"/>
<polygon fill="midnightblue" stroke="midnightblue" points="3948.1,-93.9649 3938.15,-97.5879 3948.19,-100.964 3948.1,-93.9649"/>
</g>
<!-- Node33 -->
<g id="node33" class="node"><title>Node33</title>
<g id="a_node33"><a xlink:href="DistributedTetrahedralMesh_8cpp_source.html" target="_top" xlink:title="mesh/src/common/Distributed\lTetrahedralMesh.cpp">
<polygon fill="white" stroke="black" points="4929,-6 4929,-36 5077,-36 5077,-6 4929,-6"/>
<text text-anchor="start" x="4937" y="-24" font-family="Helvetica,sans-Serif" font-size="10.00">mesh/src/common/Distributed</text>
<text text-anchor="middle" x="5003" y="-13" font-family="Helvetica,sans-Serif" font-size="10.00">TetrahedralMesh.cpp</text>
</a>
</g>
</g>
<!-- Node1&#45;&gt;Node33 -->
<g id="edge32" class="edge"><title>Node1&#45;&gt;Node33</title>
<path fill="none" stroke="midnightblue" d="M3948.43,-98.774C4129.6,-99.2246 4562.01,-94.1546 4920,-42 4930.12,-40.5256 4940.82,-38.393 4951.04,-36.0642"/>
<polygon fill="midnightblue" stroke="midnightblue" points="3948.17,-95.2733 3938.16,-98.7418 3948.15,-102.273 3948.17,-95.2733"/>
</g>
<!-- Node34 -->
<g id="node34" class="node"><title>Node34</title>
<g id="a_node34"><a xlink:href="MixedDimensionMesh_8cpp_source.html" target="_top" xlink:title="mesh/src/common/MixedDimension\lMesh.cpp">
<polygon fill="white" stroke="black" points="5095.5,-6 5095.5,-36 5268.5,-36 5268.5,-6 5095.5,-6"/>
<text text-anchor="start" x="5103.5" y="-24" font-family="Helvetica,sans-Serif" font-size="10.00">mesh/src/common/MixedDimension</text>
<text text-anchor="middle" x="5182" y="-13" font-family="Helvetica,sans-Serif" font-size="10.00">Mesh.cpp</text>
</a>
</g>
</g>
<!-- Node1&#45;&gt;Node34 -->
<g id="edge33" class="edge"><title>Node1&#45;&gt;Node34</title>
<path fill="none" stroke="midnightblue" d="M3948.46,-98.7705C4149.14,-99.5297 4661.78,-95.5453 5086,-42 5097.74,-40.5183 5110.18,-38.367 5122.08,-36.019"/>
<polygon fill="midnightblue" stroke="midnightblue" points="3948.29,-95.2699 3938.28,-98.7268 3948.26,-102.27 3948.29,-95.2699"/>
</g>
<!-- Node35 -->
<g id="node35" class="node"><title>Node35</title>
<g id="a_node35"><a xlink:href="MutableMesh_8cpp_source.html" target="_top" xlink:title="mesh/src/common/MutableMesh.cpp">
<polygon fill="white" stroke="black" points="5287,-11.5 5287,-30.5 5465,-30.5 5465,-11.5 5287,-11.5"/>
<text text-anchor="middle" x="5376" y="-18.5" font-family="Helvetica,sans-Serif" font-size="10.00">mesh/src/common/MutableMesh.cpp</text>
</a>
</g>
</g>
<!-- Node1&#45;&gt;Node35 -->
<g id="edge34" class="edge"><title>Node1&#45;&gt;Node35</title>
<path fill="none" stroke="midnightblue" d="M3948.55,-96.3885C4214.55,-91.1492 5017.75,-73.1145 5277,-42 5298.41,-39.4299 5322.1,-34.7125 5340.94,-30.5046"/>
<polygon fill="midnightblue" stroke="midnightblue" points="3948.11,-92.8964 3938.18,-96.5917 3948.24,-99.8951 3948.11,-92.8964"/>
</g>
<!-- Node36 -->
<g id="node36" class="node"><title>Node36</title>
<g id="a_node36"><a xlink:href="NodesOnlyMesh_8cpp_source.html" target="_top" xlink:title="mesh/src/common/NodesOnly\lMesh.cpp">
<polygon fill="white" stroke="black" points="5482.5,-6 5482.5,-36 5631.5,-36 5631.5,-6 5482.5,-6"/>
<text text-anchor="start" x="5490.5" y="-24" font-family="Helvetica,sans-Serif" font-size="10.00">mesh/src/common/NodesOnly</text>
<text text-anchor="middle" x="5557" y="-13" font-family="Helvetica,sans-Serif" font-size="10.00">Mesh.cpp</text>
</a>
</g>
</g>
<!-- Node1&#45;&gt;Node36 -->
<g id="edge35" class="edge"><title>Node1&#45;&gt;Node36</title>
<path fill="none" stroke="midnightblue" d="M3948.48,-97.2621C4238.41,-94.4328 5174.41,-82.3261 5473,-42 5483.55,-40.5754 5494.71,-38.4027 5505.33,-36.0063"/>
<polygon fill="midnightblue" stroke="midnightblue" points="3948.41,-93.7625 3938.45,-97.3589 3948.48,-100.762 3948.41,-93.7625"/>
</g>
<!-- Node37 -->
<g id="node37" class="node"><title>Node37</title>
<g id="a_node37"><a xlink:href="NonCachedTetrahedralMesh_8cpp_source.html" target="_top" xlink:title="mesh/src/common/NonCached\lTetrahedralMesh.cpp">
<polygon fill="white" stroke="black" points="5650,-6 5650,-36 5802,-36 5802,-6 5650,-6"/>
<text text-anchor="start" x="5658" y="-24" font-family="Helvetica,sans-Serif" font-size="10.00">mesh/src/common/NonCached</text>
<text text-anchor="middle" x="5726" y="-13" font-family="Helvetica,sans-Serif" font-size="10.00">TetrahedralMesh.cpp</text>
</a>
</g>
</g>
<!-- Node1&#45;&gt;Node37 -->
<g id="edge36" class="edge"><title>Node1&#45;&gt;Node37</title>
<path fill="none" stroke="midnightblue" d="M3948.35,-97.5326C4257.32,-95.5088 5307.12,-85.5167 5640,-42 5650.79,-40.5892 5662.21,-38.4226 5673.08,-36.0279"/>
<polygon fill="midnightblue" stroke="midnightblue" points="3948.09,-94.0341 3938.11,-97.5985 3948.13,-101.034 3948.09,-94.0341"/>
</g>
<!-- Node38 -->
<g id="node38" class="node"><title>Node38</title>
<g id="a_node38"><a xlink:href="QuadraticMesh_8cpp_source.html" target="_top" xlink:title="mesh/src/common/Quadratic\lMesh.cpp">
<polygon fill="white" stroke="black" points="5820.5,-6 5820.5,-36 5963.5,-36 5963.5,-6 5820.5,-6"/>
<text text-anchor="start" x="5828.5" y="-24" font-family="Helvetica,sans-Serif" font-size="10.00">mesh/src/common/Quadratic</text>
<text text-anchor="middle" x="5892" y="-13" font-family="Helvetica,sans-Serif" font-size="10.00">Mesh.cpp</text>
</a>
</g>
</g>
<!-- Node1&#45;&gt;Node38 -->
<g id="edge37" class="edge"><title>Node1&#45;&gt;Node38</title>
<path fill="none" stroke="midnightblue" d="M3948.53,-97.9656C4276.56,-97.4543 5443.42,-92.076 5811,-42 5821.19,-40.6118 5831.96,-38.4552 5842.2,-36.0632"/>
<polygon fill="midnightblue" stroke="midnightblue" points="3948.14,-94.466 3938.15,-97.9806 3948.15,-101.466 3948.14,-94.466"/>
</g>
<!-- Node39 -->
<g id="node39" class="node"><title>Node39</title>
<g id="a_node39"><a xlink:href="TetrahedralMesh_8cpp_source.html" target="_top" xlink:title="mesh/src/common/Tetrahedral\lMesh.cpp">
<polygon fill="white" stroke="black" points="5981.5,-6 5981.5,-36 6130.5,-36 6130.5,-6 5981.5,-6"/>
<text text-anchor="start" x="5989.5" y="-24" font-family="Helvetica,sans-Serif" font-size="10.00">mesh/src/common/Tetrahedral</text>
<text text-anchor="middle" x="6056" y="-13" font-family="Helvetica,sans-Serif" font-size="10.00">Mesh.cpp</text>
</a>
</g>
</g>
<!-- Node1&#45;&gt;Node39 -->
<g id="edge38" class="edge"><title>Node1&#45;&gt;Node39</title>
<path fill="none" stroke="midnightblue" d="M3948.39,-98.0927C4293.13,-98.0933 5571.03,-94.4779 5972,-42 5982.55,-40.6188 5993.71,-38.4653 6004.33,-36.0742"/>
<polygon fill="midnightblue" stroke="midnightblue" points="3948.23,-94.5927 3938.23,-98.0916 3948.23,-101.593 3948.23,-94.5927"/>
</g>
<!-- Node40 -->
<g id="node40" class="node"><title>Node40</title>
<g id="a_node40"><a xlink:href="Cylindrical2dMesh_8cpp_source.html" target="_top" xlink:title="mesh/src/mutable/Cylindrical2d\lMesh.cpp">
<polygon fill="white" stroke="black" points="6149,-6 6149,-36 6303,-36 6303,-6 6149,-6"/>
<text text-anchor="start" x="6157" y="-24" font-family="Helvetica,sans-Serif" font-size="10.00">mesh/src/mutable/Cylindrical2d</text>
<text text-anchor="middle" x="6226" y="-13" font-family="Helvetica,sans-Serif" font-size="10.00">Mesh.cpp</text>
</a>
</g>
</g>
<!-- Node1&#45;&gt;Node40 -->
<g id="edge39" class="edge"><title>Node1&#45;&gt;Node40</title>
<path fill="none" stroke="midnightblue" d="M3948.22,-98.2004C4309.55,-98.6823 5703.28,-96.8711 6139,-42 6149.92,-40.6251 6161.47,-38.4745 6172.47,-36.0841"/>
<polygon fill="midnightblue" stroke="midnightblue" points="3948.09,-94.7003 3938.09,-98.1859 3948.08,-101.7 3948.09,-94.7003"/>
</g>
<!-- Node41 -->
<g id="node41" class="node"><title>Node41</title>
<g id="a_node41"><a xlink:href="Cylindrical2dNodesOnlyMesh_8cpp_source.html" target="_top" xlink:title="mesh/src/mutable/Cylindrical2d\lNodesOnlyMesh.cpp">
<polygon fill="white" stroke="black" points="6321,-6 6321,-36 6475,-36 6475,-6 6321,-6"/>
<text text-anchor="start" x="6329" y="-24" font-family="Helvetica,sans-Serif" font-size="10.00">mesh/src/mutable/Cylindrical2d</text>
<text text-anchor="middle" x="6398" y="-13" font-family="Helvetica,sans-Serif" font-size="10.00">NodesOnlyMesh.cpp</text>
</a>
</g>
</g>
<!-- Node1&#45;&gt;Node41 -->
<g id="edge40" class="edge"><title>Node1&#45;&gt;Node41</title>
<path fill="none" stroke="midnightblue" d="M3948.13,-98.4049C4326.16,-99.8169 5840.51,-101.569 6312,-42 6322.8,-40.6358 6334.22,-38.4899 6345.09,-36.1009"/>
<polygon fill="midnightblue" stroke="midnightblue" points="3948.09,-94.9048 3938.08,-98.3664 3948.06,-101.905 3948.09,-94.9048"/>
</g>
<!-- Node42 -->
<g id="node42" class="node"><title>Node42</title>
<g id="a_node42"><a xlink:href="ChasteCuboid_8cpp_source.html" target="_top" xlink:title="mesh/src/utilities\l/ChasteCuboid.cpp">
<polygon fill="white" stroke="black" points="6493.5,-6 6493.5,-36 6594.5,-36 6594.5,-6 6493.5,-6"/>
<text text-anchor="start" x="6501.5" y="-24" font-family="Helvetica,sans-Serif" font-size="10.00">mesh/src/utilities</text>
<text text-anchor="middle" x="6544" y="-13" font-family="Helvetica,sans-Serif" font-size="10.00">/ChasteCuboid.cpp</text>
</a>
</g>
</g>
<!-- Node1&#45;&gt;Node42 -->
<g id="edge41" class="edge"><title>Node1&#45;&gt;Node42</title>
<path fill="none" stroke="midnightblue" d="M3948.11,-97.6947C4372.35,-95.9841 6229.92,-86.0199 6484,-42 6491.79,-40.6504 6499.94,-38.4779 6507.64,-36.0522"/>
<polygon fill="midnightblue" stroke="midnightblue" points="3948.05,-94.1948 3938.06,-97.7347 3948.07,-101.195 3948.05,-94.1948"/>
</g>
<!-- Node43 -->
<g id="node43" class="node"><title>Node43</title>
<g id="a_node43"><a xlink:href="ChasteEllipsoid_8cpp_source.html" target="_top" xlink:title="mesh/src/utilities\l/ChasteEllipsoid.cpp">
<polygon fill="white" stroke="black" points="6612.5,-6 6612.5,-36 6719.5,-36 6719.5,-6 6612.5,-6"/>
<text text-anchor="start" x="6620.5" y="-24" font-family="Helvetica,sans-Serif" font-size="10.00">mesh/src/utilities</text>
<text text-anchor="middle" x="6666" y="-13" font-family="Helvetica,sans-Serif" font-size="10.00">/ChasteEllipsoid.cpp</text>
</a>
</g>
</g>
<!-- Node1&#45;&gt;Node43 -->
<g id="edge42" class="edge"><title>Node1&#45;&gt;Node43</title>
<path fill="none" stroke="midnightblue" d="M3948.08,-97.7085C4383.83,-96.0357 6336.26,-86.1176 6603,-42 6611.15,-40.6518 6619.7,-38.4799 6627.78,-36.0543"/>
<polygon fill="midnightblue" stroke="midnightblue" points="3948.05,-94.2084 3938.07,-97.7465 3948.08,-101.208 3948.05,-94.2084"/>
</g>
<!-- Node44 -->
<g id="node44" class="node"><title>Node44</title>
<g id="a_node44"><a xlink:href="ChasteNodesList_8cpp_source.html" target="_top" xlink:title="mesh/src/utilities\l/ChasteNodesList.cpp">
<polygon fill="white" stroke="black" points="6738,-6 6738,-36 6852,-36 6852,-6 6738,-6"/>
<text text-anchor="start" x="6746" y="-24" font-family="Helvetica,sans-Serif" font-size="10.00">mesh/src/utilities</text>
<text text-anchor="middle" x="6795" y="-13" font-family="Helvetica,sans-Serif" font-size="10.00">/ChasteNodesList.cpp</text>
</a>
</g>
</g>
<!-- Node1&#45;&gt;Node44 -->
<g id="edge43" class="edge"><title>Node1&#45;&gt;Node44</title>
<path fill="none" stroke="midnightblue" d="M3948.29,-97.7027C4396.39,-95.9729 6447.93,-85.7077 6728,-42 6736.64,-40.6523 6745.71,-38.4807 6754.3,-36.0552"/>
<polygon fill="midnightblue" stroke="midnightblue" points="3947.99,-94.2037 3938.01,-97.742 3948.02,-101.204 3947.99,-94.2037"/>
</g>
<!-- Node45 -->
<g id="node45" class="node"><title>Node45</title>
<g id="a_node45"><a xlink:href="Cylindrical2dVertexMesh_8cpp_source.html" target="_top" xlink:title="mesh/src/vertex/Cylindrical2d\lVertexMesh.cpp">
<polygon fill="white" stroke="black" points="6870,-6 6870,-36 7016,-36 7016,-6 6870,-6"/>
<text text-anchor="start" x="6878" y="-24" font-family="Helvetica,sans-Serif" font-size="10.00">mesh/src/vertex/Cylindrical2d</text>
<text text-anchor="middle" x="6943" y="-13" font-family="Helvetica,sans-Serif" font-size="10.00">VertexMesh.cpp</text>
</a>
</g>
</g>
<!-- Node1&#45;&gt;Node45 -->
<g id="edge44" class="edge"><title>Node1&#45;&gt;Node45</title>
<path fill="none" stroke="midnightblue" d="M3948.5,-97.5226C4409.36,-94.8266 6566.06,-80.2449 6861,-42 6871.46,-40.6433 6882.53,-38.4677 6893.03,-36.0411"/>
<polygon fill="midnightblue" stroke="midnightblue" points="3948.24,-94.024 3938.26,-97.5822 3948.28,-101.024 3948.24,-94.024"/>
</g>
<!-- Node46 -->
<g id="node46" class="node"><title>Node46</title>
<g id="a_node46"><a xlink:href="MutableVertexMesh_8cpp_source.html" target="_top" xlink:title="mesh/src/vertex/MutableVertex\lMesh.cpp">
<polygon fill="white" stroke="black" points="7034.5,-6 7034.5,-36 7187.5,-36 7187.5,-6 7034.5,-6"/>
<text text-anchor="start" x="7042.5" y="-24" font-family="Helvetica,sans-Serif" font-size="10.00">mesh/src/vertex/MutableVertex</text>
<text text-anchor="middle" x="7111" y="-13" font-family="Helvetica,sans-Serif" font-size="10.00">Mesh.cpp</text>
</a>
</g>
</g>
<!-- Node1&#45;&gt;Node46 -->
<g id="edge45" class="edge"><title>Node1&#45;&gt;Node46</title>
<path fill="none" stroke="midnightblue" d="M3948.57,-97.5573C4424.52,-94.9774 6712.7,-80.6393 7025,-42 7035.95,-40.6448 7047.55,-38.4699 7058.56,-36.0435"/>
<polygon fill="midnightblue" stroke="midnightblue" points="3948.31,-94.0585 3938.33,-97.6124 3948.35,-101.058 3948.31,-94.0585"/>
</g>
<!-- Node47 -->
<g id="node47" class="node"><title>Node47</title>
<g id="a_node47"><a xlink:href="Toroidal2dVertexMesh_8cpp_source.html" target="_top" xlink:title="mesh/src/vertex/Toroidal2d\lVertexMesh.cpp">
<polygon fill="white" stroke="black" points="7205.5,-6 7205.5,-36 7340.5,-36 7340.5,-6 7205.5,-6"/>
<text text-anchor="start" x="7213.5" y="-24" font-family="Helvetica,sans-Serif" font-size="10.00">mesh/src/vertex/Toroidal2d</text>
<text text-anchor="middle" x="7273" y="-13" font-family="Helvetica,sans-Serif" font-size="10.00">VertexMesh.cpp</text>
</a>
</g>
</g>
<!-- Node1&#45;&gt;Node47 -->
<g id="edge46" class="edge"><title>Node1&#45;&gt;Node47</title>
<path fill="none" stroke="midnightblue" d="M3948.47,-97.774C4439.46,-96.3273 6866.29,-86.9375 7196,-42 7205.85,-40.6571 7216.25,-38.4875 7226.12,-36.0625"/>
<polygon fill="midnightblue" stroke="midnightblue" points="3948.25,-94.2745 3938.26,-97.8038 3948.27,-101.275 3948.25,-94.2745"/>
</g>
<!-- Node48 -->
<g id="node48" class="node"><title>Node48</title>
<g id="a_node48"><a xlink:href="VertexMesh_8cpp_source.html" target="_top" xlink:title="mesh/src/vertex/VertexMesh.cpp">
<polygon fill="white" stroke="black" points="7358.5,-11.5 7358.5,-30.5 7519.5,-30.5 7519.5,-11.5 7358.5,-11.5"/>
<text text-anchor="middle" x="7439" y="-18.5" font-family="Helvetica,sans-Serif" font-size="10.00">mesh/src/vertex/VertexMesh.cpp</text>
</a>
</g>
</g>
<!-- Node1&#45;&gt;Node48 -->
<g id="edge47" class="edge"><title>Node1&#45;&gt;Node48</title>
<path fill="none" stroke="midnightblue" d="M3948.34,-97.6609C4452.2,-95.5424 7002.45,-82.8606 7349,-42 7368.87,-39.6572 7390.79,-34.8339 7408.03,-30.5111"/>
<polygon fill="midnightblue" stroke="midnightblue" points="3948.21,-94.1613 3938.23,-97.7032 3948.24,-101.161 3948.21,-94.1613"/>
</g>
<!-- Node49 -->
<g id="node49" class="node"><title>Node49</title>
<g id="a_node49"><a xlink:href="BackwardEulerIvpOdeSolver_8cpp_source.html" target="_top" xlink:title="ode/src/solver/BackwardEuler\lIvpOdeSolver.cpp">
<polygon fill="white" stroke="black" points="7537.5,-6 7537.5,-36 7684.5,-36 7684.5,-6 7537.5,-6"/>
<text text-anchor="start" x="7545.5" y="-24" font-family="Helvetica,sans-Serif" font-size="10.00">ode/src/solver/BackwardEuler</text>
<text text-anchor="middle" x="7611" y="-13" font-family="Helvetica,sans-Serif" font-size="10.00">IvpOdeSolver.cpp</text>
</a>
</g>
</g>
<!-- Node1&#45;&gt;Node49 -->
<g id="edge48" class="edge"><title>Node1&#45;&gt;Node49</title>
<path fill="none" stroke="midnightblue" d="M3948.17,-97.8258C4466.8,-96.6252 7162.97,-88.1888 7528,-42 7538.59,-40.6603 7549.79,-38.4922 7560.41,-36.0675"/>
<polygon fill="midnightblue" stroke="midnightblue" points="3948.12,-94.3257 3938.13,-97.8487 3948.14,-101.326 3948.12,-94.3257"/>
</g>
<!-- Node50 -->
<g id="node50" class="node"><title>Node50</title>
<g id="a_node50"><a xlink:href="CvodeAdaptor_8cpp_source.html" target="_top" xlink:title="ode/src/solver/CvodeAdaptor.cpp">
<polygon fill="white" stroke="black" points="7703,-11.5 7703,-30.5 7865,-30.5 7865,-11.5 7703,-11.5"/>
<text text-anchor="middle" x="7784" y="-18.5" font-family="Helvetica,sans-Serif" font-size="10.00">ode/src/solver/CvodeAdaptor.cpp</text>
</a>
</g>
</g>
<!-- Node1&#45;&gt;Node50 -->
<g id="edge49" class="edge"><title>Node1&#45;&gt;Node50</title>
<path fill="none" stroke="midnightblue" d="M3948.57,-97.7824C4481.81,-96.3026 7310.24,-86.3978 7693,-42 7713.08,-39.6703 7735.25,-34.8473 7752.68,-30.5213"/>
<polygon fill="midnightblue" stroke="midnightblue" points="3948.25,-94.2831 3938.26,-97.8107 3948.27,-101.283 3948.25,-94.2831"/>
</g>
</g>
</svg>
