<?xml version="1.0" encoding="UTF-8" standalone="no"?>
<!DOCTYPE svg PUBLIC "-//W3C//DTD SVG 1.1//EN"
 "http://www.w3.org/Graphics/SVG/1.1/DTD/svg11.dtd">
<!-- Generated by graphviz version 2.36.0 (20140111.2315)
 -->
<!-- Title: CvodeData_ Pages: 1 -->
<svg width="500pt" height="1212pt"
 viewBox="0.00 0.00 500.00 1212.00" xmlns="http://www.w3.org/2000/svg" xmlns:xlink="http://www.w3.org/1999/xlink">
<g id="graph0" class="graph" transform="scale(1 1) rotate(0) translate(4 1208)">
<title>CvodeData_</title>
<polygon fill="white" stroke="none" points="-4,4 -4,-1208 496,-1208 496,4 -4,4"/>
<!-- Node1 -->
<g id="node1" class="node"><title>Node1</title>
<polygon fill="#bfbfbf" stroke="black" points="368.5,-0.5 368.5,-57.5 439.5,-57.5 439.5,-0.5 368.5,-0.5"/>
<text text-anchor="middle" x="404" y="-45.5" font-family="Helvetica,sans-Serif" font-size="10.00">CvodeData_</text>
<polyline fill="none" stroke="black" points="368.5,-38.5 439.5,-38.5 "/>
<text text-anchor="middle" x="404" y="-26.5" font-family="Helvetica,sans-Serif" font-size="10.00"> </text>
<polyline fill="none" stroke="black" points="368.5,-19.5 439.5,-19.5 "/>
<text text-anchor="middle" x="404" y="-7.5" font-family="Helvetica,sans-Serif" font-size="10.00"> </text>
</g>
<!-- Node2 -->
<g id="node2" class="node"><title>Node2</title>
<g id="a_node2"><a xlink:href="classAbstractOdeSystem.html" target="_top" xlink:title="{AbstractOdeSystem\n||+ AbstractOdeSystem()\l+ ~AbstractOdeSystem()\l+ EvaluateYDerivatives()\l+ CalculateStoppingEvent()\l+ CalculateRootFunction()\l+ GetUseAnalyticJacobian()\l+ rGetConstStateVariables()\l&#45; save()\l&#45; load()\l}">
<polygon fill="white" stroke="black" points="230,-106.5 230,-251.5 370,-251.5 370,-106.5 230,-106.5"/>
<text text-anchor="middle" x="300" y="-239.5" font-family="Helvetica,sans-Serif" font-size="10.00">AbstractOdeSystem</text>
<polyline fill="none" stroke="black" points="230,-232.5 370,-232.5 "/>
<text text-anchor="middle" x="300" y="-220.5" font-family="Helvetica,sans-Serif" font-size="10.00"> </text>
<polyline fill="none" stroke="black" points="230,-213.5 370,-213.5 "/>
<text text-anchor="start" x="238" y="-201.5" font-family="Helvetica,sans-Serif" font-size="10.00">+ AbstractOdeSystem()</text>
<text text-anchor="start" x="238" y="-190.5" font-family="Helvetica,sans-Serif" font-size="10.00">+ ~AbstractOdeSystem()</text>
<text text-anchor="start" x="238" y="-179.5" font-family="Helvetica,sans-Serif" font-size="10.00">+ EvaluateYDerivatives()</text>
<text text-anchor="start" x="238" y="-168.5" font-family="Helvetica,sans-Serif" font-size="10.00">+ CalculateStoppingEvent()</text>
<text text-anchor="start" x="238" y="-157.5" font-family="Helvetica,sans-Serif" font-size="10.00">+ CalculateRootFunction()</text>
<text text-anchor="start" x="238" y="-146.5" font-family="Helvetica,sans-Serif" font-size="10.00">+ GetUseAnalyticJacobian()</text>
<text text-anchor="start" x="238" y="-135.5" font-family="Helvetica,sans-Serif" font-size="10.00">+ rGetConstStateVariables()</text>
<text text-anchor="start" x="238" y="-124.5" font-family="Helvetica,sans-Serif" font-size="10.00">&#45; save()</text>
<text text-anchor="start" x="238" y="-113.5" font-family="Helvetica,sans-Serif" font-size="10.00">&#45; load()</text>
</a>
</g>
</g>
<!-- Node2&#45;&gt;Node1 -->
<g id="edge1" class="edge"><title>Node2&#45;&gt;Node1</title>
<path fill="none" stroke="#404040" d="M341.99,-106.432C348.728,-96.0253 355.847,-85.5948 363,-76 365.23,-73.0089 367.613,-69.9791 370.067,-66.9765"/>
<polygon fill="none" stroke="#404040" points="370.286,-66.7182 371.11,-59.5544 378.04,-57.5604 377.215,-64.7242 370.286,-66.7182"/>
<text text-anchor="middle" x="387.5" y="-79.5" font-family="Helvetica,sans-Serif" font-size="10.00"> +pSystem</text>
</g>
<!-- Node3 -->
<g id="node3" class="node"><title>Node3</title>
<g id="a_node3"><a xlink:href="classAbstractParameterisedSystem.html" target="_top" xlink:title="{AbstractParameterisedSystem\l\&lt; std::vector\&lt; double \&gt; \&gt;\n||+ AbstractParameterisedSystem()\l+ rGetStateVariables()\l+ GetStateVariables()\l+ SetStateVariables()\l+ GetStateVariable()\l+ GetStateVariable()\l+ SetStateVariable()\l+ SetStateVariable()\l+ VerifyStateVariables()\l+ SetDefaultInitialConditions()\land 13 more...\l# DumpState()\l# DumpState()\l# DumpState()\l# CheckParametersOnLoad()\l&#45; GetStateMessage()\l}">
<polygon fill="white" stroke="black" points="129.5,-300.5 129.5,-533.5 294.5,-533.5 294.5,-300.5 129.5,-300.5"/>
<text text-anchor="start" x="137.5" y="-521.5" font-family="Helvetica,sans-Serif" font-size="10.00">AbstractParameterisedSystem</text>
<text text-anchor="middle" x="212" y="-510.5" font-family="Helvetica,sans-Serif" font-size="10.00">&lt; std::vector&lt; double &gt; &gt;</text>
<polyline fill="none" stroke="black" points="129.5,-503.5 294.5,-503.5 "/>
<text text-anchor="middle" x="212" y="-491.5" font-family="Helvetica,sans-Serif" font-size="10.00"> </text>
<polyline fill="none" stroke="black" points="129.5,-484.5 294.5,-484.5 "/>
<text text-anchor="start" x="137.5" y="-472.5" font-family="Helvetica,sans-Serif" font-size="10.00">+ AbstractParameterisedSystem()</text>
<text text-anchor="start" x="137.5" y="-461.5" font-family="Helvetica,sans-Serif" font-size="10.00">+ rGetStateVariables()</text>
<text text-anchor="start" x="137.5" y="-450.5" font-family="Helvetica,sans-Serif" font-size="10.00">+ GetStateVariables()</text>
<text text-anchor="start" x="137.5" y="-439.5" font-family="Helvetica,sans-Serif" font-size="10.00">+ SetStateVariables()</text>
<text text-anchor="start" x="137.5" y="-428.5" font-family="Helvetica,sans-Serif" font-size="10.00">+ GetStateVariable()</text>
<text text-anchor="start" x="137.5" y="-417.5" font-family="Helvetica,sans-Serif" font-size="10.00">+ GetStateVariable()</text>
<text text-anchor="start" x="137.5" y="-406.5" font-family="Helvetica,sans-Serif" font-size="10.00">+ SetStateVariable()</text>
<text text-anchor="start" x="137.5" y="-395.5" font-family="Helvetica,sans-Serif" font-size="10.00">+ SetStateVariable()</text>
<text text-anchor="start" x="137.5" y="-384.5" font-family="Helvetica,sans-Serif" font-size="10.00">+ VerifyStateVariables()</text>
<text text-anchor="start" x="137.5" y="-373.5" font-family="Helvetica,sans-Serif" font-size="10.00">+ SetDefaultInitialConditions()</text>
<text text-anchor="start" x="137.5" y="-362.5" font-family="Helvetica,sans-Serif" font-size="10.00">and 13 more...</text>
<text text-anchor="start" x="137.5" y="-351.5" font-family="Helvetica,sans-Serif" font-size="10.00"># DumpState()</text>
<text text-anchor="start" x="137.5" y="-340.5" font-family="Helvetica,sans-Serif" font-size="10.00"># DumpState()</text>
<text text-anchor="start" x="137.5" y="-329.5" font-family="Helvetica,sans-Serif" font-size="10.00"># DumpState()</text>
<text text-anchor="start" x="137.5" y="-318.5" font-family="Helvetica,sans-Serif" font-size="10.00"># CheckParametersOnLoad()</text>
<text text-anchor="start" x="137.5" y="-307.5" font-family="Helvetica,sans-Serif" font-size="10.00">&#45; GetStateMessage()</text>
</a>
</g>
</g>
<!-- Node3&#45;&gt;Node2 -->
<g id="edge2" class="edge"><title>Node3&#45;&gt;Node2</title>
<path fill="none" stroke="midnightblue" d="M258.72,-290.705C263.689,-277.38 268.611,-264.18 273.232,-251.788"/>
<polygon fill="none" stroke="midnightblue" points="255.312,-289.827 255.098,-300.42 261.871,-292.273 255.312,-289.827"/>
</g>
<!-- Node4 -->
<g id="node4" class="node"><title>Node4</title>
<g id="a_node4"><a xlink:href="classAbstractUntemplatedParameterisedSystem.html" target="_top" xlink:title="{AbstractUntemplatedParameterised\lSystem\n||+ AbstractUntemplatedParameterised\lSystem()\l+ ~AbstractUntemplatedParameterised\lSystem()\l+ GetSystemInformation()\l+ GetSystemName()\l+ GetNumberOfAttributes()\l+ HasAttribute()\l+ GetAttribute()\l+ GetNumberOfStateVariables()\l+ rGetStateVariableNames()\l+ rGetStateVariableUnits()\land 20 more...\l}">
<polygon fill="white" stroke="black" points="118.5,-885 118.5,-1085 305.5,-1085 305.5,-885 118.5,-885"/>
<text text-anchor="start" x="126.5" y="-1073" font-family="Helvetica,sans-Serif" font-size="10.00">AbstractUntemplatedParameterised</text>
<text text-anchor="middle" x="212" y="-1062" font-family="Helvetica,sans-Serif" font-size="10.00">System</text>
<polyline fill="none" stroke="black" points="118.5,-1055 305.5,-1055 "/>
<text text-anchor="middle" x="212" y="-1043" font-family="Helvetica,sans-Serif" font-size="10.00"> </text>
<polyline fill="none" stroke="black" points="118.5,-1036 305.5,-1036 "/>
<text text-anchor="start" x="126.5" y="-1024" font-family="Helvetica,sans-Serif" font-size="10.00">+ AbstractUntemplatedParameterised</text>
<text text-anchor="start" x="126.5" y="-1013" font-family="Helvetica,sans-Serif" font-size="10.00">System()</text>
<text text-anchor="start" x="126.5" y="-1002" font-family="Helvetica,sans-Serif" font-size="10.00">+ ~AbstractUntemplatedParameterised</text>
<text text-anchor="start" x="126.5" y="-991" font-family="Helvetica,sans-Serif" font-size="10.00">System()</text>
<text text-anchor="start" x="126.5" y="-980" font-family="Helvetica,sans-Serif" font-size="10.00">+ GetSystemInformation()</text>
<text text-anchor="start" x="126.5" y="-969" font-family="Helvetica,sans-Serif" font-size="10.00">+ GetSystemName()</text>
<text text-anchor="start" x="126.5" y="-958" font-family="Helvetica,sans-Serif" font-size="10.00">+ GetNumberOfAttributes()</text>
<text text-anchor="start" x="126.5" y="-947" font-family="Helvetica,sans-Serif" font-size="10.00">+ HasAttribute()</text>
<text text-anchor="start" x="126.5" y="-936" font-family="Helvetica,sans-Serif" font-size="10.00">+ GetAttribute()</text>
<text text-anchor="start" x="126.5" y="-925" font-family="Helvetica,sans-Serif" font-size="10.00">+ GetNumberOfStateVariables()</text>
<text text-anchor="start" x="126.5" y="-914" font-family="Helvetica,sans-Serif" font-size="10.00">+ rGetStateVariableNames()</text>
<text text-anchor="start" x="126.5" y="-903" font-family="Helvetica,sans-Serif" font-size="10.00">+ rGetStateVariableUnits()</text>
<text text-anchor="start" x="126.5" y="-892" font-family="Helvetica,sans-Serif" font-size="10.00">and 20 more...</text>
</a>
</g>
</g>
<!-- Node4&#45;&gt;Node3 -->
<g id="edge3" class="edge"><title>Node4&#45;&gt;Node3</title>
<path fill="none" stroke="midnightblue" d="M212,-874.54C212,-776.615 212,-633.537 212,-533.74"/>
<polygon fill="none" stroke="midnightblue" points="208.5,-874.763 212,-884.763 215.5,-874.763 208.5,-874.763"/>
</g>
<!-- Node8 -->
<g id="node8" class="node"><title>Node8</title>
<g id="a_node8"><a xlink:href="classAbstractParameterisedSystem.html" target="_top" xlink:title="{AbstractParameterisedSystem\l\&lt; VECTOR \&gt;\n||+ AbstractParameterisedSystem()\l+ rGetStateVariables()\l+ GetStateVariables()\l+ SetStateVariables()\l+ GetStateVariable()\l+ GetStateVariable()\l+ SetStateVariable()\l+ SetStateVariable()\l+ VerifyStateVariables()\l+ SetDefaultInitialConditions()\land 13 more...\l# DumpState()\l# DumpState()\l# DumpState()\l# CheckParametersOnLoad()\l&#45; GetStateMessage()\l}">
<polygon fill="white" stroke="black" points="-0.5,-592.5 -0.5,-825.5 164.5,-825.5 164.5,-592.5 -0.5,-592.5"/>
<text text-anchor="start" x="7.5" y="-813.5" font-family="Helvetica,sans-Serif" font-size="10.00">AbstractParameterisedSystem</text>
<text text-anchor="middle" x="82" y="-802.5" font-family="Helvetica,sans-Serif" font-size="10.00">&lt; VECTOR &gt;</text>
<polyline fill="none" stroke="black" points="-0.5,-795.5 164.5,-795.5 "/>
<text text-anchor="middle" x="82" y="-783.5" font-family="Helvetica,sans-Serif" font-size="10.00"> </text>
<polyline fill="none" stroke="black" points="-0.5,-776.5 164.5,-776.5 "/>
<text text-anchor="start" x="7.5" y="-764.5" font-family="Helvetica,sans-Serif" font-size="10.00">+ AbstractParameterisedSystem()</text>
<text text-anchor="start" x="7.5" y="-753.5" font-family="Helvetica,sans-Serif" font-size="10.00">+ rGetStateVariables()</text>
<text text-anchor="start" x="7.5" y="-742.5" font-family="Helvetica,sans-Serif" font-size="10.00">+ GetStateVariables()</text>
<text text-anchor="start" x="7.5" y="-731.5" font-family="Helvetica,sans-Serif" font-size="10.00">+ SetStateVariables()</text>
<text text-anchor="start" x="7.5" y="-720.5" font-family="Helvetica,sans-Serif" font-size="10.00">+ GetStateVariable()</text>
<text text-anchor="start" x="7.5" y="-709.5" font-family="Helvetica,sans-Serif" font-size="10.00">+ GetStateVariable()</text>
<text text-anchor="start" x="7.5" y="-698.5" font-family="Helvetica,sans-Serif" font-size="10.00">+ SetStateVariable()</text>
<text text-anchor="start" x="7.5" y="-687.5" font-family="Helvetica,sans-Serif" font-size="10.00">+ SetStateVariable()</text>
<text text-anchor="start" x="7.5" y="-676.5" font-family="Helvetica,sans-Serif" font-size="10.00">+ VerifyStateVariables()</text>
<text text-anchor="start" x="7.5" y="-665.5" font-family="Helvetica,sans-Serif" font-size="10.00">+ SetDefaultInitialConditions()</text>
<text text-anchor="start" x="7.5" y="-654.5" font-family="Helvetica,sans-Serif" font-size="10.00">and 13 more...</text>
<text text-anchor="start" x="7.5" y="-643.5" font-family="Helvetica,sans-Serif" font-size="10.00"># DumpState()</text>
<text text-anchor="start" x="7.5" y="-632.5" font-family="Helvetica,sans-Serif" font-size="10.00"># DumpState()</text>
<text text-anchor="start" x="7.5" y="-621.5" font-family="Helvetica,sans-Serif" font-size="10.00"># DumpState()</text>
<text text-anchor="start" x="7.5" y="-610.5" font-family="Helvetica,sans-Serif" font-size="10.00"># CheckParametersOnLoad()</text>
<text text-anchor="start" x="7.5" y="-599.5" font-family="Helvetica,sans-Serif" font-size="10.00">&#45; GetStateMessage()</text>
</a>
</g>
</g>
<!-- Node4&#45;&gt;Node8 -->
<g id="edge8" class="edge"><title>Node4&#45;&gt;Node8</title>
<path fill="none" stroke="midnightblue" d="M175.566,-875.314C171.271,-864.617 166.725,-854.021 162,-844 159.169,-837.996 156.147,-831.914 152.996,-825.823"/>
<polygon fill="none" stroke="midnightblue" points="172.353,-876.707 179.274,-884.729 178.866,-874.142 172.353,-876.707"/>
</g>
<!-- Node5 -->
<g id="node5" class="node"><title>Node5</title>
<polygon fill="white" stroke="#bfbfbf" points="69,-1135 69,-1203 229,-1203 229,-1135 69,-1135"/>
<text text-anchor="start" x="77" y="-1191" font-family="Helvetica,sans-Serif" font-size="10.00">shared_ptr&lt; AbstractOdeSystem</text>
<text text-anchor="middle" x="149" y="-1180" font-family="Helvetica,sans-Serif" font-size="10.00">Information &gt;</text>
<polyline fill="none" stroke="#bfbfbf" points="69,-1173 229,-1173 "/>
<text text-anchor="middle" x="149" y="-1161" font-family="Helvetica,sans-Serif" font-size="10.00"> </text>
<polyline fill="none" stroke="#bfbfbf" points="69,-1154 229,-1154 "/>
<text text-anchor="middle" x="149" y="-1142" font-family="Helvetica,sans-Serif" font-size="10.00"> </text>
</g>
<!-- Node5&#45;&gt;Node4 -->
<g id="edge4" class="edge"><title>Node5&#45;&gt;Node4</title>
<path fill="none" stroke="#404040" d="M160.555,-1134.62C164.385,-1123.55 168.883,-1110.56 173.598,-1096.94"/>
<polygon fill="none" stroke="#404040" points="173.674,-1096.72 171.857,-1089.74 177.6,-1085.38 179.417,-1092.36 173.674,-1096.72"/>
<text text-anchor="middle" x="206.5" y="-1107.5" font-family="Helvetica,sans-Serif" font-size="10.00"> #mpSystemInfo</text>
</g>
<!-- Node6 -->
<g id="node6" class="node"><title>Node6</title>
<g id="a_node6"><a xlink:href="classunsigned.html" target="_top" xlink:title="{unsigned\n||}">
<polygon fill="white" stroke="black" points="247,-1140.5 247,-1197.5 303,-1197.5 303,-1140.5 247,-1140.5"/>
<text text-anchor="middle" x="275" y="-1185.5" font-family="Helvetica,sans-Serif" font-size="10.00">unsigned</text>
<polyline fill="none" stroke="black" points="247,-1178.5 303,-1178.5 "/>
<text text-anchor="middle" x="275" y="-1166.5" font-family="Helvetica,sans-Serif" font-size="10.00"> </text>
<polyline fill="none" stroke="black" points="247,-1159.5 303,-1159.5 "/>
<text text-anchor="middle" x="275" y="-1147.5" font-family="Helvetica,sans-Serif" font-size="10.00"> </text>
</a>
</g>
</g>
<!-- Node6&#45;&gt;Node4 -->
<g id="edge5" class="edge"><title>Node6&#45;&gt;Node4</title>
<path fill="none" stroke="#404040" d="M265.432,-1140.36C261.221,-1128.2 255.973,-1113.03 250.424,-1097"/>
<polygon fill="none" stroke="#404040" points="250.265,-1096.54 244.523,-1092.18 246.34,-1085.2 252.083,-1089.57 250.265,-1096.54"/>
<text text-anchor="middle" x="320" y="-1107.5" font-family="Helvetica,sans-Serif" font-size="10.00"> #mNumberOfStateVariables</text>
</g>
<!-- Node7 -->
<g id="node7" class="node"><title>Node7</title>
<polygon fill="white" stroke="#bfbfbf" points="240,-680.5 240,-737.5 330,-737.5 330,-680.5 240,-680.5"/>
<text text-anchor="middle" x="285" y="-725.5" font-family="Helvetica,sans-Serif" font-size="10.00">vector&lt; double &gt;</text>
<polyline fill="none" stroke="#bfbfbf" points="240,-718.5 330,-718.5 "/>
<text text-anchor="middle" x="285" y="-706.5" font-family="Helvetica,sans-Serif" font-size="10.00"> </text>
<polyline fill="none" stroke="#bfbfbf" points="240,-699.5 330,-699.5 "/>
<text text-anchor="middle" x="285" y="-687.5" font-family="Helvetica,sans-Serif" font-size="10.00"> </text>
</g>
<!-- Node7&#45;&gt;Node3 -->
<g id="edge6" class="edge"><title>Node7&#45;&gt;Node3</title>
<path fill="none" stroke="#404040" d="M278.067,-680.456C270.192,-649.173 256.785,-595.912 244.098,-545.511"/>
<polygon fill="none" stroke="#404040" points="244.078,-545.434 238.735,-540.592 241.149,-533.797 246.493,-538.639 244.078,-545.434"/>
<text text-anchor="middle" x="291.5" y="-566" font-family="Helvetica,sans-Serif" font-size="10.00"> #mStateVariables</text>
<text text-anchor="middle" x="291.5" y="-555" font-family="Helvetica,sans-Serif" font-size="10.00">#mParameters</text>
</g>
<!-- Node8&#45;&gt;Node3 -->
<g id="edge7" class="edge"><title>Node8&#45;&gt;Node3</title>
<path fill="none" stroke="orange" d="M74.4631,-582.251C76.3334,-571.817 79.0939,-561.601 83,-552 93.2224,-526.875 110.625,-503.81 129.396,-484.16"/>
<polygon fill="orange" stroke="orange" points="70.977,-581.895 72.9344,-592.308 77.8975,-582.947 70.977,-581.895"/>
<text text-anchor="middle" x="140.5" y="-560.5" font-family="Helvetica,sans-Serif" font-size="10.00"> &lt; std::vector&lt; double &gt; &gt;</text>
</g>
<!-- Node9 -->
<g id="node9" class="node"><title>Node9</title>
<polygon fill="white" stroke="#bfbfbf" points="41.5,-956.5 41.5,-1013.5 100.5,-1013.5 100.5,-956.5 41.5,-956.5"/>
<text text-anchor="middle" x="71" y="-1001.5" font-family="Helvetica,sans-Serif" font-size="10.00">VECTOR</text>
<polyline fill="none" stroke="#bfbfbf" points="41.5,-994.5 100.5,-994.5 "/>
<text text-anchor="middle" x="71" y="-982.5" font-family="Helvetica,sans-Serif" font-size="10.00"> </text>
<polyline fill="none" stroke="#bfbfbf" points="41.5,-975.5 100.5,-975.5 "/>
<text text-anchor="middle" x="71" y="-963.5" font-family="Helvetica,sans-Serif" font-size="10.00"> </text>
</g>
<!-- Node9&#45;&gt;Node8 -->
<g id="edge9" class="edge"><title>Node9&#45;&gt;Node8</title>
<path fill="none" stroke="#404040" d="M72.1051,-956.473C73.2355,-928.317 75.0746,-882.506 76.8624,-837.973"/>
<polygon fill="none" stroke="#404040" points="76.8708,-837.762 73.1147,-831.606 77.3522,-825.771 81.1083,-831.927 76.8708,-837.762"/>
<text text-anchor="middle" x="117.5" y="-858" font-family="Helvetica,sans-Serif" font-size="10.00"> #mStateVariables</text>
<text text-anchor="middle" x="117.5" y="-847" font-family="Helvetica,sans-Serif" font-size="10.00">#mParameters</text>
</g>
<!-- Node10 -->
<g id="node10" class="node"><title>Node10</title>
<g id="a_node10"><a xlink:href="classbool.html" target="_top" xlink:title="{bool\n||}">
<polygon fill="white" stroke="black" points="312.5,-388.5 312.5,-445.5 347.5,-445.5 347.5,-388.5 312.5,-388.5"/>
<text text-anchor="middle" x="330" y="-433.5" font-family="Helvetica,sans-Serif" font-size="10.00">bool</text>
<polyline fill="none" stroke="black" points="312.5,-426.5 347.5,-426.5 "/>
<text text-anchor="middle" x="330" y="-414.5" font-family="Helvetica,sans-Serif" font-size="10.00"> </text>
<polyline fill="none" stroke="black" points="312.5,-407.5 347.5,-407.5 "/>
<text text-anchor="middle" x="330" y="-395.5" font-family="Helvetica,sans-Serif" font-size="10.00"> </text>
</a>
</g>
</g>
<!-- Node10&#45;&gt;Node2 -->
<g id="edge10" class="edge"><title>Node10&#45;&gt;Node2</title>
<path fill="none" stroke="#404040" d="M326.5,-388.466C322.629,-358.013 316.204,-307.471 310.65,-263.78"/>
<polygon fill="none" stroke="#404040" points="310.623,-263.565 305.898,-258.118 309.109,-251.661 313.834,-257.109 310.623,-263.565"/>
<text text-anchor="middle" x="367.5" y="-273.5" font-family="Helvetica,sans-Serif" font-size="10.00"> #mUseAnalyticJacobian</text>
</g>
<!-- Node11 -->
<g id="node11" class="node"><title>Node11</title>
<polygon fill="white" stroke="#bfbfbf" points="388.5,-150.5 388.5,-207.5 491.5,-207.5 491.5,-150.5 388.5,-150.5"/>
<text text-anchor="middle" x="440" y="-195.5" font-family="Helvetica,sans-Serif" font-size="10.00">vector&lt; realtype &gt; *</text>
<polyline fill="none" stroke="#bfbfbf" points="388.5,-188.5 491.5,-188.5 "/>
<text text-anchor="middle" x="440" y="-176.5" font-family="Helvetica,sans-Serif" font-size="10.00"> </text>
<polyline fill="none" stroke="#bfbfbf" points="388.5,-169.5 491.5,-169.5 "/>
<text text-anchor="middle" x="440" y="-157.5" font-family="Helvetica,sans-Serif" font-size="10.00"> </text>
</g>
<!-- Node11&#45;&gt;Node1 -->
<g id="edge11" class="edge"><title>Node11&#45;&gt;Node1</title>
<path fill="none" stroke="#404040" d="M433.229,-150.162C427.698,-127.423 419.811,-95.0016 413.624,-69.5655"/>
<polygon fill="none" stroke="#404040" points="413.577,-69.3729 408.272,-64.4883 410.741,-57.7128 416.046,-62.5974 413.577,-69.3729"/>
<text text-anchor="middle" x="429" y="-79.5" font-family="Helvetica,sans-Serif" font-size="10.00"> +pY</text>
</g>
</g>
</svg>
