<?xml version="1.0" encoding="UTF-8" standalone="no"?>
<!DOCTYPE svg PUBLIC "-//W3C//DTD SVG 1.1//EN"
 "http://www.w3.org/Graphics/SVG/1.1/DTD/svg11.dtd">
<!-- Generated by graphviz version 2.36.0 (20140111.2315)
 -->
<!-- Title: ElementAndWeights&lt; DIM &gt; Pages: 1 -->
<svg width="243pt" height="290pt"
 viewBox="0.00 0.00 243.00 290.00" xmlns="http://www.w3.org/2000/svg" xmlns:xlink="http://www.w3.org/1999/xlink">
<g id="graph0" class="graph" transform="scale(1 1) rotate(0) translate(4 286)">
<title>ElementAndWeights&lt; DIM &gt;</title>
<polygon fill="white" stroke="none" points="-4,4 -4,-286 239,-286 239,4 -4,4"/>
<!-- Node1 -->
<g id="node1" class="node"><title>Node1</title>
<polygon fill="#bfbfbf" stroke="black" points="92,-1 92,-69 204,-69 204,-1 92,-1"/>
<text text-anchor="start" x="100" y="-57" font-family="Helvetica,sans-Serif" font-size="10.00">ElementAndWeights&lt;</text>
<text text-anchor="middle" x="148" y="-46" font-family="Helvetica,sans-Serif" font-size="10.00"> DIM &gt;</text>
<polyline fill="none" stroke="black" points="92,-39 204,-39 "/>
<text text-anchor="middle" x="148" y="-27" font-family="Helvetica,sans-Serif" font-size="10.00"> </text>
<polyline fill="none" stroke="black" points="92,-20 204,-20 "/>
<text text-anchor="middle" x="148" y="-8" font-family="Helvetica,sans-Serif" font-size="10.00"> </text>
</g>
<!-- Node2 -->
<g id="node2" class="node"><title>Node2</title>
<polygon fill="white" stroke="#bfbfbf" points="-0.5,-118.5 -0.5,-175.5 136.5,-175.5 136.5,-118.5 -0.5,-118.5"/>
<text text-anchor="middle" x="68" y="-163.5" font-family="Helvetica,sans-Serif" font-size="10.00">c_vector&lt; double, DIM+1 &gt;</text>
<polyline fill="none" stroke="#bfbfbf" points="-0.5,-156.5 136.5,-156.5 "/>
<text text-anchor="middle" x="68" y="-144.5" font-family="Helvetica,sans-Serif" font-size="10.00"> </text>
<polyline fill="none" stroke="#bfbfbf" points="-0.5,-137.5 136.5,-137.5 "/>
<text text-anchor="middle" x="68" y="-125.5" font-family="Helvetica,sans-Serif" font-size="10.00"> </text>
</g>
<!-- Node2&#45;&gt;Node1 -->
<g id="edge1" class="edge"><title>Node2&#45;&gt;Node1</title>
<path fill="none" stroke="#404040" d="M88.1874,-118.242C96.8186,-106.374 107.096,-92.2424 116.677,-79.0697"/>
<polygon fill="none" stroke="#404040" points="116.77,-78.9416 117.064,-71.7365 123.828,-69.2368 123.534,-76.4419 116.77,-78.9416"/>
<text text-anchor="middle" x="131" y="-91.5" font-family="Helvetica,sans-Serif" font-size="10.00"> +Weights</text>
</g>
<!-- Node3 -->
<g id="node3" class="node"><title>Node3</title>
<polygon fill="white" stroke="#bfbfbf" points="41,-224.5 41,-281.5 95,-281.5 95,-224.5 41,-224.5"/>
<text text-anchor="middle" x="68" y="-269.5" font-family="Helvetica,sans-Serif" font-size="10.00">c_vector</text>
<polyline fill="none" stroke="#bfbfbf" points="41,-262.5 95,-262.5 "/>
<text text-anchor="middle" x="68" y="-250.5" font-family="Helvetica,sans-Serif" font-size="10.00"> </text>
<polyline fill="none" stroke="#bfbfbf" points="41,-243.5 95,-243.5 "/>
<text text-anchor="middle" x="68" y="-231.5" font-family="Helvetica,sans-Serif" font-size="10.00"> </text>
</g>
<!-- Node3&#45;&gt;Node2 -->
<g id="edge2" class="edge"><title>Node3&#45;&gt;Node2</title>
<path fill="none" stroke="orange" d="M68,-214.098C68,-201.403 68,-187.495 68,-175.726"/>
<polygon fill="orange" stroke="orange" points="64.5001,-214.403 68,-224.403 71.5001,-214.403 64.5001,-214.403"/>
<text text-anchor="middle" x="111" y="-197.5" font-family="Helvetica,sans-Serif" font-size="10.00"> &lt; double, DIM+1 &gt;</text>
</g>
<!-- Node4 -->
<g id="node4" class="node"><title>Node4</title>
<g id="a_node4"><a xlink:href="classunsigned.html" target="_top" xlink:title="{unsigned\n||}">
<polygon fill="white" stroke="black" points="155,-118.5 155,-175.5 211,-175.5 211,-118.5 155,-118.5"/>
<text text-anchor="middle" x="183" y="-163.5" font-family="Helvetica,sans-Serif" font-size="10.00">unsigned</text>
<polyline fill="none" stroke="black" points="155,-156.5 211,-156.5 "/>
<text text-anchor="middle" x="183" y="-144.5" font-family="Helvetica,sans-Serif" font-size="10.00"> </text>
<polyline fill="none" stroke="black" points="155,-137.5 211,-137.5 "/>
<text text-anchor="middle" x="183" y="-125.5" font-family="Helvetica,sans-Serif" font-size="10.00"> </text>
</a>
</g>
</g>
<!-- Node4&#45;&gt;Node1 -->
<g id="edge3" class="edge"><title>Node4&#45;&gt;Node1</title>
<path fill="none" stroke="#404040" d="M174.168,-118.242C170.577,-106.956 166.334,-93.6225 162.322,-81.0134"/>
<polygon fill="none" stroke="#404040" points="162.214,-80.6719 156.583,-76.1672 158.575,-69.2368 164.206,-73.7415 162.214,-80.6719"/>
<text text-anchor="middle" x="201.5" y="-91.5" font-family="Helvetica,sans-Serif" font-size="10.00"> +ElementNum</text>
</g>
</g>
</svg>
